<?xml version="1.0" encoding="UTF-8" standalone="no"?>
<!DOCTYPE svg PUBLIC "-//W3C//DTD SVG 1.1//EN"
"http://www.w3.org/Graphics/SVG/1.1/DTD/svg11.dtd">
<svg viewBox="0 0 935 1210" version="1.1" xmlns="http://www.w3.org/2000/svg" xmlns:xlink="http://www.w3.org/1999/xlink">
<defs>
<style type="text/css"><![CDATA[
.g0_2303{
fill: #FFF;
}
.g1_2303{
fill: #000;
}
]]></style>
</defs>
<path d="M68.9,1149.3H755.2v-21.2H68.9v21.2Z" class="g0_2303"/>
<path d="M771.3,1149.3H855v-21.2H771.3v21.2Z" class="g0_2303"/>
<path d="M69.9,186h.8V141h-.8v45Z" class="g1_2303"/>
<path d="M197.3,186.8h.7V140.2h-.7v46.6Z" class="g1_2303"/>
<path d="M351.4,186.8h.7V140.2h-.7v46.6Z" class="g1_2303"/>
<path d="M851.4,186h.7V141h-.7v45Z" class="g1_2303"/>
<path d="M69.9,140.9H852.2v-.7H69.9v.7Z" class="g1_2303"/>
<path d="M69.9,163.8H852.2v-.7H69.9v.7Z" class="g1_2303"/>
<path d="M69.9,186.7H852.2V186H69.9v.7Z" class="g1_2303"/>
<path d="M69.9,997.3h.8V744.4h-.8V997.3Z" class="g1_2303"/>
<path d="M377.9,998.1h.7V743.7h-.7V998.1Z" class="g1_2303"/>
<path d="M851.7,997.3h.7V744.4h-.7V997.3Z" class="g1_2303"/>
<path d="M69.9,744.4H852.4v-.7H69.9v.7Z" class="g1_2303"/>
<path d="M69.9,773.5H852.4v-.7H69.9v.7Z" class="g1_2303"/>
<path d="M69.9,802.4H852.4v-.7H69.9v.7Z" class="g1_2303"/>
<path d="M69.9,831.5H852.4v-.7H69.9v.7Z" class="g1_2303"/>
<path d="M69.9,877.3H852.4v-.7H69.9v.7Z" class="g1_2303"/>
<path d="M69.9,923.2H852.4v-.8H69.9v.8Z" class="g1_2303"/>
<path d="M69.9,969H852.4v-.7H69.9v.7Z" class="g1_2303"/>
<path d="M69.9,998.1H852.4v-.8H69.9v.8Z" class="g1_2303"/>
</svg>