<?xml version="1.0" encoding="UTF-8" standalone="no"?>
<!DOCTYPE svg PUBLIC "-//W3C//DTD SVG 1.1//EN"
"http://www.w3.org/Graphics/SVG/1.1/DTD/svg11.dtd">
<svg viewBox="0 0 935 1210" version="1.1" xmlns="http://www.w3.org/2000/svg" xmlns:xlink="http://www.w3.org/1999/xlink">
<defs>
<clipPath id="c0_1348"><path d="M766.6,59.2V41.4h72.1V59.2Z"/></clipPath>
<style type="text/css"><![CDATA[
.g0_1348{
fill: #000;
}
]]></style>
</defs>
<path d="M97.3,62.9v.3H839.9v-.3H97.3Z" class="g0_1348"/>
<path d="M96.2,1114.1h-.1v.4h.1v-.4Z" class="g0_1348"/>
<path d="M838.7,1114.1h.2v.4h-.2v-.4Z" class="g0_1348"/>
<path d="M96.2,1114.1v.4H838.7v-.4H96.2Z" class="g0_1348"/>
<image clip-path="url(#c0_1348)" preserveAspectRatio="none" x="767" y="41" width="72" height="18" xlink:href="img/1.jpg"/>
<path d="M96.6,595.8h-.7V728.4h.7V595.8Z" class="g0_1348"/>
<path d="M137.9,592.8h-.8v93.6h.8V592.8Z" class="g0_1348"/>
<path d="M179.1,592.8h-.7v93.6h.7V592.8Z" class="g0_1348"/>
<path d="M220.4,592.8h-.8v93.6h.8V592.8Z" class="g0_1348"/>
<path d="M261.6,592.8h-.7v93.6h.7V592.8Z" class="g0_1348"/>
<path d="M302.9,592.8h-.8v93.6h.8V592.8Z" class="g0_1348"/>
<path d="M344.1,592.8h-.7v93.6h.7V592.8Z" class="g0_1348"/>
<path d="M385.4,592.8h-.8v93.6h.8V592.8Z" class="g0_1348"/>
<path d="M467.9,592.8h-.8v93.6h.8V592.8Z" class="g0_1348"/>
<path d="M509.1,592.8h-.7v93.6h.7V592.8Z" class="g0_1348"/>
<path d="M550.4,592.8h-.8v93.6h.8V592.8Z" class="g0_1348"/>
<path d="M591.6,592.8h-.7v93.6h.7V592.8Z" class="g0_1348"/>
<path d="M632.9,592.8h-.8v93.6h.8V592.8Z" class="g0_1348"/>
<path d="M674.1,592.8h-.7v93.6h.7V592.8Z" class="g0_1348"/>
<path d="M715.3,592.8h-.7v93.6h.7V592.8Z" class="g0_1348"/>
<path d="M756.6,592.8h-.7v93.6h.7V592.8Z" class="g0_1348"/>
<path d="M797.8,592.8h-.7v93.6h.7V592.8Z" class="g0_1348"/>
<path d="M839.1,595.8h-.7V728.4h.7V595.8Z" class="g0_1348"/>
<path d="M95.9,592.8v3H839.1v-3H95.9Z" class="g0_1348"/>
<path d="M95.9,623.4v3H839.1v-3H95.9Z" class="g0_1348"/>
<path d="M95.9,655v.8H839.1V655H95.9Z" class="g0_1348"/>
<path d="M95.9,685.6v.7H839.1v-.7H95.9Z" class="g0_1348"/>
<path d="M95.9,728.4v.7H839.1v-.7H95.9Z" class="g0_1348"/>
<path d="M96.6,789.9h-.7v248.6h.7V789.9Z" class="g0_1348"/>
<path d="M278.4,786.8h-.7v252.5h.7V786.8Z" class="g0_1348"/>
<path d="M318.2,786.8h-.8v252.5h.8V786.8Z" class="g0_1348"/>
<path d="M371.6,786.8h-.7v252.5h.7V786.8Z" class="g0_1348"/>
<path d="M443.4,786.8h-.8v252.5h.8V786.8Z" class="g0_1348"/>
<path d="M840.4,789.9h-.8v248.6h.8V789.9Z" class="g0_1348"/>
<path d="M95.9,786.8v3.1H840.4v-3.1H95.9Z" class="g0_1348"/>
<path d="M95.9,829.7v3H840.4v-3H95.9Z" class="g0_1348"/>
<path d="M95.9,870.4v.8H840.4v-.8H95.9Z" class="g0_1348"/>
<path d="M277.7,910.1v.8H840.4v-.8H277.7Z" class="g0_1348"/>
<path d="M277.7,934.6v.7H840.4v-.7H277.7Z" class="g0_1348"/>
<path d="M95.9,959.1v.7H840.4v-.7H95.9Z" class="g0_1348"/>
<path d="M95.9,998.8v.7H840.4v-.7H95.9Z" class="g0_1348"/>
<path d="M95.9,1038.6v.7H840.4v-.7H95.9Z" class="g0_1348"/>
</svg>