<?xml version="1.0" encoding="UTF-8" standalone="no"?>
<!DOCTYPE svg PUBLIC "-//W3C//DTD SVG 1.1//EN"
"http://www.w3.org/Graphics/SVG/1.1/DTD/svg11.dtd">
<svg viewBox="0 0 935 1210" version="1.1" xmlns="http://www.w3.org/2000/svg" xmlns:xlink="http://www.w3.org/1999/xlink">
<defs>
<style type="text/css"><![CDATA[
.g0_4639{
fill: #FFF;
}
.g1_4639{
fill: #000;
}
]]></style>
</defs>
<path d="M68.9,1149.3H852.7v-21.2H68.9v21.2Z" class="g0_4639"/>
<path d="M69.9,1082.9h.8V124.1h-.8v958.8Z" class="g1_4639"/>
<path d="M126.7,1083.6h.7v-919h-.7v919Z" class="g1_4639"/>
<path d="M183.4,1083.6h.8V123.4h-.8v960.2Z" class="g1_4639"/>
<path d="M431.7,1083.6h.7V123.4h-.7v960.2Z" class="g1_4639"/>
<path d="M524.8,1083.6h.7V123.4h-.7v960.2Z" class="g1_4639"/>
<path d="M850.8,1082.9h.7V124.1h-.7v958.8Z" class="g1_4639"/>
<path d="M69.9,124.1H851.5v-.7H69.9v.7Z" class="g1_4639"/>
<path d="M69.9,165.4H184.2v-.8H69.9v.8Z" class="g1_4639"/>
<path d="M69.9,189.8H851.5v-.7H69.9v.7Z" class="g1_4639"/>
<path d="M183.4,252.4H851.5v-.7H183.4v.7Z" class="g1_4639"/>
<path d="M183.4,331.9H851.5v-.7H183.4v.7Z" class="g1_4639"/>
<path d="M183.4,411.4H851.5v-.7H183.4v.7Z" class="g1_4639"/>
<path d="M183.4,490.8H851.5v-.7H183.4v.7Z" class="g1_4639"/>
<path d="M183.4,570.3H851.5v-.8H183.4v.8Z" class="g1_4639"/>
<path d="M183.4,649.7H851.5V649H183.4v.7Z" class="g1_4639"/>
<path d="M183.4,729.1H851.5v-.7H183.4v.7Z" class="g1_4639"/>
<path d="M69.9,842.2H851.5v-.7H69.9v.7Z" class="g1_4639"/>
<path d="M183.4,888.1H851.5v-.8H183.4v.8Z" class="g1_4639"/>
<path d="M183.4,912.5H851.5v-.8H183.4v.8Z" class="g1_4639"/>
<path d="M183.4,936.9H851.5v-.7H183.4v.7Z" class="g1_4639"/>
<path d="M183.4,961.4H851.5v-.7H183.4v.7Z" class="g1_4639"/>
<path d="M183.4,985.8H851.5v-.7H183.4v.7Z" class="g1_4639"/>
<path d="M183.4,1010.3H851.5v-.8H183.4v.8Z" class="g1_4639"/>
<path d="M183.4,1034.7H851.5v-.7H183.4v.7Z" class="g1_4639"/>
<path d="M183.4,1059.1H851.5v-.7H183.4v.7Z" class="g1_4639"/>
<path d="M69.9,1083.6H851.5v-.7H69.9v.7Z" class="g1_4639"/>
</svg>