<?xml version="1.0" encoding="UTF-8" standalone="no"?>
<!DOCTYPE svg PUBLIC "-//W3C//DTD SVG 1.1//EN"
"http://www.w3.org/Graphics/SVG/1.1/DTD/svg11.dtd">
<svg viewBox="0 0 935 1210" version="1.1" xmlns="http://www.w3.org/2000/svg" xmlns:xlink="http://www.w3.org/1999/xlink">
<defs>
<style type="text/css"><![CDATA[
.g0_4909{
fill: #FFF;
}
.g1_4909{
fill: #000;
}
]]></style>
</defs>
<path d="M68.9,1149.3H852.7v-21.2H68.9v21.2Z" class="g0_4909"/>
<path d="M69.9,1090.5h.8V124.1h-.8v966.4Z" class="g1_4909"/>
<path d="M124.1,1091.3h.8V164.6h-.8v926.7Z" class="g1_4909"/>
<path d="M174.9,1091.3h.7V123.4h-.7v967.9Z" class="g1_4909"/>
<path d="M395.2,1091.3h.7V123.4h-.7v967.9Z" class="g1_4909"/>
<path d="M470.4,1091.3h.8V123.4h-.8v967.9Z" class="g1_4909"/>
<path d="M561.8,1091.3h.8V123.4h-.8v967.9Z" class="g1_4909"/>
<path d="M851.5,1090.5h.7V124.1h-.7v966.4Z" class="g1_4909"/>
<path d="M69.9,124.1H852.2v-.7H69.9v.7Z" class="g1_4909"/>
<path d="M69.9,165.4H175.7v-.8H69.9v.8Z" class="g1_4909"/>
<path d="M69.9,189.8H852.2v-.7H69.9v.7Z" class="g1_4909"/>
<path d="M69.9,231.1H852.2v-.7H69.9v.7Z" class="g1_4909"/>
<path d="M69.9,272.3H852.2v-.7H69.9v.7Z" class="g1_4909"/>
<path d="M69.9,313.6H852.2v-.7H69.9v.7Z" class="g1_4909"/>
<path d="M69.9,354.8H852.2v-.7H69.9v.7Z" class="g1_4909"/>
<path d="M69.9,396.1H852.2v-.7H69.9v.7Z" class="g1_4909"/>
<path d="M69.9,437.3H852.2v-.7H69.9v.7Z" class="g1_4909"/>
<path d="M69.9,478.6H852.2v-.7H69.9v.7Z" class="g1_4909"/>
<path d="M69.9,519.8H852.2v-.7H69.9v.7Z" class="g1_4909"/>
<path d="M69.9,561.1H852.2v-.7H69.9v.7Z" class="g1_4909"/>
<path d="M69.9,602.3H852.2v-.7H69.9v.7Z" class="g1_4909"/>
<path d="M69.9,643.6H852.2v-.7H69.9v.7Z" class="g1_4909"/>
<path d="M69.9,684.8H852.2v-.7H69.9v.7Z" class="g1_4909"/>
<path d="M69.9,726.1H852.2v-.7H69.9v.7Z" class="g1_4909"/>
<path d="M69.9,767.3H852.2v-.7H69.9v.7Z" class="g1_4909"/>
<path d="M69.9,808.6H852.2v-.7H69.9v.7Z" class="g1_4909"/>
<path d="M69.9,849.8H852.2v-.7H69.9v.7Z" class="g1_4909"/>
<path d="M69.9,891.1H852.2v-.7H69.9v.7Z" class="g1_4909"/>
<path d="M69.9,932.3H852.2v-.7H69.9v.7Z" class="g1_4909"/>
<path d="M69.9,1011.8H852.2v-.7H69.9v.7Z" class="g1_4909"/>
<path d="M69.9,1091.2H852.2v-.7H69.9v.7Z" class="g1_4909"/>
</svg>