<?xml version="1.0" encoding="UTF-8" standalone="no"?>
<!DOCTYPE svg PUBLIC "-//W3C//DTD SVG 1.1//EN"
"http://www.w3.org/Graphics/SVG/1.1/DTD/svg11.dtd">
<svg viewBox="0 0 935 1210" version="1.1" xmlns="http://www.w3.org/2000/svg" xmlns:xlink="http://www.w3.org/1999/xlink">
<defs>
<style type="text/css"><![CDATA[
.g0_2494{
fill: #FFF;
}
.g1_2494{
fill: #000;
}
]]></style>
</defs>
<path d="M68.8,1149.3H852.5v-21.2H68.8v21.2Z" class="g0_2494"/>
<path d="M69,1093.6h.8V590.2H69v503.4Z" class="g1_2494"/>
<path d="M260.9,1094.3h.7v-505h-.7v505Z" class="g1_2494"/>
<path d="M851.4,1093.6h.7V590.2h-.7v503.4Z" class="g1_2494"/>
<path d="M69,590.2H852.1v-.8H69v.8Z" class="g1_2494"/>
<path d="M69,613.1H852.1v-.8H69v.8Z" class="g1_2494"/>
<path d="M69,636H852.1v-.8H69v.8Z" class="g1_2494"/>
<path d="M69,658.9H852.1v-.7H69v.7Z" class="g1_2494"/>
<path d="M69,681.8H852.1v-.7H69v.7Z" class="g1_2494"/>
<path d="M69,704.7H852.1V704H69v.7Z" class="g1_2494"/>
<path d="M69,727.7H852.1v-.8H69v.8Z" class="g1_2494"/>
<path d="M69,750.6H852.1v-.8H69v.8Z" class="g1_2494"/>
<path d="M69,773.5H852.1v-.7H69v.7Z" class="g1_2494"/>
<path d="M69,796.4H852.1v-.7H69v.7Z" class="g1_2494"/>
<path d="M69,819.3H852.1v-.7H69v.7Z" class="g1_2494"/>
<path d="M69,842.2H852.1v-.7H69v.7Z" class="g1_2494"/>
<path d="M69,865.2H852.1v-.8H69v.8Z" class="g1_2494"/>
<path d="M69,888.1H852.1v-.8H69v.8Z" class="g1_2494"/>
<path d="M69,911H852.1v-.8H69v.8Z" class="g1_2494"/>
<path d="M69,933.9H852.1v-.7H69v.7Z" class="g1_2494"/>
<path d="M69,956.8H852.1v-.7H69v.7Z" class="g1_2494"/>
<path d="M69,979.7H852.1V979H69v.7Z" class="g1_2494"/>
<path d="M69,1002.7H852.1v-.8H69v.8Z" class="g1_2494"/>
<path d="M69,1025.6H852.1v-.8H69v.8Z" class="g1_2494"/>
<path d="M69,1048.5H852.1v-.7H69v.7Z" class="g1_2494"/>
<path d="M69,1071.4H852.1v-.7H69v.7Z" class="g1_2494"/>
<path d="M69,1094.3H852.1v-.7H69v.7Z" class="g1_2494"/>
</svg>