<?xml version="1.0" encoding="UTF-8" standalone="no"?>
<!DOCTYPE svg PUBLIC "-//W3C//DTD SVG 1.1//EN"
"http://www.w3.org/Graphics/SVG/1.1/DTD/svg11.dtd">
<svg viewBox="0 0 935 1210" version="1.1" xmlns="http://www.w3.org/2000/svg" xmlns:xlink="http://www.w3.org/1999/xlink">
<defs>
<style type="text/css"><![CDATA[
.g0_2399{
fill: #FFF;
}
.g1_2399{
fill: #000;
}
]]></style>
</defs>
<path d="M68.9,1149.3H852.7v-21.2H68.9v21.2Z" class="g0_2399"/>
<path d="M69.9,1085.9h.8V124.1h-.8v961.8Z" class="g1_2399"/>
<path d="M469,238.7h.7V123.4H469V238.7Z" class="g1_2399"/>
<path d="M469,475.6h.7V262.4H469V475.6Z" class="g1_2399"/>
<path d="M469,573.3h.7V499.2H469v74.1Z" class="g1_2399"/>
<path d="M469,842.2h.7V597H469V842.2Z" class="g1_2399"/>
<path d="M469,1086.7h.7V865.9H469v220.8Z" class="g1_2399"/>
<path d="M852.5,1085.9h.7V124.1h-.7v961.8Z" class="g1_2399"/>
<path d="M69.9,124.1H853.3v-.7H69.9v.7Z" class="g1_2399"/>
<path d="M69.9,148.6H853.3v-.7H69.9v.7Z" class="g1_2399"/>
<path d="M69.9,189.8H853.3v-.7H69.9v.7Z" class="g1_2399"/>
<path d="M69.9,214.2H853.3v-.7H69.9v.7Z" class="g1_2399"/>
<path d="M69.9,238.7H853.3V238H69.9v.7Z" class="g1_2399"/>
<path d="M69.9,263.2H853.3v-.8H69.9v.8Z" class="g1_2399"/>
<path d="M69.9,287.6H853.3v-.8H69.9v.8Z" class="g1_2399"/>
<path d="M69.9,312H853.3v-.7H69.9v.7Z" class="g1_2399"/>
<path d="M69.9,336.5H853.3v-.7H69.9v.7Z" class="g1_2399"/>
<path d="M69.9,360.9H853.3v-.7H69.9v.7Z" class="g1_2399"/>
<path d="M69.9,385.4H853.3v-.8H69.9v.8Z" class="g1_2399"/>
<path d="M69.9,426.6H853.3v-.7H69.9v.7Z" class="g1_2399"/>
<path d="M69.9,451.1H853.3v-.7H69.9v.7Z" class="g1_2399"/>
<path d="M69.9,475.6H853.3v-.8H69.9v.8Z" class="g1_2399"/>
<path d="M69.9,499.9H853.3v-.7H69.9v.7Z" class="g1_2399"/>
<path d="M69.9,524.4H853.3v-.7H69.9v.7Z" class="g1_2399"/>
<path d="M69.9,548.9H853.3v-.7H69.9v.7Z" class="g1_2399"/>
<path d="M69.9,573.3H853.3v-.7H69.9v.7Z" class="g1_2399"/>
<path d="M69.9,597.8H853.3V597H69.9v.8Z" class="g1_2399"/>
<path d="M69.9,622.2H853.3v-.7H69.9v.7Z" class="g1_2399"/>
<path d="M69.9,646.6H853.3v-.7H69.9v.7Z" class="g1_2399"/>
<path d="M69.9,671.1H853.3v-.7H69.9v.7Z" class="g1_2399"/>
<path d="M69.9,695.6H853.3v-.8H69.9v.8Z" class="g1_2399"/>
<path d="M69.9,719.9H853.3v-.7H69.9v.7Z" class="g1_2399"/>
<path d="M69.9,744.4H853.3v-.7H69.9v.7Z" class="g1_2399"/>
<path d="M69.9,768.9H853.3v-.7H69.9v.7Z" class="g1_2399"/>
<path d="M69.9,793.3H853.3v-.8H69.9v.8Z" class="g1_2399"/>
<path d="M69.9,817.8H853.3V817H69.9v.8Z" class="g1_2399"/>
<path d="M69.9,842.2H853.3v-.7H69.9v.7Z" class="g1_2399"/>
<path d="M69.9,866.6H853.3v-.7H69.9v.7Z" class="g1_2399"/>
<path d="M69.9,891.1H853.3v-.7H69.9v.7Z" class="g1_2399"/>
<path d="M69.9,915.6H853.3v-.8H69.9v.8Z" class="g1_2399"/>
<path d="M69.9,940H853.3v-.8H69.9v.8Z" class="g1_2399"/>
<path d="M69.9,964.4H853.3v-.7H69.9v.7Z" class="g1_2399"/>
<path d="M69.9,988.9H853.3v-.7H69.9v.7Z" class="g1_2399"/>
<path d="M69.9,1013.3H853.3v-.7H69.9v.7Z" class="g1_2399"/>
<path d="M69.9,1037.8H853.3v-.8H69.9v.8Z" class="g1_2399"/>
<path d="M69.9,1062.2H853.3v-.7H69.9v.7Z" class="g1_2399"/>
<path d="M69.9,1086.6H853.3v-.7H69.9v.7Z" class="g1_2399"/>
</svg>