<?xml version="1.0" encoding="UTF-8" standalone="no"?>
<!DOCTYPE svg PUBLIC "-//W3C//DTD SVG 1.1//EN"
"http://www.w3.org/Graphics/SVG/1.1/DTD/svg11.dtd">
<svg viewBox="0 0 935 1210" version="1.1" xmlns="http://www.w3.org/2000/svg" xmlns:xlink="http://www.w3.org/1999/xlink">
<defs>
<clipPath id="c0_1637"><path d="M97.3,59.2V41.4h72.1V59.2Z"/></clipPath>
<style type="text/css"><![CDATA[
.g0_1637{
fill: #000;
}
]]></style>
</defs>
<path d="M96.2,62.9v.3H838.7v-.3H96.2Z" class="g0_1637"/>
<path d="M96.2,1114.1h-.1v.4h.1v-.4Z" class="g0_1637"/>
<path d="M838.7,1114.1h.2v.4h-.2v-.4Z" class="g0_1637"/>
<path d="M96.2,1114.1v.4H838.7v-.4H96.2Z" class="g0_1637"/>
<image clip-path="url(#c0_1637)" preserveAspectRatio="none" x="97" y="41" width="72" height="18" xlink:href="img/1.jpg"/>
<path d="M96.6,180.2h-.7V422.8h.7V180.2Z" class="g0_1637"/>
<path d="M259.1,177.2h-.7V423.6h.7V177.2Z" class="g0_1637"/>
<path d="M298.8,177.2h-.7V423.6h.7V177.2Z" class="g0_1637"/>
<path d="M352.4,177.2h-.8V423.6h.8V177.2Z" class="g0_1637"/>
<path d="M426.2,177.2h-.7V423.6h.7V177.2Z" class="g0_1637"/>
<path d="M846.2,180.2h-.8V422.8h.8V180.2Z" class="g0_1637"/>
<path d="M95.9,177.3v3H846.2v-3H95.9Z" class="g0_1637"/>
<path d="M95.9,220v3H846.2v-3H95.9Z" class="g0_1637"/>
<path d="M95.9,260.9v.7H846.2v-.7H95.9Z" class="g0_1637"/>
<path d="M95.9,285.4v.7H846.2v-.7H95.9Z" class="g0_1637"/>
<path d="M258.4,309.7v.8H846.2v-.8H258.4Z" class="g0_1637"/>
<path d="M258.4,334.2v.7H846.2v-.7H258.4Z" class="g0_1637"/>
<path d="M95.9,358.7v.7H846.2v-.7H95.9Z" class="g0_1637"/>
<path d="M95.9,383.1v.7H846.2v-.7H95.9Z" class="g0_1637"/>
<path d="M95.9,422.8v.8H846.2v-.8H95.9Z" class="g0_1637"/>
</svg>