<?xml version="1.0" encoding="UTF-8" standalone="no"?>
<!DOCTYPE svg PUBLIC "-//W3C//DTD SVG 1.1//EN"
"http://www.w3.org/Graphics/SVG/1.1/DTD/svg11.dtd">
<svg viewBox="0 0 935 1210" version="1.1" xmlns="http://www.w3.org/2000/svg" xmlns:xlink="http://www.w3.org/1999/xlink">
<defs>
<clipPath id="c0_1654"><path d="M766.6,59.2V41.4h72.1V59.2Z"/></clipPath>
<style type="text/css"><![CDATA[
.g0_1654{
fill: #000;
}
]]></style>
</defs>
<path d="M97.3,62.9v.3H839.9v-.3H97.3Z" class="g0_1654"/>
<path d="M96.2,1114.1h-.1v.4h.1v-.4Z" class="g0_1654"/>
<path d="M838.7,1114.1h.2v.4h-.2v-.4Z" class="g0_1654"/>
<path d="M96.2,1114.1v.4H838.7v-.4H96.2Z" class="g0_1654"/>
<image clip-path="url(#c0_1654)" preserveAspectRatio="none" x="767" y="41" width="72" height="18" xlink:href="img/1.jpg"/>
<path d="M96.6,524h-.7V760.4h.7V524Z" class="g0_1654"/>
<path d="M292.1,520.9h-.7V761.2h.7V520.9Z" class="g0_1654"/>
<path d="M702,524h-.8V760.4h.8V524Z" class="g0_1654"/>
<path d="M95.9,521v3H702v-3H95.9Z" class="g0_1654"/>
<path d="M95.9,563.8v3.1H702v-3.1H95.9Z" class="g0_1654"/>
<path d="M95.9,589.3v.7H702v-.7H95.9Z" class="g0_1654"/>
<path d="M95.9,613.8v.7H702v-.7H95.9Z" class="g0_1654"/>
<path d="M95.9,638.3v.7H702v-.7H95.9Z" class="g0_1654"/>
<path d="M95.9,662.6v.8H702v-.8H95.9Z" class="g0_1654"/>
<path d="M95.9,687.1v.7H702v-.7H95.9Z" class="g0_1654"/>
<path d="M95.9,711.6v.7H702v-.7H95.9Z" class="g0_1654"/>
<path d="M95.9,736v.7H702V736H95.9Z" class="g0_1654"/>
<path d="M95.9,760.4v.8H702v-.8H95.9Z" class="g0_1654"/>
<path d="M96.6,832.6h-.7v216h.7v-216Z" class="g0_1654"/>
<path d="M292.1,829.6h-.7v219.9h.7V829.6Z" class="g0_1654"/>
<path d="M702,832.6h-.8v216h.8v-216Z" class="g0_1654"/>
<path d="M95.9,829.7v3H702v-3H95.9Z" class="g0_1654"/>
<path d="M95.9,872.4v3H702v-3H95.9Z" class="g0_1654"/>
<path d="M95.9,918.1v.7H702v-.7H95.9Z" class="g0_1654"/>
<path d="M95.9,962.7v.7H702v-.7H95.9Z" class="g0_1654"/>
<path d="M95.9,1008.9v.8H702v-.8H95.9Z" class="g0_1654"/>
<path d="M95.9,1048.6v.8H702v-.8H95.9Z" class="g0_1654"/>
</svg>