<?xml version="1.0" encoding="UTF-8" standalone="no"?>
<!DOCTYPE svg PUBLIC "-//W3C//DTD SVG 1.1//EN"
"http://www.w3.org/Graphics/SVG/1.1/DTD/svg11.dtd">
<svg viewBox="0 0 935 1210" version="1.1" xmlns="http://www.w3.org/2000/svg" xmlns:xlink="http://www.w3.org/1999/xlink">
<defs>
<style type="text/css"><![CDATA[
.g0_815{
fill: #FFF;
}
.g1_815{
fill: #000;
}
]]></style>
</defs>
<path d="M68.9,1149.3H755.2v-21.2H68.9v21.2Z" class="g0_815"/>
<path d="M771.3,1149.3H855v-21.2H771.3v21.2Z" class="g0_815"/>
<path d="M71.6,1096.6h.7V123.9h-.7v972.7Z" class="g1_815"/>
<path d="M158.9,1097.3h.3V123.6h-.3v973.7Z" class="g1_815"/>
<path d="M850.4,1096.6h.7V123.9h-.7v972.7Z" class="g1_815"/>
<path d="M71.6,123.9H851.1v-.3H71.6v.3Z" class="g1_815"/>
<path d="M71.6,165.2H851.1v-.4H71.6v.4Z" class="g1_815"/>
<path d="M71.6,781.1H851.1v-.7H71.6v.7Z" class="g1_815"/>
<path d="M71.6,805.4H851.1V805H71.6v.4Z" class="g1_815"/>
<path d="M71.6,1097.3H851.1v-.7H71.6v.7Z" class="g1_815"/>
</svg>