<?xml version="1.0" encoding="UTF-8" standalone="no"?>
<!DOCTYPE svg PUBLIC "-//W3C//DTD SVG 1.1//EN"
"http://www.w3.org/Graphics/SVG/1.1/DTD/svg11.dtd">
<svg viewBox="0 0 935 1210" version="1.1" xmlns="http://www.w3.org/2000/svg" xmlns:xlink="http://www.w3.org/1999/xlink">
<defs>
<clipPath id="c0_1975"><path d="M97.3,59.2V41.4h72.1V59.2Z"/></clipPath>
<style type="text/css"><![CDATA[
.g0_1975{
fill: #000;
}
]]></style>
</defs>
<path d="M96.3,63.3H838.8v-.4H96.3v.4Z" class="g0_1975"/>
<path d="M96.1,1114.5h.2v-.4h-.2v.4Z" class="g0_1975"/>
<path d="M96.3,1114.5H838.9v-.4H96.3v.4Z" class="g0_1975"/>
<image clip-path="url(#c0_1975)" preserveAspectRatio="none" x="97" y="41" width="73" height="18" xlink:href="img/1.jpg"/>
<path d="M193.1,343.4h.8V221.9h-.8V343.4Z" class="g0_1975"/>
<path d="M284.8,344.1h.7v-123h-.7v123Z" class="g0_1975"/>
<path d="M498.2,344.1h.7v-123h-.7v123Z" class="g0_1975"/>
<path d="M741.1,343.4h.8V221.9h-.8V343.4Z" class="g0_1975"/>
<path d="M193.1,221.8H741.9v-.7H193.1v.7Z" class="g0_1975"/>
<path d="M193.1,246.3H741.9v-.7H193.1v.7Z" class="g0_1975"/>
<path d="M193.1,270.8H741.9v-.7H193.1v.7Z" class="g0_1975"/>
<path d="M193.1,295.3H741.9v-.8H193.1v.8Z" class="g0_1975"/>
<path d="M193.1,319.6H741.9v-.7H193.1v.7Z" class="g0_1975"/>
<path d="M193.1,344.1H741.9v-.7H193.1v.7Z" class="g0_1975"/>
</svg>