<?xml version="1.0" encoding="UTF-8" standalone="no"?>
<!DOCTYPE svg PUBLIC "-//W3C//DTD SVG 1.1//EN"
"http://www.w3.org/Graphics/SVG/1.1/DTD/svg11.dtd">
<svg viewBox="0 0 935 1210" version="1.1" xmlns="http://www.w3.org/2000/svg" xmlns:xlink="http://www.w3.org/1999/xlink">
<defs>
<style type="text/css"><![CDATA[
.g0_330{
fill: #000;
}
]]></style>
</defs>
<path d="M96.1,136.8H838.9v-1.6H96.1v1.6Z" class="g0_330"/>
<path d="M96.1,310.5H838.9v-.8H96.1v.8Z" class="g0_330"/>
<path d="M96.1,350.3H838.9v-.8H96.1v.8Z" class="g0_330"/>
<path d="M96.1,507.6H838.9v-.8H96.1v.8Z" class="g0_330"/>
<path d="M96.1,564.1H838.9v-.7H96.1v.7Z" class="g0_330"/>
<path d="M96.1,603.8H838.9v-.7H96.1v.7Z" class="g0_330"/>
<path d="M96.1,727.6H838.9v-.8H96.1v.8Z" class="g0_330"/>
<path d="M96.1,750.5H838.9v-.8H96.1v.8Z" class="g0_330"/>
<path d="M96.1,790.3H838.9v-.8H96.1v.8Z" class="g0_330"/>
<path d="M96.1,880.4H838.9v-.8H96.1v.8Z" class="g0_330"/>
<path d="M96.1,936.9H838.9v-.7H96.1v.7Z" class="g0_330"/>
</svg>