<?xml version="1.0" encoding="UTF-8" standalone="no"?>
<!DOCTYPE svg PUBLIC "-//W3C//DTD SVG 1.1//EN"
"http://www.w3.org/Graphics/SVG/1.1/DTD/svg11.dtd">
<svg viewBox="0 0 935 1210" version="1.1" xmlns="http://www.w3.org/2000/svg" xmlns:xlink="http://www.w3.org/1999/xlink">
<defs>
<style type="text/css"><![CDATA[
.g0_955{
fill: #FFF;
}
.g1_955{
fill: #000;
}
]]></style>
</defs>
<path d="M68.9,1149.3H755.2v-21.2H68.9v21.2Z" class="g0_955"/>
<path d="M771.3,1149.3H855v-21.2H771.3v21.2Z" class="g0_955"/>
<path d="M70.3,726.3H852V696.7H70.3v29.6Z" class="g0_955"/>
<path d="M71.2,719.6h53.6V707.2H71.2v12.4Z" class="g0_955"/>
<path d="M69.9,696.3h.8V125.7h-.8V696.3Z" class="g1_955"/>
<path d="M325.8,697h.7V124.9h-.7V697Z" class="g1_955"/>
<path d="M368.2,697h.8V124.9h-.8V697Z" class="g1_955"/>
<path d="M441.6,697h.7V124.9h-.7V697Z" class="g1_955"/>
<path d="M521,697h.8V124.9H521V697Z" class="g1_955"/>
<path d="M851.7,696.3h.7V125.7h-.7V696.3Z" class="g1_955"/>
<path d="M69.9,125.7H852.4v-.8H69.9v.8Z" class="g1_955"/>
<path d="M69.9,179.1H852.4v-.7H69.9v.7Z" class="g1_955"/>
<path d="M69.9,235.7H852.4v-.8H69.9v.8Z" class="g1_955"/>
<path d="M69.9,292.1H852.4v-.7H69.9v.7Z" class="g1_955"/>
<path d="M69.9,353.3H852.4v-.7H69.9v.7Z" class="g1_955"/>
<path d="M69.9,443.5H852.4v-.8H69.9v.8Z" class="g1_955"/>
<path d="M69.9,516.8H852.4v-.7H69.9v.7Z" class="g1_955"/>
<path d="M69.9,606.9H852.4v-.7H69.9v.7Z" class="g1_955"/>
<path d="M69.9,697H852.4v-.7H69.9v.7Z" class="g1_955"/>
<path d="M69.9,932.2h.8v-97h-.8v97Z" class="g1_955"/>
<path d="M138.3,932.9h.8V834.3h-.8v98.6Z" class="g1_955"/>
<path d="M227,932.9h.7V834.3H227v98.6Z" class="g1_955"/>
<path d="M376.8,932.9h.8V834.3h-.8v98.6Z" class="g1_955"/>
<path d="M539.6,932.9h.7V834.3h-.7v98.6Z" class="g1_955"/>
<path d="M695.1,932.9h.7V834.3h-.7v98.6Z" class="g1_955"/>
<path d="M851.1,932.2h.8v-97h-.8v97Z" class="g1_955"/>
<path d="M69.9,835.2h782v-.8H69.9v.8Z" class="g1_955"/>
<path d="M69.9,859.6h782v-.8H69.9v.8Z" class="g1_955"/>
<path d="M69.9,884h782v-.7H69.9v.7Z" class="g1_955"/>
<path d="M69.9,908.5h782v-.7H69.9v.7Z" class="g1_955"/>
<path d="M69.9,932.9h782v-.7H69.9v.7Z" class="g1_955"/>
</svg>