<?xml version="1.0" encoding="UTF-8" standalone="no"?>
<!DOCTYPE svg PUBLIC "-//W3C//DTD SVG 1.1//EN"
"http://www.w3.org/Graphics/SVG/1.1/DTD/svg11.dtd">
<svg viewBox="0 0 935 1210" version="1.1" xmlns="http://www.w3.org/2000/svg" xmlns:xlink="http://www.w3.org/1999/xlink">
<defs>
<style type="text/css"><![CDATA[
.g0_3462{
fill: #FFF;
}
.g1_3462{
fill: #000;
}
.g2_3462{
fill: #E6E6E6;
}
]]></style>
</defs>
<path d="M68.8,1149.3H852.5v-21.2H68.8v21.2Z" class="g0_3462"/>
<path d="M170.5,821.9h.7V504.5h-.7V821.9Z" class="g1_3462"/>
<path d="M749.8,821.9h.8V504.5h-.8V821.9Z" class="g1_3462"/>
<path d="M170.5,504.5H750.6v-.7H170.5v.7Z" class="g1_3462"/>
<path d="M170.5,822.7H750.6V822H170.5v.7Z" class="g1_3462"/>
<path d="M512.5,581.9H551V550.8H512.5v31.1Z" class="g2_3462"/>
<path d="M527.3,694.7H670.8v31.1H527.3Z" class="g2_3462"/>
<path d="M258.6,582.2H413.8V551.1H258.6v31.1Z" class="g2_3462"/>
<path d="M258,725.8H413.2V694.7H258v31.1Z" class="g2_3462"/>
<path d="M462.5,746h.4V726h-.4v20Z" class="g1_3462"/>
<path d="M447.1,746h15.5v-.5H447.1v.5Z" class="g1_3462"/>
<path d="M519.4,763.1h.4V725.7h-.4v37.4Z" class="g1_3462"/>
<path d="M343.1,763.1H519.6v-.4H343.1v.4Z" class="g1_3462"/>
<path d="M258,694.6H671.8v-.8H258v.8Z" class="g1_3462"/>
<path d="M671.1,726.6h.7V694.2h-.7v32.4Z" class="g1_3462"/>
<path d="M257.7,726.6H671.5v-.8H257.7v.8Z" class="g1_3462"/>
<path d="M257.7,726.2h.7V693.8h-.7v32.4Z" class="g1_3462"/>
<path d="M513.2,695.1h.5v-.2h-.5v.2Z" class="g1_3462"/>
<path d="M513.2,726.5h.5V695.1h-.5v31.4Z" class="g1_3462"/>
<path d="M525.5,695.1h.5v-.2h-.5v.2Z" class="g1_3462"/>
<path d="M525.5,726.5h.5V695.1h-.5v31.4Z" class="g1_3462"/>
<path d="M413.7,694.3h.4v-.2h-.4v.2Z" class="g1_3462"/>
<path d="M413.7,726.2h.4V694.3h-.4v31.9Z" class="g1_3462"/>
<path d="M462.5,602.1h.4v-20h-.4v20Z" class="g1_3462"/>
<path d="M446.2,602.1h16.4v-.5H446.2v.5Z" class="g1_3462"/>
<path d="M609.6,619.1h.4V582.7h-.4v36.4Z" class="g1_3462"/>
<path d="M419.4,619.1H609.8v-.4H419.4v.4Z" class="g1_3462"/>
<path d="M258,550.5H671.8v-.7H258v.7Z" class="g1_3462"/>
<path d="M671.1,582.5h.7V550.2h-.7v32.3Z" class="g1_3462"/>
<path d="M257.7,582.5H671.5v-.7H257.7v.7Z" class="g1_3462"/>
<path d="M257.7,582.2h.7V549.8h-.7v32.4Z" class="g1_3462"/>
<path d="M513.2,551.1h.5v-.2h-.5v.2Z" class="g1_3462"/>
<path d="M513.2,582.4h.5V551.1h-.5v31.3Z" class="g1_3462"/>
<path d="M549.9,550.4h.5v-.2h-.5v.2Z" class="g1_3462"/>
<path d="M549.9,581.8h.5V550.4h-.5v31.4Z" class="g1_3462"/>
<path d="M413.7,550.4h.4v-.2h-.4v.2Z" class="g1_3462"/>
<path d="M413.7,582.3h.4V550.4h-.4v31.9Z" class="g1_3462"/>
<path d="M259.4,796h25.2V780H259.4v16Z" class="g2_3462"/>
<path d="M259.4,780.3h25.5v-.5H259.4v.5Z" class="g1_3462"/>
<path d="M284.4,796.3h.5V780h-.5v16.3Z" class="g1_3462"/>
<path d="M259.2,796.3h25.4v-.4H259.2v.4Z" class="g1_3462"/>
<path d="M259.2,796h.5V779.8h-.5V796Z" class="g1_3462"/>
</svg>