<?xml version="1.0" encoding="UTF-8" standalone="no"?>
<!DOCTYPE svg PUBLIC "-//W3C//DTD SVG 1.1//EN"
"http://www.w3.org/Graphics/SVG/1.1/DTD/svg11.dtd">
<svg viewBox="0 0 825 990" version="1.1" xmlns="http://www.w3.org/2000/svg" xmlns:xlink="http://www.w3.org/1999/xlink">
<defs>
<style type="text/css"><![CDATA[
.g0_497{
fill: #000;
}
.g1_497{
fill: #FFF;
}
]]></style>
</defs>
<path d="M94.9,910.3h.3v-.8h-.3v.8Z" class="g0_497"/>
<path d="M95.2,910.3h650v-.8H95.2v.8Z" class="g0_497"/>
<path d="M160.2,532.2H744.9V506.3H160.2v25.9Z" class="g1_497"/>
<path d="M160.2,517.3v-.8Z" class="g0_497"/>
<path d="M160.2,517.3h43.7v-.8H160.2v.8Z" class="g0_497"/>
<path d="M246.7,517.3h.3v-.8h-.3v.8Z" class="g0_497"/>
<path d="M247,517.3h86.8v-.8H247v.8Z" class="g0_497"/>
<path d="M160.2,882.2H744.9V871.4H160.2v10.8Z" class="g1_497"/>
<path d="M160.2,875.2v-.7Z" class="g0_497"/>
<path d="M160.2,875.2H333.8v-.7H160.2v.7Z" class="g0_497"/>
<path d="M160.2,246.9H744.9v-.8H160.2v.8Z" class="g0_497"/>
<path d="M160.2,282.1H744.9v-.8H160.2v.8Z" class="g0_497"/>
<path d="M160.2,310.7H744.9v-.1H160.2v.1Z" class="g0_497"/>
<path d="M160.2,339.8H744.9v-.2H160.2v.2Z" class="g0_497"/>
<path d="M160.2,368.9H744.9v-.2H160.2v.2Z" class="g0_497"/>
<path d="M160.2,397.8H744.9v-.1H160.2v.1Z" class="g0_497"/>
<path d="M160.2,426.9H744.9v-.2H160.2v.2Z" class="g0_497"/>
<path d="M160.2,456H744.9v-.2H160.2v.2Z" class="g0_497"/>
<path d="M160.2,485.2H744.9v-.7H160.2v.7Z" class="g0_497"/>
</svg>