<?xml version="1.0" encoding="UTF-8" standalone="no"?>
<!DOCTYPE svg PUBLIC "-//W3C//DTD SVG 1.1//EN"
"http://www.w3.org/Graphics/SVG/1.1/DTD/svg11.dtd">
<svg viewBox="0 0 935 1210" version="1.1" xmlns="http://www.w3.org/2000/svg" xmlns:xlink="http://www.w3.org/1999/xlink">
<defs>
<style type="text/css"><![CDATA[
.g0_4221{
fill: #FFF;
}
.g1_4221{
fill: #F8FAFC;
}
.g2_4221{
fill: #000;
}
.g3_4221{
fill: #FFE0D1;
}
.g4_4221{
fill: #E9F3E9;
}
]]></style>
</defs>
<path d="M68.9,1149.3H852.7v-21.2H68.9v21.2Z" class="g0_4221"/>
<path d="M70.3,190.9H175.2V166.6H70.3v24.3Z" class="g1_4221"/>
<path d="M70.3,496.6H175.2V190.9H70.3V496.6Z" class="g1_4221"/>
<path d="M70.3,705.8H175.2V496.7H70.3V705.8Z" class="g1_4221"/>
<path d="M70.3,747.1H175.2V705.8H70.3v41.3Z" class="g1_4221"/>
<path d="M383.1,747.1h97.3V705.8H383.1v41.3Z" class="g1_4221"/>
<path d="M70.3,805.1H175.2v-58H70.3v58Z" class="g1_4221"/>
<path d="M70.3,846.4H175.2V805.1H70.3v41.3Z" class="g1_4221"/>
<path d="M69.9,846h.8V166.9h-.8V846Z" class="g2_4221"/>
<path d="M174.8,846.7h.7V166.2h-.7V846.7Z" class="g2_4221"/>
<path d="M382.7,747.4h.7v-42h-.7v42Z" class="g2_4221"/>
<path d="M480.1,747.4h.7v-42h-.7v42Z" class="g2_4221"/>
<path d="M851.6,846h.7V166.9h-.7V846Z" class="g2_4221"/>
<path d="M69.9,166.9H852.3v-.7H69.9v.7Z" class="g2_4221"/>
<path d="M69.9,191.3H852.3v-.7H69.9v.7Z" class="g2_4221"/>
<path d="M69.9,497H852.3v-.7H69.9v.7Z" class="g2_4221"/>
<path d="M69.9,706.2H852.3v-.7H69.9v.7Z" class="g2_4221"/>
<path d="M69.9,747.4H852.3v-.7H69.9v.7Z" class="g2_4221"/>
<path d="M69.9,805.5H852.3v-.8H69.9v.8Z" class="g2_4221"/>
<path d="M69.9,846.7H852.3V846H69.9v.7Z" class="g2_4221"/>
<path d="M196,239.1H322.6V217.7H196v21.4Z" class="g3_4221"/>
<path d="M322.6,239.1h63.2V217.7H322.6v21.4Z" class="g3_4221"/>
<path d="M385.8,239.1h63.3V217.7H385.8v21.4Z" class="g3_4221"/>
<path d="M449.1,239.1h63.2V217.7H449.1v21.4Z" class="g3_4221"/>
<path d="M512.3,239.1h63.3V217.7H512.3v21.4Z" class="g3_4221"/>
<path d="M575.6,239.1h63.2V217.7H575.6v21.4Z" class="g3_4221"/>
<path d="M638.8,239.1h63.3V217.7H638.8v21.4Z" class="g3_4221"/>
<path d="M702.1,239.1h63.2V217.7H702.1v21.4Z" class="g3_4221"/>
<path d="M196,260.5h63.3V239.1H196v21.4Z" class="g3_4221"/>
<path d="M259.3,260.5h63.3V239.1H259.3v21.4Z" class="g4_4221"/>
<path d="M322.6,260.5h63.2V239.1H322.6v21.4Z" class="g4_4221"/>
<path d="M385.8,260.5h63.3V239.1H385.8v21.4Z" class="g4_4221"/>
<path d="M449.1,260.5h63.2V239.1H449.1v21.4Z" class="g4_4221"/>
<path d="M512.3,260.5h63.3V239.1H512.3v21.4Z" class="g4_4221"/>
<path d="M575.6,260.5h63.2V239.1H575.6v21.4Z" class="g4_4221"/>
<path d="M638.8,260.5h63.3V239.1H638.8v21.4Z" class="g4_4221"/>
<path d="M702.1,260.5h63.2V239.1H702.1v21.4Z" class="g4_4221"/>
<path d="M196,281.9h63.3V260.5H196v21.4Z" class="g3_4221"/>
<path d="M259.3,281.9h63.3V260.5H259.3v21.4Z" class="g4_4221"/>
<path d="M322.6,281.9H449.1V260.5H322.6v21.4Z" class="g4_4221"/>
<path d="M449.1,281.9h63.2V260.5H449.1v21.4Z" class="g4_4221"/>
<path d="M512.3,281.9h63.3V260.5H512.3v21.4Z" class="g4_4221"/>
<path d="M575.6,281.9h63.2V260.5H575.6v21.4Z" class="g4_4221"/>
<path d="M638.8,281.9h63.3V260.5H638.8v21.4Z" class="g4_4221"/>
<path d="M702.1,281.9h63.2V260.5H702.1v21.4Z" class="g4_4221"/>
<path d="M196,303.2h63.3V281.9H196v21.3Z" class="g3_4221"/>
<path d="M196,324.7h63.3V303.2H196v21.5Z" class="g3_4221"/>
<path d="M196,346h63.3V324.7H196V346Z" class="g3_4221"/>
<path d="M196,367.4h63.3V346H196v21.4Z" class="g3_4221"/>
<path d="M196,388.9h63.3V367.4H196v21.5Z" class="g3_4221"/>
<path d="M196,410.2h63.3V388.9H196v21.3Z" class="g3_4221"/>
<path d="M196,431.6h63.3V410.2H196v21.4Z" class="g3_4221"/>
<path d="M196,453h63.3V431.6H196V453Z" class="g3_4221"/>
<path d="M195.6,452.6h.7V218.1h-.7V452.6Z" class="g2_4221"/>
<path d="M259,453.4h.7V217.3H259V453.4Z" class="g2_4221"/>
<path d="M322.2,282.2h.7V217.3h-.7v64.9Z" class="g2_4221"/>
<path d="M385.5,260.9h.7V217.3h-.7v43.6Z" class="g2_4221"/>
<path d="M448.7,282.2h.7V217.3h-.7v64.9Z" class="g2_4221"/>
<path d="M512,282.2h.7V217.3H512v64.9Z" class="g2_4221"/>
<path d="M575.2,282.2h.7V217.3h-.7v64.9Z" class="g2_4221"/>
<path d="M638.5,282.2h.7V217.3h-.7v64.9Z" class="g2_4221"/>
<path d="M701.7,282.2h.7V217.3h-.7v64.9Z" class="g2_4221"/>
<path d="M765,452.6h.7V218.1H765V452.6Z" class="g2_4221"/>
<path d="M195.6,218.1H765.7v-.8H195.6v.8Z" class="g2_4221"/>
<path d="M195.6,239.4H765.7v-.7H195.6v.7Z" class="g2_4221"/>
<path d="M195.6,260.9H765.7v-.7H195.6v.7Z" class="g2_4221"/>
<path d="M195.6,282.2H765.7v-.7H195.6v.7Z" class="g2_4221"/>
<path d="M195.6,303.6H765.7v-.7H195.6v.7Z" class="g2_4221"/>
<path d="M195.6,325.1H765.7v-.8H195.6v.8Z" class="g2_4221"/>
<path d="M195.6,346.4H765.7v-.7H195.6v.7Z" class="g2_4221"/>
<path d="M195.6,367.8H765.7V367H195.6v.8Z" class="g2_4221"/>
<path d="M195.6,389.2H765.7v-.7H195.6v.7Z" class="g2_4221"/>
<path d="M195.6,410.6H765.7v-.8H195.6v.8Z" class="g2_4221"/>
<path d="M195.6,431.9H765.7v-.7H195.6v.7Z" class="g2_4221"/>
<path d="M195.6,453.4H765.7v-.7H195.6v.7Z" class="g2_4221"/>
<path d="M195.6,654.4h.7V548.3h-.7V654.4Z" class="g2_4221"/>
<path d="M343.3,655.1h.7V547.4h-.7V655.1Z" class="g2_4221"/>
<path d="M715.5,654.4h.7V548.3h-.7V654.4Z" class="g2_4221"/>
<path d="M195.6,548.2H716.2v-.8H195.6v.8Z" class="g2_4221"/>
<path d="M195.6,569.6H716.2v-.7H195.6v.7Z" class="g2_4221"/>
<path d="M195.6,591H716.2v-.8H195.6v.8Z" class="g2_4221"/>
<path d="M195.6,612.3H716.2v-.7H195.6v.7Z" class="g2_4221"/>
<path d="M195.6,633.8H716.2V633H195.6v.8Z" class="g2_4221"/>
<path d="M195.6,655.1H716.2v-.7H195.6v.7Z" class="g2_4221"/>
</svg>