<?xml version="1.0" encoding="UTF-8" standalone="no"?>
<!DOCTYPE svg PUBLIC "-//W3C//DTD SVG 1.1//EN"
"http://www.w3.org/Graphics/SVG/1.1/DTD/svg11.dtd">
<svg viewBox="0 0 935 1210" version="1.1" xmlns="http://www.w3.org/2000/svg" xmlns:xlink="http://www.w3.org/1999/xlink">
<defs>
<style type="text/css"><![CDATA[
.g0_4701{
fill: #FFF;
}
.g1_4701{
fill: #000;
}
]]></style>
</defs>
<path d="M68.9,1149.3H852.7v-21.2H68.9v21.2Z" class="g0_4701"/>
<path d="M69.9,1050.8h.8V124.1h-.8v926.7Z" class="g1_4701"/>
<path d="M126.7,1051.5h.7V164.6h-.7v886.9Z" class="g1_4701"/>
<path d="M183.4,1051.5h.8V123.4h-.8v928.1Z" class="g1_4701"/>
<path d="M427.1,1051.5h.7V123.4h-.7v928.1Z" class="g1_4701"/>
<path d="M520.1,1051.5h.8V123.4h-.8v928.1Z" class="g1_4701"/>
<path d="M851.8,1050.8h.7V124.1h-.7v926.7Z" class="g1_4701"/>
<path d="M69.9,124.1H852.5v-.7H69.9v.7Z" class="g1_4701"/>
<path d="M69.9,165.4H184.2v-.8H69.9v.8Z" class="g1_4701"/>
<path d="M69.9,189.8H852.5v-.7H69.9v.7Z" class="g1_4701"/>
<path d="M183.4,235.7H852.5v-.8H183.4v.8Z" class="g1_4701"/>
<path d="M183.4,260.1H852.5v-.8H183.4v.8Z" class="g1_4701"/>
<path d="M183.4,284.5H852.5v-.7H183.4v.7Z" class="g1_4701"/>
<path d="M183.4,309H852.5v-.7H183.4v.7Z" class="g1_4701"/>
<path d="M183.4,333.4H852.5v-.7H183.4v.7Z" class="g1_4701"/>
<path d="M69.9,357.9H852.5v-.8H69.9v.8Z" class="g1_4701"/>
<path d="M69.9,403.7H852.5V403H69.9v.7Z" class="g1_4701"/>
<path d="M69.9,449.5H852.5v-.7H69.9v.7Z" class="g1_4701"/>
<path d="M69.9,495.4H852.5v-.8H69.9v.8Z" class="g1_4701"/>
<path d="M69.9,541.2H852.5v-.7H69.9v.7Z" class="g1_4701"/>
<path d="M69.9,587H852.5v-.7H69.9v.7Z" class="g1_4701"/>
<path d="M69.9,632.9H852.5v-.8H69.9v.8Z" class="g1_4701"/>
<path d="M69.9,674.1H852.5v-.7H69.9v.7Z" class="g1_4701"/>
<path d="M69.9,715.4H852.5v-.8H69.9v.8Z" class="g1_4701"/>
<path d="M69.9,756.6H852.5v-.7H69.9v.7Z" class="g1_4701"/>
<path d="M69.9,797.9H852.5v-.8H69.9v.8Z" class="g1_4701"/>
<path d="M183.4,860.6H852.5v-.8H183.4v.8Z" class="g1_4701"/>
<path d="M183.4,885H852.5v-.8H183.4v.8Z" class="g1_4701"/>
<path d="M183.4,947.7H852.5v-.8H183.4v.8Z" class="g1_4701"/>
<path d="M183.4,972H852.5v-.7H183.4v.7Z" class="g1_4701"/>
<path d="M69.9,1051.5H852.5v-.7H69.9v.7Z" class="g1_4701"/>
</svg>