<?xml version="1.0" encoding="UTF-8" standalone="no"?>
<!DOCTYPE svg PUBLIC "-//W3C//DTD SVG 1.1//EN"
"http://www.w3.org/Graphics/SVG/1.1/DTD/svg11.dtd">
<svg viewBox="0 0 935 1210" version="1.1" xmlns="http://www.w3.org/2000/svg" xmlns:xlink="http://www.w3.org/1999/xlink">
<defs>
<style type="text/css"><![CDATA[
.g0_721{
fill: #FFF;
}
.g1_721{
fill: #000;
}
]]></style>
</defs>
<path d="M68.9,1149.3H755.2v-21.2H68.9v21.2Z" class="g0_721"/>
<path d="M771.3,1149.3H855v-21.2H771.3v21.2Z" class="g0_721"/>
<path d="M69.9,557.2h.8V134.8h-.8V557.2Z" class="g1_721"/>
<path d="M218.4,558.1h.8v-424h-.8v424Z" class="g1_721"/>
<path d="M386.9,558.1h.8v-424h-.8v424Z" class="g1_721"/>
<path d="M424.8,558.1h.7v-424h-.7v424Z" class="g1_721"/>
<path d="M498.1,558.1h.7v-424h-.7v424Z" class="g1_721"/>
<path d="M569.5,558.1h.8v-424h-.8v424Z" class="g1_721"/>
<path d="M848.9,557.2h.8V134.8h-.8V557.2Z" class="g1_721"/>
<path d="M69.9,134.8H849.8v-.7H69.9v.7Z" class="g1_721"/>
<path d="M69.9,173H849.8v-.8H69.9v.8Z" class="g1_721"/>
<path d="M69.9,229.5H849.8v-.7H69.9v.7Z" class="g1_721"/>
<path d="M69.9,286.1H849.8v-.7H69.9v.7Z" class="g1_721"/>
<path d="M69.9,342.6H849.8v-.8H69.9v.8Z" class="g1_721"/>
<path d="M69.9,365.5H849.8v-.8H69.9v.8Z" class="g1_721"/>
<path d="M69.9,422H849.8v-.7H69.9v.7Z" class="g1_721"/>
<path d="M69.9,478.6H849.8v-.7H69.9v.7Z" class="g1_721"/>
<path d="M69.9,535.2H849.8v-.8H69.9v.8Z" class="g1_721"/>
<path d="M69.9,558.1H849.8v-.8H69.9v.8Z" class="g1_721"/>
<path d="M69.9,658.1h.8V609.9h-.8v48.2Z" class="g1_721"/>
<path d="M141.9,658.9h.7V609.2h-.7v49.7Z" class="g1_721"/>
<path d="M306.9,658.9h.7V609.2h-.7v49.7Z" class="g1_721"/>
<path d="M488.6,658.9h.7V609.2h-.7v49.7Z" class="g1_721"/>
<path d="M664.8,658.9h.7V609.2h-.7v49.7Z" class="g1_721"/>
<path d="M848.6,658.1h.8V609.9h-.8v48.2Z" class="g1_721"/>
<path d="M69.9,609.9H849.5v-.7H69.9v.7Z" class="g1_721"/>
<path d="M69.9,634.4H849.5v-.7H69.9v.7Z" class="g1_721"/>
<path d="M69.9,658.9H849.5v-.7H69.9v.7Z" class="g1_721"/>
</svg>