<?xml version="1.0" encoding="UTF-8" standalone="no"?>
<!DOCTYPE svg PUBLIC "-//W3C//DTD SVG 1.1//EN"
"http://www.w3.org/Graphics/SVG/1.1/DTD/svg11.dtd">
<svg viewBox="0 0 935 1210" version="1.1" xmlns="http://www.w3.org/2000/svg" xmlns:xlink="http://www.w3.org/1999/xlink">
<defs>
<clipPath id="c0_2825"><path d="M97.3,59.2V41.4h72.1V59.2Z"/></clipPath>
<style type="text/css"><![CDATA[
.g0_2825{
fill: #000;
}
]]></style>
</defs>
<path d="M96.3,63.3H838.8v-.4H96.3v.4Z" class="g0_2825"/>
<path d="M96.1,1114.5h.2v-.4h-.2v.4Z" class="g0_2825"/>
<path d="M96.3,1114.5H838.9v-.4H96.3v.4Z" class="g0_2825"/>
<image clip-path="url(#c0_2825)" preserveAspectRatio="none" x="97" y="41" width="73" height="18" xlink:href="img/1.jpg"/>
<path d="M567.6,962h31.3v-1.1H567.6V962Z" class="g0_2825"/>
<path d="M689.8,962h20.3v-1.1H689.8V962Z" class="g0_2825"/>
<path d="M710.1,962h8.5v-1.1h-8.5V962Z" class="g0_2825"/>
<path d="M567.6,984.9h31.3v-1.1H567.6v1.1Z" class="g0_2825"/>
<path d="M689.8,984.9h20.3v-1.1H689.8v1.1Z" class="g0_2825"/>
<path d="M710.1,984.9h8.5v-1.1h-8.5v1.1Z" class="g0_2825"/>
<path d="M95.9,739.1h.7v-68h-.7v68Z" class="g0_2825"/>
<path d="M216,739.8h.7V670.4H216v69.4Z" class="g0_2825"/>
<path d="M293.3,739.8h.8V670.4h-.8v69.4Z" class="g0_2825"/>
<path d="M839.1,739.1h.7v-68h-.7v68Z" class="g0_2825"/>
<path d="M95.9,671.1h744v-.7H95.9v.7Z" class="g0_2825"/>
<path d="M95.9,695.2h744v-3H95.9v3Z" class="g0_2825"/>
<path d="M95.9,716.9h744v-.7H95.9v.7Z" class="g0_2825"/>
<path d="M95.9,739.8h744v-.7H95.9v.7Z" class="g0_2825"/>
</svg>