<?xml version="1.0" encoding="UTF-8" standalone="no"?>
<!DOCTYPE svg PUBLIC "-//W3C//DTD SVG 1.1//EN"
"http://www.w3.org/Graphics/SVG/1.1/DTD/svg11.dtd">
<svg viewBox="0 0 935 1210" version="1.1" xmlns="http://www.w3.org/2000/svg" xmlns:xlink="http://www.w3.org/1999/xlink">
<defs>
<style type="text/css"><![CDATA[
.g0_828{
fill: #FFF;
}
.g1_828{
fill: #000;
}
]]></style>
</defs>
<path d="M165,1149.3H852.5v-21.2H165v21.2Z" class="g0_828"/>
<path d="M68.8,1149.3h82.5v-21.2H68.8v21.2Z" class="g0_828"/>
<path d="M70.8,1052.3h.7V123.9h-.7v928.4Z" class="g1_828"/>
<path d="M158,165.2h.4V123.6H158v41.6Z" class="g1_828"/>
<path d="M157.9,513.5h.7V189.1h-.7V513.5Z" class="g1_828"/>
<path d="M157.9,826.7h.7V537.4h-.7V826.7Z" class="g1_828"/>
<path d="M157.9,1053.1h.7V850.7h-.7v202.4Z" class="g1_828"/>
<path d="M849.7,1052.3h.7V123.9h-.7v928.4Z" class="g1_828"/>
<path d="M70.8,123.9H850.4v-.3H70.8v.3Z" class="g1_828"/>
<path d="M70.8,165.2H850.4v-.4H70.8v.4Z" class="g1_828"/>
<path d="M70.8,189.8H850.4v-.7H70.8v.7Z" class="g1_828"/>
<path d="M70.8,513.5H850.4v-.3H70.8v.3Z" class="g1_828"/>
<path d="M70.8,538.2H850.4v-.8H70.8v.8Z" class="g1_828"/>
<path d="M70.8,826.7H850.4v-.3H70.8v.3Z" class="g1_828"/>
<path d="M70.8,851.4H850.4v-.7H70.8v.7Z" class="g1_828"/>
<path d="M70.8,1053.1H850.4v-.8H70.8v.8Z" class="g1_828"/>
</svg>