<?xml version="1.0" encoding="UTF-8" standalone="no"?>
<!DOCTYPE svg PUBLIC "-//W3C//DTD SVG 1.1//EN"
"http://www.w3.org/Graphics/SVG/1.1/DTD/svg11.dtd">
<svg viewBox="0 0 935 1210" version="1.1" xmlns="http://www.w3.org/2000/svg" xmlns:xlink="http://www.w3.org/1999/xlink">
<defs>
<style type="text/css"><![CDATA[
.g0_1993{
fill: #FFF;
}
.g1_1993{
fill: #000;
}
]]></style>
</defs>
<path d="M68.9,1149.3H755.2v-21.2H68.9v21.2Z" class="g0_1993"/>
<path d="M771.3,1149.3H855v-21.2H771.3v21.2Z" class="g0_1993"/>
<path d="M69.9,416.7h.8v-291h-.8v291Z" class="g1_1993"/>
<path d="M290.4,417.4h.7V124.9h-.7V417.4Z" class="g1_1993"/>
<path d="M337.4,417.4h.8V124.9h-.8V417.4Z" class="g1_1993"/>
<path d="M412,417.4h.7V124.9H412V417.4Z" class="g1_1993"/>
<path d="M498.4,417.4h.7V124.9h-.7V417.4Z" class="g1_1993"/>
<path d="M855.7,416.7h.7v-291h-.7v291Z" class="g1_1993"/>
<path d="M69.9,125.7H856.5v-.8H69.9v.8Z" class="g1_1993"/>
<path d="M69.9,179.1H856.5v-.7H69.9v.7Z" class="g1_1993"/>
<path d="M69.9,218.8H856.5v-.7H69.9v.7Z" class="g1_1993"/>
<path d="M69.9,258.6H856.5v-.7H69.9v.7Z" class="g1_1993"/>
<path d="M69.9,298.3H856.5v-.7H69.9v.7Z" class="g1_1993"/>
<path d="M69.9,338H856.5v-.8H69.9v.8Z" class="g1_1993"/>
<path d="M69.9,377.8H856.5V377H69.9v.8Z" class="g1_1993"/>
<path d="M69.9,417.4H856.5v-.7H69.9v.7Z" class="g1_1993"/>
<path d="M69.9,537.4h.8v-65h-.8v65Z" class="g1_1993"/>
<path d="M134.5,538.2h.7V471.7h-.7v66.5Z" class="g1_1993"/>
<path d="M241.3,538.2h.7V471.7h-.7v66.5Z" class="g1_1993"/>
<path d="M380.6,538.2h.7V471.7h-.7v66.5Z" class="g1_1993"/>
<path d="M548.3,538.2h.7V471.7h-.7v66.5Z" class="g1_1993"/>
<path d="M698.1,538.2h.8V471.7h-.8v66.5Z" class="g1_1993"/>
<path d="M849.3,537.4h.7v-65h-.7v65Z" class="g1_1993"/>
<path d="M69.9,472.4H850v-.7H69.9v.7Z" class="g1_1993"/>
<path d="M69.9,496.9H850v-.7H69.9v.7Z" class="g1_1993"/>
<path d="M69.9,538.2H850v-.8H69.9v.8Z" class="g1_1993"/>
</svg>