<?xml version="1.0" encoding="UTF-8" standalone="no"?>
<!DOCTYPE svg PUBLIC "-//W3C//DTD SVG 1.1//EN"
"http://www.w3.org/Graphics/SVG/1.1/DTD/svg11.dtd">
<svg viewBox="0 0 935 1210" version="1.1" xmlns="http://www.w3.org/2000/svg" xmlns:xlink="http://www.w3.org/1999/xlink">
<defs>
<clipPath id="c0_2683"><path d="M97.3,59.2V41.4h72.1V59.2Z"/></clipPath>
<style type="text/css"><![CDATA[
.g0_2683{
fill: #000;
}
]]></style>
</defs>
<path d="M96.3,63.3H838.8v-.4H96.3v.4Z" class="g0_2683"/>
<path d="M96.1,1114.5h.2v-.4h-.2v.4Z" class="g0_2683"/>
<path d="M96.3,1114.5H838.9v-.4H96.3v.4Z" class="g0_2683"/>
<image clip-path="url(#c0_2683)" preserveAspectRatio="none" x="97" y="41" width="73" height="18" xlink:href="img/1.jpg"/>
<path d="M563,907h31.4v-1.1H563V907Z" class="g0_2683"/>
<path d="M682.8,907h20.4v-1.1H682.8V907Z" class="g0_2683"/>
<path d="M703.2,907h8.4v-1.1h-8.4V907Z" class="g0_2683"/>
<path d="M240.6,670.4h.8V451.1h-.8V670.4Z" class="g0_2683"/>
<path d="M374.3,671.1h.7V450.3h-.7V671.1Z" class="g0_2683"/>
<path d="M545.4,671.1h.8V450.3h-.8V671.1Z" class="g0_2683"/>
<path d="M693.6,670.4h.8V451.1h-.8V670.4Z" class="g0_2683"/>
<path d="M240.6,451.1H694.4v-.7H240.6v.7Z" class="g0_2683"/>
<path d="M240.6,475.5H694.4v-.8H240.6v.8Z" class="g0_2683"/>
<path d="M240.6,499.9H694.4v-.7H240.6v.7Z" class="g0_2683"/>
<path d="M240.6,524.4H694.4v-.7H240.6v.7Z" class="g0_2683"/>
<path d="M240.6,548.8H694.4v-.7H240.6v.7Z" class="g0_2683"/>
<path d="M240.6,573.3H694.4v-.8H240.6v.8Z" class="g0_2683"/>
<path d="M240.6,597.8H694.4V597H240.6v.8Z" class="g0_2683"/>
<path d="M240.6,622.1H694.4v-.7H240.6v.7Z" class="g0_2683"/>
<path d="M240.6,646.6H694.4v-.7H240.6v.7Z" class="g0_2683"/>
<path d="M240.6,671.1H694.4v-.7H240.6v.7Z" class="g0_2683"/>
<path d="M95.9,760.5h.7V715.4h-.7v45.1Z" class="g0_2683"/>
<path d="M216,761.2h.7V714.6H216v46.6Z" class="g0_2683"/>
<path d="M293.3,761.2h.8V714.6h-.8v46.6Z" class="g0_2683"/>
<path d="M839.1,760.5h.7V715.4h-.7v45.1Z" class="g0_2683"/>
<path d="M95.9,715.4h744v-.8H95.9v.8Z" class="g0_2683"/>
<path d="M95.9,739.5h744v-3.1H95.9v3.1Z" class="g0_2683"/>
<path d="M95.9,761.2h744v-.7H95.9v.7Z" class="g0_2683"/>
</svg>