<?xml version="1.0" encoding="UTF-8" standalone="no"?>
<!DOCTYPE svg PUBLIC "-//W3C//DTD SVG 1.1//EN"
"http://www.w3.org/Graphics/SVG/1.1/DTD/svg11.dtd">
<svg viewBox="0 0 935 1210" version="1.1" xmlns="http://www.w3.org/2000/svg" xmlns:xlink="http://www.w3.org/1999/xlink">
<defs>
<style type="text/css"><![CDATA[
.g0_4749{
fill: #FFF;
}
.g1_4749{
fill: #000;
}
]]></style>
</defs>
<path d="M68.9,1149.3H852.7v-21.2H68.9v21.2Z" class="g0_4749"/>
<path d="M69.9,1076.7h.8V124.1h-.8v952.6Z" class="g1_4749"/>
<path d="M126.7,1077.5h.7V164.6h-.7v912.9Z" class="g1_4749"/>
<path d="M183.4,1077.5h.8V123.4h-.8v954.1Z" class="g1_4749"/>
<path d="M439.5,1077.5h.8V123.4h-.8v954.1Z" class="g1_4749"/>
<path d="M533,1077.5h.8V123.4H533v954.1Z" class="g1_4749"/>
<path d="M850.3,1076.7h.7V124.1h-.7v952.6Z" class="g1_4749"/>
<path d="M69.9,124.1H851v-.7H69.9v.7Z" class="g1_4749"/>
<path d="M69.9,165.4H184.2v-.8H69.9v.8Z" class="g1_4749"/>
<path d="M69.9,189.8H851v-.7H69.9v.7Z" class="g1_4749"/>
<path d="M69.9,252.4H851v-.7H69.9v.7Z" class="g1_4749"/>
<path d="M183.4,315.1H851v-.8H183.4v.8Z" class="g1_4749"/>
<path d="M69.9,377.8H851V377H69.9v.8Z" class="g1_4749"/>
<path d="M183.4,440.4H851v-.8H183.4v.8Z" class="g1_4749"/>
<path d="M183.4,503.1H851v-.8H183.4v.8Z" class="g1_4749"/>
<path d="M69.9,683.3H851v-.7H69.9v.7Z" class="g1_4749"/>
<path d="M183.4,746H851v-.8H183.4v.8Z" class="g1_4749"/>
<path d="M69.9,808.6H851v-.7H69.9v.7Z" class="g1_4749"/>
<path d="M183.4,833.1H851v-.8H183.4v.8Z" class="g1_4749"/>
<path d="M183.4,857.5H851v-.8H183.4v.8Z" class="g1_4749"/>
<path d="M183.4,881.9H851v-.7H183.4v.7Z" class="g1_4749"/>
<path d="M183.4,906.4H851v-.7H183.4v.7Z" class="g1_4749"/>
<path d="M183.4,930.8H851v-.7H183.4v.7Z" class="g1_4749"/>
<path d="M183.4,955.3H851v-.8H183.4v.8Z" class="g1_4749"/>
<path d="M183.4,979.7H851V979H183.4v.7Z" class="g1_4749"/>
<path d="M183.4,1004.1H851v-.7H183.4v.7Z" class="g1_4749"/>
<path d="M183.4,1028.6H851v-.7H183.4v.7Z" class="g1_4749"/>
<path d="M183.4,1053.1H851v-.8H183.4v.8Z" class="g1_4749"/>
<path d="M69.9,1077.5H851v-.8H69.9v.8Z" class="g1_4749"/>
</svg>