<?xml version="1.0" encoding="UTF-8" standalone="no"?>
<!DOCTYPE svg PUBLIC "-//W3C//DTD SVG 1.1//EN"
"http://www.w3.org/Graphics/SVG/1.1/DTD/svg11.dtd">
<svg viewBox="0 0 935 1210" version="1.1" xmlns="http://www.w3.org/2000/svg" xmlns:xlink="http://www.w3.org/1999/xlink">
<defs>
<style type="text/css"><![CDATA[
.g0_1369{
fill: #FFF;
}
.g1_1369{
fill: #000;
}
]]></style>
</defs>
<path d="M68.9,1149.3H852.7v-21.2H68.9v21.2Z" class="g0_1369"/>
<path d="M69.3,288.4H70V163.9h-.7V288.4Z" class="g1_1369"/>
<path d="M142.4,289.1h.8v-126h-.8v126Z" class="g1_1369"/>
<path d="M282.9,289.1h.7v-126h-.7v126Z" class="g1_1369"/>
<path d="M368.5,289.1h.7V225.8h-.7v63.3Z" class="g1_1369"/>
<path d="M470.4,289.1h.8V186h-.8V289.1Z" class="g1_1369"/>
<path d="M566,289.1h.8V225.8H566v63.3Z" class="g1_1369"/>
<path d="M661.6,289.1h.7V186h-.7V289.1Z" class="g1_1369"/>
<path d="M757.2,289.1h.7V225.8h-.7v63.3Z" class="g1_1369"/>
<path d="M852.7,288.4h.7V163.9h-.7V288.4Z" class="g1_1369"/>
<path d="M69.3,163.8H853.4v-.7H69.3v.7Z" class="g1_1369"/>
<path d="M282.9,186.7H853.4V186H282.9v.7Z" class="g1_1369"/>
<path d="M282.9,226.5H853.4v-.7H282.9v.7Z" class="g1_1369"/>
<path d="M69.3,249.4H853.4v-.7H69.3v.7Z" class="g1_1369"/>
<path d="M69.3,289.1H853.4v-.7H69.3v.7Z" class="g1_1369"/>
<path d="M69,445.8h.8V373.2H69v72.6Z" class="g1_1369"/>
<path d="M237.1,446.5h.8V372.4h-.8v74.1Z" class="g1_1369"/>
<path d="M367.1,446.5h.8V372.4h-.8v74.1Z" class="g1_1369"/>
<path d="M448.9,446.5h.7V372.4h-.7v74.1Z" class="g1_1369"/>
<path d="M853,445.8h.7V373.2H853v72.6Z" class="g1_1369"/>
<path d="M69,373.2H853.7v-.8H69v.8Z" class="g1_1369"/>
<path d="M69,397.7H853.7v-.8H69v.8Z" class="g1_1369"/>
<path d="M69,422H853.7v-.7H69v.7Z" class="g1_1369"/>
<path d="M69,446.5H853.7v-.7H69v.7Z" class="g1_1369"/>
</svg>