<?xml version="1.0" encoding="UTF-8" standalone="no"?>
<!DOCTYPE svg PUBLIC "-//W3C//DTD SVG 1.1//EN"
"http://www.w3.org/Graphics/SVG/1.1/DTD/svg11.dtd">
<svg viewBox="0 0 935 1210" version="1.1" xmlns="http://www.w3.org/2000/svg" xmlns:xlink="http://www.w3.org/1999/xlink">
<defs>
<style type="text/css"><![CDATA[
.g0_1280{
fill: #FFF;
}
.g1_1280{
fill: #000;
}
]]></style>
</defs>
<path d="M68.8,1149.3H852.5v-21.2H68.8v21.2Z" class="g0_1280"/>
<path d="M70.7,250.2h.7V142.4h-.7V250.2Z" class="g1_1280"/>
<path d="M222.4,251h.7V141.7h-.7V251Z" class="g1_1280"/>
<path d="M319.1,251h.7V141.7h-.7V251Z" class="g1_1280"/>
<path d="M415.8,251h.7V141.7h-.7V251Z" class="g1_1280"/>
<path d="M849.8,250.2h.7V142.4h-.7V250.2Z" class="g1_1280"/>
<path d="M70.7,142.4H850.5v-.7H70.7v.7Z" class="g1_1280"/>
<path d="M70.7,182.1H850.5v-.7H70.7v.7Z" class="g1_1280"/>
<path d="M70.7,205.1H850.5v-.8H70.7v.8Z" class="g1_1280"/>
<path d="M70.7,228H850.5v-.8H70.7v.8Z" class="g1_1280"/>
<path d="M70.7,250.9H850.5v-.7H70.7v.7Z" class="g1_1280"/>
<path d="M69.5,479.3h.7V354.8h-.7V479.3Z" class="g1_1280"/>
<path d="M221.2,480.2h.7V354.1h-.7V480.2Z" class="g1_1280"/>
<path d="M317.9,480.2h.7V354.1h-.7V480.2Z" class="g1_1280"/>
<path d="M850.8,479.3h.8V354.8h-.8V479.3Z" class="g1_1280"/>
<path d="M69.5,354.8H851.6v-.7H69.5v.7Z" class="g1_1280"/>
<path d="M69.5,377.8H851.6V377H69.5v.8Z" class="g1_1280"/>
<path d="M69.5,417.4H851.6v-.7H69.5v.7Z" class="g1_1280"/>
<path d="M69.5,457.2H851.6v-.7H69.5v.7Z" class="g1_1280"/>
<path d="M69.5,480.2H851.6v-.8H69.5v.8Z" class="g1_1280"/>
<path d="M69.5,885.8h.7V584h-.7V885.8Z" class="g1_1280"/>
<path d="M221.2,886.5h.7V583.3h-.7V886.5Z" class="g1_1280"/>
<path d="M317.9,886.5h.7V583.3h-.7V886.5Z" class="g1_1280"/>
<path d="M850.8,885.8h.8V584h-.8V885.8Z" class="g1_1280"/>
<path d="M69.5,584H851.6v-.7H69.5v.7Z" class="g1_1280"/>
<path d="M69.5,606.9H851.6v-.7H69.5v.7Z" class="g1_1280"/>
<path d="M69.5,646.6H851.6v-.7H69.5v.7Z" class="g1_1280"/>
<path d="M69.5,686.4H851.6v-.7H69.5v.7Z" class="g1_1280"/>
<path d="M69.5,726.1H851.6v-.7H69.5v.7Z" class="g1_1280"/>
<path d="M69.5,749H851.6v-.7H69.5v.7Z" class="g1_1280"/>
<path d="M69.5,771.9H851.6v-.7H69.5v.7Z" class="g1_1280"/>
<path d="M69.5,794.8H851.6v-.7H69.5v.7Z" class="g1_1280"/>
<path d="M69.5,817.8H851.6V817H69.5v.8Z" class="g1_1280"/>
<path d="M69.5,840.7H851.6v-.8H69.5v.8Z" class="g1_1280"/>
<path d="M69.5,863.6H851.6v-.7H69.5v.7Z" class="g1_1280"/>
<path d="M69.5,886.5H851.6v-.7H69.5v.7Z" class="g1_1280"/>
</svg>