<?xml version="1.0" encoding="UTF-8" standalone="no"?>
<!DOCTYPE svg PUBLIC "-//W3C//DTD SVG 1.1//EN"
"http://www.w3.org/Graphics/SVG/1.1/DTD/svg11.dtd">
<svg viewBox="0 0 935 1210" version="1.1" xmlns="http://www.w3.org/2000/svg" xmlns:xlink="http://www.w3.org/1999/xlink">
<defs>
<clipPath id="c0_434"><path d="M97.3,59.2V41.4h72.1V59.2Z"/></clipPath>
<style type="text/css"><![CDATA[
.g0_434{
fill: #000;
}
]]></style>
</defs>
<path d="M96.2,62.9v.3H838.7v-.3H96.2Z" class="g0_434"/>
<path d="M96.2,1114.1h-.1v.3h.1v-.3Z" class="g0_434"/>
<path d="M838.7,1114.1h.2v.3h-.2v-.3Z" class="g0_434"/>
<path d="M96.2,1114.1v.3H838.7v-.3H96.2Z" class="g0_434"/>
<image clip-path="url(#c0_434)" preserveAspectRatio="none" x="97" y="41" width="72" height="18" xlink:href="img/1.jpg"/>
<path d="M98.8,151.6h-.7V890.2h.7V151.6Z" class="g0_434"/>
<path d="M239.3,150.9h-.7V891h.7V150.9Z" class="g0_434"/>
<path d="M328.1,150.9h-.8V891h.8V150.9Z" class="g0_434"/>
<path d="M836.9,151.6h-.8V890.2h.8V151.6Z" class="g0_434"/>
<path d="M98.1,150.9v.7H836.9v-.7H98.1Z" class="g0_434"/>
<path d="M98.1,187.5v.8H836.9v-.8H98.1Z" class="g0_434"/>
<path d="M98.1,565v.7H836.9V565H98.1Z" class="g0_434"/>
<path d="M98.1,684.6v.8H836.9v-.8H98.1Z" class="g0_434"/>
<path d="M98.1,890.2v.8H836.9v-.8H98.1Z" class="g0_434"/>
</svg>