<?xml version="1.0" encoding="UTF-8" standalone="no"?>
<!DOCTYPE svg PUBLIC "-//W3C//DTD SVG 1.1//EN"
"http://www.w3.org/Graphics/SVG/1.1/DTD/svg11.dtd">
<svg viewBox="0 0 935 1210" version="1.1" xmlns="http://www.w3.org/2000/svg" xmlns:xlink="http://www.w3.org/1999/xlink">
<defs>
<clipPath id="c0_2260"><path d="M766.6,59.2V41.4h72.2V59.2Z"/></clipPath>
<style type="text/css"><![CDATA[
.g0_2260{
fill: #000;
}
]]></style>
</defs>
<path d="M97.4,63.3H839.9v-.4H97.4v.4Z" class="g0_2260"/>
<path d="M96.1,1114.5h.2v-.4h-.2v.4Z" class="g0_2260"/>
<path d="M96.3,1114.5H838.9v-.4H96.3v.4Z" class="g0_2260"/>
<image clip-path="url(#c0_2260)" preserveAspectRatio="none" x="767" y="41" width="72" height="18" xlink:href="img/1.jpg"/>
<path d="M95.9,421.3h.7V177.2h-.7V421.3Z" class="g0_2260"/>
<path d="M273.3,371.6h.8V174.2h-.8V371.6Z" class="g0_2260"/>
<path d="M310,371.6h.7V196.7H310V371.6Z" class="g0_2260"/>
<path d="M346.7,371.6h.7V196.7h-.7V371.6Z" class="g0_2260"/>
<path d="M383.4,371.6h.7V174.2h-.7V371.6Z" class="g0_2260"/>
<path d="M839.2,421.3h.7V177.2h-.7V421.3Z" class="g0_2260"/>
<path d="M95.9,177.2h744v-3H95.9v3Z" class="g0_2260"/>
<path d="M273.3,197.4H384.2v-.7H273.3v.7Z" class="g0_2260"/>
<path d="M95.9,220h744v-3H95.9v3Z" class="g0_2260"/>
<path d="M95.9,238.7h744V238H95.9v.7Z" class="g0_2260"/>
<path d="M273.3,258.6H839.9v-.7H273.3v.7Z" class="g0_2260"/>
<path d="M273.3,278.4H839.9v-.7H273.3v.7Z" class="g0_2260"/>
<path d="M95.9,298.3h744v-.7H95.9v.7Z" class="g0_2260"/>
<path d="M273.3,331.9H839.9v-.7H273.3v.7Z" class="g0_2260"/>
<path d="M95.9,351.7h744V351H95.9v.7Z" class="g0_2260"/>
<path d="M95.9,371.6h744v-.7H95.9v.7Z" class="g0_2260"/>
<path d="M95.9,422h744v-.7H95.9v.7Z" class="g0_2260"/>
</svg>