<?xml version="1.0" encoding="UTF-8" standalone="no"?>
<!DOCTYPE svg PUBLIC "-//W3C//DTD SVG 1.1//EN"
"http://www.w3.org/Graphics/SVG/1.1/DTD/svg11.dtd">
<svg viewBox="0 0 935 1210" version="1.1" xmlns="http://www.w3.org/2000/svg" xmlns:xlink="http://www.w3.org/1999/xlink">
<defs>
<clipPath id="c0_2101"><path d="M97.3,59.2V41.4h72.1V59.2Z"/></clipPath>
<style type="text/css"><![CDATA[
.g0_2101{
fill: #000;
}
]]></style>
</defs>
<path d="M96.3,63.3H838.8v-.4H96.3v.4Z" class="g0_2101"/>
<path d="M96.1,1114.5h.2v-.4h-.2v.4Z" class="g0_2101"/>
<path d="M96.3,1114.5H838.9v-.4H96.3v.4Z" class="g0_2101"/>
<image clip-path="url(#c0_2101)" preserveAspectRatio="none" x="97" y="41" width="73" height="18" xlink:href="img/1.jpg"/>
<path d="M95.9,227.2h.7V182.1h-.7v45.1Z" class="g0_2101"/>
<path d="M216,228h.7V181.4H216V228Z" class="g0_2101"/>
<path d="M293.3,228h.8V181.4h-.8V228Z" class="g0_2101"/>
<path d="M839.1,227.2h.7V182.1h-.7v45.1Z" class="g0_2101"/>
<path d="M95.9,182.1h744v-.7H95.9v.7Z" class="g0_2101"/>
<path d="M95.9,206.3h744v-3.1H95.9v3.1Z" class="g0_2101"/>
<path d="M95.9,228h744v-.8H95.9v.8Z" class="g0_2101"/>
<path d="M95.9,957.5h.7V773h-.7V957.5Z" class="g0_2101"/>
<path d="M261.8,958.3h.7V770h-.7V958.3Z" class="g0_2101"/>
<path d="M310,958.3h.7V770H310V958.3Z" class="g0_2101"/>
<path d="M372.9,958.3h.7V770h-.7V958.3Z" class="g0_2101"/>
<path d="M454.5,958.3h.7V770h-.7V958.3Z" class="g0_2101"/>
<path d="M838.4,957.5h.7V773h-.7V957.5Z" class="g0_2101"/>
<path d="M95.9,773.1H839.1v-3H95.9v3Z" class="g0_2101"/>
<path d="M95.9,815.8H839.1v-3H95.9v3Z" class="g0_2101"/>
<path d="M261.8,854.4H839.1v-.7H261.8v.7Z" class="g0_2101"/>
<path d="M261.8,878.8H839.1v-.7H261.8v.7Z" class="g0_2101"/>
<path d="M95.9,918.6H839.1v-.7H95.9v.7Z" class="g0_2101"/>
<path d="M95.9,958.3H839.1v-.7H95.9v.7Z" class="g0_2101"/>
</svg>