<?xml version="1.0" encoding="UTF-8" standalone="no"?>
<!DOCTYPE svg PUBLIC "-//W3C//DTD SVG 1.1//EN"
"http://www.w3.org/Graphics/SVG/1.1/DTD/svg11.dtd">
<svg viewBox="0 0 935 1210" version="1.1" xmlns="http://www.w3.org/2000/svg" xmlns:xlink="http://www.w3.org/1999/xlink">
<defs>
<style type="text/css"><![CDATA[
.g0_80{
fill: none;
stroke: #000;
stroke-width: 1.521;
stroke-miterlimit: 10;
}
.g1_80{
fill: none;
stroke: #000;
stroke-width: 0.608;
stroke-miterlimit: 10;
}
]]></style>
</defs>
<path d="M151.7,167.2H783.3" class="g0_80"/>
<path d="M151.6,389.5H783.4m-631.5,17V389.8m503.5,16.7V389.8m127.7,16.7V389.8m-631.5,17H783.4M198.1,580H736.9M198.4,601V580.3M258,601V580.3M340.8,601V580.3M736.6,601V580.3m-538.5,21H736.9m-538.5,21V601.6M258,622.3V601.6m82.8,20.7V601.6m395.8,20.7V601.6M198.4,643V622.3M258,643V622.3M340.8,643V622.3M736.6,643V622.3M198.4,663.7V643M258,663.7V643m82.8,20.7V643m395.8,20.7V643M198.1,664H736.9" class="g1_80"/>
</svg>