<?xml version="1.0" encoding="UTF-8" standalone="no"?>
<!DOCTYPE svg PUBLIC "-//W3C//DTD SVG 1.1//EN"
"http://www.w3.org/Graphics/SVG/1.1/DTD/svg11.dtd">
<svg viewBox="0 0 935 1210" version="1.1" xmlns="http://www.w3.org/2000/svg" xmlns:xlink="http://www.w3.org/1999/xlink">
<defs>
<style type="text/css"><![CDATA[
.g0_836{
fill: #FFF;
}
.g1_836{
fill: #000;
}
.g2_836{
fill: #E6E6E6;
}
]]></style>
</defs>
<path d="M68.8,1149.3H852.5v-21.2H68.8v21.2Z" class="g0_836"/>
<path d="M116.5,610.2h.7V257h-.7V610.2Z" class="g1_836"/>
<path d="M803.8,610.2h.8V257h-.8V610.2Z" class="g1_836"/>
<path d="M116.5,257H804.6v-.7H116.5v.7Z" class="g1_836"/>
<path d="M116.5,611H804.6v-.8H116.5v.8Z" class="g1_836"/>
<path d="M270.9,360.2H296V313.1H270.9v47.1Z" class="g2_836"/>
<path d="M245,594.2H653.4V547.3H245v46.9Z" class="g2_836"/>
<path d="M244.7,547.6H653.9v-.7H244.7v.7Z" class="g1_836"/>
<path d="M653.1,594.6h.8V547.3h-.8v47.3Z" class="g1_836"/>
<path d="M244.4,594.6H653.5v-.8H244.4v.8Z" class="g1_836"/>
<path d="M244.4,594.2h.7V546.9h-.7v47.3Z" class="g1_836"/>
<path d="M437,396.9H568.2v-.4H437v.4Z" class="g1_836"/>
<path d="M437,396.6h.4V358.7H437v37.9Z" class="g1_836"/>
<path d="M417.4,409.5H593.9V409H417.4v.5Z" class="g1_836"/>
<path d="M417.4,409.2h.5V358.1h-.5v51.1Z" class="g1_836"/>
<path d="M495,380.7H606.9v-.5H495v.5Z" class="g1_836"/>
<path d="M495,380.4h.5V358.1H495v22.3Z" class="g1_836"/>
<path d="M500.7,359.2H655.2v-47H500.7v47Z" class="g2_836"/>
<path d="M245.2,312.6H654.3v-.8H245.2v.8Z" class="g1_836"/>
<path d="M653.6,359.6h.7V312.2h-.7v47.4Z" class="g1_836"/>
<path d="M244.8,359.6H653.9v-.7H244.8v.7Z" class="g1_836"/>
<path d="M244.8,359.2h.8V311.8h-.8v47.4Z" class="g1_836"/>
<path d="M409.7,313.3h.4v-.2h-.4v.2Z" class="g1_836"/>
<path d="M409.7,360.2h.4V313.3h-.4v46.9Z" class="g1_836"/>
<path d="M334,312.6h.5v-.2H334v.2Z" class="g1_836"/>
<path d="M334,359.4h.5V312.6H334v46.8Z" class="g1_836"/>
<path d="M308.1,312.3h.5v-.2h-.5v.2Z" class="g1_836"/>
<path d="M308.1,359.2h.5V312.3h-.5v46.9Z" class="g1_836"/>
<path d="M258.1,312.3h.5v-.2h-.5v.2Z" class="g1_836"/>
<path d="M258.1,359.2h.5V312.3h-.5v46.9Z" class="g1_836"/>
<path d="M501,312.3h.4v-.2H501v.2Z" class="g1_836"/>
<path d="M501,359.2h.4V312.3H501v46.9Z" class="g1_836"/>
<path d="M487.5,313.3h.4v-.2h-.4v.2Z" class="g1_836"/>
<path d="M487.5,360.2h.4V313.3h-.4v46.9Z" class="g1_836"/>
<path d="M449.1,313.3h.4v-.2h-.4v.2Z" class="g1_836"/>
<path d="M449.1,360.2h.4V313.3h-.4v46.9Z" class="g1_836"/>
<path d="M423.6,313.3h.4v-.2h-.4v.2Z" class="g1_836"/>
<path d="M423.6,360.2h.4V313.3h-.4v46.9Z" class="g1_836"/>
<path d="M397.9,313.3h.5v-.2h-.5v.2Z" class="g1_836"/>
<path d="M397.9,360.2h.5V313.3h-.5v46.9Z" class="g1_836"/>
<path d="M346.9,312.3h.4v-.2h-.4v.2Z" class="g1_836"/>
<path d="M346.9,359.2h.4V312.3h-.4v46.9Z" class="g1_836"/>
<path d="M321.6,312.3h.4v-.2h-.4v.2Z" class="g1_836"/>
<path d="M321.6,359.2h.4V312.3h-.4v46.9Z" class="g1_836"/>
<path d="M270.7,312.3h.4v-.2h-.4v.2Z" class="g1_836"/>
<path d="M270.7,359.2h.4V312.3h-.4v46.9Z" class="g1_836"/>
<path d="M326.7,456.2H572.8v-.4H326.7v.4Z" class="g1_836"/>
<path d="M326.7,456h.5V358.2h-.5V456Z" class="g1_836"/>
<path d="M314.6,474.3H572.9v-.5H314.6v.5Z" class="g1_836"/>
<path d="M314.6,474h.5V358.8h-.5V474Z" class="g1_836"/>
<path d="M340,441.5H618.3V441H340v.5Z" class="g1_836"/>
<path d="M340,441.2h.4V359.6H340v81.6Z" class="g1_836"/>
<path d="M249.9,522.2H621.2v-.4H249.9v.4Z" class="g1_836"/>
<path d="M249.9,522h.4V359h-.4V522Z" class="g1_836"/>
<path d="M263.2,505.1H598.9v-.5H263.2v.5Z" class="g1_836"/>
<path d="M263.2,504.8h.4V359.6h-.4V504.8Z" class="g1_836"/>
<path d="M404.5,425.5H577.2v-.4H404.5v.4Z" class="g1_836"/>
<path d="M404.5,425.2h.5V358.5h-.5v66.7Z" class="g1_836"/>
<path d="M295.1,313h.4v-.1h-.4v.1Z" class="g1_836"/>
<path d="M295.1,360h.4V313h-.4v47Z" class="g1_836"/>
<path d="M301.6,490.3H573.7v-.4H301.6v.4Z" class="g1_836"/>
<path d="M301.6,490.1h.4V358.9h-.4V490.1Z" class="g1_836"/>
<path d="M243.4,281.9h25.2V265.8H243.4v16.1Z" class="g2_836"/>
<path d="M243.4,266.1h25.5v-.4H243.4v.4Z" class="g1_836"/>
<path d="M268.4,282.1h.5V265.8h-.5v16.3Z" class="g1_836"/>
<path d="M243.2,282.1h25.4v-.4H243.2v.4Z" class="g1_836"/>
<path d="M243.2,281.9h.4V265.7h-.4v16.2Z" class="g1_836"/>
</svg>