<?xml version="1.0" encoding="UTF-8" standalone="no"?>
<!DOCTYPE svg PUBLIC "-//W3C//DTD SVG 1.1//EN"
"http://www.w3.org/Graphics/SVG/1.1/DTD/svg11.dtd">
<svg viewBox="0 0 935 1210" version="1.1" xmlns="http://www.w3.org/2000/svg" xmlns:xlink="http://www.w3.org/1999/xlink">
<defs>
<style type="text/css"><![CDATA[
.g0_4905{
fill: #FFF;
}
.g1_4905{
fill: #000;
}
]]></style>
</defs>
<path d="M68.9,1149.3H852.7v-21.2H68.9v21.2Z" class="g0_4905"/>
<path d="M69.9,1095.1h.8v-971h-.8v971Z" class="g1_4905"/>
<path d="M124.1,1095.9h.8V164.6h-.8v931.3Z" class="g1_4905"/>
<path d="M174.9,1095.9h.7V123.4h-.7v972.5Z" class="g1_4905"/>
<path d="M395.2,1095.9h.7V123.4h-.7v972.5Z" class="g1_4905"/>
<path d="M470.4,1095.9h.8V123.4h-.8v972.5Z" class="g1_4905"/>
<path d="M561.8,1095.9h.8V123.4h-.8v972.5Z" class="g1_4905"/>
<path d="M851.5,1095.1h.7v-971h-.7v971Z" class="g1_4905"/>
<path d="M69.9,124.1H852.2v-.7H69.9v.7Z" class="g1_4905"/>
<path d="M69.9,165.4H175.7v-.8H69.9v.8Z" class="g1_4905"/>
<path d="M69.9,189.8H852.2v-.7H69.9v.7Z" class="g1_4905"/>
<path d="M174.9,391.5H852.2v-.7H174.9v.7Z" class="g1_4905"/>
<path d="M69.9,449.5H852.2v-.7H69.9v.7Z" class="g1_4905"/>
<path d="M69.9,512.2H852.2v-.7H69.9v.7Z" class="g1_4905"/>
<path d="M69.9,574.8H852.2v-.7H69.9v.7Z" class="g1_4905"/>
<path d="M69.9,637.4H852.2v-.7H69.9v.7Z" class="g1_4905"/>
<path d="M69.9,683.3H852.2v-.7H69.9v.7Z" class="g1_4905"/>
<path d="M69.9,729.1H852.2v-.7H69.9v.7Z" class="g1_4905"/>
<path d="M69.9,774.9H852.2v-.7H69.9v.7Z" class="g1_4905"/>
<path d="M69.9,820.8H852.2v-.7H69.9v.7Z" class="g1_4905"/>
<path d="M69.9,866.6H852.2v-.7H69.9v.7Z" class="g1_4905"/>
<path d="M69.9,912.5H852.2v-.8H69.9v.8Z" class="g1_4905"/>
<path d="M69.9,958.3H852.2v-.7H69.9v.7Z" class="g1_4905"/>
<path d="M69.9,1004.1H852.2v-.7H69.9v.7Z" class="g1_4905"/>
<path d="M69.9,1050H852.2v-.8H69.9v.8Z" class="g1_4905"/>
<path d="M69.9,1095.8H852.2v-.8H69.9v.8Z" class="g1_4905"/>
</svg>