<?xml version="1.0" encoding="UTF-8" standalone="no"?>
<!DOCTYPE svg PUBLIC "-//W3C//DTD SVG 1.1//EN"
"http://www.w3.org/Graphics/SVG/1.1/DTD/svg11.dtd">
<svg viewBox="0 0 935 1210" version="1.1" xmlns="http://www.w3.org/2000/svg" xmlns:xlink="http://www.w3.org/1999/xlink">
<defs>
<style type="text/css"><![CDATA[
.g0_770{
fill: #FFF;
}
.g1_770{
fill: #000;
}
]]></style>
</defs>
<path d="M165,1149.3H852.5v-21.2H165v21.2Z" class="g0_770"/>
<path d="M68.8,1149.3h82.5v-21.2H68.8v21.2Z" class="g0_770"/>
<path d="M68.6,403h.7V232.7h-.7V403Z" class="g1_770"/>
<path d="M137.3,403.7h.8V231.8h-.8V403.7Z" class="g1_770"/>
<path d="M311.2,403.7h.7V231.8h-.7V403.7Z" class="g1_770"/>
<path d="M497.1,403.7h.7V231.8h-.7V403.7Z" class="g1_770"/>
<path d="M675,403.7h.8V231.8H675V403.7Z" class="g1_770"/>
<path d="M849.7,403h.7V232.7h-.7V403Z" class="g1_770"/>
<path d="M68.6,232.6H850.4v-.8H68.6v.8Z" class="g1_770"/>
<path d="M68.6,257H850.4v-.7H68.6v.7Z" class="g1_770"/>
<path d="M68.6,281.5H850.4v-.7H68.6v.7Z" class="g1_770"/>
<path d="M68.6,305.9H850.4v-.7H68.6v.7Z" class="g1_770"/>
<path d="M68.6,330.4H850.4v-.8H68.6v.8Z" class="g1_770"/>
<path d="M68.6,354.8H850.4v-.7H68.6v.7Z" class="g1_770"/>
<path d="M68.6,379.2H850.4v-.7H68.6v.7Z" class="g1_770"/>
<path d="M68.6,403.7H850.4V403H68.6v.7Z" class="g1_770"/>
</svg>