<?xml version="1.0" encoding="UTF-8" standalone="no"?>
<!DOCTYPE svg PUBLIC "-//W3C//DTD SVG 1.1//EN"
"http://www.w3.org/Graphics/SVG/1.1/DTD/svg11.dtd">
<svg viewBox="0 0 935 1210" version="1.1" xmlns="http://www.w3.org/2000/svg" xmlns:xlink="http://www.w3.org/1999/xlink">
<defs>
<style type="text/css"><![CDATA[
.g0_34{
fill: none;
stroke: #000;
stroke-width: 0.608;
stroke-miterlimit: 10;
}
]]></style>
</defs>
<path d="M144.3,145.2H728.5M144.6,165.6V144.9m137.5,20.7V144.9m88,20.7V144.9m88,20.7V144.9m66,20.7V144.9m88,20.7V144.9m116.1,20.7V144.9m-583.9,21H728.5M144.3,186.6H728.5M144.6,207V186.3M370.1,207V186.3m88,20.7V186.3m66,20.7V186.3m88,20.7V186.3M728.2,207V186.3m-583.9,21H728.5M144.3,228H728.5M144.6,248.4V227.7m137.5,20.7V227.7m88,20.7V227.7m88,20.7V227.7m66,20.7V227.7m88,20.7V227.7m116.1,20.7V227.7m-583.9,21H728.5M144.3,269.4H728.5M144.6,289.8V269.1m379.5,20.7V269.1m88,20.7V269.1m116.1,20.7V269.1m-583.9,21H728.5M125,700.5H752.2M125.3,718.4V700.2m154.1,18.2V700.2m132,18.2V700.2m77,18.2V700.2m66,18.2V700.2m136.4,18.2V700.2m61.1,18.2V700.2M125,718.7H752.2M125,737H752.2M125.3,755V736.7M411.4,755V736.7m77,18.3V736.7m66,18.3V736.7M690.8,755V736.7M751.9,755V736.7M125,755.3H752.2M125,773.5H752.2m-626.9,18V773.2m154.1,18.3V773.2m132,18.3V773.2m77,18.3V773.2m66,18.3V773.2m136.4,18.3V773.2m61.1,18.3V773.2M125,791.8H752.2M125,810.1H752.2M125.3,828V809.8M191.4,828V809.8m88,18.2V809.8m132,18.2V809.8m77,18.2V809.8m66,18.2V809.8M624.7,828V809.8M690.8,828V809.8M751.9,828V809.8M125,828.3H752.2M125,846.6H752.2m-626.9,18V846.3m429.1,18.3V846.3m136.4,18.3V846.3m61.1,18.3V846.3M125,864.9H752.2M125,883.1H752.2m-626.9,18V882.8m66.1,18.3V882.8m154,18.3V882.8m66,18.3V882.8m143,18.3V882.8m136.4,18.3V882.8m61.1,18.3V882.8M125,901.4H752.2" class="g0_34"/>
</svg>