<?xml version="1.0" encoding="UTF-8" standalone="no"?>
<!DOCTYPE svg PUBLIC "-//W3C//DTD SVG 1.1//EN"
"http://www.w3.org/Graphics/SVG/1.1/DTD/svg11.dtd">
<svg viewBox="0 0 935 1210" version="1.1" xmlns="http://www.w3.org/2000/svg" xmlns:xlink="http://www.w3.org/1999/xlink">
<defs>
<style type="text/css"><![CDATA[
.g0_854{
fill: #FFF;
}
.g1_854{
fill: #000;
}
]]></style>
</defs>
<path d="M165,1149.3H852.5v-21.2H165v21.2Z" class="g0_854"/>
<path d="M68.8,1149.3h82.5v-21.2H68.8v21.2Z" class="g0_854"/>
<path d="M68.6,467.1h.7V125.7h-.7V467.1Z" class="g1_854"/>
<path d="M286.5,467.9h.8v-343h-.8v343Z" class="g1_854"/>
<path d="M332.4,467.9h.7v-343h-.7v343Z" class="g1_854"/>
<path d="M404.8,467.9h.7v-343h-.7v343Z" class="g1_854"/>
<path d="M489.7,467.9h.7v-343h-.7v343Z" class="g1_854"/>
<path d="M852,467.1h.7V125.7H852V467.1Z" class="g1_854"/>
<path d="M68.6,125.7H852.7v-.8H68.6v.8Z" class="g1_854"/>
<path d="M68.6,179.1H852.7v-.7H68.6v.7Z" class="g1_854"/>
<path d="M68.6,218.8H852.7v-.7H68.6v.7Z" class="g1_854"/>
<path d="M68.6,258.6H852.7v-.7H68.6v.7Z" class="g1_854"/>
<path d="M68.6,298.3H852.7v-.7H68.6v.7Z" class="g1_854"/>
<path d="M68.6,354.8H852.7v-.7H68.6v.7Z" class="g1_854"/>
<path d="M68.6,411.4H852.7v-.7H68.6v.7Z" class="g1_854"/>
<path d="M68.6,467.9H852.7v-.8H68.6v.8Z" class="g1_854"/>
<path d="M68.6,595.5h.7V522.9h-.7v72.6Z" class="g1_854"/>
<path d="M142,596.2h.7V522.1H142v74.1Z" class="g1_854"/>
<path d="M248.4,596.2h.8V522.1h-.8v74.1Z" class="g1_854"/>
<path d="M399,596.2h.8V522.1H399v74.1Z" class="g1_854"/>
<path d="M551,596.2h.7V522.1H551v74.1Z" class="g1_854"/>
<path d="M697.8,596.2h.7V522.1h-.7v74.1Z" class="g1_854"/>
<path d="M847.8,595.5h.8V522.9h-.8v72.6Z" class="g1_854"/>
<path d="M68.6,522.9h780v-.8H68.6v.8Z" class="g1_854"/>
<path d="M68.6,547.3h780v-.7H68.6v.7Z" class="g1_854"/>
<path d="M68.6,571.8h780v-.7H68.6v.7Z" class="g1_854"/>
<path d="M68.6,596.2h780v-.7H68.6v.7Z" class="g1_854"/>
<path d="M157.7,991.2h.7V833.1h-.7V991.2Z" class="g1_854"/>
<path d="M762.8,991.2h.7V833.1h-.7V991.2Z" class="g1_854"/>
<path d="M157.7,833.1H763.5v-.8H157.7v.8Z" class="g1_854"/>
<path d="M157.7,991.9H763.5v-.7H157.7v.7Z" class="g1_854"/>
<path fill-rule="evenodd" d="M672,933.8h.3l.3,-.1c1.4,-.7,1.2,-2.5,-.3,-2.9h-.7c-1.4,.5,-1.6,2.1,-.2,2.9l.2,.1h.4Z" class="g1_854"/>
<path d="M672,932.3h7.5l-.3,1.1l-6.5,22.9l-.7,2.5l-.7,-2.5l-6.6,-22.9l-.3,-1.1h1l.7,.6l6.6,22.9l-1.4,.5v-.5l6.5,-22.9l1.4,.5l-.7,.5H672Z" class="g1_854"/>
<path d="M665.4,933.9H672v-1.6h-6.6v1.6Z" class="g1_854"/>
<path fill-rule="evenodd" d="M672,933.1h6.5L672,956l-6.6,-22.9Z" class="g1_854"/>
<path d="M670.5,932.3h3.1V876.2h-3.1v56.1Z" class="g1_854"/>
<path d="M419.3,876.2H476V855.6H419.3v20.6Z" class="g0_854"/>
<path d="M419.3,856h57.1v-.8H419.3v.8Z" class="g1_854"/>
<path d="M475.7,876.6h.7v-21h-.7v21Z" class="g1_854"/>
<path d="M418.9,876.6H476v-.7H418.9v.7Z" class="g1_854"/>
<path d="M418.9,876.2h.7v-21h-.7v21Z" class="g1_854"/>
<path d="M362.6,876.2h56.7V855.6H362.6v20.6Z" class="g0_854"/>
<path d="M362.6,856h57v-.8h-57v.8Z" class="g1_854"/>
<path d="M418.9,876.6h.7v-21h-.7v21Z" class="g1_854"/>
<path d="M362.3,876.6h57v-.7h-57v.7Z" class="g1_854"/>
<path d="M362.3,876.2h.7v-21h-.7v21Z" class="g1_854"/>
<path d="M305.9,876.2h56.7V855.6H305.9v20.6Z" class="g0_854"/>
<path d="M305.9,856H363v-.8H305.9v.8Z" class="g1_854"/>
<path d="M362.3,876.6h.7v-21h-.7v21Z" class="g1_854"/>
<path d="M305.5,876.6h57.1v-.7H305.5v.7Z" class="g1_854"/>
<path d="M305.5,876.2h.8v-21h-.8v21Z" class="g1_854"/>
<path d="M249.2,876.2h56.7V855.6H249.2v20.6Z" class="g0_854"/>
<path d="M249.2,856h57.1v-.8H249.2v.8Z" class="g1_854"/>
<path d="M305.5,876.6h.8v-21h-.8v21Z" class="g1_854"/>
<path d="M248.8,876.6h57.1v-.7H248.8v.7Z" class="g1_854"/>
<path d="M248.8,876.2h.7v-21h-.7v21Z" class="g1_854"/>
<path d="M646.2,979.4h56.7V958.7H646.2v20.7Z" class="g0_854"/>
<path d="M646.2,959.1h57.1v-.7H646.2v.7Z" class="g1_854"/>
<path d="M702.5,979.7h.8v-21h-.8v21Z" class="g1_854"/>
<path d="M645.8,979.7h57.1V979H645.8v.7Z" class="g1_854"/>
<path d="M645.8,979.4h.7v-21h-.7v21Z" class="g1_854"/>
<path d="M589.5,979.4h56.7V958.7H589.5v20.7Z" class="g0_854"/>
<path d="M589.5,959.1h57v-.7h-57v.7Z" class="g1_854"/>
<path d="M645.8,979.7h.7v-21h-.7v21Z" class="g1_854"/>
<path d="M589.1,979.7h57.1V979H589.1v.7Z" class="g1_854"/>
<path d="M589.1,979.4h.8v-21h-.8v21Z" class="g1_854"/>
<path d="M532.8,979.4h56.7V958.7H532.8v20.7Z" class="g0_854"/>
<path d="M532.8,959.1h57.1v-.7H532.8v.7Z" class="g1_854"/>
<path d="M589.1,979.7h.8v-21h-.8v21Z" class="g1_854"/>
<path d="M532.4,979.7h57.1V979H532.4v.7Z" class="g1_854"/>
<path d="M532.4,979.4h.7v-21h-.7v21Z" class="g1_854"/>
<path d="M476,979.4h56.8V958.7H476v20.7Z" class="g0_854"/>
<path d="M476,959.1h57.1v-.7H476v.7Z" class="g1_854"/>
<path d="M532.4,979.7h.7v-21h-.7v21Z" class="g1_854"/>
<path d="M475.7,979.7h57.1V979H475.7v.7Z" class="g1_854"/>
<path d="M475.7,979.4h.7v-21h-.7v21Z" class="g1_854"/>
<path d="M419.3,979.4H476V958.7H419.3v20.7Z" class="g0_854"/>
<path d="M419.3,959.1h57.1v-.7H419.3v.7Z" class="g1_854"/>
<path d="M475.7,979.7h.7v-21h-.7v21Z" class="g1_854"/>
<path d="M418.9,979.7H476V979H418.9v.7Z" class="g1_854"/>
<path d="M418.9,979.4h.7v-21h-.7v21Z" class="g1_854"/>
<path d="M362.6,979.4h56.7V958.7H362.6v20.7Z" class="g0_854"/>
<path d="M362.6,959.1h57v-.7h-57v.7Z" class="g1_854"/>
<path d="M418.9,979.7h.7v-21h-.7v21Z" class="g1_854"/>
<path d="M362.3,979.7h57V979h-57v.7Z" class="g1_854"/>
<path d="M362.3,979.4h.7v-21h-.7v21Z" class="g1_854"/>
<path d="M305.9,979.4h56.7V958.7H305.9v20.7Z" class="g0_854"/>
<path d="M305.9,959.1H363v-.7H305.9v.7Z" class="g1_854"/>
<path d="M362.3,979.7h.7v-21h-.7v21Z" class="g1_854"/>
<path d="M305.5,979.7h57.1V979H305.5v.7Z" class="g1_854"/>
<path d="M305.5,979.4h.8v-21h-.8v21Z" class="g1_854"/>
<path d="M249.2,979.4h56.7V958.7H249.2v20.7Z" class="g0_854"/>
<path d="M249.2,959.1h57.1v-.7H249.2v.7Z" class="g1_854"/>
<path d="M305.5,979.7h.8v-21h-.8v21Z" class="g1_854"/>
<path d="M248.8,979.7h57.1V979H248.8v.7Z" class="g1_854"/>
<path d="M248.8,979.4h.7v-21h-.7v21Z" class="g1_854"/>
<path d="M646.2,876.2h56.7V855.6H646.2v20.6Z" class="g0_854"/>
<path d="M646.2,856h57.1v-.8H646.2v.8Z" class="g1_854"/>
<path d="M702.5,876.6h.8v-21h-.8v21Z" class="g1_854"/>
<path d="M645.8,876.6h57.1v-.7H645.8v.7Z" class="g1_854"/>
<path d="M645.8,876.2h.7v-21h-.7v21Z" class="g1_854"/>
<path d="M589.5,876.2h56.7V855.6H589.5v20.6Z" class="g0_854"/>
<path d="M589.5,856h57v-.8h-57v.8Z" class="g1_854"/>
<path d="M645.8,876.6h.7v-21h-.7v21Z" class="g1_854"/>
<path d="M589.1,876.6h57.1v-.7H589.1v.7Z" class="g1_854"/>
<path d="M589.1,876.2h.8v-21h-.8v21Z" class="g1_854"/>
<path d="M532.8,876.2h56.7V855.6H532.8v20.6Z" class="g0_854"/>
<path d="M532.8,856h57.1v-.8H532.8v.8Z" class="g1_854"/>
<path d="M589.1,876.6h.8v-21h-.8v21Z" class="g1_854"/>
<path d="M532.4,876.6h57.1v-.7H532.4v.7Z" class="g1_854"/>
<path d="M532.4,876.2h.7v-21h-.7v21Z" class="g1_854"/>
<path d="M476,876.2h56.8V855.6H476v20.6Z" class="g0_854"/>
<path d="M476,856h57.1v-.8H476v.8Z" class="g1_854"/>
<path d="M532.4,876.6h.7v-21h-.7v21Z" class="g1_854"/>
<path d="M475.7,876.6h57.1v-.7H475.7v.7Z" class="g1_854"/>
<path d="M475.7,876.2h.7v-21h-.7v21Z" class="g1_854"/>
<path fill-rule="evenodd" d="M620.4,933.8h.4l.2,-.1c1.4,-.8,1.2,-2.4,-.2,-2.9h-.7l-.2,.1l-.6,.3l-.2,.2l-.1,.3l-.1,.3v.6l.1,.3l.1,.3l.2,.2l.6,.3l.2,.1h.3Z" class="g1_854"/>
<path d="M620.4,932.3H628l-.3,1.1l-6.6,22.9l-.7,2.5l-.7,-2.5l-6.5,-22.9l-.3,-1.1h1l.7,.6l6.5,22.9l-1.4,.5v-.5l6.6,-22.9l1.4,.5l-.7,.5h-6.6Z" class="g1_854"/>
<path d="M613.9,933.9h6.5v-1.6h-6.5v1.6Z" class="g1_854"/>
<path fill-rule="evenodd" d="M620.4,933.1H627L620.4,956l-6.5,-22.9Z" class="g1_854"/>
<path d="M618.9,932.3H622V917.5h-3.1v14.8Z" class="g1_854"/>
<path d="M620.4,919.1H672V916H620.4v3.1Z" class="g1_854"/>
<path fill-rule="evenodd" d="M558.5,933.8h.4l.3,-.1l.1,-.2l.3,-.1l.2,-.2l.2,-.3v-.3l.1,-.3L560,932v-.3l-.2,-.3l-.2,-.2l-.3,-.1l-.1,-.2l-.3,-.1h-.7c-1.5,.4,-1.7,2.3,-.2,2.9l.2,.1h.3Z" class="g1_854"/>
<path d="M558.5,932.3h7.6l-.2,1.1l-6.6,22.9l-.8,2.5l-.7,-2.5l-6.5,-22.9l-.3,-1.1h1l.7,.6l6.6,22.9l-1.5,.5v-.5l6.6,-22.9l1.5,.5l-.8,.5h-6.6Z" class="g1_854"/>
<path d="M552,933.9h6.5v-1.6H552v1.6Z" class="g1_854"/>
<path fill-rule="evenodd" d="M558.5,933.1h6.6L558.5,956L552,933.1Z" class="g1_854"/>
<path d="M557.1,932.3h3V876.2h-3v56.1Z" class="g1_854"/>
<path fill-rule="evenodd" d="M507,933.8h.3l.3,-.1c1.4,-.8,1.1,-2.4,-.3,-2.9h-.7c-1.4,.5,-1.6,2.1,-.2,2.9l.2,.1h.4Z" class="g1_854"/>
<path d="M507,932.3h7.5l-.3,1.1l-6.5,22.9l-.7,2.5l-.7,-2.5l-6.6,-22.9l-.3,-1.1h1l.7,.6l6.6,22.9l-1.4,.5v-.5l6.5,-22.9l1.4,.5l-.7,.5H507Z" class="g1_854"/>
<path d="M500.4,933.9H507v-1.6h-6.6v1.6Z" class="g1_854"/>
<path fill-rule="evenodd" d="M507,933.1h6.5L507,956l-6.6,-22.9Z" class="g1_854"/>
<path d="M505.5,932.3h3.1V917.5h-3.1v14.8Z" class="g1_854"/>
<path d="M507,919.1h51.5V916H507v3.1Z" class="g1_854"/>
<path fill-rule="evenodd" d="M445.1,933.8h.3l.3,-.1c1.4,-.8,1.2,-2.4,-.3,-2.9h-.6c-1.5,.5,-1.7,2.1,-.3,2.9l.3,.1h.3Z" class="g1_854"/>
<path d="M445.1,932.3h7.6l-.3,1.1l-6.5,22.9l-.8,2.5l-.7,-2.5l-6.6,-22.9l-.3,-1.1h1l.8,.6l6.6,22.9l-1.5,.5v-.5l6.5,-22.9l1.5,.5l-.8,.5h-6.5Z" class="g1_854"/>
<path d="M438.5,933.9h6.6v-1.6h-6.6v1.6Z" class="g1_854"/>
<path fill-rule="evenodd" d="M445.1,933.1h6.5L445.1,956l-6.6,-22.9Z" class="g1_854"/>
<path d="M443.7,932.3h3V876.2h-3v56.1Z" class="g1_854"/>
<path fill-rule="evenodd" d="M393.5,933.8h.3l.4,-.1l.1,-.2l.3,-.1l.2,-.2l.2,-.6l.1,-.3l-.3,-.9l-.2,-.2l-.3,-.1l-.1,-.2l-.4,-.1h-.6c-1.5,.4,-1.7,2.3,-.2,2.9l.2,.1h.3Z" class="g1_854"/>
<path d="M393.5,932.3h7.6l-.2,1.1l-6.6,22.9l-.8,2.5l-.7,-2.5l-6.6,-22.9l-.3,-1.1h1l.8,.6l6.6,22.9l-1.5,.5v-.5l6.6,-22.9l1.5,.5l-.8,.5h-6.6Z" class="g1_854"/>
<path d="M386.9,933.9h6.6v-1.6h-6.6v1.6Z" class="g1_854"/>
<path fill-rule="evenodd" d="M393.5,933.1h6.6L393.5,956l-6.6,-22.9Z" class="g1_854"/>
<path d="M392.1,932.3h3V917.5h-3v14.8Z" class="g1_854"/>
<path d="M393.5,919.1h51.6V916H393.5v3.1Z" class="g1_854"/>
<path fill-rule="evenodd" d="M331.7,933.8h.2l.4,-.1l.2,-.2l.3,-.1l.1,-.2l.2,-.6l.1,-.3l-.3,-.9l-.1,-.2l-.3,-.1l-.2,-.2l-.4,-.1h-.5c-1.5,.4,-1.7,2.3,-.3,2.9l.3,.1h.3Z" class="g1_854"/>
<path d="M331.7,932.3h7.6l-.3,1.1l-6.6,22.9l-.7,2.5l-.8,-2.5l-6.6,-22.9l-.3,-1.1h1l.8,.6l6.6,22.9l-1.5,.5v-.5l6.6,-22.9l1.5,.5l-.7,.5h-6.6Z" class="g1_854"/>
<path d="M325,933.9h6.7v-1.6H325v1.6Z" class="g1_854"/>
<path fill-rule="evenodd" d="M331.7,933.1h6.6L331.7,956L325,933.1Z" class="g1_854"/>
<path d="M330.2,932.3h3V876.2h-3v56.1Z" class="g1_854"/>
<path fill-rule="evenodd" d="M280.1,933.8h.3l.3,-.1c1.4,-.8,1.2,-2.4,-.3,-2.9h-.6c-1.5,.5,-1.7,2.1,-.3,2.9l.3,.1h.3Z" class="g1_854"/>
<path d="M280.1,932.3h7.6l-.3,1.1l-6.5,22.9l-.8,2.5l-.7,-2.5l-6.6,-22.9l-.3,-1.1h1l.8,.6l6.6,22.9l-1.5,.5v-.5l6.5,-22.9l1.5,.5l-.8,.5h-6.5Z" class="g1_854"/>
<path d="M273.5,933.9h6.6v-1.6h-6.6v1.6Z" class="g1_854"/>
<path fill-rule="evenodd" d="M280.1,933.1h6.5L280.1,956l-6.6,-22.9Z" class="g1_854"/>
<path d="M278.7,932.3h3V917.5h-3v14.8Z" class="g1_854"/>
<path d="M280.1,919.1h51.6V916H280.1v3.1Z" class="g1_854"/>
</svg>