<?xml version="1.0" encoding="UTF-8" standalone="no"?>
<!DOCTYPE svg PUBLIC "-//W3C//DTD SVG 1.1//EN"
"http://www.w3.org/Graphics/SVG/1.1/DTD/svg11.dtd">
<svg viewBox="0 0 935 1210" version="1.1" xmlns="http://www.w3.org/2000/svg" xmlns:xlink="http://www.w3.org/1999/xlink">
<defs>
<style type="text/css"><![CDATA[
.g0_4645{
fill: #FFF;
}
.g1_4645{
fill: #000;
}
]]></style>
</defs>
<path d="M68.9,1149.3H852.7v-21.2H68.9v21.2Z" class="g0_4645"/>
<path d="M69.9,1081.3h.8V124.1h-.8v957.2Z" class="g1_4645"/>
<path d="M126.7,1082.1h.7V164.6h-.7v917.5Z" class="g1_4645"/>
<path d="M183.4,1082.1h.8V123.4h-.8v958.7Z" class="g1_4645"/>
<path d="M431.7,1082.1h.7V123.4h-.7v958.7Z" class="g1_4645"/>
<path d="M524.8,1082.1h.7V123.4h-.7v958.7Z" class="g1_4645"/>
<path d="M850.8,1081.3h.7V124.1h-.7v957.2Z" class="g1_4645"/>
<path d="M69.9,124.1H851.5v-.7H69.9v.7Z" class="g1_4645"/>
<path d="M69.9,165.4H184.2v-.8H69.9v.8Z" class="g1_4645"/>
<path d="M69.9,189.8H851.5v-.7H69.9v.7Z" class="g1_4645"/>
<path d="M183.4,214.2H851.5v-.7H183.4v.7Z" class="g1_4645"/>
<path d="M183.4,260.1H851.5v-.8H183.4v.8Z" class="g1_4645"/>
<path d="M183.4,284.5H851.5v-.7H183.4v.7Z" class="g1_4645"/>
<path d="M183.4,309H851.5v-.7H183.4v.7Z" class="g1_4645"/>
<path d="M183.4,333.4H851.5v-.7H183.4v.7Z" class="g1_4645"/>
<path d="M183.4,357.9H851.5v-.8H183.4v.8Z" class="g1_4645"/>
<path d="M183.4,382.3H851.5v-.7H183.4v.7Z" class="g1_4645"/>
<path d="M183.4,406.8H851.5v-.7H183.4v.7Z" class="g1_4645"/>
<path d="M183.4,431.2H851.5v-.7H183.4v.7Z" class="g1_4645"/>
<path d="M183.4,455.7H851.5v-.8H183.4v.8Z" class="g1_4645"/>
<path d="M183.4,480.2H851.5v-.8H183.4v.8Z" class="g1_4645"/>
<path d="M183.4,504.5H851.5v-.7H183.4v.7Z" class="g1_4645"/>
<path d="M183.4,529H851.5v-.7H183.4v.7Z" class="g1_4645"/>
<path d="M183.4,553.5H851.5v-.8H183.4v.8Z" class="g1_4645"/>
<path d="M183.4,577.9H851.5v-.8H183.4v.8Z" class="g1_4645"/>
<path d="M69.9,602.3H851.5v-.7H69.9v.7Z" class="g1_4645"/>
<path d="M183.4,626.8H851.5v-.7H183.4v.7Z" class="g1_4645"/>
<path d="M183.4,672.7H851.5v-.8H183.4v.8Z" class="g1_4645"/>
<path d="M183.4,718.5H851.5v-.8H183.4v.8Z" class="g1_4645"/>
<path d="M183.4,764.3H851.5v-.7H183.4v.7Z" class="g1_4645"/>
<path d="M183.4,788.7H851.5V788H183.4v.7Z" class="g1_4645"/>
<path d="M183.4,813.2H851.5v-.8H183.4v.8Z" class="g1_4645"/>
<path d="M183.4,837.7H851.5v-.8H183.4v.8Z" class="g1_4645"/>
<path d="M183.4,862H851.5v-.7H183.4v.7Z" class="g1_4645"/>
<path d="M183.4,886.5H851.5v-.7H183.4v.7Z" class="g1_4645"/>
<path d="M69.9,911H851.5v-.8H69.9v.8Z" class="g1_4645"/>
<path d="M183.4,935.4H851.5v-.8H183.4v.8Z" class="g1_4645"/>
<path d="M183.4,959.8H851.5v-.7H183.4v.7Z" class="g1_4645"/>
<path d="M69.9,984.3H851.5v-.7H69.9v.7Z" class="g1_4645"/>
<path d="M183.4,1008.7H851.5v-.7H183.4v.7Z" class="g1_4645"/>
<path d="M69.9,1033.2H851.5v-.8H69.9v.8Z" class="g1_4645"/>
<path d="M183.4,1057.7H851.5v-.8H183.4v.8Z" class="g1_4645"/>
<path d="M69.9,1082H851.5v-.7H69.9v.7Z" class="g1_4645"/>
</svg>