<?xml version="1.0" encoding="UTF-8" standalone="no"?>
<!DOCTYPE svg PUBLIC "-//W3C//DTD SVG 1.1//EN"
"http://www.w3.org/Graphics/SVG/1.1/DTD/svg11.dtd">
<svg viewBox="0 0 935 1210" version="1.1" xmlns="http://www.w3.org/2000/svg" xmlns:xlink="http://www.w3.org/1999/xlink">
<defs>
<clipPath id="c0_2932"><path d="M766.6,59.2V41.4h72.2V59.2Z"/></clipPath>
<style type="text/css"><![CDATA[
.g0_2932{
fill: #000;
}
]]></style>
</defs>
<path d="M97.4,63.3H839.9v-.4H97.4v.4Z" class="g0_2932"/>
<path d="M96.1,1114.5h.2v-.4h-.2v.4Z" class="g0_2932"/>
<path d="M96.3,1114.5H838.9v-.4H96.3v.4Z" class="g0_2932"/>
<image clip-path="url(#c0_2932)" preserveAspectRatio="none" x="767" y="41" width="72" height="18" xlink:href="img/1.jpg"/>
<path d="M95.9,486.9h.7V207.7h-.7V486.9Z" class="g0_2932"/>
<path d="M273.3,467.9h.8V204.7h-.8V467.9Z" class="g0_2932"/>
<path d="M310,467.9h.7V227.2H310V467.9Z" class="g0_2932"/>
<path d="M346.7,467.9h.7V227.2h-.7V467.9Z" class="g0_2932"/>
<path d="M383.4,467.9h.7V204.7h-.7V467.9Z" class="g0_2932"/>
<path d="M839.2,486.9h.7V207.7h-.7V486.9Z" class="g0_2932"/>
<path d="M95.9,207.8h744v-3H95.9v3Z" class="g0_2932"/>
<path d="M273.3,228H384.2v-.8H273.3v.8Z" class="g0_2932"/>
<path d="M95.9,250.6h744v-3H95.9v3Z" class="g0_2932"/>
<path d="M273.3,269.2H839.9v-.7H273.3v.7Z" class="g0_2932"/>
<path d="M273.3,289.1H839.9v-.7H273.3v.7Z" class="g0_2932"/>
<path d="M95.9,309h744v-.7H95.9v.7Z" class="g0_2932"/>
<path d="M95.9,328.8h744v-.7H95.9v.7Z" class="g0_2932"/>
<path d="M95.9,348.7h744V348H95.9v.7Z" class="g0_2932"/>
<path d="M273.3,368.6H839.9v-.7H273.3v.7Z" class="g0_2932"/>
<path d="M273.3,388.4H839.9v-.7H273.3v.7Z" class="g0_2932"/>
<path d="M273.3,408.3H839.9v-.7H273.3v.7Z" class="g0_2932"/>
<path d="M273.3,428.2H839.9v-.8H273.3v.8Z" class="g0_2932"/>
<path d="M95.9,448h744v-.8H95.9v.8Z" class="g0_2932"/>
<path d="M95.9,467.9h744v-.8H95.9v.8Z" class="g0_2932"/>
<path d="M95.9,487.8h744V487H95.9v.8Z" class="g0_2932"/>
</svg>