<?xml version="1.0" encoding="UTF-8" standalone="no"?>
<!DOCTYPE svg PUBLIC "-//W3C//DTD SVG 1.1//EN"
"http://www.w3.org/Graphics/SVG/1.1/DTD/svg11.dtd">
<svg viewBox="0 0 935 1210" version="1.1" xmlns="http://www.w3.org/2000/svg" xmlns:xlink="http://www.w3.org/1999/xlink">
<defs>
<style type="text/css"><![CDATA[
.g0_434{
fill: #B3B3B3;
}
.g1_434{
fill: #E6E6E6;
}
.g2_434{
fill: #000;
}
]]></style>
</defs>
<path d="M82.5,96.3h770V55H82.5V96.3Z" class="g0_434"/>
<path d="M190.9,227.4h25.9V207.6H190.9v19.8Z" class="g1_434"/>
<path d="M216.8,227.4h25.9V207.6H216.8v19.8Z" class="g1_434"/>
<path d="M242.7,227.4h28.7V207.6H242.7v19.8Z" class="g1_434"/>
<path d="M271.4,227.4h28.7V207.6H271.4v19.8Z" class="g1_434"/>
<path d="M300.1,227.4h28.8V207.6H300.1v19.8Z" class="g1_434"/>
<path d="M328.9,227.4h28.7V207.6H328.9v19.8Z" class="g1_434"/>
<path d="M357.6,227.4h25.8V207.6H357.6v19.8Z" class="g1_434"/>
<path d="M383.4,227.4h25.9V207.6H383.4v19.8Z" class="g1_434"/>
<path d="M498.5,308.8h32.6V289H498.5v19.8Z" class="g1_434"/>
<path d="M531.1,308.8h32.7V289H531.1v19.8Z" class="g1_434"/>
<path d="M563.8,308.8h32.1V289H563.8v19.8Z" class="g1_434"/>
<path d="M595.9,308.8h32.2V289H595.9v19.8Z" class="g1_434"/>
<path d="M628.1,308.8h32.1V289H628.1v19.8Z" class="g1_434"/>
<path d="M660.2,308.8h32.1V289H660.2v19.8Z" class="g1_434"/>
<path d="M692.3,308.8h25.9V289H692.3v19.8Z" class="g1_434"/>
<path d="M190.9,328.7h25.9V308.8H190.9v19.9Z" class="g1_434"/>
<path d="M498.5,328.7h32.6V308.8H498.5v19.9Z" class="g1_434"/>
<path d="M531.1,328.7h32.7V308.8H531.1v19.9Z" class="g1_434"/>
<path d="M563.8,328.7h32.1V308.8H563.8v19.9Z" class="g1_434"/>
<path d="M595.9,328.7h32.2V308.8H595.9v19.9Z" class="g1_434"/>
<path d="M628.1,328.7h32.1V308.8H628.1v19.9Z" class="g1_434"/>
<path d="M660.2,328.7h32.1V308.8H660.2v19.9Z" class="g1_434"/>
<path d="M190.9,348.6h25.9V328.7H190.9v19.9Z" class="g1_434"/>
<path d="M216.8,348.6h25.9V328.7H216.8v19.9Z" class="g1_434"/>
<path d="M498.5,348.6h32.6V328.7H498.5v19.9Z" class="g1_434"/>
<path d="M531.1,348.6h32.7V328.7H531.1v19.9Z" class="g1_434"/>
<path d="M563.8,348.6h32.1V328.7H563.8v19.9Z" class="g1_434"/>
<path d="M595.9,348.6h32.2V328.7H595.9v19.9Z" class="g1_434"/>
<path d="M628.1,348.6h32.1V328.7H628.1v19.9Z" class="g1_434"/>
<path d="M190.9,368.4h25.9V348.6H190.9v19.8Z" class="g1_434"/>
<path d="M216.8,368.4h25.9V348.6H216.8v19.8Z" class="g1_434"/>
<path d="M242.7,368.4h28.7V348.6H242.7v19.8Z" class="g1_434"/>
<path d="M498.5,368.4h32.6V348.6H498.5v19.8Z" class="g1_434"/>
<path d="M531.1,368.4h32.7V348.6H531.1v19.8Z" class="g1_434"/>
<path d="M563.8,368.4h32.1V348.6H563.8v19.8Z" class="g1_434"/>
<path d="M595.9,368.4h32.2V348.6H595.9v19.8Z" class="g1_434"/>
<path d="M190.9,388.3h25.9V368.4H190.9v19.9Z" class="g1_434"/>
<path d="M216.8,388.3h25.9V368.4H216.8v19.9Z" class="g1_434"/>
<path d="M242.7,388.3h28.7V368.4H242.7v19.9Z" class="g1_434"/>
<path d="M271.4,388.3h28.7V368.4H271.4v19.9Z" class="g1_434"/>
<path d="M498.5,388.3h32.6V368.4H498.5v19.9Z" class="g1_434"/>
<path d="M531.1,388.3h32.7V368.4H531.1v19.9Z" class="g1_434"/>
<path d="M563.8,388.3h32.1V368.4H563.8v19.9Z" class="g1_434"/>
<path d="M190.9,408.2h25.9V388.3H190.9v19.9Z" class="g1_434"/>
<path d="M216.8,408.2h25.9V388.3H216.8v19.9Z" class="g1_434"/>
<path d="M242.7,408.2h28.7V388.3H242.7v19.9Z" class="g1_434"/>
<path d="M271.4,408.2h28.7V388.3H271.4v19.9Z" class="g1_434"/>
<path d="M300.1,408.2h28.8V388.3H300.1v19.9Z" class="g1_434"/>
<path d="M498.5,408.2h32.6V388.3H498.5v19.9Z" class="g1_434"/>
<path d="M531.1,408.2h32.7V388.3H531.1v19.9Z" class="g1_434"/>
<path d="M190.9,428h25.9V408.2H190.9V428Z" class="g1_434"/>
<path d="M216.8,428h25.9V408.2H216.8V428Z" class="g1_434"/>
<path d="M242.7,428h28.7V408.2H242.7V428Z" class="g1_434"/>
<path d="M271.4,428h28.7V408.2H271.4V428Z" class="g1_434"/>
<path d="M300.1,428h28.8V408.2H300.1V428Z" class="g1_434"/>
<path d="M328.9,428h28.7V408.2H328.9V428Z" class="g1_434"/>
<path d="M498.5,428h32.6V408.2H498.5V428Z" class="g1_434"/>
<path d="M190.9,447.9h25.9V428H190.9v19.9Z" class="g1_434"/>
<path d="M216.8,447.9h25.9V428H216.8v19.9Z" class="g1_434"/>
<path d="M242.7,447.9h28.7V428H242.7v19.9Z" class="g1_434"/>
<path d="M271.4,447.9h28.7V428H271.4v19.9Z" class="g1_434"/>
<path d="M300.1,447.9h28.8V428H300.1v19.9Z" class="g1_434"/>
<path d="M328.9,447.9h28.7V428H328.9v19.9Z" class="g1_434"/>
<path d="M357.6,447.9h25.8V428H357.6v19.9Z" class="g1_434"/>
<path d="M164.7,467.4h.8v-319h-.8v319Z" class="g2_434"/>
<path d="M190.6,227.2h.7V207.8h-.7v19.4Z" class="g2_434"/>
<path d="M190.6,447.5h.7V289.4h-.7V447.5Z" class="g2_434"/>
<path d="M216.4,227.6h.8V207.3h-.8v20.3Z" class="g2_434"/>
<path d="M216.4,328.9h.8V308.6h-.8v20.3Z" class="g2_434"/>
<path d="M242.4,227.6h.7V207.3h-.7v20.3Z" class="g2_434"/>
<path d="M242.4,348.8h.7V328.5h-.7v20.3Z" class="g2_434"/>
<path d="M271.1,227.6h.7V207.3h-.7v20.3Z" class="g2_434"/>
<path d="M271.1,368.6h.7V348.4h-.7v20.2Z" class="g2_434"/>
<path d="M299.7,227.6h.8V207.3h-.8v20.3Z" class="g2_434"/>
<path d="M299.7,388.5h.8V368.2h-.8v20.3Z" class="g2_434"/>
<path d="M328.5,227.6h.8V207.3h-.8v20.3Z" class="g2_434"/>
<path d="M328.5,408.4h.8V388.1h-.8v20.3Z" class="g2_434"/>
<path d="M357.2,227.6h.8V207.3h-.8v20.3Z" class="g2_434"/>
<path d="M357.2,428.2h.8V408h-.8v20.2Z" class="g2_434"/>
<path d="M383.1,227.6h.7V207.3h-.7v20.3Z" class="g2_434"/>
<path d="M383.1,448.2h.7V427.8h-.7v20.4Z" class="g2_434"/>
<path d="M408.9,227.2h.8V207.8h-.8v19.4Z" class="g2_434"/>
<path d="M408.9,447.5h.8V289.4h-.8V447.5Z" class="g2_434"/>
<path d="M498.1,227.2h.8V207.8h-.8v19.4Z" class="g2_434"/>
<path d="M498.1,447.5h.8V289.4h-.8V447.5Z" class="g2_434"/>
<path d="M530.7,227.6h.8V207.3h-.8v20.3Z" class="g2_434"/>
<path d="M530.7,428.2h.8V408h-.8v20.2Z" class="g2_434"/>
<path d="M563.5,227.6h.7V207.3h-.7v20.3Z" class="g2_434"/>
<path d="M563.5,408.4h.7V388.1h-.7v20.3Z" class="g2_434"/>
<path d="M595.6,227.6h.7V207.3h-.7v20.3Z" class="g2_434"/>
<path d="M595.6,388.5h.7V368.2h-.7v20.3Z" class="g2_434"/>
<path d="M627.7,227.6h.8V207.3h-.8v20.3Z" class="g2_434"/>
<path d="M627.7,368.6h.8V348.4h-.8v20.2Z" class="g2_434"/>
<path d="M659.8,227.6h.8V207.3h-.8v20.3Z" class="g2_434"/>
<path d="M659.8,348.8h.8V328.5h-.8v20.3Z" class="g2_434"/>
<path d="M691.9,227.6h.7V207.3h-.7v20.3Z" class="g2_434"/>
<path d="M691.9,328.9h.7V308.6h-.7v20.3Z" class="g2_434"/>
<path d="M717.8,227.6h.8V207.3h-.8v20.3Z" class="g2_434"/>
<path d="M717.8,309h.8V288.6h-.8V309Z" class="g2_434"/>
<path d="M743.7,227.2h.7V207.8h-.7v19.4Z" class="g2_434"/>
<path d="M743.7,447.5h.7V289.4h-.7V447.5Z" class="g2_434"/>
<path d="M769.5,467.4h.8v-319h-.8v319Z" class="g2_434"/>
<path d="M164.7,148.3H770.3v-.7H164.7v.7Z" class="g2_434"/>
<path d="M190.6,207.8H409.8v-.4H190.6v.4Z" class="g2_434"/>
<path d="M498.1,207.8H744.4v-.4H498.1v.4Z" class="g2_434"/>
<path d="M190.6,227.6H409.8v-.4H190.6v.4Z" class="g2_434"/>
<path d="M498.1,227.6H744.4v-.4H498.1v.4Z" class="g2_434"/>
<path d="M164.7,247.5H770.3v-.4H164.7v.4Z" class="g2_434"/>
<path d="M190.6,289.4H409.8v-.7H190.6v.7Z" class="g2_434"/>
<path d="M498.1,289.4H744.4v-.7H498.1v.7Z" class="g2_434"/>
<path d="M190.6,309H409.8v-.4H190.6v.4Z" class="g2_434"/>
<path d="M498.1,309H744.4v-.4H498.1v.4Z" class="g2_434"/>
<path d="M190.6,328.9H409.8v-.4H190.6v.4Z" class="g2_434"/>
<path d="M498.1,328.9H744.4v-.4H498.1v.4Z" class="g2_434"/>
<path d="M190.6,348.8H409.8v-.4H190.6v.4Z" class="g2_434"/>
<path d="M498.1,348.8H744.4v-.4H498.1v.4Z" class="g2_434"/>
<path d="M190.6,368.6H409.8v-.4H190.6v.4Z" class="g2_434"/>
<path d="M498.1,368.6H744.4v-.4H498.1v.4Z" class="g2_434"/>
<path d="M190.6,388.5H409.8v-.4H190.6v.4Z" class="g2_434"/>
<path d="M498.1,388.5H744.4v-.4H498.1v.4Z" class="g2_434"/>
<path d="M190.6,408.4H409.8V408H190.6v.4Z" class="g2_434"/>
<path d="M498.1,408.4H744.4V408H498.1v.4Z" class="g2_434"/>
<path d="M190.6,428.2H409.8v-.4H190.6v.4Z" class="g2_434"/>
<path d="M498.1,428.2H744.4v-.4H498.1v.4Z" class="g2_434"/>
<path d="M190.6,448.2H409.8v-.7H190.6v.7Z" class="g2_434"/>
<path d="M498.1,448.2H744.4v-.7H498.1v.7Z" class="g2_434"/>
<path d="M164.7,468.1H770.3v-.7H164.7v.7Z" class="g2_434"/>
</svg>