<?xml version="1.0" encoding="UTF-8" standalone="no"?>
<!DOCTYPE svg PUBLIC "-//W3C//DTD SVG 1.1//EN"
"http://www.w3.org/Graphics/SVG/1.1/DTD/svg11.dtd">
<svg viewBox="0 0 935 1210" version="1.1" xmlns="http://www.w3.org/2000/svg" xmlns:xlink="http://www.w3.org/1999/xlink">
<defs>
<style type="text/css"><![CDATA[
.g0_610{
fill: #FFF;
}
.g1_610{
fill: #0860A8;
}
.g2_610{
fill: #000;
}
]]></style>
</defs>
<path d="M165,1149.3H852.5v-21.2H165v21.2Z" class="g0_610"/>
<path d="M68.8,1149.3h82.5v-21.2H68.8v21.2Z" class="g0_610"/>
<path d="M267.7,742.7H686.6v-.8H267.7v.8Z" class="g1_610"/>
<path d="M68.6,693.3h.7V522.9h-.7V693.3Z" class="g2_610"/>
<path d="M449.3,694h.7V522.1h-.7V694Z" class="g2_610"/>
<path d="M850.2,693.3h.7V522.9h-.7V693.3Z" class="g2_610"/>
<path d="M68.6,522.9H850.9v-.8H68.6v.8Z" class="g2_610"/>
<path d="M68.6,547.3H850.9v-.7H68.6v.7Z" class="g2_610"/>
<path d="M68.6,571.8H850.9v-.7H68.6v.7Z" class="g2_610"/>
<path d="M68.6,596.2H850.9v-.7H68.6v.7Z" class="g2_610"/>
<path d="M68.6,620.7H850.9v-.8H68.6v.8Z" class="g2_610"/>
<path d="M68.6,645.2H850.9v-.8H68.6v.8Z" class="g2_610"/>
<path d="M68.6,669.5H850.9v-.7H68.6v.7Z" class="g2_610"/>
<path d="M68.6,694H850.9v-.7H68.6v.7Z" class="g2_610"/>
</svg>