<?xml version="1.0" encoding="UTF-8" standalone="no"?>
<!DOCTYPE svg PUBLIC "-//W3C//DTD SVG 1.1//EN"
"http://www.w3.org/Graphics/SVG/1.1/DTD/svg11.dtd">
<svg viewBox="0 0 935 1210" version="1.1" xmlns="http://www.w3.org/2000/svg" xmlns:xlink="http://www.w3.org/1999/xlink">
<defs>
<style type="text/css"><![CDATA[
.g0_572{
fill: #FFF;
}
.g1_572{
fill: #E6E6E6;
}
.g2_572{
fill: #000;
}
]]></style>
</defs>
<path d="M165,1149.3H852.5v-21.2H165v21.2Z" class="g0_572"/>
<path d="M68.8,1149.3h82.5v-21.2H68.8v21.2Z" class="g0_572"/>
<path d="M70.1,172.6H791.8V148.2H70.1v24.4Z" class="g1_572"/>
<path d="M70.1,197.1H791.8V172.6H70.1v24.5Z" class="g1_572"/>
<path d="M70.1,221.6H791.8V197.1H70.1v24.5Z" class="g1_572"/>
<path d="M70.1,245.9H791.8V221.6H70.1v24.3Z" class="g1_572"/>
<path d="M70.1,270.4H791.8V245.9H70.1v24.5Z" class="g1_572"/>
<path d="M70.1,294.9H791.8V270.4H70.1v24.5Z" class="g1_572"/>
<path d="M70.1,319.3H791.8V294.9H70.1v24.4Z" class="g1_572"/>
<path d="M70.1,343.8H791.8V319.3H70.1v24.5Z" class="g1_572"/>
<path d="M70.1,368.2H791.8V343.8H70.1v24.4Z" class="g1_572"/>
<path d="M70.1,392.6H791.8V368.2H70.1v24.4Z" class="g1_572"/>
<path d="M69,147.9h2.3v-23H69v23Z" class="g2_572"/>
<path d="M69.8,465.6h.7v-317h-.7v317Z" class="g2_572"/>
<path d="M158.5,148.6h.7V122.7h-.7v25.9Z" class="g2_572"/>
<path d="M247.3,148.6h.8V122.7h-.8v25.9Z" class="g2_572"/>
<path d="M336.1,148.6h.8V122.7h-.8v25.9Z" class="g2_572"/>
<path d="M424.9,148.6h.7V122.7h-.7v25.9Z" class="g2_572"/>
<path d="M513.7,148.6h.7V122.7h-.7v25.9Z" class="g2_572"/>
<path d="M558.1,148.6h.7V122.7h-.7v25.9Z" class="g2_572"/>
<path d="M613.9,148.6h.7V122.7h-.7v25.9Z" class="g2_572"/>
<path d="M702.7,148.6h.8V122.7h-.8v25.9Z" class="g2_572"/>
<path d="M791.4,148.6h.8V122.7h-.8v25.9Z" class="g2_572"/>
<path d="M790.7,466.4H793V147.9h-2.3V466.4Z" class="g2_572"/>
<path d="M849.9,465.6h2.3V124.9h-2.3V465.6Z" class="g2_572"/>
<path d="M68.9,124.9H852.2v-2.2H68.9v2.2Z" class="g2_572"/>
<path d="M68.9,148.6H852.2v-.7H68.9v.7Z" class="g2_572"/>
<path d="M69.7,173H852.2v-.8H69.7v.8Z" class="g2_572"/>
<path d="M69.7,197.4H852.2v-.7H69.7v.7Z" class="g2_572"/>
<path d="M69.7,221.9H852.2v-.7H69.7v.7Z" class="g2_572"/>
<path d="M69.7,246.3H852.2v-.7H69.7v.7Z" class="g2_572"/>
<path d="M69.7,270.8H852.2v-.7H69.7v.7Z" class="g2_572"/>
<path d="M69.7,295.3H852.2v-.8H69.7v.8Z" class="g2_572"/>
<path d="M69.7,319.6H852.2v-.7H69.7v.7Z" class="g2_572"/>
<path d="M69.7,344.1H852.2v-.7H69.7v.7Z" class="g2_572"/>
<path d="M69.7,368.6H852.2v-.7H69.7v.7Z" class="g2_572"/>
<path d="M69.7,393H852.2v-.8H69.7v.8Z" class="g2_572"/>
<path d="M69.7,417.4H852.2v-.7H69.7v.7Z" class="g2_572"/>
<path d="M69.7,441.9H852.2v-.7H69.7v.7Z" class="g2_572"/>
<path d="M69.7,466.4h721v-.7H69.7v.7Z" class="g2_572"/>
<path d="M793,466.4h59.2v-.7H793v.7Z" class="g2_572"/>
<path d="M69.3,688.7h.4V667.9h-.4v20.8Z" class="g2_572"/>
<path d="M69.1,1092h.8V689.4h-.8V1092Z" class="g2_572"/>
<path d="M239.7,689.4h.4V667.5h-.4v21.9Z" class="g2_572"/>
<path d="M239.5,1092.8h.8V688.7h-.8v404.1Z" class="g2_572"/>
<path d="M851.5,688.7h.4V667.9h-.4v20.8Z" class="g2_572"/>
<path d="M851.3,1092h.7V689.4h-.7V1092Z" class="g2_572"/>
<path d="M69.3,667.9H851.9v-.4H69.3v.4Z" class="g2_572"/>
<path d="M69.1,689.4H852v-.7H69.1v.7Z" class="g2_572"/>
<path d="M69.1,727.7H852v-.8H69.1v.8Z" class="g2_572"/>
<path d="M69.1,765.8H852V765H69.1v.8Z" class="g2_572"/>
<path d="M69.1,804H852v-.7H69.1v.7Z" class="g2_572"/>
<path d="M69.1,859H852v-.7H69.1v.7Z" class="g2_572"/>
<path d="M69.1,1054.5H852v-.7H69.1v.7Z" class="g2_572"/>
<path d="M69.1,1092.8H852v-.8H69.1v.8Z" class="g2_572"/>
</svg>