<?xml version="1.0" encoding="UTF-8" standalone="no"?>
<!DOCTYPE svg PUBLIC "-//W3C//DTD SVG 1.1//EN"
"http://www.w3.org/Graphics/SVG/1.1/DTD/svg11.dtd">
<svg viewBox="0 0 935 1210" version="1.1" xmlns="http://www.w3.org/2000/svg" xmlns:xlink="http://www.w3.org/1999/xlink">
<defs>
<clipPath id="c0_1418"><path d="M766.6,59.2V41.4h72.1V59.2Z"/></clipPath>
<style type="text/css"><![CDATA[
.g0_1418{
fill: #000;
}
]]></style>
</defs>
<path d="M97.3,62.9v.3H839.9v-.3H97.3Z" class="g0_1418"/>
<path d="M96.2,1114.1h-.1v.4h.1v-.4Z" class="g0_1418"/>
<path d="M838.7,1114.1h.2v.4h-.2v-.4Z" class="g0_1418"/>
<path d="M96.2,1114.1v.4H838.7v-.4H96.2Z" class="g0_1418"/>
<image clip-path="url(#c0_1418)" preserveAspectRatio="none" x="767" y="41" width="72" height="18" xlink:href="img/1.jpg"/>
<path d="M96.6,424.7h-.7V557.2h.7V424.7Z" class="g0_1418"/>
<path d="M137.9,421.7h-.8v93.5h.8V421.7Z" class="g0_1418"/>
<path d="M179.1,421.7h-.7v93.5h.7V421.7Z" class="g0_1418"/>
<path d="M220.4,421.7h-.8v93.5h.8V421.7Z" class="g0_1418"/>
<path d="M261.6,421.7h-.7v93.5h.7V421.7Z" class="g0_1418"/>
<path d="M302.9,421.7h-.8v93.5h.8V421.7Z" class="g0_1418"/>
<path d="M344.1,421.7h-.7v93.5h.7V421.7Z" class="g0_1418"/>
<path d="M385.4,421.7h-.8v93.5h.8V421.7Z" class="g0_1418"/>
<path d="M467.9,421.7h-.8v93.5h.8V421.7Z" class="g0_1418"/>
<path d="M509.1,421.7h-.7v93.5h.7V421.7Z" class="g0_1418"/>
<path d="M550.4,421.7h-.8v93.5h.8V421.7Z" class="g0_1418"/>
<path d="M591.6,421.7h-.7v93.5h.7V421.7Z" class="g0_1418"/>
<path d="M632.9,421.7h-.8v93.5h.8V421.7Z" class="g0_1418"/>
<path d="M674.1,421.7h-.7v93.5h.7V421.7Z" class="g0_1418"/>
<path d="M715.3,421.7h-.7v93.5h.7V421.7Z" class="g0_1418"/>
<path d="M756.6,421.7h-.7v93.5h.7V421.7Z" class="g0_1418"/>
<path d="M797.8,421.7h-.7v93.5h.7V421.7Z" class="g0_1418"/>
<path d="M839.1,424.7h-.7V557.2h.7V424.7Z" class="g0_1418"/>
<path d="M95.9,421.7v3.1H839.1v-3.1H95.9Z" class="g0_1418"/>
<path d="M95.9,452.3v3H839.1v-3H95.9Z" class="g0_1418"/>
<path d="M95.9,483.9v.7H839.1v-.7H95.9Z" class="g0_1418"/>
<path d="M95.9,514.5v.7H839.1v-.7H95.9Z" class="g0_1418"/>
<path d="M95.9,557.2v.8H839.1v-.8H95.9Z" class="g0_1418"/>
</svg>