<?xml version="1.0" encoding="UTF-8" standalone="no"?>
<!DOCTYPE svg PUBLIC "-//W3C//DTD SVG 1.1//EN"
"http://www.w3.org/Graphics/SVG/1.1/DTD/svg11.dtd">
<svg viewBox="0 0 935 1210" version="1.1" xmlns="http://www.w3.org/2000/svg" xmlns:xlink="http://www.w3.org/1999/xlink">
<defs>
<clipPath id="c0_3239"><path d="M766.6,59.2V41.4h72.2V59.2Z"/></clipPath>
<style type="text/css"><![CDATA[
.g0_3239{
fill: #000;
}
]]></style>
</defs>
<path d="M97.4,63.3H839.9v-.4H97.4v.4Z" class="g0_3239"/>
<path d="M96.1,1114.5h.2v-.4h-.2v.4Z" class="g0_3239"/>
<path d="M96.3,1114.5H838.9v-.4H96.3v.4Z" class="g0_3239"/>
<image clip-path="url(#c0_3239)" preserveAspectRatio="none" x="767" y="41" width="72" height="18" xlink:href="img/1.jpg"/>
<path d="M95.9,662.7h.7V359.1h-.7V662.7Z" class="g0_3239"/>
<path d="M220.6,663.5h.8V355.9h-.8V663.5Z" class="g0_3239"/>
<path d="M337.3,663.5h.8V387.7h-.8V663.5Z" class="g0_3239"/>
<path d="M453.9,663.5h.8V355.9h-.8V663.5Z" class="g0_3239"/>
<path d="M614.9,663.5h.7V355.9h-.7V663.5Z" class="g0_3239"/>
<path d="M726.6,663.5h.8V387.7h-.8V663.5Z" class="g0_3239"/>
<path d="M838.4,662.7h.7V359.1h-.7V662.7Z" class="g0_3239"/>
<path d="M95.9,359.1H839.1V356H95.9v3.1Z" class="g0_3239"/>
<path d="M220.6,388.4H454.8v-.7H220.6v.7Z" class="g0_3239"/>
<path d="M614.8,388.4H839.1v-.7H614.8v.7Z" class="g0_3239"/>
<path d="M95.9,420.2H839.1v-3H95.9v3Z" class="g0_3239"/>
<path d="M95.9,449.5H454.8v-.7H95.9v.7Z" class="g0_3239"/>
<path d="M614.8,449.5H839.1v-.7H614.8v.7Z" class="g0_3239"/>
<path d="M95.9,480.1H454.8v-.8H95.9v.8Z" class="g0_3239"/>
<path d="M614.8,480.1H839.1v-.8H614.8v.8Z" class="g0_3239"/>
<path d="M95.9,510.7H454.8v-.8H95.9v.8Z" class="g0_3239"/>
<path d="M614.8,510.7H839.1v-.8H614.8v.8Z" class="g0_3239"/>
<path d="M95.9,541.2H454.8v-.7H95.9v.7Z" class="g0_3239"/>
<path d="M614.8,541.2H839.1v-.7H614.8v.7Z" class="g0_3239"/>
<path d="M95.9,571.7H454.8V571H95.9v.7Z" class="g0_3239"/>
<path d="M614.8,571.7H839.1V571H614.8v.7Z" class="g0_3239"/>
<path d="M95.9,602.3H454.8v-.7H95.9v.7Z" class="g0_3239"/>
<path d="M614.8,602.3H839.1v-.7H614.8v.7Z" class="g0_3239"/>
<path d="M95.9,632.9H454.8v-.8H95.9v.8Z" class="g0_3239"/>
<path d="M614.8,632.9H839.1v-.8H614.8v.8Z" class="g0_3239"/>
<path d="M95.9,663.4H839.1v-.7H95.9v.7Z" class="g0_3239"/>
<path d="M95.9,1040.1h.7v-180h-.7v180Z" class="g0_3239"/>
<path d="M257.9,1011.8h.7V857.1h-.7v154.7Z" class="g0_3239"/>
<path d="M314.2,1011.8h.8V857.1h-.8v154.7Z" class="g0_3239"/>
<path d="M838.4,1040.1h.7v-180h-.7v180Z" class="g0_3239"/>
<path d="M95.9,860.2H839.1v-3H95.9v3Z" class="g0_3239"/>
<path d="M95.9,890.7H839.1v-3H95.9v3Z" class="g0_3239"/>
<path d="M95.9,920.1H839.1v-.8H95.9v.8Z" class="g0_3239"/>
<path d="M95.9,950.7H839.1v-.8H95.9v.8Z" class="g0_3239"/>
<path d="M95.9,981.2H839.1v-.7H95.9v.7Z" class="g0_3239"/>
<path d="M95.9,1011.8H839.1v-.7H95.9v.7Z" class="g0_3239"/>
<path d="M95.9,1040.8H839.1v-.7H95.9v.7Z" class="g0_3239"/>
<path d="M579,435.1v-5.8l1.2,.7l7.6,4.5l1.1,.7l-1.1,.7l-7.6,4.4L579,441v-1.5l.3,-.6l7.6,-4.4l.9,1.4h-.9l-7.6,-4.5l.9,-1.4l.3,.7v4.4Z" class="g0_3239"/>
<path d="M579,439.5h1.5v-4.4H579v4.4Z" class="g0_3239"/>
<path fill-rule="evenodd" d="M579.7,435.1v-4.4l7.6,4.4l-7.6,4.4Z" class="g0_3239"/>
<path d="M475.9,647.4l-.2,.7l1.4,.5l.3,-.7Z" class="g0_3239"/>
<path d="M475.9,647.4l1.5,.5L552.2,435.4l-.7,-1h-.6l-.2,.5Z" class="g0_3239"/>
<path d="M551.5,436h28.2v-1.6H551.5V436Z" class="g0_3239"/>
<path d="M580.3,463.5l1.1,-4.3l.4,-1.3l.9,.9l6.4,6.1l.8,1l-1.2,.4l-8.5,2.4l-1.2,.4l.2,-1.4l.6,-.6l8.5,-2.4l.4,1.6l-.8,-.2L581.6,460l1.1,-1.2l.3,.7l-1.1,4.3Z" class="g0_3239"/>
<path d="M579.2,467.7l1.1,-4.2l1.6,.3l-1.1,4.2Z" class="g0_3239"/>
<path fill-rule="evenodd" d="M581.1,463.7l1.1,-4.4l6.3,6.2l-8.5,2.4Z" class="g0_3239"/>
<path d="M476.8,436.3l-.7,-.1l-.4,1.4l.8,.2Z" class="g0_3239"/>
<path d="M580.5,462.7l.8,.2l-.4,1.5l-.7,-.2Z" class="g0_3239"/>
<path d="M476.8,436.3l-.3,1.5l103.7,26.4l.3,-1.5Z" class="g0_3239"/>
<path d="M580.3,524.1l1.1,-4.4l.4,-1.2l.9,.9l6.4,6.1l.8,1l-1.2,.4l-8.5,2.4l-1.2,.3l.2,-1.3l.6,-.6l8.5,-2.4l.4,1.6l-.8,-.2l-6.3,-6.1l1.1,-1.2l.3,.7l-1.1,4.3Z" class="g0_3239"/>
<path d="M579.2,528.3l1.1,-4.2l1.6,.3l-1.1,4.2Z" class="g0_3239"/>
<path fill-rule="evenodd" d="M581.1,524.2l1.1,-4.3l6.3,6.2l-8.5,2.4Z" class="g0_3239"/>
<path d="M476.8,496.9l-.7,-.2l-.4,1.5l.8,.2Z" class="g0_3239"/>
<path d="M580.5,523.3l.8,.2l-.4,1.5l-.7,-.2Z" class="g0_3239"/>
<path d="M476.8,496.9l-.3,1.5l103.7,26.4l.3,-1.5Z" class="g0_3239"/>
<path d="M580.3,551.8l1.1,-4.2l.4,-1.3l.9,1l6.4,6.1l.8,1l-1.2,.4l-8.5,2.4l-1.2,.3l.2,-1.4l.6,-.5l8.5,-2.4l.4,1.6l-.8,-.2l-6.3,-6.2l1.1,-1.1l.3,.7l-1.1,4.2Z" class="g0_3239"/>
<path d="M579.2,556.1l1.1,-4.3l1.6,.4l-1.1,4.3Z" class="g0_3239"/>
<path fill-rule="evenodd" d="M581.1,552l1.1,-4.2l6.3,6.1l-8.5,2.4Z" class="g0_3239"/>
<path d="M476.8,524.8l-.7,-.2l-.4,1.5l.8,.2Z" class="g0_3239"/>
<path d="M580.5,551.1l.8,.2l-.4,1.4l-.7,-.1Z" class="g0_3239"/>
<path d="M476.8,524.8l-.3,1.5l103.7,26.3l.3,-1.5Z" class="g0_3239"/>
<path d="M580.3,582.6l1.1,-4.3l.4,-1.3l1,1l6.3,6.2l1,.9l-1.4,.5l-8.5,2.3l-1.2,.4l.2,-1.4l.6,-.5l8.5,-2.4l.4,1.6l-.8,-.2l-6.3,-6.3l1.2,-1.1l.2,.7l-1.1,4.3Z" class="g0_3239"/>
<path d="M579.2,586.9l1.1,-4.3l1.6,.4l-1.1,4.3Z" class="g0_3239"/>
<path fill-rule="evenodd" d="M581.1,582.8l1.1,-4.3l6.3,6.2l-8.5,2.4Z" class="g0_3239"/>
<path d="M476.8,555.5l-.7,-.2l-.4,1.5l.8,.2Z" class="g0_3239"/>
<path d="M580.5,581.9l.8,.2l-.4,1.4l-.7,-.1Z" class="g0_3239"/>
<path d="M476.8,555.5l-.3,1.5l103.7,26.4l.3,-1.5Z" class="g0_3239"/>
<path d="M580.3,612.4l1.1,-4.2l.4,-1.3l.9,.9l6.4,6.2l.8,1l-1.2,.4l-8.5,2.3l-1.2,.4l.2,-1.4l.6,-.5l8.5,-2.4l.4,1.6l-.8,-.2L581.6,609l1.1,-1.2l.3,.8l-1.1,4.2Z" class="g0_3239"/>
<path d="M579.2,616.7l1.1,-4.3l1.6,.4l-1.1,4.3Z" class="g0_3239"/>
<path fill-rule="evenodd" d="M581.1,612.6l1.1,-4.2l6.3,6.1l-8.5,2.4Z" class="g0_3239"/>
<path d="M476.8,585.4l-.7,-.2l-.4,1.5l.8,.1Z" class="g0_3239"/>
<path d="M580.5,611.7l.8,.2l-.4,1.4l-.7,-.1Z" class="g0_3239"/>
<path d="M476.8,585.4l-.3,1.4l103.7,26.4l.3,-1.5Z" class="g0_3239"/>
<path d="M580.3,643.2l1.1,-4.3l.4,-1.3l1,.9l6.3,6.3l1,.9l-1.4,.5l-8.5,2.3l-1.2,.4l.2,-1.4l.6,-.5l8.5,-2.4l.4,1.6l-.8,-.2l-6.3,-6.3l1.2,-1.2l.2,.8l-1.1,4.3Z" class="g0_3239"/>
<path d="M579.2,647.5l1.1,-4.3l1.6,.4l-1.1,4.3Z" class="g0_3239"/>
<path fill-rule="evenodd" d="M581.1,643.4l1.1,-4.3l6.3,6.2l-8.5,2.4Z" class="g0_3239"/>
<path d="M476.8,616.1l-.7,-.2l-.4,1.5l.8,.2Z" class="g0_3239"/>
<path d="M580.5,642.5l.8,.2l-.4,1.4l-.7,-.1Z" class="g0_3239"/>
<path d="M476.8,616.1l-.3,1.5L580.2,644l.3,-1.5Z" class="g0_3239"/>
<path d="M580.3,492.3l1.1,-4.4l.4,-1.2l1,.9l6.3,6.2l1,.9l-1.4,.5l-8.5,2.4l-1.2,.3l.2,-1.3l.6,-.6l8.5,-2.4l.4,1.6l-.8,-.2l-6.3,-6.2l1.2,-1.2l.2,.7l-1.1,4.3Z" class="g0_3239"/>
<path d="M579.2,496.6l1.1,-4.4l1.6,.4l-1.1,4.3Z" class="g0_3239"/>
<path fill-rule="evenodd" d="M581.1,492.4l1.1,-4.3l6.3,6.3l-8.5,2.3Z" class="g0_3239"/>
<path d="M476.8,465.1l-.7,-.2l-.4,1.5l.8,.2Z" class="g0_3239"/>
<path d="M580.5,491.5l.8,.2l-.4,1.5l-.7,-.2Z" class="g0_3239"/>
<path d="M476.8,465.1l-.3,1.5L580.2,493l.3,-1.5Z" class="g0_3239"/>
</svg>