<?xml version="1.0" encoding="UTF-8" standalone="no"?>
<!DOCTYPE svg PUBLIC "-//W3C//DTD SVG 1.1//EN"
"http://www.w3.org/Graphics/SVG/1.1/DTD/svg11.dtd">
<svg viewBox="0 0 935 1210" version="1.1" xmlns="http://www.w3.org/2000/svg" xmlns:xlink="http://www.w3.org/1999/xlink">
<defs>
<clipPath id="c0_1354"><path d="M766.6,59.2V41.4h72.1V59.2Z"/></clipPath>
<style type="text/css"><![CDATA[
.g0_1354{
fill: #000;
}
]]></style>
</defs>
<path d="M97.3,62.9v.3H839.9v-.3H97.3Z" class="g0_1354"/>
<path d="M96.2,1114.1h-.1v.4h.1v-.4Z" class="g0_1354"/>
<path d="M838.7,1114.1h.2v.4h-.2v-.4Z" class="g0_1354"/>
<path d="M96.2,1114.1v.4H838.7v-.4H96.2Z" class="g0_1354"/>
<image clip-path="url(#c0_1354)" preserveAspectRatio="none" x="767" y="41" width="72" height="18" xlink:href="img/1.jpg"/>
<path d="M96.6,410.9h-.7V564.8h.7V410.9Z" class="g0_1354"/>
<path d="M344.1,407.9h-.7V565.7h.7V407.9Z" class="g0_1354"/>
<path d="M591.6,407.9h-.7V565.7h.7V407.9Z" class="g0_1354"/>
<path d="M839.1,410.9h-.7V564.8h.7V410.9Z" class="g0_1354"/>
<path d="M95.9,408v3H839.1v-3H95.9Z" class="g0_1354"/>
<path d="M95.9,441.5v3.1H839.1v-3.1H95.9Z" class="g0_1354"/>
<path d="M95.9,473.3v.7H839.1v-.7H95.9Z" class="g0_1354"/>
<path d="M95.9,503.8v.7H839.1v-.7H95.9Z" class="g0_1354"/>
<path d="M95.9,534.3v.7H839.1v-.7H95.9Z" class="g0_1354"/>
<path d="M95.9,564.9v.8H839.1v-.8H95.9Z" class="g0_1354"/>
</svg>