<?xml version="1.0" encoding="UTF-8" standalone="no"?>
<!DOCTYPE svg PUBLIC "-//W3C//DTD SVG 1.1//EN"
"http://www.w3.org/Graphics/SVG/1.1/DTD/svg11.dtd">
<svg viewBox="0 0 935 1210" version="1.1" xmlns="http://www.w3.org/2000/svg" xmlns:xlink="http://www.w3.org/1999/xlink">
<defs>
<style type="text/css"><![CDATA[
.g0_111{
fill: #FFF;
}
.g1_111{
fill: #000;
}
]]></style>
</defs>
<path d="M68.9,1149.3H852.7v-21.2H68.9v21.2Z" class="g0_111"/>
<path d="M69.9,1018.7h.8V142.4h-.8v876.3Z" class="g1_111"/>
<path d="M126.7,1019.4h.7V183h-.7v836.4Z" class="g1_111"/>
<path d="M183.4,1019.4h.8V141.7h-.8v877.7Z" class="g1_111"/>
<path d="M423.4,1019.4h.7V141.7h-.7v877.7Z" class="g1_111"/>
<path d="M516.5,1019.4h.8V141.7h-.8v877.7Z" class="g1_111"/>
<path d="M849.8,1018.7h.8V142.4h-.8v876.3Z" class="g1_111"/>
<path d="M69.9,142.4H850.6v-.7H69.9v.7Z" class="g1_111"/>
<path d="M69.9,183.7H184.2V183H69.9v.7Z" class="g1_111"/>
<path d="M69.9,208.2H850.6v-.8H69.9v.8Z" class="g1_111"/>
<path d="M69.9,232.6H850.6v-.8H69.9v.8Z" class="g1_111"/>
<path d="M69.9,257H850.6v-.7H69.9v.7Z" class="g1_111"/>
<path d="M183.4,281.5H850.6v-.7H183.4v.7Z" class="g1_111"/>
<path d="M183.4,394.5H850.6v-.7H183.4v.7Z" class="g1_111"/>
<path d="M183.4,490.8H850.6v-.7H183.4v.7Z" class="g1_111"/>
<path d="M183.4,603.9H850.6v-.7H183.4v.7Z" class="g1_111"/>
<path d="M69.9,628.3H850.6v-.7H69.9v.7Z" class="g1_111"/>
<path d="M183.4,652.8H850.6V652H183.4v.8Z" class="g1_111"/>
<path d="M183.4,677.2H850.6v-.7H183.4v.7Z" class="g1_111"/>
<path d="M183.4,701.6H850.6v-.7H183.4v.7Z" class="g1_111"/>
<path d="M183.4,726.1H850.6v-.7H183.4v.7Z" class="g1_111"/>
<path d="M183.4,750.6H850.6v-.8H183.4v.8Z" class="g1_111"/>
<path d="M183.4,774.9H850.6v-.7H183.4v.7Z" class="g1_111"/>
<path d="M183.4,799.4H850.6v-.7H183.4v.7Z" class="g1_111"/>
<path d="M183.4,823.9H850.6v-.7H183.4v.7Z" class="g1_111"/>
<path d="M183.4,848.3H850.6v-.7H183.4v.7Z" class="g1_111"/>
<path d="M183.4,872.8H850.6V872H183.4v.8Z" class="g1_111"/>
<path d="M183.4,897.2H850.6v-.7H183.4v.7Z" class="g1_111"/>
<path d="M183.4,921.6H850.6v-.7H183.4v.7Z" class="g1_111"/>
<path d="M69.9,946.1H850.6v-.7H69.9v.7Z" class="g1_111"/>
<path d="M69.9,970.6H850.6v-.8H69.9v.8Z" class="g1_111"/>
<path d="M69.9,995H850.6v-.8H69.9v.8Z" class="g1_111"/>
<path d="M69.9,1019.4H850.6v-.7H69.9v.7Z" class="g1_111"/>
</svg>