<?xml version="1.0" encoding="UTF-8" standalone="no"?>
<!DOCTYPE svg PUBLIC "-//W3C//DTD SVG 1.1//EN"
"http://www.w3.org/Graphics/SVG/1.1/DTD/svg11.dtd">
<svg viewBox="0 0 935 1210" version="1.1" xmlns="http://www.w3.org/2000/svg" xmlns:xlink="http://www.w3.org/1999/xlink">
<defs>
<clipPath id="c0_1657"><path d="M97.3,59.2V41.4h72.1V59.2Z"/></clipPath>
<style type="text/css"><![CDATA[
.g0_1657{
fill: #000;
}
]]></style>
</defs>
<path d="M96.2,62.9v.3H838.7v-.3H96.2Z" class="g0_1657"/>
<path d="M96.2,1114.1h-.1v.4h.1v-.4Z" class="g0_1657"/>
<path d="M838.7,1114.1h.2v.4h-.2v-.4Z" class="g0_1657"/>
<path d="M96.2,1114.1v.4H838.7v-.4H96.2Z" class="g0_1657"/>
<image clip-path="url(#c0_1657)" preserveAspectRatio="none" x="97" y="41" width="72" height="18" xlink:href="img/1.jpg"/>
<path d="M96.6,152.7h-.7V389.2h.7V152.7Z" class="g0_1657"/>
<path d="M259.1,149.7h-.7V389.9h.7V149.7Z" class="g0_1657"/>
<path d="M298.8,149.7h-.7V389.9h.7V149.7Z" class="g0_1657"/>
<path d="M352.4,149.7h-.8V389.9h.8V149.7Z" class="g0_1657"/>
<path d="M429.9,149.7h-.7V389.9h.7V149.7Z" class="g0_1657"/>
<path d="M839.7,152.7H839V389.2h.7V152.7Z" class="g0_1657"/>
<path d="M95.9,149.8v3H839.7v-3H95.9Z" class="g0_1657"/>
<path d="M95.9,192.5v3H839.7v-3H95.9Z" class="g0_1657"/>
<path d="M258.4,218.1v.7H839.7v-.7H258.4Z" class="g0_1657"/>
<path d="M258.4,242.5v.8H839.7v-.8H258.4Z" class="g0_1657"/>
<path d="M258.4,267v.8H839.7V267H258.4Z" class="g0_1657"/>
<path d="M258.4,291.4v.7H839.7v-.7H258.4Z" class="g0_1657"/>
<path d="M258.4,315.9v.7H839.7v-.7H258.4Z" class="g0_1657"/>
<path d="M258.4,340.3v.8H839.7v-.8H258.4Z" class="g0_1657"/>
<path d="M258.4,364.7v.8H839.7v-.8H258.4Z" class="g0_1657"/>
<path d="M95.9,389.2v.7H839.7v-.7H95.9Z" class="g0_1657"/>
</svg>