<?xml version="1.0" encoding="UTF-8" standalone="no"?>
<!DOCTYPE svg PUBLIC "-//W3C//DTD SVG 1.1//EN"
"http://www.w3.org/Graphics/SVG/1.1/DTD/svg11.dtd">
<svg viewBox="0 0 935 1210" version="1.1" xmlns="http://www.w3.org/2000/svg" xmlns:xlink="http://www.w3.org/1999/xlink">
<defs>
<clipPath id="c0_2308"><path d="M766.6,59.2V41.4h72.2V59.2Z"/></clipPath>
<style type="text/css"><![CDATA[
.g0_2308{
fill: #000;
}
]]></style>
</defs>
<path d="M97.4,63.3H839.9v-.4H97.4v.4Z" class="g0_2308"/>
<path d="M96.1,1114.5h.2v-.4h-.2v.4Z" class="g0_2308"/>
<path d="M96.3,1114.5H838.9v-.4H96.3v.4Z" class="g0_2308"/>
<image clip-path="url(#c0_2308)" preserveAspectRatio="none" x="767" y="41" width="72" height="18" xlink:href="img/1.jpg"/>
<path d="M558.7,289.7h31.4v-1.1H558.7v1.1Z" class="g0_2308"/>
<path d="M684.2,289.7h20.4v-1.1H684.2v1.1Z" class="g0_2308"/>
<path d="M704.6,289.7h8.5v-1.1h-8.5v1.1Z" class="g0_2308"/>
<path d="M558.7,312.6h31.4v-1.1H558.7v1.1Z" class="g0_2308"/>
<path d="M684.2,312.6h20.4v-1.1H684.2v1.1Z" class="g0_2308"/>
<path d="M704.6,312.6h8.5v-1.1h-8.5v1.1Z" class="g0_2308"/>
<path d="M95.9,1023.3h.7V566.8h-.7v456.5Z" class="g0_2308"/>
<path d="M273.3,973.6h.8V563.8h-.8V973.6Z" class="g0_2308"/>
<path d="M310,973.6h.7V586.3H310V973.6Z" class="g0_2308"/>
<path d="M346.7,973.6h.7V586.3h-.7V973.6Z" class="g0_2308"/>
<path d="M383.4,973.6h.7V563.8h-.7V973.6Z" class="g0_2308"/>
<path d="M839.2,1023.3h.7V566.8h-.7v456.5Z" class="g0_2308"/>
<path d="M95.9,566.9h744v-3.1H95.9v3.1Z" class="g0_2308"/>
<path d="M273.3,587H384.2v-.7H273.3v.7Z" class="g0_2308"/>
<path d="M95.9,609.6h744v-3H95.9v3Z" class="g0_2308"/>
<path d="M273.3,628.3H839.9v-.8H273.3v.8Z" class="g0_2308"/>
<path d="M273.3,648.2H839.9v-.8H273.3v.8Z" class="g0_2308"/>
<path d="M273.3,668H839.9v-.8H273.3v.8Z" class="g0_2308"/>
<path d="M273.3,687.9H839.9v-.8H273.3v.8Z" class="g0_2308"/>
<path d="M273.3,707.8H839.9V707H273.3v.8Z" class="g0_2308"/>
<path d="M273.3,727.6H839.9v-.8H273.3v.8Z" class="g0_2308"/>
<path d="M273.3,747.4H839.9v-.7H273.3v.7Z" class="g0_2308"/>
<path d="M273.3,767.3H839.9v-.7H273.3v.7Z" class="g0_2308"/>
<path d="M95.9,787.1h744v-.7H95.9v.7Z" class="g0_2308"/>
<path d="M95.9,807h744v-.7H95.9v.7Z" class="g0_2308"/>
<path d="M95.9,826.9h744v-.7H95.9v.7Z" class="g0_2308"/>
<path d="M273.3,846.7H839.9V846H273.3v.7Z" class="g0_2308"/>
<path d="M95.9,866.6h744v-.7H95.9v.7Z" class="g0_2308"/>
<path d="M273.3,900.3H839.9v-.8H273.3v.8Z" class="g0_2308"/>
<path d="M95.9,953.7h744V953H95.9v.7Z" class="g0_2308"/>
<path d="M95.9,973.6h744v-.7H95.9v.7Z" class="g0_2308"/>
<path d="M95.9,1024h744v-.7H95.9v.7Z" class="g0_2308"/>
</svg>