<?xml version="1.0" encoding="UTF-8" standalone="no"?>
<!DOCTYPE svg PUBLIC "-//W3C//DTD SVG 1.1//EN"
"http://www.w3.org/Graphics/SVG/1.1/DTD/svg11.dtd">
<svg viewBox="0 0 935 1210" version="1.1" xmlns="http://www.w3.org/2000/svg" xmlns:xlink="http://www.w3.org/1999/xlink">
<defs>
<clipPath id="c0_1980"><path d="M766.6,59.2V41.4h72.2V59.2Z"/></clipPath>
<style type="text/css"><![CDATA[
.g0_1980{
fill: #000;
}
]]></style>
</defs>
<path d="M97.4,63.3H839.9v-.4H97.4v.4Z" class="g0_1980"/>
<path d="M96.1,1114.5h.2v-.4h-.2v.4Z" class="g0_1980"/>
<path d="M96.3,1114.5H838.9v-.4H96.3v.4Z" class="g0_1980"/>
<image clip-path="url(#c0_1980)" preserveAspectRatio="none" x="767" y="41" width="72" height="18" xlink:href="img/1.jpg"/>
<path d="M118.1,583.2h.7V510.7h-.7v72.5Z" class="g0_1980"/>
<path d="M228.1,584h.7V534.3h-.7V584Z" class="g0_1980"/>
<path d="M338.1,584h.7V509.9h-.7V584Z" class="g0_1980"/>
<path d="M448.1,584h.7V534.3h-.7V584Z" class="g0_1980"/>
<path d="M558.2,584h.7V509.9h-.7V584Z" class="g0_1980"/>
<path d="M689,584h.7V534.3H689V584Z" class="g0_1980"/>
<path d="M816.2,583.2h.7V510.7h-.7v72.5Z" class="g0_1980"/>
<path d="M118.1,510.7H816.9v-.8H118.1v.8Z" class="g0_1980"/>
<path d="M118.1,535.1H816.9v-.8H118.1v.8Z" class="g0_1980"/>
<path d="M118.1,559.5H816.9v-.7H118.1v.7Z" class="g0_1980"/>
<path d="M118.1,584H816.9v-.7H118.1v.7Z" class="g0_1980"/>
</svg>