<?xml version="1.0" encoding="UTF-8" standalone="no"?>
<!DOCTYPE svg PUBLIC "-//W3C//DTD SVG 1.1//EN"
"http://www.w3.org/Graphics/SVG/1.1/DTD/svg11.dtd">
<svg viewBox="0 0 935 1210" version="1.1" xmlns="http://www.w3.org/2000/svg" xmlns:xlink="http://www.w3.org/1999/xlink">
<defs>
<clipPath id="c0_1323"><path d="M97.3,59.2V41.4h72.1V59.2Z"/></clipPath>
<style type="text/css"><![CDATA[
.g0_1323{
fill: #000;
}
]]></style>
</defs>
<path d="M96.2,62.9v.3H838.7v-.3H96.2Z" class="g0_1323"/>
<path d="M96.2,1114.1h-.1v.4h.1v-.4Z" class="g0_1323"/>
<path d="M838.7,1114.1h.2v.4h-.2v-.4Z" class="g0_1323"/>
<path d="M96.2,1114.1v.4H838.7v-.4H96.2Z" class="g0_1323"/>
<image clip-path="url(#c0_1323)" preserveAspectRatio="none" x="97" y="41" width="72" height="18" xlink:href="img/1.jpg"/>
<path d="M192.9,767.3h-.8v266.6h.8V767.3Z" class="g0_1323"/>
<path d="M284.5,766.6h-.7v245.2h.7V766.6Z" class="g0_1323"/>
<path d="M376.2,766.6h-.7v245.2h.7V766.6Z" class="g0_1323"/>
<path d="M467.9,791h-.8v220.8h.8V791Z" class="g0_1323"/>
<path d="M559.5,791h-.7v220.8h.7V791Z" class="g0_1323"/>
<path d="M651.2,791h-.7v220.8h.7V791Z" class="g0_1323"/>
<path d="M742.8,767.3h-.7v266.6h.7V767.3Z" class="g0_1323"/>
<path d="M192.1,766.6v.7H742.8v-.7H192.1Z" class="g0_1323"/>
<path d="M375.5,791v.7H742.8V791H375.5Z" class="g0_1323"/>
<path d="M192.1,815.4v.8H742.8v-.8H192.1Z" class="g0_1323"/>
<path d="M283.8,839.9v.8h459v-.8h-459Z" class="g0_1323"/>
<path d="M283.8,864.3v.7h459v-.7h-459Z" class="g0_1323"/>
<path d="M283.8,888.8v.7h459v-.7h-459Z" class="g0_1323"/>
<path d="M283.8,913.3v.7h459v-.7h-459Z" class="g0_1323"/>
<path d="M283.8,937.6v.8h459v-.8h-459Z" class="g0_1323"/>
<path d="M283.8,962.1v.7h459v-.7h-459Z" class="g0_1323"/>
<path d="M283.8,986.6v.7h459v-.7h-459Z" class="g0_1323"/>
<path d="M192.1,1011.1v.7H742.8v-.7H192.1Z" class="g0_1323"/>
<path d="M192.1,1034v.7H742.8v-.7H192.1Z" class="g0_1323"/>
</svg>