<?xml version="1.0" encoding="UTF-8" standalone="no"?>
<!DOCTYPE svg PUBLIC "-//W3C//DTD SVG 1.1//EN"
"http://www.w3.org/Graphics/SVG/1.1/DTD/svg11.dtd">
<svg viewBox="0 0 935 1210" version="1.1" xmlns="http://www.w3.org/2000/svg" xmlns:xlink="http://www.w3.org/1999/xlink">
<defs>
<style type="text/css"><![CDATA[
.g0_66{
fill: #B3B3B3;
}
.g1_66{
fill: #000;
}
]]></style>
</defs>
<path d="M82.5,96.3h770V55H82.5V96.3Z" class="g0_66"/>
<path d="M104.1,1034.9h.4v-.7h-.4v.7Z" class="g1_66"/>
<path d="M104.5,1034.9H324.9v-.7H104.5v.7Z" class="g1_66"/>
<path d="M115.3,248.8h.4V160.6h-.4v88.2Z" class="g1_66"/>
<path d="M247.3,249.2h.4v-89h-.4v89Z" class="g1_66"/>
<path d="M357.3,249.2h.4v-89h-.4v89Z" class="g1_66"/>
<path d="M467.3,249.2h.4v-89h-.4v89Z" class="g1_66"/>
<path d="M819.3,248.8h.4V160.6h-.4v88.2Z" class="g1_66"/>
<path d="M115.3,160.6H819.7v-.4H115.3v.4Z" class="g1_66"/>
<path d="M115.3,204.9H819.7v-.4H115.3v.4Z" class="g1_66"/>
<path d="M115.3,249.2H819.7v-.3H115.3v.3Z" class="g1_66"/>
</svg>