<?xml version="1.0" encoding="UTF-8" standalone="no"?>
<!DOCTYPE svg PUBLIC "-//W3C//DTD SVG 1.1//EN"
"http://www.w3.org/Graphics/SVG/1.1/DTD/svg11.dtd">
<svg viewBox="0 0 935 1210" version="1.1" xmlns="http://www.w3.org/2000/svg" xmlns:xlink="http://www.w3.org/1999/xlink">
<defs>
<clipPath id="c0_1752"><path d="M766.6,59.2V41.4h72.1V59.2Z"/></clipPath>
<style type="text/css"><![CDATA[
.g0_1752{
fill: #000;
}
]]></style>
</defs>
<path d="M97.3,62.9v.3H839.9v-.3H97.3Z" class="g0_1752"/>
<path d="M96.2,1114.1h-.1v.4h.1v-.4Z" class="g0_1752"/>
<path d="M838.7,1114.1h.2v.4h-.2v-.4Z" class="g0_1752"/>
<path d="M96.2,1114.1v.4H838.7v-.4H96.2Z" class="g0_1752"/>
<image clip-path="url(#c0_1752)" preserveAspectRatio="none" x="767" y="41" width="72" height="18" xlink:href="img/1.jpg"/>
<path d="M96.6,666.1h-.7V798.7h.7V666.1Z" class="g0_1752"/>
<path d="M137.9,663h-.8v93.6h.8V663Z" class="g0_1752"/>
<path d="M179.1,663h-.7v93.6h.7V663Z" class="g0_1752"/>
<path d="M220.4,663h-.8v93.6h.8V663Z" class="g0_1752"/>
<path d="M261.6,663h-.7v93.6h.7V663Z" class="g0_1752"/>
<path d="M302.9,663h-.8v93.6h.8V663Z" class="g0_1752"/>
<path d="M344.1,663h-.7v93.6h.7V663Z" class="g0_1752"/>
<path d="M385.4,663h-.8v93.6h.8V663Z" class="g0_1752"/>
<path d="M467.9,663h-.8v93.6h.8V663Z" class="g0_1752"/>
<path d="M509.1,663h-.7v93.6h.7V663Z" class="g0_1752"/>
<path d="M550.4,663h-.8v93.6h.8V663Z" class="g0_1752"/>
<path d="M591.6,663h-.7v93.6h.7V663Z" class="g0_1752"/>
<path d="M632.9,663h-.8v93.6h.8V663Z" class="g0_1752"/>
<path d="M674.1,663h-.7v93.6h.7V663Z" class="g0_1752"/>
<path d="M715.3,663h-.7v93.6h.7V663Z" class="g0_1752"/>
<path d="M756.6,663h-.7v93.6h.7V663Z" class="g0_1752"/>
<path d="M797.8,663h-.7v93.6h.7V663Z" class="g0_1752"/>
<path d="M839.1,666.1h-.7V798.7h.7V666.1Z" class="g0_1752"/>
<path d="M95.9,663.1v3H839.1v-3H95.9Z" class="g0_1752"/>
<path d="M95.9,693.6v3H839.1v-3H95.9Z" class="g0_1752"/>
<path d="M95.9,725.3v.8H839.1v-.8H95.9Z" class="g0_1752"/>
<path d="M95.9,755.9v.7H839.1v-.7H95.9Z" class="g0_1752"/>
<path d="M95.9,798.7v.7H839.1v-.7H95.9Z" class="g0_1752"/>
<path d="M96.6,849.5h-.7V1098h.7V849.5Z" class="g0_1752"/>
<path d="M244.8,846.3h-.7v252.6h.7V846.3Z" class="g0_1752"/>
<path d="M284.5,846.3h-.7v252.6h.7V846.3Z" class="g0_1752"/>
<path d="M338,846.3h-.8v252.6h.8V846.3Z" class="g0_1752"/>
<path d="M410.1,846.3h-.7v252.6h.7V846.3Z" class="g0_1752"/>
<path d="M841.5,849.5h-.8V1098h.8V849.5Z" class="g0_1752"/>
<path d="M95.9,846.4v3.1H841.5v-3.1H95.9Z" class="g0_1752"/>
<path d="M95.9,889.2v3.1H841.5v-3.1H95.9Z" class="g0_1752"/>
<path d="M95.9,930v.8H841.5V930H95.9Z" class="g0_1752"/>
<path d="M95.9,969.7v.8H841.5v-.8H95.9Z" class="g0_1752"/>
<path d="M244,1009.5v.7H841.5v-.7H244Z" class="g0_1752"/>
<path d="M95.9,1034v.7H841.5v-.7H95.9Z" class="g0_1752"/>
<path d="M95.9,1058.4v.7H841.5v-.7H95.9Z" class="g0_1752"/>
<path d="M95.9,1098.1v.8H841.5v-.8H95.9Z" class="g0_1752"/>
</svg>