<?xml version="1.0" encoding="UTF-8" standalone="no"?>
<!DOCTYPE svg PUBLIC "-//W3C//DTD SVG 1.1//EN"
"http://www.w3.org/Graphics/SVG/1.1/DTD/svg11.dtd">
<svg viewBox="0 0 935 1210" version="1.1" xmlns="http://www.w3.org/2000/svg" xmlns:xlink="http://www.w3.org/1999/xlink">
<defs>
<style type="text/css"><![CDATA[
.g0_1408{
fill: #FFF;
}
.g1_1408{
fill: #000;
}
]]></style>
</defs>
<path d="M165,1149.3H852.5v-21.2H165v21.2Z" class="g0_1408"/>
<path d="M68.8,1149.3h82.5v-21.2H68.8v21.2Z" class="g0_1408"/>
<path d="M68.6,1047.8h.7v-916h-.7v916Z" class="g1_1408"/>
<path d="M344.7,1048.5h.7V131h-.7v917.5Z" class="g1_1408"/>
<path d="M382.5,1048.5h.8V131h-.8v917.5Z" class="g1_1408"/>
<path d="M455.9,1048.5h.7V131h-.7v917.5Z" class="g1_1408"/>
<path d="M544.5,1048.5h.7V131h-.7v917.5Z" class="g1_1408"/>
<path d="M852.2,1047.8h.8v-916h-.8v916Z" class="g1_1408"/>
<path d="M68.6,131.7H853V131H68.6v.7Z" class="g1_1408"/>
<path d="M68.6,185.3H853v-.8H68.6v.8Z" class="g1_1408"/>
<path d="M68.6,241.7H853V241H68.6v.7Z" class="g1_1408"/>
<path d="M68.6,315.1H853v-.8H68.6v.8Z" class="g1_1408"/>
<path d="M68.6,388.4H853v-.7H68.6v.7Z" class="g1_1408"/>
<path d="M68.6,461.8H853v-.7H68.6v.7Z" class="g1_1408"/>
<path d="M68.6,535.2H853v-.8H68.6v.8Z" class="g1_1408"/>
<path d="M68.6,608.5H853v-.8H68.6v.8Z" class="g1_1408"/>
<path d="M68.6,681.8H853v-.7H68.6v.7Z" class="g1_1408"/>
<path d="M68.6,755.2H853v-.8H68.6v.8Z" class="g1_1408"/>
<path d="M68.6,828.5H853v-.8H68.6v.8Z" class="g1_1408"/>
<path d="M68.6,901.8H853v-.7H68.6v.7Z" class="g1_1408"/>
<path d="M68.6,975.2H853v-.8H68.6v.8Z" class="g1_1408"/>
<path d="M68.6,1048.5H853v-.7H68.6v.7Z" class="g1_1408"/>
</svg>