<?xml version="1.0" encoding="UTF-8" standalone="no"?>
<!DOCTYPE svg PUBLIC "-//W3C//DTD SVG 1.1//EN"
"http://www.w3.org/Graphics/SVG/1.1/DTD/svg11.dtd">
<svg viewBox="0 0 935 1210" version="1.1" xmlns="http://www.w3.org/2000/svg" xmlns:xlink="http://www.w3.org/1999/xlink">
<defs>
<style type="text/css"><![CDATA[
.g0_568{
fill: #FFF;
}
.g1_568{
fill: #000;
}
]]></style>
</defs>
<path d="M165,1149.3H852.5v-21.2H165v21.2Z" class="g0_568"/>
<path d="M68.8,1149.3h82.5v-21.2H68.8v21.2Z" class="g0_568"/>
<path d="M68.6,251.7h.7v-126h-.7v126Z" class="g1_568"/>
<path d="M388.9,252.4h.8V124.9h-.8V252.4Z" class="g1_568"/>
<path d="M426.8,252.4h.7V124.9h-.7V252.4Z" class="g1_568"/>
<path d="M500.2,252.4h.8V124.9h-.8V252.4Z" class="g1_568"/>
<path d="M571.6,252.4h.8V124.9h-.8V252.4Z" class="g1_568"/>
<path d="M848.7,251.7h.8v-126h-.8v126Z" class="g1_568"/>
<path d="M68.6,125.7H849.5v-.8H68.6v.8Z" class="g1_568"/>
<path d="M68.6,163.8H849.5v-.7H68.6v.7Z" class="g1_568"/>
<path d="M68.6,208.2H849.5v-.8H68.6v.8Z" class="g1_568"/>
<path d="M68.6,252.4H849.5v-.7H68.6v.7Z" class="g1_568"/>
<path d="M68.6,355.6h.7V307.4h-.7v48.2Z" class="g1_568"/>
<path d="M140.6,356.4h.8V306.7h-.8v49.7Z" class="g1_568"/>
<path d="M309.5,356.4h.7V306.7h-.7v49.7Z" class="g1_568"/>
<path d="M491.3,356.4h.8V306.7h-.8v49.7Z" class="g1_568"/>
<path d="M672.7,356.4h.7V306.7h-.7v49.7Z" class="g1_568"/>
<path d="M852,355.6h.7V307.4H852v48.2Z" class="g1_568"/>
<path d="M68.6,307.4H852.7v-.7H68.6v.7Z" class="g1_568"/>
<path d="M68.6,331.9H852.7v-.7H68.6v.7Z" class="g1_568"/>
<path d="M68.6,356.3H852.7v-.7H68.6v.7Z" class="g1_568"/>
</svg>