<?xml version="1.0" encoding="UTF-8" standalone="no"?>
<!DOCTYPE svg PUBLIC "-//W3C//DTD SVG 1.1//EN"
"http://www.w3.org/Graphics/SVG/1.1/DTD/svg11.dtd">
<svg viewBox="0 0 935 1210" version="1.1" xmlns="http://www.w3.org/2000/svg" xmlns:xlink="http://www.w3.org/1999/xlink">
<defs>
<style type="text/css"><![CDATA[
.g0_1989{
fill: #FFF;
}
.g1_1989{
fill: #000;
}
]]></style>
</defs>
<path d="M68.9,1149.3H755.2v-21.2H68.9v21.2Z" class="g0_1989"/>
<path d="M771.3,1149.3H855v-21.2H771.3v21.2Z" class="g0_1989"/>
<path d="M69.9,369.3h.8V147h-.8V369.3Z" class="g1_1989"/>
<path d="M322.9,370.2h.8V146.3h-.8V370.2Z" class="g1_1989"/>
<path d="M368.6,370.2h.7V146.3h-.7V370.2Z" class="g1_1989"/>
<path d="M443.2,370.2h.7V146.3h-.7V370.2Z" class="g1_1989"/>
<path d="M526.9,370.2h.7V146.3h-.7V370.2Z" class="g1_1989"/>
<path d="M852.4,369.3h.7V147h-.7V369.3Z" class="g1_1989"/>
<path d="M69.9,147H853.1v-.7H69.9v.7Z" class="g1_1989"/>
<path d="M69.9,200.5H853.1v-.8H69.9v.8Z" class="g1_1989"/>
<path d="M69.9,257H853.1v-.7H69.9v.7Z" class="g1_1989"/>
<path d="M69.9,313.6H853.1v-.7H69.9v.7Z" class="g1_1989"/>
<path d="M69.9,370.1H853.1v-.8H69.9v.8Z" class="g1_1989"/>
<path d="M69.9,473.3h.8V425.2h-.8v48.1Z" class="g1_1989"/>
<path d="M141.1,474h.7V424.3h-.7V474Z" class="g1_1989"/>
<path d="M239.8,474h.7V424.3h-.7V474Z" class="g1_1989"/>
<path d="M383.6,474h.8V424.3h-.8V474Z" class="g1_1989"/>
<path d="M542.1,474h.8V424.3h-.8V474Z" class="g1_1989"/>
<path d="M697.4,474h.7V424.3h-.7V474Z" class="g1_1989"/>
<path d="M852.5,473.3h.7V425.2h-.7v48.1Z" class="g1_1989"/>
<path d="M69.9,425.2H853.2v-.8H69.9v.8Z" class="g1_1989"/>
<path d="M69.9,449.5H853.2v-.7H69.9v.7Z" class="g1_1989"/>
<path d="M69.9,474H853.2v-.7H69.9v.7Z" class="g1_1989"/>
</svg>