<?xml version="1.0" encoding="UTF-8" standalone="no"?>
<!DOCTYPE svg PUBLIC "-//W3C//DTD SVG 1.1//EN"
"http://www.w3.org/Graphics/SVG/1.1/DTD/svg11.dtd">
<svg viewBox="0 0 935 1210" version="1.1" xmlns="http://www.w3.org/2000/svg" xmlns:xlink="http://www.w3.org/1999/xlink">
<defs>
<clipPath id="c0_2953"><path d="M97.3,59.2V41.4h72.1V59.2Z"/></clipPath>
<style type="text/css"><![CDATA[
.g0_2953{
fill: #000;
}
]]></style>
</defs>
<path d="M96.3,63.3H838.8v-.4H96.3v.4Z" class="g0_2953"/>
<path d="M96.1,1114.5h.2v-.4h-.2v.4Z" class="g0_2953"/>
<path d="M96.3,1114.5H838.9v-.4H96.3v.4Z" class="g0_2953"/>
<image clip-path="url(#c0_2953)" preserveAspectRatio="none" x="97" y="41" width="73" height="18" xlink:href="img/1.jpg"/>
<path d="M381.1,881h.8v-.4h-.8v.4Z" class="g0_2953"/>
<path d="M381.1,966h.8V881h-.8v85Z" class="g0_2953"/>
<path d="M381.1,881.2h.4v-.7h-.4v.7Z" class="g0_2953"/>
<path d="M381.5,881.2h3.3v-.7h-3.3v.7Z" class="g0_2953"/>
<path d="M381.7,965.8h.4v-.7h-.4v.7Z" class="g0_2953"/>
<path d="M382.1,965.8h3.2v-.7h-3.2v.7Z" class="g0_2953"/>
<path d="M481.8,881h.7v-.4h-.7v.4Z" class="g0_2953"/>
<path d="M481.8,966.6h.7V881h-.7v85.6Z" class="g0_2953"/>
<path d="M482.2,881.2h.3v-.7h-.3v.7Z" class="g0_2953"/>
<path d="M479,881.2h3.2v-.7H479v.7Z" class="g0_2953"/>
<path d="M481.7,966.4h.4v-.7h-.4v.7Z" class="g0_2953"/>
<path d="M478.5,966.4h3.2v-.7h-3.2v.7Z" class="g0_2953"/>
</svg>