<?xml version="1.0" encoding="UTF-8" standalone="no"?>
<!DOCTYPE svg PUBLIC "-//W3C//DTD SVG 1.1//EN"
"http://www.w3.org/Graphics/SVG/1.1/DTD/svg11.dtd">
<svg viewBox="0 0 935 1210" version="1.1" xmlns="http://www.w3.org/2000/svg" xmlns:xlink="http://www.w3.org/1999/xlink">
<defs>
<clipPath id="c0_1770"><path d="M766.6,59.2V41.4h72.1V59.2Z"/></clipPath>
<style type="text/css"><![CDATA[
.g0_1770{
fill: #000;
}
]]></style>
</defs>
<path d="M97.3,62.9v.3H839.9v-.3H97.3Z" class="g0_1770"/>
<path d="M96.2,1114.1h-.1v.4h.1v-.4Z" class="g0_1770"/>
<path d="M838.7,1114.1h.2v.4h-.2v-.4Z" class="g0_1770"/>
<path d="M96.2,1114.1v.4H838.7v-.4H96.2Z" class="g0_1770"/>
<image clip-path="url(#c0_1770)" preserveAspectRatio="none" x="767" y="41" width="72" height="18" xlink:href="img/1.jpg"/>
<path d="M96.6,180.2h-.7V673.4h.7V180.2Z" class="g0_1770"/>
<path d="M260.4,177.2h-.7V674.1h.7V177.2Z" class="g0_1770"/>
<path d="M300.1,177.2h-.7V674.1h.7V177.2Z" class="g0_1770"/>
<path d="M353.5,177.2h-.7V674.1h.7V177.2Z" class="g0_1770"/>
<path d="M427.5,177.2h-.7V674.1h.7V177.2Z" class="g0_1770"/>
<path d="M840.6,180.2h-.8V673.4h.8V180.2Z" class="g0_1770"/>
<path d="M95.9,177.3v3H840.6v-3H95.9Z" class="g0_1770"/>
<path d="M95.9,220v3H840.6v-3H95.9Z" class="g0_1770"/>
<path d="M259.6,245.6v.7h581v-.7h-581Z" class="g0_1770"/>
<path d="M259.6,270v.8h581V270h-581Z" class="g0_1770"/>
<path d="M259.6,309.7v.8h581v-.8h-581Z" class="g0_1770"/>
<path d="M259.6,334.2v.7h581v-.7h-581Z" class="g0_1770"/>
<path d="M259.6,358.7v.7h581v-.7h-581Z" class="g0_1770"/>
<path d="M95.9,383.1v.7H840.6v-.7H95.9Z" class="g0_1770"/>
<path d="M259.6,407.5v.8h581v-.8h-581Z" class="g0_1770"/>
<path d="M259.6,432v.7h581V432h-581Z" class="g0_1770"/>
<path d="M259.6,456.4v.7h581v-.7h-581Z" class="g0_1770"/>
<path d="M259.6,496.2v.7h581v-.7h-581Z" class="g0_1770"/>
<path d="M259.6,520.6v.7h581v-.7h-581Z" class="g0_1770"/>
<path d="M259.6,545v.8h581V545h-581Z" class="g0_1770"/>
<path d="M95.9,584.7v.8H840.6v-.8H95.9Z" class="g0_1770"/>
<path d="M95.9,624.5v.7H840.6v-.7H95.9Z" class="g0_1770"/>
<path d="M259.6,648.9v.7h581v-.7h-581Z" class="g0_1770"/>
<path d="M95.9,673.4v.7H840.6v-.7H95.9Z" class="g0_1770"/>
</svg>