<?xml version="1.0" encoding="UTF-8" standalone="no"?>
<!DOCTYPE svg PUBLIC "-//W3C//DTD SVG 1.1//EN"
"http://www.w3.org/Graphics/SVG/1.1/DTD/svg11.dtd">
<svg viewBox="0 0 935 1210" version="1.1" xmlns="http://www.w3.org/2000/svg" xmlns:xlink="http://www.w3.org/1999/xlink">
<defs>
<clipPath id="c0_471"><path d="M766.6,59.2V41.4h72.1V59.2Z"/></clipPath>
<style type="text/css"><![CDATA[
.g0_471{
fill: #000;
}
.g1_471{
fill: #231F20;
}
.g2_471{
fill: none;
stroke: #231F20;
stroke-width: 1.527;
}
.g3_471{
fill: #FFF;
}
.g4_471{
fill: none;
stroke: #231F20;
stroke-width: 1.527;
stroke-dasharray: 4,5;
}
]]></style>
</defs>
<path d="M97.3,62.9v.3H839.9v-.3H97.3Z" class="g0_471"/>
<path d="M96.2,1114.1h-.1v.3h.1v-.3Z" class="g0_471"/>
<path d="M838.7,1114.1h.2v.3h-.2v-.3Z" class="g0_471"/>
<path d="M96.2,1114.1v.3H838.7v-.3H96.2Z" class="g0_471"/>
<image clip-path="url(#c0_471)" preserveAspectRatio="none" x="767" y="41" width="72" height="18" xlink:href="img/1.jpg"/>
<path d="M121.4,324.8H289.5V203.2H121.4V324.8Z" class="g1_471"/>
<path d="M289.5,324.8H121.4V203.2H289.5V324.8Z" class="g2_471"/>
<path d="M119.2,225.3H287.3V201H119.2v24.3Z" class="g3_471"/>
<path d="M287.3,225.3H119.2V201H287.3v24.3Z" class="g2_471"/>
<path d="M119.2,249.6H287.3V225.3H119.2v24.3Z" class="g3_471"/>
<path d="M287.3,249.6H119.2V225.3H287.3v24.3Z" class="g2_471"/>
<path d="M119.2,273.9H287.3V249.6H119.2v24.3Z" class="g3_471"/>
<path d="M287.3,273.9H119.2V249.6H287.3v24.3Z" class="g2_471"/>
<path d="M119.2,298.3H287.3V273.9H119.2v24.4Z" class="g3_471"/>
<path d="M287.3,298.3H119.2V273.9H287.3v24.4Z" class="g2_471"/>
<path d="M119.2,322.6H287.3V298.3H119.2v24.3Z" class="g3_471"/>
<path d="M287.3,322.6H119.2V298.3H287.3v24.3Z" class="g2_471"/>
<path d="M121.4,413.9H289.5V389.5H121.4v24.4Z" class="g1_471"/>
<path d="M289.5,413.9H121.4V389.5H289.5v24.4Z" class="g2_471"/>
<path d="M119.2,411.7H287.3V387.3H119.2v24.4Z" class="g3_471"/>
<path d="M287.3,411.7H119.2V387.3H287.3v24.4Z" class="g2_471"/>
<path d="M121.4,623.6H289.5V477.7H121.4V623.6Z" class="g1_471"/>
<path d="M289.5,623.6H121.4V477.7H289.5V623.6Z" class="g2_471"/>
<path d="M119.2,499.8H287.3V475.5H119.2v24.3Z" class="g3_471"/>
<path d="M287.3,499.8H119.2V475.5H287.3v24.3Z" class="g2_471"/>
<path d="M119.2,524.1H287.3V499.8H119.2v24.3Z" class="g3_471"/>
<path d="M287.3,524.1H119.2V499.8H287.3v24.3Z" class="g2_471"/>
<path d="M119.2,548.4H287.3V524.1H119.2v24.3Z" class="g3_471"/>
<path d="M287.3,548.4H119.2V524.1H287.3v24.3Z" class="g2_471"/>
<path d="M119.2,572.8H287.3V548.4H119.2v24.4Z" class="g3_471"/>
<path d="M287.3,572.8H119.2V548.4H287.3v24.4Z" class="g2_471"/>
<path d="M119.2,597.1H287.3V572.8H119.2v24.3Z" class="g3_471"/>
<path d="M287.3,597.1H119.2V572.8H287.3v24.3Z" class="g2_471"/>
<path d="M119.2,621.4H287.3V597.1H119.2v24.3Z" class="g3_471"/>
<path d="M287.3,621.4H119.2V597.1H287.3v24.3Z" class="g2_471"/>
<path d="M627.8,397.8h168V203.2h-168V397.8Z" class="g1_471"/>
<path d="M795.8,397.8h-168V203.2h168V397.8Z" class="g2_471"/>
<path d="M625.6,225.3h168V201h-168v24.3Z" class="g3_471"/>
<path d="M793.6,225.3h-168V201h168v24.3Z" class="g2_471"/>
<path d="M625.6,249.6h168V225.3h-168v24.3Z" class="g3_471"/>
<path d="M793.6,249.6h-168V225.3h168v24.3Z" class="g2_471"/>
<path d="M625.6,273.9h168V249.6h-168v24.3Z" class="g3_471"/>
<path d="M793.6,273.9h-168V249.6h168v24.3Z" class="g2_471"/>
<path d="M625.6,298.3h168V273.9h-168v24.4Z" class="g3_471"/>
<path d="M793.6,298.3h-168V273.9h168v24.4Z" class="g2_471"/>
<path d="M625.6,322.6h168V298.3h-168v24.3Z" class="g3_471"/>
<path d="M793.6,322.6h-168V298.3h168v24.3Z" class="g2_471"/>
<path d="M625.6,346.9h168V322.6h-168v24.3Z" class="g3_471"/>
<path d="M793.6,346.9h-168V322.6h168v24.3Z" class="g2_471"/>
<path d="M625.6,371.2h168V346.9h-168v24.3Z" class="g3_471"/>
<path d="M793.6,371.2h-168V346.9h168v24.3Z" class="g2_471"/>
<path d="M625.6,395.6h168V371.2h-168v24.4Z" class="g3_471"/>
<path d="M793.6,395.6h-168V371.2h168v24.4Z" class="g2_471"/>
<path d="M627.8,738h168V567.7h-168V738Z" class="g1_471"/>
<path d="M795.8,738h-168V567.7h168V738Z" class="g2_471"/>
<path d="M625.6,589.8h168V565.5h-168v24.3Z" class="g3_471"/>
<path d="M793.6,589.8h-168V565.5h168v24.3Z" class="g2_471"/>
<path d="M625.6,614.1h168V589.8h-168v24.3Z" class="g3_471"/>
<path d="M793.6,614.1h-168V589.8h168v24.3Z" class="g2_471"/>
<path d="M625.6,638.5h168V614.1h-168v24.4Z" class="g3_471"/>
<path d="M793.6,638.5h-168V614.1h168v24.4Z" class="g2_471"/>
<path d="M625.6,662.8h168V638.5h-168v24.3Z" class="g3_471"/>
<path d="M793.6,662.8h-168V638.5h168v24.3Z" class="g2_471"/>
<path d="M625.6,687.1h168V662.8h-168v24.3Z" class="g3_471"/>
<path d="M793.6,687.1h-168V662.8h168v24.3Z" class="g2_471"/>
<path d="M625.6,711.4h168V687.1h-168v24.3Z" class="g3_471"/>
<path d="M793.6,711.4h-168V687.1h168v24.3Z" class="g2_471"/>
<path d="M625.6,735.7h168V711.4h-168v24.3Z" class="g3_471"/>
<path d="M793.6,735.7h-168V711.4h168v24.3Z" class="g2_471"/>
<path d="M821,760.2c0,12.6,-10.1,22.8,-22.6,22.8H361.3c-12.5,0,-22.6,-10.2,-22.6,-22.8V193.1c0,-12.6,10.1,-22.8,22.6,-22.8H798.4c12.5,0,22.6,10.2,22.6,22.8V760.2Z" class="g4_471"/>
<path d="M121.4,758.2H289.5v-73H121.4v73Z" class="g1_471"/>
<path d="M289.5,758.2H121.4v-73H289.5v73Z" class="g2_471"/>
<path d="M119.2,707.3H287.3V683H119.2v24.3Z" class="g3_471"/>
<path d="M287.3,707.3H119.2V683H287.3v24.3Z" class="g2_471"/>
<path d="M119.2,731.7H287.3V707.3H119.2v24.4Z" class="g3_471"/>
<path d="M287.3,731.7H119.2V707.3H287.3v24.4Z" class="g2_471"/>
<path d="M119.2,756H287.3V731.7H119.2V756Z" class="g3_471"/>
<path d="M287.3,756H119.2V731.7H287.3V756Z" class="g2_471"/>
<path d="M121.4,846.9H289.5V822.6H121.4v24.3Z" class="g1_471"/>
<path d="M289.5,846.9H121.4V822.6H289.5v24.3Z" class="g2_471"/>
<path d="M119.2,844.7H287.3V820.4H119.2v24.3Z" class="g3_471"/>
<path d="M287.3,844.7H119.2V820.4H287.3v24.3Z" class="g2_471"/>
<path d="M376,227.5H544V203.2H376v24.3Z" class="g1_471"/>
<path d="M544,227.5H376V203.2H544v24.3Z" class="g2_471"/>
<path d="M373.8,225.3h168V201h-168v24.3Z" class="g3_471"/>
<path d="M541.8,225.3h-168V201h168v24.3Z" class="g2_471"/>
<path d="M374.9,770.9h168V649.2h-168V770.9Z" class="g1_471"/>
<path d="M542.9,770.9h-168V649.2h168V770.9Z" class="g2_471"/>
<path d="M372.7,671.4h168V647h-168v24.4Z" class="g3_471"/>
<path d="M540.7,671.4h-168V647h168v24.4Z" class="g2_471"/>
<path d="M372.7,695.7h168V671.4h-168v24.3Z" class="g3_471"/>
<path d="M540.7,695.7h-168V671.4h168v24.3Z" class="g2_471"/>
<path d="M372.7,720h168V695.7h-168V720Z" class="g3_471"/>
<path d="M540.7,720h-168V695.7h168V720Z" class="g2_471"/>
<path d="M372.7,744.3h168V720h-168v24.3Z" class="g3_471"/>
<path d="M540.7,744.3h-168V720h168v24.3Z" class="g2_471"/>
<path d="M372.7,768.7h168V744.3h-168v24.4Z" class="g3_471"/>
<path d="M540.7,768.7h-168V744.3h168v24.4Z" class="g2_471"/>
<path d="M376,303H544V278.7H376V303Z" class="g1_471"/>
<path d="M544,303H376V278.7H544V303Z" class="g2_471"/>
<path d="M373.8,300.8h168V276.5h-168v24.3Z" class="g3_471"/>
<path d="M541.8,300.8h-168V276.5h168v24.3Z" class="g2_471"/>
<path d="M374.9,597.5h168V354.2h-168V597.5Z" class="g1_471"/>
<path d="M542.9,597.5h-168V354.2h168V597.5Z" class="g2_471"/>
<path d="M372.7,376.4h168V352h-168v24.4Z" class="g3_471"/>
<path d="M540.7,376.4h-168V352h168v24.4Z" class="g2_471"/>
<path d="M372.7,400.7h168V376.4h-168v24.3Z" class="g3_471"/>
<path d="M540.7,400.7h-168V376.4h168v24.3Z" class="g2_471"/>
<path d="M372.7,425h168V400.7h-168V425Z" class="g3_471"/>
<path d="M540.7,425h-168V400.7h168V425Z" class="g2_471"/>
<path d="M372.7,473.6h168V449.3h-168v24.3Z" class="g3_471"/>
<path d="M540.7,473.6h-168V449.3h168v24.3Z" class="g2_471"/>
<path d="M372.7,498h168V473.6h-168V498Z" class="g3_471"/>
<path d="M540.7,498h-168V473.6h168V498Z" class="g2_471"/>
<path d="M372.7,522.3h168V498h-168v24.3Z" class="g3_471"/>
<path d="M540.7,522.3h-168V498h168v24.3Z" class="g2_471"/>
<path d="M372.7,546.6h168V522.3h-168v24.3Z" class="g3_471"/>
<path d="M540.7,546.6h-168V522.3h168v24.3Z" class="g2_471"/>
<path d="M372.7,570.9h168V546.6h-168v24.3Z" class="g3_471"/>
<path d="M540.7,570.9h-168V546.6h168v24.3Z" class="g2_471"/>
<path d="M372.7,595.3h168V570.9h-168v24.4Z" class="g3_471"/>
<path d="M540.7,595.3h-168V570.9h168v24.4Z" class="g2_471"/>
<path d="M372.7,449.3h168V425h-168v24.3Z" class="g3_471"/>
<path d="M540.7,449.3h-168V425h168v24.3Z" class="g2_471"/>
<path d="M628.9,516.9h168v-73h-168v73Z" class="g1_471"/>
<path d="M796.9,516.9h-168v-73h168v73Z" class="g2_471"/>
<path d="M626.7,466h168V441.7h-168V466Z" class="g3_471"/>
<path d="M794.7,466h-168V441.7h168V466Z" class="g2_471"/>
<path d="M626.7,490.4h168V466h-168v24.4Z" class="g3_471"/>
<path d="M794.7,490.4h-168V466h168v24.4Z" class="g2_471"/>
<path d="M626.7,514.7h168V490.3h-168v24.4Z" class="g3_471"/>
<path d="M794.7,514.7h-168V490.3h168v24.4Z" class="g2_471"/>
</svg>