<?xml version="1.0" encoding="UTF-8" standalone="no"?>
<!DOCTYPE svg PUBLIC "-//W3C//DTD SVG 1.1//EN"
"http://www.w3.org/Graphics/SVG/1.1/DTD/svg11.dtd">
<svg viewBox="0 0 935 1210" version="1.1" xmlns="http://www.w3.org/2000/svg" xmlns:xlink="http://www.w3.org/1999/xlink">
<defs>
<style type="text/css"><![CDATA[
.g0_1921{
fill: #FFF;
}
.g1_1921{
fill: #000;
}
]]></style>
</defs>
<path d="M68.9,1149.3H755.2v-21.2H68.9v21.2Z" class="g0_1921"/>
<path d="M771.3,1149.3H855v-21.2H771.3v21.2Z" class="g0_1921"/>
<path d="M69.9,425.9h.8V147h-.8V425.9Z" class="g1_1921"/>
<path d="M320.8,426.6h.8V146.3h-.8V426.6Z" class="g1_1921"/>
<path d="M363.5,426.6h.7V146.3h-.7V426.6Z" class="g1_1921"/>
<path d="M436.9,426.6h.7V146.3h-.7V426.6Z" class="g1_1921"/>
<path d="M561.6,426.6h.8V146.3h-.8V426.6Z" class="g1_1921"/>
<path d="M853,425.9h.7V147H853V425.9Z" class="g1_1921"/>
<path d="M69.9,147H853.7v-.7H69.9v.7Z" class="g1_1921"/>
<path d="M69.9,200.5H853.7v-.8H69.9v.8Z" class="g1_1921"/>
<path d="M69.9,257H853.7v-.7H69.9v.7Z" class="g1_1921"/>
<path d="M69.9,313.6H853.7v-.7H69.9v.7Z" class="g1_1921"/>
<path d="M69.9,370.1H853.7v-.8H69.9v.8Z" class="g1_1921"/>
<path d="M69.9,426.6H853.7v-.7H69.9v.7Z" class="g1_1921"/>
<path d="M69.9,529.7h.8V481.6h-.8v48.1Z" class="g1_1921"/>
<path d="M135.7,530.6h.7V480.9h-.7v49.7Z" class="g1_1921"/>
<path d="M228.9,530.6h.7V480.9h-.7v49.7Z" class="g1_1921"/>
<path d="M375,530.6h.7V480.9H375v49.7Z" class="g1_1921"/>
<path d="M534.9,530.6h.7V480.9h-.7v49.7Z" class="g1_1921"/>
<path d="M693.5,530.6h.8V480.9h-.8v49.7Z" class="g1_1921"/>
<path d="M850.2,529.7h.7V481.6h-.7v48.1Z" class="g1_1921"/>
<path d="M69.9,481.6H851v-.7H69.9v.7Z" class="g1_1921"/>
<path d="M69.9,506.1H851v-.7H69.9v.7Z" class="g1_1921"/>
<path d="M69.9,530.6H851v-.8H69.9v.8Z" class="g1_1921"/>
</svg>