<?xml version="1.0" encoding="UTF-8" standalone="no"?>
<!DOCTYPE svg PUBLIC "-//W3C//DTD SVG 1.1//EN"
"http://www.w3.org/Graphics/SVG/1.1/DTD/svg11.dtd">
<svg viewBox="0 0 935 1210" version="1.1" xmlns="http://www.w3.org/2000/svg" xmlns:xlink="http://www.w3.org/1999/xlink">
<defs>
<style type="text/css"><![CDATA[
.g0_3703{
fill: #FFF;
}
.g1_3703{
fill: #000;
}
]]></style>
</defs>
<path d="M68.9,1149.3H852.7v-21.2H68.9v21.2Z" class="g0_3703"/>
<path d="M69.9,335.8h.8V124.1h-.8V335.8Z" class="g1_3703"/>
<path d="M265.2,336.5h.7V123.4h-.7V336.5Z" class="g1_3703"/>
<path d="M852.2,335.8h.8V124.1h-.8V335.8Z" class="g1_3703"/>
<path d="M69.9,124.1H853v-.7H69.9v.7Z" class="g1_3703"/>
<path d="M69.9,148.6H853v-.7H69.9v.7Z" class="g1_3703"/>
<path d="M69.9,173H853v-.8H69.9v.8Z" class="g1_3703"/>
<path d="M69.9,197.4H853v-.7H69.9v.7Z" class="g1_3703"/>
<path d="M69.9,221.9H853v-.7H69.9v.7Z" class="g1_3703"/>
<path d="M69.9,246.3H853v-.7H69.9v.7Z" class="g1_3703"/>
<path d="M69.9,270.8H853v-.7H69.9v.7Z" class="g1_3703"/>
<path d="M69.9,295.3H853v-.8H69.9v.8Z" class="g1_3703"/>
<path d="M69.9,336.5H853v-.7H69.9v.7Z" class="g1_3703"/>
</svg>