<?xml version="1.0" encoding="UTF-8" standalone="no"?>
<!DOCTYPE svg PUBLIC "-//W3C//DTD SVG 1.1//EN"
"http://www.w3.org/Graphics/SVG/1.1/DTD/svg11.dtd">
<svg viewBox="0 0 935 1210" version="1.1" xmlns="http://www.w3.org/2000/svg" xmlns:xlink="http://www.w3.org/1999/xlink">
<defs>
<clipPath id="c0_3253"><path d="M766.6,59.2V41.4h72.2V59.2Z"/></clipPath>
<style type="text/css"><![CDATA[
.g0_3253{
fill: #000;
}
]]></style>
</defs>
<path d="M97.4,63.3H839.9v-.4H97.4v.4Z" class="g0_3253"/>
<path d="M96.1,1114.5h.2v-.4h-.2v.4Z" class="g0_3253"/>
<path d="M96.3,1114.5H838.9v-.4H96.3v.4Z" class="g0_3253"/>
<image clip-path="url(#c0_3253)" preserveAspectRatio="none" x="767" y="41" width="72" height="18" xlink:href="img/1.jpg"/>
<path d="M95.9,325.1h.7V189.4h-.7V325.1Z" class="g0_3253"/>
<path d="M247.1,325.8h.8V186.4h-.8V325.8Z" class="g0_3253"/>
<path d="M288.9,325.8h.8V186.4h-.8V325.8Z" class="g0_3253"/>
<path d="M347.2,325.8h.8V186.4h-.8V325.8Z" class="g0_3253"/>
<path d="M423.1,325.8h.8V186.4h-.8V325.8Z" class="g0_3253"/>
<path d="M840,325.1h.8V189.4H840V325.1Z" class="g0_3253"/>
<path d="M95.9,189.5H840.8v-3H95.9v3Z" class="g0_3253"/>
<path d="M95.9,232.2H840.8v-3H95.9v3Z" class="g0_3253"/>
<path d="M95.9,270.8H840.8v-.7H95.9v.7Z" class="g0_3253"/>
<path d="M95.9,325.8H840.8v-.7H95.9v.7Z" class="g0_3253"/>
</svg>