<?xml version="1.0" encoding="UTF-8" standalone="no"?>
<!DOCTYPE svg PUBLIC "-//W3C//DTD SVG 1.1//EN"
"http://www.w3.org/Graphics/SVG/1.1/DTD/svg11.dtd">
<svg viewBox="0 0 935 1210" version="1.1" xmlns="http://www.w3.org/2000/svg" xmlns:xlink="http://www.w3.org/1999/xlink">
<defs>
<style type="text/css"><![CDATA[
.g0_245{
fill: #000;
}
]]></style>
</defs>
<path d="M76.8,520.5h.4v-131h-.4v131Z" class="g0_245"/>
<path d="M101.4,520.9h.3V389.1h-.3V520.9Z" class="g0_245"/>
<path d="M126,520.9h.3V389.1H126V520.9Z" class="g0_245"/>
<path d="M150.5,520.9h.4V389.1h-.4V520.9Z" class="g0_245"/>
<path d="M175.1,520.9h.3V389.1h-.3V520.9Z" class="g0_245"/>
<path d="M199.6,520.9h.4V389.1h-.4V520.9Z" class="g0_245"/>
<path d="M224.2,520.9h.4V389.1h-.4V520.9Z" class="g0_245"/>
<path d="M248.8,520.9h.4V389.1h-.4V520.9Z" class="g0_245"/>
<path d="M273.3,520.9h.4V389.1h-.4V520.9Z" class="g0_245"/>
<path d="M297.9,520.9h.4V389.1h-.4V520.9Z" class="g0_245"/>
<path d="M341.3,520.9h.3V389.1h-.3V520.9Z" class="g0_245"/>
<path d="M403.4,520.9h.4V389.1h-.4V520.9Z" class="g0_245"/>
<path d="M428,520.9h.4V389.1H428V520.9Z" class="g0_245"/>
<path d="M464.8,520.9h.4V389.1h-.4V520.9Z" class="g0_245"/>
<path d="M514,520.9h.3V389.1H514V520.9Z" class="g0_245"/>
<path d="M538.5,520.9h.4V389.1h-.4V520.9Z" class="g0_245"/>
<path d="M563.1,520.9h.4V389.1h-.4V520.9Z" class="g0_245"/>
<path d="M587.7,520.9h.3V389.1h-.3V520.9Z" class="g0_245"/>
<path d="M612.2,520.9h.4V389.1h-.4V520.9Z" class="g0_245"/>
<path d="M636.7,520.9h.4V389.1h-.4V520.9Z" class="g0_245"/>
<path d="M661.3,520.9h.3V389.1h-.3V520.9Z" class="g0_245"/>
<path d="M685.9,520.9h.3V389.1h-.3V520.9Z" class="g0_245"/>
<path d="M710.4,520.9h.4V389.1h-.4V520.9Z" class="g0_245"/>
<path d="M735,520.9h.3V389.1H735V520.9Z" class="g0_245"/>
<path d="M759.6,520.9h.3V389.1h-.3V520.9Z" class="g0_245"/>
<path d="M784.1,520.9h.4V389.1h-.4V520.9Z" class="g0_245"/>
<path d="M808.7,520.9h.4V389.1h-.4V520.9Z" class="g0_245"/>
<path d="M833.3,520.9h.3V389.1h-.3V520.9Z" class="g0_245"/>
<path d="M857.8,520.5h.4v-131h-.4v131Z" class="g0_245"/>
<path d="M76.8,389.5H858.2v-.4H76.8v.4Z" class="g0_245"/>
<path d="M76.8,520.9H858.2v-.3H76.8v.3Z" class="g0_245"/>
<path d="M80.5,1045.9h.7V602.1h-.7v443.8Z" class="g0_245"/>
<path d="M154.9,1046.7h.8V633.4h-.8v413.3Z" class="g0_245"/>
<path d="M208.2,1046.7h.7V601.3h-.7v445.4Z" class="g0_245"/>
<path d="M538.2,1046.7h.7V601.3h-.7v445.4Z" class="g0_245"/>
<path d="M642.9,1046.7h.8V601.3h-.8v445.4Z" class="g0_245"/>
<path d="M747.1,1046.7h.7V601.3h-.7v445.4Z" class="g0_245"/>
<path d="M853.8,1045.9h.7V602.1h-.7v443.8Z" class="g0_245"/>
<path d="M80.5,602.1h774v-.8H80.5v.8Z" class="g0_245"/>
<path d="M80.5,634.1H208.9v-.7H80.5v.7Z" class="g0_245"/>
<path d="M81.2,664.3H853.8v-.7H81.2v.7Z" class="g0_245"/>
<path d="M81.2,668.2H853.8v-.8H81.2v.8Z" class="g0_245"/>
<path d="M80.5,745.7h774V745H80.5v.7Z" class="g0_245"/>
<path d="M80.5,774.7h774v-.8H80.5v.8Z" class="g0_245"/>
<path d="M80.5,921.3h774v-.7H80.5v.7Z" class="g0_245"/>
<path d="M80.5,1046.7h774v-.8H80.5v.8Z" class="g0_245"/>
<path d="M220.7,897h.4V821h-.4v76Z" class="g0_245"/>
<path d="M303.2,897.3h.4V820.6h-.4v76.7Z" class="g0_245"/>
<path d="M523.2,897h.4V821h-.4v76Z" class="g0_245"/>
<path d="M220.7,821H523.6v-.4H220.7v.4Z" class="g0_245"/>
<path d="M221.1,847.5H523.2v-.8H221.1v.8Z" class="g0_245"/>
<path d="M221.1,849.8H523.2V849H221.1v.8Z" class="g0_245"/>
<path d="M220.7,872.9H523.6v-.3H220.7v.3Z" class="g0_245"/>
<path d="M220.7,897.3H523.6V897H220.7v.3Z" class="g0_245"/>
<path d="M222.1,1026.9h.4v-76h-.4v76Z" class="g0_245"/>
<path d="M304.6,1027.2h.4V950.5h-.4v76.7Z" class="g0_245"/>
<path d="M524.6,1026.9h.4v-76h-.4v76Z" class="g0_245"/>
<path d="M222.1,950.9H525v-.4H222.1v.4Z" class="g0_245"/>
<path d="M222.5,977.4H524.6v-.8H222.5v.8Z" class="g0_245"/>
<path d="M222.5,979.6H524.6v-.7H222.5v.7Z" class="g0_245"/>
<path d="M222.1,1002.7H525v-.3H222.1v.3Z" class="g0_245"/>
<path d="M222.1,1027.2H525v-.3H222.1v.3Z" class="g0_245"/>
</svg>