<?xml version="1.0" encoding="UTF-8" standalone="no"?>
<!DOCTYPE svg PUBLIC "-//W3C//DTD SVG 1.1//EN"
"http://www.w3.org/Graphics/SVG/1.1/DTD/svg11.dtd">
<svg viewBox="0 0 935 1210" version="1.1" xmlns="http://www.w3.org/2000/svg" xmlns:xlink="http://www.w3.org/1999/xlink">
<defs>
<clipPath id="c0_3017"><path d="M766.6,59.2V41.4h72.2V59.2Z"/></clipPath>
<style type="text/css"><![CDATA[
.g0_3017{
fill: #000;
}
]]></style>
</defs>
<path d="M97.4,63.3H839.9v-.4H97.4v.4Z" class="g0_3017"/>
<path d="M96.1,1114.5h.2v-.4h-.2v.4Z" class="g0_3017"/>
<path d="M96.3,1114.5H838.9v-.4H96.3v.4Z" class="g0_3017"/>
<image clip-path="url(#c0_3017)" preserveAspectRatio="none" x="767" y="41" width="72" height="18" xlink:href="img/1.jpg"/>
<path d="M95.9,364.7h.7V180.2h-.7V364.7Z" class="g0_3017"/>
<path d="M294.9,365.5h.7V177.2h-.7V365.5Z" class="g0_3017"/>
<path d="M342.7,365.5h.8V177.2h-.8V365.5Z" class="g0_3017"/>
<path d="M405.1,365.5h.7V177.2h-.7V365.5Z" class="g0_3017"/>
<path d="M486,365.5h.8V177.2H486V365.5Z" class="g0_3017"/>
<path d="M841.2,364.7h.8V180.2h-.8V364.7Z" class="g0_3017"/>
<path d="M95.9,180.3H842v-3H95.9v3Z" class="g0_3017"/>
<path d="M95.9,223H842v-3H95.9v3Z" class="g0_3017"/>
<path d="M294.9,246.3H842.1v-.7H294.9v.7Z" class="g0_3017"/>
<path d="M95.9,301.3H842v-.7H95.9v.7Z" class="g0_3017"/>
<path d="M95.9,325.8H842v-.7H95.9v.7Z" class="g0_3017"/>
<path d="M95.9,365.5H842v-.8H95.9v.8Z" class="g0_3017"/>
</svg>