<?xml version="1.0" encoding="UTF-8" standalone="no"?>
<!DOCTYPE svg PUBLIC "-//W3C//DTD SVG 1.1//EN"
"http://www.w3.org/Graphics/SVG/1.1/DTD/svg11.dtd">
<svg viewBox="0 0 935 1210" version="1.1" xmlns="http://www.w3.org/2000/svg" xmlns:xlink="http://www.w3.org/1999/xlink">
<defs>
<clipPath id="c0_2030"><path d="M766.6,59.2V41.4h72.2V59.2Z"/></clipPath>
<style type="text/css"><![CDATA[
.g0_2030{
fill: #000;
}
]]></style>
</defs>
<path d="M97.4,63.3H839.9v-.4H97.4v.4Z" class="g0_2030"/>
<path d="M96.1,1114.5h.2v-.4h-.2v.4Z" class="g0_2030"/>
<path d="M96.3,1114.5H838.9v-.4H96.3v.4Z" class="g0_2030"/>
<image clip-path="url(#c0_2030)" preserveAspectRatio="none" x="767" y="41" width="72" height="18" xlink:href="img/1.jpg"/>
<path d="M519.9,324.9h31.5v-1.1H519.9v1.1Z" class="g0_2030"/>
<path d="M671.9,324.9h20.5v-1.1H671.9v1.1Z" class="g0_2030"/>
<path d="M519.9,347.8h31.5v-1.1H519.9v1.1Z" class="g0_2030"/>
<path d="M671.9,347.8h20.5v-1.1H671.9v1.1Z" class="g0_2030"/>
<path d="M95.9,619.9h.7V531.7h-.7v88.2Z" class="g0_2030"/>
<path d="M139.5,599.2h.8V528.6h-.8v70.6Z" class="g0_2030"/>
<path d="M183.2,599.2h.8V528.6h-.8v70.6Z" class="g0_2030"/>
<path d="M226.9,599.2h.7V575.6h-.7v23.6Z" class="g0_2030"/>
<path d="M270.6,599.2h.7V528.6h-.7v70.6Z" class="g0_2030"/>
<path d="M314.2,599.2h.8V528.6h-.8v70.6Z" class="g0_2030"/>
<path d="M358,599.2h.7V528.6H358v70.6Z" class="g0_2030"/>
<path d="M401.6,599.2h.7V528.6h-.7v70.6Z" class="g0_2030"/>
<path d="M445.3,599.2h.8V528.6h-.8v70.6Z" class="g0_2030"/>
<path d="M489,599.2h.7V528.6H489v70.6Z" class="g0_2030"/>
<path d="M532.7,599.2h.7V528.6h-.7v70.6Z" class="g0_2030"/>
<path d="M576.3,599.2h.7V528.6h-.7v70.6Z" class="g0_2030"/>
<path d="M620,599.2h.8V528.6H620v70.6Z" class="g0_2030"/>
<path d="M663.7,599.2h.7V528.6h-.7v70.6Z" class="g0_2030"/>
<path d="M707.4,599.2h.7V528.6h-.7v70.6Z" class="g0_2030"/>
<path d="M751,599.2h.8V528.6H751v70.6Z" class="g0_2030"/>
<path d="M794.8,599.2h.7V528.6h-.7v70.6Z" class="g0_2030"/>
<path d="M838.4,619.9h.7V531.7h-.7v88.2Z" class="g0_2030"/>
<path d="M95.9,531.7H839.1v-3.1H95.9v3.1Z" class="g0_2030"/>
<path d="M95.9,554.6H839.1v-3H95.9v3Z" class="g0_2030"/>
<path d="M95.9,576.3H839.1v-.7H95.9v.7Z" class="g0_2030"/>
<path d="M95.9,599.2H839.1v-.7H95.9v.7Z" class="g0_2030"/>
<path d="M95.9,620.7H839.1v-.8H95.9v.8Z" class="g0_2030"/>
</svg>