<?xml version="1.0" encoding="UTF-8" standalone="no"?>
<!DOCTYPE svg PUBLIC "-//W3C//DTD SVG 1.1//EN"
"http://www.w3.org/Graphics/SVG/1.1/DTD/svg11.dtd">
<svg viewBox="0 0 935 1210" version="1.1" xmlns="http://www.w3.org/2000/svg" xmlns:xlink="http://www.w3.org/1999/xlink">
<defs>
<style type="text/css"><![CDATA[
.g0_415{
fill: #FFF;
}
.g1_415{
fill: #000;
}
]]></style>
</defs>
<path d="M68.9,1149.3H852.7v-21.2H68.9v21.2Z" class="g0_415"/>
<path d="M68.9,1000.4h.8V310.6h-.8v689.8Z" class="g1_415"/>
<path d="M328.4,1001.1h.8V309.7h-.8v691.4Z" class="g1_415"/>
<path d="M598.2,1001.1h.8V309.7h-.8v691.4Z" class="g1_415"/>
<path d="M853,1000.4h.8V310.6H853v689.8Z" class="g1_415"/>
<path d="M68.9,310.5H853.8v-.8H68.9v.8Z" class="g1_415"/>
<path d="M68.9,334.9H853.8v-.7H68.9v.7Z" class="g1_415"/>
<path d="M328.4,393H853.8v-.8H328.4v.8Z" class="g1_415"/>
<path d="M68.9,467.9H853.8v-.8H68.9v.8Z" class="g1_415"/>
<path d="M328.4,509.1H853.8v-.7H328.4v.7Z" class="g1_415"/>
<path d="M328.4,550.4H853.8v-.8H328.4v.8Z" class="g1_415"/>
<path d="M328.4,591.6H853.8v-.7H328.4v.7Z" class="g1_415"/>
<path d="M68.9,778.1H853.8v-.8H68.9v.8Z" class="g1_415"/>
<path d="M68.9,802.4H853.8v-.7H68.9v.7Z" class="g1_415"/>
<path d="M328.4,843.7H853.8V843H328.4v.7Z" class="g1_415"/>
<path d="M328.4,885H853.8v-.8H328.4v.8Z" class="g1_415"/>
<path d="M68.9,926.2H853.8v-.7H68.9v.7Z" class="g1_415"/>
<path d="M68.9,1001.1H853.8v-.7H68.9v.7Z" class="g1_415"/>
</svg>