<?xml version="1.0" encoding="UTF-8" standalone="no"?>
<!DOCTYPE svg PUBLIC "-//W3C//DTD SVG 1.1//EN"
"http://www.w3.org/Graphics/SVG/1.1/DTD/svg11.dtd">
<svg viewBox="0 0 935 1210" version="1.1" xmlns="http://www.w3.org/2000/svg" xmlns:xlink="http://www.w3.org/1999/xlink">
<defs>
<clipPath id="c0_2045"><path d="M97.3,59.2V41.4h72.1V59.2Z"/></clipPath>
<style type="text/css"><![CDATA[
.g0_2045{
fill: #000;
}
]]></style>
</defs>
<path d="M96.3,63.3H838.8v-.4H96.3v.4Z" class="g0_2045"/>
<path d="M96.1,1114.5h.2v-.4h-.2v.4Z" class="g0_2045"/>
<path d="M96.3,1114.5H838.9v-.4H96.3v.4Z" class="g0_2045"/>
<image clip-path="url(#c0_2045)" preserveAspectRatio="none" x="97" y="41" width="73" height="18" xlink:href="img/1.jpg"/>
<path d="M552.2,983.3h31.3v-1.1H552.2v1.1Z" class="g0_2045"/>
<path d="M552.2,1006.2h31.3v-1.1H552.2v1.1Z" class="g0_2045"/>
<path d="M95.9,760.5h.7v-68h-.7v68Z" class="g0_2045"/>
<path d="M216,761.2h.7V691.7H216v69.5Z" class="g0_2045"/>
<path d="M293.3,761.2h.8V691.7h-.8v69.5Z" class="g0_2045"/>
<path d="M839.1,760.5h.7v-68h-.7v68Z" class="g0_2045"/>
<path d="M95.9,692.4h744v-.7H95.9v.7Z" class="g0_2045"/>
<path d="M95.9,716.6h744v-3.1H95.9v3.1Z" class="g0_2045"/>
<path d="M95.9,738.3h744v-.8H95.9v.8Z" class="g0_2045"/>
<path d="M95.9,761.2h744v-.7H95.9v.7Z" class="g0_2045"/>
</svg>