<?xml version="1.0" encoding="UTF-8" standalone="no"?>
<!DOCTYPE svg PUBLIC "-//W3C//DTD SVG 1.1//EN"
"http://www.w3.org/Graphics/SVG/1.1/DTD/svg11.dtd">
<svg viewBox="0 0 935 1210" version="1.1" xmlns="http://www.w3.org/2000/svg" xmlns:xlink="http://www.w3.org/1999/xlink">
<defs>
<style type="text/css"><![CDATA[
.g0_799{
fill: #FFF;
}
.g1_799{
fill: #000;
}
]]></style>
</defs>
<path d="M68.9,1149.3H755.2v-21.2H68.9v21.2Z" class="g0_799"/>
<path d="M771.3,1149.3H855v-21.2H771.3v21.2Z" class="g0_799"/>
<path d="M69.9,1027.9h.8V125.7h-.8v902.2Z" class="g1_799"/>
<path d="M318.6,1028.6h.8V124.9h-.8v903.7Z" class="g1_799"/>
<path d="M395.3,1028.6h.7V124.9h-.7v903.7Z" class="g1_799"/>
<path d="M469.8,1028.6h.7V124.9h-.7v903.7Z" class="g1_799"/>
<path d="M556.7,1028.6h.7V124.9h-.7v903.7Z" class="g1_799"/>
<path d="M853.8,1027.9h.7V125.7h-.7v902.2Z" class="g1_799"/>
<path d="M69.9,125.7H854.5v-.8H69.9v.8Z" class="g1_799"/>
<path d="M69.9,179.1H854.5v-.7H69.9v.7Z" class="g1_799"/>
<path d="M69.9,218.8H854.5v-.7H69.9v.7Z" class="g1_799"/>
<path d="M69.9,258.6H854.5v-.7H69.9v.7Z" class="g1_799"/>
<path d="M69.9,298.3H854.5v-.7H69.9v.7Z" class="g1_799"/>
<path d="M69.9,338H854.5v-.8H69.9v.8Z" class="g1_799"/>
<path d="M69.9,377.8H854.5V377H69.9v.8Z" class="g1_799"/>
<path d="M69.9,417.4H854.5v-.7H69.9v.7Z" class="g1_799"/>
<path d="M69.9,474H854.5v-.7H69.9v.7Z" class="g1_799"/>
<path d="M69.9,530.6H854.5v-.8H69.9v.8Z" class="g1_799"/>
<path d="M69.9,570.3H854.5v-.8H69.9v.8Z" class="g1_799"/>
<path d="M69.9,626.8H854.5v-.7H69.9v.7Z" class="g1_799"/>
<path d="M69.9,683.3H854.5v-.7H69.9v.7Z" class="g1_799"/>
<path d="M69.9,723.1H854.5v-.8H69.9v.8Z" class="g1_799"/>
<path d="M69.9,779.5H854.5v-.7H69.9v.7Z" class="g1_799"/>
<path d="M69.9,836.1H854.5v-.7H69.9v.7Z" class="g1_799"/>
<path d="M69.9,875.8H854.5v-.7H69.9v.7Z" class="g1_799"/>
<path d="M69.9,932.3H854.5v-.7H69.9v.7Z" class="g1_799"/>
<path d="M69.9,988.9H854.5v-.7H69.9v.7Z" class="g1_799"/>
<path d="M69.9,1028.6H854.5v-.7H69.9v.7Z" class="g1_799"/>
</svg>