<?xml version="1.0" encoding="UTF-8" standalone="no"?>
<!DOCTYPE svg PUBLIC "-//W3C//DTD SVG 1.1//EN"
"http://www.w3.org/Graphics/SVG/1.1/DTD/svg11.dtd">
<svg viewBox="0 0 935 1210" version="1.1" xmlns="http://www.w3.org/2000/svg" xmlns:xlink="http://www.w3.org/1999/xlink">
<defs>
<clipPath id="c0_2383"><path d="M97.3,59.2V41.4h72.1V59.2Z"/></clipPath>
<style type="text/css"><![CDATA[
.g0_2383{
fill: #000;
}
]]></style>
</defs>
<path d="M96.3,63.3H838.8v-.4H96.3v.4Z" class="g0_2383"/>
<path d="M96.1,1114.5h.2v-.4h-.2v.4Z" class="g0_2383"/>
<path d="M96.3,1114.5H838.9v-.4H96.3v.4Z" class="g0_2383"/>
<image clip-path="url(#c0_2383)" preserveAspectRatio="none" x="97" y="41" width="73" height="18" xlink:href="img/1.jpg"/>
<path d="M564.3,994h31.3v-1.1H564.3V994Z" class="g0_2383"/>
<path d="M687.8,994h20.3v-1.1H687.8V994Z" class="g0_2383"/>
<path d="M708.1,994h8.5v-1.1h-8.5V994Z" class="g0_2383"/>
<path d="M564.3,1017h31.3v-1.1H564.3v1.1Z" class="g0_2383"/>
<path d="M687.8,1017h20.3v-1.1H687.8v1.1Z" class="g0_2383"/>
<path d="M708.1,1017h8.5v-1.1h-8.5v1.1Z" class="g0_2383"/>
<path d="M95.9,771.2h.7V680.3h-.7v90.9Z" class="g0_2383"/>
<path d="M258.5,771.9h.7V679.5h-.7v92.4Z" class="g0_2383"/>
<path d="M335.9,771.9h.7V679.5h-.7v92.4Z" class="g0_2383"/>
<path d="M839.9,771.2h.8V680.3h-.8v90.9Z" class="g0_2383"/>
<path d="M95.9,680.3H840.8v-.8H95.9v.8Z" class="g0_2383"/>
<path d="M95.9,704.4H840.8v-3.1H95.9v3.1Z" class="g0_2383"/>
<path d="M95.9,726.1H840.8v-.7H95.9v.7Z" class="g0_2383"/>
<path d="M95.9,749H840.8v-.7H95.9v.7Z" class="g0_2383"/>
<path d="M95.9,771.9H840.8v-.7H95.9v.7Z" class="g0_2383"/>
</svg>