<?xml version="1.0" encoding="UTF-8" standalone="no"?>
<!DOCTYPE svg PUBLIC "-//W3C//DTD SVG 1.1//EN"
"http://www.w3.org/Graphics/SVG/1.1/DTD/svg11.dtd">
<svg viewBox="0 0 935 1210" version="1.1" xmlns="http://www.w3.org/2000/svg" xmlns:xlink="http://www.w3.org/1999/xlink">
<defs>
<clipPath id="c0_3328"><path d="M97.3,59.2V41.4h72.1V59.2Z"/></clipPath>
<style type="text/css"><![CDATA[
.g0_3328{
fill: #000;
}
]]></style>
</defs>
<path d="M96.3,63.3H838.8v-.4H96.3v.4Z" class="g0_3328"/>
<path d="M96.1,1114.5h.2v-.4h-.2v.4Z" class="g0_3328"/>
<path d="M96.3,1114.5H838.9v-.4H96.3v.4Z" class="g0_3328"/>
<image clip-path="url(#c0_3328)" preserveAspectRatio="none" x="97" y="41" width="73" height="18" xlink:href="img/1.jpg"/>
<path d="M95.9,642.9h.7V189.4h-.7V642.9Z" class="g0_3328"/>
<path d="M248.2,325.8h.8V186.4h-.8V325.8Z" class="g0_3328"/>
<path d="M248.2,643.6h.8V349.4h-.8V643.6Z" class="g0_3328"/>
<path d="M293.3,325.8h.8V186.4h-.8V325.8Z" class="g0_3328"/>
<path d="M293.3,643.6h.8V349.4h-.8V643.6Z" class="g0_3328"/>
<path d="M350.5,325.8h.8V186.4h-.8V325.8Z" class="g0_3328"/>
<path d="M350.5,643.6h.8V349.4h-.8V643.6Z" class="g0_3328"/>
<path d="M426.4,325.8h.8V186.4h-.8V325.8Z" class="g0_3328"/>
<path d="M426.4,643.6h.8V349.4h-.8V643.6Z" class="g0_3328"/>
<path d="M841.1,642.9h.8V189.4h-.8V642.9Z" class="g0_3328"/>
<path d="M95.9,189.5h746v-3H95.9v3Z" class="g0_3328"/>
<path d="M95.9,232.2h746v-3H95.9v3Z" class="g0_3328"/>
<path d="M95.9,270.8h746v-.7H95.9v.7Z" class="g0_3328"/>
<path d="M95.9,325.8h746v-.7H95.9v.7Z" class="g0_3328"/>
<path d="M95.9,350.3h746v-.8H95.9v.8Z" class="g0_3328"/>
<path d="M248.2,374.6H841.9v-.7H248.2v.7Z" class="g0_3328"/>
<path d="M95.9,414.4h746v-.7H95.9v.7Z" class="g0_3328"/>
<path d="M95.9,469.4h746v-.7H95.9v.7Z" class="g0_3328"/>
<path d="M95.9,524.4h746v-.7H95.9v.7Z" class="g0_3328"/>
<path d="M95.9,564.1h746v-.7H95.9v.7Z" class="g0_3328"/>
<path d="M95.9,603.8h746v-.7H95.9v.7Z" class="g0_3328"/>
<path d="M95.9,643.6h746v-.7H95.9v.7Z" class="g0_3328"/>
</svg>