<?xml version="1.0" encoding="UTF-8" standalone="no"?>
<!DOCTYPE svg PUBLIC "-//W3C//DTD SVG 1.1//EN"
"http://www.w3.org/Graphics/SVG/1.1/DTD/svg11.dtd">
<svg viewBox="0 0 935 1210" version="1.1" xmlns="http://www.w3.org/2000/svg" xmlns:xlink="http://www.w3.org/1999/xlink">
<defs>
<style type="text/css"><![CDATA[
.g0_293{
fill: #000;
}
]]></style>
</defs>
<path d="M98.6,1037.9h.8V134.8h-.8v903.1Z" class="g0_293"/>
<path d="M175.6,1038.7h.8V161.5h-.8v877.2Z" class="g0_293"/>
<path d="M244.4,1038.7h.7V134h-.7v904.7Z" class="g0_293"/>
<path d="M574.4,1038.7h.7V134h-.7v904.7Z" class="g0_293"/>
<path d="M643.1,1038.7h.8V134h-.8v904.7Z" class="g0_293"/>
<path d="M725.6,1038.7h.8V134h-.8v904.7Z" class="g0_293"/>
<path d="M835.6,1037.9h.8V134.8h-.8v903.1Z" class="g0_293"/>
<path d="M98.6,134.8H836.4V134H98.6v.8Z" class="g0_293"/>
<path d="M98.6,162.3H245.1v-.8H98.6v.8Z" class="g0_293"/>
<path d="M99.4,187.9H835.6v-.7H99.4v.7Z" class="g0_293"/>
<path d="M99.4,191.7H835.6v-.8H99.4v.8Z" class="g0_293"/>
<path d="M98.6,441.9H836.4v-.7H98.6v.7Z" class="g0_293"/>
<path d="M98.6,587.9H836.4v-.7H98.6v.7Z" class="g0_293"/>
<path d="M98.6,837H836.4v-.7H98.6v.7Z" class="g0_293"/>
<path d="M98.6,1038.7H836.4v-.8H98.6v.8Z" class="g0_293"/>
<path d="M258.3,401.9h.4V335h-.4v66.9Z" class="g0_293"/>
<path d="M340.8,402.3h.4V334.7h-.4v67.6Z" class="g0_293"/>
<path d="M560.8,401.9h.4V335h-.4v66.9Z" class="g0_293"/>
<path d="M258.3,335H561.2v-.3H258.3v.3Z" class="g0_293"/>
<path d="M258.7,358.5H560.8v-.7H258.7v.7Z" class="g0_293"/>
<path d="M258.7,360.8H560.8v-.7H258.7v.7Z" class="g0_293"/>
<path d="M258.3,380.9H561.2v-.4H258.3v.4Z" class="g0_293"/>
<path d="M258.3,402.3H561.2V402H258.3v.3Z" class="g0_293"/>
<path d="M258.3,568.8h.4V501.9h-.4v66.9Z" class="g0_293"/>
<path d="M340.8,569.2h.4V501.5h-.4v67.7Z" class="g0_293"/>
<path d="M560.8,568.8h.4V501.9h-.4v66.9Z" class="g0_293"/>
<path d="M258.3,501.9H561.2v-.4H258.3v.4Z" class="g0_293"/>
<path d="M258.7,525.3H560.8v-.7H258.7v.7Z" class="g0_293"/>
<path d="M258.7,527.6H560.8v-.7H258.7v.7Z" class="g0_293"/>
<path d="M258.3,547.7H561.2v-.4H258.3v.4Z" class="g0_293"/>
<path d="M258.3,569.2H561.2v-.4H258.3v.4Z" class="g0_293"/>
<path d="M258.3,816.8h.4V716.4h-.4V816.8Z" class="g0_293"/>
<path d="M340.8,817.3h.4V716h-.4V817.3Z" class="g0_293"/>
<path d="M560.8,816.8h.4V716.4h-.4V816.8Z" class="g0_293"/>
<path d="M258.3,716.4H561.2V716H258.3v.4Z" class="g0_293"/>
<path d="M258.7,739.9H560.8v-.7H258.7v.7Z" class="g0_293"/>
<path d="M258.7,742.2H560.8v-.7H258.7v.7Z" class="g0_293"/>
<path d="M258.3,779.1H561.2v-.4H258.3v.4Z" class="g0_293"/>
<path d="M258.3,817.2H561.2v-.4H258.3v.4Z" class="g0_293"/>
<path d="M258.3,1015.5h.4V931.9h-.4v83.6Z" class="g0_293"/>
<path d="M340.8,1015.9h.4V931.4h-.4v84.5Z" class="g0_293"/>
<path d="M560.8,1015.5h.4V931.9h-.4v83.6Z" class="g0_293"/>
<path d="M258.3,931.8H561.2v-.4H258.3v.4Z" class="g0_293"/>
<path d="M258.7,955.4H560.8v-.8H258.7v.8Z" class="g0_293"/>
<path d="M258.7,957.6H560.8v-.7H258.7v.7Z" class="g0_293"/>
<path d="M258.3,994.5H561.2v-.4H258.3v.4Z" class="g0_293"/>
<path d="M258.3,1015.9H561.2v-.4H258.3v.4Z" class="g0_293"/>
</svg>