<?xml version="1.0" encoding="UTF-8" standalone="no"?>
<!DOCTYPE svg PUBLIC "-//W3C//DTD SVG 1.1//EN"
"http://www.w3.org/Graphics/SVG/1.1/DTD/svg11.dtd">
<svg viewBox="0 0 935 1210" version="1.1" xmlns="http://www.w3.org/2000/svg" xmlns:xlink="http://www.w3.org/1999/xlink">
<defs>
<style type="text/css"><![CDATA[
.g0_1978{
fill: #FFF;
}
.g1_1978{
fill: #000;
}
]]></style>
</defs>
<path d="M165,1149.3H852.5v-21.2H165v21.2Z" class="g0_1978"/>
<path d="M68.8,1149.3h82.5v-21.2H68.8v21.2Z" class="g0_1978"/>
<path d="M157.7,297h.7V124.1h-.7V297Z" class="g1_1978"/>
<path d="M762.8,297h.7V124.1h-.7V297Z" class="g1_1978"/>
<path d="M157.7,124.1H763.5v-.7H157.7v.7Z" class="g1_1978"/>
<path d="M157.7,297.7H763.5V297H157.7v.7Z" class="g1_1978"/>
<path fill-rule="evenodd" d="M552.8,234.3h.3l.4,-.1c1.3,-.6,1.1,-2.6,-.4,-2.9h-.5c-1.6,.3,-1.7,2.5,-.3,2.9l.3,.1h.2Z" class="g1_1978"/>
<path d="M552.8,232.8h7.6l-.2,1l-6.6,23l-.8,2.5l-.7,-2.5l-6.6,-23l-.3,-1h1l.8,.6l6.6,22.9l-1.5,.5v-.5l6.6,-22.9l1.5,.4l-.8,.6h-6.6Z" class="g1_1978"/>
<path d="M546.2,234.4h6.6v-1.6h-6.6v1.6Z" class="g1_1978"/>
<path fill-rule="evenodd" d="M552.8,233.6h6.6l-6.6,22.9l-6.6,-22.9Z" class="g1_1978"/>
<path d="M551.4,232.8h3V171.6h-3v61.2Z" class="g1_1978"/>
<path d="M449.7,171.6H676.6V151H449.7v20.6Z" class="g0_1978"/>
<path d="M449.7,151.3H677v-.7H449.7v.7Z" class="g1_1978"/>
<path d="M676.2,172h.8V151h-.8v21Z" class="g1_1978"/>
<path d="M449.3,172H676.6v-.8H449.3v.8Z" class="g1_1978"/>
<path d="M449.3,171.6h.8v-21h-.8v21Z" class="g1_1978"/>
<path fill-rule="evenodd" d="M349.2,250.2l.3,.6c1.1,1,3,.1,2.6,-1.4v-.2l-.2,-.3l-.4,-.4l-.2,-.2l-.3,-.1h-.7l-.2,.1c-.6,.1,-.9,.6,-.9,1.1l-.1,.3l.1,.3v.2Z" class="g1_1978"/>
<path d="M350.5,249.7l2.4,6.1l.3,1l-.9,.1L328.5,259l-2.6,.2l2.1,-1.5l19,-14.4l.9,-.7l.3,1l-.2,.9l-19,14.4l-1,-1.2l.4,-.2l23.8,-2.1l.1,1.5l-.8,-.5l-2.3,-6.2Z" class="g1_1978"/>
<path d="M348.2,243.6l2.3,6.1l-1.3,.5l-2.4,-6.1Z" class="g1_1978"/>
<path fill-rule="evenodd" d="M349.9,250l2.4,6.1l-23.8,2.1l19,-14.4Z" class="g1_1978"/>
<path d="M553.4,173.1l-1.1,-2.9L350.1,248.3l1.1,2.9Z" class="g1_1978"/>
<path d="M449.7,279.9H676.6V259.2H449.7v20.7Z" class="g0_1978"/>
<path d="M449.7,259.6H677v-.7H449.7v.7Z" class="g1_1978"/>
<path d="M676.2,280.2h.8v-21h-.8v21Z" class="g1_1978"/>
<path d="M449.3,280.2H676.6v-.7H449.3v.7Z" class="g1_1978"/>
<path d="M449.3,279.9h.8v-21h-.8v21Z" class="g1_1978"/>
<path d="M222.8,279.9H449.7V259.2H222.8v20.7Z" class="g0_1978"/>
<path d="M222.8,259.6H450.1v-.7H222.8v.7Z" class="g1_1978"/>
<path d="M449.3,280.2h.8v-21h-.8v21Z" class="g1_1978"/>
<path d="M222.5,280.2H449.7v-.7H222.5v.7Z" class="g1_1978"/>
<path d="M222.5,279.9h.7v-21h-.7v21Z" class="g1_1978"/>
</svg>