<?xml version="1.0" encoding="UTF-8" standalone="no"?>
<!DOCTYPE svg PUBLIC "-//W3C//DTD SVG 1.1//EN"
"http://www.w3.org/Graphics/SVG/1.1/DTD/svg11.dtd">
<svg viewBox="0 0 935 1210" version="1.1" xmlns="http://www.w3.org/2000/svg" xmlns:xlink="http://www.w3.org/1999/xlink">
<defs>
<style type="text/css"><![CDATA[
.g0_762{
fill: #FFF;
}
.g1_762{
fill: #000;
}
]]></style>
</defs>
<path d="M68.8,1149.3H852.5v-21.2H68.8v21.2Z" class="g0_762"/>
<path d="M68.6,777.3h.7V142.4h-.7V777.3Z" class="g1_762"/>
<path d="M259.6,778.1h.7V141.7h-.7V778.1Z" class="g1_762"/>
<path d="M473.9,778.1h.7V141.7h-.7V778.1Z" class="g1_762"/>
<path d="M687.1,778.1h.8V141.7h-.8V778.1Z" class="g1_762"/>
<path d="M852.7,777.3h.7V142.4h-.7V777.3Z" class="g1_762"/>
<path d="M68.6,142.4H853.4v-.7H68.6v.7Z" class="g1_762"/>
<path d="M68.6,166.9H853.4v-.7H68.6v.7Z" class="g1_762"/>
<path d="M68.6,224.9H853.4v-.7H68.6v.7Z" class="g1_762"/>
<path d="M68.6,283H853.4v-.8H68.6v.8Z" class="g1_762"/>
<path d="M68.6,307.4H853.4v-.7H68.6v.7Z" class="g1_762"/>
<path d="M68.6,365.5H853.4v-.8H68.6v.8Z" class="g1_762"/>
<path d="M68.6,466.4H853.4v-.7H68.6v.7Z" class="g1_762"/>
<path d="M68.6,507.7H853.4v-.8H68.6v.8Z" class="g1_762"/>
<path d="M68.6,532H853.4v-.7H68.6v.7Z" class="g1_762"/>
<path d="M68.6,573.3H853.4v-.7H68.6v.7Z" class="g1_762"/>
<path d="M68.6,614.5H853.4v-.7H68.6v.7Z" class="g1_762"/>
<path d="M68.6,639H853.4v-.7H68.6v.7Z" class="g1_762"/>
<path d="M68.6,663.5H853.4v-.8H68.6v.8Z" class="g1_762"/>
<path d="M68.6,687.9H853.4v-.8H68.6v.8Z" class="g1_762"/>
<path d="M68.6,712.3H853.4v-.7H68.6v.7Z" class="g1_762"/>
<path d="M68.6,753.6H853.4v-.7H68.6v.7Z" class="g1_762"/>
<path d="M68.6,778.1H853.4v-.8H68.6v.8Z" class="g1_762"/>
<path d="M68.6,1069.8h.7V931.6h-.7v138.2Z" class="g1_762"/>
<path d="M249.8,1070.7h.7V930.9h-.7v139.8Z" class="g1_762"/>
<path d="M443.3,1070.7h.7V930.9h-.7v139.8Z" class="g1_762"/>
<path d="M659.8,1070.7h.8V930.9h-.8v139.8Z" class="g1_762"/>
<path d="M850.6,1069.8h.7V931.6h-.7v138.2Z" class="g1_762"/>
<path d="M68.6,931.6H851.3v-.7H68.6v.7Z" class="g1_762"/>
<path d="M68.6,956H851.3v-.7H68.6v.7Z" class="g1_762"/>
<path d="M68.6,980.5H851.3v-.8H68.6v.8Z" class="g1_762"/>
<path d="M68.6,1004.9H851.3v-.7H68.6v.7Z" class="g1_762"/>
<path d="M68.6,1029.3H851.3v-.7H68.6v.7Z" class="g1_762"/>
<path d="M68.6,1070.6H851.3v-.8H68.6v.8Z" class="g1_762"/>
</svg>