<?xml version="1.0" encoding="UTF-8" standalone="no"?>
<!DOCTYPE svg PUBLIC "-//W3C//DTD SVG 1.1//EN"
"http://www.w3.org/Graphics/SVG/1.1/DTD/svg11.dtd">
<svg viewBox="0 0 935 1210" version="1.1" xmlns="http://www.w3.org/2000/svg" xmlns:xlink="http://www.w3.org/1999/xlink">
<defs>
<style type="text/css"><![CDATA[
.g0_444{
fill: #FFF;
}
.g1_444{
fill: #000;
}
]]></style>
</defs>
<path d="M68.8,1149.3H852.5v-21.2H68.8v21.2Z" class="g0_444"/>
<path d="M170.5,449.8h.7V114.9h-.7V449.8Z" class="g1_444"/>
<path d="M749.8,449.8h.8V114.9h-.8V449.8Z" class="g1_444"/>
<path d="M170.5,114.9H750.7v-.7H170.5v.7Z" class="g1_444"/>
<path d="M170.5,450.5H750.7v-.7H170.5v.7Z" class="g1_444"/>
<path d="M68.6,970.7h.7V583.5h-.7V970.7Z" class="g1_444"/>
<path d="M199,971.6h.7V582.7H199V971.6Z" class="g1_444"/>
<path d="M850.7,970.7h.7V583.5h-.7V970.7Z" class="g1_444"/>
<path d="M68.6,583.5H851.4v-.8H68.6v.8Z" class="g1_444"/>
<path d="M68.6,607.9H851.4v-.7H68.6v.7Z" class="g1_444"/>
<path d="M68.6,693.5H851.4v-.8H68.6v.8Z" class="g1_444"/>
<path d="M68.6,794.3H851.4v-.7H68.6v.7Z" class="g1_444"/>
<path d="M68.6,971.5H851.4v-.7H68.6v.7Z" class="g1_444"/>
<path d="M428.3,312.7h71V271.4h-71v41.3Z" class="g0_444"/>
<path d="M428.3,271.8h71.4v-.7H428.3v.7Z" class="g1_444"/>
<path d="M498.9,313h.8V271.4h-.8V313Z" class="g1_444"/>
<path d="M427.9,313h71.4v-.7H427.9v.7Z" class="g1_444"/>
<path d="M427.9,312.7h.7V271.1h-.7v41.6Z" class="g1_444"/>
<path d="M306.5,311.1h67.6V284.8H306.5v26.3Z" class="g0_444"/>
<path d="M306.5,285.2h68v-.8h-68v.8Z" class="g1_444"/>
<path d="M373.7,311.5h.8V284.8h-.8v26.7Z" class="g1_444"/>
<path d="M306.2,311.5h67.9v-.7H306.2v.7Z" class="g1_444"/>
<path d="M306.2,311.1h.7V284.4h-.7v26.7Z" class="g1_444"/>
<path d="M470.1,165.1h50.4V137.6H470.1v27.5Z" class="g0_444"/>
<path d="M470.1,138h50.7v-.8H470.1v.8Z" class="g1_444"/>
<path d="M520.1,165.5h.8V137.6h-.8v27.9Z" class="g1_444"/>
<path d="M469.7,165.5h50.8v-.8H469.7v.8Z" class="g1_444"/>
<path d="M469.7,165.1h.7V137.2h-.7v27.9Z" class="g1_444"/>
<path d="M211.8,165H432.9V136.1H211.8V165Z" class="g0_444"/>
<path d="M211.8,136.5H433.2v-.7H211.8v.7Z" class="g1_444"/>
<path d="M432.5,165.4h.7V136.1h-.7v29.3Z" class="g1_444"/>
<path d="M211.4,165.4H432.9v-.8H211.4v.8Z" class="g1_444"/>
<path d="M211.4,165h.7V135.8h-.7V165Z" class="g1_444"/>
<path d="M367,345h.5v-.2H367v.2Z" class="g1_444"/>
<path d="M367,348.1h.5V345H367v3.1Z" class="g1_444"/>
<path d="M367,355.9h.5v-.1H367v.1Z" class="g1_444"/>
<path d="M367,363.1h.5v-7.2H367v7.2Z" class="g1_444"/>
<path d="M367,371.1h.5v-.2H367v.2Z" class="g1_444"/>
<path d="M367,374.1h.5v-3H367v3Z" class="g1_444"/>
<path d="M212.8,203.5H422.9v-.7H212.8v.7Z" class="g1_444"/>
<path d="M422.2,258.5h.7V203.1h-.7v55.4Z" class="g1_444"/>
<path d="M212.4,258.5H422.6v-.7H212.4v.7Z" class="g1_444"/>
<path d="M212.4,258.1h.7V202.8h-.7v55.3Z" class="g1_444"/>
<path d="M298.8,379.9h82.5V338.6H298.8v41.3Z" class="g0_444"/>
<path d="M298.8,339h82.9v-.7H298.8v.7Z" class="g1_444"/>
<path d="M381,380.2h.7V338.6H381v41.6Z" class="g1_444"/>
<path d="M298.5,380.2h82.8v-.7H298.5v.7Z" class="g1_444"/>
<path d="M298.5,379.9h.7V338.3h-.7v41.6Z" class="g1_444"/>
<path d="M659.6,213h6.2v-4h-6.2v4Z" class="g1_444"/>
<path fill-rule="evenodd" d="M662.7,212.1h.4l.3,-.1c3.4,-.8,3.2,-5.4,-.3,-6h-.6c-3.5,.5,-3.7,5.3,-.3,6l.3,.1h.2Z" class="g1_444"/>
<path d="M662.4,212.4l5.7,-3.2l1.6,-1l-.5,1.9l-5.7,19.6l-.8,2.6l-.7,-2.6l-5.6,-19.6l-.5,-1.8l1.6,.9l.4,.4l5.6,19.7l-1.5,.4v-.4l5.7,-19.7l1.5,.5l-.4,.5l-5.7,3.2Z" class="g1_444"/>
<path d="M657.5,209.2l5.6,3.2v1.4l-.3,.1l-.4,-.1l-5.6,-3.2Z" class="g1_444"/>
<path fill-rule="evenodd" d="M662.7,213l5.7,-3.2l-5.7,19.6l-5.5,-19.6Z" class="g1_444"/>
<path d="M659.7,199.7h6.2v-3.9h-6.2v3.9Z" class="g1_444"/>
<path fill-rule="evenodd" d="M662.7,196.7h-.2l-.3,.1c-3.5,.8,-3.2,5.5,.3,6.1h.6c3.4,-.7,3.7,-5.3,.3,-6.1l-.3,-.1h-.4Z" class="g1_444"/>
<path d="M663.1,196.4l-5.6,3.2l-1.6,1.1l.5,-2L662,179.1l.8,-2.6l.7,2.6l5.7,19.6l.5,1.9l-1.6,-1l-.4,-.4L662,179.6l1.5,-.5v.5l-5.6,19.6l-1.5,-.5l.4,-.4l5.6,-3.2Z" class="g1_444"/>
<path d="M668.1,199.6l-5.7,-3.2v-1.3l.3,-.2l.4,.2l5.7,3.2Z" class="g1_444"/>
<path fill-rule="evenodd" d="M662.7,195.8l-5.5,3.2l5.5,-19.6l5.7,19.6Z" class="g1_444"/>
<path d="M659.7,212h6.2v-3h-6.2v3Z" class="g1_444"/>
<path d="M659.7,209h6.2V196.7h-6.2V209Z" class="g1_444"/>
<path d="M558.2,169.1h84.1V130.2H558.2v38.9Z" class="g0_444"/>
<path d="M558.2,130.5h84.5v-.7H558.2v.7Z" class="g1_444"/>
<path d="M641.9,169.5h.8V130.2h-.8v39.3Z" class="g1_444"/>
<path d="M557.9,169.5h84.4v-.7H557.9v.7Z" class="g1_444"/>
<path d="M557.9,169.1h.7V129.8h-.7v39.3Z" class="g1_444"/>
<path d="M480.9,177.2h.4v-2.1h-.4v2.1Z" class="g1_444"/>
<path d="M481.4,175.7l-2.3,1.4l-1.7,1l.5,-1.9l2.4,-8.3l.8,-2.5l.7,2.5l2.4,8.3l.5,1.8l-1.6,-.9l-.4,-.5l-2.4,-8.2l1.5,-.5v.5l-2.4,8.2l-1.5,-.4l.4,-.5l2.4,-1.4Z" class="g1_444"/>
<path d="M483.1,177.1l-2.4,-1.4v-1.4l.4,-.1l.3,.1l2.4,1.4Z" class="g1_444"/>
<path fill-rule="evenodd" d="M481.1,175.1l-2.4,1.4l2.4,-8.3l2.4,8.3Z" class="g1_444"/>
<path d="M480.8,261.5h.5v-2.1h-.5v2.1Z" class="g1_444"/>
<path d="M480.7,260.9l2.4,-1.4l1.6,-1l-.5,1.9l-2.4,8.3l-.7,2.5l-.8,-2.5L478,260.4l-.6,-1.8l1.7,.9l.3,.5l2.4,8.2l-1.5,.5v-.5l2.4,-8.2l1.5,.4l-.4,.5l-2.4,1.4Z" class="g1_444"/>
<path d="M479.1,259.5l2.3,1.4v1.4l-.3,.1l-.4,-.1l-2.4,-1.4Z" class="g1_444"/>
<path fill-rule="evenodd" d="M481.1,261.5l2.4,-1.4l-2.4,8.3l-2.4,-8.3Z" class="g1_444"/>
<path d="M480.9,177.2h.4V177h-.4v.2Z" class="g1_444"/>
<path d="M480.9,259.6h.4V177.2h-.4v82.4Z" class="g1_444"/>
<path d="M442.3,403.2H517V339H442.3v64.2Z" class="g0_444"/>
<path d="M442.3,339.3h75.1v-.7H442.3v.7Z" class="g1_444"/>
<path d="M516.6,403.5h.8V339h-.8v64.5Z" class="g1_444"/>
<path d="M441.9,403.5H517v-.7H441.9v.7Z" class="g1_444"/>
<path d="M441.9,403.2h.8V338.6h-.8v64.6Z" class="g1_444"/>
<path d="M342.8,321.7h.5v-2.1h-.5v2.1Z" class="g1_444"/>
<path d="M343.4,320.3l-2.4,1.4l-1.7,1l.6,-2l2.4,-8.1l.7,-2.5l.8,2.5l2.3,8.1l.6,1.9l-1.7,-.9l-.3,-.5L342.3,313l1.5,-.4v.4l-2.4,8.2l-1.5,-.5l.4,-.4l2.4,-1.4Z" class="g1_444"/>
<path d="M345,321.7l-2.3,-1.4v-1.4l.3,-.2l.4,.2l2.4,1.4Z" class="g1_444"/>
<path fill-rule="evenodd" d="M343,319.6l-2.4,1.4l2.4,-8.1l2.4,8.1Z" class="g1_444"/>
<path d="M342.7,331h.5v-2.1h-.5V331Z" class="g1_444"/>
<path d="M342.7,330.4L345,329l1.7,-1l-.6,1.9l-2.3,8.3l-.8,2.5l-.7,-2.5l-2.4,-8.3l-.6,-1.8l1.7,.9l.4,.5l2.4,8.2l-1.5,.5v-.5l2.4,-8.2l1.4,.4l-.3,.5l-2.4,1.3Z" class="g1_444"/>
<path d="M341,329l2.4,1.4v1.3l-.4,.2l-.3,-.2l-2.4,-1.3Z" class="g1_444"/>
<path fill-rule="evenodd" d="M343,331l2.4,-1.4l-2.4,8.3l-2.4,-8.3Z" class="g1_444"/>
<path d="M342.8,321.7h.5v-.1h-.5v.1Z" class="g1_444"/>
<path d="M342.8,329.1h.5v-7.3h-.5v7.3Z" class="g1_444"/>
<path d="M341.7,272.8h.5v-2.2h-.5v2.2Z" class="g1_444"/>
<path d="M341.5,272.2l2.3,-1.4l1.8,-1l-.6,1.9l-2.3,8.2l-.7,2.4l-.7,-2.4l-2.4,-8.2l-.6,-1.8l1.7,.9l.4,.4l2.3,8.2l-1.4,.5v-.5l2.3,-8.2l1.4,.5l-.3,.5l-2.3,1.3Z" class="g1_444"/>
<path d="M340,270.8l2.4,1.4v1.3l-.4,.2l-.4,-.2l-2.3,-1.3Z" class="g1_444"/>
<path fill-rule="evenodd" d="M342,272.8l2.3,-1.4l-2.3,8.2l-2.4,-8.2Z" class="g1_444"/>
<path d="M341.8,257.3h.5v-.2h-.5v.2Z" class="g1_444"/>
<path d="M341.8,270.8h.5V257.3h-.5v13.5Z" class="g1_444"/>
<path d="M379,195.1h.5V193H379v2.1Z" class="g1_444"/>
<path d="M378.9,194.4l2.4,-1.4l1.7,-1l-.6,2l-2.4,8.2l-.7,2.6l-.7,-2.6L376.2,194l-.6,-1.9l1.7,.9l.4,.5l2.3,8.3l-1.4,.4v-.4l2.4,-8.3l1.4,.5l-.3,.4l-2.4,1.4Z" class="g1_444"/>
<path d="M377.3,193l2.4,1.4v1.4l-.4,.2l-.3,-.2l-2.4,-1.4Z" class="g1_444"/>
<path fill-rule="evenodd" d="M379.3,195.1l2.4,-1.4l-2.4,8.2l-2.4,-8.2Z" class="g1_444"/>
<path d="M379.1,165.6h.5v-.1h-.5v.1Z" class="g1_444"/>
<path d="M379.1,193.1h.5V165.6h-.5v27.5Z" class="g1_444"/>
<path d="M509.8,329.3h.7v-1.6h-.7v1.6Z" class="g1_444"/>
<path d="M509.9,328.5l2.1,-.7l1.4,-.6l-.4,1.6l-2.1,7.4l-.8,2.5l-2.9,-9.9l-.5,-1.5l1.4,.5l.6,.5l2.2,7.5l-1.5,.4v-.4l2.1,-7.5l1.5,.5l-.5,.5l-2.1,.7Z" class="g1_444"/>
<path d="M508.1,327.8l2.2,.7l.1,1.5l-.3,.1l-2.4,-.8Z" class="g1_444"/>
<path fill-rule="evenodd" d="M510.1,329.3l2.1,-.8l-2.1,7.5l-2.2,-7.5Z" class="g1_444"/>
<path d="M575.9,182.3h.7v-1.4h-.7v1.4Z" class="g1_444"/>
<path d="M576.5,181.6l-2.1,.7l-1.5,.7l.5,-1.7l2.1,-7.4l.7,-2.5l2.9,9.9l.5,1.5l-1.4,-.5l-.5,-.5l-2.2,-7.5l1.4,-.4v.4l-2.1,7.5l-1.4,-.5l.4,-.4l2.1,-.8Z" class="g1_444"/>
<path d="M578.2,182.3l-2.2,-.7l-.1,-1.5l.3,-.1l2.5,.9Z" class="g1_444"/>
<path fill-rule="evenodd" d="M576.2,180.9l-2.1,.7l2.1,-7.4l2.2,7.4Z" class="g1_444"/>
<path d="M509.8,328.1h.7V288.6h-.7v39.5Z" class="g1_444"/>
<path d="M510.1,289.3h66.5v-.7H510.1v.7Z" class="g1_444"/>
<path d="M575.9,288.9h.7V182h-.7V288.9Z" class="g1_444"/>
<path d="M587.8,329.5h.7v-1.6h-.7v1.6Z" class="g1_444"/>
<path d="M587.9,328.7l2.1,-.8l1.4,-.7l-.4,1.7l-2.1,7.5l-.8,2.5l-.7,-2.5l-2.2,-7.5l-.5,-1.6l1.5,.6l.5,.5l2.2,7.6l-1.5,.4V336l2.1,-7.6l1.5,.5l-.5,.5l-2.1,.8Z" class="g1_444"/>
<path d="M586.2,327.9l2.2,.8v1.5l-.3,.1l-.2,-.1l-2.2,-.8Z" class="g1_444"/>
<path fill-rule="evenodd" d="M588.1,329.5l2.1,-.9l-2.1,7.5l-2.2,-7.5Z" class="g1_444"/>
<path d="M612.8,270.4h.7v-1.5h-.7v1.5Z" class="g1_444"/>
<path d="M613.4,269.6l-3.6,1.4l.4,-1.6l2.2,-7.5l.8,-2.7l.7,2.7l2.1,7.5l.5,1.6l-1.5,-.6l-.5,-.5l-2.1,-7.5l1.5,-.5v.5l-2.2,7.5l-1.5,-.5l.5,-.4l2.2,-.9Z" class="g1_444"/>
<path d="M615,270.4l-2.1,-.8v-1.5l.3,-.1l.2,.1l2.1,.8Z" class="g1_444"/>
<path fill-rule="evenodd" d="M613.2,268.9l-2.2,.8l2.2,-7.5l2.1,7.5Z" class="g1_444"/>
<path d="M587.8,328.3h.7V284.9h-.7v43.4Z" class="g1_444"/>
<path d="M588.1,285.6h25.4v-.7H588.1v.7Z" class="g1_444"/>
<path d="M612.8,285.3h.7V270h-.7v15.3Z" class="g1_444"/>
<path d="M644.1,318.3h.5v-2.1h-.5v2.1Z" class="g1_444"/>
<path d="M644.7,316.8l-2.4,1.4l-1.6,1l.5,-1.9l2.4,-8.3l.7,-2.7l.8,2.7l2.3,8.3l.5,1.9l-1.6,-1l-.4,-.5l-2.3,-8.2l1.5,-.5v.5l-2.4,8.2l-1.5,-.4l.4,-.5l2.4,-1.4Z" class="g1_444"/>
<path d="M646.3,318.2L644,316.8v-1.4l.4,-.2l.4,.2l2.3,1.4Z" class="g1_444"/>
<path fill-rule="evenodd" d="M644.3,316.2l-2.4,1.3l2.4,-8.2l2.3,8.2Z" class="g1_444"/>
<path d="M644.1,329.2h.4v-2.1h-.4v2.1Z" class="g1_444"/>
<path d="M643.9,328.5l2.3,-1.3l1.7,-1.1l-.5,2l-2.3,8.1l-.8,2.5l-.7,-2.5l-2.4,-8.1l-.5,-1.9l1.6,1l.4,.4l2.4,8.2l-1.5,.4v-.4l2.3,-8.2l1.5,.5l-.4,.4l-2.3,1.4Z" class="g1_444"/>
<path d="M642.3,327.2l2.4,1.3v1.4l-.4,.2l-.3,-.2l-2.4,-1.4Z" class="g1_444"/>
<path fill-rule="evenodd" d="M644.3,329.2l2.3,-1.4l-2.3,8.2l-2.4,-8.2Z" class="g1_444"/>
<path d="M644.1,318.3h.5v-.2h-.5v.2Z" class="g1_444"/>
<path d="M644.1,327.3h.5v-9h-.5v9Z" class="g1_444"/>
<path d="M553.1,429.6H657.4V337.9H553.1v91.7Z" class="g0_444"/>
<path d="M553.1,338.3H657.8v-.8H553.1v.8Z" class="g1_444"/>
<path d="M657.1,429.9h.7v-92h-.7v92Z" class="g1_444"/>
<path d="M552.7,429.9H657.4v-.7H552.7v.7Z" class="g1_444"/>
<path d="M552.7,429.6h.8V337.5h-.8v92.1Z" class="g1_444"/>
<path d="M384.9,303.7H387v-.5h-2.1v.5Z" class="g1_444"/>
<path d="M385.6,303l1.3,2.3l1.1,1.8l-2,-.6l-8.2,-2.3l-2.6,-.7l2.6,-.7l8.2,-2.4l1.8,-.6l-.9,1.7l-.4,.4l-8.3,2.3l-.4,-1.4h.4l8.3,2.3l-.5,1.4l-.4,-.3l-1.4,-2.3Z" class="g1_444"/>
<path d="M386.9,301.5l-1.3,2.4h-1.4l-.2,-.4l.2,-.4l1.4,-2.3Z" class="g1_444"/>
<path fill-rule="evenodd" d="M384.9,303.5l1.4,2.3L378,303.5l8.3,-2.4Z" class="g1_444"/>
<path d="M417.4,303.8h2.1v-.5h-2.1v.5Z" class="g1_444"/>
<path d="M418.8,303.9l-1.3,-2.4l-1.1,-1.7l2,.6l8.2,2.4l2.7,.7l-2.7,.7l-8.2,2.3l-2,.6l1.1,-1.7l.4,-.3l8.3,-2.3l.4,1.4h-.4l-8.3,-2.3l.5,-1.5l.4,.4l1.4,2.3Z" class="g1_444"/>
<path d="M417.4,305.4l1.4,-2.3h1.4l.3,.5l-.3,.4l-1.4,2.3Z" class="g1_444"/>
<path fill-rule="evenodd" d="M419.5,303.5l-1.4,-2.4l8.2,2.4l-8.2,2.3Z" class="g1_444"/>
<path d="M386.8,303.8h.2v-.5h-.2v.5Z" class="g1_444"/>
<path d="M387,303.8h30.5v-.5H387v.5Z" class="g1_444"/>
<path d="M442.9,150.9H445v-.5h-2.1v.5Z" class="g1_444"/>
<path d="M443.6,150.3l1.3,2.4l1.1,1.7l-2,-.6l-8.2,-2.4l-2.6,-.7l2.6,-.7l8.2,-2.4l1.9,-.6l-1,1.7l-.4,.3l-8.3,2.4l-.4,-1.4h.4l8.3,2.4l-.5,1.4l-.4,-.3l-1.4,-2.4Z" class="g1_444"/>
<path d="M444.9,148.7l-1.3,2.4h-1.4l-.2,-.4l.2,-.4l1.4,-2.3Z" class="g1_444"/>
<path fill-rule="evenodd" d="M442.9,150.7l1.4,2.4l-8.2,-2.4l8.2,-2.4Z" class="g1_444"/>
<path d="M460.4,151h2.1v-.5h-2.1v.5Z" class="g1_444"/>
<path d="M461.8,151.1l-1.4,-2.4l-1,-1.7l2,.6l8.1,2.4l2.5,.7l-2.5,.7l-8.1,2.4l-1.9,.6l.9,-1.7l.5,-.3l8.2,-2.4l.4,1.4h-.4L460.9,149l.5,-1.4l.4,.4l1.4,2.3Z" class="g1_444"/>
<path d="M460.4,152.7l1.4,-2.4h1.4l.2,.4l-.2,.4l-1.4,2.4Z" class="g1_444"/>
<path fill-rule="evenodd" d="M462.5,150.7l-1.4,-2.4l8.1,2.4l-8.1,2.4Z" class="g1_444"/>
<path d="M444.9,151h.1v-.5h-.1v.5Z" class="g1_444"/>
<path d="M445,151h15.5v-.5H445v.5Z" class="g1_444"/>
<path d="M530.4,150.5h2.1v-.4h-2.1v.4Z" class="g1_444"/>
<path d="M531,150l1.4,2.3l1,1.7l-1.9,-.5l-8.2,-2.4l-2.5,-.8l2.5,-.7l8.2,-2.4l1.8,-.5l-.9,1.6l-.5,.4l-8.1,2.4l-.5,-1.5h.5l8.1,2.4l-.4,1.5l-.5,-.4l-1.4,-2.4Z" class="g1_444"/>
<path d="M532.4,148.3l-1.4,2.4h-1.3l-.2,-.4l.2,-.3l1.3,-2.4Z" class="g1_444"/>
<path fill-rule="evenodd" d="M530.4,150.3l1.4,2.4l-8.2,-2.4l8.2,-2.3Z" class="g1_444"/>
<path d="M551.6,150.6h2.2v-.4h-2.2v.4Z" class="g1_444"/>
<path d="M553.1,150.7l-1.4,-2.4l-1,-1.6l2,.5l8.1,2.4l2.5,.7l-2.5,.8l-8.1,2.4l-1.9,.5l.9,-1.6l.5,-.4l8.2,-2.4l.4,1.5h-.4l-8.2,-2.4l.5,-1.5l.4,.4l1.4,2.4Z" class="g1_444"/>
<path d="M551.7,152.3l1.4,-2.3h1.4l.2,.3l-.2,.4l-1.4,2.4Z" class="g1_444"/>
<path fill-rule="evenodd" d="M553.8,150.3L552.4,148l8.1,2.3l-8.1,2.4Z" class="g1_444"/>
<path d="M532.3,150.6h.2v-.4h-.2v.4Z" class="g1_444"/>
<path d="M532.5,150.6h19.2v-.4H532.5v.4Z" class="g1_444"/>
<path d="M338.9,195.1h.5V193h-.5v2.1Z" class="g1_444"/>
<path d="M338.8,194.4l2.4,-1.4l1.6,-1l-.5,2l-2.4,8.2l-.7,2.7l-.8,-2.7L336.1,194l-.5,-2l1.6,1l.4,.5l2.3,8.3l-1.5,.4v-.4l2.4,-8.3l1.5,.5l-.4,.4l-2.4,1.4Z" class="g1_444"/>
<path d="M337.2,193l2.3,1.4v1.4l-.4,.3l-.4,-.3l-2.3,-1.4Z" class="g1_444"/>
<path fill-rule="evenodd" d="M339.2,195.1l2.3,-1.4l-2.3,8.2l-2.3,-8.2Z" class="g1_444"/>
<path d="M339,165.6h.4v-.1H339v.1Z" class="g1_444"/>
<path d="M339,193.1h.4V165.6H339v27.5Z" class="g1_444"/>
<path d="M298.8,195.1h.5V193h-.5v2.1Z" class="g1_444"/>
<path d="M298.7,194.4l2.4,-1.4l1.7,-1l-.6,2l-2.4,8.2l-.7,2.6l-.7,-2.6L296,194l-.6,-1.9l1.7,.9l.4,.5l2.3,8.3l-1.4,.4v-.4l2.4,-8.3l1.4,.5l-.3,.4l-2.4,1.4Z" class="g1_444"/>
<path d="M297.1,193l2.4,1.4v1.4l-.4,.2l-.4,-.2l-2.3,-1.4Z" class="g1_444"/>
<path fill-rule="evenodd" d="M299.1,195.1l2.4,-1.4l-2.4,8.2l-2.4,-8.2Z" class="g1_444"/>
<path d="M298.9,165.6h.5v-.1h-.5v.1Z" class="g1_444"/>
<path d="M298.9,193.1h.5V165.6h-.5v27.5Z" class="g1_444"/>
<path d="M258.7,195.1h.4V193h-.4v2.1Z" class="g1_444"/>
<path d="M258.6,194.4L261,193l1.6,-1l-.5,2l-2.4,8.2l-.7,2.7l-.8,-2.7L255.9,194l-.5,-2l1.6,1l.4,.5l2.3,8.3l-1.5,.4v-.4l2.4,-8.3l1.5,.5l-.4,.4l-2.4,1.4Z" class="g1_444"/>
<path d="M257,193l2.3,1.4v1.4l-.4,.3l-.4,-.3l-2.3,-1.4Z" class="g1_444"/>
<path fill-rule="evenodd" d="M259,195.1l2.3,-1.4l-2.3,8.2l-2.3,-8.2Z" class="g1_444"/>
<path d="M258.8,165.6h.4v-.1h-.4v.1Z" class="g1_444"/>
<path d="M258.8,193.1h.4V165.6h-.4v27.5Z" class="g1_444"/>
<path d="M390.6,359.8h2.1v-.5h-2.1v.5Z" class="g1_444"/>
<path d="M391.2,359.2l1.4,2.4l1,1.7l-1.9,-.6l-8.3,-2.4l-2.6,-.7l2.6,-.7l8.3,-2.3l1.9,-.6l-1,1.7l-.5,.3l-8.2,2.3l-.5,-1.4h.5l8.2,2.4l-.4,1.4l-.5,-.3L389.9,360Z" class="g1_444"/>
<path d="M392.6,357.7l-1.4,2.3h-1.3l-.3,-.5l.3,-.3l1.3,-2.3Z" class="g1_444"/>
<path fill-rule="evenodd" d="M390.6,359.6L392,362l-8.3,-2.4l8.3,-2.3Z" class="g1_444"/>
<path d="M428.8,359.9h2.1v-.5h-2.1v.5Z" class="g1_444"/>
<path d="M430.3,360.1l-1.4,-2.3L427.8,356l2,.6l8.3,2.3l2.5,.7l-2.5,.7l-8.3,2.4l-1.8,.6l.9,-1.7l.5,-.3l8.2,-2.4l.5,1.4h-.5L429.4,358l.4,-1.4l.5,.4l1.4,2.2Z" class="g1_444"/>
<path d="M428.9,361.6l1.4,-2.4h1.4l.1,.4l-.1,.4l-1.4,2.4Z" class="g1_444"/>
<path fill-rule="evenodd" d="M430.9,359.6l-1.3,-2.3l8.2,2.3l-8.2,2.4Z" class="g1_444"/>
<path d="M392.5,359.9h.2v-.5h-.2v.5Z" class="g1_444"/>
<path d="M392.7,359.9H429v-.5H392.7v.5Z" class="g1_444"/>
<path d="M527.7,377h2.1v-.4h-2.1v.4Z" class="g1_444"/>
<path d="M528.4,376.4l1.3,2.3l1.1,1.7l-2,-.5l-8.2,-2.3l-2.6,-.8l2.6,-.7l8.2,-2.4l1.9,-.5l-1,1.6l-.4,.4l-8.3,2.4l-.4,-1.5h.4l8.3,2.3l-.5,1.5l-.4,-.4L527,377.2Z" class="g1_444"/>
<path d="M529.7,374.8l-1.3,2.4H527l-.2,-.4l.2,-.3l1.4,-2.4Z" class="g1_444"/>
<path fill-rule="evenodd" d="M527.7,376.8l1.4,2.3l-8.2,-2.3l8.2,-2.3Z" class="g1_444"/>
<path d="M541.1,377.1h2.1v-.4h-2.1v.4Z" class="g1_444"/>
<path d="M542.6,377.2l-1.4,-2.4l-1,-1.6l1.9,.5l8.3,2.4l2.6,.7l-2.6,.8l-8.3,2.3l-1.9,.5l1,-1.6l.5,-.4l8.2,-2.3l.5,1.5h-.5l-8.2,-2.4l.4,-1.5l.5,.4l1.4,2.4Z" class="g1_444"/>
<path d="M541.2,378.8l1.4,-2.3h1.3l.3,.4l-.3,.4l-1.3,2.3Z" class="g1_444"/>
<path fill-rule="evenodd" d="M543.2,376.8l-1.4,-2.3l8.3,2.3l-8.3,2.3Z" class="g1_444"/>
<path d="M529.6,377.1h.2v-.4h-.2v.4Z" class="g1_444"/>
<path d="M529.8,377.1h11.5v-.4H529.8v.4Z" class="g1_444"/>
<path d="M623.5,306.2h67.7V279.9H623.5v26.3Z" class="g0_444"/>
<path d="M623.5,280.2h68v-.7h-68v.7Z" class="g1_444"/>
<path d="M690.8,306.5h.7V279.9h-.7v26.6Z" class="g1_444"/>
<path d="M623.2,306.5h68v-.7h-68v.7Z" class="g1_444"/>
<path d="M623.2,306.2h.7V279.5h-.7v26.7Z" class="g1_444"/>
<path d="M604.8,260h67.7V233.6H604.8V260Z" class="g0_444"/>
<path d="M604.8,233.9h68v-.7h-68v.7Z" class="g1_444"/>
<path d="M672.1,260.3h.7V233.6h-.7v26.7Z" class="g1_444"/>
<path d="M604.5,260.3h68v-.7h-68v.7Z" class="g1_444"/>
<path d="M604.5,260h.7V233.2h-.7V260Z" class="g1_444"/>
</svg>