<?xml version="1.0" encoding="UTF-8" standalone="no"?>
<!DOCTYPE svg PUBLIC "-//W3C//DTD SVG 1.1//EN"
"http://www.w3.org/Graphics/SVG/1.1/DTD/svg11.dtd">
<svg viewBox="0 0 935 1210" version="1.1" xmlns="http://www.w3.org/2000/svg" xmlns:xlink="http://www.w3.org/1999/xlink">
<defs>
<style type="text/css"><![CDATA[
.g0_3769{
fill: #FFF;
}
.g1_3769{
fill: #000;
}
]]></style>
</defs>
<path d="M68.9,1149.3H852.7v-21.2H68.9v21.2Z" class="g0_3769"/>
<path d="M68.3,428.4H854.4V398.8H68.3v29.6Z" class="g0_3769"/>
<path d="M69.3,421.7h53.4V409.3H69.3v12.4Z" class="g0_3769"/>
<path d="M67.9,398.4h.8V124.1h-.8V398.4Z" class="g1_3769"/>
<path d="M270.5,399.1h.7V123.4h-.7V399.1Z" class="g1_3769"/>
<path d="M370.4,399.1h.8V123.4h-.8V399.1Z" class="g1_3769"/>
<path d="M727.7,399.1h.8V123.4h-.8V399.1Z" class="g1_3769"/>
<path d="M854.1,398.4h.7V124.1h-.7V398.4Z" class="g1_3769"/>
<path d="M67.9,124.1H854.8v-.7H67.9v.7Z" class="g1_3769"/>
<path d="M67.9,147H854.8v-.7H67.9v.7Z" class="g1_3769"/>
<path d="M370.3,169.9H854.8v-.7H370.3v.7Z" class="g1_3769"/>
<path d="M370.3,192.9H854.8v-.8H370.3v.8Z" class="g1_3769"/>
<path d="M370.3,215.8H854.8v-.7H370.3v.7Z" class="g1_3769"/>
<path d="M370.3,238.7H854.8V238H370.3v.7Z" class="g1_3769"/>
<path d="M370.3,261.6H854.8v-.7H370.3v.7Z" class="g1_3769"/>
<path d="M370.3,284.5H854.8v-.7H370.3v.7Z" class="g1_3769"/>
<path d="M67.9,307.4H854.8v-.7H67.9v.7Z" class="g1_3769"/>
<path d="M370.3,330.4H854.8v-.8H370.3v.8Z" class="g1_3769"/>
<path d="M370.3,353.3H854.8v-.7H370.3v.7Z" class="g1_3769"/>
<path d="M370.3,376.2H854.8v-.7H370.3v.7Z" class="g1_3769"/>
<path d="M67.9,399.1H854.8v-.7H67.9v.7Z" class="g1_3769"/>
<path d="M71.3,860.4h.8V654.9h-.8V860.4Z" class="g1_3769"/>
<path d="M175.1,861.1h.7v-207h-.7v207Z" class="g1_3769"/>
<path d="M229.6,861.1h.8v-207h-.8v207Z" class="g1_3769"/>
<path d="M850.7,860.4h.7V654.9h-.7V860.4Z" class="g1_3769"/>
<path d="M71.3,654.9H851.4v-.8H71.3v.8Z" class="g1_3769"/>
<path d="M71.3,679.3H851.4v-.7H71.3v.7Z" class="g1_3769"/>
<path d="M71.3,720.6H851.4v-.7H71.3v.7Z" class="g1_3769"/>
<path d="M71.3,836.6H851.4v-.7H71.3v.7Z" class="g1_3769"/>
<path d="M71.3,861.1H851.4v-.7H71.3v.7Z" class="g1_3769"/>
</svg>