<?xml version="1.0" encoding="UTF-8" standalone="no"?>
<!DOCTYPE svg PUBLIC "-//W3C//DTD SVG 1.1//EN"
"http://www.w3.org/Graphics/SVG/1.1/DTD/svg11.dtd">
<svg viewBox="0 0 935 1210" version="1.1" xmlns="http://www.w3.org/2000/svg" xmlns:xlink="http://www.w3.org/1999/xlink">
<defs>
<style type="text/css"><![CDATA[
.g0_1859{
fill: #FFF;
}
.g1_1859{
fill: #000;
}
]]></style>
</defs>
<path d="M68.9,1149.3H755.2v-21.2H68.9v21.2Z" class="g0_1859"/>
<path d="M771.3,1149.3H855v-21.2H771.3v21.2Z" class="g0_1859"/>
<path d="M69.9,268.5h.8V125.7h-.8V268.5Z" class="g1_1859"/>
<path d="M304.7,269.3h.7V124.9h-.7V269.3Z" class="g1_1859"/>
<path d="M349.6,269.3h.7V124.9h-.7V269.3Z" class="g1_1859"/>
<path d="M422.9,269.3h.8V124.9h-.8V269.3Z" class="g1_1859"/>
<path d="M506,269.3h.7V124.9H506V269.3Z" class="g1_1859"/>
<path d="M851.6,268.5h.7V125.7h-.7V268.5Z" class="g1_1859"/>
<path d="M69.9,125.7H852.3v-.8H69.9v.8Z" class="g1_1859"/>
<path d="M69.9,179.1H852.3v-.7H69.9v.7Z" class="g1_1859"/>
<path d="M69.9,269.2H852.3v-.7H69.9v.7Z" class="g1_1859"/>
<path d="M69.9,372.4h.8V324.3h-.8v48.1Z" class="g1_1859"/>
<path d="M134.6,373.2h.7V323.5h-.7v49.7Z" class="g1_1859"/>
<path d="M236.7,373.2h.7V323.5h-.7v49.7Z" class="g1_1859"/>
<path d="M388.8,373.2h.7V323.5h-.7v49.7Z" class="g1_1859"/>
<path d="M543.7,373.2h.7V323.5h-.7v49.7Z" class="g1_1859"/>
<path d="M698.5,373.2h.7V323.5h-.7v49.7Z" class="g1_1859"/>
<path d="M848.4,372.4h.7V324.3h-.7v48.1Z" class="g1_1859"/>
<path d="M69.9,324.2H849.1v-.7H69.9v.7Z" class="g1_1859"/>
<path d="M69.9,348.7H849.1V348H69.9v.7Z" class="g1_1859"/>
<path d="M69.9,373.2H849.1v-.8H69.9v.8Z" class="g1_1859"/>
</svg>