<?xml version="1.0" encoding="UTF-8" standalone="no"?>
<!DOCTYPE svg PUBLIC "-//W3C//DTD SVG 1.1//EN"
"http://www.w3.org/Graphics/SVG/1.1/DTD/svg11.dtd">
<svg viewBox="0 0 935 1210" version="1.1" xmlns="http://www.w3.org/2000/svg" xmlns:xlink="http://www.w3.org/1999/xlink">
<defs>
<style type="text/css"><![CDATA[
.g0_400{
fill: #000;
}
]]></style>
</defs>
<path d="M102.8,335.4H832.2v-1.6H102.8v1.6Z" class="g0_400"/>
<path d="M102.8,357.9H832.2v-.8H102.8v.8Z" class="g0_400"/>
<path d="M102.8,380.8H832.2v-.7H102.8v.7Z" class="g0_400"/>
<path d="M102.8,437.3H832.2v-.7H102.8v.7Z" class="g0_400"/>
<path d="M102.8,510.7H832.2v-.8H102.8v.8Z" class="g0_400"/>
<path d="M102.8,550.4H832.2v-.8H102.8v.8Z" class="g0_400"/>
<path d="M102.8,573.3H832.2v-.8H102.8v.8Z" class="g0_400"/>
<path d="M102.8,629.8H832.2v-.7H102.8v.7Z" class="g0_400"/>
<path d="M102.8,719.9H832.2v-.7H102.8v.7Z" class="g0_400"/>
<path d="M102.8,759.6H832.2v-.7H102.8v.7Z" class="g0_400"/>
<path d="M102.8,782.6H832.2v-.8H102.8v.8Z" class="g0_400"/>
<path d="M102.8,855.9H832.2v-.7H102.8v.7Z" class="g0_400"/>
<path d="M102.8,929.2H832.2v-.7H102.8v.7Z" class="g0_400"/>
</svg>