<?xml version="1.0" encoding="UTF-8" standalone="no"?>
<!DOCTYPE svg PUBLIC "-//W3C//DTD SVG 1.1//EN"
"http://www.w3.org/Graphics/SVG/1.1/DTD/svg11.dtd">
<svg viewBox="0 0 935 1210" version="1.1" xmlns="http://www.w3.org/2000/svg" xmlns:xlink="http://www.w3.org/1999/xlink">
<defs>
<clipPath id="c0_373"><path d="M766.7,59V41.4h72.2V59Z"/></clipPath>
<style type="text/css"><![CDATA[
.g0_373{
fill: #000;
}
]]></style>
</defs>
<path d="M97.5,63.1v.3H840v-.3H97.5Z" class="g0_373"/>
<path d="M96.1,1114.3v.3v-.3Z" class="g0_373"/>
<path d="M838.9,1114.3v.3v-.3Z" class="g0_373"/>
<path d="M96.1,1114.3v.3H838.9v-.3H96.1Z" class="g0_373"/>
<image clip-path="url(#c0_373)" preserveAspectRatio="none" x="767" y="41" width="72" height="18" xlink:href="img/1.jpg"/>
<path d="M96.4,261.8h-.7V858.7h.7V261.8Z" class="g0_373"/>
<path d="M250.4,260.7h-.7v43.6h.7V260.7Z" class="g0_373"/>
<path d="M424.9,260.7h-.7V761.5h.7V260.7Z" class="g0_373"/>
<path d="M839.3,261.8h-.8V858.7h.8V261.8Z" class="g0_373"/>
<path d="M95.7,260.7v.7H839.3v-.7H95.7Z" class="g0_373"/>
<path d="M95.7,303.6v.7H839.3v-.7H95.7Z" class="g0_373"/>
<path d="M95.7,328.2v.7H424.9v-.7H95.7Z" class="g0_373"/>
<path d="M95.7,370.7v.7H839.3v-.7H95.7Z" class="g0_373"/>
<path d="M95.7,417.6v.7H839.3v-.7H95.7Z" class="g0_373"/>
<path d="M95.7,464.5v.8H839.3v-.8H95.7Z" class="g0_373"/>
<path d="M95.7,760.8v.7H839.3v-.7H95.7Z" class="g0_373"/>
<path d="M95.7,858.7v.7H839.3v-.7H95.7Z" class="g0_373"/>
</svg>