<?xml version="1.0" encoding="UTF-8" standalone="no"?>
<!DOCTYPE svg PUBLIC "-//W3C//DTD SVG 1.1//EN"
"http://www.w3.org/Graphics/SVG/1.1/DTD/svg11.dtd">
<svg viewBox="0 0 935 1210" version="1.1" xmlns="http://www.w3.org/2000/svg" xmlns:xlink="http://www.w3.org/1999/xlink">
<defs>
<style type="text/css"><![CDATA[
.g0_1281{
fill: #FFF;
}
.g1_1281{
fill: #000;
}
]]></style>
</defs>
<path d="M68.9,1149.3H755.2v-21.2H68.9v21.2Z" class="g0_1281"/>
<path d="M771.3,1149.3H855v-21.2H771.3v21.2Z" class="g0_1281"/>
<path d="M70.3,1064.9v-.7Z" class="g1_1281"/>
<path d="M70.3,1064.9H290.7v-.7H70.3v.7Z" class="g1_1281"/>
<path d="M69.9,276.2h.8V134.8h-.8V276.2Z" class="g1_1281"/>
<path d="M323.7,276.9h.7V134.1h-.7V276.9Z" class="g1_1281"/>
<path d="M372.5,276.9h.8V134.1h-.8V276.9Z" class="g1_1281"/>
<path d="M445.9,276.9h.7V134.1h-.7V276.9Z" class="g1_1281"/>
<path d="M522.8,276.9h.7V134.1h-.7V276.9Z" class="g1_1281"/>
<path d="M851.5,276.2h.7V134.8h-.7V276.2Z" class="g1_1281"/>
<path d="M69.9,134.8H372.5v-.7H69.9v.7Z" class="g1_1281"/>
<path d="M373.3,134.8H522.8v-.7H373.3v.7Z" class="g1_1281"/>
<path d="M523.5,134.8H852.2v-.7H523.5v.7Z" class="g1_1281"/>
<path d="M69.9,188.3H852.2v-.7H69.9v.7Z" class="g1_1281"/>
<path d="M69.9,232.6H852.2v-.8H69.9v.8Z" class="g1_1281"/>
<path d="M69.9,276.9H852.2v-.7H69.9v.7Z" class="g1_1281"/>
<path d="M69.9,377h.8V328.9h-.8V377Z" class="g1_1281"/>
<path d="M141.9,377.8h.7V328.1h-.7v49.7Z" class="g1_1281"/>
<path d="M213.9,377.8h.7V328.1h-.7v49.7Z" class="g1_1281"/>
<path d="M369,377.8h.7V328.1H369v49.7Z" class="g1_1281"/>
<path d="M530.2,377.8h.7V328.1h-.7v49.7Z" class="g1_1281"/>
<path d="M685.5,377.8h.7V328.1h-.7v49.7Z" class="g1_1281"/>
<path d="M853,377h.8V328.9H853V377Z" class="g1_1281"/>
<path d="M69.9,328.8H853.8v-.7H69.9v.7Z" class="g1_1281"/>
<path d="M69.9,353.3H853.8v-.7H69.9v.7Z" class="g1_1281"/>
<path d="M69.9,377.8H853.8V377H69.9v.8Z" class="g1_1281"/>
</svg>