<?xml version="1.0" encoding="UTF-8" standalone="no"?>
<!DOCTYPE svg PUBLIC "-//W3C//DTD SVG 1.1//EN"
"http://www.w3.org/Graphics/SVG/1.1/DTD/svg11.dtd">
<svg viewBox="0 0 935 1210" version="1.1" xmlns="http://www.w3.org/2000/svg" xmlns:xlink="http://www.w3.org/1999/xlink">
<defs>
<clipPath id="c0_539"><path d="M766.6,59.2V41.4h72.1V59.2Z"/></clipPath>
<style type="text/css"><![CDATA[
.g0_539{
fill: #000;
}
.g1_539{
fill: #231F20;
}
.g2_539{
fill: #FFF;
}
.g3_539{
fill: none;
stroke: #231F20;
stroke-width: 1.527;
}
]]></style>
</defs>
<path d="M97.3,62.9v.3H839.9v-.3H97.3Z" class="g0_539"/>
<path d="M96.2,1114.1h-.1v.3h.1v-.3Z" class="g0_539"/>
<path d="M838.7,1114.1h.2v.3h-.2v-.3Z" class="g0_539"/>
<path d="M96.2,1114.1v.3H838.7v-.3H96.2Z" class="g0_539"/>
<image clip-path="url(#c0_539)" preserveAspectRatio="none" x="767" y="41" width="72" height="18" xlink:href="img/1.jpg"/>
<path d="M182.3,255.4V220H611.5V184.6H754.1v70.8H182.3Z" class="g1_539"/>
<path d="M609.3,217.8H751.9V182.4H609.3v35.4Z" class="g2_539"/>
<path d="M751.9,217.8H609.3V182.4H751.9v35.4Z" class="g3_539"/>
<path d="M180.1,253.2H751.9V217.8H180.1v35.4Z" class="g2_539"/>
<path d="M751.9,253.2H180.1V217.8H751.9v35.4Z" class="g3_539"/>
</svg>