<?xml version="1.0" encoding="UTF-8" standalone="no"?>
<!DOCTYPE svg PUBLIC "-//W3C//DTD SVG 1.1//EN"
"http://www.w3.org/Graphics/SVG/1.1/DTD/svg11.dtd">
<svg viewBox="0 0 935 1210" version="1.1" xmlns="http://www.w3.org/2000/svg" xmlns:xlink="http://www.w3.org/1999/xlink">
<defs>
<clipPath id="c0_1421"><path d="M97.3,59.2V41.4h72.1V59.2Z"/></clipPath>
<style type="text/css"><![CDATA[
.g0_1421{
fill: #000;
}
]]></style>
</defs>
<path d="M96.2,62.9v.3H838.7v-.3H96.2Z" class="g0_1421"/>
<path d="M96.2,1114.1h-.1v.4h.1v-.4Z" class="g0_1421"/>
<path d="M838.7,1114.1h.2v.4h-.2v-.4Z" class="g0_1421"/>
<path d="M96.2,1114.1v.4H838.7v-.4H96.2Z" class="g0_1421"/>
<image clip-path="url(#c0_1421)" preserveAspectRatio="none" x="97" y="41" width="72" height="18" xlink:href="img/1.jpg"/>
<path d="M96.6,846.3h-.7v199.9h.7V846.3Z" class="g0_1421"/>
<path d="M244.8,843.3h-.7v203.6h.7V843.3Z" class="g0_1421"/>
<path d="M284.5,843.3h-.7v203.6h.7V843.3Z" class="g0_1421"/>
<path d="M338,843.3h-.8v203.6h.8V843.3Z" class="g0_1421"/>
<path d="M411.9,843.3h-.7v203.6h.7V843.3Z" class="g0_1421"/>
<path d="M843.3,846.3h-.7v199.9h.7V846.3Z" class="g0_1421"/>
<path d="M95.9,843.4v3H843.3v-3H95.9Z" class="g0_1421"/>
<path d="M95.9,886.1v3H843.3v-3H95.9Z" class="g0_1421"/>
<path d="M95.9,942.2v.8H843.3v-.8H95.9Z" class="g0_1421"/>
<path d="M95.9,982v.7H843.3V982H95.9Z" class="g0_1421"/>
<path d="M244,1021.7v.7H843.3v-.7H244Z" class="g0_1421"/>
<path d="M95.9,1046.2v.7H843.3v-.7H95.9Z" class="g0_1421"/>
</svg>