<?xml version="1.0" encoding="UTF-8" standalone="no"?>
<!DOCTYPE svg PUBLIC "-//W3C//DTD SVG 1.1//EN"
"http://www.w3.org/Graphics/SVG/1.1/DTD/svg11.dtd">
<svg viewBox="0 0 935 1210" version="1.1" xmlns="http://www.w3.org/2000/svg" xmlns:xlink="http://www.w3.org/1999/xlink">
<defs>
<style type="text/css"><![CDATA[
.g0_2855{
fill: #FFF;
}
.g1_2855{
fill: #000;
}
]]></style>
</defs>
<path d="M68.9,1149H852.7v-21.4H68.9V1149Z" class="g0_2855"/>
<path d="M69.2,380.8h2.3v-204H69.2v204Z" class="g1_2855"/>
<path d="M69.2,609.9h2.3V406H69.2V609.9Z" class="g1_2855"/>
<path d="M115.2,383.1h2.3V174.5h-2.3V383.1Z" class="g1_2855"/>
<path d="M115.2,612.2h2.3V403.7h-2.3V612.2Z" class="g1_2855"/>
<path d="M210.3,199.7h.7V174.5h-.7v25.2Z" class="g1_2855"/>
<path d="M210.3,244.8h.7V221.2h-.7v23.6Z" class="g1_2855"/>
<path d="M210.3,290.7h.7V267h-.7v23.7Z" class="g1_2855"/>
<path d="M210.3,336.5h.7V312.9h-.7v23.6Z" class="g1_2855"/>
<path d="M210.3,383.1h.7V358.7h-.7v24.4Z" class="g1_2855"/>
<path d="M210.3,428.9h.7V403.7h-.7v25.2Z" class="g1_2855"/>
<path d="M210.3,474h.7V450.4h-.7V474Z" class="g1_2855"/>
<path d="M210.3,519.8h.7V496.2h-.7v23.6Z" class="g1_2855"/>
<path d="M210.3,565.7h.7V542h-.7v23.7Z" class="g1_2855"/>
<path d="M210.3,612.2h.7V587.9h-.7v24.3Z" class="g1_2855"/>
<path d="M302.3,199.7h.8V174.5h-.8v25.2Z" class="g1_2855"/>
<path d="M302.3,244.8h.8V221.2h-.8v23.6Z" class="g1_2855"/>
<path d="M302.3,290.7h.8V267h-.8v23.7Z" class="g1_2855"/>
<path d="M302.3,336.5h.8V312.9h-.8v23.6Z" class="g1_2855"/>
<path d="M302.3,383.1h.8V358.7h-.8v24.4Z" class="g1_2855"/>
<path d="M302.3,428.9h.8V403.7h-.8v25.2Z" class="g1_2855"/>
<path d="M302.3,474h.8V450.4h-.8V474Z" class="g1_2855"/>
<path d="M302.3,519.8h.8V496.2h-.8v23.6Z" class="g1_2855"/>
<path d="M302.3,565.7h.8V542h-.8v23.7Z" class="g1_2855"/>
<path d="M302.3,612.2h.8V587.9h-.8v24.3Z" class="g1_2855"/>
<path d="M394.3,199.7h.7V174.5h-.7v25.2Z" class="g1_2855"/>
<path d="M394.3,244.8h.7V221.2h-.7v23.6Z" class="g1_2855"/>
<path d="M394.3,290.7h.7V267h-.7v23.7Z" class="g1_2855"/>
<path d="M394.3,336.5h.7V312.9h-.7v23.6Z" class="g1_2855"/>
<path d="M394.3,383.1h.7V358.7h-.7v24.4Z" class="g1_2855"/>
<path d="M394.3,428.9h.7V403.7h-.7v25.2Z" class="g1_2855"/>
<path d="M394.3,474h.7V450.4h-.7V474Z" class="g1_2855"/>
<path d="M394.3,519.8h.7V496.2h-.7v23.6Z" class="g1_2855"/>
<path d="M394.3,565.7h.7V542h-.7v23.7Z" class="g1_2855"/>
<path d="M394.3,612.2h.7V587.9h-.7v24.3Z" class="g1_2855"/>
<path d="M486.3,199.7h.7V174.5h-.7v25.2Z" class="g1_2855"/>
<path d="M486.3,244.8h.7V221.2h-.7v23.6Z" class="g1_2855"/>
<path d="M486.3,290.7h.7V267h-.7v23.7Z" class="g1_2855"/>
<path d="M486.3,336.5h.7V312.9h-.7v23.6Z" class="g1_2855"/>
<path d="M486.3,383.1h.7V358.7h-.7v24.4Z" class="g1_2855"/>
<path d="M486.3,428.9h.7V403.7h-.7v25.2Z" class="g1_2855"/>
<path d="M486.3,474h.7V450.4h-.7V474Z" class="g1_2855"/>
<path d="M486.3,519.8h.7V496.2h-.7v23.6Z" class="g1_2855"/>
<path d="M486.3,565.7h.7V542h-.7v23.7Z" class="g1_2855"/>
<path d="M486.3,612.2h.7V587.9h-.7v24.3Z" class="g1_2855"/>
<path d="M578.3,199.7h.8V174.5h-.8v25.2Z" class="g1_2855"/>
<path d="M578.3,244.8h.8V221.2h-.8v23.6Z" class="g1_2855"/>
<path d="M578.3,290.7h.8V267h-.8v23.7Z" class="g1_2855"/>
<path d="M578.3,336.5h.8V312.9h-.8v23.6Z" class="g1_2855"/>
<path d="M578.3,383.1h.8V358.7h-.8v24.4Z" class="g1_2855"/>
<path d="M578.3,428.9h.8V403.7h-.8v25.2Z" class="g1_2855"/>
<path d="M578.3,474h.8V450.4h-.8V474Z" class="g1_2855"/>
<path d="M578.3,519.8h.8V496.2h-.8v23.6Z" class="g1_2855"/>
<path d="M578.3,565.7h.8V542h-.8v23.7Z" class="g1_2855"/>
<path d="M578.3,612.2h.8V587.9h-.8v24.3Z" class="g1_2855"/>
<path d="M670.3,199.7h.7V174.5h-.7v25.2Z" class="g1_2855"/>
<path d="M670.3,244.8h.7V221.2h-.7v23.6Z" class="g1_2855"/>
<path d="M670.3,290.7h.7V267h-.7v23.7Z" class="g1_2855"/>
<path d="M670.3,336.5h.7V312.9h-.7v23.6Z" class="g1_2855"/>
<path d="M670.3,383.1h.7V358.7h-.7v24.4Z" class="g1_2855"/>
<path d="M670.3,428.9h.7V403.7h-.7v25.2Z" class="g1_2855"/>
<path d="M670.3,474h.7V450.4h-.7V474Z" class="g1_2855"/>
<path d="M670.3,519.8h.7V496.2h-.7v23.6Z" class="g1_2855"/>
<path d="M670.3,565.7h.7V542h-.7v23.7Z" class="g1_2855"/>
<path d="M670.3,612.2h.7V587.9h-.7v24.3Z" class="g1_2855"/>
<path d="M762.3,199.7h.7V174.5h-.7v25.2Z" class="g1_2855"/>
<path d="M762.3,244.8h.7V221.2h-.7v23.6Z" class="g1_2855"/>
<path d="M762.3,290.7h.7V267h-.7v23.7Z" class="g1_2855"/>
<path d="M762.3,336.5h.7V312.9h-.7v23.6Z" class="g1_2855"/>
<path d="M762.3,383.1h.7V358.7h-.7v24.4Z" class="g1_2855"/>
<path d="M762.3,428.9h.7V403.7h-.7v25.2Z" class="g1_2855"/>
<path d="M762.3,474h.7V450.4h-.7V474Z" class="g1_2855"/>
<path d="M762.3,519.8h.7V496.2h-.7v23.6Z" class="g1_2855"/>
<path d="M762.3,565.7h.7V542h-.7v23.7Z" class="g1_2855"/>
<path d="M762.3,612.2h.7V587.9h-.7v24.3Z" class="g1_2855"/>
<path d="M853.5,380.8h2.3v-204h-2.3v204Z" class="g1_2855"/>
<path d="M853.5,609.9h2.3V406h-2.3V609.9Z" class="g1_2855"/>
<path d="M69.1,176.9H855.8v-2.3H69.1v2.3Z" class="g1_2855"/>
<path d="M69.1,199.8H855.8v-2.3H69.1v2.3Z" class="g1_2855"/>
<path d="M115.1,221.9H855.8v-.7H115.1v.7Z" class="g1_2855"/>
<path d="M69.1,244.8H855.8v-.7H69.1v.7Z" class="g1_2855"/>
<path d="M115.1,267.8H855.8V267H115.1v.8Z" class="g1_2855"/>
<path d="M69.1,290.7H855.8v-.8H69.1v.8Z" class="g1_2855"/>
<path d="M115.1,313.6H855.8v-.7H115.1v.7Z" class="g1_2855"/>
<path d="M69.1,336.5H855.8v-.7H69.1v.7Z" class="g1_2855"/>
<path d="M115.1,359.4H855.8v-.7H115.1v.7Z" class="g1_2855"/>
<path d="M69.1,383.2H855.8v-2.3H69.1v2.3Z" class="g1_2855"/>
<path d="M69.1,406.1H855.8v-2.3H69.1v2.3Z" class="g1_2855"/>
<path d="M69.1,429H855.8v-2.3H69.1V429Z" class="g1_2855"/>
<path d="M115.1,451.1H855.8v-.7H115.1v.7Z" class="g1_2855"/>
<path d="M69.1,474H855.8v-.7H69.1v.7Z" class="g1_2855"/>
<path d="M115.1,496.9H855.8v-.7H115.1v.7Z" class="g1_2855"/>
<path d="M69.1,519.8H855.8v-.7H69.1v.7Z" class="g1_2855"/>
<path d="M115.1,542.8H855.8V542H115.1v.8Z" class="g1_2855"/>
<path d="M69.1,565.7H855.8v-.8H69.1v.8Z" class="g1_2855"/>
<path d="M115.1,588.6H855.8v-.7H115.1v.7Z" class="g1_2855"/>
<path d="M69.1,612.3H855.8V610H69.1v2.3Z" class="g1_2855"/>
<path d="M69.2,850h2.3V776.5H69.2V850Z" class="g1_2855"/>
<path d="M168,852.3h.8V795.1H168v57.2Z" class="g1_2855"/>
<path d="M266.1,852.3h.7V795.1h-.7v57.2Z" class="g1_2855"/>
<path d="M364.1,852.3h.7V795.1h-.7v57.2Z" class="g1_2855"/>
<path d="M462.2,852.3h.7V795.1h-.7v57.2Z" class="g1_2855"/>
<path d="M560.3,852.3h.7V795.1h-.7v57.2Z" class="g1_2855"/>
<path d="M658.4,852.3h.7V795.1h-.7v57.2Z" class="g1_2855"/>
<path d="M756.4,852.3h.8V795.1h-.8v57.2Z" class="g1_2855"/>
<path d="M853.8,850h2.3V776.5h-2.3V850Z" class="g1_2855"/>
<path d="M69.1,776.6H856v-2.3H69.1v2.3Z" class="g1_2855"/>
<path d="M69.1,795.9H856v-.7H69.1v.7Z" class="g1_2855"/>
<path d="M69.1,816.9H856v-2.3H69.1v2.3Z" class="g1_2855"/>
<path d="M69.1,852.3H856V850H69.1v2.3Z" class="g1_2855"/>
</svg>