<?xml version="1.0" encoding="UTF-8" standalone="no"?>
<!DOCTYPE svg PUBLIC "-//W3C//DTD SVG 1.1//EN"
"http://www.w3.org/Graphics/SVG/1.1/DTD/svg11.dtd">
<svg viewBox="0 0 935 1210" version="1.1" xmlns="http://www.w3.org/2000/svg" xmlns:xlink="http://www.w3.org/1999/xlink">
<defs>
<clipPath id="c0_1427"><path d="M97.3,59.2V41.4h72.1V59.2Z"/></clipPath>
<style type="text/css"><![CDATA[
.g0_1427{
fill: #000;
}
]]></style>
</defs>
<path d="M96.2,62.9v.3H838.7v-.3H96.2Z" class="g0_1427"/>
<path d="M96.2,1114.1h-.1v.4h.1v-.4Z" class="g0_1427"/>
<path d="M838.7,1114.1h.2v.4h-.2v-.4Z" class="g0_1427"/>
<path d="M96.2,1114.1v.4H838.7v-.4H96.2Z" class="g0_1427"/>
<image clip-path="url(#c0_1427)" preserveAspectRatio="none" x="97" y="41" width="72" height="18" xlink:href="img/1.jpg"/>
<path d="M96.6,478.2h-.7V610.7h.7V478.2Z" class="g0_1427"/>
<path d="M137.9,475.1h-.8v93.6h.8V475.1Z" class="g0_1427"/>
<path d="M179.1,475.1h-.7v93.6h.7V475.1Z" class="g0_1427"/>
<path d="M220.4,475.1h-.8v93.6h.8V475.1Z" class="g0_1427"/>
<path d="M261.6,475.1h-.7v93.6h.7V475.1Z" class="g0_1427"/>
<path d="M302.9,475.1h-.8v93.6h.8V475.1Z" class="g0_1427"/>
<path d="M344.1,475.1h-.7v93.6h.7V475.1Z" class="g0_1427"/>
<path d="M385.4,475.1h-.8v93.6h.8V475.1Z" class="g0_1427"/>
<path d="M467.9,475.1h-.8v93.6h.8V475.1Z" class="g0_1427"/>
<path d="M509.1,475.1h-.7v93.6h.7V475.1Z" class="g0_1427"/>
<path d="M550.4,475.1h-.8v93.6h.8V475.1Z" class="g0_1427"/>
<path d="M591.6,475.1h-.7v93.6h.7V475.1Z" class="g0_1427"/>
<path d="M632.9,475.1h-.8v93.6h.8V475.1Z" class="g0_1427"/>
<path d="M674.1,475.1h-.7v93.6h.7V475.1Z" class="g0_1427"/>
<path d="M715.3,475.1h-.7v93.6h.7V475.1Z" class="g0_1427"/>
<path d="M756.6,475.1h-.7v93.6h.7V475.1Z" class="g0_1427"/>
<path d="M797.8,475.1h-.7v93.6h.7V475.1Z" class="g0_1427"/>
<path d="M839.1,478.2h-.7V610.7h.7V478.2Z" class="g0_1427"/>
<path d="M95.9,475.2v3H839.1v-3H95.9Z" class="g0_1427"/>
<path d="M95.9,505.7v3H839.1v-3H95.9Z" class="g0_1427"/>
<path d="M95.9,537.4v.8H839.1v-.8H95.9Z" class="g0_1427"/>
<path d="M95.9,568v.7H839.1V568H95.9Z" class="g0_1427"/>
<path d="M95.9,610.8v.7H839.1v-.7H95.9Z" class="g0_1427"/>
<path d="M96.6,661.5h-.7V870.4h.7V661.5Z" class="g0_1427"/>
<path d="M244.8,658.4h-.7V871.2h.7V658.4Z" class="g0_1427"/>
<path d="M284.5,658.4h-.7V871.2h.7V658.4Z" class="g0_1427"/>
<path d="M338,658.4h-.8V871.2h.8V658.4Z" class="g0_1427"/>
<path d="M411.9,658.4h-.7V871.2h.7V658.4Z" class="g0_1427"/>
<path d="M843.3,661.5h-.7V870.4h.7V661.5Z" class="g0_1427"/>
<path d="M95.9,658.5v3H843.3v-3H95.9Z" class="g0_1427"/>
<path d="M95.9,701.3v3H843.3v-3H95.9Z" class="g0_1427"/>
<path d="M95.9,742.1v.7H843.3v-.7H95.9Z" class="g0_1427"/>
<path d="M244,781.8v.7H843.3v-.7H244Z" class="g0_1427"/>
<path d="M95.9,806.3v.7H843.3v-.7H95.9Z" class="g0_1427"/>
<path d="M95.9,830.8v.7H843.3v-.7H95.9Z" class="g0_1427"/>
<path d="M95.9,870.4v.8H843.3v-.8H95.9Z" class="g0_1427"/>
</svg>