<?xml version="1.0" encoding="UTF-8" standalone="no"?>
<!DOCTYPE svg PUBLIC "-//W3C//DTD SVG 1.1//EN"
"http://www.w3.org/Graphics/SVG/1.1/DTD/svg11.dtd">
<svg viewBox="0 0 935 1210" version="1.1" xmlns="http://www.w3.org/2000/svg" xmlns:xlink="http://www.w3.org/1999/xlink">
<defs>
<clipPath id="c0_1199"><path d="M766.6,59.2V41.4h72.1V59.2Z"/></clipPath>
<style type="text/css"><![CDATA[
.g0_1199{
fill: #000;
}
]]></style>
</defs>
<path d="M97.3,62.9v.3H839.9v-.3H97.3Z" class="g0_1199"/>
<path d="M96.2,1114.1h-.1v.3h.1v-.3Z" class="g0_1199"/>
<path d="M838.7,1114.1h.2v.3h-.2v-.3Z" class="g0_1199"/>
<path d="M96.2,1114.1v.3H838.7v-.3H96.2Z" class="g0_1199"/>
<image clip-path="url(#c0_1199)" preserveAspectRatio="none" x="767" y="41" width="72" height="18" xlink:href="img/1.jpg"/>
<path d="M101.8,179.1h-.7V514.4h.7V179.1Z" class="g0_1199"/>
<path d="M239.3,178.4h-.7V515.2h.7V178.4Z" class="g0_1199"/>
<path d="M327.7,178.4H327V515.2h.7V178.4Z" class="g0_1199"/>
<path d="M505.2,178.4h-.8V515.2h.8V178.4Z" class="g0_1199"/>
<path d="M611.9,178.4h-.8V515.2h.8V178.4Z" class="g0_1199"/>
<path d="M833.9,179.1h-.8V514.4h.8V179.1Z" class="g0_1199"/>
<path d="M101.1,178.4v.7H833.9v-.7H101.1Z" class="g0_1199"/>
<path d="M101.1,202.8v.7H833.9v-.7H101.1Z" class="g0_1199"/>
<path d="M101.1,245.6v.7H833.9v-.7H101.1Z" class="g0_1199"/>
<path d="M101.1,270v.8H833.9V270H101.1Z" class="g0_1199"/>
<path d="M101.1,294.5v.7H611.8v-.7H101.1Z" class="g0_1199"/>
<path d="M101.1,318.9v.7H611.8v-.7H101.1Z" class="g0_1199"/>
<path d="M101.1,343.4v.7H611.8v-.7H101.1Z" class="g0_1199"/>
<path d="M101.1,367.8v.8H611.8v-.8H101.1Z" class="g0_1199"/>
<path d="M101.1,392.2v.8H611.8v-.8H101.1Z" class="g0_1199"/>
<path d="M101.1,416.7v.7H611.8v-.7H101.1Z" class="g0_1199"/>
<path d="M101.1,441.2v.7H611.8v-.7H101.1Z" class="g0_1199"/>
<path d="M101.1,465.6v.7H611.8v-.7H101.1Z" class="g0_1199"/>
<path d="M101.1,490v.8H611.8V490H101.1Z" class="g0_1199"/>
<path d="M101.1,514.5v.7H833.9v-.7H101.1Z" class="g0_1199"/>
</svg>