<?xml version="1.0" encoding="UTF-8" standalone="no"?>
<!DOCTYPE svg PUBLIC "-//W3C//DTD SVG 1.1//EN"
"http://www.w3.org/Graphics/SVG/1.1/DTD/svg11.dtd">
<svg viewBox="0 0 935 1210" version="1.1" xmlns="http://www.w3.org/2000/svg" xmlns:xlink="http://www.w3.org/1999/xlink">
<defs>
<clipPath id="c0_2270"><path d="M766.6,59.2V41.4h72.2V59.2Z"/></clipPath>
<style type="text/css"><![CDATA[
.g0_2270{
fill: #000;
}
]]></style>
</defs>
<path d="M97.4,63.3H839.9v-.4H97.4v.4Z" class="g0_2270"/>
<path d="M96.1,1114.5h.2v-.4h-.2v.4Z" class="g0_2270"/>
<path d="M96.3,1114.5H838.9v-.4H96.3v.4Z" class="g0_2270"/>
<image clip-path="url(#c0_2270)" preserveAspectRatio="none" x="767" y="41" width="72" height="18" xlink:href="img/1.jpg"/>
<path d="M551.6,528H583v-1.1H551.6V528Z" class="g0_2270"/>
<path d="M95.9,305.2h.7V237.1h-.7v68.1Z" class="g0_2270"/>
<path d="M216,305.9h.7V236.4H216v69.5Z" class="g0_2270"/>
<path d="M293.3,305.9h.8V236.4h-.8v69.5Z" class="g0_2270"/>
<path d="M839.1,305.2h.7V237.1h-.7v68.1Z" class="g0_2270"/>
<path d="M95.9,237.1h744v-.7H95.9v.7Z" class="g0_2270"/>
<path d="M95.9,261.3h744v-3.1H95.9v3.1Z" class="g0_2270"/>
<path d="M95.9,283h744v-.8H95.9v.8Z" class="g0_2270"/>
<path d="M95.9,305.9h744v-.7H95.9v.7Z" class="g0_2270"/>
<path d="M95.9,754.3h.7V652.4h-.7V754.3Z" class="g0_2270"/>
<path d="M137.1,719.9h.8V649.3h-.8v70.6Z" class="g0_2270"/>
<path d="M178.4,719.9h.7V649.3h-.7v70.6Z" class="g0_2270"/>
<path d="M219.6,719.9h.8V649.3h-.8v70.6Z" class="g0_2270"/>
<path d="M260.9,719.9h.7V649.3h-.7v70.6Z" class="g0_2270"/>
<path d="M302.1,719.9h.8V649.3h-.8v70.6Z" class="g0_2270"/>
<path d="M343.4,719.9h.7V649.3h-.7v70.6Z" class="g0_2270"/>
<path d="M384.6,719.9h.8V649.3h-.8v70.6Z" class="g0_2270"/>
<path d="M425.9,719.9h.7V696.3h-.7v23.6Z" class="g0_2270"/>
<path d="M467.1,719.9h.8V649.3h-.8v70.6Z" class="g0_2270"/>
<path d="M508.4,719.9h.7V649.3h-.7v70.6Z" class="g0_2270"/>
<path d="M549.6,719.9h.8V649.3h-.8v70.6Z" class="g0_2270"/>
<path d="M590.9,719.9h.7V649.3h-.7v70.6Z" class="g0_2270"/>
<path d="M632.1,719.9h.8V649.3h-.8v70.6Z" class="g0_2270"/>
<path d="M673.4,719.9h.7V649.3h-.7v70.6Z" class="g0_2270"/>
<path d="M714.6,719.9h.8V649.3h-.8v70.6Z" class="g0_2270"/>
<path d="M755.9,719.9h.7V649.3h-.7v70.6Z" class="g0_2270"/>
<path d="M797.1,719.9h.8V649.3h-.8v70.6Z" class="g0_2270"/>
<path d="M838.4,754.3h.7V652.4h-.7V754.3Z" class="g0_2270"/>
<path d="M95.9,652.4H839.1v-3H95.9v3Z" class="g0_2270"/>
<path d="M95.9,675.3H839.1v-3H95.9v3Z" class="g0_2270"/>
<path d="M95.9,697H839.1v-.7H95.9v.7Z" class="g0_2270"/>
<path d="M95.9,719.9H839.1v-.7H95.9v.7Z" class="g0_2270"/>
<path d="M95.9,755.1H839.1v-.8H95.9v.8Z" class="g0_2270"/>
</svg>