<?xml version="1.0" encoding="UTF-8" standalone="no"?>
<!DOCTYPE svg PUBLIC "-//W3C//DTD SVG 1.1//EN"
"http://www.w3.org/Graphics/SVG/1.1/DTD/svg11.dtd">
<svg viewBox="0 0 935 1210" version="1.1" xmlns="http://www.w3.org/2000/svg" xmlns:xlink="http://www.w3.org/1999/xlink">
<defs>
<style type="text/css"><![CDATA[
.g0_1206{
fill: #FFF;
}
.g1_1206{
fill: #000;
}
.g2_1206{
fill: #FFE0D1;
}
.g3_1206{
fill: #FF9A65;
}
.g4_1206{
fill: #F8FAFC;
}
.g5_1206{
fill: #E9F3E9;
}
.g6_1206{
fill: #218A21;
}
]]></style>
</defs>
<path d="M68.8,1149.3H852.5v-21.2H68.8v21.2Z" class="g0_1206"/>
<path d="M80.7,602h.7V183.7h-.7V602Z" class="g1_1206"/>
<path d="M839.8,602h.7V183.7h-.7V602Z" class="g1_1206"/>
<path d="M80.7,183.7H840.5V183H80.7v.7Z" class="g1_1206"/>
<path d="M80.7,602.7H840.5V602H80.7v.7Z" class="g1_1206"/>
<path d="M169,251.7h99.5V210.9H169v40.8Z" class="g2_1206"/>
<path d="M169,211.2h99.8v-.5H169v.5Z" class="g3_1206"/>
<path d="M268.3,252h.5V210.9h-.5V252Z" class="g3_1206"/>
<path d="M168.8,252h99.7v-.5H168.8v.5Z" class="g3_1206"/>
<path d="M168.8,251.7h.5v-41h-.5v41Z" class="g3_1206"/>
<path d="M107.3,302.8H212.2V281.4H107.3v21.4Z" class="g4_1206"/>
<path d="M107.3,441.8H212.2v-139H107.3v139Z" class="g4_1206"/>
<path d="M107.3,496.8H212.2v-55H107.3v55Z" class="g4_1206"/>
<path d="M437.5,496.8H577v-55H437.5v55Z" class="g4_1206"/>
<path d="M107.3,518.2H212.2V496.8H107.3v21.4Z" class="g4_1206"/>
<path d="M107.3,556.4H212.2V518.2H107.3v38.2Z" class="g4_1206"/>
<path d="M107,556h.7V281.8H107V556Z" class="g1_1206"/>
<path d="M211.8,556.8h.8V281.1h-.8V556.8Z" class="g1_1206"/>
<path d="M437.2,497.2h.7V441.5h-.7v55.7Z" class="g1_1206"/>
<path d="M576.7,497.2h.7V441.5h-.7v55.7Z" class="g1_1206"/>
<path d="M810,556.2h.3V281.6H810V556.2Z" class="g1_1206"/>
<path d="M107,281.8H211.8v-.7H107v.7Z" class="g1_1206"/>
<path d="M212.6,281.6H810.3v-.4H212.6v.4Z" class="g1_1206"/>
<path d="M107,303.1H212.6v-.7H107v.7Z" class="g1_1206"/>
<path d="M211.8,303H810.3v-.4H211.8v.4Z" class="g1_1206"/>
<path d="M107,442.2H212.6v-.7H107v.7Z" class="g1_1206"/>
<path d="M211.8,442H437.2v-.4H211.8v.4Z" class="g1_1206"/>
<path d="M437.9,442.2H576.7v-.7H437.9v.7Z" class="g1_1206"/>
<path d="M577.4,442H810.3v-.4H577.4v.4Z" class="g1_1206"/>
<path d="M107,497.2H212.6v-.7H107v.7Z" class="g1_1206"/>
<path d="M211.8,497H437.2v-.4H211.8v.4Z" class="g1_1206"/>
<path d="M437.9,497.2H576.7v-.7H437.9v.7Z" class="g1_1206"/>
<path d="M577.4,497H810.3v-.4H577.4v.4Z" class="g1_1206"/>
<path d="M107,518.6H212.6v-.8H107v.8Z" class="g1_1206"/>
<path d="M211.8,518.4H810.3V518H211.8v.4Z" class="g1_1206"/>
<path d="M107,556.8H211.8V556H107v.8Z" class="g1_1206"/>
<path d="M212.6,556.6H810.3v-.4H212.6v.4Z" class="g1_1206"/>
<path d="M227.4,353.2H353.9V331.8H227.4v21.4Z" class="g2_1206"/>
<path d="M353.9,353.2h63.3V331.8H353.9v21.4Z" class="g2_1206"/>
<path d="M417.2,353.2h63.2V331.8H417.2v21.4Z" class="g2_1206"/>
<path d="M480.4,353.2h63.3V331.8H480.4v21.4Z" class="g2_1206"/>
<path d="M543.7,353.2h63.2V331.8H543.7v21.4Z" class="g2_1206"/>
<path d="M606.9,353.2h63.3V331.8H606.9v21.4Z" class="g2_1206"/>
<path d="M670.2,353.2h63.2V331.8H670.2v21.4Z" class="g2_1206"/>
<path d="M733.4,353.2h63.3V331.8H733.4v21.4Z" class="g2_1206"/>
<path d="M227.4,374.6h63.3V353.2H227.4v21.4Z" class="g2_1206"/>
<path d="M290.7,374.6h63.2V353.2H290.7v21.4Z" class="g5_1206"/>
<path d="M353.9,374.6h63.3V353.2H353.9v21.4Z" class="g5_1206"/>
<path d="M417.2,374.6h63.2V353.2H417.2v21.4Z" class="g5_1206"/>
<path d="M480.4,374.6h63.3V353.2H480.4v21.4Z" class="g5_1206"/>
<path d="M543.7,374.6h63.2V353.2H543.7v21.4Z" class="g5_1206"/>
<path d="M606.9,374.6h63.3V353.2H606.9v21.4Z" class="g5_1206"/>
<path d="M670.2,374.6h63.2V353.2H670.2v21.4Z" class="g5_1206"/>
<path d="M733.4,374.6h63.3V353.2H733.4v21.4Z" class="g5_1206"/>
<path d="M227.4,396h63.3V374.6H227.4V396Z" class="g2_1206"/>
<path d="M290.7,396h63.2V374.6H290.7V396Z" class="g5_1206"/>
<path d="M353.9,396h63.3V374.6H353.9V396Z" class="g5_1206"/>
<path d="M417.2,396h63.2V374.6H417.2V396Z" class="g5_1206"/>
<path d="M480.4,396h63.3V374.6H480.4V396Z" class="g5_1206"/>
<path d="M543.7,396h63.2V374.6H543.7V396Z" class="g5_1206"/>
<path d="M606.9,396h63.3V374.6H606.9V396Z" class="g5_1206"/>
<path d="M670.2,396h63.2V374.6H670.2V396Z" class="g5_1206"/>
<path d="M733.4,396h63.3V374.6H733.4V396Z" class="g5_1206"/>
<path d="M227.4,417.4h63.3V396H227.4v21.4Z" class="g2_1206"/>
<path d="M227.1,417h.7V332.2h-.7V417Z" class="g1_1206"/>
<path d="M290.3,417.7h.7V331.5h-.7v86.2Z" class="g1_1206"/>
<path d="M353.6,396.4h.7V331.5h-.7v64.9Z" class="g1_1206"/>
<path d="M353.7,417.5h.4V395.6h-.4v21.9Z" class="g1_1206"/>
<path d="M416.8,396.4h.7V331.5h-.7v64.9Z" class="g1_1206"/>
<path d="M417,417.5h.4V395.6H417v21.9Z" class="g1_1206"/>
<path d="M480.1,396.4h.7V331.5h-.7v64.9Z" class="g1_1206"/>
<path d="M480.2,417.5h.4V395.6h-.4v21.9Z" class="g1_1206"/>
<path d="M543.3,396.4h.7V331.5h-.7v64.9Z" class="g1_1206"/>
<path d="M543.5,417.5h.4V395.6h-.4v21.9Z" class="g1_1206"/>
<path d="M606.6,396.4h.7V331.5h-.7v64.9Z" class="g1_1206"/>
<path d="M606.7,417.5h.4V395.6h-.4v21.9Z" class="g1_1206"/>
<path d="M669.8,396.4h.7V331.5h-.7v64.9Z" class="g1_1206"/>
<path d="M670,417.5h.4V395.6H670v21.9Z" class="g1_1206"/>
<path d="M733.1,396.4h.7V331.5h-.7v64.9Z" class="g1_1206"/>
<path d="M733.2,417.5h.4V395.6h-.4v21.9Z" class="g1_1206"/>
<path d="M796.3,395.6h.7V332.2h-.7v63.4Z" class="g1_1206"/>
<path d="M796.5,417.2h.4V396.4h-.4v20.8Z" class="g1_1206"/>
<path d="M227.1,332.2h570v-.7h-570v.7Z" class="g1_1206"/>
<path d="M227.1,353.6h570v-.8h-570v.8Z" class="g1_1206"/>
<path d="M227.1,375h570v-.7h-570v.7Z" class="g1_1206"/>
<path d="M227.1,396.4h570v-.8h-570v.8Z" class="g1_1206"/>
<path d="M227.1,417.7h63.2V417H227.1v.7Z" class="g1_1206"/>
<path d="M291,417.5H797v-.3H291v.3Z" class="g1_1206"/>
<path d="M688.1,212.6H802.5v-.5H688.1v.5Z" class="g1_1206"/>
<path d="M802.1,253.4h.4V212.3h-.4v41.1Z" class="g1_1206"/>
<path d="M688,253.4H802.3v-.5H688v.5Z" class="g1_1206"/>
<path d="M688,253.1h.4v-41H688v41Z" class="g1_1206"/>
<path d="M548.8,255.8h90.3V203H548.8v52.8Z" class="g5_1206"/>
<path d="M548.8,203.2h90.6v-.4H548.8v.4Z" class="g6_1206"/>
<path d="M638.9,256h.5V203h-.5v53Z" class="g6_1206"/>
<path d="M548.6,256h90.5v-.4H548.6v.4Z" class="g6_1206"/>
<path d="M548.6,255.8h.5v-53h-.5v53Z" class="g6_1206"/>
<path d="M730.6,390.6l3.8,1l1,.4l-.5,.8l-7.4,12.5l-1.4,2.3L726,405l-.3,-14.7l-.1,-1.1l1,.3l.6,.7l.4,14.7L726,405l.2,-.5L733.6,392l1.3,.8l-.8,.4l-3.9,-1.1Z" class="g1_1206"/>
<path d="M726.6,389.5l4,1.1l-.4,1.5l-3.9,-1Z" class="g1_1206"/>
<path fill-rule="evenodd" d="M730.4,391.3l3.8,1l-7.4,12.6l-.3,-14.7Z" class="g1_1206"/>
<path d="M766.5,253.7l.1,-.3l-.7,-.2l-.1,.4Z" class="g1_1206"/>
<path d="M731,390.6l-.1,.4l-.8,-.2l.1,-.4Z" class="g1_1206"/>
<path d="M766.5,253.7l-.7,-.1L730.2,390.4l.8,.2Z" class="g1_1206"/>
<path d="M591.7,353.3l3.9,1.1l1,.3l-.6,.9l-7.5,12.5l-1.4,2.2l-.1,-2.5l-.2,-14.7V352l1,.3l.5,.7l.3,14.7l-1.6,.1l.2,-.5l7.5,-12.5l1.3,.8l-.8,.3l-3.9,-1.1Z" class="g1_1206"/>
<path d="M587.8,352.3l3.9,1l-.4,1.5l-3.9,-1Z" class="g1_1206"/>
<path fill-rule="evenodd" d="M591.5,354l3.9,1.1l-7.5,12.6L587.6,353Z" class="g1_1206"/>
<path d="M618.3,256.8l.1,-.4l-.7,-.2l-.1,.4Z" class="g1_1206"/>
<path d="M592.1,353.4l-.1,.3l-.7,-.1v-.4Z" class="g1_1206"/>
<path d="M618.3,256.8l-.7,-.2l-26.3,96.6l.8,.2Z" class="g1_1206"/>
<path d="M259.2,341.3l3.7,-1.9l.9,-.3l.2,.9l2.9,14.3l.6,2.6l-1.9,-2L255.5,344.4l-.7,-.7l.9,-.5l.9,.2l10.1,10.4l-1.1,1.1l-.1,-.3l-3,-14.3L264,340l-.4,.8l-3.6,1.9Z" class="g1_1206"/>
<path d="M255.7,343.2l3.5,-1.9l.8,1.4l-3.6,1.9Z" class="g1_1206"/>
<path fill-rule="evenodd" d="M259.6,341.9l3.7,-1.8l2.9,14.3L256,343.8Z" class="g1_1206"/>
<path d="M214.2,254.5l-.2,-.3l-.6,.4l.2,.2Z" class="g1_1206"/>
<path d="M259.7,341.1l.2,.3l-.7,.3l-.2,-.2Z" class="g1_1206"/>
<path d="M214.2,254.5l-.6,.3L259,341.5l.7,-.4Z" class="g1_1206"/>
<path d="M386.7,328.3l4,-1l1,-.2v1l-.1,14.5l-.1,2.7L390.1,343l-7.7,-12.5l-.5,-.9l1,-.2l.8,.3l7.7,12.5l-1.3,.8l-.1,-.4l.1,-14.6l1.6,.1l-.6,.7l-4,1.1Z" class="g1_1206"/>
<path d="M382.9,329.4l3.8,-1l.4,1.5l-3.8,1Z" class="g1_1206"/>
<path fill-rule="evenodd" d="M386.9,329.1l4,-1.1l-.1,14.6l-7.7,-12.5Z" class="g1_1206"/>
<path d="M366,253.6l-.1,-.4l-.7,.2l.1,.3Z" class="g1_1206"/>
<path d="M387.1,328.3l.1,.3l-.7,.2l-.1,-.4Z" class="g1_1206"/>
<path d="M366,253.6l-.7,.1l21.1,74.7l.7,-.1Z" class="g1_1206"/>
<path d="M317.7,253.7h99.6V212.9H317.7v40.8Z" class="g2_1206"/>
<path d="M317.7,213.2h99.8v-.4H317.7v.4Z" class="g3_1206"/>
<path d="M417.1,254h.4V212.9h-.4V254Z" class="g3_1206"/>
<path d="M317.5,254h99.8v-.4H317.5v.4Z" class="g3_1206"/>
<path d="M317.5,253.7h.5V212.8h-.5v40.9Z" class="g3_1206"/>
</svg>