<?xml version="1.0" encoding="UTF-8" standalone="no"?>
<!DOCTYPE svg PUBLIC "-//W3C//DTD SVG 1.1//EN"
"http://www.w3.org/Graphics/SVG/1.1/DTD/svg11.dtd">
<svg viewBox="0 0 935 1210" version="1.1" xmlns="http://www.w3.org/2000/svg" xmlns:xlink="http://www.w3.org/1999/xlink">
<defs>
<style type="text/css"><![CDATA[
.g0_765{
fill: #FFF;
}
.g1_765{
fill: #000;
}
]]></style>
</defs>
<path d="M68.9,1149.3H852.7v-21.2H68.9v21.2Z" class="g0_765"/>
<path d="M71.3,348h.8V142.4h-.8V348Z" class="g1_765"/>
<path d="M175.1,348.7h.7v-207h-.7v207Z" class="g1_765"/>
<path d="M229.6,348.7h.8v-207h-.8v207Z" class="g1_765"/>
<path d="M850.7,348h.7V142.4h-.7V348Z" class="g1_765"/>
<path d="M71.3,142.4H851.4v-.7H71.3v.7Z" class="g1_765"/>
<path d="M71.3,166.9H851.4v-.7H71.3v.7Z" class="g1_765"/>
<path d="M71.3,208.2H851.4v-.8H71.3v.8Z" class="g1_765"/>
<path d="M71.3,324.2H851.4v-.7H71.3v.7Z" class="g1_765"/>
<path d="M71.3,348.7H851.4V348H71.3v.7Z" class="g1_765"/>
<path d="M69.9,1083.6h.8V691.7h-.8v391.9Z" class="g1_765"/>
<path d="M188.7,1084.4h.8V691h-.8v393.4Z" class="g1_765"/>
<path d="M241.3,1084.4h.7V691h-.7v393.4Z" class="g1_765"/>
<path d="M852.2,1083.6h.8V691.7h-.8v391.9Z" class="g1_765"/>
<path d="M69.9,691.7H853V691H69.9v.7Z" class="g1_765"/>
<path d="M69.9,716.2H853v-.7H69.9v.7Z" class="g1_765"/>
<path d="M69.9,757.4H853v-.7H69.9v.7Z" class="g1_765"/>
<path d="M69.9,798.7H853V798H69.9v.7Z" class="g1_765"/>
<path d="M69.9,823.1H853v-.8H69.9v.8Z" class="g1_765"/>
<path d="M69.9,847.5H853v-.7H69.9v.7Z" class="g1_765"/>
<path d="M69.9,872H853v-.7H69.9v.7Z" class="g1_765"/>
<path d="M69.9,896.4H853v-.7H69.9v.7Z" class="g1_765"/>
<path d="M69.9,920.9H853v-.7H69.9v.7Z" class="g1_765"/>
<path d="M69.9,945.4H853v-.8H69.9v.8Z" class="g1_765"/>
<path d="M69.9,969.7H853V969H69.9v.7Z" class="g1_765"/>
<path d="M69.9,994.2H853v-.7H69.9v.7Z" class="g1_765"/>
<path d="M69.9,1035.5H853v-.8H69.9v.8Z" class="g1_765"/>
<path d="M69.9,1059.9H853v-.7H69.9v.7Z" class="g1_765"/>
<path d="M69.9,1084.3H853v-.7H69.9v.7Z" class="g1_765"/>
</svg>