<?xml version="1.0" encoding="UTF-8" standalone="no"?>
<!DOCTYPE svg PUBLIC "-//W3C//DTD SVG 1.1//EN"
"http://www.w3.org/Graphics/SVG/1.1/DTD/svg11.dtd">
<svg viewBox="0 0 935 1210" version="1.1" xmlns="http://www.w3.org/2000/svg" xmlns:xlink="http://www.w3.org/1999/xlink">
<defs>
<style type="text/css"><![CDATA[
.g0_113{
fill: #FFF;
}
.g1_113{
fill: #000;
}
]]></style>
</defs>
<path d="M68.9,1149.3H852.7v-21.2H68.9v21.2Z" class="g0_113"/>
<path d="M69.9,1064.5h.8V142.4h-.8v922.1Z" class="g1_113"/>
<path d="M126.7,1065.3h.7V183h-.7v882.3Z" class="g1_113"/>
<path d="M183.4,1065.3h.8V141.7h-.8v923.6Z" class="g1_113"/>
<path d="M423.4,1065.3h.7V141.7h-.7v923.6Z" class="g1_113"/>
<path d="M516.5,1065.3h.8V141.7h-.8v923.6Z" class="g1_113"/>
<path d="M849.8,1064.5h.8V142.4h-.8v922.1Z" class="g1_113"/>
<path d="M69.9,142.4H850.6v-.7H69.9v.7Z" class="g1_113"/>
<path d="M69.9,183.7H184.2V183H69.9v.7Z" class="g1_113"/>
<path d="M69.9,208.2H850.6v-.8H69.9v.8Z" class="g1_113"/>
<path d="M69.9,232.6H850.6v-.8H69.9v.8Z" class="g1_113"/>
<path d="M69.9,257H850.6v-.7H69.9v.7Z" class="g1_113"/>
<path d="M69.9,281.5H850.6v-.7H69.9v.7Z" class="g1_113"/>
<path d="M69.9,305.9H850.6v-.7H69.9v.7Z" class="g1_113"/>
<path d="M69.9,330.4H850.6v-.8H69.9v.8Z" class="g1_113"/>
<path d="M69.9,354.8H850.6v-.7H69.9v.7Z" class="g1_113"/>
<path d="M69.9,379.2H850.6v-.7H69.9v.7Z" class="g1_113"/>
<path d="M69.9,403.7H850.6V403H69.9v.7Z" class="g1_113"/>
<path d="M69.9,428.2H850.6v-.8H69.9v.8Z" class="g1_113"/>
<path d="M69.9,452.7H850.6v-.8H69.9v.8Z" class="g1_113"/>
<path d="M69.9,477H850.6v-.7H69.9v.7Z" class="g1_113"/>
<path d="M69.9,501.5H850.6v-.7H69.9v.7Z" class="g1_113"/>
<path d="M69.9,526H850.6v-.8H69.9v.8Z" class="g1_113"/>
<path d="M69.9,550.4H850.6v-.8H69.9v.8Z" class="g1_113"/>
<path d="M69.9,574.8H850.6v-.7H69.9v.7Z" class="g1_113"/>
<path d="M69.9,599.3H850.6v-.7H69.9v.7Z" class="g1_113"/>
<path d="M69.9,623.7H850.6V623H69.9v.7Z" class="g1_113"/>
<path d="M69.9,648.2H850.6v-.8H69.9v.8Z" class="g1_113"/>
<path d="M69.9,672.7H850.6v-.8H69.9v.8Z" class="g1_113"/>
<path d="M69.9,697H850.6v-.7H69.9v.7Z" class="g1_113"/>
<path d="M69.9,721.5H850.6v-.7H69.9v.7Z" class="g1_113"/>
<path d="M69.9,746H850.6v-.8H69.9v.8Z" class="g1_113"/>
<path d="M69.9,770.4H850.6v-.8H69.9v.8Z" class="g1_113"/>
<path d="M69.9,794.8H850.6v-.7H69.9v.7Z" class="g1_113"/>
<path d="M69.9,840.7H850.6v-.8H69.9v.8Z" class="g1_113"/>
<path d="M69.9,886.5H850.6v-.7H69.9v.7Z" class="g1_113"/>
<path d="M69.9,932.3H850.6v-.7H69.9v.7Z" class="g1_113"/>
<path d="M69.9,978.2H850.6v-.8H69.9v.8Z" class="g1_113"/>
<path d="M69.9,1019.4H850.6v-.7H69.9v.7Z" class="g1_113"/>
<path d="M69.9,1065.3H850.6v-.8H69.9v.8Z" class="g1_113"/>
</svg>