<?xml version="1.0" encoding="UTF-8" standalone="no"?>
<!DOCTYPE svg PUBLIC "-//W3C//DTD SVG 1.1//EN"
"http://www.w3.org/Graphics/SVG/1.1/DTD/svg11.dtd">
<svg viewBox="0 0 935 1210" version="1.1" xmlns="http://www.w3.org/2000/svg" xmlns:xlink="http://www.w3.org/1999/xlink">
<defs>
<style type="text/css"><![CDATA[
.g0_198{
fill: #FFF;
}
.g1_198{
fill: #000;
}
]]></style>
</defs>
<path d="M68.8,1149.3H852.5v-21.2H68.8v21.2Z" class="g0_198"/>
<path d="M68.6,1096.6h.7V124.1h-.7v972.5Z" class="g1_198"/>
<path d="M125.3,1097.3h.7V164.6h-.7v932.7Z" class="g1_198"/>
<path d="M182.1,1097.3h.7V123.4h-.7v973.9Z" class="g1_198"/>
<path d="M425.7,1097.3h.7V123.4h-.7v973.9Z" class="g1_198"/>
<path d="M518.7,1097.3h.8V123.4h-.8v973.9Z" class="g1_198"/>
<path d="M850.4,1096.6h.7V124.1h-.7v972.5Z" class="g1_198"/>
<path d="M68.6,124.1H851.1v-.7H68.6v.7Z" class="g1_198"/>
<path d="M68.6,165.4H182.8v-.8H68.6v.8Z" class="g1_198"/>
<path d="M68.6,189.8H851.1v-.7H68.6v.7Z" class="g1_198"/>
<path d="M182.1,383.8h669v-.7h-669v.7Z" class="g1_198"/>
<path d="M68.6,408.3H851.1v-.7H68.6v.7Z" class="g1_198"/>
<path d="M68.6,432.8H851.1V432H68.6v.8Z" class="g1_198"/>
<path d="M68.6,457.2H851.1v-.7H68.6v.7Z" class="g1_198"/>
<path d="M68.6,481.6H851.1v-.7H68.6v.7Z" class="g1_198"/>
<path d="M68.6,506.1H851.1v-.7H68.6v.7Z" class="g1_198"/>
<path d="M182.1,530.6h669v-.8h-669v.8Z" class="g1_198"/>
<path d="M182.1,643.6h669v-.7h-669v.7Z" class="g1_198"/>
<path d="M182.1,739.8h669v-.7h-669v.7Z" class="g1_198"/>
<path d="M182.1,852.9h669v-.8h-669v.8Z" class="g1_198"/>
<path d="M68.6,877.3H851.1v-.7H68.6v.7Z" class="g1_198"/>
<path d="M68.6,901.8H851.1v-.7H68.6v.7Z" class="g1_198"/>
<path d="M68.6,926.2H851.1v-.7H68.6v.7Z" class="g1_198"/>
<path d="M68.6,950.7H851.1v-.8H68.6v.8Z" class="g1_198"/>
<path d="M68.6,975.2H851.1v-.8H68.6v.8Z" class="g1_198"/>
<path d="M68.6,999.5H851.1v-.7H68.6v.7Z" class="g1_198"/>
<path d="M68.6,1024H851.1v-.7H68.6v.7Z" class="g1_198"/>
<path d="M68.6,1048.5H851.1v-.7H68.6v.7Z" class="g1_198"/>
<path d="M68.6,1072.9H851.1v-.8H68.6v.8Z" class="g1_198"/>
<path d="M68.6,1097.3H851.1v-.7H68.6v.7Z" class="g1_198"/>
</svg>