<?xml version="1.0" encoding="UTF-8" standalone="no"?>
<!DOCTYPE svg PUBLIC "-//W3C//DTD SVG 1.1//EN"
"http://www.w3.org/Graphics/SVG/1.1/DTD/svg11.dtd">
<svg viewBox="0 0 935 1210" version="1.1" xmlns="http://www.w3.org/2000/svg" xmlns:xlink="http://www.w3.org/1999/xlink">
<defs>
<style type="text/css"><![CDATA[
.g0_128{
fill: #B3B3B3;
}
.g1_128{
fill: #000;
}
]]></style>
</defs>
<path d="M82.5,96.3h770V55H82.5V96.3Z" class="g0_128"/>
<path d="M81.9,1032.4h.7V150.1h-.7v882.3Z" class="g1_128"/>
<path d="M147.9,1033.2h.8V149.3h-.8v883.9Z" class="g1_128"/>
<path d="M231.9,1033.2h.8V149.3h-.8v883.9Z" class="g1_128"/>
<path d="M357.3,1033.2h.8V149.3h-.8v883.9Z" class="g1_128"/>
<path d="M445.3,1033.2h.8V149.3h-.8v883.9Z" class="g1_128"/>
<path d="M720.3,1033.2h.8V149.3h-.8v883.9Z" class="g1_128"/>
<path d="M852.4,1032.4h.7V150.1h-.7v882.3Z" class="g1_128"/>
<path d="M81.9,150.1H853.1v-.8H81.9v.8Z" class="g1_128"/>
<path d="M81.9,228h66v-.8h-66v.8Z" class="g1_128"/>
<path d="M148.7,226.1H852.3v-.8H148.7v.8Z" class="g1_128"/>
<path d="M148.7,229.9H852.3v-.7H148.7v.7Z" class="g1_128"/>
<path d="M147.9,269.2H446v-.7H147.9v.7Z" class="g1_128"/>
<path d="M720.3,269.2H853.1v-.7H720.3v.7Z" class="g1_128"/>
<path d="M81.9,437.3H853.1v-.7H81.9v.7Z" class="g1_128"/>
<path d="M81.9,1033.2H853.1v-.8H81.9v.8Z" class="g1_128"/>
</svg>