<?xml version="1.0" encoding="UTF-8" standalone="no"?>
<!DOCTYPE svg PUBLIC "-//W3C//DTD SVG 1.1//EN"
"http://www.w3.org/Graphics/SVG/1.1/DTD/svg11.dtd">
<svg viewBox="0 0 935 1210" version="1.1" xmlns="http://www.w3.org/2000/svg" xmlns:xlink="http://www.w3.org/1999/xlink">
<defs>
<style type="text/css"><![CDATA[
.g0_4458{
fill: #FFF;
}
.g1_4458{
fill: #000;
}
]]></style>
</defs>
<path d="M68.8,1149.3H852.5v-21.2H68.8v21.2Z" class="g0_4458"/>
<path d="M68.5,959.1h.7V710.8h-.7V959.1Z" class="g1_4458"/>
<path d="M127.2,959.8h.8V710.1h-.8V959.8Z" class="g1_4458"/>
<path d="M205.9,959.8h.7V710.1h-.7V959.8Z" class="g1_4458"/>
<path d="M304.6,959.8h.7V710.1h-.7V959.8Z" class="g1_4458"/>
<path d="M851.9,959.1h.7V710.8h-.7V959.1Z" class="g1_4458"/>
<path d="M68.5,710.8H852.6v-.7H68.5v.7Z" class="g1_4458"/>
<path d="M68.5,733.7H852.6V733H68.5v.7Z" class="g1_4458"/>
<path d="M68.5,863.6H852.6v-.7H68.5v.7Z" class="g1_4458"/>
<path d="M68.5,936.9H852.6v-.7H68.5v.7Z" class="g1_4458"/>
<path d="M68.5,959.8H852.6v-.7H68.5v.7Z" class="g1_4458"/>
</svg>