<?xml version="1.0" encoding="UTF-8" standalone="no"?>
<!DOCTYPE svg PUBLIC "-//W3C//DTD SVG 1.1//EN"
"http://www.w3.org/Graphics/SVG/1.1/DTD/svg11.dtd">
<svg viewBox="0 0 825 990" version="1.1" xmlns="http://www.w3.org/2000/svg" xmlns:xlink="http://www.w3.org/1999/xlink">
<defs>
<clipPath id="c0_843"><path d="M160.2,870.9V860.1H744.9v10.8Z"/></clipPath>
<style type="text/css"><![CDATA[
.g0_843{
fill: #000;
}
.g1_843{
fill: #FFF;
}
.g2_843{
fill: #FFF;
stroke: #231F20;
stroke-width: 0.763;
stroke-miterlimit: 3;
}
.g3_843{
fill: none;
stroke: #231F20;
stroke-width: 0.763;
stroke-miterlimit: 3;
}
.g4_843{
fill: #231F20;
stroke: #231F20;
stroke-width: 0.763;
stroke-linecap: round;
stroke-miterlimit: 3;
}
]]></style>
</defs>
<path d="M94.9,910.3h.3v-.8h-.3v.8Z" class="g0_843"/>
<path d="M95.2,910.3h650v-.8H95.2v.8Z" class="g0_843"/>
<path d="M160.2,806.7H744.9V780.6H160.2v26.1Z" class="g1_843"/>
<path d="M160.2,791.7V791Z" class="g0_843"/>
<path d="M160.2,791.7h43.7V791H160.2v.7Z" class="g0_843"/>
<path d="M246.7,791.7h.3V791h-.3v.7Z" class="g0_843"/>
<path d="M247,791.7h86.8V791H247v.7Z" class="g0_843"/>
<path clip-path="url(#c0_843)" d="M160.2,870.9H744.9V860.1H160.2v10.8Z" class="g1_843"/>
<path d="M160.2,864v-.8Z" class="g0_843"/>
<path d="M160.2,864H333.8v-.8H160.2v.8Z" class="g0_843"/>
<path d="M249.9,512.3H743.3V251.1H249.9V512.3Z" class="g1_843"/>
<path d="M250.6,257.2h48.2V363.4H250.6V257.2Z" class="g2_843"/>
<path d="M398.5,257.2h48.1V363.4H398.5V257.2Z" class="g2_843"/>
<path d="M546.3,257.2h48.1V363.4H546.3V257.2Z" class="g2_843"/>
<path d="M694.1,257.2h48.1V363.4H694.1V257.2Z" class="g2_843"/>
<path d="M545.9,404.6H594V510.8H545.9V404.6Z" class="g2_843"/>
<path d="M298.8,309.2h99.3" class="g3_843"/>
<path d="M391.1,306.6l7,2.5c0,0,-7,2.7,-7,2.6c-.1,-.1,0,-5.1,0,-5.1Z" class="g4_843"/>
<path d="M447.7,310.3h97.8" class="g3_843"/>
<path d="M538.5,307.7l7.1,2.5c0,0,-7,2.8,-7.1,2.7c-.1,-.2,0,-5.2,0,-5.2Z" class="g4_843"/>
<path d="M595.2,310.3h97.7" class="g3_843"/>
<path d="M685.9,307.7l7.1,2.5c0,0,-7,2.8,-7.1,2.7c0,-.2,0,-5.2,0,-5.2Z" class="g4_843"/>
<path d="M496.6,310.7V461.9m.8,-.7h48.1" class="g3_843"/>
<path d="M538.5,458.6l7.1,2.5c0,0,-7,2.7,-7.1,2.6c-.1,-.1,0,-5.1,0,-5.1Z" class="g4_843"/>
</svg>