<?xml version="1.0" encoding="UTF-8" standalone="no"?>
<!DOCTYPE svg PUBLIC "-//W3C//DTD SVG 1.1//EN"
"http://www.w3.org/Graphics/SVG/1.1/DTD/svg11.dtd">
<svg viewBox="0 0 825 990" version="1.1" xmlns="http://www.w3.org/2000/svg" xmlns:xlink="http://www.w3.org/1999/xlink">
<defs>
<clipPath id="c0_899"><path d="M160.2,386.2V375.3H744.9v10.9Z"/></clipPath>
<style type="text/css"><![CDATA[
.g0_899{
fill: #000;
}
.g1_899{
fill: #FFF;
}
]]></style>
</defs>
<path d="M94.9,910.3h.3v-.8h-.3v.8Z" class="g0_899"/>
<path d="M95.2,910.3h650v-.8H95.2v.8Z" class="g0_899"/>
<path d="M160.2,321.4H744.9v-26H160.2v26Z" class="g1_899"/>
<path d="M160.2,306.4v-.7Z" class="g0_899"/>
<path d="M160.2,306.4h43.7v-.7H160.2v.7Z" class="g0_899"/>
<path d="M246.7,306.4h.3v-.7h-.3v.7Z" class="g0_899"/>
<path d="M247,306.4h86.8v-.7H247v.7Z" class="g0_899"/>
<path clip-path="url(#c0_899)" d="M160.2,386.2H744.9V375.3H160.2v10.9Z" class="g1_899"/>
<path d="M160.2,379.1v-.7Z" class="g0_899"/>
<path d="M160.2,379.1H333.8v-.7H160.2v.7Z" class="g0_899"/>
<path d="M458.7,472.1H744.9v-.8H458.7v.8Z" class="g0_899"/>
<path d="M458.7,507.2H744.9v-.7H458.7v.7Z" class="g0_899"/>
<path d="M458.7,536H744.9v-.2H458.7v.2Z" class="g0_899"/>
<path d="M458.7,565H744.9v-.1H458.7v.1Z" class="g0_899"/>
<path d="M458.7,594H744.9v-.2H458.7v.2Z" class="g0_899"/>
<path d="M458.7,623.3H744.9v-.7H458.7v.7Z" class="g0_899"/>
</svg>