<?xml version="1.0" encoding="UTF-8" standalone="no"?>
<!DOCTYPE svg PUBLIC "-//W3C//DTD SVG 1.1//EN"
"http://www.w3.org/Graphics/SVG/1.1/DTD/svg11.dtd">
<svg viewBox="0 0 935 1210" version="1.1" xmlns="http://www.w3.org/2000/svg" xmlns:xlink="http://www.w3.org/1999/xlink">
<defs>
<style type="text/css"><![CDATA[
.g0_1445{
fill: #FFF;
}
.g1_1445{
fill: #000;
}
]]></style>
</defs>
<path d="M68.9,1149.3H755.2v-21.2H68.9v21.2Z" class="g0_1445"/>
<path d="M771.3,1149.3H855v-21.2H771.3v21.2Z" class="g0_1445"/>
<path d="M70.3,1064.9v-.7Z" class="g1_1445"/>
<path d="M70.3,1064.9H290.7v-.7H70.3v.7Z" class="g1_1445"/>
<path d="M69.9,222.7h.8v-97h-.8v97Z" class="g1_1445"/>
<path d="M289.9,223.5h.7V124.9h-.7v98.6Z" class="g1_1445"/>
<path d="M327.6,223.5h.8V124.9h-.8v98.6Z" class="g1_1445"/>
<path d="M400.8,223.5h.7V124.9h-.7v98.6Z" class="g1_1445"/>
<path d="M471.9,223.5h.7V124.9h-.7v98.6Z" class="g1_1445"/>
<path d="M852.5,222.7h.7v-97h-.7v97Z" class="g1_1445"/>
<path d="M69.9,125.7H327.6v-.8H69.9v.8Z" class="g1_1445"/>
<path d="M328.4,125.7H471.9v-.8H328.4v.8Z" class="g1_1445"/>
<path d="M472.7,125.7H853.2v-.8H472.7v.8Z" class="g1_1445"/>
<path d="M69.9,179.1H853.2v-.7H69.9v.7Z" class="g1_1445"/>
<path d="M69.9,223.4H853.2v-.7H69.9v.7Z" class="g1_1445"/>
<path d="M69.9,326.6h.8V278.5h-.8v48.1Z" class="g1_1445"/>
<path d="M140.7,327.3h.7V277.7h-.7v49.6Z" class="g1_1445"/>
<path d="M237.8,327.3h.7V277.7h-.7v49.6Z" class="g1_1445"/>
<path d="M391.6,327.3h.7V277.7h-.7v49.6Z" class="g1_1445"/>
<path d="M542.2,327.3h.7V277.7h-.7v49.6Z" class="g1_1445"/>
<path d="M696.3,327.3h.7V277.7h-.7v49.6Z" class="g1_1445"/>
<path d="M852.7,326.6h.7V278.5h-.7v48.1Z" class="g1_1445"/>
<path d="M69.9,278.4h70.8v-.7H69.9v.7Z" class="g1_1445"/>
<path d="M141.5,278.4h96.2v-.7H141.5v.7Z" class="g1_1445"/>
<path d="M238.5,278.4H853.4v-.7H238.5v.7Z" class="g1_1445"/>
<path d="M69.9,302.9h71.6v-.8H69.9v.8Z" class="g1_1445"/>
<path d="M140.7,302.9h97.8v-.8H140.7v.8Z" class="g1_1445"/>
<path d="M237.7,302.9H853.4v-.8H237.7v.8Z" class="g1_1445"/>
<path d="M69.9,327.3h70.8v-.7H69.9v.7Z" class="g1_1445"/>
<path d="M141.5,327.3h96.2v-.7H141.5v.7Z" class="g1_1445"/>
<path d="M238.5,327.3H853.4v-.7H238.5v.7Z" class="g1_1445"/>
<path d="M71,720.8h.8V606.9H71V720.8Z" class="g1_1445"/>
<path d="M174.4,721.5h.8V606.2h-.8V721.5Z" class="g1_1445"/>
<path d="M283.9,721.5h.7V606.2h-.7V721.5Z" class="g1_1445"/>
<path d="M411.6,721.5h.7V606.2h-.7V721.5Z" class="g1_1445"/>
<path d="M549.4,721.5h.7V606.2h-.7V721.5Z" class="g1_1445"/>
<path d="M850.9,720.8h.8V606.9h-.8V720.8Z" class="g1_1445"/>
<path d="M71,606.9H851.7v-.7H71v.7Z" class="g1_1445"/>
<path d="M71,631.4H851.7v-.7H71v.7Z" class="g1_1445"/>
<path d="M71,672.7H851.7v-.8H71v.8Z" class="g1_1445"/>
<path d="M71,697H851.7v-.7H71v.7Z" class="g1_1445"/>
<path d="M71,721.5H851.7v-.7H71v.7Z" class="g1_1445"/>
</svg>