<?xml version="1.0" encoding="UTF-8" standalone="no"?>
<!DOCTYPE svg PUBLIC "-//W3C//DTD SVG 1.1//EN"
"http://www.w3.org/Graphics/SVG/1.1/DTD/svg11.dtd">
<svg viewBox="0 0 935 1210" version="1.1" xmlns="http://www.w3.org/2000/svg" xmlns:xlink="http://www.w3.org/1999/xlink">
<defs>
<style type="text/css"><![CDATA[
.g0_2804{
fill: #FFF;
}
.g1_2804{
fill: #0860A8;
}
.g2_2804{
fill: #000;
}
]]></style>
</defs>
<path d="M165,1149.3H852.5v-21.2H165v21.2Z" class="g0_2804"/>
<path d="M68.8,1149.3h82.5v-21.2H68.8v21.2Z" class="g0_2804"/>
<path d="M513.6,585.3h328v-.8h-328v.8Z" class="g1_2804"/>
<path d="M68.9,602.1H742.2v-.9H68.9v.9Z" class="g1_2804"/>
<path d="M68.6,267h.7V147h-.7V267Z" class="g2_2804"/>
<path d="M258.1,267.8h.8V146.3h-.8V267.8Z" class="g2_2804"/>
<path d="M302.8,267.8h.7V146.3h-.7V267.8Z" class="g2_2804"/>
<path d="M377.3,267.8h.7V146.3h-.7V267.8Z" class="g2_2804"/>
<path d="M464.3,267.8h.7V146.3h-.7V267.8Z" class="g2_2804"/>
<path d="M850.7,267h.7V147h-.7V267Z" class="g2_2804"/>
<path d="M68.6,147H851.4v-.7H68.6v.7Z" class="g2_2804"/>
<path d="M68.6,197.4H851.4v-.7H68.6v.7Z" class="g2_2804"/>
<path d="M68.6,267.8H851.4V267H68.6v.8Z" class="g2_2804"/>
<path d="M68.6,370.9h.7V322.8h-.7v48.1Z" class="g2_2804"/>
<path d="M133.2,371.6h.7V322h-.7v49.6Z" class="g2_2804"/>
<path d="M231.7,371.6h.8V322h-.8v49.6Z" class="g2_2804"/>
<path d="M389,371.6h.8V322H389v49.6Z" class="g2_2804"/>
<path d="M546.2,371.6h.7V322h-.7v49.6Z" class="g2_2804"/>
<path d="M696.8,371.6h.7V322h-.7v49.6Z" class="g2_2804"/>
<path d="M851,370.9h.8V322.8H851v48.1Z" class="g2_2804"/>
<path d="M68.6,322.8H851.8V322H68.6v.8Z" class="g2_2804"/>
<path d="M68.6,347.1H851.8v-.7H68.6v.7Z" class="g2_2804"/>
<path d="M68.6,371.6H851.8v-.7H68.6v.7Z" class="g2_2804"/>
</svg>