<?xml version="1.0" encoding="UTF-8" standalone="no"?>
<!DOCTYPE svg PUBLIC "-//W3C//DTD SVG 1.1//EN"
"http://www.w3.org/Graphics/SVG/1.1/DTD/svg11.dtd">
<svg viewBox="0 0 935 1210" version="1.1" xmlns="http://www.w3.org/2000/svg" xmlns:xlink="http://www.w3.org/1999/xlink">
<defs>
<style type="text/css"><![CDATA[
.g0_4571{
fill: #FFF;
}
.g1_4571{
fill: #000;
}
]]></style>
</defs>
<path d="M68.9,1149.3H852.7v-21.2H68.9v21.2Z" class="g0_4571"/>
<path d="M67.7,985.1h.8v-861h-.8v861Z" class="g1_4571"/>
<path d="M122.5,985.9h.7V164.6h-.7V985.9Z" class="g1_4571"/>
<path d="M183.4,985.9h.8V123.4h-.8V985.9Z" class="g1_4571"/>
<path d="M418.4,985.9h.7V123.4h-.7V985.9Z" class="g1_4571"/>
<path d="M683.2,985.9h.7V123.4h-.7V985.9Z" class="g1_4571"/>
<path d="M854.2,985.1h.8v-861h-.8v861Z" class="g1_4571"/>
<path d="M67.7,124.1H855v-.7H67.7v.7Z" class="g1_4571"/>
<path d="M67.7,165.4H184.2v-.8H67.7v.8Z" class="g1_4571"/>
<path d="M67.7,189.8H855v-.7H67.7v.7Z" class="g1_4571"/>
<path d="M183.4,235.7H855v-.8H183.4v.8Z" class="g1_4571"/>
<path d="M183.4,281.5H855v-.7H183.4v.7Z" class="g1_4571"/>
<path d="M67.7,305.9H855v-.7H67.7v.7Z" class="g1_4571"/>
<path d="M183.4,347.1H855v-.7H183.4v.7Z" class="g1_4571"/>
<path d="M183.4,393H855v-.8H183.4v.8Z" class="g1_4571"/>
<path d="M183.4,438.9H855v-.7H183.4v.7Z" class="g1_4571"/>
<path d="M183.4,484.7H855V484H183.4v.7Z" class="g1_4571"/>
<path d="M183.4,542.8H855V542H183.4v.8Z" class="g1_4571"/>
<path d="M183.4,588.6H855v-.7H183.4v.7Z" class="g1_4571"/>
<path d="M183.4,646.6H855v-.7H183.4v.7Z" class="g1_4571"/>
<path d="M67.7,671.1H855v-.7H67.7v.7Z" class="g1_4571"/>
<path d="M183.4,695.6H855v-.8H183.4v.8Z" class="g1_4571"/>
<path d="M183.4,770.4H855v-.8H183.4v.8Z" class="g1_4571"/>
<path d="M183.4,845.3H855v-.8H183.4v.8Z" class="g1_4571"/>
<path d="M183.4,869.7H855V869H183.4v.7Z" class="g1_4571"/>
<path d="M183.4,961.4H855v-.7H183.4v.7Z" class="g1_4571"/>
<path d="M67.7,985.8H855v-.7H67.7v.7Z" class="g1_4571"/>
</svg>