<?xml version="1.0" encoding="UTF-8" standalone="no"?>
<!DOCTYPE svg PUBLIC "-//W3C//DTD SVG 1.1//EN"
"http://www.w3.org/Graphics/SVG/1.1/DTD/svg11.dtd">
<svg viewBox="0 0 935 1210" version="1.1" xmlns="http://www.w3.org/2000/svg" xmlns:xlink="http://www.w3.org/1999/xlink">
<defs>
<clipPath id="c0_1784"><path d="M766.6,59.2V41.4h72.1V59.2Z"/></clipPath>
<style type="text/css"><![CDATA[
.g0_1784{
fill: #000;
}
.g1_1784{
fill: #E5E5E5;
}
]]></style>
</defs>
<path d="M97.3,62.9v.3H839.9v-.3H97.3Z" class="g0_1784"/>
<path d="M96.2,1114.1h-.1v.4h.1v-.4Z" class="g0_1784"/>
<path d="M838.7,1114.1h.2v.4h-.2v-.4Z" class="g0_1784"/>
<path d="M96.2,1114.1v.4H838.7v-.4H96.2Z" class="g0_1784"/>
<image clip-path="url(#c0_1784)" preserveAspectRatio="none" x="767" y="41" width="72" height="18" xlink:href="img/1.jpg"/>
<path d="M204.2,202.2h79v18.3h-79V202.2Z" class="g1_1784"/>
<path d="M283.2,202.2h79v18.3h-79V202.2Z" class="g1_1784"/>
<path d="M362.2,202.2h79v18.3h-79V202.2Z" class="g1_1784"/>
<path d="M441.2,202.2h80.7v18.3H441.2V202.2Z" class="g1_1784"/>
<path d="M521.9,202.2H601v18.3H521.9V202.2Z" class="g1_1784"/>
<path d="M601,202.2h86.2v18.3H601V202.2Z" class="g1_1784"/>
<path d="M204.2,220.5h79V239h-79V220.5Z" class="g1_1784"/>
<path d="M283.2,220.5h79V239h-79V220.5Z" class="g1_1784"/>
<path d="M362.2,220.5h79V239h-79V220.5Z" class="g1_1784"/>
<path d="M441.2,220.5h80.7V239H441.2V220.5Z" class="g1_1784"/>
<path d="M521.9,220.5H601V239H521.9V220.5Z" class="g1_1784"/>
<path d="M601,220.5h86.2V239H601V220.5Z" class="g1_1784"/>
<path d="M204.2,239h79v18.3h-79V239Z" class="g1_1784"/>
<path d="M283.2,239h79v18.3h-79V239Z" class="g1_1784"/>
<path d="M362.2,239h79v18.3h-79V239Z" class="g1_1784"/>
<path d="M441.2,239h80.7v18.3H441.2V239Z" class="g1_1784"/>
<path d="M521.9,239H601v18.3H521.9V239Z" class="g1_1784"/>
<path d="M601,239h86.2v18.3H601V239Z" class="g1_1784"/>
<path d="M204.2,257.3h79v18.3h-79V257.3Z" class="g1_1784"/>
<path d="M283.2,257.3h79v18.3h-79V257.3Z" class="g1_1784"/>
<path d="M362.2,257.3h79v18.3h-79V257.3Z" class="g1_1784"/>
<path d="M441.2,257.3h80.7v18.3H441.2V257.3Z" class="g1_1784"/>
<path d="M521.9,257.3H601v18.3H521.9V257.3Z" class="g1_1784"/>
<path d="M601,257.3h86.2v18.3H601V257.3Z" class="g1_1784"/>
<path d="M362.2,275.6h79V294h-79V275.6Z" class="g1_1784"/>
<path d="M441.2,275.6h80.7V294H441.2V275.6Z" class="g1_1784"/>
<path d="M362.2,294h79v18.3h-79V294Z" class="g1_1784"/>
<path d="M441.2,294h80.7v18.3H441.2V294Z" class="g1_1784"/>
<path d="M362.2,312.3h79v18.3h-79V312.3Z" class="g1_1784"/>
<path d="M441.2,312.3h80.7v18.3H441.2V312.3Z" class="g1_1784"/>
<path d="M687.2,312.3h75.4v18.3H687.2V312.3Z" class="g1_1784"/>
<path d="M762.6,312.3h78.9v18.3H762.6V312.3Z" class="g1_1784"/>
<path d="M362.2,330.6h79v33.6h-79V330.6Z" class="g1_1784"/>
<path d="M441.2,330.6h80.7v33.6H441.2V330.6Z" class="g1_1784"/>
<path d="M687.2,330.6h75.4v33.6H687.2V330.6Z" class="g1_1784"/>
<path d="M762.6,330.6h78.9v33.6H762.6V330.6Z" class="g1_1784"/>
<path d="M204.2,474.2h79v18.3h-79V474.2Z" class="g1_1784"/>
<path d="M204.2,492.5h79v18.3h-79V492.5Z" class="g1_1784"/>
<path d="M283.2,510.8h79v18.4h-79V510.8Z" class="g1_1784"/>
<path d="M362.2,510.8h79v18.4h-79V510.8Z" class="g1_1784"/>
<path d="M441.2,510.8h80.7v18.4H441.2V510.8Z" class="g1_1784"/>
<path d="M687.2,510.8h75.4v18.4H687.2V510.8Z" class="g1_1784"/>
<path d="M762.6,510.8h78.9v18.4H762.6V510.8Z" class="g1_1784"/>
<path d="M283.2,529.2h79v18.3h-79V529.2Z" class="g1_1784"/>
<path d="M362.2,529.2h79v18.3h-79V529.2Z" class="g1_1784"/>
<path d="M441.2,529.2h80.7v18.3H441.2V529.2Z" class="g1_1784"/>
<path d="M687.2,529.2h75.4v18.3H687.2V529.2Z" class="g1_1784"/>
<path d="M762.6,529.2h78.9v18.3H762.6V529.2Z" class="g1_1784"/>
<path d="M204.2,547.5h79v18.3h-79V547.5Z" class="g1_1784"/>
<path d="M283.2,547.5h79v18.3h-79V547.5Z" class="g1_1784"/>
<path d="M362.2,547.5h79v18.3h-79V547.5Z" class="g1_1784"/>
<path d="M441.2,547.5h80.7v18.3H441.2V547.5Z" class="g1_1784"/>
<path d="M521.9,547.5H601v18.3H521.9V547.5Z" class="g1_1784"/>
<path d="M601,547.5h86.2v18.3H601V547.5Z" class="g1_1784"/>
<path d="M687.2,547.5h75.4v18.3H687.2V547.5Z" class="g1_1784"/>
<path d="M762.6,547.5h78.9v18.3H762.6V547.5Z" class="g1_1784"/>
<path d="M204.2,565.8h79v18.4h-79V565.8Z" class="g1_1784"/>
<path d="M283.2,565.8h79v18.4h-79V565.8Z" class="g1_1784"/>
<path d="M362.2,565.8h79v18.4h-79V565.8Z" class="g1_1784"/>
<path d="M441.2,565.8h80.7v18.4H441.2V565.8Z" class="g1_1784"/>
<path d="M521.9,565.8H601v18.4H521.9V565.8Z" class="g1_1784"/>
<path d="M601,565.8h86.2v18.4H601V565.8Z" class="g1_1784"/>
<path d="M687.2,565.8h75.4v18.4H687.2V565.8Z" class="g1_1784"/>
<path d="M762.6,565.8h78.9v18.4H762.6V565.8Z" class="g1_1784"/>
<path d="M204.2,657.5h79v18.3h-79V657.5Z" class="g1_1784"/>
<path d="M283.2,657.5h79v18.3h-79V657.5Z" class="g1_1784"/>
<path d="M362.2,657.5h79v18.3h-79V657.5Z" class="g1_1784"/>
<path d="M441.2,657.5h80.7v18.3H441.2V657.5Z" class="g1_1784"/>
<path d="M521.9,657.5H601v18.3H521.9V657.5Z" class="g1_1784"/>
<path d="M601,657.5h86.2v18.3H601V657.5Z" class="g1_1784"/>
<path d="M687.2,657.5h75.4v18.3H687.2V657.5Z" class="g1_1784"/>
<path d="M762.6,657.5h78.9v18.3H762.6V657.5Z" class="g1_1784"/>
<path d="M204.2,675.8h79v18.4h-79V675.8Z" class="g1_1784"/>
<path d="M283.2,675.8h79v18.4h-79V675.8Z" class="g1_1784"/>
<path d="M362.2,675.8h79v18.4h-79V675.8Z" class="g1_1784"/>
<path d="M441.2,675.8h80.7v18.4H441.2V675.8Z" class="g1_1784"/>
<path d="M521.9,675.8H601v18.4H521.9V675.8Z" class="g1_1784"/>
<path d="M601,675.8h86.2v18.4H601V675.8Z" class="g1_1784"/>
<path d="M687.2,675.8h75.4v18.4H687.2V675.8Z" class="g1_1784"/>
<path d="M762.6,675.8h78.9v18.4H762.6V675.8Z" class="g1_1784"/>
<path d="M204.2,730.8h79v18.4h-79V730.8Z" class="g1_1784"/>
<path d="M283.2,730.8h79v18.4h-79V730.8Z" class="g1_1784"/>
<path d="M362.2,730.8h79v18.4h-79V730.8Z" class="g1_1784"/>
<path d="M441.2,730.8h80.7v18.4H441.2V730.8Z" class="g1_1784"/>
<path d="M521.9,730.8H601v18.4H521.9V730.8Z" class="g1_1784"/>
<path d="M601,730.8h86.2v18.4H601V730.8Z" class="g1_1784"/>
<path d="M687.2,730.8h75.4v18.4H687.2V730.8Z" class="g1_1784"/>
<path d="M762.6,730.8h78.9v18.4H762.6V730.8Z" class="g1_1784"/>
<path d="M204.2,749.2h79v18.3h-79V749.2Z" class="g1_1784"/>
<path d="M283.2,749.2h79v18.3h-79V749.2Z" class="g1_1784"/>
<path d="M362.2,749.2h79v18.3h-79V749.2Z" class="g1_1784"/>
<path d="M441.2,749.2h80.7v18.3H441.2V749.2Z" class="g1_1784"/>
<path d="M521.9,749.2H601v18.3H521.9V749.2Z" class="g1_1784"/>
<path d="M601,749.2h86.2v18.3H601V749.2Z" class="g1_1784"/>
<path d="M687.2,749.2h75.4v18.3H687.2V749.2Z" class="g1_1784"/>
<path d="M762.6,749.2h78.9v18.3H762.6V749.2Z" class="g1_1784"/>
<path d="M204.2,804.2h79v18.3h-79V804.2Z" class="g1_1784"/>
<path d="M283.2,804.2h79v18.3h-79V804.2Z" class="g1_1784"/>
<path d="M362.2,804.2h79v18.3h-79V804.2Z" class="g1_1784"/>
<path d="M441.2,804.2h80.7v18.3H441.2V804.2Z" class="g1_1784"/>
<path d="M521.9,804.2H601v18.3H521.9V804.2Z" class="g1_1784"/>
<path d="M601,804.2h86.2v18.3H601V804.2Z" class="g1_1784"/>
<path d="M687.2,804.2h75.4v18.3H687.2V804.2Z" class="g1_1784"/>
<path d="M762.6,804.2h78.9v18.3H762.6V804.2Z" class="g1_1784"/>
<path d="M204.2,822.5h79v18.3h-79V822.5Z" class="g1_1784"/>
<path d="M283.2,822.5h79v18.3h-79V822.5Z" class="g1_1784"/>
<path d="M362.2,822.5h79v18.3h-79V822.5Z" class="g1_1784"/>
<path d="M441.2,822.5h80.7v18.3H441.2V822.5Z" class="g1_1784"/>
<path d="M521.9,822.5H601v18.3H521.9V822.5Z" class="g1_1784"/>
<path d="M601,822.5h86.2v18.3H601V822.5Z" class="g1_1784"/>
<path d="M687.2,822.5h75.4v18.3H687.2V822.5Z" class="g1_1784"/>
<path d="M762.6,822.5h78.9v18.3H762.6V822.5Z" class="g1_1784"/>
<path d="M204.2,877.5h79v18.3h-79V877.5Z" class="g1_1784"/>
<path d="M283.2,877.5h79v18.3h-79V877.5Z" class="g1_1784"/>
<path d="M362.2,877.5h79v18.3h-79V877.5Z" class="g1_1784"/>
<path d="M441.2,877.5h80.7v18.3H441.2V877.5Z" class="g1_1784"/>
<path d="M521.9,877.5H601v18.3H521.9V877.5Z" class="g1_1784"/>
<path d="M601,877.5h86.2v18.3H601V877.5Z" class="g1_1784"/>
<path d="M687.2,877.5h75.4v18.3H687.2V877.5Z" class="g1_1784"/>
<path d="M762.6,877.5h78.9v18.3H762.6V877.5Z" class="g1_1784"/>
<path d="M204.2,895.8h79v18.4h-79V895.8Z" class="g1_1784"/>
<path d="M283.2,895.8h79v18.4h-79V895.8Z" class="g1_1784"/>
<path d="M362.2,895.8h79v18.4h-79V895.8Z" class="g1_1784"/>
<path d="M441.2,895.8h80.7v18.4H441.2V895.8Z" class="g1_1784"/>
<path d="M521.9,895.8H601v18.4H521.9V895.8Z" class="g1_1784"/>
<path d="M601,895.8h86.2v18.4H601V895.8Z" class="g1_1784"/>
<path d="M687.2,895.8h75.4v18.4H687.2V895.8Z" class="g1_1784"/>
<path d="M762.6,895.8h78.9v18.4H762.6V895.8Z" class="g1_1784"/>
<path d="M93.9,179.1h-.8v832.5h.8V179.1Z" class="g0_1784"/>
<path d="M144.2,178.4h-.7V914.6h.7V178.4Z" class="g0_1784"/>
<path d="M204.6,178.4h-.7V914.6h.7V178.4Z" class="g0_1784"/>
<path d="M283.6,178.4h-.7V584.5h.7V178.4Z" class="g0_1784"/>
<path d="M283.6,602.5h-.7V914.6h.7V602.5Z" class="g0_1784"/>
<path d="M362.5,178.4h-.7V584.5h.7V178.4Z" class="g0_1784"/>
<path d="M362.5,602.5h-.7V914.6h.7V602.5Z" class="g0_1784"/>
<path d="M441.5,178.4h-.7V584.5h.7V178.4Z" class="g0_1784"/>
<path d="M441.5,602.5h-.7V914.6h.7V602.5Z" class="g0_1784"/>
<path d="M522.3,178.4h-.7V584.5h.7V178.4Z" class="g0_1784"/>
<path d="M522.3,602.5h-.7V914.6h.7V602.5Z" class="g0_1784"/>
<path d="M601.3,178.4h-.7V437.9h.7V178.4Z" class="g0_1784"/>
<path d="M601.3,455.8h-.7V584.5h.7V455.8Z" class="g0_1784"/>
<path d="M601.3,602.5h-.7V914.6h.7V602.5Z" class="g0_1784"/>
<path d="M687.6,178.4h-.8V584.5h.8V178.4Z" class="g0_1784"/>
<path d="M687.6,602.5h-.8V914.6h.8V602.5Z" class="g0_1784"/>
<path d="M762.9,178.4h-.7V474.5h.7V178.4Z" class="g0_1784"/>
<path d="M762.9,492.5h-.7v92h.7v-92Z" class="g0_1784"/>
<path d="M762.9,602.5h-.7V914.6h.7V602.5Z" class="g0_1784"/>
<path d="M841.8,179.1h-.7v832.5h.7V179.1Z" class="g0_1784"/>
<path d="M93.1,178.4v.7H841.8v-.7H93.1Z" class="g0_1784"/>
<path d="M93.1,201.8v.8H841.8v-.8H93.1Z" class="g0_1784"/>
<path d="M93.1,238.6v.7h51.1v-.7H93.1Z" class="g0_1784"/>
<path d="M203.9,238.6v.7H841.8v-.7H203.9Z" class="g0_1784"/>
<path d="M93.1,275.3v.7h51.1v-.7H93.1Z" class="g0_1784"/>
<path d="M203.9,275.3v.7H841.8v-.7H203.9Z" class="g0_1784"/>
<path d="M93.1,311.9v.8h51.1v-.8H93.1Z" class="g0_1784"/>
<path d="M203.9,311.9v.8H841.8v-.8H203.9Z" class="g0_1784"/>
<path d="M93.1,363.8v.7H841.8v-.7H93.1Z" class="g0_1784"/>
<path d="M93.1,400.5v.7H841.8v-.7H93.1Z" class="g0_1784"/>
<path d="M93.1,437.1v.8H841.8v-.8H93.1Z" class="g0_1784"/>
<path d="M93.1,473.8v.7H841.8v-.7H93.1Z" class="g0_1784"/>
<path d="M93.1,510.5v.7h51.1v-.7H93.1Z" class="g0_1784"/>
<path d="M203.9,510.5v.7H841.8v-.7H203.9Z" class="g0_1784"/>
<path d="M93.1,547.1v.8h51.1v-.8H93.1Z" class="g0_1784"/>
<path d="M203.9,547.1v.8H841.8v-.8H203.9Z" class="g0_1784"/>
<path d="M93.1,583.8v.7H841.8v-.7H93.1Z" class="g0_1784"/>
<path d="M93.1,620.5v.7H841.8v-.7H93.1Z" class="g0_1784"/>
<path d="M93.1,657.1v.8h51.1v-.8H93.1Z" class="g0_1784"/>
<path d="M203.9,657.1v.8H841.8v-.8H203.9Z" class="g0_1784"/>
<path d="M93.1,693.8v.7h51.1v-.7H93.1Z" class="g0_1784"/>
<path d="M203.9,693.8v.7H841.8v-.7H203.9Z" class="g0_1784"/>
<path d="M93.1,730.5v.7h51.1v-.7H93.1Z" class="g0_1784"/>
<path d="M203.9,730.5v.7H841.8v-.7H203.9Z" class="g0_1784"/>
<path d="M93.1,767.1v.8H841.8v-.8H93.1Z" class="g0_1784"/>
<path d="M93.1,803.8v.7h51.1v-.7H93.1Z" class="g0_1784"/>
<path d="M203.9,803.8v.7H841.8v-.7H203.9Z" class="g0_1784"/>
<path d="M93.1,840.5v.7h51.1v-.7H93.1Z" class="g0_1784"/>
<path d="M203.9,840.5v.7H841.8v-.7H203.9Z" class="g0_1784"/>
<path d="M93.1,877.1v.8h51.1v-.8H93.1Z" class="g0_1784"/>
<path d="M203.9,877.1v.8H841.8v-.8H203.9Z" class="g0_1784"/>
<path d="M93.1,913.8v.7H841.8v-.7H93.1Z" class="g0_1784"/>
<path d="M93.1,1011.6v.7H841.8v-.7H93.1Z" class="g0_1784"/>
</svg>