<?xml version="1.0" encoding="UTF-8" standalone="no"?>
<!DOCTYPE svg PUBLIC "-//W3C//DTD SVG 1.1//EN"
"http://www.w3.org/Graphics/SVG/1.1/DTD/svg11.dtd">
<svg viewBox="0 0 935 1210" version="1.1" xmlns="http://www.w3.org/2000/svg" xmlns:xlink="http://www.w3.org/1999/xlink">
<defs>
<clipPath id="c0_1620"><path d="M766.6,59.2V41.4h72.1V59.2Z"/></clipPath>
<style type="text/css"><![CDATA[
.g0_1620{
fill: #000;
}
]]></style>
</defs>
<path d="M97.3,62.9v.3H839.9v-.3H97.3Z" class="g0_1620"/>
<path d="M96.2,1114.1h-.1v.4h.1v-.4Z" class="g0_1620"/>
<path d="M838.7,1114.1h.2v.4h-.2v-.4Z" class="g0_1620"/>
<path d="M96.2,1114.1v.4H838.7v-.4H96.2Z" class="g0_1620"/>
<image clip-path="url(#c0_1620)" preserveAspectRatio="none" x="767" y="41" width="72" height="18" xlink:href="img/1.jpg"/>
<path d="M96.6,180.2h-.7V415.1h.7V180.2Z" class="g0_1620"/>
<path d="M272.9,177.2h-.7V415.9h.7V177.2Z" class="g0_1620"/>
<path d="M312.6,204.3h-.8V415.9h.8V204.3Z" class="g0_1620"/>
<path d="M366.1,204.3h-.7V415.9h.7V204.3Z" class="g0_1620"/>
<path d="M440.4,177.2h-.8V415.9h.8V177.2Z" class="g0_1620"/>
<path d="M839.1,180.2h-.7V415.1h.7V180.2Z" class="g0_1620"/>
<path d="M95.9,177.3v3H839.1v-3H95.9Z" class="g0_1620"/>
<path d="M272.2,204.3v.8H440.4v-.8H272.2Z" class="g0_1620"/>
<path d="M95.9,246v3.1H839.1V246H95.9Z" class="g0_1620"/>
<path d="M95.9,286.8v.8H839.1v-.8H95.9Z" class="g0_1620"/>
<path d="M272.2,326.6v.7H839.1v-.7H272.2Z" class="g0_1620"/>
<path d="M95.9,351v.7H839.1V351H95.9Z" class="g0_1620"/>
<path d="M95.9,375.5v.7H839.1v-.7H95.9Z" class="g0_1620"/>
<path d="M95.9,415.1v.8H839.1v-.8H95.9Z" class="g0_1620"/>
</svg>