<?xml version="1.0" encoding="UTF-8" standalone="no"?>
<!DOCTYPE svg PUBLIC "-//W3C//DTD SVG 1.1//EN"
"http://www.w3.org/Graphics/SVG/1.1/DTD/svg11.dtd">
<svg viewBox="0 0 935 1210" version="1.1" xmlns="http://www.w3.org/2000/svg" xmlns:xlink="http://www.w3.org/1999/xlink">
<defs>
<style type="text/css"><![CDATA[
.g0_4763{
fill: #FFF;
}
.g1_4763{
fill: #000;
}
]]></style>
</defs>
<path d="M68.9,1149.3H852.7v-21.2H68.9v21.2Z" class="g0_4763"/>
<path d="M69.9,1067.6h.8V124.1h-.8v943.5Z" class="g1_4763"/>
<path d="M126.7,1068.4h.7V164.6h-.7v903.8Z" class="g1_4763"/>
<path d="M183.4,1068.4h.8v-945h-.8v945Z" class="g1_4763"/>
<path d="M439.7,1068.4h.8v-945h-.8v945Z" class="g1_4763"/>
<path d="M533,1068.4h.8v-945H533v945Z" class="g1_4763"/>
<path d="M853,1067.6h.7V124.1H853v943.5Z" class="g1_4763"/>
<path d="M69.9,124.1H853.7v-.7H69.9v.7Z" class="g1_4763"/>
<path d="M69.9,165.4H184.2v-.8H69.9v.8Z" class="g1_4763"/>
<path d="M69.9,189.8H853.7v-.7H69.9v.7Z" class="g1_4763"/>
<path d="M183.4,214.2H853.7v-.7H183.4v.7Z" class="g1_4763"/>
<path d="M183.4,293.7H853.7V293H183.4v.7Z" class="g1_4763"/>
<path d="M183.4,373.2H853.7v-.8H183.4v.8Z" class="g1_4763"/>
<path d="M183.4,397.7H853.7v-.8H183.4v.8Z" class="g1_4763"/>
<path d="M183.4,498.5H853.7v-.8H183.4v.8Z" class="g1_4763"/>
<path d="M183.4,599.3H853.7v-.7H183.4v.7Z" class="g1_4763"/>
<path d="M183.4,623.7H853.7V623H183.4v.7Z" class="g1_4763"/>
<path d="M183.4,724.5H853.7v-.7H183.4v.7Z" class="g1_4763"/>
<path d="M183.4,842.2H853.7v-.7H183.4v.7Z" class="g1_4763"/>
<path d="M183.4,943.1H853.7v-.8H183.4v.8Z" class="g1_4763"/>
<path d="M183.4,967.5H853.7v-.8H183.4v.8Z" class="g1_4763"/>
<path d="M69.9,1068.3H853.7v-.8H69.9v.8Z" class="g1_4763"/>
</svg>