<?xml version="1.0" encoding="UTF-8" standalone="no"?>
<!DOCTYPE svg PUBLIC "-//W3C//DTD SVG 1.1//EN"
"http://www.w3.org/Graphics/SVG/1.1/DTD/svg11.dtd">
<svg viewBox="0 0 935 1210" version="1.1" xmlns="http://www.w3.org/2000/svg" xmlns:xlink="http://www.w3.org/1999/xlink">
<defs>
<style type="text/css"><![CDATA[
.g0_2162{
fill: #FFF;
}
.g1_2162{
fill: #000;
}
]]></style>
</defs>
<path d="M165,1149.3H852.5v-21.2H165v21.2Z" class="g0_2162"/>
<path d="M68.8,1149.3h82.5v-21.2H68.8v21.2Z" class="g0_2162"/>
<path d="M69.3,213.5H70V141h-.7v72.5Z" class="g1_2162"/>
<path d="M273.9,214.3h.7V140.2h-.7v74.1Z" class="g1_2162"/>
<path d="M682.3,214.3h.7V140.2h-.7v74.1Z" class="g1_2162"/>
<path d="M851,213.5h.8V141H851v72.5Z" class="g1_2162"/>
<path d="M69.3,140.9H851.8v-.7H69.3v.7Z" class="g1_2162"/>
<path d="M69.3,165.4H851.8v-.8H69.3v.8Z" class="g1_2162"/>
<path d="M69.3,189.8H851.8v-.7H69.3v.7Z" class="g1_2162"/>
<path d="M69.3,214.2H851.8v-.7H69.3v.7Z" class="g1_2162"/>
</svg>