<?xml version="1.0" encoding="UTF-8" standalone="no"?>
<!DOCTYPE svg PUBLIC "-//W3C//DTD SVG 1.1//EN"
"http://www.w3.org/Graphics/SVG/1.1/DTD/svg11.dtd">
<svg viewBox="0 0 935 1210" version="1.1" xmlns="http://www.w3.org/2000/svg" xmlns:xlink="http://www.w3.org/1999/xlink">
<defs>
<clipPath id="c0_1280"><path d="M766.6,59.2V41.4h72.1V59.2Z"/></clipPath>
<style type="text/css"><![CDATA[
.g0_1280{
fill: #000;
}
]]></style>
</defs>
<path d="M97.3,62.9v.3H839.9v-.3H97.3Z" class="g0_1280"/>
<path d="M96.2,1114.1h-.1v.4h.1v-.4Z" class="g0_1280"/>
<path d="M838.7,1114.1h.2v.4h-.2v-.4Z" class="g0_1280"/>
<path d="M96.2,1114.1v.4H838.7v-.4H96.2Z" class="g0_1280"/>
<image clip-path="url(#c0_1280)" preserveAspectRatio="none" x="767" y="41" width="72" height="18" xlink:href="img/1.jpg"/>
<path d="M192.9,179.1h-.8V404.4h.8V179.1Z" class="g0_1280"/>
<path d="M514.8,178.4h-.7V405.2h.7V178.4Z" class="g0_1280"/>
<path d="M742.8,179.1h-.7V404.4h.7V179.1Z" class="g0_1280"/>
<path d="M192.1,178.4v.7H742.8v-.7H192.1Z" class="g0_1280"/>
<path d="M192.1,202.8v.7H742.8v-.7H192.1Z" class="g0_1280"/>
<path d="M192.1,270v.8H742.8V270H192.1Z" class="g0_1280"/>
<path d="M192.1,315.9v.7H742.8v-.7H192.1Z" class="g0_1280"/>
<path d="M192.1,404.5v.7H742.8v-.7H192.1Z" class="g0_1280"/>
<path d="M192.9,584.5h-.8V877h.8V584.5Z" class="g0_1280"/>
<path d="M513.5,583.7h-.7V877.9h.7V583.7Z" class="g0_1280"/>
<path d="M742.8,584.5h-.7V877h.7V584.5Z" class="g0_1280"/>
<path d="M192.1,583.7v.8H742.8v-.8H192.1Z" class="g0_1280"/>
<path d="M192.1,608.2v.7H742.8v-.7H192.1Z" class="g0_1280"/>
<path d="M192.1,654v.8H742.8V654H192.1Z" class="g0_1280"/>
<path d="M192.1,742.7v.7H742.8v-.7H192.1Z" class="g0_1280"/>
<path d="M192.1,788.5v.7H742.8v-.7H192.1Z" class="g0_1280"/>
<path d="M192.1,877v.8H742.8V877H192.1Z" class="g0_1280"/>
</svg>