<?xml version="1.0" encoding="UTF-8" standalone="no"?>
<!DOCTYPE svg PUBLIC "-//W3C//DTD SVG 1.1//EN"
"http://www.w3.org/Graphics/SVG/1.1/DTD/svg11.dtd">
<svg viewBox="0 0 935 1210" version="1.1" xmlns="http://www.w3.org/2000/svg" xmlns:xlink="http://www.w3.org/1999/xlink">
<defs>
<clipPath id="c0_2849"><path d="M97.3,59.2V41.4h72.1V59.2Z"/></clipPath>
<style type="text/css"><![CDATA[
.g0_2849{
fill: #000;
}
]]></style>
</defs>
<path d="M96.3,63.3H838.8v-.4H96.3v.4Z" class="g0_2849"/>
<path d="M96.1,1114.5h.2v-.4h-.2v.4Z" class="g0_2849"/>
<path d="M96.3,1114.5H838.9v-.4H96.3v.4Z" class="g0_2849"/>
<image clip-path="url(#c0_2849)" preserveAspectRatio="none" x="97" y="41" width="73" height="18" xlink:href="img/1.jpg"/>
<path d="M95.9,1098.1h.7v-919h-.7v919Z" class="g0_2849"/>
<path d="M539.1,243.3h.7V178.4h-.7v64.9Z" class="g0_2849"/>
<path d="M539.1,414.4h.7V263.9h-.7V414.4Z" class="g0_2849"/>
<path d="M539.1,478.6h.7V435.1h-.7v43.5Z" class="g0_2849"/>
<path d="M539.1,585.5h.7V499.2h-.7v86.3Z" class="g0_2849"/>
<path d="M539.1,628.3h.7V606.1h-.7v22.2Z" class="g0_2849"/>
<path d="M539.1,671.1h.7V648.9h-.7v22.2Z" class="g0_2849"/>
<path d="M539.1,735.3h.7V691.7h-.7v43.6Z" class="g0_2849"/>
<path d="M539.1,842.2h.7V755.9h-.7v86.3Z" class="g0_2849"/>
<path d="M539.1,885h.7V862.9h-.7V885Z" class="g0_2849"/>
<path d="M539.1,970.6h.7v-65h-.7v65Z" class="g0_2849"/>
<path d="M539.1,1013.3h.7V991.2h-.7v22.1Z" class="g0_2849"/>
<path d="M539.1,1098.9h.7v-65h-.7v65Z" class="g0_2849"/>
<path d="M662.6,243.3h.7V178.4h-.7v64.9Z" class="g0_2849"/>
<path d="M662.6,414.4h.7V263.9h-.7V414.4Z" class="g0_2849"/>
<path d="M662.6,478.6h.7V435.1h-.7v43.5Z" class="g0_2849"/>
<path d="M662.6,585.5h.7V499.2h-.7v86.3Z" class="g0_2849"/>
<path d="M662.6,628.3h.7V606.1h-.7v22.2Z" class="g0_2849"/>
<path d="M662.6,671.1h.7V648.9h-.7v22.2Z" class="g0_2849"/>
<path d="M662.6,735.3h.7V691.7h-.7v43.6Z" class="g0_2849"/>
<path d="M662.6,842.2h.7V755.9h-.7v86.3Z" class="g0_2849"/>
<path d="M662.6,885h.7V862.9h-.7V885Z" class="g0_2849"/>
<path d="M662.6,970.6h.7v-65h-.7v65Z" class="g0_2849"/>
<path d="M662.6,1013.3h.7V991.2h-.7v22.1Z" class="g0_2849"/>
<path d="M662.6,1098.9h.7v-65h-.7v65Z" class="g0_2849"/>
<path d="M780.7,1098.1h.8v-919h-.8v919Z" class="g0_2849"/>
<path d="M95.9,179.1H781.6v-.7H95.9v.7Z" class="g0_2849"/>
<path d="M95.9,200.5H781.6v-.8H95.9v.8Z" class="g0_2849"/>
<path d="M95.9,221.8H781.6v-.7H95.9v.7Z" class="g0_2849"/>
<path d="M95.9,243.3H781.6v-.7H95.9v.7Z" class="g0_2849"/>
<path d="M95.9,264.6H781.6v-.7H95.9v.7Z" class="g0_2849"/>
<path d="M95.9,286.1H781.6v-.7H95.9v.7Z" class="g0_2849"/>
<path d="M95.9,307.4H781.6v-.7H95.9v.7Z" class="g0_2849"/>
<path d="M95.9,328.8H781.6v-.7H95.9v.7Z" class="g0_2849"/>
<path d="M95.9,350.3H781.6v-.8H95.9v.8Z" class="g0_2849"/>
<path d="M95.9,371.6H781.6v-.7H95.9v.7Z" class="g0_2849"/>
<path d="M95.9,393H781.6v-.8H95.9v.8Z" class="g0_2849"/>
<path d="M95.9,414.4H781.6v-.7H95.9v.7Z" class="g0_2849"/>
<path d="M95.9,435.8H781.6V435H95.9v.8Z" class="g0_2849"/>
<path d="M95.9,457.1H781.6v-.7H95.9v.7Z" class="g0_2849"/>
<path d="M95.9,478.6H781.6v-.7H95.9v.7Z" class="g0_2849"/>
<path d="M95.9,499.9H781.6v-.7H95.9v.7Z" class="g0_2849"/>
<path d="M95.9,521.3H781.6v-.7H95.9v.7Z" class="g0_2849"/>
<path d="M95.9,542.8H781.6V542H95.9v.8Z" class="g0_2849"/>
<path d="M95.9,564.1H781.6v-.7H95.9v.7Z" class="g0_2849"/>
<path d="M95.9,585.5H781.6v-.8H95.9v.8Z" class="g0_2849"/>
<path d="M95.9,606.9H781.6v-.7H95.9v.7Z" class="g0_2849"/>
<path d="M95.9,628.3H781.6v-.8H95.9v.8Z" class="g0_2849"/>
<path d="M95.9,649.6H781.6v-.7H95.9v.7Z" class="g0_2849"/>
<path d="M95.9,671.1H781.6v-.7H95.9v.7Z" class="g0_2849"/>
<path d="M95.9,692.4H781.6v-.7H95.9v.7Z" class="g0_2849"/>
<path d="M95.9,713.8H781.6v-.7H95.9v.7Z" class="g0_2849"/>
<path d="M95.9,735.3H781.6v-.8H95.9v.8Z" class="g0_2849"/>
<path d="M95.9,756.6H781.6v-.7H95.9v.7Z" class="g0_2849"/>
<path d="M95.9,778H781.6v-.8H95.9v.8Z" class="g0_2849"/>
<path d="M95.9,799.4H781.6v-.7H95.9v.7Z" class="g0_2849"/>
<path d="M95.9,820.8H781.6v-.7H95.9v.7Z" class="g0_2849"/>
<path d="M95.9,842.1H781.6v-.7H95.9v.7Z" class="g0_2849"/>
<path d="M95.9,863.6H781.6v-.7H95.9v.7Z" class="g0_2849"/>
<path d="M95.9,885H781.6v-.8H95.9v.8Z" class="g0_2849"/>
<path d="M95.9,906.3H781.6v-.7H95.9v.7Z" class="g0_2849"/>
<path d="M95.9,927.8H781.6V927H95.9v.8Z" class="g0_2849"/>
<path d="M95.9,949.1H781.6v-.7H95.9v.7Z" class="g0_2849"/>
<path d="M95.9,970.5H781.6v-.8H95.9v.8Z" class="g0_2849"/>
<path d="M95.9,991.9H781.6v-.7H95.9v.7Z" class="g0_2849"/>
<path d="M95.9,1013.3H781.6v-.7H95.9v.7Z" class="g0_2849"/>
<path d="M95.9,1034.7H781.6v-.7H95.9v.7Z" class="g0_2849"/>
<path d="M95.9,1056.1H781.6v-.7H95.9v.7Z" class="g0_2849"/>
<path d="M95.9,1077.5H781.6v-.8H95.9v.8Z" class="g0_2849"/>
<path d="M95.9,1098.9H781.6v-.7H95.9v.7Z" class="g0_2849"/>
</svg>