<?xml version="1.0" encoding="UTF-8" standalone="no"?>
<!DOCTYPE svg PUBLIC "-//W3C//DTD SVG 1.1//EN"
"http://www.w3.org/Graphics/SVG/1.1/DTD/svg11.dtd">
<svg viewBox="0 0 935 1210" version="1.1" xmlns="http://www.w3.org/2000/svg" xmlns:xlink="http://www.w3.org/1999/xlink">
<defs>
<style type="text/css"><![CDATA[
.g0_51{
fill: #000;
}
]]></style>
</defs>
<path d="M148.1,207.3h.8V183.7h-.8v23.6Z" class="g0_51"/>
<path d="M148.1,271.5h.8V247.9h-.8v23.6Z" class="g0_51"/>
<path d="M148.1,335.7h.8V312h-.8v23.7Z" class="g0_51"/>
<path d="M148.1,399.8h.8V376.2h-.8v23.6Z" class="g0_51"/>
<path d="M148.1,464.3h.8V440.2h-.8v24.1Z" class="g0_51"/>
<path d="M280.1,208.2h.8V183h-.8v25.2Z" class="g0_51"/>
<path d="M280.1,272.3h.8V247.1h-.8v25.2Z" class="g0_51"/>
<path d="M280.1,336.5h.8V311.3h-.8v25.2Z" class="g0_51"/>
<path d="M280.1,400.7h.8V375.5h-.8v25.2Z" class="g0_51"/>
<path d="M280.1,464.7h.8V439.8h-.8v24.9Z" class="g0_51"/>
<path d="M390.1,272.3h.8V247.1h-.8v25.2Z" class="g0_51"/>
<path d="M390.1,336.5h.8V311.3h-.8v25.2Z" class="g0_51"/>
<path d="M390.1,400.7h.8V375.5h-.8v25.2Z" class="g0_51"/>
<path d="M390.1,464.7h.8V439.8h-.8v24.9Z" class="g0_51"/>
<path d="M500.1,272.3h.8V247.1h-.8v25.2Z" class="g0_51"/>
<path d="M500.1,336.5h.8V311.3h-.8v25.2Z" class="g0_51"/>
<path d="M500.1,400.7h.8V375.5h-.8v25.2Z" class="g0_51"/>
<path d="M500.3,464.7h.4V439.8h-.4v24.9Z" class="g0_51"/>
<path d="M610.1,400.7h.8V375.5h-.8v25.2Z" class="g0_51"/>
<path d="M610.3,464.7h.4V439.8h-.4v24.9Z" class="g0_51"/>
<path d="M720.3,464.7h.4V439.8h-.4v24.9Z" class="g0_51"/>
<path d="M852.1,207.3h.8V183.7h-.8v23.6Z" class="g0_51"/>
<path d="M852.1,271.5h.8V247.9h-.8v23.6Z" class="g0_51"/>
<path d="M852.1,335.7h.8V312h-.8v23.7Z" class="g0_51"/>
<path d="M852.1,399.8h.8V376.2h-.8v23.6Z" class="g0_51"/>
<path d="M852.3,464.3h.4V440.2h-.4v24.1Z" class="g0_51"/>
<path d="M148.1,183.7H852.9V183H148.1v.7Z" class="g0_51"/>
<path d="M148.1,208.1H852.9v-.7H148.1v.7Z" class="g0_51"/>
<path d="M148.1,247.9H852.9v-.8H148.1v.8Z" class="g0_51"/>
<path d="M148.1,272.3H852.9v-.7H148.1v.7Z" class="g0_51"/>
<path d="M148.1,312H852.9v-.7H148.1v.7Z" class="g0_51"/>
<path d="M148.1,336.5H852.9v-.7H148.1v.7Z" class="g0_51"/>
<path d="M148.1,376.2H852.9v-.7H148.1v.7Z" class="g0_51"/>
<path d="M148.1,400.7H852.9v-.8H148.1v.8Z" class="g0_51"/>
<path d="M148.1,440.2H852.7v-.4H148.1v.4Z" class="g0_51"/>
<path d="M148.1,464.7H852.7v-.4H148.1v.4Z" class="g0_51"/>
<path d="M148.1,603.1h.8V579.4h-.8v23.7Z" class="g0_51"/>
<path d="M148.1,667.2h.8V643.6h-.8v23.6Z" class="g0_51"/>
<path d="M148.1,771.2h.8V747.4h-.8v23.8Z" class="g0_51"/>
<path d="M148.1,835.4h.8v-24h-.8v24Z" class="g0_51"/>
<path d="M148.1,939.2h.8V915.6h-.8v23.6Z" class="g0_51"/>
<path d="M148.1,1003.4h.8V979.5h-.8v23.9Z" class="g0_51"/>
<path d="M280.1,603.8h.8V578.6h-.8v25.2Z" class="g0_51"/>
<path d="M280.1,668.1h.8V642.9h-.8v25.2Z" class="g0_51"/>
<path d="M280.1,771.9h.8V746.7h-.8v25.2Z" class="g0_51"/>
<path d="M280.1,836.1h.8v-25h-.8v25Z" class="g0_51"/>
<path d="M280.1,940h.8V914.7h-.8V940Z" class="g0_51"/>
<path d="M280.1,1004.1h.8v-25h-.8v25Z" class="g0_51"/>
<path d="M390.1,771.9h.8V746.7h-.8v25.2Z" class="g0_51"/>
<path d="M390.1,836.1h.8v-25h-.8v25Z" class="g0_51"/>
<path d="M390.1,940h.8V914.7h-.8V940Z" class="g0_51"/>
<path d="M390.1,1004.1h.8v-25h-.8v25Z" class="g0_51"/>
<path d="M500.1,668.1h.8V642.9h-.8v25.2Z" class="g0_51"/>
<path d="M500.1,771.9h.8V746.7h-.8v25.2Z" class="g0_51"/>
<path d="M500.3,836.1h.4v-25h-.4v25Z" class="g0_51"/>
<path d="M500.1,940h.8V914.7h-.8V940Z" class="g0_51"/>
<path d="M500.3,1004.1h.4v-25h-.4v25Z" class="g0_51"/>
<path d="M588.1,940h.8V914.7h-.8V940Z" class="g0_51"/>
<path d="M588.3,1004.1h.4v-25h-.4v25Z" class="g0_51"/>
<path d="M852.1,603.1h.8V579.4h-.8v23.7Z" class="g0_51"/>
<path d="M852.1,667.2h.8V643.6h-.8v23.6Z" class="g0_51"/>
<path d="M852.1,771.2h.8V747.4h-.8v23.8Z" class="g0_51"/>
<path d="M852.3,835.4h.4v-24h-.4v24Z" class="g0_51"/>
<path d="M852.1,939.2h.8V915.6h-.8v23.6Z" class="g0_51"/>
<path d="M852.3,1003.4h.4V979.5h-.4v23.9Z" class="g0_51"/>
<path d="M148.1,579.4H852.9v-.7H148.1v.7Z" class="g0_51"/>
<path d="M148.1,603.8H852.9v-.7H148.1v.7Z" class="g0_51"/>
<path d="M148.1,643.6H852.9v-.7H148.1v.7Z" class="g0_51"/>
<path d="M148.1,668H852.9v-.8H148.1v.8Z" class="g0_51"/>
<path d="M148.1,747.4H852.9v-.7H148.1v.7Z" class="g0_51"/>
<path d="M148.1,771.9H852.9v-.7H148.1v.7Z" class="g0_51"/>
<path d="M148.1,811.4H852.7v-.3H148.1v.3Z" class="g0_51"/>
<path d="M148.1,836.1H852.7v-.7H148.1v.7Z" class="g0_51"/>
<path d="M148.1,915.5H852.9v-.8H148.1v.8Z" class="g0_51"/>
<path d="M148.1,940H852.9v-.8H148.1v.8Z" class="g0_51"/>
<path d="M148.1,979.5H852.7v-.4H148.1v.4Z" class="g0_51"/>
<path d="M148.1,1004.1H852.7v-.7H148.1v.7Z" class="g0_51"/>
</svg>