<?xml version="1.0" encoding="UTF-8" standalone="no"?>
<!DOCTYPE svg PUBLIC "-//W3C//DTD SVG 1.1//EN"
"http://www.w3.org/Graphics/SVG/1.1/DTD/svg11.dtd">
<svg viewBox="0 0 935 1210" version="1.1" xmlns="http://www.w3.org/2000/svg" xmlns:xlink="http://www.w3.org/1999/xlink">
<defs>
<clipPath id="c0_3038"><path d="M97.3,59.2V41.4h72.1V59.2Z"/></clipPath>
<style type="text/css"><![CDATA[
.g0_3038{
fill: #000;
}
.g1_3038{
fill: #FFF;
stroke: #000;
stroke-width: 1.527;
}
.g2_3038{
fill: none;
stroke: #000;
stroke-width: 1.527;
}
.g3_3038{
fill: none;
stroke: #000;
stroke-width: 0.763;
}
]]></style>
</defs>
<path d="M96.3,63.3H838.8v-.4H96.3v.4Z" class="g0_3038"/>
<path d="M96.1,1114.5h.2v-.4h-.2v.4Z" class="g0_3038"/>
<path d="M96.3,1114.5H838.9v-.4H96.3v.4Z" class="g0_3038"/>
<image clip-path="url(#c0_3038)" preserveAspectRatio="none" x="97" y="41" width="73" height="18" xlink:href="img/1.jpg"/>
<path d="M95.9,1018.3h.7V873.5h-.7v144.8Z" class="g0_3038"/>
<path d="M262.8,1019.1h.7V870.5h-.7v148.6Z" class="g0_3038"/>
<path d="M311.3,1019.1h.7V870.5h-.7v148.6Z" class="g0_3038"/>
<path d="M374.6,1019.1h.7V870.5h-.7v148.6Z" class="g0_3038"/>
<path d="M456.6,1019.1h.7V870.5h-.7v148.6Z" class="g0_3038"/>
<path d="M838.4,1018.3h.7V873.5h-.7v144.8Z" class="g0_3038"/>
<path d="M95.9,873.6H839.1v-3H95.9v3Z" class="g0_3038"/>
<path d="M95.9,916.3H839.1v-3H95.9v3Z" class="g0_3038"/>
<path d="M262.8,939.6H839.1v-.7H262.8v.7Z" class="g0_3038"/>
<path d="M262.8,979.3H839.1v-.8H262.8v.8Z" class="g0_3038"/>
<path d="M95.9,1019.1H839.1v-.8H95.9v.8Z" class="g0_3038"/>
<path d="M305.5,485.1H153.3v24.8H305.5V485.1Z" class="g1_3038"/>
<path d="M305.6,509.9H457.8V485.1H305.6v24.8Z" class="g2_3038"/>
<path d="M723.7,550.5v16.6h-586V460.2H381.4v14.5" class="g3_3038"/>
<path d="M377.6,473.6l3.8,6.6l3.8,-6.6h-7.6Z" class="g0_3038"/>
<path d="M723.7,510.1v21.2" class="g3_3038"/>
<path d="M798.2,485.1H646v24.8H798.2V485.1Z" class="g1_3038"/>
</svg>