<?xml version="1.0" encoding="UTF-8" standalone="no"?>
<!DOCTYPE svg PUBLIC "-//W3C//DTD SVG 1.1//EN"
"http://www.w3.org/Graphics/SVG/1.1/DTD/svg11.dtd">
<svg viewBox="0 0 935 1210" version="1.1" xmlns="http://www.w3.org/2000/svg" xmlns:xlink="http://www.w3.org/1999/xlink">
<defs>
<style type="text/css"><![CDATA[
.g0_2136{
fill: #FFF;
}
.g1_2136{
fill: #000;
}
.g2_2136{
fill: none;
stroke: #000;
stroke-width: 0.152;
stroke-miterlimit: 10;
}
]]></style>
</defs>
<path d="M165,1149.3H852.5v-21.2H165v21.2Z" class="g0_2136"/>
<path d="M68.8,1149.3h82.5v-21.2H68.8v21.2Z" class="g0_2136"/>
<path d="M66.6,422.2h.7V258.6h-.7V422.2Z" class="g1_2136"/>
<path d="M853.9,422.2h.7V258.6h-.7V422.2Z" class="g1_2136"/>
<path d="M66.6,258.6h788v-.7H66.6v.7Z" class="g1_2136"/>
<path d="M66.6,423h788v-.8H66.6v.8Z" class="g1_2136"/>
<path d="M67,640.7h.7v-97H67v97Z" class="g1_2136"/>
<path d="M414.2,641.5h.8V542.9h-.8v98.6Z" class="g1_2136"/>
<path d="M853.3,640.7h.8v-97h-.8v97Z" class="g1_2136"/>
<path d="M67,543.7H854.1v-.8H67v.8Z" class="g1_2136"/>
<path d="M67,568.2H854.1v-.8H67v.8Z" class="g1_2136"/>
<path d="M67,592.5H854.1v-.7H67v.7Z" class="g1_2136"/>
<path d="M67,617H854.1v-.7H67v.7Z" class="g1_2136"/>
<path d="M67,641.5H854.1v-.8H67v.8Z" class="g1_2136"/>
<path d="M141.3,300.3H711.6v-.7H141.3v.7Z" class="g1_2136"/>
<path d="M710.9,320.6h.7V299.9h-.7v20.7Z" class="g1_2136"/>
<path d="M141,320.6H711.2v-.8H141v.8Z" class="g1_2136"/>
<path d="M141,320.2h.7V299.6H141v20.6Z" class="g1_2136"/>
<path d="M568.4,300.3h.8v-.4h-.8v.4Z" class="g1_2136"/>
<path d="M568.4,320.6h.8V300.3h-.8v20.3Z" class="g1_2136"/>
<path d="M426,300.3h.7v-.4H426v.4Z" class="g1_2136"/>
<path d="M426,320.6h.7V300.3H426v20.3Z" class="g1_2136"/>
<path d="M209.5,351.7l-6.5,4.5m9,-.7l-9,.7l3.9,-8.1m36,-19.7l-33.4,23.3M672.1,339.6l6.1,4.9M674.9,336l3.3,8.5l-8.9,-1.4m-23,-23.8l25.8,20.3" class="g2_2136"/>
<path d="M499.2,301.7h.7v-.4h-.7v.4Z" class="g1_2136"/>
<path d="M499.2,319.6h.7V301.7h-.7v17.9Z" class="g1_2136"/>
<path d="M534.6,345l.9,7.8m3.6,-8.2l-3.6,8.2l-5.4,-7.2M531.8,320l2.8,25M428,338.7l-7.1,3.5m9.1,.5l-9.1,-.5l5.1,-7.5m35.4,-12.4L428,338.7" class="g2_2136"/>
</svg>