<?xml version="1.0" encoding="UTF-8" standalone="no"?>
<!DOCTYPE svg PUBLIC "-//W3C//DTD SVG 1.1//EN"
"http://www.w3.org/Graphics/SVG/1.1/DTD/svg11.dtd">
<svg viewBox="0 0 935 1210" version="1.1" xmlns="http://www.w3.org/2000/svg" xmlns:xlink="http://www.w3.org/1999/xlink">
<defs>
<style type="text/css"><![CDATA[
.g0_54{
fill: #000;
}
]]></style>
</defs>
<path d="M123.4,678h.7V260.1h-.7V678Z" class="g0_54"/>
<path d="M288.4,678.7h.7V259.3h-.7V678.7Z" class="g0_54"/>
<path d="M590.9,678.7h.7V259.3h-.7V678.7Z" class="g0_54"/>
<path d="M810.9,678h.7V260.1h-.7V678Z" class="g0_54"/>
<path d="M123.4,260.1H811.6v-.8H123.4v.8Z" class="g0_54"/>
<path d="M124.1,285.6H810.9v-.7H124.1v.7Z" class="g0_54"/>
<path d="M124.1,289.5H810.9v-.7H124.1v.7Z" class="g0_54"/>
<path d="M123.4,312H811.6v-.7H123.4v.7Z" class="g0_54"/>
<path d="M123.4,336.5H811.6v-.7H123.4v.7Z" class="g0_54"/>
<path d="M123.4,360.9H811.6v-.7H123.4v.7Z" class="g0_54"/>
<path d="M123.4,385.4H811.6v-.8H123.4v.8Z" class="g0_54"/>
<path d="M123.4,409.8H811.6v-.7H123.4v.7Z" class="g0_54"/>
<path d="M123.4,434.2H811.6v-.7H123.4v.7Z" class="g0_54"/>
<path d="M123.4,458.7H811.6V458H123.4v.7Z" class="g0_54"/>
<path d="M123.4,483.2H811.6v-.8H123.4v.8Z" class="g0_54"/>
<path d="M123.4,507.6H811.6v-.8H123.4v.8Z" class="g0_54"/>
<path d="M123.4,532H811.6v-.7H123.4v.7Z" class="g0_54"/>
<path d="M123.4,556.5H811.6v-.7H123.4v.7Z" class="g0_54"/>
<path d="M123.4,580.9H811.6v-.7H123.4v.7Z" class="g0_54"/>
<path d="M123.4,605.4H811.6v-.8H123.4v.8Z" class="g0_54"/>
<path d="M123.4,629.8H811.6v-.7H123.4v.7Z" class="g0_54"/>
<path d="M123.4,654.2H811.6v-.7H123.4v.7Z" class="g0_54"/>
<path d="M123.4,678.7H811.6V678H123.4v.7Z" class="g0_54"/>
<path d="M123.4,1046.2h.7v-233h-.7v233Z" class="g0_54"/>
<path d="M288.4,1046.9h.7V812.4h-.7v234.5Z" class="g0_54"/>
<path d="M592.8,1046.9h.7V812.4h-.7v234.5Z" class="g0_54"/>
<path d="M810.9,1046.2h.7v-233h-.7v233Z" class="g0_54"/>
<path d="M123.4,813.2H811.6v-.8H123.4v.8Z" class="g0_54"/>
<path d="M124.1,838.8H810.9V838H124.1v.8Z" class="g0_54"/>
<path d="M124.1,842.6H810.9v-.7H124.1v.7Z" class="g0_54"/>
<path d="M123.4,881.9H811.6v-.7H123.4v.7Z" class="g0_54"/>
<path d="M123.4,923.2H811.6v-.8H123.4v.8Z" class="g0_54"/>
<path d="M123.4,964.4H811.6v-.7H123.4v.7Z" class="g0_54"/>
<path d="M123.4,1005.7H811.6v-.8H123.4v.8Z" class="g0_54"/>
<path d="M123.4,1046.9H811.6v-.7H123.4v.7Z" class="g0_54"/>
</svg>