<?xml version="1.0" encoding="UTF-8" standalone="no"?>
<!DOCTYPE svg PUBLIC "-//W3C//DTD SVG 1.1//EN"
"http://www.w3.org/Graphics/SVG/1.1/DTD/svg11.dtd">
<svg viewBox="0 0 935 1210" version="1.1" xmlns="http://www.w3.org/2000/svg" xmlns:xlink="http://www.w3.org/1999/xlink">
<defs>
<style type="text/css"><![CDATA[
.g0_158{
fill: #FFF;
}
.g1_158{
fill: #000;
}
]]></style>
</defs>
<path d="M68.8,1149.3H852.5v-21.2H68.8v21.2Z" class="g0_158"/>
<path d="M68.6,1011.1h.7v-887h-.7v887Z" class="g1_158"/>
<path d="M125.3,1011.8h.7V164.6h-.7v847.2Z" class="g1_158"/>
<path d="M182.1,1011.8h.7V123.4h-.7v888.4Z" class="g1_158"/>
<path d="M425.7,1011.8h.7V123.4h-.7v888.4Z" class="g1_158"/>
<path d="M518.8,1011.8h.8V123.4h-.8v888.4Z" class="g1_158"/>
<path d="M853,1011.1h.8v-887H853v887Z" class="g1_158"/>
<path d="M68.6,124.1H853.8v-.7H68.6v.7Z" class="g1_158"/>
<path d="M68.6,165.4H182.8v-.8H68.6v.8Z" class="g1_158"/>
<path d="M68.6,189.8H853.8v-.7H68.6v.7Z" class="g1_158"/>
<path d="M182.1,214.2H853.8v-.7H182.1v.7Z" class="g1_158"/>
<path d="M182.1,238.7H853.8V238H182.1v.7Z" class="g1_158"/>
<path d="M68.6,263.2H853.8v-.8H68.6v.8Z" class="g1_158"/>
<path d="M68.6,304.4H853.8v-.7H68.6v.7Z" class="g1_158"/>
<path d="M182.1,350.3H853.8v-.8H182.1v.8Z" class="g1_158"/>
<path d="M182.1,396.1H853.8v-.7H182.1v.7Z" class="g1_158"/>
<path d="M68.6,420.6H853.8v-.8H68.6v.8Z" class="g1_158"/>
<path d="M68.6,466.4H853.8v-.7H68.6v.7Z" class="g1_158"/>
<path d="M68.6,512.2H853.8v-.7H68.6v.7Z" class="g1_158"/>
<path d="M68.6,558.1H853.8v-.8H68.6v.8Z" class="g1_158"/>
<path d="M68.6,603.9H853.8v-.7H68.6v.7Z" class="g1_158"/>
<path d="M68.6,649.7H853.8V649H68.6v.7Z" class="g1_158"/>
<path d="M68.6,695.6H853.8v-.8H68.6v.8Z" class="g1_158"/>
<path d="M68.6,741.4H853.8v-.7H68.6v.7Z" class="g1_158"/>
<path d="M182.1,804H853.8v-.7H182.1v.7Z" class="g1_158"/>
<path d="M182.1,828.5H853.8v-.8H182.1v.8Z" class="g1_158"/>
<path d="M182.1,907.9H853.8v-.8H182.1v.8Z" class="g1_158"/>
<path d="M182.1,932.3H853.8v-.7H182.1v.7Z" class="g1_158"/>
<path d="M68.6,1011.8H853.8v-.7H68.6v.7Z" class="g1_158"/>
</svg>