<?xml version="1.0" encoding="UTF-8" standalone="no"?>
<!DOCTYPE svg PUBLIC "-//W3C//DTD SVG 1.1//EN"
"http://www.w3.org/Graphics/SVG/1.1/DTD/svg11.dtd">
<svg viewBox="0 0 935 1210" version="1.1" xmlns="http://www.w3.org/2000/svg" xmlns:xlink="http://www.w3.org/1999/xlink">
<defs>
<style type="text/css"><![CDATA[
.g0_4938{
fill: #FFF;
}
.g1_4938{
fill: #000;
}
]]></style>
</defs>
<path d="M68.8,1149.3H852.5v-21.2H68.8v21.2Z" class="g0_4938"/>
<path d="M68.6,902.5h.7V124.1h-.7V902.5Z" class="g1_4938"/>
<path d="M125.3,903.4h.7V164.6h-.7V903.4Z" class="g1_4938"/>
<path d="M182.1,903.4h.7v-780h-.7v780Z" class="g1_4938"/>
<path d="M410.7,903.4h.7v-780h-.7v780Z" class="g1_4938"/>
<path d="M849.7,902.5h.7V124.1h-.7V902.5Z" class="g1_4938"/>
<path d="M68.6,124.1H850.4v-.7H68.6v.7Z" class="g1_4938"/>
<path d="M68.6,165.4H182.8v-.8H68.6v.8Z" class="g1_4938"/>
<path d="M68.6,189.8H850.4v-.7H68.6v.7Z" class="g1_4938"/>
<path d="M182.1,214.2H850.4v-.7H182.1v.7Z" class="g1_4938"/>
<path d="M68.6,238.7H850.4V238H68.6v.7Z" class="g1_4938"/>
<path d="M182.1,263.2H850.4v-.8H182.1v.8Z" class="g1_4938"/>
<path d="M182.1,287.6H850.4v-.8H182.1v.8Z" class="g1_4938"/>
<path d="M182.1,312H850.4v-.7H182.1v.7Z" class="g1_4938"/>
<path d="M68.6,357.9H850.4v-.8H68.6v.8Z" class="g1_4938"/>
<path d="M68.6,382.3H850.4v-.7H68.6v.7Z" class="g1_4938"/>
<path d="M68.6,406.8H850.4v-.7H68.6v.7Z" class="g1_4938"/>
<path d="M68.6,431.2H850.4v-.7H68.6v.7Z" class="g1_4938"/>
<path d="M68.6,455.7H850.4v-.8H68.6v.8Z" class="g1_4938"/>
<path d="M68.6,501.5H850.4v-.7H68.6v.7Z" class="g1_4938"/>
<path d="M68.6,547.3H850.4v-.7H68.6v.7Z" class="g1_4938"/>
<path d="M68.6,593.2H850.4v-.8H68.6v.8Z" class="g1_4938"/>
<path d="M68.6,617.7H850.4v-.8H68.6v.8Z" class="g1_4938"/>
<path d="M68.6,723.1H850.4v-.8H68.6v.8Z" class="g1_4938"/>
<path d="M68.6,747.4H850.4v-.7H68.6v.7Z" class="g1_4938"/>
<path d="M68.6,903.3H850.4v-.7H68.6v.7Z" class="g1_4938"/>
</svg>