<?xml version="1.0" encoding="UTF-8" standalone="no"?>
<!DOCTYPE svg PUBLIC "-//W3C//DTD SVG 1.1//EN"
"http://www.w3.org/Graphics/SVG/1.1/DTD/svg11.dtd">
<svg viewBox="0 0 935 1210" version="1.1" xmlns="http://www.w3.org/2000/svg" xmlns:xlink="http://www.w3.org/1999/xlink">
<defs>
<style type="text/css"><![CDATA[
.g0_378{
fill: #FFF;
}
.g1_378{
fill: #000;
}
]]></style>
</defs>
<path d="M68.8,1149.3H852.5v-21.2H68.8v21.2Z" class="g0_378"/>
<path d="M68.6,1089h.7V142.4h-.7V1089Z" class="g1_378"/>
<path d="M125.3,1089.7h.7V183h-.7v906.7Z" class="g1_378"/>
<path d="M182.1,1089.7h.7v-948h-.7v948Z" class="g1_378"/>
<path d="M421.5,1089.7h.7v-948h-.7v948Z" class="g1_378"/>
<path d="M514.7,1089.7h.7v-948h-.7v948Z" class="g1_378"/>
<path d="M850.9,1089h.8V142.4h-.8V1089Z" class="g1_378"/>
<path d="M68.6,142.4H851.7v-.7H68.6v.7Z" class="g1_378"/>
<path d="M68.6,183.7H182.8V183H68.6v.7Z" class="g1_378"/>
<path d="M68.6,208.2H851.7v-.8H68.6v.8Z" class="g1_378"/>
<path d="M68.6,232.6H851.7v-.8H68.6v.8Z" class="g1_378"/>
<path d="M68.6,257H851.7v-.7H68.6v.7Z" class="g1_378"/>
<path d="M182.1,302.9H851.7v-.8H182.1v.8Z" class="g1_378"/>
<path d="M182.1,327.3H851.7v-.7H182.1v.7Z" class="g1_378"/>
<path d="M182.1,351.7H851.7V351H182.1v.7Z" class="g1_378"/>
<path d="M182.1,376.2H851.7v-.7H182.1v.7Z" class="g1_378"/>
<path d="M182.1,400.7H851.7v-.8H182.1v.8Z" class="g1_378"/>
<path d="M182.1,425.2H851.7v-.8H182.1v.8Z" class="g1_378"/>
<path d="M182.1,449.5H851.7v-.7H182.1v.7Z" class="g1_378"/>
<path d="M182.1,474H851.7v-.7H182.1v.7Z" class="g1_378"/>
<path d="M182.1,498.5H851.7v-.8H182.1v.8Z" class="g1_378"/>
<path d="M182.1,522.9H851.7v-.8H182.1v.8Z" class="g1_378"/>
<path d="M68.6,547.3H851.7v-.7H68.6v.7Z" class="g1_378"/>
<path d="M68.6,631.4H851.7v-.7H68.6v.7Z" class="g1_378"/>
<path d="M182.1,655.8H851.7v-.7H182.1v.7Z" class="g1_378"/>
<path d="M182.1,735.3H851.7v-.8H182.1v.8Z" class="g1_378"/>
<path d="M182.1,814.7H851.7V814H182.1v.7Z" class="g1_378"/>
<path d="M182.1,839.1H851.7v-.7H182.1v.7Z" class="g1_378"/>
<path d="M182.1,901.8H851.7v-.7H182.1v.7Z" class="g1_378"/>
<path d="M182.1,964.4H851.7v-.7H182.1v.7Z" class="g1_378"/>
<path d="M182.1,1043.9H851.7v-.7H182.1v.7Z" class="g1_378"/>
<path d="M68.6,1089.7H851.7v-.7H68.6v.7Z" class="g1_378"/>
</svg>