<?xml version="1.0" encoding="UTF-8" standalone="no"?>
<!DOCTYPE svg PUBLIC "-//W3C//DTD SVG 1.1//EN"
"http://www.w3.org/Graphics/SVG/1.1/DTD/svg11.dtd">
<svg viewBox="0 0 935 1210" version="1.1" xmlns="http://www.w3.org/2000/svg" xmlns:xlink="http://www.w3.org/1999/xlink">
<defs>
<style type="text/css"><![CDATA[
.g0_899{
fill: #FFF;
}
.g1_899{
fill: #000;
}
]]></style>
</defs>
<path d="M68.9,1149.3H755.2v-21.2H68.9v21.2Z" class="g0_899"/>
<path d="M771.3,1149.3H855v-21.2H771.3v21.2Z" class="g0_899"/>
<path d="M69.9,231.8h.8V125.7h-.8V231.8Z" class="g1_899"/>
<path d="M220.1,232.7h.7V124.9h-.7V232.7Z" class="g1_899"/>
<path d="M390.3,232.7h.7V124.9h-.7V232.7Z" class="g1_899"/>
<path d="M428.2,232.7h.7V124.9h-.7V232.7Z" class="g1_899"/>
<path d="M501.6,232.7h.7V124.9h-.7V232.7Z" class="g1_899"/>
<path d="M572.9,232.7h.8V124.9h-.8V232.7Z" class="g1_899"/>
<path d="M851.2,231.8h.7V125.7h-.7V231.8Z" class="g1_899"/>
<path d="M69.9,125.7H852v-.8H69.9v.8Z" class="g1_899"/>
<path d="M69.9,163.8H852v-.7H69.9v.7Z" class="g1_899"/>
<path d="M69.9,186.7H852V186H69.9v.7Z" class="g1_899"/>
<path d="M69.9,209.6H852v-.7H69.9v.7Z" class="g1_899"/>
<path d="M69.9,232.6H852v-.8H69.9v.8Z" class="g1_899"/>
<path d="M69.9,360.2h.8V287.6h-.8v72.6Z" class="g1_899"/>
<path d="M137.7,361h.7V286.8h-.7V361Z" class="g1_899"/>
<path d="M311.8,361h.7V286.8h-.7V361Z" class="g1_899"/>
<path d="M485.6,361h.7V286.8h-.7V361Z" class="g1_899"/>
<path d="M664.6,361h.7V286.8h-.7V361Z" class="g1_899"/>
<path d="M849.8,360.2h.8V287.6h-.8v72.6Z" class="g1_899"/>
<path d="M69.9,287.6H850.6v-.8H69.9v.8Z" class="g1_899"/>
<path d="M69.9,312H850.6v-.7H69.9v.7Z" class="g1_899"/>
<path d="M69.9,336.5H850.6v-.7H69.9v.7Z" class="g1_899"/>
<path d="M69.9,360.9H850.6v-.7H69.9v.7Z" class="g1_899"/>
<path d="M71,939.4h.4V747.3H71V939.4Z" class="g1_899"/>
<path d="M188.7,939.8h.4V746.9h-.4V939.8Z" class="g1_899"/>
<path d="M594.8,939.8h.4V746.9h-.4V939.8Z" class="g1_899"/>
<path d="M851.3,939.4h.4V747.3h-.4V939.4Z" class="g1_899"/>
<path d="M71,747.3H851.7v-.4H71v.4Z" class="g1_899"/>
<path d="M71,768.7H851.7v-.3H71v.3Z" class="g1_899"/>
<path d="M71,939.8H851.7v-.4H71v.4Z" class="g1_899"/>
</svg>