<?xml version="1.0" encoding="UTF-8" standalone="no"?>
<!DOCTYPE svg PUBLIC "-//W3C//DTD SVG 1.1//EN"
"http://www.w3.org/Graphics/SVG/1.1/DTD/svg11.dtd">
<svg viewBox="0 0 935 1210" version="1.1" xmlns="http://www.w3.org/2000/svg" xmlns:xlink="http://www.w3.org/1999/xlink">
<defs>
<style type="text/css"><![CDATA[
.g0_732{
fill: #FFF;
}
.g1_732{
fill: #000;
}
]]></style>
</defs>
<path d="M165,1149.3H852.5v-21.2H165v21.2Z" class="g0_732"/>
<path d="M68.8,1149.3h82.5v-21.2H68.8v21.2Z" class="g0_732"/>
<path d="M68.6,300.6h.7V125.7h-.7V300.6Z" class="g1_732"/>
<path d="M258,301.4h.8V124.9H258V301.4Z" class="g1_732"/>
<path d="M302.9,301.4h.7V124.9h-.7V301.4Z" class="g1_732"/>
<path d="M370,301.4h.7V124.9H370V301.4Z" class="g1_732"/>
<path d="M437.5,301.4h.8V124.9h-.8V301.4Z" class="g1_732"/>
<path d="M853.7,300.6h.7V125.7h-.7V300.6Z" class="g1_732"/>
<path d="M68.6,125.7H854.4v-.8H68.6v.8Z" class="g1_732"/>
<path d="M68.6,182.1H854.4v-.7H68.6v.7Z" class="g1_732"/>
<path d="M68.6,221.9H854.4v-.7H68.6v.7Z" class="g1_732"/>
<path d="M68.6,261.6H854.4v-.7H68.6v.7Z" class="g1_732"/>
<path d="M68.6,301.3H854.4v-.7H68.6v.7Z" class="g1_732"/>
<path d="M68.6,404.5h.7V356.4h-.7v48.1Z" class="g1_732"/>
<path d="M134.2,405.3h.7V355.6h-.7v49.7Z" class="g1_732"/>
<path d="M304,405.3h.7V355.6H304v49.7Z" class="g1_732"/>
<path d="M477.9,405.3h.8V355.6h-.8v49.7Z" class="g1_732"/>
<path d="M658.4,405.3h.7V355.6h-.7v49.7Z" class="g1_732"/>
<path d="M849.7,404.5h.7V356.4h-.7v48.1Z" class="g1_732"/>
<path d="M68.6,356.3H850.4v-.7H68.6v.7Z" class="g1_732"/>
<path d="M68.6,380.8H850.4v-.7H68.6v.7Z" class="g1_732"/>
<path d="M68.6,405.3H850.4v-.8H68.6v.8Z" class="g1_732"/>
</svg>