<?xml version="1.0" encoding="UTF-8" standalone="no"?>
<!DOCTYPE svg PUBLIC "-//W3C//DTD SVG 1.1//EN"
"http://www.w3.org/Graphics/SVG/1.1/DTD/svg11.dtd">
<svg viewBox="0 0 935 1210" version="1.1" xmlns="http://www.w3.org/2000/svg" xmlns:xlink="http://www.w3.org/1999/xlink">
<defs>
<clipPath id="c0_866"><path d="M97.3,59.2V41.4h72.1V59.2Z"/></clipPath>
<style type="text/css"><![CDATA[
.g0_866{
fill: #000;
}
.g1_866{
fill: #FFF;
}
]]></style>
</defs>
<path d="M96.2,62.9v.3H838.7v-.3H96.2Z" class="g0_866"/>
<path d="M96.2,1114.1h-.1v.3h.1v-.3Z" class="g0_866"/>
<path d="M838.7,1114.1h.2v.3h-.2v-.3Z" class="g0_866"/>
<path d="M96.2,1114.1v.3H838.7v-.3H96.2Z" class="g0_866"/>
<image clip-path="url(#c0_866)" preserveAspectRatio="none" x="97" y="41" width="72" height="18" xlink:href="img/1.jpg"/>
<path d="M96.2,973.9H838.7v55H96.2v-55Z" class="g1_866"/>
<path d="M96.6,974.3h-.7v53.2h.7V974.3Z" class="g0_866"/>
<path d="M840.3,974.3h-3.1v53.2h3.1V974.3Z" class="g0_866"/>
<path d="M95.9,973.6v.7H840.3v-.7H95.9Z" class="g0_866"/>
<path d="M95.9,1027.4v3.1H840.3v-3.1H95.9Z" class="g0_866"/>
</svg>