<?xml version="1.0" encoding="UTF-8" standalone="no"?>
<!DOCTYPE svg PUBLIC "-//W3C//DTD SVG 1.1//EN"
"http://www.w3.org/Graphics/SVG/1.1/DTD/svg11.dtd">
<svg viewBox="0 0 935 1210" version="1.1" xmlns="http://www.w3.org/2000/svg" xmlns:xlink="http://www.w3.org/1999/xlink">
<defs>
<style type="text/css"><![CDATA[
.g0_338{
fill: #FFF;
}
.g1_338{
fill: #0860A8;
}
.g2_338{
fill: #000;
}
]]></style>
</defs>
<path d="M68.8,1149.3H852.5v-21.2H68.8v21.2Z" class="g0_338"/>
<path d="M68.9,734H850.2V704.4H68.9V734Z" class="g0_338"/>
<path d="M69.9,727.3h53.5V714.8H69.9v12.5Z" class="g0_338"/>
<path d="M90.9,766.1H678v-1H90.9v1Z" class="g1_338"/>
<path d="M68.9,1048v-.7Z" class="g2_338"/>
<path d="M68.9,1048H289.3v-.7H68.9v.7Z" class="g2_338"/>
<path d="M68.6,703.9h.7V142.4h-.7V703.9Z" class="g2_338"/>
<path d="M125.3,704.7h.7V183h-.7V704.7Z" class="g2_338"/>
<path d="M182.1,704.7h.7v-563h-.7v563Z" class="g2_338"/>
<path d="M432,704.7h.8v-563H432v563Z" class="g2_338"/>
<path d="M525.4,704.7h.8v-563h-.8v563Z" class="g2_338"/>
<path d="M849.8,703.9h.8V142.4h-.8V703.9Z" class="g2_338"/>
<path d="M68.6,142.4H850.7v-.7H68.6v.7Z" class="g2_338"/>
<path d="M68.6,183.7H182.8V183H68.6v.7Z" class="g2_338"/>
<path d="M68.6,208.2H850.7v-.8H68.6v.8Z" class="g2_338"/>
<path d="M182.1,342.6H850.7v-.8H182.1v.8Z" class="g2_338"/>
<path d="M68.6,367H850.7v-.7H68.6v.7Z" class="g2_338"/>
<path d="M182.1,463.3H850.7v-.7H182.1v.7Z" class="g2_338"/>
<path d="M182.1,631.4H850.7v-.7H182.1v.7Z" class="g2_338"/>
<path d="M68.6,655.8H850.7v-.7H68.6v.7Z" class="g2_338"/>
<path d="M68.6,680.3H850.7v-.8H68.6v.8Z" class="g2_338"/>
<path d="M68.6,704.7H850.7V704H68.6v.7Z" class="g2_338"/>
</svg>