<?xml version="1.0" encoding="UTF-8" standalone="no"?>
<!DOCTYPE svg PUBLIC "-//W3C//DTD SVG 1.1//EN"
"http://www.w3.org/Graphics/SVG/1.1/DTD/svg11.dtd">
<svg viewBox="0 0 935 1210" version="1.1" xmlns="http://www.w3.org/2000/svg" xmlns:xlink="http://www.w3.org/1999/xlink">
<defs>
<style type="text/css"><![CDATA[
.g0_1625{
fill: #FFF;
}
.g1_1625{
fill: #000;
}
]]></style>
</defs>
<path d="M68.9,1149.3H755.2v-21.2H68.9v21.2Z" class="g0_1625"/>
<path d="M771.3,1149.3H855v-21.2H771.3v21.2Z" class="g0_1625"/>
<path d="M70.3,724.8H858.5V695.2H70.3v29.6Z" class="g0_1625"/>
<path d="M71.2,718.1h53.6V705.7H71.2v12.4Z" class="g0_1625"/>
<path d="M69.9,694.7h.8v-569h-.8v569Z" class="g1_1625"/>
<path d="M390.3,695.6h.7V124.9h-.7V695.6Z" class="g1_1625"/>
<path d="M428.2,695.6h.7V124.9h-.7V695.6Z" class="g1_1625"/>
<path d="M501.6,695.6h.7V124.9h-.7V695.6Z" class="g1_1625"/>
<path d="M582.1,695.6h.7V124.9h-.7V695.6Z" class="g1_1625"/>
<path d="M858.1,694.7h.7v-569h-.7v569Z" class="g1_1625"/>
<path d="M69.9,125.7h789v-.8H69.9v.8Z" class="g1_1625"/>
<path d="M69.9,179.1h789v-.7H69.9v.7Z" class="g1_1625"/>
<path d="M69.9,223.4h789v-.7H69.9v.7Z" class="g1_1625"/>
<path d="M69.9,267.8h789V267H69.9v.8Z" class="g1_1625"/>
<path d="M69.9,312h789v-.7H69.9v.7Z" class="g1_1625"/>
<path d="M69.9,356.3h789v-.7H69.9v.7Z" class="g1_1625"/>
<path d="M69.9,412.9h789v-.8H69.9v.8Z" class="g1_1625"/>
<path d="M69.9,469.4h789v-.7H69.9v.7Z" class="g1_1625"/>
<path d="M69.9,526h789v-.8H69.9v.8Z" class="g1_1625"/>
<path d="M69.9,582.4h789v-.7H69.9v.7Z" class="g1_1625"/>
<path d="M69.9,639h789v-.7H69.9v.7Z" class="g1_1625"/>
<path d="M69.9,695.6h789v-.8H69.9v.8Z" class="g1_1625"/>
<path d="M69.9,930.6h.8v-97h-.8v97Z" class="g1_1625"/>
<path d="M140.5,931.4h.8V832.9h-.8v98.5Z" class="g1_1625"/>
<path d="M239.4,931.4h.8V832.9h-.8v98.5Z" class="g1_1625"/>
<path d="M385.9,931.4h.8V832.9h-.8v98.5Z" class="g1_1625"/>
<path d="M539.2,931.4h.7V832.9h-.7v98.5Z" class="g1_1625"/>
<path d="M696.1,931.4h.8V832.9h-.8v98.5Z" class="g1_1625"/>
<path d="M845.9,930.6h.7v-97h-.7v97Z" class="g1_1625"/>
<path d="M69.9,833.6H846.6v-.7H69.9v.7Z" class="g1_1625"/>
<path d="M69.9,858.1H846.6v-.7H69.9v.7Z" class="g1_1625"/>
<path d="M69.9,882.5H846.6v-.8H69.9v.8Z" class="g1_1625"/>
<path d="M69.9,907H846.6v-.8H69.9v.8Z" class="g1_1625"/>
<path d="M69.9,931.4H846.6v-.7H69.9v.7Z" class="g1_1625"/>
</svg>