<?xml version="1.0" encoding="UTF-8" standalone="no"?>
<!DOCTYPE svg PUBLIC "-//W3C//DTD SVG 1.1//EN"
"http://www.w3.org/Graphics/SVG/1.1/DTD/svg11.dtd">
<svg viewBox="0 0 935 1210" version="1.1" xmlns="http://www.w3.org/2000/svg" xmlns:xlink="http://www.w3.org/1999/xlink">
<defs>
<clipPath id="c0_1315"><path d="M97.3,59.2V41.4h72.1V59.2Z"/></clipPath>
<style type="text/css"><![CDATA[
.g0_1315{
fill: #000;
}
.g1_1315{
fill: none;
stroke: #000;
stroke-width: 0.763;
}
.g2_1315{
fill: #FFF;
}
]]></style>
</defs>
<path d="M96.2,62.9v.3H838.7v-.3H96.2Z" class="g0_1315"/>
<path d="M96.2,1114.1h-.1v.4h.1v-.4Z" class="g0_1315"/>
<path d="M838.7,1114.1h.2v.4h-.2v-.4Z" class="g0_1315"/>
<path d="M96.2,1114.1v.4H838.7v-.4H96.2Z" class="g0_1315"/>
<image clip-path="url(#c0_1315)" preserveAspectRatio="none" x="97" y="41" width="72" height="18" xlink:href="img/1.jpg"/>
<path d="M302.6,433.9h332v-31h-332v31Z" class="g0_1315"/>
<path d="M302.6,433.9h332v-31h-332v31Z" class="g1_1315"/>
<path d="M300.4,431.7h332v-31h-332v31Z" class="g2_1315"/>
<path d="M300.4,431.7h332v-31h-332v31Z" class="g1_1315"/>
<path d="M302.6,464.9h332v-31h-332v31Z" class="g0_1315"/>
<path d="M302.6,464.9h332v-31h-332v31Z" class="g1_1315"/>
<path d="M300.4,462.7h332v-31h-332v31Z" class="g2_1315"/>
<path d="M300.4,462.7h332v-31h-332v31Z" class="g1_1315"/>
<path d="M302.6,495.8h332v-31h-332v31Z" class="g0_1315"/>
<path d="M302.6,495.8h332v-31h-332v31Z" class="g1_1315"/>
<path d="M300.4,493.6h332v-31h-332v31Z" class="g2_1315"/>
<path d="M300.4,493.6h332v-31h-332v31Z" class="g1_1315"/>
<path d="M302.6,526.8h332V495.7h-332v31.1Z" class="g0_1315"/>
<path d="M302.6,526.8h332V495.7h-332v31.1Z" class="g1_1315"/>
<path d="M300.4,524.6h332V493.5h-332v31.1Z" class="g2_1315"/>
<path d="M300.4,524.6h332V493.5h-332v31.1Z" class="g1_1315"/>
<path d="M302.6,557.7h332v-31h-332v31Z" class="g0_1315"/>
<path d="M302.6,557.7h332v-31h-332v31Z" class="g1_1315"/>
<path d="M300.4,555.5h332v-31h-332v31Z" class="g2_1315"/>
<path d="M300.4,555.5h332v-31h-332v31Z" class="g1_1315"/>
<path d="M302.6,588.6h332v-31h-332v31Z" class="g0_1315"/>
<path d="M302.6,588.6h332v-31h-332v31Z" class="g1_1315"/>
<path d="M300.4,586.4h332v-31h-332v31Z" class="g2_1315"/>
<path d="M300.4,586.4h332v-31h-332v31Z" class="g1_1315"/>
<path d="M302.6,619.6h332v-31h-332v31Z" class="g0_1315"/>
<path d="M302.6,619.6h332v-31h-332v31Z" class="g1_1315"/>
<path d="M300.4,617.4h332v-31h-332v31Z" class="g2_1315"/>
<path d="M300.4,617.4h332v-31h-332v31Z" class="g1_1315"/>
<path d="M302.6,650.5h332v-31h-332v31Z" class="g0_1315"/>
<path d="M302.6,650.5h332v-31h-332v31Z" class="g1_1315"/>
<path d="M300.4,648.3h332v-31h-332v31Z" class="g2_1315"/>
<path d="M300.4,648.3h332v-31h-332v31Z" class="g1_1315"/>
</svg>