<?xml version="1.0" encoding="UTF-8" standalone="no"?>
<!DOCTYPE svg PUBLIC "-//W3C//DTD SVG 1.1//EN"
"http://www.w3.org/Graphics/SVG/1.1/DTD/svg11.dtd">
<svg viewBox="0 0 935 1210" version="1.1" xmlns="http://www.w3.org/2000/svg" xmlns:xlink="http://www.w3.org/1999/xlink">
<defs>
<style type="text/css"><![CDATA[
.g0_2342{
fill: #FFF;
}
.g1_2342{
fill: #0860A8;
}
.g2_2342{
fill: #000;
}
]]></style>
</defs>
<path d="M165,1149.3H852.5v-21.2H165v21.2Z" class="g0_2342"/>
<path d="M68.8,1149.3h82.5v-21.2H68.8v21.2Z" class="g0_2342"/>
<path d="M543.4,686.1H805.9v-.8H543.4v.8Z" class="g1_2342"/>
<path d="M68.9,702.9H807.6v-.8H68.9v.8Z" class="g1_2342"/>
<path d="M68.6,300.6h.7V147h-.7V300.6Z" class="g2_2342"/>
<path d="M277.4,301.4h.7V146.3h-.7V301.4Z" class="g2_2342"/>
<path d="M322,301.4h.8V146.3H322V301.4Z" class="g2_2342"/>
<path d="M396.5,301.4h.8V146.3h-.8V301.4Z" class="g2_2342"/>
<path d="M485.6,301.4h.7V146.3h-.7V301.4Z" class="g2_2342"/>
<path d="M848.9,300.6h.8V147h-.8V300.6Z" class="g2_2342"/>
<path d="M68.6,147H849.7v-.7H68.6v.7Z" class="g2_2342"/>
<path d="M68.6,197.4H849.7v-.7H68.6v.7Z" class="g2_2342"/>
<path d="M68.6,301.3H849.7v-.7H68.6v.7Z" class="g2_2342"/>
<path d="M68.6,404.5h.7V356.4h-.7v48.1Z" class="g2_2342"/>
<path d="M124.6,405.3h.7V355.6h-.7v49.7Z" class="g2_2342"/>
<path d="M222.8,405.3h.8V355.6h-.8v49.7Z" class="g2_2342"/>
<path d="M373.6,405.3h.8V355.6h-.8v49.7Z" class="g2_2342"/>
<path d="M527.4,405.3h.8V355.6h-.8v49.7Z" class="g2_2342"/>
<path d="M690.9,405.3h.7V355.6h-.7v49.7Z" class="g2_2342"/>
<path d="M849,404.5h.7V356.4H849v48.1Z" class="g2_2342"/>
<path d="M68.6,356.3H849.8v-.7H68.6v.7Z" class="g2_2342"/>
<path d="M68.6,380.8H849.8v-.7H68.6v.7Z" class="g2_2342"/>
<path d="M68.6,405.3H849.8v-.8H68.6v.8Z" class="g2_2342"/>
</svg>