<?xml version="1.0" encoding="UTF-8" standalone="no"?>
<!DOCTYPE svg PUBLIC "-//W3C//DTD SVG 1.1//EN"
"http://www.w3.org/Graphics/SVG/1.1/DTD/svg11.dtd">
<svg viewBox="0 0 825 990" version="1.1" xmlns="http://www.w3.org/2000/svg" xmlns:xlink="http://www.w3.org/1999/xlink">
<defs>
<style type="text/css"><![CDATA[
.g0_84{
fill: #000;
}
.g1_84{
fill: #FFF;
}
.g2_84{
fill: none;
stroke: #231F20;
stroke-width: 0.763;
stroke-miterlimit: 3;
}
.g3_84{
fill: #231F20;
}
]]></style>
</defs>
<path d="M79.8,910.3h.3v-.8h-.3v.8Z" class="g0_84"/>
<path d="M80.1,910.3h650v-.8H80.1v.8Z" class="g0_84"/>
<path d="M145.1,121.3H729.8V95.2H145.1v26.1Z" class="g1_84"/>
<path d="M145.1,106.3v-.7Z" class="g0_84"/>
<path d="M145.1,106.3h43.6v-.7H145.1v.7Z" class="g0_84"/>
<path d="M231.5,106.3h.4v-.7h-.4v.7Z" class="g0_84"/>
<path d="M231.9,106.3h86.7v-.7H231.9v.7Z" class="g0_84"/>
<path d="M145.1,185.5H729.8V174.7H145.1v10.8Z" class="g1_84"/>
<path d="M145.1,178.6v-.8Z" class="g0_84"/>
<path d="M145.1,178.6H318.6v-.8H145.1v.8Z" class="g0_84"/>
<path d="M100.3,798.2H728.2V540H100.3V798.2Z" class="g1_84"/>
<path d="M327.3,616.6V597.2m0,69.3v-13" class="g2_84"/>
<path fill-rule="evenodd" d="M327.3,653.9h-2.6l2.6,-6.7l2.7,6.7h-2.7Z" class="g3_84"/>
<path d="M262.4,616.6h82.2V647H262.4V616.6Zm190.5,0h82.3V647H452.9V616.6Zm17.3,-19.4v13" class="g2_84"/>
<path fill-rule="evenodd" d="M470.2,609.7h2.7l-2.7,6.7l-2.6,-6.7h2.6Z" class="g3_84"/>
<path d="M327.3,597.2H470.2M327.3,666.5H470.2m0,0V647m86.7,-21.7H541.7" class="g2_84"/>
<path fill-rule="evenodd" d="M542.2,625.3V628l-6.7,-2.7l6.7,-2.7v2.7Z" class="g3_84"/>
<path d="M517.9,666.5v-13" class="g2_84"/>
<path fill-rule="evenodd" d="M517.9,653.9h-2.7l2.7,-6.7l2.7,6.7h-2.7Z" class="g3_84"/>
<path d="M556.9,625.3V597.2m-39,19.4V597.2m0,0h39m0,69.3V638.3m-39,28.2h39M535.2,638.3h21.7m-316.2,-13h15.2" class="g2_84"/>
<path fill-rule="evenodd" d="M255.4,625.3v-2.7l6.7,2.7l-6.7,2.7v-2.7Z" class="g3_84"/>
<path d="M240.7,625.3V597.2m39,19.4V597.2m-39,0h39M219.1,579.8l-23.9,17.4" class="g2_84"/>
<path fill-rule="evenodd" d="M195.6,596.9l1.6,2.2l-7,1.7l3.8,-6.1l1.6,2.2Z" class="g3_84"/>
<path d="M385.8,681.6H364.1" class="g2_84"/>
<path fill-rule="evenodd" d="M364.6,681.6v2.7l-6.7,-2.7l6.7,-2.7v2.7Z" class="g3_84"/>
<path d="M333.8,577.7l21.7,-15.2" class="g2_84"/>
<path fill-rule="evenodd" d="M355.1,562.8l-1.5,-2.2l7,-1.7l-4,6.1l-1.5,-2.2Z" class="g3_84"/>
<path d="M522.2,575.5l21.7,-15.2" class="g2_84"/>
<path fill-rule="evenodd" d="M543.5,560.6L542,558.4l7,-1.6l-4,6l-1.5,-2.2Z" class="g3_84"/>
<path d="M383.6,703.3l-19.5,12.3" class="g2_84"/>
<path fill-rule="evenodd" d="M364.5,715.4l1.4,2.3l-7.1,1.2l4.3,-5.8l1.4,2.3Z" class="g3_84"/>
</svg>