<?xml version="1.0" encoding="UTF-8" standalone="no"?>
<!DOCTYPE svg PUBLIC "-//W3C//DTD SVG 1.1//EN"
"http://www.w3.org/Graphics/SVG/1.1/DTD/svg11.dtd">
<svg viewBox="0 0 935 1210" version="1.1" xmlns="http://www.w3.org/2000/svg" xmlns:xlink="http://www.w3.org/1999/xlink">
<defs>
<style type="text/css"><![CDATA[
.g0_1620{
fill: #FFF;
}
.g1_1620{
fill: #000;
}
]]></style>
</defs>
<path d="M165,1149.3H852.5v-21.2H165v21.2Z" class="g0_1620"/>
<path d="M68.8,1149.3h82.5v-21.2H68.8v21.2Z" class="g0_1620"/>
<path d="M68.6,448.8h.7V125.7h-.7V448.8Z" class="g1_1620"/>
<path d="M293.4,449.5h.8V124.9h-.8V449.5Z" class="g1_1620"/>
<path d="M337.9,449.5h.7V124.9h-.7V449.5Z" class="g1_1620"/>
<path d="M410.1,449.5h.8V124.9h-.8V449.5Z" class="g1_1620"/>
<path d="M501,449.5h.8V124.9H501V449.5Z" class="g1_1620"/>
<path d="M854.5,448.8h.7V125.7h-.7V448.8Z" class="g1_1620"/>
<path d="M68.6,125.7H855.2v-.8H68.6v.8Z" class="g1_1620"/>
<path d="M68.6,179.1H855.2v-.7H68.6v.7Z" class="g1_1620"/>
<path d="M68.6,269.2H855.2v-.7H68.6v.7Z" class="g1_1620"/>
<path d="M68.6,359.4H855.2v-.7H68.6v.7Z" class="g1_1620"/>
<path d="M68.6,449.5H855.2v-.7H68.6v.7Z" class="g1_1620"/>
<path d="M68.6,554.2h.7V506.1h-.7v48.1Z" class="g1_1620"/>
<path d="M161.5,554.9h.8V505.4h-.8v49.5Z" class="g1_1620"/>
<path d="M254.5,554.9h.7V505.4h-.7v49.5Z" class="g1_1620"/>
<path d="M397.1,554.9h.7V505.4h-.7v49.5Z" class="g1_1620"/>
<path d="M552,554.9h.8V505.4H552v49.5Z" class="g1_1620"/>
<path d="M699.9,554.9h.7V505.4h-.7v49.5Z" class="g1_1620"/>
<path d="M851.1,554.2h.8V506.1h-.8v48.1Z" class="g1_1620"/>
<path d="M68.6,506.1H851.9v-.7H68.6v.7Z" class="g1_1620"/>
<path d="M68.6,530.6H851.9v-.8H68.6v.8Z" class="g1_1620"/>
<path d="M68.6,554.9H851.9v-.7H68.6v.7Z" class="g1_1620"/>
</svg>