<?xml version="1.0" encoding="UTF-8" standalone="no"?>
<!DOCTYPE svg PUBLIC "-//W3C//DTD SVG 1.1//EN"
"http://www.w3.org/Graphics/SVG/1.1/DTD/svg11.dtd">
<svg viewBox="0 0 935 1210" version="1.1" xmlns="http://www.w3.org/2000/svg" xmlns:xlink="http://www.w3.org/1999/xlink">
<defs>
<style type="text/css"><![CDATA[
.g0_357{
fill: #FFF;
}
.g1_357{
fill: #000;
}
]]></style>
</defs>
<path d="M68.9,1149.3H852.7v-21.2H68.9v21.2Z" class="g0_357"/>
<path d="M69.9,445.8h.8V124.1h-.8V445.8Z" class="g1_357"/>
<path d="M325.6,446.5h.7V123.4h-.7V446.5Z" class="g1_357"/>
<path d="M853.4,445.8h.7V124.1h-.7V445.8Z" class="g1_357"/>
<path d="M69.9,124.1H854.1v-.7H69.9v.7Z" class="g1_357"/>
<path d="M69.9,150.1H854.1v-.8H69.9v.8Z" class="g1_357"/>
<path d="M69.9,191.3H854.1v-.7H69.9v.7Z" class="g1_357"/>
<path d="M69.9,232.6H854.1v-.8H69.9v.8Z" class="g1_357"/>
<path d="M69.9,273.8H854.1v-.7H69.9v.7Z" class="g1_357"/>
<path d="M69.9,315.1H854.1v-.8H69.9v.8Z" class="g1_357"/>
<path d="M69.9,356.3H854.1v-.7H69.9v.7Z" class="g1_357"/>
<path d="M69.9,397.7H854.1v-.8H69.9v.8Z" class="g1_357"/>
<path d="M69.9,422H854.1v-.7H69.9v.7Z" class="g1_357"/>
<path d="M69.9,446.5H854.1v-.7H69.9v.7Z" class="g1_357"/>
<path d="M70.8,1076.7h.7V712.3h-.7v364.4Z" class="g1_357"/>
<path d="M180,1077.5h.8V711.6H180v365.9Z" class="g1_357"/>
<path d="M294.1,1077.5h.7V711.6h-.7v365.9Z" class="g1_357"/>
<path d="M658.9,1077.5h.7V711.6h-.7v365.9Z" class="g1_357"/>
<path d="M851.3,1076.7h.7V712.3h-.7v364.4Z" class="g1_357"/>
<path d="M70.7,712.3H852v-.7H70.7v.7Z" class="g1_357"/>
<path d="M70.7,759.7H852V759H70.7v.7Z" class="g1_357"/>
<path d="M70.7,784.1H852v-.7H70.7v.7Z" class="g1_357"/>
<path d="M70.7,808.6H852v-.7H70.7v.7Z" class="g1_357"/>
<path d="M70.7,833.1H852v-.8H70.7v.8Z" class="g1_357"/>
<path d="M70.7,857.5H852v-.8H70.7v.8Z" class="g1_357"/>
<path d="M70.7,881.9H852v-.7H70.7v.7Z" class="g1_357"/>
<path d="M70.7,906.4H852v-.7H70.7v.7Z" class="g1_357"/>
<path d="M70.7,930.8H852v-.7H70.7v.7Z" class="g1_357"/>
<path d="M70.7,955.3H852v-.8H70.7v.8Z" class="g1_357"/>
<path d="M70.7,979.7H852V979H70.7v.7Z" class="g1_357"/>
<path d="M70.7,1004.1H852v-.7H70.7v.7Z" class="g1_357"/>
<path d="M70.7,1028.6H852v-.7H70.7v.7Z" class="g1_357"/>
<path d="M70.7,1053.1H852v-.8H70.7v.8Z" class="g1_357"/>
<path d="M70.7,1077.5H852v-.8H70.7v.8Z" class="g1_357"/>
</svg>