<?xml version="1.0" encoding="UTF-8" standalone="no"?>
<!DOCTYPE svg PUBLIC "-//W3C//DTD SVG 1.1//EN"
"http://www.w3.org/Graphics/SVG/1.1/DTD/svg11.dtd">
<svg viewBox="0 0 935 1210" version="1.1" xmlns="http://www.w3.org/2000/svg" xmlns:xlink="http://www.w3.org/1999/xlink">
<defs>
<clipPath id="c0_2957"><path d="M97.3,59.2V41.4h72.1V59.2Z"/></clipPath>
<clipPath id="c1_2957"><path d="M265.8,259.4V169.6H669.2v89.8Z"/></clipPath>
<clipPath id="c2_2957"><path d="M336.4,407V374H598.6v33Z"/></clipPath>
<clipPath id="c3_2957"><path d="M308.2,511.8v-33h22v33Z"/></clipPath>
<clipPath id="c4_2957"><path d="M366.1,512.6V477.8H607.2v34.8Z"/></clipPath>
<clipPath id="c5_2957"><path d="M366.1,552.9V518.1H569.6v34.8Z"/></clipPath>
<clipPath id="c6_2957"><path d="M366.1,594.5V559.6H569.6v34.9Z"/></clipPath>
<clipPath id="c7_2957"><path d="M366.1,635.9V601.1H569.6v34.8Z"/></clipPath>
<clipPath id="c8_2957"><path d="M366.1,676.4v-33H389v33Z"/></clipPath>
<clipPath id="c9_2957"><path d="M334.2,766.6v-33h61.4v33Z"/></clipPath>
<clipPath id="ca_2957"><path d="M432.5,768.3V733.5H574.6v34.8Z"/></clipPath>
<clipPath id="cb_2957"><path d="M432.5,808.3V773.5H574.6v34.8Z"/></clipPath>
<clipPath id="cc_2957"><path d="M432.5,848.8V814H572.7v34.8Z"/></clipPath>
<clipPath id="cd_2957"><path d="M432.5,889.2v-33h62.3v33Z"/></clipPath>
<style type="text/css"><![CDATA[
.g0_2957{
fill: #000;
}
]]></style>
</defs>
<path d="M96.3,63.3H838.8v-.4H96.3v.4Z" class="g0_2957"/>
<path d="M96.1,1114.5h.2v-.4h-.2v.4Z" class="g0_2957"/>
<path d="M96.3,1114.5H838.9v-.4H96.3v.4Z" class="g0_2957"/>
<image clip-path="url(#c0_2957)" preserveAspectRatio="none" x="97" y="41" width="73" height="18" xlink:href="img/1.jpg"/>
<image clip-path="url(#c1_2957)" preserveAspectRatio="none" x="266" y="170" width="403" height="89" xlink:href="img/2.jpg"/>
<image clip-path="url(#c2_2957)" preserveAspectRatio="none" x="336" y="374" width="263" height="33" xlink:href="img/3.jpg"/>
<image clip-path="url(#c3_2957)" preserveAspectRatio="none" x="308" y="479" width="22" height="33" xlink:href="img/4.jpg"/>
<image clip-path="url(#c4_2957)" preserveAspectRatio="none" x="366" y="478" width="241" height="35" xlink:href="img/5.jpg"/>
<image clip-path="url(#c5_2957)" preserveAspectRatio="none" x="366" y="518" width="204" height="35" xlink:href="img/6.jpg"/>
<image clip-path="url(#c6_2957)" preserveAspectRatio="none" x="366" y="560" width="204" height="34" xlink:href="img/7.jpg"/>
<image clip-path="url(#c7_2957)" preserveAspectRatio="none" x="366" y="601" width="204" height="35" xlink:href="img/8.jpg"/>
<image clip-path="url(#c8_2957)" preserveAspectRatio="none" x="366" y="643" width="23" height="33" xlink:href="img/9.jpg"/>
<image clip-path="url(#c9_2957)" preserveAspectRatio="none" x="334" y="734" width="62" height="33" xlink:href="img/10.jpg"/>
<image clip-path="url(#ca_2957)" preserveAspectRatio="none" x="432" y="734" width="143" height="34" xlink:href="img/11.jpg"/>
<image clip-path="url(#cb_2957)" preserveAspectRatio="none" x="432" y="773" width="143" height="35" xlink:href="img/12.jpg"/>
<image clip-path="url(#cc_2957)" preserveAspectRatio="none" x="432" y="814" width="141" height="35" xlink:href="img/13.jpg"/>
<image clip-path="url(#cd_2957)" preserveAspectRatio="none" x="432" y="856" width="63" height="33" xlink:href="img/14.jpg"/>
<path d="M563.5,1021h.3v-.7h-.3v.7Z" class="g0_2957"/>
<path d="M554.4,1021h9.1v-.7h-9.1v.7Z" class="g0_2957"/>
<path d="M555.4,1023.1v-.1h-.3v.3h.3v-.2Z" class="g0_2957"/>
<path d="M555.1,1023.1l.2,-.9l.4,-.8l.2,.1h.1l-.4,.8l-.2,.9Z" class="g0_2957"/>
<path d="M555.7,1021.4l.6,-.6h.1v.3l.1,-.1l-.6,.5Z" class="g0_2957"/>
<path d="M557.4,1020.8v-.1h-.3v.3h.3v-.2Z" class="g0_2957"/>
<path d="M556.4,1020.8v.3l.8,-.1v-.3Z" class="g0_2957"/>
<path d="M554.4,1023.3h1v-2.5h-1v2.5Z" class="g0_2957"/>
<path d="M556.4,1020.9l-.5,-.5l-1.1,1.2l.5,.5Z" class="g0_2957"/>
<path d="M556,1021.4h4v-1.1h-4v1.1Z" class="g0_2957"/>
<path d="M563.5,1032.4h.3v-.7h-.3v.7Z" class="g0_2957"/>
<path d="M554.4,1032.4h9.1v-.7h-9.1v.7Z" class="g0_2957"/>
<path d="M563.8,1020.8l-.2,-.3l-.4,-.2l-.3,.2l-.2,.3l.2,.4l.3,.2l.4,-.2l.2,-.4Z" class="g0_2957"/>
<path d="M558,1031.9l-.2,-.3l-.4,-.2l-.3,.2l-.1,.3l.1,.4l.3,.1l.4,-.1l.2,-.4Z" class="g0_2957"/>
<path d="M563.7,1021.1l-1,-.5l-5.7,11.1l.9,.5Z" class="g0_2957"/>
<path d="M561.1,1020.8l-.2,-.3l-.4,-.2l-.2,.2l-.2,.3l.2,.4l.2,.2l.4,-.2l.2,-.4Z" class="g0_2957"/>
<path d="M555.3,1031.6l-.2,-.3l-.3,-.1l-.3,.1l-.2,.3l.2,.4l.3,.2l.3,-.2l.2,-.4Z" class="g0_2957"/>
<path d="M561,1021.1l-.9,-.5l-5.8,10.8l.9,.5Z" class="g0_2957"/>
<path d="M554.4,1032.3h.3v-.7h-.3v.7Z" class="g0_2957"/>
<path d="M554.7,1032.3h9.1v-.7h-9.1v.7Z" class="g0_2957"/>
<path d="M563.1,1029.4v-.1h-.3v.3h.3v-.2Z" class="g0_2957"/>
<path d="M563.1,1029.5l-.2,.9l-.3,.8h-.1l-.2,-.2v.1l.4,-.8l.1,-.9Z" class="g0_2957"/>
<path d="M562.5,1031.2l-.7,.4v.1l-.1,-.3h-.1l.7,-.4Z" class="g0_2957"/>
<path d="M561.1,1031.7v-.1h-.3v.3h.3v-.2Z" class="g0_2957"/>
<path d="M561.8,1031.7l-.1,-.3l-.8,.2l.1,.3Z" class="g0_2957"/>
<path d="M562.8,1031.6h1v-2.4h-1v2.4Z" class="g0_2957"/>
<path d="M561.7,1031.7l.6,.5l1.1,-1.3l-.6,-.5Z" class="g0_2957"/>
<path d="M558,1032.4h4v-1.1h-4v1.1Z" class="g0_2957"/>
</svg>