<?xml version="1.0" encoding="UTF-8" standalone="no"?>
<!DOCTYPE svg PUBLIC "-//W3C//DTD SVG 1.1//EN"
"http://www.w3.org/Graphics/SVG/1.1/DTD/svg11.dtd">
<svg viewBox="0 0 935 1210" version="1.1" xmlns="http://www.w3.org/2000/svg" xmlns:xlink="http://www.w3.org/1999/xlink">
<defs>
<style type="text/css"><![CDATA[
.g0_2832{
fill: #FFF;
}
.g1_2832{
fill: #000;
}
]]></style>
</defs>
<path d="M165,1149.3H852.5v-21.2H165v21.2Z" class="g0_2832"/>
<path d="M68.8,1149.3h82.5v-21.2H68.8v21.2Z" class="g0_2832"/>
<path d="M68.6,432h.7V168.5h-.7V432Z" class="g1_2832"/>
<path d="M297.1,432.8h.7V167.7h-.7V432.8Z" class="g1_2832"/>
<path d="M340.4,432.8h.8V167.7h-.8V432.8Z" class="g1_2832"/>
<path d="M414.9,432.8h.7V167.7h-.7V432.8Z" class="g1_2832"/>
<path d="M498.8,432.8h.8V167.7h-.8V432.8Z" class="g1_2832"/>
<path d="M852.6,432h.7V168.5h-.7V432Z" class="g1_2832"/>
<path d="M68.6,168.4H853.3v-.7H68.6v.7Z" class="g1_2832"/>
<path d="M68.6,218.8H853.3v-.7H68.6v.7Z" class="g1_2832"/>
<path d="M68.6,272.3H853.3v-.7H68.6v.7Z" class="g1_2832"/>
<path d="M68.6,325.8H853.3v-.7H68.6v.7Z" class="g1_2832"/>
<path d="M68.6,379.2H853.3v-.7H68.6v.7Z" class="g1_2832"/>
<path d="M68.6,432.8H853.3V432H68.6v.8Z" class="g1_2832"/>
<path d="M68.6,561.8h.7V496.9h-.7v64.9Z" class="g1_2832"/>
<path d="M125,562.7h.8V496.2H125v66.5Z" class="g1_2832"/>
<path d="M221.7,562.7h.8V496.2h-.8v66.5Z" class="g1_2832"/>
<path d="M398.7,562.7h.7V496.2h-.7v66.5Z" class="g1_2832"/>
<path d="M548.7,562.7h.8V496.2h-.8v66.5Z" class="g1_2832"/>
<path d="M704.2,562.7h.7V496.2h-.7v66.5Z" class="g1_2832"/>
<path d="M857.4,561.8h.7V496.9h-.7v64.9Z" class="g1_2832"/>
<path d="M68.6,496.9H858.2v-.7H68.6v.7Z" class="g1_2832"/>
<path d="M68.6,521.4H858.2v-.7H68.6v.7Z" class="g1_2832"/>
<path d="M68.6,562.7H858.2v-.8H68.6v.8Z" class="g1_2832"/>
</svg>