<?xml version="1.0" encoding="UTF-8" standalone="no"?>
<!DOCTYPE svg PUBLIC "-//W3C//DTD SVG 1.1//EN"
"http://www.w3.org/Graphics/SVG/1.1/DTD/svg11.dtd">
<svg viewBox="0 0 935 1210" version="1.1" xmlns="http://www.w3.org/2000/svg" xmlns:xlink="http://www.w3.org/1999/xlink">
<defs>
<style type="text/css"><![CDATA[
.g0_4180{
fill: #FFF;
}
.g1_4180{
fill: #000;
}
]]></style>
</defs>
<path d="M68.8,1149.3H852.5v-21.2H68.8v21.2Z" class="g0_4180"/>
<path d="M68.6,994.2h.7V124.1h-.7V994.2Z" class="g1_4180"/>
<path d="M132.6,995h.8V123.4h-.8V995Z" class="g1_4180"/>
<path d="M226,995h.7V123.4H226V995Z" class="g1_4180"/>
<path d="M293.4,995h.8V123.4h-.8V995Z" class="g1_4180"/>
<path d="M844.9,994.2h.7V124.1h-.7V994.2Z" class="g1_4180"/>
<path d="M68.6,124.1h777v-.7H68.6v.7Z" class="g1_4180"/>
<path d="M68.6,148.6h777v-.7H68.6v.7Z" class="g1_4180"/>
<path d="M68.6,215.8h777v-.7H68.6v.7Z" class="g1_4180"/>
<path d="M68.6,295.3h777v-.8H68.6v.8Z" class="g1_4180"/>
<path d="M68.6,362.4h777v-.7H68.6v.7Z" class="g1_4180"/>
<path d="M68.6,518.3h777v-.7H68.6v.7Z" class="g1_4180"/>
<path d="M68.6,585.6h777v-.8H68.6v.8Z" class="g1_4180"/>
<path d="M68.6,631.4h777v-.7H68.6v.7Z" class="g1_4180"/>
<path d="M68.6,677.2h777v-.7H68.6v.7Z" class="g1_4180"/>
<path d="M68.6,744.4h777v-.7H68.6v.7Z" class="g1_4180"/>
<path d="M68.6,811.6h777v-.7H68.6v.7Z" class="g1_4180"/>
<path d="M68.6,970.6h777v-.8H68.6v.8Z" class="g1_4180"/>
<path d="M68.6,995h777v-.8H68.6v.8Z" class="g1_4180"/>
</svg>