<?xml version="1.0" encoding="UTF-8" standalone="no"?>
<!DOCTYPE svg PUBLIC "-//W3C//DTD SVG 1.1//EN"
"http://www.w3.org/Graphics/SVG/1.1/DTD/svg11.dtd">
<svg viewBox="0 0 935 1210" version="1.1" xmlns="http://www.w3.org/2000/svg" xmlns:xlink="http://www.w3.org/1999/xlink">
<defs>
<style type="text/css"><![CDATA[
.g0_1202{
fill: #FFF;
}
.g1_1202{
fill: #000;
}
]]></style>
</defs>
<path d="M68.8,1149.3H852.5v-21.2H68.8v21.2Z" class="g0_1202"/>
<path d="M68.6,490.1h.7V246.4h-.7V490.1Z" class="g1_1202"/>
<path d="M180.5,490.8h.7V245.6h-.7V490.8Z" class="g1_1202"/>
<path d="M349.9,490.8h.7V245.6h-.7V490.8Z" class="g1_1202"/>
<path d="M483.3,490.8h.7V270.1h-.7V490.8Z" class="g1_1202"/>
<path d="M605.9,490.8h.7V270.1h-.7V490.8Z" class="g1_1202"/>
<path d="M728.6,490.8h.7V270.1h-.7V490.8Z" class="g1_1202"/>
<path d="M851.1,490.1h.8V246.4h-.8V490.1Z" class="g1_1202"/>
<path d="M68.6,246.3H851.9v-.7H68.6v.7Z" class="g1_1202"/>
<path d="M349.9,270.8h502v-.7h-502v.7Z" class="g1_1202"/>
<path d="M68.6,295.3H851.9v-.8H68.6v.8Z" class="g1_1202"/>
<path d="M68.6,319.6H851.9v-.7H68.6v.7Z" class="g1_1202"/>
<path d="M68.6,344.1H851.9v-.7H68.6v.7Z" class="g1_1202"/>
<path d="M68.6,368.6H851.9v-.7H68.6v.7Z" class="g1_1202"/>
<path d="M68.6,393H851.9v-.8H68.6v.8Z" class="g1_1202"/>
<path d="M68.6,417.4H851.9v-.7H68.6v.7Z" class="g1_1202"/>
<path d="M68.6,441.9H851.9v-.7H68.6v.7Z" class="g1_1202"/>
<path d="M68.6,466.4H851.9v-.7H68.6v.7Z" class="g1_1202"/>
<path d="M68.6,490.8H851.9v-.7H68.6v.7Z" class="g1_1202"/>
</svg>