<?xml version="1.0" encoding="UTF-8" standalone="no"?>
<!DOCTYPE svg PUBLIC "-//W3C//DTD SVG 1.1//EN"
"http://www.w3.org/Graphics/SVG/1.1/DTD/svg11.dtd">
<svg viewBox="0 0 935 1210" version="1.1" xmlns="http://www.w3.org/2000/svg" xmlns:xlink="http://www.w3.org/1999/xlink">
<defs>
<style type="text/css"><![CDATA[
.g0_346{
fill: #FFF;
}
.g1_346{
fill: #000;
}
]]></style>
</defs>
<path d="M68.8,1149.3H852.5v-21.2H68.8v21.2Z" class="g0_346"/>
<path d="M68.6,1093.6h.7V124.1h-.7v969.5Z" class="g1_346"/>
<path d="M125.3,1094.3h.7V164.6h-.7v929.7Z" class="g1_346"/>
<path d="M182.1,1094.3h.7V123.4h-.7v970.9Z" class="g1_346"/>
<path d="M433.9,1094.3h.7V123.4h-.7v970.9Z" class="g1_346"/>
<path d="M527.3,1094.3h.7V123.4h-.7v970.9Z" class="g1_346"/>
<path d="M851.7,1093.6h.7V124.1h-.7v969.5Z" class="g1_346"/>
<path d="M68.6,124.1H852.5v-.7H68.6v.7Z" class="g1_346"/>
<path d="M68.6,165.4H182.8v-.8H68.6v.8Z" class="g1_346"/>
<path d="M68.6,189.8H852.5v-.7H68.6v.7Z" class="g1_346"/>
<path d="M68.6,214.2H852.5v-.7H68.6v.7Z" class="g1_346"/>
<path d="M68.6,238.7H852.5V238H68.6v.7Z" class="g1_346"/>
<path d="M68.6,263.2H852.5v-.8H68.6v.8Z" class="g1_346"/>
<path d="M68.6,287.6H852.5v-.8H68.6v.8Z" class="g1_346"/>
<path d="M68.6,312H852.5v-.7H68.6v.7Z" class="g1_346"/>
<path d="M68.6,336.5H852.5v-.7H68.6v.7Z" class="g1_346"/>
<path d="M68.6,360.9H852.5v-.7H68.6v.7Z" class="g1_346"/>
<path d="M68.6,385.4H852.5v-.8H68.6v.8Z" class="g1_346"/>
<path d="M68.6,409.8H852.5v-.7H68.6v.7Z" class="g1_346"/>
<path d="M68.6,434.3H852.5v-.7H68.6v.7Z" class="g1_346"/>
<path d="M68.6,458.7H852.5V458H68.6v.7Z" class="g1_346"/>
<path d="M68.6,483.2H852.5v-.8H68.6v.8Z" class="g1_346"/>
<path d="M68.6,507.7H852.5v-.8H68.6v.8Z" class="g1_346"/>
<path d="M182.1,532H852.5v-.7H182.1v.7Z" class="g1_346"/>
<path d="M182.1,556.5H852.5v-.7H182.1v.7Z" class="g1_346"/>
<path d="M182.1,581H852.5v-.8H182.1v.8Z" class="g1_346"/>
<path d="M182.1,605.4H852.5v-.8H182.1v.8Z" class="g1_346"/>
<path d="M182.1,629.8H852.5v-.7H182.1v.7Z" class="g1_346"/>
<path d="M68.6,654.3H852.5v-.7H68.6v.7Z" class="g1_346"/>
<path d="M182.1,678.7H852.5V678H182.1v.7Z" class="g1_346"/>
<path d="M182.1,703.2H852.5v-.8H182.1v.8Z" class="g1_346"/>
<path d="M68.6,727.7H852.5v-.8H68.6v.8Z" class="g1_346"/>
<path d="M182.1,752H852.5v-.7H182.1v.7Z" class="g1_346"/>
<path d="M182.1,776.5H852.5v-.7H182.1v.7Z" class="g1_346"/>
<path d="M182.1,801H852.5v-.7H182.1v.7Z" class="g1_346"/>
<path d="M182.1,825.4H852.5v-.8H182.1v.8Z" class="g1_346"/>
<path d="M182.1,849.8H852.5v-.7H182.1v.7Z" class="g1_346"/>
<path d="M182.1,874.3H852.5v-.7H182.1v.7Z" class="g1_346"/>
<path d="M182.1,898.7H852.5V898H182.1v.7Z" class="g1_346"/>
<path d="M182.1,923.2H852.5v-.8H182.1v.8Z" class="g1_346"/>
<path d="M182.1,947.7H852.5v-.8H182.1v.8Z" class="g1_346"/>
<path d="M182.1,972H852.5v-.7H182.1v.7Z" class="g1_346"/>
<path d="M68.6,996.5H852.5v-.7H68.6v.7Z" class="g1_346"/>
<path d="M182.1,1021H852.5v-.7H182.1v.7Z" class="g1_346"/>
<path d="M182.1,1045.4H852.5v-.8H182.1v.8Z" class="g1_346"/>
<path d="M182.1,1069.8H852.5v-.7H182.1v.7Z" class="g1_346"/>
<path d="M68.6,1094.3H852.5v-.7H68.6v.7Z" class="g1_346"/>
</svg>