<?xml version="1.0" encoding="UTF-8" standalone="no"?>
<!DOCTYPE svg PUBLIC "-//W3C//DTD SVG 1.1//EN"
"http://www.w3.org/Graphics/SVG/1.1/DTD/svg11.dtd">
<svg viewBox="0 0 935 1210" version="1.1" xmlns="http://www.w3.org/2000/svg" xmlns:xlink="http://www.w3.org/1999/xlink">
<defs>
<style type="text/css"><![CDATA[
.g0_1895{
fill: #FFF;
}
.g1_1895{
fill: #000;
}
]]></style>
</defs>
<path d="M68.9,1149.3H755.2v-21.2H68.9v21.2Z" class="g0_1895"/>
<path d="M771.3,1149.3H855v-21.2H771.3v21.2Z" class="g0_1895"/>
<path d="M69.9,467.1h.8V125.7h-.8V467.1Z" class="g1_1895"/>
<path d="M308.3,467.9h.7v-343h-.7v343Z" class="g1_1895"/>
<path d="M353.4,467.9h.7v-343h-.7v343Z" class="g1_1895"/>
<path d="M427.9,467.9h.7v-343h-.7v343Z" class="g1_1895"/>
<path d="M512.6,467.9h.7v-343h-.7v343Z" class="g1_1895"/>
<path d="M853.9,467.1h.7V125.7h-.7V467.1Z" class="g1_1895"/>
<path d="M69.9,125.7H854.7v-.8H69.9v.8Z" class="g1_1895"/>
<path d="M69.9,179.1H854.7v-.7H69.9v.7Z" class="g1_1895"/>
<path d="M69.9,218.8H854.7v-.7H69.9v.7Z" class="g1_1895"/>
<path d="M69.9,258.6H854.7v-.7H69.9v.7Z" class="g1_1895"/>
<path d="M69.9,298.3H854.7v-.7H69.9v.7Z" class="g1_1895"/>
<path d="M69.9,354.8H854.7v-.7H69.9v.7Z" class="g1_1895"/>
<path d="M69.9,411.4H854.7v-.7H69.9v.7Z" class="g1_1895"/>
<path d="M69.9,467.9H854.7v-.8H69.9v.8Z" class="g1_1895"/>
<path d="M69.9,619.9h.8v-97h-.8v97Z" class="g1_1895"/>
<path d="M138.1,620.7h.7V522.1h-.7v98.6Z" class="g1_1895"/>
<path d="M236.5,620.7h.7V522.1h-.7v98.6Z" class="g1_1895"/>
<path d="M388.5,620.7h.7V522.1h-.7v98.6Z" class="g1_1895"/>
<path d="M540.7,620.7h.8V522.1h-.8v98.6Z" class="g1_1895"/>
<path d="M693.6,620.7h.8V522.1h-.8v98.6Z" class="g1_1895"/>
<path d="M849.1,619.9h.7v-97h-.7v97Z" class="g1_1895"/>
<path d="M69.9,522.9H849.8v-.8H69.9v.8Z" class="g1_1895"/>
<path d="M69.9,547.3H849.8v-.7H69.9v.7Z" class="g1_1895"/>
<path d="M69.9,571.8H849.8v-.7H69.9v.7Z" class="g1_1895"/>
<path d="M69.9,596.2H849.8v-.7H69.9v.7Z" class="g1_1895"/>
<path d="M69.9,620.7H849.8v-.8H69.9v.8Z" class="g1_1895"/>
</svg>