<?xml version="1.0" encoding="UTF-8" standalone="no"?>
<!DOCTYPE svg PUBLIC "-//W3C//DTD SVG 1.1//EN"
"http://www.w3.org/Graphics/SVG/1.1/DTD/svg11.dtd">
<svg viewBox="0 0 935 1210" version="1.1" xmlns="http://www.w3.org/2000/svg" xmlns:xlink="http://www.w3.org/1999/xlink">
<defs>
<clipPath id="c0_1754"><path d="M766.6,59.2V41.4h72.1V59.2Z"/></clipPath>
<style type="text/css"><![CDATA[
.g0_1754{
fill: #000;
}
]]></style>
</defs>
<path d="M97.3,62.9v.3H839.9v-.3H97.3Z" class="g0_1754"/>
<path d="M96.2,1114.1h-.1v.4h.1v-.4Z" class="g0_1754"/>
<path d="M838.7,1114.1h.2v.4h-.2v-.4Z" class="g0_1754"/>
<path d="M96.2,1114.1v.4H838.7v-.4H96.2Z" class="g0_1754"/>
<image clip-path="url(#c0_1754)" preserveAspectRatio="none" x="767" y="41" width="72" height="18" xlink:href="img/1.jpg"/>
<path d="M96.6,180.2h-.7V398.4h.7V180.2Z" class="g0_1754"/>
<path d="M259.1,177.2h-.7V223h.7V177.2Z" class="g0_1754"/>
<path d="M259.1,220h-.7v65.3h.7V220Z" class="g0_1754"/>
<path d="M259.1,286.1h-.7v113h.7v-113Z" class="g0_1754"/>
<path d="M298.8,177.2h-.7V223h.7V177.2Z" class="g0_1754"/>
<path d="M298.8,220h-.7v66.1h.7V220Z" class="g0_1754"/>
<path d="M298.8,285.3h-.7V399.1h.7V285.3Z" class="g0_1754"/>
<path d="M352.4,177.2h-.8V223h.8V177.2Z" class="g0_1754"/>
<path d="M352.4,220h-.8v66.1h.8V220Z" class="g0_1754"/>
<path d="M352.4,285.3h-.8V399.1h.8V285.3Z" class="g0_1754"/>
<path d="M427.2,177.2h-.8V223h.8V177.2Z" class="g0_1754"/>
<path d="M427.2,220h-.8v66.1h.8V220Z" class="g0_1754"/>
<path d="M427.2,285.3h-.8V399.1h.8V285.3Z" class="g0_1754"/>
<path d="M847.1,180.2h-.8V220h.8V180.2Z" class="g0_1754"/>
<path d="M847.1,223h-.8v62.3h.8V223Z" class="g0_1754"/>
<path d="M847.1,286.1h-.8V398.4h.8V286.1Z" class="g0_1754"/>
<path d="M95.9,177.3v3H847.1v-3H95.9Z" class="g0_1754"/>
<path d="M95.9,220v3H847.1v-3H95.9Z" class="g0_1754"/>
<path d="M258.4,260.9v.7H847.1v-.7H258.4Z" class="g0_1754"/>
<path d="M258.4,285.4v.7H847.1v-.7H258.4Z" class="g0_1754"/>
<path d="M95.9,309.7v.8H847.1v-.8H95.9Z" class="g0_1754"/>
<path d="M258.4,334.2v.7H847.1v-.7H258.4Z" class="g0_1754"/>
<path d="M258.4,373.9v.7H847.1v-.7H258.4Z" class="g0_1754"/>
<path d="M95.9,398.4v.7H847.1v-.7H95.9Z" class="g0_1754"/>
</svg>