<?xml version="1.0" encoding="UTF-8" standalone="no"?>
<!DOCTYPE svg PUBLIC "-//W3C//DTD SVG 1.1//EN"
"http://www.w3.org/Graphics/SVG/1.1/DTD/svg11.dtd">
<svg viewBox="0 0 935 1210" version="1.1" xmlns="http://www.w3.org/2000/svg" xmlns:xlink="http://www.w3.org/1999/xlink">
<defs>
<style type="text/css"><![CDATA[
.g0_2927{
fill: #FFF;
}
.g1_2927{
fill: #000;
}
]]></style>
</defs>
<path d="M68.9,1149.3H852.7v-21.2H68.9v21.2Z" class="g0_2927"/>
<path d="M69.9,1089h.8V124.1h-.8V1089Z" class="g1_2927"/>
<path d="M468.6,148.6h.7V123.4h-.7v25.2Z" class="g1_2927"/>
<path d="M468.6,304.4h.7V172.2h-.7V304.4Z" class="g1_2927"/>
<path d="M468.6,548.9h.7V328.1h-.7V548.9Z" class="g1_2927"/>
<path d="M468.6,622.2h.7V572.6h-.7v49.6Z" class="g1_2927"/>
<path d="M468.6,778.1h.7V645.9h-.7V778.1Z" class="g1_2927"/>
<path d="M468.6,1065.3h.7V801.7h-.7v263.6Z" class="g1_2927"/>
<path d="M851.2,1089h.7V124.1h-.7V1089Z" class="g1_2927"/>
<path d="M69.9,124.1H852v-.7H69.9v.7Z" class="g1_2927"/>
<path d="M69.9,148.6H852v-.7H69.9v.7Z" class="g1_2927"/>
<path d="M69.9,173H852v-.8H69.9v.8Z" class="g1_2927"/>
<path d="M69.9,214.2H852v-.7H69.9v.7Z" class="g1_2927"/>
<path d="M69.9,255.5H852v-.8H69.9v.8Z" class="g1_2927"/>
<path d="M69.9,279.9H852v-.7H69.9v.7Z" class="g1_2927"/>
<path d="M69.9,304.4H852v-.7H69.9v.7Z" class="g1_2927"/>
<path d="M69.9,328.8H852v-.7H69.9v.7Z" class="g1_2927"/>
<path d="M69.9,353.3H852v-.7H69.9v.7Z" class="g1_2927"/>
<path d="M69.9,377.8H852V377H69.9v.8Z" class="g1_2927"/>
<path d="M69.9,402.2H852v-.7H69.9v.7Z" class="g1_2927"/>
<path d="M69.9,426.6H852v-.7H69.9v.7Z" class="g1_2927"/>
<path d="M69.9,451.1H852v-.7H69.9v.7Z" class="g1_2927"/>
<path d="M69.9,475.6H852v-.8H69.9v.8Z" class="g1_2927"/>
<path d="M69.9,499.9H852v-.7H69.9v.7Z" class="g1_2927"/>
<path d="M69.9,524.4H852v-.7H69.9v.7Z" class="g1_2927"/>
<path d="M69.9,548.9H852v-.7H69.9v.7Z" class="g1_2927"/>
<path d="M69.9,573.3H852v-.7H69.9v.7Z" class="g1_2927"/>
<path d="M69.9,597.8H852V597H69.9v.8Z" class="g1_2927"/>
<path d="M69.9,622.2H852v-.7H69.9v.7Z" class="g1_2927"/>
<path d="M69.9,646.6H852v-.7H69.9v.7Z" class="g1_2927"/>
<path d="M69.9,671.1H852v-.7H69.9v.7Z" class="g1_2927"/>
<path d="M69.9,695.6H852v-.8H69.9v.8Z" class="g1_2927"/>
<path d="M69.9,736.8H852v-.7H69.9v.7Z" class="g1_2927"/>
<path d="M69.9,778.1H852v-.8H69.9v.8Z" class="g1_2927"/>
<path d="M69.9,802.4H852v-.7H69.9v.7Z" class="g1_2927"/>
<path d="M69.9,826.9H852v-.7H69.9v.7Z" class="g1_2927"/>
<path d="M69.9,851.4H852v-.7H69.9v.7Z" class="g1_2927"/>
<path d="M69.9,875.8H852v-.7H69.9v.7Z" class="g1_2927"/>
<path d="M69.9,900.3H852v-.8H69.9v.8Z" class="g1_2927"/>
<path d="M69.9,941.5H852v-.7H69.9v.7Z" class="g1_2927"/>
<path d="M69.9,982.8H852V982H69.9v.8Z" class="g1_2927"/>
<path d="M69.9,1024H852v-.7H69.9v.7Z" class="g1_2927"/>
<path d="M69.9,1065.3H852v-.8H69.9v.8Z" class="g1_2927"/>
<path d="M69.9,1089.7H852v-.7H69.9v.7Z" class="g1_2927"/>
</svg>