<?xml version="1.0" encoding="UTF-8" standalone="no"?>
<!DOCTYPE svg PUBLIC "-//W3C//DTD SVG 1.1//EN"
"http://www.w3.org/Graphics/SVG/1.1/DTD/svg11.dtd">
<svg viewBox="0 0 935 1210" version="1.1" xmlns="http://www.w3.org/2000/svg" xmlns:xlink="http://www.w3.org/1999/xlink">
<defs>
<style type="text/css"><![CDATA[
.g0_411{
fill: #FFF;
}
.g1_411{
fill: #000;
}
]]></style>
</defs>
<path d="M68.9,1149.3H852.7v-21.2H68.9v21.2Z" class="g0_411"/>
<path d="M69.9,948.4h.8V124.1h-.8V948.4Z" class="g1_411"/>
<path d="M124.1,949.2h.8V164.6h-.8V949.2Z" class="g1_411"/>
<path d="M174.9,949.2h.7V123.4h-.7V949.2Z" class="g1_411"/>
<path d="M395.2,949.2h.7V123.4h-.7V949.2Z" class="g1_411"/>
<path d="M470.4,949.2h.8V123.4h-.8V949.2Z" class="g1_411"/>
<path d="M561.8,949.2h.8V123.4h-.8V949.2Z" class="g1_411"/>
<path d="M851.5,948.4h.7V124.1h-.7V948.4Z" class="g1_411"/>
<path d="M69.9,124.1H852.2v-.7H69.9v.7Z" class="g1_411"/>
<path d="M69.9,165.4H175.7v-.8H69.9v.8Z" class="g1_411"/>
<path d="M69.9,189.8H852.2v-.7H69.9v.7Z" class="g1_411"/>
<path d="M69.9,252.4H852.2v-.7H69.9v.7Z" class="g1_411"/>
<path d="M69.9,315.1H852.2v-.8H69.9v.8Z" class="g1_411"/>
<path d="M69.9,377.8H852.2V377H69.9v.8Z" class="g1_411"/>
<path d="M69.9,440.4H852.2v-.8H69.9v.8Z" class="g1_411"/>
<path d="M69.9,503.1H852.2v-.8H69.9v.8Z" class="g1_411"/>
<path d="M69.9,565.7H852.2v-.8H69.9v.8Z" class="g1_411"/>
<path d="M69.9,628.3H852.2v-.7H69.9v.7Z" class="g1_411"/>
<path d="M69.9,674.1H852.2v-.7H69.9v.7Z" class="g1_411"/>
<path d="M69.9,719.9H852.2v-.7H69.9v.7Z" class="g1_411"/>
<path d="M69.9,765.8H852.2V765H69.9v.8Z" class="g1_411"/>
<path d="M69.9,811.6H852.2v-.7H69.9v.7Z" class="g1_411"/>
<path d="M69.9,857.5H852.2v-.8H69.9v.8Z" class="g1_411"/>
<path d="M69.9,903.3H852.2v-.7H69.9v.7Z" class="g1_411"/>
<path d="M69.9,949.1H852.2v-.7H69.9v.7Z" class="g1_411"/>
</svg>