<?xml version="1.0" encoding="UTF-8" standalone="no"?>
<!DOCTYPE svg PUBLIC "-//W3C//DTD SVG 1.1//EN"
"http://www.w3.org/Graphics/SVG/1.1/DTD/svg11.dtd">
<svg viewBox="0 0 935 1210" version="1.1" xmlns="http://www.w3.org/2000/svg" xmlns:xlink="http://www.w3.org/1999/xlink">
<defs>
<style type="text/css"><![CDATA[
.g0_1244{
fill: #FFF;
}
.g1_1244{
fill: #000;
}
]]></style>
</defs>
<path d="M68.8,1149.3H852.5v-21.2H68.8v21.2Z" class="g0_1244"/>
<path d="M68.6,1082.1h.7V817h-.7v265.1Z" class="g1_1244"/>
<path d="M165.5,1082.9h.7V816.3h-.7v266.6Z" class="g1_1244"/>
<path d="M311.5,1082.9h.7V816.3h-.7v266.6Z" class="g1_1244"/>
<path d="M460.2,1082.9h.7V816.3h-.7v266.6Z" class="g1_1244"/>
<path d="M853.2,1082.1h.8V817h-.8v265.1Z" class="g1_1244"/>
<path d="M68.6,817H854.1v-.7H68.6v.7Z" class="g1_1244"/>
<path d="M68.6,858.3H854.1v-.8H68.6v.8Z" class="g1_1244"/>
<path d="M68.6,933.1H854.1v-.8H68.6v.8Z" class="g1_1244"/>
<path d="M68.6,1008H854.1v-.8H68.6v.8Z" class="g1_1244"/>
<path d="M68.6,1082.9H854.1v-.8H68.6v.8Z" class="g1_1244"/>
</svg>