<?xml version="1.0" encoding="UTF-8" standalone="no"?>
<!DOCTYPE svg PUBLIC "-//W3C//DTD SVG 1.1//EN"
"http://www.w3.org/Graphics/SVG/1.1/DTD/svg11.dtd">
<svg viewBox="0 0 935 1210" version="1.1" xmlns="http://www.w3.org/2000/svg" xmlns:xlink="http://www.w3.org/1999/xlink">
<defs>
<style type="text/css"><![CDATA[
.g0_3379{
fill: #FFF;
}
.g1_3379{
fill: #000;
}
.g2_3379{
fill: #FFF;
stroke: #000;
stroke-width: 0.778;
stroke-linecap: round;
stroke-linejoin: round;
}
.g3_3379{
fill: none;
stroke: #000;
stroke-width: 0.778;
stroke-linecap: round;
stroke-linejoin: round;
}
.g4_3379{
fill: #FFF;
stroke: #000;
stroke-width: 0.778;
stroke-linecap: round;
stroke-miterlimit: 10;
}
]]></style>
</defs>
<path d="M68.9,1149.3H852.7v-21.2H68.9v21.2Z" class="g0_3379"/>
<path d="M171.3,825.6h.8V107.3h-.8V825.6Z" class="g1_3379"/>
<path d="M750.7,825.6h.7V107.3h-.7V825.6Z" class="g1_3379"/>
<path d="M171.3,107.3H751.4v-.7H171.3v.7Z" class="g1_3379"/>
<path d="M171.3,826.4H751.4v-.8H171.3v.8Z" class="g1_3379"/>
<path d="M345.4,329.2H361V316.5H345.4v12.7Z" class="g0_3379"/>
<path fill-rule="evenodd" d="M334.5,772.7v-2.5l.8,-3.3l1.6,-3.4l1.5,-2.5l1.6,-2.6l2.3,-1.6l2.4,-1.7l3.1,-.8l2.3,-.9l3.1,-.8l3.1,.8l2.4,.9l3,.8l2.4,1.7l2.3,1.6l1.5,2.6l1.6,2.5l1.6,3.4l.8,3.3V776l-.8,3.4l-1.6,2.5l-1.6,2.6l-1.5,2.5l-2.3,2.5l-2.4,1.7l-3,.8l-2.4,.8h-6.2l-2.3,-.8l-3.1,-.8l-2.4,-1.7L340,787l-1.6,-2.5l-1.5,-2.6l-1.6,-2.5l-.8,-3.4v-3.3Z" class="g2_3379"/>
<path fill-rule="evenodd" d="M297.2,393.7l56,-39.4l56,39.4l-56,40.2l-56,-40.2Z" class="g2_3379"/>
<path d="M426.3,432.3H438V420.6H426.3v11.7Z" class="g0_3379"/>
<path fill-rule="evenodd" d="M297.2,532.9l56,-40.3l56,40.3l-56,40.3l-56,-40.3Z" class="g2_3379"/>
<path d="M345.4,600.8H361V588.2H345.4v12.6Z" class="g0_3379"/>
<path fill-rule="evenodd" d="M297.2,255.4l56,-40.3l56,40.3l-56,40.2l-56,-40.2Z" class="g2_3379"/>
<path d="M427.9,261.3h15.6V248.6H427.9v12.7Z" class="g0_3379"/>
<path d="M353.2,174.8v34.4" class="g3_3379"/>
<path fill-rule="evenodd" d="M349.3,207.5l3.9,9.3l4.7,-9.3Z" class="g1_3379"/>
<path fill-rule="evenodd" d="M315.1,144.6l-7,.9l-5.5,3.3l-3.9,5.1l-1.5,5.9l1.5,5.8l3.9,5.1l5.5,3.3l7,.8h75.5l7,-.8l5.4,-3.3l3.9,-5.1l1.6,-5.8l-1.6,-5.9L403,148.8l-5.4,-3.3l-7,-.9Z" class="g2_3379"/>
<path fill-rule="evenodd" d="M297.2,672.1l56,-40.3l56,40.3l-56,40.2l-56,-40.2Z" class="g2_3379"/>
<path d="M353.2,295.6v52" class="g3_3379"/>
<path fill-rule="evenodd" d="M349.3,346l3.9,8.3l4.7,-8.3Z" class="g1_3379"/>
<path d="M343.8,329.2h18.7V315.7H343.8v13.5Z" class="g0_3379"/>
<path d="M353.2,433.9v52" class="g3_3379"/>
<path fill-rule="evenodd" d="M349.3,484.3l3.9,9.2l4.7,-9.2Z" class="g1_3379"/>
<path d="M343.8,468.3h18.7V454.9H343.8v13.4Z" class="g0_3379"/>
<path d="M353.2,573.2v52" class="g3_3379"/>
<path fill-rule="evenodd" d="M349.3,623.4l3.9,9.3l4.7,-9.3Z" class="g1_3379"/>
<path d="M343.8,606.7h18.7V593.3H343.8v13.4Z" class="g0_3379"/>
<path d="M409.2,255.4h95" class="g3_3379"/>
<path fill-rule="evenodd" d="M502.6,260.3l7.8,-4.9l-7.8,-4.2Z" class="g1_3379"/>
<path d="M448.9,260.3h14.8V249.5H448.9v10.8Z" class="g0_3379"/>
<path fill-rule="evenodd" d="M621.6,225.1H510.4v60.3H621.6V225.1Z" class="g4_3379"/>
<path d="M521.3,284.7V225.1M610,284.7V225.1M409.2,394.5h95" class="g3_3379"/>
<path fill-rule="evenodd" d="M502.6,399.6l7.8,-5.1l-7.8,-4.2Z" class="g1_3379"/>
<path d="M448.9,399.6h14.8V388.7H448.9v10.9Z" class="g0_3379"/>
<path fill-rule="evenodd" d="M621.6,364.4H510.4v60.2H621.6V364.4Z" class="g4_3379"/>
<path d="M521.3,423.9V364.4M610,423.9V364.4M409.2,532.9h95" class="g3_3379"/>
<path fill-rule="evenodd" d="M502.6,537.9l7.8,-4.1l-7.8,-5.1Z" class="g1_3379"/>
<path d="M448.9,537.9h14.8v-10H448.9v10Z" class="g0_3379"/>
<path fill-rule="evenodd" d="M621.6,503.5H510.4v60.3H621.6V503.5Z" class="g4_3379"/>
<path d="M521.3,563.1V503.5M610,563.1V503.5M409.2,672.1h95" class="g3_3379"/>
<path fill-rule="evenodd" d="M502.6,677.1l7.8,-4.2l-7.8,-5Z" class="g1_3379"/>
<path d="M448.9,677.1h14.8V666.2H448.9v10.9Z" class="g0_3379"/>
<path fill-rule="evenodd" d="M621.6,641.9H510.4v60.3H621.6V641.9Z" class="g4_3379"/>
<path d="M521.3,701.4V641.9M610,701.4V641.9M353.2,712.3v34.4" class="g3_3379"/>
<path fill-rule="evenodd" d="M349.3,745.1l3.9,8.3l4.7,-8.3Z" class="g1_3379"/>
</svg>