<?xml version="1.0" encoding="UTF-8" standalone="no"?>
<!DOCTYPE svg PUBLIC "-//W3C//DTD SVG 1.1//EN"
"http://www.w3.org/Graphics/SVG/1.1/DTD/svg11.dtd">
<svg viewBox="0 0 935 1210" version="1.1" xmlns="http://www.w3.org/2000/svg" xmlns:xlink="http://www.w3.org/1999/xlink">
<defs>
<clipPath id="c0_289"><path d="M766.7,59V41.4h72.2V59Z"/></clipPath>
<style type="text/css"><![CDATA[
.g0_289{
fill: #000;
}
]]></style>
</defs>
<path d="M97.5,63.1v.3H840v-.3H97.5Z" class="g0_289"/>
<path d="M96.1,1114.3v.3v-.3Z" class="g0_289"/>
<path d="M838.9,1114.3v.3v-.3Z" class="g0_289"/>
<path d="M96.1,1114.3v.3H838.9v-.3H96.1Z" class="g0_289"/>
<image clip-path="url(#c0_289)" preserveAspectRatio="none" x="767" y="41" width="72" height="18" xlink:href="img/1.jpg"/>
<path d="M192.9,178.9h-.8V329.6h.8V178.9Z" class="g0_289"/>
<path d="M332.2,178.2h-.7v98.6h.7V178.2Z" class="g0_289"/>
<path d="M742.8,178.9h-.7V329.6h.7V178.9Z" class="g0_289"/>
<path d="M192.1,178.2v.7H742.8v-.7H192.1Z" class="g0_289"/>
<path d="M192.1,202.8v.7H742.8v-.7H192.1Z" class="g0_289"/>
<path d="M192.1,227.3v.8H742.8v-.8H192.1Z" class="g0_289"/>
<path d="M192.1,251.5v.8H742.8v-.8H192.1Z" class="g0_289"/>
<path d="M192.1,276.1v.7H742.8v-.7H192.1Z" class="g0_289"/>
<path d="M192.1,329.6v.8H742.8v-.8H192.1Z" class="g0_289"/>
</svg>