<?xml version="1.0" encoding="UTF-8" standalone="no"?>
<!DOCTYPE svg PUBLIC "-//W3C//DTD SVG 1.1//EN"
"http://www.w3.org/Graphics/SVG/1.1/DTD/svg11.dtd">
<svg viewBox="0 0 935 1210" version="1.1" xmlns="http://www.w3.org/2000/svg" xmlns:xlink="http://www.w3.org/1999/xlink">
<defs>
<style type="text/css"><![CDATA[
.g0_2893{
fill: #FFF;
}
.g1_2893{
fill: #000;
}
]]></style>
</defs>
<path d="M68.9,1149.3H852.7v-21.2H68.9v21.2Z" class="g0_2893"/>
<path d="M69.9,1076.7h.8V124.1h-.8v952.6Z" class="g1_2893"/>
<path d="M469,393.1h.7V123.4H469V393.1Z" class="g1_2893"/>
<path d="M469,710.8h.7V416.7H469V710.8Z" class="g1_2893"/>
<path d="M469,759.7h.7V734.5H469v25.2Z" class="g1_2893"/>
<path d="M469,808.6h.7V783.4H469v25.2Z" class="g1_2893"/>
<path d="M469,1077.5h.7V832.3H469v245.2Z" class="g1_2893"/>
<path d="M852.5,1076.7h.7V124.1h-.7v952.6Z" class="g1_2893"/>
<path d="M69.9,124.1H853.3v-.7H69.9v.7Z" class="g1_2893"/>
<path d="M69.9,148.6H853.3v-.7H69.9v.7Z" class="g1_2893"/>
<path d="M69.9,173H853.3v-.8H69.9v.8Z" class="g1_2893"/>
<path d="M69.9,197.4H853.3v-.7H69.9v.7Z" class="g1_2893"/>
<path d="M69.9,221.9H853.3v-.7H69.9v.7Z" class="g1_2893"/>
<path d="M69.9,246.3H853.3v-.7H69.9v.7Z" class="g1_2893"/>
<path d="M69.9,270.8H853.3v-.7H69.9v.7Z" class="g1_2893"/>
<path d="M69.9,295.3H853.3v-.8H69.9v.8Z" class="g1_2893"/>
<path d="M69.9,319.6H853.3v-.7H69.9v.7Z" class="g1_2893"/>
<path d="M69.9,344.1H853.3v-.7H69.9v.7Z" class="g1_2893"/>
<path d="M69.9,368.6H853.3v-.7H69.9v.7Z" class="g1_2893"/>
<path d="M69.9,393H853.3v-.8H69.9v.8Z" class="g1_2893"/>
<path d="M69.9,417.4H853.3v-.7H69.9v.7Z" class="g1_2893"/>
<path d="M69.9,441.9H853.3v-.7H69.9v.7Z" class="g1_2893"/>
<path d="M69.9,466.4H853.3v-.7H69.9v.7Z" class="g1_2893"/>
<path d="M69.9,490.8H853.3v-.7H69.9v.7Z" class="g1_2893"/>
<path d="M69.9,515.3H853.3v-.8H69.9v.8Z" class="g1_2893"/>
<path d="M69.9,539.7H853.3V539H69.9v.7Z" class="g1_2893"/>
<path d="M69.9,564.1H853.3v-.7H69.9v.7Z" class="g1_2893"/>
<path d="M69.9,588.6H853.3v-.7H69.9v.7Z" class="g1_2893"/>
<path d="M69.9,613.1H853.3v-.8H69.9v.8Z" class="g1_2893"/>
<path d="M69.9,637.4H853.3v-.7H69.9v.7Z" class="g1_2893"/>
<path d="M69.9,661.9H853.3v-.7H69.9v.7Z" class="g1_2893"/>
<path d="M69.9,686.4H853.3v-.7H69.9v.7Z" class="g1_2893"/>
<path d="M69.9,710.8H853.3v-.7H69.9v.7Z" class="g1_2893"/>
<path d="M69.9,735.3H853.3v-.8H69.9v.8Z" class="g1_2893"/>
<path d="M69.9,759.7H853.3V759H69.9v.7Z" class="g1_2893"/>
<path d="M69.9,784.1H853.3v-.7H69.9v.7Z" class="g1_2893"/>
<path d="M69.9,808.6H853.3v-.7H69.9v.7Z" class="g1_2893"/>
<path d="M69.9,833.1H853.3v-.8H69.9v.8Z" class="g1_2893"/>
<path d="M69.9,857.5H853.3v-.8H69.9v.8Z" class="g1_2893"/>
<path d="M69.9,881.9H853.3v-.7H69.9v.7Z" class="g1_2893"/>
<path d="M69.9,906.4H853.3v-.7H69.9v.7Z" class="g1_2893"/>
<path d="M69.9,930.8H853.3v-.7H69.9v.7Z" class="g1_2893"/>
<path d="M69.9,955.3H853.3v-.8H69.9v.8Z" class="g1_2893"/>
<path d="M69.9,979.7H853.3V979H69.9v.7Z" class="g1_2893"/>
<path d="M69.9,1004.1H853.3v-.7H69.9v.7Z" class="g1_2893"/>
<path d="M69.9,1028.6H853.3v-.7H69.9v.7Z" class="g1_2893"/>
<path d="M69.9,1053.1H853.3v-.8H69.9v.8Z" class="g1_2893"/>
<path d="M69.9,1077.5H853.3v-.8H69.9v.8Z" class="g1_2893"/>
</svg>