<?xml version="1.0" encoding="UTF-8" standalone="no"?>
<!DOCTYPE svg PUBLIC "-//W3C//DTD SVG 1.1//EN"
"http://www.w3.org/Graphics/SVG/1.1/DTD/svg11.dtd">
<svg viewBox="0 0 935 1210" version="1.1" xmlns="http://www.w3.org/2000/svg" xmlns:xlink="http://www.w3.org/1999/xlink">
<defs>
<clipPath id="c0_2058"><path d="M766.6,59.2V41.4h72.2V59.2Z"/></clipPath>
<style type="text/css"><![CDATA[
.g0_2058{
fill: #000;
}
]]></style>
</defs>
<path d="M97.4,63.3H839.9v-.4H97.4v.4Z" class="g0_2058"/>
<path d="M96.1,1114.5h.2v-.4h-.2v.4Z" class="g0_2058"/>
<path d="M96.3,1114.5H838.9v-.4H96.3v.4Z" class="g0_2058"/>
<image clip-path="url(#c0_2058)" preserveAspectRatio="none" x="767" y="41" width="72" height="18" xlink:href="img/1.jpg"/>
<path d="M545,332.5h31.3v-1.1H545v1.1Z" class="g0_2058"/>
<path d="M545,355.4h31.3v-1.1H545v1.1Z" class="g0_2058"/>
<path d="M95.9,645.9h.7V557.6h-.7v88.3Z" class="g0_2058"/>
<path d="M139.5,625.3h.8V554.6h-.8v70.7Z" class="g0_2058"/>
<path d="M183.2,625.3h.8V554.6h-.8v70.7Z" class="g0_2058"/>
<path d="M226.9,625.3h.7V601.5h-.7v23.8Z" class="g0_2058"/>
<path d="M270.6,625.3h.7V554.6h-.7v70.7Z" class="g0_2058"/>
<path d="M314.2,625.3h.8V554.6h-.8v70.7Z" class="g0_2058"/>
<path d="M358,625.3h.7V554.6H358v70.7Z" class="g0_2058"/>
<path d="M401.6,625.3h.7V554.6h-.7v70.7Z" class="g0_2058"/>
<path d="M445.3,625.3h.8V554.6h-.8v70.7Z" class="g0_2058"/>
<path d="M489,625.3h.7V554.6H489v70.7Z" class="g0_2058"/>
<path d="M532.7,625.3h.7V554.6h-.7v70.7Z" class="g0_2058"/>
<path d="M576.3,625.3h.7V554.6h-.7v70.7Z" class="g0_2058"/>
<path d="M620,625.3h.8V554.6H620v70.7Z" class="g0_2058"/>
<path d="M663.7,625.3h.7V554.6h-.7v70.7Z" class="g0_2058"/>
<path d="M707.4,625.3h.7V554.6h-.7v70.7Z" class="g0_2058"/>
<path d="M751,625.3h.8V554.6H751v70.7Z" class="g0_2058"/>
<path d="M794.8,625.3h.7V554.6h-.7v70.7Z" class="g0_2058"/>
<path d="M838.4,645.9h.7V557.6h-.7v88.3Z" class="g0_2058"/>
<path d="M95.9,557.7H839.1v-3H95.9v3Z" class="g0_2058"/>
<path d="M95.9,580.6H839.1v-3H95.9v3Z" class="g0_2058"/>
<path d="M95.9,602.3H839.1v-.7H95.9v.7Z" class="g0_2058"/>
<path d="M95.9,625.3H839.1v-.8H95.9v.8Z" class="g0_2058"/>
<path d="M95.9,646.6H839.1v-.7H95.9v.7Z" class="g0_2058"/>
</svg>