<?xml version="1.0" encoding="UTF-8" standalone="no"?>
<!DOCTYPE svg PUBLIC "-//W3C//DTD SVG 1.1//EN"
"http://www.w3.org/Graphics/SVG/1.1/DTD/svg11.dtd">
<svg viewBox="0 0 935 1210" version="1.1" xmlns="http://www.w3.org/2000/svg" xmlns:xlink="http://www.w3.org/1999/xlink">
<defs>
<style type="text/css"><![CDATA[
.g0_71{
fill: #FFF;
}
.g1_71{
fill: #000;
}
]]></style>
</defs>
<path d="M68.9,1149.3H852.7v-21.2H68.9v21.2Z" class="g0_71"/>
<path d="M70,520.8h.4V174.3H70V520.8Z" class="g1_71"/>
<path d="M209.7,521.2h.4V174h-.4V521.2Z" class="g1_71"/>
<path d="M246.4,521.2h.4V174h-.4V521.2Z" class="g1_71"/>
<path d="M288.4,521.2h.3V174h-.3V521.2Z" class="g1_71"/>
<path d="M327.7,521.2h.4V174h-.4V521.2Z" class="g1_71"/>
<path d="M363.3,521.2h.3V174h-.3V521.2Z" class="g1_71"/>
<path d="M852.3,520.8h.4V174.3h-.4V520.8Z" class="g1_71"/>
<path d="M70,174.3H852.7V174H70v.3Z" class="g1_71"/>
<path d="M70,284.3H852.7V284H70v.3Z" class="g1_71"/>
<path d="M209.7,305.7h643v-.4h-643v.4Z" class="g1_71"/>
<path d="M209.7,363.8h643v-.3h-643v.3Z" class="g1_71"/>
<path d="M209.7,418.8h643v-.3h-643v.3Z" class="g1_71"/>
<path d="M209.7,440.2h643v-.4h-643v.4Z" class="g1_71"/>
<path d="M209.7,461.6h643v-.3h-643v.3Z" class="g1_71"/>
<path d="M70,483H852.7v-.4H70v.4Z" class="g1_71"/>
<path d="M70,521.2H852.7v-.4H70v.4Z" class="g1_71"/>
<path d="M70.1,896.7h.4V628.1h-.4V896.7Z" class="g1_71"/>
<path d="M209.8,897.1h.4V627.7h-.4V897.1Z" class="g1_71"/>
<path d="M246.5,897.1h.4V627.7h-.4V897.1Z" class="g1_71"/>
<path d="M288.5,897.1h.3V627.7h-.3V897.1Z" class="g1_71"/>
<path d="M327.8,897.1h.4V627.7h-.4V897.1Z" class="g1_71"/>
<path d="M363.4,897.1h.3V627.7h-.3V897.1Z" class="g1_71"/>
<path d="M851.2,896.7h.4V628.1h-.4V896.7Z" class="g1_71"/>
<path d="M70.1,628.1H851.6v-.4H70.1v.4Z" class="g1_71"/>
<path d="M70.1,738.1H851.6v-.4H70.1v.4Z" class="g1_71"/>
<path d="M209.8,759.6H851.6v-.4H209.8v.4Z" class="g1_71"/>
<path d="M209.8,837.5H851.6v-.4H209.8v.4Z" class="g1_71"/>
<path d="M70.1,858.8H851.6v-.3H70.1v.3Z" class="g1_71"/>
<path d="M70.1,897.1H851.6v-.4H70.1v.4Z" class="g1_71"/>
</svg>