<?xml version="1.0" encoding="UTF-8" standalone="no"?>
<!DOCTYPE svg PUBLIC "-//W3C//DTD SVG 1.1//EN"
"http://www.w3.org/Graphics/SVG/1.1/DTD/svg11.dtd">
<svg viewBox="0 0 935 1210" version="1.1" xmlns="http://www.w3.org/2000/svg" xmlns:xlink="http://www.w3.org/1999/xlink">
<defs>
<style type="text/css"><![CDATA[
.g0_965{
fill: #FFF;
}
.g1_965{
fill: #000;
}
]]></style>
</defs>
<path d="M68.9,1149.3H755.2v-21.2H68.9v21.2Z" class="g0_965"/>
<path d="M771.3,1149.3H855v-21.2H771.3v21.2Z" class="g0_965"/>
<path d="M70.3,931.1H852.8V901.4H70.3v29.7Z" class="g0_965"/>
<path d="M71.2,924.4h53.6V911.9H71.2v12.5Z" class="g0_965"/>
<path d="M69.9,901.1h.8V125.7h-.8V901.1Z" class="g1_965"/>
<path d="M383.4,901.8h.8V124.9h-.8V901.8Z" class="g1_965"/>
<path d="M421.3,901.8h.7V124.9h-.7V901.8Z" class="g1_965"/>
<path d="M494.7,901.8h.8V124.9h-.8V901.8Z" class="g1_965"/>
<path d="M574.1,901.8h.7V124.9h-.7V901.8Z" class="g1_965"/>
<path d="M852.4,901.1h.7V125.7h-.7V901.1Z" class="g1_965"/>
<path d="M69.9,125.7H853.1v-.8H69.9v.8Z" class="g1_965"/>
<path d="M69.9,179.1H853.1v-.7H69.9v.7Z" class="g1_965"/>
<path d="M69.9,223.4H853.1v-.7H69.9v.7Z" class="g1_965"/>
<path d="M69.9,267.8H853.1V267H69.9v.8Z" class="g1_965"/>
<path d="M69.9,312H853.1v-.7H69.9v.7Z" class="g1_965"/>
<path d="M69.9,356.3H853.1v-.7H69.9v.7Z" class="g1_965"/>
<path d="M69.9,400.7H853.1v-.8H69.9v.8Z" class="g1_965"/>
<path d="M69.9,444.9H853.1v-.7H69.9v.7Z" class="g1_965"/>
<path d="M69.9,501.5H853.1v-.7H69.9v.7Z" class="g1_965"/>
<path d="M69.9,545.8H853.1v-.7H69.9v.7Z" class="g1_965"/>
<path d="M69.9,602.3H853.1v-.7H69.9v.7Z" class="g1_965"/>
<path d="M69.9,658.9H853.1v-.7H69.9v.7Z" class="g1_965"/>
<path d="M69.9,715.4H853.1v-.8H69.9v.8Z" class="g1_965"/>
<path d="M69.9,771.9H853.1v-.7H69.9v.7Z" class="g1_965"/>
<path d="M69.9,828.5H853.1v-.8H69.9v.8Z" class="g1_965"/>
<path d="M69.9,901.8H853.1v-.7H69.9v.7Z" class="g1_965"/>
</svg>