<?xml version="1.0" encoding="UTF-8" standalone="no"?>
<!DOCTYPE svg PUBLIC "-//W3C//DTD SVG 1.1//EN"
"http://www.w3.org/Graphics/SVG/1.1/DTD/svg11.dtd">
<svg viewBox="0 0 935 1210" version="1.1" xmlns="http://www.w3.org/2000/svg" xmlns:xlink="http://www.w3.org/1999/xlink">
<defs>
<clipPath id="c0_2254"><path d="M766.6,59.2V41.4h72.2V59.2Z"/></clipPath>
<style type="text/css"><![CDATA[
.g0_2254{
fill: #000;
}
]]></style>
</defs>
<path d="M97.4,63.3H839.9v-.4H97.4v.4Z" class="g0_2254"/>
<path d="M96.1,1114.5h.2v-.4h-.2v.4Z" class="g0_2254"/>
<path d="M96.3,1114.5H838.9v-.4H96.3v.4Z" class="g0_2254"/>
<image clip-path="url(#c0_2254)" preserveAspectRatio="none" x="767" y="41" width="72" height="18" xlink:href="img/1.jpg"/>
<path d="M95.9,905.6h.7V814.7h-.7v90.9Z" class="g0_2254"/>
<path d="M259.9,906.4h.7V813.9h-.7v92.5Z" class="g0_2254"/>
<path d="M337.2,906.4h.8V813.9h-.8v92.5Z" class="g0_2254"/>
<path d="M839.1,905.6h.7V814.7h-.7v90.9Z" class="g0_2254"/>
<path d="M95.9,814.6h744v-.7H95.9v.7Z" class="g0_2254"/>
<path d="M95.9,838.8h744v-3.1H95.9v3.1Z" class="g0_2254"/>
<path d="M95.9,860.5h744v-.8H95.9v.8Z" class="g0_2254"/>
<path d="M95.9,883.4h744v-.7H95.9v.7Z" class="g0_2254"/>
<path d="M95.9,906.3h744v-.7H95.9v.7Z" class="g0_2254"/>
</svg>