<?xml version="1.0" encoding="UTF-8" standalone="no"?>
<!DOCTYPE svg PUBLIC "-//W3C//DTD SVG 1.1//EN"
"http://www.w3.org/Graphics/SVG/1.1/DTD/svg11.dtd">
<svg viewBox="0 0 935 1210" version="1.1" xmlns="http://www.w3.org/2000/svg" xmlns:xlink="http://www.w3.org/1999/xlink">
<defs>
<style type="text/css"><![CDATA[
.g0_142{
fill: none;
stroke: #000;
stroke-width: 0.608;
stroke-miterlimit: 10;
}
]]></style>
</defs>
<path d="M186,136.6H749m-562.7,21V136.9m85.6,20.7V136.9m134.9,20.7V136.9m341.9,20.7V136.9M186,157.9H749m-562.7,21V158.2m85.6,20.7V158.2m134.9,20.7V158.2m341.9,20.7V158.2M186.3,199.6V178.9m85.6,20.7V178.9m134.9,20.7V178.9m341.9,20.7V178.9M186.3,220.3V199.6m85.6,20.7V199.6m134.9,20.7V199.6m341.9,20.7V199.6M186.3,241V220.3M271.9,241V220.3M406.8,241V220.3M748.7,241V220.3M186,241.3H749m-562.7,21V241.6m85.6,20.7V241.6m134.9,20.7V241.6m341.9,20.7V241.6M186.3,283V262.3M271.9,283V262.3M406.8,283V262.3M748.7,283V262.3M186.3,303.7V283m85.6,20.7V283m134.9,20.7V283m341.9,20.7V283M186.3,324.4V303.7m85.6,20.7V303.7m134.9,20.7V303.7m341.9,20.7V303.7M186,324.7H749m-562.7,21V325m85.6,20.7V325m134.9,20.7V325m341.9,20.7V325M186.3,366.4V345.7m85.6,20.7V345.7m134.9,20.7V345.7m341.9,20.7V345.7M186.3,387.1V366.4m85.6,20.7V366.4m134.9,20.7V366.4m341.9,20.7V366.4M186.3,407.8V387.1m85.6,20.7V387.1m134.9,20.7V387.1m341.9,20.7V387.1M186,408.1H749M186.3,429.2V408.5m85.6,20.7V408.5m134.9,20.7V408.5m341.9,20.7V408.5M186.3,449.9V429.2m85.6,20.7V429.2m134.9,20.7V429.2m341.9,20.7V429.2M186.3,470.6V449.9m85.6,20.7V449.9m134.9,20.7V449.9m341.9,20.7V449.9M186,470.9H749m-562.7,21V471.2m85.6,20.7V471.2m134.9,20.7V471.2m341.9,20.7V471.2M186.3,512.6V491.9m85.6,20.7V491.9m134.9,20.7V491.9m341.9,20.7V491.9M186.3,533.3V512.6m85.6,20.7V512.6m134.9,20.7V512.6m341.9,20.7V512.6M186.3,554V533.3M271.9,554V533.3M406.8,554V533.3M748.7,554V533.3M186.3,574.7V554m85.6,20.7V554m134.9,20.7V554m341.9,20.7V554M186.3,595.4V574.7m85.6,20.7V574.7m134.9,20.7V574.7m341.9,20.7V574.7M186.3,616.1V595.4m85.6,20.7V595.4m134.9,20.7V595.4m341.9,20.7V595.4M186.3,636.8V616.1m85.6,20.7V616.1m134.9,20.7V616.1m341.9,20.7V616.1M186.3,657.5V636.8m85.6,20.7V636.8m134.9,20.7V636.8m341.9,20.7V636.8M186.3,678.2V657.5m85.6,20.7V657.5m134.9,20.7V657.5m341.9,20.7V657.5M186.3,698.9V678.2m85.6,20.7V678.2m134.9,20.7V678.2m341.9,20.7V678.2M186.3,719.6V698.9m85.6,20.7V698.9m134.9,20.7V698.9m341.9,20.7V698.9M186.3,740.3V719.6m85.6,20.7V719.6m134.9,20.7V719.6m341.9,20.7V719.6M186.3,761V740.3M271.9,761V740.3M406.8,761V740.3M748.7,761V740.3M186.3,781.7V761m85.6,20.7V761m134.9,20.7V761m341.9,20.7V761M186.3,802.4V781.7m85.6,20.7V781.7m134.9,20.7V781.7m341.9,20.7V781.7M186.3,823.1V802.4m85.6,20.7V802.4m134.9,20.7V802.4m341.9,20.7V802.4M186.3,843.8V823.1m85.6,20.7V823.1m134.9,20.7V823.1m341.9,20.7V823.1M186.3,864.5V843.8m85.6,20.7V843.8m134.9,20.7V843.8m341.9,20.7V843.8M186.3,885.2V864.5m85.6,20.7V864.5m134.9,20.7V864.5m341.9,20.7V864.5M186.3,905.9V885.2m85.6,20.7V885.2m134.9,20.7V885.2m341.9,20.7V885.2M186.3,926.6V905.9m85.6,20.7V905.9m134.9,20.7V905.9m341.9,20.7V905.9M186.3,947.3V926.6m85.6,20.7V926.6m134.9,20.7V926.6m341.9,20.7V926.6M186.3,968V947.3M271.9,968V947.3M406.8,968V947.3M748.7,968V947.3M186.3,988.7V968m85.6,20.7V968m134.9,20.7V968m341.9,20.7V968M186,989H749" class="g0_142"/>
</svg>