<?xml version="1.0" encoding="UTF-8" standalone="no"?>
<!DOCTYPE svg PUBLIC "-//W3C//DTD SVG 1.1//EN"
"http://www.w3.org/Graphics/SVG/1.1/DTD/svg11.dtd">
<svg viewBox="0 0 935 1210" version="1.1" xmlns="http://www.w3.org/2000/svg" xmlns:xlink="http://www.w3.org/1999/xlink">
<defs>
<style type="text/css"><![CDATA[
.g0_2396{
fill: #FFF;
}
.g1_2396{
fill: #000;
}
]]></style>
</defs>
<path d="M68.8,1149.3H852.5v-21.2H68.8v21.2Z" class="g0_2396"/>
<path d="M68.9,520H850.4V490.4H68.9V520Z" class="g0_2396"/>
<path d="M69.9,513.3h53.5V501H69.9v12.3Z" class="g0_2396"/>
<path d="M68.6,490.1h.7v-366h-.7v366Z" class="g1_2396"/>
<path d="M467,246.4h.7v-123H467v123Z" class="g1_2396"/>
<path d="M467,490.8h.7V270.1H467V490.8Z" class="g1_2396"/>
<path d="M850,490.1h.8v-366H850v366Z" class="g1_2396"/>
<path d="M68.6,124.1H850.8v-.7H68.6v.7Z" class="g1_2396"/>
<path d="M68.6,148.6H850.8v-.7H68.6v.7Z" class="g1_2396"/>
<path d="M68.6,173H850.8v-.8H68.6v.8Z" class="g1_2396"/>
<path d="M68.6,197.4H850.8v-.7H68.6v.7Z" class="g1_2396"/>
<path d="M68.6,221.9H850.8v-.7H68.6v.7Z" class="g1_2396"/>
<path d="M68.6,246.3H850.8v-.7H68.6v.7Z" class="g1_2396"/>
<path d="M68.6,270.8H850.8v-.7H68.6v.7Z" class="g1_2396"/>
<path d="M68.6,295.3H850.8v-.8H68.6v.8Z" class="g1_2396"/>
<path d="M68.6,319.6H850.8v-.7H68.6v.7Z" class="g1_2396"/>
<path d="M68.6,344.1H850.8v-.7H68.6v.7Z" class="g1_2396"/>
<path d="M68.6,368.6H850.8v-.7H68.6v.7Z" class="g1_2396"/>
<path d="M68.6,393H850.8v-.8H68.6v.8Z" class="g1_2396"/>
<path d="M68.6,417.4H850.8v-.7H68.6v.7Z" class="g1_2396"/>
<path d="M68.6,441.9H850.8v-.7H68.6v.7Z" class="g1_2396"/>
<path d="M68.6,466.4H850.8v-.7H68.6v.7Z" class="g1_2396"/>
<path d="M68.6,490.8H850.8v-.7H68.6v.7Z" class="g1_2396"/>
<path d="M70.1,712.2h.8V639.6h-.8v72.6Z" class="g1_2396"/>
<path d="M167.7,712.9h.7V638.8h-.7v74.1Z" class="g1_2396"/>
<path d="M850.3,712.2h.7V639.6h-.7v72.6Z" class="g1_2396"/>
<path d="M70.1,639.6H851v-.8H70.1v.8Z" class="g1_2396"/>
<path d="M70.1,664H851v-.7H70.1v.7Z" class="g1_2396"/>
<path d="M70.1,688.5H851v-.7H70.1v.7Z" class="g1_2396"/>
<path d="M70.1,712.9H851v-.7H70.1v.7Z" class="g1_2396"/>
<path d="M68.6,1086.5h.7v-317h-.7v317Z" class="g1_2396"/>
<path d="M467.6,793.9h.7V768.7h-.7v25.2Z" class="g1_2396"/>
<path d="M467.6,1087.3h.7V817.6h-.7v269.7Z" class="g1_2396"/>
<path d="M851.1,1086.5h.8v-317h-.8v317Z" class="g1_2396"/>
<path d="M68.6,769.5H852v-.8H68.6v.8Z" class="g1_2396"/>
<path d="M68.6,793.9H852v-.7H68.6v.7Z" class="g1_2396"/>
<path d="M68.6,818.3H852v-.7H68.6v.7Z" class="g1_2396"/>
<path d="M68.6,842.8H852V842H68.6v.8Z" class="g1_2396"/>
<path d="M68.6,867.3H852v-.8H68.6v.8Z" class="g1_2396"/>
<path d="M68.6,891.6H852v-.7H68.6v.7Z" class="g1_2396"/>
<path d="M68.6,916.1H852v-.7H68.6v.7Z" class="g1_2396"/>
<path d="M68.6,940.6H852v-.7H68.6v.7Z" class="g1_2396"/>
<path d="M68.6,965H852v-.8H68.6v.8Z" class="g1_2396"/>
<path d="M68.6,989.5H852v-.8H68.6v.8Z" class="g1_2396"/>
<path d="M68.6,1013.9H852v-.7H68.6v.7Z" class="g1_2396"/>
<path d="M68.6,1038.3H852v-.7H68.6v.7Z" class="g1_2396"/>
<path d="M68.6,1062.8H852v-.8H68.6v.8Z" class="g1_2396"/>
<path d="M68.6,1087.3H852v-.8H68.6v.8Z" class="g1_2396"/>
</svg>