<?xml version="1.0" encoding="UTF-8" standalone="no"?>
<!DOCTYPE svg PUBLIC "-//W3C//DTD SVG 1.1//EN"
"http://www.w3.org/Graphics/SVG/1.1/DTD/svg11.dtd">
<svg viewBox="0 0 935 1210" version="1.1" xmlns="http://www.w3.org/2000/svg" xmlns:xlink="http://www.w3.org/1999/xlink">
<defs>
<style type="text/css"><![CDATA[
.g0_4788{
fill: #FFF;
}
.g1_4788{
fill: #000;
}
]]></style>
</defs>
<path d="M68.8,1149.3H852.5v-21.2H68.8v21.2Z" class="g0_4788"/>
<path d="M68.9,905H851.1V875.4H68.9V905Z" class="g0_4788"/>
<path d="M69.9,898.3h53.5V886H69.9v12.3Z" class="g0_4788"/>
<path d="M68.6,875h.7V124.1h-.7V875Z" class="g1_4788"/>
<path d="M125.3,875.9h.7V164.6h-.7V875.9Z" class="g1_4788"/>
<path d="M182.1,875.9h.7V123.4h-.7V875.9Z" class="g1_4788"/>
<path d="M430.9,875.9h.8V123.4h-.8V875.9Z" class="g1_4788"/>
<path d="M524.3,875.9h.8V123.4h-.8V875.9Z" class="g1_4788"/>
<path d="M850.8,875h.7V124.1h-.7V875Z" class="g1_4788"/>
<path d="M68.6,124.1H851.5v-.7H68.6v.7Z" class="g1_4788"/>
<path d="M68.6,165.4H182.8v-.8H68.6v.8Z" class="g1_4788"/>
<path d="M68.6,189.8H851.5v-.7H68.6v.7Z" class="g1_4788"/>
<path d="M182.1,214.2H851.5v-.7H182.1v.7Z" class="g1_4788"/>
<path d="M182.1,238.7H851.5V238H182.1v.7Z" class="g1_4788"/>
<path d="M182.1,263.2H851.5v-.8H182.1v.8Z" class="g1_4788"/>
<path d="M182.1,287.6H851.5v-.8H182.1v.8Z" class="g1_4788"/>
<path d="M182.1,312H851.5v-.7H182.1v.7Z" class="g1_4788"/>
<path d="M68.6,336.5H851.5v-.7H68.6v.7Z" class="g1_4788"/>
<path d="M182.1,360.9H851.5v-.7H182.1v.7Z" class="g1_4788"/>
<path d="M182.1,385.4H851.5v-.8H182.1v.8Z" class="g1_4788"/>
<path d="M182.1,409.8H851.5v-.7H182.1v.7Z" class="g1_4788"/>
<path d="M182.1,434.3H851.5v-.7H182.1v.7Z" class="g1_4788"/>
<path d="M182.1,458.7H851.5V458H182.1v.7Z" class="g1_4788"/>
<path d="M182.1,483.2H851.5v-.8H182.1v.8Z" class="g1_4788"/>
<path d="M182.1,507.7H851.5v-.8H182.1v.8Z" class="g1_4788"/>
<path d="M68.6,532H851.5v-.7H68.6v.7Z" class="g1_4788"/>
<path d="M182.1,556.5H851.5v-.7H182.1v.7Z" class="g1_4788"/>
<path d="M182.1,581H851.5v-.8H182.1v.8Z" class="g1_4788"/>
<path d="M68.6,605.4H851.5v-.8H68.6v.8Z" class="g1_4788"/>
<path d="M182.1,718.5H851.5v-.8H182.1v.8Z" class="g1_4788"/>
<path d="M182.1,742.9H851.5v-.8H182.1v.8Z" class="g1_4788"/>
<path d="M182.1,805.6H851.5v-.8H182.1v.8Z" class="g1_4788"/>
<path d="M182.1,830H851.5v-.8H182.1v.8Z" class="g1_4788"/>
<path d="M68.6,875.8H851.5v-.7H68.6v.7Z" class="g1_4788"/>
</svg>