<?xml version="1.0" encoding="UTF-8" standalone="no"?>
<!DOCTYPE svg PUBLIC "-//W3C//DTD SVG 1.1//EN"
"http://www.w3.org/Graphics/SVG/1.1/DTD/svg11.dtd">
<svg viewBox="0 0 935 1210" version="1.1" xmlns="http://www.w3.org/2000/svg" xmlns:xlink="http://www.w3.org/1999/xlink">
<defs>
<style type="text/css"><![CDATA[
.g0_4722{
fill: #FFF;
}
.g1_4722{
fill: #000;
}
]]></style>
</defs>
<path d="M68.8,1149.3H852.5v-21.2H68.8v21.2Z" class="g0_4722"/>
<path d="M68.6,1090.5h.7V142.4h-.7v948.1Z" class="g1_4722"/>
<path d="M125.3,1091.3h.7V183h-.7v908.3Z" class="g1_4722"/>
<path d="M182.1,1091.3h.7V141.7h-.7v949.6Z" class="g1_4722"/>
<path d="M440.3,1091.3h.7V141.7h-.7v949.6Z" class="g1_4722"/>
<path d="M533.7,1091.3h.7V141.7h-.7v949.6Z" class="g1_4722"/>
<path d="M851.7,1090.5h.7V142.4h-.7v948.1Z" class="g1_4722"/>
<path d="M68.6,142.4H852.5v-.7H68.6v.7Z" class="g1_4722"/>
<path d="M68.6,183.7H182.8V183H68.6v.7Z" class="g1_4722"/>
<path d="M68.6,208.2H852.5v-.8H68.6v.8Z" class="g1_4722"/>
<path d="M182.1,232.6H852.5v-.8H182.1v.8Z" class="g1_4722"/>
<path d="M182.1,257H852.5v-.7H182.1v.7Z" class="g1_4722"/>
<path d="M182.1,281.5H852.5v-.7H182.1v.7Z" class="g1_4722"/>
<path d="M182.1,305.9H852.5v-.7H182.1v.7Z" class="g1_4722"/>
<path d="M182.1,330.4H852.5v-.8H182.1v.8Z" class="g1_4722"/>
<path d="M182.1,354.8H852.5v-.7H182.1v.7Z" class="g1_4722"/>
<path d="M182.1,379.2H852.5v-.7H182.1v.7Z" class="g1_4722"/>
<path d="M182.1,403.7H852.5V403H182.1v.7Z" class="g1_4722"/>
<path d="M182.1,428.2H852.5v-.8H182.1v.8Z" class="g1_4722"/>
<path d="M182.1,452.7H852.5v-.8H182.1v.8Z" class="g1_4722"/>
<path d="M68.6,477H852.5v-.7H68.6v.7Z" class="g1_4722"/>
<path d="M182.1,501.5H852.5v-.7H182.1v.7Z" class="g1_4722"/>
<path d="M182.1,526H852.5v-.8H182.1v.8Z" class="g1_4722"/>
<path d="M182.1,550.4H852.5v-.8H182.1v.8Z" class="g1_4722"/>
<path d="M182.1,574.8H852.5v-.7H182.1v.7Z" class="g1_4722"/>
<path d="M182.1,599.3H852.5v-.7H182.1v.7Z" class="g1_4722"/>
<path d="M68.6,623.7H852.5V623H68.6v.7Z" class="g1_4722"/>
<path d="M182.1,648.2H852.5v-.8H182.1v.8Z" class="g1_4722"/>
<path d="M182.1,672.7H852.5v-.8H182.1v.8Z" class="g1_4722"/>
<path d="M182.1,697H852.5v-.7H182.1v.7Z" class="g1_4722"/>
<path d="M182.1,721.5H852.5v-.7H182.1v.7Z" class="g1_4722"/>
<path d="M182.1,746H852.5v-.8H182.1v.8Z" class="g1_4722"/>
<path d="M68.6,770.4H852.5v-.8H68.6v.8Z" class="g1_4722"/>
<path d="M182.1,794.8H852.5v-.7H182.1v.7Z" class="g1_4722"/>
<path d="M182.1,819.3H852.5v-.7H182.1v.7Z" class="g1_4722"/>
<path d="M68.6,843.7H852.5V843H68.6v.7Z" class="g1_4722"/>
<path d="M182.1,889.5H852.5v-.7H182.1v.7Z" class="g1_4722"/>
<path d="M182.1,947.7H852.5v-.8H182.1v.8Z" class="g1_4722"/>
<path d="M68.6,972H852.5v-.7H68.6v.7Z" class="g1_4722"/>
<path d="M68.6,996.5H852.5v-.7H68.6v.7Z" class="g1_4722"/>
<path d="M68.6,1042.3H852.5v-.7H68.6v.7Z" class="g1_4722"/>
<path d="M68.6,1066.8H852.5v-.7H68.6v.7Z" class="g1_4722"/>
<path d="M68.6,1091.2H852.5v-.7H68.6v.7Z" class="g1_4722"/>
</svg>