<?xml version="1.0" encoding="UTF-8" standalone="no"?>
<!DOCTYPE svg PUBLIC "-//W3C//DTD SVG 1.1//EN"
"http://www.w3.org/Graphics/SVG/1.1/DTD/svg11.dtd">
<svg viewBox="0 0 935 1210" version="1.1" xmlns="http://www.w3.org/2000/svg" xmlns:xlink="http://www.w3.org/1999/xlink">
<defs>
<style type="text/css"><![CDATA[
.g0_2879{
fill: #FFF;
}
.g1_2879{
fill: #000;
}
]]></style>
</defs>
<path d="M68.9,1149.3H852.7v-21.2H68.9v21.2Z" class="g0_2879"/>
<path d="M69.9,1052.3h.8V124.1h-.8v928.2Z" class="g1_2879"/>
<path d="M468.3,148.6h.8V123.4h-.8v25.2Z" class="g1_2879"/>
<path d="M468.3,319.7h.8V172.2h-.8V319.7Z" class="g1_2879"/>
<path d="M468.3,564.1h.8V343.4h-.8V564.1Z" class="g1_2879"/>
<path d="M468.3,735.3h.8V587.9h-.8V735.3Z" class="g1_2879"/>
<path d="M468.3,955.3h.8V758.9h-.8V955.3Z" class="g1_2879"/>
<path d="M468.3,1053.1h.8V979h-.8v74.1Z" class="g1_2879"/>
<path d="M851.4,1052.3h.7V124.1h-.7v928.2Z" class="g1_2879"/>
<path d="M69.9,124.1H852.1v-.7H69.9v.7Z" class="g1_2879"/>
<path d="M69.9,148.6H852.1v-.7H69.9v.7Z" class="g1_2879"/>
<path d="M69.9,173H852.1v-.8H69.9v.8Z" class="g1_2879"/>
<path d="M69.9,197.4H852.1v-.7H69.9v.7Z" class="g1_2879"/>
<path d="M69.9,221.9H852.1v-.7H69.9v.7Z" class="g1_2879"/>
<path d="M69.9,246.3H852.1v-.7H69.9v.7Z" class="g1_2879"/>
<path d="M69.9,270.8H852.1v-.7H69.9v.7Z" class="g1_2879"/>
<path d="M69.9,295.3H852.1v-.8H69.9v.8Z" class="g1_2879"/>
<path d="M69.9,319.6H852.1v-.7H69.9v.7Z" class="g1_2879"/>
<path d="M69.9,344.1H852.1v-.7H69.9v.7Z" class="g1_2879"/>
<path d="M69.9,368.6H852.1v-.7H69.9v.7Z" class="g1_2879"/>
<path d="M69.9,393H852.1v-.8H69.9v.8Z" class="g1_2879"/>
<path d="M69.9,417.4H852.1v-.7H69.9v.7Z" class="g1_2879"/>
<path d="M69.9,441.9H852.1v-.7H69.9v.7Z" class="g1_2879"/>
<path d="M69.9,466.4H852.1v-.7H69.9v.7Z" class="g1_2879"/>
<path d="M69.9,490.8H852.1v-.7H69.9v.7Z" class="g1_2879"/>
<path d="M69.9,515.3H852.1v-.8H69.9v.8Z" class="g1_2879"/>
<path d="M69.9,539.7H852.1V539H69.9v.7Z" class="g1_2879"/>
<path d="M69.9,564.1H852.1v-.7H69.9v.7Z" class="g1_2879"/>
<path d="M69.9,588.6H852.1v-.7H69.9v.7Z" class="g1_2879"/>
<path d="M69.9,613.1H852.1v-.8H69.9v.8Z" class="g1_2879"/>
<path d="M69.9,637.4H852.1v-.7H69.9v.7Z" class="g1_2879"/>
<path d="M69.9,661.9H852.1v-.7H69.9v.7Z" class="g1_2879"/>
<path d="M69.9,686.4H852.1v-.7H69.9v.7Z" class="g1_2879"/>
<path d="M69.9,710.8H852.1v-.7H69.9v.7Z" class="g1_2879"/>
<path d="M69.9,735.3H852.1v-.8H69.9v.8Z" class="g1_2879"/>
<path d="M69.9,759.7H852.1V759H69.9v.7Z" class="g1_2879"/>
<path d="M69.9,784.1H852.1v-.7H69.9v.7Z" class="g1_2879"/>
<path d="M69.9,808.6H852.1v-.7H69.9v.7Z" class="g1_2879"/>
<path d="M69.9,833.1H852.1v-.8H69.9v.8Z" class="g1_2879"/>
<path d="M69.9,857.5H852.1v-.8H69.9v.8Z" class="g1_2879"/>
<path d="M69.9,881.9H852.1v-.7H69.9v.7Z" class="g1_2879"/>
<path d="M69.9,906.4H852.1v-.7H69.9v.7Z" class="g1_2879"/>
<path d="M69.9,930.8H852.1v-.7H69.9v.7Z" class="g1_2879"/>
<path d="M69.9,955.3H852.1v-.8H69.9v.8Z" class="g1_2879"/>
<path d="M69.9,979.7H852.1V979H69.9v.7Z" class="g1_2879"/>
<path d="M69.9,1004.1H852.1v-.7H69.9v.7Z" class="g1_2879"/>
<path d="M69.9,1028.6H852.1v-.7H69.9v.7Z" class="g1_2879"/>
<path d="M69.9,1053.1H852.1v-.8H69.9v.8Z" class="g1_2879"/>
</svg>