<?xml version="1.0" encoding="UTF-8" standalone="no"?>
<!DOCTYPE svg PUBLIC "-//W3C//DTD SVG 1.1//EN"
"http://www.w3.org/Graphics/SVG/1.1/DTD/svg11.dtd">
<svg viewBox="0 0 935 1210" version="1.1" xmlns="http://www.w3.org/2000/svg" xmlns:xlink="http://www.w3.org/1999/xlink">
<defs>
<clipPath id="c0_1313"><path d="M97.3,59.2V41.4h72.1V59.2Z"/></clipPath>
<style type="text/css"><![CDATA[
.g0_1313{
fill: #000;
}
.g1_1313{
fill: #231F20;
}
.g2_1313{
fill: none;
stroke: #231F20;
stroke-width: 0.763;
}
.g3_1313{
fill: #FFF;
}
]]></style>
</defs>
<path d="M96.2,62.9v.3H838.7v-.3H96.2Z" class="g0_1313"/>
<path d="M96.2,1114.1h-.1v.4h.1v-.4Z" class="g0_1313"/>
<path d="M838.7,1114.1h.2v.4h-.2v-.4Z" class="g0_1313"/>
<path d="M96.2,1114.1v.4H838.7v-.4H96.2Z" class="g0_1313"/>
<image clip-path="url(#c0_1313)" preserveAspectRatio="none" x="97" y="41" width="72" height="18" xlink:href="img/1.jpg"/>
<path d="M636.1,386H801.9V355H636.1v31Z" class="g1_1313"/>
<path d="M636.1,386H801.9V355H636.1v31Z" class="g2_1313"/>
<path d="M635.9,386h5.5V355h-5.5v31Z" class="g1_1313"/>
<path d="M635.9,386h5.5V355h-5.5v31Z" class="g2_1313"/>
<path d="M641.6,386h41.5V355H641.6v31Z" class="g1_1313"/>
<path d="M641.6,386h41.5V355H641.6v31Z" class="g2_1313"/>
<path d="M470.3,386H636.1V355H470.3v31Z" class="g1_1313"/>
<path d="M470.3,386H636.1V355H470.3v31Z" class="g2_1313"/>
<path d="M470.1,386h5.6V355h-5.6v31Z" class="g1_1313"/>
<path d="M470.1,386h5.6V355h-5.6v31Z" class="g2_1313"/>
<path d="M475.9,386h41.4V355H475.9v31Z" class="g1_1313"/>
<path d="M475.9,386h41.4V355H475.9v31Z" class="g2_1313"/>
<path d="M304.5,386H470.3V355H304.5v31Z" class="g1_1313"/>
<path d="M304.5,386H470.3V355H304.5v31Z" class="g2_1313"/>
<path d="M304.4,386h5.5V355h-5.5v31Z" class="g1_1313"/>
<path d="M304.4,386h5.5V355h-5.5v31Z" class="g2_1313"/>
<path d="M310.1,386h41.4V355H310.1v31Z" class="g1_1313"/>
<path d="M310.1,386h41.4V355H310.1v31Z" class="g2_1313"/>
<path d="M138.8,386H304.6V355H138.8v31Z" class="g1_1313"/>
<path d="M138.8,386H304.6V355H138.8v31Z" class="g2_1313"/>
<path d="M138.6,386h5.5V355h-5.5v31Z" class="g1_1313"/>
<path d="M138.6,386h5.5V355h-5.5v31Z" class="g2_1313"/>
<path d="M144.3,386h41.5V355H144.3v31Z" class="g1_1313"/>
<path d="M144.3,386h41.5V355H144.3v31Z" class="g2_1313"/>
<path d="M470.3,354.6H801.9v-31H470.3v31Z" class="g1_1313"/>
<path d="M470.3,354.6H801.9v-31H470.3v31Z" class="g2_1313"/>
<path d="M470.1,354.6h5.6v-31h-5.6v31Z" class="g1_1313"/>
<path d="M470.1,354.6h5.6v-31h-5.6v31Z" class="g2_1313"/>
<path d="M475.6,354.6h47.9v-31H475.6v31Z" class="g1_1313"/>
<path d="M475.6,354.6h47.9v-31H475.6v31Z" class="g2_1313"/>
<path d="M138.8,354.6H470.3v-31H138.8v31Z" class="g1_1313"/>
<path d="M138.8,354.6H470.3v-31H138.8v31Z" class="g2_1313"/>
<path d="M138.6,354.6h5.5v-31h-5.5v31Z" class="g1_1313"/>
<path d="M138.6,354.6h5.5v-31h-5.5v31Z" class="g2_1313"/>
<path d="M144.1,354.6H192v-31H144.1v31Z" class="g1_1313"/>
<path d="M144.1,354.6H192v-31H144.1v31Z" class="g2_1313"/>
<path d="M633.9,383.8H799.7v-31H633.9v31Z" class="g3_1313"/>
<path d="M633.9,383.8H799.7v-31H633.9v31Z" class="g2_1313"/>
<path d="M633.7,383.8h5.5v-31h-5.5v31Z" class="g3_1313"/>
<path d="M633.7,383.8h5.5v-31h-5.5v31Z" class="g2_1313"/>
<path d="M639.4,383.8h41.5v-31H639.4v31Z" class="g3_1313"/>
<path d="M639.4,383.8h41.5v-31H639.4v31Z" class="g2_1313"/>
<path d="M468.1,383.8H633.9v-31H468.1v31Z" class="g3_1313"/>
<path d="M468.1,383.8H633.9v-31H468.1v31Z" class="g2_1313"/>
<path d="M467.9,383.8h5.6v-31h-5.6v31Z" class="g3_1313"/>
<path d="M467.9,383.8h5.6v-31h-5.6v31Z" class="g2_1313"/>
<path d="M473.7,383.8h41.4v-31H473.7v31Z" class="g3_1313"/>
<path d="M473.7,383.8h41.4v-31H473.7v31Z" class="g2_1313"/>
<path d="M302.3,383.8H468.1v-31H302.3v31Z" class="g3_1313"/>
<path d="M302.3,383.8H468.1v-31H302.3v31Z" class="g2_1313"/>
<path d="M302.2,383.8h5.5v-31h-5.5v31Z" class="g3_1313"/>
<path d="M302.2,383.8h5.5v-31h-5.5v31Z" class="g2_1313"/>
<path d="M307.9,383.8h41.4v-31H307.9v31Z" class="g3_1313"/>
<path d="M307.9,383.8h41.4v-31H307.9v31Z" class="g2_1313"/>
<path d="M136.6,383.8H302.4v-31H136.6v31Z" class="g3_1313"/>
<path d="M136.6,383.8H302.4v-31H136.6v31Z" class="g2_1313"/>
<path d="M136.4,383.8h5.5v-31h-5.5v31Z" class="g3_1313"/>
<path d="M136.4,383.8h5.5v-31h-5.5v31Z" class="g2_1313"/>
<path d="M142.1,383.8h41.5v-31H142.1v31Z" class="g3_1313"/>
<path d="M142.1,383.8h41.5v-31H142.1v31Z" class="g2_1313"/>
<path d="M468.1,352.4H799.7v-31H468.1v31Z" class="g3_1313"/>
<path d="M468.1,352.4H799.7v-31H468.1v31Z" class="g2_1313"/>
<path d="M467.9,352.4h5.6v-31h-5.6v31Z" class="g3_1313"/>
<path d="M467.9,352.4h5.6v-31h-5.6v31Z" class="g2_1313"/>
<path d="M473.4,352.4h47.9v-31H473.4v31Z" class="g3_1313"/>
<path d="M473.4,352.4h47.9v-31H473.4v31Z" class="g2_1313"/>
<path d="M136.6,352.4H468.1v-31H136.6v31Z" class="g3_1313"/>
<path d="M136.6,352.4H468.1v-31H136.6v31Z" class="g2_1313"/>
<path d="M136.4,352.4h5.5v-31h-5.5v31Z" class="g3_1313"/>
<path d="M136.4,352.4h5.5v-31h-5.5v31Z" class="g2_1313"/>
<path d="M141.9,352.4h47.9v-31H141.9v31Z" class="g3_1313"/>
<path d="M141.9,352.4h47.9v-31H141.9v31Z" class="g2_1313"/>
<path d="M636.1,278.1H801.9v-31H636.1v31Z" class="g1_1313"/>
<path d="M636.1,278.1H801.9v-31H636.1v31Z" class="g2_1313"/>
<path d="M635.9,278.1h5.5v-31h-5.5v31Z" class="g1_1313"/>
<path d="M635.9,278.1h5.5v-31h-5.5v31Z" class="g2_1313"/>
<path d="M641.6,278.1h41.5v-31H641.6v31Z" class="g1_1313"/>
<path d="M641.6,278.1h41.5v-31H641.6v31Z" class="g2_1313"/>
<path d="M470.3,278.1H636.1v-31H470.3v31Z" class="g1_1313"/>
<path d="M470.3,278.1H636.1v-31H470.3v31Z" class="g2_1313"/>
<path d="M470.1,278.1h5.6v-31h-5.6v31Z" class="g1_1313"/>
<path d="M470.1,278.1h5.6v-31h-5.6v31Z" class="g2_1313"/>
<path d="M475.9,278.1h41.4v-31H475.9v31Z" class="g1_1313"/>
<path d="M475.9,278.1h41.4v-31H475.9v31Z" class="g2_1313"/>
<path d="M304.5,278.1H470.3v-31H304.5v31Z" class="g1_1313"/>
<path d="M304.5,278.1H470.3v-31H304.5v31Z" class="g2_1313"/>
<path d="M304.4,278.1h5.5v-31h-5.5v31Z" class="g1_1313"/>
<path d="M304.4,278.1h5.5v-31h-5.5v31Z" class="g2_1313"/>
<path d="M310.1,278.1h41.4v-31H310.1v31Z" class="g1_1313"/>
<path d="M310.1,278.1h41.4v-31H310.1v31Z" class="g2_1313"/>
<path d="M138.8,278.1H304.6v-31H138.8v31Z" class="g1_1313"/>
<path d="M138.8,278.1H304.6v-31H138.8v31Z" class="g2_1313"/>
<path d="M138.6,278.1h5.5v-31h-5.5v31Z" class="g1_1313"/>
<path d="M138.6,278.1h5.5v-31h-5.5v31Z" class="g2_1313"/>
<path d="M144.3,278.1h41.5v-31H144.3v31Z" class="g1_1313"/>
<path d="M144.3,278.1h41.5v-31H144.3v31Z" class="g2_1313"/>
<path d="M470.3,246.7H801.9v-31H470.3v31Z" class="g1_1313"/>
<path d="M470.3,246.7H801.9v-31H470.3v31Z" class="g2_1313"/>
<path d="M470.1,246.7h5.6v-31h-5.6v31Z" class="g1_1313"/>
<path d="M470.1,246.7h5.6v-31h-5.6v31Z" class="g2_1313"/>
<path d="M475.6,246.7h47.9v-31H475.6v31Z" class="g1_1313"/>
<path d="M475.6,246.7h47.9v-31H475.6v31Z" class="g2_1313"/>
<path d="M138.8,246.7H470.3v-31H138.8v31Z" class="g1_1313"/>
<path d="M138.8,246.7H470.3v-31H138.8v31Z" class="g2_1313"/>
<path d="M138.6,246.7h5.5v-31h-5.5v31Z" class="g1_1313"/>
<path d="M138.6,246.7h5.5v-31h-5.5v31Z" class="g2_1313"/>
<path d="M144.1,246.7H192v-31H144.1v31Z" class="g1_1313"/>
<path d="M144.1,246.7H192v-31H144.1v31Z" class="g2_1313"/>
<path d="M633.9,275.9H799.7v-31H633.9v31Z" class="g3_1313"/>
<path d="M633.9,275.9H799.7v-31H633.9v31Z" class="g2_1313"/>
<path d="M633.7,275.9h5.5v-31h-5.5v31Z" class="g3_1313"/>
<path d="M633.7,275.9h5.5v-31h-5.5v31Z" class="g2_1313"/>
<path d="M639.4,275.9h41.5v-31H639.4v31Z" class="g3_1313"/>
<path d="M639.4,275.9h41.5v-31H639.4v31Z" class="g2_1313"/>
<path d="M468.1,275.9H633.9v-31H468.1v31Z" class="g3_1313"/>
<path d="M468.1,275.9H633.9v-31H468.1v31Z" class="g2_1313"/>
<path d="M467.9,275.9h5.6v-31h-5.6v31Z" class="g3_1313"/>
<path d="M467.9,275.9h5.6v-31h-5.6v31Z" class="g2_1313"/>
<path d="M473.7,275.9h41.4v-31H473.7v31Z" class="g3_1313"/>
<path d="M473.7,275.9h41.4v-31H473.7v31Z" class="g2_1313"/>
<path d="M302.3,275.9H468.1v-31H302.3v31Z" class="g3_1313"/>
<path d="M302.3,275.9H468.1v-31H302.3v31Z" class="g2_1313"/>
<path d="M302.2,275.9h5.5v-31h-5.5v31Z" class="g3_1313"/>
<path d="M302.2,275.9h5.5v-31h-5.5v31Z" class="g2_1313"/>
<path d="M307.9,275.9h41.4v-31H307.9v31Z" class="g3_1313"/>
<path d="M307.9,275.9h41.4v-31H307.9v31Z" class="g2_1313"/>
<path d="M136.6,275.9H302.4v-31H136.6v31Z" class="g3_1313"/>
<path d="M136.6,275.9H302.4v-31H136.6v31Z" class="g2_1313"/>
<path d="M136.4,275.9h5.5v-31h-5.5v31Z" class="g3_1313"/>
<path d="M136.4,275.9h5.5v-31h-5.5v31Z" class="g2_1313"/>
<path d="M142.1,275.9h41.5v-31H142.1v31Z" class="g3_1313"/>
<path d="M142.1,275.9h41.5v-31H142.1v31Z" class="g2_1313"/>
<path d="M468.1,244.5H799.7v-31H468.1v31Z" class="g3_1313"/>
<path d="M468.1,244.5H799.7v-31H468.1v31Z" class="g2_1313"/>
<path d="M467.9,244.5h5.6V213.4h-5.6v31.1Z" class="g3_1313"/>
<path d="M467.9,244.5h5.6V213.4h-5.6v31.1Z" class="g2_1313"/>
<path d="M473.4,244.5h47.9v-31H473.4v31Z" class="g3_1313"/>
<path d="M473.4,244.5h47.9v-31H473.4v31Z" class="g2_1313"/>
<path d="M136.6,244.5H468.1v-31H136.6v31Z" class="g3_1313"/>
<path d="M136.6,244.5H468.1v-31H136.6v31Z" class="g2_1313"/>
<path d="M136.4,244.5h5.5V213.4h-5.5v31.1Z" class="g3_1313"/>
<path d="M136.4,244.5h5.5V213.4h-5.5v31.1Z" class="g2_1313"/>
<path d="M141.9,244.5h47.9v-31H141.9v31Z" class="g3_1313"/>
<path d="M141.9,244.5h47.9v-31H141.9v31Z" class="g2_1313"/>
<path d="M470.1,711.8H801.7V680.7H470.1v31.1Z" class="g1_1313"/>
<path d="M470.1,711.8H801.7V680.7H470.1v31.1Z" class="g2_1313"/>
<path d="M136.2,709.6H799.5V678.5H136.2v31.1Z" class="g3_1313"/>
<path d="M136.2,709.6H799.5V678.5H136.2v31.1Z" class="g2_1313"/>
<path d="M470,743.1h5.5V712H470v31.1Z" class="g1_1313"/>
<path d="M470,743.1h5.5V712H470v31.1Z" class="g2_1313"/>
<path d="M470.1,743.1H801.7v-31H470.1v31Z" class="g1_1313"/>
<path d="M470.1,743.1H801.7v-31H470.1v31Z" class="g2_1313"/>
<path d="M467.9,740.9H799.5v-31H467.9v31Z" class="g3_1313"/>
<path d="M467.9,740.9H799.5v-31H467.9v31Z" class="g2_1313"/>
<path d="M470.1,551.3H801.7v-31H470.1v31Z" class="g1_1313"/>
<path d="M470.1,551.3H801.7v-31H470.1v31Z" class="g2_1313"/>
<path d="M470.1,520H801.7V489H470.1v31Z" class="g1_1313"/>
<path d="M470.1,520H801.7V489H470.1v31Z" class="g2_1313"/>
<path d="M718.8,613.2h82.9v-31H718.8v31Z" class="g1_1313"/>
<path d="M718.8,613.2h82.9v-31H718.8v31Z" class="g2_1313"/>
<path d="M718.9,613.2h5.5v-31h-5.5v31Z" class="g1_1313"/>
<path d="M718.9,613.2h5.5v-31h-5.5v31Z" class="g2_1313"/>
<path d="M635.9,613.2h82.9v-31H635.9v31Z" class="g1_1313"/>
<path d="M635.9,613.2h82.9v-31H635.9v31Z" class="g2_1313"/>
<path d="M636,613.2h5.5v-31H636v31Z" class="g1_1313"/>
<path d="M636,613.2h5.5v-31H636v31Z" class="g2_1313"/>
<path d="M553,613.2h82.9v-31H553v31Z" class="g1_1313"/>
<path d="M553,613.2h82.9v-31H553v31Z" class="g2_1313"/>
<path d="M553.1,613.2h5.5v-31h-5.5v31Z" class="g1_1313"/>
<path d="M553.1,613.2h5.5v-31h-5.5v31Z" class="g2_1313"/>
<path d="M470.2,613.2H553v-31H470.2v31Z" class="g1_1313"/>
<path d="M470.2,613.2H553v-31H470.2v31Z" class="g2_1313"/>
<path d="M469.6,613.2h5.6v-31h-5.6v31Z" class="g1_1313"/>
<path d="M469.6,613.2h5.6v-31h-5.6v31Z" class="g2_1313"/>
<path d="M386.7,613.2h82.9v-31H386.7v31Z" class="g1_1313"/>
<path d="M386.7,613.2h82.9v-31H386.7v31Z" class="g2_1313"/>
<path d="M386.8,613.2h5.5v-31h-5.5v31Z" class="g1_1313"/>
<path d="M386.8,613.2h5.5v-31h-5.5v31Z" class="g2_1313"/>
<path d="M303.8,613.2h82.9v-31H303.8v31Z" class="g1_1313"/>
<path d="M303.8,613.2h82.9v-31H303.8v31Z" class="g2_1313"/>
<path d="M303.9,613.2h5.5v-31h-5.5v31Z" class="g1_1313"/>
<path d="M303.9,613.2h5.5v-31h-5.5v31Z" class="g2_1313"/>
<path d="M220.9,613.2h82.9v-31H220.9v31Z" class="g1_1313"/>
<path d="M220.9,613.2h82.9v-31H220.9v31Z" class="g2_1313"/>
<path d="M221,613.2h5.5v-31H221v31Z" class="g1_1313"/>
<path d="M221,613.2h5.5v-31H221v31Z" class="g2_1313"/>
<path d="M138,613.2h82.9v-31H138v31Z" class="g1_1313"/>
<path d="M138,613.2h82.9v-31H138v31Z" class="g2_1313"/>
<path d="M138.1,613.2h5.5v-31h-5.5v31Z" class="g1_1313"/>
<path d="M138.1,613.2h5.5v-31h-5.5v31Z" class="g2_1313"/>
<path d="M635.9,582.3H801.7V551.2H635.9v31.1Z" class="g1_1313"/>
<path d="M635.9,582.3H801.7V551.2H635.9v31.1Z" class="g2_1313"/>
<path d="M635.7,582.3h5.6V551.2h-5.6v31.1Z" class="g1_1313"/>
<path d="M635.7,582.3h5.6V551.2h-5.6v31.1Z" class="g2_1313"/>
<path d="M470.1,582.3H635.9V551.2H470.1v31.1Z" class="g1_1313"/>
<path d="M470.1,582.3H635.9V551.2H470.1v31.1Z" class="g2_1313"/>
<path d="M470,582.3h5.5V551.2H470v31.1Z" class="g1_1313"/>
<path d="M470,582.3h5.5V551.2H470v31.1Z" class="g2_1313"/>
<path d="M304,582.3H469.8V551.2H304v31.1Z" class="g1_1313"/>
<path d="M304,582.3H469.8V551.2H304v31.1Z" class="g2_1313"/>
<path d="M303.8,582.3h5.6V551.2h-5.6v31.1Z" class="g1_1313"/>
<path d="M303.8,582.3h5.6V551.2h-5.6v31.1Z" class="g2_1313"/>
<path d="M138.2,582.3H304V551.2H138.2v31.1Z" class="g1_1313"/>
<path d="M138.2,582.3H304V551.2H138.2v31.1Z" class="g2_1313"/>
<path d="M138,582.3h5.6V551.2H138v31.1Z" class="g1_1313"/>
<path d="M138,582.3h5.6V551.2H138v31.1Z" class="g2_1313"/>
<path d="M470,551.3h5.5v-31H470v31Z" class="g1_1313"/>
<path d="M470,551.3h5.5v-31H470v31Z" class="g2_1313"/>
<path d="M138.2,551.3H469.8v-31H138.2v31Z" class="g1_1313"/>
<path d="M138.2,551.3H469.8v-31H138.2v31Z" class="g2_1313"/>
<path d="M138,551.3h5.6v-31H138v31Z" class="g1_1313"/>
<path d="M138,551.3h5.6v-31H138v31Z" class="g2_1313"/>
<path d="M760.3,644.1h41.4v-31H760.3v31Z" class="g1_1313"/>
<path d="M760.3,644.1h41.4v-31H760.3v31Z" class="g2_1313"/>
<path d="M760.3,644.1h5.5v-31h-5.5v31Z" class="g1_1313"/>
<path d="M760.3,644.1h5.5v-31h-5.5v31Z" class="g2_1313"/>
<path d="M718.8,644.1h41.5v-31H718.8v31Z" class="g1_1313"/>
<path d="M718.8,644.1h41.5v-31H718.8v31Z" class="g2_1313"/>
<path d="M718.8,644.1h5.6v-31h-5.6v31Z" class="g1_1313"/>
<path d="M718.8,644.1h5.6v-31h-5.6v31Z" class="g2_1313"/>
<path d="M677.4,644.1h41.4v-31H677.4v31Z" class="g1_1313"/>
<path d="M677.4,644.1h41.4v-31H677.4v31Z" class="g2_1313"/>
<path d="M677.4,644.1h5.5v-31h-5.5v31Z" class="g1_1313"/>
<path d="M677.4,644.1h5.5v-31h-5.5v31Z" class="g2_1313"/>
<path d="M635.9,644.1h41.5v-31H635.9v31Z" class="g1_1313"/>
<path d="M635.9,644.1h41.5v-31H635.9v31Z" class="g2_1313"/>
<path d="M635.9,644.1h5.6v-31h-5.6v31Z" class="g1_1313"/>
<path d="M635.9,644.1h5.6v-31h-5.6v31Z" class="g2_1313"/>
<path d="M594.5,644.1h41.4v-31H594.5v31Z" class="g1_1313"/>
<path d="M594.5,644.1h41.4v-31H594.5v31Z" class="g2_1313"/>
<path d="M594.5,644.1H600v-31h-5.5v31Z" class="g1_1313"/>
<path d="M594.5,644.1H600v-31h-5.5v31Z" class="g2_1313"/>
<path d="M553,644.1h41.5v-31H553v31Z" class="g1_1313"/>
<path d="M553,644.1h41.5v-31H553v31Z" class="g2_1313"/>
<path d="M553,644.1h5.6v-31H553v31Z" class="g1_1313"/>
<path d="M553,644.1h5.6v-31H553v31Z" class="g2_1313"/>
<path d="M511.2,644.1H553v-31H511.2v31Z" class="g1_1313"/>
<path d="M511.2,644.1H553v-31H511.2v31Z" class="g2_1313"/>
<path d="M511.2,644.1h5.5v-31h-5.5v31Z" class="g1_1313"/>
<path d="M511.2,644.1h5.5v-31h-5.5v31Z" class="g2_1313"/>
<path d="M469.8,644.1h41.4v-31H469.8v31Z" class="g1_1313"/>
<path d="M469.8,644.1h41.4v-31H469.8v31Z" class="g2_1313"/>
<path d="M469.8,644.1h5.5v-31h-5.5v31Z" class="g1_1313"/>
<path d="M469.8,644.1h5.5v-31h-5.5v31Z" class="g2_1313"/>
<path d="M428.5,644.1h41.4v-31H428.5v31Z" class="g1_1313"/>
<path d="M428.5,644.1h41.4v-31H428.5v31Z" class="g2_1313"/>
<path d="M428.5,644.1H434v-31h-5.5v31Z" class="g1_1313"/>
<path d="M428.5,644.1H434v-31h-5.5v31Z" class="g2_1313"/>
<path d="M387,644.1h41.5v-31H387v31Z" class="g1_1313"/>
<path d="M387,644.1h41.5v-31H387v31Z" class="g2_1313"/>
<path d="M387,644.1h5.6v-31H387v31Z" class="g1_1313"/>
<path d="M387,644.1h5.6v-31H387v31Z" class="g2_1313"/>
<path d="M345.6,644.1H387v-31H345.6v31Z" class="g1_1313"/>
<path d="M345.6,644.1H387v-31H345.6v31Z" class="g2_1313"/>
<path d="M345.6,644.1h5.5v-31h-5.5v31Z" class="g1_1313"/>
<path d="M345.6,644.1h5.5v-31h-5.5v31Z" class="g2_1313"/>
<path d="M304.1,644.1h41.5v-31H304.1v31Z" class="g1_1313"/>
<path d="M304.1,644.1h41.5v-31H304.1v31Z" class="g2_1313"/>
<path d="M304.1,644.1h5.6v-31h-5.6v31Z" class="g1_1313"/>
<path d="M304.1,644.1h5.6v-31h-5.6v31Z" class="g2_1313"/>
<path d="M262.7,644.1h41.4v-31H262.7v31Z" class="g1_1313"/>
<path d="M262.7,644.1h41.4v-31H262.7v31Z" class="g2_1313"/>
<path d="M262.7,644.1h5.5v-31h-5.5v31Z" class="g1_1313"/>
<path d="M262.7,644.1h5.5v-31h-5.5v31Z" class="g2_1313"/>
<path d="M221.2,644.1h41.5v-31H221.2v31Z" class="g1_1313"/>
<path d="M221.2,644.1h41.5v-31H221.2v31Z" class="g2_1313"/>
<path d="M221.2,644.1h5.6v-31h-5.6v31Z" class="g1_1313"/>
<path d="M221.2,644.1h5.6v-31h-5.6v31Z" class="g2_1313"/>
<path d="M179.4,644.1h41.8v-31H179.4v31Z" class="g1_1313"/>
<path d="M179.4,644.1h41.8v-31H179.4v31Z" class="g2_1313"/>
<path d="M179.4,644.1h5.5v-31h-5.5v31Z" class="g1_1313"/>
<path d="M179.4,644.1h5.5v-31h-5.5v31Z" class="g2_1313"/>
<path d="M138,644.1h41.4v-31H138v31Z" class="g1_1313"/>
<path d="M138,644.1h41.4v-31H138v31Z" class="g2_1313"/>
<path d="M138,644.1h5.5v-31H138v31Z" class="g1_1313"/>
<path d="M138,644.1h5.5v-31H138v31Z" class="g2_1313"/>
<path d="M716.6,611h82.9V580H716.6v31Z" class="g3_1313"/>
<path d="M716.6,611h82.9V580H716.6v31Z" class="g2_1313"/>
<path d="M716.7,611h5.5V580h-5.5v31Z" class="g3_1313"/>
<path d="M716.7,611h5.5V580h-5.5v31Z" class="g2_1313"/>
<path d="M633.7,611h82.9V580H633.7v31Z" class="g3_1313"/>
<path d="M633.7,611h82.9V580H633.7v31Z" class="g2_1313"/>
<path d="M633.8,611h5.5V580h-5.5v31Z" class="g3_1313"/>
<path d="M633.8,611h5.5V580h-5.5v31Z" class="g2_1313"/>
<path d="M550.8,611h82.9V580H550.8v31Z" class="g3_1313"/>
<path d="M550.8,611h82.9V580H550.8v31Z" class="g2_1313"/>
<path d="M550.9,611h5.5V580h-5.5v31Z" class="g3_1313"/>
<path d="M550.9,611h5.5V580h-5.5v31Z" class="g2_1313"/>
<path d="M468,611h82.8V580H468v31Z" class="g3_1313"/>
<path d="M468,611h82.8V580H468v31Z" class="g2_1313"/>
<path d="M467.4,611H473V580h-5.6v31Z" class="g3_1313"/>
<path d="M467.4,611H473V580h-5.6v31Z" class="g2_1313"/>
<path d="M384.5,611h82.9V580H384.5v31Z" class="g3_1313"/>
<path d="M384.5,611h82.9V580H384.5v31Z" class="g2_1313"/>
<path d="M384.6,611h5.5V580h-5.5v31Z" class="g3_1313"/>
<path d="M384.6,611h5.5V580h-5.5v31Z" class="g2_1313"/>
<path d="M301.6,611h82.9V580H301.6v31Z" class="g3_1313"/>
<path d="M301.6,611h82.9V580H301.6v31Z" class="g2_1313"/>
<path d="M301.7,611h5.5V580h-5.5v31Z" class="g3_1313"/>
<path d="M301.7,611h5.5V580h-5.5v31Z" class="g2_1313"/>
<path d="M218.7,611h82.9V580H218.7v31Z" class="g3_1313"/>
<path d="M218.7,611h82.9V580H218.7v31Z" class="g2_1313"/>
<path d="M218.8,611h5.5V580h-5.5v31Z" class="g3_1313"/>
<path d="M218.8,611h5.5V580h-5.5v31Z" class="g2_1313"/>
<path d="M135.8,611h82.9V580H135.8v31Z" class="g3_1313"/>
<path d="M135.8,611h82.9V580H135.8v31Z" class="g2_1313"/>
<path d="M135.9,611h5.5V580h-5.5v31Z" class="g3_1313"/>
<path d="M135.9,611h5.5V580h-5.5v31Z" class="g2_1313"/>
<path d="M633.7,580.1H799.5V549H633.7v31.1Z" class="g3_1313"/>
<path d="M633.7,580.1H799.5V549H633.7v31.1Z" class="g2_1313"/>
<path d="M633.5,580.1h5.6V549h-5.6v31.1Z" class="g3_1313"/>
<path d="M633.5,580.1h5.6V549h-5.6v31.1Z" class="g2_1313"/>
<path d="M467.9,580.1H633.7V549H467.9v31.1Z" class="g3_1313"/>
<path d="M467.9,580.1H633.7V549H467.9v31.1Z" class="g2_1313"/>
<path d="M467.8,580.1h5.5V549h-5.5v31.1Z" class="g3_1313"/>
<path d="M467.8,580.1h5.5V549h-5.5v31.1Z" class="g2_1313"/>
<path d="M301.8,580.1H467.6V549H301.8v31.1Z" class="g3_1313"/>
<path d="M301.8,580.1H467.6V549H301.8v31.1Z" class="g2_1313"/>
<path d="M301.6,580.1h5.6V549h-5.6v31.1Z" class="g3_1313"/>
<path d="M301.6,580.1h5.6V549h-5.6v31.1Z" class="g2_1313"/>
<path d="M136,580.1H301.8V549H136v31.1Z" class="g3_1313"/>
<path d="M136,580.1H301.8V549H136v31.1Z" class="g2_1313"/>
<path d="M135.8,580.1h5.6V549h-5.6v31.1Z" class="g3_1313"/>
<path d="M135.8,580.1h5.6V549h-5.6v31.1Z" class="g2_1313"/>
<path d="M467.9,549.1H799.5v-31H467.9v31Z" class="g3_1313"/>
<path d="M467.9,549.1H799.5v-31H467.9v31Z" class="g2_1313"/>
<path d="M467.8,549.1h5.5v-31h-5.5v31Z" class="g3_1313"/>
<path d="M467.8,549.1h5.5v-31h-5.5v31Z" class="g2_1313"/>
<path d="M136,549.1H467.6v-31H136v31Z" class="g3_1313"/>
<path d="M136,549.1H467.6v-31H136v31Z" class="g2_1313"/>
<path d="M135.8,549.1h5.6v-31h-5.6v31Z" class="g3_1313"/>
<path d="M135.8,549.1h5.6v-31h-5.6v31Z" class="g2_1313"/>
<path d="M136.4,517.8H799.3v-31H136.4v31Z" class="g3_1313"/>
<path d="M136.4,517.8H799.3v-31H136.4v31Z" class="g2_1313"/>
<path d="M135.8,517.8h5.6v-31h-5.6v31Z" class="g3_1313"/>
<path d="M135.8,517.8h5.6v-31h-5.6v31Z" class="g2_1313"/>
<path d="M758.1,641.9h41.4v-31H758.1v31Z" class="g3_1313"/>
<path d="M758.1,641.9h41.4v-31H758.1v31Z" class="g2_1313"/>
<path d="M758.1,641.9h5.5v-31h-5.5v31Z" class="g3_1313"/>
<path d="M758.1,641.9h5.5v-31h-5.5v31Z" class="g2_1313"/>
<path d="M716.6,641.9h41.5v-31H716.6v31Z" class="g3_1313"/>
<path d="M716.6,641.9h41.5v-31H716.6v31Z" class="g2_1313"/>
<path d="M716.6,641.9h5.6v-31h-5.6v31Z" class="g3_1313"/>
<path d="M716.6,641.9h5.6v-31h-5.6v31Z" class="g2_1313"/>
<path d="M675.2,641.9h41.4v-31H675.2v31Z" class="g3_1313"/>
<path d="M675.2,641.9h41.4v-31H675.2v31Z" class="g2_1313"/>
<path d="M675.2,641.9h5.5v-31h-5.5v31Z" class="g3_1313"/>
<path d="M675.2,641.9h5.5v-31h-5.5v31Z" class="g2_1313"/>
<path d="M633.7,641.9h41.5v-31H633.7v31Z" class="g3_1313"/>
<path d="M633.7,641.9h41.5v-31H633.7v31Z" class="g2_1313"/>
<path d="M633.7,641.9h5.6v-31h-5.6v31Z" class="g3_1313"/>
<path d="M633.7,641.9h5.6v-31h-5.6v31Z" class="g2_1313"/>
<path d="M592.3,641.9h41.4v-31H592.3v31Z" class="g3_1313"/>
<path d="M592.3,641.9h41.4v-31H592.3v31Z" class="g2_1313"/>
<path d="M592.3,641.9h5.5v-31h-5.5v31Z" class="g3_1313"/>
<path d="M592.3,641.9h5.5v-31h-5.5v31Z" class="g2_1313"/>
<path d="M550.8,641.9h41.5v-31H550.8v31Z" class="g3_1313"/>
<path d="M550.8,641.9h41.5v-31H550.8v31Z" class="g2_1313"/>
<path d="M550.8,641.9h5.6v-31h-5.6v31Z" class="g3_1313"/>
<path d="M550.8,641.9h5.6v-31h-5.6v31Z" class="g2_1313"/>
<path d="M509,641.9h41.8v-31H509v31Z" class="g3_1313"/>
<path d="M509,641.9h41.8v-31H509v31Z" class="g2_1313"/>
<path d="M509,641.9h5.5v-31H509v31Z" class="g3_1313"/>
<path d="M509,641.9h5.5v-31H509v31Z" class="g2_1313"/>
<path d="M467.6,641.9H509v-31H467.6v31Z" class="g3_1313"/>
<path d="M467.6,641.9H509v-31H467.6v31Z" class="g2_1313"/>
<path d="M467.6,641.9h5.5v-31h-5.5v31Z" class="g3_1313"/>
<path d="M467.6,641.9h5.5v-31h-5.5v31Z" class="g2_1313"/>
<path d="M426.3,641.9h41.4v-31H426.3v31Z" class="g3_1313"/>
<path d="M426.3,641.9h41.4v-31H426.3v31Z" class="g2_1313"/>
<path d="M426.3,641.9h5.5v-31h-5.5v31Z" class="g3_1313"/>
<path d="M426.3,641.9h5.5v-31h-5.5v31Z" class="g2_1313"/>
<path d="M384.8,641.9h41.5v-31H384.8v31Z" class="g3_1313"/>
<path d="M384.8,641.9h41.5v-31H384.8v31Z" class="g2_1313"/>
<path d="M384.8,641.9h5.6v-31h-5.6v31Z" class="g3_1313"/>
<path d="M384.8,641.9h5.6v-31h-5.6v31Z" class="g2_1313"/>
<path d="M343.4,641.9h41.4v-31H343.4v31Z" class="g3_1313"/>
<path d="M343.4,641.9h41.4v-31H343.4v31Z" class="g2_1313"/>
<path d="M343.4,641.9h5.5v-31h-5.5v31Z" class="g3_1313"/>
<path d="M343.4,641.9h5.5v-31h-5.5v31Z" class="g2_1313"/>
<path d="M301.9,641.9h41.5v-31H301.9v31Z" class="g3_1313"/>
<path d="M301.9,641.9h41.5v-31H301.9v31Z" class="g2_1313"/>
<path d="M301.9,641.9h5.6v-31h-5.6v31Z" class="g3_1313"/>
<path d="M301.9,641.9h5.6v-31h-5.6v31Z" class="g2_1313"/>
<path d="M260.5,641.9h41.4v-31H260.5v31Z" class="g3_1313"/>
<path d="M260.5,641.9h41.4v-31H260.5v31Z" class="g2_1313"/>
<path d="M260.5,641.9H266v-31h-5.5v31Z" class="g3_1313"/>
<path d="M260.5,641.9H266v-31h-5.5v31Z" class="g2_1313"/>
<path d="M219,641.9h41.5v-31H219v31Z" class="g3_1313"/>
<path d="M219,641.9h41.5v-31H219v31Z" class="g2_1313"/>
<path d="M219,641.9h5.6v-31H219v31Z" class="g3_1313"/>
<path d="M219,641.9h5.6v-31H219v31Z" class="g2_1313"/>
<path d="M177.2,641.9H219v-31H177.2v31Z" class="g3_1313"/>
<path d="M177.2,641.9H219v-31H177.2v31Z" class="g2_1313"/>
<path d="M177.2,641.9h5.5v-31h-5.5v31Z" class="g3_1313"/>
<path d="M177.2,641.9h5.5v-31h-5.5v31Z" class="g2_1313"/>
<path d="M135.8,641.9h41.4v-31H135.8v31Z" class="g3_1313"/>
<path d="M135.8,641.9h41.4v-31H135.8v31Z" class="g2_1313"/>
<path d="M135.8,641.9h5.5v-31h-5.5v31Z" class="g3_1313"/>
<path d="M135.8,641.9h5.5v-31h-5.5v31Z" class="g2_1313"/>
<path d="M718.8,804.9h82.9v-31H718.8v31Z" class="g1_1313"/>
<path d="M718.8,804.9h82.9v-31H718.8v31Z" class="g2_1313"/>
<path d="M718.9,804.9h5.5v-31h-5.5v31Z" class="g1_1313"/>
<path d="M718.9,804.9h5.5v-31h-5.5v31Z" class="g2_1313"/>
<path d="M635.9,804.9h82.9v-31H635.9v31Z" class="g1_1313"/>
<path d="M635.9,804.9h82.9v-31H635.9v31Z" class="g2_1313"/>
<path d="M636,804.9h5.5v-31H636v31Z" class="g1_1313"/>
<path d="M636,804.9h5.5v-31H636v31Z" class="g2_1313"/>
<path d="M553,804.9h82.9v-31H553v31Z" class="g1_1313"/>
<path d="M553,804.9h82.9v-31H553v31Z" class="g2_1313"/>
<path d="M553.1,804.9h5.5v-31h-5.5v31Z" class="g1_1313"/>
<path d="M553.1,804.9h5.5v-31h-5.5v31Z" class="g2_1313"/>
<path d="M470.2,804.9H553v-31H470.2v31Z" class="g1_1313"/>
<path d="M470.2,804.9H553v-31H470.2v31Z" class="g2_1313"/>
<path d="M469.6,804.9h5.6v-31h-5.6v31Z" class="g1_1313"/>
<path d="M469.6,804.9h5.6v-31h-5.6v31Z" class="g2_1313"/>
<path d="M386.7,804.9h82.9v-31H386.7v31Z" class="g1_1313"/>
<path d="M386.7,804.9h82.9v-31H386.7v31Z" class="g2_1313"/>
<path d="M386.8,804.9h5.5v-31h-5.5v31Z" class="g1_1313"/>
<path d="M386.8,804.9h5.5v-31h-5.5v31Z" class="g2_1313"/>
<path d="M303.8,804.9h82.9v-31H303.8v31Z" class="g1_1313"/>
<path d="M303.8,804.9h82.9v-31H303.8v31Z" class="g2_1313"/>
<path d="M303.9,804.9h5.5v-31h-5.5v31Z" class="g1_1313"/>
<path d="M303.9,804.9h5.5v-31h-5.5v31Z" class="g2_1313"/>
<path d="M220.9,804.9h82.9v-31H220.9v31Z" class="g1_1313"/>
<path d="M220.9,804.9h82.9v-31H220.9v31Z" class="g2_1313"/>
<path d="M221,804.9h5.5v-31H221v31Z" class="g1_1313"/>
<path d="M221,804.9h5.5v-31H221v31Z" class="g2_1313"/>
<path d="M138,804.9h82.9v-31H138v31Z" class="g1_1313"/>
<path d="M138,804.9h82.9v-31H138v31Z" class="g2_1313"/>
<path d="M138.1,804.9h5.5v-31h-5.5v31Z" class="g1_1313"/>
<path d="M138.1,804.9h5.5v-31h-5.5v31Z" class="g2_1313"/>
<path d="M635.9,774H801.7V743H635.9v31Z" class="g1_1313"/>
<path d="M635.9,774H801.7V743H635.9v31Z" class="g2_1313"/>
<path d="M635.7,774h5.6V743h-5.6v31Z" class="g1_1313"/>
<path d="M635.7,774h5.6V743h-5.6v31Z" class="g2_1313"/>
<path d="M470.1,774H635.9V743H470.1v31Z" class="g1_1313"/>
<path d="M470.1,774H635.9V743H470.1v31Z" class="g2_1313"/>
<path d="M470,774h5.5V743H470v31Z" class="g1_1313"/>
<path d="M470,774h5.5V743H470v31Z" class="g2_1313"/>
<path d="M304,774H469.8V743H304v31Z" class="g1_1313"/>
<path d="M304,774H469.8V743H304v31Z" class="g2_1313"/>
<path d="M303.8,774h5.6V743h-5.6v31Z" class="g1_1313"/>
<path d="M303.8,774h5.6V743h-5.6v31Z" class="g2_1313"/>
<path d="M138.2,774H304V743H138.2v31Z" class="g1_1313"/>
<path d="M138.2,774H304V743H138.2v31Z" class="g2_1313"/>
<path d="M138,774h5.6V743H138v31Z" class="g1_1313"/>
<path d="M138,774h5.6V743H138v31Z" class="g2_1313"/>
<path d="M138.2,743.1H469.8v-31H138.2v31Z" class="g1_1313"/>
<path d="M138.2,743.1H469.8v-31H138.2v31Z" class="g2_1313"/>
<path d="M138,743.1h5.6V712H138v31.1Z" class="g1_1313"/>
<path d="M138,743.1h5.6V712H138v31.1Z" class="g2_1313"/>
<path d="M760.3,835.9h41.4v-31H760.3v31Z" class="g1_1313"/>
<path d="M760.3,835.9h41.4v-31H760.3v31Z" class="g2_1313"/>
<path d="M760.3,835.9h5.5v-31h-5.5v31Z" class="g1_1313"/>
<path d="M760.3,835.9h5.5v-31h-5.5v31Z" class="g2_1313"/>
<path d="M718.8,835.9h41.5v-31H718.8v31Z" class="g1_1313"/>
<path d="M718.8,835.9h41.5v-31H718.8v31Z" class="g2_1313"/>
<path d="M718.8,835.9h5.6v-31h-5.6v31Z" class="g1_1313"/>
<path d="M718.8,835.9h5.6v-31h-5.6v31Z" class="g2_1313"/>
<path d="M677.4,835.9h41.4v-31H677.4v31Z" class="g1_1313"/>
<path d="M677.4,835.9h41.4v-31H677.4v31Z" class="g2_1313"/>
<path d="M677.4,835.9h5.5v-31h-5.5v31Z" class="g1_1313"/>
<path d="M677.4,835.9h5.5v-31h-5.5v31Z" class="g2_1313"/>
<path d="M635.9,835.9h41.5v-31H635.9v31Z" class="g1_1313"/>
<path d="M635.9,835.9h41.5v-31H635.9v31Z" class="g2_1313"/>
<path d="M635.9,835.9h5.6v-31h-5.6v31Z" class="g1_1313"/>
<path d="M635.9,835.9h5.6v-31h-5.6v31Z" class="g2_1313"/>
<path d="M594.5,835.9h41.4v-31H594.5v31Z" class="g1_1313"/>
<path d="M594.5,835.9h41.4v-31H594.5v31Z" class="g2_1313"/>
<path d="M594.5,835.9H600v-31h-5.5v31Z" class="g1_1313"/>
<path d="M594.5,835.9H600v-31h-5.5v31Z" class="g2_1313"/>
<path d="M553,835.9h41.5v-31H553v31Z" class="g1_1313"/>
<path d="M553,835.9h41.5v-31H553v31Z" class="g2_1313"/>
<path d="M553,835.9h5.6v-31H553v31Z" class="g1_1313"/>
<path d="M553,835.9h5.6v-31H553v31Z" class="g2_1313"/>
<path d="M511.2,835.9H553v-31H511.2v31Z" class="g1_1313"/>
<path d="M511.2,835.9H553v-31H511.2v31Z" class="g2_1313"/>
<path d="M511.2,835.9h5.5v-31h-5.5v31Z" class="g1_1313"/>
<path d="M511.2,835.9h5.5v-31h-5.5v31Z" class="g2_1313"/>
<path d="M469.8,835.9h41.4v-31H469.8v31Z" class="g1_1313"/>
<path d="M469.8,835.9h41.4v-31H469.8v31Z" class="g2_1313"/>
<path d="M469.8,835.9h5.5v-31h-5.5v31Z" class="g1_1313"/>
<path d="M469.8,835.9h5.5v-31h-5.5v31Z" class="g2_1313"/>
<path d="M428.5,835.9h41.4v-31H428.5v31Z" class="g1_1313"/>
<path d="M428.5,835.9h41.4v-31H428.5v31Z" class="g2_1313"/>
<path d="M428.5,835.9H434v-31h-5.5v31Z" class="g1_1313"/>
<path d="M428.5,835.9H434v-31h-5.5v31Z" class="g2_1313"/>
<path d="M387,835.9h41.5v-31H387v31Z" class="g1_1313"/>
<path d="M387,835.9h41.5v-31H387v31Z" class="g2_1313"/>
<path d="M387,835.9h5.6v-31H387v31Z" class="g1_1313"/>
<path d="M387,835.9h5.6v-31H387v31Z" class="g2_1313"/>
<path d="M345.6,835.9H387v-31H345.6v31Z" class="g1_1313"/>
<path d="M345.6,835.9H387v-31H345.6v31Z" class="g2_1313"/>
<path d="M345.6,835.9h5.5v-31h-5.5v31Z" class="g1_1313"/>
<path d="M345.6,835.9h5.5v-31h-5.5v31Z" class="g2_1313"/>
<path d="M304.1,835.9h41.5v-31H304.1v31Z" class="g1_1313"/>
<path d="M304.1,835.9h41.5v-31H304.1v31Z" class="g2_1313"/>
<path d="M304.1,835.9h5.6v-31h-5.6v31Z" class="g1_1313"/>
<path d="M304.1,835.9h5.6v-31h-5.6v31Z" class="g2_1313"/>
<path d="M262.7,835.9h41.4v-31H262.7v31Z" class="g1_1313"/>
<path d="M262.7,835.9h41.4v-31H262.7v31Z" class="g2_1313"/>
<path d="M262.7,835.9h5.5v-31h-5.5v31Z" class="g1_1313"/>
<path d="M262.7,835.9h5.5v-31h-5.5v31Z" class="g2_1313"/>
<path d="M221.2,835.9h41.5v-31H221.2v31Z" class="g1_1313"/>
<path d="M221.2,835.9h41.5v-31H221.2v31Z" class="g2_1313"/>
<path d="M221.2,835.9h5.6v-31h-5.6v31Z" class="g1_1313"/>
<path d="M221.2,835.9h5.6v-31h-5.6v31Z" class="g2_1313"/>
<path d="M179.4,835.9h41.8v-31H179.4v31Z" class="g1_1313"/>
<path d="M179.4,835.9h41.8v-31H179.4v31Z" class="g2_1313"/>
<path d="M179.4,835.9h5.5v-31h-5.5v31Z" class="g1_1313"/>
<path d="M179.4,835.9h5.5v-31h-5.5v31Z" class="g2_1313"/>
<path d="M138,835.9h41.4v-31H138v31Z" class="g1_1313"/>
<path d="M138,835.9h41.4v-31H138v31Z" class="g2_1313"/>
<path d="M138,835.9h5.5v-31H138v31Z" class="g1_1313"/>
<path d="M138,835.9h5.5v-31H138v31Z" class="g2_1313"/>
<path d="M716.6,802.7h82.9v-31H716.6v31Z" class="g3_1313"/>
<path d="M716.6,802.7h82.9v-31H716.6v31Z" class="g2_1313"/>
<path d="M716.7,802.7h5.5v-31h-5.5v31Z" class="g3_1313"/>
<path d="M716.7,802.7h5.5v-31h-5.5v31Z" class="g2_1313"/>
<path d="M633.7,802.7h82.9v-31H633.7v31Z" class="g3_1313"/>
<path d="M633.7,802.7h82.9v-31H633.7v31Z" class="g2_1313"/>
<path d="M633.8,802.7h5.5v-31h-5.5v31Z" class="g3_1313"/>
<path d="M633.8,802.7h5.5v-31h-5.5v31Z" class="g2_1313"/>
<path d="M550.8,802.7h82.9v-31H550.8v31Z" class="g3_1313"/>
<path d="M550.8,802.7h82.9v-31H550.8v31Z" class="g2_1313"/>
<path d="M550.9,802.7h5.5v-31h-5.5v31Z" class="g3_1313"/>
<path d="M550.9,802.7h5.5v-31h-5.5v31Z" class="g2_1313"/>
<path d="M468,802.7h82.8v-31H468v31Z" class="g3_1313"/>
<path d="M468,802.7h82.8v-31H468v31Z" class="g2_1313"/>
<path d="M467.4,802.7H473v-31h-5.6v31Z" class="g3_1313"/>
<path d="M467.4,802.7H473v-31h-5.6v31Z" class="g2_1313"/>
<path d="M384.5,802.7h82.9v-31H384.5v31Z" class="g3_1313"/>
<path d="M384.5,802.7h82.9v-31H384.5v31Z" class="g2_1313"/>
<path d="M384.6,802.7h5.5v-31h-5.5v31Z" class="g3_1313"/>
<path d="M384.6,802.7h5.5v-31h-5.5v31Z" class="g2_1313"/>
<path d="M301.6,802.7h82.9v-31H301.6v31Z" class="g3_1313"/>
<path d="M301.6,802.7h82.9v-31H301.6v31Z" class="g2_1313"/>
<path d="M301.7,802.7h5.5v-31h-5.5v31Z" class="g3_1313"/>
<path d="M301.7,802.7h5.5v-31h-5.5v31Z" class="g2_1313"/>
<path d="M218.7,802.7h82.9v-31H218.7v31Z" class="g3_1313"/>
<path d="M218.7,802.7h82.9v-31H218.7v31Z" class="g2_1313"/>
<path d="M218.8,802.7h5.5v-31h-5.5v31Z" class="g3_1313"/>
<path d="M218.8,802.7h5.5v-31h-5.5v31Z" class="g2_1313"/>
<path d="M135.8,802.7h82.9v-31H135.8v31Z" class="g3_1313"/>
<path d="M135.8,802.7h82.9v-31H135.8v31Z" class="g2_1313"/>
<path d="M135.9,802.7h5.5v-31h-5.5v31Z" class="g3_1313"/>
<path d="M135.9,802.7h5.5v-31h-5.5v31Z" class="g2_1313"/>
<path d="M633.7,771.8H799.5v-31H633.7v31Z" class="g3_1313"/>
<path d="M633.7,771.8H799.5v-31H633.7v31Z" class="g2_1313"/>
<path d="M633.5,771.8h5.6v-31h-5.6v31Z" class="g3_1313"/>
<path d="M633.5,771.8h5.6v-31h-5.6v31Z" class="g2_1313"/>
<path d="M467.9,771.8H633.7v-31H467.9v31Z" class="g3_1313"/>
<path d="M467.9,771.8H633.7v-31H467.9v31Z" class="g2_1313"/>
<path d="M467.8,771.8h5.5v-31h-5.5v31Z" class="g3_1313"/>
<path d="M467.8,771.8h5.5v-31h-5.5v31Z" class="g2_1313"/>
<path d="M301.8,771.8H467.6v-31H301.8v31Z" class="g3_1313"/>
<path d="M301.8,771.8H467.6v-31H301.8v31Z" class="g2_1313"/>
<path d="M301.6,771.8h5.6v-31h-5.6v31Z" class="g3_1313"/>
<path d="M301.6,771.8h5.6v-31h-5.6v31Z" class="g2_1313"/>
<path d="M136,771.8H301.8v-31H136v31Z" class="g3_1313"/>
<path d="M136,771.8H301.8v-31H136v31Z" class="g2_1313"/>
<path d="M135.8,771.8h5.6v-31h-5.6v31Z" class="g3_1313"/>
<path d="M135.8,771.8h5.6v-31h-5.6v31Z" class="g2_1313"/>
<path d="M467.8,740.9h5.5v-31h-5.5v31Z" class="g3_1313"/>
<path d="M467.8,740.9h5.5v-31h-5.5v31Z" class="g2_1313"/>
<path d="M136,740.9H467.6v-31H136v31Z" class="g3_1313"/>
<path d="M136,740.9H467.6v-31H136v31Z" class="g2_1313"/>
<path d="M135.8,740.9h5.6v-31h-5.6v31Z" class="g3_1313"/>
<path d="M135.8,740.9h5.6v-31h-5.6v31Z" class="g2_1313"/>
<path d="M758.1,833.7h41.4v-31H758.1v31Z" class="g3_1313"/>
<path d="M758.1,833.7h41.4v-31H758.1v31Z" class="g2_1313"/>
<path d="M758.1,833.7h5.5v-31h-5.5v31Z" class="g3_1313"/>
<path d="M758.1,833.7h5.5v-31h-5.5v31Z" class="g2_1313"/>
<path d="M716.6,833.7h41.5v-31H716.6v31Z" class="g3_1313"/>
<path d="M716.6,833.7h41.5v-31H716.6v31Z" class="g2_1313"/>
<path d="M716.6,833.7h5.6v-31h-5.6v31Z" class="g3_1313"/>
<path d="M716.6,833.7h5.6v-31h-5.6v31Z" class="g2_1313"/>
<path d="M675.2,833.7h41.4v-31H675.2v31Z" class="g3_1313"/>
<path d="M675.2,833.7h41.4v-31H675.2v31Z" class="g2_1313"/>
<path d="M675.2,833.7h5.5v-31h-5.5v31Z" class="g3_1313"/>
<path d="M675.2,833.7h5.5v-31h-5.5v31Z" class="g2_1313"/>
<path d="M633.7,833.7h41.5v-31H633.7v31Z" class="g3_1313"/>
<path d="M633.7,833.7h41.5v-31H633.7v31Z" class="g2_1313"/>
<path d="M633.7,833.7h5.6v-31h-5.6v31Z" class="g3_1313"/>
<path d="M633.7,833.7h5.6v-31h-5.6v31Z" class="g2_1313"/>
<path d="M592.3,833.7h41.4v-31H592.3v31Z" class="g3_1313"/>
<path d="M592.3,833.7h41.4v-31H592.3v31Z" class="g2_1313"/>
<path d="M592.3,833.7h5.5v-31h-5.5v31Z" class="g3_1313"/>
<path d="M592.3,833.7h5.5v-31h-5.5v31Z" class="g2_1313"/>
<path d="M550.8,833.7h41.5v-31H550.8v31Z" class="g3_1313"/>
<path d="M550.8,833.7h41.5v-31H550.8v31Z" class="g2_1313"/>
<path d="M550.8,833.7h5.6v-31h-5.6v31Z" class="g3_1313"/>
<path d="M550.8,833.7h5.6v-31h-5.6v31Z" class="g2_1313"/>
<path d="M509,833.7h41.8v-31H509v31Z" class="g3_1313"/>
<path d="M509,833.7h41.8v-31H509v31Z" class="g2_1313"/>
<path d="M509,833.7h5.5v-31H509v31Z" class="g3_1313"/>
<path d="M509,833.7h5.5v-31H509v31Z" class="g2_1313"/>
<path d="M467.6,833.7H509v-31H467.6v31Z" class="g3_1313"/>
<path d="M467.6,833.7H509v-31H467.6v31Z" class="g2_1313"/>
<path d="M467.6,833.7h5.5v-31h-5.5v31Z" class="g3_1313"/>
<path d="M467.6,833.7h5.5v-31h-5.5v31Z" class="g2_1313"/>
<path d="M426.3,833.7h41.4v-31H426.3v31Z" class="g3_1313"/>
<path d="M426.3,833.7h41.4v-31H426.3v31Z" class="g2_1313"/>
<path d="M426.3,833.7h5.5v-31h-5.5v31Z" class="g3_1313"/>
<path d="M426.3,833.7h5.5v-31h-5.5v31Z" class="g2_1313"/>
<path d="M384.8,833.7h41.5v-31H384.8v31Z" class="g3_1313"/>
<path d="M384.8,833.7h41.5v-31H384.8v31Z" class="g2_1313"/>
<path d="M384.8,833.7h5.6v-31h-5.6v31Z" class="g3_1313"/>
<path d="M384.8,833.7h5.6v-31h-5.6v31Z" class="g2_1313"/>
<path d="M343.4,833.7h41.4v-31H343.4v31Z" class="g3_1313"/>
<path d="M343.4,833.7h41.4v-31H343.4v31Z" class="g2_1313"/>
<path d="M343.4,833.7h5.5v-31h-5.5v31Z" class="g3_1313"/>
<path d="M343.4,833.7h5.5v-31h-5.5v31Z" class="g2_1313"/>
<path d="M301.9,833.7h41.5v-31H301.9v31Z" class="g3_1313"/>
<path d="M301.9,833.7h41.5v-31H301.9v31Z" class="g2_1313"/>
<path d="M301.9,833.7h5.6v-31h-5.6v31Z" class="g3_1313"/>
<path d="M301.9,833.7h5.6v-31h-5.6v31Z" class="g2_1313"/>
<path d="M260.5,833.7h41.4v-31H260.5v31Z" class="g3_1313"/>
<path d="M260.5,833.7h41.4v-31H260.5v31Z" class="g2_1313"/>
<path d="M260.5,833.7H266v-31h-5.5v31Z" class="g3_1313"/>
<path d="M260.5,833.7H266v-31h-5.5v31Z" class="g2_1313"/>
<path d="M219,833.7h41.5v-31H219v31Z" class="g3_1313"/>
<path d="M219,833.7h41.5v-31H219v31Z" class="g2_1313"/>
<path d="M219,833.7h5.6v-31H219v31Z" class="g3_1313"/>
<path d="M219,833.7h5.6v-31H219v31Z" class="g2_1313"/>
<path d="M177.2,833.7H219v-31H177.2v31Z" class="g3_1313"/>
<path d="M177.2,833.7H219v-31H177.2v31Z" class="g2_1313"/>
<path d="M177.2,833.7h5.5v-31h-5.5v31Z" class="g3_1313"/>
<path d="M177.2,833.7h5.5v-31h-5.5v31Z" class="g2_1313"/>
<path d="M135.8,833.7h41.4v-31H135.8v31Z" class="g3_1313"/>
<path d="M135.8,833.7h41.4v-31H135.8v31Z" class="g2_1313"/>
<path d="M135.8,833.7h5.5v-31h-5.5v31Z" class="g3_1313"/>
<path d="M135.8,833.7h5.5v-31h-5.5v31Z" class="g2_1313"/>
<path d="M135.6,709.6h5.6V678.5h-5.6v31.1Z" class="g3_1313"/>
<path d="M135.6,709.6h5.6V678.5h-5.6v31.1Z" class="g2_1313"/>
</svg>