<?xml version="1.0" encoding="UTF-8" standalone="no"?>
<!DOCTYPE svg PUBLIC "-//W3C//DTD SVG 1.1//EN"
"http://www.w3.org/Graphics/SVG/1.1/DTD/svg11.dtd">
<svg viewBox="0 0 935 1210" version="1.1" xmlns="http://www.w3.org/2000/svg" xmlns:xlink="http://www.w3.org/1999/xlink">
<defs>
<clipPath id="c0_2653"><path d="M97.3,59.2V41.4h72.1V59.2Z"/></clipPath>
<style type="text/css"><![CDATA[
.g0_2653{
fill: #000;
}
]]></style>
</defs>
<path d="M96.3,63.3H838.8v-.4H96.3v.4Z" class="g0_2653"/>
<path d="M96.1,1114.5h.2v-.4h-.2v.4Z" class="g0_2653"/>
<path d="M96.3,1114.5H838.9v-.4H96.3v.4Z" class="g0_2653"/>
<image clip-path="url(#c0_2653)" preserveAspectRatio="none" x="97" y="41" width="73" height="18" xlink:href="img/1.jpg"/>
<path d="M564.9,755.7h31.4v-1.1H564.9v1.1Z" class="g0_2653"/>
<path d="M686.7,755.7H707v-1.1H686.7v1.1Z" class="g0_2653"/>
<path d="M707,755.7h8.5v-1.1H707v1.1Z" class="g0_2653"/>
<path d="M95.9,609.2h.7V564.1h-.7v45.1Z" class="g0_2653"/>
<path d="M246.3,609.9h.7V563.4h-.7v46.5Z" class="g0_2653"/>
<path d="M316.6,609.9h.8V563.4h-.8v46.5Z" class="g0_2653"/>
<path d="M838.8,609.2h.7V564.1h-.7v45.1Z" class="g0_2653"/>
<path d="M95.9,564.1H839.5v-.7H95.9v.7Z" class="g0_2653"/>
<path d="M95.9,588.2H839.5v-3H95.9v3Z" class="g0_2653"/>
<path d="M95.9,609.9H839.5v-.7H95.9v.7Z" class="g0_2653"/>
</svg>