<?xml version="1.0" encoding="UTF-8" standalone="no"?>
<!DOCTYPE svg PUBLIC "-//W3C//DTD SVG 1.1//EN"
"http://www.w3.org/Graphics/SVG/1.1/DTD/svg11.dtd">
<svg viewBox="0 0 935 1210" version="1.1" xmlns="http://www.w3.org/2000/svg" xmlns:xlink="http://www.w3.org/1999/xlink">
<defs>
<style type="text/css"><![CDATA[
.g0_139{
fill: #B3B3B3;
}
.g1_139{
fill: #000;
}
]]></style>
</defs>
<path d="M82.5,96.3h770V55H82.5V96.3Z" class="g0_139"/>
<path d="M115.3,342h.4V163.6h-.4V342Z" class="g1_139"/>
<path d="M247.3,342.4h.4V163.3h-.4V342.4Z" class="g1_139"/>
<path d="M357.3,342.4h.4V163.3h-.4V342.4Z" class="g1_139"/>
<path d="M467.3,342.4h.4V163.3h-.4V342.4Z" class="g1_139"/>
<path d="M819.3,342h.4V163.6h-.4V342Z" class="g1_139"/>
<path d="M115.3,163.6H819.7v-.3H115.3v.3Z" class="g1_139"/>
<path d="M115.3,209.5H819.7v-.4H115.3v.4Z" class="g1_139"/>
<path d="M115.3,253.8H819.7v-.3H115.3v.3Z" class="g1_139"/>
<path d="M115.3,298.1H819.7v-.4H115.3v.4Z" class="g1_139"/>
<path d="M115.3,342.4H819.7V342H115.3v.4Z" class="g1_139"/>
</svg>