<?xml version="1.0" encoding="UTF-8" standalone="no"?>
<!DOCTYPE svg PUBLIC "-//W3C//DTD SVG 1.1//EN"
"http://www.w3.org/Graphics/SVG/1.1/DTD/svg11.dtd">
<svg viewBox="0 0 935 1210" version="1.1" xmlns="http://www.w3.org/2000/svg" xmlns:xlink="http://www.w3.org/1999/xlink">
<defs>
<style type="text/css"><![CDATA[
.g0_4899{
fill: #FFF;
}
.g1_4899{
fill: #000;
}
]]></style>
</defs>
<path d="M68.9,1149.3H852.7v-21.2H68.9v21.2Z" class="g0_4899"/>
<path d="M69.9,1023.3h.8V124.1h-.8v899.2Z" class="g1_4899"/>
<path d="M124.1,1024h.8V164.6h-.8V1024Z" class="g1_4899"/>
<path d="M174.9,1024h.7V123.4h-.7V1024Z" class="g1_4899"/>
<path d="M395.2,1024h.7V123.4h-.7V1024Z" class="g1_4899"/>
<path d="M470.4,1024h.8V123.4h-.8V1024Z" class="g1_4899"/>
<path d="M561.8,1024h.8V123.4h-.8V1024Z" class="g1_4899"/>
<path d="M851.5,1023.3h.7V124.1h-.7v899.2Z" class="g1_4899"/>
<path d="M69.9,124.1H852.2v-.7H69.9v.7Z" class="g1_4899"/>
<path d="M69.9,165.4H175.7v-.8H69.9v.8Z" class="g1_4899"/>
<path d="M69.9,189.8H852.2v-.7H69.9v.7Z" class="g1_4899"/>
<path d="M174.9,252.4H852.2v-.7H174.9v.7Z" class="g1_4899"/>
<path d="M69.9,344.1H852.2v-.7H69.9v.7Z" class="g1_4899"/>
<path d="M174.9,406.8H852.2v-.7H174.9v.7Z" class="g1_4899"/>
<path d="M69.9,498.5H852.2v-.8H69.9v.8Z" class="g1_4899"/>
<path d="M174.9,561.1H852.2v-.7H174.9v.7Z" class="g1_4899"/>
<path d="M69.9,652.8H852.2V652H69.9v.8Z" class="g1_4899"/>
<path d="M174.9,715.4H852.2v-.8H174.9v.8Z" class="g1_4899"/>
<path d="M69.9,807H852.2v-.7H69.9v.7Z" class="g1_4899"/>
<path d="M174.9,869.7H852.2V869H174.9v.7Z" class="g1_4899"/>
<path d="M69.9,961.4H852.2v-.7H69.9v.7Z" class="g1_4899"/>
<path d="M69.9,1024H852.2v-.7H69.9v.7Z" class="g1_4899"/>
</svg>