<?xml version="1.0" encoding="UTF-8" standalone="no"?>
<!DOCTYPE svg PUBLIC "-//W3C//DTD SVG 1.1//EN"
"http://www.w3.org/Graphics/SVG/1.1/DTD/svg11.dtd">
<svg viewBox="0 0 935 1210" version="1.1" xmlns="http://www.w3.org/2000/svg" xmlns:xlink="http://www.w3.org/1999/xlink">
<defs>
<clipPath id="c0_2119"><path d="M97.3,59.2V41.4h72.1V59.2Z"/></clipPath>
<style type="text/css"><![CDATA[
.g0_2119{
fill: #000;
}
]]></style>
</defs>
<path d="M96.3,63.3H838.8v-.4H96.3v.4Z" class="g0_2119"/>
<path d="M96.1,1114.5h.2v-.4h-.2v.4Z" class="g0_2119"/>
<path d="M96.3,1114.5H838.9v-.4H96.3v.4Z" class="g0_2119"/>
<image clip-path="url(#c0_2119)" preserveAspectRatio="none" x="97" y="41" width="73" height="18" xlink:href="img/1.jpg"/>
<path d="M543.9,772.5h31.4v-1.1H543.9v1.1Z" class="g0_2119"/>
<path d="M95.9,580.2h.7V512.1h-.7v68.1Z" class="g0_2119"/>
<path d="M216,580.9h.7V511.4H216v69.5Z" class="g0_2119"/>
<path d="M293.3,580.9h.8V511.4h-.8v69.5Z" class="g0_2119"/>
<path d="M839.1,580.2h.7V512.1h-.7v68.1Z" class="g0_2119"/>
<path d="M95.9,512.1h744v-.7H95.9v.7Z" class="g0_2119"/>
<path d="M95.9,536.3h744v-3.1H95.9v3.1Z" class="g0_2119"/>
<path d="M95.9,558h744v-.8H95.9v.8Z" class="g0_2119"/>
<path d="M95.9,580.9h744v-.7H95.9v.7Z" class="g0_2119"/>
<path d="M95.9,980.5h.7V892.2h-.7v88.3Z" class="g0_2119"/>
<path d="M139.5,959.8h.8V889.2h-.8v70.6Z" class="g0_2119"/>
<path d="M183.2,959.8h.8V889.2h-.8v70.6Z" class="g0_2119"/>
<path d="M226.9,959.8h.7V912.1h-.7v47.7Z" class="g0_2119"/>
<path d="M270.6,959.8h.7V889.2h-.7v70.6Z" class="g0_2119"/>
<path d="M314.2,959.8h.8V889.2h-.8v70.6Z" class="g0_2119"/>
<path d="M358,959.8h.7V889.2H358v70.6Z" class="g0_2119"/>
<path d="M401.6,959.8h.7V889.2h-.7v70.6Z" class="g0_2119"/>
<path d="M445.3,959.8h.8V889.2h-.8v70.6Z" class="g0_2119"/>
<path d="M489,959.8h.7V889.2H489v70.6Z" class="g0_2119"/>
<path d="M532.7,959.8h.7V889.2h-.7v70.6Z" class="g0_2119"/>
<path d="M576.3,959.8h.7V889.2h-.7v70.6Z" class="g0_2119"/>
<path d="M620,959.8h.8V889.2H620v70.6Z" class="g0_2119"/>
<path d="M663.7,959.8h.7V889.2h-.7v70.6Z" class="g0_2119"/>
<path d="M707.4,959.8h.7V889.2h-.7v70.6Z" class="g0_2119"/>
<path d="M751,959.8h.8V889.2H751v70.6Z" class="g0_2119"/>
<path d="M794.8,959.8h.7V889.2h-.7v70.6Z" class="g0_2119"/>
<path d="M838.4,980.5h.7V892.2h-.7v88.3Z" class="g0_2119"/>
<path d="M95.9,892.3H839.1v-3H95.9v3Z" class="g0_2119"/>
<path d="M95.9,915.2H839.1v-3H95.9v3Z" class="g0_2119"/>
<path d="M95.9,936.9H839.1v-.7H95.9v.7Z" class="g0_2119"/>
<path d="M95.9,959.8H839.1v-.7H95.9v.7Z" class="g0_2119"/>
<path d="M95.9,981.2H839.1v-.7H95.9v.7Z" class="g0_2119"/>
</svg>