<?xml version="1.0" encoding="UTF-8" standalone="no"?>
<!DOCTYPE svg PUBLIC "-//W3C//DTD SVG 1.1//EN"
"http://www.w3.org/Graphics/SVG/1.1/DTD/svg11.dtd">
<svg viewBox="0 0 935 1210" version="1.1" xmlns="http://www.w3.org/2000/svg" xmlns:xlink="http://www.w3.org/1999/xlink">
<defs>
<clipPath id="c0_2196"><path d="M766.6,59.2V41.4h72.2V59.2Z"/></clipPath>
<style type="text/css"><![CDATA[
.g0_2196{
fill: #000;
}
]]></style>
</defs>
<path d="M97.4,63.3H839.9v-.4H97.4v.4Z" class="g0_2196"/>
<path d="M96.1,1114.5h.2v-.4h-.2v.4Z" class="g0_2196"/>
<path d="M96.3,1114.5H838.9v-.4H96.3v.4Z" class="g0_2196"/>
<image clip-path="url(#c0_2196)" preserveAspectRatio="none" x="767" y="41" width="72" height="18" xlink:href="img/1.jpg"/>
<path d="M548.8,327.9h31.4v-1.1H548.8v1.1Z" class="g0_2196"/>
<path d="M548.8,350.8h31.4v-1.1H548.8v1.1Z" class="g0_2196"/>
<path d="M548.8,373.7h31.4v-1.1H548.8v1.1Z" class="g0_2196"/>
<path d="M548.8,396.6h31.4v-1.1H548.8v1.1Z" class="g0_2196"/>
<path d="M95.9,989.6h.7V580.5h-.7V989.6Z" class="g0_2196"/>
<path d="M273.3,940h.8V577.5h-.8V940Z" class="g0_2196"/>
<path d="M310,940h.7V600.1H310V940Z" class="g0_2196"/>
<path d="M346.7,940h.7V600.1h-.7V940Z" class="g0_2196"/>
<path d="M383.4,940h.7V577.5h-.7V940Z" class="g0_2196"/>
<path d="M839.2,989.6h.7V580.5h-.7V989.6Z" class="g0_2196"/>
<path d="M95.9,580.6h744v-3H95.9v3Z" class="g0_2196"/>
<path d="M273.3,600.8H384.2V600H273.3v.8Z" class="g0_2196"/>
<path d="M95.9,623.3h744v-3H95.9v3Z" class="g0_2196"/>
<path d="M273.3,642H839.9v-.7H273.3v.7Z" class="g0_2196"/>
<path d="M273.3,661.9H839.9v-.7H273.3v.7Z" class="g0_2196"/>
<path d="M273.3,681.7H839.9V681H273.3v.7Z" class="g0_2196"/>
<path d="M273.3,701.6H839.9v-.7H273.3v.7Z" class="g0_2196"/>
<path d="M273.3,721.5H839.9v-.7H273.3v.7Z" class="g0_2196"/>
<path d="M273.3,741.3H839.9v-.7H273.3v.7Z" class="g0_2196"/>
<path d="M273.3,761.2H839.9v-.7H273.3v.7Z" class="g0_2196"/>
<path d="M273.3,781.1H839.9v-.7H273.3v.7Z" class="g0_2196"/>
<path d="M95.9,800.9h744v-.7H95.9v.7Z" class="g0_2196"/>
<path d="M95.9,820.8h744v-.7H95.9v.7Z" class="g0_2196"/>
<path d="M95.9,840.7h744v-.8H95.9v.8Z" class="g0_2196"/>
<path d="M273.3,860.5H839.9v-.8H273.3v.8Z" class="g0_2196"/>
<path d="M273.3,880.4H839.9v-.8H273.3v.8Z" class="g0_2196"/>
<path d="M95.9,900.3h744v-.8H95.9v.8Z" class="g0_2196"/>
<path d="M95.9,920.1h744v-.8H95.9v.8Z" class="g0_2196"/>
<path d="M95.9,940h744v-.8H95.9v.8Z" class="g0_2196"/>
<path d="M95.9,990.4h744v-.8H95.9v.8Z" class="g0_2196"/>
</svg>