<?xml version="1.0" encoding="UTF-8" standalone="no"?>
<!DOCTYPE svg PUBLIC "-//W3C//DTD SVG 1.1//EN"
"http://www.w3.org/Graphics/SVG/1.1/DTD/svg11.dtd">
<svg viewBox="0 0 935 1210" version="1.1" xmlns="http://www.w3.org/2000/svg" xmlns:xlink="http://www.w3.org/1999/xlink">
<defs>
<clipPath id="c0_1870"><path d="M766.6,59.2V41.4h72.1V59.2Z"/></clipPath>
<style type="text/css"><![CDATA[
.g0_1870{
fill: #000;
}
]]></style>
</defs>
<path d="M97.3,62.9v.3H839.9v-.3H97.3Z" class="g0_1870"/>
<path d="M96.2,1114.1h-.1v.4h.1v-.4Z" class="g0_1870"/>
<path d="M838.7,1114.1h.2v.4h-.2v-.4Z" class="g0_1870"/>
<path d="M96.2,1114.1v.4H838.7v-.4H96.2Z" class="g0_1870"/>
<image clip-path="url(#c0_1870)" preserveAspectRatio="none" x="767" y="41" width="72" height="18" xlink:href="img/1.jpg"/>
<path d="M96.2,293.4v3H838.7v-3H96.2Z" class="g0_1870"/>
<path d="M96.6,350.2h-.7v72.6h.7V350.2Z" class="g0_1870"/>
<path d="M142.8,349.4h-.7v74.2h.7V349.4Z" class="g0_1870"/>
<path d="M274.8,349.4h-.7v74.2h.7V349.4Z" class="g0_1870"/>
<path d="M839.1,350.2h-.7v72.6h.7V350.2Z" class="g0_1870"/>
<path d="M95.9,349.5v.7H839.1v-.7H95.9Z" class="g0_1870"/>
<path d="M95.9,373.9v.7H839.1v-.7H95.9Z" class="g0_1870"/>
<path d="M95.9,398.4v.7H839.1v-.7H95.9Z" class="g0_1870"/>
<path d="M95.9,422.8v.8H839.1v-.8H95.9Z" class="g0_1870"/>
<path d="M96.2,475.2v3H838.7v-3H96.2Z" class="g0_1870"/>
<path d="M96.6,532h-.7v72.6h.7V532Z" class="g0_1870"/>
<path d="M142.8,531.3h-.7v74.1h.7V531.3Z" class="g0_1870"/>
<path d="M274.8,531.3h-.7v74.1h.7V531.3Z" class="g0_1870"/>
<path d="M839.1,532h-.7v72.6h.7V532Z" class="g0_1870"/>
<path d="M95.9,531.3v.7H839.1v-.7H95.9Z" class="g0_1870"/>
<path d="M95.9,555.8v.7H839.1v-.7H95.9Z" class="g0_1870"/>
<path d="M95.9,580.1v.8H839.1v-.8H95.9Z" class="g0_1870"/>
<path d="M95.9,604.6v.8H839.1v-.8H95.9Z" class="g0_1870"/>
<path d="M96.2,657v3H838.7v-3H96.2Z" class="g0_1870"/>
<path d="M96.6,713.9h-.7V847.5h.7V713.9Z" class="g0_1870"/>
<path d="M142.8,713.1h-.7V848.3h.7V713.1Z" class="g0_1870"/>
<path d="M274.8,713.1h-.7V848.3h.7V713.1Z" class="g0_1870"/>
<path d="M839.1,713.9h-.7V847.5h.7V713.9Z" class="g0_1870"/>
<path d="M95.9,713.1v.7H839.1v-.7H95.9Z" class="g0_1870"/>
<path d="M95.9,737.5v.8H839.1v-.8H95.9Z" class="g0_1870"/>
<path d="M95.9,762v.7H839.1V762H95.9Z" class="g0_1870"/>
<path d="M95.9,804.7v.8H839.1v-.8H95.9Z" class="g0_1870"/>
<path d="M95.9,847.5v.8H839.1v-.8H95.9Z" class="g0_1870"/>
<path d="M96.2,899.9v3H838.7v-3H96.2Z" class="g0_1870"/>
</svg>