<?xml version="1.0" encoding="UTF-8" standalone="no"?>
<!DOCTYPE svg PUBLIC "-//W3C//DTD SVG 1.1//EN"
"http://www.w3.org/Graphics/SVG/1.1/DTD/svg11.dtd">
<svg viewBox="0 0 935 1210" version="1.1" xmlns="http://www.w3.org/2000/svg" xmlns:xlink="http://www.w3.org/1999/xlink">
<defs>
<clipPath id="c0_2659"><path d="M97.3,59.2V41.4h72.1V59.2Z"/></clipPath>
<style type="text/css"><![CDATA[
.g0_2659{
fill: #000;
}
]]></style>
</defs>
<path d="M96.3,63.3H838.8v-.4H96.3v.4Z" class="g0_2659"/>
<path d="M96.1,1114.5h.2v-.4h-.2v.4Z" class="g0_2659"/>
<path d="M96.3,1114.5H838.9v-.4H96.3v.4Z" class="g0_2659"/>
<image clip-path="url(#c0_2659)" preserveAspectRatio="none" x="97" y="41" width="73" height="18" xlink:href="img/1.jpg"/>
<path d="M564.3,879.5h31.3v-1.1H564.3v1.1Z" class="g0_2659"/>
<path d="M685.9,879.5h28.9v-1.1H685.9v1.1Z" class="g0_2659"/>
<path d="M564.3,902.4h31.3v-1.1H564.3v1.1Z" class="g0_2659"/>
<path d="M685.9,902.4h28.9v-1.1H685.9v1.1Z" class="g0_2659"/>
<path d="M95.9,733h.7V687.9h-.7V733Z" class="g0_2659"/>
<path d="M246.3,733.7h.7V687.1h-.7v46.6Z" class="g0_2659"/>
<path d="M316.6,733.7h.8V687.1h-.8v46.6Z" class="g0_2659"/>
<path d="M838.8,733h.7V687.9h-.7V733Z" class="g0_2659"/>
<path d="M95.9,687.9H839.5v-.8H95.9v.8Z" class="g0_2659"/>
<path d="M95.9,712H839.5v-3.1H95.9V712Z" class="g0_2659"/>
<path d="M95.9,733.7H839.5V733H95.9v.7Z" class="g0_2659"/>
</svg>