<?xml version="1.0" encoding="UTF-8" standalone="no"?>
<!DOCTYPE svg PUBLIC "-//W3C//DTD SVG 1.1//EN"
"http://www.w3.org/Graphics/SVG/1.1/DTD/svg11.dtd">
<svg viewBox="0 0 935 1210" version="1.1" xmlns="http://www.w3.org/2000/svg" xmlns:xlink="http://www.w3.org/1999/xlink">
<defs>
<clipPath id="c0_2244"><path d="M766.6,59.2V41.4h72.2V59.2Z"/></clipPath>
<style type="text/css"><![CDATA[
.g0_2244{
fill: #000;
}
]]></style>
</defs>
<path d="M97.4,63.3H839.9v-.4H97.4v.4Z" class="g0_2244"/>
<path d="M96.1,1114.5h.2v-.4h-.2v.4Z" class="g0_2244"/>
<path d="M96.3,1114.5H838.9v-.4H96.3v.4Z" class="g0_2244"/>
<image clip-path="url(#c0_2244)" preserveAspectRatio="none" x="767" y="41" width="72" height="18" xlink:href="img/1.jpg"/>
<path d="M95.9,1058.4h.7V967.5h-.7v90.9Z" class="g0_2244"/>
<path d="M245.6,1059.1h.7V966.7h-.7v92.4Z" class="g0_2244"/>
<path d="M322.9,1059.1h.7V966.7h-.7v92.4Z" class="g0_2244"/>
<path d="M838.2,1058.4h.7V967.5h-.7v90.9Z" class="g0_2244"/>
<path d="M95.9,967.5h743v-.8H95.9v.8Z" class="g0_2244"/>
<path d="M95.9,991.6h743v-3.1H95.9v3.1Z" class="g0_2244"/>
<path d="M95.9,1013.3h743v-.7H95.9v.7Z" class="g0_2244"/>
<path d="M95.9,1036.2h743v-.7H95.9v.7Z" class="g0_2244"/>
<path d="M95.9,1059.1h743v-.7H95.9v.7Z" class="g0_2244"/>
</svg>