<?xml version="1.0" encoding="UTF-8" standalone="no"?>
<!DOCTYPE svg PUBLIC "-//W3C//DTD SVG 1.1//EN"
"http://www.w3.org/Graphics/SVG/1.1/DTD/svg11.dtd">
<svg viewBox="0 0 935 1210" version="1.1" xmlns="http://www.w3.org/2000/svg" xmlns:xlink="http://www.w3.org/1999/xlink">
<defs>
<style type="text/css"><![CDATA[
.g0_54{
fill: none;
stroke: #000;
stroke-width: 0.608;
stroke-miterlimit: 10;
}
.g1_54{
fill: none;
stroke: #000;
stroke-width: 1.521;
stroke-miterlimit: 10;
}
]]></style>
</defs>
<path d="M160,103.8H775m-614.7,21V104.1M236,124.8V104.1m99.4,20.7V104.1m439.3,20.7V104.1M160,125.1H775m-614.7,21V125.4M236,146.1V125.4m99.4,20.7V125.4m439.3,20.7V125.4M160,146.4H775m-614.7,21V146.7M236,167.4V146.7m99.4,20.7V146.7m439.3,20.7V146.7M160.3,188.1V167.4M236,188.1V167.4m99.4,20.7V167.4m439.3,20.7V167.4M160,188.4H775M160.3,209.5V188.8M236,209.5V188.8m99.4,20.7V188.8m439.3,20.7V188.8M160.3,230.2V209.5M236,230.2V209.5m99.4,20.7V209.5m439.3,20.7V209.5M160,230.5H775m-614.7,21V230.8M236,251.5V230.8m99.4,20.7V230.8m439.3,20.7V230.8M160.3,272.2V251.5M236,272.2V251.5m99.4,20.7V251.5m439.3,20.7V251.5M160.3,292.9V272.2M236,292.9V272.2m99.4,20.7V272.2m439.3,20.7V272.2M160.3,313.6V292.9M236,313.6V292.9m99.4,20.7V292.9m439.3,20.7V292.9M160.3,334.3V313.6M236,334.3V313.6m99.4,20.7V313.6m439.3,20.7V313.6M160,334.6H775m-614.7,21V334.9M236,355.6V334.9m99.4,20.7V334.9m439.3,20.7V334.9M160.3,376.3V355.6M236,376.3V355.6m99.4,20.7V355.6m439.3,20.7V355.6M160,376.6H775m-614.7,21V376.9M236,397.6V376.9m99.4,20.7V376.9m439.3,20.7V376.9M160.3,418.3V397.6M236,418.3V397.6m99.4,20.7V397.6m439.3,20.7V397.6M160,418.6H775m-614.7,21V418.9M236,439.6V418.9m99.4,20.7V418.9m439.3,20.7V418.9M160.3,460.3V439.6M236,460.3V439.6m99.4,20.7V439.6m439.3,20.7V439.6M160,460.6H775m-614.7,21V460.9M236,481.6V460.9m99.4,20.7V460.9m439.3,20.7V460.9M160.3,502.3V481.6M236,502.3V481.6m99.4,20.7V481.6m439.3,20.7V481.6M160,502.6H775" class="g0_54"/>
<path d="M151.7,703.5H783.3M151.7,858.3H783.3M151.7,940.1H783.3" class="g1_54"/>
</svg>