<?xml version="1.0" encoding="UTF-8" standalone="no"?>
<!DOCTYPE svg PUBLIC "-//W3C//DTD SVG 1.1//EN"
"http://www.w3.org/Graphics/SVG/1.1/DTD/svg11.dtd">
<svg viewBox="0 0 935 1210" version="1.1" xmlns="http://www.w3.org/2000/svg" xmlns:xlink="http://www.w3.org/1999/xlink">
<defs>
<style type="text/css"><![CDATA[
.g0_99{
fill: #FFF;
}
.g1_99{
fill: #000;
}
]]></style>
</defs>
<path d="M68.9,1149.3H852.7v-21.2H68.9v21.2Z" class="g0_99"/>
<path d="M69.9,254.7h.8V124.1h-.8V254.7Z" class="g1_99"/>
<path d="M157.7,255.6h.7V123.4h-.7V255.6Z" class="g1_99"/>
<path d="M218.1,231.1h.7V123.4h-.7V231.1Z" class="g1_99"/>
<path d="M322.8,255.6h.7V123.4h-.7V255.6Z" class="g1_99"/>
<path d="M409.8,173.1h.8V147.9h-.8v25.2Z" class="g1_99"/>
<path d="M499.4,173.1h.7V147.9h-.7v25.2Z" class="g1_99"/>
<path d="M597.7,173.1h.7V147.9h-.7v25.2Z" class="g1_99"/>
<path d="M684.8,173.1h.7V147.9h-.7v25.2Z" class="g1_99"/>
<path d="M765.6,173.1h.7V147.9h-.7v25.2Z" class="g1_99"/>
<path d="M854,254.7h.7V124.1H854V254.7Z" class="g1_99"/>
<path d="M69.9,124.1H854.7v-.7H69.9v.7Z" class="g1_99"/>
<path d="M322.7,148.6h532v-.7h-532v.7Z" class="g1_99"/>
<path d="M69.9,173H854.7v-.8H69.9v.8Z" class="g1_99"/>
<path d="M69.9,231.1H854.7v-.7H69.9v.7Z" class="g1_99"/>
<path d="M69.9,255.5H854.7v-.8H69.9v.8Z" class="g1_99"/>
</svg>