<?xml version="1.0" encoding="UTF-8" standalone="no"?>
<!DOCTYPE svg PUBLIC "-//W3C//DTD SVG 1.1//EN"
"http://www.w3.org/Graphics/SVG/1.1/DTD/svg11.dtd">
<svg viewBox="0 0 935 1210" version="1.1" xmlns="http://www.w3.org/2000/svg" xmlns:xlink="http://www.w3.org/1999/xlink">
<defs>
<clipPath id="c0_1316"><path d="M766.6,59.2V41.4h72.1V59.2Z"/></clipPath>
<style type="text/css"><![CDATA[
.g0_1316{
fill: #000;
}
.g1_1316{
fill: none;
stroke: #000;
stroke-width: 0.763;
}
.g2_1316{
fill: #FFF;
}
]]></style>
</defs>
<path d="M97.3,62.9v.3H839.9v-.3H97.3Z" class="g0_1316"/>
<path d="M96.2,1114.1h-.1v.4h.1v-.4Z" class="g0_1316"/>
<path d="M838.7,1114.1h.2v.4h-.2v-.4Z" class="g0_1316"/>
<path d="M96.2,1114.1v.4H838.7v-.4H96.2Z" class="g0_1316"/>
<image clip-path="url(#c0_1316)" preserveAspectRatio="none" x="767" y="41" width="72" height="18" xlink:href="img/1.jpg"/>
<path d="M469.5,247.8H635.3v-31H469.5v31Z" class="g0_1316"/>
<path d="M469.5,247.8H635.3v-31H469.5v31Z" class="g1_1316"/>
<path d="M469.4,247.8h5.5v-31h-5.5v31Z" class="g0_1316"/>
<path d="M469.4,247.8h5.5v-31h-5.5v31Z" class="g1_1316"/>
<path d="M475.1,247.8h41.4v-31H475.1v31Z" class="g0_1316"/>
<path d="M475.1,247.8h41.4v-31H475.1v31Z" class="g1_1316"/>
<path d="M303.8,247.8H469.6v-31H303.8v31Z" class="g0_1316"/>
<path d="M303.8,247.8H469.6v-31H303.8v31Z" class="g1_1316"/>
<path d="M303.6,247.8h5.5v-31h-5.5v31Z" class="g0_1316"/>
<path d="M303.6,247.8h5.5v-31h-5.5v31Z" class="g1_1316"/>
<path d="M309.3,247.8h41.5v-31H309.3v31Z" class="g0_1316"/>
<path d="M309.3,247.8h41.5v-31H309.3v31Z" class="g1_1316"/>
<path d="M467.3,245.6H633.1v-31H467.3v31Z" class="g2_1316"/>
<path d="M467.3,245.6H633.1v-31H467.3v31Z" class="g1_1316"/>
<path d="M467.2,245.6h5.5v-31h-5.5v31Z" class="g2_1316"/>
<path d="M467.2,245.6h5.5v-31h-5.5v31Z" class="g1_1316"/>
<path d="M472.9,245.6h41.4v-31H472.9v31Z" class="g2_1316"/>
<path d="M472.9,245.6h41.4v-31H472.9v31Z" class="g1_1316"/>
<path d="M301.5,245.6H467.3v-31H301.5v31Z" class="g2_1316"/>
<path d="M301.5,245.6H467.3v-31H301.5v31Z" class="g1_1316"/>
<path d="M301.4,245.6h5.5v-31h-5.5v31Z" class="g2_1316"/>
<path d="M301.4,245.6h5.5v-31h-5.5v31Z" class="g1_1316"/>
<path d="M307.1,245.6h41.5v-31H307.1v31Z" class="g2_1316"/>
<path d="M307.1,245.6h41.5v-31H307.1v31Z" class="g1_1316"/>
<path d="M552.3,383.2h82.9v-31H552.3v31Z" class="g0_1316"/>
<path d="M552.3,383.2h82.9v-31H552.3v31Z" class="g1_1316"/>
<path d="M552.3,383.2h5.6v-31h-5.6v31Z" class="g0_1316"/>
<path d="M552.3,383.2h5.6v-31h-5.6v31Z" class="g1_1316"/>
<path d="M469.4,383.2h82.9v-31H469.4v31Z" class="g0_1316"/>
<path d="M469.4,383.2h82.9v-31H469.4v31Z" class="g1_1316"/>
<path d="M469.4,383.2H475v-31h-5.6v31Z" class="g0_1316"/>
<path d="M469.4,383.2H475v-31h-5.6v31Z" class="g1_1316"/>
<path d="M386.5,383.2h82.9v-31H386.5v31Z" class="g0_1316"/>
<path d="M386.5,383.2h82.9v-31H386.5v31Z" class="g1_1316"/>
<path d="M386.6,383.2h5.5v-31h-5.5v31Z" class="g0_1316"/>
<path d="M386.6,383.2h5.5v-31h-5.5v31Z" class="g1_1316"/>
<path d="M303.6,383.2h82.9v-31H303.6v31Z" class="g0_1316"/>
<path d="M303.6,383.2h82.9v-31H303.6v31Z" class="g1_1316"/>
<path d="M303.1,383.2h5.5v-31h-5.5v31Z" class="g0_1316"/>
<path d="M303.1,383.2h5.5v-31h-5.5v31Z" class="g1_1316"/>
<path d="M469.4,352.3H635.2v-31H469.4v31Z" class="g0_1316"/>
<path d="M469.4,352.3H635.2v-31H469.4v31Z" class="g1_1316"/>
<path d="M469.2,352.3h5.5v-31h-5.5v31Z" class="g0_1316"/>
<path d="M469.2,352.3h5.5v-31h-5.5v31Z" class="g1_1316"/>
<path d="M303.6,352.3H469.4v-31H303.6v31Z" class="g0_1316"/>
<path d="M303.6,352.3H469.4v-31H303.6v31Z" class="g1_1316"/>
<path d="M303.4,352.3H309v-31h-5.6v31Z" class="g0_1316"/>
<path d="M303.4,352.3H309v-31h-5.6v31Z" class="g1_1316"/>
<path d="M593.7,414.2h41.5v-31H593.7v31Z" class="g0_1316"/>
<path d="M593.7,414.2h41.5v-31H593.7v31Z" class="g1_1316"/>
<path d="M593.7,414.2h5.5v-31h-5.5v31Z" class="g0_1316"/>
<path d="M593.7,414.2h5.5v-31h-5.5v31Z" class="g1_1316"/>
<path d="M552.3,414.2h41.4v-31H552.3v31Z" class="g0_1316"/>
<path d="M552.3,414.2h41.4v-31H552.3v31Z" class="g1_1316"/>
<path d="M552.3,414.2h5.5v-31h-5.5v31Z" class="g0_1316"/>
<path d="M552.3,414.2h5.5v-31h-5.5v31Z" class="g1_1316"/>
<path d="M510.8,414.2h41.5v-31H510.8v31Z" class="g0_1316"/>
<path d="M510.8,414.2h41.5v-31H510.8v31Z" class="g1_1316"/>
<path d="M510.8,414.2h5.6v-31h-5.6v31Z" class="g0_1316"/>
<path d="M510.8,414.2h5.6v-31h-5.6v31Z" class="g1_1316"/>
<path d="M469.4,414.2h41.4v-31H469.4v31Z" class="g0_1316"/>
<path d="M469.4,414.2h41.4v-31H469.4v31Z" class="g1_1316"/>
<path d="M469.4,414.2h5.5v-31h-5.5v31Z" class="g0_1316"/>
<path d="M469.4,414.2h5.5v-31h-5.5v31Z" class="g1_1316"/>
<path d="M427.9,414.2h41.5v-31H427.9v31Z" class="g0_1316"/>
<path d="M427.9,414.2h41.5v-31H427.9v31Z" class="g1_1316"/>
<path d="M427.9,414.2h5.6v-31h-5.6v31Z" class="g0_1316"/>
<path d="M427.9,414.2h5.6v-31h-5.6v31Z" class="g1_1316"/>
<path d="M386.5,414.2h41.4v-31H386.5v31Z" class="g0_1316"/>
<path d="M386.5,414.2h41.4v-31H386.5v31Z" class="g1_1316"/>
<path d="M386.5,414.2H392v-31h-5.5v31Z" class="g0_1316"/>
<path d="M386.5,414.2H392v-31h-5.5v31Z" class="g1_1316"/>
<path d="M344.7,414.2h41.8v-31H344.7v31Z" class="g0_1316"/>
<path d="M344.7,414.2h41.8v-31H344.7v31Z" class="g1_1316"/>
<path d="M344.7,414.2h5.5v-31h-5.5v31Z" class="g0_1316"/>
<path d="M344.7,414.2h5.5v-31h-5.5v31Z" class="g1_1316"/>
<path d="M303.2,414.2h41.5v-31H303.2v31Z" class="g0_1316"/>
<path d="M303.2,414.2h41.5v-31H303.2v31Z" class="g1_1316"/>
<path d="M303.2,414.2h5.6v-31h-5.6v31Z" class="g0_1316"/>
<path d="M303.2,414.2h5.6v-31h-5.6v31Z" class="g1_1316"/>
<path d="M550.1,381H633V350H550.1v31Z" class="g2_1316"/>
<path d="M550.1,381H633V350H550.1v31Z" class="g1_1316"/>
<path d="M550.1,381h5.6V350h-5.6v31Z" class="g2_1316"/>
<path d="M550.1,381h5.6V350h-5.6v31Z" class="g1_1316"/>
<path d="M467.2,381h82.9V350H467.2v31Z" class="g2_1316"/>
<path d="M467.2,381h82.9V350H467.2v31Z" class="g1_1316"/>
<path d="M467.2,381h5.6V350h-5.6v31Z" class="g2_1316"/>
<path d="M467.2,381h5.6V350h-5.6v31Z" class="g1_1316"/>
<path d="M384.3,381h82.9V350H384.3v31Z" class="g2_1316"/>
<path d="M384.3,381h82.9V350H384.3v31Z" class="g1_1316"/>
<path d="M384.4,381h5.5V350h-5.5v31Z" class="g2_1316"/>
<path d="M384.4,381h5.5V350h-5.5v31Z" class="g1_1316"/>
<path d="M301.4,381h82.9V350H301.4v31Z" class="g2_1316"/>
<path d="M301.4,381h82.9V350H301.4v31Z" class="g1_1316"/>
<path d="M300.9,381h5.5V350h-5.5v31Z" class="g2_1316"/>
<path d="M300.9,381h5.5V350h-5.5v31Z" class="g1_1316"/>
<path d="M467.2,350.1H633v-31H467.2v31Z" class="g2_1316"/>
<path d="M467.2,350.1H633v-31H467.2v31Z" class="g1_1316"/>
<path d="M467,350.1h5.5v-31H467v31Z" class="g2_1316"/>
<path d="M467,350.1h5.5v-31H467v31Z" class="g1_1316"/>
<path d="M301.4,350.1H467.2v-31H301.4v31Z" class="g2_1316"/>
<path d="M301.4,350.1H467.2v-31H301.4v31Z" class="g1_1316"/>
<path d="M301.2,350.1h5.6v-31h-5.6v31Z" class="g2_1316"/>
<path d="M301.2,350.1h5.6v-31h-5.6v31Z" class="g1_1316"/>
<path d="M591.5,412H633V381H591.5v31Z" class="g2_1316"/>
<path d="M591.5,412H633V381H591.5v31Z" class="g1_1316"/>
<path d="M591.5,412H597V381h-5.5v31Z" class="g2_1316"/>
<path d="M591.5,412H597V381h-5.5v31Z" class="g1_1316"/>
<path d="M550.1,412h41.4V381H550.1v31Z" class="g2_1316"/>
<path d="M550.1,412h41.4V381H550.1v31Z" class="g1_1316"/>
<path d="M550.1,412h5.5V381h-5.5v31Z" class="g2_1316"/>
<path d="M550.1,412h5.5V381h-5.5v31Z" class="g1_1316"/>
<path d="M508.6,412h41.5V381H508.6v31Z" class="g2_1316"/>
<path d="M508.6,412h41.5V381H508.6v31Z" class="g1_1316"/>
<path d="M508.6,412h5.6V381h-5.6v31Z" class="g2_1316"/>
<path d="M508.6,412h5.6V381h-5.6v31Z" class="g1_1316"/>
<path d="M467.2,412h41.4V381H467.2v31Z" class="g2_1316"/>
<path d="M467.2,412h41.4V381H467.2v31Z" class="g1_1316"/>
<path d="M467.2,412h5.5V381h-5.5v31Z" class="g2_1316"/>
<path d="M467.2,412h5.5V381h-5.5v31Z" class="g1_1316"/>
<path d="M425.7,412h41.5V381H425.7v31Z" class="g2_1316"/>
<path d="M425.7,412h41.5V381H425.7v31Z" class="g1_1316"/>
<path d="M425.7,412h5.6V381h-5.6v31Z" class="g2_1316"/>
<path d="M425.7,412h5.6V381h-5.6v31Z" class="g1_1316"/>
<path d="M384.3,412h41.4V381H384.3v31Z" class="g2_1316"/>
<path d="M384.3,412h41.4V381H384.3v31Z" class="g1_1316"/>
<path d="M384.3,412h5.5V381h-5.5v31Z" class="g2_1316"/>
<path d="M384.3,412h5.5V381h-5.5v31Z" class="g1_1316"/>
<path d="M342.5,412h41.8V381H342.5v31Z" class="g2_1316"/>
<path d="M342.5,412h41.8V381H342.5v31Z" class="g1_1316"/>
<path d="M342.5,412H348V381h-5.5v31Z" class="g2_1316"/>
<path d="M342.5,412H348V381h-5.5v31Z" class="g1_1316"/>
<path d="M301,412h41.5V381H301v31Z" class="g2_1316"/>
<path d="M301,412h41.5V381H301v31Z" class="g1_1316"/>
<path d="M301,412h5.6V381H301v31Z" class="g2_1316"/>
<path d="M301,412h5.6V381H301v31Z" class="g1_1316"/>
<path d="M469.4,522.5H635.2v-31H469.4v31Z" class="g0_1316"/>
<path d="M469.4,522.5H635.2v-31H469.4v31Z" class="g1_1316"/>
<path d="M303.6,522.5H469.4v-31H303.6v31Z" class="g0_1316"/>
<path d="M303.6,522.5H469.4v-31H303.6v31Z" class="g1_1316"/>
<path d="M552.3,553.5h82.9V522.4H552.3v31.1Z" class="g0_1316"/>
<path d="M552.3,553.5h82.9V522.4H552.3v31.1Z" class="g1_1316"/>
<path d="M469.4,553.5h82.9V522.4H469.4v31.1Z" class="g0_1316"/>
<path d="M469.4,553.5h82.9V522.4H469.4v31.1Z" class="g1_1316"/>
<path d="M386.5,553.5h82.9V522.4H386.5v31.1Z" class="g0_1316"/>
<path d="M386.5,553.5h82.9V522.4H386.5v31.1Z" class="g1_1316"/>
<path d="M303.6,553.5h82.9V522.4H303.6v31.1Z" class="g0_1316"/>
<path d="M303.6,553.5h82.9V522.4H303.6v31.1Z" class="g1_1316"/>
<path d="M593.7,584.4h41.5v-31H593.7v31Z" class="g0_1316"/>
<path d="M593.7,584.4h41.5v-31H593.7v31Z" class="g1_1316"/>
<path d="M552.3,584.4h41.4v-31H552.3v31Z" class="g0_1316"/>
<path d="M552.3,584.4h41.4v-31H552.3v31Z" class="g1_1316"/>
<path d="M510.8,584.4h41.5v-31H510.8v31Z" class="g0_1316"/>
<path d="M510.8,584.4h41.5v-31H510.8v31Z" class="g1_1316"/>
<path d="M469.4,584.4h41.4v-31H469.4v31Z" class="g0_1316"/>
<path d="M469.4,584.4h41.4v-31H469.4v31Z" class="g1_1316"/>
<path d="M427.9,584.4h41.5v-31H427.9v31Z" class="g0_1316"/>
<path d="M427.9,584.4h41.5v-31H427.9v31Z" class="g1_1316"/>
<path d="M386.5,584.4h41.4v-31H386.5v31Z" class="g0_1316"/>
<path d="M386.5,584.4h41.4v-31H386.5v31Z" class="g1_1316"/>
<path d="M344.7,584.4h41.8v-31H344.7v31Z" class="g0_1316"/>
<path d="M344.7,584.4h41.8v-31H344.7v31Z" class="g1_1316"/>
<path d="M303.2,584.4h41.5v-31H303.2v31Z" class="g0_1316"/>
<path d="M303.2,584.4h41.5v-31H303.2v31Z" class="g1_1316"/>
<path d="M467.2,520.3H633v-31H467.2v31Z" class="g2_1316"/>
<path d="M467.2,520.3H633v-31H467.2v31Z" class="g1_1316"/>
<path d="M301.4,520.3H467.2v-31H301.4v31Z" class="g2_1316"/>
<path d="M301.4,520.3H467.2v-31H301.4v31Z" class="g1_1316"/>
<path d="M550.1,551.3H633V520.2H550.1v31.1Z" class="g2_1316"/>
<path d="M550.1,551.3H633V520.2H550.1v31.1Z" class="g1_1316"/>
<path d="M467.2,551.3h82.9V520.2H467.2v31.1Z" class="g2_1316"/>
<path d="M467.2,551.3h82.9V520.2H467.2v31.1Z" class="g1_1316"/>
<path d="M384.3,551.3h82.9V520.2H384.3v31.1Z" class="g2_1316"/>
<path d="M384.3,551.3h82.9V520.2H384.3v31.1Z" class="g1_1316"/>
<path d="M301.4,551.3h82.9V520.2H301.4v31.1Z" class="g2_1316"/>
<path d="M301.4,551.3h82.9V520.2H301.4v31.1Z" class="g1_1316"/>
<path d="M591.5,582.2H633v-31H591.5v31Z" class="g2_1316"/>
<path d="M591.5,582.2H633v-31H591.5v31Z" class="g1_1316"/>
<path d="M550.1,582.2h41.4v-31H550.1v31Z" class="g2_1316"/>
<path d="M550.1,582.2h41.4v-31H550.1v31Z" class="g1_1316"/>
<path d="M508.6,582.2h41.5v-31H508.6v31Z" class="g2_1316"/>
<path d="M508.6,582.2h41.5v-31H508.6v31Z" class="g1_1316"/>
<path d="M467.2,582.2h41.4v-31H467.2v31Z" class="g2_1316"/>
<path d="M467.2,582.2h41.4v-31H467.2v31Z" class="g1_1316"/>
<path d="M425.7,582.2h41.5v-31H425.7v31Z" class="g2_1316"/>
<path d="M425.7,582.2h41.5v-31H425.7v31Z" class="g1_1316"/>
<path d="M384.3,582.2h41.4v-31H384.3v31Z" class="g2_1316"/>
<path d="M384.3,582.2h41.4v-31H384.3v31Z" class="g1_1316"/>
<path d="M342.5,582.2h41.8v-31H342.5v31Z" class="g2_1316"/>
<path d="M342.5,582.2h41.8v-31H342.5v31Z" class="g1_1316"/>
<path d="M301,582.2h41.5v-31H301v31Z" class="g2_1316"/>
<path d="M301,582.2h41.5v-31H301v31Z" class="g1_1316"/>
<path d="M468.6,723H634.4V692H468.6v31Z" class="g0_1316"/>
<path d="M468.6,723H634.4V692H468.6v31Z" class="g1_1316"/>
<path d="M551.5,754h82.9V723H551.5v31Z" class="g0_1316"/>
<path d="M551.5,754h82.9V723H551.5v31Z" class="g1_1316"/>
<path d="M592.9,784.9h41.5v-31H592.9v31Z" class="g0_1316"/>
<path d="M592.9,784.9h41.5v-31H592.9v31Z" class="g1_1316"/>
<path d="M302.8,692.1H634.4v-31H302.8v31Z" class="g0_1316"/>
<path d="M302.8,692.1H634.4v-31H302.8v31Z" class="g1_1316"/>
<path d="M466.4,720.8H632.2v-31H466.4v31Z" class="g2_1316"/>
<path d="M466.4,720.8H632.2v-31H466.4v31Z" class="g1_1316"/>
<path d="M549.3,751.8h82.9v-31H549.3v31Z" class="g2_1316"/>
<path d="M549.3,751.8h82.9v-31H549.3v31Z" class="g1_1316"/>
<path d="M590.7,782.7h41.5v-31H590.7v31Z" class="g2_1316"/>
<path d="M590.7,782.7h41.5v-31H590.7v31Z" class="g1_1316"/>
<path d="M300.6,689.9H632.2v-31H300.6v31Z" class="g2_1316"/>
<path d="M300.6,689.9H632.2v-31H300.6v31Z" class="g1_1316"/>
<path d="M590.7,782.7h5.6v-31h-5.6v31Z" class="g2_1316"/>
<path d="M590.7,782.7h5.6v-31h-5.6v31Z" class="g1_1316"/>
<path d="M549.5,751.8H555v-31h-5.5v31Z" class="g2_1316"/>
<path d="M549.5,751.8H555v-31h-5.5v31Z" class="g1_1316"/>
<path d="M466.2,720.8h5.6v-31h-5.6v31Z" class="g2_1316"/>
<path d="M466.2,720.8h5.6v-31h-5.6v31Z" class="g1_1316"/>
<path d="M300.5,689.9H306v-31h-5.5v31Z" class="g2_1316"/>
<path d="M300.5,689.9H306v-31h-5.5v31Z" class="g1_1316"/>
<path d="M629.1,995.5h5V964.4h-5v31.1Z" class="g0_1316"/>
<path d="M629.1,995.5h5V964.4h-5v31.1Z" class="g1_1316"/>
<path d="M468.3,902.8H634.1V871.7H468.3v31.1Z" class="g0_1316"/>
<path d="M468.3,902.8H634.1V871.7H468.3v31.1Z" class="g1_1316"/>
<path d="M551.2,933.7h82.9v-31H551.2v31Z" class="g0_1316"/>
<path d="M551.2,933.7h82.9v-31H551.2v31Z" class="g1_1316"/>
<path d="M592.7,964.6h41.4v-31H592.7v31Z" class="g0_1316"/>
<path d="M592.7,964.6h41.4v-31H592.7v31Z" class="g1_1316"/>
<path d="M302.6,871.8H634.1v-31H302.6v31Z" class="g0_1316"/>
<path d="M302.6,871.8H634.1v-31H302.6v31Z" class="g1_1316"/>
<path d="M466.1,900.6H631.9V869.5H466.1v31.1Z" class="g2_1316"/>
<path d="M466.1,900.6H631.9V869.5H466.1v31.1Z" class="g1_1316"/>
<path d="M549,931.5h82.9v-31H549v31Z" class="g2_1316"/>
<path d="M549,931.5h82.9v-31H549v31Z" class="g1_1316"/>
<path d="M590.5,962.4h41.4v-31H590.5v31Z" class="g2_1316"/>
<path d="M590.5,962.4h41.4v-31H590.5v31Z" class="g1_1316"/>
<path d="M626.9,993.3h5V962.2h-5v31.1Z" class="g2_1316"/>
<path d="M626.9,993.3h5V962.2h-5v31.1Z" class="g1_1316"/>
<path d="M300.4,869.6H631.9v-31H300.4v31Z" class="g2_1316"/>
<path d="M300.4,869.6H631.9v-31H300.4v31Z" class="g1_1316"/>
</svg>