<?xml version="1.0" encoding="UTF-8" standalone="no"?>
<!DOCTYPE svg PUBLIC "-//W3C//DTD SVG 1.1//EN"
"http://www.w3.org/Graphics/SVG/1.1/DTD/svg11.dtd">
<svg viewBox="0 0 935 1210" version="1.1" xmlns="http://www.w3.org/2000/svg" xmlns:xlink="http://www.w3.org/1999/xlink">
<defs>
<clipPath id="c0_429"><path d="M766.6,59.2V41.4h72.1V59.2Z"/></clipPath>
<clipPath id="c1_429"><path d="M96.2,196V178.2H838.7V196Z"/></clipPath>
<clipPath id="c2_429"><path d="M470.6,371.5v-1.1h1v1.1Z"/></clipPath>
<style type="text/css"><![CDATA[
.g0_429{
fill: #000;
}
.g1_429{
fill: #FFF;
}
]]></style>
</defs>
<path d="M97.3,62.9v.3H839.9v-.3H97.3Z" class="g0_429"/>
<path d="M96.2,1114.1h-.1v.3h.1v-.3Z" class="g0_429"/>
<path d="M838.7,1114.1h.2v.3h-.2v-.3Z" class="g0_429"/>
<path d="M96.2,1114.1v.3H838.7v-.3H96.2Z" class="g0_429"/>
<image clip-path="url(#c0_429)" preserveAspectRatio="none" x="767" y="41" width="72" height="18" xlink:href="img/1.jpg"/>
<g clip-path="url(#c1_429)">
<path d="M96.2,179.3h-.1v.4h.1v-.4Z" class="g0_429"/>
<path d="M838.7,179.3h.2v.4h-.2v-.4Z" class="g0_429"/>
</g>
<path d="M96.2,179.3v.4H838.7v-.4H96.2Z" class="g0_429"/>
<path d="M98.8,224.4h-.7V778.9h.7V224.4Z" class="g0_429"/>
<path d="M239.3,223.7h-.7v556h.7v-556Z" class="g0_429"/>
<path d="M328.1,223.7h-.8v556h.8v-556Z" class="g0_429"/>
<path d="M836.9,224.4h-.8V778.9h.8V224.4Z" class="g0_429"/>
<path d="M98.1,223.7v.7H836.9v-.7H98.1Z" class="g0_429"/>
<path d="M98.1,260.3v.8H836.9v-.8H98.1Z" class="g0_429"/>
<path d="M98.1,594.8v.7H836.9v-.7H98.1Z" class="g0_429"/>
<path d="M98.1,779v.7H836.9V779H98.1Z" class="g0_429"/>
<path d="M65.6,269.9h3.1V589H65.6V269.9Z" class="g0_429"/>
<path clip-path="url(#c2_429)" d="M470.6,370.4h1v1.1h-1v-1.1Z" class="g1_429"/>
</svg>