<?xml version="1.0" encoding="UTF-8" standalone="no"?>
<!DOCTYPE svg PUBLIC "-//W3C//DTD SVG 1.1//EN"
"http://www.w3.org/Graphics/SVG/1.1/DTD/svg11.dtd">
<svg viewBox="0 0 935 1210" version="1.1" xmlns="http://www.w3.org/2000/svg" xmlns:xlink="http://www.w3.org/1999/xlink">
<defs>
<style type="text/css"><![CDATA[
.g0_2786{
fill: #FFF;
}
.g1_2786{
fill: #000;
}
]]></style>
</defs>
<path d="M165,1149.3H852.5v-21.2H165v21.2Z" class="g0_2786"/>
<path d="M68.8,1149.3h82.5v-21.2H68.8v21.2Z" class="g0_2786"/>
<path d="M68.6,395.5h.7V158h-.7V395.5Z" class="g1_2786"/>
<path d="M176.7,396.4h.8V157.2h-.8V396.4Z" class="g1_2786"/>
<path d="M349.3,396.4h.7V157.2h-.7V396.4Z" class="g1_2786"/>
<path d="M851.2,395.5h.7V158h-.7V395.5Z" class="g1_2786"/>
<path d="M68.6,157.9H852v-.7H68.6v.7Z" class="g1_2786"/>
<path d="M68.6,187H852v-.7H68.6v.7Z" class="g1_2786"/>
<path d="M68.6,266.5H852v-.8H68.6v.8Z" class="g1_2786"/>
<path d="M68.6,367.3H852v-.7H68.6v.7Z" class="g1_2786"/>
<path d="M68.6,396.4H852v-.8H68.6v.8Z" class="g1_2786"/>
</svg>