<?xml version="1.0" encoding="UTF-8" standalone="no"?>
<!DOCTYPE svg PUBLIC "-//W3C//DTD SVG 1.1//EN"
"http://www.w3.org/Graphics/SVG/1.1/DTD/svg11.dtd">
<svg viewBox="0 0 935 1210" version="1.1" xmlns="http://www.w3.org/2000/svg" xmlns:xlink="http://www.w3.org/1999/xlink">
<defs>
<style type="text/css"><![CDATA[
.g0_4849{
fill: #FFF;
}
.g1_4849{
fill: #000;
}
]]></style>
</defs>
<path d="M68.9,1149.3H852.7v-21.2H68.9v21.2Z" class="g0_4849"/>
<path d="M69.9,1006.5h.8V124.1h-.8v882.4Z" class="g1_4849"/>
<path d="M126.7,1007.2h.7V164.6h-.7v842.6Z" class="g1_4849"/>
<path d="M183.4,1007.2h.8V123.4h-.8v883.8Z" class="g1_4849"/>
<path d="M440.1,1007.2h.7V123.4h-.7v883.8Z" class="g1_4849"/>
<path d="M533.4,1007.2h.7V123.4h-.7v883.8Z" class="g1_4849"/>
<path d="M853.1,1006.5h.8V124.1h-.8v882.4Z" class="g1_4849"/>
<path d="M69.9,124.1h784v-.7H69.9v.7Z" class="g1_4849"/>
<path d="M69.9,165.4H184.2v-.8H69.9v.8Z" class="g1_4849"/>
<path d="M69.9,189.8h784v-.7H69.9v.7Z" class="g1_4849"/>
<path d="M183.4,252.4H853.9v-.7H183.4v.7Z" class="g1_4849"/>
<path d="M183.4,348.7H853.9V348H183.4v.7Z" class="g1_4849"/>
<path d="M183.4,373.2H853.9v-.8H183.4v.8Z" class="g1_4849"/>
<path d="M183.4,435.8H853.9v-.7H183.4v.7Z" class="g1_4849"/>
<path d="M69.9,460.3h784v-.8H69.9v.8Z" class="g1_4849"/>
<path d="M69.9,506.1h784v-.7H69.9v.7Z" class="g1_4849"/>
<path d="M183.4,530.6H853.9v-.8H183.4v.8Z" class="g1_4849"/>
<path d="M183.4,626.8H853.9v-.7H183.4v.7Z" class="g1_4849"/>
<path d="M69.9,651.2h784v-.7H69.9v.7Z" class="g1_4849"/>
<path d="M69.9,697h784v-.7H69.9v.7Z" class="g1_4849"/>
<path d="M183.4,814.7H853.9V814H183.4v.7Z" class="g1_4849"/>
<path d="M183.4,982.8H853.9V982H183.4v.8Z" class="g1_4849"/>
<path d="M69.9,1007.2h784v-.7H69.9v.7Z" class="g1_4849"/>
</svg>