<?xml version="1.0" encoding="UTF-8" standalone="no"?>
<!DOCTYPE svg PUBLIC "-//W3C//DTD SVG 1.1//EN"
"http://www.w3.org/Graphics/SVG/1.1/DTD/svg11.dtd">
<svg viewBox="0 0 935 1210" version="1.1" xmlns="http://www.w3.org/2000/svg" xmlns:xlink="http://www.w3.org/1999/xlink">
<defs>
<style type="text/css"><![CDATA[
.g0_3882{
fill: #FFF;
}
.g1_3882{
fill: #000;
}
]]></style>
</defs>
<path d="M68.8,1149.3H852.5v-21.2H68.8v21.2Z" class="g0_3882"/>
<path d="M169.9,454.9h.7V125.7h-.7V454.9Z" class="g1_3882"/>
<path d="M750.5,454.9h.7V125.7h-.7V454.9Z" class="g1_3882"/>
<path d="M169.9,125.7H751.3v-.8H169.9v.8Z" class="g1_3882"/>
<path d="M169.9,455.7H751.3v-.8H169.9v.8Z" class="g1_3882"/>
<path d="M298.5,443.8H706.4v-281H298.5v281Z" class="g0_3882"/>
<path d="M298.5,163.2H706.7v-.8H298.5v.8Z" class="g1_3882"/>
<path d="M706,444.1h.7V162.8H706V444.1Z" class="g1_3882"/>
<path d="M298.1,444.1H706.4v-.7H298.1v.7Z" class="g1_3882"/>
<path d="M298.1,443.8h.7V162.4h-.7V443.8Z" class="g1_3882"/>
<path d="M703.5,404H709V379.3h-5.5V404Z" class="g0_3882"/>
<path d="M706.1,378.6h.7v-.4h-.7v.4Z" class="g1_3882"/>
<path d="M706.8,378.6v5.6l-5.3,3.8l-.3,.1l.2,-.6l10.5,3.9l.5,.2l-.4,.4l-.4,.1l-10.4,-4l-.8,-.3l.7,-.3l5.2,-3.9l.5,.6l-.7,-.3v-5.3Z" class="g1_3882"/>
<path d="M712,392l-5.3,3.9l-.6,-.3v-.1l.2,-.1l5.2,-4Z" class="g1_3882"/>
<path d="M706.1,406.4h.7V395.6h-.7v10.8Z" class="g1_3882"/>
<path d="M295.6,404H301V379.3h-5.4V404Z" class="g0_3882"/>
<path d="M298.2,378.6h.7v-.4h-.7v.4Z" class="g1_3882"/>
<path d="M298.9,378.6v5.5l-.1,.1l-5.2,3.8l-.4,.1l.3,-.6l10.5,3.9l.5,.2l-.4,.4l-.4,.1l-10.5,-4l-.7,-.3l.7,-.3l5.2,-3.9l.4,.6l-.6,-.3v-5.3Z" class="g1_3882"/>
<path d="M304.1,392l-5.3,3.9l-.6,-.3v-.1l.2,-.1l5.2,-4Z" class="g1_3882"/>
<path d="M298.2,406.4h.7V395.6h-.7v10.8Z" class="g1_3882"/>
<path d="M399.7,179.9h.4V163.1h-.4v16.8Z" class="g1_3882"/>
<path d="M298.5,179.9H399.9v-.4H298.5v.4Z" class="g1_3882"/>
<path d="M299.1,330.5h.2v-.4h-.2v.4Z" class="g1_3882"/>
<path d="M299.3,330.5H706.9v-.4H299.3v.4Z" class="g1_3882"/>
<path d="M720.9,289.5l.1,-.5l-1.9,-1l-.2,.5Z" class="g1_3882"/>
<path d="M719.8,288.3l.1,2.7v1.9l-1.3,-1.3l-6.1,-6l-2,-1.9l2.7,.6l8.2,1.9l1.9,.3l-1.6,1.1l-.6,.1l-8.2,-1.9l.3,-1.5l.4,.2l6.1,6l-1.1,1.1l-.3,-.6l-.1,-2.7Z" class="g1_3882"/>
<path d="M721.7,287.6l-2.3,1.3l-1.2,-.6v-.6l.4,-.1l2.3,-1.4Z" class="g1_3882"/>
<path fill-rule="evenodd" d="M719,288.3l.1,2.7l-6,-5.9l8.2,1.8Z" class="g1_3882"/>
<path d="M721.1,289.1L721,289l-.3,.4l.2,.1Z" class="g1_3882"/>
<path d="M721.1,289.1l2.1,1.3c3.5,2.1,5.3,3.7,7.6,7l.8,1.4h.1l.6,1.5l.6,1.6v.1l.2,1.4v3.1l-.6,3.1l-1.4,2.8l-.1,.1l-1.9,2.7l-1.2,1.3l-1.3,1.2l-3,2.3h-.1l-3.4,1.9v.1l-3.9,1.7l-4.3,1.2l-4.7,.7h-.1l-4.9,.3l-25.1,-.1l-23.2,-.4l-21.6,-.6L612.1,324l-70.2,-3.3l-31.2,-1.3L495.4,319L480,318.8l-15.7,.2l-16.1,.5l-16.5,.9l-17.5,1.3l-9.4,.7l-9.8,.5l-20.3,.4l-20.7,.2l-20.3,.5l-9.8,.5l-9.6,.8h.1l-.1,-.4l9.6,-.9l9.8,-.4L354,323l20.7,-.1l20.3,-.5l9.8,-.5l9.4,-.6l17.5,-1.4l16.5,-.8l16.1,-.6l15.7,-.1l15.4,.1l15.3,.4l31.2,1.3l70.2,3.4l20.2,.7l21.6,.7l23.2,.3l25.1,.1l4.9,-.3l4.7,-.7l4.3,-1.2H716l3.9,-1.6l3.4,-2l3.1,-2.3l1.3,-1.1l-.1,.1l1.2,-1.3l1.9,-2.8l1.4,-2.8v.1l.6,-3.1v-3v.1l-.3,-1.5l-.5,-1.5l-.7,-1.5l-.8,-1.4l-1.1,-1.4L728,294.7h.1l-1.5,-1.4L724.9,292L723,290.8l-2.1,-1.3Z" class="g1_3882"/>
<path d="M314.4,325.3l-9.1,1l-8.7,1.5l-7.9,1.8l-3.8,1.1l-3.6,1.3l-3.4,1.4v-.1l-3.2,1.6l-2.9,1.6h.1l-2.8,1.8l-1.9,1.7l-1.4,1.9l.1,-.1l-.8,2l-.3,2.2v-.1l.3,2.2V348l.7,2.2h-.1l1.4,2.2l1.9,2.1v-.1l2.5,2l3,1.9L278,360l4.2,1.5l4.8,1.2l5.3,.9l6,.7h-.1v.4l-6,-.6l-5.3,-.9L282.2,362h-.1l-4.3,-1.6l-3.5,-1.6v-.1l-3.1,-1.9l-2.4,-2h-.1l-1.9,-2.2l-1.4,-2.2l-.8,-2.2l-.2,-2.2v-.1l.2,-2.1v-.1l.9,-2.1l1.3,-1.9c7.9,-7,19.6,-10.3,29.7,-12.4l8.7,-1.4l9.1,-1Z" class="g1_3882"/>
<path d="M304.7,364.9h.2v-.4h-.2v.4Z" class="g1_3882"/>
<path d="M298.2,364.3v.4l6.5,.2v-.4Z" class="g1_3882"/>
<path d="M299.1,354.9h.2v-.4h-.2v.4Z" class="g1_3882"/>
<path d="M299.3,354.9H706.9v-.4H299.3v.4Z" class="g1_3882"/>
<path d="M299.1,373.5h.2v-.4h-.2v.4Z" class="g1_3882"/>
<path d="M299.3,373.5H706.9v-.4H299.3v.4Z" class="g1_3882"/>
<path d="M501.9,354.8h.4v-.2h-.4v.2Z" class="g1_3882"/>
<path d="M501.9,373.3h.4V354.8h-.4v18.5Z" class="g1_3882"/>
<path d="M299.1,406.4h.2V406h-.2v.4Z" class="g1_3882"/>
<path d="M299.3,406.4H706.9V406H299.3v.4Z" class="g1_3882"/>
<path d="M299.1,425.1h.2v-.5h-.2v.5Z" class="g1_3882"/>
<path d="M299.3,425.1H706.9v-.5H299.3v.5Z" class="g1_3882"/>
<path d="M501.9,406.4h.4v-.2h-.4v.2Z" class="g1_3882"/>
<path d="M501.9,443.8h.4V406.4h-.4v37.4Z" class="g1_3882"/>
<path d="M180.6,431.4h91V369h-91v62.4Z" class="g0_3882"/>
<path d="M285.4,374.3l.2,.4l2,-1l-.2,-.4Z" class="g1_3882"/>
<path d="M287.1,374.2l-2.4,-1.4l-1.6,-1.1l1.9,-.4l8.4,-1.8l2.6,-.6l-1.9,1.9l-6.2,5.9l-1.3,1.3v-1.8l.2,-.5l6.2,-6l1.1,1.1l-.4,.2l-8.4,1.8l-.3,-1.5l.4,.1l2.4,1.4Z" class="g1_3882"/>
<path d="M286.6,376.2l.1,-2.7l1.1,-.7l.5,.3v.4l-.1,2.8Z" class="g1_3882"/>
<path fill-rule="evenodd" d="M287.5,373.5l-2.4,-1.4l8.4,-1.9l-6.1,6Z" class="g1_3882"/>
<path d="M275.7,379.5l-.1,.1l.1,.4l.2,-.1Z" class="g1_3882"/>
<path d="M285.4,374.3l.2,-.1l.2,.3l-.2,.1Z" class="g1_3882"/>
<path d="M275.7,379.5l.2,.4l9.7,-5.3l-.2,-.3Z" class="g1_3882"/>
<path d="M180.6,213.7h91V160.6h-91v53.1Z" class="g0_3882"/>
<path d="M284.9,172.3H287v-.4h-2.1v.4Z" class="g1_3882"/>
<path d="M286.4,172.5L285,170.2l-1.1,-1.7l2,.5l8.3,2.3l2.5,.8l-2.5,.7l-8.3,2.4l-1.8,.5l.9,-1.6l.4,-.4l8.3,-2.4l.5,1.5h-.5l-8.3,-2.3l.5,-1.5l.5,.4l1.3,2.3Z" class="g1_3882"/>
<path d="M285,174.1l1.4,-2.4h1.3l.2,.4l-.2,.3l-1.3,2.4Z" class="g1_3882"/>
<path fill-rule="evenodd" d="M287,172.1l-1.4,-2.3l8.3,2.3l-8.3,2.3Z" class="g1_3882"/>
<path d="M274.3,172.3h.2v-.4h-.2v.4Z" class="g1_3882"/>
<path d="M274.5,172.3h10.6v-.4H274.5v.4Z" class="g1_3882"/>
<path d="M706.4,286.9h.3v-.7h-.3v.7Z" class="g1_3882"/>
<path d="M297.9,286.9H706.4v-.7H297.9v.7Z" class="g1_3882"/>
</svg>