<?xml version="1.0" encoding="UTF-8" standalone="no"?>
<!DOCTYPE svg PUBLIC "-//W3C//DTD SVG 1.1//EN"
"http://www.w3.org/Graphics/SVG/1.1/DTD/svg11.dtd">
<svg viewBox="0 0 935 1210" version="1.1" xmlns="http://www.w3.org/2000/svg" xmlns:xlink="http://www.w3.org/1999/xlink">
<defs>
<style type="text/css"><![CDATA[
.g0_2209{
fill: #FFF;
}
.g1_2209{
fill: #000;
}
]]></style>
</defs>
<path d="M68.9,1149.3H755.2v-21.2H68.9v21.2Z" class="g0_2209"/>
<path d="M771.3,1149.3H855v-21.2H771.3v21.2Z" class="g0_2209"/>
<path d="M69.9,1053.8h.8V125.7h-.8v928.1Z" class="g1_2209"/>
<path d="M304.6,179.1h.7V124.9h-.7v54.2Z" class="g1_2209"/>
<path d="M304.6,1054.6h.7V178.4h-.7v876.2Z" class="g1_2209"/>
<path d="M349.3,179.1h.8V124.9h-.8v54.2Z" class="g1_2209"/>
<path d="M349.3,1054.6h.8V178.4h-.8v876.2Z" class="g1_2209"/>
<path d="M422.7,179.1h.7V124.9h-.7v54.2Z" class="g1_2209"/>
<path d="M422.7,1054.6h.7V178.4h-.7v876.2Z" class="g1_2209"/>
<path d="M547.5,1054.6h.8V124.9h-.8v929.7Z" class="g1_2209"/>
<path d="M853,1053.8h.8V125.7H853v928.1Z" class="g1_2209"/>
<path d="M69.9,125.7h784v-.8H69.9v.8Z" class="g1_2209"/>
<path d="M69.9,179.1H548.3v-.7H69.9v.7Z" class="g1_2209"/>
<path d="M547.4,179.1H853.9v-.7H547.4v.7Z" class="g1_2209"/>
<path d="M69.9,235.7H548.3v-.8H69.9v.8Z" class="g1_2209"/>
<path d="M547.4,235.7H853.9v-.8H547.4v.8Z" class="g1_2209"/>
<path d="M69.9,292.1H548.3v-.7H69.9v.7Z" class="g1_2209"/>
<path d="M547.4,292.1H853.9v-.7H547.4v.7Z" class="g1_2209"/>
<path d="M69.9,348.7H548.3V348H69.9v.7Z" class="g1_2209"/>
<path d="M547.4,348.7H853.9V348H547.4v.7Z" class="g1_2209"/>
<path d="M69.9,405.3H548.3v-.8H69.9v.8Z" class="g1_2209"/>
<path d="M547.4,405.3H853.9v-.8H547.4v.8Z" class="g1_2209"/>
<path d="M69.9,461.8H548.3v-.7H69.9v.7Z" class="g1_2209"/>
<path d="M547.4,461.8H853.9v-.7H547.4v.7Z" class="g1_2209"/>
<path d="M69.9,518.3H548.3v-.7H69.9v.7Z" class="g1_2209"/>
<path d="M547.4,518.3H853.9v-.7H547.4v.7Z" class="g1_2209"/>
<path d="M69.9,574.8H548.3v-.7H69.9v.7Z" class="g1_2209"/>
<path d="M547.4,574.8H853.9v-.7H547.4v.7Z" class="g1_2209"/>
<path d="M69.9,631.4H548.3v-.7H69.9v.7Z" class="g1_2209"/>
<path d="M547.4,631.4H853.9v-.7H547.4v.7Z" class="g1_2209"/>
<path d="M69.9,687.9H548.3v-.8H69.9v.8Z" class="g1_2209"/>
<path d="M547.4,687.9H853.9v-.8H547.4v.8Z" class="g1_2209"/>
<path d="M69.9,761.2H548.3v-.7H69.9v.7Z" class="g1_2209"/>
<path d="M547.4,761.2H853.9v-.7H547.4v.7Z" class="g1_2209"/>
<path d="M69.9,834.5H548.3v-.7H69.9v.7Z" class="g1_2209"/>
<path d="M547.4,834.5H853.9v-.7H547.4v.7Z" class="g1_2209"/>
<path d="M69.9,907.9H548.3v-.8H69.9v.8Z" class="g1_2209"/>
<path d="M547.4,907.9H853.9v-.8H547.4v.8Z" class="g1_2209"/>
<path d="M69.9,981.2H548.3v-.7H69.9v.7Z" class="g1_2209"/>
<path d="M547.4,981.2H853.9v-.7H547.4v.7Z" class="g1_2209"/>
<path d="M69.9,1054.5H547.4v-.7H69.9v.7Z" class="g1_2209"/>
<path d="M548.3,1054.5H853.9v-.7H548.3v.7Z" class="g1_2209"/>
</svg>