<?xml version="1.0" encoding="UTF-8" standalone="no"?>
<!DOCTYPE svg PUBLIC "-//W3C//DTD SVG 1.1//EN"
"http://www.w3.org/Graphics/SVG/1.1/DTD/svg11.dtd">
<svg viewBox="0 0 935 1210" version="1.1" xmlns="http://www.w3.org/2000/svg" xmlns:xlink="http://www.w3.org/1999/xlink">
<defs>
<style type="text/css"><![CDATA[
.g0_76{
fill: #FFF;
}
.g1_76{
fill: #000;
}
]]></style>
</defs>
<path d="M68.8,1149.3H852.5v-21.2H68.8v21.2Z" class="g0_76"/>
<path d="M66.9,1043.2h.8V124.1h-.8v919.1Z" class="g1_76"/>
<path d="M121.6,1043.9h.8V164.6h-.8v879.3Z" class="g1_76"/>
<path d="M182.7,1043.9h.7V123.4h-.7v920.5Z" class="g1_76"/>
<path d="M417.6,1043.9h.8V123.4h-.8v920.5Z" class="g1_76"/>
<path d="M682.4,1043.9h.7V123.4h-.7v920.5Z" class="g1_76"/>
<path d="M853.4,1043.2h.7V124.1h-.7v919.1Z" class="g1_76"/>
<path d="M66.9,124.1H854.2v-.7H66.9v.7Z" class="g1_76"/>
<path d="M66.9,165.4H183.4v-.8H66.9v.8Z" class="g1_76"/>
<path d="M66.9,189.8H854.2v-.7H66.9v.7Z" class="g1_76"/>
<path d="M66.9,257H854.2v-.7H66.9v.7Z" class="g1_76"/>
<path d="M182.6,319.6H854.2v-.7H182.6v.7Z" class="g1_76"/>
<path d="M182.6,365.5H854.2v-.8H182.6v.8Z" class="g1_76"/>
<path d="M66.9,389.9H854.2v-.7H66.9v.7Z" class="g1_76"/>
<path d="M182.6,431.2H854.2v-.7H182.6v.7Z" class="g1_76"/>
<path d="M182.6,477H854.2v-.7H182.6v.7Z" class="g1_76"/>
<path d="M66.9,501.5H854.2v-.7H66.9v.7Z" class="g1_76"/>
<path d="M66.9,568.7H854.2V568H66.9v.7Z" class="g1_76"/>
<path d="M182.6,631.4H854.2v-.7H182.6v.7Z" class="g1_76"/>
<path d="M182.6,677.2H854.2v-.7H182.6v.7Z" class="g1_76"/>
<path d="M66.9,701.6H854.2v-.7H66.9v.7Z" class="g1_76"/>
<path d="M182.6,742.9H854.2v-.8H182.6v.8Z" class="g1_76"/>
<path d="M182.6,788.7H854.2V788H182.6v.7Z" class="g1_76"/>
<path d="M66.9,813.2H854.2v-.8H66.9v.8Z" class="g1_76"/>
<path d="M182.6,854.4H854.2v-.7H182.6v.7Z" class="g1_76"/>
<path d="M182.6,878.9H854.2v-.7H182.6v.7Z" class="g1_76"/>
<path d="M182.6,936.9H854.2v-.7H182.6v.7Z" class="g1_76"/>
<path d="M182.6,961.4H854.2v-.7H182.6v.7Z" class="g1_76"/>
<path d="M66.9,985.8H854.2v-.7H66.9v.7Z" class="g1_76"/>
<path d="M66.9,1043.9H854.2v-.7H66.9v.7Z" class="g1_76"/>
</svg>