<?xml version="1.0" encoding="UTF-8" standalone="no"?>
<!DOCTYPE svg PUBLIC "-//W3C//DTD SVG 1.1//EN"
"http://www.w3.org/Graphics/SVG/1.1/DTD/svg11.dtd">
<svg viewBox="0 0 935 1210" version="1.1" xmlns="http://www.w3.org/2000/svg" xmlns:xlink="http://www.w3.org/1999/xlink">
<defs>
<style type="text/css"><![CDATA[
.g0_84{
fill: #000;
}
]]></style>
</defs>
<path d="M150.2,945.5h.8V482.9h-.8V945.5Z" class="g0_84"/>
<path d="M383.8,946.3h.7V482.2h-.7V946.3Z" class="g0_84"/>
<path d="M583.9,946.3h.8V482.2h-.8V946.3Z" class="g0_84"/>
<path d="M784,945.5h.8V482.9H784V945.5Z" class="g0_84"/>
<path d="M150.1,482.9H784.8v-.7H150.1v.7Z" class="g0_84"/>
<path d="M151,530.3H784v-.7H151v.7Z" class="g0_84"/>
<path d="M151,534.1H784v-.7H151v.7Z" class="g0_84"/>
<path d="M150.1,556.7H784.8V556H150.1v.7Z" class="g0_84"/>
<path d="M150.1,581.2H784.8v-.8H150.1v.8Z" class="g0_84"/>
<path d="M150.1,656H784.8v-.8H150.1v.8Z" class="g0_84"/>
<path d="M150.1,697.2H784.8v-.7H150.1v.7Z" class="g0_84"/>
<path d="M150.1,772.1H784.8v-.7H150.1v.7Z" class="g0_84"/>
<path d="M150.1,847H784.8v-.7H150.1v.7Z" class="g0_84"/>
<path d="M150.1,888.2H784.8v-.7H150.1v.7Z" class="g0_84"/>
<path d="M150.1,946.3H784.8v-.8H150.1v.8Z" class="g0_84"/>
</svg>