<?xml version="1.0" encoding="UTF-8" standalone="no"?>
<!DOCTYPE svg PUBLIC "-//W3C//DTD SVG 1.1//EN"
"http://www.w3.org/Graphics/SVG/1.1/DTD/svg11.dtd">
<svg viewBox="0 0 935 1210" version="1.1" xmlns="http://www.w3.org/2000/svg" xmlns:xlink="http://www.w3.org/1999/xlink">
<defs>
<clipPath id="c0_2835"><path d="M97.3,59.2V41.4h72.1V59.2Z"/></clipPath>
<style type="text/css"><![CDATA[
.g0_2835{
fill: #000;
}
]]></style>
</defs>
<path d="M96.3,63.3H838.8v-.4H96.3v.4Z" class="g0_2835"/>
<path d="M96.1,1114.5h.2v-.4h-.2v.4Z" class="g0_2835"/>
<path d="M96.3,1114.5H838.9v-.4H96.3v.4Z" class="g0_2835"/>
<image clip-path="url(#c0_2835)" preserveAspectRatio="none" x="97" y="41" width="73" height="18" xlink:href="img/1.jpg"/>
<path d="M95.9,665.8h.7V620.7h-.7v45.1Z" class="g0_2835"/>
<path d="M195,666.5h.7V619.9H195v46.6Z" class="g0_2835"/>
<path d="M313.3,666.5h.7V619.9h-.7v46.6Z" class="g0_2835"/>
<path d="M825.8,665.8h.8V620.7h-.8v45.1Z" class="g0_2835"/>
<path d="M95.9,620.7H826.6v-.8H95.9v.8Z" class="g0_2835"/>
<path d="M95.9,644.8H826.6v-3H95.9v3Z" class="g0_2835"/>
<path d="M95.9,666.5H826.6v-.7H95.9v.7Z" class="g0_2835"/>
<path d="M65.6,229.2h3.2V210.8H65.6v18.4Z" class="g0_2835"/>
<path d="M65.6,880h3.2V861.7H65.6V880Z" class="g0_2835"/>
</svg>