<?xml version="1.0" encoding="UTF-8" standalone="no"?>
<!DOCTYPE svg PUBLIC "-//W3C//DTD SVG 1.1//EN"
"http://www.w3.org/Graphics/SVG/1.1/DTD/svg11.dtd">
<svg viewBox="0 0 935 1210" version="1.1" xmlns="http://www.w3.org/2000/svg" xmlns:xlink="http://www.w3.org/1999/xlink">
<defs>
<clipPath id="c0_346"><path d="M97.2,59V41.4h72.2V59Z"/></clipPath>
<style type="text/css"><![CDATA[
.g0_346{
fill: #000;
}
]]></style>
</defs>
<path d="M96.1,63.1v.3H838.9v-.3H96.1Z" class="g0_346"/>
<path d="M96.1,1114.3v.3v-.3Z" class="g0_346"/>
<path d="M838.9,1114.3v.3v-.3Z" class="g0_346"/>
<path d="M96.1,1114.3v.3H838.9v-.3H96.1Z" class="g0_346"/>
<image clip-path="url(#c0_346)" preserveAspectRatio="none" x="97" y="41" width="72" height="18" xlink:href="img/1.jpg"/>
<path d="M192.9,197.3h-.8V429h.8V197.3Z" class="g0_346"/>
<path d="M273.5,196.5h-.7V429.7h.7V196.5Z" class="g0_346"/>
<path d="M400,196.5h-.7V429.7h.7V196.5Z" class="g0_346"/>
<path d="M742.8,197.3h-.7V429h.7V197.3Z" class="g0_346"/>
<path d="M192.1,196.5v.8H742.8v-.8H192.1Z" class="g0_346"/>
<path d="M192.1,221.1v.7H742.8v-.7H192.1Z" class="g0_346"/>
<path d="M192.1,300.7v.7H742.8v-.7H192.1Z" class="g0_346"/>
<path d="M192.1,343.2v.7H742.8v-.7H192.1Z" class="g0_346"/>
<path d="M192.1,386.1v.7H742.8v-.7H192.1Z" class="g0_346"/>
<path d="M192.1,429v.7H742.8V429H192.1Z" class="g0_346"/>
</svg>