<?xml version="1.0" encoding="UTF-8" standalone="no"?>
<!DOCTYPE svg PUBLIC "-//W3C//DTD SVG 1.1//EN"
"http://www.w3.org/Graphics/SVG/1.1/DTD/svg11.dtd">
<svg viewBox="0 0 935 1210" version="1.1" xmlns="http://www.w3.org/2000/svg" xmlns:xlink="http://www.w3.org/1999/xlink">
<defs>
<clipPath id="c0_1863"><path d="M97.3,59.2V41.4h72.1V59.2Z"/></clipPath>
<style type="text/css"><![CDATA[
.g0_1863{
fill: #000;
}
]]></style>
</defs>
<path d="M96.2,62.9v.3H838.7v-.3H96.2Z" class="g0_1863"/>
<path d="M96.2,1114.1h-.1v.4h.1v-.4Z" class="g0_1863"/>
<path d="M838.7,1114.1h.2v.4h-.2v-.4Z" class="g0_1863"/>
<path d="M96.2,1114.1v.4H838.7v-.4H96.2Z" class="g0_1863"/>
<image clip-path="url(#c0_1863)" preserveAspectRatio="none" x="97" y="41" width="72" height="18" xlink:href="img/1.jpg"/>
<path d="M102.4,179.1h-.7V796.3h.7V179.1Z" class="g0_1863"/>
<path d="M264.5,178.4h-.7V681h.7V178.4Z" class="g0_1863"/>
<path d="M426.7,178.4H426V681h.7V178.4Z" class="g0_1863"/>
<path d="M590.6,178.4h-.7V681h.7V178.4Z" class="g0_1863"/>
<path d="M833.3,179.1h-.7V796.3h.7V179.1Z" class="g0_1863"/>
<path d="M101.6,178.4v.7H833.4v-.7H101.6Z" class="g0_1863"/>
<path d="M101.6,205.3v.8H833.4v-.8H101.6Z" class="g0_1863"/>
<path d="M101.6,226.8v.7H833.4v-.7H101.6Z" class="g0_1863"/>
<path d="M101.6,248.1v.8H833.4v-.8H101.6Z" class="g0_1863"/>
<path d="M101.6,269.5v.7H833.4v-.7H101.6Z" class="g0_1863"/>
<path d="M101.6,290.9v.8H833.4v-.8H101.6Z" class="g0_1863"/>
<path d="M101.6,312.3v.7H833.4v-.7H101.6Z" class="g0_1863"/>
<path d="M101.6,333.7v.7H833.4v-.7H101.6Z" class="g0_1863"/>
<path d="M101.6,355.1v.7H833.4v-.7H101.6Z" class="g0_1863"/>
<path d="M101.6,376.5v.7H833.4v-.7H101.6Z" class="g0_1863"/>
<path d="M101.6,397.8v.8H833.4v-.8H101.6Z" class="g0_1863"/>
<path d="M101.6,419.3v.7H833.4v-.7H101.6Z" class="g0_1863"/>
<path d="M101.6,440.6v.8H833.4v-.8H101.6Z" class="g0_1863"/>
<path d="M101.6,462v.7H833.4V462H101.6Z" class="g0_1863"/>
<path d="M101.6,501.8v.7H833.4v-.7H101.6Z" class="g0_1863"/>
<path d="M101.6,523.1v.8H833.4v-.8H101.6Z" class="g0_1863"/>
<path d="M101.6,548.2v.7H833.4v-.7H101.6Z" class="g0_1863"/>
<path d="M101.6,569.6v.7H833.4v-.7H101.6Z" class="g0_1863"/>
<path d="M101.6,591v.7H833.4V591H101.6Z" class="g0_1863"/>
<path d="M101.6,616v.7H833.4V616H101.6Z" class="g0_1863"/>
<path d="M101.6,637.4v.8H833.4v-.8H101.6Z" class="g0_1863"/>
<path d="M101.6,658.8v.7H833.4v-.7H101.6Z" class="g0_1863"/>
<path d="M101.6,680.1v.8H833.4v-.8H101.6Z" class="g0_1863"/>
<path d="M101.6,796.3v.7H833.4v-.7H101.6Z" class="g0_1863"/>
</svg>