<?xml version="1.0" encoding="UTF-8" standalone="no"?>
<!DOCTYPE svg PUBLIC "-//W3C//DTD SVG 1.1//EN"
"http://www.w3.org/Graphics/SVG/1.1/DTD/svg11.dtd">
<svg viewBox="0 0 935 1210" version="1.1" xmlns="http://www.w3.org/2000/svg" xmlns:xlink="http://www.w3.org/1999/xlink">
<defs>
<style type="text/css"><![CDATA[
.g0_130{
fill: none;
stroke: #000;
stroke-width: 0.608;
stroke-miterlimit: 10;
}
.g1_130{
fill: #B4B4B4;
}
.g2_130{
fill: #000;
}
]]></style>
</defs>
<path d="M110,332.1H799.4M110.3,348.6V331.8m75.4,16.8V331.8m85,16.8V331.8m64.4,16.8V331.8M387,348.6V331.8m112.9,16.8V331.8M627,348.6V331.8m58,16.8V331.8m52.4,16.8V331.8m61.7,16.8V331.8M110,348.9h76m-75.7,16.4V348.6m75.4,16.7V348.6m85,16.7V348.6m64.4,16.7V348.6M387,365.3V348.6m112.9,16.7V348.6M627,365.3V348.6m58,16.7V348.6m52.4,16.7V348.6m61.7,16.7V348.6M110,365.6H799.4M110.3,382.1V365.3m75.4,16.8V365.3m85,16.8V365.3m64.4,16.8V365.3M387,382.1V365.3m112.9,16.8V365.3M627,382.1V365.3m58,16.8V365.3m52.4,16.8V365.3m61.7,16.8V365.3M110.3,398.8V382.1m75.4,16.7V382.1m85,16.7V382.1m64.4,16.7V382.1M387,398.8V382.1m112.9,16.7V382.1M627,398.8V382.1m58,16.7V382.1m52.4,16.7V382.1m61.7,16.7V382.1M110.3,415.6V398.8m75.4,16.8V398.8m85,16.8V398.8m64.4,16.8V398.8M387,415.6V398.8m112.9,16.8V398.8M627,415.6V398.8m58,16.8V398.8m52.4,16.8V398.8m61.7,16.8V398.8M110,415.9H852.1m-741.8,17V416.2m75.4,16.7V416.2m85,16.7V416.2m64.4,16.7V416.2M387,432.9V416.2m112.9,16.7V416.2M627,432.9V416.2m58,16.7V416.2m52.4,16.7V416.2m61.7,16.7V416.2M110.3,449.6V432.9m75.4,16.7V432.9m85,16.7V432.9m64.4,16.7V432.9M387,449.6V432.9m112.9,16.7V432.9M627,449.6V432.9m58,16.7V432.9m52.4,16.7V432.9m61.7,16.7V432.9M110.3,466.4V449.6m75.4,16.8V449.6m85,16.8V449.6m64.4,16.8V449.6M387,466.4V449.6m112.9,16.8V449.6M627,466.4V449.6m58,16.8V449.6m52.4,16.8V449.6m61.7,16.8V449.6M110,466.7H852.1m-741.8,17V467m75.4,16.7V467m85,16.7V467m64.4,16.7V467M387,483.7V467m112.9,16.7V467M627,483.7V467m58,16.7V467m52.4,16.7V467m61.7,16.7V467M110.3,500.5V483.7m75.4,16.8V483.7m85,16.8V483.7m64.4,16.8V483.7M387,500.5V483.7m112.9,16.8V483.7M627,500.5V483.7m58,16.8V483.7m52.4,16.8V483.7m61.7,16.8V483.7M110.3,517.2V500.5m75.4,16.7V500.5m85,16.7V500.5m64.4,16.7V500.5M387,517.2V500.5m112.9,16.7V500.5M627,517.2V500.5m58,16.7V500.5m52.4,16.7V500.5m61.7,16.7V500.5M110,517.5H799.4M110.3,534V517.2" class="g0_130"/>
<path d="M110.6,534h74.8V517.2H110.6V534Z" class="g1_130"/>
<path d="M185.7,534V517.2" class="g0_130"/>
<path d="M186,534H798.8V517.2H186V534Z" class="g1_130"/>
<path d="M799.1,534V517.2M110,534.3H799.4M152.9,657.2H595.8M153.2,675.1V656.9m70.7,18.2V656.9m252.8,18.2V656.9M548,675.1V656.9m47.5,18.2V656.9M152.9,675.5H595.8M153.2,693.4V675.1m70.7,18.3V675.1m252.8,18.3V675.1M548,693.4V675.1m47.5,18.3V675.1" class="g0_130"/>
<path d="M152.9,695.7H595.8v-2.3H152.9v2.3Z" class="g2_130"/>
<path d="M153.2,714V695.7M223.9,714V695.7M320.6,714V695.7M391.9,714V695.7M476.7,714V695.7M548,714V695.7M595.5,714V695.7M152.9,714.3H595.8M153.2,732.2V714m70.7,18.2V714m96.7,18.2V714m71.3,18.2V714m84.8,18.2V714M548,732.2V714m47.5,18.2V714" class="g0_130"/>
<path d="M152.9,734.5H595.8v-2.3H152.9v2.3Z" class="g2_130"/>
<path d="M153.2,752.8V734.5m70.7,18.3V734.5m96.7,18.3V734.5m71.3,18.3V734.5m84.8,18.3V734.5M548,752.8V734.5m47.5,18.3V734.5" class="g0_130"/>
<path d="M152.9,755.1H595.8v-2.3H152.9v2.3Z" class="g2_130"/>
<path d="M153.2,773.3V755.1m70.7,18.2V755.1m96.7,18.2V755.1m71.3,18.2V755.1m84.8,18.2V755.1M548,773.3V755.1m47.5,18.2V755.1M152.9,773.6H595.8m-442.6,18V773.3m70.7,18.3V773.3m96.7,18.3V773.3m71.3,18.3V773.3m84.8,18.3V773.3M548,791.6V773.3m47.5,18.3V773.3" class="g0_130"/>
<path d="M152.9,793.9H595.8v-2.3H152.9v2.3Z" class="g2_130"/>
<path d="M153.2,812.1V793.9m70.7,18.2V793.9M548,812.1V793.9m47.5,18.2V793.9" class="g0_130"/>
<path d="M152.9,814.4H595.8v-2.3H152.9v2.3Z" class="g2_130"/>
<path d="M153.2,832.7V814.4m70.7,18.3V814.4m96.7,18.3V814.4m71.3,18.3V814.4m84.8,18.3V814.4M548,832.7V814.4m47.5,18.3V814.4M152.9,833H595.8M153.2,850.9V832.7m70.7,18.2V832.7m96.7,18.2V832.7m71.3,18.2V832.7m84.8,18.2V832.7M548,850.9V832.7m47.5,18.2V832.7" class="g0_130"/>
<path d="M152.9,853.2H595.8v-2.3H152.9v2.3Z" class="g2_130"/>
<path d="M153.2,871.5V853.2m70.7,18.3V853.2m96.7,18.3V853.2m71.3,18.3V853.2m84.8,18.3V853.2M548,871.5V853.2m47.5,18.3V853.2" class="g0_130"/>
<path d="M152.9,873.8H595.8v-2.3H152.9v2.3Z" class="g2_130"/>
<path d="M153.2,892V873.8M223.9,892V873.8M320.6,892V873.8M391.9,892V873.8M476.7,892V873.8M548,892V873.8M595.5,892V873.8M152.9,892.3H595.8m-442.6,18V892m70.7,18.3V892m96.7,18.3V892m71.3,18.3V892m84.8,18.3V892M548,910.3V892m47.5,18.3V892M152.9,910.6H595.8" class="g0_130"/>
</svg>