<?xml version="1.0" encoding="UTF-8" standalone="no"?>
<!DOCTYPE svg PUBLIC "-//W3C//DTD SVG 1.1//EN"
"http://www.w3.org/Graphics/SVG/1.1/DTD/svg11.dtd">
<svg viewBox="0 0 935 1210" version="1.1" xmlns="http://www.w3.org/2000/svg" xmlns:xlink="http://www.w3.org/1999/xlink">
<defs>
<style type="text/css"><![CDATA[
.g0_209{
fill: #FFF;
}
.g1_209{
fill: #000;
}
]]></style>
</defs>
<path d="M68.9,1149.3H852.7v-21.2H68.9v21.2Z" class="g0_209"/>
<path d="M69.9,1076.7h.8V124.1h-.8v952.6Z" class="g1_209"/>
<path d="M126.7,1077.5h.7V164.6h-.7v912.9Z" class="g1_209"/>
<path d="M183.4,1077.5h.8V123.4h-.8v954.1Z" class="g1_209"/>
<path d="M427.1,1077.5h.7V123.4h-.7v954.1Z" class="g1_209"/>
<path d="M520.1,1077.5h.8V123.4h-.8v954.1Z" class="g1_209"/>
<path d="M851.8,1076.7h.7V124.1h-.7v952.6Z" class="g1_209"/>
<path d="M69.9,124.1H852.5v-.7H69.9v.7Z" class="g1_209"/>
<path d="M69.9,165.4H184.2v-.8H69.9v.8Z" class="g1_209"/>
<path d="M69.9,189.8H852.5v-.7H69.9v.7Z" class="g1_209"/>
<path d="M69.9,273.8H852.5v-.7H69.9v.7Z" class="g1_209"/>
<path d="M69.9,357.9H852.5v-.8H69.9v.8Z" class="g1_209"/>
<path d="M69.9,441.9H852.5v-.7H69.9v.7Z" class="g1_209"/>
<path d="M69.9,526H852.5v-.8H69.9v.8Z" class="g1_209"/>
<path d="M69.9,609.9H852.5v-.7H69.9v.7Z" class="g1_209"/>
<path d="M69.9,694H852.5v-.7H69.9v.7Z" class="g1_209"/>
<path d="M69.9,756.6H852.5v-.7H69.9v.7Z" class="g1_209"/>
<path d="M69.9,802.4H852.5v-.7H69.9v.7Z" class="g1_209"/>
<path d="M69.9,865.2H852.5v-.8H69.9v.8Z" class="g1_209"/>
<path d="M69.9,927.8H852.5V927H69.9v.8Z" class="g1_209"/>
<path d="M69.9,990.4H852.5v-.8H69.9v.8Z" class="g1_209"/>
<path d="M69.9,1053.1H852.5v-.8H69.9v.8Z" class="g1_209"/>
<path d="M69.9,1077.5H852.5v-.8H69.9v.8Z" class="g1_209"/>
</svg>