<?xml version="1.0" encoding="UTF-8" standalone="no"?>
<!DOCTYPE svg PUBLIC "-//W3C//DTD SVG 1.1//EN"
"http://www.w3.org/Graphics/SVG/1.1/DTD/svg11.dtd">
<svg viewBox="0 0 935 1210" version="1.1" xmlns="http://www.w3.org/2000/svg" xmlns:xlink="http://www.w3.org/1999/xlink">
<defs>
<style type="text/css"><![CDATA[
.g0_2865{
fill: #FFF;
}
.g1_2865{
fill: #000;
}
]]></style>
</defs>
<path d="M67.7,1149.3h785v-21.2H67.7v21.2Z" class="g0_2865"/>
<path d="M69.1,155.8H852.4v-1.5H69.1v1.5Z" class="g1_2865"/>
<path d="M170.8,824.6h.7V493.9h-.7V824.6Z" class="g1_2865"/>
<path d="M750.1,824.6h.7V493.9h-.7V824.6Z" class="g1_2865"/>
<path d="M170.8,493.9h580v-.7h-580v.7Z" class="g1_2865"/>
<path d="M170.8,825.4h580v-.8h-580v.8Z" class="g1_2865"/>
<path d="M409.5,545.9h83.8V524.4H409.5v21.5Z" class="g0_2865"/>
<path d="M409.5,524.8h84.2v-.7H409.5v.7Z" class="g1_2865"/>
<path d="M493,546.2h.7V524.4H493v21.8Z" class="g1_2865"/>
<path d="M409.1,546.2h84.2v-.7H409.1v.7Z" class="g1_2865"/>
<path d="M409.1,545.9h.7V524.1h-.7v21.8Z" class="g1_2865"/>
<path d="M345.1,654.4h92.3V633H345.1v21.4Z" class="g0_2865"/>
<path d="M345.1,633.4h92.7v-.7H345.1v.7Z" class="g1_2865"/>
<path d="M437.1,654.8h.7V633h-.7v21.8Z" class="g1_2865"/>
<path d="M344.8,654.8h92.6V654H344.8v.8Z" class="g1_2865"/>
<path d="M344.8,654.4h.7V632.7h-.7v21.7Z" class="g1_2865"/>
<path d="M492.8,545.9h82.5V524.4H492.8v21.5Z" class="g0_2865"/>
<path d="M492.8,524.8h82.9v-.7H492.8v.7Z" class="g1_2865"/>
<path d="M574.9,546.2h.8V524.4h-.8v21.8Z" class="g1_2865"/>
<path d="M492.4,546.2h82.9v-.7H492.4v.7Z" class="g1_2865"/>
<path d="M492.4,545.9h.8V524.1h-.8v21.8Z" class="g1_2865"/>
<path d="M250.3,654.4h94.8V633H250.3v21.4Z" class="g0_2865"/>
<path d="M250.3,633.4h95.2v-.7H250.3v.7Z" class="g1_2865"/>
<path d="M344.8,654.8h.7V633h-.7v21.8Z" class="g1_2865"/>
<path d="M250,654.8h95.1V654H250v.8Z" class="g1_2865"/>
<path d="M250,654.4h.7V632.7H250v21.7Z" class="g1_2865"/>
<path d="M449.5,660.4l-.2,-.2l-.5,.5l.3,.2Z" class="g1_2865"/>
<path d="M449.5,660.4l6.6,5.2l-.2,.6v-.7h26.5v.1l6.9,5.4v.6l-.4,-.6l7.1,-5.7l.1,-.1h.1l.3,.7l-7.2,5.7l-.3,.1l-.1,-.1L482,666.1l.4,-.5l-.2,.6H455.8l-.1,-.1l-6.6,-5.2Z" class="g1_2865"/>
<path d="M496.2,665.2h25.9l.3,.7l-.1,.1H496.2Z" class="g1_2865"/>
<path d="M528.5,660.2l.2,-.2l.5,.5l-.3,.2Z" class="g1_2865"/>
<path d="M522,665.3l.4,.6l6.5,-5.2l-.4,-.5Z" class="g1_2865"/>
<path d="M263.9,661.1l-.3,-.2l-.4,.6l.3,.1Z" class="g1_2865"/>
<path d="M263.9,661.1l6.6,5.2l-.3,.7v-.8h26.5l.1,.1l6.9,5.4v.6l-.5,-.6l7.2,-5.7h.2l.2,.6l-7.1,5.7l-.3,.2l-.2,-.2l-6.8,-5.4l.4,-.6l-.3,.7H270.1v-.1l-6.6,-5.3Z" class="g1_2865"/>
<path d="M310.6,666h25.9l.3,.6l-.1,.1H310.6Z" class="g1_2865"/>
<path d="M342.8,661l.3,-.2l.5,.6l-.3,.2Z" class="g1_2865"/>
<path d="M336.3,666l.5,.6l6.5,-5l-.5,-.6Z" class="g1_2865"/>
<path d="M347.1,661.1l-.2,-.2l-.5,.6l.3,.1Z" class="g1_2865"/>
<path d="M347.1,661.1l6.7,5.2l-.2,.7v-.8h26.5v.1l6.8,5.4v.6l-.4,-.6l7.1,-5.7h.2l.3,.6l-7.2,5.7l-.2,.2l-.2,-.2l-6.8,-5.4l.4,-.6l-.2,.7H353.5l-.1,-.1l-6.7,-5.3Z" class="g1_2865"/>
<path d="M393.8,666h26l.3,.6l-.1,.1H393.8Z" class="g1_2865"/>
<path d="M426.1,661l.2,-.2l.5,.6l-.3,.2Z" class="g1_2865"/>
<path d="M419.6,666l.5,.6l6.4,-5l-.4,-.6Z" class="g1_2865"/>
<path d="M554.2,661.1l-.3,-.2l-.4,.6l.3,.1Z" class="g1_2865"/>
<path d="M554.2,661.1l6.6,5.2l-.3,.7v-.8H587l.1,.1l6.8,5.4v.6l-.4,-.6l7.2,-5.7h.2l.3,.6l-7.3,5.7l-.3,.2l-.1,-.2l-6.8,-5.4l.4,-.6l-.3,.7H560.4v-.1l-6.6,-5.3Z" class="g1_2865"/>
<path d="M600.9,666h25.9l.3,.6l-.1,.1H600.9Z" class="g1_2865"/>
<path d="M633,661l.3,-.2l.5,.6l-.3,.2Z" class="g1_2865"/>
<path d="M626.6,666l.5,.6l6.4,-5l-.4,-.6Z" class="g1_2865"/>
<path d="M419.4,549.2l-.3,-.2l-.5,.6l.3,.2Z" class="g1_2865"/>
<path d="M419.4,549.2l8.6,6.1l-.3,.7h-.2l-8.6,-6.2Z" class="g1_2865"/>
<path d="M427.7,555.2h96.9l.1,.1l-.3,.7H427.7Z" class="g1_2865"/>
<path d="M532.9,561.3l.3,.2l-.4,.5l-.3,-.2Z" class="g1_2865"/>
<path d="M524.7,555.3l-.5,.6l8.3,5.9l.4,-.5Z" class="g1_2865"/>
<path d="M647,550.1l.3,-.2l-.5,-.6l-.3,.1Z" class="g1_2865"/>
<path d="M647,550.1l-8.6,6.1h-.3l-.2,-.6l8.6,-6.2Z" class="g1_2865"/>
<path d="M638.1,556.2H541.4l-.2,-.6l.1,-.1h96.8Z" class="g1_2865"/>
<path d="M533.4,562.1l-.3,.2l-.4,-.6l.3,-.1Z" class="g1_2865"/>
<path d="M541.7,556.1l-.5,-.5l-8.3,6l.5,.5Z" class="g1_2865"/>
<path d="M303.5,696.1l-.3,-.2l-.4,.6l.3,.2Z" class="g1_2865"/>
<path d="M303.5,696.1l6.6,5.2l-.3,.7v-.7h26.7l6.8,5.5v.5l-.5,-.5l7.2,-5.7l.1,-.1h.1l.2,.6l-7.1,5.7l-.3,.2l-.2,-.2l-6.7,-5.4l.4,-.6l-.3,.7H309.7v-.1l-6.6,-5.2Z" class="g1_2865"/>
<path d="M350.2,701h25.9l.3,.6l-.1,.1H350.2Z" class="g1_2865"/>
<path d="M382.4,695.9l.3,-.2l.5,.6l-.3,.2Z" class="g1_2865"/>
<path d="M375.9,701.1l.5,.5l6.5,-5.1l-.5,-.6Z" class="g1_2865"/>
<path d="M230.4,545.4h88.3V524.6H230.4v20.8Z" class="g0_2865"/>
<path d="M230.4,525h88.7v-.8H230.4v.8Z" class="g1_2865"/>
<path d="M318.4,545.8h.7V524.6h-.7v21.2Z" class="g1_2865"/>
<path d="M230,545.8h88.7v-.7H230v.7Z" class="g1_2865"/>
<path d="M230,545.4h.7V524.2H230v21.2Z" class="g1_2865"/>
<path d="M318.3,545.4h92.1V524.9H318.3v20.5Z" class="g0_2865"/>
<path d="M318.3,525.2h92.5v-.7H318.3v.7Z" class="g1_2865"/>
<path d="M410,545.8h.8V524.9H410v20.9Z" class="g1_2865"/>
<path d="M317.9,545.8h92.5v-.7H317.9v.7Z" class="g1_2865"/>
<path d="M317.9,545.4h.7V524.5h-.7v20.9Z" class="g1_2865"/>
<path d="M575.4,546.2h82.5V524.7H575.4v21.5Z" class="g0_2865"/>
<path d="M575.4,525.1h82.9v-.8H575.4v.8Z" class="g1_2865"/>
<path d="M657.5,546.5h.8V524.7h-.8v21.8Z" class="g1_2865"/>
<path d="M575,546.5h82.9v-.7H575v.7Z" class="g1_2865"/>
<path d="M575,546.2h.8V524.3H575v21.9Z" class="g1_2865"/>
<path d="M324.4,585.9h73.3V550.1H324.4v35.8Z" class="g0_2865"/>
<path d="M658.3,533.6h.3v-.7h-.3v.7Z" class="g1_2865"/>
<path d="M658.6,533.6h50.1v-.7H658.6v.7Z" class="g1_2865"/>
<path d="M707.1,533.2h.8v-.3h-.8v.3Z" class="g1_2865"/>
<path d="M707.1,612.4h.8V533.2h-.8v79.2Z" class="g1_2865"/>
<path d="M706.5,612.4h.3v-.7h-.3v.7Z" class="g1_2865"/>
<path d="M207.7,612.4H706.5v-.7H207.7v.7Z" class="g1_2865"/>
<path d="M208.4,643.6h.7v-.4h-.7v.4Z" class="g1_2865"/>
<path d="M208.4,643.2h.7V612h-.7v31.2Z" class="g1_2865"/>
<path d="M219.9,643.2v-5l1,.3l16.7,4.7L220.9,648l-1,.3v-1l.6,-.8l14.1,-4l.4,1.5h-.4l-14.1,-4.1l.4,-1.4l.6,.7v4Z" class="g1_2865"/>
<path d="M219.9,647.3h1.6v-4.1h-1.6v4.1Z" class="g1_2865"/>
<path fill-rule="evenodd" d="M220.6,643.2v-4l14.2,4l-14.2,4.1Z" class="g1_2865"/>
<path d="M208.2,643.6h.3v-.7h-.3v.7Z" class="g1_2865"/>
<path d="M208.5,643.6h11.8v-.7H208.5v.7Z" class="g1_2865"/>
</svg>