<?xml version="1.0" encoding="UTF-8" standalone="no"?>
<!DOCTYPE svg PUBLIC "-//W3C//DTD SVG 1.1//EN"
"http://www.w3.org/Graphics/SVG/1.1/DTD/svg11.dtd">
<svg viewBox="0 0 935 1210" version="1.1" xmlns="http://www.w3.org/2000/svg" xmlns:xlink="http://www.w3.org/1999/xlink">
<defs>
<clipPath id="c0_2834"><path d="M766.6,59.2V41.4h72.2V59.2Z"/></clipPath>
<style type="text/css"><![CDATA[
.g0_2834{
fill: #000;
}
]]></style>
</defs>
<path d="M97.4,63.3H839.9v-.4H97.4v.4Z" class="g0_2834"/>
<path d="M96.1,1114.5h.2v-.4h-.2v.4Z" class="g0_2834"/>
<path d="M96.3,1114.5H838.9v-.4H96.3v.4Z" class="g0_2834"/>
<image clip-path="url(#c0_2834)" preserveAspectRatio="none" x="767" y="41" width="72" height="18" xlink:href="img/1.jpg"/>
<path d="M95.9,442.7h.7V183.3h-.7V442.7Z" class="g0_2834"/>
<path d="M273.3,423.6h.8V180.2h-.8V423.6Z" class="g0_2834"/>
<path d="M310,423.6h.7V202.8H310V423.6Z" class="g0_2834"/>
<path d="M346.7,423.6h.7V202.8h-.7V423.6Z" class="g0_2834"/>
<path d="M383.4,423.6h.7V180.2h-.7V423.6Z" class="g0_2834"/>
<path d="M839.2,442.7h.7V183.3h-.7V442.7Z" class="g0_2834"/>
<path d="M95.9,183.3h744v-3H95.9v3Z" class="g0_2834"/>
<path d="M273.3,203.5H384.2v-.7H273.3v.7Z" class="g0_2834"/>
<path d="M95.9,226.1h744v-3H95.9v3Z" class="g0_2834"/>
<path d="M273.3,244.8H839.9v-.7H273.3v.7Z" class="g0_2834"/>
<path d="M273.3,264.6H839.9v-.7H273.3v.7Z" class="g0_2834"/>
<path d="M95.9,284.5h744v-.7H95.9v.7Z" class="g0_2834"/>
<path d="M95.9,304.4h744v-.7H95.9v.7Z" class="g0_2834"/>
<path d="M95.9,324.2h744v-.7H95.9v.7Z" class="g0_2834"/>
<path d="M273.3,344.1H839.9v-.7H273.3v.7Z" class="g0_2834"/>
<path d="M273.3,364H839.9v-.7H273.3v.7Z" class="g0_2834"/>
<path d="M273.3,383.8H839.9v-.7H273.3v.7Z" class="g0_2834"/>
<path d="M95.9,403.7h744V403H95.9v.7Z" class="g0_2834"/>
<path d="M95.9,423.6h744v-.7H95.9v.7Z" class="g0_2834"/>
<path d="M95.9,443.4h744v-.7H95.9v.7Z" class="g0_2834"/>
</svg>