<?xml version="1.0" encoding="UTF-8" standalone="no"?>
<!DOCTYPE svg PUBLIC "-//W3C//DTD SVG 1.1//EN"
"http://www.w3.org/Graphics/SVG/1.1/DTD/svg11.dtd">
<svg viewBox="0 0 935 1210" version="1.1" xmlns="http://www.w3.org/2000/svg" xmlns:xlink="http://www.w3.org/1999/xlink">
<defs>
<clipPath id="c0_2663"><path d="M97.3,59.2V41.4h72.1V59.2Z"/></clipPath>
<style type="text/css"><![CDATA[
.g0_2663{
fill: #000;
}
]]></style>
</defs>
<path d="M96.3,63.3H838.8v-.4H96.3v.4Z" class="g0_2663"/>
<path d="M96.1,1114.5h.2v-.4h-.2v.4Z" class="g0_2663"/>
<path d="M96.3,1114.5H838.9v-.4H96.3v.4Z" class="g0_2663"/>
<image clip-path="url(#c0_2663)" preserveAspectRatio="none" x="97" y="41" width="73" height="18" xlink:href="img/1.jpg"/>
<path d="M561.6,722.1h31.3V721H561.6v1.1Z" class="g0_2663"/>
<path d="M561.6,745h31.3v-1.1H561.6V745Z" class="g0_2663"/>
<path d="M95.9,575.6h.7V530.5h-.7v45.1Z" class="g0_2663"/>
<path d="M249.9,576.3h.7V529.7h-.7v46.6Z" class="g0_2663"/>
<path d="M320.1,576.3h.7V529.7h-.7v46.6Z" class="g0_2663"/>
<path d="M839.4,575.6h.7V530.5h-.7v45.1Z" class="g0_2663"/>
<path d="M95.9,530.5H840.1v-.8H95.9v.8Z" class="g0_2663"/>
<path d="M95.9,554.6H840.1v-3H95.9v3Z" class="g0_2663"/>
<path d="M95.9,576.3H840.1v-.7H95.9v.7Z" class="g0_2663"/>
</svg>