<?xml version="1.0" encoding="UTF-8" standalone="no"?>
<!DOCTYPE svg PUBLIC "-//W3C//DTD SVG 1.1//EN"
"http://www.w3.org/Graphics/SVG/1.1/DTD/svg11.dtd">
<svg viewBox="0 0 935 1210" version="1.1" xmlns="http://www.w3.org/2000/svg" xmlns:xlink="http://www.w3.org/1999/xlink">
<defs>
<clipPath id="c0_1875"><path d="M97.3,59.2V41.4h72.1V59.2Z"/></clipPath>
<style type="text/css"><![CDATA[
.g0_1875{
fill: #000;
}
]]></style>
</defs>
<path d="M96.2,62.9v.3H838.7v-.3H96.2Z" class="g0_1875"/>
<path d="M96.2,1114.1h-.1v.4h.1v-.4Z" class="g0_1875"/>
<path d="M838.7,1114.1h.2v.4h-.2v-.4Z" class="g0_1875"/>
<path d="M96.2,1114.1v.4H838.7v-.4H96.2Z" class="g0_1875"/>
<image clip-path="url(#c0_1875)" preserveAspectRatio="none" x="97" y="41" width="72" height="18" xlink:href="img/1.jpg"/>
<path d="M103.6,340.4v3.1H846.1v-3.1H103.6Z" class="g0_1875"/>
<path d="M103.9,418.6h-.7V521.8h.7V418.6Z" class="g0_1875"/>
<path d="M150.1,417.9h-.7V522.6h.7V417.9Z" class="g0_1875"/>
<path d="M370.1,417.9h-.7V522.6h.7V417.9Z" class="g0_1875"/>
<path d="M846.4,418.6h-.7V521.8h.7V418.6Z" class="g0_1875"/>
<path d="M103.2,417.9v.7H846.4v-.7H103.2Z" class="g0_1875"/>
<path d="M103.2,442.4v.7H846.4v-.7H103.2Z" class="g0_1875"/>
<path d="M103.2,521.8v.8H846.4v-.8H103.2Z" class="g0_1875"/>
<path d="M103.6,574.2v3H846.1v-3H103.6Z" class="g0_1875"/>
<path d="M103.9,652.5h-.7v66.4h.7V652.5Z" class="g0_1875"/>
<path d="M150.1,651.6h-.7v68.1h.7V651.6Z" class="g0_1875"/>
<path d="M337.1,651.6h-.7v68.1h.7V651.6Z" class="g0_1875"/>
<path d="M846.4,652.5h-.7v66.4h.7V652.5Z" class="g0_1875"/>
<path d="M103.2,651.6v.8H846.4v-.8H103.2Z" class="g0_1875"/>
<path d="M103.2,676.1v.7H846.4v-.7H103.2Z" class="g0_1875"/>
<path d="M103.2,718.9v.8H846.4v-.8H103.2Z" class="g0_1875"/>
<path d="M103.6,771.3v3H846.1v-3H103.6Z" class="g0_1875"/>
<path d="M103.9,849.5h-.7V916h.7V849.5Z" class="g0_1875"/>
<path d="M150.1,848.7h-.7v68h.7v-68Z" class="g0_1875"/>
<path d="M348.1,848.7h-.7v68h.7v-68Z" class="g0_1875"/>
<path d="M846.4,849.5h-.7V916h.7V849.5Z" class="g0_1875"/>
<path d="M103.2,848.7v.8H846.4v-.8H103.2Z" class="g0_1875"/>
<path d="M103.2,873.2v.7H846.4v-.7H103.2Z" class="g0_1875"/>
<path d="M103.2,916v.7H846.4V916H103.2Z" class="g0_1875"/>
<path d="M103.6,968.3v3.1H846.1v-3.1H103.6Z" class="g0_1875"/>
</svg>