<?xml version="1.0" encoding="UTF-8" standalone="no"?>
<!DOCTYPE svg PUBLIC "-//W3C//DTD SVG 1.1//EN"
"http://www.w3.org/Graphics/SVG/1.1/DTD/svg11.dtd">
<svg viewBox="0 0 935 1210" version="1.1" xmlns="http://www.w3.org/2000/svg" xmlns:xlink="http://www.w3.org/1999/xlink">
<defs>
<style type="text/css"><![CDATA[
.g0_598{
fill: #FFF;
}
.g1_598{
fill: #000;
}
]]></style>
</defs>
<path d="M165,1149.3H852.5v-21.2H165v21.2Z" class="g0_598"/>
<path d="M68.8,1149.3h82.5v-21.2H68.8v21.2Z" class="g0_598"/>
<path d="M69.4,1082.9h.7V727.7h-.7v355.2Z" class="g1_598"/>
<path d="M133.1,1083.6h.7V765.1h-.7v318.5Z" class="g1_598"/>
<path d="M200.6,1083.6h.7V765.1h-.7v318.5Z" class="g1_598"/>
<path d="M251.9,1083.6h.7V726.8h-.7v356.8Z" class="g1_598"/>
<path d="M325.2,1083.6h.8V765.1h-.8v318.5Z" class="g1_598"/>
<path d="M392.1,1083.6h.7V765.1h-.7v318.5Z" class="g1_598"/>
<path d="M443.4,1083.6h.7V726.8h-.7v356.8Z" class="g1_598"/>
<path d="M515.4,1083.6h.8V765.1h-.8v318.5Z" class="g1_598"/>
<path d="M583.5,1083.6h.8V765.1h-.8v318.5Z" class="g1_598"/>
<path d="M650.5,1083.6h.7V726.8h-.7v356.8Z" class="g1_598"/>
<path d="M717.3,1083.6h.7V765.1h-.7v318.5Z" class="g1_598"/>
<path d="M784.1,1083.6h.8V765.1h-.8v318.5Z" class="g1_598"/>
<path d="M850.9,1082.9h.8V727.7h-.8v355.2Z" class="g1_598"/>
<path d="M69.4,727.7H851.8v-.8H69.4v.8Z" class="g1_598"/>
<path d="M69.4,765.8H851.8V765H69.4v.8Z" class="g1_598"/>
<path d="M69.4,842.2H851.8v-.7H69.4v.7Z" class="g1_598"/>
<path d="M69.4,863.6H851.8v-.7H69.4v.7Z" class="g1_598"/>
<path d="M69.4,885H851.8v-.8H69.4v.8Z" class="g1_598"/>
<path d="M69.4,906.4H851.8v-.7H69.4v.7Z" class="g1_598"/>
<path d="M69.4,927.8H851.8V927H69.4v.8Z" class="g1_598"/>
<path d="M69.4,976.6H851.8v-.7H69.4v.7Z" class="g1_598"/>
<path d="M69.4,998.1H851.8v-.8H69.4v.8Z" class="g1_598"/>
<path d="M69.4,1019.4H851.8v-.7H69.4v.7Z" class="g1_598"/>
<path d="M69.4,1040.8H851.8v-.8H69.4v.8Z" class="g1_598"/>
<path d="M69.4,1062.2H851.8v-.7H69.4v.7Z" class="g1_598"/>
<path d="M69.4,1083.6H851.8v-.7H69.4v.7Z" class="g1_598"/>
</svg>