<?xml version="1.0" encoding="UTF-8" standalone="no"?>
<!DOCTYPE svg PUBLIC "-//W3C//DTD SVG 1.1//EN"
"http://www.w3.org/Graphics/SVG/1.1/DTD/svg11.dtd">
<svg viewBox="0 0 935 1210" version="1.1" xmlns="http://www.w3.org/2000/svg" xmlns:xlink="http://www.w3.org/1999/xlink">
<defs>
<style type="text/css"><![CDATA[
.g0_1248{
fill: #FFF;
}
.g1_1248{
fill: #000;
}
]]></style>
</defs>
<path d="M68.8,1149.3H852.5v-21.2H68.8v21.2Z" class="g0_1248"/>
<path d="M68.6,263.9h.7V124.1h-.7V263.9Z" class="g1_1248"/>
<path d="M110.4,264.7h.7V123.4h-.7V264.7Z" class="g1_1248"/>
<path d="M347.1,264.7h.8V123.4h-.8V264.7Z" class="g1_1248"/>
<path d="M426.3,264.7h.8V123.4h-.8V264.7Z" class="g1_1248"/>
<path d="M624.3,264.7h.8V123.4h-.8V264.7Z" class="g1_1248"/>
<path d="M849.6,263.9h.7V124.1h-.7V263.9Z" class="g1_1248"/>
<path d="M68.6,124.1H850.3v-.7H68.6v.7Z" class="g1_1248"/>
<path d="M68.6,182.1H850.3v-.7H68.6v.7Z" class="g1_1248"/>
<path d="M68.6,223.4H850.3v-.7H68.6v.7Z" class="g1_1248"/>
<path d="M68.6,264.6H850.3v-.7H68.6v.7Z" class="g1_1248"/>
<path d="M68.6,1072.1h.7V365.6h-.7v706.5Z" class="g1_1248"/>
<path d="M110.4,1073h.7V364.7h-.7V1073Z" class="g1_1248"/>
<path d="M294.3,1073h.8V364.7h-.8V1073Z" class="g1_1248"/>
<path d="M373.8,1073h.8V364.7h-.8V1073Z" class="g1_1248"/>
<path d="M453.2,1073h.7V364.7h-.7V1073Z" class="g1_1248"/>
<path d="M618,1073h.8V364.7H618V1073Z" class="g1_1248"/>
<path d="M849.9,1072.1h.8V365.6h-.8v706.5Z" class="g1_1248"/>
<path d="M68.6,365.5H850.8v-.8H68.6v.8Z" class="g1_1248"/>
<path d="M68.6,406.8H850.8v-.7H68.6v.7Z" class="g1_1248"/>
<path d="M68.6,431.2H850.8v-.7H68.6v.7Z" class="g1_1248"/>
<path d="M68.6,455.7H850.8v-.8H68.6v.8Z" class="g1_1248"/>
<path d="M68.6,496.9H850.8v-.7H68.6v.7Z" class="g1_1248"/>
<path d="M68.6,538.2H850.8v-.8H68.6v.8Z" class="g1_1248"/>
<path d="M68.6,579.4H850.8v-.7H68.6v.7Z" class="g1_1248"/>
<path d="M68.6,620.7H850.8v-.8H68.6v.8Z" class="g1_1248"/>
<path d="M68.6,645.2H850.8v-.8H68.6v.8Z" class="g1_1248"/>
<path d="M68.6,669.5H850.8v-.7H68.6v.7Z" class="g1_1248"/>
<path d="M68.6,694H850.8v-.7H68.6v.7Z" class="g1_1248"/>
<path d="M68.6,718.5H850.8v-.8H68.6v.8Z" class="g1_1248"/>
<path d="M68.6,776.5H850.8v-.7H68.6v.7Z" class="g1_1248"/>
<path d="M68.6,817.8H850.8V817H68.6v.8Z" class="g1_1248"/>
<path d="M68.6,859H850.8v-.7H68.6v.7Z" class="g1_1248"/>
<path d="M68.6,900.3H850.8v-.8H68.6v.8Z" class="g1_1248"/>
<path d="M68.6,941.5H850.8v-.7H68.6v.7Z" class="g1_1248"/>
<path d="M68.6,982.8H850.8V982H68.6v.8Z" class="g1_1248"/>
<path d="M68.6,1024H850.8v-.7H68.6v.7Z" class="g1_1248"/>
<path d="M68.6,1048.5H850.8v-.7H68.6v.7Z" class="g1_1248"/>
<path d="M68.6,1072.9H850.8v-.8H68.6v.8Z" class="g1_1248"/>
</svg>