<?xml version="1.0" encoding="UTF-8" standalone="no"?>
<!DOCTYPE svg PUBLIC "-//W3C//DTD SVG 1.1//EN"
"http://www.w3.org/Graphics/SVG/1.1/DTD/svg11.dtd">
<svg viewBox="0 0 935 1210" version="1.1" xmlns="http://www.w3.org/2000/svg" xmlns:xlink="http://www.w3.org/1999/xlink">
<defs>
<style type="text/css"><![CDATA[
.g0_230{
fill: #000;
}
]]></style>
</defs>
<path d="M95.9,884.1h.7V134.8h-.7V884.1Z" class="g0_230"/>
<path d="M178.4,885h.7V161.5h-.7V885Z" class="g0_230"/>
<path d="M260.9,885h.7V134h-.7V885Z" class="g0_230"/>
<path d="M590.9,885h.7V134h-.7V885Z" class="g0_230"/>
<path d="M659.6,885h.8V134h-.8V885Z" class="g0_230"/>
<path d="M742.1,885h.8V134h-.8V885Z" class="g0_230"/>
<path d="M838.4,884.1h.7V134.8h-.7V884.1Z" class="g0_230"/>
<path d="M95.9,134.8H839.1V134H95.9v.8Z" class="g0_230"/>
<path d="M95.9,162.3H261.6v-.8H95.9v.8Z" class="g0_230"/>
<path d="M96.6,187.9H838.4v-.7H96.6v.7Z" class="g0_230"/>
<path d="M96.6,191.7H838.4v-.8H96.6v.8Z" class="g0_230"/>
<path d="M95.9,315.1H839.1v-.8H95.9v.8Z" class="g0_230"/>
<path d="M95.9,339.5H839.1v-.7H95.9v.7Z" class="g0_230"/>
<path d="M95.9,558H839.1v-.8H95.9v.8Z" class="g0_230"/>
<path d="M95.9,582.4H839.1v-.7H95.9v.7Z" class="g0_230"/>
<path d="M95.9,885H839.1v-.8H95.9v.8Z" class="g0_230"/>
<path d="M137.1,1061.6h.8V964.2h-.8v97.4Z" class="g0_230"/>
<path d="M260.9,1062.3h.7v-99h-.7v99Z" class="g0_230"/>
<path d="M439.6,1062.3h.8v-99h-.8v99Z" class="g0_230"/>
<path d="M618.4,1062.3h.7v-99h-.7v99Z" class="g0_230"/>
<path d="M797.1,1061.6h.8V964.2h-.8v97.4Z" class="g0_230"/>
<path d="M137.1,964.1H797.9v-.8H137.1v.8Z" class="g0_230"/>
<path d="M137.9,992.2H797.1v-.7H137.9v.7Z" class="g0_230"/>
<path d="M137.9,996.1H797.1v-.8H137.9v.8Z" class="g0_230"/>
<path d="M137.1,1021.1H797.9v-.8H137.1v.8Z" class="g0_230"/>
<path d="M137.1,1062.3H797.9v-.7H137.1v.7Z" class="g0_230"/>
</svg>