<?xml version="1.0" encoding="UTF-8" standalone="no"?>
<!DOCTYPE svg PUBLIC "-//W3C//DTD SVG 1.1//EN"
"http://www.w3.org/Graphics/SVG/1.1/DTD/svg11.dtd">
<svg viewBox="0 0 935 1210" version="1.1" xmlns="http://www.w3.org/2000/svg" xmlns:xlink="http://www.w3.org/1999/xlink">
<defs>
<clipPath id="c0_20"><path d="M97.2,59V41.4h72.2V59Z"/></clipPath>
<style type="text/css"><![CDATA[
.g0_20{
fill: #000;
}
]]></style>
</defs>
<path d="M96.1,63.1v.3H838.9v-.3H96.1Z" class="g0_20"/>
<path d="M96.1,1114.3v.3v-.3Z" class="g0_20"/>
<path d="M838.9,1114.3v.3v-.3Z" class="g0_20"/>
<path d="M96.1,1114.3v.3H838.9v-.3H96.1Z" class="g0_20"/>
<image clip-path="url(#c0_20)" preserveAspectRatio="none" x="97" y="41" width="72" height="18" xlink:href="img/1.jpg"/>
<path d="M91.7,151.4h-.8V661.1h.8V151.4Z" class="g0_20"/>
<path d="M228.8,150.7h-.7V661.8h.7V150.7Z" class="g0_20"/>
<path d="M316.4,150.7h-.7V661.8h.7V150.7Z" class="g0_20"/>
<path d="M844,151.4h-.7V661.1h.7V151.4Z" class="g0_20"/>
<path d="M90.9,150.7v.7H844v-.7H90.9Z" class="g0_20"/>
<path d="M90.9,181.5v.7H844v-.7H90.9Z" class="g0_20"/>
<path d="M90.9,361.5v.8H844v-.8H90.9Z" class="g0_20"/>
<path d="M90.9,392.3v.8H844v-.8H90.9Z" class="g0_20"/>
<path d="M90.9,422.7v.8H844v-.8H90.9Z" class="g0_20"/>
<path d="M90.9,508.2v.7H844v-.7H90.9Z" class="g0_20"/>
<path d="M90.9,539v.7H844V539H90.9Z" class="g0_20"/>
<path d="M90.9,661.1v.7H844v-.7H90.9Z" class="g0_20"/>
</svg>