<?xml version="1.0" encoding="UTF-8" standalone="no"?>
<!DOCTYPE svg PUBLIC "-//W3C//DTD SVG 1.1//EN"
"http://www.w3.org/Graphics/SVG/1.1/DTD/svg11.dtd">
<svg viewBox="0 0 935 1210" version="1.1" xmlns="http://www.w3.org/2000/svg" xmlns:xlink="http://www.w3.org/1999/xlink">
<defs>
<style type="text/css"><![CDATA[
.g0_1507{
fill: #FFF;
}
.g1_1507{
fill: #000;
}
]]></style>
</defs>
<path d="M68.9,1149.3H852.7v-21.2H68.9v21.2Z" class="g0_1507"/>
<path d="M70.3,445.1h781V415.6H70.3v29.5Z" class="g0_1507"/>
<path d="M71.2,438.5h53.6V426.1H71.2v12.4Z" class="g0_1507"/>
<path d="M70.3,1082.9H849.8v-29.6H70.3v29.6Z" class="g0_1507"/>
<path d="M71.2,1076.2h53.6v-12.4H71.2v12.4Z" class="g0_1507"/>
<path d="M69.9,415.2h.8V122.6h-.8V415.2Z" class="g1_1507"/>
<path d="M548.9,416h.7V121.8h-.7V416Z" class="g1_1507"/>
<path d="M712.6,416h.8V121.8h-.8V416Z" class="g1_1507"/>
<path d="M850.9,415.2h.8V122.6h-.8V415.2Z" class="g1_1507"/>
<path d="M69.9,122.6H851.7v-.8H69.9v.8Z" class="g1_1507"/>
<path d="M69.9,147H851.7v-.7H69.9v.7Z" class="g1_1507"/>
<path d="M69.9,171.5H851.7v-.7H69.9v.7Z" class="g1_1507"/>
<path d="M69.9,195.9H851.7v-.7H69.9v.7Z" class="g1_1507"/>
<path d="M69.9,220.4H851.7v-.8H69.9v.8Z" class="g1_1507"/>
<path d="M69.9,244.8H851.7v-.7H69.9v.7Z" class="g1_1507"/>
<path d="M69.9,269.2H851.7v-.7H69.9v.7Z" class="g1_1507"/>
<path d="M69.9,293.7H851.7V293H69.9v.7Z" class="g1_1507"/>
<path d="M69.9,318.2H851.7v-.8H69.9v.8Z" class="g1_1507"/>
<path d="M69.9,342.6H851.7v-.8H69.9v.8Z" class="g1_1507"/>
<path d="M69.9,367H851.7v-.7H69.9v.7Z" class="g1_1507"/>
<path d="M69.9,391.5H851.7v-.7H69.9v.7Z" class="g1_1507"/>
<path d="M69.9,416H851.7v-.8H69.9v.8Z" class="g1_1507"/>
<path d="M69.9,1052.9h.8V662.5h-.8v390.4Z" class="g1_1507"/>
<path d="M554,1053.6h.8V661.7H554v391.9Z" class="g1_1507"/>
<path d="M711.8,1053.6h.7V661.7h-.7v391.9Z" class="g1_1507"/>
<path d="M849.4,1052.9h.7V662.5h-.7v390.4Z" class="g1_1507"/>
<path d="M69.9,662.5H850.1v-.8H69.9v.8Z" class="g1_1507"/>
<path d="M69.9,687H850.1v-.8H69.9v.8Z" class="g1_1507"/>
<path d="M69.9,711.4H850.1v-.7H69.9v.7Z" class="g1_1507"/>
<path d="M69.9,735.8H850.1v-.7H69.9v.7Z" class="g1_1507"/>
<path d="M69.9,760.3H850.1v-.7H69.9v.7Z" class="g1_1507"/>
<path d="M69.9,784.8H850.1V784H69.9v.8Z" class="g1_1507"/>
<path d="M69.9,809.1H850.1v-.7H69.9v.7Z" class="g1_1507"/>
<path d="M69.9,833.6H850.1v-.7H69.9v.7Z" class="g1_1507"/>
<path d="M69.9,858.1H850.1v-.7H69.9v.7Z" class="g1_1507"/>
<path d="M69.9,882.5H850.1v-.8H69.9v.8Z" class="g1_1507"/>
<path d="M69.9,907H850.1v-.8H69.9v.8Z" class="g1_1507"/>
<path d="M69.9,931.4H850.1v-.7H69.9v.7Z" class="g1_1507"/>
<path d="M69.9,955.8H850.1v-.7H69.9v.7Z" class="g1_1507"/>
<path d="M69.9,980.3H850.1v-.8H69.9v.8Z" class="g1_1507"/>
<path d="M69.9,1004.8H850.1v-.8H69.9v.8Z" class="g1_1507"/>
<path d="M69.9,1029.1H850.1v-.7H69.9v.7Z" class="g1_1507"/>
<path d="M69.9,1053.6H850.1v-.7H69.9v.7Z" class="g1_1507"/>
</svg>