<?xml version="1.0" encoding="UTF-8" standalone="no"?>
<!DOCTYPE svg PUBLIC "-//W3C//DTD SVG 1.1//EN"
"http://www.w3.org/Graphics/SVG/1.1/DTD/svg11.dtd">
<svg viewBox="0 0 935 1210" version="1.1" xmlns="http://www.w3.org/2000/svg" xmlns:xlink="http://www.w3.org/1999/xlink">
<defs>
<style type="text/css"><![CDATA[
.g0_3934{
fill: #FFF;
}
.g1_3934{
fill: #000;
}
.g2_3934{
fill: none;
stroke: #000;
stroke-width: 2.114;
stroke-linecap: round;
stroke-linejoin: round;
}
]]></style>
</defs>
<path d="M68.8,1149.3H852.5v-21.2H68.8v21.2Z" class="g0_3934"/>
<path d="M170.5,586h.7V342.6h-.7V586Z" class="g1_3934"/>
<path d="M749.8,586h.8V342.6h-.8V586Z" class="g1_3934"/>
<path d="M170.5,342.6H750.6v-.8H170.5v.8Z" class="g1_3934"/>
<path d="M170.5,586.8H750.6v-.7H170.5v.7Z" class="g1_3934"/>
<path d="M382.2,554.8h143V519h-143v35.8Z" class="g0_3934"/>
<path d="M382.2,554.8h143V519h-143v35.8Z" class="g2_3934"/>
<path d="M239.2,411.8h143V376.1h-143v35.7Z" class="g0_3934"/>
<path d="M239.2,411.8h143V376.1h-143v35.7Z" class="g2_3934"/>
<path d="M525.2,376.1h143v35.8h-143Z" class="g0_3934"/>
<path d="M525.2,411.9h143V376.1h-143v35.8Zm-128,104.7L274.9,411.8" class="g2_3934"/>
<path fill-rule="evenodd" d="M399.5,512.4l.5,6.6l-6.6,.5l6.1,-7.1Z" class="g1_3934"/>
<path d="M417.9,519L348.4,415" class="g2_3934"/>
<path fill-rule="evenodd" d="M345.1,418.3l1.3,-6.5l6.4,1.3l-7.7,5.2Z" class="g1_3934"/>
<path d="M489.4,519L558.8,415" class="g2_3934"/>
<path fill-rule="evenodd" d="M554.4,413.1l6.5,-1.2l1.3,6.4l-7.8,-5.2Z" class="g1_3934"/>
<path d="M632.3,411.9L510.1,516.6" class="g2_3934"/>
<path fill-rule="evenodd" d="M513.9,519.5l-6.6,-.5l.5,-6.5l6.1,7Z" class="g1_3934"/>
<path d="M525.2,536.9h67.7" class="g2_3934"/>
<path fill-rule="evenodd" d="M592,532.2l4.7,4.7l-4.7,4.6v-9.3Z" class="g1_3934"/>
<path d="M310.7,536.9h67.7" class="g2_3934"/>
<path fill-rule="evenodd" d="M377.5,532.2l4.7,4.7l-4.7,4.6v-9.3Z" class="g1_3934"/>
</svg>