<?xml version="1.0" encoding="UTF-8" standalone="no"?>
<!DOCTYPE svg PUBLIC "-//W3C//DTD SVG 1.1//EN"
"http://www.w3.org/Graphics/SVG/1.1/DTD/svg11.dtd">
<svg viewBox="0 0 935 1210" version="1.1" xmlns="http://www.w3.org/2000/svg" xmlns:xlink="http://www.w3.org/1999/xlink">
<defs>
<clipPath id="c0_1100"><path d="M97.3,59.2V41.4h72.1V59.2Z"/></clipPath>
<style type="text/css"><![CDATA[
.g0_1100{
fill: #000;
}
.g1_1100{
fill: #E5E5E5;
}
]]></style>
</defs>
<path d="M96.2,62.9v.3H838.7v-.3H96.2Z" class="g0_1100"/>
<path d="M96.2,1114.1h-.1v.3h.1v-.3Z" class="g0_1100"/>
<path d="M838.7,1114.1h.2v.3h-.2v-.3Z" class="g0_1100"/>
<path d="M96.2,1114.1v.3H838.7v-.3H96.2Z" class="g0_1100"/>
<image clip-path="url(#c0_1100)" preserveAspectRatio="none" x="97" y="41" width="72" height="18" xlink:href="img/1.jpg"/>
<path d="M97.6,982.4H744.9v55H97.6v-55Z" class="g1_1100"/>
<path d="M96.6,389.9h-.7V443h.7V389.9Z" class="g0_1100"/>
<path d="M840.3,389.9h-3.1V443h3.1V389.9Z" class="g0_1100"/>
<path d="M95.9,389.2v.7H840.3v-.7H95.9Z" class="g0_1100"/>
<path d="M95.9,443.1v3H840.3v-3H95.9Z" class="g0_1100"/>
<path d="M96.2,485.4v.8H545.3v-.8H96.2Z" class="g0_1100"/>
<path d="M96.2,505.3v.8H545.3v-.8H96.2Z" class="g0_1100"/>
<path d="M98,982.7h-.7v53.1H98V982.7Z" class="g0_1100"/>
<path d="M745.2,982h-.7v56.9h.7V982Z" class="g0_1100"/>
<path d="M838.9,982.7h-3v53.1h3V982.7Z" class="g0_1100"/>
<path d="M97.3,982v.7H838.8V982H97.3Z" class="g0_1100"/>
<path d="M97.3,1035.9v3H838.8v-3H97.3Z" class="g0_1100"/>
</svg>