<?xml version="1.0" encoding="UTF-8" standalone="no"?>
<!DOCTYPE svg PUBLIC "-//W3C//DTD SVG 1.1//EN"
"http://www.w3.org/Graphics/SVG/1.1/DTD/svg11.dtd">
<svg viewBox="0 0 825 990" version="1.1" xmlns="http://www.w3.org/2000/svg" xmlns:xlink="http://www.w3.org/1999/xlink">
<defs>
<style type="text/css"><![CDATA[
.g0_79{
fill: #000;
}
]]></style>
</defs>
<path d="M94.9,910.3h.3v-.8h-.3v.8Z" class="g0_79"/>
<path d="M95.2,910.3h650v-.8H95.2v.8Z" class="g0_79"/>
<path d="M96.2,118.5H744.9v-.7H96.2v.7Z" class="g0_79"/>
<path d="M96.2,170.5H744.9v-.7H96.2v.7Z" class="g0_79"/>
<path d="M96.2,199.3H744.9v-.2H96.2v.2Z" class="g0_79"/>
<path d="M96.2,245.1H744.9v-.2H96.2v.2Z" class="g0_79"/>
<path d="M96.2,274.1H744.9v-.2H96.2v.2Z" class="g0_79"/>
<path d="M96.2,319.9H744.9v-.2H96.2v.2Z" class="g0_79"/>
<path d="M96.2,365.7H744.9v-.1H96.2v.1Z" class="g0_79"/>
<path d="M96.2,394.8H744.9v-.2H96.2v.2Z" class="g0_79"/>
<path d="M96.2,423.9H744.9v-.2H96.2v.2Z" class="g0_79"/>
<path d="M96.2,469.7H744.9v-.2H96.2v.2Z" class="g0_79"/>
<path d="M96.2,532.3H744.9v-.2H96.2v.2Z" class="g0_79"/>
<path d="M96.2,594.9H744.9v-.2H96.2v.2Z" class="g0_79"/>
<path d="M96.2,640.7H744.9v-.1H96.2v.1Z" class="g0_79"/>
<path d="M96.2,669.8H744.9v-.2H96.2v.2Z" class="g0_79"/>
<path d="M96.2,698.9H744.9v-.2H96.2v.2Z" class="g0_79"/>
<path d="M96.2,727.8H744.9v-.1H96.2v.1Z" class="g0_79"/>
<path d="M96.2,807.3H744.9v-.2H96.2v.2Z" class="g0_79"/>
</svg>