<?xml version="1.0" encoding="UTF-8" standalone="no"?>
<!DOCTYPE svg PUBLIC "-//W3C//DTD SVG 1.1//EN"
"http://www.w3.org/Graphics/SVG/1.1/DTD/svg11.dtd">
<svg viewBox="0 0 935 1210" version="1.1" xmlns="http://www.w3.org/2000/svg" xmlns:xlink="http://www.w3.org/1999/xlink">
<defs>
<clipPath id="c0_3273"><path d="M766.6,59.2V41.4h72.2V59.2Z"/></clipPath>
<style type="text/css"><![CDATA[
.g0_3273{
fill: #000;
}
]]></style>
</defs>
<path d="M97.4,63.3H839.9v-.4H97.4v.4Z" class="g0_3273"/>
<path d="M96.1,1114.5h.2v-.4h-.2v.4Z" class="g0_3273"/>
<path d="M96.3,1114.5H838.9v-.4H96.3v.4Z" class="g0_3273"/>
<image clip-path="url(#c0_3273)" preserveAspectRatio="none" x="767" y="41" width="72" height="18" xlink:href="img/1.jpg"/>
<path d="M95.9,702.4h.7V492h-.7V702.4Z" class="g0_3273"/>
<path d="M261.6,674.1h.8V488.9h-.8V674.1Z" class="g0_3273"/>
<path d="M317.9,674.1h.7V488.9h-.7V674.1Z" class="g0_3273"/>
<path d="M838.4,702.4h.7V492h-.7V702.4Z" class="g0_3273"/>
<path d="M95.9,492H839.1v-3.1H95.9V492Z" class="g0_3273"/>
<path d="M95.9,522.5H839.1v-3H95.9v3Z" class="g0_3273"/>
<path d="M95.9,551.9H839.1v-.7H95.9v.7Z" class="g0_3273"/>
<path d="M261.6,582.4H839.1v-.7H261.6v.7Z" class="g0_3273"/>
<path d="M95.9,613H839.1v-.8H95.9v.8Z" class="g0_3273"/>
<path d="M95.9,643.6H839.1v-.7H95.9v.7Z" class="g0_3273"/>
<path d="M95.9,674.1H839.1v-.7H95.9v.7Z" class="g0_3273"/>
<path d="M95.9,703.2H839.1v-.8H95.9v.8Z" class="g0_3273"/>
<path d="M95.9,977.4h.7v-215h-.7v215Z" class="g0_3273"/>
<path d="M247.1,898.7h.8V759.3h-.8V898.7Z" class="g0_3273"/>
<path d="M247.1,978.2h.8V922.4h-.8v55.8Z" class="g0_3273"/>
<path d="M291.1,898.7h.8V759.3h-.8V898.7Z" class="g0_3273"/>
<path d="M291.1,978.2h.8V922.4h-.8v55.8Z" class="g0_3273"/>
<path d="M349.4,898.7h.8V759.3h-.8V898.7Z" class="g0_3273"/>
<path d="M349.4,978.2h.8V922.4h-.8v55.8Z" class="g0_3273"/>
<path d="M428.6,898.7h.8V759.3h-.8V898.7Z" class="g0_3273"/>
<path d="M428.6,978.2h.8V922.4h-.8v55.8Z" class="g0_3273"/>
<path d="M840,977.4h.8v-215H840v215Z" class="g0_3273"/>
<path d="M95.9,762.4H840.8v-3H95.9v3Z" class="g0_3273"/>
<path d="M95.9,805.2H840.8v-3H95.9v3Z" class="g0_3273"/>
<path d="M95.9,843.7H840.8V843H95.9v.7Z" class="g0_3273"/>
<path d="M95.9,898.7H840.8V898H95.9v.7Z" class="g0_3273"/>
<path d="M95.9,923.2H840.8v-.8H95.9v.8Z" class="g0_3273"/>
<path d="M95.9,978.2H840.8v-.8H95.9v.8Z" class="g0_3273"/>
</svg>