<?xml version="1.0" encoding="UTF-8" standalone="no"?>
<!DOCTYPE svg PUBLIC "-//W3C//DTD SVG 1.1//EN"
"http://www.w3.org/Graphics/SVG/1.1/DTD/svg11.dtd">
<svg viewBox="0 0 935 1210" version="1.1" xmlns="http://www.w3.org/2000/svg" xmlns:xlink="http://www.w3.org/1999/xlink">
<defs>
<clipPath id="c0_2337"><path d="M97.3,59.2V41.4h72.1V59.2Z"/></clipPath>
<style type="text/css"><![CDATA[
.g0_2337{
fill: #000;
}
]]></style>
</defs>
<path d="M96.3,63.3H838.8v-.4H96.3v.4Z" class="g0_2337"/>
<path d="M96.1,1114.5h.2v-.4h-.2v.4Z" class="g0_2337"/>
<path d="M96.3,1114.5H838.9v-.4H96.3v.4Z" class="g0_2337"/>
<image clip-path="url(#c0_2337)" preserveAspectRatio="none" x="97" y="41" width="73" height="18" xlink:href="img/1.jpg"/>
<path d="M562.8,1012.4h31.5v-1.1H562.8v1.1Z" class="g0_2337"/>
<path d="M687.8,1012.4h20.3v-1.1H687.8v1.1Z" class="g0_2337"/>
<path d="M708.1,1012.4h8.5v-1.1h-8.5v1.1Z" class="g0_2337"/>
<path d="M562.8,1035.3h31.5v-1.1H562.8v1.1Z" class="g0_2337"/>
<path d="M687.8,1035.3h20.3v-1.1H687.8v1.1Z" class="g0_2337"/>
<path d="M708.1,1035.3h8.5v-1.1h-8.5v1.1Z" class="g0_2337"/>
<path d="M95.9,789.5h.7V698.6h-.7v90.9Z" class="g0_2337"/>
<path d="M239.7,790.3h.7V697.9h-.7v92.4Z" class="g0_2337"/>
<path d="M317,790.3h.7V697.9H317v92.4Z" class="g0_2337"/>
<path d="M837.6,789.5h.7V698.6h-.7v90.9Z" class="g0_2337"/>
<path d="M95.9,698.6H838.3v-.7H95.9v.7Z" class="g0_2337"/>
<path d="M95.9,722.7H838.3v-3H95.9v3Z" class="g0_2337"/>
<path d="M95.9,744.4H838.3v-.7H95.9v.7Z" class="g0_2337"/>
<path d="M95.9,767.3H838.3v-.7H95.9v.7Z" class="g0_2337"/>
<path d="M95.9,790.3H838.3v-.8H95.9v.8Z" class="g0_2337"/>
</svg>