<?xml version="1.0" encoding="UTF-8" standalone="no"?>
<!DOCTYPE svg PUBLIC "-//W3C//DTD SVG 1.1//EN"
"http://www.w3.org/Graphics/SVG/1.1/DTD/svg11.dtd">
<svg viewBox="0 0 935 1210" version="1.1" xmlns="http://www.w3.org/2000/svg" xmlns:xlink="http://www.w3.org/1999/xlink">
<defs>
<style type="text/css"><![CDATA[
.g0_221{
fill: #FFF;
}
.g1_221{
fill: #000;
}
]]></style>
</defs>
<path d="M68.9,1149.3H852.7v-21.2H68.9v21.2Z" class="g0_221"/>
<path d="M70.3,547.5H852.4V517.9H70.3v29.6Z" class="g0_221"/>
<path d="M71.2,540.8h53.6V528.5H71.2v12.3Z" class="g0_221"/>
<path d="M69.9,517.6h.8V322.8h-.8V517.6Z" class="g1_221"/>
<path d="M614.4,518.3h.8V322h-.8V518.3Z" class="g1_221"/>
<path d="M852,517.6h.8V322.8H852V517.6Z" class="g1_221"/>
<path d="M69.9,322.8H852.8V322H69.9v.8Z" class="g1_221"/>
<path d="M69.9,347.1H852.8v-.7H69.9v.7Z" class="g1_221"/>
<path d="M69.9,371.6H852.8v-.7H69.9v.7Z" class="g1_221"/>
<path d="M69.9,396.1H852.8v-.7H69.9v.7Z" class="g1_221"/>
<path d="M69.9,420.6H852.8v-.8H69.9v.8Z" class="g1_221"/>
<path d="M69.9,444.9H852.8v-.7H69.9v.7Z" class="g1_221"/>
<path d="M69.9,469.4H852.8v-.7H69.9v.7Z" class="g1_221"/>
<path d="M69.9,493.9H852.8v-.7H69.9v.7Z" class="g1_221"/>
<path d="M69.9,518.3H852.8v-.7H69.9v.7Z" class="g1_221"/>
</svg>