<?xml version="1.0" encoding="UTF-8" standalone="no"?>
<!DOCTYPE svg PUBLIC "-//W3C//DTD SVG 1.1//EN"
"http://www.w3.org/Graphics/SVG/1.1/DTD/svg11.dtd">
<svg viewBox="0 0 935 1210" version="1.1" xmlns="http://www.w3.org/2000/svg" xmlns:xlink="http://www.w3.org/1999/xlink">
<defs>
<clipPath id="c0_3276"><path d="M97.3,59.2V41.4h72.1V59.2Z"/></clipPath>
<style type="text/css"><![CDATA[
.g0_3276{
fill: #000;
}
]]></style>
</defs>
<path d="M96.3,63.3H838.8v-.4H96.3v.4Z" class="g0_3276"/>
<path d="M96.1,1114.5h.2v-.4h-.2v.4Z" class="g0_3276"/>
<path d="M96.3,1114.5H838.9v-.4H96.3v.4Z" class="g0_3276"/>
<image clip-path="url(#c0_3276)" preserveAspectRatio="none" x="97" y="41" width="73" height="18" xlink:href="img/1.jpg"/>
<path d="M95.9,273.1h.7V152.7h-.7V273.1Z" class="g0_3276"/>
<path d="M248.2,273.8h.8V149.7h-.8V273.8Z" class="g0_3276"/>
<path d="M290,273.8h.8V149.7H290V273.8Z" class="g0_3276"/>
<path d="M347.2,273.8h.8V149.7h-.8V273.8Z" class="g0_3276"/>
<path d="M423.1,273.8h.8V149.7h-.8V273.8Z" class="g0_3276"/>
<path d="M838.9,273.1h.8V152.7h-.8V273.1Z" class="g0_3276"/>
<path d="M95.9,152.8H839.7v-3H95.9v3Z" class="g0_3276"/>
<path d="M95.9,195.5H839.7v-3H95.9v3Z" class="g0_3276"/>
<path d="M95.9,234.1H839.7v-.7H95.9v.7Z" class="g0_3276"/>
<path d="M95.9,273.8H839.7v-.7H95.9v.7Z" class="g0_3276"/>
</svg>