<?xml version="1.0" encoding="UTF-8" standalone="no"?>
<!DOCTYPE svg PUBLIC "-//W3C//DTD SVG 1.1//EN"
"http://www.w3.org/Graphics/SVG/1.1/DTD/svg11.dtd">
<svg viewBox="0 0 935 1210" version="1.1" xmlns="http://www.w3.org/2000/svg" xmlns:xlink="http://www.w3.org/1999/xlink">
<defs>
<style type="text/css"><![CDATA[
.g0_310{
fill: #FFF;
}
.g1_310{
fill: #000;
}
]]></style>
</defs>
<path d="M68.8,1149.3H852.5v-21.2H68.8v21.2Z" class="g0_310"/>
<path d="M170.5,483.9h.7V173.1h-.7V483.9Z" class="g1_310"/>
<path d="M749.8,483.9h.8V173.1h-.8V483.9Z" class="g1_310"/>
<path d="M170.5,173H750.6v-.8H170.5v.8Z" class="g1_310"/>
<path d="M170.5,484.6H750.6v-.7H170.5v.7Z" class="g1_310"/>
<path d="M378.1,260.2H460V192.3H378.1v67.9Z" class="g0_310"/>
<path d="M378.1,193.1h82.7v-1.5H378.1v1.5Z" class="g1_310"/>
<path d="M459.3,261h1.5V192.3h-1.5V261Z" class="g1_310"/>
<path d="M377.4,261H460v-1.6H377.4V261Z" class="g1_310"/>
<path d="M377.4,260.2H379V191.6h-1.6v68.6Z" class="g1_310"/>
<path d="M378.3,411.4H542.5V383.9H378.3v27.5Z" class="g0_310"/>
<path d="M378.3,384.7h165v-1.5h-165v1.5Z" class="g1_310"/>
<path d="M541.8,412.2h1.5V383.9h-1.5v28.3Z" class="g1_310"/>
<path d="M377.6,412.2H542.5v-1.5H377.6v1.5Z" class="g1_310"/>
<path d="M377.6,411.4h1.5V383.2h-1.5v28.2Z" class="g1_310"/>
<path d="M378.4,383.9H542.5V356.4H378.4v27.5Z" class="g0_310"/>
<path d="M378.4,357.2H543.3v-1.5H378.4v1.5Z" class="g1_310"/>
<path d="M541.8,384.7h1.5V356.4h-1.5v28.3Z" class="g1_310"/>
<path d="M377.7,384.7H542.5v-1.5H377.7v1.5Z" class="g1_310"/>
<path d="M377.7,383.9h1.5V355.7h-1.5v28.2Z" class="g1_310"/>
<path d="M460.2,356h1.5v-.7h-1.5v.7Z" class="g1_310"/>
<path d="M460.2,383.5h1.5V356h-1.5v27.5Z" class="g1_310"/>
<path d="M459.8,260.4h82.7V192.5H459.8v67.9Z" class="g0_310"/>
<path d="M459.8,193.3h83.5v-1.5H459.8v1.5Z" class="g1_310"/>
<path d="M541.8,261.3h1.5V192.5h-1.5v68.8Z" class="g1_310"/>
<path d="M459.1,261.3h83.4v-1.6H459.1v1.6Z" class="g1_310"/>
<path d="M459.1,260.4h1.5V191.8h-1.5v68.6Z" class="g1_310"/>
<path d="M378.4,356.4H542.5V260.2H378.4v96.2Z" class="g0_310"/>
<path d="M378.4,261H543.3v-1.6H378.4V261Z" class="g1_310"/>
<path d="M541.8,357.2h1.5v-97h-1.5v97Z" class="g1_310"/>
<path d="M377.7,357.2H542.5v-1.5H377.7v1.5Z" class="g1_310"/>
<path d="M377.7,356.4h1.5v-97h-1.5v97Z" class="g1_310"/>
<path d="M413.2,448v6.3l-1,-.3l-18.5,-5.3l-2.6,-.7l2.6,-.8l18.5,-5.3l1,-.3v1.1l-.5,.7l-18.5,5.3l-.5,-1.5h.5l18.5,5.4l-.5,1.4l-.5,-.7V448Z" class="g1_310"/>
<path d="M411.7,448h1.5v-5.3h-1.5V448Z" class="g1_310"/>
<path fill-rule="evenodd" d="M412.5,448v5.3L394,448l18.5,-5.3Z" class="g1_310"/>
<path d="M506.7,448v-6.4l1,.3l18.5,5.3l2.5,.8l-2.5,.7L507.7,454l-1,.3v-1l.6,-.7l18.4,-5.4l.5,1.5h-.5l-18.4,-5.3l.4,-1.5l.6,.8V448Z" class="g1_310"/>
<path d="M506.7,453.3h1.6V448h-1.6v5.3Z" class="g1_310"/>
<path fill-rule="evenodd" d="M507.5,448v-5.3l18.4,5.3l-18.4,5.3Z" class="g1_310"/>
<path d="M412.5,448.8h.7v-1.6h-.7v1.6Z" class="g1_310"/>
<path d="M413.2,448.8h94.2v-1.6H413.2v1.6Z" class="g1_310"/>
<path d="M461.1,425.3h-4l.3,-1l2.9,-10.4l.8,-2.6l.7,2.6l3,10.4l.3,1h-1l-.7,-.5l-3.1,-10.5l1.5,-.4v.4l-2.9,10.5l-1.5,-.5l.7,-.5h3Z" class="g1_310"/>
<path d="M461.1,425.3h3v-1.5h-3v1.5Z" class="g1_310"/>
<path fill-rule="evenodd" d="M461.1,424.6h-3l3,-10.5l3,10.5Z" class="g1_310"/>
<path d="M461.1,431h4l-.3,1l-3,10.5l-.7,2.6l-.8,-2.6L457.4,432l-.3,-1h1l.8,.6l2.9,10.4l-1.5,.5V442l3.1,-10.4l1.4,.4l-.7,.6h-3Z" class="g1_310"/>
<path d="M458.2,432.6h2.9V431h-2.9v1.6Z" class="g1_310"/>
<path fill-rule="evenodd" d="M461.1,431.8h3l-3,10.4l-3,-10.4Z" class="g1_310"/>
<path d="M460.4,425.4h1.5v-.7h-1.5v.7Z" class="g1_310"/>
<path d="M460.4,431.8h1.5v-6.4h-1.5v6.4Z" class="g1_310"/>
</svg>