<?xml version="1.0" encoding="UTF-8" standalone="no"?>
<!DOCTYPE svg PUBLIC "-//W3C//DTD SVG 1.1//EN"
"http://www.w3.org/Graphics/SVG/1.1/DTD/svg11.dtd">
<svg viewBox="0 0 935 1210" version="1.1" xmlns="http://www.w3.org/2000/svg" xmlns:xlink="http://www.w3.org/1999/xlink">
<defs>
<style type="text/css"><![CDATA[
.g0_96{
fill: #000;
}
]]></style>
</defs>
<path d="M247.5,196.4h440v-1.6h-440v1.6Z" class="g0_96"/>
<path d="M247.5,218.8h440v-.7h-440v.7Z" class="g0_96"/>
<path d="M247.5,351.7h440V351h-440v.7Z" class="g0_96"/>
<path d="M247.5,394h440v-.7h-440v.7Z" class="g0_96"/>
<path d="M247.5,416.9h440v-.7h-440v.7Z" class="g0_96"/>
<path d="M247.5,790.2h440v-1.6h-440v1.6Z" class="g0_96"/>
<path d="M247.5,812.6h440v-.7h-440v.7Z" class="g0_96"/>
<path d="M247.5,945.5h440v-.8h-440v.8Z" class="g0_96"/>
<path d="M247.5,987.7h440V987h-440v.7Z" class="g0_96"/>
<path d="M247.5,1010.6h440v-.7h-440v.7Z" class="g0_96"/>
</svg>