<?xml version="1.0" encoding="UTF-8" standalone="no"?>
<!DOCTYPE svg PUBLIC "-//W3C//DTD SVG 1.1//EN"
"http://www.w3.org/Graphics/SVG/1.1/DTD/svg11.dtd">
<svg viewBox="0 0 935 1210" version="1.1" xmlns="http://www.w3.org/2000/svg" xmlns:xlink="http://www.w3.org/1999/xlink">
<defs>
<style type="text/css"><![CDATA[
.g0_31{
fill: none;
stroke: #000;
stroke-width: 0.608;
stroke-miterlimit: 10;
}
]]></style>
</defs>
<path d="M139.9,284.8H795.1m-654.9,21V285.1M182,305.8V285.1m91.2,20.7V285.1m521.6,20.7V285.1m-654.9,21H795.1m-654.9,21V306.4M182,327.1V306.4m91.2,20.7V306.4m521.6,20.7V306.4M140.2,347.8V327.1M182,347.8V327.1m91.2,20.7V327.1m521.6,20.7V327.1M140.2,368.5V347.8M182,368.5V347.8m91.2,20.7V347.8m521.6,20.7V347.8M140.2,389.2V368.5M182,389.2V368.5m91.2,20.7V368.5m521.6,20.7V368.5M140.2,409.9V389.2M182,409.9V389.2m91.2,20.7V389.2m521.6,20.7V389.2M140.2,430.6V409.9M182,430.6V409.9m91.2,20.7V409.9m521.6,20.7V409.9M140.2,451.3V430.6M182,451.3V430.6m91.2,20.7V430.6m521.6,20.7V430.6M140.2,472V451.3M182,472V451.3M273.2,472V451.3M794.8,472V451.3M140.2,492.7V472M182,492.7V472m91.2,20.7V472m521.6,20.7V472M140.2,513.4V492.7M182,513.4V492.7m91.2,20.7V492.7m521.6,20.7V492.7M140.2,534.1V513.4M182,534.1V513.4m91.2,20.7V513.4m521.6,20.7V513.4M140.2,554.8V534.1M182,554.8V534.1m91.2,20.7V534.1m521.6,20.7V534.1M140.2,575.5V554.8M182,575.5V554.8m91.2,20.7V554.8m521.6,20.7V554.8M140.2,596.2V575.5M182,596.2V575.5m91.2,20.7V575.5m521.6,20.7V575.5M140.2,616.9V596.2M182,616.9V596.2m91.2,20.7V596.2m521.6,20.7V596.2M140.2,637.6V616.9M182,637.6V616.9m91.2,20.7V616.9m521.6,20.7V616.9M140.2,658.3V637.6M182,658.3V637.6m91.2,20.7V637.6m521.6,20.7V637.6M140.2,679V658.3M182,679V658.3M273.2,679V658.3M794.8,679V658.3M140.2,699.7V679M182,699.7V679m91.2,20.7V679m521.6,20.7V679M140.2,720.4V699.7M182,720.4V699.7m91.2,20.7V699.7m521.6,20.7V699.7M140.2,741.1V720.4M182,741.1V720.4m91.2,20.7V720.4m521.6,20.7V720.4M140.2,761.8V741.1M182,761.8V741.1m91.2,20.7V741.1m521.6,20.7V741.1M140.2,782.5V761.8M182,782.5V761.8m91.2,20.7V761.8m521.6,20.7V761.8M140.2,803.2V782.5M182,803.2V782.5m91.2,20.7V782.5m521.6,20.7V782.5M140.2,823.9V803.2M182,823.9V803.2m91.2,20.7V803.2m521.6,20.7V803.2M140.2,844.6V823.9M182,844.6V823.9m91.2,20.7V823.9m521.6,20.7V823.9m-654.9,21H795.1" class="g0_31"/>
</svg>