<?xml version="1.0" encoding="UTF-8" standalone="no"?>
<!DOCTYPE svg PUBLIC "-//W3C//DTD SVG 1.1//EN"
"http://www.w3.org/Graphics/SVG/1.1/DTD/svg11.dtd">
<svg viewBox="0 0 935 1210" version="1.1" xmlns="http://www.w3.org/2000/svg" xmlns:xlink="http://www.w3.org/1999/xlink">
<defs>
<clipPath id="c0_1762"><path d="M766.6,59.2V41.4h72.1V59.2Z"/></clipPath>
<style type="text/css"><![CDATA[
.g0_1762{
fill: #000;
}
]]></style>
</defs>
<path d="M97.3,62.9v.3H839.9v-.3H97.3Z" class="g0_1762"/>
<path d="M96.2,1114.1h-.1v.4h.1v-.4Z" class="g0_1762"/>
<path d="M838.7,1114.1h.2v.4h-.2v-.4Z" class="g0_1762"/>
<path d="M96.2,1114.1v.4H838.7v-.4H96.2Z" class="g0_1762"/>
<image clip-path="url(#c0_1762)" preserveAspectRatio="none" x="767" y="41" width="72" height="18" xlink:href="img/1.jpg"/>
<path d="M96.6,180.2h-.7V398.4h.7V180.2Z" class="g0_1762"/>
<path d="M259.1,177.2h-.7V223h.7V177.2Z" class="g0_1762"/>
<path d="M259.1,220h-.7v65.3h.7V220Z" class="g0_1762"/>
<path d="M259.1,286.1h-.7v24.4h.7V286.1Z" class="g0_1762"/>
<path d="M259.1,309.7h-.7v64.2h.7V309.7Z" class="g0_1762"/>
<path d="M259.1,374.6h-.7v24.5h.7V374.6Z" class="g0_1762"/>
<path d="M298.8,177.2h-.7V223h.7V177.2Z" class="g0_1762"/>
<path d="M298.8,220h-.7v66.1h.7V220Z" class="g0_1762"/>
<path d="M298.8,285.3h-.7v25.2h.7V285.3Z" class="g0_1762"/>
<path d="M298.8,309.7h-.7v64.9h.7V309.7Z" class="g0_1762"/>
<path d="M298.8,373.9h-.7v25.2h.7V373.9Z" class="g0_1762"/>
<path d="M352.4,177.2h-.8V223h.8V177.2Z" class="g0_1762"/>
<path d="M352.4,220h-.8v66.1h.8V220Z" class="g0_1762"/>
<path d="M352.4,285.3h-.8v25.2h.8V285.3Z" class="g0_1762"/>
<path d="M352.4,309.7h-.8v64.9h.8V309.7Z" class="g0_1762"/>
<path d="M352.4,373.9h-.8v25.2h.8V373.9Z" class="g0_1762"/>
<path d="M425.3,177.2h-.7V223h.7V177.2Z" class="g0_1762"/>
<path d="M425.3,220h-.7v66.1h.7V220Z" class="g0_1762"/>
<path d="M425.3,285.3h-.7v25.2h.7V285.3Z" class="g0_1762"/>
<path d="M425.3,309.7h-.7v64.9h.7V309.7Z" class="g0_1762"/>
<path d="M425.3,373.9h-.7v25.2h.7V373.9Z" class="g0_1762"/>
<path d="M845.2,180.2h-.7V220h.7V180.2Z" class="g0_1762"/>
<path d="M845.2,223h-.7v62.3h.7V223Z" class="g0_1762"/>
<path d="M845.2,286.1h-.7v23.6h.7V286.1Z" class="g0_1762"/>
<path d="M845.2,310.5h-.7v63.4h.7V310.5Z" class="g0_1762"/>
<path d="M845.2,374.6h-.7v23.8h.7V374.6Z" class="g0_1762"/>
<path d="M95.9,177.3v3H845.2v-3H95.9Z" class="g0_1762"/>
<path d="M95.9,220v3H845.2v-3H95.9Z" class="g0_1762"/>
<path d="M258.4,260.9v.7H845.2v-.7H258.4Z" class="g0_1762"/>
<path d="M258.4,285.4v.7H845.2v-.7H258.4Z" class="g0_1762"/>
<path d="M95.9,309.7v.8H259.1v-.8H95.9Z" class="g0_1762"/>
<path d="M258.4,309.7v.8H845.2v-.8H258.4Z" class="g0_1762"/>
<path d="M258.4,334.2v.7H845.2v-.7H258.4Z" class="g0_1762"/>
<path d="M258.4,373.9v.7H845.2v-.7H258.4Z" class="g0_1762"/>
<path d="M95.9,398.4v.7H845.2v-.7H95.9Z" class="g0_1762"/>
</svg>