<?xml version="1.0" encoding="UTF-8" standalone="no"?>
<!DOCTYPE svg PUBLIC "-//W3C//DTD SVG 1.1//EN"
"http://www.w3.org/Graphics/SVG/1.1/DTD/svg11.dtd">
<svg viewBox="0 0 935 1210" version="1.1" xmlns="http://www.w3.org/2000/svg" xmlns:xlink="http://www.w3.org/1999/xlink">
<defs>
<style type="text/css"><![CDATA[
.g0_191{
fill: #FFF;
}
.g1_191{
fill: #000;
}
]]></style>
</defs>
<path d="M68.9,1149.3H852.7v-21.2H68.9v21.2Z" class="g0_191"/>
<path d="M171.3,614.3h.8V200.6h-.8V614.3Z" class="g1_191"/>
<path d="M750.7,614.3h.7V200.6h-.7V614.3Z" class="g1_191"/>
<path d="M171.3,200.5H751.4v-.8H171.3v.8Z" class="g1_191"/>
<path d="M171.3,615.1H751.4v-.8H171.3v.8Z" class="g1_191"/>
<path d="M267.9,250.5H656.6v-.7H267.9v.7Z" class="g1_191"/>
<path d="M655.9,283.1h.7V250.2h-.7v32.9Z" class="g1_191"/>
<path d="M267.5,283.1H656.2v-.8H267.5v.8Z" class="g1_191"/>
<path d="M267.5,282.7h.7V249.8h-.7v32.9Z" class="g1_191"/>
<path d="M210.7,250.5h25.7v-.7H210.7v.7Z" class="g1_191"/>
<path d="M235.7,283.1h.7V250.2h-.7v32.9Z" class="g1_191"/>
<path d="M210.3,283.1H236v-.8H210.3v.8Z" class="g1_191"/>
<path d="M210.3,282.7h.7V249.8h-.7v32.9Z" class="g1_191"/>
<path d="M246.9,266.9h2.2v-.4h-2.2v.4Z" class="g1_191"/>
<path d="M247.5,266.3l1.4,2.3l1,1.7l-1.9,-.5l-8.2,-2.3l-2.5,-.8l2.5,-.7l8.2,-2.4l1.8,-.5l-.9,1.6l-.5,.4l-8.1,2.4l-.5,-1.5h.5l8.1,2.3l-.4,1.5l-.5,-.4l-1.4,-2.3Z" class="g1_191"/>
<path d="M248.9,264.7l-1.4,2.4h-1.4l-.2,-.3l.2,-.4l1.4,-2.4Z" class="g1_191"/>
<path fill-rule="evenodd" d="M246.9,266.7l1.3,2.3l-8.1,-2.3l8.1,-2.3Z" class="g1_191"/>
<path d="M267.4,267h.2v-.4h-.2v.4Z" class="g1_191"/>
<path d="M248.9,267h18.5v-.4H248.9v.4Z" class="g1_191"/>
<path d="M666.9,267H669v-.4h-2.1v.4Z" class="g1_191"/>
<path d="M667.5,266.5l1.4,2.4l1,1.6L668,270l-8.3,-2.4l-2.6,-.8l2.6,-.7l8.3,-2.3l1.9,-.5l-1,1.6l-.5,.4l-8.2,2.3l-.5,-1.5h.5l8.2,2.4L668,270l-.5,-.4l-1.4,-2.4Z" class="g1_191"/>
<path d="M668.9,264.9l-1.4,2.3h-1.4l-.2,-.4l.2,-.4l1.4,-2.3Z" class="g1_191"/>
<path fill-rule="evenodd" d="M666.9,266.8l1.3,2.4L660,266.8l8.2,-2.3Z" class="g1_191"/>
<path d="M668.8,267.1h17.3v-.4H668.8v.4Z" class="g1_191"/>
<path d="M685.7,314.9h.4V266.8h-.4v48.1Z" class="g1_191"/>
<path d="M256.1,314.9H685.8v-.5H256.1v.5Z" class="g1_191"/>
<path d="M256.1,314.6h.5V267.8h-.5v46.8Z" class="g1_191"/>
<path d="M267.8,356.7H656.5v-.8H267.8v.8Z" class="g1_191"/>
<path d="M655.8,383h.7V356.3h-.7V383Z" class="g1_191"/>
<path d="M267.4,383H656.2v-.7H267.4v.7Z" class="g1_191"/>
<path d="M267.4,382.6h.7V355.9h-.7v26.7Z" class="g1_191"/>
<path d="M688,356.7h25.7v-.8H688v.8Z" class="g1_191"/>
<path d="M713,383h.7V356.3H713V383Z" class="g1_191"/>
<path d="M687.6,383h25.7v-.7H687.6v.7Z" class="g1_191"/>
<path d="M687.6,382.6h.7V355.9h-.7v26.7Z" class="g1_191"/>
<path d="M675,370h2.1v-.5H675v.5Z" class="g1_191"/>
<path d="M676.5,370.1l-1.4,-2.4l-1,-1.7l1.9,.6l8.3,2.4l2.6,.7l-2.6,.7l-8.3,2.4l-1.8,.6l.9,-1.7l.5,-.4l8.2,-2.3l.5,1.4h-.5L675.6,368l.4,-1.4l.5,.3l1.4,2.4Z" class="g1_191"/>
<path d="M675.1,371.7l1.4,-2.4h1.4l.2,.4l-.2,.4l-1.4,2.3Z" class="g1_191"/>
<path fill-rule="evenodd" d="M677.1,369.7l-1.3,-2.4l8.2,2.4l-8.2,2.4Z" class="g1_191"/>
<path d="M656.5,370h.2v-.5h-.2v.5Z" class="g1_191"/>
<path d="M656.7,370h18.5v-.5H656.7v.5Z" class="g1_191"/>
<path d="M255,370.2h2.1v-.5H255v.5Z" class="g1_191"/>
<path d="M256.5,370.2l-1.3,-2.3l-1,-1.7l1.9,.6l8.2,2.3l2.5,.8l-2.5,.7l-8.2,2.3l-1.8,.6l.9,-1.7l.5,-.4l8.1,-2.3l.5,1.5h-.5l-8.1,-2.4l.4,-1.4l.5,.3l1.3,2.4Z" class="g1_191"/>
<path d="M255.2,371.8l1.3,-2.3h1.4l.1,.4l-.1,.3l-1.3,2.3Z" class="g1_191"/>
<path fill-rule="evenodd" d="M257.1,369.9l-1.3,-2.4l8.2,2.4l-8.2,2.3Z" class="g1_191"/>
<path d="M238,370.2h17.2v-.5H238v.5Z" class="g1_191"/>
<path d="M238,408.6h.4V369.9H238v38.7Z" class="g1_191"/>
<path d="M238.2,408.6H668v-.4H238.2v.4Z" class="g1_191"/>
<path d="M667.5,408.4h.5V370.5h-.5v37.9Z" class="g1_191"/>
<path d="M267,477H655.8v-.7H267v.7Z" class="g1_191"/>
<path d="M655.1,503.2h.7V476.7h-.7v26.5Z" class="g1_191"/>
<path d="M266.7,503.2H655.4v-.7H266.7v.7Z" class="g1_191"/>
<path d="M266.7,502.9h.7V476.3h-.7v26.6Z" class="g1_191"/>
<path d="M209.8,477h25.8v-.7H209.8v.7Z" class="g1_191"/>
<path d="M234.9,503.2h.7V476.7h-.7v26.5Z" class="g1_191"/>
<path d="M209.5,503.2h25.7v-.7H209.5v.7Z" class="g1_191"/>
<path d="M209.5,502.9h.7V476.3h-.7v26.6Z" class="g1_191"/>
<path d="M246.1,490.1h2.1v-.4h-2.1v.4Z" class="g1_191"/>
<path d="M246.8,489.6l1.3,2.4l1.1,1.6l-2,-.5L239,490.7l-2.7,-.7l2.7,-.8l8.2,-2.3l2,-.5l-1.1,1.6l-.4,.4l-8.3,2.3l-.4,-1.5h.4l8.3,2.4l-.5,1.5l-.4,-.4l-1.4,-2.4Z" class="g1_191"/>
<path d="M248.1,488l-1.3,2.3h-1.4l-.3,-.4l.3,-.4l1.4,-2.3Z" class="g1_191"/>
<path fill-rule="evenodd" d="M246.1,490l1.4,2.3L239.3,490l8.2,-2.3Z" class="g1_191"/>
<path d="M266.6,490.2h.1v-.4h-.1v.4Z" class="g1_191"/>
<path d="M248.1,490.2h18.5v-.4H248.1v.4Z" class="g1_191"/>
<path d="M666.9,490.3H669v-.4h-2.1v.4Z" class="g1_191"/>
<path d="M667.5,489.8l1.3,2.3l1,1.6l-1.9,-.5l-8.2,-2.3l-2.4,-.8l2.4,-.7l8.2,-2.4l1.8,-.5l-.9,1.6l-.5,.4l-8.1,2.4l-.5,-1.5h.5l8.1,2.3l-.4,1.5l-.5,-.4l-1.3,-2.3Z" class="g1_191"/>
<path d="M668.8,488.1l-1.3,2.4h-1.4l-.1,-.4l.1,-.3l1.3,-2.4Z" class="g1_191"/>
<path fill-rule="evenodd" d="M666.9,490.1l1.3,2.3L660,490.1l8.2,-2.3Z" class="g1_191"/>
<path d="M668.8,490.4h16.6V490H668.8v.4Z" class="g1_191"/>
<path d="M684.9,490.1h.5V444.7h-.5v45.4Z" class="g1_191"/>
<path d="M190.9,445.1H685.1v-.4H190.9v.4Z" class="g1_191"/>
<path d="M190.9,490.2h.5V444.9h-.5v45.3Z" class="g1_191"/>
<path d="M209.6,490.2h.1v-.4h-.1v.4Z" class="g1_191"/>
<path d="M191.2,490.2h18.4v-.4H191.2v.4Z" class="g1_191"/>
<path d="M268.3,577.4H657.1v-.7H268.3v.7Z" class="g1_191"/>
<path d="M656.3,603.7h.8V577h-.8v26.7Z" class="g1_191"/>
<path d="M267.9,603.7H656.7V603H267.9v.7Z" class="g1_191"/>
<path d="M267.9,603.4h.8V576.7h-.8v26.7Z" class="g1_191"/>
<path d="M688.5,577.4h25.8v-.7H688.5v.7Z" class="g1_191"/>
<path d="M713.5,603.7h.8V577h-.8v26.7Z" class="g1_191"/>
<path d="M688.1,603.7h25.8V603H688.1v.7Z" class="g1_191"/>
<path d="M688.1,603.4h.8V576.7h-.8v26.7Z" class="g1_191"/>
<path d="M675.6,590.7h2.1v-.5h-2.1v.5Z" class="g1_191"/>
<path d="M677.1,590.8l-1.4,-2.4l-1,-1.6l1.9,.5l8.2,2.4l2.6,.7l-2.6,.8l-8.2,2.3l-1.8,.6l.9,-1.7l.4,-.3l8.3,-2.4l.4,1.5h-.4l-8.3,-2.4l.5,-1.5l.5,.4l1.3,2.4Z" class="g1_191"/>
<path d="M675.7,592.4l1.4,-2.3h1.3l.2,.3l-.2,.4l-1.3,2.4Z" class="g1_191"/>
<path fill-rule="evenodd" d="M677.7,590.4L676.3,588l8.3,2.4l-8.3,2.4Z" class="g1_191"/>
<path d="M657.1,590.7h.1v-.5h-.1v.5Z" class="g1_191"/>
<path d="M657.3,590.7h18.5v-.5H657.3v.5Z" class="g1_191"/>
<path d="M254.8,590.9h2.1v-.5h-2.1v.5Z" class="g1_191"/>
<path d="M256.3,591l-1.4,-2.4l-1,-1.7l1.9,.6l8.3,2.4l2.6,.7l-2.6,.7l-8.3,2.3l-1.9,.6l1,-1.7l.5,-.3l8.2,-2.3l.5,1.4h-.5L255.4,589l.4,-1.5l.5,.4l1.4,2.3Z" class="g1_191"/>
<path d="M254.9,592.5l1.4,-2.3h1.4l.2,.5l-.2,.4l-1.4,2.3Z" class="g1_191"/>
<path fill-rule="evenodd" d="M256.9,590.6l-1.3,-2.4l8.2,2.4l-8.2,2.3Z" class="g1_191"/>
<path d="M238.5,590.9H255v-.5H238.5v.5Z" class="g1_191"/>
<path d="M238.5,590.6h.5V545h-.5v45.6Z" class="g1_191"/>
<path d="M238.7,545.5H733v-.4H238.7v.4Z" class="g1_191"/>
<path d="M732.5,590.7h.5V545.2h-.5v45.5Z" class="g1_191"/>
<path d="M714.1,590.7h.2v-.5h-.2v.5Z" class="g1_191"/>
<path d="M714.3,590.7h18.2v-.5H714.3v.5Z" class="g1_191"/>
</svg>