<?xml version="1.0" encoding="UTF-8" standalone="no"?>
<!DOCTYPE svg PUBLIC "-//W3C//DTD SVG 1.1//EN"
"http://www.w3.org/Graphics/SVG/1.1/DTD/svg11.dtd">
<svg viewBox="0 0 935 1210" version="1.1" xmlns="http://www.w3.org/2000/svg" xmlns:xlink="http://www.w3.org/1999/xlink">
<defs>
<clipPath id="c0_1697"><path d="M97.3,59.2V41.4h72.1V59.2Z"/></clipPath>
<style type="text/css"><![CDATA[
.g0_1697{
fill: #000;
}
]]></style>
</defs>
<path d="M96.2,62.9v.3H838.7v-.3H96.2Z" class="g0_1697"/>
<path d="M96.2,1114.1h-.1v.4h.1v-.4Z" class="g0_1697"/>
<path d="M838.7,1114.1h.2v.4h-.2v-.4Z" class="g0_1697"/>
<path d="M96.2,1114.1v.4H838.7v-.4H96.2Z" class="g0_1697"/>
<image clip-path="url(#c0_1697)" preserveAspectRatio="none" x="97" y="41" width="72" height="18" xlink:href="img/1.jpg"/>
<path d="M96.6,427.8h-.7V627.5h.7V427.8Z" class="g0_1697"/>
<path d="M206.2,424.7h-.7V628.3h.7V424.7Z" class="g0_1697"/>
<path d="M481.2,424.7h-.7V628.3h.7V424.7Z" class="g0_1697"/>
<path d="M777.2,427.8h-.7V627.5h.7V427.8Z" class="g0_1697"/>
<path d="M95.9,424.8v3H777.2v-3H95.9Z" class="g0_1697"/>
<path d="M95.9,449.2v3.1H777.2v-3.1H95.9Z" class="g0_1697"/>
<path d="M95.9,474.7v.8H777.2v-.8H95.9Z" class="g0_1697"/>
<path d="M95.9,499.2v.7H777.2v-.7H95.9Z" class="g0_1697"/>
<path d="M95.9,523.7v.7H777.2v-.7H95.9Z" class="g0_1697"/>
<path d="M95.9,548.1v.7H777.2v-.7H95.9Z" class="g0_1697"/>
<path d="M95.9,603.1v.7H777.2v-.7H95.9Z" class="g0_1697"/>
<path d="M95.9,627.5v.8H777.2v-.8H95.9Z" class="g0_1697"/>
</svg>