<?xml version="1.0" encoding="UTF-8" standalone="no"?>
<!DOCTYPE svg PUBLIC "-//W3C//DTD SVG 1.1//EN"
"http://www.w3.org/Graphics/SVG/1.1/DTD/svg11.dtd">
<svg viewBox="0 0 935 1210" version="1.1" xmlns="http://www.w3.org/2000/svg" xmlns:xlink="http://www.w3.org/1999/xlink">
<defs>
<style type="text/css"><![CDATA[
.g0_173{
fill: #FFF;
}
.g1_173{
fill: #000;
}
]]></style>
</defs>
<path d="M68.9,1149.3H852.7v-21.2H68.9v21.2Z" class="g0_173"/>
<path d="M170.6,357.1h.7V113.5h-.7V357.1Z" class="g1_173"/>
<path d="M751.4,357.1h.7V113.5h-.7V357.1Z" class="g1_173"/>
<path d="M170.6,113.4H752.1v-.7H170.6v.7Z" class="g1_173"/>
<path d="M170.6,357.9H752.1v-.8H170.6v.8Z" class="g1_173"/>
<path d="M305.9,350.4H415.8v-55H305.9v55Z" class="g0_173"/>
<path d="M305.9,295.7H416.2V295H305.9v.7Z" class="g1_173"/>
<path d="M415.4,350.7h.8V295.4h-.8v55.3Z" class="g1_173"/>
<path d="M305.5,350.7H415.8V350H305.5v.7Z" class="g1_173"/>
<path d="M305.5,350.4h.8V295h-.8v55.4Z" class="g1_173"/>
<path d="M305.3,322.9h.4v-.8h-.4v.8Z" class="g1_173"/>
<path d="M305.7,322.9H416.2v-.8H305.7v.8Z" class="g1_173"/>
<path d="M305.7,150.6H416.2v-.7H305.7v.7Z" class="g1_173"/>
<path d="M415.4,178.1h.8V150.2h-.8v27.9Z" class="g1_173"/>
<path d="M305.3,178.1H415.8v-.7H305.3v.7Z" class="g1_173"/>
<path d="M305.3,177.7h.8V149.9h-.8v27.8Z" class="g1_173"/>
<path d="M386,150.2h.7v-.3H386v.3Z" class="g1_173"/>
<path d="M386,178.1h.7V150.2H386v27.9Z" class="g1_173"/>
<path d="M349.3,295.4h.8V295h-.8v.4Z" class="g1_173"/>
<path d="M349.3,323.2h.8V295.4h-.8v27.8Z" class="g1_173"/>
<path d="M379.5,295.4h.7V295h-.7v.4Z" class="g1_173"/>
<path d="M379.5,323.2h.7V295.4h-.7v27.8Z" class="g1_173"/>
<path d="M305.7,223.4H416.2v-.7H305.7v.7Z" class="g1_173"/>
<path d="M415.4,250.9h.8V223h-.8v27.9Z" class="g1_173"/>
<path d="M305.3,250.9H415.8v-.7H305.3v.7Z" class="g1_173"/>
<path d="M305.3,250.5h.8V222.7h-.8v27.8Z" class="g1_173"/>
<path d="M386,223h.7v-.3H386v.3Z" class="g1_173"/>
<path d="M386,250.9h.7V223H386v27.9Z" class="g1_173"/>
<path d="M553.3,244.1h69.1v-.7H553.3v.7Z" class="g1_173"/>
<path d="M621.7,326.6h.7V243.7h-.7v82.9Z" class="g1_173"/>
<path d="M552.9,326.6h69.2v-.7H552.9v.7Z" class="g1_173"/>
<path d="M552.9,326.2h.8V243.4h-.8v82.8Z" class="g1_173"/>
<path d="M541.7,277.4h2.1v-.7h-2.1v.7Z" class="g1_173"/>
<path d="M543.1,277.4L541.8,275l-1,-1.7l2,.6l8.1,2.4l2.5,.7l-2.5,.7l-8.1,2.4l-1.9,.6l.9,-1.7l.5,-.3l8.2,-2.4l.4,1.4h-.4l-8.2,-2.3l.5,-1.5l.4,.4l1.3,2.4Z" class="g1_173"/>
<path d="M541.8,279l1.3,-2.3h1.4l.2,.3l-.2,.4l-1.3,2.4Z" class="g1_173"/>
<path fill-rule="evenodd" d="M543.8,277l-1.3,-2.4l8.1,2.4l-8.1,2.4Z" class="g1_173"/>
<path d="M415.5,237.2h71.3v-.7H415.5v.7Z" class="g1_173"/>
<path d="M486.1,277.4h.7V236.9h-.7v40.5Z" class="g1_173"/>
<path d="M486.5,277.4H542v-.7H486.5v.7Z" class="g1_173"/>
<path d="M541.7,260.1h2.1v-.8h-2.1v.8Z" class="g1_173"/>
<path d="M543.1,260.1l-1.3,-2.4l-1,-1.7l2,.6l8.1,2.4l2.6,.7l-2.6,.7l-8.1,2.3l-1.9,.6l.9,-1.7l.5,-.3l8.2,-2.3l.4,1.4h-.4L542.3,258l.5,-1.4l.4,.3l1.3,2.4Z" class="g1_173"/>
<path d="M541.8,261.6l1.3,-2.3h1.4l.2,.4l-.2,.4l-1.3,2.2Z" class="g1_173"/>
<path fill-rule="evenodd" d="M543.8,259.7l-1.3,-2.4l8.1,2.4l-8.1,2.3Z" class="g1_173"/>
<path d="M416.4,165.6h95.2v-.7H416.4v.7Z" class="g1_173"/>
<path d="M510.9,260.1h.7V165.3h-.7v94.8Z" class="g1_173"/>
<path d="M511.2,260.1H542v-.8H511.2v.8Z" class="g1_173"/>
<path d="M391.1,295.4h.7V295h-.7v.4Z" class="g1_173"/>
<path d="M391.1,323.2h.7V295.4h-.7v27.8Z" class="g1_173"/>
<path d="M404.3,295.4h.8v-.3h-.8v.3Z" class="g1_173"/>
<path d="M404.3,323.3h.8V295.4h-.8v27.9Z" class="g1_173"/>
<path d="M541.2,294.6h2.1v-.7h-2.1v.7Z" class="g1_173"/>
<path d="M542.7,294.6l-1.4,-2.4l-1,-1.6l1.9,.5l8.3,2.4l2.6,.8l-2.6,.7l-8.3,2.3l-1.9,.5l1,-1.6l.5,-.4l8.2,-2.3l.5,1.5H550l-8.2,-2.4l.4,-1.5l.5,.4l1.3,2.4Z" class="g1_173"/>
<path d="M541.3,296.2l1.4,-2.3H544l.3,.4l-.3,.4l-1.3,2.3Z" class="g1_173"/>
<path fill-rule="evenodd" d="M543.3,294.2l-1.4,-2.3l8.3,2.3l-8.3,2.3Z" class="g1_173"/>
<path d="M397.7,330.4h.7v-8.1h-.7v8.1Z" class="g1_173"/>
<path d="M398,330.4h54.7v-.8H398v.8Z" class="g1_173"/>
<path d="M452,330h.7V293.9H452V330Z" class="g1_173"/>
<path d="M452.4,294.6h89.2v-.7H452.4v.7Z" class="g1_173"/>
<path d="M541.2,312h2.1v-.7h-2.1v.7Z" class="g1_173"/>
<path d="M542.7,312l-1.4,-2.4l-1,-1.6l1.9,.5l8.3,2.4l2.6,.8l-2.6,.7l-8.3,2.3l-1.9,.5l1,-1.6l.5,-.4l8.2,-2.3l.5,1.5H550L541.8,310l.4,-1.5l.5,.4l1.3,2.4Z" class="g1_173"/>
<path d="M541.3,313.6l1.4,-2.3H544l.3,.5l-.3,.3l-1.3,2.3Z" class="g1_173"/>
<path fill-rule="evenodd" d="M543.3,311.7l-1.4,-2.4l8.3,2.4l-8.3,2.3Z" class="g1_173"/>
<path d="M364.6,339.5h.8V322.3h-.8v17.2Z" class="g1_173"/>
<path d="M365,339.5H488.2v-.7H365v.7Z" class="g1_173"/>
<path d="M487.5,339.2h.7V311.3h-.7v27.9Z" class="g1_173"/>
<path d="M487.9,312h53.7v-.7H487.9v.7Z" class="g1_173"/>
</svg>