<?xml version="1.0" encoding="UTF-8" standalone="no"?>
<!DOCTYPE svg PUBLIC "-//W3C//DTD SVG 1.1//EN"
"http://www.w3.org/Graphics/SVG/1.1/DTD/svg11.dtd">
<svg viewBox="0 0 935 1210" version="1.1" xmlns="http://www.w3.org/2000/svg" xmlns:xlink="http://www.w3.org/1999/xlink">
<defs>
<style type="text/css"><![CDATA[
.g0_2675{
fill: #FFF;
}
.g1_2675{
fill: #000;
}
]]></style>
</defs>
<path d="M68.9,1149.3H755.2v-21.2H68.9v21.2Z" class="g0_2675"/>
<path d="M771.3,1149.3H855v-21.2H771.3v21.2Z" class="g0_2675"/>
<path d="M69.9,251.7h.8v-126h-.8v126Z" class="g1_2675"/>
<path d="M304.6,179.1h.7V124.9h-.7v54.2Z" class="g1_2675"/>
<path d="M304.6,252.4h.7v-74h-.7v74Z" class="g1_2675"/>
<path d="M352.2,179.1h.7V124.9h-.7v54.2Z" class="g1_2675"/>
<path d="M352.2,252.4h.7v-74h-.7v74Z" class="g1_2675"/>
<path d="M425.5,179.1h.8V124.9h-.8v54.2Z" class="g1_2675"/>
<path d="M425.5,252.4h.8v-74h-.8v74Z" class="g1_2675"/>
<path d="M550.4,252.4h.7V124.9h-.7V252.4Z" class="g1_2675"/>
<path d="M852.1,251.7h.8v-126h-.8v126Z" class="g1_2675"/>
<path d="M69.9,125.7h783v-.8H69.9v.8Z" class="g1_2675"/>
<path d="M69.9,179.1H551.1v-.7H69.9v.7Z" class="g1_2675"/>
<path d="M550.4,179.1H852.9v-.7H550.4v.7Z" class="g1_2675"/>
<path d="M69.9,252.4H550.4v-.7H69.9v.7Z" class="g1_2675"/>
<path d="M551.1,252.4H852.9v-.7H551.1v.7Z" class="g1_2675"/>
<path d="M69.9,355.6h.8V307.4h-.8v48.2Z" class="g1_2675"/>
<path d="M135.7,356.4h.7V306.7h-.7v49.7Z" class="g1_2675"/>
<path d="M228.9,356.4h.7V306.7h-.7v49.7Z" class="g1_2675"/>
<path d="M375,356.4h.7V306.7H375v49.7Z" class="g1_2675"/>
<path d="M534.9,356.4h.7V306.7h-.7v49.7Z" class="g1_2675"/>
<path d="M693.5,356.4h.8V306.7h-.8v49.7Z" class="g1_2675"/>
<path d="M850.2,355.6h.7V307.4h-.7v48.2Z" class="g1_2675"/>
<path d="M69.9,307.4H851v-.7H69.9v.7Z" class="g1_2675"/>
<path d="M69.9,331.9H851v-.7H69.9v.7Z" class="g1_2675"/>
<path d="M69.9,356.3H851v-.7H69.9v.7Z" class="g1_2675"/>
</svg>