<?xml version="1.0" encoding="UTF-8" standalone="no"?>
<!DOCTYPE svg PUBLIC "-//W3C//DTD SVG 1.1//EN"
"http://www.w3.org/Graphics/SVG/1.1/DTD/svg11.dtd">
<svg viewBox="0 0 825 990" version="1.1" xmlns="http://www.w3.org/2000/svg" xmlns:xlink="http://www.w3.org/1999/xlink">
<defs>
<style type="text/css"><![CDATA[
.g0_888{
fill: #000;
}
]]></style>
</defs>
<path d="M79.8,910.3h.3v-.8h-.3v.8Z" class="g0_888"/>
<path d="M80.1,910.3h650v-.8H80.1v.8Z" class="g0_888"/>
<path d="M144.4,223.9H729.8v-.7H144.4v.7Z" class="g0_888"/>
<path d="M144.4,259.1H729.8v-.7H144.4v.7Z" class="g0_888"/>
<path d="M144.4,287.8H729.8v-.1H144.4v.1Z" class="g0_888"/>
<path d="M144.4,316.9H729.8v-.2H144.4v.2Z" class="g0_888"/>
<path d="M144.4,346H729.8v-.2H144.4v.2Z" class="g0_888"/>
<path d="M144.4,374.9H729.8v-.2H144.4v.2Z" class="g0_888"/>
<path d="M144.4,404H729.8v-.2H144.4v.2Z" class="g0_888"/>
<path d="M144.4,433.3H729.8v-.7H144.4v.7Z" class="g0_888"/>
</svg>