<?xml version="1.0" encoding="UTF-8" standalone="no"?>
<!DOCTYPE svg PUBLIC "-//W3C//DTD SVG 1.1//EN"
"http://www.w3.org/Graphics/SVG/1.1/DTD/svg11.dtd">
<svg viewBox="0 0 935 1210" version="1.1" xmlns="http://www.w3.org/2000/svg" xmlns:xlink="http://www.w3.org/1999/xlink">
<defs>
<style type="text/css"><![CDATA[
.g0_2862{
fill: #FFF;
}
.g1_2862{
fill: #000;
}
]]></style>
</defs>
<path d="M68.8,1149H853.3v-21.4H68.8V1149Z" class="g0_2862"/>
<path d="M67.5,374.7h2.3V170.8H67.5V374.7Z" class="g1_2862"/>
<path d="M67.5,603.9h2.3v-204H67.5v204Z" class="g1_2862"/>
<path d="M104.1,377h2.3V168.5h-2.3V377Z" class="g1_2862"/>
<path d="M104.1,606.2h2.3V397.7h-2.3V606.2Z" class="g1_2862"/>
<path d="M203,193.7h.8V168.5H203v25.2Z" class="g1_2862"/>
<path d="M203,238.7h.8V215.1H203v23.6Z" class="g1_2862"/>
<path d="M203,330.4h.8V260.9H203v69.5Z" class="g1_2862"/>
<path d="M203,377h.8V352.6H203V377Z" class="g1_2862"/>
<path d="M203,422.9h.8V397.7H203v25.2Z" class="g1_2862"/>
<path d="M203,467.9h.8V444.2H203v23.7Z" class="g1_2862"/>
<path d="M203,513.7h.8V490H203v23.7Z" class="g1_2862"/>
<path d="M203,606.2h.8V535.9H203v70.3Z" class="g1_2862"/>
<path d="M295,193.7h.7V168.5H295v25.2Z" class="g1_2862"/>
<path d="M295,238.7h.7V215.1H295v23.6Z" class="g1_2862"/>
<path d="M295,330.4h.7V260.9H295v69.5Z" class="g1_2862"/>
<path d="M295,377h.7V352.6H295V377Z" class="g1_2862"/>
<path d="M295,422.9h.7V397.7H295v25.2Z" class="g1_2862"/>
<path d="M295,467.9h.7V444.2H295v23.7Z" class="g1_2862"/>
<path d="M295,513.7h.7V490H295v23.7Z" class="g1_2862"/>
<path d="M295,606.2h.7V535.9H295v70.3Z" class="g1_2862"/>
<path d="M387.3,193.7h.7V168.5h-.7v25.2Z" class="g1_2862"/>
<path d="M387.3,238.7h.7V215.1h-.7v23.6Z" class="g1_2862"/>
<path d="M387.3,330.4h.7V260.9h-.7v69.5Z" class="g1_2862"/>
<path d="M387.3,377h.7V352.6h-.7V377Z" class="g1_2862"/>
<path d="M387.3,422.9h.7V397.7h-.7v25.2Z" class="g1_2862"/>
<path d="M387.3,467.9h.7V444.2h-.7v23.7Z" class="g1_2862"/>
<path d="M387.3,513.7h.7V490h-.7v23.7Z" class="g1_2862"/>
<path d="M387.3,606.2h.7V535.9h-.7v70.3Z" class="g1_2862"/>
<path d="M479.5,193.7h.7V168.5h-.7v25.2Z" class="g1_2862"/>
<path d="M479.5,238.7h.7V215.1h-.7v23.6Z" class="g1_2862"/>
<path d="M479.5,330.4h.7V260.9h-.7v69.5Z" class="g1_2862"/>
<path d="M479.5,377h.7V352.6h-.7V377Z" class="g1_2862"/>
<path d="M479.5,422.9h.7V397.7h-.7v25.2Z" class="g1_2862"/>
<path d="M479.5,467.9h.7V444.2h-.7v23.7Z" class="g1_2862"/>
<path d="M479.5,513.7h.7V490h-.7v23.7Z" class="g1_2862"/>
<path d="M479.5,606.2h.7V535.9h-.7v70.3Z" class="g1_2862"/>
<path d="M571.7,193.7h.8V168.5h-.8v25.2Z" class="g1_2862"/>
<path d="M571.7,238.7h.8V215.1h-.8v23.6Z" class="g1_2862"/>
<path d="M571.7,330.4h.8V260.9h-.8v69.5Z" class="g1_2862"/>
<path d="M571.7,377h.8V352.6h-.8V377Z" class="g1_2862"/>
<path d="M571.7,422.9h.8V397.7h-.8v25.2Z" class="g1_2862"/>
<path d="M571.7,467.9h.8V444.2h-.8v23.7Z" class="g1_2862"/>
<path d="M571.7,513.7h.8V490h-.8v23.7Z" class="g1_2862"/>
<path d="M571.7,606.2h.8V535.9h-.8v70.3Z" class="g1_2862"/>
<path d="M663.9,193.7h.8V168.5h-.8v25.2Z" class="g1_2862"/>
<path d="M663.9,238.7h.8V215.1h-.8v23.6Z" class="g1_2862"/>
<path d="M663.9,330.4h.8V260.9h-.8v69.5Z" class="g1_2862"/>
<path d="M663.9,377h.8V352.6h-.8V377Z" class="g1_2862"/>
<path d="M663.9,422.9h.8V397.7h-.8v25.2Z" class="g1_2862"/>
<path d="M663.9,467.9h.8V444.2h-.8v23.7Z" class="g1_2862"/>
<path d="M663.9,513.7h.8V490h-.8v23.7Z" class="g1_2862"/>
<path d="M663.9,606.2h.8V535.9h-.8v70.3Z" class="g1_2862"/>
<path d="M759.9,193.7h.7V168.5h-.7v25.2Z" class="g1_2862"/>
<path d="M759.9,238.7h.7V215.1h-.7v23.6Z" class="g1_2862"/>
<path d="M759.9,330.4h.7V260.9h-.7v69.5Z" class="g1_2862"/>
<path d="M759.9,377h.7V352.6h-.7V377Z" class="g1_2862"/>
<path d="M759.9,422.9h.7V397.7h-.7v25.2Z" class="g1_2862"/>
<path d="M759.9,467.9h.7V444.2h-.7v23.7Z" class="g1_2862"/>
<path d="M759.9,513.7h.7V490h-.7v23.7Z" class="g1_2862"/>
<path d="M759.9,606.2h.7V535.9h-.7v70.3Z" class="g1_2862"/>
<path d="M853.7,374.7H856V170.8h-2.3V374.7Z" class="g1_2862"/>
<path d="M853.7,603.9H856v-204h-2.3v204Z" class="g1_2862"/>
<path d="M67.4,170.8H855.9v-2.3H67.4v2.3Z" class="g1_2862"/>
<path d="M67.4,193.7H855.9v-2.3H67.4v2.3Z" class="g1_2862"/>
<path d="M104,215.8H855.9v-.7H104v.7Z" class="g1_2862"/>
<path d="M67.4,238.7H855.9V238H67.4v.7Z" class="g1_2862"/>
<path d="M104,261.6H855.9v-.7H104v.7Z" class="g1_2862"/>
<path d="M67.4,284.5H855.9v-.7H67.4v.7Z" class="g1_2862"/>
<path d="M67.4,330.4H855.9v-.8H67.4v.8Z" class="g1_2862"/>
<path d="M104,353.3H855.9v-.7H104v.7Z" class="g1_2862"/>
<path d="M67.4,377H855.9v-2.3H67.4V377Z" class="g1_2862"/>
<path d="M67.4,399.9H855.9v-2.2H67.4v2.2Z" class="g1_2862"/>
<path d="M67.4,422.9H855.9v-2.3H67.4v2.3Z" class="g1_2862"/>
<path d="M104,444.9H855.9v-.7H104v.7Z" class="g1_2862"/>
<path d="M67.4,467.9H855.9v-.8H67.4v.8Z" class="g1_2862"/>
<path d="M104,490.8H855.9v-.7H104v.7Z" class="g1_2862"/>
<path d="M67.4,513.7H855.9V513H67.4v.7Z" class="g1_2862"/>
<path d="M104,536.6H855.9v-.7H104v.7Z" class="g1_2862"/>
<path d="M67.4,559.5H855.9v-.7H67.4v.7Z" class="g1_2862"/>
<path d="M67.4,606.2H855.9v-2.3H67.4v2.3Z" class="g1_2862"/>
</svg>