<?xml version="1.0" encoding="UTF-8" standalone="no"?>
<!DOCTYPE svg PUBLIC "-//W3C//DTD SVG 1.1//EN"
"http://www.w3.org/Graphics/SVG/1.1/DTD/svg11.dtd">
<svg viewBox="0 0 935 1210" version="1.1" xmlns="http://www.w3.org/2000/svg" xmlns:xlink="http://www.w3.org/1999/xlink">
<defs>
<clipPath id="c0_2827"><path d="M97.3,59.2V41.4h72.1V59.2Z"/></clipPath>
<style type="text/css"><![CDATA[
.g0_2827{
fill: #000;
}
]]></style>
</defs>
<path d="M96.3,63.3H838.8v-.4H96.3v.4Z" class="g0_2827"/>
<path d="M96.1,1114.5h.2v-.4h-.2v.4Z" class="g0_2827"/>
<path d="M96.3,1114.5H838.9v-.4H96.3v.4Z" class="g0_2827"/>
<image clip-path="url(#c0_2827)" preserveAspectRatio="none" x="97" y="41" width="73" height="18" xlink:href="img/1.jpg"/>
<path d="M95.9,830.8h.7V785.7h-.7v45.1Z" class="g0_2827"/>
<path d="M188.3,831.5h.7V784.9h-.7v46.6Z" class="g0_2827"/>
<path d="M326.7,831.5h.7V784.9h-.7v46.6Z" class="g0_2827"/>
<path d="M839.1,830.8h.7V785.7h-.7v45.1Z" class="g0_2827"/>
<path d="M95.9,785.7h744v-.8H95.9v.8Z" class="g0_2827"/>
<path d="M95.9,809.8h744v-3H95.9v3Z" class="g0_2827"/>
<path d="M95.9,831.5h744v-.7H95.9v.7Z" class="g0_2827"/>
<path d="M65.6,247.5h3.2V210.8H65.6v36.7Z" class="g0_2827"/>
<path d="M65.6,369.7h3.2V351.4H65.6v18.3Z" class="g0_2827"/>
<path d="M65.6,1045h3.2v-18.3H65.6V1045Z" class="g0_2827"/>
</svg>