<?xml version="1.0" encoding="UTF-8" standalone="no"?>
<!DOCTYPE svg PUBLIC "-//W3C//DTD SVG 1.1//EN"
"http://www.w3.org/Graphics/SVG/1.1/DTD/svg11.dtd">
<svg viewBox="0 0 935 1210" version="1.1" xmlns="http://www.w3.org/2000/svg" xmlns:xlink="http://www.w3.org/1999/xlink">
<defs>
<clipPath id="c0_257"><path d="M766.7,59V41.4h72.2V59Z"/></clipPath>
<style type="text/css"><![CDATA[
.g0_257{
fill: #000;
}
]]></style>
</defs>
<path d="M97.5,63.1v.3H840v-.3H97.5Z" class="g0_257"/>
<path d="M96.1,1114.3v.3v-.3Z" class="g0_257"/>
<path d="M838.9,1114.3v.3v-.3Z" class="g0_257"/>
<path d="M96.1,1114.3v.3H838.9v-.3H96.1Z" class="g0_257"/>
<image clip-path="url(#c0_257)" preserveAspectRatio="none" x="767" y="41" width="72" height="18" xlink:href="img/1.jpg"/>
<path d="M192.9,365.6h-.8V594h.8V365.6Z" class="g0_257"/>
<path d="M468.2,364.8h-.7V555.1h.7V364.8Z" class="g0_257"/>
<path d="M574.9,364.8h-.7V555.1h.7V364.8Z" class="g0_257"/>
<path d="M742.8,365.6h-.7V594h.7V365.6Z" class="g0_257"/>
<path d="M192.1,364.8v.8H742.8v-.8H192.1Z" class="g0_257"/>
<path d="M192.1,407.4v.7H742.8v-.7H192.1Z" class="g0_257"/>
<path d="M192.1,431.9v.7H742.8v-.7H192.1Z" class="g0_257"/>
<path d="M192.1,456.5v.7H742.8v-.7H192.1Z" class="g0_257"/>
<path d="M192.1,480.7v.7H742.8v-.7H192.1Z" class="g0_257"/>
<path d="M192.1,505.2v.8H742.8v-.8H192.1Z" class="g0_257"/>
<path d="M192.1,529.8v.7H742.8v-.7H192.1Z" class="g0_257"/>
<path d="M192.1,554v.7H742.8V554H192.1Z" class="g0_257"/>
<path d="M192.1,594v.7H742.8V594H192.1Z" class="g0_257"/>
</svg>