<?xml version="1.0" encoding="UTF-8" standalone="no"?>
<!DOCTYPE svg PUBLIC "-//W3C//DTD SVG 1.1//EN"
"http://www.w3.org/Graphics/SVG/1.1/DTD/svg11.dtd">
<svg viewBox="0 0 935 1210" version="1.1" xmlns="http://www.w3.org/2000/svg" xmlns:xlink="http://www.w3.org/1999/xlink">
<defs>
<clipPath id="c0_1760"><path d="M766.6,59.2V41.4h72.1V59.2Z"/></clipPath>
<style type="text/css"><![CDATA[
.g0_1760{
fill: #000;
}
]]></style>
</defs>
<path d="M97.3,62.9v.3H839.9v-.3H97.3Z" class="g0_1760"/>
<path d="M96.2,1114.1h-.1v.4h.1v-.4Z" class="g0_1760"/>
<path d="M838.7,1114.1h.2v.4h-.2v-.4Z" class="g0_1760"/>
<path d="M96.2,1114.1v.4H838.7v-.4H96.2Z" class="g0_1760"/>
<image clip-path="url(#c0_1760)" preserveAspectRatio="none" x="767" y="41" width="72" height="18" xlink:href="img/1.jpg"/>
<path d="M96.6,440h-.7V658.1h.7V440Z" class="g0_1760"/>
<path d="M259.1,437h-.7v45.8h.7V437Z" class="g0_1760"/>
<path d="M259.1,479.7h-.7V545h.7V479.7Z" class="g0_1760"/>
<path d="M259.1,545.8h-.7v24.4h.7V545.8Z" class="g0_1760"/>
<path d="M259.1,569.4h-.7v64.3h.7V569.4Z" class="g0_1760"/>
<path d="M259.1,634.4h-.7v24.5h.7V634.4Z" class="g0_1760"/>
<path d="M298.8,437h-.7v45.8h.7V437Z" class="g0_1760"/>
<path d="M298.8,479.7h-.7v66.1h.7V479.7Z" class="g0_1760"/>
<path d="M298.8,545h-.7v25.2h.7V545Z" class="g0_1760"/>
<path d="M298.8,569.4h-.7v65h.7v-65Z" class="g0_1760"/>
<path d="M298.8,633.7h-.7v25.2h.7V633.7Z" class="g0_1760"/>
<path d="M352.4,437h-.8v45.8h.8V437Z" class="g0_1760"/>
<path d="M352.4,479.7h-.8v66.1h.8V479.7Z" class="g0_1760"/>
<path d="M352.4,545h-.8v25.2h.8V545Z" class="g0_1760"/>
<path d="M352.4,569.4h-.8v65h.8v-65Z" class="g0_1760"/>
<path d="M352.4,633.7h-.8v25.2h.8V633.7Z" class="g0_1760"/>
<path d="M424.4,437h-.7v45.8h.7V437Z" class="g0_1760"/>
<path d="M424.4,479.7h-.7v66.1h.7V479.7Z" class="g0_1760"/>
<path d="M424.4,545h-.7v25.2h.7V545Z" class="g0_1760"/>
<path d="M424.4,569.4h-.7v65h.7v-65Z" class="g0_1760"/>
<path d="M424.4,633.7h-.7v25.2h.7V633.7Z" class="g0_1760"/>
<path d="M844.3,440h-.7v39.7h.7V440Z" class="g0_1760"/>
<path d="M844.3,482.8h-.7V545h.7V482.8Z" class="g0_1760"/>
<path d="M844.3,545.8h-.7v23.6h.7V545.8Z" class="g0_1760"/>
<path d="M844.3,570.2h-.7v63.5h.7V570.2Z" class="g0_1760"/>
<path d="M844.3,634.4h-.7v23.7h.7V634.4Z" class="g0_1760"/>
<path d="M95.9,437v3H844.3v-3H95.9Z" class="g0_1760"/>
<path d="M95.9,479.8v3H844.3v-3H95.9Z" class="g0_1760"/>
<path d="M258.4,520.6v.7H844.3v-.7H258.4Z" class="g0_1760"/>
<path d="M258.4,545v.8H844.3V545H258.4Z" class="g0_1760"/>
<path d="M95.9,569.5v.7H259.1v-.7H95.9Z" class="g0_1760"/>
<path d="M258.4,569.5v.7H844.3v-.7H258.4Z" class="g0_1760"/>
<path d="M258.4,593.9v.7H844.3v-.7H258.4Z" class="g0_1760"/>
<path d="M258.4,633.7v.7H844.3v-.7H258.4Z" class="g0_1760"/>
<path d="M95.9,658.1v.7H844.3v-.7H95.9Z" class="g0_1760"/>
</svg>