<?xml version="1.0" encoding="UTF-8" standalone="no"?>
<!DOCTYPE svg PUBLIC "-//W3C//DTD SVG 1.1//EN"
"http://www.w3.org/Graphics/SVG/1.1/DTD/svg11.dtd">
<svg viewBox="0 0 935 1210" version="1.1" xmlns="http://www.w3.org/2000/svg" xmlns:xlink="http://www.w3.org/1999/xlink">
<defs>
<style type="text/css"><![CDATA[
.g0_1977{
fill: #FFF;
}
.g1_1977{
fill: #000;
}
]]></style>
</defs>
<path d="M68.9,1149.3H755.2v-21.2H68.9v21.2Z" class="g0_1977"/>
<path d="M771.3,1149.3H855v-21.2H771.3v21.2Z" class="g0_1977"/>
<path d="M158.5,296.2h.7V124.1h-.7V296.2Z" class="g1_1977"/>
<path d="M763.5,296.2h.7V124.1h-.7V296.2Z" class="g1_1977"/>
<path d="M158.5,124.1H764.2v-.7H158.5v.7Z" class="g1_1977"/>
<path d="M158.5,297H764.2v-.7H158.5v.7Z" class="g1_1977"/>
<path d="M158.5,550.7h.7V377.9h-.7V550.7Z" class="g1_1977"/>
<path d="M763.5,550.7h.7V377.9h-.7V550.7Z" class="g1_1977"/>
<path d="M158.5,377.9H764.2v-.7H158.5v.7Z" class="g1_1977"/>
<path d="M158.5,551.5H764.2v-.8H158.5v.8Z" class="g1_1977"/>
<path d="M158.5,796.6h.7V632.4h-.7V796.6Z" class="g1_1977"/>
<path d="M763.5,796.6h.7V632.4h-.7V796.6Z" class="g1_1977"/>
<path d="M158.5,632.4H764.2v-.7H158.5v.7Z" class="g1_1977"/>
<path d="M158.5,797.3H764.2v-.7H158.5v.7Z" class="g1_1977"/>
<path d="M158.5,1048.7h.7V879.8h-.7v168.9Z" class="g1_1977"/>
<path d="M763.5,1048.7h.7V879.8h-.7v168.9Z" class="g1_1977"/>
<path d="M158.5,879.8H764.2v-.7H158.5v.7Z" class="g1_1977"/>
<path d="M158.5,1049.4H764.2v-.7H158.5v.7Z" class="g1_1977"/>
<path fill-rule="evenodd" d="M499.6,244.6l.2,.2l.1,.2c1.2,1,2.9,-.1,2.5,-1.5l-.1,-.3l-.2,-.3c-.8,-1.2,-2.9,-.4,-2.7,1.1l.1,.3l.1,.3Z" class="g1_1977"/>
<path d="M500.9,243.8l3,5.9l.4,.9l-1,.2L480,255.5l-2.7,.5l2,-1.8l17.4,-16.4l.8,-.7l.4,.9l-.2,.9l-17.4,16.4l-1,-1.1l.4,-.2l23.4,-4.7l.2,1.5l-.8,-.4l-3,-5.8Z" class="g1_1977"/>
<path d="M497.9,238l3,5.8l-1.4,.8l-2.9,-5.9Z" class="g1_1977"/>
<path fill-rule="evenodd" d="M500.2,244.2l3.1,5.9l-23.4,4.6l17.4,-16.4Z" class="g1_1977"/>
<path d="M648.4,169.7L647,167L500.3,242.6l1.4,2.6Z" class="g1_1977"/>
<path d="M621.9,168.3h56.6V147.7H621.9v20.6Z" class="g0_1977"/>
<path d="M621.9,148h57v-.7h-57v.7Z" class="g1_1977"/>
<path d="M678.2,168.7h.7v-21h-.7v21Z" class="g1_1977"/>
<path d="M621.5,168.7h57v-.8h-57v.8Z" class="g1_1977"/>
<path d="M621.5,168.3h.7v-21h-.7v21Z" class="g1_1977"/>
<path fill-rule="evenodd" d="M647.8,231.1l.4,-.1l.5,-.2l.2,-.2l.2,-.2l.2,-.2l.1,-.3v-.6c-.2,-.6,-.2,-1,-.9,-1.1l-.6,-.2l-.4,.1l-.5,.2l-.2,.1l-.2,.3l-.2,.2l-.1,.3v.6l.1,.3l.4,.5l.2,.2l.8,.3Z" class="g1_1977"/>
<path d="M647.9,229.5l6.5,.1l1,.1l-.3,.9l-6.7,22.9l-.8,2.5l-.7,-2.5l-6.3,-23l-.3,-1h1l.7,.6l6.4,22.9l-1.5,.5V253l6.8,-22.8l1.4,.4l-.7,.6l-6.5,-.1Z" class="g1_1977"/>
<path d="M641.3,231.1h6.6v-1.6h-6.6v1.6Z" class="g1_1977"/>
<path fill-rule="evenodd" d="M647.9,230.3l6.5,.1l-6.8,22.8l-6.3,-22.9Z" class="g1_1977"/>
<path d="M650,168.3h-3l-.6,61.2h3.1Z" class="g1_1977"/>
<path fill-rule="evenodd" d="M604.5,235l.2,.2l.3,.1h.6l.2,-.1l.6,-.3l.2,-.3l.1,-.3c.2,-.4,0,-.9,-.1,-1.4l-.5,-.4l-.3,-.1c-1.5,-.6,-2.7,1.1,-1.8,2.3l.2,.2l.3,.1Z" class="g1_1977"/>
<path d="M605.2,233.8l5.5,3.5l.8,.7l-.7,.6l-18,15.7l-2,1.7l.8,-2.5l7,-22.9l.3,-1l.8,.6l.4,.9l-7,22.8l-1.5,-.4l.2,-.4l18,-15.7l1,1.2l-.9,.1l-5.5,-3.6Z" class="g1_1977"/>
<path d="M599.7,230.2l5.5,3.6l-.8,1.3l-5.5,-3.6Z" class="g1_1977"/>
<path fill-rule="evenodd" d="M604.8,234.4l5.5,3.6l-17.9,15.6l6.9,-22.8Z" class="g1_1977"/>
<path d="M648.9,169.1l-2.6,-1.6L604,232.9l2.6,1.7Z" class="g1_1977"/>
<path fill-rule="evenodd" d="M553.8,240.7l.5,.5l.6,.2h.3l.6,-.2l.2,-.2l.2,-.2c.3,-.4,.4,-.9,.4,-1.4l-.2,-.2l-.1,-.3l-.3,-.3c-1.2,-.9,-2.6,.1,-2.4,1.6l.1,.2l.1,.3Z" class="g1_1977"/>
<path d="M555,239.8l4.1,5.2l.6,.9l-.9,.3L536.6,255l-2.5,1l1.6,-2.2l14.1,-19.1l.7,-.9l.5,.8v.9l-14.1,19.2l-1.2,-.9l.4,-.2l22.1,-8.8l.6,1.4l-.9,-.3l-4.1,-5.1Z" class="g1_1977"/>
<path d="M551,234.6l4,5.2l-1.2,1l-4,-5.2Z" class="g1_1977"/>
<path fill-rule="evenodd" d="M554.5,240.3l4,5.2l-22.2,8.8L550.5,235Z" class="g1_1977"/>
<path d="M648.5,169.5l-1.8,-2.4l-92.6,71.5L556,241Z" class="g1_1977"/>
<path d="M621.9,276.6h56.6V255.9H621.9v20.7Z" class="g0_1977"/>
<path d="M621.9,256.3h57v-.7h-57v.7Z" class="g1_1977"/>
<path d="M678.2,276.9h.7v-21h-.7v21Z" class="g1_1977"/>
<path d="M621.5,276.9h57v-.7h-57v.7Z" class="g1_1977"/>
<path d="M621.5,276.6h.7v-21h-.7v21Z" class="g1_1977"/>
<path d="M508.4,276.6h56.7V255.9H508.4v20.7Z" class="g0_1977"/>
<path d="M508.4,256.3h57.1v-.7H508.4v.7Z" class="g1_1977"/>
<path d="M564.8,276.9h.7v-21h-.7v21Z" class="g1_1977"/>
<path d="M508,276.9h57.1v-.7H508v.7Z" class="g1_1977"/>
<path d="M508,276.6h.8v-21H508v21Z" class="g1_1977"/>
<path d="M565.1,276.6h56.8V255.9H565.1v20.7Z" class="g0_1977"/>
<path d="M565.1,256.3h57.1v-.7H565.1v.7Z" class="g1_1977"/>
<path d="M621.5,276.9h.7v-21h-.7v21Z" class="g1_1977"/>
<path d="M564.8,276.9h57.1v-.7H564.8v.7Z" class="g1_1977"/>
<path d="M564.8,276.6h.7v-21h-.7v21Z" class="g1_1977"/>
<path d="M395,276.6h56.6V255.9H395v20.7Z" class="g0_1977"/>
<path d="M395,256.3h57v-.7H395v.7Z" class="g1_1977"/>
<path d="M451.3,276.9h.7v-21h-.7v21Z" class="g1_1977"/>
<path d="M394.6,276.9h57v-.7h-57v.7Z" class="g1_1977"/>
<path d="M394.6,276.6h.8v-21h-.8v21Z" class="g1_1977"/>
<path d="M451.6,276.6h56.8V255.9H451.6v20.7Z" class="g0_1977"/>
<path d="M451.6,256.3h57.2v-.7H451.6v.7Z" class="g1_1977"/>
<path d="M508,276.9h.8v-21H508v21Z" class="g1_1977"/>
<path d="M451.3,276.9h57.1v-.7H451.3v.7Z" class="g1_1977"/>
<path d="M451.3,276.6h.7v-21h-.7v21Z" class="g1_1977"/>
<path d="M281.5,276.6h56.7V255.9H281.5v20.7Z" class="g0_1977"/>
<path d="M281.5,256.3h57.1v-.7H281.5v.7Z" class="g1_1977"/>
<path d="M337.9,276.9h.7v-21h-.7v21Z" class="g1_1977"/>
<path d="M281.1,276.9h57.2v-.7H281.1v.7Z" class="g1_1977"/>
<path d="M281.1,276.6h.8v-21h-.8v21Z" class="g1_1977"/>
<path d="M338.2,276.6H395V255.9H338.2v20.7Z" class="g0_1977"/>
<path d="M338.2,256.3h57.2v-.7H338.2v.7Z" class="g1_1977"/>
<path d="M394.6,276.9h.8v-21h-.8v21Z" class="g1_1977"/>
<path d="M337.9,276.9H395v-.7H337.9v.7Z" class="g1_1977"/>
<path d="M337.9,276.6h.7v-21h-.7v21Z" class="g1_1977"/>
<path d="M224.8,276.6h56.7V255.9H224.8v20.7Z" class="g0_1977"/>
<path d="M224.8,256.3h57.1v-.7H224.8v.7Z" class="g1_1977"/>
<path d="M281.1,276.9h.8v-21h-.8v21Z" class="g1_1977"/>
<path d="M224.4,276.9h57.1v-.7H224.4v.7Z" class="g1_1977"/>
<path d="M224.4,276.6h.7v-21h-.7v21Z" class="g1_1977"/>
<path fill-rule="evenodd" d="M449.1,246.8l.1,.2l.1,.3c1.2,1.1,2.8,.2,2.7,-1.4l-.1,-.2l-.2,-.3c-.8,-1.2,-2.8,-.7,-2.7,.8v.3l.1,.3Z" class="g1_1977"/>
<path d="M450.4,246.2l2.4,6.2l.4,1l-1,.1l-23.7,2.2l-2.7,.2l2.1,-1.5l18.9,-14.5l.8,-.7l.4,1l-.2,.9l-18.9,14.5l-1,-1.2l.5,-.2l23.7,-2.3l.1,1.6l-.7,-.6L449,246.8Z" class="g1_1977"/>
<path d="M448,240.2l2.4,6l-1.4,.6l-2.4,-6.1Z" class="g1_1977"/>
<path fill-rule="evenodd" d="M449.7,246.5l2.5,6.1l-23.8,2.3l18.9,-14.5Z" class="g1_1977"/>
<path d="M648.2,169.8l-1.1,-2.9L449.9,244.8l1.1,2.9Z" class="g1_1977"/>
<path fill-rule="evenodd" d="M387.8,248.6l.1,.3l.2,.2c1.1,1.2,2.7,.5,2.7,-1.1l-.1,-.3l-.1,-.3c-.7,-1.3,-2.7,-.9,-2.8,.6v.6Z" class="g1_1977"/>
<path d="M389.3,248.2l1.9,6.3l.3,.9l-1.1,.1l-23.7,.4h-2.8l2.3,-1.4l19.9,-13.1l.8,-.5l.4,1l-.4,.8l-19.9,13l-.8,-1.2l.5,-.1l23.8,-.5l-.1,1.6l-.7,-.6l-1.9,-6.2Z" class="g1_1977"/>
<path d="M387.3,241.9l2,6.3l-1.5,.5l-2.1,-6.3Z" class="g1_1977"/>
<path fill-rule="evenodd" d="M388.6,248.4l1.9,6.2l-23.8,.5l19.9,-13Z" class="g1_1977"/>
<path d="M648.1,169.8l-.9,-3L388.9,246.7l.9,2.9Z" class="g1_1977"/>
<path fill-rule="evenodd" d="M336.5,249.7l.2,.3l.1,.2c1,1.1,2.7,.6,2.7,-1v-.3l-.2,-.3v-.3l-.3,-.2l-.2,-.1l-.6,-.2h-.6c-.4,0,-.9,.5,-1,1l-.1,.3v.6Z" class="g1_1977"/>
<path d="M338,249.3l1.7,6.4l.2,1l-1,-.1l-23.8,-.5l-2.7,-.1l2.3,-1.4l20.4,-12.1l1,-.6l.2,1l-.3,.8l-20.5,12.2l-.8,-1.3h.5l23.8,.5l-.1,1.5l-.7,-.6l-1.8,-6.3Z" class="g1_1977"/>
<path d="M336.3,242.9l1.7,6.4l-1.6,.4l-1.6,-6.4Z" class="g1_1977"/>
<path fill-rule="evenodd" d="M337.2,249.5l1.8,6.3l-23.8,-.5l20.4,-12.2Z" class="g1_1977"/>
<path d="M648,169.8l-.7,-3l-309.7,81l.7,2.9Z" class="g1_1977"/>
<path fill-rule="evenodd" d="M274.9,250.6l.1,.3l.1,.3l.3,.1l.2,.2l.2,.2l.3,.1h.3l.3,-.1l.6,-.2l.2,-.2l.3,-.5v-.3l.1,-.3l-.1,-.2v-.4l-.1,-.2l-.2,-.3l-.3,-.1l-.5,-.2H276l-.3,.1l-.2,.2l-.4,.3l-.1,.3l-.2,.5l.1,.4Z" class="g1_1977"/>
<path d="M276.4,250.2l1.3,6.5l.1,1l-.9,-.1l-23.7,-1.5l-2.7,-.1l2.3,-1.3l20.9,-11.3l.9,-.5l.3,.9l-.4,.9L253.6,256l-.8,-1.3l.5,-.1l23.7,1.5l-.1,1.5l-.7,-.6l-1.4,-6.4Z" class="g1_1977"/>
<path d="M274.9,243.8l1.5,6.4l-1.6,.4l-1.5,-6.4Z" class="g1_1977"/>
<path fill-rule="evenodd" d="M275.6,250.4l1.4,6.4l-23.7,-1.4L274.2,244Z" class="g1_1977"/>
<path d="M648,169.8l-.6,-3l-371.3,82l.6,2.9Z" class="g1_1977"/>
<path fill-rule="evenodd" d="M499.6,499l.2,.3l.1,.2c1.3,1,2.9,-.1,2.5,-1.6l-.1,-.2l-.2,-.3c-1,-1.1,-2.8,-.5,-2.7,1.1l.1,.3l.1,.2Z" class="g1_1977"/>
<path d="M500.9,498.3l3,5.9l.4,.9l-1,.2L480,509.9l-2.7,.6l2,-1.8l17.4,-16.4l.8,-.6l.4,.8l-.2,.9l-17.4,16.4l-1,-1.1l.4,-.2l23.4,-4.7l.2,1.5l-.8,-.4l-3,-5.9Z" class="g1_1977"/>
<path d="M497.9,492.5l3,5.8l-1.4,.7l-2.9,-5.7Z" class="g1_1977"/>
<path fill-rule="evenodd" d="M500.2,498.7l3.1,5.8l-23.4,4.7l17.4,-16.3Z" class="g1_1977"/>
<path d="M648.4,424.1L647,421.5L500.3,497l1.4,2.7Z" class="g1_1977"/>
<path d="M621.9,422.8h56.6V402.1H621.9v20.7Z" class="g0_1977"/>
<path d="M621.9,402.5h57v-.7h-57v.7Z" class="g1_1977"/>
<path d="M678.2,423.1h.7v-21h-.7v21Z" class="g1_1977"/>
<path d="M621.5,423.1h57v-.7h-57v.7Z" class="g1_1977"/>
<path d="M621.5,422.8h.7v-21h-.7v21Z" class="g1_1977"/>
<path fill-rule="evenodd" d="M647.8,485.6h.4l.3,-.1c1.3,-.7,1.2,-2.7,-.3,-3l-.3,-.1l-.4,.1c-1.4,.3,-1.6,2.4,-.2,2.9l.5,.2Z" class="g1_1977"/>
<path d="M647.9,484l6.5,.1l1,.1l-.3,.9l-6.7,22.8l-.8,2.6l-.7,-2.6L640.6,485l-.3,-1h1l.7,.5l6.4,23l-1.5,.4v-.4l6.8,-22.9l1.4,.5l-.7,.5h-6.5Z" class="g1_1977"/>
<path d="M641.3,485.6h6.6V484h-6.6v1.6Z" class="g1_1977"/>
<path fill-rule="evenodd" d="M647.9,484.7l6.5,.1l-6.8,22.9l-6.3,-23Z" class="g1_1977"/>
<path d="M650,422.8h-3l-.6,61.2h3.1Z" class="g1_1977"/>
<path fill-rule="evenodd" d="M604.5,489.5l.2,.2l.3,.1h.6l.2,-.1l.6,-.4l.2,-.3l.1,-.2c.2,-.5,0,-1,-.1,-1.4l-.3,-.2l-.2,-.3l-.3,-.1c-1.4,-.5,-2.7,1.2,-1.8,2.3l.2,.2l.3,.2Z" class="g1_1977"/>
<path d="M605.2,488.2l5.5,3.6l.8,.6l-.7,.7l-18,15.7l-2,1.7l.8,-2.6l7,-22.8l.3,-1l.8,.5l.4,1l-7,22.8l-1.5,-.5l.2,-.3l18,-15.7l1,1.2l-.9,.1l-5.5,-3.6Z" class="g1_1977"/>
<path d="M599.7,484.6l5.5,3.6l-.8,1.4L598.9,486Z" class="g1_1977"/>
<path fill-rule="evenodd" d="M604.8,488.9l5.5,3.5l-17.9,15.7l6.9,-22.8Z" class="g1_1977"/>
<path d="M648.9,423.6l-2.6,-1.7L604,487.4l2.6,1.6Z" class="g1_1977"/>
<path fill-rule="evenodd" d="M553.8,495.2l.5,.4l.6,.2h.3l.6,-.2l.2,-.1l.2,-.2c.3,-.4,.4,-.9,.4,-1.4l-.2,-.3l-.1,-.3l-.3,-.1l-.1,-.2l-.3,-.2h-.9l-.3,.1l-.3,.2l-.2,.2l-.1,.2l-.2,.6v.5l.1,.4l.1,.2Z" class="g1_1977"/>
<path d="M555,494.3l4.1,5.2l.6,.8l-.9,.4l-22.2,8.8l-2.5,1l1.6,-2.2l14.1,-19.1l.7,-.9l.5,.8v.9l-14.1,19.2l-1.2,-.9l.4,-.3l22.1,-8.8l.6,1.5l-.9,-.3l-4.1,-5.1Z" class="g1_1977"/>
<path d="M551,489.1l4,5.2l-1.2,1l-4,-5.2Z" class="g1_1977"/>
<path fill-rule="evenodd" d="M554.5,494.7l4,5.3l-22.2,8.8l14.2,-19.2Z" class="g1_1977"/>
<path d="M648.5,424l-1.8,-2.4l-92.6,71.5l1.9,2.4Z" class="g1_1977"/>
<path d="M621.9,531.1h56.6V510.5H621.9v20.6Z" class="g0_1977"/>
<path d="M621.9,510.9h57v-.8h-57v.8Z" class="g1_1977"/>
<path d="M678.2,531.5h.7v-21h-.7v21Z" class="g1_1977"/>
<path d="M621.5,531.5h57v-.8h-57v.8Z" class="g1_1977"/>
<path d="M621.5,531.1h.7v-21h-.7v21Z" class="g1_1977"/>
<path d="M508.4,531.1h56.7V510.5H508.4v20.6Z" class="g0_1977"/>
<path d="M508.4,510.9h57.1v-.8H508.4v.8Z" class="g1_1977"/>
<path d="M564.8,531.5h.7v-21h-.7v21Z" class="g1_1977"/>
<path d="M508,531.5h57.1v-.8H508v.8Z" class="g1_1977"/>
<path d="M508,531.1h.8v-21H508v21Z" class="g1_1977"/>
<path d="M565.1,531.1h56.8V510.5H565.1v20.6Z" class="g0_1977"/>
<path d="M565.1,510.9h57.1v-.8H565.1v.8Z" class="g1_1977"/>
<path d="M621.5,531.5h.7v-21h-.7v21Z" class="g1_1977"/>
<path d="M564.8,531.5h57.1v-.8H564.8v.8Z" class="g1_1977"/>
<path d="M564.8,531.1h.7v-21h-.7v21Z" class="g1_1977"/>
<path d="M395,531.1h56.6V510.5H395v20.6Z" class="g0_1977"/>
<path d="M395,510.9h57v-.8H395v.8Z" class="g1_1977"/>
<path d="M451.3,531.5h.7v-21h-.7v21Z" class="g1_1977"/>
<path d="M394.6,531.5h57v-.8h-57v.8Z" class="g1_1977"/>
<path d="M394.6,531.1h.8v-21h-.8v21Z" class="g1_1977"/>
<path d="M451.6,531.1h56.8V510.5H451.6v20.6Z" class="g0_1977"/>
<path d="M451.6,510.9h57.2v-.8H451.6v.8Z" class="g1_1977"/>
<path d="M508,531.5h.8v-21H508v21Z" class="g1_1977"/>
<path d="M451.3,531.5h57.1v-.8H451.3v.8Z" class="g1_1977"/>
<path d="M451.3,531.1h.7v-21h-.7v21Z" class="g1_1977"/>
<path d="M281.5,531.1h56.7V510.5H281.5v20.6Z" class="g0_1977"/>
<path d="M281.5,510.9h57.1v-.8H281.5v.8Z" class="g1_1977"/>
<path d="M337.9,531.5h.7v-21h-.7v21Z" class="g1_1977"/>
<path d="M281.1,531.5h57.2v-.8H281.1v.8Z" class="g1_1977"/>
<path d="M281.1,531.1h.8v-21h-.8v21Z" class="g1_1977"/>
<path d="M338.2,531.1H395V510.5H338.2v20.6Z" class="g0_1977"/>
<path d="M338.2,510.9h57.2v-.8H338.2v.8Z" class="g1_1977"/>
<path d="M394.6,531.5h.8v-21h-.8v21Z" class="g1_1977"/>
<path d="M337.9,531.5H395v-.8H337.9v.8Z" class="g1_1977"/>
<path d="M337.9,531.1h.7v-21h-.7v21Z" class="g1_1977"/>
<path d="M224.8,531.1h56.7V510.5H224.8v20.6Z" class="g0_1977"/>
<path d="M224.8,510.9h57.1v-.8H224.8v.8Z" class="g1_1977"/>
<path d="M281.1,531.5h.8v-21h-.8v21Z" class="g1_1977"/>
<path d="M224.4,531.5h57.1v-.8H224.4v.8Z" class="g1_1977"/>
<path d="M224.4,531.1h.7v-21h-.7v21Z" class="g1_1977"/>
<path fill-rule="evenodd" d="M521.6,747.8l.4,.5l.6,.2h.3l.3,-.1l.3,-.1l.3,-.2l.2,-.2c.3,-.4,.4,-.9,.3,-1.4l-.2,-.2V746l-.3,-.3c-1.3,-.9,-2.6,.1,-2.5,1.6l.1,.2l.2,.3Z" class="g1_1977"/>
<path d="M522.8,746.9l4,5.2l.6,.9l-.9,.3l-22.2,8.8l-2.5,1l1.6,-2.2l14.1,-19l.7,-1l.5,.9v.9l-14.1,19.1l-1.2,-.9l.4,-.2L526,751.8l.5,1.5l-.9,-.3l-4,-5.1Z" class="g1_1977"/>
<path d="M518.7,741.8l4.1,5.1l-1.2,1l-4,-5.1Z" class="g1_1977"/>
<path fill-rule="evenodd" d="M522.2,747.4l4.1,5.2l-22.2,8.8l14.1,-19.2Z" class="g1_1977"/>
<path d="M616.3,676.6l-1.9,-2.4l-92.5,71.5l1.8,2.4Z" class="g1_1977"/>
<path d="M558.6,675.4H672V654.8H558.6v20.6Z" class="g0_1977"/>
<path d="M558.6,655.1H672.4v-.7H558.6v.7Z" class="g1_1977"/>
<path d="M671.6,675.8h.8v-21h-.8v21Z" class="g1_1977"/>
<path d="M558.2,675.8H672V675H558.2v.8Z" class="g1_1977"/>
<path d="M558.2,675.4h.8v-21h-.8v21Z" class="g1_1977"/>
<path fill-rule="evenodd" d="M615.4,738.2l.8,-.3l.3,-.2l.1,-.2l.1,-.2l.1,-.4v-.5c-.2,-.6,-.2,-1,-.9,-1.1l-.5,-.2l-.4,.1c-1.4,.2,-1.7,2.3,-.3,2.8l.3,.1l.4,.1Z" class="g1_1977"/>
<path d="M615.4,736.6h7.5l-.3,1l-6.5,23l-.7,2.5l-.8,-2.5l-6.6,-23l-.3,-1h1.1l.7,.6l6.6,22.9l-1.5,.5v-.5l6.5,-22.9l1.5,.4l-.7,.6h-6.5Z" class="g1_1977"/>
<path d="M608.8,738.2h6.6v-1.6h-6.6v1.6Z" class="g1_1977"/>
<path fill-rule="evenodd" d="M615.4,737.4h6.5l-6.5,22.9l-6.6,-22.9Z" class="g1_1977"/>
<path d="M613.9,736.6h3V675.4h-3v61.2Z" class="g1_1977"/>
<path fill-rule="evenodd" d="M411.7,754.1l.2,.3l.1,.2c1,1.1,2.8,.2,2.6,-1.3l-.1,-.3l-.1,-.3c-1,-1.3,-2.8,-.6,-2.8,.8v.3l.1,.3Z" class="g1_1977"/>
<path d="M413,753.5l2.4,6.1l.4,1l-1,.1L391,762.9l-2.6,.2l2.1,-1.5l19,-14.4l.9,-.7l.3,1l-.2,.9l-19,14.4l-1,-1.2l.5,-.2l23.7,-2.2l.1,1.5l-.7,-.5l-2.4,-6.1Z" class="g1_1977"/>
<path d="M410.7,747.4l2.3,6.1l-1.3,.6L409.3,748Z" class="g1_1977"/>
<path fill-rule="evenodd" d="M412.4,753.8l2.4,6.1l-23.7,2.2L410,747.7Z" class="g1_1977"/>
<path d="M615.9,676.9L614.8,674L412.6,752.1l1.1,2.9Z" class="g1_1977"/>
<path fill-rule="evenodd" d="M294,757l.1,.3l.1,.2c1.1,1.1,2.8,.6,2.8,-1v-.3l-.2,-.3l-.1,-.3l-.3,-.2l-.1,-.2l-.6,-.1h-.6c-.5,.4,-.7,0,-1,1l-.1,.2v.7Z" class="g1_1977"/>
<path d="M295.4,756.6l1.7,6.3l.1,1h-.9l-23.9,-.8h-2.6l2.3,-1.4l20.6,-12l.9,-.5l.3,1l-.4,.8l-20.6,12l-.8,-1.3h.4l23.9,.7l-.1,1.5l-.8,-.6L293.9,757Z" class="g1_1977"/>
<path d="M293.9,750.2l1.5,6.4l-1.5,.4l-1.6,-6.4Z" class="g1_1977"/>
<path fill-rule="evenodd" d="M294.7,756.8l1.7,6.3l-23.9,-.7l20.6,-12Z" class="g1_1977"/>
<path d="M615.7,676.9l-.7,-3L295.1,755.2l.7,2.9Z" class="g1_1977"/>
<path d="M558.6,783.7H672V763H558.6v20.7Z" class="g0_1977"/>
<path d="M558.6,763.4H672.4v-.7H558.6v.7Z" class="g1_1977"/>
<path d="M671.6,784h.8V763h-.8v21Z" class="g1_1977"/>
<path d="M558.2,784H672v-.7H558.2v.7Z" class="g1_1977"/>
<path d="M558.2,783.7h.8v-21h-.8v21Z" class="g1_1977"/>
<path d="M445.1,783.7H558.6V763H445.1v20.7Z" class="g0_1977"/>
<path d="M445.1,763.4H559v-.7H445.1v.7Z" class="g1_1977"/>
<path d="M558.2,784h.8V763h-.8v21Z" class="g1_1977"/>
<path d="M444.8,784H558.6v-.7H444.8v.7Z" class="g1_1977"/>
<path d="M444.8,783.7h.7v-21h-.7v21Z" class="g1_1977"/>
<path d="M331.7,783.7H445.1V763H331.7v20.7Z" class="g0_1977"/>
<path d="M331.7,763.4H445.5v-.7H331.7v.7Z" class="g1_1977"/>
<path d="M444.8,784h.7V763h-.7v21Z" class="g1_1977"/>
<path d="M331.4,784H445.1v-.7H331.4v.7Z" class="g1_1977"/>
<path d="M331.4,783.7h.7v-21h-.7v21Z" class="g1_1977"/>
<path d="M218.3,783.7H331.7V763H218.3v20.7Z" class="g0_1977"/>
<path d="M218.3,763.4H332.1v-.7H218.3v.7Z" class="g1_1977"/>
<path d="M331.4,784h.7V763h-.7v21Z" class="g1_1977"/>
<path d="M217.9,784H331.7v-.7H217.9v.7Z" class="g1_1977"/>
<path d="M217.9,783.7h.7v-21h-.7v21Z" class="g1_1977"/>
<path fill-rule="evenodd" d="M553.7,989h.2l.3,-.1l.6,-.4l.1,-.1l.1,-.3l.1,-.3v-.6c-.2,-.9,-.1,-.6,-.9,-1.1l-.3,-.1h-.6c-1.5,.5,-1.7,2.1,-.3,2.9l.3,.1h.4Z" class="g1_1977"/>
<path d="M553.7,987.5h7.5l-.3,1l-6.5,23l-.7,2.5l-.8,-2.5l-6.6,-23l-.2,-1h1l.7,.6l6.6,22.9l-1.5,.5v-.5l6.5,-22.9l1.5,.4l-.7,.6h-6.5Z" class="g1_1977"/>
<path d="M547.1,989.1h6.6v-1.6h-6.6v1.6Z" class="g1_1977"/>
<path fill-rule="evenodd" d="M553.7,988.3h6.5l-6.5,22.9l-6.6,-22.9Z" class="g1_1977"/>
<path d="M552.2,987.5h3V926.3h-3v61.2Z" class="g1_1977"/>
<path d="M450.5,926.3H677.4V905.7H450.5v20.6Z" class="g0_1977"/>
<path d="M450.5,906H677.8v-.7H450.5v.7Z" class="g1_1977"/>
<path d="M677.1,926.7h.7v-21h-.7v21Z" class="g1_1977"/>
<path d="M450.2,926.7H677.4v-.8H450.2v.8Z" class="g1_1977"/>
<path d="M450.2,926.3h.7v-21h-.7v21Z" class="g1_1977"/>
<path fill-rule="evenodd" d="M350,1004.9l.4,.6c1.2,1,2.7,.1,2.5,-1.4l-.2,-.5c-.9,-1.4,-2.9,-.5,-2.8,.8v.3l.1,.2Z" class="g1_1977"/>
<path d="M351.4,1004.4l2.3,6.1l.3,1l-.9,.1l-23.7,2.1l-2.7,.2l2.1,-1.5l19,-14.4l.9,-.7l.3,.9l-.2,1l-19,14.4l-1,-1.2l.5,-.2l23.7,-2.1l.1,1.5l-.7,-.5l-2.4,-6.2Z" class="g1_1977"/>
<path d="M349,998.2l2.4,6.2l-1.4,.5l-2.4,-6.1Z" class="g1_1977"/>
<path fill-rule="evenodd" d="M350.7,1004.7l2.4,6.1l-23.7,2.1l18.9,-14.4Z" class="g1_1977"/>
<path d="M554.2,927.8l-1.1,-2.9L350.9,1003l1.1,2.9Z" class="g1_1977"/>
<path d="M450.5,1034.6H677.4v-20.7H450.5v20.7Z" class="g0_1977"/>
<path d="M450.5,1014.3H677.8v-.7H450.5v.7Z" class="g1_1977"/>
<path d="M677.1,1034.9h.7v-21h-.7v21Z" class="g1_1977"/>
<path d="M450.2,1034.9H677.4v-.7H450.2v.7Z" class="g1_1977"/>
<path d="M450.2,1034.6h.7v-21h-.7v21Z" class="g1_1977"/>
<path d="M223.7,1034.6H450.5v-20.7H223.7v20.7Z" class="g0_1977"/>
<path d="M223.7,1014.3H450.9v-.7H223.7v.7Z" class="g1_1977"/>
<path d="M450.2,1034.9h.7v-21h-.7v21Z" class="g1_1977"/>
<path d="M223.3,1034.9H450.5v-.7H223.3v.7Z" class="g1_1977"/>
<path d="M223.3,1034.6h.7v-21h-.7v21Z" class="g1_1977"/>
</svg>