<?xml version="1.0" encoding="UTF-8" standalone="no"?>
<!DOCTYPE svg PUBLIC "-//W3C//DTD SVG 1.1//EN"
"http://www.w3.org/Graphics/SVG/1.1/DTD/svg11.dtd">
<svg viewBox="0 0 935 1210" version="1.1" xmlns="http://www.w3.org/2000/svg" xmlns:xlink="http://www.w3.org/1999/xlink">
<defs>
<style type="text/css"><![CDATA[
.g0_2448{
fill: #FFF;
}
.g1_2448{
fill: #000;
}
]]></style>
</defs>
<path d="M68.8,1149.3H852.5v-21.2H68.8v21.2Z" class="g0_2448"/>
<path d="M68.6,564.9h.7V124.1h-.7V564.9Z" class="g1_2448"/>
<path d="M444,173.1h.8V123.4H444v49.7Z" class="g1_2448"/>
<path d="M444,263.2h.8V196.7H444v66.5Z" class="g1_2448"/>
<path d="M444,353.3h.8V286.8H444v66.5Z" class="g1_2448"/>
<path d="M444,443.5h.8V377H444v66.5Z" class="g1_2448"/>
<path d="M444,565.7h.8V467.1H444v98.6Z" class="g1_2448"/>
<path d="M849.9,564.9h.8V124.1h-.8V564.9Z" class="g1_2448"/>
<path d="M68.6,124.1H850.7v-.7H68.6v.7Z" class="g1_2448"/>
<path d="M68.6,148.6H850.7v-.7H68.6v.7Z" class="g1_2448"/>
<path d="M68.6,173H850.7v-.8H68.6v.8Z" class="g1_2448"/>
<path d="M68.6,197.4H850.7v-.7H68.6v.7Z" class="g1_2448"/>
<path d="M68.6,238.7H850.7V238H68.6v.7Z" class="g1_2448"/>
<path d="M68.6,263.2H850.7v-.8H68.6v.8Z" class="g1_2448"/>
<path d="M68.6,287.6H850.7v-.8H68.6v.8Z" class="g1_2448"/>
<path d="M68.6,328.8H850.7v-.7H68.6v.7Z" class="g1_2448"/>
<path d="M68.6,353.3H850.7v-.7H68.6v.7Z" class="g1_2448"/>
<path d="M68.6,377.8H850.7V377H68.6v.8Z" class="g1_2448"/>
<path d="M68.6,419H850.7v-.7H68.6v.7Z" class="g1_2448"/>
<path d="M68.6,443.5H850.7v-.8H68.6v.8Z" class="g1_2448"/>
<path d="M68.6,467.9H850.7v-.8H68.6v.8Z" class="g1_2448"/>
<path d="M68.6,492.3H850.7v-.7H68.6v.7Z" class="g1_2448"/>
<path d="M68.6,516.8H850.7v-.7H68.6v.7Z" class="g1_2448"/>
<path d="M68.6,541.2H850.7v-.7H68.6v.7Z" class="g1_2448"/>
<path d="M68.6,565.7H850.7v-.8H68.6v.8Z" class="g1_2448"/>
<path d="M170.5,1043.3h.7V788.8h-.7v254.5Z" class="g1_2448"/>
<path d="M749.8,1043.3h.8V788.8h-.8v254.5Z" class="g1_2448"/>
<path d="M170.5,788.7H750.6V788H170.5v.7Z" class="g1_2448"/>
<path d="M170.5,1044H750.6v-.7H170.5v.7Z" class="g1_2448"/>
<path d="M311.5,846.8h83.9V825.4H311.5v21.4Z" class="g0_2448"/>
<path d="M311.5,825.7h84.3V825H311.5v.7Z" class="g1_2448"/>
<path d="M395.1,847.2h.7V825.4h-.7v21.8Z" class="g1_2448"/>
<path d="M311.1,847.2h84.3v-.7H311.1v.7Z" class="g1_2448"/>
<path d="M311.1,846.8h.7V825h-.7v21.8Z" class="g1_2448"/>
<path d="M394.8,846.8h82.5V825.4H394.8v21.4Z" class="g0_2448"/>
<path d="M394.8,825.7h82.9V825H394.8v.7Z" class="g1_2448"/>
<path d="M476.9,847.2h.8V825.4h-.8v21.8Z" class="g1_2448"/>
<path d="M394.4,847.2h82.9v-.7H394.4v.7Z" class="g1_2448"/>
<path d="M394.4,846.8h.8V825h-.8v21.8Z" class="g1_2448"/>
<path d="M477.4,847.2h94.8V825.3H477.4v21.9Z" class="g0_2448"/>
<path d="M477.4,825.6h95.2v-.7H477.4v.7Z" class="g1_2448"/>
<path d="M571.8,847.5h.8V825.3h-.8v22.2Z" class="g1_2448"/>
<path d="M477,847.5h95.2v-.7H477v.7Z" class="g1_2448"/>
<path d="M477,847.2h.8V824.9H477v22.3Z" class="g1_2448"/>
<path d="M350.5,957.1l-.2,-.3l-.6,.6l.3,.2Z" class="g1_2448"/>
<path d="M350.5,957.1l2.1,2.2l-.2,.6v-.7h8.4l.2,.2l2.2,2.4v.4l-.6,-.4l2.3,-2.5l.2,-.2h.1l.3,.7l-2.3,2.4l-.3,.3l-.3,-.3l-2.2,-2.4l.6,-.4l-.3,.5h-8.5l-.1,-.1L350,957.6Z" class="g1_2448"/>
<path d="M365.2,959.1h8.2l.2,.7h-8.4Z" class="g1_2448"/>
<path d="M375.1,957.1l.2,-.3l.5,.5l-.1,.3Z" class="g1_2448"/>
<path d="M373.1,959.3l.5,.5l2,-2.3l-.5,-.4Z" class="g1_2448"/>
<path d="M222.1,848.6l-.3,-.2l-.4,.5l.3,.2Z" class="g1_2448"/>
<path d="M222.1,848.6l6.5,6.1l-.3,.6h-.1l-6.5,-6.2Z" class="g1_2448"/>
<path d="M228.3,854.6h73.6l.1,.1l-.3,.6H228.3Z" class="g1_2448"/>
<path d="M308.3,860.7l.2,.1l-.4,.6l-.3,-.2Z" class="g1_2448"/>
<path d="M302,854.7l-.5,.6l6.3,5.9l.5,-.5Z" class="g1_2448"/>
<path d="M394.7,849.4l.3,-.3l-.6,-.5l-.2,.2Z" class="g1_2448"/>
<path d="M394.7,849.4l-6.5,6.2l-.1,.1h-.2l-.2,-.6l6.5,-6.3Z" class="g1_2448"/>
<path d="M387.9,855.7H314.6l-.2,-.6l.1,-.1h73.4Z" class="g1_2448"/>
<path d="M308.6,861.6l-.3,.2l-.5,-.6l.3,-.2Z" class="g1_2448"/>
<path d="M314.9,855.6l-.5,-.5l-6.3,5.9l.5,.6Z" class="g1_2448"/>
<path d="M220.3,846.5h92.1V825.3H220.3v21.2Z" class="g0_2448"/>
<path d="M220.3,825.6h92.5v-.7H220.3v.7Z" class="g1_2448"/>
<path d="M312,846.9h.8V825.3H312v21.6Z" class="g1_2448"/>
<path d="M219.9,846.9h92.5v-.7H219.9v.7Z" class="g1_2448"/>
<path d="M219.9,846.5h.7V824.9h-.7v21.6Z" class="g1_2448"/>
<path d="M393.5,953.5H476V932H393.5v21.5Z" class="g0_2448"/>
<path d="M393.5,932.3h82.9v-.7H393.5v.7Z" class="g1_2448"/>
<path d="M475.7,953.9h.7V932h-.7v21.9Z" class="g1_2448"/>
<path d="M393.2,953.9H476v-.8H393.2v.8Z" class="g1_2448"/>
<path d="M393.2,953.5h.7V931.6h-.7v21.9Z" class="g1_2448"/>
<path d="M309.4,953.6h83.9V932.1H309.4v21.5Z" class="g0_2448"/>
<path d="M309.4,932.4h84.3v-.7H309.4v.7Z" class="g1_2448"/>
<path d="M393,954h.7V932.1H393V954Z" class="g1_2448"/>
<path d="M309,954h84.3v-.8H309v.8Z" class="g1_2448"/>
<path d="M309,953.6h.7V931.7H309v21.9Z" class="g1_2448"/>
<path d="M472.9,953.6h82.5V932.1H472.9v21.5Z" class="g0_2448"/>
<path d="M472.9,932.4h82.9v-.7H472.9v.7Z" class="g1_2448"/>
<path d="M555,954h.8V932.1H555V954Z" class="g1_2448"/>
<path d="M472.5,954h82.9v-.8H472.5v.8Z" class="g1_2448"/>
<path d="M472.5,953.6h.8V931.7h-.8v21.9Z" class="g1_2448"/>
<path d="M556.2,953.4H651V931.7H556.2v21.7Z" class="g0_2448"/>
<path d="M556.2,932.1h95.2v-.8H556.2v.8Z" class="g1_2448"/>
<path d="M650.7,953.8h.7V931.7h-.7v22.1Z" class="g1_2448"/>
<path d="M555.9,953.8H651v-.7H555.9v.7Z" class="g1_2448"/>
<path d="M555.9,953.4h.7V931.3h-.7v22.1Z" class="g1_2448"/>
<path d="M218.2,953.3h92.1V932.1H218.2v21.2Z" class="g0_2448"/>
<path d="M218.2,932.4h92.5v-.7H218.2v.7Z" class="g1_2448"/>
<path d="M309.9,953.7h.8V932.1h-.8v21.6Z" class="g1_2448"/>
<path d="M217.8,953.7h92.5V953H217.8v.7Z" class="g1_2448"/>
<path d="M217.8,953.3h.7V931.7h-.7v21.6Z" class="g1_2448"/>
<path d="M218.2,971.5l-.3,-.2l-.4,.6l.3,.2Z" class="g1_2448"/>
<path d="M218.2,971.5l9.6,6.2l-.2,.7h-.2l-9.6,-6.3Z" class="g1_2448"/>
<path d="M227.6,977.6H335.7l.2,.1l-.2,.7H227.6Z" class="g1_2448"/>
<path d="M345.1,983.7l.3,.2l-.4,.6l-.2,-.2Z" class="g1_2448"/>
<path d="M335.9,977.7l-.4,.7l9.3,5.9l.3,-.6Z" class="g1_2448"/>
<path d="M472.5,972.5l.3,-.2l-.4,-.6l-.2,.2Z" class="g1_2448"/>
<path d="M472.5,972.5l-9.6,6.1h-.2l-.2,-.6l9.7,-6.1Z" class="g1_2448"/>
<path d="M462.7,978.6h-108l-.2,-.6l.2,-.1h108Z" class="g1_2448"/>
<path d="M345.6,984.6l-.3,.2l-.4,-.7l.3,-.1Z" class="g1_2448"/>
<path d="M354.8,978.6l-.3,-.6l-9.3,5.9l.4,.7Z" class="g1_2448"/>
</svg>