<?xml version="1.0" encoding="UTF-8" standalone="no"?>
<!DOCTYPE svg PUBLIC "-//W3C//DTD SVG 1.1//EN"
"http://www.w3.org/Graphics/SVG/1.1/DTD/svg11.dtd">
<svg viewBox="0 0 935 1210" version="1.1" xmlns="http://www.w3.org/2000/svg" xmlns:xlink="http://www.w3.org/1999/xlink">
<defs>
<style type="text/css"><![CDATA[
.g0_283{
fill: #000;
}
]]></style>
</defs>
<path d="M82.4,911.5h.7V134.8h-.7V911.5Z" class="g0_283"/>
<path d="M151.2,912.3h.7V161.5h-.7V912.3Z" class="g0_283"/>
<path d="M219.9,912.3h.7V134h-.7V912.3Z" class="g0_283"/>
<path d="M549.9,912.3h.7V134h-.7V912.3Z" class="g0_283"/>
<path d="M611,912.3h.8V134H611V912.3Z" class="g0_283"/>
<path d="M693.5,912.3h.8V134h-.8V912.3Z" class="g0_283"/>
<path d="M851.9,911.5h.7V134.8h-.7V911.5Z" class="g0_283"/>
<path d="M82.4,134.8H852.6V134H82.4v.8Z" class="g0_283"/>
<path d="M82.4,162.3H220.6v-.8H82.4v.8Z" class="g0_283"/>
<path d="M83.1,187.9H851.9v-.7H83.1v.7Z" class="g0_283"/>
<path d="M83.1,191.7H851.9v-.8H83.1v.8Z" class="g0_283"/>
<path d="M82.4,912.3H852.6v-.8H82.4v.8Z" class="g0_283"/>
<path d="M275.1,668.1h.4V216.2h-.4V668.1Z" class="g0_283"/>
<path d="M385.1,668.4h.4V215.8h-.4V668.4Z" class="g0_283"/>
<path d="M495.1,668.1h.4V216.2h-.4V668.1Z" class="g0_283"/>
<path d="M275.1,216.1H495.5v-.3H275.1v.3Z" class="g0_283"/>
<path d="M275.5,239.7H495.1V239H275.5v.7Z" class="g0_283"/>
<path d="M275.5,242H495.1v-.7H275.5v.7Z" class="g0_283"/>
<path d="M275.1,262.1H495.5v-.4H275.1v.4Z" class="g0_283"/>
<path d="M275.1,283.4H495.5v-.3H275.1v.3Z" class="g0_283"/>
<path d="M275.1,304.8H495.5v-.4H275.1v.4Z" class="g0_283"/>
<path d="M275.1,326.2H495.5v-.3H275.1v.3Z" class="g0_283"/>
<path d="M275.1,347.6H495.5v-.4H275.1v.4Z" class="g0_283"/>
<path d="M275.1,369H495.5v-.4H275.1v.4Z" class="g0_283"/>
<path d="M275.1,390.4H495.5V390H275.1v.4Z" class="g0_283"/>
<path d="M275.1,411.8H495.5v-.4H275.1v.4Z" class="g0_283"/>
<path d="M275.1,433.1H495.5v-.3H275.1v.3Z" class="g0_283"/>
<path d="M275.1,454.6H495.5v-.4H275.1v.4Z" class="g0_283"/>
<path d="M275.1,475.9H495.5v-.3H275.1v.3Z" class="g0_283"/>
<path d="M275.1,497.3H495.5v-.4H275.1v.4Z" class="g0_283"/>
<path d="M275.1,518.7H495.5v-.3H275.1v.3Z" class="g0_283"/>
<path d="M275.1,540.1H495.5v-.4H275.1v.4Z" class="g0_283"/>
<path d="M275.1,561.5H495.5v-.4H275.1v.4Z" class="g0_283"/>
<path d="M275.1,582.9H495.5v-.4H275.1v.4Z" class="g0_283"/>
<path d="M275.1,604.3H495.5v-.4H275.1v.4Z" class="g0_283"/>
<path d="M275.1,625.6H495.5v-.3H275.1v.3Z" class="g0_283"/>
<path d="M275.1,647.1H495.5v-.4H275.1v.4Z" class="g0_283"/>
<path d="M275.1,668.4H495.5v-.3H275.1v.3Z" class="g0_283"/>
</svg>