<?xml version="1.0" encoding="UTF-8" standalone="no"?>
<!DOCTYPE svg PUBLIC "-//W3C//DTD SVG 1.1//EN"
"http://www.w3.org/Graphics/SVG/1.1/DTD/svg11.dtd">
<svg viewBox="0 0 935 1210" version="1.1" xmlns="http://www.w3.org/2000/svg" xmlns:xlink="http://www.w3.org/1999/xlink">
<defs>
<style type="text/css"><![CDATA[
.g0_4293{
fill: #FFF;
}
.g1_4293{
fill: #000;
}
]]></style>
</defs>
<path d="M68.9,1149.3H852.7v-21.2H68.9v21.2Z" class="g0_4293"/>
<path d="M70.8,873.6h.7V406.8h-.7V873.6Z" class="g1_4293"/>
<path d="M242.6,874.3h.8V406h-.8V874.3Z" class="g1_4293"/>
<path d="M851.2,873.6h.7V406.8h-.7V873.6Z" class="g1_4293"/>
<path d="M70.8,406.8H852v-.7H70.8v.7Z" class="g1_4293"/>
<path d="M70.8,429.7H852V429H70.8v.7Z" class="g1_4293"/>
<path d="M70.8,452.7H852v-.8H70.8v.8Z" class="g1_4293"/>
<path d="M70.8,475.6H852v-.8H70.8v.8Z" class="g1_4293"/>
<path d="M70.8,498.5H852v-.8H70.8v.8Z" class="g1_4293"/>
<path d="M70.8,521.4H852v-.7H70.8v.7Z" class="g1_4293"/>
<path d="M70.8,544.3H852v-.7H70.8v.7Z" class="g1_4293"/>
<path d="M70.8,567.2H852v-.7H70.8v.7Z" class="g1_4293"/>
<path d="M70.8,590.2H852v-.8H70.8v.8Z" class="g1_4293"/>
<path d="M70.8,613.1H852v-.8H70.8v.8Z" class="g1_4293"/>
<path d="M70.8,636H852v-.8H70.8v.8Z" class="g1_4293"/>
<path d="M70.8,692.4H852v-.7H70.8v.7Z" class="g1_4293"/>
<path d="M70.8,715.4H852v-.8H70.8v.8Z" class="g1_4293"/>
<path d="M70.8,738.3H852v-.7H70.8v.7Z" class="g1_4293"/>
<path d="M70.8,761.2H852v-.7H70.8v.7Z" class="g1_4293"/>
<path d="M70.8,851.4H852v-.7H70.8v.7Z" class="g1_4293"/>
<path d="M70.8,874.3H852v-.7H70.8v.7Z" class="g1_4293"/>
</svg>