<?xml version="1.0" encoding="UTF-8" standalone="no"?>
<!DOCTYPE svg PUBLIC "-//W3C//DTD SVG 1.1//EN"
"http://www.w3.org/Graphics/SVG/1.1/DTD/svg11.dtd">
<svg viewBox="0 0 935 1210" version="1.1" xmlns="http://www.w3.org/2000/svg" xmlns:xlink="http://www.w3.org/1999/xlink">
<defs>
<style type="text/css"><![CDATA[
.g0_23{
fill: none;
stroke: #000;
stroke-width: 0.608;
stroke-miterlimit: 10;
}
]]></style>
</defs>
<path d="M123.6,215.3H811.4m-687.5,21V215.6m77.7,20.7V215.6m82.6,20.7V215.6m115.1,20.7V215.6m411.8,20.7V215.6m-687.5,21H811.4m-687.5,21V236.9m687.2,20.7V236.9m-687.5,21H811.4m-687.8,3.7H811.4m-687.5,21V261.9m77.7,20.7V261.9m82.6,20.7V261.9m115.1,20.7V261.9m411.8,20.7V261.9M123.9,303.3V282.6m77.7,20.7V282.6m82.6,20.7V282.6m115.1,20.7V282.6m411.8,20.7V282.6M123.9,324V303.3M201.6,324V303.3M284.2,324V303.3M399.3,324V303.3M811.1,324V303.3M123.9,344.7V324m77.7,20.7V324m82.6,20.7V324m115.1,20.7V324m411.8,20.7V324M123.9,365.4V344.7m77.7,20.7V344.7m82.6,20.7V344.7m115.1,20.7V344.7m411.8,20.7V344.7M123.9,386.1V365.4m77.7,20.7V365.4m82.6,20.7V365.4m115.1,20.7V365.4m411.8,20.7V365.4m-687.5,21H811.4m-687.5,21V386.7m687.2,20.7V386.7m-687.5,21H811.4m-687.5,21V408m77.7,20.7V408m82.6,20.7V408m115.1,20.7V408m411.8,20.7V408M123.9,449.4V428.7m77.7,20.7V428.7m82.6,20.7V428.7m115.1,20.7V428.7m411.8,20.7V428.7M123.9,470.1V449.4m77.7,20.7V449.4m82.6,20.7V449.4m115.1,20.7V449.4m411.8,20.7V449.4M123.9,490.8V470.1m77.7,20.7V470.1m82.6,20.7V470.1m115.1,20.7V470.1m411.8,20.7V470.1M123.9,511.5V490.8m77.7,20.7V490.8m82.6,20.7V490.8m115.1,20.7V490.8m411.8,20.7V490.8m-687.5,21H811.4m-687.5,21V512.1m687.2,20.7V512.1m-687.5,21H811.4m-687.5,21V533.4m77.7,20.7V533.4m82.6,20.7V533.4m115.1,20.7V533.4m411.8,20.7V533.4M123.9,574.8V554.1m77.7,20.7V554.1m82.6,20.7V554.1m115.1,20.7V554.1m411.8,20.7V554.1m-687.5,21H811.4m-687.5,21V575.4m687.2,20.7V575.4m-687.5,21H811.4m-687.5,21V596.7m77.7,20.7V596.7m82.6,20.7V596.7m115.1,20.7V596.7m411.8,20.7V596.7m-687.5,21H811.4m-687.5,21V618m687.2,20.7V618M123.6,639.1H811.4m-687.5,21V639.4m77.7,20.7V639.4m82.6,20.7V639.4m115.1,20.7V639.4m411.8,20.7V639.4m-687.5,21H811.4m-687.5,21V660.7m687.2,20.7V660.7m-687.5,21H811.4m-687.5,21V682m77.7,20.7V682m82.6,20.7V682m115.1,20.7V682m411.8,20.7V682M123.9,723.4V702.7m77.7,20.7V702.7m82.6,20.7V702.7m115.1,20.7V702.7m411.8,20.7V702.7m-687.5,21H811.4m-687.5,21V724m687.2,20.7V724M123.6,745H811.4M123.9,766V745.3M201.6,766V745.3M284.2,766V745.3M399.3,766V745.3M811.1,766V745.3M123.9,786.7V766m77.7,20.7V766m82.6,20.7V766m115.1,20.7V766m411.8,20.7V766M123.9,807.4V786.7m77.7,20.7V786.7m82.6,20.7V786.7m115.1,20.7V786.7m411.8,20.7V786.7M123.9,828.1V807.4m77.7,20.7V807.4m82.6,20.7V807.4m115.1,20.7V807.4m411.8,20.7V807.4M123.9,848.8V828.1m77.7,20.7V828.1m82.6,20.7V828.1m115.1,20.7V828.1m411.8,20.7V828.1M123.9,869.5V848.8m77.7,20.7V848.8m82.6,20.7V848.8m115.1,20.7V848.8m411.8,20.7V848.8M123.9,890.2V869.5m77.7,20.7V869.5m82.6,20.7V869.5m115.1,20.7V869.5m411.8,20.7V869.5M123.9,910.9V890.2m77.7,20.7V890.2m82.6,20.7V890.2m115.1,20.7V890.2m411.8,20.7V890.2M123.9,931.6V910.9m77.7,20.7V910.9m82.6,20.7V910.9m115.1,20.7V910.9m411.8,20.7V910.9m-687.5,21H811.4" class="g0_23"/>
</svg>