<?xml version="1.0" encoding="UTF-8" standalone="no"?>
<!DOCTYPE svg PUBLIC "-//W3C//DTD SVG 1.1//EN"
"http://www.w3.org/Graphics/SVG/1.1/DTD/svg11.dtd">
<svg viewBox="0 0 935 1210" version="1.1" xmlns="http://www.w3.org/2000/svg" xmlns:xlink="http://www.w3.org/1999/xlink">
<defs>
<clipPath id="c0_2821"><path d="M97.3,59.2V41.4h72.1V59.2Z"/></clipPath>
<style type="text/css"><![CDATA[
.g0_2821{
fill: #000;
}
]]></style>
</defs>
<path d="M96.3,63.3H838.8v-.4H96.3v.4Z" class="g0_2821"/>
<path d="M96.1,1114.5h.2v-.4h-.2v.4Z" class="g0_2821"/>
<path d="M96.3,1114.5H838.9v-.4H96.3v.4Z" class="g0_2821"/>
<image clip-path="url(#c0_2821)" preserveAspectRatio="none" x="97" y="41" width="73" height="18" xlink:href="img/1.jpg"/>
<path d="M566.3,547.9h31.4v-1.1H566.3v1.1Z" class="g0_2821"/>
<path d="M95.9,401.4h.7V356.3h-.7v45.1Z" class="g0_2821"/>
<path d="M216,402.1h.7V355.6H216v46.5Z" class="g0_2821"/>
<path d="M293.3,402.1h.8V355.6h-.8v46.5Z" class="g0_2821"/>
<path d="M839.1,401.4h.7V356.3h-.7v45.1Z" class="g0_2821"/>
<path d="M95.9,356.3h744v-.7H95.9v.7Z" class="g0_2821"/>
<path d="M95.9,380.4h744v-3H95.9v3Z" class="g0_2821"/>
<path d="M95.9,402.1h744v-.7H95.9v.7Z" class="g0_2821"/>
<path d="M95.9,1046.2h.7V806.7h-.7v239.5Z" class="g0_2821"/>
<path d="M273.3,1027h.8V803.6h-.8V1027Z" class="g0_2821"/>
<path d="M310,1027h.7V826.2H310V1027Z" class="g0_2821"/>
<path d="M346.7,1027h.7V826.2h-.7V1027Z" class="g0_2821"/>
<path d="M383.4,1027h.7V803.6h-.7V1027Z" class="g0_2821"/>
<path d="M839.2,1046.2h.7V806.7h-.7v239.5Z" class="g0_2821"/>
<path d="M95.9,806.7h744v-3.1H95.9v3.1Z" class="g0_2821"/>
<path d="M273.3,826.9H384.2v-.7H273.3v.7Z" class="g0_2821"/>
<path d="M95.9,849.5h744v-3H95.9v3Z" class="g0_2821"/>
<path d="M273.3,868.2H839.9v-.8H273.3v.8Z" class="g0_2821"/>
<path d="M273.3,888H839.9v-.8H273.3v.8Z" class="g0_2821"/>
<path d="M273.3,907.9H839.9v-.8H273.3v.8Z" class="g0_2821"/>
<path d="M273.3,927.8H839.9V927H273.3v.8Z" class="g0_2821"/>
<path d="M273.3,947.6H839.9v-.8H273.3v.8Z" class="g0_2821"/>
<path d="M273.3,967.5H839.9v-.8H273.3v.8Z" class="g0_2821"/>
<path d="M273.3,987.3H839.9v-.7H273.3v.7Z" class="g0_2821"/>
<path d="M95.9,1007.2h744v-.7H95.9v.7Z" class="g0_2821"/>
<path d="M95.9,1027h744v-.7H95.9v.7Z" class="g0_2821"/>
<path d="M95.9,1046.9h744v-.7H95.9v.7Z" class="g0_2821"/>
</svg>