<?xml version="1.0" encoding="UTF-8" standalone="no"?>
<!DOCTYPE svg PUBLIC "-//W3C//DTD SVG 1.1//EN"
"http://www.w3.org/Graphics/SVG/1.1/DTD/svg11.dtd">
<svg viewBox="0 0 935 1210" version="1.1" xmlns="http://www.w3.org/2000/svg" xmlns:xlink="http://www.w3.org/1999/xlink">
<defs>
<style type="text/css"><![CDATA[
.g0_1131{
fill: #FFF;
}
.g1_1131{
fill: #000;
}
.g2_1131{
fill: #B3B3B3;
}
]]></style>
</defs>
<path d="M68.9,1149.3H755.2v-21.2H68.9v21.2Z" class="g0_1131"/>
<path d="M771.3,1149.3H855v-21.2H771.3v21.2Z" class="g0_1131"/>
<path d="M70.3,1031.3v-.8Z" class="g1_1131"/>
<path d="M70.3,1031.3H290.7v-.8H70.3v.8Z" class="g1_1131"/>
<path d="M69.9,311.3h.8V125.7h-.8V311.3Z" class="g1_1131"/>
<path d="M361.9,312h.7V124.9h-.7V312Z" class="g1_1131"/>
<path d="M404,312h.7V124.9H404V312Z" class="g1_1131"/>
<path d="M463.6,312h.7V124.9h-.7V312Z" class="g1_1131"/>
<path d="M531.1,312h.7V124.9h-.7V312Z" class="g1_1131"/>
<path d="M852,311.3h.7V125.7H852V311.3Z" class="g1_1131"/>
<path d="M69.9,125.7H852.8v-.8H69.9v.8Z" class="g1_1131"/>
<path d="M69.9,182.1H852.8v-.7H69.9v.7Z" class="g1_1131"/>
<path d="M69.9,255.5H852.8v-.8H69.9v.8Z" class="g1_1131"/>
<path d="M69.9,312H852.8v-.7H69.9v.7Z" class="g1_1131"/>
<path d="M69.9,415.2h.8V367h-.8v48.2Z" class="g1_1131"/>
<path d="M144.7,416h.8V366.3h-.8V416Z" class="g1_1131"/>
<path d="M318.5,416h.8V366.3h-.8V416Z" class="g1_1131"/>
<path d="M495.5,416h.7V366.3h-.7V416Z" class="g1_1131"/>
<path d="M671.8,416h.8V366.3h-.8V416Z" class="g1_1131"/>
<path d="M852.1,415.2h.8V367h-.8v48.2Z" class="g1_1131"/>
<path d="M69.9,367h783v-.7H69.9v.7Z" class="g1_1131"/>
<path d="M69.9,391.5h783v-.7H69.9v.7Z" class="g1_1131"/>
<path d="M69.9,416h783v-.8H69.9v.8Z" class="g1_1131"/>
<path d="M171.3,999.4h.8V885h-.8V999.4Z" class="g1_1131"/>
<path d="M750.7,999.4h.7V885h-.7V999.4Z" class="g1_1131"/>
<path d="M171.3,885H751.4v-.8H171.3v.8Z" class="g1_1131"/>
<path d="M171.3,1000.2H751.4v-.8H171.3v.8Z" class="g1_1131"/>
<path d="M234.7,956.4H702.3V928.9H234.7v27.5Z" class="g0_1131"/>
<path d="M234.7,929.8H703.1v-1.6H234.7v1.6Z" class="g1_1131"/>
<path d="M701.5,957.3h1.6V929h-1.6v28.3Z" class="g1_1131"/>
<path d="M233.9,957.3H702.3v-1.6H233.9v1.6Z" class="g1_1131"/>
<path d="M233.9,956.4h1.6V928.2h-1.6v28.2Z" class="g1_1131"/>
<path d="M468.5,956.4H658.4V928.9H468.5v27.5Z" class="g2_1131"/>
<path d="M468.5,929.8H659.2v-1.6H468.5v1.6Z" class="g1_1131"/>
<path d="M657.6,957.3h1.6V929h-1.6v28.3Z" class="g1_1131"/>
<path d="M467.8,957.3H658.3v-1.6H467.8v1.6Z" class="g1_1131"/>
<path d="M467.8,956.4h1.5V928.2h-1.5v28.2Z" class="g1_1131"/>
</svg>