<?xml version="1.0" encoding="UTF-8" standalone="no"?>
<!DOCTYPE svg PUBLIC "-//W3C//DTD SVG 1.1//EN"
"http://www.w3.org/Graphics/SVG/1.1/DTD/svg11.dtd">
<svg viewBox="0 0 935 1210" version="1.1" xmlns="http://www.w3.org/2000/svg" xmlns:xlink="http://www.w3.org/1999/xlink">
<defs>
<clipPath id="c0_3217"><path d="M766.6,59.2V41.4h72.2V59.2Z"/></clipPath>
<style type="text/css"><![CDATA[
.g0_3217{
fill: #000;
}
]]></style>
</defs>
<path d="M97.4,63.3H839.9v-.4H97.4v.4Z" class="g0_3217"/>
<path d="M96.1,1114.5h.2v-.4h-.2v.4Z" class="g0_3217"/>
<path d="M96.3,1114.5H838.9v-.4H96.3v.4Z" class="g0_3217"/>
<image clip-path="url(#c0_3217)" preserveAspectRatio="none" x="767" y="41" width="72" height="18" xlink:href="img/1.jpg"/>
<path d="M95.9,578.6h.7V189.4h-.7V578.6Z" class="g0_3217"/>
<path d="M247.1,325.8h.8V186.4h-.8V325.8Z" class="g0_3217"/>
<path d="M247.1,579.4h.8v-230h-.8v230Z" class="g0_3217"/>
<path d="M298.6,325.8h.7V186.4h-.7V325.8Z" class="g0_3217"/>
<path d="M298.6,579.4h.7v-230h-.7v230Z" class="g0_3217"/>
<path d="M356.9,325.8h.7V186.4h-.7V325.8Z" class="g0_3217"/>
<path d="M356.9,579.4h.7v-230h-.7v230Z" class="g0_3217"/>
<path d="M435,325.8h.7V186.4H435V325.8Z" class="g0_3217"/>
<path d="M435,579.4h.7v-230H435v230Z" class="g0_3217"/>
<path d="M841.1,578.6h.8V189.4h-.8V578.6Z" class="g0_3217"/>
<path d="M95.9,189.5h746v-3H95.9v3Z" class="g0_3217"/>
<path d="M95.9,232.2h746v-3H95.9v3Z" class="g0_3217"/>
<path d="M95.9,270.8h746v-.7H95.9v.7Z" class="g0_3217"/>
<path d="M95.9,325.8h746v-.7H95.9v.7Z" class="g0_3217"/>
<path d="M95.9,350.3h746v-.8H95.9v.8Z" class="g0_3217"/>
<path d="M95.9,389.9h746v-.7H95.9v.7Z" class="g0_3217"/>
<path d="M95.9,444.9h746v-.7H95.9v.7Z" class="g0_3217"/>
<path d="M95.9,499.9h746v-.7H95.9v.7Z" class="g0_3217"/>
<path d="M95.9,539.6h746v-.7H95.9v.7Z" class="g0_3217"/>
<path d="M95.9,579.4h746v-.7H95.9v.7Z" class="g0_3217"/>
</svg>