<?xml version="1.0" encoding="UTF-8" standalone="no"?>
<!DOCTYPE svg PUBLIC "-//W3C//DTD SVG 1.1//EN"
"http://www.w3.org/Graphics/SVG/1.1/DTD/svg11.dtd">
<svg viewBox="0 0 935 1210" version="1.1" xmlns="http://www.w3.org/2000/svg" xmlns:xlink="http://www.w3.org/1999/xlink">
<defs>
<style type="text/css"><![CDATA[
.g0_451{
fill: #FFF;
}
.g1_451{
fill: #000;
}
.g2_451{
fill: #0860A8;
}
]]></style>
</defs>
<path d="M68.9,1149.3H755.2v-21.2H68.9v21.2Z" class="g0_451"/>
<path d="M771.3,1149.3H855v-21.2H771.3v21.2Z" class="g0_451"/>
<path d="M70.3,988.4v-.7Z" class="g1_451"/>
<path d="M70.3,988.4H290.7v-.7H70.3v.7Z" class="g1_451"/>
<path d="M92.3,1034.6H679.2v-1H92.3v1Z" class="g2_451"/>
<path d="M69.9,234.9h.8V125.7h-.8V234.9Z" class="g1_451"/>
<path d="M347.1,235.7h.7V124.9h-.7V235.7Z" class="g1_451"/>
<path d="M384.7,235.7h.8V124.9h-.8V235.7Z" class="g1_451"/>
<path d="M457.9,235.7h.7V124.9h-.7V235.7Z" class="g1_451"/>
<path d="M531.8,235.7h.7V124.9h-.7V235.7Z" class="g1_451"/>
<path d="M850.8,234.9h.7V125.7h-.7V234.9Z" class="g1_451"/>
<path d="M69.9,125.7H851.5v-.8H69.9v.8Z" class="g1_451"/>
<path d="M69.9,179.1H851.5v-.7H69.9v.7Z" class="g1_451"/>
<path d="M69.9,235.7H851.5v-.8H69.9v.8Z" class="g1_451"/>
<path d="M69.9,338.8h.8V290.7h-.8v48.1Z" class="g1_451"/>
<path d="M121,339.5h.7V289.9H121v49.6Z" class="g1_451"/>
<path d="M179.5,339.5h.7V289.9h-.7v49.6Z" class="g1_451"/>
<path d="M299.7,339.5h.7V289.9h-.7v49.6Z" class="g1_451"/>
<path d="M429.2,339.5h.7V289.9h-.7v49.6Z" class="g1_451"/>
<path d="M570.5,339.5h.8V289.9h-.8v49.6Z" class="g1_451"/>
<path d="M710.2,339.5h.8V289.9h-.8v49.6Z" class="g1_451"/>
<path d="M849.9,338.8h.8V290.7h-.8v48.1Z" class="g1_451"/>
<path d="M69.9,290.7H850.7v-.8H69.9v.8Z" class="g1_451"/>
<path d="M69.9,315.1H850.7v-.8H69.9v.8Z" class="g1_451"/>
<path d="M69.9,339.5H850.7v-.7H69.9v.7Z" class="g1_451"/>
</svg>