<?xml version="1.0" encoding="UTF-8" standalone="no"?>
<!DOCTYPE svg PUBLIC "-//W3C//DTD SVG 1.1//EN"
"http://www.w3.org/Graphics/SVG/1.1/DTD/svg11.dtd">
<svg viewBox="0 0 935 1210" version="1.1" xmlns="http://www.w3.org/2000/svg" xmlns:xlink="http://www.w3.org/1999/xlink">
<defs>
<style type="text/css"><![CDATA[
.g0_4226{
fill: #FFF;
}
.g1_4226{
fill: #F8FAFC;
}
.g2_4226{
fill: #000;
}
.g3_4226{
fill: #FFE0D1;
}
.g4_4226{
fill: #E9F3E9;
}
]]></style>
</defs>
<path d="M68.8,1149.3H852.5v-21.2H68.8v21.2Z" class="g0_4226"/>
<path d="M68.9,190.9H173.8V166.6H68.9v24.3Z" class="g1_4226"/>
<path d="M68.9,326.1H173.8V190.9H68.9V326.1Z" class="g1_4226"/>
<path d="M68.9,367.4H173.8V326.1H68.9v41.3Z" class="g1_4226"/>
<path d="M381.7,367.4h97.4V326.1H381.7v41.3Z" class="g1_4226"/>
<path d="M68.9,771.8H173.8V367.4H68.9V771.8Z" class="g1_4226"/>
<path d="M68.9,829.9H173.8V771.8H68.9v58.1Z" class="g1_4226"/>
<path d="M68.6,829.5h.7V166.9h-.7V829.5Z" class="g2_4226"/>
<path d="M173.4,830.2h.8v-664h-.8v664Z" class="g2_4226"/>
<path d="M381.3,367.8h.8v-42h-.8v42Z" class="g2_4226"/>
<path d="M478.7,367.8h.7v-42h-.7v42Z" class="g2_4226"/>
<path d="M850.2,829.5h.7V166.9h-.7V829.5Z" class="g2_4226"/>
<path d="M68.6,166.9H850.9v-.7H68.6v.7Z" class="g2_4226"/>
<path d="M68.6,191.3H850.9v-.7H68.6v.7Z" class="g2_4226"/>
<path d="M68.6,326.5H850.9v-.7H68.6v.7Z" class="g2_4226"/>
<path d="M68.6,367.8H850.9V367H68.6v.8Z" class="g2_4226"/>
<path d="M68.6,772.2H850.9v-.7H68.6v.7Z" class="g2_4226"/>
<path d="M68.6,830.2H850.9v-.7H68.6v.7Z" class="g2_4226"/>
<path d="M194.7,239.1H321.2V217.7H194.7v21.4Z" class="g3_4226"/>
<path d="M321.2,239.1h63.3V217.7H321.2v21.4Z" class="g3_4226"/>
<path d="M384.5,239.1h63.2V217.7H384.5v21.4Z" class="g3_4226"/>
<path d="M447.7,239.1H511V217.7H447.7v21.4Z" class="g3_4226"/>
<path d="M511,239.1h63.2V217.7H511v21.4Z" class="g3_4226"/>
<path d="M574.2,239.1h63.2V217.7H574.2v21.4Z" class="g3_4226"/>
<path d="M637.4,239.1h63.3V217.7H637.4v21.4Z" class="g3_4226"/>
<path d="M700.7,239.1H764V217.7H700.7v21.4Z" class="g3_4226"/>
<path d="M194.7,260.5h63.2V239.1H194.7v21.4Z" class="g3_4226"/>
<path d="M257.9,260.5h63.3V239.1H257.9v21.4Z" class="g4_4226"/>
<path d="M321.2,260.5h63.3V239.1H321.2v21.4Z" class="g4_4226"/>
<path d="M384.5,260.5h63.2V239.1H384.5v21.4Z" class="g4_4226"/>
<path d="M447.7,260.5H511V239.1H447.7v21.4Z" class="g4_4226"/>
<path d="M511,260.5h63.2V239.1H511v21.4Z" class="g4_4226"/>
<path d="M574.2,260.5h63.2V239.1H574.2v21.4Z" class="g4_4226"/>
<path d="M637.4,260.5h63.3V239.1H637.4v21.4Z" class="g4_4226"/>
<path d="M700.7,260.5H764V239.1H700.7v21.4Z" class="g4_4226"/>
<path d="M194.7,281.9h63.2V260.5H194.7v21.4Z" class="g3_4226"/>
<path d="M257.9,281.9h63.3V260.5H257.9v21.4Z" class="g4_4226"/>
<path d="M321.2,281.9h63.3V260.5H321.2v21.4Z" class="g4_4226"/>
<path d="M384.5,281.9h63.2V260.5H384.5v21.4Z" class="g4_4226"/>
<path d="M447.7,281.9H511V260.5H447.7v21.4Z" class="g4_4226"/>
<path d="M511,281.9h63.2V260.5H511v21.4Z" class="g4_4226"/>
<path d="M574.2,281.9h63.2V260.5H574.2v21.4Z" class="g4_4226"/>
<path d="M637.4,281.9h63.3V260.5H637.4v21.4Z" class="g4_4226"/>
<path d="M700.7,281.9H764V260.5H700.7v21.4Z" class="g4_4226"/>
<path d="M194.7,303.2h63.2V281.9H194.7v21.3Z" class="g3_4226"/>
<path d="M194.3,302.9h.8V218.1h-.8v84.8Z" class="g2_4226"/>
<path d="M257.6,303.6h.7V217.3h-.7v86.3Z" class="g2_4226"/>
<path d="M320.8,303.6h.8V217.3h-.8v86.3Z" class="g2_4226"/>
<path d="M384.1,282.2h.7V217.3h-.7v64.9Z" class="g2_4226"/>
<path d="M447.3,303.6h.8V217.3h-.8v86.3Z" class="g2_4226"/>
<path d="M510.6,282.2h.7V217.3h-.7v64.9Z" class="g2_4226"/>
<path d="M573.8,282.2h.8V217.3h-.8v64.9Z" class="g2_4226"/>
<path d="M637.1,282.2h.7V217.3h-.7v64.9Z" class="g2_4226"/>
<path d="M700.3,282.2h.8V217.3h-.8v64.9Z" class="g2_4226"/>
<path d="M763.6,302.9h.7V218.1h-.7v84.8Z" class="g2_4226"/>
<path d="M194.2,218.1H764.3v-.8H194.2v.8Z" class="g2_4226"/>
<path d="M194.2,239.4H764.3v-.7H194.2v.7Z" class="g2_4226"/>
<path d="M194.2,260.9H764.3v-.7H194.2v.7Z" class="g2_4226"/>
<path d="M194.2,282.2H764.3v-.7H194.2v.7Z" class="g2_4226"/>
<path d="M194.2,303.6H764.3v-.7H194.2v.7Z" class="g2_4226"/>
<path d="M194.3,746.7h.8V469.4h-.8V746.7Z" class="g2_4226"/>
<path d="M435.5,747.4h.7V468.6h-.7V747.4Z" class="g2_4226"/>
<path d="M837.4,746.7h.7V469.4h-.7V746.7Z" class="g2_4226"/>
<path d="M194.2,469.3H838.1v-.7H194.2v.7Z" class="g2_4226"/>
<path d="M194.2,490.8H838.1v-.7H194.2v.7Z" class="g2_4226"/>
<path d="M194.2,512.1H838.1v-.7H194.2v.7Z" class="g2_4226"/>
<path d="M194.2,533.5H838.1v-.7H194.2v.7Z" class="g2_4226"/>
<path d="M194.2,554.9H838.1v-.7H194.2v.7Z" class="g2_4226"/>
<path d="M194.2,576.3H838.1v-.7H194.2v.7Z" class="g2_4226"/>
<path d="M194.2,597.7H838.1v-.8H194.2v.8Z" class="g2_4226"/>
<path d="M194.2,619.1H838.1v-.7H194.2v.7Z" class="g2_4226"/>
<path d="M194.2,640.5H838.1v-.8H194.2v.8Z" class="g2_4226"/>
<path d="M194.2,661.8H838.1v-.7H194.2v.7Z" class="g2_4226"/>
<path d="M194.2,683.3H838.1v-.7H194.2v.7Z" class="g2_4226"/>
<path d="M194.2,704.6H838.1v-.7H194.2v.7Z" class="g2_4226"/>
<path d="M194.2,726H838.1v-.7H194.2v.7Z" class="g2_4226"/>
<path d="M194.2,747.4H838.1v-.7H194.2v.7Z" class="g2_4226"/>
</svg>