<?xml version="1.0" encoding="UTF-8" standalone="no"?>
<!DOCTYPE svg PUBLIC "-//W3C//DTD SVG 1.1//EN"
"http://www.w3.org/Graphics/SVG/1.1/DTD/svg11.dtd">
<svg viewBox="0 0 935 1210" version="1.1" xmlns="http://www.w3.org/2000/svg" xmlns:xlink="http://www.w3.org/1999/xlink">
<defs>
<clipPath id="c0_1645"><path d="M97.3,59.2V41.4h72.1V59.2Z"/></clipPath>
<style type="text/css"><![CDATA[
.g0_1645{
fill: #000;
}
]]></style>
</defs>
<path d="M96.2,62.9v.3H838.7v-.3H96.2Z" class="g0_1645"/>
<path d="M96.2,1114.1h-.1v.4h.1v-.4Z" class="g0_1645"/>
<path d="M838.7,1114.1h.2v.4h-.2v-.4Z" class="g0_1645"/>
<path d="M96.2,1114.1v.4H838.7v-.4H96.2Z" class="g0_1645"/>
<image clip-path="url(#c0_1645)" preserveAspectRatio="none" x="97" y="41" width="72" height="18" xlink:href="img/1.jpg"/>
<path d="M96.6,747.1h-.7v80.5h.7V747.1Z" class="g0_1645"/>
<path d="M244.8,744h-.7v84.5h.7V744Z" class="g0_1645"/>
<path d="M284.5,744h-.7v84.5h.7V744Z" class="g0_1645"/>
<path d="M338,744h-.8v84.5h.8V744Z" class="g0_1645"/>
<path d="M411.9,744h-.7v84.5h.7V744Z" class="g0_1645"/>
<path d="M843.3,747.1h-.7v80.5h.7V747.1Z" class="g0_1645"/>
<path d="M95.9,744v3.1H843.3V744H95.9Z" class="g0_1645"/>
<path d="M95.9,786.8v3.1H843.3v-3.1H95.9Z" class="g0_1645"/>
<path d="M95.9,827.6v.8H843.3v-.8H95.9Z" class="g0_1645"/>
</svg>