<?xml version="1.0" encoding="UTF-8" standalone="no"?>
<!DOCTYPE svg PUBLIC "-//W3C//DTD SVG 1.1//EN"
"http://www.w3.org/Graphics/SVG/1.1/DTD/svg11.dtd">
<svg viewBox="0 0 935 1210" version="1.1" xmlns="http://www.w3.org/2000/svg" xmlns:xlink="http://www.w3.org/1999/xlink">
<defs>
<style type="text/css"><![CDATA[
.g0_2241{
fill: #FFF;
}
.g1_2241{
fill: #000;
}
]]></style>
</defs>
<path d="M68.9,1149.3H755.2v-21.2H68.9v21.2Z" class="g0_2241"/>
<path d="M771.3,1149.3H855v-21.2H771.3v21.2Z" class="g0_2241"/>
<path d="M70.3,1048v-.7Z" class="g1_2241"/>
<path d="M70.3,1048H290.7v-.7H70.3v.7Z" class="g1_2241"/>
<path d="M69.9,267h.8V125.7h-.8V267Z" class="g1_2241"/>
<path d="M324.3,267.8h.7V124.9h-.7V267.8Z" class="g1_2241"/>
<path d="M370.4,267.8h.8V124.9h-.8V267.8Z" class="g1_2241"/>
<path d="M441.8,267.8h.8V124.9h-.8V267.8Z" class="g1_2241"/>
<path d="M513.2,267.8h.8V124.9h-.8V267.8Z" class="g1_2241"/>
<path d="M852.5,267h.7V125.7h-.7V267Z" class="g1_2241"/>
<path d="M69.9,125.7H853.2v-.8H69.9v.8Z" class="g1_2241"/>
<path d="M69.9,179.1H853.2v-.7H69.9v.7Z" class="g1_2241"/>
<path d="M69.9,223.4H853.2v-.7H69.9v.7Z" class="g1_2241"/>
<path d="M69.9,267.8H853.2V267H69.9v.8Z" class="g1_2241"/>
<path d="M69.9,370.9h.8V322.8h-.8v48.1Z" class="g1_2241"/>
<path d="M140.2,371.6h.7V322h-.7v49.6Z" class="g1_2241"/>
<path d="M318.9,371.6h.7V322h-.7v49.6Z" class="g1_2241"/>
<path d="M490.4,371.6h.8V322h-.8v49.6Z" class="g1_2241"/>
<path d="M671.6,371.6h.8V322h-.8v49.6Z" class="g1_2241"/>
<path d="M848.7,370.9h.8V322.8h-.8v48.1Z" class="g1_2241"/>
<path d="M69.9,322.8H849.5V322H69.9v.8Z" class="g1_2241"/>
<path d="M69.9,347.1H849.5v-.7H69.9v.7Z" class="g1_2241"/>
<path d="M69.9,371.6H849.5v-.7H69.9v.7Z" class="g1_2241"/>
</svg>