<?xml version="1.0" encoding="UTF-8" standalone="no"?>
<!DOCTYPE svg PUBLIC "-//W3C//DTD SVG 1.1//EN"
"http://www.w3.org/Graphics/SVG/1.1/DTD/svg11.dtd">
<svg viewBox="0 0 935 1210" version="1.1" xmlns="http://www.w3.org/2000/svg" xmlns:xlink="http://www.w3.org/1999/xlink">
<defs>
<clipPath id="c0_2768"><path d="M766.6,59.2V41.4h72.2V59.2Z"/></clipPath>
<style type="text/css"><![CDATA[
.g0_2768{
fill: #000;
}
]]></style>
</defs>
<path d="M97.4,63.3H839.9v-.4H97.4v.4Z" class="g0_2768"/>
<path d="M96.1,1114.5h.2v-.4h-.2v.4Z" class="g0_2768"/>
<path d="M96.3,1114.5H838.9v-.4H96.3v.4Z" class="g0_2768"/>
<image clip-path="url(#c0_2768)" preserveAspectRatio="none" x="767" y="41" width="72" height="18" xlink:href="img/1.jpg"/>
<path d="M570.6,737.4H602v-1.1H570.6v1.1Z" class="g0_2768"/>
<path d="M691.3,737.4h20.4v-1.1H691.3v1.1Z" class="g0_2768"/>
<path d="M711.7,737.4h8.5v-1.1h-8.5v1.1Z" class="g0_2768"/>
<path d="M95.9,590.9h.7V545.8h-.7v45.1Z" class="g0_2768"/>
<path d="M222.7,591.6h.7V545h-.7v46.6Z" class="g0_2768"/>
<path d="M299.9,591.6h.8V545h-.8v46.6Z" class="g0_2768"/>
<path d="M839.1,590.9h.7V545.8h-.7v45.1Z" class="g0_2768"/>
<path d="M95.9,545.8h744V545H95.9v.8Z" class="g0_2768"/>
<path d="M95.9,569.9h744v-3H95.9v3Z" class="g0_2768"/>
<path d="M95.9,591.6h744v-.7H95.9v.7Z" class="g0_2768"/>
</svg>