<?xml version="1.0" encoding="UTF-8" standalone="no"?>
<!DOCTYPE svg PUBLIC "-//W3C//DTD SVG 1.1//EN"
"http://www.w3.org/Graphics/SVG/1.1/DTD/svg11.dtd">
<svg viewBox="0 0 935 1210" version="1.1" xmlns="http://www.w3.org/2000/svg" xmlns:xlink="http://www.w3.org/1999/xlink">
<defs>
<style type="text/css"><![CDATA[
.g0_134{
fill: #B3B3B3;
}
.g1_134{
fill: #000;
}
]]></style>
</defs>
<path d="M82.5,96.3h770V55H82.5V96.3Z" class="g0_134"/>
<path d="M105.8,218.3h.3v-44h-.3v44Z" class="g1_134"/>
<path d="M105.8,302.3h.3V258.4h-.3v43.9Z" class="g1_134"/>
<path d="M237.8,218.6h.4V174h-.4v44.6Z" class="g1_134"/>
<path d="M237.8,302.7h.4V257.9h-.4v44.8Z" class="g1_134"/>
<path d="M347.8,218.6h.4V174h-.4v44.6Z" class="g1_134"/>
<path d="M347.8,302.7h.4V257.9h-.4v44.8Z" class="g1_134"/>
<path d="M457.8,218.6h.4V174h-.4v44.6Z" class="g1_134"/>
<path d="M457.8,302.7h.4V257.9h-.4v44.8Z" class="g1_134"/>
<path d="M567.8,218.6h.4V174h-.4v44.6Z" class="g1_134"/>
<path d="M567.8,302.7h.4V257.9h-.4v44.8Z" class="g1_134"/>
<path d="M630.9,218.6h.3V174h-.3v44.6Z" class="g1_134"/>
<path d="M652.9,302.7h.3V257.9h-.3v44.8Z" class="g1_134"/>
<path d="M696.8,218.6h.4V174h-.4v44.6Z" class="g1_134"/>
<path d="M696.8,302.7h.4V257.9h-.4v44.8Z" class="g1_134"/>
<path d="M828.9,218.3h.3v-44h-.3v44Z" class="g1_134"/>
<path d="M828.9,302.3h.3V258.4h-.3v43.9Z" class="g1_134"/>
<path d="M105.8,174.3H829.2V174H105.8v.3Z" class="g1_134"/>
<path d="M105.8,218.6H829.2v-.3H105.8v.3Z" class="g1_134"/>
<path d="M105.8,258.4H829.2V258H105.8v.4Z" class="g1_134"/>
<path d="M105.8,302.7H829.2v-.4H105.8v.4Z" class="g1_134"/>
</svg>