<?xml version="1.0" encoding="UTF-8" standalone="no"?>
<!DOCTYPE svg PUBLIC "-//W3C//DTD SVG 1.1//EN"
"http://www.w3.org/Graphics/SVG/1.1/DTD/svg11.dtd">
<svg viewBox="0 0 935 1210" version="1.1" xmlns="http://www.w3.org/2000/svg" xmlns:xlink="http://www.w3.org/1999/xlink">
<defs>
<clipPath id="c0_1730"><path d="M766.6,59.2V41.4h72.1V59.2Z"/></clipPath>
<style type="text/css"><![CDATA[
.g0_1730{
fill: #000;
}
]]></style>
</defs>
<path d="M97.3,62.9v.3H839.9v-.3H97.3Z" class="g0_1730"/>
<path d="M96.2,1114.1h-.1v.4h.1v-.4Z" class="g0_1730"/>
<path d="M838.7,1114.1h.2v.4h-.2v-.4Z" class="g0_1730"/>
<path d="M96.2,1114.1v.4H838.7v-.4H96.2Z" class="g0_1730"/>
<image clip-path="url(#c0_1730)" preserveAspectRatio="none" x="767" y="41" width="72" height="18" xlink:href="img/1.jpg"/>
<path d="M96.6,519.5h-.7V652h.7V519.5Z" class="g0_1730"/>
<path d="M137.9,516.3h-.8v93.6h.8V516.3Z" class="g0_1730"/>
<path d="M179.1,516.3h-.7v93.6h.7V516.3Z" class="g0_1730"/>
<path d="M220.4,516.3h-.8v93.6h.8V516.3Z" class="g0_1730"/>
<path d="M261.6,516.3h-.7v93.6h.7V516.3Z" class="g0_1730"/>
<path d="M302.9,516.3h-.8v93.6h.8V516.3Z" class="g0_1730"/>
<path d="M344.1,516.3h-.7v93.6h.7V516.3Z" class="g0_1730"/>
<path d="M385.4,516.3h-.8v93.6h.8V516.3Z" class="g0_1730"/>
<path d="M467.9,516.3h-.8v93.6h.8V516.3Z" class="g0_1730"/>
<path d="M509.1,516.3h-.7v93.6h.7V516.3Z" class="g0_1730"/>
<path d="M550.4,516.3h-.8v93.6h.8V516.3Z" class="g0_1730"/>
<path d="M591.6,516.3h-.7v93.6h.7V516.3Z" class="g0_1730"/>
<path d="M632.9,516.3h-.8v93.6h.8V516.3Z" class="g0_1730"/>
<path d="M674.1,516.3h-.7v93.6h.7V516.3Z" class="g0_1730"/>
<path d="M715.3,516.3h-.7v93.6h.7V516.3Z" class="g0_1730"/>
<path d="M756.6,516.3h-.7v93.6h.7V516.3Z" class="g0_1730"/>
<path d="M797.8,516.3h-.7v93.6h.7V516.3Z" class="g0_1730"/>
<path d="M839.1,519.5h-.7V652h.7V519.5Z" class="g0_1730"/>
<path d="M95.9,516.4v3.1H839.1v-3.1H95.9Z" class="g0_1730"/>
<path d="M95.9,547v3H839.1v-3H95.9Z" class="g0_1730"/>
<path d="M95.9,578.7v.7H839.1v-.7H95.9Z" class="g0_1730"/>
<path d="M95.9,609.2v.7H839.1v-.7H95.9Z" class="g0_1730"/>
<path d="M95.9,652v.7H839.1V652H95.9Z" class="g0_1730"/>
<path d="M96.6,713.4h-.7V852.1h.7V713.4Z" class="g0_1730"/>
<path d="M246.3,710.4h-.7V852.8h.7V710.4Z" class="g0_1730"/>
<path d="M286.1,710.4h-.7V852.8h.7V710.4Z" class="g0_1730"/>
<path d="M339.5,710.4h-.7V852.8h.7V710.4Z" class="g0_1730"/>
<path d="M411.3,710.4h-.7V852.8h.7V710.4Z" class="g0_1730"/>
<path d="M842.7,713.4h-.8V852.1h.8V713.4Z" class="g0_1730"/>
<path d="M95.9,710.5v3H842.7v-3H95.9Z" class="g0_1730"/>
<path d="M95.9,753.2v3H842.7v-3H95.9Z" class="g0_1730"/>
<path d="M245.6,778.8v.7H842.7v-.7H245.6Z" class="g0_1730"/>
<path d="M245.6,803.3v.7H842.7v-.7H245.6Z" class="g0_1730"/>
<path d="M245.6,827.6v.8H842.7v-.8H245.6Z" class="g0_1730"/>
<path d="M95.9,852.1v.7H842.7v-.7H95.9Z" class="g0_1730"/>
</svg>