<?xml version="1.0" encoding="UTF-8" standalone="no"?>
<!DOCTYPE svg PUBLIC "-//W3C//DTD SVG 1.1//EN"
"http://www.w3.org/Graphics/SVG/1.1/DTD/svg11.dtd">
<svg viewBox="0 0 935 1210" version="1.1" xmlns="http://www.w3.org/2000/svg" xmlns:xlink="http://www.w3.org/1999/xlink">
<defs>
<style type="text/css"><![CDATA[
.g0_521{
fill: #000;
}
]]></style>
</defs>
<path d="M171.5,1085.9h.7V134.8h-.7v951.1Z" class="g0_521"/>
<path d="M281.5,1086.6h.7V134h-.7v952.6Z" class="g0_521"/>
<path d="M762.8,1085.9h.7V134.8h-.7v951.1Z" class="g0_521"/>
<path d="M171.5,134.8h592V134h-592v.8Z" class="g0_521"/>
<path d="M172.2,160.4H762.8v-.7H172.2v.7Z" class="g0_521"/>
<path d="M172.2,164.2H762.8v-.8H172.2v.8Z" class="g0_521"/>
<path d="M171.5,287.6h592v-.8h-592v.8Z" class="g0_521"/>
<path d="M171.5,446.5h592v-.7h-592v.7Z" class="g0_521"/>
<path d="M171.5,538.2h592v-.8h-592v.8Z" class="g0_521"/>
<path d="M171.5,697h592v-.7h-592v.7Z" class="g0_521"/>
<path d="M171.5,738.3h592v-.8h-592v.8Z" class="g0_521"/>
<path d="M171.5,830h592v-.8h-592v.8Z" class="g0_521"/>
<path d="M171.5,888h592v-.8h-592v.8Z" class="g0_521"/>
<path d="M171.5,946.1h592v-.7h-592v.7Z" class="g0_521"/>
<path d="M171.5,1004.1h592v-.7h-592v.7Z" class="g0_521"/>
<path d="M171.5,1045.4h592v-.8h-592v.8Z" class="g0_521"/>
<path d="M171.5,1086.6h592v-.7h-592v.7Z" class="g0_521"/>
</svg>