<?xml version="1.0" encoding="UTF-8" standalone="no"?>
<!DOCTYPE svg PUBLIC "-//W3C//DTD SVG 1.1//EN"
"http://www.w3.org/Graphics/SVG/1.1/DTD/svg11.dtd">
<svg viewBox="0 0 935 1210" version="1.1" xmlns="http://www.w3.org/2000/svg" xmlns:xlink="http://www.w3.org/1999/xlink">
<defs>
<style type="text/css"><![CDATA[
.g0_32{
fill: #000;
}
]]></style>
</defs>
<path d="M82.1,688.7h.8V134.8h-.8V688.7Z" class="g0_32"/>
<path d="M244.8,689.4h.8V134h-.8V689.4Z" class="g0_32"/>
<path d="M652.6,689.4h.7V134h-.7V689.4Z" class="g0_32"/>
<path d="M855.3,688.7h.8V134.8h-.8V688.7Z" class="g0_32"/>
<path d="M82.1,134.8h774V134H82.1v.8Z" class="g0_32"/>
<path d="M82.9,165H855.3v-.7H82.9v.7Z" class="g0_32"/>
<path d="M82.9,168.8H855.3V168H82.9v.8Z" class="g0_32"/>
<path d="M82.1,195.9h774v-.7H82.1v.7Z" class="g0_32"/>
<path d="M82.1,224.9h774v-.7H82.1v.7Z" class="g0_32"/>
<path d="M82.1,254h774v-.7H82.1v.7Z" class="g0_32"/>
<path d="M82.1,283h774v-.8H82.1v.8Z" class="g0_32"/>
<path d="M82.1,312h774v-.7H82.1v.7Z" class="g0_32"/>
<path d="M82.1,341.1h774v-.7H82.1v.7Z" class="g0_32"/>
<path d="M82.1,370.1h774v-.8H82.1v.8Z" class="g0_32"/>
<path d="M82.1,399.1h774v-.7H82.1v.7Z" class="g0_32"/>
<path d="M82.1,428.2h774v-.8H82.1v.8Z" class="g0_32"/>
<path d="M82.1,457.1h774v-.7H82.1v.7Z" class="g0_32"/>
<path d="M82.1,486.2h774v-.7H82.1v.7Z" class="g0_32"/>
<path d="M82.1,515.3h774v-.8H82.1v.8Z" class="g0_32"/>
<path d="M82.1,544.2h774v-.7H82.1v.7Z" class="g0_32"/>
<path d="M82.1,573.3h774v-.8H82.1v.8Z" class="g0_32"/>
<path d="M82.1,602.3h774v-.7H82.1v.7Z" class="g0_32"/>
<path d="M82.1,631.3h774v-.7H82.1v.7Z" class="g0_32"/>
<path d="M82.1,660.4h774v-.8H82.1v.8Z" class="g0_32"/>
<path d="M82.1,689.4h774v-.7H82.1v.7Z" class="g0_32"/>
</svg>