<?xml version="1.0" encoding="UTF-8" standalone="no"?>
<!DOCTYPE svg PUBLIC "-//W3C//DTD SVG 1.1//EN"
"http://www.w3.org/Graphics/SVG/1.1/DTD/svg11.dtd">
<svg viewBox="0 0 935 1210" version="1.1" xmlns="http://www.w3.org/2000/svg" xmlns:xlink="http://www.w3.org/1999/xlink">
<defs>
<style type="text/css"><![CDATA[
.g0_726{
fill: #FFF;
}
.g1_726{
fill: #000;
}
.g2_726{
fill: #E6E6E6;
}
]]></style>
</defs>
<path d="M68.8,1149.3H852.5v-21.2H68.8v21.2Z" class="g0_726"/>
<path d="M120.1,504.4h.7V281.5h-.7V504.4Z" class="g1_726"/>
<path d="M800.3,504.4h.8V281.5h-.8V504.4Z" class="g1_726"/>
<path d="M120.1,281.5h681v-.7h-681v.7Z" class="g1_726"/>
<path d="M120.1,505.2h681v-.8h-681v.8Z" class="g1_726"/>
<path d="M120.6,1024.4h.8V592.3h-.8v432.1Z" class="g1_726"/>
<path d="M799.8,1024.4h.7V592.3h-.7v432.1Z" class="g1_726"/>
<path d="M120.6,592.3H800.5v-.8H120.6v.8Z" class="g1_726"/>
<path d="M120.6,1025.1H800.5v-.7H120.6v.7Z" class="g1_726"/>
<path d="M227.1,369.7H381.6V328.2H227.1v41.5Z" class="g2_726"/>
<path d="M418.9,368.9H625.5V327.3H418.9v41.6Z" class="g2_726"/>
<path d="M341.5,416.1H401v-.5H341.5v.5Z" class="g1_726"/>
<path d="M400.6,415.8h.4V368.5h-.4v47.3Z" class="g1_726"/>
<path d="M339.7,401.8h48.4v-.5H339.7v.5Z" class="g1_726"/>
<path d="M387.7,401.5h.4V368h-.4v33.5Z" class="g1_726"/>
<path d="M315.3,485.7H671v-.4H315.3v.4Z" class="g1_726"/>
<path d="M670.5,485.5h.5V368.6h-.5V485.5Z" class="g1_726"/>
<path d="M315.6,472h342v-.5h-342v.5Z" class="g1_726"/>
<path d="M657.2,471.7h.4V368.6h-.4V471.7Z" class="g1_726"/>
<path d="M340.3,431h72.5v-.4H340.3v.4Z" class="g1_726"/>
<path d="M412.3,430.7h.5V369h-.5v61.7Z" class="g1_726"/>
<path d="M226.2,327.4H677.4v-.7H226.2v.7Z" class="g1_726"/>
<path d="M676.7,369.5h.7V327.1h-.7v42.4Z" class="g1_726"/>
<path d="M225.9,369.5H677.1v-.7H225.9v.7Z" class="g1_726"/>
<path d="M225.9,369.1h.7V326.7h-.7v42.4Z" class="g1_726"/>
<path d="M651.7,327.9h.4v-.2h-.4v.2Z" class="g1_726"/>
<path d="M651.7,369.8h.4V327.9h-.4v41.9Z" class="g1_726"/>
<path d="M665.5,327.9h.5v-.2h-.5v.2Z" class="g1_726"/>
<path d="M665.5,369.8h.5V327.9h-.5v41.9Z" class="g1_726"/>
<path d="M405.9,327.2h.5V327h-.5v.2Z" class="g1_726"/>
<path d="M405.9,369h.5V327.2h-.5V369Z" class="g1_726"/>
<path d="M394.6,327.2h.5V327h-.5v.2Z" class="g1_726"/>
<path d="M394.6,369h.5V327.2h-.5V369Z" class="g1_726"/>
<path d="M382.1,327.2h.4V327h-.4v.2Z" class="g1_726"/>
<path d="M382.1,369h.4V327.2h-.4V369Z" class="g1_726"/>
<path d="M418.7,327h.5v-.2h-.5v.2Z" class="g1_726"/>
<path d="M418.7,368.8h.5V327h-.5v41.8Z" class="g1_726"/>
<path d="M461.4,400.1h25.2v-16H461.4v16Z" class="g2_726"/>
<path d="M461.4,384.4h25.4v-.5H461.4v.5Z" class="g1_726"/>
<path d="M486.4,400.4h.4V384.1h-.4v16.3Z" class="g1_726"/>
<path d="M461.2,400.4h25.4v-.5H461.2v.5Z" class="g1_726"/>
<path d="M461.2,400.1h.4V383.9h-.4v16.2Z" class="g1_726"/>
<path d="M637.9,327.9h.5v-.2h-.5v.2Z" class="g1_726"/>
<path d="M637.9,369.8h.5V327.9h-.5v41.9Z" class="g1_726"/>
<path d="M624.1,327.9h.4v-.2h-.4v.2Z" class="g1_726"/>
<path d="M624.1,369.8h.4V327.9h-.4v41.9Z" class="g1_726"/>
<path d="M314,443.9H632.3v-.4H314v.4Z" class="g1_726"/>
<path d="M631.9,443.7h.4V369h-.4v74.7Z" class="g1_726"/>
<path d="M316.2,458H645.4v-.5H316.2v.5Z" class="g1_726"/>
<path d="M645,457.7h.4V368.3H645v89.4Z" class="g1_726"/>
<path d="M303.3,678.5H444V637H303.3v41.5Z" class="g2_726"/>
<path d="M484.5,677.8h182V636.3h-182v41.5Z" class="g2_726"/>
<path d="M347.1,757.3H463.5v-.5H347.1v.5Z" class="g1_726"/>
<path d="M463,757h.5V677.4H463V757Z" class="g1_726"/>
<path d="M348.2,744H451.4v-.5H348.2v.5Z" class="g1_726"/>
<path d="M450.9,743.7h.5V676.9h-.5v66.8Z" class="g1_726"/>
<path d="M316.4,797.6H710v-.5H316.4v.5Z" class="g1_726"/>
<path d="M709.5,797.3h.5V677.5h-.5V797.3Z" class="g1_726"/>
<path d="M316.9,784.8H696.7v-.5H316.9v.5Z" class="g1_726"/>
<path d="M696.2,784.5h.5v-107h-.5v107Z" class="g1_726"/>
<path d="M344.9,770.3H477v-.5H344.9v.5Z" class="g1_726"/>
<path d="M476.6,770h.4V677.9h-.4V770Z" class="g1_726"/>
<path d="M265.2,636.3H716.4v-.8H265.2v.8Z" class="g1_726"/>
<path d="M715.6,678.4h.8V635.9h-.8v42.5Z" class="g1_726"/>
<path d="M264.8,678.4H716v-.7H264.8v.7Z" class="g1_726"/>
<path d="M264.8,678.1h.8V635.5h-.8v42.6Z" class="g1_726"/>
<path d="M691.7,636.3h.5v-.1h-.5v.1Z" class="g1_726"/>
<path d="M691.7,678.2h.5V636.3h-.5v41.9Z" class="g1_726"/>
<path d="M704.5,636.3h.4v-.1h-.4v.1Z" class="g1_726"/>
<path d="M704.5,678.2h.4V636.3h-.4v41.9Z" class="g1_726"/>
<path d="M444.9,677.9h.5v-42h-.5v42Z" class="g1_726"/>
<path d="M483.2,678.8h.4V636.7h-.4v42.1Z" class="g1_726"/>
<path d="M471,678.8h.4V636.7H471v42.1Z" class="g1_726"/>
<path d="M457.8,677.7h.4V635.6h-.4v42.1Z" class="g1_726"/>
<path d="M277.4,678.2h.4v-42h-.4v42Z" class="g1_726"/>
<path d="M289.7,678.1h.4V636h-.4v42.1Z" class="g1_726"/>
<path d="M250.8,704.6h20.4v-.5H250.8v.5Z" class="g1_726"/>
<path d="M270.7,704.3h.4V677.1h-.4v27.2Z" class="g1_726"/>
<path d="M666,678.4h.5V636.3H666v42.1Z" class="g1_726"/>
<path d="M678.9,678.4h.4V636.3h-.4v42.1Z" class="g1_726"/>
<path d="M604.1,738.9h68.8v-.4H604.1v.4Z" class="g1_726"/>
<path d="M672.5,738.7h.4V678.2h-.4v60.5Z" class="g1_726"/>
<path d="M599.5,752.7h87.2v-.5H599.5v.5Z" class="g1_726"/>
<path d="M686.2,752.4h.5V679h-.5v73.4Z" class="g1_726"/>
<path d="M311.6,895.4H452.3V853.9H311.6v41.5Z" class="g2_726"/>
<path d="M492.8,894.6h182V853h-182v41.6Z" class="g2_726"/>
<path d="M361.2,964.9H471.7v-.5H361.2v.5Z" class="g1_726"/>
<path d="M471.3,964.6h.4V894.2h-.4v70.4Z" class="g1_726"/>
<path d="M364,952.3h95.7v-.4H364v.4Z" class="g1_726"/>
<path d="M459.3,952.1h.4V893.8h-.4v58.3Z" class="g1_726"/>
<path d="M325.7,1006H718.3v-.4H325.7v.4Z" class="g1_726"/>
<path d="M717.8,1005.8h.5V894.3h-.5v111.5Z" class="g1_726"/>
<path d="M328.5,991.7H704.9v-.5H328.5v.5Z" class="g1_726"/>
<path d="M704.5,991.4h.4V894.3h-.4v97.1Z" class="g1_726"/>
<path d="M363,979.5H485.3V979H363v.5Z" class="g1_726"/>
<path d="M484.8,979.2h.5V894.7h-.5v84.5Z" class="g1_726"/>
<path d="M273.5,853.1H724.7v-.7H273.5v.7Z" class="g1_726"/>
<path d="M724,895.2h.7V852.8H724v42.4Z" class="g1_726"/>
<path d="M273.2,895.2H724.3v-.7H273.2v.7Z" class="g1_726"/>
<path d="M273.2,894.9h.7V852.4h-.7v42.5Z" class="g1_726"/>
<path d="M700,895.1h.4V853H700v42.1Z" class="g1_726"/>
<path d="M712.8,895.1h.5V853h-.5v42.1Z" class="g1_726"/>
<path d="M453.2,894.8h.5V852.7h-.5v42.1Z" class="g1_726"/>
<path d="M491.4,895.7h.5V853.6h-.5v42.1Z" class="g1_726"/>
<path d="M479.3,895.7h.5V853.6h-.5v42.1Z" class="g1_726"/>
<path d="M466,894.5h.5v-42H466v42Z" class="g1_726"/>
<path d="M285.7,895h.5V853h-.5v42Z" class="g1_726"/>
<path d="M297.9,894.9h.5v-42h-.5v42Z" class="g1_726"/>
<path d="M274.4,927.5h18.4V927H274.4v.5Z" class="g1_726"/>
<path d="M292.3,927.2h.5V893.3h-.5v33.9Z" class="g1_726"/>
<path d="M674,895.9h.5V853.8H674v42.1Z" class="g1_726"/>
<path d="M686.8,895.9h.4V853.8h-.4v42.1Z" class="g1_726"/>
<path d="M634.7,959h46.9v-.4H634.7v.4Z" class="g1_726"/>
<path d="M681.2,958.7h.4V893.9h-.4v64.8Z" class="g1_726"/>
<path d="M624.9,971.3h68.9v-.5H624.9v.5Z" class="g1_726"/>
<path d="M693.4,971h.4V894.7h-.4V971Z" class="g1_726"/>
<path d="M310.9,894.1h.5V852h-.5v42.1Z" class="g1_726"/>
<path d="M267.5,914.5h13.8V914H267.5v.5Z" class="g1_726"/>
<path d="M280.9,914.2h.4V894h-.4v20.2Z" class="g1_726"/>
<path d="M270.5,940.4H305v-.5H270.5v.5Z" class="g1_726"/>
<path d="M304.5,940.1h.5V893.3h-.5v46.8Z" class="g1_726"/>
<path d="M258.4,716.7h25v-.4h-25v.4Z" class="g1_726"/>
<path d="M283,716.5h.4V678H283v38.5Z" class="g1_726"/>
<path d="M250.8,730.5h44.8V730H250.8v.5Z" class="g1_726"/>
<path d="M295.2,730.2h.4V678h-.4v52.2Z" class="g1_726"/>
<path d="M303.4,637.7h.5v-.2h-.5v.2Z" class="g1_726"/>
<path d="M303.4,679.6h.5V637.7h-.5v41.9Z" class="g1_726"/>
</svg>