<?xml version="1.0" encoding="UTF-8" standalone="no"?>
<!DOCTYPE svg PUBLIC "-//W3C//DTD SVG 1.1//EN"
"http://www.w3.org/Graphics/SVG/1.1/DTD/svg11.dtd">
<svg viewBox="0 0 935 1210" version="1.1" xmlns="http://www.w3.org/2000/svg" xmlns:xlink="http://www.w3.org/1999/xlink">
<defs>
<clipPath id="c0_1833"><path d="M97.3,59.2V41.4h72.1V59.2Z"/></clipPath>
<style type="text/css"><![CDATA[
.g0_1833{
fill: #000;
}
.g1_1833{
fill: #E5E5E5;
}
]]></style>
</defs>
<path d="M96.2,62.9v.3H838.7v-.3H96.2Z" class="g0_1833"/>
<path d="M96.2,1114.1h-.1v.4h.1v-.4Z" class="g0_1833"/>
<path d="M838.7,1114.1h.2v.4h-.2v-.4Z" class="g0_1833"/>
<path d="M96.2,1114.1v.4H838.7v-.4H96.2Z" class="g0_1833"/>
<image clip-path="url(#c0_1833)" preserveAspectRatio="none" x="97" y="41" width="72" height="18" xlink:href="img/1.jpg"/>
<path d="M380.7,305.1h458v24.3h-458V305.1Z" class="g1_1833"/>
<path d="M96.6,179.1h-.7V897.4h.7V179.1Z" class="g0_1833"/>
<path d="M381,178.4h-.7V678.2h.7V178.4Z" class="g0_1833"/>
<path d="M482.3,178.4h-.7v127h.7v-127Z" class="g0_1833"/>
<path d="M482.3,329.1h-.7V678.2h.7V329.1Z" class="g0_1833"/>
<path d="M583.6,178.4h-.7v127h.7v-127Z" class="g0_1833"/>
<path d="M583.6,329.1h-.7V678.2h.7V329.1Z" class="g0_1833"/>
<path d="M711.4,178.4h-.7v127h.7v-127Z" class="g0_1833"/>
<path d="M711.4,329.1h-.7V513.2h.7V329.1Z" class="g0_1833"/>
<path d="M711.4,561.4h-.7V678.2h.7V561.4Z" class="g0_1833"/>
<path d="M839.1,179.1h-.7V897.4h.7V179.1Z" class="g0_1833"/>
<path d="M95.9,178.4v.7H839.1v-.7H95.9Z" class="g0_1833"/>
<path d="M95.9,243.6v.7H839.1v-.7H95.9Z" class="g0_1833"/>
<path d="M380.3,304.7v.7H839.1v-.7H380.3Z" class="g0_1833"/>
<path d="M95.9,329.1v.7H839.1v-.7H95.9Z" class="g0_1833"/>
<path d="M95.9,445.2v.7H839.1v-.7H95.9Z" class="g0_1833"/>
<path d="M95.9,512.4v.7H839.1v-.7H95.9Z" class="g0_1833"/>
<path d="M95.9,561.4v.7H839.1v-.7H95.9Z" class="g0_1833"/>
<path d="M95.9,677.4v.7H839.1v-.7H95.9Z" class="g0_1833"/>
<path d="M95.9,897.5v.7H839.1v-.7H95.9Z" class="g0_1833"/>
</svg>