<?xml version="1.0" encoding="UTF-8" standalone="no"?>
<!DOCTYPE svg PUBLIC "-//W3C//DTD SVG 1.1//EN"
"http://www.w3.org/Graphics/SVG/1.1/DTD/svg11.dtd">
<svg viewBox="0 0 935 1210" version="1.1" xmlns="http://www.w3.org/2000/svg" xmlns:xlink="http://www.w3.org/1999/xlink">
<defs>
<style type="text/css"><![CDATA[
.g0_749{
fill: #FFF;
}
.g1_749{
fill: #000;
}
]]></style>
</defs>
<path d="M68.9,1149.3H755.2v-21.2H68.9v21.2Z" class="g0_749"/>
<path d="M771.3,1149.3H855v-21.2H771.3v21.2Z" class="g0_749"/>
<path d="M69.9,500.8h.8V125.7h-.8V500.8Z" class="g1_749"/>
<path d="M272.7,501.5h.7V124.9h-.7V501.5Z" class="g1_749"/>
<path d="M319,501.5h.7V124.9H319V501.5Z" class="g1_749"/>
<path d="M393.5,501.5h.8V124.9h-.8V501.5Z" class="g1_749"/>
<path d="M477.4,501.5h.7V124.9h-.7V501.5Z" class="g1_749"/>
<path d="M854.4,500.8h.8V125.7h-.8V500.8Z" class="g1_749"/>
<path d="M69.9,125.7H855.2v-.8H69.9v.8Z" class="g1_749"/>
<path d="M69.9,179.1H855.2v-.7H69.9v.7Z" class="g1_749"/>
<path d="M69.9,218.8H855.2v-.7H69.9v.7Z" class="g1_749"/>
<path d="M69.9,275.4H855.2v-.8H69.9v.8Z" class="g1_749"/>
<path d="M69.9,331.9H855.2v-.7H69.9v.7Z" class="g1_749"/>
<path d="M69.9,388.4H855.2v-.7H69.9v.7Z" class="g1_749"/>
<path d="M69.9,444.9H855.2v-.7H69.9v.7Z" class="g1_749"/>
<path d="M69.9,501.5H855.2v-.7H69.9v.7Z" class="g1_749"/>
<path d="M69.9,653.5h.8v-97h-.8v97Z" class="g1_749"/>
<path d="M141.3,654.3h.8V555.8h-.8v98.5Z" class="g1_749"/>
<path d="M224.7,654.3h.7V555.8h-.7v98.5Z" class="g1_749"/>
<path d="M374.6,654.3h.8V555.8h-.8v98.5Z" class="g1_749"/>
<path d="M531.1,654.3h.7V555.8h-.7v98.5Z" class="g1_749"/>
<path d="M690.3,654.3h.8V555.8h-.8v98.5Z" class="g1_749"/>
<path d="M850,653.5h.8v-97H850v97Z" class="g1_749"/>
<path d="M69.9,556.5H850.8v-.7H69.9v.7Z" class="g1_749"/>
<path d="M69.9,581H850.8v-.8H69.9v.8Z" class="g1_749"/>
<path d="M69.9,605.4H850.8v-.8H69.9v.8Z" class="g1_749"/>
<path d="M69.9,629.8H850.8v-.7H69.9v.7Z" class="g1_749"/>
<path d="M69.9,654.3H850.8v-.7H69.9v.7Z" class="g1_749"/>
</svg>