<?xml version="1.0" encoding="UTF-8" standalone="no"?>
<!DOCTYPE svg PUBLIC "-//W3C//DTD SVG 1.1//EN"
"http://www.w3.org/Graphics/SVG/1.1/DTD/svg11.dtd">
<svg viewBox="0 0 825 990" version="1.1" xmlns="http://www.w3.org/2000/svg" xmlns:xlink="http://www.w3.org/1999/xlink">
<defs>
<style type="text/css"><![CDATA[
.g0_763{
fill: #000;
}
]]></style>
</defs>
<path d="M94.9,910.3h.3v-.8h-.3v.8Z" class="g0_763"/>
<path d="M95.2,910.3h650v-.8H95.2v.8Z" class="g0_763"/>
<path d="M106,167.5H744.9v-.8H106v.8Z" class="g0_763"/>
<path d="M106,202.6H744.9v-.8H106v.8Z" class="g0_763"/>
<path d="M106,231.4H744.9v-.2H106v.2Z" class="g0_763"/>
<path d="M106,260.3H744.9v-.1H106v.1Z" class="g0_763"/>
<path d="M106,306.2H744.9V306H106v.2Z" class="g0_763"/>
<path d="M106,352H744.9v-.2H106v.2Z" class="g0_763"/>
<path d="M106,381.1H744.9v-.2H106v.2Z" class="g0_763"/>
<path d="M106,410.1H744.9v-.2H106v.2Z" class="g0_763"/>
<path d="M106,456H744.9v-.2H106v.2Z" class="g0_763"/>
<path d="M106,501.8H744.9v-.2H106v.2Z" class="g0_763"/>
<path d="M106,530.7H744.9v-.1H106v.1Z" class="g0_763"/>
<path d="M106,559.8H744.9v-.2H106v.2Z" class="g0_763"/>
<path d="M106,588.9H744.9v-.2H106v.2Z" class="g0_763"/>
<path d="M106,635H744.9v-.8H106v.8Z" class="g0_763"/>
</svg>