<?xml version="1.0" encoding="UTF-8" standalone="no"?>
<!DOCTYPE svg PUBLIC "-//W3C//DTD SVG 1.1//EN"
"http://www.w3.org/Graphics/SVG/1.1/DTD/svg11.dtd">
<svg viewBox="0 0 935 1210" version="1.1" xmlns="http://www.w3.org/2000/svg" xmlns:xlink="http://www.w3.org/1999/xlink">
<defs>
<style type="text/css"><![CDATA[
.g0_1511{
fill: #FFF;
}
.g1_1511{
fill: #000;
}
]]></style>
</defs>
<path d="M68.9,1149.3H755.2v-21.2H68.9v21.2Z" class="g0_1511"/>
<path d="M771.3,1149.3H855v-21.2H771.3v21.2Z" class="g0_1511"/>
<path d="M70.3,385.5h779V355.9H70.3v29.6Z" class="g0_1511"/>
<path d="M71.2,378.9h53.6V366.5H71.2v12.4Z" class="g0_1511"/>
<path d="M69.9,355.6h.8V125.7h-.8V355.6Z" class="g1_1511"/>
<path d="M388,356.4h.8V124.9H388V356.4Z" class="g1_1511"/>
<path d="M425.9,356.4h.7V124.9h-.7V356.4Z" class="g1_1511"/>
<path d="M499.3,356.4h.7V124.9h-.7V356.4Z" class="g1_1511"/>
<path d="M570.6,356.4h.8V124.9h-.8V356.4Z" class="g1_1511"/>
<path d="M848.9,355.6h.8V125.7h-.8V355.6Z" class="g1_1511"/>
<path d="M69.9,125.7H849.8v-.8H69.9v.8Z" class="g1_1511"/>
<path d="M69.9,179.1H849.8v-.7H69.9v.7Z" class="g1_1511"/>
<path d="M69.9,223.4H849.8v-.7H69.9v.7Z" class="g1_1511"/>
<path d="M69.9,267.8H849.8V267H69.9v.8Z" class="g1_1511"/>
<path d="M69.9,312H849.8v-.7H69.9v.7Z" class="g1_1511"/>
<path d="M69.9,356.3H849.8v-.7H69.9v.7Z" class="g1_1511"/>
<path d="M69.9,567.1h.8V494.5h-.8v72.6Z" class="g1_1511"/>
<path d="M146.2,567.8h.7V493.7h-.7v74.1Z" class="g1_1511"/>
<path d="M319.3,567.8h.7V493.7h-.7v74.1Z" class="g1_1511"/>
<path d="M496.8,567.8h.8V493.7h-.8v74.1Z" class="g1_1511"/>
<path d="M667.8,567.8h.7V493.7h-.7v74.1Z" class="g1_1511"/>
<path d="M848.7,567.1h.8V494.5h-.8v72.6Z" class="g1_1511"/>
<path d="M69.9,494.5H849.5v-.8H69.9v.8Z" class="g1_1511"/>
<path d="M69.9,518.8H849.5v-.7H69.9v.7Z" class="g1_1511"/>
<path d="M69.9,543.3H849.5v-.7H69.9v.7Z" class="g1_1511"/>
<path d="M69.9,567.8H849.5v-.7H69.9v.7Z" class="g1_1511"/>
</svg>