<?xml version="1.0" encoding="UTF-8" standalone="no"?>
<!DOCTYPE svg PUBLIC "-//W3C//DTD SVG 1.1//EN"
"http://www.w3.org/Graphics/SVG/1.1/DTD/svg11.dtd">
<svg viewBox="0 0 935 1210" version="1.1" xmlns="http://www.w3.org/2000/svg" xmlns:xlink="http://www.w3.org/1999/xlink">
<defs>
<style type="text/css"><![CDATA[
.g0_4828{
fill: #FFF;
}
.g1_4828{
fill: #000;
}
]]></style>
</defs>
<path d="M68.8,1149.3H852.5v-21.2H68.8v21.2Z" class="g0_4828"/>
<path d="M68.6,1096.6h.7V142.4h-.7v954.2Z" class="g1_4828"/>
<path d="M125.3,1097.3h.7V183h-.7v914.3Z" class="g1_4828"/>
<path d="M182.1,1097.3h.7V141.7h-.7v955.6Z" class="g1_4828"/>
<path d="M433.9,1097.3h.7V141.7h-.7v955.6Z" class="g1_4828"/>
<path d="M527.3,1097.3h.7V141.7h-.7v955.6Z" class="g1_4828"/>
<path d="M851.7,1096.6h.7V142.4h-.7v954.2Z" class="g1_4828"/>
<path d="M68.6,142.4H852.5v-.7H68.6v.7Z" class="g1_4828"/>
<path d="M68.6,183.7H182.8V183H68.6v.7Z" class="g1_4828"/>
<path d="M68.6,208.2H852.5v-.8H68.6v.8Z" class="g1_4828"/>
<path d="M182.1,232.6H852.5v-.8H182.1v.8Z" class="g1_4828"/>
<path d="M182.1,257H852.5v-.7H182.1v.7Z" class="g1_4828"/>
<path d="M68.6,281.5H852.5v-.7H68.6v.7Z" class="g1_4828"/>
<path d="M182.1,305.9H852.5v-.7H182.1v.7Z" class="g1_4828"/>
<path d="M182.1,330.4H852.5v-.8H182.1v.8Z" class="g1_4828"/>
<path d="M68.6,354.8H852.5v-.7H68.6v.7Z" class="g1_4828"/>
<path d="M182.1,379.2H852.5v-.7H182.1v.7Z" class="g1_4828"/>
<path d="M182.1,437.3H852.5v-.7H182.1v.7Z" class="g1_4828"/>
<path d="M68.6,461.8H852.5v-.7H68.6v.7Z" class="g1_4828"/>
<path d="M68.6,486.2H852.5v-.7H68.6v.7Z" class="g1_4828"/>
<path d="M68.6,510.7H852.5v-.8H68.6v.8Z" class="g1_4828"/>
<path d="M68.6,535.2H852.5v-.8H68.6v.8Z" class="g1_4828"/>
<path d="M68.6,559.5H852.5v-.7H68.6v.7Z" class="g1_4828"/>
<path d="M68.6,584H852.5v-.7H68.6v.7Z" class="g1_4828"/>
<path d="M68.6,608.5H852.5v-.8H68.6v.8Z" class="g1_4828"/>
<path d="M68.6,632.9H852.5v-.8H68.6v.8Z" class="g1_4828"/>
<path d="M68.6,657.3H852.5v-.7H68.6v.7Z" class="g1_4828"/>
<path d="M68.6,681.8H852.5v-.7H68.6v.7Z" class="g1_4828"/>
<path d="M68.6,706.2H852.5v-.7H68.6v.7Z" class="g1_4828"/>
<path d="M68.6,730.7H852.5v-.8H68.6v.8Z" class="g1_4828"/>
<path d="M68.6,755.2H852.5v-.8H68.6v.8Z" class="g1_4828"/>
<path d="M68.6,779.5H852.5v-.7H68.6v.7Z" class="g1_4828"/>
<path d="M68.6,804H852.5v-.7H68.6v.7Z" class="g1_4828"/>
<path d="M68.6,828.5H852.5v-.8H68.6v.8Z" class="g1_4828"/>
<path d="M68.6,852.9H852.5v-.8H68.6v.8Z" class="g1_4828"/>
<path d="M68.6,877.3H852.5v-.7H68.6v.7Z" class="g1_4828"/>
<path d="M68.6,901.8H852.5v-.7H68.6v.7Z" class="g1_4828"/>
<path d="M68.6,926.2H852.5v-.7H68.6v.7Z" class="g1_4828"/>
<path d="M68.6,950.7H852.5v-.8H68.6v.8Z" class="g1_4828"/>
<path d="M182.1,975.2H852.5v-.8H182.1v.8Z" class="g1_4828"/>
<path d="M182.1,999.5H852.5v-.7H182.1v.7Z" class="g1_4828"/>
<path d="M182.1,1024H852.5v-.7H182.1v.7Z" class="g1_4828"/>
<path d="M182.1,1048.5H852.5v-.7H182.1v.7Z" class="g1_4828"/>
<path d="M182.1,1072.9H852.5v-.8H182.1v.8Z" class="g1_4828"/>
<path d="M68.6,1097.3H852.5v-.7H68.6v.7Z" class="g1_4828"/>
</svg>