<?xml version="1.0" encoding="UTF-8" standalone="no"?>
<!DOCTYPE svg PUBLIC "-//W3C//DTD SVG 1.1//EN"
"http://www.w3.org/Graphics/SVG/1.1/DTD/svg11.dtd">
<svg viewBox="0 0 935 1210" version="1.1" xmlns="http://www.w3.org/2000/svg" xmlns:xlink="http://www.w3.org/1999/xlink">
<defs>
<clipPath id="c0_218"><path d="M97.2,59V41.4h72.2V59Z"/></clipPath>
<style type="text/css"><![CDATA[
.g0_218{
fill: #000;
}
]]></style>
</defs>
<path d="M96.1,63.1v.3H838.9v-.3H96.1Z" class="g0_218"/>
<path d="M96.1,1114.3v.3v-.3Z" class="g0_218"/>
<path d="M838.9,1114.3v.3v-.3Z" class="g0_218"/>
<path d="M96.1,1114.3v.3H838.9v-.3H96.1Z" class="g0_218"/>
<image clip-path="url(#c0_218)" preserveAspectRatio="none" x="97" y="41" width="72" height="18" xlink:href="img/1.jpg"/>
<path d="M192.9,579.3h-.8V719h.8V579.3Z" class="g0_218"/>
<path d="M330.4,578.6h-.8V720.1h.8V578.6Z" class="g0_218"/>
<path d="M467.8,578.6h-.7V720.1h.7V578.6Z" class="g0_218"/>
<path d="M605.3,578.6h-.7V720.1h.7V578.6Z" class="g0_218"/>
<path d="M742.8,579.3h-.7V719h.7V579.3Z" class="g0_218"/>
<path d="M192.1,578.6v.7H742.8v-.7H192.1Z" class="g0_218"/>
<path d="M192.1,621.5v.7H742.8v-.7H192.1Z" class="g0_218"/>
<path d="M192.1,645.7v.7H742.8v-.7H192.1Z" class="g0_218"/>
<path d="M192.1,670.2v.8H742.8v-.8H192.1Z" class="g0_218"/>
<path d="M192.1,694.8v.7H742.8v-.7H192.1Z" class="g0_218"/>
<path d="M192.1,719.4v.7H742.8v-.7H192.1Z" class="g0_218"/>
</svg>