<?xml version="1.0" encoding="UTF-8" standalone="no"?>
<!DOCTYPE svg PUBLIC "-//W3C//DTD SVG 1.1//EN"
"http://www.w3.org/Graphics/SVG/1.1/DTD/svg11.dtd">
<svg viewBox="0 0 935 1210" version="1.1" xmlns="http://www.w3.org/2000/svg" xmlns:xlink="http://www.w3.org/1999/xlink">
<defs>
<style type="text/css"><![CDATA[
.g0_2407{
fill: #FFF;
}
.g1_2407{
fill: #000;
}
]]></style>
</defs>
<path d="M68.9,1149.3H755.2v-21.2H68.9v21.2Z" class="g0_2407"/>
<path d="M771.3,1149.3H855v-21.2H771.3v21.2Z" class="g0_2407"/>
<path d="M69.9,676.4h.8V147h-.8V676.4Z" class="g1_2407"/>
<path d="M300.7,677.2h.7V146.3h-.7V677.2Z" class="g1_2407"/>
<path d="M361.6,677.2h.8V146.3h-.8V677.2Z" class="g1_2407"/>
<path d="M435.1,677.2h.7V146.3h-.7V677.2Z" class="g1_2407"/>
<path d="M559.8,677.2h.7V146.3h-.7V677.2Z" class="g1_2407"/>
<path d="M851.1,676.4h.8V147h-.8V676.4Z" class="g1_2407"/>
<path d="M69.9,147h782v-.7H69.9v.7Z" class="g1_2407"/>
<path d="M69.9,200.5h782v-.8H69.9v.8Z" class="g1_2407"/>
<path d="M69.9,240.3h782v-.8H69.9v.8Z" class="g1_2407"/>
<path d="M69.9,279.9h782v-.7H69.9v.7Z" class="g1_2407"/>
<path d="M69.9,319.6h782v-.7H69.9v.7Z" class="g1_2407"/>
<path d="M69.9,359.4h782v-.7H69.9v.7Z" class="g1_2407"/>
<path d="M69.9,399.1h782v-.7H69.9v.7Z" class="g1_2407"/>
<path d="M69.9,438.9h782v-.7H69.9v.7Z" class="g1_2407"/>
<path d="M69.9,478.6h782v-.7H69.9v.7Z" class="g1_2407"/>
<path d="M69.9,518.3h782v-.7H69.9v.7Z" class="g1_2407"/>
<path d="M69.9,558.1h782v-.8H69.9v.8Z" class="g1_2407"/>
<path d="M69.9,597.8h782V597H69.9v.8Z" class="g1_2407"/>
<path d="M69.9,637.4h782v-.7H69.9v.7Z" class="g1_2407"/>
<path d="M69.9,677.2h782v-.7H69.9v.7Z" class="g1_2407"/>
<path d="M69.9,804.8h.8V732.2h-.8v72.6Z" class="g1_2407"/>
<path d="M130.9,805.6h.7V731.4h-.7v74.2Z" class="g1_2407"/>
<path d="M229.8,805.6h.7V731.4h-.7v74.2Z" class="g1_2407"/>
<path d="M372.4,805.6h.7V731.4h-.7v74.2Z" class="g1_2407"/>
<path d="M536.2,805.6h.7V731.4h-.7v74.2Z" class="g1_2407"/>
<path d="M691.4,805.6h.8V731.4h-.8v74.2Z" class="g1_2407"/>
<path d="M848.4,804.8h.7V732.2h-.7v72.6Z" class="g1_2407"/>
<path d="M69.9,732.2H849.2v-.7H69.9v.7Z" class="g1_2407"/>
<path d="M69.9,756.6H849.2v-.7H69.9v.7Z" class="g1_2407"/>
<path d="M69.9,781.1H849.2v-.7H69.9v.7Z" class="g1_2407"/>
<path d="M69.9,805.6H849.2v-.8H69.9v.8Z" class="g1_2407"/>
</svg>