<?xml version="1.0" encoding="UTF-8" standalone="no"?>
<!DOCTYPE svg PUBLIC "-//W3C//DTD SVG 1.1//EN"
"http://www.w3.org/Graphics/SVG/1.1/DTD/svg11.dtd">
<svg viewBox="0 0 825 990" version="1.1" xmlns="http://www.w3.org/2000/svg" xmlns:xlink="http://www.w3.org/1999/xlink">
<defs>
<style type="text/css"><![CDATA[
.g0_1111{
fill: #000;
}
]]></style>
</defs>
<path d="M94.9,910.3h.3v-.8h-.3v.8Z" class="g0_1111"/>
<path d="M95.2,910.3h650v-.8H95.2v.8Z" class="g0_1111"/>
<path d="M94.2,179.7H744.9v-.8H94.2v.8Z" class="g0_1111"/>
<path d="M94.2,231.6H744.9v-.7H94.2v.7Z" class="g0_1111"/>
<path d="M94.2,260.3H744.9v-.1H94.2v.1Z" class="g0_1111"/>
<path d="M94.2,289.4H744.9v-.2H94.2v.2Z" class="g0_1111"/>
<path d="M94.2,318.5H744.9v-.2H94.2v.2Z" class="g0_1111"/>
<path d="M94.2,347.4H744.9v-.2H94.2v.2Z" class="g0_1111"/>
<path d="M94.2,376.5H744.9v-.2H94.2v.2Z" class="g0_1111"/>
<path d="M94.2,405.5H744.9v-.1H94.2v.1Z" class="g0_1111"/>
<path d="M94.2,434.5H744.9v-.2H94.2v.2Z" class="g0_1111"/>
<path d="M94.2,464.8H744.9v-.2H94.2v.2Z" class="g0_1111"/>
<path d="M94.2,494H744.9v-.7H94.2v.7Z" class="g0_1111"/>
</svg>