<?xml version="1.0" encoding="UTF-8" standalone="no"?>
<!DOCTYPE svg PUBLIC "-//W3C//DTD SVG 1.1//EN"
"http://www.w3.org/Graphics/SVG/1.1/DTD/svg11.dtd">
<svg viewBox="0 0 935 1210" version="1.1" xmlns="http://www.w3.org/2000/svg" xmlns:xlink="http://www.w3.org/1999/xlink">
<defs>
<style type="text/css"><![CDATA[
.g0_2319{
fill: #FFF;
}
.g1_2319{
fill: #000;
}
]]></style>
</defs>
<path d="M68.9,1149.3H755.2v-21.2H68.9v21.2Z" class="g0_2319"/>
<path d="M771.3,1149.3H855v-21.2H771.3v21.2Z" class="g0_2319"/>
<path d="M69.9,270.1h.8v-146h-.8v146Z" class="g1_2319"/>
<path d="M269.2,270.8h.8V123.4h-.8V270.8Z" class="g1_2319"/>
<path d="M597.5,270.8h.7V123.4h-.7V270.8Z" class="g1_2319"/>
<path d="M849.8,270.1h.7v-146h-.7v146Z" class="g1_2319"/>
<path d="M69.9,124.1H850.5v-.7H69.9v.7Z" class="g1_2319"/>
<path d="M69.9,148.6H850.5v-.7H69.9v.7Z" class="g1_2319"/>
<path d="M69.9,173H850.5v-.8H69.9v.8Z" class="g1_2319"/>
<path d="M69.9,197.4H850.5v-.7H69.9v.7Z" class="g1_2319"/>
<path d="M69.9,221.9H850.5v-.7H69.9v.7Z" class="g1_2319"/>
<path d="M69.9,246.3H850.5v-.7H69.9v.7Z" class="g1_2319"/>
<path d="M69.9,270.8H850.5v-.7H69.9v.7Z" class="g1_2319"/>
</svg>