<?xml version="1.0" encoding="UTF-8" standalone="no"?>
<!DOCTYPE svg PUBLIC "-//W3C//DTD SVG 1.1//EN"
"http://www.w3.org/Graphics/SVG/1.1/DTD/svg11.dtd">
<svg viewBox="0 0 935 1210" version="1.1" xmlns="http://www.w3.org/2000/svg" xmlns:xlink="http://www.w3.org/1999/xlink">
<defs>
<style type="text/css"><![CDATA[
.g0_1034{
fill: #FFF;
}
.g1_1034{
fill: #000;
}
]]></style>
</defs>
<path d="M165,1149.3H852.5v-21.2H165v21.2Z" class="g0_1034"/>
<path d="M68.8,1149.3h82.5v-21.2H68.8v21.2Z" class="g0_1034"/>
<path d="M68.9,717.1H856V687.5H68.9v29.6Z" class="g0_1034"/>
<path d="M69.9,710.4h53.5V698H69.9v12.4Z" class="g0_1034"/>
<path d="M68.6,687.1h.7V125.7h-.7V687.1Z" class="g1_1034"/>
<path d="M372.9,687.9h.7v-563h-.7v563Z" class="g1_1034"/>
<path d="M424.5,687.9h.7v-563h-.7v563Z" class="g1_1034"/>
<path d="M497.9,687.9h.8v-563h-.8v563Z" class="g1_1034"/>
<path d="M578.5,687.9h.7v-563h-.7v563Z" class="g1_1034"/>
<path d="M855.6,687.1h.8V125.7h-.8V687.1Z" class="g1_1034"/>
<path d="M68.6,125.7H856.4v-.8H68.6v.8Z" class="g1_1034"/>
<path d="M68.6,179.1H856.4v-.7H68.6v.7Z" class="g1_1034"/>
<path d="M68.6,235.7H856.4v-.8H68.6v.8Z" class="g1_1034"/>
<path d="M68.6,292.1H856.4v-.7H68.6v.7Z" class="g1_1034"/>
<path d="M68.6,348.7H856.4V348H68.6v.7Z" class="g1_1034"/>
<path d="M68.6,405.3H856.4v-.8H68.6v.8Z" class="g1_1034"/>
<path d="M68.6,461.8H856.4v-.7H68.6v.7Z" class="g1_1034"/>
<path d="M68.6,518.3H856.4v-.7H68.6v.7Z" class="g1_1034"/>
<path d="M68.6,574.8H856.4v-.7H68.6v.7Z" class="g1_1034"/>
<path d="M68.6,631.4H856.4v-.7H68.6v.7Z" class="g1_1034"/>
<path d="M68.6,687.9H856.4v-.8H68.6v.8Z" class="g1_1034"/>
<path d="M68.6,909.2h.7V812.3h-.7v96.9Z" class="g1_1034"/>
<path d="M143.1,910h.7V811.4h-.7V910Z" class="g1_1034"/>
<path d="M244.3,910h.7V811.4h-.7V910Z" class="g1_1034"/>
<path d="M390,910h.8V811.4H390V910Z" class="g1_1034"/>
<path d="M548.7,910h.8V811.4h-.8V910Z" class="g1_1034"/>
<path d="M704.1,910h.7V811.4h-.7V910Z" class="g1_1034"/>
<path d="M847.2,909.2h.7V812.3h-.7v96.9Z" class="g1_1034"/>
<path d="M68.6,812.3H847.9v-.8H68.6v.8Z" class="g1_1034"/>
<path d="M68.6,836.6H847.9v-.7H68.6v.7Z" class="g1_1034"/>
<path d="M68.6,861.1H847.9v-.7H68.6v.7Z" class="g1_1034"/>
<path d="M68.6,885.6H847.9v-.7H68.6v.7Z" class="g1_1034"/>
<path d="M68.6,910H847.9v-.8H68.6v.8Z" class="g1_1034"/>
</svg>