<?xml version="1.0" encoding="UTF-8" standalone="no"?>
<!DOCTYPE svg PUBLIC "-//W3C//DTD SVG 1.1//EN"
"http://www.w3.org/Graphics/SVG/1.1/DTD/svg11.dtd">
<svg viewBox="0 0 935 1210" version="1.1" xmlns="http://www.w3.org/2000/svg" xmlns:xlink="http://www.w3.org/1999/xlink">
<defs>
<style type="text/css"><![CDATA[
.g0_312{
fill: #FFF;
}
.g1_312{
fill: #000;
}
]]></style>
</defs>
<path d="M68.8,1149.3H852.5v-21.2H68.8v21.2Z" class="g0_312"/>
<path d="M69.6,857.5h.7V719.2h-.7V857.5Z" class="g1_312"/>
<path d="M167.9,858.3h.8V718.5h-.8V858.3Z" class="g1_312"/>
<path d="M214.4,784.9h.7V718.5h-.7v66.4Z" class="g1_312"/>
<path d="M214.4,858.3h.7V833.1h-.7v25.2Z" class="g1_312"/>
<path d="M260.9,784.9h.7V718.5h-.7v66.4Z" class="g1_312"/>
<path d="M260.9,858.3h.7V833.1h-.7v25.2Z" class="g1_312"/>
<path d="M306.1,784.9h.7V718.5h-.7v66.4Z" class="g1_312"/>
<path d="M306.1,858.3h.7V833.1h-.7v25.2Z" class="g1_312"/>
<path d="M352.5,858.3h.8V718.5h-.8V858.3Z" class="g1_312"/>
<path d="M394.1,784.9h.7V718.5h-.7v66.4Z" class="g1_312"/>
<path d="M394.1,858.3h.7V833.1h-.7v25.2Z" class="g1_312"/>
<path d="M435.6,784.9h.7V718.5h-.7v66.4Z" class="g1_312"/>
<path d="M435.6,858.3h.7V833.1h-.7v25.2Z" class="g1_312"/>
<path d="M477.1,784.9h.8V718.5h-.8v66.4Z" class="g1_312"/>
<path d="M477.1,858.3h.8V833.1h-.8v25.2Z" class="g1_312"/>
<path d="M518.7,858.3h.7V718.5h-.7V858.3Z" class="g1_312"/>
<path d="M560.2,784.9h.7V718.5h-.7v66.4Z" class="g1_312"/>
<path d="M560.2,858.3h.7V833.1h-.7v25.2Z" class="g1_312"/>
<path d="M601.7,784.9h.7V718.5h-.7v66.4Z" class="g1_312"/>
<path d="M601.7,858.3h.7V833.1h-.7v25.2Z" class="g1_312"/>
<path d="M643.2,784.9h.8V718.5h-.8v66.4Z" class="g1_312"/>
<path d="M643.2,858.3h.8V833.1h-.8v25.2Z" class="g1_312"/>
<path d="M684.8,858.3h.7V718.5h-.7V858.3Z" class="g1_312"/>
<path d="M726.3,784.9h.7V718.5h-.7v66.4Z" class="g1_312"/>
<path d="M726.3,858.3h.7V833.1h-.7v25.2Z" class="g1_312"/>
<path d="M767.8,784.9h.7V718.5h-.7v66.4Z" class="g1_312"/>
<path d="M767.8,858.3h.7V833.1h-.7v25.2Z" class="g1_312"/>
<path d="M809.3,784.9h.8V718.5h-.8v66.4Z" class="g1_312"/>
<path d="M809.3,858.3h.8V833.1h-.8v25.2Z" class="g1_312"/>
<path d="M850.8,857.5h.8V719.2h-.8V857.5Z" class="g1_312"/>
<path d="M69.6,719.2h782v-.7H69.6v.7Z" class="g1_312"/>
<path d="M69.6,743.7h782V743H69.6v.7Z" class="g1_312"/>
<path d="M167.9,784.9H851.6v-.7H167.9v.7Z" class="g1_312"/>
<path d="M69.6,809.3h782v-.7H69.6v.7Z" class="g1_312"/>
<path d="M69.6,833.8h782v-.7H69.6v.7Z" class="g1_312"/>
<path d="M69.6,858.3h782v-.8H69.6v.8Z" class="g1_312"/>
<path d="M69.6,1010.3h.7v-97h-.7v97Z" class="g1_312"/>
<path d="M167.2,1011.1h.7V912.5h-.7v98.6Z" class="g1_312"/>
<path d="M264.9,1011.1h.7V912.5h-.7v98.6Z" class="g1_312"/>
<path d="M362.5,1011.1h.8V912.5h-.8v98.6Z" class="g1_312"/>
<path d="M458.2,1011.1h4.6V912.5h-4.6v98.6Z" class="g1_312"/>
<path d="M557.9,1011.1h.7V912.5h-.7v98.6Z" class="g1_312"/>
<path d="M655.5,1011.1h.7V912.5h-.7v98.6Z" class="g1_312"/>
<path d="M753.1,1011.1h.8V912.5h-.8v98.6Z" class="g1_312"/>
<path d="M850.8,1010.3h.8v-97h-.8v97Z" class="g1_312"/>
<path d="M69.6,913.3h782v-.8H69.6v.8Z" class="g1_312"/>
<path d="M69.6,937.7h782v-.8H69.6v.8Z" class="g1_312"/>
<path d="M69.6,962.1h782v-.7H69.6v.7Z" class="g1_312"/>
<path d="M69.6,986.6h782v-.7H69.6v.7Z" class="g1_312"/>
<path d="M69.6,1011h782v-.7H69.6v.7Z" class="g1_312"/>
</svg>