<?xml version="1.0" encoding="UTF-8" standalone="no"?>
<!DOCTYPE svg PUBLIC "-//W3C//DTD SVG 1.1//EN"
"http://www.w3.org/Graphics/SVG/1.1/DTD/svg11.dtd">
<svg viewBox="0 0 935 1210" version="1.1" xmlns="http://www.w3.org/2000/svg" xmlns:xlink="http://www.w3.org/1999/xlink">
<defs>
<style type="text/css"><![CDATA[
.g0_673{
fill: #FFF;
}
.g1_673{
fill: #000;
}
]]></style>
</defs>
<path d="M68.9,1149.3H755.2v-21.2H68.9v21.2Z" class="g0_673"/>
<path d="M771.3,1149.3H855v-21.2H771.3v21.2Z" class="g0_673"/>
<path d="M69.9,340.4h.8V125.7h-.8V340.4Z" class="g1_673"/>
<path d="M256.7,341.1h.7V124.9h-.7V341.1Z" class="g1_673"/>
<path d="M322,341.1h.8V124.9H322V341.1Z" class="g1_673"/>
<path d="M396.5,341.1h.7V124.9h-.7V341.1Z" class="g1_673"/>
<path d="M486.5,341.1h.7V124.9h-.7V341.1Z" class="g1_673"/>
<path d="M852.6,340.4h.7V125.7h-.7V340.4Z" class="g1_673"/>
<path d="M69.9,125.7H853.3v-.8H69.9v.8Z" class="g1_673"/>
<path d="M69.9,182.1H853.3v-.7H69.9v.7Z" class="g1_673"/>
<path d="M69.9,221.9H853.3v-.7H69.9v.7Z" class="g1_673"/>
<path d="M69.9,261.6H853.3v-.7H69.9v.7Z" class="g1_673"/>
<path d="M69.9,301.3H853.3v-.7H69.9v.7Z" class="g1_673"/>
<path d="M69.9,341.1H853.3v-.7H69.9v.7Z" class="g1_673"/>
<path d="M69.9,444.2h.8V396.1h-.8v48.1Z" class="g1_673"/>
<path d="M159.6,444.9h.7V395.4h-.7v49.5Z" class="g1_673"/>
<path d="M375.7,444.9h.8V395.4h-.8v49.5Z" class="g1_673"/>
<path d="M597.1,444.9h.8V395.4h-.8v49.5Z" class="g1_673"/>
<path d="M850.3,444.2h.7V396.1h-.7v48.1Z" class="g1_673"/>
<path d="M69.9,396.1H851v-.7H69.9v.7Z" class="g1_673"/>
<path d="M69.9,420.6H851v-.8H69.9v.8Z" class="g1_673"/>
<path d="M69.9,444.9H851v-.7H69.9v.7Z" class="g1_673"/>
</svg>