<?xml version="1.0" encoding="UTF-8" standalone="no"?>
<!DOCTYPE svg PUBLIC "-//W3C//DTD SVG 1.1//EN"
"http://www.w3.org/Graphics/SVG/1.1/DTD/svg11.dtd">
<svg viewBox="0 0 935 1210" version="1.1" xmlns="http://www.w3.org/2000/svg" xmlns:xlink="http://www.w3.org/1999/xlink">
<defs>
<style type="text/css"><![CDATA[
.g0_4676{
fill: #FFF;
}
.g1_4676{
fill: #000;
}
]]></style>
</defs>
<path d="M68.8,1149.3H852.5v-21.2H68.8v21.2Z" class="g0_4676"/>
<path d="M68.6,1052.3h.7V124.1h-.7v928.2Z" class="g1_4676"/>
<path d="M125.3,1053.1h.7V164.6h-.7v888.5Z" class="g1_4676"/>
<path d="M182.1,1053.1h.7V123.4h-.7v929.7Z" class="g1_4676"/>
<path d="M425.7,1053.1h.7V123.4h-.7v929.7Z" class="g1_4676"/>
<path d="M518.8,1053.1h.8V123.4h-.8v929.7Z" class="g1_4676"/>
<path d="M853,1052.3h.8V124.1H853v928.2Z" class="g1_4676"/>
<path d="M68.6,124.1H853.8v-.7H68.6v.7Z" class="g1_4676"/>
<path d="M68.6,165.4H182.8v-.8H68.6v.8Z" class="g1_4676"/>
<path d="M68.6,189.8H853.8v-.7H68.6v.7Z" class="g1_4676"/>
<path d="M68.6,214.2H853.8v-.7H68.6v.7Z" class="g1_4676"/>
<path d="M68.6,238.7H853.8V238H68.6v.7Z" class="g1_4676"/>
<path d="M68.6,373.2H853.8v-.8H68.6v.8Z" class="g1_4676"/>
<path d="M68.6,397.7H853.8v-.8H68.6v.8Z" class="g1_4676"/>
<path d="M68.6,422H853.8v-.7H68.6v.7Z" class="g1_4676"/>
<path d="M68.6,446.5H853.8v-.7H68.6v.7Z" class="g1_4676"/>
<path d="M68.6,471H853.8v-.8H68.6v.8Z" class="g1_4676"/>
<path d="M68.6,495.4H853.8v-.8H68.6v.8Z" class="g1_4676"/>
<path d="M68.6,519.8H853.8v-.7H68.6v.7Z" class="g1_4676"/>
<path d="M68.6,561.1H853.8v-.7H68.6v.7Z" class="g1_4676"/>
<path d="M68.6,585.6H853.8v-.8H68.6v.8Z" class="g1_4676"/>
<path d="M68.6,609.9H853.8v-.7H68.6v.7Z" class="g1_4676"/>
<path d="M68.6,634.4H853.8v-.7H68.6v.7Z" class="g1_4676"/>
<path d="M68.6,675.7H853.8v-.8H68.6v.8Z" class="g1_4676"/>
<path d="M68.6,700.2H853.8v-.8H68.6v.8Z" class="g1_4676"/>
<path d="M68.6,724.5H853.8v-.7H68.6v.7Z" class="g1_4676"/>
<path d="M68.6,749H853.8v-.7H68.6v.7Z" class="g1_4676"/>
<path d="M68.6,790.3H853.8v-.8H68.6v.8Z" class="g1_4676"/>
<path d="M68.6,814.7H853.8V814H68.6v.7Z" class="g1_4676"/>
<path d="M68.6,839.1H853.8v-.7H68.6v.7Z" class="g1_4676"/>
<path d="M68.6,906.4H853.8v-.7H68.6v.7Z" class="g1_4676"/>
<path d="M68.6,990.4H853.8v-.8H68.6v.8Z" class="g1_4676"/>
<path d="M68.6,1053.1H853.8v-.8H68.6v.8Z" class="g1_4676"/>
</svg>