<?xml version="1.0" encoding="UTF-8" standalone="no"?>
<!DOCTYPE svg PUBLIC "-//W3C//DTD SVG 1.1//EN"
"http://www.w3.org/Graphics/SVG/1.1/DTD/svg11.dtd">
<svg viewBox="0 0 935 1210" version="1.1" xmlns="http://www.w3.org/2000/svg" xmlns:xlink="http://www.w3.org/1999/xlink">
<defs>
<style type="text/css"><![CDATA[
.g0_25{
fill: none;
stroke: #000;
stroke-width: 0.608;
stroke-miterlimit: 10;
}
]]></style>
</defs>
<path d="M131.6,237.1H803.4m-671.5,21V237.4m77.7,20.7V237.4m82.6,20.7V237.4m141.3,20.7V237.4m369.6,20.7V237.4M131.6,258.5H803.4m-671.5,21V258.8m671.2,20.7V258.8m-671.5,21H803.4m-671.5,21V280.1m77.7,20.7V280.1m82.6,20.7V280.1m141.3,20.7V280.1m369.6,20.7V280.1M131.9,321.5V300.8m77.7,20.7V300.8m82.6,20.7V300.8m141.3,20.7V300.8m369.6,20.7V300.8M131.9,342.2V321.5m77.7,20.7V321.5m82.6,20.7V321.5m141.3,20.7V321.5m369.6,20.7V321.5M131.9,362.9V342.2m77.7,20.7V342.2m82.6,20.7V342.2m141.3,20.7V342.2m369.6,20.7V342.2M131.9,392.1V362.9m77.7,29.2V362.9m82.6,29.2V362.9m141.3,29.2V362.9m369.6,29.2V362.9M131.9,412.8V392.1m77.7,20.7V392.1m82.6,20.7V392.1m141.3,20.7V392.1m369.6,20.7V392.1M131.9,433.5V412.8m77.7,20.7V412.8m82.6,20.7V412.8m141.3,20.7V412.8m369.6,20.7V412.8M131.9,454.2V433.5m77.7,20.7V433.5m82.6,20.7V433.5m141.3,20.7V433.5m369.6,20.7V433.5M131.9,474.9V454.2m77.7,20.7V454.2m82.6,20.7V454.2m141.3,20.7V454.2m369.6,20.7V454.2M131.9,495.6V474.9m77.7,20.7V474.9m82.6,20.7V474.9m141.3,20.7V474.9m369.6,20.7V474.9m-671.2,50V495.6m77.7,29.3V495.6m82.6,29.3V495.6m141.3,29.3V495.6m369.6,29.3V495.6m-671.2,50V524.9m77.7,20.7V524.9m82.6,20.7V524.9m141.3,20.7V524.9m369.6,20.7V524.9m-671.5,21H803.4m-671.5,21V546.2m671.2,20.7V546.2m-671.5,21H803.4m-671.5,21V567.5m77.7,20.7V567.5m82.6,20.7V567.5m141.3,20.7V567.5m369.6,20.7V567.5M131.9,608.9V588.2m77.7,20.7V588.2m82.6,20.7V588.2m141.3,20.7V588.2m369.6,20.7V588.2M131.9,629.6V608.9m77.7,20.7V608.9m82.6,20.7V608.9m141.3,20.7V608.9m369.6,20.7V608.9m-671.2,50V629.6m77.7,29.3V629.6m82.6,29.3V629.6m141.3,29.3V629.6m369.6,29.3V629.6m-671.2,50V658.9m77.7,20.7V658.9m82.6,20.7V658.9m141.3,20.7V658.9m369.6,20.7V658.9m-671.5,21H803.4m-671.5,21V680.2m671.2,20.7V680.2m-671.5,21H803.4m-671.5,21V701.5m77.7,20.7V701.5m82.6,20.7V701.5m141.3,20.7V701.5m369.6,20.7V701.5M131.9,742.9V722.2m77.7,20.7V722.2m82.6,20.7V722.2m141.3,20.7V722.2m369.6,20.7V722.2M131.9,763.6V742.9m77.7,20.7V742.9m82.6,20.7V742.9m141.3,20.7V742.9m369.6,20.7V742.9M131.9,784.3V763.6m77.7,20.7V763.6m82.6,20.7V763.6m141.3,20.7V763.6m369.6,20.7V763.6M131.9,805V784.3M209.6,805V784.3M292.2,805V784.3M433.5,805V784.3M803.1,805V784.3m-671.5,21H803.4m-671.5,21V805.6m671.2,20.7V805.6M131.6,826.7H803.4m-671.5,21V827m77.7,20.7V827m82.6,20.7V827m141.3,20.7V827m369.6,20.7V827M131.9,868.4V847.7m77.7,20.7V847.7m82.6,20.7V847.7m141.3,20.7V847.7m369.6,20.7V847.7M131.9,889.1V868.4m77.7,20.7V868.4m82.6,20.7V868.4m141.3,20.7V868.4m369.6,20.7V868.4M131.9,909.8V889.1m77.7,20.7V889.1m82.6,20.7V889.1m141.3,20.7V889.1m369.6,20.7V889.1m-671.5,21H803.4" class="g0_25"/>
</svg>