<?xml version="1.0" encoding="UTF-8" standalone="no"?>
<!DOCTYPE svg PUBLIC "-//W3C//DTD SVG 1.1//EN"
"http://www.w3.org/Graphics/SVG/1.1/DTD/svg11.dtd">
<svg viewBox="0 0 935 1210" version="1.1" xmlns="http://www.w3.org/2000/svg" xmlns:xlink="http://www.w3.org/1999/xlink">
<defs>
<style type="text/css"><![CDATA[
.g0_3303{
fill: #FFF;
}
.g1_3303{
fill: #000;
}
]]></style>
</defs>
<path d="M68.9,1149.3H852.7v-21.2H68.9v21.2Z" class="g0_3303"/>
<path d="M171.3,963.3h.8V506.1h-.8V963.3Z" class="g1_3303"/>
<path d="M750.7,963.3h.7V506.1h-.7V963.3Z" class="g1_3303"/>
<path d="M171.3,506.1H751.4v-.7H171.3v.7Z" class="g1_3303"/>
<path d="M171.3,964.1H751.4v-.8H171.3v.8Z" class="g1_3303"/>
<path d="M383.8,771.1H521.7v-.7H383.8v.7Z" class="g1_3303"/>
<path d="M520.9,933.2h.8V770.7h-.8V933.2Z" class="g1_3303"/>
<path d="M383.4,933.2H521.3v-.8H383.4v.8Z" class="g1_3303"/>
<path d="M383.4,932.8h.8V770.4h-.8V932.8Z" class="g1_3303"/>
<path d="M408.2,787.1h59.6v-.7H408.2v.7Z" class="g1_3303"/>
<path d="M467,821.5h.8V786.8H467v34.7Z" class="g1_3303"/>
<path d="M407.8,821.5h59.6v-.7H407.8v.7Z" class="g1_3303"/>
<path d="M407.8,821.2h.8V786.4h-.8v34.8Z" class="g1_3303"/>
<path d="M438.5,759.6h.5V758h-.5v1.6Z" class="g1_3303"/>
<path d="M439,758.7l-2.4,.9l-1.5,.6l.5,-1.6l2.4,-8.2l.7,-2.6l.7,2.6l2.4,8.2l.5,1.6l-1.5,-.6l-.4,-.5L438,750.8l1.4,-.4v.4l-2.3,8.3l-1.5,-.5l.5,-.4l2.3,-.9Z" class="g1_3303"/>
<path d="M440.8,759.6l-2.4,-.9v-1.4l.3,-.1l.3,.1l2.4,.9Z" class="g1_3303"/>
<path fill-rule="evenodd" d="M438.7,758l-2.4,.9l2.4,-8.2l2.4,8.2Z" class="g1_3303"/>
<path d="M438.5,759.6h.5v-.1h-.5v.1Z" class="g1_3303"/>
<path d="M438.5,788h.5V759.6h-.5V788Z" class="g1_3303"/>
<path d="M501.1,893.9h2.1v-.4h-2.1v.4Z" class="g1_3303"/>
<path d="M501.8,893.4l1.4,2.4l1,1.6l-2,-.5L494,894.5l-2.6,-.7L494,893l8.2,-2.4l1.9,-.5l-.9,1.6l-.5,.4l-8.2,2.4L494,893h.5l8.2,2.4l-.5,1.5l-.4,-.4l-1.4,-2.4Z" class="g1_3303"/>
<path d="M503.2,891.7l-1.4,2.4h-1.4l-.2,-.3l.2,-.4l1.4,-2.4Z" class="g1_3303"/>
<path fill-rule="evenodd" d="M501.1,893.8l1.4,2.3l-8.2,-2.3l8.2,-2.4Z" class="g1_3303"/>
<path d="M503.1,894h.1v-.4h-.1v.4Z" class="g1_3303"/>
<path d="M503.2,894h29v-.4h-29v.4Z" class="g1_3303"/>
<path d="M501,906.1h2.2v-.4H501v.4Z" class="g1_3303"/>
<path d="M501.7,905.6l1.4,2.4l1,1.6l-2,-.5L494,906.7l-2.6,-.8l2.6,-.7l8.1,-2.3l2,-.5l-1,1.6l-.5,.4l-8.1,2.3l-.5,-1.5h.5l8.1,2.4l-.5,1.5l-.4,-.4l-1.4,-2.4Z" class="g1_3303"/>
<path d="M503.1,904l-1.4,2.3h-1.4l-.3,-.4l.3,-.4l1.4,-2.3Z" class="g1_3303"/>
<path fill-rule="evenodd" d="M501,905.9l1.4,2.4l-8.1,-2.4l8.1,-2.2Z" class="g1_3303"/>
<path d="M503,906.2h.2v-.4H503v.4Z" class="g1_3303"/>
<path d="M503.2,906.2h29v-.4h-29v.4Z" class="g1_3303"/>
<path d="M296.3,747.4h2.3v-1.5h-2.3v1.5Z" class="g1_3303"/>
<path d="M297,746.4l1.6,4.3l.6,1.4l-1.7,-.4l-14.8,-4.3l-2.6,-.7l2.6,-.7l14.8,-4.2l1.6,-.5l-.5,1.5l-.6,.4l-14.8,4.2l-.5,-1.4h.5l14.8,4.2l-.5,1.5l-.4,-.5L295.5,747Z" class="g1_3303"/>
<path d="M298.6,742.8L297,747h-1.5l-.1,-.3l.1,-.3l1.6,-4.2Z" class="g1_3303"/>
<path fill-rule="evenodd" d="M296.3,746.7l1.5,4.2L283,746.7l14.8,-4.2Z" class="g1_3303"/>
<path d="M621.8,747.5h2.3V746h-2.3v1.5Z" class="g1_3303"/>
<path d="M623.3,747l-1.5,-4.2l-.7,-1.5l1.7,.5l14.8,4.2l2.6,.7l-2.6,.7l-14.8,4.3l-1.6,.4l.6,-1.4l.5,-.5L637.2,746l.4,1.4h-.4l-14.9,-4.2l.5,-1.4l.4,.4l1.6,4.2Z" class="g1_3303"/>
<path d="M621.8,750.7l1.5,-4.3h1.5l.1,.3l-.1,.3l-1.6,4.2Z" class="g1_3303"/>
<path fill-rule="evenodd" d="M624.1,746.7l-1.6,-4.2l14.9,4.2l-14.9,4.2Z" class="g1_3303"/>
<path d="M297.8,747.5h.8V746h-.8v1.5Z" class="g1_3303"/>
<path d="M298.6,747.5H622.5V746H298.6v1.5Z" class="g1_3303"/>
<path d="M437.1,833.5h.4v-2h-.4v2Z" class="g1_3303"/>
<path d="M437.7,832.1l-2.2,1.3l-1.7,1l3.5,-12.1l3.4,12.1l-1.6,-1l-.4,-.4l-2.2,-7.7l1.5,-.5v.5l-2.2,7.7l-1.5,-.5l.4,-.4l2.2,-1.3Z" class="g1_3303"/>
<path d="M439.1,833.4l-2.2,-1.2v-1.4l.4,-.3l.4,.3l2.2,1.3Z" class="g1_3303"/>
<path fill-rule="evenodd" d="M437.3,831.5l-2.2,1.3l2.2,-7.7l2.2,7.7Z" class="g1_3303"/>
<path d="M437,840.1h.4v-2H437v2Z" class="g1_3303"/>
<path d="M436.8,839.5l2.2,-1.3l1.7,-1l-3.5,12.2l-3.4,-12.2l1.6,1l.4,.5l2.2,7.7l-1.5,.4v-.4l2.2,-7.7l1.5,.4l-.4,.5l-2.2,1.3Z" class="g1_3303"/>
<path d="M435.4,838.2l2.2,1.3v1.4l-.4,.2l-.4,-.2l-2.2,-1.3Z" class="g1_3303"/>
<path fill-rule="evenodd" d="M437.3,840.1l2.2,-1.3l-2.2,7.7l-2.2,-7.7Z" class="g1_3303"/>
<path d="M437.1,833.5h.4v-.2h-.4v.2Z" class="g1_3303"/>
<path d="M437.1,838.3h.4v-4.8h-.4v4.8Z" class="g1_3303"/>
<path d="M460.2,868.7h.4v-2h-.4v2Z" class="g1_3303"/>
<path d="M460,868.1l2.2,-1.3l1.7,-1l-2.7,9.6l-.8,2.5l-.7,-2.5l-2.3,-7.7l-.5,-1.8l1.6,.9l.4,.5l2.3,7.7l-1.5,.4V875l2.2,-7.7l1.5,.4l-.4,.5l-2.2,1.3Z" class="g1_3303"/>
<path d="M458.5,866.8l2.3,1.3v1.4l-.4,.1l-.3,-.1l-2.3,-1.3Z" class="g1_3303"/>
<path fill-rule="evenodd" d="M460.4,868.7l2.2,-1.3l-2.2,7.7l-2.2,-7.7Z" class="g1_3303"/>
<path d="M460.3,862.1h.4v-2h-.4v2Z" class="g1_3303"/>
<path d="M460.8,860.7l-2.3,1.3l-1.6,1l.5,-1.9l2.3,-7.7l.7,-2.5l3.5,12.1l-1.6,-1l-.4,-.4l-2.2,-7.7l1.5,-.5v.5l-2.3,7.7l-1.5,-.5l.4,-.4l2.3,-1.3Z" class="g1_3303"/>
<path d="M462.3,862l-2.2,-1.2v-1.4l.4,-.3l.4,.3l2.2,1.3Z" class="g1_3303"/>
<path fill-rule="evenodd" d="M460.4,860.1l-2.2,1.3l2.2,-7.7l2.2,7.7Z" class="g1_3303"/>
<path d="M460.3,866.9h.4v-.2h-.4v.2Z" class="g1_3303"/>
<path d="M460.3,866.7h.4v-4.8h-.4v4.8Z" class="g1_3303"/>
<path d="M409.4,879.6h80.7v-.7H409.4v.7Z" class="g1_3303"/>
<path d="M489.4,917.3h.7v-38h-.7v38Z" class="g1_3303"/>
<path d="M409,917.3h80.8v-.7H409v.7Z" class="g1_3303"/>
<path d="M409,916.9h.8v-38H409v38Z" class="g1_3303"/>
<path d="M423.8,851.3h2.3v-1.5h-2.3v1.5Z" class="g1_3303"/>
<path d="M424.5,850.3l1.6,4.3l.5,1.5l-1.5,-.5l-14.9,-4.3l-2.6,-.7l2.6,-.8l14.9,-4.2l1.5,-.4l-.5,1.4l-.6,.5l-14.8,4.2l-.5,-1.5h.5l14.8,4.4l-.4,1.4l-.5,-.4L423,850.9Z" class="g1_3303"/>
<path d="M426.1,846.6l-1.6,4.3H423l-.1,-.3l.1,-.3l1.6,-4.2Z" class="g1_3303"/>
<path fill-rule="evenodd" d="M423.8,850.6l1.5,4.3l-14.8,-4.3l14.8,-4.2Z" class="g1_3303"/>
<path d="M471.8,851.4h2.4v-1.6h-2.4v1.6Z" class="g1_3303"/>
<path d="M473.5,850.9l-1.6,-4.3l-.6,-1.4l1.6,.4l14.8,4.2l2.4,.8l-2.4,.7l-14.8,4.3l-1.6,.5l.6,-1.5l.5,-.4l14.8,-4.4l.5,1.5h-.5l-14.8,-4.2l.5,-1.5l.5,.5l1.5,4.2Z" class="g1_3303"/>
<path d="M471.9,854.6l1.6,-4.3h1.4l.1,.3l-.1,.3l-1.5,4.3Z" class="g1_3303"/>
<path fill-rule="evenodd" d="M474.2,850.6l-1.6,-4.2l14.8,4.2l-14.8,4.3Z" class="g1_3303"/>
<path d="M425.3,851.4h.8v-1.6h-.8v1.6Z" class="g1_3303"/>
<path d="M426.1,851.4h46.4v-1.6H426.1v1.6Z" class="g1_3303"/>
<path d="M465.4,680.5H610.8v-.7H465.4v.7Z" class="g1_3303"/>
<path d="M610,708h.8V680.2H610V708Z" class="g1_3303"/>
<path d="M465,708H610.4v-.7H465v.7Z" class="g1_3303"/>
<path d="M465,707.7h.8V679.8H465v27.9Z" class="g1_3303"/>
<path d="M465.4,653h72.9v-.7H465.4v.7Z" class="g1_3303"/>
<path d="M537.5,680.5h.8V652.7h-.8v27.8Z" class="g1_3303"/>
<path d="M465,680.5h72.9v-.7H465v.7Z" class="g1_3303"/>
<path d="M465,680.2h.8V652.3H465v27.9Z" class="g1_3303"/>
<path d="M537.9,653h72.9v-.7H537.9v.7Z" class="g1_3303"/>
<path d="M610,680.5h.8V652.7H610v27.8Z" class="g1_3303"/>
<path d="M537.5,680.5h72.9v-.7H537.5v.7Z" class="g1_3303"/>
<path d="M537.5,680.2h.8V652.3h-.8v27.9Z" class="g1_3303"/>
<path d="M465.4,598H610.8v-.7H465.4v.7Z" class="g1_3303"/>
<path d="M610,653h.8V597.7H610V653Z" class="g1_3303"/>
<path d="M465,653H610.4v-.7H465v.7Z" class="g1_3303"/>
<path d="M465,652.7h.8V597.3H465v55.4Z" class="g1_3303"/>
<path d="M465.4,556.8h72.9V556H465.4v.8Z" class="g1_3303"/>
<path d="M537.5,598h.8V556.4h-.8V598Z" class="g1_3303"/>
<path d="M465,598h72.9v-.7H465v.7Z" class="g1_3303"/>
<path d="M465,597.7h.8V556.1H465v41.6Z" class="g1_3303"/>
<path d="M537.9,556.8h72.9V556H537.9v.8Z" class="g1_3303"/>
<path d="M610,598h.8V556.4H610V598Z" class="g1_3303"/>
<path d="M537.5,598h72.9v-.7H537.5v.7Z" class="g1_3303"/>
<path d="M537.5,597.7h.8V556.1h-.8v41.6Z" class="g1_3303"/>
<path d="M488.8,719.6h.4v-2.2h-.4v2.2Z" class="g1_3303"/>
<path d="M489.3,718l-2.4,1.4l-1.6,1l.5,-1.9l2.4,-8.2l.8,-2.4l.7,2.4l2.4,8.2l.5,1.8l-1.6,-.9l-.4,-.5l-2.4,-8.1l1.5,-.5v.5l-2.4,8.1l-1.5,-.4l.4,-.5l2.4,-1.3Z" class="g1_3303"/>
<path d="M491,719.4L488.6,718v-1.3l.3,-.2l.4,.2l2.4,1.3Z" class="g1_3303"/>
<path fill-rule="evenodd" d="M489,717.4l-2.4,1.4l2.4,-8.2l2.3,8.2Z" class="g1_3303"/>
<path d="M488.7,738.2h.4v-2.1h-.4v2.1Z" class="g1_3303"/>
<path d="M488.6,737.6l2.4,-1.4l1.6,-1l-.5,1.9l-2.4,8.2l-.8,2.6l-.7,-2.6l-2.4,-8.2l-.5,-1.8l1.6,.9l.4,.4l2.4,8.3l-1.5,.4v-.4l2.4,-8.3l1.5,.5l-.4,.5l-2.4,1.3Z" class="g1_3303"/>
<path d="M486.9,736.2l2.4,1.3v1.4l-.3,.2l-.4,-.2l-2.4,-1.4Z" class="g1_3303"/>
<path fill-rule="evenodd" d="M489,738.2l2.3,-1.4l-2.3,8.3l-2.4,-8.3Z" class="g1_3303"/>
<path d="M488.8,719.6h.4v-.2h-.4v.2Z" class="g1_3303"/>
<path d="M488.8,736.3h.4V719.6h-.4v16.7Z" class="g1_3303"/>
<path d="M546.8,720.1h.5v-1.6h-.5v1.6Z" class="g1_3303"/>
<path d="M547.3,719.2L545,720l-1.5,.7L544,719l2.2,-8.1l.8,-2.5l.7,2.5l2.4,8.1l.5,1.6l-1.5,-.6l-.5,-.5l-2.4,-8.2l1.5,-.4v.4l-2.3,8.2L544,719l.4,-.4l2.3,-.8Z" class="g1_3303"/>
<path d="M549.1,720l-2.4,-.8v-1.5h.5l2.4,.9Z" class="g1_3303"/>
<path fill-rule="evenodd" d="M547,718.5l-2.3,.8l2.3,-8.1l2.4,8.1Z" class="g1_3303"/>
<path d="M546.8,720.1h.5v-.2h-.5v.2Z" class="g1_3303"/>
<path d="M546.8,747h.5V720.1h-.5V747Z" class="g1_3303"/>
<path d="M300.9,680.5H446.3v-.7H300.9v.7Z" class="g1_3303"/>
<path d="M445.6,708h.7V680.2h-.7V708Z" class="g1_3303"/>
<path d="M300.6,708H446v-.7H300.6v.7Z" class="g1_3303"/>
<path d="M300.6,707.7h.7V679.8h-.7v27.9Z" class="g1_3303"/>
<path d="M300.9,653h72.9v-.7H300.9v.7Z" class="g1_3303"/>
<path d="M373.1,680.5h.7V652.7h-.7v27.8Z" class="g1_3303"/>
<path d="M300.6,680.5h72.9v-.7H300.6v.7Z" class="g1_3303"/>
<path d="M300.6,680.2h.7V652.3h-.7v27.9Z" class="g1_3303"/>
<path d="M373.5,653h72.8v-.7H373.5v.7Z" class="g1_3303"/>
<path d="M445.6,680.5h.7V652.7h-.7v27.8Z" class="g1_3303"/>
<path d="M373.1,680.5H446v-.7H373.1v.7Z" class="g1_3303"/>
<path d="M373.1,680.2h.7V652.3h-.7v27.9Z" class="g1_3303"/>
<path d="M300.9,598H446.3v-.7H300.9v.7Z" class="g1_3303"/>
<path d="M445.6,653h.7V597.7h-.7V653Z" class="g1_3303"/>
<path d="M300.6,653H446v-.7H300.6v.7Z" class="g1_3303"/>
<path d="M300.6,652.7h.7V597.3h-.7v55.4Z" class="g1_3303"/>
<path d="M300.9,556.8h72.9V556H300.9v.8Z" class="g1_3303"/>
<path d="M373.1,598h.7V556.4h-.7V598Z" class="g1_3303"/>
<path d="M300.6,598h72.9v-.7H300.6v.7Z" class="g1_3303"/>
<path d="M300.6,597.7h.7V556.1h-.7v41.6Z" class="g1_3303"/>
<path d="M373.5,556.8h72.8V556H373.5v.8Z" class="g1_3303"/>
<path d="M445.6,598h.7V556.4h-.7V598Z" class="g1_3303"/>
<path d="M373.1,598H446v-.7H373.1v.7Z" class="g1_3303"/>
<path d="M373.1,597.7h.7V556.1h-.7v41.6Z" class="g1_3303"/>
<path d="M324.3,719.6h.5v-2.2h-.5v2.2Z" class="g1_3303"/>
<path d="M324.9,718l-2.4,1.4l-1.7,1l.6,-1.9l2.4,-8.2l.7,-2.4l.7,2.4l2.4,8.2l.6,1.8l-1.7,-.9l-.4,-.5l-2.3,-8.1l1.4,-.5v.5l-2.4,8.1l-1.4,-.4l.4,-.5l2.3,-1.3Z" class="g1_3303"/>
<path d="M326.5,719.4L324.1,718v-1.3l.4,-.2l.4,.2l2.3,1.3Z" class="g1_3303"/>
<path fill-rule="evenodd" d="M324.5,717.4l-2.4,1.4l2.4,-8.2l2.4,8.2Z" class="g1_3303"/>
<path d="M324.2,738.2h.5v-2.1h-.5v2.1Z" class="g1_3303"/>
<path d="M324.1,737.6l2.4,-1.4l1.7,-1l-.6,1.9l-2.4,8.2l-.7,2.6l-.7,-2.6l-2.4,-8.2l-.6,-1.8l1.7,.9l.4,.4l2.3,8.3l-1.4,.4v-.4l2.4,-8.3l1.4,.5l-.4,.5l-2.3,1.3Z" class="g1_3303"/>
<path d="M322.5,736.2l2.4,1.3v1.4l-.4,.2l-.4,-.2l-2.3,-1.4Z" class="g1_3303"/>
<path fill-rule="evenodd" d="M324.5,738.2l2.4,-1.4l-2.4,8.3l-2.4,-8.3Z" class="g1_3303"/>
<path d="M324.3,719.6h.5v-.2h-.5v.2Z" class="g1_3303"/>
<path d="M324.3,736.3h.5V719.6h-.5v16.7Z" class="g1_3303"/>
<path d="M382.3,720.1h.5v-1.6h-.5v1.6Z" class="g1_3303"/>
<path d="M382.8,719.2l-2.3,.8l-1.5,.7l.5,-1.7l2.3,-8.1l.7,-2.5l.8,2.5l2.3,8.1l.5,1.6l-1.5,-.6l-.4,-.5l-2.4,-8.2l1.5,-.4v.4l-2.3,8.2l-1.5,-.5l.5,-.4l2.2,-.8Z" class="g1_3303"/>
<path d="M384.6,720l-2.4,-.8v-1.5h.6l2.4,.9Z" class="g1_3303"/>
<path fill-rule="evenodd" d="M382.5,718.5l-2.3,.8l2.3,-8.1l2.4,8.1Z" class="g1_3303"/>
<path d="M382.3,720.1h.5v-.2h-.5v.2Z" class="g1_3303"/>
<path d="M382.3,747h.5V720.1h-.5V747Z" class="g1_3303"/>
</svg>