<?xml version="1.0" encoding="UTF-8" standalone="no"?>
<!DOCTYPE svg PUBLIC "-//W3C//DTD SVG 1.1//EN"
"http://www.w3.org/Graphics/SVG/1.1/DTD/svg11.dtd">
<svg viewBox="0 0 935 1210" version="1.1" xmlns="http://www.w3.org/2000/svg" xmlns:xlink="http://www.w3.org/1999/xlink">
<defs>
<clipPath id="c0_718"><path d="M97.3,59.2V41.4h72.1V59.2Z"/></clipPath>
<style type="text/css"><![CDATA[
.g0_718{
fill: #000;
}
.g1_718{
fill: #E5E5E5;
}
]]></style>
</defs>
<path d="M96.2,62.9v.3H838.7v-.3H96.2Z" class="g0_718"/>
<path d="M96.2,1114.1h-.1v.3h.1v-.3Z" class="g0_718"/>
<path d="M838.7,1114.1h.2v.3h-.2v-.3Z" class="g0_718"/>
<path d="M96.2,1114.1v.3H838.7v-.3H96.2Z" class="g0_718"/>
<image clip-path="url(#c0_718)" preserveAspectRatio="none" x="97" y="41" width="72" height="18" xlink:href="img/1.jpg"/>
<path d="M96.2,181.8H490.7v53.5H96.2V181.8Z" class="g1_718"/>
<path d="M96.6,182.1h-.7v51.6h.7V182.1Z" class="g0_718"/>
<path d="M491,181.4h-.7v55.4h.7V181.4Z" class="g0_718"/>
<path d="M840.3,182.1h-3.1v51.6h3.1V182.1Z" class="g0_718"/>
<path d="M95.9,181.4v.7H840.3v-.7H95.9Z" class="g0_718"/>
<path d="M95.9,233.8v3.1H840.3v-3.1H95.9Z" class="g0_718"/>
<path d="M120.6,376.2h-.7V534.3h.7V376.2Z" class="g0_718"/>
<path d="M246.7,375.5h-.8V535h.8V375.5Z" class="g0_718"/>
<path d="M364.4,375.5h-.8V535h.8V375.5Z" class="g0_718"/>
<path d="M815.1,376.2h-.8V534.3h.8V376.2Z" class="g0_718"/>
<path d="M119.9,375.5v.7H815.1v-.7H119.9Z" class="g0_718"/>
<path d="M119.9,399.9v.8H815.1v-.8H119.9Z" class="g0_718"/>
<path d="M119.9,424.3v.7H815.1v-.7H119.9Z" class="g0_718"/>
<path d="M119.9,448.8v.7H815.1v-.7H119.9Z" class="g0_718"/>
<path d="M119.9,491.6v.7H815.1v-.7H119.9Z" class="g0_718"/>
<path d="M119.9,534.3v.7H815.1v-.7H119.9Z" class="g0_718"/>
<path d="M96.6,892.6h-.7v164.2h.7V892.6Z" class="g0_718"/>
<path d="M206.6,891.8h-.7v165.8h.7V891.8Z" class="g0_718"/>
<path d="M729.1,891.8h-.7v165.8h.7V891.8Z" class="g0_718"/>
<path d="M839.1,892.6h-.8v164.2h.8V892.6Z" class="g0_718"/>
<path d="M95.9,891.8v.7H839.1v-.7H95.9Z" class="g0_718"/>
<path d="M95.9,934.6v.7H839.1v-.7H95.9Z" class="g0_718"/>
<path d="M205.9,959.1v.7H839.1v-.7H205.9Z" class="g0_718"/>
<path d="M95.9,983.5v.7H839.1v-.7H95.9Z" class="g0_718"/>
<path d="M205.9,1007.9v.8H729.1v-.8H205.9Z" class="g0_718"/>
<path d="M205.9,1032.4v.7H729.1v-.7H205.9Z" class="g0_718"/>
<path d="M95.9,1056.9v.7H839.1v-.7H95.9Z" class="g0_718"/>
</svg>