<?xml version="1.0" encoding="UTF-8" standalone="no"?>
<!DOCTYPE svg PUBLIC "-//W3C//DTD SVG 1.1//EN"
"http://www.w3.org/Graphics/SVG/1.1/DTD/svg11.dtd">
<svg viewBox="0 0 825 990" version="1.1" xmlns="http://www.w3.org/2000/svg" xmlns:xlink="http://www.w3.org/1999/xlink">
<defs>
<style type="text/css"><![CDATA[
.g0_101{
fill: #000;
}
]]></style>
</defs>
<path d="M94.9,910.3h.3v-.8h-.3v.8Z" class="g0_101"/>
<path d="M95.2,910.3h650v-.8H95.2v.8Z" class="g0_101"/>
<path d="M160.2,180h.8V137.3h-.8V180Z" class="g0_101"/>
<path d="M233.3,181.6h.7V135.8h-.7v45.8Z" class="g0_101"/>
<path d="M361.1,181.6h.7V135.8h-.7v45.8Z" class="g0_101"/>
<path d="M507.2,181.6h.7V135.8h-.7v45.8Z" class="g0_101"/>
<path d="M744.5,180h.8V137.3h-.8V180Z" class="g0_101"/>
<path d="M160.2,137.3H745.3v-1.5H160.2v1.5Z" class="g0_101"/>
<path d="M160.2,181.7H745.3v-1.6H160.2v1.6Z" class="g0_101"/>
<path d="M160.2,734.1h.8V691.3h-.8v42.8Z" class="g0_101"/>
<path d="M726.3,735.5h.7V689.7h-.7v45.8Z" class="g0_101"/>
<path d="M744.5,734.1h.8V691.3h-.8v42.8Z" class="g0_101"/>
<path d="M160.2,691.4H745.3v-1.6H160.2v1.6Z" class="g0_101"/>
<path d="M160.2,735.6H745.3v-1.5H160.2v1.5Z" class="g0_101"/>
</svg>