<?xml version="1.0" encoding="UTF-8" standalone="no"?>
<!DOCTYPE svg PUBLIC "-//W3C//DTD SVG 1.1//EN"
"http://www.w3.org/Graphics/SVG/1.1/DTD/svg11.dtd">
<svg viewBox="0 0 935 1210" version="1.1" xmlns="http://www.w3.org/2000/svg" xmlns:xlink="http://www.w3.org/1999/xlink">
<defs>
<style type="text/css"><![CDATA[
.g0_4768{
fill: #FFF;
}
.g1_4768{
fill: #000;
}
]]></style>
</defs>
<path d="M68.8,1149.3H852.5v-21.2H68.8v21.2Z" class="g0_4768"/>
<path d="M68.6,1095.1h.7v-971h-.7v971Z" class="g1_4768"/>
<path d="M125.3,1095.9h.7V164.6h-.7v931.3Z" class="g1_4768"/>
<path d="M182.1,1095.9h.7V123.4h-.7v972.5Z" class="g1_4768"/>
<path d="M422.7,1095.9h.7V123.4h-.7v972.5Z" class="g1_4768"/>
<path d="M516.1,1095.9h.7V123.4h-.7v972.5Z" class="g1_4768"/>
<path d="M851.7,1095.1h.7v-971h-.7v971Z" class="g1_4768"/>
<path d="M68.6,124.1H852.4v-.7H68.6v.7Z" class="g1_4768"/>
<path d="M68.6,165.4H182.8v-.8H68.6v.8Z" class="g1_4768"/>
<path d="M68.6,189.8H852.4v-.7H68.6v.7Z" class="g1_4768"/>
<path d="M182.1,214.2H852.4v-.7H182.1v.7Z" class="g1_4768"/>
<path d="M182.1,238.7H852.4V238H182.1v.7Z" class="g1_4768"/>
<path d="M182.1,263.2H852.4v-.8H182.1v.8Z" class="g1_4768"/>
<path d="M182.1,287.6H852.4v-.8H182.1v.8Z" class="g1_4768"/>
<path d="M182.1,312H852.4v-.7H182.1v.7Z" class="g1_4768"/>
<path d="M182.1,336.5H852.4v-.7H182.1v.7Z" class="g1_4768"/>
<path d="M182.1,360.9H852.4v-.7H182.1v.7Z" class="g1_4768"/>
<path d="M182.1,385.4H852.4v-.8H182.1v.8Z" class="g1_4768"/>
<path d="M182.1,409.8H852.4v-.7H182.1v.7Z" class="g1_4768"/>
<path d="M182.1,434.3H852.4v-.7H182.1v.7Z" class="g1_4768"/>
<path d="M182.1,458.7H852.4V458H182.1v.7Z" class="g1_4768"/>
<path d="M68.6,483.2H852.4v-.8H68.6v.8Z" class="g1_4768"/>
<path d="M182.1,507.7H852.4v-.8H182.1v.8Z" class="g1_4768"/>
<path d="M182.1,532H852.4v-.7H182.1v.7Z" class="g1_4768"/>
<path d="M182.1,556.5H852.4v-.7H182.1v.7Z" class="g1_4768"/>
<path d="M182.1,581H852.4v-.8H182.1v.8Z" class="g1_4768"/>
<path d="M182.1,605.4H852.4v-.8H182.1v.8Z" class="g1_4768"/>
<path d="M182.1,629.8H852.4v-.7H182.1v.7Z" class="g1_4768"/>
<path d="M182.1,654.3H852.4v-.7H182.1v.7Z" class="g1_4768"/>
<path d="M182.1,678.7H852.4V678H182.1v.7Z" class="g1_4768"/>
<path d="M182.1,703.2H852.4v-.8H182.1v.8Z" class="g1_4768"/>
<path d="M182.1,727.7H852.4v-.8H182.1v.8Z" class="g1_4768"/>
<path d="M182.1,752H852.4v-.7H182.1v.7Z" class="g1_4768"/>
<path d="M68.6,776.5H852.4v-.7H68.6v.7Z" class="g1_4768"/>
<path d="M182.1,839.1H852.4v-.7H182.1v.7Z" class="g1_4768"/>
<path d="M182.1,863.6H852.4v-.7H182.1v.7Z" class="g1_4768"/>
<path d="M182.1,943.1H852.4v-.8H182.1v.8Z" class="g1_4768"/>
<path d="M182.1,1022.5H852.4v-.8H182.1v.8Z" class="g1_4768"/>
<path d="M68.6,1046.9H852.4v-.7H68.6v.7Z" class="g1_4768"/>
<path d="M182.1,1071.4H852.4v-.7H182.1v.7Z" class="g1_4768"/>
<path d="M68.6,1095.8H852.4v-.8H68.6v.8Z" class="g1_4768"/>
</svg>