<?xml version="1.0" encoding="UTF-8" standalone="no"?>
<!DOCTYPE svg PUBLIC "-//W3C//DTD SVG 1.1//EN"
"http://www.w3.org/Graphics/SVG/1.1/DTD/svg11.dtd">
<svg viewBox="0 0 935 1210" version="1.1" xmlns="http://www.w3.org/2000/svg" xmlns:xlink="http://www.w3.org/1999/xlink">
<defs>
<clipPath id="c0_1210"><path d="M97.3,59.2V41.4h72.1V59.2Z"/></clipPath>
<style type="text/css"><![CDATA[
.g0_1210{
fill: #000;
}
.g1_1210{
fill: #FFF;
}
]]></style>
</defs>
<path d="M96.2,62.9v.3H838.7v-.3H96.2Z" class="g0_1210"/>
<path d="M96.2,1114.1h-.1v.3h.1v-.3Z" class="g0_1210"/>
<path d="M838.7,1114.1h.2v.3h-.2v-.3Z" class="g0_1210"/>
<path d="M96.2,1114.1v.3H838.7v-.3H96.2Z" class="g0_1210"/>
<image clip-path="url(#c0_1210)" preserveAspectRatio="none" x="97" y="41" width="72" height="18" xlink:href="img/1.jpg"/>
<path d="M182.6,397.2H749.8v53.4H182.6V397.2Z" class="g1_1210"/>
<path d="M749.8,397.2h44.7v53.4H749.8V397.2Z" class="g1_1210"/>
<path d="M794.5,397.2h45.9v53.4H794.5V397.2Z" class="g1_1210"/>
<path d="M95,397.5h-.8v51.6H95V397.5Z" class="g0_1210"/>
<path d="M139,396.8h-.8v55.4h.8V396.8Z" class="g0_1210"/>
<path d="M183,396.8h-.8v55.4h.8V396.8Z" class="g0_1210"/>
<path d="M750.2,396.8h-.8v55.4h.8V396.8Z" class="g0_1210"/>
<path d="M794.9,396.8h-.7v55.4h.7V396.8Z" class="g0_1210"/>
<path d="M841.9,397.5h-3v51.6h3V397.5Z" class="g0_1210"/>
<path d="M94.2,396.8v.7H841.8v-.7H94.2Z" class="g0_1210"/>
<path d="M94.2,449.1v3.1H841.8v-3.1H94.2Z" class="g0_1210"/>
<path d="M96.2,495.2v.7H618.6v-.7H96.2Z" class="g0_1210"/>
<path d="M96.2,515.1v.7H618.6v-.7H96.2Z" class="g0_1210"/>
</svg>