<?xml version="1.0" encoding="UTF-8" standalone="no"?>
<!DOCTYPE svg PUBLIC "-//W3C//DTD SVG 1.1//EN"
"http://www.w3.org/Graphics/SVG/1.1/DTD/svg11.dtd">
<svg viewBox="0 0 935 1210" version="1.1" xmlns="http://www.w3.org/2000/svg" xmlns:xlink="http://www.w3.org/1999/xlink">
<defs>
<style type="text/css"><![CDATA[
.g0_163{
fill: #FFF;
}
.g1_163{
fill: #000;
}
.g2_163{
fill: #0860A8;
}
]]></style>
</defs>
<path d="M68.9,1149.3H755.2v-21.2H68.9v21.2Z" class="g0_163"/>
<path d="M771.3,1149.3H855v-21.2H771.3v21.2Z" class="g0_163"/>
<path d="M70.3,1043.4v-.7Z" class="g1_163"/>
<path d="M70.3,1043.4H290.7v-.7H70.3v.7Z" class="g1_163"/>
<path d="M92.3,1089.6H679.2v-1H92.3v1Z" class="g2_163"/>
<path d="M69.9,239.5h.8V147h-.8v92.5Z" class="g1_163"/>
<path d="M347.1,240.3h.7v-94h-.7v94Z" class="g1_163"/>
<path d="M384.7,240.3h.8v-94h-.8v94Z" class="g1_163"/>
<path d="M457.9,240.3h.7v-94h-.7v94Z" class="g1_163"/>
<path d="M531.8,240.3h.7v-94h-.7v94Z" class="g1_163"/>
<path d="M850.8,239.5h.7V147h-.7v92.5Z" class="g1_163"/>
<path d="M69.9,147H851.5v-.7H69.9v.7Z" class="g1_163"/>
<path d="M69.9,200.5H851.5v-.8H69.9v.8Z" class="g1_163"/>
<path d="M69.9,240.3H851.5v-.8H69.9v.8Z" class="g1_163"/>
<path d="M69.9,343.4h.8V295.3h-.8v48.1Z" class="g1_163"/>
<path d="M127.9,344.1h.7V294.5h-.7v49.6Z" class="g1_163"/>
<path d="M201.8,344.1h.7V294.5h-.7v49.6Z" class="g1_163"/>
<path d="M356.4,344.1h.7V294.5h-.7v49.6Z" class="g1_163"/>
<path d="M523,344.1h.7V294.5H523v49.6Z" class="g1_163"/>
<path d="M687.8,344.1h.7V294.5h-.7v49.6Z" class="g1_163"/>
<path d="M850.6,343.4h.7V295.3h-.7v48.1Z" class="g1_163"/>
<path d="M69.9,295.3H851.4v-.8H69.9v.8Z" class="g1_163"/>
<path d="M69.9,319.6H851.4v-.7H69.9v.7Z" class="g1_163"/>
<path d="M69.9,344.1H851.4v-.7H69.9v.7Z" class="g1_163"/>
</svg>