<?xml version="1.0" encoding="UTF-8" standalone="no"?>
<!DOCTYPE svg PUBLIC "-//W3C//DTD SVG 1.1//EN"
"http://www.w3.org/Graphics/SVG/1.1/DTD/svg11.dtd">
<svg viewBox="0 0 935 1210" version="1.1" xmlns="http://www.w3.org/2000/svg" xmlns:xlink="http://www.w3.org/1999/xlink">
<defs>
<style type="text/css"><![CDATA[
.g0_58{
fill: #FFF;
}
.g1_58{
fill: #000;
}
]]></style>
</defs>
<path d="M68.8,1149.3H852.5v-21.2H68.8v21.2Z" class="g0_58"/>
<path d="M68.6,1053.8h.7V124.1h-.7v929.7Z" class="g1_58"/>
<path d="M166.8,1054.6h.8V123.4h-.8v931.2Z" class="g1_58"/>
<path d="M234.9,1054.6h.7V123.4h-.7v931.2Z" class="g1_58"/>
<path d="M360.1,1054.6h.7V123.4h-.7v931.2Z" class="g1_58"/>
<path d="M450.1,1054.6h.7V123.4h-.7v931.2Z" class="g1_58"/>
<path d="M513,1054.6h.7V123.4H513v931.2Z" class="g1_58"/>
<path d="M608.4,1054.6h.7V123.4h-.7v931.2Z" class="g1_58"/>
<path d="M687.2,1054.6h.8V123.4h-.8v931.2Z" class="g1_58"/>
<path d="M762.2,1054.6h.7V123.4h-.7v931.2Z" class="g1_58"/>
<path d="M851.3,1053.8h.7V124.1h-.7v929.7Z" class="g1_58"/>
<path d="M68.6,124.1H852v-.7H68.6v.7Z" class="g1_58"/>
<path d="M68.6,224.9H852v-.7H68.6v.7Z" class="g1_58"/>
<path d="M68.6,383.8H852v-.7H68.6v.7Z" class="g1_58"/>
<path d="M68.6,513.7H852V513H68.6v.7Z" class="g1_58"/>
<path d="M68.6,643.6H852v-.7H68.6v.7Z" class="g1_58"/>
<path d="M68.6,790.3H852v-.8H68.6v.8Z" class="g1_58"/>
<path d="M68.6,920.2H852v-.8H68.6v.8Z" class="g1_58"/>
<path d="M68.6,1054.5H852v-.7H68.6v.7Z" class="g1_58"/>
</svg>