<?xml version="1.0" encoding="UTF-8" standalone="no"?>
<!DOCTYPE svg PUBLIC "-//W3C//DTD SVG 1.1//EN"
"http://www.w3.org/Graphics/SVG/1.1/DTD/svg11.dtd">
<svg viewBox="0 0 935 1210" version="1.1" xmlns="http://www.w3.org/2000/svg" xmlns:xlink="http://www.w3.org/1999/xlink">
<defs>
<clipPath id="c0_2853"><path d="M97.3,59.2V41.4h72.1V59.2Z"/></clipPath>
<style type="text/css"><![CDATA[
.g0_2853{
fill: #000;
}
]]></style>
</defs>
<path d="M96.3,63.3H838.8v-.4H96.3v.4Z" class="g0_2853"/>
<path d="M96.1,1114.5h.2v-.4h-.2v.4Z" class="g0_2853"/>
<path d="M96.3,1114.5H838.9v-.4H96.3v.4Z" class="g0_2853"/>
<image clip-path="url(#c0_2853)" preserveAspectRatio="none" x="97" y="41" width="73" height="18" xlink:href="img/1.jpg"/>
<path d="M95.9,563.4h.7V179.1h-.7V563.4Z" class="g0_2853"/>
<path d="M539.1,264.6h.7V178.4h-.7v86.2Z" class="g0_2853"/>
<path d="M539.1,457.1h.7V285.3h-.7V457.1Z" class="g0_2853"/>
<path d="M539.1,564.1h.7V477.8h-.7v86.3Z" class="g0_2853"/>
<path d="M662.6,264.6h.7V178.4h-.7v86.2Z" class="g0_2853"/>
<path d="M662.6,457.1h.7V285.3h-.7V457.1Z" class="g0_2853"/>
<path d="M662.6,564.1h.7V477.8h-.7v86.3Z" class="g0_2853"/>
<path d="M780.7,563.4h.8V179.1h-.8V563.4Z" class="g0_2853"/>
<path d="M95.9,179.1H781.6v-.7H95.9v.7Z" class="g0_2853"/>
<path d="M95.9,200.5H781.6v-.8H95.9v.8Z" class="g0_2853"/>
<path d="M95.9,221.8H781.6v-.7H95.9v.7Z" class="g0_2853"/>
<path d="M95.9,243.3H781.6v-.7H95.9v.7Z" class="g0_2853"/>
<path d="M95.9,264.6H781.6v-.7H95.9v.7Z" class="g0_2853"/>
<path d="M95.9,286.1H781.6v-.7H95.9v.7Z" class="g0_2853"/>
<path d="M95.9,307.4H781.6v-.7H95.9v.7Z" class="g0_2853"/>
<path d="M95.9,328.8H781.6v-.7H95.9v.7Z" class="g0_2853"/>
<path d="M95.9,350.3H781.6v-.8H95.9v.8Z" class="g0_2853"/>
<path d="M95.9,371.6H781.6v-.7H95.9v.7Z" class="g0_2853"/>
<path d="M95.9,393H781.6v-.8H95.9v.8Z" class="g0_2853"/>
<path d="M95.9,414.4H781.6v-.7H95.9v.7Z" class="g0_2853"/>
<path d="M95.9,435.8H781.6V435H95.9v.8Z" class="g0_2853"/>
<path d="M95.9,457.1H781.6v-.7H95.9v.7Z" class="g0_2853"/>
<path d="M95.9,478.6H781.6v-.7H95.9v.7Z" class="g0_2853"/>
<path d="M95.9,499.9H781.6v-.7H95.9v.7Z" class="g0_2853"/>
<path d="M95.9,521.3H781.6v-.7H95.9v.7Z" class="g0_2853"/>
<path d="M95.9,542.8H781.6V542H95.9v.8Z" class="g0_2853"/>
<path d="M95.9,564.1H781.6v-.7H95.9v.7Z" class="g0_2853"/>
</svg>