<?xml version="1.0" encoding="UTF-8" standalone="no"?>
<!DOCTYPE svg PUBLIC "-//W3C//DTD SVG 1.1//EN"
"http://www.w3.org/Graphics/SVG/1.1/DTD/svg11.dtd">
<svg viewBox="0 0 935 1210" version="1.1" xmlns="http://www.w3.org/2000/svg" xmlns:xlink="http://www.w3.org/1999/xlink">
<defs>
<clipPath id="c0_2564"><path d="M766.6,59.2V41.4h72.2V59.2Z"/></clipPath>
<style type="text/css"><![CDATA[
.g0_2564{
fill: #000;
}
.g1_2564{
fill: #FFF;
}
.g2_2564{
fill: #7F7F7F;
}
.g3_2564{
fill: #00F;
}
.g4_2564{
fill: #80FFFF;
}
.g5_2564{
fill: #0FF;
}
]]></style>
</defs>
<path d="M97.4,63.3H839.9v-.4H97.4v.4Z" class="g0_2564"/>
<path d="M96.1,1114.5h.2v-.4h-.2v.4Z" class="g0_2564"/>
<path d="M96.3,1114.5H838.9v-.4H96.3v.4Z" class="g0_2564"/>
<image clip-path="url(#c0_2564)" preserveAspectRatio="none" x="767" y="41" width="72" height="18" xlink:href="img/1.jpg"/>
<path d="M460.3,571.5h82V552.9h-82v18.6Z" class="g1_2564"/>
<path d="M460.3,553.3h82.4v-.7H460.3v.7Z" class="g0_2564"/>
<path d="M541.9,571.9h.8v-19h-.8v19Z" class="g0_2564"/>
<path d="M459.9,571.9h82.4v-.7H459.9v.7Z" class="g0_2564"/>
<path d="M459.9,571.5h.7V552.6h-.7v18.9Z" class="g0_2564"/>
<path d="M541.9,571.5h80.9V552.9H541.9v18.6Z" class="g1_2564"/>
<path d="M541.9,553.3h81.3v-.7H541.9v.7Z" class="g0_2564"/>
<path d="M622.4,571.9h.8v-19h-.8v19Z" class="g0_2564"/>
<path d="M541.6,571.9h81.2v-.7H541.6v.7Z" class="g0_2564"/>
<path d="M541.6,571.5h.7V552.6h-.7v18.9Z" class="g0_2564"/>
<path d="M622.8,571.5h80.9V552.9H622.8v18.6Z" class="g1_2564"/>
<path d="M622.8,553.3h81.3v-.7H622.8v.7Z" class="g0_2564"/>
<path d="M703.4,571.9h.7v-19h-.7v19Z" class="g0_2564"/>
<path d="M622.4,571.9h81.3v-.7H622.4v.7Z" class="g0_2564"/>
<path d="M622.4,571.5h.8V552.6h-.8v18.9Z" class="g0_2564"/>
<path d="M703.7,571.5h82.2V552.9H703.7v18.6Z" class="g1_2564"/>
<path d="M703.7,553.3h82.5v-.7H703.7v.7Z" class="g0_2564"/>
<path d="M785.5,571.9h.7v-19h-.7v19Z" class="g0_2564"/>
<path d="M703.4,571.9h82.5v-.7H703.4v.7Z" class="g0_2564"/>
<path d="M703.4,571.5h.7V552.6h-.7v18.9Z" class="g0_2564"/>
<path d="M459.5,449.9H623.3V431.3H459.5v18.6Z" class="g2_2564"/>
<path d="M459.5,431.7H623.7v-.8H459.5v.8Z" class="g0_2564"/>
<path d="M623,450.3h.7v-19H623v19Z" class="g0_2564"/>
<path d="M459.2,450.3H623.3v-.8H459.2v.8Z" class="g0_2564"/>
<path d="M459.2,449.9h.7v-19h-.7v19Z" class="g0_2564"/>
<path d="M623.3,449.9h40.8V431.3H623.3v18.6Z" class="g1_2564"/>
<path d="M623.3,431.7h41.2v-.8H623.3v.8Z" class="g0_2564"/>
<path d="M663.8,450.3h.7v-19h-.7v19Z" class="g0_2564"/>
<path d="M623,450.3h41.1v-.8H623v.8Z" class="g0_2564"/>
<path d="M623,449.9h.7v-19H623v19Z" class="g0_2564"/>
<path d="M664.1,449.9H705V431.3H664.1v18.6Z" class="g1_2564"/>
<path d="M664.1,431.7h41.3v-.8H664.1v.8Z" class="g0_2564"/>
<path d="M704.6,450.3h.8v-19h-.8v19Z" class="g0_2564"/>
<path d="M663.8,450.3H705v-.8H663.8v.8Z" class="g0_2564"/>
<path d="M663.8,449.9h.7v-19h-.7v19Z" class="g0_2564"/>
<path d="M705,449.9h40.8V431.3H705v18.6Z" class="g1_2564"/>
<path d="M705,431.7h41.2v-.8H705v.8Z" class="g0_2564"/>
<path d="M745.4,450.3h.8v-19h-.8v19Z" class="g0_2564"/>
<path d="M704.6,450.3h41.2v-.8H704.6v.8Z" class="g0_2564"/>
<path d="M704.6,449.9h.8v-19h-.8v19Z" class="g0_2564"/>
<path d="M745.8,449.9h40.8V431.3H745.8v18.6Z" class="g1_2564"/>
<path d="M745.8,431.7H787v-.8H745.8v.8Z" class="g0_2564"/>
<path d="M786.2,450.3h.8v-19h-.8v19Z" class="g0_2564"/>
<path d="M745.4,450.3h41.2v-.8H745.4v.8Z" class="g0_2564"/>
<path d="M745.4,449.9h.8v-19h-.8v19Z" class="g0_2564"/>
<path d="M541.9,571.5h80.9V552.9H541.9v18.6Z" class="g1_2564"/>
<path d="M541.9,553.3h81.3v-.7H541.9v.7Z" class="g0_2564"/>
<path d="M622.4,571.9h.8v-19h-.8v19Z" class="g0_2564"/>
<path d="M541.6,571.9h81.2v-.7H541.6v.7Z" class="g0_2564"/>
<path d="M541.6,571.5h.7V552.6h-.7v18.9Z" class="g0_2564"/>
<path d="M499,535.4h5.1l-.3,1L499,553.1l-4.7,-16.7l-.3,-1h1l.7,.6l4.1,14.1l-1.5,.4v-.4l4,-14.1l1.5,.4l-.7,.6H499Z" class="g3_2564"/>
<path d="M495,537h4v-1.6h-4V537Z" class="g3_2564"/>
<path fill-rule="evenodd" d="M499,536.2h4.1L499,550.3l-4,-14.1Z" class="g3_2564"/>
<path d="M644.8,457.9h.7v-8.4h-.7v8.4Z" class="g3_2564"/>
<path d="M498.7,457.9H645.2v-.8H498.7v.8Z" class="g3_2564"/>
<path d="M498.7,535.8h.7V457.5h-.7v78.3Z" class="g3_2564"/>
<path d="M579.7,535.4h4.1l1,.1l-.2,.9l-4.8,16.7l-.7,-2.6l-4.2,-14l-.2,-1h1l.7,.6l4.1,14l-1.4,.4v-.4l4,-14.1l1.5,.4l-.8,.6h-4.1Z" class="g3_2564"/>
<path d="M575.7,535.5l4,-.1V537l-4,.1Z" class="g3_2564"/>
<path fill-rule="evenodd" d="M579.7,536.2h4.1l-4,14.1l-4.1,-14Z" class="g3_2564"/>
<path d="M684.3,463.3h.7V449.5h-.7v13.8Z" class="g3_2564"/>
<path d="M684.7,463.3H579.5l-.3,-.4v-.4H684.7Z" class="g3_2564"/>
<path d="M579.3,535.8h.8v-.4h-.8v.4Z" class="g3_2564"/>
<path d="M579.9,462.9h-.8l.2,72.5h.8Z" class="g3_2564"/>
<path d="M662.3,535.4h5l-.2,1l-4.8,16.7l-4.8,-16.7l-.2,-1h1l.7,.6l4,14.1l-1.4,.4v-.4l4,-14.1l1.5,.4l-.8,.6h-4Z" class="g3_2564"/>
<path d="M658.3,537h4v-1.6h-4V537Z" class="g3_2564"/>
<path fill-rule="evenodd" d="M662.3,536.2h4l-4,14.1l-4,-14.1Z" class="g3_2564"/>
<path d="M725.5,469.6h.8V449.5h-.8v20.1Z" class="g3_2564"/>
<path d="M661.9,469.6h64v-.7h-64v.7Z" class="g3_2564"/>
<path d="M661.9,535.8h.8V469.2h-.8v66.6Z" class="g3_2564"/>
<path d="M744.2,535.4h5.1l-.3,1l-4.8,16.7l-4.7,-16.7l-.3,-1h1l.7,.6l4.1,14.1l-1.5,.4v-.4l4,-14.1l1.5,.4l-.7,.6h-4.1Z" class="g3_2564"/>
<path d="M740.2,537h4v-1.6h-4V537Z" class="g3_2564"/>
<path fill-rule="evenodd" d="M744.2,536.2h4.1l-4.1,14.1l-4,-14.1Z" class="g3_2564"/>
<path d="M766.2,449.9h.8v-.4h-.8v.4Z" class="g3_2564"/>
<path d="M767,449.9l-.3,24.2v.4h-.4l-.3,-.4l.2,-24.2Z" class="g3_2564"/>
<path d="M743.9,474.5h22.4v-.8H743.9v.8Z" class="g3_2564"/>
<path d="M743.9,535.8h.7V474.1h-.7v61.7Z" class="g3_2564"/>
<path d="M431.4,846h82V827.4h-82V846Z" class="g1_2564"/>
<path d="M431.4,827.8h82.4V827H431.4v.8Z" class="g0_2564"/>
<path d="M513.1,846.4h.7v-19h-.7v19Z" class="g0_2564"/>
<path d="M431,846.4h82.4v-.8H431v.8Z" class="g0_2564"/>
<path d="M431,846h.8V827H431v19Z" class="g0_2564"/>
<path d="M513.4,846h81V827.4h-81V846Z" class="g1_2564"/>
<path d="M513.4,827.8h81.3V827H513.4v.8Z" class="g0_2564"/>
<path d="M594,846.4h.7v-19H594v19Z" class="g0_2564"/>
<path d="M513.1,846.4h81.3v-.8H513.1v.8Z" class="g0_2564"/>
<path d="M513.1,846h.7V827h-.7v19Z" class="g0_2564"/>
<path d="M594.4,846h80.9V827.4H594.4V846Z" class="g1_2564"/>
<path d="M594.4,827.8h81.3V827H594.4v.8Z" class="g0_2564"/>
<path d="M674.9,846.4h.8v-19h-.8v19Z" class="g0_2564"/>
<path d="M594,846.4h81.3v-.8H594v.8Z" class="g0_2564"/>
<path d="M594,846h.7V827H594v19Z" class="g0_2564"/>
<path d="M675.3,846h82.1V827.4H675.3V846Z" class="g1_2564"/>
<path d="M675.3,827.8h82.4V827H675.3v.8Z" class="g0_2564"/>
<path d="M757,846.4h.7v-19H757v19Z" class="g0_2564"/>
<path d="M674.9,846.4h82.5v-.8H674.9v.8Z" class="g0_2564"/>
<path d="M674.9,846h.8V827h-.8v19Z" class="g0_2564"/>
<path d="M105.3,846h82.1V827.4H105.3V846Z" class="g1_2564"/>
<path d="M105.3,827.8h82.4V827H105.3v.8Z" class="g0_2564"/>
<path d="M187,846.4h.7v-19H187v19Z" class="g0_2564"/>
<path d="M105,846.4h82.4v-.8H105v.8Z" class="g0_2564"/>
<path d="M105,846h.7V827H105v19Z" class="g0_2564"/>
<path d="M187.4,846h80.9V827.4H187.4V846Z" class="g1_2564"/>
<path d="M187.4,827.8h81.3V827H187.4v.8Z" class="g0_2564"/>
<path d="M267.9,846.4h.8v-19h-.8v19Z" class="g0_2564"/>
<path d="M187,846.4h81.3v-.8H187v.8Z" class="g0_2564"/>
<path d="M187,846h.7V827H187v19Z" class="g0_2564"/>
<path d="M268.3,846h80.9V827.4H268.3V846Z" class="g1_2564"/>
<path d="M268.3,827.8h81.3V827H268.3v.8Z" class="g0_2564"/>
<path d="M348.9,846.4h.7v-19h-.7v19Z" class="g0_2564"/>
<path d="M267.9,846.4h81.4v-.8H267.9v.8Z" class="g0_2564"/>
<path d="M267.9,846h.8V827h-.8v19Z" class="g0_2564"/>
<path d="M349.3,846h82.1V827.4H349.3V846Z" class="g1_2564"/>
<path d="M349.3,827.8h82.5V827H349.3v.8Z" class="g0_2564"/>
<path d="M431,846.4h.8v-19H431v19Z" class="g0_2564"/>
<path d="M348.9,846.4h82.5v-.8H348.9v.8Z" class="g0_2564"/>
<path d="M348.9,846h.7V827h-.7v19Z" class="g0_2564"/>
<path d="M432.1,700.3h40.8V681.7H432.1v18.6Z" class="g1_2564"/>
<path d="M432.1,682.1h41.2v-.7H432.1v.7Z" class="g0_2564"/>
<path d="M472.5,700.7h.8v-19h-.8v19Z" class="g0_2564"/>
<path d="M431.8,700.7h41.1V700H431.8v.7Z" class="g0_2564"/>
<path d="M431.8,700.3h.7V681.4h-.7v18.9Z" class="g0_2564"/>
<path d="M472.9,700.3h40.9V681.7H472.9v18.6Z" class="g1_2564"/>
<path d="M472.9,682.1h41.3v-.7H472.9v.7Z" class="g0_2564"/>
<path d="M513.4,700.7h.8v-19h-.8v19Z" class="g0_2564"/>
<path d="M472.5,700.7h41.3V700H472.5v.7Z" class="g0_2564"/>
<path d="M472.5,700.3h.8V681.4h-.8v18.9Z" class="g0_2564"/>
<path d="M513.8,700.3h40.8V681.7H513.8v18.6Z" class="g1_2564"/>
<path d="M513.8,682.1h41.1v-.7H513.8v.7Z" class="g0_2564"/>
<path d="M554.2,700.7h.8v-19h-.8v19Z" class="g0_2564"/>
<path d="M513.4,700.7h41.2V700H513.4v.7Z" class="g0_2564"/>
<path d="M513.4,700.3h.8V681.4h-.8v18.9Z" class="g0_2564"/>
<path d="M554.6,700.3h40.8V681.7H554.6v18.6Z" class="g1_2564"/>
<path d="M554.6,682.1h41.1v-.7H554.6v.7Z" class="g0_2564"/>
<path d="M595,700.7h.7v-19H595v19Z" class="g0_2564"/>
<path d="M554.2,700.7h41.2V700H554.2v.7Z" class="g0_2564"/>
<path d="M554.2,700.3h.8V681.4h-.8v18.9Z" class="g0_2564"/>
<path d="M595.4,700.3h40.9V681.7H595.4v18.6Z" class="g1_2564"/>
<path d="M595.4,682.1h41.2v-.7H595.4v.7Z" class="g0_2564"/>
<path d="M635.9,700.7h.7v-19h-.7v19Z" class="g0_2564"/>
<path d="M595,700.7h41.3V700H595v.7Z" class="g0_2564"/>
<path d="M595,700.3h.7V681.4H595v18.9Z" class="g0_2564"/>
<path d="M636.3,700.3h40.8V681.7H636.3v18.6Z" class="g1_2564"/>
<path d="M636.3,682.1h41.1v-.7H636.3v.7Z" class="g0_2564"/>
<path d="M676.7,700.7h.7v-19h-.7v19Z" class="g0_2564"/>
<path d="M635.9,700.7h41.2V700H635.9v.7Z" class="g0_2564"/>
<path d="M635.9,700.3h.7V681.4h-.7v18.9Z" class="g0_2564"/>
<path d="M677.1,700.3h40.7V681.7H677.1v18.6Z" class="g1_2564"/>
<path d="M677.1,682.1h41.1v-.7H677.1v.7Z" class="g0_2564"/>
<path d="M717.5,700.7h.7v-19h-.7v19Z" class="g0_2564"/>
<path d="M676.7,700.7h41.1V700H676.7v.7Z" class="g0_2564"/>
<path d="M676.7,700.3h.7V681.4h-.7v18.9Z" class="g0_2564"/>
<path d="M717.8,700.3h40.9V681.7H717.8v18.6Z" class="g1_2564"/>
<path d="M717.8,682.1h41.3v-.7H717.8v.7Z" class="g0_2564"/>
<path d="M758.4,700.7h.7v-19h-.7v19Z" class="g0_2564"/>
<path d="M717.5,700.7h41.2V700H717.5v.7Z" class="g0_2564"/>
<path d="M717.5,700.3h.7V681.4h-.7v18.9Z" class="g0_2564"/>
<path d="M149,809.3h5l-.3,1L149,827l-4.8,-16.7l-.3,-1h1l.8,.6l4,14.1l-1.5,.4V824l4.1,-14.1l1.4,.4l-.7,.6h-4Z" class="g3_2564"/>
<path d="M144.9,810.9H149v-1.6h-4.1v1.6Z" class="g3_2564"/>
<path fill-rule="evenodd" d="M149,810.1h4l-4,14.1l-4.1,-14.1Z" class="g3_2564"/>
<path d="M454.9,701h.7v-.4h-.7v.4Z" class="g3_2564"/>
<path d="M455.6,701l-.3,9.1v.3h-.4l-.3,-.3l.3,-9.1Z" class="g3_2564"/>
<path d="M148.6,710.4H454.9v-.7H148.6v.7Z" class="g3_2564"/>
<path d="M148.6,809.7h.7V710.1h-.7v99.6Z" class="g3_2564"/>
<path d="M228,809.3h5l-.3,1L228,827l-4.8,-16.7l-.3,-1h1l.8,.6l4,14.1l-1.5,.4V824l4.1,-14.1l1.4,.4l-.7,.6h-4Z" class="g3_2564"/>
<path d="M223.9,810.9H228v-1.6h-4.1v1.6Z" class="g3_2564"/>
<path fill-rule="evenodd" d="M228,810.1h4l-4,14.1l-4.1,-14.1Z" class="g3_2564"/>
<path d="M493.8,700.2h.7v-.4h-.7v.4Z" class="g3_2564"/>
<path d="M494.5,700.2l-.2,17.3v.3h-.4l-.4,-.3l.3,-17.3Z" class="g3_2564"/>
<path d="M227.6,717.8H493.9v-.7H227.6v.7Z" class="g3_2564"/>
<path d="M227.6,809.7h.7V717.5h-.7v92.2Z" class="g3_2564"/>
<path d="M310.5,809.3h5.1l-.3,1l-4.1,14.1l-.7,2.6l-4.8,-16.7l-.3,-1h1l.8,.6l4,14.1l-1.5,.4V824l4.2,-14.1l1.4,.4l-.7,.6h-4.1Z" class="g3_2564"/>
<path d="M306.4,810.9h4.1v-1.6h-4.1v1.6Z" class="g3_2564"/>
<path fill-rule="evenodd" d="M310.5,810.1h4.1l-4.1,14.1l-4.1,-14.1Z" class="g3_2564"/>
<path d="M533.6,725.5h.7V700.1h-.7v25.4Z" class="g3_2564"/>
<path d="M310.1,725.5H534v-.8H310.1v.8Z" class="g3_2564"/>
<path d="M310.1,809.7h.7V725.1h-.7v84.6Z" class="g3_2564"/>
<path d="M393,808.8h5.1l-.3,1l-4.1,14l-.7,2.6l-.8,-2.6l-4,-14l-.3,-1h1l.8,.5l4,14.1l-1.5,.4v-.4l4.2,-14.1l1.4,.5l-.7,.5H393Z" class="g3_2564"/>
<path d="M388.9,810.3H393v-1.5h-4.1v1.5Z" class="g3_2564"/>
<path fill-rule="evenodd" d="M393,809.5h4.1l-4.1,14l-4.1,-14Z" class="g3_2564"/>
<path d="M575.1,701h.8v-.4h-.8v.4Z" class="g3_2564"/>
<path d="M575.9,701l-.3,29.9v.3h-.4l-.4,-.3l.3,-29.9Z" class="g3_2564"/>
<path d="M392.6,731.2H575.2v-.7H392.6v.7Z" class="g3_2564"/>
<path d="M392.6,809.1h.7V730.9h-.7v78.2Z" class="g3_2564"/>
<path d="M473.3,809.3h5l-.3,1l-4,14.1l-.7,2.5l-.8,-2.5l-4.1,-14.1l-.3,-1h1l.8,.6L474,824l-1.5,.4V824l4.1,-14.1l1.4,.4l-.7,.6h-4Z" class="g3_2564"/>
<path d="M469.1,810.9h4.2v-1.6h-4.2v1.6Z" class="g3_2564"/>
<path fill-rule="evenodd" d="M473.3,810.1h4l-4,14.1l-4.2,-14.1Z" class="g3_2564"/>
<path d="M616.1,739.5h.7V700.3h-.7v39.2Z" class="g3_2564"/>
<path d="M472.9,739.5H616.5v-.8H472.9v.8Z" class="g3_2564"/>
<path d="M472.9,809.7h.7V739.1h-.7v70.6Z" class="g3_2564"/>
<path d="M554.6,809.3h5l-.3,1L554.6,827l-4.8,-16.7l-.3,-1h1l.8,.6l4,14.1l-1.5,.4V824l4.1,-14.1l1.4,.4l-.7,.6h-4Z" class="g3_2564"/>
<path d="M550.5,810.9h4.1v-1.6h-4.1v1.6Z" class="g3_2564"/>
<path fill-rule="evenodd" d="M554.6,810.1h4l-4,14.1l-4.1,-14.1Z" class="g3_2564"/>
<path d="M656.5,701h.8v-.4h-.8v.4Z" class="g3_2564"/>
<path d="M657.3,701l-.3,45.9v.4h-.4l-.4,-.4l.3,-45.9Z" class="g3_2564"/>
<path d="M554.2,747.3H656.6v-.8H554.2v.8Z" class="g3_2564"/>
<path d="M554.2,809.7h.8V746.9h-.8v62.8Z" class="g3_2564"/>
<path d="M632.5,809.3h5l-.2,1L632.5,827l-4.8,-16.7l-.2,-1h1l.7,.6l4,14.1l-1.4,.4V824l4,-14.1l1.5,.4l-.8,.6h-4Z" class="g3_2564"/>
<path d="M628.5,810.9h4v-1.6h-4v1.6Z" class="g3_2564"/>
<path fill-rule="evenodd" d="M632.5,810.1h4l-4,14.1l-4,-14.1Z" class="g3_2564"/>
<path d="M698.6,700.4h.7v-.3h-.7v.3Z" class="g3_2564"/>
<path d="M699.3,700.4l-.2,53.5v.3h-.4l-.4,-.3l.3,-53.5Z" class="g3_2564"/>
<path d="M632.1,754.2h66.6v-.7H632.1v.7Z" class="g3_2564"/>
<path d="M632.1,809.7h.8V753.9h-.8v55.8Z" class="g3_2564"/>
<path d="M716.2,809.3h5l-.2,1L716.2,827l-4.8,-16.7l-.2,-1h1l.7,.6l4,14.1l-1.4,.4V824l4,-14.1l1.5,.4l-.8,.6h-4Z" class="g3_2564"/>
<path d="M712.2,810.9h4v-1.6h-4v1.6Z" class="g3_2564"/>
<path fill-rule="evenodd" d="M716.2,810.1h4l-4,14.1l-4,-14.1Z" class="g3_2564"/>
<path d="M739,701h.8v-.4H739v.4Z" class="g3_2564"/>
<path d="M739.8,701l-.3,59.6v.3h-.4l-.4,-.3L739,701Z" class="g3_2564"/>
<path d="M715.8,760.9h23.3v-.7H715.8v.7Z" class="g3_2564"/>
<path d="M715.8,809.7h.8V760.6h-.8v49.1Z" class="g3_2564"/>
<path d="M121.3,585.9H447.6V567.3H121.3v18.6Z" class="g1_2564"/>
<path d="M121.3,567.7H448V567H121.3v.7Z" class="g0_2564"/>
<path d="M447.2,586.3h.8v-19h-.8v19Z" class="g0_2564"/>
<path d="M120.9,586.3H447.6v-.7H120.9v.7Z" class="g0_2564"/>
<path d="M120.9,585.9h.7V567h-.7v18.9Z" class="g0_2564"/>
<path d="M468.1,530.9h60.7V517.5H468.1v13.4Z" class="g4_2564"/>
<path d="M468.1,517.8h61.1v-.7H468.1v.7Z" class="g5_2564"/>
<path d="M528.5,531.3h.7V517.5h-.7v13.8Z" class="g5_2564"/>
<path d="M467.8,531.3h61v-.7h-61v.7Z" class="g5_2564"/>
<path d="M467.8,530.9h.7V517.1h-.7v13.8Z" class="g5_2564"/>
<path d="M460.6,572l.2,-.3l-.5,-.4l-.2,.2Z" class="g0_2564"/>
<path d="M448,586.4l-.2,.3l-.6,-.5l.2,-.3Z" class="g0_2564"/>
<path d="M460.6,572l-.5,-.5l-12.7,14.4l.6,.5Z" class="g0_2564"/>
<path d="M550.8,517.5h60.7V504H550.8v13.5Z" class="g4_2564"/>
<path d="M550.8,504.3h61.1v-.7H550.8v.7Z" class="g5_2564"/>
<path d="M611.1,517.8h.8V504h-.8v13.8Z" class="g5_2564"/>
<path d="M550.5,517.8h61v-.7h-61v.7Z" class="g5_2564"/>
<path d="M550.5,517.5h.7V503.6h-.7v13.9Z" class="g5_2564"/>
<path d="M631.5,504.3h60.8V490.8H631.5v13.5Z" class="g4_2564"/>
<path d="M631.5,491.2h61.1v-.8H631.5v.8Z" class="g5_2564"/>
<path d="M691.9,504.6h.7V490.8h-.7v13.8Z" class="g5_2564"/>
<path d="M631.1,504.6h61.2v-.7H631.1v.7Z" class="g5_2564"/>
<path d="M631.1,504.3h.8V490.4h-.8v13.9Z" class="g5_2564"/>
<path d="M715.1,490.5h60.7V477H715.1v13.5Z" class="g4_2564"/>
<path d="M715.1,477.4h61v-.7h-61v.7Z" class="g5_2564"/>
<path d="M775.4,490.9h.7V477h-.7v13.9Z" class="g5_2564"/>
<path d="M714.7,490.9h61.1v-.8H714.7v.8Z" class="g5_2564"/>
<path d="M714.7,490.5h.8V476.7h-.8v13.8Z" class="g5_2564"/>
<path d="M685.5,799h60.7V785.5H685.5V799Z" class="g4_2564"/>
<path d="M685.5,785.9h61v-.8h-61v.8Z" class="g5_2564"/>
<path d="M745.8,799.3h.7V785.5h-.7v13.8Z" class="g5_2564"/>
<path d="M685.1,799.3h61.1v-.7H685.1v.7Z" class="g5_2564"/>
<path d="M685.1,799h.8V785.1h-.8V799Z" class="g5_2564"/>
<path d="M605.5,789.2h60.6V775.8H605.5v13.4Z" class="g4_2564"/>
<path d="M605.5,776.1h61v-.7h-61v.7Z" class="g5_2564"/>
<path d="M665.8,789.5h.7V775.8h-.7v13.7Z" class="g5_2564"/>
<path d="M605.1,789.5h61v-.7h-61v.7Z" class="g5_2564"/>
<path d="M605.1,789.2h.7V775.4h-.7v13.8Z" class="g5_2564"/>
<path d="M523.7,776h60.8V762.6H523.7V776Z" class="g4_2564"/>
<path d="M523.7,762.9h61.1v-.7H523.7v.7Z" class="g5_2564"/>
<path d="M584.1,776.4h.7V762.6h-.7v13.8Z" class="g5_2564"/>
<path d="M523.3,776.4h61.2v-.7H523.3v.7Z" class="g5_2564"/>
<path d="M523.3,776h.8V762.2h-.8V776Z" class="g5_2564"/>
<path d="M443.1,764.6h60.7V751.1H443.1v13.5Z" class="g4_2564"/>
<path d="M443.1,751.5h61.1v-.8H443.1v.8Z" class="g5_2564"/>
<path d="M503.4,765h.8V751.1h-.8V765Z" class="g5_2564"/>
<path d="M442.7,765h61.1v-.8H442.7v.8Z" class="g5_2564"/>
<path d="M442.7,764.6h.8V750.7h-.8v13.9Z" class="g5_2564"/>
<path d="M361.9,807.5h60.8V794.1H361.9v13.4Z" class="g4_2564"/>
<path d="M361.9,794.5H423v-.8H361.9v.8Z" class="g5_2564"/>
<path d="M422.3,807.9h.7V794.1h-.7v13.8Z" class="g5_2564"/>
<path d="M361.5,807.9h61.2v-.8H361.5v.8Z" class="g5_2564"/>
<path d="M361.5,807.5h.8V793.7h-.8v13.8Z" class="g5_2564"/>
<path d="M279.6,796h60.8V782.7H279.6V796Z" class="g4_2564"/>
<path d="M279.6,783h61.1v-.7H279.6v.7Z" class="g5_2564"/>
<path d="M340,796.4h.7V782.7H340v13.7Z" class="g5_2564"/>
<path d="M279.2,796.4h61.2v-.7H279.2v.7Z" class="g5_2564"/>
<path d="M279.2,796h.7V782.3h-.7V796Z" class="g5_2564"/>
<path d="M198.5,782.3h60.7V768.9H198.5v13.4Z" class="g4_2564"/>
<path d="M198.5,769.3h61.1v-.8H198.5v.8Z" class="g5_2564"/>
<path d="M258.9,782.7h.7V768.9h-.7v13.8Z" class="g5_2564"/>
<path d="M198.1,782.7h61.1v-.8H198.1v.8Z" class="g5_2564"/>
<path d="M198.1,782.3h.7V768.5h-.7v13.8Z" class="g5_2564"/>
<path d="M117.9,769.2h60.7V755.7H117.9v13.5Z" class="g4_2564"/>
<path d="M117.9,756.1h61v-.8h-61v.8Z" class="g5_2564"/>
<path d="M178.2,769.5h.7V755.7h-.7v13.8Z" class="g5_2564"/>
<path d="M117.5,769.5h61.1v-.7H117.5v.7Z" class="g5_2564"/>
<path d="M117.5,769.2h.8V755.3h-.8v13.9Z" class="g5_2564"/>
</svg>