<?xml version="1.0" encoding="UTF-8" standalone="no"?>
<!DOCTYPE svg PUBLIC "-//W3C//DTD SVG 1.1//EN"
"http://www.w3.org/Graphics/SVG/1.1/DTD/svg11.dtd">
<svg viewBox="0 0 935 1210" version="1.1" xmlns="http://www.w3.org/2000/svg" xmlns:xlink="http://www.w3.org/1999/xlink">
<defs>
<clipPath id="c0_3255"><path d="M766.6,59.2V41.4h72.2V59.2Z"/></clipPath>
<style type="text/css"><![CDATA[
.g0_3255{
fill: #000;
}
]]></style>
</defs>
<path d="M97.4,63.3H839.9v-.4H97.4v.4Z" class="g0_3255"/>
<path d="M96.1,1114.5h.2v-.4h-.2v.4Z" class="g0_3255"/>
<path d="M96.3,1114.5H838.9v-.4H96.3v.4Z" class="g0_3255"/>
<image clip-path="url(#c0_3255)" preserveAspectRatio="none" x="767" y="41" width="72" height="18" xlink:href="img/1.jpg"/>
<path d="M95.9,360.2h.7v-180h-.7v180Z" class="g0_3255"/>
<path d="M261,331.9h.7V177.2H261V331.9Z" class="g0_3255"/>
<path d="M317.5,331.9h.8V177.2h-.8V331.9Z" class="g0_3255"/>
<path d="M838.4,360.2h.7v-180h-.7v180Z" class="g0_3255"/>
<path d="M95.9,180.3H839.1v-3H95.9v3Z" class="g0_3255"/>
<path d="M95.9,210.8H839.1v-3H95.9v3Z" class="g0_3255"/>
<path d="M95.9,240.3H839.1v-.8H95.9v.8Z" class="g0_3255"/>
<path d="M95.9,270.8H839.1v-.7H95.9v.7Z" class="g0_3255"/>
<path d="M95.9,301.3H839.1v-.7H95.9v.7Z" class="g0_3255"/>
<path d="M95.9,331.9H839.1v-.7H95.9v.7Z" class="g0_3255"/>
<path d="M95.9,360.9H839.1v-.7H95.9v.7Z" class="g0_3255"/>
<path d="M95.9,500.7h.7V420.1h-.7v80.6Z" class="g0_3255"/>
<path d="M247.1,501.5h.8V417.1h-.8v84.4Z" class="g0_3255"/>
<path d="M292.2,501.5h.8V417.1h-.8v84.4Z" class="g0_3255"/>
<path d="M350.5,501.5h.8V417.1h-.8v84.4Z" class="g0_3255"/>
<path d="M428.6,501.5h.8V417.1h-.8v84.4Z" class="g0_3255"/>
<path d="M840,500.7h.8V420.1H840v80.6Z" class="g0_3255"/>
<path d="M95.9,420.2H840.8v-3H95.9v3Z" class="g0_3255"/>
<path d="M95.9,462.9H840.8v-3H95.9v3Z" class="g0_3255"/>
<path d="M95.9,501.5H840.8v-.7H95.9v.7Z" class="g0_3255"/>
</svg>