<?xml version="1.0" encoding="UTF-8" standalone="no"?>
<!DOCTYPE svg PUBLIC "-//W3C//DTD SVG 1.1//EN"
"http://www.w3.org/Graphics/SVG/1.1/DTD/svg11.dtd">
<svg viewBox="0 0 825 990" version="1.1" xmlns="http://www.w3.org/2000/svg" xmlns:xlink="http://www.w3.org/1999/xlink">
<defs>
<style type="text/css"><![CDATA[
.g0_911{
fill: #000;
}
]]></style>
</defs>
<path d="M94.9,910.3h.3v-.8h-.3v.8Z" class="g0_911"/>
<path d="M95.2,910.3h650v-.8H95.2v.8Z" class="g0_911"/>
<path d="M159.5,150.6H744.9v-.7H159.5v.7Z" class="g0_911"/>
<path d="M159.5,185.8H744.9v-.7H159.5v.7Z" class="g0_911"/>
<path d="M159.5,214.5H744.9v-.2H159.5v.2Z" class="g0_911"/>
<path d="M159.5,243.6H744.9v-.2H159.5v.2Z" class="g0_911"/>
<path d="M159.5,272.6H744.9v-.2H159.5v.2Z" class="g0_911"/>
<path d="M159.5,301.6H744.9v-.2H159.5v.2Z" class="g0_911"/>
<path d="M159.5,330.6H744.9v-.1H159.5v.1Z" class="g0_911"/>
<path d="M159.5,359.7H744.9v-.2H159.5v.2Z" class="g0_911"/>
<path d="M159.5,388.7H744.9v-.2H159.5v.2Z" class="g0_911"/>
<path d="M159.5,417.7H744.9v-.2H159.5v.2Z" class="g0_911"/>
<path d="M159.5,446.8H744.9v-.2H159.5v.2Z" class="g0_911"/>
<path d="M159.5,475.7H744.9v-.1H159.5v.1Z" class="g0_911"/>
<path d="M159.5,504.8H744.9v-.2H159.5v.2Z" class="g0_911"/>
<path d="M159.5,533.9H744.9v-.2H159.5v.2Z" class="g0_911"/>
<path d="M159.5,563.1H744.9v-.7H159.5v.7Z" class="g0_911"/>
<path d="M452.7,639.6H744.9v-.8H452.7v.8Z" class="g0_911"/>
<path d="M452.7,674.7H744.9v-.8H452.7v.8Z" class="g0_911"/>
<path d="M452.7,703.5H744.9v-.2H452.7v.2Z" class="g0_911"/>
<path d="M452.7,732.4H744.9v-.2H452.7v.2Z" class="g0_911"/>
<path d="M452.7,761.8H744.9V761H452.7v.8Z" class="g0_911"/>
</svg>