<?xml version="1.0" encoding="UTF-8" standalone="no"?>
<!DOCTYPE svg PUBLIC "-//W3C//DTD SVG 1.1//EN"
"http://www.w3.org/Graphics/SVG/1.1/DTD/svg11.dtd">
<svg viewBox="0 0 935 1210" version="1.1" xmlns="http://www.w3.org/2000/svg" xmlns:xlink="http://www.w3.org/1999/xlink">
<defs>
<clipPath id="c0_2246"><path d="M766.6,59.2V41.4h72.2V59.2Z"/></clipPath>
<style type="text/css"><![CDATA[
.g0_2246{
fill: #000;
}
]]></style>
</defs>
<path d="M97.4,63.3H839.9v-.4H97.4v.4Z" class="g0_2246"/>
<path d="M96.1,1114.5h.2v-.4h-.2v.4Z" class="g0_2246"/>
<path d="M96.3,1114.5H838.9v-.4H96.3v.4Z" class="g0_2246"/>
<image clip-path="url(#c0_2246)" preserveAspectRatio="none" x="767" y="41" width="72" height="18" xlink:href="img/1.jpg"/>
<path d="M563.8,936h31.4v-1.1H563.8V936Z" class="g0_2246"/>
<path d="M687.8,936h20.3v-1.1H687.8V936Z" class="g0_2246"/>
<path d="M708.1,936h8.5v-1.1h-8.5V936Z" class="g0_2246"/>
<path d="M563.8,958.9h31.4v-1.1H563.8v1.1Z" class="g0_2246"/>
<path d="M687.8,958.9h20.3v-1.1H687.8v1.1Z" class="g0_2246"/>
<path d="M708.1,958.9h8.5v-1.1h-8.5v1.1Z" class="g0_2246"/>
<path d="M95.9,728.4h.7V637.5h-.7v90.9Z" class="g0_2246"/>
<path d="M238,729.1h.7V636.7H238v92.4Z" class="g0_2246"/>
<path d="M315.2,729.1h.8V636.7h-.8v92.4Z" class="g0_2246"/>
<path d="M839.1,728.4h.7V637.5h-.7v90.9Z" class="g0_2246"/>
<path d="M95.9,637.4h744v-.7H95.9v.7Z" class="g0_2246"/>
<path d="M95.9,661.6h744v-3.1H95.9v3.1Z" class="g0_2246"/>
<path d="M95.9,683.3h744v-.8H95.9v.8Z" class="g0_2246"/>
<path d="M95.9,706.2h744v-.7H95.9v.7Z" class="g0_2246"/>
<path d="M95.9,729.1h744v-.7H95.9v.7Z" class="g0_2246"/>
</svg>