<?xml version="1.0" encoding="UTF-8" standalone="no"?>
<!DOCTYPE svg PUBLIC "-//W3C//DTD SVG 1.1//EN"
"http://www.w3.org/Graphics/SVG/1.1/DTD/svg11.dtd">
<svg viewBox="0 0 935 1210" version="1.1" xmlns="http://www.w3.org/2000/svg" xmlns:xlink="http://www.w3.org/1999/xlink">
<defs>
<style type="text/css"><![CDATA[
.g0_172{
fill: #000;
}
]]></style>
</defs>
<path d="M116.6,172.4h.4V145.3h-.4v27.1Z" class="g0_172"/>
<path d="M182.6,172.8h.4V144.9h-.4v27.9Z" class="g0_172"/>
<path d="M626,172.8h.4V144.9H626v27.9Z" class="g0_172"/>
<path d="M673.7,172.8h.3V144.9h-.3v27.9Z" class="g0_172"/>
<path d="M728.7,172.8h.3V144.9h-.3v27.9Z" class="g0_172"/>
<path d="M818,172.4h.4V145.3H818v27.1Z" class="g0_172"/>
<path d="M116.6,145.3H818.4v-.4H116.6v.4Z" class="g0_172"/>
<path d="M116.6,172.8H818.4v-.4H116.6v.4Z" class="g0_172"/>
<path d="M95.9,711.6h.7V215.8h-.7V711.6Z" class="g0_172"/>
<path d="M192.1,712.3h.8V242.6h-.8V712.3Z" class="g0_172"/>
<path d="M260.9,712.3h.7V215.1h-.7V712.3Z" class="g0_172"/>
<path d="M590.9,712.3h.7V215.1h-.7V712.3Z" class="g0_172"/>
<path d="M659.6,712.3h.8V215.1h-.8V712.3Z" class="g0_172"/>
<path d="M742.1,712.3h.8V215.1h-.8V712.3Z" class="g0_172"/>
<path d="M838.4,711.6h.7V215.8h-.7V711.6Z" class="g0_172"/>
<path d="M95.9,215.8H839.1v-.7H95.9v.7Z" class="g0_172"/>
<path d="M95.9,243.3H261.6v-.7H95.9v.7Z" class="g0_172"/>
<path d="M96.6,268.9H838.4v-.8H96.6v.8Z" class="g0_172"/>
<path d="M96.6,272.7H838.4V272H96.6v.7Z" class="g0_172"/>
<path d="M95.9,312H839.1v-.7H95.9v.7Z" class="g0_172"/>
<path d="M95.9,336.5H839.1v-.7H95.9v.7Z" class="g0_172"/>
<path d="M95.9,613H839.1v-.8H95.9v.8Z" class="g0_172"/>
<path d="M95.9,671.1H839.1v-.7H95.9v.7Z" class="g0_172"/>
<path d="M95.9,712.3H839.1v-.7H95.9v.7Z" class="g0_172"/>
</svg>