<?xml version="1.0" encoding="UTF-8" standalone="no"?>
<!DOCTYPE svg PUBLIC "-//W3C//DTD SVG 1.1//EN"
"http://www.w3.org/Graphics/SVG/1.1/DTD/svg11.dtd">
<svg viewBox="0 0 935 1210" version="1.1" xmlns="http://www.w3.org/2000/svg" xmlns:xlink="http://www.w3.org/1999/xlink">
<defs>
<style type="text/css"><![CDATA[
.g0_110{
fill: #FFF;
}
.g1_110{
fill: #000;
}
]]></style>
</defs>
<path d="M68.8,1149.3H852.5v-21.2H68.8v21.2Z" class="g0_110"/>
<path d="M68.6,1081.3h.7V142.4h-.7v938.9Z" class="g1_110"/>
<path d="M125.3,1082.1h.7V183h-.7v899.1Z" class="g1_110"/>
<path d="M182.1,1082.1h.7V141.7h-.7v940.4Z" class="g1_110"/>
<path d="M422,1082.1h.8V141.7H422v940.4Z" class="g1_110"/>
<path d="M515.2,1082.1h.7V141.7h-.7v940.4Z" class="g1_110"/>
<path d="M848.5,1081.3h.7V142.4h-.7v938.9Z" class="g1_110"/>
<path d="M68.6,142.4H849.2v-.7H68.6v.7Z" class="g1_110"/>
<path d="M68.6,183.7H182.8V183H68.6v.7Z" class="g1_110"/>
<path d="M68.6,208.2H849.2v-.8H68.6v.8Z" class="g1_110"/>
<path d="M68.6,254H849.2v-.7H68.6v.7Z" class="g1_110"/>
<path d="M182.1,299.8H849.2v-.7H182.1v.7Z" class="g1_110"/>
<path d="M182.1,429.7H849.2V429H182.1v.7Z" class="g1_110"/>
<path d="M182.1,590.2H849.2v-.8H182.1v.8Z" class="g1_110"/>
<path d="M68.6,614.5H849.2v-.7H68.6v.7Z" class="g1_110"/>
<path d="M68.6,660.4H849.2v-.8H68.6v.8Z" class="g1_110"/>
<path d="M68.6,706.2H849.2v-.7H68.6v.7Z" class="g1_110"/>
<path d="M68.6,752H849.2v-.7H68.6v.7Z" class="g1_110"/>
<path d="M182.1,814.7H849.2V814H182.1v.7Z" class="g1_110"/>
<path d="M182.1,1008.7H849.2v-.7H182.1v.7Z" class="g1_110"/>
<path d="M68.6,1033.2H849.2v-.8H68.6v.8Z" class="g1_110"/>
<path d="M68.6,1057.7H849.2v-.8H68.6v.8Z" class="g1_110"/>
<path d="M68.6,1082H849.2v-.7H68.6v.7Z" class="g1_110"/>
</svg>