<?xml version="1.0" encoding="UTF-8" standalone="no"?>
<!DOCTYPE svg PUBLIC "-//W3C//DTD SVG 1.1//EN"
"http://www.w3.org/Graphics/SVG/1.1/DTD/svg11.dtd">
<svg viewBox="0 0 935 1210" version="1.1" xmlns="http://www.w3.org/2000/svg" xmlns:xlink="http://www.w3.org/1999/xlink">
<defs>
<style type="text/css"><![CDATA[
.g0_4205{
fill: #FFF;
}
.g1_4205{
fill: #F8FAFC;
}
.g2_4205{
fill: #000;
}
.g3_4205{
fill: #FFE0D1;
}
.g4_4205{
fill: #E9F3E9;
}
]]></style>
</defs>
<path d="M68.9,1149.3H852.7v-21.2H68.9v21.2Z" class="g0_4205"/>
<path d="M70.3,190.9H175.2V166.6H70.3v24.3Z" class="g1_4205"/>
<path d="M70.3,448.1H175.2V190.9H70.3V448.1Z" class="g1_4205"/>
<path d="M70.3,506.1H175.2v-58H70.3v58Z" class="g1_4205"/>
<path d="M438.1,506.1h97.3v-58H438.1v58Z" class="g1_4205"/>
<path d="M70.3,687.9H175.2V506.1H70.3V687.9Z" class="g1_4205"/>
<path d="M70.3,712.3H175.2V687.9H70.3v24.4Z" class="g1_4205"/>
<path d="M69.9,712h.8V166.9h-.8V712Z" class="g2_4205"/>
<path d="M174.8,712.7h.7V166.2h-.7V712.7Z" class="g2_4205"/>
<path d="M437.7,506.5h.7V447.6h-.7v58.9Z" class="g2_4205"/>
<path d="M535.1,506.5h.7V447.6h-.7v58.9Z" class="g2_4205"/>
<path d="M855.2,712h.8V166.9h-.8V712Z" class="g2_4205"/>
<path d="M69.9,166.9H856v-.7H69.9v.7Z" class="g2_4205"/>
<path d="M69.9,191.3H856v-.7H69.9v.7Z" class="g2_4205"/>
<path d="M69.9,448.4H856v-.7H69.9v.7Z" class="g2_4205"/>
<path d="M69.9,506.5H856v-.8H69.9v.8Z" class="g2_4205"/>
<path d="M69.9,688.2H856v-.7H69.9v.7Z" class="g2_4205"/>
<path d="M69.9,712.7H856V712H69.9v.7Z" class="g2_4205"/>
<path d="M182.3,238.1H308.8V216.7H182.3v21.4Z" class="g3_4205"/>
<path d="M308.8,238.1h63.3V216.7H308.8v21.4Z" class="g3_4205"/>
<path d="M372.1,238.1h63.2V216.7H372.1v21.4Z" class="g3_4205"/>
<path d="M435.3,238.1h63.3V216.7H435.3v21.4Z" class="g3_4205"/>
<path d="M498.6,238.1h63.2V216.7H498.6v21.4Z" class="g3_4205"/>
<path d="M561.8,238.1h63.3V216.7H561.8v21.4Z" class="g3_4205"/>
<path d="M625.1,238.1h63.2V216.7H625.1v21.4Z" class="g3_4205"/>
<path d="M688.3,238.1h63.3V216.7H688.3v21.4Z" class="g3_4205"/>
<path d="M182.3,259.4h63.3V238.1H182.3v21.3Z" class="g3_4205"/>
<path d="M435.3,259.4h63.3V238.1H435.3v21.3Z" class="g4_4205"/>
<path d="M498.6,259.4h63.2V238.1H498.6v21.3Z" class="g4_4205"/>
<path d="M561.8,259.4h63.3V238.1H561.8v21.3Z" class="g4_4205"/>
<path d="M625.1,259.4h63.2V238.1H625.1v21.3Z" class="g4_4205"/>
<path d="M688.3,259.4h63.3V238.1H688.3v21.3Z" class="g4_4205"/>
<path d="M182.3,280.9h63.3V259.4H182.3v21.5Z" class="g3_4205"/>
<path d="M182.3,302.2h63.3V280.9H182.3v21.3Z" class="g3_4205"/>
<path d="M182.3,323.6h63.3V302.2H182.3v21.4Z" class="g3_4205"/>
<path d="M182.3,345h63.3V323.6H182.3V345Z" class="g3_4205"/>
<path d="M182.3,366.4h63.3V345H182.3v21.4Z" class="g3_4205"/>
<path d="M182.3,387.7h63.3V366.4H182.3v21.3Z" class="g3_4205"/>
<path d="M182.3,409.2h63.3V387.8H182.3v21.4Z" class="g3_4205"/>
<path d="M182.3,430.6h63.3V409.2H182.3v21.4Z" class="g3_4205"/>
<path d="M182,430.2h.7V217.1H182V430.2Z" class="g2_4205"/>
<path d="M245.2,430.9h.7V216.3h-.7V430.9Z" class="g2_4205"/>
<path d="M308.5,238.4h.7V216.3h-.7v22.1Z" class="g2_4205"/>
<path d="M371.7,238.4h.7V216.3h-.7v22.1Z" class="g2_4205"/>
<path d="M435,259.9h.7V216.3H435v43.6Z" class="g2_4205"/>
<path d="M498.2,259.9h.7V216.3h-.7v43.6Z" class="g2_4205"/>
<path d="M561.5,259.9h.7V216.3h-.7v43.6Z" class="g2_4205"/>
<path d="M624.7,259.9h.7V216.3h-.7v43.6Z" class="g2_4205"/>
<path d="M688,259.9h.7V216.3H688v43.6Z" class="g2_4205"/>
<path d="M751.2,430.2h.7V217.1h-.7V430.2Z" class="g2_4205"/>
<path d="M182,217.1H751.9v-.8H182v.8Z" class="g2_4205"/>
<path d="M182,238.4H751.9v-.7H182v.7Z" class="g2_4205"/>
<path d="M182,259.8H751.9V259H182v.8Z" class="g2_4205"/>
<path d="M182,281.2H751.9v-.7H182v.7Z" class="g2_4205"/>
<path d="M182,302.6H751.9v-.7H182v.7Z" class="g2_4205"/>
<path d="M182,323.9H751.9v-.7H182v.7Z" class="g2_4205"/>
<path d="M182,345.4H751.9v-.7H182v.7Z" class="g2_4205"/>
<path d="M182,366.8H751.9V366H182v.8Z" class="g2_4205"/>
<path d="M182,388.1H751.9v-.7H182v.7Z" class="g2_4205"/>
<path d="M182,409.6H751.9v-.8H182v.8Z" class="g2_4205"/>
<path d="M182,430.9H751.9v-.7H182v.7Z" class="g2_4205"/>
</svg>