<?xml version="1.0" encoding="UTF-8" standalone="no"?>
<!DOCTYPE svg PUBLIC "-//W3C//DTD SVG 1.1//EN"
"http://www.w3.org/Graphics/SVG/1.1/DTD/svg11.dtd">
<svg viewBox="0 0 935 1210" version="1.1" xmlns="http://www.w3.org/2000/svg" xmlns:xlink="http://www.w3.org/1999/xlink">
<defs>
<style type="text/css"><![CDATA[
.g0_179{
fill: #FFF;
}
.g1_179{
fill: #000;
}
]]></style>
</defs>
<path d="M68.9,1149.3H852.7v-21.2H68.9v21.2Z" class="g0_179"/>
<path d="M71.7,868.2h.7v-317h-.7v317Z" class="g1_179"/>
<path d="M373.4,869h.7V550.4h-.7V869Z" class="g1_179"/>
<path d="M850.4,868.2h.7v-317h-.7v317Z" class="g1_179"/>
<path d="M71.6,551.2H851.1v-.7H71.6v.7Z" class="g1_179"/>
<path d="M71.6,575.6H851.1v-.8H71.6v.8Z" class="g1_179"/>
<path d="M71.6,621.4H851.1v-.7H71.6v.7Z" class="g1_179"/>
<path d="M71.6,667.2H851.1v-.7H71.6v.7Z" class="g1_179"/>
<path d="M71.6,820H851.1v-.7H71.6v.7Z" class="g1_179"/>
<path d="M71.6,844.5H851.1v-.7H71.6v.7Z" class="g1_179"/>
<path d="M71.6,868.9H851.1v-.7H71.6v.7Z" class="g1_179"/>
</svg>