<?xml version="1.0" encoding="UTF-8" standalone="no"?>
<!DOCTYPE svg PUBLIC "-//W3C//DTD SVG 1.1//EN"
"http://www.w3.org/Graphics/SVG/1.1/DTD/svg11.dtd">
<svg viewBox="0 0 935 1210" version="1.1" xmlns="http://www.w3.org/2000/svg" xmlns:xlink="http://www.w3.org/1999/xlink">
<defs>
<clipPath id="c0_2004"><path d="M766.6,59.2V41.4h72.2V59.2Z"/></clipPath>
<style type="text/css"><![CDATA[
.g0_2004{
fill: #000;
}
]]></style>
</defs>
<path d="M97.4,63.3H839.9v-.4H97.4v.4Z" class="g0_2004"/>
<path d="M96.1,1114.5h.2v-.4h-.2v.4Z" class="g0_2004"/>
<path d="M96.3,1114.5H838.9v-.4H96.3v.4Z" class="g0_2004"/>
<image clip-path="url(#c0_2004)" preserveAspectRatio="none" x="767" y="41" width="72" height="18" xlink:href="img/1.jpg"/>
<path d="M557,949.8h31.3v-1.1H557v1.1Z" class="g0_2004"/>
<path d="M695.4,949.8h20.3v-1.1H695.4v1.1Z" class="g0_2004"/>
<path d="M95.9,726.8h.7V658.9h-.7v67.9Z" class="g0_2004"/>
<path d="M216,727.7h.7V658.1H216v69.6Z" class="g0_2004"/>
<path d="M293.3,727.7h.8V658.1h-.8v69.6Z" class="g0_2004"/>
<path d="M839.1,726.8h.7V658.9h-.7v67.9Z" class="g0_2004"/>
<path d="M95.9,658.8h744v-.7H95.9v.7Z" class="g0_2004"/>
<path d="M95.9,682.9h744v-3H95.9v3Z" class="g0_2004"/>
<path d="M95.9,704.6h744v-.7H95.9v.7Z" class="g0_2004"/>
<path d="M95.9,727.6h744v-.8H95.9v.8Z" class="g0_2004"/>
</svg>