<?xml version="1.0" encoding="UTF-8" standalone="no"?>
<!DOCTYPE svg PUBLIC "-//W3C//DTD SVG 1.1//EN"
"http://www.w3.org/Graphics/SVG/1.1/DTD/svg11.dtd">
<svg viewBox="0 0 935 1210" version="1.1" xmlns="http://www.w3.org/2000/svg" xmlns:xlink="http://www.w3.org/1999/xlink">
<defs>
<clipPath id="c0_171"><path d="M766.7,59V41.4h72.2V59Z"/></clipPath>
<style type="text/css"><![CDATA[
.g0_171{
fill: #000;
}
.g1_171{
fill: none;
stroke: #000;
stroke-width: 0.763;
}
.g2_171{
fill: #FFF;
}
]]></style>
</defs>
<path d="M97.5,63.1v.3H840v-.3H97.5Z" class="g0_171"/>
<path d="M96.1,1114.3v.3v-.3Z" class="g0_171"/>
<path d="M838.9,1114.3v.3v-.3Z" class="g0_171"/>
<path d="M96.1,1114.3v.3H838.9v-.3H96.1Z" class="g0_171"/>
<image clip-path="url(#c0_171)" preserveAspectRatio="none" x="767" y="41" width="72" height="18" xlink:href="img/1.jpg"/>
<path d="M469.9,218.6H801.4v-31H469.9v31Z" class="g0_171"/>
<path d="M469.9,218.6H801.4v-31H469.9v31Z" class="g1_171"/>
<path d="M469.9,249.5H801.4v-31H469.9v31Z" class="g0_171"/>
<path d="M469.9,249.5H801.4v-31H469.9v31Z" class="g1_171"/>
<path d="M138,249.5H469.5v-31H138v31Z" class="g0_171"/>
<path d="M138,249.5H469.5v-31H138v31Z" class="g1_171"/>
<path d="M635.6,280.5H801.4V249.4H635.6v31.1Z" class="g0_171"/>
<path d="M635.6,280.5H801.4V249.4H635.6v31.1Z" class="g1_171"/>
<path d="M469.9,280.5H635.7V249.4H469.9v31.1Z" class="g0_171"/>
<path d="M469.9,280.5H635.7V249.4H469.9v31.1Z" class="g1_171"/>
<path d="M303.7,280.5H469.5V249.4H303.7v31.1Z" class="g0_171"/>
<path d="M303.7,280.5H469.5V249.4H303.7v31.1Z" class="g1_171"/>
<path d="M138,280.5H303.8V249.4H138v31.1Z" class="g0_171"/>
<path d="M138,280.5H303.8V249.4H138v31.1Z" class="g1_171"/>
<path d="M718.6,311.4h82.8v-31H718.6v31Z" class="g0_171"/>
<path d="M718.6,311.4h82.8v-31H718.6v31Z" class="g1_171"/>
<path d="M635.7,311.4h82.9v-31H635.7v31Z" class="g0_171"/>
<path d="M635.7,311.4h82.9v-31H635.7v31Z" class="g1_171"/>
<path d="M552.8,311.4h82.9v-31H552.8v31Z" class="g0_171"/>
<path d="M552.8,311.4h82.9v-31H552.8v31Z" class="g1_171"/>
<path d="M469.9,311.4h82.9v-31H469.9v31Z" class="g0_171"/>
<path d="M469.9,311.4h82.9v-31H469.9v31Z" class="g1_171"/>
<path d="M386.4,311.4h82.9v-31H386.4v31Z" class="g0_171"/>
<path d="M386.4,311.4h82.9v-31H386.4v31Z" class="g1_171"/>
<path d="M303.6,311.4h82.8v-31H303.6v31Z" class="g0_171"/>
<path d="M303.6,311.4h82.8v-31H303.6v31Z" class="g1_171"/>
<path d="M220.7,311.4h82.9v-31H220.7v31Z" class="g0_171"/>
<path d="M220.7,311.4h82.9v-31H220.7v31Z" class="g1_171"/>
<path d="M137.8,311.4h82.9v-31H137.8v31Z" class="g0_171"/>
<path d="M137.8,311.4h82.9v-31H137.8v31Z" class="g1_171"/>
<path d="M760,342.3h41.4v-31H760v31Z" class="g0_171"/>
<path d="M760,342.3h41.4v-31H760v31Z" class="g1_171"/>
<path d="M718.6,342.3H760v-31H718.6v31Z" class="g0_171"/>
<path d="M718.6,342.3H760v-31H718.6v31Z" class="g1_171"/>
<path d="M677.1,342.3h41.5v-31H677.1v31Z" class="g0_171"/>
<path d="M677.1,342.3h41.5v-31H677.1v31Z" class="g1_171"/>
<path d="M635.7,342.3h41.4v-31H635.7v31Z" class="g0_171"/>
<path d="M635.7,342.3h41.4v-31H635.7v31Z" class="g1_171"/>
<path d="M594.2,342.3h41.5v-31H594.2v31Z" class="g0_171"/>
<path d="M594.2,342.3h41.5v-31H594.2v31Z" class="g1_171"/>
<path d="M552.8,342.3h41.4v-31H552.8v31Z" class="g0_171"/>
<path d="M552.8,342.3h41.4v-31H552.8v31Z" class="g1_171"/>
<path d="M511,342.3h41.8v-31H511v31Z" class="g0_171"/>
<path d="M511,342.3h41.8v-31H511v31Z" class="g1_171"/>
<path d="M469.5,342.3H511v-31H469.5v31Z" class="g0_171"/>
<path d="M469.5,342.3H511v-31H469.5v31Z" class="g1_171"/>
<path d="M428.2,342.3h41.4v-31H428.2v31Z" class="g0_171"/>
<path d="M428.2,342.3h41.4v-31H428.2v31Z" class="g1_171"/>
<path d="M386.8,342.3h41.4v-31H386.8v31Z" class="g0_171"/>
<path d="M386.8,342.3h41.4v-31H386.8v31Z" class="g1_171"/>
<path d="M345.3,342.3h41.5v-31H345.3v31Z" class="g0_171"/>
<path d="M345.3,342.3h41.5v-31H345.3v31Z" class="g1_171"/>
<path d="M303.9,342.3h41.4v-31H303.9v31Z" class="g0_171"/>
<path d="M303.9,342.3h41.4v-31H303.9v31Z" class="g1_171"/>
<path d="M262.4,342.3h41.5v-31H262.4v31Z" class="g0_171"/>
<path d="M262.4,342.3h41.5v-31H262.4v31Z" class="g1_171"/>
<path d="M221,342.3h41.4v-31H221v31Z" class="g0_171"/>
<path d="M221,342.3h41.4v-31H221v31Z" class="g1_171"/>
<path d="M179.2,342.3H221v-31H179.2v31Z" class="g0_171"/>
<path d="M179.2,342.3H221v-31H179.2v31Z" class="g1_171"/>
<path d="M137.7,342.3h41.5v-31H137.7v31Z" class="g0_171"/>
<path d="M137.7,342.3h41.5v-31H137.7v31Z" class="g1_171"/>
<path d="M467.7,247.3H799.2v-31H467.7v31Z" class="g2_171"/>
<path d="M467.7,247.3H799.2v-31H467.7v31Z" class="g1_171"/>
<path d="M135.8,216.4H799.2v-31H135.8v31Z" class="g2_171"/>
<path d="M135.8,216.4H799.2v-31H135.8v31Z" class="g1_171"/>
<path d="M135.8,247.3H467.3v-31H135.8v31Z" class="g2_171"/>
<path d="M135.8,247.3H467.3v-31H135.8v31Z" class="g1_171"/>
<path d="M633.4,278.3H799.2v-31H633.4v31Z" class="g2_171"/>
<path d="M633.4,278.3H799.2v-31H633.4v31Z" class="g1_171"/>
<path d="M467.7,278.3H633.5v-31H467.7v31Z" class="g2_171"/>
<path d="M467.7,278.3H633.5v-31H467.7v31Z" class="g1_171"/>
<path d="M301.5,278.3H467.3v-31H301.5v31Z" class="g2_171"/>
<path d="M301.5,278.3H467.3v-31H301.5v31Z" class="g1_171"/>
<path d="M135.8,278.3H301.6v-31H135.8v31Z" class="g2_171"/>
<path d="M135.8,278.3H301.6v-31H135.8v31Z" class="g1_171"/>
<path d="M716.4,309.2h82.8v-31H716.4v31Z" class="g2_171"/>
<path d="M716.4,309.2h82.8v-31H716.4v31Z" class="g1_171"/>
<path d="M633.5,309.2h82.9v-31H633.5v31Z" class="g2_171"/>
<path d="M633.5,309.2h82.9v-31H633.5v31Z" class="g1_171"/>
<path d="M550.6,309.2h82.9v-31H550.6v31Z" class="g2_171"/>
<path d="M550.6,309.2h82.9v-31H550.6v31Z" class="g1_171"/>
<path d="M467.7,309.2h82.9v-31H467.7v31Z" class="g2_171"/>
<path d="M467.7,309.2h82.9v-31H467.7v31Z" class="g1_171"/>
<path d="M384.2,309.2h82.9v-31H384.2v31Z" class="g2_171"/>
<path d="M384.2,309.2h82.9v-31H384.2v31Z" class="g1_171"/>
<path d="M301.4,309.2h82.8v-31H301.4v31Z" class="g2_171"/>
<path d="M301.4,309.2h82.8v-31H301.4v31Z" class="g1_171"/>
<path d="M218.5,309.2h82.9v-31H218.5v31Z" class="g2_171"/>
<path d="M218.5,309.2h82.9v-31H218.5v31Z" class="g1_171"/>
<path d="M135.6,309.2h82.9v-31H135.6v31Z" class="g2_171"/>
<path d="M135.6,309.2h82.9v-31H135.6v31Z" class="g1_171"/>
<path d="M757.8,340.1h41.4v-31H757.8v31Z" class="g2_171"/>
<path d="M757.8,340.1h41.4v-31H757.8v31Z" class="g1_171"/>
<path d="M716.4,340.1h41.4v-31H716.4v31Z" class="g2_171"/>
<path d="M716.4,340.1h41.4v-31H716.4v31Z" class="g1_171"/>
<path d="M674.9,340.1h41.5v-31H674.9v31Z" class="g2_171"/>
<path d="M674.9,340.1h41.5v-31H674.9v31Z" class="g1_171"/>
<path d="M633.5,340.1h41.4v-31H633.5v31Z" class="g2_171"/>
<path d="M633.5,340.1h41.4v-31H633.5v31Z" class="g1_171"/>
<path d="M592,340.1h41.5v-31H592v31Z" class="g2_171"/>
<path d="M592,340.1h41.5v-31H592v31Z" class="g1_171"/>
<path d="M550.6,340.1H592v-31H550.6v31Z" class="g2_171"/>
<path d="M550.6,340.1H592v-31H550.6v31Z" class="g1_171"/>
<path d="M508.8,340.1h41.8v-31H508.8v31Z" class="g2_171"/>
<path d="M508.8,340.1h41.8v-31H508.8v31Z" class="g1_171"/>
<path d="M467.3,340.1h41.5v-31H467.3v31Z" class="g2_171"/>
<path d="M467.3,340.1h41.5v-31H467.3v31Z" class="g1_171"/>
<path d="M426,340.1h41.4v-31H426v31Z" class="g2_171"/>
<path d="M426,340.1h41.4v-31H426v31Z" class="g1_171"/>
<path d="M384.6,340.1H426v-31H384.6v31Z" class="g2_171"/>
<path d="M384.6,340.1H426v-31H384.6v31Z" class="g1_171"/>
<path d="M343.1,340.1h41.5v-31H343.1v31Z" class="g2_171"/>
<path d="M343.1,340.1h41.5v-31H343.1v31Z" class="g1_171"/>
<path d="M301.7,340.1h41.4v-31H301.7v31Z" class="g2_171"/>
<path d="M301.7,340.1h41.4v-31H301.7v31Z" class="g1_171"/>
<path d="M260.2,340.1h41.5v-31H260.2v31Z" class="g2_171"/>
<path d="M260.2,340.1h41.5v-31H260.2v31Z" class="g1_171"/>
<path d="M218.8,340.1h41.4v-31H218.8v31Z" class="g2_171"/>
<path d="M218.8,340.1h41.4v-31H218.8v31Z" class="g1_171"/>
<path d="M177,340.1h41.8v-31H177v31Z" class="g2_171"/>
<path d="M177,340.1h41.8v-31H177v31Z" class="g1_171"/>
<path d="M135.5,340.1H177v-31H135.5v31Z" class="g2_171"/>
<path d="M135.5,340.1H177v-31H135.5v31Z" class="g1_171"/>
<path d="M469.9,406.5H801.4v-31H469.9v31Z" class="g0_171"/>
<path d="M469.9,406.5H801.4v-31H469.9v31Z" class="g1_171"/>
<path d="M469.9,437.5H801.4V406.4H469.9v31.1Z" class="g0_171"/>
<path d="M469.9,437.5H801.4V406.4H469.9v31.1Z" class="g1_171"/>
<path d="M138,437.5H469.5V406.4H138v31.1Z" class="g0_171"/>
<path d="M138,437.5H469.5V406.4H138v31.1Z" class="g1_171"/>
<path d="M635.6,468.4H801.4v-31H635.6v31Z" class="g0_171"/>
<path d="M635.6,468.4H801.4v-31H635.6v31Z" class="g1_171"/>
<path d="M469.9,468.4H635.7v-31H469.9v31Z" class="g0_171"/>
<path d="M469.9,468.4H635.7v-31H469.9v31Z" class="g1_171"/>
<path d="M303.7,468.4H469.5v-31H303.7v31Z" class="g0_171"/>
<path d="M303.7,468.4H469.5v-31H303.7v31Z" class="g1_171"/>
<path d="M138,468.4H303.8v-31H138v31Z" class="g0_171"/>
<path d="M138,468.4H303.8v-31H138v31Z" class="g1_171"/>
<path d="M718.6,499.3h82.8v-31H718.6v31Z" class="g0_171"/>
<path d="M718.6,499.3h82.8v-31H718.6v31Z" class="g1_171"/>
<path d="M635.7,499.3h82.9v-31H635.7v31Z" class="g0_171"/>
<path d="M635.7,499.3h82.9v-31H635.7v31Z" class="g1_171"/>
<path d="M552.8,499.3h82.9v-31H552.8v31Z" class="g0_171"/>
<path d="M552.8,499.3h82.9v-31H552.8v31Z" class="g1_171"/>
<path d="M469.9,499.3h82.9v-31H469.9v31Z" class="g0_171"/>
<path d="M469.9,499.3h82.9v-31H469.9v31Z" class="g1_171"/>
<path d="M386.4,499.3h82.9v-31H386.4v31Z" class="g0_171"/>
<path d="M386.4,499.3h82.9v-31H386.4v31Z" class="g1_171"/>
<path d="M303.6,499.3h82.8v-31H303.6v31Z" class="g0_171"/>
<path d="M303.6,499.3h82.8v-31H303.6v31Z" class="g1_171"/>
<path d="M220.7,499.3h82.9v-31H220.7v31Z" class="g0_171"/>
<path d="M220.7,499.3h82.9v-31H220.7v31Z" class="g1_171"/>
<path d="M137.8,499.3h82.9v-31H137.8v31Z" class="g0_171"/>
<path d="M137.8,499.3h82.9v-31H137.8v31Z" class="g1_171"/>
<path d="M760,530.3h41.4v-31H760v31Z" class="g0_171"/>
<path d="M760,530.3h41.4v-31H760v31Z" class="g1_171"/>
<path d="M718.6,530.3H760v-31H718.6v31Z" class="g0_171"/>
<path d="M718.6,530.3H760v-31H718.6v31Z" class="g1_171"/>
<path d="M677.1,530.3h41.5v-31H677.1v31Z" class="g0_171"/>
<path d="M677.1,530.3h41.5v-31H677.1v31Z" class="g1_171"/>
<path d="M635.7,530.3h41.4v-31H635.7v31Z" class="g0_171"/>
<path d="M635.7,530.3h41.4v-31H635.7v31Z" class="g1_171"/>
<path d="M594.2,530.3h41.5v-31H594.2v31Z" class="g0_171"/>
<path d="M594.2,530.3h41.5v-31H594.2v31Z" class="g1_171"/>
<path d="M552.8,530.3h41.4v-31H552.8v31Z" class="g0_171"/>
<path d="M552.8,530.3h41.4v-31H552.8v31Z" class="g1_171"/>
<path d="M511,530.3h41.8v-31H511v31Z" class="g0_171"/>
<path d="M511,530.3h41.8v-31H511v31Z" class="g1_171"/>
<path d="M469.5,530.3H511v-31H469.5v31Z" class="g0_171"/>
<path d="M469.5,530.3H511v-31H469.5v31Z" class="g1_171"/>
<path d="M428.2,530.3h41.4v-31H428.2v31Z" class="g0_171"/>
<path d="M428.2,530.3h41.4v-31H428.2v31Z" class="g1_171"/>
<path d="M386.8,530.3h41.4v-31H386.8v31Z" class="g0_171"/>
<path d="M386.8,530.3h41.4v-31H386.8v31Z" class="g1_171"/>
<path d="M345.3,530.3h41.5v-31H345.3v31Z" class="g0_171"/>
<path d="M345.3,530.3h41.5v-31H345.3v31Z" class="g1_171"/>
<path d="M303.9,530.3h41.4v-31H303.9v31Z" class="g0_171"/>
<path d="M303.9,530.3h41.4v-31H303.9v31Z" class="g1_171"/>
<path d="M262.4,530.3h41.5v-31H262.4v31Z" class="g0_171"/>
<path d="M262.4,530.3h41.5v-31H262.4v31Z" class="g1_171"/>
<path d="M221,530.3h41.4v-31H221v31Z" class="g0_171"/>
<path d="M221,530.3h41.4v-31H221v31Z" class="g1_171"/>
<path d="M179.2,530.3H221v-31H179.2v31Z" class="g0_171"/>
<path d="M179.2,530.3H221v-31H179.2v31Z" class="g1_171"/>
<path d="M137.7,530.3h41.5v-31H137.7v31Z" class="g0_171"/>
<path d="M137.7,530.3h41.5v-31H137.7v31Z" class="g1_171"/>
<path d="M467.7,435.3H799.2V404.2H467.7v31.1Z" class="g2_171"/>
<path d="M467.7,435.3H799.2V404.2H467.7v31.1Z" class="g1_171"/>
<path d="M135.8,404.3H799.2v-31H135.8v31Z" class="g2_171"/>
<path d="M135.8,404.3H799.2v-31H135.8v31Z" class="g1_171"/>
<path d="M135.8,435.3H467.3V404.2H135.8v31.1Z" class="g2_171"/>
<path d="M135.8,435.3H467.3V404.2H135.8v31.1Z" class="g1_171"/>
<path d="M633.4,466.2H799.2v-31H633.4v31Z" class="g2_171"/>
<path d="M633.4,466.2H799.2v-31H633.4v31Z" class="g1_171"/>
<path d="M467.7,466.2H633.5v-31H467.7v31Z" class="g2_171"/>
<path d="M467.7,466.2H633.5v-31H467.7v31Z" class="g1_171"/>
<path d="M301.5,466.2H467.3v-31H301.5v31Z" class="g2_171"/>
<path d="M301.5,466.2H467.3v-31H301.5v31Z" class="g1_171"/>
<path d="M135.8,466.2H301.6v-31H135.8v31Z" class="g2_171"/>
<path d="M135.8,466.2H301.6v-31H135.8v31Z" class="g1_171"/>
<path d="M716.4,497.1h82.8v-31H716.4v31Z" class="g2_171"/>
<path d="M716.4,497.1h82.8v-31H716.4v31Z" class="g1_171"/>
<path d="M633.5,497.1h82.9v-31H633.5v31Z" class="g2_171"/>
<path d="M633.5,497.1h82.9v-31H633.5v31Z" class="g1_171"/>
<path d="M550.6,497.1h82.9v-31H550.6v31Z" class="g2_171"/>
<path d="M550.6,497.1h82.9v-31H550.6v31Z" class="g1_171"/>
<path d="M467.7,497.1h82.9v-31H467.7v31Z" class="g2_171"/>
<path d="M467.7,497.1h82.9v-31H467.7v31Z" class="g1_171"/>
<path d="M384.2,497.1h82.9v-31H384.2v31Z" class="g2_171"/>
<path d="M384.2,497.1h82.9v-31H384.2v31Z" class="g1_171"/>
<path d="M301.4,497.1h82.8v-31H301.4v31Z" class="g2_171"/>
<path d="M301.4,497.1h82.8v-31H301.4v31Z" class="g1_171"/>
<path d="M218.5,497.1h82.9v-31H218.5v31Z" class="g2_171"/>
<path d="M218.5,497.1h82.9v-31H218.5v31Z" class="g1_171"/>
<path d="M135.6,497.1h82.9v-31H135.6v31Z" class="g2_171"/>
<path d="M135.6,497.1h82.9v-31H135.6v31Z" class="g1_171"/>
<path d="M757.8,528.1h41.4v-31H757.8v31Z" class="g2_171"/>
<path d="M757.8,528.1h41.4v-31H757.8v31Z" class="g1_171"/>
<path d="M716.4,528.1h41.4v-31H716.4v31Z" class="g2_171"/>
<path d="M716.4,528.1h41.4v-31H716.4v31Z" class="g1_171"/>
<path d="M674.9,528.1h41.5v-31H674.9v31Z" class="g2_171"/>
<path d="M674.9,528.1h41.5v-31H674.9v31Z" class="g1_171"/>
<path d="M633.5,528.1h41.4v-31H633.5v31Z" class="g2_171"/>
<path d="M633.5,528.1h41.4v-31H633.5v31Z" class="g1_171"/>
<path d="M592,528.1h41.5v-31H592v31Z" class="g2_171"/>
<path d="M592,528.1h41.5v-31H592v31Z" class="g1_171"/>
<path d="M550.6,528.1H592v-31H550.6v31Z" class="g2_171"/>
<path d="M550.6,528.1H592v-31H550.6v31Z" class="g1_171"/>
<path d="M508.8,528.1h41.8v-31H508.8v31Z" class="g2_171"/>
<path d="M508.8,528.1h41.8v-31H508.8v31Z" class="g1_171"/>
<path d="M467.3,528.1h41.5v-31H467.3v31Z" class="g2_171"/>
<path d="M467.3,528.1h41.5v-31H467.3v31Z" class="g1_171"/>
<path d="M426,528.1h41.4v-31H426v31Z" class="g2_171"/>
<path d="M426,528.1h41.4v-31H426v31Z" class="g1_171"/>
<path d="M384.6,528.1H426v-31H384.6v31Z" class="g2_171"/>
<path d="M384.6,528.1H426v-31H384.6v31Z" class="g1_171"/>
<path d="M343.1,528.1h41.5v-31H343.1v31Z" class="g2_171"/>
<path d="M343.1,528.1h41.5v-31H343.1v31Z" class="g1_171"/>
<path d="M301.7,528.1h41.4v-31H301.7v31Z" class="g2_171"/>
<path d="M301.7,528.1h41.4v-31H301.7v31Z" class="g1_171"/>
<path d="M260.2,528.1h41.5v-31H260.2v31Z" class="g2_171"/>
<path d="M260.2,528.1h41.5v-31H260.2v31Z" class="g1_171"/>
<path d="M218.8,528.1h41.4v-31H218.8v31Z" class="g2_171"/>
<path d="M218.8,528.1h41.4v-31H218.8v31Z" class="g1_171"/>
<path d="M177,528.1h41.8v-31H177v31Z" class="g2_171"/>
<path d="M177,528.1h41.8v-31H177v31Z" class="g1_171"/>
<path d="M135.5,528.1H177v-31H135.5v31Z" class="g2_171"/>
<path d="M135.5,528.1H177v-31H135.5v31Z" class="g1_171"/>
<path d="M468.7,879.8H800.3V858H468.7v21.8Z" class="g0_171"/>
<path d="M468.7,879.8H800.3V858H468.7v21.8Z" class="g1_171"/>
<path d="M136.8,879.8H468.4V858H136.8v21.8Z" class="g0_171"/>
<path d="M136.8,879.8H468.4V858H136.8v21.8Z" class="g1_171"/>
<path d="M134.5,878.3H798.1V856.4H134.5v21.9Z" class="g2_171"/>
<path d="M134.5,878.3H798.1V856.4H134.5v21.9Z" class="g1_171"/>
<path d="M468.7,901.7H800.3V879.9H468.7v21.8Z" class="g0_171"/>
<path d="M468.7,901.7H800.3V879.9H468.7v21.8Z" class="g1_171"/>
<path d="M634.5,923.5H800.3V901.7H634.5v21.8Z" class="g0_171"/>
<path d="M634.5,923.5H800.3V901.7H634.5v21.8Z" class="g1_171"/>
<path d="M717.4,945.3h82.9V923.5H717.4v21.8Z" class="g0_171"/>
<path d="M717.4,945.3h82.9V923.5H717.4v21.8Z" class="g1_171"/>
<path d="M466.5,900.2H798.1V878.3H466.5v21.9Z" class="g2_171"/>
<path d="M466.5,900.2H798.1V878.3H466.5v21.9Z" class="g1_171"/>
<path d="M632.3,922H798.1V900.1H632.3V922Z" class="g2_171"/>
<path d="M632.3,922H798.1V900.1H632.3V922Z" class="g1_171"/>
<path d="M715.2,943.8h82.9V921.9H715.2v21.9Z" class="g2_171"/>
<path d="M715.2,943.8h82.9V921.9H715.2v21.9Z" class="g1_171"/>
<path d="M795.1,988.8h5.1V966.9h-5.1v21.9Z" class="g0_171"/>
<path d="M795.1,988.8h5.1V966.9h-5.1v21.9Z" class="g1_171"/>
<path d="M758.7,967.1h41.5V945.2H758.7v21.9Z" class="g0_171"/>
<path d="M758.7,967.1h41.5V945.2H758.7v21.9Z" class="g1_171"/>
<path d="M756.5,965.5H798V943.7H756.5v21.8Z" class="g2_171"/>
<path d="M756.5,965.5H798V943.7H756.5v21.8Z" class="g1_171"/>
<path d="M792.9,987.2H798V965.4h-5.1v21.8Z" class="g2_171"/>
<path d="M792.9,987.2H798V965.4h-5.1v21.8Z" class="g1_171"/>
<path d="M469.1,724H800.7V702.2H469.1V724Z" class="g0_171"/>
<path d="M469.1,724H800.7V702.2H469.1V724Z" class="g1_171"/>
<path d="M137.2,724H468.8V702.2H137.2V724Z" class="g0_171"/>
<path d="M137.2,724H468.8V702.2H137.2V724Z" class="g1_171"/>
<path d="M134.8,722.7H798.4V700.8H134.8v21.9Z" class="g2_171"/>
<path d="M134.8,722.7H798.4V700.8H134.8v21.9Z" class="g1_171"/>
<path d="M469.1,745.2H800.7V723.3H469.1v21.9Z" class="g0_171"/>
<path d="M469.1,745.2H800.7V723.3H469.1v21.9Z" class="g1_171"/>
<path d="M634.9,767.7H800.7V745.9H634.9v21.8Z" class="g0_171"/>
<path d="M634.9,767.7H800.7V745.9H634.9v21.8Z" class="g1_171"/>
<path d="M717.8,789.5h82.9V767.7H717.8v21.8Z" class="g0_171"/>
<path d="M717.8,789.5h82.9V767.7H717.8v21.8Z" class="g1_171"/>
<path d="M466.9,744.4H798.5V722.5H466.9v21.9Z" class="g2_171"/>
<path d="M466.9,744.4H798.5V722.5H466.9v21.9Z" class="g1_171"/>
<path d="M632.7,766.2H798.5V744.3H632.7v21.9Z" class="g2_171"/>
<path d="M632.7,766.2H798.5V744.3H632.7v21.9Z" class="g1_171"/>
<path d="M715.6,788h82.9V766.1H715.6V788Z" class="g2_171"/>
<path d="M715.6,788h82.9V766.1H715.6V788Z" class="g1_171"/>
<path d="M759.1,811.3h41.5V789.4H759.1v21.9Z" class="g0_171"/>
<path d="M759.1,811.3h41.5V789.4H759.1v21.9Z" class="g1_171"/>
<path d="M756.9,809.7h41.5V787.8H756.9v21.9Z" class="g2_171"/>
<path d="M756.9,809.7h41.5V787.8H756.9v21.9Z" class="g1_171"/>
<path d="M135,722.7h5.5V700.8H135v21.9Z" class="g2_171"/>
<path d="M135,722.7h5.5V700.8H135v21.9Z" class="g1_171"/>
<path d="M467,744.4h5.6V722.5H467v21.9Z" class="g2_171"/>
<path d="M467,744.4h5.6V722.5H467v21.9Z" class="g1_171"/>
<path d="M632.8,766.2h5.6V744.3h-5.6v21.9Z" class="g2_171"/>
<path d="M632.8,766.2h5.6V744.3h-5.6v21.9Z" class="g1_171"/>
<path d="M715.7,787.9h5.5V766.2h-5.5v21.7Z" class="g2_171"/>
<path d="M715.7,787.9h5.5V766.2h-5.5v21.7Z" class="g1_171"/>
<path d="M756.9,809.7h5.5V787.9h-5.5v21.8Z" class="g2_171"/>
<path d="M756.9,809.7h5.5V787.9h-5.5v21.8Z" class="g1_171"/>
<path d="M634.7,650.7H800.5V628.4H634.7v22.3Z" class="g0_171"/>
<path d="M634.7,650.7H800.5V628.4H634.7v22.3Z" class="g1_171"/>
<path d="M634.5,650.7H640V628.4h-5.5v22.3Z" class="g0_171"/>
<path d="M634.5,650.7H640V628.4h-5.5v22.3Z" class="g1_171"/>
<path d="M640.2,650.7h41.5V628.4H640.2v22.3Z" class="g0_171"/>
<path d="M640.2,650.7h41.5V628.4H640.2v22.3Z" class="g1_171"/>
<path d="M468.9,628.2H800.5V605.9H468.9v22.3Z" class="g0_171"/>
<path d="M468.9,628.2H800.5V605.9H468.9v22.3Z" class="g1_171"/>
<path d="M468.7,628.2h5.6V605.9h-5.6v22.3Z" class="g0_171"/>
<path d="M468.7,628.2h5.6V605.9h-5.6v22.3Z" class="g1_171"/>
<path d="M474.2,628.2h47.9V605.9H474.2v22.3Z" class="g0_171"/>
<path d="M474.2,628.2h47.9V605.9H474.2v22.3Z" class="g1_171"/>
<path d="M632.5,649.1H798.3V626.9H632.5v22.2Z" class="g2_171"/>
<path d="M632.5,649.1H798.3V626.9H632.5v22.2Z" class="g1_171"/>
<path d="M632.3,649.1h5.5V626.9h-5.5v22.2Z" class="g2_171"/>
<path d="M632.3,649.1h5.5V626.9h-5.5v22.2Z" class="g1_171"/>
<path d="M638,649.1h41.5V626.9H638v22.2Z" class="g2_171"/>
<path d="M638,649.1h41.5V626.9H638v22.2Z" class="g1_171"/>
<path d="M466.7,626.6H798.3V604.4H466.7v22.2Z" class="g2_171"/>
<path d="M466.7,626.6H798.3V604.4H466.7v22.2Z" class="g1_171"/>
<path d="M466.5,626.6h5.6V604.4h-5.6v22.2Z" class="g2_171"/>
<path d="M466.5,626.6h5.6V604.4h-5.6v22.2Z" class="g1_171"/>
<path d="M472,626.6h47.9V604.4H472v22.2Z" class="g2_171"/>
<path d="M472,626.6h47.9V604.4H472v22.2Z" class="g1_171"/>
</svg>