<?xml version="1.0" encoding="UTF-8" standalone="no"?>
<!DOCTYPE svg PUBLIC "-//W3C//DTD SVG 1.1//EN"
"http://www.w3.org/Graphics/SVG/1.1/DTD/svg11.dtd">
<svg viewBox="0 0 935 1210" version="1.1" xmlns="http://www.w3.org/2000/svg" xmlns:xlink="http://www.w3.org/1999/xlink">
<defs>
<style type="text/css"><![CDATA[
.g0_1840{
fill: #FFF;
}
.g1_1840{
fill: #000;
}
]]></style>
</defs>
<path d="M165,1149.3H852.5v-21.2H165v21.2Z" class="g0_1840"/>
<path d="M68.8,1149.3h82.5v-21.2H68.8v21.2Z" class="g0_1840"/>
<path d="M68.6,285.4h.7V125.7h-.7V285.4Z" class="g1_1840"/>
<path d="M287,179.1h.7V124.9H287v54.2Z" class="g1_1840"/>
<path d="M287,286.1h.7V178.4H287V286.1Z" class="g1_1840"/>
<path d="M329.8,179.1h.8V124.9h-.8v54.2Z" class="g1_1840"/>
<path d="M329.8,286.1h.8V178.4h-.8V286.1Z" class="g1_1840"/>
<path d="M403.2,179.1h.7V124.9h-.7v54.2Z" class="g1_1840"/>
<path d="M403.2,286.1h.7V178.4h-.7V286.1Z" class="g1_1840"/>
<path d="M528,286.1h.7V124.9H528V286.1Z" class="g1_1840"/>
<path d="M850.8,285.4h.7V125.7h-.7V285.4Z" class="g1_1840"/>
<path d="M68.6,125.7H851.5v-.8H68.6v.8Z" class="g1_1840"/>
<path d="M68.6,179.1H528.7v-.7H68.6v.7Z" class="g1_1840"/>
<path d="M528,179.1H851.5v-.7H528v.7Z" class="g1_1840"/>
<path d="M68.6,286.1H528v-.7H68.6v.7Z" class="g1_1840"/>
<path d="M528.7,286.1H851.5v-.7H528.7v.7Z" class="g1_1840"/>
<path d="M68.6,389.2h.7V341.1h-.7v48.1Z" class="g1_1840"/>
<path d="M134.3,389.9h.7V340.4h-.7v49.5Z" class="g1_1840"/>
<path d="M227.5,389.9h.7V340.4h-.7v49.5Z" class="g1_1840"/>
<path d="M373.6,389.9h.8V340.4h-.8v49.5Z" class="g1_1840"/>
<path d="M533.5,389.9h.7V340.4h-.7v49.5Z" class="g1_1840"/>
<path d="M692.2,389.9h.7V340.4h-.7v49.5Z" class="g1_1840"/>
<path d="M848.8,389.2h.8V341.1h-.8v48.1Z" class="g1_1840"/>
<path d="M68.6,341.1H849.7v-.7H68.6v.7Z" class="g1_1840"/>
<path d="M68.6,365.5H849.7v-.8H68.6v.8Z" class="g1_1840"/>
<path d="M68.6,389.9H849.7v-.7H68.6v.7Z" class="g1_1840"/>
</svg>