<?xml version="1.0" encoding="UTF-8" standalone="no"?>
<!DOCTYPE svg PUBLIC "-//W3C//DTD SVG 1.1//EN"
"http://www.w3.org/Graphics/SVG/1.1/DTD/svg11.dtd">
<svg viewBox="0 0 935 1210" version="1.1" xmlns="http://www.w3.org/2000/svg" xmlns:xlink="http://www.w3.org/1999/xlink">
<defs>
<clipPath id="c0_265"><path d="M766.7,59V41.4h72.2V59Z"/></clipPath>
<style type="text/css"><![CDATA[
.g0_265{
fill: #000;
}
]]></style>
</defs>
<path d="M97.5,63.1v.3H840v-.3H97.5Z" class="g0_265"/>
<path d="M96.1,1114.3v.3v-.3Z" class="g0_265"/>
<path d="M838.9,1114.3v.3v-.3Z" class="g0_265"/>
<path d="M96.1,1114.3v.3H838.9v-.3H96.1Z" class="g0_265"/>
<image clip-path="url(#c0_265)" preserveAspectRatio="none" x="767" y="41" width="72" height="18" xlink:href="img/1.jpg"/>
<path d="M96.1,178.9h-.8V530.2h.8V178.9Z" class="g0_265"/>
<path d="M206.8,178.2h-.7V444h.7V178.2Z" class="g0_265"/>
<path d="M424.2,206.8h-.7V444h.7V206.8Z" class="g0_265"/>
<path d="M658.1,178.2h-.7V444h.7V178.2Z" class="g0_265"/>
<path d="M839.6,178.9h-.7V530.2h.7V178.9Z" class="g0_265"/>
<path d="M95.3,178.2v.7H839.6v-.7H95.3Z" class="g0_265"/>
<path d="M95.3,206.8v.7H839.6v-.7H95.3Z" class="g0_265"/>
<path d="M423.5,249.7v.7H839.6v-.7H423.5Z" class="g0_265"/>
<path d="M95.3,315v.7H839.6V315H95.3Z" class="g0_265"/>
<path d="M423.5,339.2v.7H839.6v-.7H423.5Z" class="g0_265"/>
<path d="M423.5,382.1v.7H839.6v-.7H423.5Z" class="g0_265"/>
<path d="M95.3,443.3v.7H839.6v-.7H95.3Z" class="g0_265"/>
<path d="M95.3,530.2v.7H839.6v-.7H95.3Z" class="g0_265"/>
</svg>