<?xml version="1.0" encoding="UTF-8" standalone="no"?>
<!DOCTYPE svg PUBLIC "-//W3C//DTD SVG 1.1//EN"
"http://www.w3.org/Graphics/SVG/1.1/DTD/svg11.dtd">
<svg viewBox="0 0 935 1210" version="1.1" xmlns="http://www.w3.org/2000/svg" xmlns:xlink="http://www.w3.org/1999/xlink">
<defs>
<style type="text/css"><![CDATA[
.g0_286{
fill: #FFF;
}
.g1_286{
fill: #000;
}
]]></style>
</defs>
<path d="M68.8,1149.3H852.5v-21.2H68.8v21.2Z" class="g0_286"/>
<path d="M68.6,1075.3h.7V142.4h-.7v932.9Z" class="g1_286"/>
<path d="M125.3,1076h.7V183h-.7v893Z" class="g1_286"/>
<path d="M182.1,1076h.7V141.7h-.7V1076Z" class="g1_286"/>
<path d="M426.3,1076h.8V141.7h-.8V1076Z" class="g1_286"/>
<path d="M519.8,1076h.7V141.7h-.7V1076Z" class="g1_286"/>
<path d="M852.6,1075.3h.7V142.4h-.7v932.9Z" class="g1_286"/>
<path d="M68.6,142.4H853.3v-.7H68.6v.7Z" class="g1_286"/>
<path d="M68.6,183.7H182.8V183H68.6v.7Z" class="g1_286"/>
<path d="M68.6,208.2H853.3v-.8H68.6v.8Z" class="g1_286"/>
<path d="M182.1,270.8H853.3v-.7H182.1v.7Z" class="g1_286"/>
<path d="M182.1,295.3H853.3v-.8H182.1v.8Z" class="g1_286"/>
<path d="M182.1,319.6H853.3v-.7H182.1v.7Z" class="g1_286"/>
<path d="M182.1,344.1H853.3v-.7H182.1v.7Z" class="g1_286"/>
<path d="M182.1,368.6H853.3v-.7H182.1v.7Z" class="g1_286"/>
<path d="M182.1,393H853.3v-.8H182.1v.8Z" class="g1_286"/>
<path d="M182.1,417.4H853.3v-.7H182.1v.7Z" class="g1_286"/>
<path d="M182.1,441.9H853.3v-.7H182.1v.7Z" class="g1_286"/>
<path d="M68.6,466.4H853.3v-.7H68.6v.7Z" class="g1_286"/>
<path d="M182.1,490.8H853.3v-.7H182.1v.7Z" class="g1_286"/>
<path d="M182.1,515.3H853.3v-.8H182.1v.8Z" class="g1_286"/>
<path d="M182.1,539.7H853.3V539H182.1v.7Z" class="g1_286"/>
<path d="M182.1,564.1H853.3v-.7H182.1v.7Z" class="g1_286"/>
<path d="M182.1,588.6H853.3v-.7H182.1v.7Z" class="g1_286"/>
<path d="M182.1,613.1H853.3v-.8H182.1v.8Z" class="g1_286"/>
<path d="M182.1,637.4H853.3v-.7H182.1v.7Z" class="g1_286"/>
<path d="M182.1,661.9H853.3v-.7H182.1v.7Z" class="g1_286"/>
<path d="M182.1,686.4H853.3v-.7H182.1v.7Z" class="g1_286"/>
<path d="M182.1,710.8H853.3v-.7H182.1v.7Z" class="g1_286"/>
<path d="M182.1,735.3H853.3v-.8H182.1v.8Z" class="g1_286"/>
<path d="M68.6,759.7H853.3V759H68.6v.7Z" class="g1_286"/>
<path d="M182.1,822.3H853.3v-.7H182.1v.7Z" class="g1_286"/>
<path d="M182.1,846.8H853.3v-.7H182.1v.7Z" class="g1_286"/>
<path d="M182.1,926.2H853.3v-.7H182.1v.7Z" class="g1_286"/>
<path d="M182.1,1005.7H853.3v-.8H182.1v.8Z" class="g1_286"/>
<path d="M68.6,1030.2H853.3v-.8H68.6v.8Z" class="g1_286"/>
<path d="M68.6,1076H853.3v-.7H68.6v.7Z" class="g1_286"/>
</svg>