<?xml version="1.0" encoding="UTF-8" standalone="no"?>
<!DOCTYPE svg PUBLIC "-//W3C//DTD SVG 1.1//EN"
"http://www.w3.org/Graphics/SVG/1.1/DTD/svg11.dtd">
<svg viewBox="0 0 935 1210" version="1.1" xmlns="http://www.w3.org/2000/svg" xmlns:xlink="http://www.w3.org/1999/xlink">
<defs>
<clipPath id="c0_1134"><path d="M97.3,59.2V41.4h72.1V59.2Z"/></clipPath>
<style type="text/css"><![CDATA[
.g0_1134{
fill: #000;
}
]]></style>
</defs>
<path d="M96.2,62.9v.3H838.7v-.3H96.2Z" class="g0_1134"/>
<path d="M96.2,1114.1h-.1v.3h.1v-.3Z" class="g0_1134"/>
<path d="M838.7,1114.1h.2v.3h-.2v-.3Z" class="g0_1134"/>
<path d="M96.2,1114.1v.3H838.7v-.3H96.2Z" class="g0_1134"/>
<image clip-path="url(#c0_1134)" preserveAspectRatio="none" x="97" y="41" width="72" height="18" xlink:href="img/1.jpg"/>
<path d="M204.4,807h-.7v51.6h.7V807Z" class="g0_1134"/>
<path d="M606.3,806.3h-.8v55.3h.8V806.3Z" class="g0_1134"/>
<path d="M676.9,806.3h-.7v55.3h.7V806.3Z" class="g0_1134"/>
<path d="M733.2,807h-4.6v51.6h4.6V807Z" class="g0_1134"/>
<path d="M203.7,806.3v.7H733.2v-.7H203.7Z" class="g0_1134"/>
<path d="M203.7,858.6v3H733.2v-3H203.7Z" class="g0_1134"/>
</svg>