<?xml version="1.0" encoding="UTF-8" standalone="no"?>
<!DOCTYPE svg PUBLIC "-//W3C//DTD SVG 1.1//EN"
"http://www.w3.org/Graphics/SVG/1.1/DTD/svg11.dtd">
<svg viewBox="0 0 825 990" version="1.1" xmlns="http://www.w3.org/2000/svg" xmlns:xlink="http://www.w3.org/1999/xlink">
<defs>
<style type="text/css"><![CDATA[
.g0_115{
fill: #000;
}
]]></style>
</defs>
<path d="M94.9,910.3h.3v-.8h-.3v.8Z" class="g0_115"/>
<path d="M95.2,910.3h650v-.8H95.2v.8Z" class="g0_115"/>
<path d="M93.4,182.7H744.9V182H93.4v.7Z" class="g0_115"/>
<path d="M93.4,217.9H744.9v-.7H93.4v.7Z" class="g0_115"/>
<path d="M93.4,246.6H744.9v-.2H93.4v.2Z" class="g0_115"/>
<path d="M93.4,275.6H744.9v-.1H93.4v.1Z" class="g0_115"/>
<path d="M93.4,304.7H744.9v-.2H93.4v.2Z" class="g0_115"/>
<path d="M93.4,333.7H744.9v-.2H93.4v.2Z" class="g0_115"/>
<path d="M93.4,362.7H744.9v-.2H93.4v.2Z" class="g0_115"/>
<path d="M93.4,391.8H744.9v-.2H93.4v.2Z" class="g0_115"/>
<path d="M93.4,420.7H744.9v-.1H93.4v.1Z" class="g0_115"/>
<path d="M93.4,449.8H744.9v-.2H93.4v.2Z" class="g0_115"/>
<path d="M93.4,478.9H744.9v-.2H93.4v.2Z" class="g0_115"/>
<path d="M93.4,507.8H744.9v-.1H93.4v.1Z" class="g0_115"/>
<path d="M93.4,536.9H744.9v-.2H93.4v.2Z" class="g0_115"/>
<path d="M93.4,566H744.9v-.2H93.4v.2Z" class="g0_115"/>
<path d="M93.4,594.9H744.9v-.2H93.4v.2Z" class="g0_115"/>
<path d="M93.4,624H744.9v-.2H93.4v.2Z" class="g0_115"/>
<path d="M93.4,653H744.9v-.1H93.4v.1Z" class="g0_115"/>
<path d="M93.4,682.3H744.9v-.8H93.4v.8Z" class="g0_115"/>
</svg>