<?xml version="1.0" encoding="UTF-8" standalone="no"?>
<!DOCTYPE svg PUBLIC "-//W3C//DTD SVG 1.1//EN"
"http://www.w3.org/Graphics/SVG/1.1/DTD/svg11.dtd">
<svg viewBox="0 0 825 990" version="1.1" xmlns="http://www.w3.org/2000/svg" xmlns:xlink="http://www.w3.org/1999/xlink">
<defs>
<style type="text/css"><![CDATA[
.g0_46{
fill: #000;
}
.g1_46{
fill: #FFF;
}
]]></style>
</defs>
<path d="M79.8,910.3h.3v-.8h-.3v.8Z" class="g0_46"/>
<path d="M80.1,910.3h650v-.8H80.1v.8Z" class="g0_46"/>
<path d="M218.4,379.9H729.8v-26H218.4v26Z" class="g1_46"/>
<path d="M218.4,365v-.7Z" class="g0_46"/>
<path d="M218.4,365h43.7v-.7H218.4v.7Z" class="g0_46"/>
<path d="M304.9,365h.4v-.7h-.4v.7Z" class="g0_46"/>
<path d="M305.3,365H392v-.7H305.3v.7Z" class="g0_46"/>
<path d="M218.4,470.2H729.8V459.3H218.4v10.9Z" class="g1_46"/>
<path d="M218.4,463.2v-.7Z" class="g0_46"/>
<path d="M218.4,463.2H392v-.7H218.4v.7Z" class="g0_46"/>
<path d="M145.1,712.1H729.8V686H145.1v26.1Z" class="g1_46"/>
<path d="M145.1,697.1v-.7Z" class="g0_46"/>
<path d="M145.1,697.1h43.6v-.7H145.1v.7Z" class="g0_46"/>
<path d="M231.5,697.1h.4v-.7h-.4v.7Z" class="g0_46"/>
<path d="M231.9,697.1h86.7v-.7H231.9v.7Z" class="g0_46"/>
</svg>