<?xml version="1.0" encoding="UTF-8" standalone="no"?>
<!DOCTYPE svg PUBLIC "-//W3C//DTD SVG 1.1//EN"
"http://www.w3.org/Graphics/SVG/1.1/DTD/svg11.dtd">
<svg viewBox="0 0 935 1210" version="1.1" xmlns="http://www.w3.org/2000/svg" xmlns:xlink="http://www.w3.org/1999/xlink">
<defs>
<clipPath id="c0_2275"><path d="M97.3,59.2V41.4h72.1V59.2Z"/></clipPath>
<style type="text/css"><![CDATA[
.g0_2275{
fill: #000;
}
]]></style>
</defs>
<path d="M96.3,63.3H838.8v-.4H96.3v.4Z" class="g0_2275"/>
<path d="M96.1,1114.5h.2v-.4h-.2v.4Z" class="g0_2275"/>
<path d="M96.3,1114.5H838.9v-.4H96.3v.4Z" class="g0_2275"/>
<image clip-path="url(#c0_2275)" preserveAspectRatio="none" x="97" y="41" width="73" height="18" xlink:href="img/1.jpg"/>
<path d="M562.8,997.1h31.5V996H562.8v1.1Z" class="g0_2275"/>
<path d="M686.9,997.1h20.3V996H686.9v1.1Z" class="g0_2275"/>
<path d="M707.2,997.1h8.4V996h-8.4v1.1Z" class="g0_2275"/>
<path d="M562.8,1020h31.5v-1.1H562.8v1.1Z" class="g0_2275"/>
<path d="M686.9,1020h12.6v-1.1H686.9v1.1Z" class="g0_2275"/>
<path d="M699.5,1020h16.1v-1.1H699.5v1.1Z" class="g0_2275"/>
<path d="M95.9,789.5h.7V698.6h-.7v90.9Z" class="g0_2275"/>
<path d="M253.2,790.3h.7V697.9h-.7v92.4Z" class="g0_2275"/>
<path d="M330.6,790.3h.7V697.9h-.7v92.4Z" class="g0_2275"/>
<path d="M839.1,789.5h.7V698.6h-.7v90.9Z" class="g0_2275"/>
<path d="M95.9,698.6h744v-.7H95.9v.7Z" class="g0_2275"/>
<path d="M95.9,722.7h744v-3H95.9v3Z" class="g0_2275"/>
<path d="M95.9,744.4h744v-.7H95.9v.7Z" class="g0_2275"/>
<path d="M95.9,767.3h744v-.7H95.9v.7Z" class="g0_2275"/>
<path d="M95.9,790.3h744v-.8H95.9v.8Z" class="g0_2275"/>
</svg>