<?xml version="1.0" encoding="UTF-8" standalone="no"?>
<!DOCTYPE svg PUBLIC "-//W3C//DTD SVG 1.1//EN"
"http://www.w3.org/Graphics/SVG/1.1/DTD/svg11.dtd">
<svg viewBox="0 0 825 990" version="1.1" xmlns="http://www.w3.org/2000/svg" xmlns:xlink="http://www.w3.org/1999/xlink">
<defs>
<style type="text/css"><![CDATA[
.g0_672{
fill: #000;
}
.g1_672{
fill: #FFF;
}
.g2_672{
fill: none;
stroke: #231F20;
stroke-width: 0.334;
stroke-miterlimit: 3;
}
]]></style>
</defs>
<path d="M79.8,910.3h.3v-.8h-.3v.8Z" class="g0_672"/>
<path d="M80.1,910.3h650v-.8H80.1v.8Z" class="g0_672"/>
<path d="M228.6,588.8H728.2V326H228.6V588.8Z" class="g1_672"/>
<path d="M311.3,405.5h51.9v26H311.3v-26Zm0,-26h51.9v26H311.3v-26Zm51.9,26h52v26h-52v-26Zm0,-26h52v26h-52v-26Zm52,26h52v26h-52v-26Zm0,-26h52v26h-52v-26Zm52,26h51.9v26H467.2v-26Zm0,-26h51.9v26H467.2v-26Zm51.9,26h52v26h-52v-26Zm0,-26h52v26h-52v-26Zm52,26h52v26h-52v-26Zm0,-26h52v26h-52v-26Zm52,26H675v26H623.1v-26Zm0,-26H675v26H623.1v-26Zm-259.9,-26h52v26h-52v-26Zm52,0h52v26h-52v-26Zm-52,-25.9h104v25.9h-104V327.6Zm-51.9,0h51.9v51.9H311.3V327.6Zm155.9,0h51.9v51.9H467.2V327.6Zm51.9,0h52v51.9h-52V327.6Zm52,0H675v25.9H571.1V327.6ZM675,405.5h52v26H675v-26Zm0,-26h52v26H675v-26Zm-103.9,-26h52v26h-52v-26Zm52,0H675v26H623.1v-26ZM675,327.6h52v51.9H675V327.6ZM229,379.5h82.3v26H229v-26Zm0,26h82.3v26H229v-26ZM519.1,535.4v26v-26Zm-207.8,0h51.9v26H311.3v-26Zm0,-51.9h51.9v25.9H311.3V483.5Zm0,-26h51.9v26H311.3v-26Zm0,51.9h51.9v26H311.3v-26Zm51.9,26h52v26h-52v-26Zm0,-51.9h52v25.9h-52V483.5Zm0,-26h52v26h-52v-26Zm0,51.9h52v26h-52v-26Zm52,26h52v26h-52v-26Zm0,-51.9h52v25.9h-52V483.5Zm0,-26h52v26h-52v-26Zm0,51.9h52v26h-52v-26Zm52,26h51.9v26H467.2v-26Zm0,-51.9h51.9v25.9H467.2V483.5Zm0,-26h51.9v26H467.2v-26Zm0,51.9h51.9v26H467.2v-26Zm51.9,26h52v26h-52v-26Zm0,-51.9h52v25.9h-52V483.5Zm0,-26h52v26h-52v-26Zm0,51.9h52v26h-52v-26Zm52,26h52v26h-52v-26Zm0,-51.9h52v25.9h-52V483.5Zm0,-26h52v26h-52v-26Zm0,51.9h52v26h-52v-26Zm52,26H675v26H623.1v-26Zm0,-51.9H675v25.9H623.1V483.5Zm0,-26H675v26H623.1v-26Zm0,51.9H675v26H623.1v-26Zm51.9,26h52v26H675v-26Zm0,-51.9h52v25.9H675V483.5Zm0,-26h52v26H675v-26Zm0,51.9h52v26H675v-26ZM229,483.5h82.3v25.9H229V483.5Zm0,25.9h82.3v26H229v-26Zm0,26h82.3v26H229v-26Zm0,-77.9h82.3v26H229v-26Zm82.3,103.9h51.9v26H311.3v-26Zm51.9,0h52v26h-52v-26Zm52,0h52v26h-52v-26Zm52,0h51.9v26H467.2v-26Zm51.9,0h52v26h-52v-26Zm52,0h52v26h-52v-26Zm52,0H675v26H623.1v-26Zm51.9,0h52v26H675v-26Zm-446,0h82.3v26H229v-26ZM311.3,431.5h51.9v26H311.3v-26Zm51.9,0h52v26h-52v-26Zm52,0h52v26h-52v-26Zm52,0h51.9v26H467.2v-26Zm51.9,0h52v26h-52v-26Zm52,0h52v26h-52v-26Zm52,0H675v26H623.1v-26Zm51.9,0h52v26H675v-26Zm-446,0h82.3v26H229v-26Z" class="g2_672"/>
</svg>