<?xml version="1.0" encoding="UTF-8" standalone="no"?>
<!DOCTYPE svg PUBLIC "-//W3C//DTD SVG 1.1//EN"
"http://www.w3.org/Graphics/SVG/1.1/DTD/svg11.dtd">
<svg viewBox="0 0 935 1210" version="1.1" xmlns="http://www.w3.org/2000/svg" xmlns:xlink="http://www.w3.org/1999/xlink">
<defs>
<style type="text/css"><![CDATA[
.g0_2447{
fill: #FFF;
}
.g1_2447{
fill: #000;
}
]]></style>
</defs>
<path d="M68.9,1149.3H852.7v-21.2H68.9v21.2Z" class="g0_2447"/>
<path d="M69.9,468.7h.8V124.1h-.8V468.7Z" class="g1_2447"/>
<path d="M447.1,148.6h.7V123.4h-.7v25.2Z" class="g1_2447"/>
<path d="M447.1,255.6h.7V172.2h-.7v83.4Z" class="g1_2447"/>
<path d="M447.1,362.4h.7V279.2h-.7v83.2Z" class="g1_2447"/>
<path d="M447.1,469.4h.7V386.2h-.7v83.2Z" class="g1_2447"/>
<path d="M851.3,468.7h.7V124.1h-.7V468.7Z" class="g1_2447"/>
<path d="M69.9,124.1H852v-.7H69.9v.7Z" class="g1_2447"/>
<path d="M69.9,148.6H852v-.7H69.9v.7Z" class="g1_2447"/>
<path d="M69.9,173H852v-.8H69.9v.8Z" class="g1_2447"/>
<path d="M69.9,214.2H852v-.7H69.9v.7Z" class="g1_2447"/>
<path d="M69.9,255.5H852v-.8H69.9v.8Z" class="g1_2447"/>
<path d="M69.9,279.9H852v-.7H69.9v.7Z" class="g1_2447"/>
<path d="M69.9,321.2H852v-.7H69.9v.7Z" class="g1_2447"/>
<path d="M69.9,362.4H852v-.7H69.9v.7Z" class="g1_2447"/>
<path d="M69.9,386.9H852v-.7H69.9v.7Z" class="g1_2447"/>
<path d="M69.9,428.2H852v-.8H69.9v.8Z" class="g1_2447"/>
<path d="M69.9,469.4H852v-.7H69.9v.7Z" class="g1_2447"/>
<path d="M69.9,1076.7h.8V658.9h-.8v417.8Z" class="g1_2447"/>
<path d="M445.4,683.3h.7V658.1h-.7v25.2Z" class="g1_2447"/>
<path d="M445.4,921.7h.7V707h-.7V921.7Z" class="g1_2447"/>
<path d="M445.4,1011.8h.7V945.4h-.7v66.4Z" class="g1_2447"/>
<path d="M445.4,1077.5h.7v-42h-.7v42Z" class="g1_2447"/>
<path d="M851.3,1076.7h.7V658.9h-.7v417.8Z" class="g1_2447"/>
<path d="M69.9,658.9H852v-.7H69.9v.7Z" class="g1_2447"/>
<path d="M69.9,683.3H852v-.7H69.9v.7Z" class="g1_2447"/>
<path d="M69.9,707.8H852V707H69.9v.8Z" class="g1_2447"/>
<path d="M69.9,732.2H852v-.7H69.9v.7Z" class="g1_2447"/>
<path d="M69.9,756.6H852v-.7H69.9v.7Z" class="g1_2447"/>
<path d="M69.9,797.9H852v-.8H69.9v.8Z" class="g1_2447"/>
<path d="M69.9,839.1H852v-.7H69.9v.7Z" class="g1_2447"/>
<path d="M69.9,880.4H852v-.8H69.9v.8Z" class="g1_2447"/>
<path d="M69.9,921.6H852v-.7H69.9v.7Z" class="g1_2447"/>
<path d="M69.9,946.1H852v-.7H69.9v.7Z" class="g1_2447"/>
<path d="M69.9,987.3H852v-.7H69.9v.7Z" class="g1_2447"/>
<path d="M69.9,1011.8H852v-.7H69.9v.7Z" class="g1_2447"/>
<path d="M69.9,1036.2H852v-.7H69.9v.7Z" class="g1_2447"/>
<path d="M69.9,1077.5H852v-.8H69.9v.8Z" class="g1_2447"/>
</svg>