<?xml version="1.0" encoding="UTF-8" standalone="no"?>
<!DOCTYPE svg PUBLIC "-//W3C//DTD SVG 1.1//EN"
"http://www.w3.org/Graphics/SVG/1.1/DTD/svg11.dtd">
<svg viewBox="0 0 935 1210" version="1.1" xmlns="http://www.w3.org/2000/svg" xmlns:xlink="http://www.w3.org/1999/xlink">
<defs>
<clipPath id="c0_1515"><path d="M97.3,59.2V41.4h72.1V59.2Z"/></clipPath>
<style type="text/css"><![CDATA[
.g0_1515{
fill: #000;
}
]]></style>
</defs>
<path d="M96.2,62.9v.3H838.7v-.3H96.2Z" class="g0_1515"/>
<path d="M96.2,1114.1h-.1v.4h.1v-.4Z" class="g0_1515"/>
<path d="M838.7,1114.1h.2v.4h-.2v-.4Z" class="g0_1515"/>
<path d="M96.2,1114.1v.4H838.7v-.4H96.2Z" class="g0_1515"/>
<image clip-path="url(#c0_1515)" preserveAspectRatio="none" x="97" y="41" width="72" height="18" xlink:href="img/1.jpg"/>
<path d="M96.6,152.7h-.7V376.9h.7V152.7Z" class="g0_1515"/>
<path d="M263.5,149.7h-.7v228h.7v-228Z" class="g0_1515"/>
<path d="M312,149.7h-.7v228h.7v-228Z" class="g0_1515"/>
<path d="M375.3,149.7h-.8v228h.8v-228Z" class="g0_1515"/>
<path d="M457.3,149.7h-.7v228h.7v-228Z" class="g0_1515"/>
<path d="M839.1,152.7h-.7V376.9h.7V152.7Z" class="g0_1515"/>
<path d="M95.9,149.8v3H839.1v-3H95.9Z" class="g0_1515"/>
<path d="M95.9,192.5v3H839.1v-3H95.9Z" class="g0_1515"/>
<path d="M262.8,233.4v.7H839.1v-.7H262.8Z" class="g0_1515"/>
<path d="M262.8,257.9v.7H839.1v-.7H262.8Z" class="g0_1515"/>
<path d="M95.9,297.5v.8H839.1v-.8H95.9Z" class="g0_1515"/>
<path d="M95.9,337.2v.8H839.1v-.8H95.9Z" class="g0_1515"/>
<path d="M95.9,377v.7H839.1V377H95.9Z" class="g0_1515"/>
</svg>