<?xml version="1.0" encoding="UTF-8" standalone="no"?>
<!DOCTYPE svg PUBLIC "-//W3C//DTD SVG 1.1//EN"
"http://www.w3.org/Graphics/SVG/1.1/DTD/svg11.dtd">
<svg viewBox="0 0 935 1210" version="1.1" xmlns="http://www.w3.org/2000/svg" xmlns:xlink="http://www.w3.org/1999/xlink">
<defs>
<style type="text/css"><![CDATA[
.g0_1745{
fill: #FFF;
}
.g1_1745{
fill: #000;
}
]]></style>
</defs>
<path d="M68.9,1149.3H755.2v-21.2H68.9v21.2Z" class="g0_1745"/>
<path d="M771.3,1149.3H855v-21.2H771.3v21.2Z" class="g0_1745"/>
<path d="M69.9,380.1h.8V107.3h-.8V380.1Z" class="g1_1745"/>
<path d="M317.9,380.8h.7V106.6h-.7V380.8Z" class="g1_1745"/>
<path d="M363.8,380.8h.8V106.6h-.8V380.8Z" class="g1_1745"/>
<path d="M437.2,380.8h.7V106.6h-.7V380.8Z" class="g1_1745"/>
<path d="M521,380.8h.8V106.6H521V380.8Z" class="g1_1745"/>
<path d="M850.8,380.1h.7V107.3h-.7V380.1Z" class="g1_1745"/>
<path d="M69.9,107.3H851.5v-.7H69.9v.7Z" class="g1_1745"/>
<path d="M69.9,160.8H851.5v-.7H69.9v.7Z" class="g1_1745"/>
<path d="M69.9,234.1H851.5v-.7H69.9v.7Z" class="g1_1745"/>
<path d="M69.9,307.4H851.5v-.7H69.9v.7Z" class="g1_1745"/>
<path d="M69.9,380.8H851.5v-.7H69.9v.7Z" class="g1_1745"/>
<path d="M69.9,505.4h.8V432.8h-.8v72.6Z" class="g1_1745"/>
<path d="M151.1,506.1h.7V432h-.7v74.1Z" class="g1_1745"/>
<path d="M256,506.1h.8V432H256v74.1Z" class="g1_1745"/>
<path d="M402.7,506.1h.7V432h-.7v74.1Z" class="g1_1745"/>
<path d="M554.5,506.1h.7V432h-.7v74.1Z" class="g1_1745"/>
<path d="M699.7,506.1h.7V432h-.7v74.1Z" class="g1_1745"/>
<path d="M847.6,505.4h.7V432.8h-.7v72.6Z" class="g1_1745"/>
<path d="M69.9,432.8H848.3V432H69.9v.8Z" class="g1_1745"/>
<path d="M69.9,457.2H848.3v-.7H69.9v.7Z" class="g1_1745"/>
<path d="M69.9,481.6H848.3v-.7H69.9v.7Z" class="g1_1745"/>
<path d="M69.9,506.1H848.3v-.7H69.9v.7Z" class="g1_1745"/>
</svg>