<?xml version="1.0" encoding="UTF-8" standalone="no"?>
<!DOCTYPE svg PUBLIC "-//W3C//DTD SVG 1.1//EN"
"http://www.w3.org/Graphics/SVG/1.1/DTD/svg11.dtd">
<svg viewBox="0 0 935 1210" version="1.1" xmlns="http://www.w3.org/2000/svg" xmlns:xlink="http://www.w3.org/1999/xlink">
<defs>
<clipPath id="c0_1843"><path d="M97.3,59.2V41.4h72.1V59.2Z"/></clipPath>
<style type="text/css"><![CDATA[
.g0_1843{
fill: #000;
}
.g1_1843{
fill: #E5E5E5;
}
]]></style>
</defs>
<path d="M96.2,62.9v.3H838.7v-.3H96.2Z" class="g0_1843"/>
<path d="M96.2,1114.1h-.1v.4h.1v-.4Z" class="g0_1843"/>
<path d="M838.7,1114.1h.2v.4h-.2v-.4Z" class="g0_1843"/>
<path d="M96.2,1114.1v.4H838.7v-.4H96.2Z" class="g0_1843"/>
<image clip-path="url(#c0_1843)" preserveAspectRatio="none" x="97" y="41" width="72" height="18" xlink:href="img/1.jpg"/>
<path d="M380.7,243.9h458v67.2h-458V243.9Z" class="g1_1843"/>
<path d="M96.6,179.1h-.7v874.1h.7V179.1Z" class="g0_1843"/>
<path d="M381,178.4h-.7V834.1h.7V178.4Z" class="g0_1843"/>
<path d="M482.3,178.4h-.7v65.9h.7V178.4Z" class="g0_1843"/>
<path d="M482.3,310.7h-.7V834.1h.7V310.7Z" class="g0_1843"/>
<path d="M583.6,178.4h-.7v65.9h.7V178.4Z" class="g0_1843"/>
<path d="M583.6,310.7h-.7V834.1h.7V310.7Z" class="g0_1843"/>
<path d="M711.4,178.4h-.7v65.9h.7V178.4Z" class="g0_1843"/>
<path d="M711.4,356.6h-.7V510.1h.7V356.6Z" class="g0_1843"/>
<path d="M711.4,711h-.7V834.1h.7V711Z" class="g0_1843"/>
<path d="M839.1,179.1h-.7v874.1h.7V179.1Z" class="g0_1843"/>
<path d="M95.9,178.4v.7H839.1v-.7H95.9Z" class="g0_1843"/>
<path d="M95.9,243.6v.7H839.1v-.7H95.9Z" class="g0_1843"/>
<path d="M95.9,310.7v.8H839.1v-.8H95.9Z" class="g0_1843"/>
<path d="M95.9,356.6v.7H839.1v-.7H95.9Z" class="g0_1843"/>
<path d="M95.9,509.4v.7H839.1v-.7H95.9Z" class="g0_1843"/>
<path d="M95.9,576.6v.7H839.1v-.7H95.9Z" class="g0_1843"/>
<path d="M95.9,643.9v.7H839.1v-.7H95.9Z" class="g0_1843"/>
<path d="M95.9,711v.8H839.1V711H95.9Z" class="g0_1843"/>
<path d="M95.9,833.3v.8H839.1v-.8H95.9Z" class="g0_1843"/>
<path d="M95.9,1053.3v.7H839.1v-.7H95.9Z" class="g0_1843"/>
</svg>