<?xml version="1.0" encoding="UTF-8" standalone="no"?>
<!DOCTYPE svg PUBLIC "-//W3C//DTD SVG 1.1//EN"
"http://www.w3.org/Graphics/SVG/1.1/DTD/svg11.dtd">
<svg viewBox="0 0 935 1210" version="1.1" xmlns="http://www.w3.org/2000/svg" xmlns:xlink="http://www.w3.org/1999/xlink">
<defs>
<clipPath id="c0_1802"><path d="M766.6,59.2V41.4h72.1V59.2Z"/></clipPath>
<style type="text/css"><![CDATA[
.g0_1802{
fill: #000;
}
.g1_1802{
fill: #E5E5E5;
}
]]></style>
</defs>
<path d="M97.3,62.9v.3H839.9v-.3H97.3Z" class="g0_1802"/>
<path d="M96.2,1114.1h-.1v.4h.1v-.4Z" class="g0_1802"/>
<path d="M838.7,1114.1h.2v.4h-.2v-.4Z" class="g0_1802"/>
<path d="M96.2,1114.1v.4H838.7v-.4H96.2Z" class="g0_1802"/>
<image clip-path="url(#c0_1802)" preserveAspectRatio="none" x="767" y="41" width="72" height="18" xlink:href="img/1.jpg"/>
<path d="M609.7,253.6h69.6v19.8H609.7V253.6Z" class="g1_1802"/>
<path d="M609.7,273.4h69.6v35.2H609.7V273.4Z" class="g1_1802"/>
<path d="M299.4,308.6h75.4V330H299.4V308.6Z" class="g1_1802"/>
<path d="M679.3,308.6h84V330h-84V308.6Z" class="g1_1802"/>
<path d="M763.3,308.6h75.4V330H763.3V308.6Z" class="g1_1802"/>
<path d="M299.4,330h75.4v19.9H299.4V330Z" class="g1_1802"/>
<path d="M679.3,330h84v19.9h-84V330Z" class="g1_1802"/>
<path d="M763.3,330h75.4v19.9H763.3V330Z" class="g1_1802"/>
<path d="M299.4,349.9h75.4v19.8H299.4V349.9Z" class="g1_1802"/>
<path d="M679.3,349.9h84v19.8h-84V349.9Z" class="g1_1802"/>
<path d="M763.3,349.9h75.4v19.8H763.3V349.9Z" class="g1_1802"/>
<path d="M299.4,369.7h75.4v21.4H299.4V369.7Z" class="g1_1802"/>
<path d="M679.3,369.7h84v21.4h-84V369.7Z" class="g1_1802"/>
<path d="M763.3,369.7h75.4v21.4H763.3V369.7Z" class="g1_1802"/>
<path d="M299.4,391.1h75.4v19.8H299.4V391.1Z" class="g1_1802"/>
<path d="M679.3,391.1h84v19.8h-84V391.1Z" class="g1_1802"/>
<path d="M763.3,391.1h75.4v19.8H763.3V391.1Z" class="g1_1802"/>
<path d="M299.4,410.9h75.4v19.9H299.4V410.9Z" class="g1_1802"/>
<path d="M679.3,410.9h84v19.9h-84V410.9Z" class="g1_1802"/>
<path d="M763.3,410.9h75.4v19.9H763.3V410.9Z" class="g1_1802"/>
<path d="M299.4,430.8h75.4v21.4H299.4V430.8Z" class="g1_1802"/>
<path d="M679.3,430.8h84v21.4h-84V430.8Z" class="g1_1802"/>
<path d="M763.3,430.8h75.4v21.4H763.3V430.8Z" class="g1_1802"/>
<path d="M299.4,452.2h75.4v19.9H299.4V452.2Z" class="g1_1802"/>
<path d="M679.3,452.2h84v19.9h-84V452.2Z" class="g1_1802"/>
<path d="M763.3,452.2h75.4v19.9H763.3V452.2Z" class="g1_1802"/>
<path d="M299.4,472.1h75.4V492H299.4V472.1Z" class="g1_1802"/>
<path d="M679.3,472.1h84V492h-84V472.1Z" class="g1_1802"/>
<path d="M763.3,472.1h75.4V492H763.3V472.1Z" class="g1_1802"/>
<path d="M299.4,492h75.4v21.3H299.4V492Z" class="g1_1802"/>
<path d="M679.3,492h84v21.3h-84V492Z" class="g1_1802"/>
<path d="M763.3,492h75.4v21.3H763.3V492Z" class="g1_1802"/>
<path d="M299.4,513.3h75.4v19.9H299.4V513.3Z" class="g1_1802"/>
<path d="M679.3,513.3h84v19.9h-84V513.3Z" class="g1_1802"/>
<path d="M763.3,513.3h75.4v19.9H763.3V513.3Z" class="g1_1802"/>
<path d="M299.4,533.2h75.4V553H299.4V533.2Z" class="g1_1802"/>
<path d="M679.3,533.2h84V553h-84V533.2Z" class="g1_1802"/>
<path d="M763.3,533.2h75.4V553H763.3V533.2Z" class="g1_1802"/>
<path d="M299.4,553h75.4v21.5H299.4V553Z" class="g1_1802"/>
<path d="M679.3,553h84v21.5h-84V553Z" class="g1_1802"/>
<path d="M763.3,553h75.4v21.5H763.3V553Z" class="g1_1802"/>
<path d="M299.4,574.5h75.4v19.8H299.4V574.5Z" class="g1_1802"/>
<path d="M679.3,574.5h84v19.8h-84V574.5Z" class="g1_1802"/>
<path d="M763.3,574.5h75.4v19.8H763.3V574.5Z" class="g1_1802"/>
<path d="M299.4,594.3h75.4v19.9H299.4V594.3Z" class="g1_1802"/>
<path d="M679.3,594.3h84v19.9h-84V594.3Z" class="g1_1802"/>
<path d="M763.3,594.3h75.4v19.9H763.3V594.3Z" class="g1_1802"/>
<path d="M299.4,614.2h75.4v21.3H299.4V614.2Z" class="g1_1802"/>
<path d="M679.3,614.2h84v21.3h-84V614.2Z" class="g1_1802"/>
<path d="M763.3,614.2h75.4v21.3H763.3V614.2Z" class="g1_1802"/>
<path d="M299.4,635.5h75.4v19.9H299.4V635.5Z" class="g1_1802"/>
<path d="M679.3,635.5h84v19.9h-84V635.5Z" class="g1_1802"/>
<path d="M763.3,635.5h75.4v19.9H763.3V635.5Z" class="g1_1802"/>
<path d="M299.4,655.4h75.4v19.9H299.4V655.4Z" class="g1_1802"/>
<path d="M679.3,655.4h84v19.9h-84V655.4Z" class="g1_1802"/>
<path d="M763.3,655.4h75.4v19.9H763.3V655.4Z" class="g1_1802"/>
<path d="M299.4,675.3h75.4v21.3H299.4V675.3Z" class="g1_1802"/>
<path d="M679.3,675.3h84v21.3h-84V675.3Z" class="g1_1802"/>
<path d="M763.3,675.3h75.4v21.3H763.3V675.3Z" class="g1_1802"/>
<path d="M299.4,696.6h75.4v19.9H299.4V696.6Z" class="g1_1802"/>
<path d="M679.3,696.6h84v19.9h-84V696.6Z" class="g1_1802"/>
<path d="M763.3,696.6h75.4v19.9H763.3V696.6Z" class="g1_1802"/>
<path d="M299.4,716.5h75.4v19.8H299.4V716.5Z" class="g1_1802"/>
<path d="M679.3,716.5h84v19.8h-84V716.5Z" class="g1_1802"/>
<path d="M763.3,716.5h75.4v19.8H763.3V716.5Z" class="g1_1802"/>
<path d="M299.4,736.3h75.4v21.5H299.4V736.3Z" class="g1_1802"/>
<path d="M679.3,736.3h84v21.5h-84V736.3Z" class="g1_1802"/>
<path d="M763.3,736.3h75.4v21.5H763.3V736.3Z" class="g1_1802"/>
<path d="M299.4,757.8h75.4v19.8H299.4V757.8Z" class="g1_1802"/>
<path d="M679.3,757.8h84v19.8h-84V757.8Z" class="g1_1802"/>
<path d="M763.3,757.8h75.4v19.8H763.3V757.8Z" class="g1_1802"/>
<path d="M299.4,777.6h75.4v19.9H299.4V777.6Z" class="g1_1802"/>
<path d="M679.3,777.6h84v19.9h-84V777.6Z" class="g1_1802"/>
<path d="M763.3,777.6h75.4v19.9H763.3V777.6Z" class="g1_1802"/>
<path d="M96.6,179.5h-.7V797.1h.7V179.5Z" class="g0_1802"/>
<path d="M157.6,177.9h-.8V797.8h.8V177.9Z" class="g0_1802"/>
<path d="M230.1,177.9h-.8V797.8h.8V177.9Z" class="g0_1802"/>
<path d="M299.7,199.7H299v34.8h.7V199.7Z" class="g0_1802"/>
<path d="M299.7,253.6H299V797.8h.7V253.6Z" class="g0_1802"/>
<path d="M375.2,199.7h-.8v34.8h.8V199.7Z" class="g0_1802"/>
<path d="M375.2,253.6h-.8V797.8h.8V253.6Z" class="g0_1802"/>
<path d="M450.5,199.7h-.7v34.8h.7V199.7Z" class="g0_1802"/>
<path d="M450.5,253.6h-.7V797.8h.7V253.6Z" class="g0_1802"/>
<path d="M526,199.7h-.8v34.8h.8V199.7Z" class="g0_1802"/>
<path d="M526,253.6h-.8V797.8h.8V253.6Z" class="g0_1802"/>
<path d="M610,199.7h-.7v34.8h.7V199.7Z" class="g0_1802"/>
<path d="M610,253.6h-.7V797.8h.7V253.6Z" class="g0_1802"/>
<path d="M679.7,199.7H679v34.8h.7V199.7Z" class="g0_1802"/>
<path d="M679.7,253.6H679V797.8h.7V253.6Z" class="g0_1802"/>
<path d="M763.7,199.7h-.8v34.8h.8V199.7Z" class="g0_1802"/>
<path d="M763.7,253.6h-.8V797.8h.8V253.6Z" class="g0_1802"/>
<path d="M839.1,179.5h-.7V797.1h.7V179.5Z" class="g0_1802"/>
<path d="M95.9,178v1.6H839.1V178H95.9Z" class="g0_1802"/>
<path d="M229.3,199.7v.8H839.1v-.8H229.3Z" class="g0_1802"/>
<path d="M95.9,233v1.6H839.1V233H95.9Z" class="g0_1802"/>
<path d="M156.8,307.9v1.6H839.1v-1.6H156.8Z" class="g0_1802"/>
<path d="M229.3,369.3v.7H839.1v-.7H229.3Z" class="g0_1802"/>
<path d="M229.3,430.5v.7H839.1v-.7H229.3Z" class="g0_1802"/>
<path d="M229.3,491.6v.7H839.1v-.7H229.3Z" class="g0_1802"/>
<path d="M229.3,552.6v.8H839.1v-.8H229.3Z" class="g0_1802"/>
<path d="M229.3,613.8v.7H839.1v-.7H229.3Z" class="g0_1802"/>
<path d="M229.3,674.9v.8H839.1v-.8H229.3Z" class="g0_1802"/>
<path d="M229.3,736v.7H839.1V736H229.3Z" class="g0_1802"/>
<path d="M95.9,797.1v.7H839.1v-.7H95.9Z" class="g0_1802"/>
</svg>