<?xml version="1.0" encoding="UTF-8" standalone="no"?>
<!DOCTYPE svg PUBLIC "-//W3C//DTD SVG 1.1//EN"
"http://www.w3.org/Graphics/SVG/1.1/DTD/svg11.dtd">
<svg viewBox="0 0 935 1210" version="1.1" xmlns="http://www.w3.org/2000/svg" xmlns:xlink="http://www.w3.org/1999/xlink">
<defs>
<style type="text/css"><![CDATA[
.g0_1869{
fill: #FFF;
}
.g1_1869{
fill: #000;
}
]]></style>
</defs>
<path d="M68.9,1149.3H755.2v-21.2H68.9v21.2Z" class="g0_1869"/>
<path d="M771.3,1149.3H855v-21.2H771.3v21.2Z" class="g0_1869"/>
<path d="M69.9,517.6h.8V125.7h-.8V517.6Z" class="g1_1869"/>
<path d="M292,518.3h.7V124.9H292V518.3Z" class="g1_1869"/>
<path d="M335.5,518.3h.7V124.9h-.7V518.3Z" class="g1_1869"/>
<path d="M410,518.3h.8V124.9H410V518.3Z" class="g1_1869"/>
<path d="M493.9,518.3h.7V124.9h-.7V518.3Z" class="g1_1869"/>
<path d="M852,517.6h.8V125.7H852V517.6Z" class="g1_1869"/>
<path d="M69.9,125.7H852.8v-.8H69.9v.8Z" class="g1_1869"/>
<path d="M69.9,179.1H852.8v-.7H69.9v.7Z" class="g1_1869"/>
<path d="M69.9,235.7H852.8v-.8H69.9v.8Z" class="g1_1869"/>
<path d="M69.9,292.1H852.8v-.7H69.9v.7Z" class="g1_1869"/>
<path d="M69.9,348.7H852.8V348H69.9v.7Z" class="g1_1869"/>
<path d="M69.9,405.3H852.8v-.8H69.9v.8Z" class="g1_1869"/>
<path d="M69.9,461.8H852.8v-.7H69.9v.7Z" class="g1_1869"/>
<path d="M69.9,518.3H852.8v-.7H69.9v.7Z" class="g1_1869"/>
<path d="M69.9,645.9h.8V573.3h-.8v72.6Z" class="g1_1869"/>
<path d="M146.1,646.6h.8V572.5h-.8v74.1Z" class="g1_1869"/>
<path d="M239.6,646.6h.7V572.5h-.7v74.1Z" class="g1_1869"/>
<path d="M392.3,646.6h.8V572.5h-.8v74.1Z" class="g1_1869"/>
<path d="M551,646.6h.7V572.5H551v74.1Z" class="g1_1869"/>
<path d="M700.2,646.6h.8V572.5h-.8v74.1Z" class="g1_1869"/>
<path d="M852.7,645.9h.7V573.3h-.7v72.6Z" class="g1_1869"/>
<path d="M69.9,573.3H853.4v-.7H69.9v.7Z" class="g1_1869"/>
<path d="M69.9,597.8H853.4V597H69.9v.8Z" class="g1_1869"/>
<path d="M69.9,622.2H853.4v-.7H69.9v.7Z" class="g1_1869"/>
<path d="M69.9,646.6H853.4v-.7H69.9v.7Z" class="g1_1869"/>
</svg>