<?xml version="1.0" encoding="UTF-8" standalone="no"?>
<!DOCTYPE svg PUBLIC "-//W3C//DTD SVG 1.1//EN"
"http://www.w3.org/Graphics/SVG/1.1/DTD/svg11.dtd">
<svg viewBox="0 0 935 1210" version="1.1" xmlns="http://www.w3.org/2000/svg" xmlns:xlink="http://www.w3.org/1999/xlink">
<defs>
<clipPath id="c0_2510"><path d="M766.6,59.2V41.4h72.2V59.2Z"/></clipPath>
<style type="text/css"><![CDATA[
.g0_2510{
fill: #000;
}
]]></style>
</defs>
<path d="M97.4,63.3H839.9v-.4H97.4v.4Z" class="g0_2510"/>
<path d="M96.1,1114.5h.2v-.4h-.2v.4Z" class="g0_2510"/>
<path d="M96.3,1114.5H838.9v-.4H96.3v.4Z" class="g0_2510"/>
<image clip-path="url(#c0_2510)" preserveAspectRatio="none" x="767" y="41" width="72" height="18" xlink:href="img/1.jpg"/>
<path d="M95.9,1058.9h.7V663.7h-.7v395.2Z" class="g0_2510"/>
<path d="M286.8,1059.8h.8V660.6h-.8v399.2Z" class="g0_2510"/>
<path d="M334.8,1059.8h.7V660.6h-.7v399.2Z" class="g0_2510"/>
<path d="M397.1,1059.8h.7V660.6h-.7v399.2Z" class="g0_2510"/>
<path d="M481.1,1059.8h.7V660.6h-.7v399.2Z" class="g0_2510"/>
<path d="M839.2,1058.9h.7V663.7h-.7v395.2Z" class="g0_2510"/>
<path d="M95.9,663.7h744v-3.1H95.9v3.1Z" class="g0_2510"/>
<path d="M95.9,706.5h744v-3H95.9v3Z" class="g0_2510"/>
<path d="M286.8,729.7H839.9v-.8H286.8v.8Z" class="g0_2510"/>
<path d="M286.8,769.5H839.9v-.8H286.8v.8Z" class="g0_2510"/>
<path d="M286.8,793.9H839.9v-.7H286.8v.7Z" class="g0_2510"/>
<path d="M286.8,833.6H839.9v-.7H286.8v.7Z" class="g0_2510"/>
<path d="M286.8,858.1H839.9v-.7H286.8v.7Z" class="g0_2510"/>
<path d="M286.8,882.5H839.9v-.8H286.8v.8Z" class="g0_2510"/>
<path d="M286.8,907H839.9v-.8H286.8v.8Z" class="g0_2510"/>
<path d="M95.9,931.4h744v-.7H95.9v.7Z" class="g0_2510"/>
<path d="M95.9,955.8h744v-.7H95.9v.7Z" class="g0_2510"/>
<path d="M95.9,995.6h744v-.7H95.9v.7Z" class="g0_2510"/>
<path d="M286.8,1035.3H839.9v-.7H286.8v.7Z" class="g0_2510"/>
<path d="M95.9,1059.8h744v-.8H95.9v.8Z" class="g0_2510"/>
</svg>