<?xml version="1.0" encoding="UTF-8" standalone="no"?>
<!DOCTYPE svg PUBLIC "-//W3C//DTD SVG 1.1//EN"
"http://www.w3.org/Graphics/SVG/1.1/DTD/svg11.dtd">
<svg viewBox="0 0 935 1210" version="1.1" xmlns="http://www.w3.org/2000/svg" xmlns:xlink="http://www.w3.org/1999/xlink">
<defs>
<style type="text/css"><![CDATA[
.g0_95{
fill: #FFF;
}
.g1_95{
fill: #000;
}
.g2_95{
fill: none;
stroke: #000;
stroke-width: 0.316;
stroke-linecap: round;
stroke-linejoin: round;
}
]]></style>
</defs>
<path d="M68.9,1149.3H852.7v-21.2H68.9v21.2Z" class="g0_95"/>
<path d="M171.3,779.9h.8V113.5h-.8V779.9Z" class="g1_95"/>
<path d="M750.7,779.9h.7V113.5h-.7V779.9Z" class="g1_95"/>
<path d="M171.3,113.4H751.4v-.7H171.3v.7Z" class="g1_95"/>
<path d="M171.3,780.7H751.4V780H171.3v.7Z" class="g1_95"/>
<path d="M396.2,193h25.1V168.5H396.2V193Z" class="g0_95"/>
<path d="M396.2,193h25.1V168.5H396.2V193Z" class="g2_95"/>
<path d="M421,193h25.5V168.5H421V193Z" class="g0_95"/>
<path d="M421,193h25.5V168.5H421V193Z" class="g2_95"/>
<path d="M446.5,193h25.1V168.5H446.5V193Z" class="g0_95"/>
<path d="M446.5,193h25.1V168.5H446.5V193Z" class="g2_95"/>
<path d="M471.6,193h25.5V168.5H471.6V193Z" class="g0_95"/>
<path d="M471.6,193h25.5V168.5H471.6V193Z" class="g2_95"/>
<path d="M496.7,193H522V168.5H496.7V193Z" class="g0_95"/>
<path d="M496.7,193H522V168.5H496.7V193Z" class="g2_95"/>
<path d="M522,193h25.8V168.5H522V193Z" class="g0_95"/>
<path d="M522,193h25.8V168.5H522V193Z" class="g2_95"/>
<path d="M547.3,193h25.2V168.5H547.3V193Z" class="g0_95"/>
<path d="M547.3,193h25.2V168.5H547.3V193Z" class="g2_95"/>
<path d="M572.5,193h25.1V168.5H572.5V193Z" class="g0_95"/>
<path d="M572.5,193h25.1V168.5H572.5V193Z" class="g2_95"/>
<path d="M194.2,193h25.2V168.5H194.2V193Z" class="g0_95"/>
<path d="M194.2,193h25.2V168.5H194.2V193Z" class="g2_95"/>
<path d="M219.2,193h26.1V168.5H219.2V193Z" class="g0_95"/>
<path d="M219.2,193h26.1V168.5H219.2V193Z" class="g2_95"/>
<path d="M244.7,193H270V168.5H244.7V193Z" class="g0_95"/>
<path d="M244.7,193H270V168.5H244.7V193Z" class="g2_95"/>
<path d="M270,193h25.4V168.5H270V193Z" class="g0_95"/>
<path d="M270,193h25.4V168.5H270V193Z" class="g2_95"/>
<path d="M295.1,193h25.2V168.5H295.1V193Z" class="g0_95"/>
<path d="M295.1,193h25.2V168.5H295.1V193Z" class="g2_95"/>
<path d="M320.3,193h25.1V168.5H320.3V193Z" class="g0_95"/>
<path d="M320.3,193h25.1V168.5H320.3V193Z" class="g2_95"/>
<path d="M345.3,193h25.5V168.5H345.3V193Z" class="g0_95"/>
<path d="M345.3,193h25.5V168.5H345.3V193Z" class="g2_95"/>
<path d="M370.8,193h25.6V168.5H370.8V193Z" class="g0_95"/>
<path d="M370.8,193h25.6V168.5H370.8V193Z" class="g2_95"/>
<path d="M195,295.8H297.3V271.3H195v24.5Z" class="g0_95"/>
<path d="M195,295.8H297.3V271.3H195v24.5Z" class="g2_95"/>
<path d="M295.7,295.8H397.9V271.3H295.7v24.5Z" class="g0_95"/>
<path d="M295.7,295.8H397.9V271.3H295.7v24.5Z" class="g2_95"/>
<path d="M396.4,295.8H498.6V271.3H396.4v24.5Z" class="g0_95"/>
<path d="M396.4,295.8H498.6V271.3H396.4v24.5Z" class="g2_95"/>
<path d="M496.9,295.8H599.1V271.3H496.9v24.5Z" class="g0_95"/>
<path d="M496.9,295.8H599.1V271.3H496.9v24.5Z" class="g2_95"/>
<path d="M195,347.3H397.1V321.9H195v25.4Z" class="g0_95"/>
<path d="M195,347.3H397.1V321.9H195v25.4Z" class="g2_95"/>
<path d="M397.1,347.3h202V321.9h-202v25.4Z" class="g0_95"/>
<path d="M397.1,347.3h202V321.9h-202v25.4Z" class="g2_95"/>
<path d="M195,493.8H297.3V469.3H195v24.5Z" class="g0_95"/>
<path d="M195,493.8H297.3V469.3H195v24.5Z" class="g2_95"/>
<path d="M295.7,493.8H397.9V469.3H295.7v24.5Z" class="g0_95"/>
<path d="M295.7,493.8H397.9V469.3H295.7v24.5Z" class="g2_95"/>
<path d="M396.4,493.8H498.6V469.3H396.4v24.5Z" class="g0_95"/>
<path d="M396.4,493.8H498.6V469.3H396.4v24.5Z" class="g2_95"/>
<path d="M496.9,493.8H599.1V469.3H496.9v24.5Z" class="g0_95"/>
<path d="M496.9,493.8H599.1V469.3H496.9v24.5Z" class="g2_95"/>
<path d="M195.8,546.1H397.9V520.8H195.8v25.3Z" class="g0_95"/>
<path d="M195.8,546.1H397.9V520.8H195.8v25.3Z" class="g2_95"/>
<path d="M397.9,546.1H600V520.8H397.9v25.3Z" class="g0_95"/>
<path d="M397.9,546.1H600V520.8H397.9v25.3Z" class="g2_95"/>
<path d="M195.8,697.2H298V672.7H195.8v24.5Z" class="g0_95"/>
<path d="M195.8,697.2H298V672.7H195.8v24.5Z" class="g2_95"/>
<path d="M296.4,697.2H398.7V672.7H296.4v24.5Z" class="g0_95"/>
<path d="M296.4,697.2H398.7V672.7H296.4v24.5Z" class="g2_95"/>
<path d="M397.1,697.2H499.3V672.7H397.1v24.5Z" class="g0_95"/>
<path d="M397.1,697.2H499.3V672.7H397.1v24.5Z" class="g2_95"/>
<path d="M497.7,697.2H600V672.7H497.7v24.5Z" class="g0_95"/>
<path d="M497.7,697.2H600V672.7H497.7v24.5Z" class="g2_95"/>
<path d="M195.8,748.6H397.9V723.3H195.8v25.3Z" class="g0_95"/>
<path d="M195.8,748.6H397.9V723.3H195.8v25.3Z" class="g2_95"/>
<path d="M397.9,748.6H600V723.3H397.9v25.3Z" class="g0_95"/>
<path d="M397.9,748.6H600V723.3H397.9v25.3Z" class="g2_95"/>
<path d="M397.7,593.8h25.2V569.3H397.7v24.5Z" class="g0_95"/>
<path d="M397.7,593.8h25.2V569.3H397.7v24.5Z" class="g2_95"/>
<path d="M422.7,593.8h25.5V569.3H422.7v24.5Z" class="g0_95"/>
<path d="M422.7,593.8h25.5V569.3H422.7v24.5Z" class="g2_95"/>
<path d="M448.1,593.8h25.2V569.3H448.1v24.5Z" class="g0_95"/>
<path d="M448.1,593.8h25.2V569.3H448.1v24.5Z" class="g2_95"/>
<path d="M473.3,593.8h25.6V569.3H473.3v24.5Z" class="g0_95"/>
<path d="M473.3,593.8h25.6V569.3H473.3v24.5Z" class="g2_95"/>
<path d="M498.5,593.8h25.2V569.3H498.5v24.5Z" class="g0_95"/>
<path d="M498.5,593.8h25.2V569.3H498.5v24.5Z" class="g2_95"/>
<path d="M523.7,593.8h25.9V569.3H523.7v24.5Z" class="g0_95"/>
<path d="M523.7,593.8h25.9V569.3H523.7v24.5Z" class="g2_95"/>
<path d="M549.2,593.8h25.2V569.3H549.2v24.5Z" class="g0_95"/>
<path d="M549.2,593.8h25.2V569.3H549.2v24.5Z" class="g2_95"/>
<path d="M574.4,593.8h25.2V569.3H574.4v24.5Z" class="g0_95"/>
<path d="M574.4,593.8h25.2V569.3H574.4v24.5Z" class="g2_95"/>
<path d="M195.3,593.8h25.2V569.3H195.3v24.5Z" class="g0_95"/>
<path d="M195.3,593.8h25.2V569.3H195.3v24.5Z" class="g2_95"/>
<path d="M220.3,593.8h26.2V569.3H220.3v24.5Z" class="g0_95"/>
<path d="M220.3,593.8h26.2V569.3H220.3v24.5Z" class="g2_95"/>
<path d="M245.9,593.8h25.2V569.3H245.9v24.5Z" class="g0_95"/>
<path d="M245.9,593.8h25.2V569.3H245.9v24.5Z" class="g2_95"/>
<path d="M271.1,593.8h25.7V569.3H271.1v24.5Z" class="g0_95"/>
<path d="M271.1,593.8h25.7V569.3H271.1v24.5Z" class="g2_95"/>
<path d="M296.4,593.8h25.2V569.3H296.4v24.5Z" class="g0_95"/>
<path d="M296.4,593.8h25.2V569.3H296.4v24.5Z" class="g2_95"/>
<path d="M321.6,593.8h25.2V569.3H321.6v24.5Z" class="g0_95"/>
<path d="M321.6,593.8h25.2V569.3H321.6v24.5Z" class="g2_95"/>
<path d="M346.7,593.8h25.6V569.3H346.7v24.5Z" class="g0_95"/>
<path d="M346.7,593.8h25.6V569.3H346.7v24.5Z" class="g2_95"/>
<path d="M372.3,593.8h25.5V569.3H372.3v24.5Z" class="g0_95"/>
<path d="M372.3,593.8h25.5V569.3H372.3v24.5Z" class="g2_95"/>
<path d="M195.8,643.7h50.4V619.1H195.8v24.6Z" class="g0_95"/>
<path d="M195.8,643.7h50.4V619.1H195.8v24.6Z" class="g2_95"/>
<path d="M246.2,643.7H297V619.1H246.2v24.6Z" class="g0_95"/>
<path d="M246.2,643.7H297V619.1H246.2v24.6Z" class="g2_95"/>
<path d="M297.2,643.7h50.3V619.1H297.2v24.6Z" class="g0_95"/>
<path d="M297.2,643.7h50.3V619.1H297.2v24.6Z" class="g2_95"/>
<path d="M347.5,643.7h50.8V619.1H347.5v24.6Z" class="g0_95"/>
<path d="M347.5,643.7h50.8V619.1H347.5v24.6Z" class="g2_95"/>
<path d="M397.9,643.7h50.4V619.1H397.9v24.6Z" class="g0_95"/>
<path d="M397.9,643.7h50.4V619.1H397.9v24.6Z" class="g2_95"/>
<path d="M448.3,643.7h51.2V619.1H448.3v24.6Z" class="g0_95"/>
<path d="M448.3,643.7h51.2V619.1H448.3v24.6Z" class="g2_95"/>
<path d="M499.2,643.7h50.4V619.1H499.2v24.6Z" class="g0_95"/>
<path d="M499.2,643.7h50.4V619.1H499.2v24.6Z" class="g2_95"/>
<path d="M549.6,643.7H600V619.1H549.6v24.6Z" class="g0_95"/>
<path d="M549.6,643.7H600V619.1H549.6v24.6Z" class="g2_95"/>
<path d="M195,245.2h50.4V220.6H195v24.6Z" class="g0_95"/>
<path d="M195,245.2h50.4V220.6H195v24.6Z" class="g2_95"/>
<path d="M245.4,245.2h50.9V220.6H245.4v24.6Z" class="g0_95"/>
<path d="M245.4,245.2h50.9V220.6H245.4v24.6Z" class="g2_95"/>
<path d="M296.4,245.2h50.3V220.6H296.4v24.6Z" class="g0_95"/>
<path d="M296.4,245.2h50.3V220.6H296.4v24.6Z" class="g2_95"/>
<path d="M346.7,245.2h50.8V220.6H346.7v24.6Z" class="g0_95"/>
<path d="M346.7,245.2h50.8V220.6H346.7v24.6Z" class="g2_95"/>
<path d="M397.1,245.2h50.4V220.6H397.1v24.6Z" class="g0_95"/>
<path d="M397.1,245.2h50.4V220.6H397.1v24.6Z" class="g2_95"/>
<path d="M447.5,245.2h51.3V220.6H447.5v24.6Z" class="g0_95"/>
<path d="M447.5,245.2h51.3V220.6H447.5v24.6Z" class="g2_95"/>
<path d="M498.4,245.2h50.4V220.6H498.4v24.6Z" class="g0_95"/>
<path d="M498.4,245.2h50.4V220.6H498.4v24.6Z" class="g2_95"/>
<path d="M548.8,245.2h50.3V220.6H548.8v24.6Z" class="g0_95"/>
<path d="M548.8,245.2h50.3V220.6H548.8v24.6Z" class="g2_95"/>
<path d="M195,443.9h50.4V419.4H195v24.5Z" class="g0_95"/>
<path d="M195,443.9h50.4V419.4H195v24.5Z" class="g2_95"/>
<path d="M245.4,443.9h50.9V419.4H245.4v24.5Z" class="g0_95"/>
<path d="M245.4,443.9h50.9V419.4H245.4v24.5Z" class="g2_95"/>
<path d="M296.4,443.9h50.3V419.4H296.4v24.5Z" class="g0_95"/>
<path d="M296.4,443.9h50.3V419.4H296.4v24.5Z" class="g2_95"/>
<path d="M346.7,443.9h50.8V419.4H346.7v24.5Z" class="g0_95"/>
<path d="M346.7,443.9h50.8V419.4H346.7v24.5Z" class="g2_95"/>
<path d="M397.1,443.9h50.4V419.4H397.1v24.5Z" class="g0_95"/>
<path d="M397.1,443.9h50.4V419.4H397.1v24.5Z" class="g2_95"/>
<path d="M447.5,443.9h51.3V419.4H447.5v24.5Z" class="g0_95"/>
<path d="M447.5,443.9h51.3V419.4H447.5v24.5Z" class="g2_95"/>
<path d="M498.4,443.9h50.4V419.4H498.4v24.5Z" class="g0_95"/>
<path d="M498.4,443.9h50.4V419.4H498.4v24.5Z" class="g2_95"/>
<path d="M548.8,443.9h50.3V419.4H548.8v24.5Z" class="g0_95"/>
<path d="M548.8,443.9h50.3V419.4H548.8v24.5Z" class="g2_95"/>
</svg>