<?xml version="1.0" encoding="UTF-8" standalone="no"?>
<!DOCTYPE svg PUBLIC "-//W3C//DTD SVG 1.1//EN"
"http://www.w3.org/Graphics/SVG/1.1/DTD/svg11.dtd">
<svg viewBox="0 0 935 1210" version="1.1" xmlns="http://www.w3.org/2000/svg" xmlns:xlink="http://www.w3.org/1999/xlink">
<defs>
<style type="text/css"><![CDATA[
.g0_1706{
fill: #FFF;
}
.g1_1706{
fill: #000;
}
]]></style>
</defs>
<path d="M165,1149.3H852.5v-21.2H165v21.2Z" class="g0_1706"/>
<path d="M68.8,1149.3h82.5v-21.2H68.8v21.2Z" class="g0_1706"/>
<path d="M68.2,238h.7V141h-.7v97Z" class="g1_1706"/>
<path d="M202.7,238.7h.7V140.2h-.7v98.5Z" class="g1_1706"/>
<path d="M525.5,238.7h.8V140.2h-.8v98.5Z" class="g1_1706"/>
<path d="M852.2,238h.8V141h-.8v97Z" class="g1_1706"/>
<path d="M68.2,140.9H853v-.7H68.2v.7Z" class="g1_1706"/>
<path d="M68.2,165.4H853v-.8H68.2v.8Z" class="g1_1706"/>
<path d="M68.2,189.8H853v-.7H68.2v.7Z" class="g1_1706"/>
<path d="M68.2,214.2H853v-.7H68.2v.7Z" class="g1_1706"/>
<path d="M68.2,238.7H853V238H68.2v.7Z" class="g1_1706"/>
</svg>