<?xml version="1.0" encoding="UTF-8" standalone="no"?>
<!DOCTYPE svg PUBLIC "-//W3C//DTD SVG 1.1//EN"
"http://www.w3.org/Graphics/SVG/1.1/DTD/svg11.dtd">
<svg viewBox="0 0 935 1210" version="1.1" xmlns="http://www.w3.org/2000/svg" xmlns:xlink="http://www.w3.org/1999/xlink">
<defs>
<style type="text/css"><![CDATA[
.g0_4531{
fill: #FFF;
}
.g1_4531{
fill: #000;
}
]]></style>
</defs>
<path d="M68.9,1149.3H852.7v-21.2H68.9v21.2Z" class="g0_4531"/>
<path d="M67.7,1041.6h.8V124.1h-.8v917.5Z" class="g1_4531"/>
<path d="M122.5,1042.3h.7V164.6h-.7v877.7Z" class="g1_4531"/>
<path d="M183.4,1042.3h.8V123.4h-.8v918.9Z" class="g1_4531"/>
<path d="M418.4,1042.3h.7V123.4h-.7v918.9Z" class="g1_4531"/>
<path d="M683.2,1042.3h.7V123.4h-.7v918.9Z" class="g1_4531"/>
<path d="M854.2,1041.6h.8V124.1h-.8v917.5Z" class="g1_4531"/>
<path d="M67.7,124.1H855v-.7H67.7v.7Z" class="g1_4531"/>
<path d="M67.7,165.4H184.2v-.8H67.7v.8Z" class="g1_4531"/>
<path d="M67.7,189.8H855v-.7H67.7v.7Z" class="g1_4531"/>
<path d="M67.7,286.1H683.9v-.7H67.7v.7Z" class="g1_4531"/>
<path d="M67.7,382.3H683.9v-.7H67.7v.7Z" class="g1_4531"/>
<path d="M67.7,478.6H683.9v-.7H67.7v.7Z" class="g1_4531"/>
<path d="M67.7,574.8H855v-.7H67.7v.7Z" class="g1_4531"/>
<path d="M183.4,616.1H855v-.7H183.4v.7Z" class="g1_4531"/>
<path d="M183.4,640.6H855v-.8H183.4v.8Z" class="g1_4531"/>
<path d="M183.4,664.9H855v-.7H183.4v.7Z" class="g1_4531"/>
<path d="M183.4,706.2H855v-.7H183.4v.7Z" class="g1_4531"/>
<path d="M183.4,730.7H855v-.8H183.4v.8Z" class="g1_4531"/>
<path d="M183.4,755.2H855v-.8H183.4v.8Z" class="g1_4531"/>
<path d="M67.7,779.5H855v-.7H67.7v.7Z" class="g1_4531"/>
<path d="M67.7,820.8H855v-.7H67.7v.7Z" class="g1_4531"/>
<path d="M183.4,883.5H855v-.8H183.4v.8Z" class="g1_4531"/>
<path d="M183.4,1017.9H855v-.8H183.4v.8Z" class="g1_4531"/>
<path d="M67.7,1042.3H855v-.7H67.7v.7Z" class="g1_4531"/>
</svg>