<?xml version="1.0" encoding="UTF-8" standalone="no"?>
<!DOCTYPE svg PUBLIC "-//W3C//DTD SVG 1.1//EN"
"http://www.w3.org/Graphics/SVG/1.1/DTD/svg11.dtd">
<svg viewBox="0 0 935 1210" version="1.1" xmlns="http://www.w3.org/2000/svg" xmlns:xlink="http://www.w3.org/1999/xlink">
<defs>
<style type="text/css"><![CDATA[
.g0_125{
fill: none;
stroke: #000;
stroke-width: 0.608;
stroke-miterlimit: 10;
}
]]></style>
</defs>
<path d="M148.2,120.6H786.8m-638.3,17V120.9m63.1,16.7V120.9m90.6,16.7V120.9m158.4,16.7V120.9m325.9,16.7V120.9m-638.3,17H786.8m-671,91.7H819.2m-703,17V229.9m127.7,16.7V229.9m90.6,16.7V229.9m158.4,16.7V229.9m325.9,16.7V229.9m-703,17H819.2m-655,383.5H770.8m-606.3,21V630.7m606,20.7V630.7m-606.3,21H770.8m-606.3,21V652m60.6,20.7V652m70.7,20.7V652m474.7,20.7V652M164.2,673H770.8M164.5,694V673.3M225.1,694V673.3M295.8,694V673.3M770.5,694V673.3m-606,41.4V694m60.6,20.7V694m70.7,20.7V694m474.7,20.7V694M164.2,715H770.8m-606.6,3.7H770.8m-606.3,21V719m606,20.7V719M164.2,740H770.8M164.5,761V740.3M225.1,761V740.3M295.8,761V740.3M770.5,761V740.3m-606.3,21H770.8m-606.3,21V761.6m60.6,20.7V761.6m70.7,20.7V761.6m474.7,20.7V761.6M164.5,803V782.3M225.1,803V782.3M295.8,803V782.3M770.5,803V782.3m-606,41.4V803m60.6,20.7V803m70.7,20.7V803m474.7,20.7V803m-606,41.4V823.7m60.6,20.7V823.7m70.7,20.7V823.7m474.7,20.7V823.7m-606,41.4V844.4m60.6,20.7V844.4m70.7,20.7V844.4m474.7,20.7V844.4m-606,41.4V865.1m60.6,20.7V865.1m70.7,20.7V865.1m474.7,20.7V865.1m-606.3,21H770.8" class="g0_125"/>
</svg>