<?xml version="1.0" encoding="UTF-8" standalone="no"?>
<!DOCTYPE svg PUBLIC "-//W3C//DTD SVG 1.1//EN"
"http://www.w3.org/Graphics/SVG/1.1/DTD/svg11.dtd">
<svg viewBox="0 0 935 1210" version="1.1" xmlns="http://www.w3.org/2000/svg" xmlns:xlink="http://www.w3.org/1999/xlink">
<defs>
<style type="text/css"><![CDATA[
.g0_92{
fill: #FFF;
}
.g1_92{
fill: #000;
}
]]></style>
</defs>
<path d="M68.8,1149.3H852.5v-21.2H68.8v21.2Z" class="g0_92"/>
<path d="M68.6,341.8h.7V124.1h-.7V341.8Z" class="g1_92"/>
<path d="M165.8,342.7h.8V172.2h-.8V342.7Z" class="g1_92"/>
<path d="M294.3,263.2h.8V123.4h-.8V263.2Z" class="g1_92"/>
<path d="M403.9,342.7h.7V123.4h-.7V342.7Z" class="g1_92"/>
<path d="M601.2,342.7h.8V123.4h-.8V342.7Z" class="g1_92"/>
<path d="M693.1,342.7h.7V147.9h-.7V342.7Z" class="g1_92"/>
<path d="M853.2,341.8h.8V124.1h-.8V341.8Z" class="g1_92"/>
<path d="M68.6,124.1H854v-.7H68.6v.7Z" class="g1_92"/>
<path d="M601.2,148.6H854v-.7H601.2v.7Z" class="g1_92"/>
<path d="M68.6,173H854v-.8H68.6v.8Z" class="g1_92"/>
<path d="M165.8,197.4H854v-.7H165.8v.7Z" class="g1_92"/>
<path d="M165.8,221.9H854v-.7H165.8v.7Z" class="g1_92"/>
<path d="M68.6,263.2H854v-.8H68.6v.8Z" class="g1_92"/>
<path d="M68.6,342.6H854v-.8H68.6v.8Z" class="g1_92"/>
<path d="M170.5,1040.1h.7V883.5h-.7v156.6Z" class="g1_92"/>
<path d="M749.8,1040.1h.8V883.5h-.8v156.6Z" class="g1_92"/>
<path d="M170.5,883.5H750.6v-.8H170.5v.8Z" class="g1_92"/>
<path d="M170.5,1040.8H750.6v-.8H170.5v.8Z" class="g1_92"/>
<path d="M253.7,1004.1H677.4V986.7H253.7v17.4Z" class="g0_92"/>
<path d="M253.7,987.5H678.2V986H253.7v1.5Z" class="g1_92"/>
<path d="M676.7,1004.9h1.5V986.7h-1.5v18.2Z" class="g1_92"/>
<path d="M253,1004.9H677.4v-1.5H253v1.5Z" class="g1_92"/>
<path d="M253,1004.1h1.6V986H253v18.1Z" class="g1_92"/>
<path d="M401.9,986h.4v-.2h-.4v.2Z" class="g1_92"/>
<path d="M401.9,1004.5h.4V986h-.4v18.5Z" class="g1_92"/>
<path d="M402.4,936.3h275V919h-275v17.3Z" class="g0_92"/>
<path d="M402.4,919.8H678.2v-1.6H402.4v1.6Z" class="g1_92"/>
<path d="M676.7,937.1h1.5V919h-1.5v18.1Z" class="g1_92"/>
<path d="M401.7,937.1H677.4v-1.5H401.7v1.5Z" class="g1_92"/>
<path d="M401.7,936.3h1.5V918.2h-1.5v18.1Z" class="g1_92"/>
</svg>