<?xml version="1.0" encoding="UTF-8" standalone="no"?>
<!DOCTYPE svg PUBLIC "-//W3C//DTD SVG 1.1//EN"
"http://www.w3.org/Graphics/SVG/1.1/DTD/svg11.dtd">
<svg viewBox="0 0 935 1210" version="1.1" xmlns="http://www.w3.org/2000/svg" xmlns:xlink="http://www.w3.org/1999/xlink">
<defs>
<clipPath id="c0_3107"><path d="M766.6,59.2V41.4h72.2V59.2Z"/></clipPath>
<style type="text/css"><![CDATA[
.g0_3107{
fill: #000;
}
.g1_3107{
fill: none;
stroke: #000;
stroke-width: 0.763;
}
.g2_3107{
fill: #FFF;
stroke: #000;
stroke-width: 1.527;
}
]]></style>
</defs>
<path d="M97.4,63.3H839.9v-.4H97.4v.4Z" class="g0_3107"/>
<path d="M96.1,1114.5h.2v-.4h-.2v.4Z" class="g0_3107"/>
<path d="M96.3,1114.5H838.9v-.4H96.3v.4Z" class="g0_3107"/>
<image clip-path="url(#c0_3107)" preserveAspectRatio="none" x="767" y="41" width="72" height="18" xlink:href="img/1.jpg"/>
<path d="M689.5,877.9v32.2H637.8M612.4,922v19.8H220V810h50.1v18.1m342.3,49.7v21.9" class="g1_3107"/>
<path d="M266.3,827l3.8,6.6l3.8,-6.6h-7.6Z" class="g0_3107"/>
<path d="M346.6,877.8v27.4h-51m-26.1,13.1v36H208.3V798.2H346.7v29.9m-77.2,49.7v18.3" class="g1_3107"/>
<path d="M342.9,827l3.8,6.6l3.8,-6.6h-7.6Z" class="g0_3107"/>
<path d="M574.1,872.3h76.1V847.5H574.1v24.8Z" class="g2_3107"/>
<path d="M650.2,872.3h76.1V847.5H650.2v24.8Z" class="g2_3107"/>
<path d="M232.6,872.3h76.1V847.5H232.6v24.8Z" class="g2_3107"/>
<path d="M308.7,872.3h76.1V847.5H308.7v24.8Z" class="g2_3107"/>
</svg>