<?xml version="1.0" encoding="UTF-8" standalone="no"?>
<!DOCTYPE svg PUBLIC "-//W3C//DTD SVG 1.1//EN"
"http://www.w3.org/Graphics/SVG/1.1/DTD/svg11.dtd">
<svg viewBox="0 0 935 1210" version="1.1" xmlns="http://www.w3.org/2000/svg" xmlns:xlink="http://www.w3.org/1999/xlink">
<defs>
<clipPath id="c0_1075"><path d="M766.6,59.2V41.4h72.1V59.2Z"/></clipPath>
<clipPath id="c1_1075"><path d="M96.2,232.6V214.9H838.7v17.7Z"/></clipPath>
<style type="text/css"><![CDATA[
.g0_1075{
fill: #000;
}
.g1_1075{
fill: #FFF;
}
]]></style>
</defs>
<path d="M97.3,62.9v.3H839.9v-.3H97.3Z" class="g0_1075"/>
<path d="M96.2,1114.1h-.1v.3h.1v-.3Z" class="g0_1075"/>
<path d="M838.7,1114.1h.2v.3h-.2v-.3Z" class="g0_1075"/>
<path d="M96.2,1114.1v.3H838.7v-.3H96.2Z" class="g0_1075"/>
<image clip-path="url(#c0_1075)" preserveAspectRatio="none" x="767" y="41" width="72" height="18" xlink:href="img/1.jpg"/>
<g clip-path="url(#c1_1075)">
<path d="M96.2,216h-.1v.3h.1V216Z" class="g0_1075"/>
<path d="M838.7,216h.2v.3h-.2V216Z" class="g0_1075"/>
</g>
<path d="M96.2,216v.3H838.7V216H96.2Z" class="g0_1075"/>
<path d="M245.2,480.7h82.5v126H245.2v-126Z" class="g1_1075"/>
<path d="M245.2,480.3h82.9v.7H245.2v-.7Z" class="g0_1075"/>
<path d="M327.3,480.7h.8V607.1h-.8V480.7Z" class="g0_1075"/>
<path d="M244.8,606.4h82.9v.7H244.8v-.7Z" class="g0_1075"/>
<path d="M244.8,480.3h.8V606.7h-.8V480.3Z" class="g0_1075"/>
<path d="M246.3,632.3h80.2V781.2H246.3V632.3Z" class="g1_1075"/>
<path d="M246.3,631.9h80.6v.8H246.3v-.8Z" class="g0_1075"/>
<path d="M326.1,632.3h.8V781.6h-.8V632.3Z" class="g0_1075"/>
<path d="M245.9,780.9h80.6v.7H245.9v-.7Z" class="g0_1075"/>
<path d="M245.9,631.9h.8V781.2h-.8V631.9Z" class="g0_1075"/>
<path d="M260.9,620.1h-5.1l.3,-1l4,-14.1l.8,-2.6l.7,2.6l4,14.1l.3,1h-1l-.7,-.6l-4.1,-14.1l1.5,-.4v.4l-4,14.1l-1.5,-.4l.7,-.6h4.1v1.6Z" class="g0_1075"/>
<path d="M264.9,620.1h-4v-1.6h4v1.6Z" class="g0_1075"/>
<path fill-rule="evenodd" d="M260.9,619.4h-4.1l4.1,-14.2l4,14.2h-4Z" class="g0_1075"/>
<path d="M260.5,632.3v.4h.7v-.4h-.7Z" class="g0_1075"/>
<path d="M260.5,620.1v-.4h.7v.4h-.7Z" class="g0_1075"/>
<path d="M260.5,632.3h.7V620.1h-.7v12.2Z" class="g0_1075"/>
<path d="M309.4,618.5h5l-.3,1l-4,14.2l-.7,2.5l-.8,-2.5l-4,-14.2l-.3,-1h1l.8,.6l4,14.1l-1.5,.5v-.5l4.1,-14.1l1.4,.4l-.7,.6h-4v-1.6Z" class="g0_1075"/>
<path d="M305.3,618.5h4.1v1.6h-4.1v-1.6Z" class="g0_1075"/>
<path fill-rule="evenodd" d="M309.4,619.3h4l-4,14.1l-4.1,-14.1h4.1Z" class="g0_1075"/>
<path d="M309.7,607.5v-.4H309v.4h.7Z" class="g0_1075"/>
<path d="M309.7,618.5v.4H309v-.4h.7Z" class="g0_1075"/>
<path d="M309.7,607.5H309v11h.7v-11Z" class="g0_1075"/>
<path d="M738.6,632.3h80.3V781.2H738.6V632.3Z" class="g1_1075"/>
<path d="M738.6,631.9h80.7v.8H738.6v-.8Z" class="g0_1075"/>
<path d="M818.6,632.3h.7V781.6h-.7V632.3Z" class="g0_1075"/>
<path d="M738.3,780.9h80.6v.7H738.3v-.7Z" class="g0_1075"/>
<path d="M738.3,631.9h.7V781.2h-.7V631.9Z" class="g0_1075"/>
<path d="M803.6,618.5h5.1l-.3,1l-4.1,14.2l-.7,2.5l-.7,-2.5l-4.1,-14.2l-.2,-1h1l.7,.6l4,14.1l-1.4,.5v-.5l4,-14.1l1.5,.4l-.8,.6h-4v-1.6Z" class="g0_1075"/>
<path d="M799.6,618.5h4v1.6h-4v-1.6Z" class="g0_1075"/>
<path fill-rule="evenodd" d="M803.6,619.3h4l-4,14.1l-4,-14.1h4Z" class="g0_1075"/>
<path d="M804,607.5v-.4h-.8v.4h.8Z" class="g0_1075"/>
<path d="M804,618.5v.4h-.8v-.4h.8Z" class="g0_1075"/>
<path d="M804,607.5h-.8v11h.8v-11Z" class="g0_1075"/>
<path d="M481.6,632.3h80.2V781.2H481.6V632.3Z" class="g1_1075"/>
<path d="M481.6,631.9h80.6v.8H481.6v-.8Z" class="g0_1075"/>
<path d="M561.4,632.3h.8V781.6h-.8V632.3Z" class="g0_1075"/>
<path d="M481.2,780.9h80.6v.7H481.2v-.7Z" class="g0_1075"/>
<path d="M481.2,631.9h.8V781.2h-.8V631.9Z" class="g0_1075"/>
<path d="M545.8,617.3h5l-.3,1.1l-4,14.1l-.7,2.5l-.8,-2.5l-4,-14.1l-.3,-1.1h1l.8,.6l4,14.1l-1.5,.5V632l4.1,-14.1l1.4,.5l-.7,.5h-4v-1.6Z" class="g0_1075"/>
<path d="M541.7,617.3h4.1v1.6h-4.1v-1.6Z" class="g0_1075"/>
<path fill-rule="evenodd" d="M545.8,618.1h4l-4,14.1l-4.1,-14.1h4.1Z" class="g0_1075"/>
<path d="M546.1,606.4V606h-.7v.4h.7Z" class="g0_1075"/>
<path d="M546.1,617.3v.4h-.7v-.4h.7Z" class="g0_1075"/>
<path d="M546.1,606.4h-.7v11h.7v-11Z" class="g0_1075"/>
<path fill-rule="evenodd" d="M225.8,837.8l.1,.3v.2l.1,.3l.2,.3l.3,.2l.2,.1l.3,.1l.3,.1l.3,-.1l.3,-.1l.2,-.1l.3,-.2l.2,-.3l.1,-.3l.1,-.2l.1,-.3l-.1,-.3l-.1,-.3l-.1,-.2l-.2,-.3l-.3,-.2l-.2,-.1l-.3,-.1l-.3,-.1l-.3,.1l-.3,.1l-.2,.1l-.3,.2l-.2,.3l-.1,.2v.3l-.1,.3Z" class="g0_1075"/>
<path d="M227.3,837.8v7.5l-1,-.3l-22.9,-6.5l-2.6,-.7l2.6,-.7l22.9,-6.6l1,-.3v1l-.5,.7l-22.9,6.6l-.5,-1.4h.5l22.9,6.5l-.5,1.4l-.5,-.7v-6.5h1.5Z" class="g0_1075"/>
<path d="M227.3,831.2v6.6h-1.5v-6.6h1.5Z" class="g0_1075"/>
<path fill-rule="evenodd" d="M226.6,837.8v6.5l-22.9,-6.5l22.9,-6.6v6.6Z" class="g0_1075"/>
<path d="M227.3,836.3h-1.4v3.1h1.4v-3.1Z" class="g0_1075"/>
<path d="M619.9,836.3h1.5v3.1h-1.5v-3.1Z" class="g0_1075"/>
<path d="M227.3,836.3v3.1H619.9v-3.1H227.3Z" class="g0_1075"/>
<path d="M286.4,797.7h-5l.3,-1l4,-14.1l.7,-2.5l.8,2.5l4,14.1l.3,1h-1l-.8,-.5l-4,-14.1l1.5,-.5v.5l-4.1,14.1l-1.4,-.5l.7,-.5h4v1.5Z" class="g0_1075"/>
<path d="M290.5,797.7h-4.1v-1.5h4.1v1.5Z" class="g0_1075"/>
<path fill-rule="evenodd" d="M286.4,797h-4l4,-14.1l4.1,14.1h-4.1Z" class="g0_1075"/>
<path d="M286.4,819.8h5.1l-.3,1l-4,14.1l-.8,2.5l-.7,-2.5l-4,-14.1l-.3,-1h1l.7,.6l4.1,14l-1.5,.5v-.5l4,-14l1.5,.4l-.7,.6h-4.1v-1.6Z" class="g0_1075"/>
<path d="M282.4,819.8h4v1.6h-4v-1.6Z" class="g0_1075"/>
<path fill-rule="evenodd" d="M286.4,820.6h4.1l-4.1,14l-4,-14h4Z" class="g0_1075"/>
<path d="M286.8,797.7v-.3h-.7v.3h.7Z" class="g0_1075"/>
<path d="M286.8,819.7v.4h-.7v-.4h.7Z" class="g0_1075"/>
<path d="M286.8,797.7h-.7v22h.7v-22Z" class="g0_1075"/>
<path d="M521.7,797.7h-5l.3,-1l4,-14.1l.7,-2.5l.8,2.5l4,14.1l.3,1h-1l-.8,-.5l-4,-14.1l1.5,-.5v.5l-4.1,14.1l-1.4,-.5l.7,-.5h4v1.5Z" class="g0_1075"/>
<path d="M525.8,797.7h-4.1v-1.5h4.1v1.5Z" class="g0_1075"/>
<path fill-rule="evenodd" d="M521.7,797h-4l4,-14.1l4.1,14.1h-4.1Z" class="g0_1075"/>
<path d="M521.7,820.9h5.1l-.3,1l-4,14.2l-.8,2.5l-.7,-2.5l-4,-14.2l-.3,-1h1l.7,.6l4.1,14.1l-1.5,.5v-.5l4,-14.1l1.5,.4l-.7,.6h-4.1v-1.6Z" class="g0_1075"/>
<path d="M517.7,820.9h4v1.6h-4v-1.6Z" class="g0_1075"/>
<path fill-rule="evenodd" d="M521.7,821.7h4.1l-4.1,14.1l-4,-14.1h4Z" class="g0_1075"/>
<path d="M522.1,797.7v-.3h-.7v.3h.7Z" class="g0_1075"/>
<path d="M522.1,820.9v.4h-.7v-.4h.7Z" class="g0_1075"/>
<path d="M522.1,797.7h-.7v23.2h.7V797.7Z" class="g0_1075"/>
<path d="M778.8,797.7h-5.1l.3,-1l4,-14.1l.8,-2.5l.7,2.5l4,14.1l.3,1h-1l-.7,-.5L778,783.1l1.5,-.5v.5l-4,14.1l-1.5,-.5l.7,-.5h4.1v1.5Z" class="g0_1075"/>
<path d="M782.8,797.7h-4v-1.5h4v1.5Z" class="g0_1075"/>
<path fill-rule="evenodd" d="M778.8,797h-4.1l4.1,-14.1l4,14.1h-4Z" class="g0_1075"/>
<path d="M778.8,818.8h5l-.3,1l-4,14.2l-.7,2.5L778,834l-4,-14.2l-.3,-1h1l.8,.6l4,14.1L778,834v-.5l4.1,-14.1l1.4,.4l-.7,.6h-4v-1.6Z" class="g0_1075"/>
<path d="M774.7,818.8h4.1v1.6h-4.1v-1.6Z" class="g0_1075"/>
<path fill-rule="evenodd" d="M778.8,819.6h4l-4,14.1l-4.1,-14.1h4.1Z" class="g0_1075"/>
<path d="M779.1,797.7v-.3h-.7v.3h.7Z" class="g0_1075"/>
<path d="M779.1,818.8v.4h-.7v-.4h.7Z" class="g0_1075"/>
<path d="M779.1,797.7h-.7v21.1h.7V797.7Z" class="g0_1075"/>
<path d="M511,898.9h84.1v.8H511v-.8Z" class="g0_1075"/>
<path d="M594.3,899.3h.8v72.5h-.8V899.3Z" class="g0_1075"/>
<path d="M510.7,971.1h84v.7h-84v-.7Z" class="g0_1075"/>
<path d="M510.7,898.9h.7v72.5h-.7V898.9Z" class="g0_1075"/>
<path d="M312.4,855.8h-5.1l.3,-1l4.1,-14.2l.7,-2.5l.7,2.5l4.1,14.2l.2,1h-1l-.7,-.6l-4,-14.1l1.4,-.5v.5l-4,14.1l-1.5,-.4l.8,-.6h4v1.6Z" class="g0_1075"/>
<path d="M316.4,855.8h-4v-1.6h4v1.6Z" class="g0_1075"/>
<path fill-rule="evenodd" d="M312.4,855h-4l4,-14.1l4,14.1h-4Z" class="g0_1075"/>
<path d="M312.4,883.6h5l-.2,1l-4.1,14.1l-.7,2.5l-.7,-2.5l-4.1,-14.1l-.3,-1h1.1l.7,.6l4,14l-1.4,.5v-.5l4,-14l1.5,.4l-.8,.6h-4v-1.6Z" class="g0_1075"/>
<path d="M308.4,883.6h4v1.6h-4v-1.6Z" class="g0_1075"/>
<path fill-rule="evenodd" d="M312.4,884.4h4l-4,14l-4,-14h4Z" class="g0_1075"/>
<path d="M312.8,855.8v-.4H312v.4h.8Z" class="g0_1075"/>
<path d="M312.8,883.5v.4H312v-.4h.8Z" class="g0_1075"/>
<path d="M312.8,855.8H312v27.7h.8V855.8Z" class="g0_1075"/>
<path d="M244.8,934v-5l1,.3l14.1,4l2.5,.7l-2.5,.8l-14.1,4l-1,.3v-1l.6,-.8l14,-4l.5,1.5h-.5l-14,-4.1l.4,-1.4l.6,.7v4h-1.6Z" class="g0_1075"/>
<path d="M244.8,938.1V934h1.6v4.1h-1.6Z" class="g0_1075"/>
<path fill-rule="evenodd" d="M245.6,934v-4l14,4l-14,4.1V934Z" class="g0_1075"/>
<path d="M218.8,933.7h-.4v.7h.4v-.7Z" class="g0_1075"/>
<path d="M244.7,933.7h.4v.7h-.4v-.7Z" class="g0_1075"/>
<path d="M218.8,933.7v.7h25.9v-.7H218.8Z" class="g0_1075"/>
<path fill-rule="evenodd" d="M803.5,837.8v-.3l-.1,-.3l-.2,-.2l-.1,-.3l-.2,-.2l-.3,-.1l-.3,-.1l-.3,-.1l-.3,.1l-.3,.1l-.3,.1l-.1,.2l-.3,.3l-.1,.2l-.1,.3v.6l.1,.2l.1,.3l.3,.3l.1,.2l.3,.1l.3,.1l.3,.1l.3,-.1l.3,-.1l.3,-.1l.2,-.2l.1,-.3l.2,-.3l.1,-.2v-.3Z" class="g0_1075"/>
<path d="M802.1,837.8v-7.6l1,.3l22.8,6.6l2.5,.7l-2.5,.7L803.1,845l-1,.3v-1l.5,-.7l22.8,-6.5l.5,1.4h-.5l-22.8,-6.6l.5,-1.4l.5,.7v6.6h-1.5Z" class="g0_1075"/>
<path d="M802.1,844.3v-6.5h1.5v6.5h-1.5Z" class="g0_1075"/>
<path fill-rule="evenodd" d="M802.8,837.8v-6.6l22.8,6.6l-22.8,6.5v-6.5Z" class="g0_1075"/>
<path d="M685.5,836.3H684v3.1h1.5v-3.1Z" class="g0_1075"/>
<path d="M802,836.3h1.4v3.1H802v-3.1Z" class="g0_1075"/>
<path d="M685.5,836.3v3.1H802v-3.1H685.5Z" class="g0_1075"/>
<path d="M620.7,836.3h-1.4v3.1h1.4v-3.1Z" class="g0_1075"/>
<path d="M625.3,836.3h1.5v3.1h-1.5v-3.1Z" class="g0_1075"/>
<path d="M620.7,836.3v3.1h4.6v-3.1h-4.6Z" class="g0_1075"/>
<path fill-rule="evenodd" d="M638.7,836.3h-1.5v3.1h1.5v-3.1Z" class="g0_1075"/>
<path fill-rule="evenodd" d="M648.7,836.3h1.5v3.1h-1.5v-3.1Z" class="g0_1075"/>
<path fill-rule="evenodd" d="M638.7,836.3v3.1h10v-3.1h-10Z" class="g0_1075"/>
<path fill-rule="evenodd" d="M662.1,836.3h-1.5v3.1h1.5v-3.1Z" class="g0_1075"/>
<path fill-rule="evenodd" d="M672.1,836.3h1.4v3.1h-1.4v-3.1Z" class="g0_1075"/>
<path fill-rule="evenodd" d="M662.1,836.3v3.1h10v-3.1h-10Z" class="g0_1075"/>
<path d="M685.5,836.3H684v3.1h1.5v-3.1Z" class="g0_1075"/>
<path d="M690,836.3h1.5v3.1H690v-3.1Z" class="g0_1075"/>
<path d="M685.5,836.3v3.1H690v-3.1h-4.5Z" class="g0_1075"/>
<path d="M232.9,738.3v-5l1,.3l14.1,4l2.5,.7l-2.5,.8l-14.1,4.1l-1,.3v-1l.6,-.8l14.1,-4.1l.4,1.5h-.4L233.5,735l.4,-1.4l.6,.7v4h-1.6Z" class="g0_1075"/>
<path d="M232.9,742.5v-4.2h1.6v4.2h-1.6Z" class="g0_1075"/>
<path fill-rule="evenodd" d="M233.6,738.3v-4l14.2,4l-14.2,4.2v-4.2Z" class="g0_1075"/>
<path d="M216.1,738h-.3v.7h.3V738Z" class="g0_1075"/>
<path d="M232.9,738h.4v.7h-.4V738Z" class="g0_1075"/>
<path d="M216.1,738v.7h16.8V738H216.1Z" class="g0_1075"/>
<path d="M480.5,480.7H563v126H480.5v-126Z" class="g1_1075"/>
<path d="M480.5,480.3h82.9v.7H480.5v-.7Z" class="g0_1075"/>
<path d="M562.6,480.7h.8V607.1h-.8V480.7Z" class="g0_1075"/>
<path d="M480.1,606.4H563v.7H480.1v-.7Z" class="g0_1075"/>
<path d="M480.1,480.3h.8V606.7h-.8V480.3Z" class="g0_1075"/>
<path d="M737.5,480.7H820v126H737.5v-126Z" class="g1_1075"/>
<path d="M737.5,480.3h82.9v.7H737.5v-.7Z" class="g0_1075"/>
<path d="M819.7,480.7h.7V607.1h-.7V480.7Z" class="g0_1075"/>
<path d="M737.2,606.4H820v.7H737.2v-.7Z" class="g0_1075"/>
<path d="M737.2,480.3h.7V606.7h-.7V480.3Z" class="g0_1075"/>
<path d="M263.2,898.9h98.9v.8H263.2v-.8Z" class="g0_1075"/>
<path d="M361.3,899.3h.8v69.1h-.8V899.3Z" class="g0_1075"/>
<path d="M262.8,967.7h98.9v.7H262.8v-.7Z" class="g0_1075"/>
<path d="M262.8,898.9h.7v69.2h-.7V898.9Z" class="g0_1075"/>
<path d="M552.8,855.4h-5l.3,-1l4,-14.1l.7,-2.6l.8,2.6l4,14.1l.3,1h-1l-.8,-.6l-4,-14.1l1.5,-.4v.4l-4.1,14.1l-1.4,-.4l.7,-.6h4v1.6Z" class="g0_1075"/>
<path d="M556.9,855.4h-4.1v-1.6h4.1v1.6Z" class="g0_1075"/>
<path fill-rule="evenodd" d="M552.8,854.7h-4l4,-14.2l4.1,14.2h-4.1Z" class="g0_1075"/>
<path d="M552.8,883.2h5.1l-.3,1l-4,14.1l-.8,2.6l-.7,-2.6l-4,-14.1l-.3,-1h1l.7,.5l4.1,14.1l-1.5,.5v-.5l4,-14.1l1.5,.5l-.7,.5h-4.1v-1.5Z" class="g0_1075"/>
<path d="M548.8,883.2h4v1.5h-4v-1.5Z" class="g0_1075"/>
<path fill-rule="evenodd" d="M552.8,883.9h4.1L552.8,898l-4,-14.1h4Z" class="g0_1075"/>
<path d="M553.2,855.4V855h-.7v.4h.7Z" class="g0_1075"/>
<path d="M553.2,883.2v.3h-.7v-.3h.7Z" class="g0_1075"/>
<path d="M553.2,855.4h-.7v27.8h.7V855.4Z" class="g0_1075"/>
<path d="M495.3,935.3v-5l1.1,.3l14.1,4l2.4,.7l-2.4,.8l-14.1,4.1l-1.1,.3v-1l.6,-.8L510,934.6l.5,1.5H510L495.9,932l.5,-1.4l.5,.7v4h-1.6Z" class="g0_1075"/>
<path d="M495.3,939.5v-4.2h1.6v4.2h-1.6Z" class="g0_1075"/>
<path fill-rule="evenodd" d="M496.1,935.3v-4l14.1,4l-14.1,4.2v-4.2Z" class="g0_1075"/>
<path d="M469.4,935H469v.7h.4V935Z" class="g0_1075"/>
<path d="M495.3,935h.4v.7h-.4V935Z" class="g0_1075"/>
<path d="M469.4,935v.7h25.9V935H469.4Z" class="g0_1075"/>
<path d="M720.7,935.3v-5l1,.3l14.1,4l2.5,.7l-2.5,.8l-14.1,4.1l-1,.3v-1l.5,-.8l14.1,-4.1l.5,1.5h-.5L721.2,932l.5,-1.4l.5,.7v4h-1.5Z" class="g0_1075"/>
<path d="M720.7,939.5v-4.2h1.5v4.2h-1.5Z" class="g0_1075"/>
<path fill-rule="evenodd" d="M721.4,935.3v-4l14.1,4l-14.1,4.2v-4.2Z" class="g0_1075"/>
<path d="M694.7,935h-.4v.7h.4V935Z" class="g0_1075"/>
<path d="M720.7,935h.3v.7h-.3V935Z" class="g0_1075"/>
<path d="M694.7,935v.7h26V935h-26Z" class="g0_1075"/>
<path d="M737.5,898.9h84.1v.8H737.5v-.8Z" class="g0_1075"/>
<path d="M820.8,899.3h.8v72.5h-.8V899.3Z" class="g0_1075"/>
<path d="M737.2,971.1h84v.7h-84v-.7Z" class="g0_1075"/>
<path d="M737.2,898.9h.7v72.5h-.7V898.9Z" class="g0_1075"/>
<path d="M779.3,854.2h-5l.3,-1l4,-14l.7,-2.6l.8,2.6l4,14l.3,1h-1l-.8,-.5l-4,-14.1l1.5,-.4v.4L776,853.7l-1.4,-.5l.7,-.6h4v1.6Z" class="g0_1075"/>
<path d="M783.4,854.2h-4.1v-1.6h4.1v1.6Z" class="g0_1075"/>
<path fill-rule="evenodd" d="M779.3,853.5h-4l4,-14.1l4.1,14.1h-4.1Z" class="g0_1075"/>
<path d="M779.3,882.1h5.1l-.3,1l-4,14.1l-.8,2.6l-.7,-2.6l-4,-14.1l-.3,-1h1l.7,.5l4.1,14.1l-1.5,.5v-.5l4,-14.1l1.5,.5l-.7,.5h-4.1v-1.5Z" class="g0_1075"/>
<path d="M775.3,882.1h4v1.5h-4v-1.5Z" class="g0_1075"/>
<path fill-rule="evenodd" d="M779.3,882.8h4.1l-4.1,14.1l-4,-14.1h4Z" class="g0_1075"/>
<path d="M779.7,854.3v-.4H779v.4h.7Z" class="g0_1075"/>
<path d="M779.7,882.1v.3H779v-.3h.7Z" class="g0_1075"/>
<path d="M779.7,854.3H779v27.8h.7V854.3Z" class="g0_1075"/>
<path d="M232.9,676.3v-5.1l1,.3l14.1,4.1l2.6,.7L248,677l-14.1,4.1l-1,.2v-1l.6,-.7l14.1,-4l.4,1.4h-.4l-14.1,-4l.4,-1.5l.6,.8v4h-1.6Z" class="g0_1075"/>
<path d="M232.9,680.3v-4h1.6v4h-1.6Z" class="g0_1075"/>
<path fill-rule="evenodd" d="M233.6,676.3v-4l14.2,4l-14.2,4v-4Z" class="g0_1075"/>
<path d="M216.1,675.9h-.3v.8h.3v-.8Z" class="g0_1075"/>
<path d="M232.9,675.9h.4v.8h-.4v-.8Z" class="g0_1075"/>
<path d="M216.1,675.9v.8h16.8v-.8H216.1Z" class="g0_1075"/>
<path d="M232.9,645.3v-5l1,.2l14.1,4.1l2.6,.7L248,646l-14.1,4.1l-1,.2v-1l.6,-.7l14.1,-4l.4,1.4h-.4l-14.1,-4l.4,-1.5l.6,.8v4h-1.6Z" class="g0_1075"/>
<path d="M232.9,649.3v-4h1.6v4h-1.6Z" class="g0_1075"/>
<path fill-rule="evenodd" d="M233.6,645.3v-4l14.2,4l-14.2,4v-4Z" class="g0_1075"/>
<path d="M216.1,644.9h-.3v.8h.3v-.8Z" class="g0_1075"/>
<path d="M232.9,644.9h.4v.8h-.4v-.8Z" class="g0_1075"/>
<path d="M216.1,644.9v.8h16.8v-.8H216.1Z" class="g0_1075"/>
<path d="M497.6,620.1h-5l.3,-1l4,-14.1l.7,-2.6l.8,2.6l4,14.1l.3,1h-1l-.8,-.6l-4,-14.1l1.5,-.4v.4l-4.1,14.1l-1.4,-.4l.7,-.6h4v1.6Z" class="g0_1075"/>
<path d="M501.7,620.1h-4.1v-1.6h4.1v1.6Z" class="g0_1075"/>
<path fill-rule="evenodd" d="M497.6,619.4h-4l4,-14.2l4.1,14.2h-4.1Z" class="g0_1075"/>
<path d="M497.3,632.3v.4h.7v-.4h-.7Z" class="g0_1075"/>
<path d="M497.3,620.1v-.4h.7v.4h-.7Z" class="g0_1075"/>
<path d="M497.3,632.3h.7V620.1h-.7v12.2Z" class="g0_1075"/>
<path d="M754.7,619.7h-5.1l.3,-1l4,-14.1l.8,-2.5l.7,2.5l4.1,14.1l.3,1h-1l-.7,-.5l-4.2,-14.1l1.5,-.5v.5l-4,14.1l-1.5,-.5l.7,-.5h4.1v1.5Z" class="g0_1075"/>
<path d="M758.8,619.7h-4.1v-1.5h4.1v1.5Z" class="g0_1075"/>
<path fill-rule="evenodd" d="M754.7,619h-4.1l4.1,-14.1l4.1,14.1h-4.1Z" class="g0_1075"/>
<path d="M754.3,631.9v.4h.7v-.4h-.7Z" class="g0_1075"/>
<path d="M754.3,619.7v-.3h.7v.3h-.7Z" class="g0_1075"/>
<path d="M754.3,631.9h.7V619.7h-.7v12.2Z" class="g0_1075"/>
<path d="M232.9,707.4v-5.1l1,.3l14.1,4l2.6,.8l-2.6,.7l-14.1,4l-1,.3v-1l.6,-.7l14.1,-4.1l.4,1.5h-.4l-14.1,-4l.4,-1.5l.6,.7v4.1h-1.6Z" class="g0_1075"/>
<path d="M232.9,711.4v-4h1.6v4h-1.6Z" class="g0_1075"/>
<path fill-rule="evenodd" d="M233.6,707.4v-4.1l14.2,4.1l-14.2,4v-4Z" class="g0_1075"/>
<path d="M216.1,707h-.3v.7h.3V707Z" class="g0_1075"/>
<path d="M232.9,707h.4v.7h-.4V707Z" class="g0_1075"/>
<path d="M216.1,707v.7h16.8V707H216.1Z" class="g0_1075"/>
<path d="M232.9,769.4v-5l1,.3l14.1,4l2.6,.7l-2.6,.8l-14.1,4l-1,.3v-1l.6,-.8l14.1,-4l.4,1.5h-.4l-14.1,-4.1l.4,-1.4l.6,.7v4h-1.6Z" class="g0_1075"/>
<path d="M232.9,773.5v-4.1h1.6v4.1h-1.6Z" class="g0_1075"/>
<path fill-rule="evenodd" d="M233.6,769.4v-4l14.2,4l-14.2,4.1v-4.1Z" class="g0_1075"/>
<path d="M216.1,769.1h-.3v.7h.3v-.7Z" class="g0_1075"/>
<path d="M232.9,769.1h.4v.7h-.4v-.7Z" class="g0_1075"/>
<path d="M216.1,769.1v.7h16.8v-.7H216.1Z" class="g0_1075"/>
<path d="M232.9,738.3v-5l1,.3l14.1,4l2.5,.7l-2.5,.8l-14.1,4.1l-1,.3v-1l.6,-.8l14.1,-4.1l.4,1.5h-.4L233.5,735l.4,-1.4l.6,.7v4h-1.6Z" class="g0_1075"/>
<path d="M232.9,742.5v-4.2h1.6v4.2h-1.6Z" class="g0_1075"/>
<path fill-rule="evenodd" d="M233.6,738.3v-4l14.2,4l-14.2,4.2v-4.2Z" class="g0_1075"/>
<path d="M216.1,738h-.3v.7h.3V738Z" class="g0_1075"/>
<path d="M232.9,738h.4v.7h-.4V738Z" class="g0_1075"/>
<path d="M216.1,738v.7h16.8V738H216.1Z" class="g0_1075"/>
<path d="M232.9,676.3v-5.1l1,.3l14.1,4.1l2.6,.7L248,677l-14.1,4.1l-1,.2v-1l.6,-.7l14.1,-4l.4,1.4h-.4l-14.1,-4l.4,-1.5l.6,.8v4h-1.6Z" class="g0_1075"/>
<path d="M232.9,680.3v-4h1.6v4h-1.6Z" class="g0_1075"/>
<path fill-rule="evenodd" d="M233.6,676.3v-4l14.2,4l-14.2,4v-4Z" class="g0_1075"/>
<path d="M216.1,675.9h-.3v.8h.3v-.8Z" class="g0_1075"/>
<path d="M232.9,675.9h.4v.8h-.4v-.8Z" class="g0_1075"/>
<path d="M216.1,675.9v.8h16.8v-.8H216.1Z" class="g0_1075"/>
<path d="M232.9,645.3v-5l1,.2l14.1,4.1l2.6,.7L248,646l-14.1,4.1l-1,.2v-1l.6,-.7l14.1,-4l.4,1.4h-.4l-14.1,-4l.4,-1.5l.6,.8v4h-1.6Z" class="g0_1075"/>
<path d="M232.9,649.3v-4h1.6v4h-1.6Z" class="g0_1075"/>
<path fill-rule="evenodd" d="M233.6,645.3v-4l14.2,4l-14.2,4v-4Z" class="g0_1075"/>
<path d="M216.1,644.9h-.3v.8h.3v-.8Z" class="g0_1075"/>
<path d="M232.9,644.9h.4v.8h-.4v-.8Z" class="g0_1075"/>
<path d="M216.1,644.9v.8h16.8v-.8H216.1Z" class="g0_1075"/>
<path d="M232.9,707.4v-5.1l1,.3l14.1,4l2.6,.8l-2.6,.7l-14.1,4l-1,.3v-1l.6,-.7l14.1,-4.1l.4,1.5h-.4l-14.1,-4l.4,-1.5l.6,.7v4.1h-1.6Z" class="g0_1075"/>
<path d="M232.9,711.4v-4h1.6v4h-1.6Z" class="g0_1075"/>
<path fill-rule="evenodd" d="M233.6,707.4v-4.1l14.2,4.1l-14.2,4v-4Z" class="g0_1075"/>
<path d="M216.1,707h-.3v.7h.3V707Z" class="g0_1075"/>
<path d="M232.9,707h.4v.7h-.4V707Z" class="g0_1075"/>
<path d="M216.1,707v.7h16.8V707H216.1Z" class="g0_1075"/>
<path d="M232.9,769.4v-5l1,.3l14.1,4l2.6,.7l-2.6,.8l-14.1,4l-1,.3v-1l.6,-.8l14.1,-4l.4,1.5h-.4l-14.1,-4.1l.4,-1.4l.6,.7v4h-1.6Z" class="g0_1075"/>
<path d="M232.9,773.5v-4.1h1.6v4.1h-1.6Z" class="g0_1075"/>
<path fill-rule="evenodd" d="M233.6,769.4v-4l14.2,4l-14.2,4.1v-4.1Z" class="g0_1075"/>
<path d="M216.1,769.1h-.3v.7h.3v-.7Z" class="g0_1075"/>
<path d="M232.9,769.1h.4v.7h-.4v-.7Z" class="g0_1075"/>
<path d="M216.1,769.1v.7h16.8v-.7H216.1Z" class="g0_1075"/>
<path d="M468.2,738.3v-5l1,.3l14.1,4l2.5,.7l-2.5,.8l-14.1,4.1l-1,.3v-1l.6,-.8l14.1,-4.1l.4,1.5h-.4L468.8,735l.4,-1.4l.6,.7v4h-1.6Z" class="g0_1075"/>
<path d="M468.2,742.5v-4.2h1.6v4.2h-1.6Z" class="g0_1075"/>
<path fill-rule="evenodd" d="M468.9,738.3v-4l14.2,4l-14.2,4.2v-4.2Z" class="g0_1075"/>
<path d="M451.4,738h-.3v.7h.3V738Z" class="g0_1075"/>
<path d="M468.2,738h.4v.7h-.4V738Z" class="g0_1075"/>
<path d="M451.4,738v.7h16.8V738H451.4Z" class="g0_1075"/>
<path d="M468.2,676.3v-5.1l1,.3l14.1,4.1l2.6,.7l-2.6,.7l-14.1,4.1l-1,.2v-1l.6,-.7l14.1,-4l.4,1.4h-.4l-14.1,-4l.4,-1.5l.6,.8v4h-1.6Z" class="g0_1075"/>
<path d="M468.2,680.3v-4h1.6v4h-1.6Z" class="g0_1075"/>
<path fill-rule="evenodd" d="M468.9,676.3v-4l14.2,4l-14.2,4v-4Z" class="g0_1075"/>
<path d="M451.4,675.9h-.3v.8h.3v-.8Z" class="g0_1075"/>
<path d="M468.2,675.9h.4v.8h-.4v-.8Z" class="g0_1075"/>
<path d="M451.4,675.9v.8h16.8v-.8H451.4Z" class="g0_1075"/>
<path d="M468.2,645.3v-5l1,.2l14.1,4.1l2.6,.7l-2.6,.7l-14.1,4.1l-1,.2v-1l.6,-.7l14.1,-4l.4,1.4h-.4l-14.1,-4l.4,-1.5l.6,.8v4h-1.6Z" class="g0_1075"/>
<path d="M468.2,649.3v-4h1.6v4h-1.6Z" class="g0_1075"/>
<path fill-rule="evenodd" d="M468.9,645.3v-4l14.2,4l-14.2,4v-4Z" class="g0_1075"/>
<path d="M451.4,644.9h-.3v.8h.3v-.8Z" class="g0_1075"/>
<path d="M468.2,644.9h.4v.8h-.4v-.8Z" class="g0_1075"/>
<path d="M451.4,644.9v.8h16.8v-.8H451.4Z" class="g0_1075"/>
<path d="M468.2,707.4v-5.1l1,.3l14.1,4l2.6,.8l-2.6,.7l-14.1,4l-1,.3v-1l.6,-.7l14.1,-4.1l.4,1.5h-.4l-14.1,-4l.4,-1.5l.6,.7v4.1h-1.6Z" class="g0_1075"/>
<path d="M468.2,711.4v-4h1.6v4h-1.6Z" class="g0_1075"/>
<path fill-rule="evenodd" d="M468.9,707.4v-4.1l14.2,4.1l-14.2,4v-4Z" class="g0_1075"/>
<path d="M451.4,707h-.3v.7h.3V707Z" class="g0_1075"/>
<path d="M468.2,707h.4v.7h-.4V707Z" class="g0_1075"/>
<path d="M451.4,707v.7h16.8V707H451.4Z" class="g0_1075"/>
<path d="M468.2,769.4v-5l1,.3l14.1,4l2.6,.7l-2.6,.8l-14.1,4l-1,.3v-1l.6,-.8l14.1,-4l.4,1.5h-.4l-14.1,-4.1l.4,-1.4l.6,.7v4h-1.6Z" class="g0_1075"/>
<path d="M468.2,773.5v-4.1h1.6v4.1h-1.6Z" class="g0_1075"/>
<path fill-rule="evenodd" d="M468.9,769.4v-4l14.2,4l-14.2,4.1v-4.1Z" class="g0_1075"/>
<path d="M451.4,769.1h-.3v.7h.3v-.7Z" class="g0_1075"/>
<path d="M468.2,769.1h.4v.7h-.4v-.7Z" class="g0_1075"/>
<path d="M451.4,769.1v.7h16.8v-.7H451.4Z" class="g0_1075"/>
<path d="M468.2,738.3v-5l1,.3l14.1,4l2.5,.7l-2.5,.8l-14.1,4.1l-1,.3v-1l.6,-.8l14.1,-4.1l.4,1.5h-.4L468.8,735l.4,-1.4l.6,.7v4h-1.6Z" class="g0_1075"/>
<path d="M468.2,742.5v-4.2h1.6v4.2h-1.6Z" class="g0_1075"/>
<path fill-rule="evenodd" d="M468.9,738.3v-4l14.2,4l-14.2,4.2v-4.2Z" class="g0_1075"/>
<path d="M451.4,738h-.3v.7h.3V738Z" class="g0_1075"/>
<path d="M468.2,738h.4v.7h-.4V738Z" class="g0_1075"/>
<path d="M451.4,738v.7h16.8V738H451.4Z" class="g0_1075"/>
<path d="M468.2,676.3v-5.1l1,.3l14.1,4.1l2.6,.7l-2.6,.7l-14.1,4.1l-1,.2v-1l.6,-.7l14.1,-4l.4,1.4h-.4l-14.1,-4l.4,-1.5l.6,.8v4h-1.6Z" class="g0_1075"/>
<path d="M468.2,680.3v-4h1.6v4h-1.6Z" class="g0_1075"/>
<path fill-rule="evenodd" d="M468.9,676.3v-4l14.2,4l-14.2,4v-4Z" class="g0_1075"/>
<path d="M451.4,675.9h-.3v.8h.3v-.8Z" class="g0_1075"/>
<path d="M468.2,675.9h.4v.8h-.4v-.8Z" class="g0_1075"/>
<path d="M451.4,675.9v.8h16.8v-.8H451.4Z" class="g0_1075"/>
<path d="M468.2,645.3v-5l1,.2l14.1,4.1l2.6,.7l-2.6,.7l-14.1,4.1l-1,.2v-1l.6,-.7l14.1,-4l.4,1.4h-.4l-14.1,-4l.4,-1.5l.6,.8v4h-1.6Z" class="g0_1075"/>
<path d="M468.2,649.3v-4h1.6v4h-1.6Z" class="g0_1075"/>
<path fill-rule="evenodd" d="M468.9,645.3v-4l14.2,4l-14.2,4v-4Z" class="g0_1075"/>
<path d="M451.4,644.9h-.3v.8h.3v-.8Z" class="g0_1075"/>
<path d="M468.2,644.9h.4v.8h-.4v-.8Z" class="g0_1075"/>
<path d="M451.4,644.9v.8h16.8v-.8H451.4Z" class="g0_1075"/>
<path d="M468.2,707.4v-5.1l1,.3l14.1,4l2.6,.8l-2.6,.7l-14.1,4l-1,.3v-1l.6,-.7l14.1,-4.1l.4,1.5h-.4l-14.1,-4l.4,-1.5l.6,.7v4.1h-1.6Z" class="g0_1075"/>
<path d="M468.2,711.4v-4h1.6v4h-1.6Z" class="g0_1075"/>
<path fill-rule="evenodd" d="M468.9,707.4v-4.1l14.2,4.1l-14.2,4v-4Z" class="g0_1075"/>
<path d="M451.4,707h-.3v.7h.3V707Z" class="g0_1075"/>
<path d="M468.2,707h.4v.7h-.4V707Z" class="g0_1075"/>
<path d="M451.4,707v.7h16.8V707H451.4Z" class="g0_1075"/>
<path d="M468.2,769.4v-5l1,.3l14.1,4l2.6,.7l-2.6,.8l-14.1,4l-1,.3v-1l.6,-.8l14.1,-4l.4,1.5h-.4l-14.1,-4.1l.4,-1.4l.6,.7v4h-1.6Z" class="g0_1075"/>
<path d="M468.2,773.5v-4.1h1.6v4.1h-1.6Z" class="g0_1075"/>
<path fill-rule="evenodd" d="M468.9,769.4v-4l14.2,4l-14.2,4.1v-4.1Z" class="g0_1075"/>
<path d="M451.4,769.1h-.3v.7h.3v-.7Z" class="g0_1075"/>
<path d="M468.2,769.1h.4v.7h-.4v-.7Z" class="g0_1075"/>
<path d="M451.4,769.1v.7h16.8v-.7H451.4Z" class="g0_1075"/>
<path d="M724.9,738.3v-5l1,.3l14.1,4l2.5,.7l-2.5,.8l-14.1,4.1l-1,.3v-1l.5,-.8l14.1,-4.1l.5,1.5h-.5L725.4,735l.5,-1.4l.5,.7v4h-1.5Z" class="g0_1075"/>
<path d="M724.9,742.5v-4.2h1.5v4.2h-1.5Z" class="g0_1075"/>
<path fill-rule="evenodd" d="M725.6,738.3v-4l14.1,4l-14.1,4.2v-4.2Z" class="g0_1075"/>
<path d="M708.1,738h-.4v.7h.4V738Z" class="g0_1075"/>
<path d="M724.9,738h.3v.7h-.3V738Z" class="g0_1075"/>
<path d="M708.1,738v.7h16.8V738H708.1Z" class="g0_1075"/>
<path d="M724.9,676.3v-5.1l1,.3l14.1,4.1l2.6,.7L740,677l-14.1,4.1l-1,.2v-1l.5,-.7l14.1,-4l.5,1.4h-.5l-14.1,-4l.5,-1.5l.5,.8v4h-1.5Z" class="g0_1075"/>
<path d="M724.9,680.3v-4h1.5v4h-1.5Z" class="g0_1075"/>
<path fill-rule="evenodd" d="M725.6,676.3v-4l14.1,4l-14.1,4v-4Z" class="g0_1075"/>
<path d="M708.1,675.9h-.4v.8h.4v-.8Z" class="g0_1075"/>
<path d="M724.9,675.9h.3v.8h-.3v-.8Z" class="g0_1075"/>
<path d="M708.1,675.9v.8h16.8v-.8H708.1Z" class="g0_1075"/>
<path d="M724.9,645.3v-5l1,.2l14.1,4.1l2.6,.7L740,646l-14.1,4.1l-1,.2v-1l.5,-.7l14.1,-4l.5,1.4h-.5l-14.1,-4l.5,-1.5l.5,.8v4h-1.5Z" class="g0_1075"/>
<path d="M724.9,649.3v-4h1.5v4h-1.5Z" class="g0_1075"/>
<path fill-rule="evenodd" d="M725.6,645.3v-4l14.1,4l-14.1,4v-4Z" class="g0_1075"/>
<path d="M708.1,644.9h-.4v.8h.4v-.8Z" class="g0_1075"/>
<path d="M724.9,644.9h.3v.8h-.3v-.8Z" class="g0_1075"/>
<path d="M708.1,644.9v.8h16.8v-.8H708.1Z" class="g0_1075"/>
<path d="M724.9,707.4v-5.1l1,.3l14.1,4l2.6,.8l-2.6,.7l-14.1,4l-1,.3v-1l.5,-.7l14.1,-4.1l.5,1.5h-.5l-14.1,-4l.5,-1.5l.5,.7v4.1h-1.5Z" class="g0_1075"/>
<path d="M724.9,711.4v-4h1.5v4h-1.5Z" class="g0_1075"/>
<path fill-rule="evenodd" d="M725.6,707.4v-4.1l14.1,4.1l-14.1,4v-4Z" class="g0_1075"/>
<path d="M708.1,707h-.4v.7h.4V707Z" class="g0_1075"/>
<path d="M724.9,707h.3v.7h-.3V707Z" class="g0_1075"/>
<path d="M708.1,707v.7h16.8V707H708.1Z" class="g0_1075"/>
<path d="M724.9,769.4v-5l1,.3l14.1,4l2.6,.7l-2.6,.8l-14.1,4l-1,.3v-1l.5,-.8l14.1,-4l.5,1.5h-.5l-14.1,-4.1l.5,-1.4l.5,.7v4h-1.5Z" class="g0_1075"/>
<path d="M724.9,773.5v-4.1h1.5v4.1h-1.5Z" class="g0_1075"/>
<path fill-rule="evenodd" d="M725.6,769.4v-4l14.1,4l-14.1,4.1v-4.1Z" class="g0_1075"/>
<path d="M708.1,769.1h-.4v.7h.4v-.7Z" class="g0_1075"/>
<path d="M724.9,769.1h.3v.7h-.3v-.7Z" class="g0_1075"/>
<path d="M708.1,769.1v.7h16.8v-.7H708.1Z" class="g0_1075"/>
<path d="M724.9,738.3v-5l1,.3l14.1,4l2.5,.7l-2.5,.8l-14.1,4.1l-1,.3v-1l.5,-.8l14.1,-4.1l.5,1.5h-.5L725.4,735l.5,-1.4l.5,.7v4h-1.5Z" class="g0_1075"/>
<path d="M724.9,742.5v-4.2h1.5v4.2h-1.5Z" class="g0_1075"/>
<path fill-rule="evenodd" d="M725.6,738.3v-4l14.1,4l-14.1,4.2v-4.2Z" class="g0_1075"/>
<path d="M708.1,738h-.4v.7h.4V738Z" class="g0_1075"/>
<path d="M724.9,738h.3v.7h-.3V738Z" class="g0_1075"/>
<path d="M708.1,738v.7h16.8V738H708.1Z" class="g0_1075"/>
<path d="M724.9,676.3v-5.1l1,.3l14.1,4.1l2.6,.7L740,677l-14.1,4.1l-1,.2v-1l.5,-.7l14.1,-4l.5,1.4h-.5l-14.1,-4l.5,-1.5l.5,.8v4h-1.5Z" class="g0_1075"/>
<path d="M724.9,680.3v-4h1.5v4h-1.5Z" class="g0_1075"/>
<path fill-rule="evenodd" d="M725.6,676.3v-4l14.1,4l-14.1,4v-4Z" class="g0_1075"/>
<path d="M708.1,675.9h-.4v.8h.4v-.8Z" class="g0_1075"/>
<path d="M724.9,675.9h.3v.8h-.3v-.8Z" class="g0_1075"/>
<path d="M708.1,675.9v.8h16.8v-.8H708.1Z" class="g0_1075"/>
<path d="M724.9,645.3v-5l1,.2l14.1,4.1l2.6,.7L740,646l-14.1,4.1l-1,.2v-1l.5,-.7l14.1,-4l.5,1.4h-.5l-14.1,-4l.5,-1.5l.5,.8v4h-1.5Z" class="g0_1075"/>
<path d="M724.9,649.3v-4h1.5v4h-1.5Z" class="g0_1075"/>
<path fill-rule="evenodd" d="M725.6,645.3v-4l14.1,4l-14.1,4v-4Z" class="g0_1075"/>
<path d="M708.1,644.9h-.4v.8h.4v-.8Z" class="g0_1075"/>
<path d="M724.9,644.9h.3v.8h-.3v-.8Z" class="g0_1075"/>
<path d="M708.1,644.9v.8h16.8v-.8H708.1Z" class="g0_1075"/>
<path d="M724.9,707.4v-5.1l1,.3l14.1,4l2.6,.8l-2.6,.7l-14.1,4l-1,.3v-1l.5,-.7l14.1,-4.1l.5,1.5h-.5l-14.1,-4l.5,-1.5l.5,.7v4.1h-1.5Z" class="g0_1075"/>
<path d="M724.9,711.4v-4h1.5v4h-1.5Z" class="g0_1075"/>
<path fill-rule="evenodd" d="M725.6,707.4v-4.1l14.1,4.1l-14.1,4v-4Z" class="g0_1075"/>
<path d="M708.1,707h-.4v.7h.4V707Z" class="g0_1075"/>
<path d="M724.9,707h.3v.7h-.3V707Z" class="g0_1075"/>
<path d="M708.1,707v.7h16.8V707H708.1Z" class="g0_1075"/>
<path d="M724.9,769.4v-5l1,.3l14.1,4l2.6,.7l-2.6,.8l-14.1,4l-1,.3v-1l.5,-.8l14.1,-4l.5,1.5h-.5l-14.1,-4.1l.5,-1.4l.5,.7v4h-1.5Z" class="g0_1075"/>
<path d="M724.9,773.5v-4.1h1.5v4.1h-1.5Z" class="g0_1075"/>
<path fill-rule="evenodd" d="M725.6,769.4v-4l14.1,4l-14.1,4.1v-4.1Z" class="g0_1075"/>
<path d="M708.1,769.1h-.4v.7h.4v-.7Z" class="g0_1075"/>
<path d="M724.9,769.1h.3v.7h-.3v-.7Z" class="g0_1075"/>
<path d="M708.1,769.1v.7h16.8v-.7H708.1Z" class="g0_1075"/>
</svg>