<?xml version="1.0" encoding="UTF-8" standalone="no"?>
<!DOCTYPE svg PUBLIC "-//W3C//DTD SVG 1.1//EN"
"http://www.w3.org/Graphics/SVG/1.1/DTD/svg11.dtd">
<svg viewBox="0 0 935 1210" version="1.1" xmlns="http://www.w3.org/2000/svg" xmlns:xlink="http://www.w3.org/1999/xlink">
<defs>
<style type="text/css"><![CDATA[
.g0_862{
fill: #FFF;
}
.g1_862{
fill: #000;
}
]]></style>
</defs>
<path d="M165,1149.3H852.5v-21.2H165v21.2Z" class="g0_862"/>
<path d="M68.8,1149.3h82.5v-21.2H68.8v21.2Z" class="g0_862"/>
<path d="M157.7,303.6h.7V124.1h-.7V303.6Z" class="g1_862"/>
<path d="M762.7,303.6h.7V124.1h-.7V303.6Z" class="g1_862"/>
<path d="M157.7,124.1H763.5v-.7H157.7v.7Z" class="g1_862"/>
<path d="M157.7,304.3H763.5v-.7H157.7v.7Z" class="g1_862"/>
<path fill-rule="evenodd" d="M332.8,252v.3l.3,.1l.2,.2l.3,.2l.3,.1h.5l.4,-.1l.2,-.2c.4,-.3,.8,-.6,.7,-1.2v-.3l-.1,-.3l-.2,-.3l-.4,-.3l-.2,-.2l-.3,-.1h-.6l-.3,.1c-.8,.5,-.7,.2,-.9,1.1v.6l.1,.3Z" class="g1_862"/>
<path d="M334.1,251.4l2.5,6.1l.4,1l-1,.1l-23.8,2.6l-2.6,.2l2.1,-1.6L330.4,245l.8,-.6l.4,.9l-.2,.9L312.7,261l-1,-1.2l.4,-.2L335.9,257l.1,1.6l-.8,-.6l-2.4,-6Z" class="g1_862"/>
<path d="M331.6,245.3l2.5,6.1l-1.3,.6l-2.6,-6.2Z" class="g1_862"/>
<path fill-rule="evenodd" d="M333.5,251.7l2.5,6.1l-23.8,2.5l18.7,-14.7Z" class="g1_862"/>
<path d="M511.4,180.4l-1.2,-2.8L333.6,250l1.2,2.8Z" class="g1_862"/>
<path d="M655.1,178.9h56.8V158.3H655.1v20.6Z" class="g0_862"/>
<path d="M655.1,158.7h57.2v-.8H655.1v.8Z" class="g1_862"/>
<path d="M711.5,179.3h.8v-21h-.8v21Z" class="g1_862"/>
<path d="M654.8,179.3h57.1v-.7H654.8v.7Z" class="g1_862"/>
<path d="M654.8,178.9h.7v-21h-.7v21Z" class="g1_862"/>
<path fill-rule="evenodd" d="M658.8,238.1l.6,.1c1.4,-.2,2.1,-2,.7,-2.8l-.3,-.2l-.3,-.1c-1.7,0,-2.2,1.8,-1.2,2.7l.2,.2l.3,.1Z" class="g1_862"/>
<path d="M659.3,236.8l6.2,2.3l.9,.3l-.6,.9l-14.2,19.1l-1.6,2.1l.2,-2.6L652,235.1l.2,-1l.9,.4l.5,.7L651.7,259l-1.5,-.1l.2,-.5l14.2,-19.2l1.2,1.1l-.9,.1l-6.2,-2.2Z" class="g1_862"/>
<path d="M653.1,234.5l6.2,2.3l-.6,1.4l-6.1,-2.3Z" class="g1_862"/>
<path fill-rule="evenodd" d="M659,237.4l6.2,2.3L651,258.9l1.9,-23.8Z" class="g1_862"/>
<path d="M682.5,179.5l-2.9,-1.1l-21.7,57.7l2.8,1.1Z" class="g1_862"/>
<path fill-rule="evenodd" d="M559.3,243.8l.3,.2l.2,.1c1.5,.6,2.6,-.8,1.9,-2.2l-.1,-.3l-.3,-.2l-.9,-.2l-.2,.1l-.4,.1h-.2l-.3,.2c-.4,.8,-.4,.5,-.4,1.4l.1,.3l.3,.5Z" class="g1_862"/>
<path d="M560.4,242.7l4.6,4.7l.7,.8l-.8,.5L544,260.2l-2.3,1.3l1.2,-2.4l11.6,-20.9l.5,-.8l.8,.7l.1,.9l-11.6,20.9l-1.4,-.8l.4,-.2l20.8,-11.6l.8,1.4l-1,-.2l-4.6,-4.7Z" class="g1_862"/>
<path d="M555.8,238.1l4.6,4.6l-1.1,1.1l-4.6,-4.6Z" class="g1_862"/>
<path fill-rule="evenodd" d="M559.9,243.3l4.6,4.7l-20.8,11.5l11.5,-20.9Z" class="g1_862"/>
<path d="M625.4,180l-2.2,-2.1l-63.8,63.8l2.2,2.1Z" class="g1_862"/>
<path fill-rule="evenodd" d="M449.7,248.7l.2,.3l.2,.2c1.1,1,3,-.4,2.4,-1.8l-.1,-.3l-.2,-.1c-1.1,-1.2,-2.9,-.2,-2.7,1.1l.1,.3l.1,.3Z" class="g1_862"/>
<path d="M451,248l3.4,5.6l.5,1l-1.1,.1l-23,6l-2.6,.7l18.2,-19.1l.8,-.9l.5,1l-.1,.9l-16.4,17.2l-1.2,-1l.5,-.3l23.1,-5.9l.2,1.4l-.8,-.2l-3.4,-5.7Z" class="g1_862"/>
<path d="M447.7,242.4L451,248l-1.4,.8l-3.3,-5.6Z" class="g1_862"/>
<path fill-rule="evenodd" d="M450.4,248.3l3.4,5.7l-23.1,6l16.4,-17.3Z" class="g1_862"/>
<path d="M568.3,180.2l-1.5,-2.5l-116.5,69l1.5,2.5Z" class="g1_862"/>
<path d="M598.5,178.9h56.6V158.3H598.5v20.6Z" class="g0_862"/>
<path d="M598.5,158.7h57v-.8h-57v.8Z" class="g1_862"/>
<path d="M654.8,179.3h.7v-21h-.7v21Z" class="g1_862"/>
<path d="M598.1,179.3h57v-.7h-57v.7Z" class="g1_862"/>
<path d="M598.1,178.9h.8v-21h-.8v21Z" class="g1_862"/>
<path d="M541.8,178.9h56.7V158.3H541.8v20.6Z" class="g0_862"/>
<path d="M541.8,158.7h57.1v-.8H541.8v.8Z" class="g1_862"/>
<path d="M598.1,179.3h.8v-21h-.8v21Z" class="g1_862"/>
<path d="M541.4,179.3h57.1v-.7H541.4v.7Z" class="g1_862"/>
<path d="M541.4,178.9h.7v-21h-.7v21Z" class="g1_862"/>
<path d="M482.7,178.9h59V157.8h-59v21.1Z" class="g0_862"/>
<path d="M482.7,158.1h59.4v-.7H482.7v.7Z" class="g1_862"/>
<path d="M541.4,179.3h.7V157.8h-.7v21.5Z" class="g1_862"/>
<path d="M482.4,179.3h59.4v-.7H482.4v.7Z" class="g1_862"/>
<path d="M482.4,178.9h.7V157.4h-.7v21.5Z" class="g1_862"/>
<path d="M597.6,282.1H711.1V261.4H597.6v20.7Z" class="g0_862"/>
<path d="M597.6,261.8H711.4v-.7H597.6v.7Z" class="g1_862"/>
<path d="M710.7,282.4h.7v-21h-.7v21Z" class="g1_862"/>
<path d="M597.2,282.4H711.1v-.7H597.2v.7Z" class="g1_862"/>
<path d="M597.2,282.1h.7v-21h-.7v21Z" class="g1_862"/>
<path d="M257.3,282.1H370.7V261.4H257.3v20.7Z" class="g0_862"/>
<path d="M257.3,261.8H371.1v-.7H257.3v.7Z" class="g1_862"/>
<path d="M370.3,282.4h.8v-21h-.8v21Z" class="g1_862"/>
<path d="M256.9,282.4H370.7v-.7H256.9v.7Z" class="g1_862"/>
<path d="M256.9,282.1h.8v-21h-.8v21Z" class="g1_862"/>
<path d="M355.7,282.1H484.2V261.4H355.7v20.7Z" class="g0_862"/>
<path d="M355.7,261.8H484.6v-.7H355.7v.7Z" class="g1_862"/>
<path d="M483.8,282.4h.8v-21h-.8v21Z" class="g1_862"/>
<path d="M355.3,282.4H484.2v-.7H355.3v.7Z" class="g1_862"/>
<path d="M355.3,282.1h.7v-21h-.7v21Z" class="g1_862"/>
<path d="M484.2,282.1H597.6V261.4H484.2v20.7Z" class="g0_862"/>
<path d="M484.2,261.8H597.9v-.7H484.2v.7Z" class="g1_862"/>
<path d="M597.2,282.4h.7v-21h-.7v21Z" class="g1_862"/>
<path d="M483.8,282.4H597.6v-.7H483.8v.7Z" class="g1_862"/>
<path d="M483.8,282.1h.8v-21h-.8v21Z" class="g1_862"/>
</svg>