<?xml version="1.0" encoding="UTF-8" standalone="no"?>
<!DOCTYPE svg PUBLIC "-//W3C//DTD SVG 1.1//EN"
"http://www.w3.org/Graphics/SVG/1.1/DTD/svg11.dtd">
<svg viewBox="0 0 935 1210" version="1.1" xmlns="http://www.w3.org/2000/svg" xmlns:xlink="http://www.w3.org/1999/xlink">
<defs>
<clipPath id="c0_260"><path d="M97.2,59V41.4h72.2V59Z"/></clipPath>
<style type="text/css"><![CDATA[
.g0_260{
fill: #000;
}
]]></style>
</defs>
<path d="M96.1,63.1v.3H838.9v-.3H96.1Z" class="g0_260"/>
<path d="M96.1,1114.3v.3v-.3Z" class="g0_260"/>
<path d="M838.9,1114.3v.3v-.3Z" class="g0_260"/>
<path d="M96.1,1114.3v.3H838.9v-.3H96.1Z" class="g0_260"/>
<image clip-path="url(#c0_260)" preserveAspectRatio="none" x="97" y="41" width="72" height="18" xlink:href="img/1.jpg"/>
<path d="M165.4,463.4h-.8V768.1h.8V463.4Z" class="g0_260"/>
<path d="M235,462.3h-.7v253h.7v-253Z" class="g0_260"/>
<path d="M622.6,462.3h-.8v253h.8v-253Z" class="g0_260"/>
<path d="M770.3,463.4h-.7V768.1h.7V463.4Z" class="g0_260"/>
<path d="M164.6,462.3v.8H770.3v-.8H164.6Z" class="g0_260"/>
<path d="M164.6,486.9v.7H770.3v-.7H164.6Z" class="g0_260"/>
<path d="M164.6,532.7v.8H770.3v-.8H164.6Z" class="g0_260"/>
<path d="M164.6,558.8v.7H770.3v-.7H164.6Z" class="g0_260"/>
<path d="M234.3,584.8v.7h536v-.7h-536Z" class="g0_260"/>
<path d="M164.6,610.8v.8H770.3v-.8H164.6Z" class="g0_260"/>
<path d="M164.6,636.5v.7H770.3v-.7H164.6Z" class="g0_260"/>
<path d="M234.3,662.5v.8h536v-.8h-536Z" class="g0_260"/>
<path d="M164.6,688.6v.7H770.3v-.7H164.6Z" class="g0_260"/>
<path d="M164.6,714.6v.7H770.3v-.7H164.6Z" class="g0_260"/>
<path d="M164.6,768.1v.8H770.3v-.8H164.6Z" class="g0_260"/>
</svg>