<?xml version="1.0" encoding="UTF-8" standalone="no"?>
<!DOCTYPE svg PUBLIC "-//W3C//DTD SVG 1.1//EN"
"http://www.w3.org/Graphics/SVG/1.1/DTD/svg11.dtd">
<svg viewBox="0 0 935 1210" version="1.1" xmlns="http://www.w3.org/2000/svg" xmlns:xlink="http://www.w3.org/1999/xlink">
<defs>
<clipPath id="c0_2571"><path d="M97.3,59.2V41.4h72.1V59.2Z"/></clipPath>
<style type="text/css"><![CDATA[
.g0_2571{
fill: #000;
}
]]></style>
</defs>
<path d="M96.3,63.3H838.8v-.4H96.3v.4Z" class="g0_2571"/>
<path d="M96.1,1114.5h.2v-.4h-.2v.4Z" class="g0_2571"/>
<path d="M96.3,1114.5H838.9v-.4H96.3v.4Z" class="g0_2571"/>
<image clip-path="url(#c0_2571)" preserveAspectRatio="none" x="97" y="41" width="73" height="18" xlink:href="img/1.jpg"/>
<path d="M564.4,676.2h31.4v-1.1H564.4v1.1Z" class="g0_2571"/>
<path d="M95.9,529.7h.7V484.6h-.7v45.1Z" class="g0_2571"/>
<path d="M232.2,530.5h.7V483.9h-.7v46.6Z" class="g0_2571"/>
<path d="M309.6,530.5h.7V483.9h-.7v46.6Z" class="g0_2571"/>
<path d="M839.1,529.7h.7V484.6h-.7v45.1Z" class="g0_2571"/>
<path d="M95.9,484.6h744v-.7H95.9v.7Z" class="g0_2571"/>
<path d="M95.9,508.8h744v-3.1H95.9v3.1Z" class="g0_2571"/>
<path d="M95.9,530.5h744v-.8H95.9v.8Z" class="g0_2571"/>
</svg>