<?xml version="1.0" encoding="UTF-8" standalone="no"?>
<!DOCTYPE svg PUBLIC "-//W3C//DTD SVG 1.1//EN"
"http://www.w3.org/Graphics/SVG/1.1/DTD/svg11.dtd">
<svg viewBox="0 0 935 1210" version="1.1" xmlns="http://www.w3.org/2000/svg" xmlns:xlink="http://www.w3.org/1999/xlink">
<defs>
<clipPath id="c0_1463"><path d="M97.3,59.2V41.4h72.1V59.2Z"/></clipPath>
<style type="text/css"><![CDATA[
.g0_1463{
fill: #000;
}
]]></style>
</defs>
<path d="M96.2,62.9v.3H838.7v-.3H96.2Z" class="g0_1463"/>
<path d="M96.2,1114.1h-.1v.4h.1v-.4Z" class="g0_1463"/>
<path d="M838.7,1114.1h.2v.4h-.2v-.4Z" class="g0_1463"/>
<path d="M96.2,1114.1v.4H838.7v-.4H96.2Z" class="g0_1463"/>
<image clip-path="url(#c0_1463)" preserveAspectRatio="none" x="97" y="41" width="72" height="18" xlink:href="img/1.jpg"/>
<path d="M96.6,850.9h-.7V956h.7V850.9Z" class="g0_1463"/>
<path d="M244.8,847.9h-.7V956.8h.7V847.9Z" class="g0_1463"/>
<path d="M284.5,847.9h-.7V956.8h.7V847.9Z" class="g0_1463"/>
<path d="M338,847.9h-.8V956.8h.8V847.9Z" class="g0_1463"/>
<path d="M413.8,847.9H413V956.8h.8V847.9Z" class="g0_1463"/>
<path d="M845.1,850.9h-.7V956h.7V850.9Z" class="g0_1463"/>
<path d="M95.9,848v3H845.1v-3H95.9Z" class="g0_1463"/>
<path d="M95.9,890.7v3H845.1v-3H95.9Z" class="g0_1463"/>
<path d="M95.9,916.3v.7H845.1v-.7H95.9Z" class="g0_1463"/>
<path d="M95.9,956v.7H845.1V956H95.9Z" class="g0_1463"/>
</svg>