<?xml version="1.0" encoding="UTF-8" standalone="no"?>
<!DOCTYPE svg PUBLIC "-//W3C//DTD SVG 1.1//EN"
"http://www.w3.org/Graphics/SVG/1.1/DTD/svg11.dtd">
<svg viewBox="0 0 935 1210" version="1.1" xmlns="http://www.w3.org/2000/svg" xmlns:xlink="http://www.w3.org/1999/xlink">
<defs>
<clipPath id="c0_3176"><path d="M97.3,59.2V41.4h72.1V59.2Z"/></clipPath>
<style type="text/css"><![CDATA[
.g0_3176{
fill: #000;
}
]]></style>
</defs>
<path d="M96.3,63.3H838.8v-.4H96.3v.4Z" class="g0_3176"/>
<path d="M96.1,1114.5h.2v-.4h-.2v.4Z" class="g0_3176"/>
<path d="M96.3,1114.5H838.9v-.4H96.3v.4Z" class="g0_3176"/>
<image clip-path="url(#c0_3176)" preserveAspectRatio="none" x="97" y="41" width="73" height="18" xlink:href="img/1.jpg"/>
<path d="M95.9,713.1h.7V330h-.7V713.1Z" class="g0_3176"/>
<path d="M273.3,713.9h.8V327h-.8V713.9Z" class="g0_3176"/>
<path d="M321.3,713.9h.7V327h-.7V713.9Z" class="g0_3176"/>
<path d="M383.6,713.9h.8V327h-.8V713.9Z" class="g0_3176"/>
<path d="M464.6,713.9h.7V327h-.7V713.9Z" class="g0_3176"/>
<path d="M838.4,713.1h.7V330h-.7V713.1Z" class="g0_3176"/>
<path d="M95.9,330H839.1v-3H95.9v3Z" class="g0_3176"/>
<path d="M95.9,372.8H839.1v-3H95.9v3Z" class="g0_3176"/>
<path d="M273.3,396.1H839.1v-.7H273.3v.7Z" class="g0_3176"/>
<path d="M95.9,451.1H839.1v-.7H95.9v.7Z" class="g0_3176"/>
<path d="M95.9,490.8H839.1V490H95.9v.8Z" class="g0_3176"/>
<path d="M95.9,530.5H839.1v-.8H95.9v.8Z" class="g0_3176"/>
<path d="M273.3,570.3H839.1v-.8H273.3v.8Z" class="g0_3176"/>
<path d="M95.9,594.6H839.1v-.7H95.9v.7Z" class="g0_3176"/>
<path d="M95.9,634.4H839.1v-.7H95.9v.7Z" class="g0_3176"/>
<path d="M95.9,674.1H839.1v-.7H95.9v.7Z" class="g0_3176"/>
<path d="M95.9,713.8H839.1v-.7H95.9v.7Z" class="g0_3176"/>
</svg>