<?xml version="1.0" encoding="UTF-8" standalone="no"?>
<!DOCTYPE svg PUBLIC "-//W3C//DTD SVG 1.1//EN"
"http://www.w3.org/Graphics/SVG/1.1/DTD/svg11.dtd">
<svg viewBox="0 0 935 1210" version="1.1" xmlns="http://www.w3.org/2000/svg" xmlns:xlink="http://www.w3.org/1999/xlink">
<defs>
<style type="text/css"><![CDATA[
.g0_199{
fill: #FFF;
}
.g1_199{
fill: #000;
}
]]></style>
</defs>
<path d="M68.9,1149.3H852.7v-21.2H68.9v21.2Z" class="g0_199"/>
<path d="M171.3,992.5h.8V843.8h-.8V992.5Z" class="g1_199"/>
<path d="M750.7,992.5h.7V843.8h-.7V992.5Z" class="g1_199"/>
<path d="M171.3,843.7H751.4V843H171.3v.7Z" class="g1_199"/>
<path d="M171.3,993.3H751.4v-.7H171.3v.7Z" class="g1_199"/>
<path d="M653.6,906.3h2.1v-.4h-2.1v.4Z" class="g1_199"/>
<path d="M655.1,906.5l-1.4,-2.3l-1.1,-1.7l2,.5l8.2,2.3l2.6,.7l-2.6,.8l-8.2,2.4l-1.8,.5l.9,-1.6l.4,-.4l8.3,-2.4l.4,1.5h-.4l-8.3,-2.3l.5,-1.5l.5,.4l1.3,2.3Z" class="g1_199"/>
<path d="M653.7,908.1l1.3,-2.4h1.4l.2,.3l-.2,.4l-1.4,2.4Z" class="g1_199"/>
<path fill-rule="evenodd" d="M655.7,906l-1.4,-2.3l8.3,2.3l-8.3,2.4Z" class="g1_199"/>
<path d="M469.5,906.2h2.2v-.4h-2.2v.4Z" class="g1_199"/>
<path d="M470.2,905.7l1.3,2.4l1,1.6l-1.9,-.5l-8.1,-2.4l-2.6,-.8l2.6,-.7l8.1,-2.3l1.9,-.5l-1,1.6l-.4,.4l-8.2,2.3l-.4,-1.5h.4l8.2,2.4l-.5,1.5l-.4,-.4l-1.4,-2.4Z" class="g1_199"/>
<path d="M471.5,904.1l-1.3,2.3h-1.4l-.3,-.5l.3,-.3l1.4,-2.3Z" class="g1_199"/>
<path fill-rule="evenodd" d="M469.5,906l1.4,2.4L462.7,906l8.2,-2.3Z" class="g1_199"/>
<path d="M653.6,906.3h.2v-.4h-.2v.4Z" class="g1_199"/>
<path d="M471.5,906.3H653.6v-.4H471.5v.4Z" class="g1_199"/>
<path d="M458.9,919h.4v-.2h-.4v.2Z" class="g1_199"/>
<path d="M458.9,918.8h.4V898.2h-.4v20.6Z" class="g1_199"/>
<path d="M665.1,919h.5v-.2h-.5v.2Z" class="g1_199"/>
<path d="M665.1,918.8h.5V873.4h-.5v45.4Z" class="g1_199"/>
<path d="M653.6,880.8h2.1v-.4h-2.1v.4Z" class="g1_199"/>
<path d="M655.1,880.9l-1.4,-2.4l-1,-1.6l1.9,.5l8.2,2.4l2.6,.8l-2.6,.7l-8.2,2.4l-1.8,.5l.9,-1.6l.4,-.4l8.3,-2.4l.4,1.5h-.4l-8.3,-2.4l.5,-1.5l.5,.4l1.3,2.4Z" class="g1_199"/>
<path d="M653.7,882.6l1.3,-2.4h1.4l.2,.3l-.2,.4l-1.4,2.4Z" class="g1_199"/>
<path fill-rule="evenodd" d="M655.7,880.6l-1.4,-2.4l8.3,2.4l-8.3,2.3Z" class="g1_199"/>
<path d="M263,880.7h2.2v-.4H263v.4Z" class="g1_199"/>
<path d="M263.6,880.2l1.4,2.4l1,1.6l-1.9,-.5l-8.2,-2.4l-2.4,-.7l2.4,-.8l8.2,-2.4l1.8,-.5l-.9,1.6l-.4,.4l-8.2,2.4l-.5,-1.5h.5l8.2,2.4l-.5,1.5l-.5,-.4l-1.3,-2.4Z" class="g1_199"/>
<path d="M265,878.5l-1.4,2.4h-1.3l-.2,-.3l.2,-.4l1.3,-2.4Z" class="g1_199"/>
<path fill-rule="evenodd" d="M263,880.6l1.4,2.3l-8.2,-2.3l8.2,-2.4Z" class="g1_199"/>
<path d="M653.6,880.8h.2v-.4h-.2v.4Z" class="g1_199"/>
<path d="M265,880.8H653.6v-.4H265v.4Z" class="g1_199"/>
<path d="M252.4,919h.4v-.2h-.4v.2Z" class="g1_199"/>
<path d="M252.4,918.8h.4V873.4h-.4v45.4Z" class="g1_199"/>
<path d="M491.7,965.3h24.2V952.2H491.7v13.1Z" class="g0_199"/>
<path d="M265.1,935.8h.7v-.3h-.7v.3Z" class="g1_199"/>
<path d="M265.1,982.9h.7V935.8h-.7v47.1Z" class="g1_199"/>
<path d="M278.1,935.8h.8v-.3h-.8v.3Z" class="g1_199"/>
<path d="M278.1,982.9h.8V935.8h-.8v47.1Z" class="g1_199"/>
<path d="M291,935.8h.8v-.3H291v.3Z" class="g1_199"/>
<path d="M291,982.9h.8V935.8H291v47.1Z" class="g1_199"/>
<path d="M304.1,935.8h.7v-.3h-.7v.3Z" class="g1_199"/>
<path d="M304.1,982.9h.7V935.8h-.7v47.1Z" class="g1_199"/>
<path d="M317.1,935.8h.7v-.3h-.7v.3Z" class="g1_199"/>
<path d="M317.1,982.9h.7V935.8h-.7v47.1Z" class="g1_199"/>
<path d="M330,935.8h.7v-.3H330v.3Z" class="g1_199"/>
<path d="M330,982.9h.7V935.8H330v47.1Z" class="g1_199"/>
<path d="M343.4,935.8h.7v-.3h-.7v.3Z" class="g1_199"/>
<path d="M343.4,982.9h.7V935.8h-.7v47.1Z" class="g1_199"/>
<path d="M356,935.8h.8v-.3H356v.3Z" class="g1_199"/>
<path d="M356,982.9h.8V935.8H356v47.1Z" class="g1_199"/>
<path d="M369,935.8h.7v-.3H369v.3Z" class="g1_199"/>
<path d="M369,982.9h.7V935.8H369v47.1Z" class="g1_199"/>
<path d="M382,935.4h.7V935H382v.4Z" class="g1_199"/>
<path d="M382,982.5h.7V935.4H382v47.1Z" class="g1_199"/>
<path d="M394.5,935.4h.8V935h-.8v.4Z" class="g1_199"/>
<path d="M394.5,982.5h.8V935.4h-.8v47.1Z" class="g1_199"/>
<path d="M407.6,935.8h.7v-.3h-.7v.3Z" class="g1_199"/>
<path d="M407.6,982.9h.7V935.8h-.7v47.1Z" class="g1_199"/>
<path d="M420.2,935.4h.7V935h-.7v.4Z" class="g1_199"/>
<path d="M420.2,982.5h.7V935.4h-.7v47.1Z" class="g1_199"/>
<path d="M433.1,935.4h.8V935h-.8v.4Z" class="g1_199"/>
<path d="M433.1,982.5h.8V935.4h-.8v47.1Z" class="g1_199"/>
<path d="M446.1,935.4h.8V935h-.8v.4Z" class="g1_199"/>
<path d="M446.1,982.5h.8V935.4h-.8v47.1Z" class="g1_199"/>
<path d="M459.2,935.4h.7V935h-.7v.4Z" class="g1_199"/>
<path d="M459.2,982.5h.7V935.4h-.7v47.1Z" class="g1_199"/>
<path d="M471.7,935.8h.7v-.3h-.7v.3Z" class="g1_199"/>
<path d="M471.7,982.9h.7V935.8h-.7v47.1Z" class="g1_199"/>
<path d="M484.7,935.4h.8V935h-.8v.4Z" class="g1_199"/>
<path d="M484.7,982.5h.8V935.4h-.8v47.1Z" class="g1_199"/>
<path d="M511,935.4h.8V935H511v.4Z" class="g1_199"/>
<path d="M511,982.5h.8V935.4H511v47.1Z" class="g1_199"/>
<path d="M523.7,935.4h.7V935h-.7v.4Z" class="g1_199"/>
<path d="M523.7,982.5h.7V935.4h-.7v47.1Z" class="g1_199"/>
<path d="M537.1,935.4h.7V935h-.7v.4Z" class="g1_199"/>
<path d="M537.1,982.5h.7V935.4h-.7v47.1Z" class="g1_199"/>
<path d="M550,935.4h.7V935H550v.4Z" class="g1_199"/>
<path d="M550,982.5h.7V935.4H550v47.1Z" class="g1_199"/>
<path d="M563,935.4h.8V935H563v.4Z" class="g1_199"/>
<path d="M563,982.5h.8V935.4H563v47.1Z" class="g1_199"/>
<path d="M576,935.4h.8V935H576v.4Z" class="g1_199"/>
<path d="M576,982.5h.8V935.4H576v47.1Z" class="g1_199"/>
<path d="M588.6,935.4h.7V935h-.7v.4Z" class="g1_199"/>
<path d="M588.6,982.5h.7V935.4h-.7v47.1Z" class="g1_199"/>
<path d="M601.6,935.4h.7V935h-.7v.4Z" class="g1_199"/>
<path d="M601.6,982.5h.7V935.4h-.7v47.1Z" class="g1_199"/>
<path d="M614.2,935.4h.7V935h-.7v.4Z" class="g1_199"/>
<path d="M614.2,982.5h.7V935.4h-.7v47.1Z" class="g1_199"/>
<path d="M626.8,935.4h.8V935h-.8v.4Z" class="g1_199"/>
<path d="M626.8,982.5h.8V935.4h-.8v47.1Z" class="g1_199"/>
<path d="M639.8,935.4h.8V935h-.8v.4Z" class="g1_199"/>
<path d="M639.8,982.5h.8V935.4h-.8v47.1Z" class="g1_199"/>
<path d="M652.8,935.4h.7V935h-.7v.4Z" class="g1_199"/>
<path d="M652.8,982.5h.7V935.4h-.7v47.1Z" class="g1_199"/>
<path d="M252.3,935.4h414v-.8h-414v.8Z" class="g1_199"/>
<path d="M665.6,983.5h.7V935h-.7v48.5Z" class="g1_199"/>
<path d="M251.9,983.5H666v-.7H251.9v.7Z" class="g1_199"/>
<path d="M251.9,983.1h.7V934.6h-.7v48.5Z" class="g1_199"/>
</svg>