<?xml version="1.0" encoding="UTF-8" standalone="no"?>
<!DOCTYPE svg PUBLIC "-//W3C//DTD SVG 1.1//EN"
"http://www.w3.org/Graphics/SVG/1.1/DTD/svg11.dtd">
<svg viewBox="0 0 935 1210" version="1.1" xmlns="http://www.w3.org/2000/svg" xmlns:xlink="http://www.w3.org/1999/xlink">
<defs>
<style type="text/css"><![CDATA[
.g0_1374{
fill: #FFF;
}
.g1_1374{
fill: #000;
}
]]></style>
</defs>
<path d="M165,1149.3H852.5v-21.2H165v21.2Z" class="g0_1374"/>
<path d="M68.8,1149.3h82.5v-21.2H68.8v21.2Z" class="g0_1374"/>
<path d="M93,353.5h.8V157.8H93V353.5Z" class="g1_1374"/>
<path d="M827.4,353.5h.7V157.8h-.7V353.5Z" class="g1_1374"/>
<path d="M93,157.8H828.1V157H93v.8Z" class="g1_1374"/>
<path d="M93,354.3H828.1v-.7H93v.7Z" class="g1_1374"/>
<path d="M230.5,320.8h56.8V300.2H230.5v20.6Z" class="g0_1374"/>
<path d="M230.5,300.6h57.2v-.8H230.5v.8Z" class="g1_1374"/>
<path d="M286.9,321.2h.8v-21h-.8v21Z" class="g1_1374"/>
<path d="M230.2,321.2h57.1v-.7H230.2v.7Z" class="g1_1374"/>
<path d="M230.2,320.8h.7v-21h-.7v21Z" class="g1_1374"/>
<path d="M344,320.8h56.8V300.2H344v20.6Z" class="g0_1374"/>
<path d="M344,300.6h57.1v-.8H344v.8Z" class="g1_1374"/>
<path d="M400.4,321.2h.7v-21h-.7v21Z" class="g1_1374"/>
<path d="M343.7,321.2h57.1v-.7H343.7v.7Z" class="g1_1374"/>
<path d="M343.7,320.8h.7v-21h-.7v21Z" class="g1_1374"/>
<path d="M457.4,320.8h56.8V300.2H457.4v20.6Z" class="g0_1374"/>
<path d="M457.4,300.6h57.1v-.8H457.4v.8Z" class="g1_1374"/>
<path d="M513.8,321.2h.7v-21h-.7v21Z" class="g1_1374"/>
<path d="M457.1,321.2h57.1v-.7H457.1v.7Z" class="g1_1374"/>
<path d="M457.1,320.8h.7v-21h-.7v21Z" class="g1_1374"/>
<path d="M570.9,320.8h56.7V300.2H570.9v20.6Z" class="g0_1374"/>
<path d="M570.9,300.6H628v-.8H570.9v.8Z" class="g1_1374"/>
<path d="M627.3,321.2h.7v-21h-.7v21Z" class="g1_1374"/>
<path d="M570.5,321.2h57.1v-.7H570.5v.7Z" class="g1_1374"/>
<path d="M570.5,320.8h.8v-21h-.8v21Z" class="g1_1374"/>
<path fill-rule="evenodd" d="M511.2,290.2l.1,.3l.3,.3c1.1,1,2.9,-.1,2.5,-1.5l-.2,-.5l-.2,-.3l-.3,-.2l-.5,-.2h-.6l-.3,.1c-.5,.2,-.8,.7,-.9,1.2l-.1,.3l.1,.2l.1,.3Z" class="g1_1374"/>
<path d="M512.5,289.7l2.7,6l.3,.9l-1,.2L491,299.9l-2.6,.3l2,-1.6l18.4,-15.3l.8,-.6l.3,.9l-.1,.9l-18.4,15.2l-1,-1.1l.5,-.2l23.5,-3.1l.1,1.5l-.7,-.4l-2.7,-6.1Z" class="g1_1374"/>
<path d="M509.9,283.6l2.6,6.1l-1.4,.6l-2.5,-6Z" class="g1_1374"/>
<path fill-rule="evenodd" d="M511.9,289.9l2.6,6.1L491,299.1l18.3,-15.2Z" class="g1_1374"/>
<path d="M571.5,265.5l-1.1,-2.8l-58.3,25.6l1.1,2.7Z" class="g1_1374"/>
<path d="M627.6,217.7h56.7V197.1H627.6v20.6Z" class="g0_1374"/>
<path d="M627.6,197.4h57.1v-.7H627.6v.7Z" class="g1_1374"/>
<path d="M683.9,218.1h.8v-21h-.8v21Z" class="g1_1374"/>
<path d="M627.3,218.1h57v-.8h-57v.8Z" class="g1_1374"/>
<path d="M627.3,217.7h.7v-21h-.7v21Z" class="g1_1374"/>
<path fill-rule="evenodd" d="M635.8,282.6l.2,-.3l.1,-.2c.6,-1.4,-.9,-2.6,-2.2,-1.9l-.3,.2l-.2,.3l-.1,.3l-.2,.5l.3,.8l.2,.3c.7,.5,.5,.5,1.4,.5l.3,-.1l.5,-.4Z" class="g1_1374"/>
<path d="M634.7,281.5l4.7,-4.7l.7,-.6l.6,.8l11.5,20.9l1.3,2.4L651.1,299L630.2,287.5l-.8,-.6l.6,-.7l.9,-.1l20.9,11.5l-.7,1.4l-.3,-.4L639.3,277.7l1.4,-.7l-.2,.9l-4.7,4.7Z" class="g1_1374"/>
<path d="M630,286.2l4.7,-4.7l1.1,1.1l-4.7,4.7Z" class="g1_1374"/>
<path fill-rule="evenodd" d="M635.2,282.1l4.7,-4.7l11.6,20.9L630.6,286.7Z" class="g1_1374"/>
<path d="M572,216.7l-2.1,2.1l63.8,63.8l2.1,-2.1Z" class="g1_1374"/>
<path fill-rule="evenodd" d="M589.2,276.5l.3,-.2l.3,-.1l.2,-.3l.2,-.2v-.2l.1,-.4v-.3l-.1,-.5c-.4,-.6,-.6,-.7,-1.2,-.9h-.4l-.3,.1l-.3,.1c-1.3,.6,-.8,3,.7,2.9h.5Z" class="g1_1374"/>
<path d="M588.9,275l6.2,-2l.9,-.2l.1,.9l.6,23.9v2.7L595.2,298L582.1,278.1l-.6,-.8l1,-.4l.9,.4l13.1,19.9l-1.3,.8l-.1,-.4l-.5,-23.9h1.5l-.5,.8l-6.3,2.1Z" class="g1_1374"/>
<path d="M582.5,276.9l6.4,-1.9l.4,1.6l-6.3,1.9Z" class="g1_1374"/>
<path fill-rule="evenodd" d="M589.1,275.7l6.2,-2l.5,23.9L582.7,277.7Z" class="g1_1374"/>
<path d="M572.4,217.3l-3,.9l17.9,57.3l2.9,-1Z" class="g1_1374"/>
<path fill-rule="evenodd" d="M556.1,281.3l.3,.2l.3,.1c1.3,.4,2.7,-1.2,1.6,-2.4l-.1,-.2l-.6,-.3h-.8l-.3,.1l-.5,.3l-.2,.3l-.2,.5v.3l.1,.4l.1,.3l.2,.2l.1,.2Z" class="g1_1374"/>
<path d="M557.1,280.1l5,4.3l.7,.8l-.8,.4l-19.9,13.1l-2.2,1.5l1.1,-2.4l9.9,-21.6l.5,-.9l.7,.6l.2,.9l-9.9,21.7l-1.4,-.7l.3,-.3l19.9,-13.2l.8,1.3h-.9l-5,-4.3Z" class="g1_1374"/>
<path d="M552.1,275.9l5,4.2l-1,1.2l-5,-4.2Z" class="g1_1374"/>
<path fill-rule="evenodd" d="M556.7,280.7l4.9,4.3l-19.8,13.1l9.9,-21.6Z" class="g1_1374"/>
<path d="M572.1,265.1l-2.3,-1.9l-13.8,16l2.3,1.9Z" class="g1_1374"/>
<path d="M570.9,217.7h56.7V197.1H570.9v20.6Z" class="g0_1374"/>
<path d="M570.9,197.4H628v-.7H570.9v.7Z" class="g1_1374"/>
<path d="M627.3,218.1h.7v-21h-.7v21Z" class="g1_1374"/>
<path d="M570.5,218.1h57.1v-.8H570.5v.8Z" class="g1_1374"/>
<path d="M570.5,217.7h.8v-21h-.8v21Z" class="g1_1374"/>
<path d="M514.2,217.7h56.7V197.1H514.2v20.6Z" class="g0_1374"/>
<path d="M514.2,197.4h57.1v-.7H514.2v.7Z" class="g1_1374"/>
<path d="M570.5,218.1h.8v-21h-.8v21Z" class="g1_1374"/>
<path d="M513.8,218.1h57.1v-.8H513.8v.8Z" class="g1_1374"/>
<path d="M513.8,217.7h.7v-21h-.7v21Z" class="g1_1374"/>
<path d="M457.4,217.7h56.8V197.1H457.4v20.6Z" class="g0_1374"/>
<path d="M457.4,197.4h57.1v-.7H457.4v.7Z" class="g1_1374"/>
<path d="M513.8,218.1h.7v-21h-.7v21Z" class="g1_1374"/>
<path d="M457.1,218.1h57.1v-.8H457.1v.8Z" class="g1_1374"/>
<path d="M457.1,217.7h.7v-21h-.7v21Z" class="g1_1374"/>
<path d="M400.8,217.7h56.6V197.1H400.8v20.6Z" class="g0_1374"/>
<path d="M400.8,197.4h57v-.7h-57v.7Z" class="g1_1374"/>
<path d="M457.1,218.1h.7v-21h-.7v21Z" class="g1_1374"/>
<path d="M400.4,218.1h57v-.8h-57v.8Z" class="g1_1374"/>
<path d="M400.4,217.7h.7v-21h-.7v21Z" class="g1_1374"/>
<path d="M344,217.7h56.8V197.1H344v20.6Z" class="g0_1374"/>
<path d="M344,197.4h57.1v-.7H344v.7Z" class="g1_1374"/>
<path d="M400.4,218.1h.7v-21h-.7v21Z" class="g1_1374"/>
<path d="M343.7,218.1h57.1v-.8H343.7v.8Z" class="g1_1374"/>
<path d="M343.7,217.7h.7v-21h-.7v21Z" class="g1_1374"/>
<path d="M287.3,217.7H344V197.1H287.3v20.6Z" class="g0_1374"/>
<path d="M287.3,197.4h57.1v-.7H287.3v.7Z" class="g1_1374"/>
<path d="M343.7,218.1h.7v-21h-.7v21Z" class="g1_1374"/>
<path d="M286.9,218.1H344v-.8H286.9v.8Z" class="g1_1374"/>
<path d="M286.9,217.7h.8v-21h-.8v21Z" class="g1_1374"/>
<path d="M230.5,217.7h56.8V197.1H230.5v20.6Z" class="g0_1374"/>
<path d="M230.5,197.4h57.2v-.7H230.5v.7Z" class="g1_1374"/>
<path d="M286.9,218.1h.8v-21h-.8v21Z" class="g1_1374"/>
<path d="M230.2,218.1h57.1v-.8H230.2v.8Z" class="g1_1374"/>
<path d="M230.2,217.7h.7v-21h-.7v21Z" class="g1_1374"/>
<path d="M627.6,264.1h56.7V243.5H627.6v20.6Z" class="g0_1374"/>
<path d="M627.6,243.8h57.1v-.7H627.6v.7Z" class="g1_1374"/>
<path d="M683.9,264.5h.8v-21h-.8v21Z" class="g1_1374"/>
<path d="M627.3,264.5h57v-.8h-57v.8Z" class="g1_1374"/>
<path d="M627.3,264.1h.7v-21h-.7v21Z" class="g1_1374"/>
<path d="M570.9,264.1h56.7V243.5H570.9v20.6Z" class="g0_1374"/>
<path d="M570.9,243.8H628v-.7H570.9v.7Z" class="g1_1374"/>
<path d="M627.3,264.5h.7v-21h-.7v21Z" class="g1_1374"/>
<path d="M570.5,264.5h57.1v-.8H570.5v.8Z" class="g1_1374"/>
<path d="M570.5,264.1h.8v-21h-.8v21Z" class="g1_1374"/>
<path d="M514.2,264.1h56.7V243.5H514.2v20.6Z" class="g0_1374"/>
<path d="M514.2,243.8h57.1v-.7H514.2v.7Z" class="g1_1374"/>
<path d="M570.5,264.5h.8v-21h-.8v21Z" class="g1_1374"/>
<path d="M513.8,264.5h57.1v-.8H513.8v.8Z" class="g1_1374"/>
<path d="M513.8,264.1h.7v-21h-.7v21Z" class="g1_1374"/>
<path d="M457.4,264.1h56.8V243.5H457.4v20.6Z" class="g0_1374"/>
<path d="M457.4,243.8h57.1v-.7H457.4v.7Z" class="g1_1374"/>
<path d="M513.8,264.5h.7v-21h-.7v21Z" class="g1_1374"/>
<path d="M457.1,264.5h57.1v-.8H457.1v.8Z" class="g1_1374"/>
<path d="M457.1,264.1h.7v-21h-.7v21Z" class="g1_1374"/>
<path d="M400.8,264.1h56.6V243.5H400.8v20.6Z" class="g0_1374"/>
<path d="M400.8,243.8h57v-.7h-57v.7Z" class="g1_1374"/>
<path d="M457.1,264.5h.7v-21h-.7v21Z" class="g1_1374"/>
<path d="M400.4,264.5h57v-.8h-57v.8Z" class="g1_1374"/>
<path d="M400.4,264.1h.7v-21h-.7v21Z" class="g1_1374"/>
<path d="M344,264.1h56.8V243.5H344v20.6Z" class="g0_1374"/>
<path d="M344,243.8h57.1v-.7H344v.7Z" class="g1_1374"/>
<path d="M400.4,264.5h.7v-21h-.7v21Z" class="g1_1374"/>
<path d="M343.7,264.5h57.1v-.8H343.7v.8Z" class="g1_1374"/>
<path d="M343.7,264.1h.7v-21h-.7v21Z" class="g1_1374"/>
<path d="M287.3,264.1H344V243.5H287.3v20.6Z" class="g0_1374"/>
<path d="M287.3,243.8h57.1v-.7H287.3v.7Z" class="g1_1374"/>
<path d="M343.7,264.5h.7v-21h-.7v21Z" class="g1_1374"/>
<path d="M286.9,264.5H344v-.8H286.9v.8Z" class="g1_1374"/>
<path d="M286.9,264.1h.8v-21h-.8v21Z" class="g1_1374"/>
<path d="M230.5,264.1h56.8V243.5H230.5v20.6Z" class="g0_1374"/>
<path d="M230.5,243.8h57.2v-.7H230.5v.7Z" class="g1_1374"/>
<path d="M286.9,264.5h.8v-21h-.8v21Z" class="g1_1374"/>
<path d="M230.2,264.5h57.1v-.8H230.2v.8Z" class="g1_1374"/>
<path d="M230.2,264.1h.7v-21h-.7v21Z" class="g1_1374"/>
<path d="M627.6,320.8h56.7V300.2H627.6v20.6Z" class="g0_1374"/>
<path d="M627.6,300.6h57.1v-.8H627.6v.8Z" class="g1_1374"/>
<path d="M683.9,321.2h.8v-21h-.8v21Z" class="g1_1374"/>
<path d="M627.3,321.2h57v-.7h-57v.7Z" class="g1_1374"/>
<path d="M627.3,320.8h.7v-21h-.7v21Z" class="g1_1374"/>
<path d="M287.3,320.8H344V300.2H287.3v20.6Z" class="g0_1374"/>
<path d="M287.3,300.6h57.1v-.8H287.3v.8Z" class="g1_1374"/>
<path d="M343.7,321.2h.7v-21h-.7v21Z" class="g1_1374"/>
<path d="M286.9,321.2H344v-.7H286.9v.7Z" class="g1_1374"/>
<path d="M286.9,320.8h.8v-21h-.8v21Z" class="g1_1374"/>
<path d="M400.8,320.8h56.6V300.2H400.8v20.6Z" class="g0_1374"/>
<path d="M400.8,300.6h57v-.8h-57v.8Z" class="g1_1374"/>
<path d="M457.1,321.2h.7v-21h-.7v21Z" class="g1_1374"/>
<path d="M400.4,321.2h57v-.7h-57v.7Z" class="g1_1374"/>
<path d="M400.4,320.8h.7v-21h-.7v21Z" class="g1_1374"/>
<path d="M514.2,320.8h56.7V300.2H514.2v20.6Z" class="g0_1374"/>
<path d="M514.2,300.6h57.1v-.8H514.2v.8Z" class="g1_1374"/>
<path d="M570.5,321.2h.8v-21h-.8v21Z" class="g1_1374"/>
<path d="M513.8,321.2h57.1v-.7H513.8v.7Z" class="g1_1374"/>
<path d="M513.8,320.8h.7v-21h-.7v21Z" class="g1_1374"/>
<path fill-rule="evenodd" d="M284.3,290.2l.1,.3l.2,.3c1.2,.9,2.9,0,2.6,-1.5l-.2,-.5l-.5,-.5l-.5,-.2h-.6l-.3,.1l-.3,.2l-.2,.2l-.2,.2l-.1,.2v.4l-.1,.3l.1,.5Z" class="g1_1374"/>
<path d="M285.6,289.7l2.7,6l.4,.9l-1,.2L264,299.9l-2.6,.3l2.1,-1.6l18.4,-15.3l.8,-.6l.4,.9l-.2,.9l-18.4,15.2l-1,-1.1l.4,-.2l23.7,-3.1l.1,1.5l-.8,-.4l-2.6,-6.1Z" class="g1_1374"/>
<path d="M283.1,283.6l2.5,6.1l-1.3,.6l-2.6,-6Z" class="g1_1374"/>
<path fill-rule="evenodd" d="M285,289.9l2.7,6.1L264,299.1l18.4,-15.2Z" class="g1_1374"/>
<path d="M344.7,265.5l-1.2,-2.8l-58.3,25.6l1.2,2.7Z" class="g1_1374"/>
<path fill-rule="evenodd" d="M408.9,282.6l.2,-.3l.1,-.2c.6,-1.4,-.9,-2.6,-2.2,-1.9l-.3,.2l-.2,.3c-.8,1.2,.5,2.8,1.9,2.3l.5,-.4Z" class="g1_1374"/>
<path d="M407.8,281.5l4.6,-4.7l.8,-.6l.5,.8l11.5,20.9l1.3,2.4L424.1,299L403.3,287.5l-.8,-.6l.7,-.7l.9,-.1l20.8,11.5l-.8,1.4l-.2,-.4L412.3,277.7l1.4,-.7l-.2,.9l-4.6,4.7Z" class="g1_1374"/>
<path d="M403.2,286.2l4.6,-4.7l1.1,1.1l-4.6,4.7Z" class="g1_1374"/>
<path fill-rule="evenodd" d="M408.4,282.1l4.6,-4.7l11.5,20.9L403.7,286.7Z" class="g1_1374"/>
<path d="M345.1,216.7l-2.1,2.1l63.8,63.8l2.1,-2.1Z" class="g1_1374"/>
<path fill-rule="evenodd" d="M362.4,276.5l.2,-.2l.3,-.1l.2,-.3l.2,-.2l.1,-.2l.1,-.4v-.3l-.1,-.3l-.1,-.2l-.2,-.3l-.3,-.2l-.2,-.2l-.2,-.1l-.3,-.1h-.4l-.3,.1l-.2,.1c-1.4,.7,-1,2.8,.5,2.9h.7Z" class="g1_1374"/>
<path d="M362,275l6.2,-2l.9,-.2l.1,.9l.6,23.9v2.7L368.3,298L355.2,278.1l-.5,-.8l1,-.4l.8,.4l13.1,19.9l-1.3,.8l-.1,-.4l-.5,-23.9h1.5l-.5,.8l-6.2,2.1Z" class="g1_1374"/>
<path d="M355.7,276.9L362,275l.5,1.6l-6.4,1.9Z" class="g1_1374"/>
<path fill-rule="evenodd" d="M362.2,275.7l6.2,-2l.6,23.9L355.9,277.7Z" class="g1_1374"/>
<path d="M345.5,217.3l-2.9,.9l17.8,57.3l3,-1Z" class="g1_1374"/>
<path fill-rule="evenodd" d="M329.3,281.3l.2,.2l.3,.1c1.4,.4,2.7,-1.2,1.7,-2.4l-.2,-.2l-.6,-.3h-.8l-.3,.1l-.5,.3l-.2,.3l-.1,.3l-.1,.2v.3l.1,.4l.1,.3l.2,.2l.2,.2Z" class="g1_1374"/>
<path d="M330.3,280.1l4.9,4.3l.8,.8l-.9,.4l-19.9,13.1l-2.2,1.5l1.1,-2.4L324,276.2l.5,-.9l.7,.6l.2,.9l-9.9,21.7l-1.4,-.7l.3,-.3l19.9,-13.2l.8,1.3h-.9l-4.9,-4.3Z" class="g1_1374"/>
<path d="M325.2,275.9l5.1,4.2l-1,1.2l-5.1,-4.2Z" class="g1_1374"/>
<path fill-rule="evenodd" d="M329.8,280.7l5,4.3l-19.9,13.1l9.9,-21.6Z" class="g1_1374"/>
<path d="M345.2,265.1l-2.3,-1.9l-13.7,16l2.3,1.9Z" class="g1_1374"/>
</svg>