<?xml version="1.0" encoding="UTF-8" standalone="no"?>
<!DOCTYPE svg PUBLIC "-//W3C//DTD SVG 1.1//EN"
"http://www.w3.org/Graphics/SVG/1.1/DTD/svg11.dtd">
<svg viewBox="0 0 935 1210" version="1.1" xmlns="http://www.w3.org/2000/svg" xmlns:xlink="http://www.w3.org/1999/xlink">
<defs>
<style type="text/css"><![CDATA[
.g0_2817{
fill: #FFF;
}
.g1_2817{
fill: #000;
}
]]></style>
</defs>
<path d="M68.9,1149.3H755.2v-21.2H68.9v21.2Z" class="g0_2817"/>
<path d="M771.3,1149.3H855v-21.2H771.3v21.2Z" class="g0_2817"/>
<path d="M69.9,367.9h.8V124.1h-.8V367.9Z" class="g1_2817"/>
<path d="M255.1,368.6h.7V123.4h-.7V368.6Z" class="g1_2817"/>
<path d="M425.3,368.6h.8V123.4h-.8V368.6Z" class="g1_2817"/>
<path d="M850.1,367.9h.7V124.1h-.7V367.9Z" class="g1_2817"/>
<path d="M69.9,124.1h781v-.7H69.9v.7Z" class="g1_2817"/>
<path d="M69.9,148.6h781v-.7H69.9v.7Z" class="g1_2817"/>
<path d="M69.9,173h781v-.8H69.9v.8Z" class="g1_2817"/>
<path d="M69.9,197.4h781v-.7H69.9v.7Z" class="g1_2817"/>
<path d="M69.9,221.9h781v-.7H69.9v.7Z" class="g1_2817"/>
<path d="M69.9,246.3h781v-.7H69.9v.7Z" class="g1_2817"/>
<path d="M69.9,270.8h781v-.7H69.9v.7Z" class="g1_2817"/>
<path d="M69.9,295.3h781v-.8H69.9v.8Z" class="g1_2817"/>
<path d="M69.9,319.6h781v-.7H69.9v.7Z" class="g1_2817"/>
<path d="M69.9,344.1h781v-.7H69.9v.7Z" class="g1_2817"/>
<path d="M69.9,368.6h781v-.7H69.9v.7Z" class="g1_2817"/>
</svg>