<?xml version="1.0" encoding="UTF-8" standalone="no"?>
<!DOCTYPE svg PUBLIC "-//W3C//DTD SVG 1.1//EN"
"http://www.w3.org/Graphics/SVG/1.1/DTD/svg11.dtd">
<svg viewBox="0 0 935 1210" version="1.1" xmlns="http://www.w3.org/2000/svg" xmlns:xlink="http://www.w3.org/1999/xlink">
<defs>
<style type="text/css"><![CDATA[
.g0_1828{
fill: #FFF;
}
.g1_1828{
fill: #000;
}
]]></style>
</defs>
<path d="M165,1149.3H852.5v-21.2H165v21.2Z" class="g0_1828"/>
<path d="M68.8,1149.3h82.5v-21.2H68.8v21.2Z" class="g0_1828"/>
<path d="M68.6,419.7h.7V147h-.7V419.7Z" class="g1_1828"/>
<path d="M254.9,420.6h.8V146.3h-.8V420.6Z" class="g1_1828"/>
<path d="M297.8,420.6h.8V146.3h-.8V420.6Z" class="g1_1828"/>
<path d="M370,420.6h.7V146.3H370V420.6Z" class="g1_1828"/>
<path d="M454,420.6h.8V146.3H454V420.6Z" class="g1_1828"/>
<path d="M855.9,419.7h.7V147h-.7V419.7Z" class="g1_1828"/>
<path d="M68.6,147h788v-.7H68.6v.7Z" class="g1_1828"/>
<path d="M68.6,200.5h788v-.8H68.6v.8Z" class="g1_1828"/>
<path d="M68.6,273.8h788v-.7H68.6v.7Z" class="g1_1828"/>
<path d="M68.6,347.1h788v-.7H68.6v.7Z" class="g1_1828"/>
<path d="M68.6,420.6h788v-.8H68.6v.8Z" class="g1_1828"/>
<path d="M68.6,523.7h.7V475.6h-.7v48.1Z" class="g1_1828"/>
<path d="M140.3,524.4h.7V474.7h-.7v49.7Z" class="g1_1828"/>
<path d="M246.8,524.4h.7V474.7h-.7v49.7Z" class="g1_1828"/>
<path d="M388.6,524.4h.7V474.7h-.7v49.7Z" class="g1_1828"/>
<path d="M543.3,524.4h.7V474.7h-.7v49.7Z" class="g1_1828"/>
<path d="M699.1,524.4h.8V474.7h-.8v49.7Z" class="g1_1828"/>
<path d="M850.9,523.7h.8V475.6h-.8v48.1Z" class="g1_1828"/>
<path d="M68.6,475.6H851.7v-.8H68.6v.8Z" class="g1_1828"/>
<path d="M68.6,499.9H851.7v-.7H68.6v.7Z" class="g1_1828"/>
<path d="M68.6,524.4H851.7v-.7H68.6v.7Z" class="g1_1828"/>
<path d="M69.6,1001.9h.7V880.5h-.7v121.4Z" class="g1_1828"/>
<path d="M286.3,1002.7h.7V879.6h-.7v123.1Z" class="g1_1828"/>
<path d="M510.8,1002.7h.7V879.6h-.7v123.1Z" class="g1_1828"/>
<path d="M850.8,1001.9h.8V880.5h-.8v121.4Z" class="g1_1828"/>
<path d="M69.6,880.4h782v-.8H69.6v.8Z" class="g1_1828"/>
<path d="M69.6,904.8h782v-.7H69.6v.7Z" class="g1_1828"/>
<path d="M69.6,929.3H511.5v-.7H69.6v.7Z" class="g1_1828"/>
<path d="M69.6,953.7H511.5V953H69.6v.7Z" class="g1_1828"/>
<path d="M69.6,978.2H511.5v-.8H69.6v.8Z" class="g1_1828"/>
<path d="M69.6,1002.7h782v-.8H69.6v.8Z" class="g1_1828"/>
</svg>