<?xml version="1.0" encoding="UTF-8" standalone="no"?>
<!DOCTYPE svg PUBLIC "-//W3C//DTD SVG 1.1//EN"
"http://www.w3.org/Graphics/SVG/1.1/DTD/svg11.dtd">
<svg viewBox="0 0 935 1210" version="1.1" xmlns="http://www.w3.org/2000/svg" xmlns:xlink="http://www.w3.org/1999/xlink">
<defs>
<style type="text/css"><![CDATA[
.g0_24{
fill: #000;
}
]]></style>
</defs>
<path d="M90.4,1063h.7V218.8h-.7V1063Z" class="g0_24"/>
<path d="M250.7,1063.7h.7V218.1h-.7v845.6Z" class="g0_24"/>
<path d="M631.6,1063.7h.7V218.1h-.7v845.6Z" class="g0_24"/>
<path d="M843.9,1063h.7V218.8h-.7V1063Z" class="g0_24"/>
<path d="M90.4,218.8H844.6v-.7H90.4v.7Z" class="g0_24"/>
<path d="M91.1,244.4H843.9v-.7H91.1v.7Z" class="g0_24"/>
<path d="M91.1,248.2H843.9v-.7H91.1v.7Z" class="g0_24"/>
<path d="M90.4,270.8H844.6v-.7H90.4v.7Z" class="g0_24"/>
<path d="M90.4,312H844.6v-.7H90.4v.7Z" class="g0_24"/>
<path d="M90.4,336.5H844.6v-.7H90.4v.7Z" class="g0_24"/>
<path d="M90.4,360.9H844.6v-.7H90.4v.7Z" class="g0_24"/>
<path d="M90.4,385.4H844.6v-.8H90.4v.8Z" class="g0_24"/>
<path d="M90.4,409.8H844.6v-.7H90.4v.7Z" class="g0_24"/>
<path d="M90.4,434.2H844.6v-.7H90.4v.7Z" class="g0_24"/>
<path d="M90.4,458.7H844.6V458H90.4v.7Z" class="g0_24"/>
<path d="M90.4,483.2H844.6v-.8H90.4v.8Z" class="g0_24"/>
<path d="M90.4,507.6H844.6v-.8H90.4v.8Z" class="g0_24"/>
<path d="M90.4,532H844.6v-.7H90.4v.7Z" class="g0_24"/>
<path d="M90.4,556.5H844.6v-.7H90.4v.7Z" class="g0_24"/>
<path d="M90.4,580.9H844.6v-.7H90.4v.7Z" class="g0_24"/>
<path d="M90.4,605.4H844.6v-.8H90.4v.8Z" class="g0_24"/>
<path d="M90.4,629.8H844.6v-.7H90.4v.7Z" class="g0_24"/>
<path d="M90.4,654.2H844.6v-.7H90.4v.7Z" class="g0_24"/>
<path d="M90.4,678.7H844.6V678H90.4v.7Z" class="g0_24"/>
<path d="M90.4,703.2H844.6v-.8H90.4v.8Z" class="g0_24"/>
<path d="M90.4,727.6H844.6v-.8H90.4v.8Z" class="g0_24"/>
<path d="M90.4,752H844.6v-.7H90.4v.7Z" class="g0_24"/>
<path d="M90.4,776.5H844.6v-.7H90.4v.7Z" class="g0_24"/>
<path d="M90.4,817.8H844.6V817H90.4v.8Z" class="g0_24"/>
<path d="M90.4,859H844.6v-.7H90.4v.7Z" class="g0_24"/>
<path d="M90.4,900.3H844.6v-.8H90.4v.8Z" class="g0_24"/>
<path d="M90.4,941.5H844.6v-.7H90.4v.7Z" class="g0_24"/>
<path d="M90.4,965.9H844.6v-.7H90.4v.7Z" class="g0_24"/>
<path d="M90.4,990.4H844.6v-.8H90.4v.8Z" class="g0_24"/>
<path d="M90.4,1014.8H844.6v-.7H90.4v.7Z" class="g0_24"/>
<path d="M90.4,1039.3H844.6v-.7H90.4v.7Z" class="g0_24"/>
<path d="M90.4,1063.7H844.6v-.7H90.4v.7Z" class="g0_24"/>
</svg>