<?xml version="1.0" encoding="UTF-8" standalone="no"?>
<!DOCTYPE svg PUBLIC "-//W3C//DTD SVG 1.1//EN"
"http://www.w3.org/Graphics/SVG/1.1/DTD/svg11.dtd">
<svg viewBox="0 0 935 1210" version="1.1" xmlns="http://www.w3.org/2000/svg" xmlns:xlink="http://www.w3.org/1999/xlink">
<defs>
<style type="text/css"><![CDATA[
.g0_4716{
fill: #FFF;
}
.g1_4716{
fill: #000;
}
]]></style>
</defs>
<path d="M68.8,1149.3H852.5v-21.2H68.8v21.2Z" class="g0_4716"/>
<path d="M68.6,951.5h.7V124.1h-.7V951.5Z" class="g1_4716"/>
<path d="M125.3,952.2h.7V164.6h-.7V952.2Z" class="g1_4716"/>
<path d="M182.1,952.2h.7V123.4h-.7V952.2Z" class="g1_4716"/>
<path d="M425.7,952.2h.7V123.4h-.7V952.2Z" class="g1_4716"/>
<path d="M518.7,952.2h.8V123.4h-.8V952.2Z" class="g1_4716"/>
<path d="M850.4,951.5h.7V124.1h-.7V951.5Z" class="g1_4716"/>
<path d="M68.6,124.1H851.1v-.7H68.6v.7Z" class="g1_4716"/>
<path d="M68.6,165.4H182.8v-.8H68.6v.8Z" class="g1_4716"/>
<path d="M68.6,189.8H851.1v-.7H68.6v.7Z" class="g1_4716"/>
<path d="M68.6,214.2H851.1v-.7H68.6v.7Z" class="g1_4716"/>
<path d="M68.6,238.7H851.1V238H68.6v.7Z" class="g1_4716"/>
<path d="M68.6,263.2H851.1v-.8H68.6v.8Z" class="g1_4716"/>
<path d="M68.6,287.6H851.1v-.8H68.6v.8Z" class="g1_4716"/>
<path d="M68.6,312H851.1v-.7H68.6v.7Z" class="g1_4716"/>
<path d="M68.6,336.5H851.1v-.7H68.6v.7Z" class="g1_4716"/>
<path d="M68.6,360.9H851.1v-.7H68.6v.7Z" class="g1_4716"/>
<path d="M68.6,428.2H851.1v-.8H68.6v.8Z" class="g1_4716"/>
<path d="M68.6,474H851.1v-.7H68.6v.7Z" class="g1_4716"/>
<path d="M182.1,553.5h669v-.8h-669v.8Z" class="g1_4716"/>
<path d="M182.1,616.1h669v-.7h-669v.7Z" class="g1_4716"/>
<path d="M182.1,823.9h669v-.7h-669v.7Z" class="g1_4716"/>
<path d="M182.1,848.3h669v-.7h-669v.7Z" class="g1_4716"/>
<path d="M182.1,927.8h669V927h-669v.8Z" class="g1_4716"/>
<path d="M68.6,952.2H851.1v-.7H68.6v.7Z" class="g1_4716"/>
</svg>