<?xml version="1.0" encoding="UTF-8" standalone="no"?>
<!DOCTYPE svg PUBLIC "-//W3C//DTD SVG 1.1//EN"
"http://www.w3.org/Graphics/SVG/1.1/DTD/svg11.dtd">
<svg viewBox="0 0 935 1210" version="1.1" xmlns="http://www.w3.org/2000/svg" xmlns:xlink="http://www.w3.org/1999/xlink">
<defs>
<clipPath id="c0_1969"><path d="M97.3,59.2V41.4h72.1V59.2Z"/></clipPath>
<style type="text/css"><![CDATA[
.g0_1969{
fill: #000;
}
]]></style>
</defs>
<path d="M96.3,63.3H838.8v-.4H96.3v.4Z" class="g0_1969"/>
<path d="M96.1,1114.5h.2v-.4h-.2v.4Z" class="g0_1969"/>
<path d="M96.3,1114.5H838.9v-.4H96.3v.4Z" class="g0_1969"/>
<image clip-path="url(#c0_1969)" preserveAspectRatio="none" x="97" y="41" width="73" height="18" xlink:href="img/1.jpg"/>
<path d="M214.3,800h45v-1.1h-45V800Z" class="g0_1969"/>
<path d="M95.9,820h.7V189.8h-.7V820Z" class="g0_1969"/>
<path d="M154.2,797.9h3V189h-3V797.9Z" class="g0_1969"/>
<path d="M379.1,797.9h.8v-586h-.8v586Z" class="g0_1969"/>
<path d="M599.1,797.9h.8v-586h-.8v586Z" class="g0_1969"/>
<path d="M839.2,797.1h.7V189.8h-.7V797.1Z" class="g0_1969"/>
<path d="M838.1,820h3V797.9h-3V820Z" class="g0_1969"/>
<path d="M95.9,189.8h744V189H95.9v.8Z" class="g0_1969"/>
<path d="M154.1,212.7H839.9v-.8H154.1v.8Z" class="g0_1969"/>
<path d="M95.9,236.9h744v-3.1H95.9v3.1Z" class="g0_1969"/>
<path d="M95.9,270.8h744v-.7H95.9v.7Z" class="g0_1969"/>
<path d="M95.9,305.9h744v-.7H95.9v.7Z" class="g0_1969"/>
<path d="M95.9,341.1h744v-.7H95.9v.7Z" class="g0_1969"/>
<path d="M95.9,376.2h744v-.7H95.9v.7Z" class="g0_1969"/>
<path d="M95.9,411.3h744v-.7H95.9v.7Z" class="g0_1969"/>
<path d="M95.9,446.5h744v-.7H95.9v.7Z" class="g0_1969"/>
<path d="M95.9,481.6h744v-.7H95.9v.7Z" class="g0_1969"/>
<path d="M95.9,516.7h744V516H95.9v.7Z" class="g0_1969"/>
<path d="M95.9,551.9h744v-.7H95.9v.7Z" class="g0_1969"/>
<path d="M95.9,587h744v-.7H95.9v.7Z" class="g0_1969"/>
<path d="M95.9,622.1h744v-.7H95.9v.7Z" class="g0_1969"/>
<path d="M95.9,657.3h744v-.7H95.9v.7Z" class="g0_1969"/>
<path d="M95.9,692.4h744v-.7H95.9v.7Z" class="g0_1969"/>
<path d="M95.9,727.6h744v-.8H95.9v.8Z" class="g0_1969"/>
<path d="M95.9,762.8h744V762H95.9v.8Z" class="g0_1969"/>
<path d="M95.9,797.9H841v-.8H95.9v.8Z" class="g0_1969"/>
<path d="M95.9,820.8H841v-.7H95.9v.7Z" class="g0_1969"/>
</svg>