<?xml version="1.0" encoding="UTF-8" standalone="no"?>
<!DOCTYPE svg PUBLIC "-//W3C//DTD SVG 1.1//EN"
"http://www.w3.org/Graphics/SVG/1.1/DTD/svg11.dtd">
<svg viewBox="0 0 935 1210" version="1.1" xmlns="http://www.w3.org/2000/svg" xmlns:xlink="http://www.w3.org/1999/xlink">
<defs>
<style type="text/css"><![CDATA[
.g0_1035{
fill: #FFF;
}
.g1_1035{
fill: #000;
}
]]></style>
</defs>
<path d="M68.9,1149.3H852.7v-21.2H68.9v21.2Z" class="g0_1035"/>
<path d="M71.4,772.7h.7V131.8h-.7V772.7Z" class="g1_1035"/>
<path d="M174.4,773.5h.7V131h-.7V773.5Z" class="g1_1035"/>
<path d="M850.7,772.7h.7V131.8h-.7V772.7Z" class="g1_1035"/>
<path d="M71.3,131.7H851.4V131H71.3v.7Z" class="g1_1035"/>
<path d="M71.3,160.8H851.4v-.7H71.3v.7Z" class="g1_1035"/>
<path d="M71.3,206.6H851.4v-.7H71.3v.7Z" class="g1_1035"/>
<path d="M71.3,307.4H851.4v-.7H71.3v.7Z" class="g1_1035"/>
<path d="M71.3,412.9H851.4v-.8H71.3v.8Z" class="g1_1035"/>
<path d="M71.3,441.9H851.4v-.7H71.3v.7Z" class="g1_1035"/>
<path d="M71.3,664.9H851.4v-.7H71.3v.7Z" class="g1_1035"/>
<path d="M71.3,694H851.4v-.7H71.3v.7Z" class="g1_1035"/>
<path d="M71.3,744.4H851.4v-.7H71.3v.7Z" class="g1_1035"/>
<path d="M71.3,773.5H851.4v-.7H71.3v.7Z" class="g1_1035"/>
</svg>