<?xml version="1.0" encoding="UTF-8" standalone="no"?>
<!DOCTYPE svg PUBLIC "-//W3C//DTD SVG 1.1//EN"
"http://www.w3.org/Graphics/SVG/1.1/DTD/svg11.dtd">
<svg viewBox="0 0 935 1210" version="1.1" xmlns="http://www.w3.org/2000/svg" xmlns:xlink="http://www.w3.org/1999/xlink">
<defs>
<style type="text/css"><![CDATA[
.g0_3288{
fill: #FFF;
}
.g1_3288{
fill: #000;
}
]]></style>
</defs>
<path d="M68.8,1149.3H852.5v-21.2H68.8v21.2Z" class="g0_3288"/>
<path d="M71.1,343.4h.8V206.6h-.8V343.4Z" class="g1_3288"/>
<path d="M265.7,298.3h.7V205.9h-.7v92.4Z" class="g1_3288"/>
<path d="M460.2,298.3h.7V205.9h-.7v92.4Z" class="g1_3288"/>
<path d="M654.7,298.3h.7V205.9h-.7v92.4Z" class="g1_3288"/>
<path d="M849.2,343.4h.7V206.6h-.7V343.4Z" class="g1_3288"/>
<path d="M71.1,206.6H849.9v-.7H71.1v.7Z" class="g1_3288"/>
<path d="M71.1,229.5H849.9v-.7H71.1v.7Z" class="g1_3288"/>
<path d="M71.1,298.3H849.9v-.7H71.1v.7Z" class="g1_3288"/>
<path d="M71.1,344.1H849.9v-.7H71.1v.7Z" class="g1_3288"/>
<path d="M71.1,781.1h.8V644.3h-.8V781.1Z" class="g1_3288"/>
<path d="M265.7,736h.7V643.6h-.7V736Z" class="g1_3288"/>
<path d="M460.2,736h.7V643.6h-.7V736Z" class="g1_3288"/>
<path d="M654.7,736h.7V643.6h-.7V736Z" class="g1_3288"/>
<path d="M849.2,781.1h.7V644.3h-.7V781.1Z" class="g1_3288"/>
<path d="M71.1,644.3H849.9v-.7H71.1v.7Z" class="g1_3288"/>
<path d="M71.1,667.2H849.9v-.7H71.1v.7Z" class="g1_3288"/>
<path d="M71.1,736H849.9v-.7H71.1v.7Z" class="g1_3288"/>
<path d="M71.1,781.8H849.9v-.7H71.1v.7Z" class="g1_3288"/>
</svg>