<?xml version="1.0" encoding="UTF-8" standalone="no"?>
<!DOCTYPE svg PUBLIC "-//W3C//DTD SVG 1.1//EN"
"http://www.w3.org/Graphics/SVG/1.1/DTD/svg11.dtd">
<svg viewBox="0 0 935 1210" version="1.1" xmlns="http://www.w3.org/2000/svg" xmlns:xlink="http://www.w3.org/1999/xlink">
<defs>
<style type="text/css"><![CDATA[
.g0_1184{
fill: #FFF;
}
.g1_1184{
fill: #000;
}
]]></style>
</defs>
<path d="M165,1149.3H852.5v-21.2H165v21.2Z" class="g0_1184"/>
<path d="M68.8,1149.3h82.5v-21.2H68.8v21.2Z" class="g0_1184"/>
<path d="M68.9,987.5H861.8V957.9H68.9v29.6Z" class="g0_1184"/>
<path d="M69.9,980.8h53.5V968.5H69.9v12.3Z" class="g0_1184"/>
<path d="M68.6,957.5h.7V107.3h-.7V957.5Z" class="g1_1184"/>
<path d="M363.7,958.4h.8V106.6h-.8V958.4Z" class="g1_1184"/>
<path d="M407.4,958.4h.7V106.6h-.7V958.4Z" class="g1_1184"/>
<path d="M480.7,958.4h.7V106.6h-.7V958.4Z" class="g1_1184"/>
<path d="M560.2,958.4h.7V106.6h-.7V958.4Z" class="g1_1184"/>
<path d="M861.4,957.5h.7V107.3h-.7V957.5Z" class="g1_1184"/>
<path d="M68.6,107.3H862.1v-.7H68.6v.7Z" class="g1_1184"/>
<path d="M68.6,160.8H862.1v-.7H68.6v.7Z" class="g1_1184"/>
<path d="M68.6,200.5H862.1v-.8H68.6v.8Z" class="g1_1184"/>
<path d="M68.6,240.3H862.1v-.8H68.6v.8Z" class="g1_1184"/>
<path d="M68.6,279.9H862.1v-.7H68.6v.7Z" class="g1_1184"/>
<path d="M68.6,336.5H862.1v-.7H68.6v.7Z" class="g1_1184"/>
<path d="M68.6,393H862.1v-.8H68.6v.8Z" class="g1_1184"/>
<path d="M68.6,449.5H862.1v-.7H68.6v.7Z" class="g1_1184"/>
<path d="M68.6,506.1H862.1v-.7H68.6v.7Z" class="g1_1184"/>
<path d="M68.6,562.7H862.1v-.8H68.6v.8Z" class="g1_1184"/>
<path d="M68.6,619.1H862.1v-.7H68.6v.7Z" class="g1_1184"/>
<path d="M68.6,675.7H862.1v-.8H68.6v.8Z" class="g1_1184"/>
<path d="M68.6,732.2H862.1v-.7H68.6v.7Z" class="g1_1184"/>
<path d="M68.6,788.7H862.1V788H68.6v.7Z" class="g1_1184"/>
<path d="M68.6,845.3H862.1v-.8H68.6v.8Z" class="g1_1184"/>
<path d="M68.6,901.8H862.1v-.7H68.6v.7Z" class="g1_1184"/>
<path d="M68.6,958.3H862.1v-.7H68.6v.7Z" class="g1_1184"/>
</svg>