<?xml version="1.0" encoding="UTF-8" standalone="no"?>
<!DOCTYPE svg PUBLIC "-//W3C//DTD SVG 1.1//EN"
"http://www.w3.org/Graphics/SVG/1.1/DTD/svg11.dtd">
<svg viewBox="0 0 935 1210" version="1.1" xmlns="http://www.w3.org/2000/svg" xmlns:xlink="http://www.w3.org/1999/xlink">
<defs>
<style type="text/css"><![CDATA[
.g0_4799{
fill: #FFF;
}
.g1_4799{
fill: #000;
}
]]></style>
</defs>
<path d="M68.9,1149.3H852.7v-21.2H68.9v21.2Z" class="g0_4799"/>
<path d="M69.9,1072.1h.8V142.4h-.8v929.7Z" class="g1_4799"/>
<path d="M126.7,1073h.7V183h-.7v890Z" class="g1_4799"/>
<path d="M183.4,1073h.8V141.7h-.8V1073Z" class="g1_4799"/>
<path d="M427.6,1073h.8V141.7h-.8V1073Z" class="g1_4799"/>
<path d="M521.1,1073h.8V141.7h-.8V1073Z" class="g1_4799"/>
<path d="M854,1072.1h.7V142.4H854v929.7Z" class="g1_4799"/>
<path d="M69.9,142.4H854.7v-.7H69.9v.7Z" class="g1_4799"/>
<path d="M69.9,183.7H184.2V183H69.9v.7Z" class="g1_4799"/>
<path d="M69.9,208.2H854.7v-.8H69.9v.8Z" class="g1_4799"/>
<path d="M183.4,232.6H854.7v-.8H183.4v.8Z" class="g1_4799"/>
<path d="M183.4,257H854.7v-.7H183.4v.7Z" class="g1_4799"/>
<path d="M69.9,281.5H854.7v-.7H69.9v.7Z" class="g1_4799"/>
<path d="M183.4,305.9H854.7v-.7H183.4v.7Z" class="g1_4799"/>
<path d="M183.4,330.4H854.7v-.8H183.4v.8Z" class="g1_4799"/>
<path d="M183.4,354.8H854.7v-.7H183.4v.7Z" class="g1_4799"/>
<path d="M183.4,379.2H854.7v-.7H183.4v.7Z" class="g1_4799"/>
<path d="M69.9,403.7H854.7V403H69.9v.7Z" class="g1_4799"/>
<path d="M183.4,449.5H854.7v-.7H183.4v.7Z" class="g1_4799"/>
<path d="M183.4,490.8H854.7v-.7H183.4v.7Z" class="g1_4799"/>
<path d="M69.9,515.3H854.7v-.8H69.9v.8Z" class="g1_4799"/>
<path d="M183.4,561.1H854.7v-.7H183.4v.7Z" class="g1_4799"/>
<path d="M183.4,602.3H854.7v-.7H183.4v.7Z" class="g1_4799"/>
<path d="M69.9,626.8H854.7v-.7H69.9v.7Z" class="g1_4799"/>
<path d="M183.4,672.7H854.7v-.8H183.4v.8Z" class="g1_4799"/>
<path d="M183.4,713.9H854.7v-.7H183.4v.7Z" class="g1_4799"/>
<path d="M69.9,738.3H854.7v-.7H69.9v.7Z" class="g1_4799"/>
<path d="M183.4,784.1H854.7v-.7H183.4v.7Z" class="g1_4799"/>
<path d="M183.4,825.4H854.7v-.8H183.4v.8Z" class="g1_4799"/>
<path d="M69.9,849.8H854.7v-.7H69.9v.7Z" class="g1_4799"/>
<path d="M183.4,895.7H854.7v-.8H183.4v.8Z" class="g1_4799"/>
<path d="M183.4,936.9H854.7v-.7H183.4v.7Z" class="g1_4799"/>
<path d="M69.9,961.4H854.7v-.7H69.9v.7Z" class="g1_4799"/>
<path d="M183.4,1007.2H854.7v-.7H183.4v.7Z" class="g1_4799"/>
<path d="M183.4,1048.5H854.7v-.7H183.4v.7Z" class="g1_4799"/>
<path d="M69.9,1072.9H854.7v-.8H69.9v.8Z" class="g1_4799"/>
</svg>