<?xml version="1.0" encoding="UTF-8" standalone="no"?>
<!DOCTYPE svg PUBLIC "-//W3C//DTD SVG 1.1//EN"
"http://www.w3.org/Graphics/SVG/1.1/DTD/svg11.dtd">
<svg viewBox="0 0 935 1210" version="1.1" xmlns="http://www.w3.org/2000/svg" xmlns:xlink="http://www.w3.org/1999/xlink">
<defs>
<style type="text/css"><![CDATA[
.g0_2842{
fill: #FFF;
}
.g1_2842{
fill: #E6E6E6;
}
.g2_2842{
fill: #000;
}
]]></style>
</defs>
<path d="M68.8,1149H853.3v-21.4H68.8V1149Z" class="g0_2842"/>
<path d="M761.5,515.6h88.3V475.2H761.5v40.4Z" class="g1_2842"/>
<path d="M673.2,772.3h88.3V754.8H673.2v17.5Z" class="g1_2842"/>
<path d="M761.5,772.3h88.3V754.8H761.5v17.5Z" class="g1_2842"/>
<path d="M673.2,789.9h88.3V772.3H673.2v17.6Z" class="g1_2842"/>
<path d="M761.5,789.9h88.3V772.3H761.5v17.6Z" class="g1_2842"/>
<path d="M70.2,788.7h2.3V132.6H70.2V788.7Z" class="g2_2842"/>
<path d="M142.1,791h2.3V130.3h-2.3V791Z" class="g2_2842"/>
<path d="M231.2,150.2h.7V130.3h-.7v19.9Z" class="g2_2842"/>
<path d="M231.2,189.8h.7V166.6h-.7v23.2Z" class="g2_2842"/>
<path d="M231.2,224.9h.7V207h-.7v17.9Z" class="g2_2842"/>
<path d="M231.2,260.2h.7v-18h-.7v18Z" class="g2_2842"/>
<path d="M231.2,295.3h.7v-18h-.7v18Z" class="g2_2842"/>
<path d="M231.2,341.8h.7V312.4h-.7v29.4Z" class="g2_2842"/>
<path d="M231.2,428.9h.7V359.1h-.7v69.8Z" class="g2_2842"/>
<path d="M231.2,475.6h.7V446.1h-.7v29.5Z" class="g2_2842"/>
<path d="M231.2,556.5h.7V492.7h-.7v63.8Z" class="g2_2842"/>
<path d="M231.2,591.6h.7V573.7h-.7v17.9Z" class="g2_2842"/>
<path d="M231.2,661.9h.7v-53h-.7v53Z" class="g2_2842"/>
<path d="M231.2,791h.7V679.2h-.7V791Z" class="g2_2842"/>
<path d="M319.5,150.2h.7V130.3h-.7v19.9Z" class="g2_2842"/>
<path d="M319.5,189.8h.7V166.6h-.7v23.2Z" class="g2_2842"/>
<path d="M319.5,224.9h.7V207h-.7v17.9Z" class="g2_2842"/>
<path d="M319.5,260.2h.7v-18h-.7v18Z" class="g2_2842"/>
<path d="M319.5,295.3h.7v-18h-.7v18Z" class="g2_2842"/>
<path d="M319.5,341.8h.7V312.4h-.7v29.4Z" class="g2_2842"/>
<path d="M319.5,428.9h.7V359.1h-.7v69.8Z" class="g2_2842"/>
<path d="M319.5,475.6h.7V446.1h-.7v29.5Z" class="g2_2842"/>
<path d="M319.5,591.6h.7V492.7h-.7v98.9Z" class="g2_2842"/>
<path d="M319.5,661.9h.7v-53h-.7v53Z" class="g2_2842"/>
<path d="M319.5,708.5h.7V679.2h-.7v29.3Z" class="g2_2842"/>
<path d="M319.5,791h.7V725.7h-.7V791Z" class="g2_2842"/>
<path d="M407.8,150.2h.8V130.3h-.8v19.9Z" class="g2_2842"/>
<path d="M407.8,189.8h.8V166.6h-.8v23.2Z" class="g2_2842"/>
<path d="M407.8,224.9h.8V207h-.8v17.9Z" class="g2_2842"/>
<path d="M407.8,260.2h.8v-18h-.8v18Z" class="g2_2842"/>
<path d="M407.8,295.3h.8v-18h-.8v18Z" class="g2_2842"/>
<path d="M407.8,341.8h.8V312.4h-.8v29.4Z" class="g2_2842"/>
<path d="M407.8,428.9h.8V359.1h-.8v69.8Z" class="g2_2842"/>
<path d="M407.8,475.6h.8V446.1h-.8v29.5Z" class="g2_2842"/>
<path d="M407.8,591.6h.8V492.7h-.8v98.9Z" class="g2_2842"/>
<path d="M407.8,661.9h.8v-53h-.8v53Z" class="g2_2842"/>
<path d="M407.8,708.5h.8V679.2h-.8v29.3Z" class="g2_2842"/>
<path d="M407.8,791h.8V725.7h-.8V791Z" class="g2_2842"/>
<path d="M496.1,150.2h.7V130.3h-.7v19.9Z" class="g2_2842"/>
<path d="M496.1,189.8h.7V166.6h-.7v23.2Z" class="g2_2842"/>
<path d="M496.1,224.9h.7V207h-.7v17.9Z" class="g2_2842"/>
<path d="M496.1,260.2h.7v-18h-.7v18Z" class="g2_2842"/>
<path d="M496.1,295.3h.7v-18h-.7v18Z" class="g2_2842"/>
<path d="M496.1,341.8h.7V312.4h-.7v29.4Z" class="g2_2842"/>
<path d="M496.1,428.9h.7V359.1h-.7v69.8Z" class="g2_2842"/>
<path d="M496.1,591.6h.7V446.1h-.7V591.6Z" class="g2_2842"/>
<path d="M496.1,661.9h.7v-53h-.7v53Z" class="g2_2842"/>
<path d="M496.1,791h.7V679.2h-.7V791Z" class="g2_2842"/>
<path d="M584.5,150.2h.7V130.3h-.7v19.9Z" class="g2_2842"/>
<path d="M584.5,189.8h.7V166.6h-.7v23.2Z" class="g2_2842"/>
<path d="M584.5,224.9h.7V207h-.7v17.9Z" class="g2_2842"/>
<path d="M584.5,260.2h.7v-18h-.7v18Z" class="g2_2842"/>
<path d="M584.5,295.3h.7v-18h-.7v18Z" class="g2_2842"/>
<path d="M584.5,341.8h.7V312.4h-.7v29.4Z" class="g2_2842"/>
<path d="M584.5,428.9h.7V359.1h-.7v69.8Z" class="g2_2842"/>
<path d="M584.5,591.6h.7V446.1h-.7V591.6Z" class="g2_2842"/>
<path d="M584.5,661.9h.7v-53h-.7v53Z" class="g2_2842"/>
<path d="M584.5,708.5h.7V679.2h-.7v29.3Z" class="g2_2842"/>
<path d="M584.5,791h.7V725.7h-.7V791Z" class="g2_2842"/>
<path d="M672.8,295.3h.8v-165h-.8v165Z" class="g2_2842"/>
<path d="M672.8,341.8h.8V312.4h-.8v29.4Z" class="g2_2842"/>
<path d="M672.8,428.9h.8V359.1h-.8v69.8Z" class="g2_2842"/>
<path d="M672.8,591.6h.8V446.1h-.8V591.6Z" class="g2_2842"/>
<path d="M672.8,661.9h.8v-53h-.8v53Z" class="g2_2842"/>
<path d="M672.8,791h.8V679.2h-.8V791Z" class="g2_2842"/>
<path d="M761.1,295.3h.7v-165h-.7v165Z" class="g2_2842"/>
<path d="M761.1,341.8h.7V312.4h-.7v29.4Z" class="g2_2842"/>
<path d="M761.1,428.9h.7V359.1h-.7v69.8Z" class="g2_2842"/>
<path d="M761.1,591.6h.7V446.1h-.7V591.6Z" class="g2_2842"/>
<path d="M761.1,661.9h.7v-53h-.7v53Z" class="g2_2842"/>
<path d="M761.1,708.5h.7V679.2h-.7v29.3Z" class="g2_2842"/>
<path d="M761.1,791h.7V725.7h-.7V791Z" class="g2_2842"/>
<path d="M849.5,147.9h.7V132.6h-.7v15.3Z" class="g2_2842"/>
<path d="M848.7,788.7H851V150.2h-2.3V788.7Z" class="g2_2842"/>
<path d="M70.2,132.6h780v-2.3H70.2v2.3Z" class="g2_2842"/>
<path d="M70.2,150.2H850.9v-2.3H70.2v2.3Z" class="g2_2842"/>
<path d="M70.2,189.8H850.9v-.7H70.2v.7Z" class="g2_2842"/>
<path d="M70.2,224.9H850.9v-.7H70.2v.7Z" class="g2_2842"/>
<path d="M70.2,260.1H850.9v-.8H70.2v.8Z" class="g2_2842"/>
<path d="M70.2,295.3H850.9v-.8H70.2v.8Z" class="g2_2842"/>
<path d="M70.2,341.8H850.9v-.7H70.2v.7Z" class="g2_2842"/>
<path d="M70.2,376.9H850.9v-.7H70.2v.7Z" class="g2_2842"/>
<path d="M70.2,428.9H850.9v-.7H70.2v.7Z" class="g2_2842"/>
<path d="M70.2,475.6H850.9v-.8H70.2v.8Z" class="g2_2842"/>
<path d="M70.2,516H850.9v-.7H70.2v.7Z" class="g2_2842"/>
<path d="M70.2,556.5H850.9v-.7H70.2v.7Z" class="g2_2842"/>
<path d="M70.2,591.6H850.9v-.7H70.2v.7Z" class="g2_2842"/>
<path d="M70.2,626.8H850.9v-.7H70.2v.7Z" class="g2_2842"/>
<path d="M70.2,661.9H850.9v-.7H70.2v.7Z" class="g2_2842"/>
<path d="M70.2,708.5H850.9v-.7H70.2v.7Z" class="g2_2842"/>
<path d="M70.2,755.2H850.9v-.8H70.2v.8Z" class="g2_2842"/>
<path d="M70.2,791.1H850.9v-2.3H70.2v2.3Z" class="g2_2842"/>
</svg>