<?xml version="1.0" encoding="UTF-8" standalone="no"?>
<!DOCTYPE svg PUBLIC "-//W3C//DTD SVG 1.1//EN"
"http://www.w3.org/Graphics/SVG/1.1/DTD/svg11.dtd">
<svg viewBox="0 0 935 1210" version="1.1" xmlns="http://www.w3.org/2000/svg" xmlns:xlink="http://www.w3.org/1999/xlink">
<defs>
<clipPath id="c0_1854"><path d="M766.6,59.2V41.4h72.1V59.2Z"/></clipPath>
<style type="text/css"><![CDATA[
.g0_1854{
fill: #000;
}
]]></style>
</defs>
<path d="M97.3,62.9v.3H839.9v-.3H97.3Z" class="g0_1854"/>
<path d="M96.2,1114.1h-.1v.4h.1v-.4Z" class="g0_1854"/>
<path d="M838.7,1114.1h.2v.4h-.2v-.4Z" class="g0_1854"/>
<path d="M96.2,1114.1v.4H838.7v-.4H96.2Z" class="g0_1854"/>
<image clip-path="url(#c0_1854)" preserveAspectRatio="none" x="767" y="41" width="72" height="18" xlink:href="img/1.jpg"/>
<path d="M94.3,197.4h-.7V765h.7V197.4Z" class="g0_1854"/>
<path d="M296,196.7h-.7V765.8h.7V196.7Z" class="g0_1854"/>
<path d="M396.8,196.7h-.7V765.8h.7V196.7Z" class="g0_1854"/>
<path d="M480.9,196.7h-.8V765.8h.8V196.7Z" class="g0_1854"/>
<path d="M841.4,197.4h-.7V765h.7V197.4Z" class="g0_1854"/>
<path d="M93.6,196.7v.7H841.4v-.7H93.6Z" class="g0_1854"/>
<path d="M93.6,257.9v.7H841.4v-.7H93.6Z" class="g0_1854"/>
<path d="M93.6,282.2v.8H841.4v-.8H93.6Z" class="g0_1854"/>
<path d="M93.6,306.7v.7H841.4v-.7H93.6Z" class="g0_1854"/>
<path d="M93.6,331.2v.7H841.4v-.7H93.6Z" class="g0_1854"/>
<path d="M93.6,355.6v.7H841.4v-.7H93.6Z" class="g0_1854"/>
<path d="M93.6,380v.8H841.4V380H93.6Z" class="g0_1854"/>
<path d="M93.6,404.5v.7H841.4v-.7H93.6Z" class="g0_1854"/>
<path d="M93.6,428.9v.7H841.4v-.7H93.6Z" class="g0_1854"/>
<path d="M93.6,453.4v.7H841.4v-.7H93.6Z" class="g0_1854"/>
<path d="M93.6,477.8v.8H841.4v-.8H93.6Z" class="g0_1854"/>
<path d="M93.6,502.2v.8H841.4v-.8H93.6Z" class="g0_1854"/>
<path d="M93.6,526.7v.7H841.4v-.7H93.6Z" class="g0_1854"/>
<path d="M93.6,551.2v.7H841.4v-.7H93.6Z" class="g0_1854"/>
<path d="M93.6,575.6v.7H841.4v-.7H93.6Z" class="g0_1854"/>
<path d="M93.6,600v.8H841.4V600H93.6Z" class="g0_1854"/>
<path d="M93.6,624.5v.7H841.4v-.7H93.6Z" class="g0_1854"/>
<path d="M93.6,648.9v.7H841.4v-.7H93.6Z" class="g0_1854"/>
<path d="M93.6,673.4v.7H841.4v-.7H93.6Z" class="g0_1854"/>
<path d="M93.6,697.8v.8H841.4v-.8H93.6Z" class="g0_1854"/>
<path d="M93.6,740.6v.7H841.4v-.7H93.6Z" class="g0_1854"/>
<path d="M93.6,765v.8H841.4V765H93.6Z" class="g0_1854"/>
</svg>