<?xml version="1.0" encoding="UTF-8" standalone="no"?>
<!DOCTYPE svg PUBLIC "-//W3C//DTD SVG 1.1//EN"
"http://www.w3.org/Graphics/SVG/1.1/DTD/svg11.dtd">
<svg viewBox="0 0 935 1210" version="1.1" xmlns="http://www.w3.org/2000/svg" xmlns:xlink="http://www.w3.org/1999/xlink">
<defs>
<clipPath id="c0_258"><path d="M97.2,59V41.4h72.2V59Z"/></clipPath>
<style type="text/css"><![CDATA[
.g0_258{
fill: #000;
}
]]></style>
</defs>
<path d="M96.1,63.1v.3H838.9v-.3H96.1Z" class="g0_258"/>
<path d="M96.1,1114.3v.3v-.3Z" class="g0_258"/>
<path d="M838.9,1114.3v.3v-.3Z" class="g0_258"/>
<path d="M96.1,1114.3v.3H838.9v-.3H96.1Z" class="g0_258"/>
<image clip-path="url(#c0_258)" preserveAspectRatio="none" x="97" y="41" width="72" height="18" xlink:href="img/1.jpg"/>
<path d="M99,426.8h-.7v488H99v-488Z" class="g0_258"/>
<path d="M480.3,425.7h-.7V915.5h.7V425.7Z" class="g0_258"/>
<path d="M836.7,426.8H836v488h.7v-488Z" class="g0_258"/>
<path d="M98.3,425.7v.7H836.7v-.7H98.3Z" class="g0_258"/>
<path d="M98.3,450.2v.8H836.7v-.8H98.3Z" class="g0_258"/>
<path d="M98.3,514.4v.7H836.7v-.7H98.3Z" class="g0_258"/>
<path d="M98.3,603.1v.8H836.7v-.8H98.3Z" class="g0_258"/>
<path d="M98.3,664.4v.7H836.7v-.7H98.3Z" class="g0_258"/>
<path d="M98.3,725.2v.8H836.7v-.8H98.3Z" class="g0_258"/>
<path d="M98.3,749.8v.7H836.7v-.7H98.3Z" class="g0_258"/>
<path d="M98.3,774.4v.7H836.7v-.7H98.3Z" class="g0_258"/>
<path d="M98.3,816.9v.7H836.7v-.7H98.3Z" class="g0_258"/>
<path d="M98.3,914.8v.7H836.7v-.7H98.3Z" class="g0_258"/>
</svg>