<?xml version="1.0" encoding="UTF-8" standalone="no"?>
<!DOCTYPE svg PUBLIC "-//W3C//DTD SVG 1.1//EN"
"http://www.w3.org/Graphics/SVG/1.1/DTD/svg11.dtd">
<svg viewBox="0 0 935 1210" version="1.1" xmlns="http://www.w3.org/2000/svg" xmlns:xlink="http://www.w3.org/1999/xlink">
<defs>
<style type="text/css"><![CDATA[
.g0_371{
fill: #FFF;
}
.g1_371{
fill: #000;
}
]]></style>
</defs>
<path d="M68.9,1149.3H852.7v-21.2H68.9v21.2Z" class="g0_371"/>
<path d="M71.1,1076.7h.8V124.1h-.8v952.6Z" class="g1_371"/>
<path d="M238.3,1077.5h.8V123.4h-.8v954.1Z" class="g1_371"/>
<path d="M413,1077.5h.7V123.4H413v954.1Z" class="g1_371"/>
<path d="M585.2,1077.5h.7V123.4h-.7v954.1Z" class="g1_371"/>
<path d="M850.8,1076.7h.8V124.1h-.8v952.6Z" class="g1_371"/>
<path d="M71.1,124.1H851.6v-.7H71.1v.7Z" class="g1_371"/>
<path d="M71.1,148.6H851.6v-.7H71.1v.7Z" class="g1_371"/>
<path d="M71.1,173H851.6v-.8H71.1v.8Z" class="g1_371"/>
<path d="M71.1,197.4H851.6v-.7H71.1v.7Z" class="g1_371"/>
<path d="M71.1,221.9H851.6v-.7H71.1v.7Z" class="g1_371"/>
<path d="M71.1,246.3H851.6v-.7H71.1v.7Z" class="g1_371"/>
<path d="M71.1,270.8H851.6v-.7H71.1v.7Z" class="g1_371"/>
<path d="M71.1,295.3H851.6v-.8H71.1v.8Z" class="g1_371"/>
<path d="M71.1,319.6H851.6v-.7H71.1v.7Z" class="g1_371"/>
<path d="M71.1,344.1H851.6v-.7H71.1v.7Z" class="g1_371"/>
<path d="M71.1,368.6H851.6v-.7H71.1v.7Z" class="g1_371"/>
<path d="M71.1,393H851.6v-.8H71.1v.8Z" class="g1_371"/>
<path d="M71.1,417.4H851.6v-.7H71.1v.7Z" class="g1_371"/>
<path d="M71.1,441.9H851.6v-.7H71.1v.7Z" class="g1_371"/>
<path d="M71.1,466.4H851.6v-.7H71.1v.7Z" class="g1_371"/>
<path d="M71.1,490.8H851.6v-.7H71.1v.7Z" class="g1_371"/>
<path d="M71.1,515.3H851.6v-.8H71.1v.8Z" class="g1_371"/>
<path d="M71.1,539.7H851.6V539H71.1v.7Z" class="g1_371"/>
<path d="M71.1,564.1H851.6v-.7H71.1v.7Z" class="g1_371"/>
<path d="M71.1,588.6H851.6v-.7H71.1v.7Z" class="g1_371"/>
<path d="M71.1,613.1H851.6v-.8H71.1v.8Z" class="g1_371"/>
<path d="M71.1,637.4H851.6v-.7H71.1v.7Z" class="g1_371"/>
<path d="M71.1,661.9H851.6v-.7H71.1v.7Z" class="g1_371"/>
<path d="M71.1,686.4H851.6v-.7H71.1v.7Z" class="g1_371"/>
<path d="M71.1,710.8H851.6v-.7H71.1v.7Z" class="g1_371"/>
<path d="M71.1,735.3H851.6v-.8H71.1v.8Z" class="g1_371"/>
<path d="M71.1,759.7H851.6V759H71.1v.7Z" class="g1_371"/>
<path d="M71.1,784.1H851.6v-.7H71.1v.7Z" class="g1_371"/>
<path d="M71.1,808.6H851.6v-.7H71.1v.7Z" class="g1_371"/>
<path d="M71.1,833.1H851.6v-.8H71.1v.8Z" class="g1_371"/>
<path d="M71.1,857.5H851.6v-.8H71.1v.8Z" class="g1_371"/>
<path d="M71.1,881.9H851.6v-.7H71.1v.7Z" class="g1_371"/>
<path d="M71.1,906.4H851.6v-.7H71.1v.7Z" class="g1_371"/>
<path d="M71.1,930.8H851.6v-.7H71.1v.7Z" class="g1_371"/>
<path d="M71.1,955.3H851.6v-.8H71.1v.8Z" class="g1_371"/>
<path d="M71.1,979.7H851.6V979H71.1v.7Z" class="g1_371"/>
<path d="M71.1,1004.1H851.6v-.7H71.1v.7Z" class="g1_371"/>
<path d="M71.1,1028.6H851.6v-.7H71.1v.7Z" class="g1_371"/>
<path d="M71.1,1053.1H851.6v-.8H71.1v.8Z" class="g1_371"/>
<path d="M71.1,1077.5H851.6v-.8H71.1v.8Z" class="g1_371"/>
</svg>