<?xml version="1.0" encoding="UTF-8" standalone="no"?>
<!DOCTYPE svg PUBLIC "-//W3C//DTD SVG 1.1//EN"
"http://www.w3.org/Graphics/SVG/1.1/DTD/svg11.dtd">
<svg viewBox="0 0 935 1210" version="1.1" xmlns="http://www.w3.org/2000/svg" xmlns:xlink="http://www.w3.org/1999/xlink">
<defs>
<clipPath id="c0_1688"><path d="M766.6,59.2V41.4h72.1V59.2Z"/></clipPath>
<style type="text/css"><![CDATA[
.g0_1688{
fill: #000;
}
]]></style>
</defs>
<path d="M97.3,62.9v.3H839.9v-.3H97.3Z" class="g0_1688"/>
<path d="M96.2,1114.1h-.1v.4h.1v-.4Z" class="g0_1688"/>
<path d="M838.7,1114.1h.2v.4h-.2v-.4Z" class="g0_1688"/>
<path d="M96.2,1114.1v.4H838.7v-.4H96.2Z" class="g0_1688"/>
<image clip-path="url(#c0_1688)" preserveAspectRatio="none" x="767" y="41" width="72" height="18" xlink:href="img/1.jpg"/>
<path d="M96.6,828h-.7v175.4h.7V828Z" class="g0_1688"/>
<path d="M262.5,825h-.7v179.1h.7V825Z" class="g0_1688"/>
<path d="M310.7,825H310v179.1h.7V825Z" class="g0_1688"/>
<path d="M373.6,825h-.7v179.1h.7V825Z" class="g0_1688"/>
<path d="M455.2,825h-.7v179.1h.7V825Z" class="g0_1688"/>
<path d="M839.1,828h-.7v175.4h.7V828Z" class="g0_1688"/>
<path d="M95.9,825.1v3H839.1v-3H95.9Z" class="g0_1688"/>
<path d="M95.9,867.8v3H839.1v-3H95.9Z" class="g0_1688"/>
<path d="M261.8,923.9v.7H839.1v-.7H261.8Z" class="g0_1688"/>
<path d="M95.9,963.7v.7H839.1v-.7H95.9Z" class="g0_1688"/>
<path d="M95.9,1003.4v.7H839.1v-.7H95.9Z" class="g0_1688"/>
</svg>