<?xml version="1.0" encoding="UTF-8" standalone="no"?>
<!DOCTYPE svg PUBLIC "-//W3C//DTD SVG 1.1//EN"
"http://www.w3.org/Graphics/SVG/1.1/DTD/svg11.dtd">
<svg viewBox="0 0 935 1210" version="1.1" xmlns="http://www.w3.org/2000/svg" xmlns:xlink="http://www.w3.org/1999/xlink">
<defs>
<style type="text/css"><![CDATA[
.g0_167{
fill: #000;
}
]]></style>
</defs>
<path d="M92.5,547.3h.7V134.8h-.7V547.3Z" class="g0_167"/>
<path d="M188.7,548h.8V161.5h-.8V548Z" class="g0_167"/>
<path d="M257.5,548h.7V134h-.7V548Z" class="g0_167"/>
<path d="M587.6,548h.7V134h-.7V548Z" class="g0_167"/>
<path d="M656.3,548h.8V134h-.8V548Z" class="g0_167"/>
<path d="M745.5,548h.8V134h-.8V548Z" class="g0_167"/>
<path d="M841.8,547.3h.7V134.8h-.7V547.3Z" class="g0_167"/>
<path d="M92.5,134.8h750V134H92.5v.8Z" class="g0_167"/>
<path d="M92.5,162.3H258.3v-.8H92.5v.8Z" class="g0_167"/>
<path d="M93.3,187.9H841.7v-.7H93.3v.7Z" class="g0_167"/>
<path d="M93.3,191.7H841.7v-.8H93.3v.8Z" class="g0_167"/>
<path d="M92.5,405.9h750v-.7H92.5v.7Z" class="g0_167"/>
<path d="M92.5,548h750v-.8H92.5v.8Z" class="g0_167"/>
<path d="M89.8,887.7h.8V627.2h-.8V887.7Z" class="g0_167"/>
<path d="M177.8,888.4h.8V626.5h-.8V888.4Z" class="g0_167"/>
<path d="M279,888.4h.8V626.5H279V888.4Z" class="g0_167"/>
<path d="M380.2,888.4h.8V626.5h-.8V888.4Z" class="g0_167"/>
<path d="M474.8,888.4h.8V626.5h-.8V888.4Z" class="g0_167"/>
<path d="M571.6,888.4h.8V626.5h-.8V888.4Z" class="g0_167"/>
<path d="M659.6,888.4h.8V626.5h-.8V888.4Z" class="g0_167"/>
<path d="M747.6,888.4h.8V626.5h-.8V888.4Z" class="g0_167"/>
<path d="M844.4,887.7h.8V627.2h-.8V887.7Z" class="g0_167"/>
<path d="M89.8,627.2H845.2v-.8H89.8v.8Z" class="g0_167"/>
<path d="M90.6,674.1H844.4v-.7H90.6v.7Z" class="g0_167"/>
<path d="M90.6,678H844.4v-.8H90.6v.8Z" class="g0_167"/>
<path d="M89.8,705.1H845.2v-.7H89.8v.7Z" class="g0_167"/>
<path d="M89.8,750.9H845.2v-.7H89.8v.7Z" class="g0_167"/>
<path d="M89.8,796.8H845.2V796H89.8v.8Z" class="g0_167"/>
<path d="M89.8,859.4H845.2v-.8H89.8v.8Z" class="g0_167"/>
<path d="M89.8,888.4H845.2v-.7H89.8v.7Z" class="g0_167"/>
<path d="M271.3,396.4h.4V233h-.4V396.4Z" class="g0_167"/>
<path d="M353.8,396.7h.4V232.6h-.4V396.7Z" class="g0_167"/>
<path d="M573.9,396.4h.4V233h-.4V396.4Z" class="g0_167"/>
<path d="M271.3,233h303v-.3h-303v.3Z" class="g0_167"/>
<path d="M271.7,259.5H573.8v-.7H271.7v.7Z" class="g0_167"/>
<path d="M271.7,261.8H573.8v-.7H271.7v.7Z" class="g0_167"/>
<path d="M271.3,318.5h303v-.3h-303v.3Z" class="g0_167"/>
<path d="M271.3,396.7h303v-.3h-303v.3Z" class="g0_167"/>
</svg>