<?xml version="1.0" encoding="UTF-8" standalone="no"?>
<!DOCTYPE svg PUBLIC "-//W3C//DTD SVG 1.1//EN"
"http://www.w3.org/Graphics/SVG/1.1/DTD/svg11.dtd">
<svg viewBox="0 0 935 1210" version="1.1" xmlns="http://www.w3.org/2000/svg" xmlns:xlink="http://www.w3.org/1999/xlink">
<defs>
<style type="text/css"><![CDATA[
.g0_1087{
fill: #FFF;
}
.g1_1087{
fill: #000;
}
.g2_1087{
fill: #FEFEFE;
}
.g3_1087{
fill: none;
stroke: #000;
stroke-width: 1.069;
stroke-miterlimit: 3;
}
.g4_1087{
fill: none;
stroke: #000;
stroke-width: 0.355;
stroke-miterlimit: 3;
}
.g5_1087{
fill: #C8C8C8;
}
]]></style>
</defs>
<path d="M68.9,1149.3H755.2v-21.2H68.9v21.2Z" class="g0_1087"/>
<path d="M771.3,1149.3H855v-21.2H771.3v21.2Z" class="g0_1087"/>
<path d="M69.9,348h.8V125.7h-.8V348Z" class="g1_1087"/>
<path d="M392.6,348.7h.7V124.9h-.7V348.7Z" class="g1_1087"/>
<path d="M430.5,348.7h.7V124.9h-.7V348.7Z" class="g1_1087"/>
<path d="M503.9,348.7h.7V124.9h-.7V348.7Z" class="g1_1087"/>
<path d="M575.2,348.7h.7V124.9h-.7V348.7Z" class="g1_1087"/>
<path d="M854.7,348h.7V125.7h-.7V348Z" class="g1_1087"/>
<path d="M69.9,125.7H855.4v-.8H69.9v.8Z" class="g1_1087"/>
<path d="M69.9,179.1H855.4v-.7H69.9v.7Z" class="g1_1087"/>
<path d="M69.9,235.7H855.4v-.8H69.9v.8Z" class="g1_1087"/>
<path d="M69.9,292.1H855.4v-.7H69.9v.7Z" class="g1_1087"/>
<path d="M69.9,348.7H855.4V348H69.9v.7Z" class="g1_1087"/>
<path d="M69.9,476.3h.8V403.7h-.8v72.6Z" class="g1_1087"/>
<path d="M143.3,477h.7V403h-.7v74Z" class="g1_1087"/>
<path d="M316.3,477h.8V403h-.8v74Z" class="g1_1087"/>
<path d="M501.4,477h.7V403h-.7v74Z" class="g1_1087"/>
<path d="M674.8,477h.7V403h-.7v74Z" class="g1_1087"/>
<path d="M851,476.3h.8V403.7H851v72.6Z" class="g1_1087"/>
<path d="M69.9,403.7H851.8V403H69.9v.7Z" class="g1_1087"/>
<path d="M69.9,428.2H851.8v-.8H69.9v.8Z" class="g1_1087"/>
<path d="M69.9,452.7H851.8v-.8H69.9v.8Z" class="g1_1087"/>
<path d="M69.9,477H851.8v-.7H69.9v.7Z" class="g1_1087"/>
<path d="M208.7,1007.6H709.8V733.7H208.7v273.9Z" class="g2_1087"/>
<path d="M208.7,733.7H709.8v273.9H208.7V733.7Z" class="g3_1087"/>
<path d="M449.2,812.2H649.6V772.1H449.2v40.1Z" class="g2_1087"/>
<path d="M449.2,772.1H649.6v40.1H449.2V772.1Z" class="g4_1087"/>
<path d="M248.7,812.2H449.2V772.1H248.7v40.1Z" class="g2_1087"/>
<path d="M248.7,772.1H449.2v40.1H248.7V772.1Z" class="g4_1087"/>
<path d="M449.2,884H649.6V843.9H449.2V884Z" class="g2_1087"/>
<path d="M449.2,843.9H649.6V884H449.2V843.9Z" class="g4_1087"/>
<path d="M248.7,884H449.2V843.9H248.7V884Z" class="g2_1087"/>
<path d="M248.7,843.9H449.2V884H248.7V843.9ZM349,923.1v-9H228.7V828H549.4V812.2" class="g4_1087"/>
<path fill-rule="evenodd" d="M353.1,922.6l-4.1,8.2l-4.1,-8.2h8.2Z" class="g1_1087"/>
<path d="M248.7,970.9H449.2V930.8H248.7v40.1Z" class="g5_1087"/>
<path d="M248.7,930.8H449.2v40.1H248.7V930.8Z" class="g4_1087"/>
<path d="M449.2,970.9H649.6V930.8H449.2v40.1Z" class="g5_1087"/>
<path d="M449.2,930.8H649.6v40.1H449.2V930.8Zm100.2,-7.7V900.7H349V884" class="g4_1087"/>
<path fill-rule="evenodd" d="M553.5,922.6l-4.1,8.2l-4.1,-8.2h8.2Z" class="g1_1087"/>
<path d="M349,812.2V828m200.4,56v16.7" class="g4_1087"/>
</svg>