<?xml version="1.0" encoding="UTF-8" standalone="no"?>
<!DOCTYPE svg PUBLIC "-//W3C//DTD SVG 1.1//EN"
"http://www.w3.org/Graphics/SVG/1.1/DTD/svg11.dtd">
<svg viewBox="0 0 935 1210" version="1.1" xmlns="http://www.w3.org/2000/svg" xmlns:xlink="http://www.w3.org/1999/xlink">
<defs>
<clipPath id="c0_3776"><path d="M68.8,948.4V918.8H852.4v29.6Z"/></clipPath>
<style type="text/css"><![CDATA[
.g0_3776{
fill: #FFF;
}
.g1_3776{
fill: #000;
}
]]></style>
</defs>
<path d="M68.8,1149.3H852.5v-21.2H68.8v21.2Z" class="g0_3776"/>
<path d="M68.9,449.7H849.4V420.2H68.9v29.5Z" class="g0_3776"/>
<path d="M69.9,443.1h53.5V430.7H69.9v12.4Z" class="g0_3776"/>
<path clip-path="url(#c0_3776)" d="M68.8,948.4H852.4V918.8H68.8v29.6Z" class="g0_3776"/>
<path d="M69.7,941.7h53.4V929.3H69.7v12.4Z" class="g0_3776"/>
<path d="M68.6,419.7h.7V142.4h-.7V419.7Z" class="g1_3776"/>
<path d="M228.6,420.6h.7V141.7h-.7V420.6Z" class="g1_3776"/>
<path d="M309.6,420.6h.7V141.7h-.7V420.6Z" class="g1_3776"/>
<path d="M849,419.7h.7V142.4H849V419.7Z" class="g1_3776"/>
<path d="M68.6,142.4H849.8v-.7H68.6v.7Z" class="g1_3776"/>
<path d="M68.6,166.9H849.8v-.7H68.6v.7Z" class="g1_3776"/>
<path d="M68.6,191.3H849.8v-.7H68.6v.7Z" class="g1_3776"/>
<path d="M68.6,232.6H849.8v-.8H68.6v.8Z" class="g1_3776"/>
<path d="M68.6,257H849.8v-.7H68.6v.7Z" class="g1_3776"/>
<path d="M68.6,281.5H849.8v-.7H68.6v.7Z" class="g1_3776"/>
<path d="M68.6,322.8H849.8V322H68.6v.8Z" class="g1_3776"/>
<path d="M68.6,347.1H849.8v-.7H68.6v.7Z" class="g1_3776"/>
<path d="M68.6,371.6H849.8v-.7H68.6v.7Z" class="g1_3776"/>
<path d="M68.6,396.1H849.8v-.7H68.6v.7Z" class="g1_3776"/>
<path d="M68.6,420.6H849.8v-.8H68.6v.8Z" class="g1_3776"/>
<path d="M68.4,918.4h.7V680.8h-.7V918.4Z" class="g1_3776"/>
<path d="M137.7,919.1h.7v-239h-.7v239Z" class="g1_3776"/>
<path d="M227.4,919.1h.8v-239h-.8v239Z" class="g1_3776"/>
<path d="M376,919.1h.8v-239H376v239Z" class="g1_3776"/>
<path d="M852,918.4h.8V680.8H852V918.4Z" class="g1_3776"/>
<path d="M68.3,680.8H852.8v-.7H68.3v.7Z" class="g1_3776"/>
<path d="M68.3,705.3H852.8v-.7H68.3v.7Z" class="g1_3776"/>
<path d="M68.3,729.8H852.8V729H68.3v.8Z" class="g1_3776"/>
<path d="M137.7,754.1H852.8v-.7H137.7v.7Z" class="g1_3776"/>
<path d="M137.7,795.4H852.8v-.7H137.7v.7Z" class="g1_3776"/>
<path d="M68.3,853.5H852.8v-.7H68.3v.7Z" class="g1_3776"/>
<path d="M68.3,894.8H852.8V894H68.3v.8Z" class="g1_3776"/>
<path d="M68.3,919.1H852.8v-.7H68.3v.7Z" class="g1_3776"/>
</svg>