<?xml version="1.0" encoding="UTF-8" standalone="no"?>
<!DOCTYPE svg PUBLIC "-//W3C//DTD SVG 1.1//EN"
"http://www.w3.org/Graphics/SVG/1.1/DTD/svg11.dtd">
<svg viewBox="0 0 935 1210" version="1.1" xmlns="http://www.w3.org/2000/svg" xmlns:xlink="http://www.w3.org/1999/xlink">
<defs>
<clipPath id="c0_1899"><path d="M97.3,59.2V41.4h72.1V59.2Z"/></clipPath>
<style type="text/css"><![CDATA[
.g0_1899{
fill: #000;
}
]]></style>
</defs>
<path d="M96.2,62.9v.3H838.7v-.3H96.2Z" class="g0_1899"/>
<path d="M96.2,1114.1h-.1v.4h.1v-.4Z" class="g0_1899"/>
<path d="M838.7,1114.1h.2v.4h-.2v-.4Z" class="g0_1899"/>
<path d="M96.2,1114.1v.4H838.7v-.4H96.2Z" class="g0_1899"/>
<image clip-path="url(#c0_1899)" preserveAspectRatio="none" x="97" y="41" width="72" height="18" xlink:href="img/1.jpg"/>
<path d="M96.6,151.6h-.7V321.9h.7V151.6Z" class="g0_1899"/>
<path d="M142.8,150.9h-.7V322.7h.7V150.9Z" class="g0_1899"/>
<path d="M274.8,150.9h-.7V322.7h.7V150.9Z" class="g0_1899"/>
<path d="M839.1,151.6h-.7V321.9h.7V151.6Z" class="g0_1899"/>
<path d="M95.9,150.9v.7H839.1v-.7H95.9Z" class="g0_1899"/>
<path d="M95.9,175.3v.7H839.1v-.7H95.9Z" class="g0_1899"/>
<path d="M95.9,199.7v.8H839.1v-.8H95.9Z" class="g0_1899"/>
<path d="M95.9,224.2v.7H839.1v-.7H95.9Z" class="g0_1899"/>
<path d="M95.9,248.7v.7H839.1v-.7H95.9Z" class="g0_1899"/>
<path d="M95.9,273.1v.7H839.1v-.7H95.9Z" class="g0_1899"/>
<path d="M95.9,297.5v.8H839.1v-.8H95.9Z" class="g0_1899"/>
<path d="M95.9,322v.8H839.1V322H95.9Z" class="g0_1899"/>
<path d="M96.2,372.8v3H838.7v-3H96.2Z" class="g0_1899"/>
<path d="M96.2,612.7v3H838.7v-3H96.2Z" class="g0_1899"/>
<path d="M96.6,691h-.7V983.5h.7V691Z" class="g0_1899"/>
<path d="M142.8,690.1h-.7V984.3h.7V690.1Z" class="g0_1899"/>
<path d="M274.8,690.1h-.7V984.3h.7V690.1Z" class="g0_1899"/>
<path d="M839.1,691h-.7V983.5h.7V691Z" class="g0_1899"/>
<path d="M95.9,690.1v.8H839.1v-.8H95.9Z" class="g0_1899"/>
<path d="M95.9,714.6v.7H839.1v-.7H95.9Z" class="g0_1899"/>
<path d="M95.9,739.1v.7H839.1v-.7H95.9Z" class="g0_1899"/>
<path d="M95.9,763.5v.7H839.1v-.7H95.9Z" class="g0_1899"/>
<path d="M95.9,787.9v.8H839.1v-.8H95.9Z" class="g0_1899"/>
<path d="M95.9,812.4v.8H839.1v-.8H95.9Z" class="g0_1899"/>
<path d="M95.9,836.8v.7H839.1v-.7H95.9Z" class="g0_1899"/>
<path d="M95.9,861.3v.7H839.1v-.7H95.9Z" class="g0_1899"/>
<path d="M95.9,885.8v.7H839.1v-.7H95.9Z" class="g0_1899"/>
<path d="M95.9,910.1v.8H839.1v-.8H95.9Z" class="g0_1899"/>
<path d="M95.9,934.6v.7H839.1v-.7H95.9Z" class="g0_1899"/>
<path d="M95.9,959.1v.7H839.1v-.7H95.9Z" class="g0_1899"/>
<path d="M95.9,983.5v.7H839.1v-.7H95.9Z" class="g0_1899"/>
<path d="M96.2,1035.9v3H838.7v-3H96.2Z" class="g0_1899"/>
</svg>