<?xml version="1.0" encoding="UTF-8" standalone="no"?>
<!DOCTYPE svg PUBLIC "-//W3C//DTD SVG 1.1//EN"
"http://www.w3.org/Graphics/SVG/1.1/DTD/svg11.dtd">
<svg viewBox="0 0 935 1210" version="1.1" xmlns="http://www.w3.org/2000/svg" xmlns:xlink="http://www.w3.org/1999/xlink">
<defs>
<style type="text/css"><![CDATA[
.g0_2655{
fill: #FFF;
}
.g1_2655{
fill: #000;
}
]]></style>
</defs>
<path d="M68.9,1149.3H755.2v-21.2H68.9v21.2Z" class="g0_2655"/>
<path d="M771.3,1149.3H855v-21.2H771.3v21.2Z" class="g0_2655"/>
<path d="M69.9,234.9h.8V125.7h-.8V234.9Z" class="g1_2655"/>
<path d="M287.7,235.7h.8V124.9h-.8V235.7Z" class="g1_2655"/>
<path d="M333.6,235.7h.7V124.9h-.7V235.7Z" class="g1_2655"/>
<path d="M406.9,235.7h.7V124.9h-.7V235.7Z" class="g1_2655"/>
<path d="M485.7,235.7h.8V124.9h-.8V235.7Z" class="g1_2655"/>
<path d="M852.3,234.9h.8V125.7h-.8V234.9Z" class="g1_2655"/>
<path d="M69.9,125.7H853v-.8H69.9v.8Z" class="g1_2655"/>
<path d="M69.9,179.1H853v-.7H69.9v.7Z" class="g1_2655"/>
<path d="M69.9,235.7H853v-.8H69.9v.8Z" class="g1_2655"/>
<path d="M69.9,338.8h.8V290.7h-.8v48.1Z" class="g1_2655"/>
<path d="M121.8,339.5h.8V289.9h-.8v49.6Z" class="g1_2655"/>
<path d="M229.6,339.5h.8V289.9h-.8v49.6Z" class="g1_2655"/>
<path d="M383.9,339.5h.7V289.9h-.7v49.6Z" class="g1_2655"/>
<path d="M540.7,339.5h.7V289.9h-.7v49.6Z" class="g1_2655"/>
<path d="M696.6,339.5h.7V289.9h-.7v49.6Z" class="g1_2655"/>
<path d="M847.6,338.8h.8V290.7h-.8v48.1Z" class="g1_2655"/>
<path d="M69.9,290.7H848.4v-.8H69.9v.8Z" class="g1_2655"/>
<path d="M69.9,315.1H848.4v-.8H69.9v.8Z" class="g1_2655"/>
<path d="M69.9,339.5H848.4v-.7H69.9v.7Z" class="g1_2655"/>
</svg>