<?xml version="1.0" encoding="UTF-8" standalone="no"?>
<!DOCTYPE svg PUBLIC "-//W3C//DTD SVG 1.1//EN"
"http://www.w3.org/Graphics/SVG/1.1/DTD/svg11.dtd">
<svg viewBox="0 0 935 1210" version="1.1" xmlns="http://www.w3.org/2000/svg" xmlns:xlink="http://www.w3.org/1999/xlink">
<defs>
<style type="text/css"><![CDATA[
.g0_4525{
fill: #FFF;
}
.g1_4525{
fill: #000;
}
]]></style>
</defs>
<path d="M68.9,1149.3H852.7v-21.2H68.9v21.2Z" class="g0_4525"/>
<path d="M69.9,444.2h.8V122.7h-.8V444.2Z" class="g1_4525"/>
<path d="M256.3,444.9h.7V121.8h-.7V444.9Z" class="g1_4525"/>
<path d="M851.5,444.2h.7V122.7h-.7V444.2Z" class="g1_4525"/>
<path d="M69.9,122.6H852.2v-.8H69.9v.8Z" class="g1_4525"/>
<path d="M69.9,145.5H852.2v-.8H69.9v.8Z" class="g1_4525"/>
<path d="M69.9,168.4H852.2v-.7H69.9v.7Z" class="g1_4525"/>
<path d="M69.9,206.6H852.2v-.7H69.9v.7Z" class="g1_4525"/>
<path d="M69.9,246.3H852.2v-.7H69.9v.7Z" class="g1_4525"/>
<path d="M69.9,269.2H852.2v-.7H69.9v.7Z" class="g1_4525"/>
<path d="M69.9,292.1H852.2v-.7H69.9v.7Z" class="g1_4525"/>
<path d="M69.9,315.1H852.2v-.8H69.9v.8Z" class="g1_4525"/>
<path d="M69.9,338H852.2v-.8H69.9v.8Z" class="g1_4525"/>
<path d="M69.9,376.2H852.2v-.7H69.9v.7Z" class="g1_4525"/>
<path d="M69.9,399.1H852.2v-.7H69.9v.7Z" class="g1_4525"/>
<path d="M69.9,422H852.2v-.7H69.9v.7Z" class="g1_4525"/>
<path d="M69.9,444.9H852.2v-.7H69.9v.7Z" class="g1_4525"/>
<path d="M67.7,1082.9h.8V894.2h-.8v188.7Z" class="g1_4525"/>
<path d="M122.5,1083.6h.7v-149h-.7v149Z" class="g1_4525"/>
<path d="M183.4,1083.6h.8V893.4h-.8v190.2Z" class="g1_4525"/>
<path d="M418.4,1083.6h.7V893.4h-.7v190.2Z" class="g1_4525"/>
<path d="M683.2,1083.6h.7V893.4h-.7v190.2Z" class="g1_4525"/>
<path d="M854.2,1082.9h.8V894.2h-.8v188.7Z" class="g1_4525"/>
<path d="M67.7,894.1H855v-.7H67.7v.7Z" class="g1_4525"/>
<path d="M67.7,935.4H184.2v-.8H67.7v.8Z" class="g1_4525"/>
<path d="M67.7,959.8H855v-.7H67.7v.7Z" class="g1_4525"/>
<path d="M67.7,1001.1H855v-.7H67.7v.7Z" class="g1_4525"/>
<path d="M67.7,1042.3H855v-.7H67.7v.7Z" class="g1_4525"/>
<path d="M67.7,1083.6H855v-.7H67.7v.7Z" class="g1_4525"/>
</svg>