<?xml version="1.0" encoding="UTF-8" standalone="no"?>
<!DOCTYPE svg PUBLIC "-//W3C//DTD SVG 1.1//EN"
"http://www.w3.org/Graphics/SVG/1.1/DTD/svg11.dtd">
<svg viewBox="0 0 935 1210" version="1.1" xmlns="http://www.w3.org/2000/svg" xmlns:xlink="http://www.w3.org/1999/xlink">
<defs>
<style type="text/css"><![CDATA[
.g0_364{
fill: #FFF;
}
.g1_364{
fill: #000;
}
]]></style>
</defs>
<path d="M68.8,1149.3H852.5v-21.2H68.8v21.2Z" class="g0_364"/>
<path d="M68.9,712.5H852.2V682.9H68.9v29.6Z" class="g0_364"/>
<path d="M69.9,705.8h53.5V693.5H69.9v12.3Z" class="g0_364"/>
<path d="M68.7,522.1h.7V321.2h-.7V522.1Z" class="g1_364"/>
<path d="M205.1,522.9h.7V320.5h-.7V522.9Z" class="g1_364"/>
<path d="M424.1,522.9h.8V320.5h-.8V522.9Z" class="g1_364"/>
<path d="M657.2,522.9h.7V320.5h-.7V522.9Z" class="g1_364"/>
<path d="M851.8,522.1h.7V321.2h-.7V522.1Z" class="g1_364"/>
<path d="M68.7,321.2H852.5v-.7H68.7v.7Z" class="g1_364"/>
<path d="M68.7,351.7H852.5V351H68.7v.7Z" class="g1_364"/>
<path d="M205.1,376.2H658v-.7H205.1v.7Z" class="g1_364"/>
<path d="M205.1,400.7H658v-.8H205.1v.8Z" class="g1_364"/>
<path d="M205.1,425.2H658v-.8H205.1v.8Z" class="g1_364"/>
<path d="M68.7,449.5H852.5v-.7H68.7v.7Z" class="g1_364"/>
<path d="M205.1,474H852.5v-.7H205.1v.7Z" class="g1_364"/>
<path d="M68.7,498.5H852.5v-.8H68.7v.8Z" class="g1_364"/>
<path d="M68.7,522.9H852.5v-.8H68.7v.8Z" class="g1_364"/>
<path d="M68.6,682.6h.7V610h-.7v72.6Z" class="g1_364"/>
<path d="M323.8,683.3h.7V609.2h-.7v74.1Z" class="g1_364"/>
<path d="M576.5,683.3h.7V609.2h-.7v74.1Z" class="g1_364"/>
<path d="M851.9,682.6h.7V610h-.7v72.6Z" class="g1_364"/>
<path d="M68.6,609.9h784v-.7H68.6v.7Z" class="g1_364"/>
<path d="M68.6,634.4h784v-.7H68.6v.7Z" class="g1_364"/>
<path d="M68.6,658.9h784v-.7H68.6v.7Z" class="g1_364"/>
<path d="M68.6,683.3h784v-.7H68.6v.7Z" class="g1_364"/>
<path d="M68.8,955.1h.7V882.5h-.7v72.6Z" class="g1_364"/>
<path d="M258.8,955.9h.7V881.7h-.7v74.2Z" class="g1_364"/>
<path d="M444.1,955.9h.8V881.7h-.8v74.2Z" class="g1_364"/>
<path d="M628.7,955.9h.7V881.7h-.7v74.2Z" class="g1_364"/>
<path d="M851.7,955.1h.7V882.5h-.7v72.6Z" class="g1_364"/>
<path d="M68.8,882.5H852.4v-.8H68.8v.8Z" class="g1_364"/>
<path d="M68.8,907H852.4v-.8H68.8v.8Z" class="g1_364"/>
<path d="M68.8,931.4H852.4v-.7H68.8v.7Z" class="g1_364"/>
<path d="M68.8,955.8H852.4v-.7H68.8v.7Z" class="g1_364"/>
</svg>