<?xml version="1.0" encoding="UTF-8" standalone="no"?>
<!DOCTYPE svg PUBLIC "-//W3C//DTD SVG 1.1//EN"
"http://www.w3.org/Graphics/SVG/1.1/DTD/svg11.dtd">
<svg viewBox="0 0 825 990" version="1.1" xmlns="http://www.w3.org/2000/svg" xmlns:xlink="http://www.w3.org/1999/xlink">
<defs>
<style type="text/css"><![CDATA[
.g0_840{
fill: #000;
}
.g1_840{
fill: #FFF;
}
]]></style>
</defs>
<path d="M79.8,910.3h.3v-.8h-.3v.8Z" class="g0_840"/>
<path d="M80.1,910.3h650v-.8H80.1v.8Z" class="g0_840"/>
<path d="M145.1,784.8H729.8v-26H145.1v26Z" class="g1_840"/>
<path d="M145.1,769.8v-.7Z" class="g0_840"/>
<path d="M145.1,769.8h43.6v-.7H145.1v.7Z" class="g0_840"/>
<path d="M231.5,769.8h.4v-.7h-.4v.7Z" class="g0_840"/>
<path d="M231.9,769.8h86.7v-.7H231.9v.7Z" class="g0_840"/>
<path d="M145.1,843H729.8V832.2H145.1V843Z" class="g1_840"/>
<path d="M145.1,836v-.7Z" class="g0_840"/>
<path d="M145.1,836H318.6v-.7H145.1v.7Z" class="g0_840"/>
<path d="M145.1,640.3h.7V596.8h-.7v43.5Z" class="g0_840"/>
<path d="M729.4,640.3h.7V596.8h-.7v43.5Z" class="g0_840"/>
<path d="M145.1,596.8h585V596h-585v.8Z" class="g0_840"/>
<path d="M145.1,641h585v-.7h-585v.7Z" class="g0_840"/>
</svg>