<?xml version="1.0" encoding="UTF-8" standalone="no"?>
<!DOCTYPE svg PUBLIC "-//W3C//DTD SVG 1.1//EN"
"http://www.w3.org/Graphics/SVG/1.1/DTD/svg11.dtd">
<svg viewBox="0 0 935 1210" version="1.1" xmlns="http://www.w3.org/2000/svg" xmlns:xlink="http://www.w3.org/1999/xlink">
<defs>
<clipPath id="c0_2934"><path d="M766.6,59.2V41.4h72.2V59.2Z"/></clipPath>
<style type="text/css"><![CDATA[
.g0_2934{
fill: #000;
}
]]></style>
</defs>
<path d="M97.4,63.3H839.9v-.4H97.4v.4Z" class="g0_2934"/>
<path d="M96.1,1114.5h.2v-.4h-.2v.4Z" class="g0_2934"/>
<path d="M96.3,1114.5H838.9v-.4H96.3v.4Z" class="g0_2934"/>
<image clip-path="url(#c0_2934)" preserveAspectRatio="none" x="767" y="41" width="72" height="18" xlink:href="img/1.jpg"/>
<path d="M95.9,445.7h.7v-238h-.7v238Z" class="g0_2934"/>
<path d="M273.3,388.4h.8V204.7h-.8V388.4Z" class="g0_2934"/>
<path d="M310,388.4h.7V227.2H310V388.4Z" class="g0_2934"/>
<path d="M346.7,388.4h.7V227.2h-.7V388.4Z" class="g0_2934"/>
<path d="M383.4,388.4h.7V204.7h-.7V388.4Z" class="g0_2934"/>
<path d="M839.2,445.7h.7v-238h-.7v238Z" class="g0_2934"/>
<path d="M95.9,207.8h744v-3H95.9v3Z" class="g0_2934"/>
<path d="M273.3,228H384.2v-.8H273.3v.8Z" class="g0_2934"/>
<path d="M95.9,250.6h744v-3H95.9v3Z" class="g0_2934"/>
<path d="M273.3,269.2H839.9v-.7H273.3v.7Z" class="g0_2934"/>
<path d="M273.3,289.1H839.9v-.7H273.3v.7Z" class="g0_2934"/>
<path d="M95.9,309h744v-.7H95.9v.7Z" class="g0_2934"/>
<path d="M273.3,328.8H839.9v-.7H273.3v.7Z" class="g0_2934"/>
<path d="M273.3,348.7H839.9V348H273.3v.7Z" class="g0_2934"/>
<path d="M273.3,368.6H839.9v-.7H273.3v.7Z" class="g0_2934"/>
<path d="M95.9,388.4h744v-.7H95.9v.7Z" class="g0_2934"/>
<path d="M95.9,446.5h744v-.7H95.9v.7Z" class="g0_2934"/>
</svg>