<?xml version="1.0" encoding="UTF-8" standalone="no"?>
<!DOCTYPE svg PUBLIC "-//W3C//DTD SVG 1.1//EN"
"http://www.w3.org/Graphics/SVG/1.1/DTD/svg11.dtd">
<svg viewBox="0 0 935 1210" version="1.1" xmlns="http://www.w3.org/2000/svg" xmlns:xlink="http://www.w3.org/1999/xlink">
<defs>
<style type="text/css"><![CDATA[
.g0_88{
fill: #FFF;
}
.g1_88{
fill: #000;
}
]]></style>
</defs>
<path d="M68.8,1149.3H852.5v-21.2H68.8v21.2Z" class="g0_88"/>
<path d="M169.1,393h.8V125.7h-.8V393Z" class="g1_88"/>
<path d="M751.2,393h.7V125.7h-.7V393Z" class="g1_88"/>
<path d="M169.1,125.7H752v-.8H169.1v.8Z" class="g1_88"/>
<path d="M169.1,393.7H752V393H169.1v.7Z" class="g1_88"/>
<path d="M299.6,172.9H634.3v-.8H299.6v.8Z" class="g1_88"/>
<path d="M633.6,312.2h.7V172.5h-.7V312.2Z" class="g1_88"/>
<path d="M299.2,312.2H634v-.7H299.2v.7Z" class="g1_88"/>
<path d="M299.2,311.8h.7V172.1h-.7V311.8Z" class="g1_88"/>
<path d="M299.5,195.1h.2v-.5h-.2v.5Z" class="g1_88"/>
<path d="M299.7,195.1H633.4v-.5H299.7v.5Z" class="g1_88"/>
<path d="M343.4,194h.4v-.2h-.4v.2Z" class="g1_88"/>
<path d="M343.4,193.8h.4V172.3h-.4v21.5Z" class="g1_88"/>
<path d="M384.6,264.5h.5v-.1h-.5v.1Z" class="g1_88"/>
<path d="M384.6,264.4h.5V172.3h-.5v92.1Z" class="g1_88"/>
<path d="M425.9,194h.4v-.2h-.4v.2Z" class="g1_88"/>
<path d="M425.9,193.8h.4V172.3h-.4v21.5Z" class="g1_88"/>
<path d="M467,264.5h.5v-.1H467v.1Z" class="g1_88"/>
<path d="M467,264.4h.5V172.3H467v92.1Z" class="g1_88"/>
<path d="M508.3,194h.5v-.2h-.5v.2Z" class="g1_88"/>
<path d="M508.3,193.8h.5V172.3h-.5v21.5Z" class="g1_88"/>
<path d="M549.5,264.5h.5v-.1h-.5v.1Z" class="g1_88"/>
<path d="M549.5,264.4h.5V172.3h-.5v92.1Z" class="g1_88"/>
<path d="M590.8,194h.5v-.2h-.5v.2Z" class="g1_88"/>
<path d="M590.8,193.8h.5V172.3h-.5v21.5Z" class="g1_88"/>
<path d="M299.5,241h.2v-.5h-.2v.5Z" class="g1_88"/>
<path d="M299.7,241H633.4v-.5H299.7v.5Z" class="g1_88"/>
<path d="M299.5,264h.2v-.5h-.2v.5Z" class="g1_88"/>
<path d="M299.7,264H633.4v-.5H299.7v.5Z" class="g1_88"/>
<path d="M299.5,286.9h.2v-.4h-.2v.4Z" class="g1_88"/>
<path d="M299.7,286.9H633.4v-.4H299.7v.4Z" class="g1_88"/>
<path d="M558.6,373.8h75.9V351.6H558.6v22.2Z" class="g0_88"/>
<path d="M558.6,352h76.3v-.7H558.6v.7Z" class="g1_88"/>
<path d="M634.1,374.2h.8V351.6h-.8v22.6Z" class="g1_88"/>
<path d="M558.2,374.2h76.3v-.8H558.2v.8Z" class="g1_88"/>
<path d="M558.2,373.8h.8V351.3h-.8v22.5Z" class="g1_88"/>
<path d="M618.8,337.9h3v-3h-3v3Z" class="g1_88"/>
<path fill-rule="evenodd" d="M620.3,336.4h.4l.3,-.1c1.3,-.6,1.1,-2.6,-.3,-2.9H620c-1.4,.3,-1.6,2.3,-.2,2.9l.2,.1h.3Z" class="g1_88"/>
<path d="M619.9,337.2l4,-2.2l1.6,-1l-.5,2l-4,13.5l-.7,2.6l-.7,-2.6L615.7,336l-.5,-1.9l1.6,.9l.4,.5l3.8,13.6l-1.4,.4v-.4l3.9,-13.6l1.5,.5l-.4,.4l-3.9,2.2Z" class="g1_88"/>
<path d="M616.8,335l3.9,2.2v1.4l-.4,.2l-.4,-.2l-3.8,-2.2Z" class="g1_88"/>
<path fill-rule="evenodd" d="M620.3,337.9l3.9,-2.2l-3.9,13.5l-3.8,-13.5Z" class="g1_88"/>
<path d="M618.8,328h3.1v-3h-3.1v3Z" class="g1_88"/>
<path fill-rule="evenodd" d="M620.3,326.5H620l-.2,.1c-1.4,.6,-1.2,2.6,.2,2.9h.7c1.4,-.3,1.6,-2.3,.3,-2.9l-.3,-.1h-.4Z" class="g1_88"/>
<path d="M620.8,325.6l-3.9,2.3l-1.7,1l.5,-1.9l3.9,-13.7l.7,-2.5l.7,2.5l4,13.7l.5,1.8l-1.6,-.9l-.4,-.5l-3.9,-13.6l1.4,-.5v.5l-3.8,13.6l-1.5,-.4l.4,-.5l3.8,-2.3Z" class="g1_88"/>
<path d="M623.9,327.9l-4,-2.3v-1.4l.4,-.2l.5,.2l3.9,2.3Z" class="g1_88"/>
<path fill-rule="evenodd" d="M620.3,325l-3.8,2.3l3.8,-13.7l3.9,13.7Z" class="g1_88"/>
<path d="M618.8,336.3h3.1v-1.4h-3.1v1.4Z" class="g1_88"/>
<path d="M618.8,334.9h3.1v-8.4h-3.1v8.4Z" class="g1_88"/>
<path d="M593.7,339.3h3.1v-3h-3.1v3Z" class="g1_88"/>
<path fill-rule="evenodd" d="M595.3,337.9h.4l.2,-.1c1.4,-.8,1.2,-2.4,-.2,-2.9H595c-1.5,.5,-1.7,2.1,-.3,2.9l.3,.1h.3Z" class="g1_88"/>
<path d="M594.9,338.7l4,-2.2l1.6,-1l-.5,1.9l-4,13.7l-.7,2.6l-.7,-2.6l-3.9,-13.7l-.5,-1.8l1.6,.9l.4,.5l3.8,13.6l-1.4,.5v-.5L598.5,337l1.5,.4l-.4,.5l-3.9,2.2Z" class="g1_88"/>
<path d="M591.8,336.5l3.8,2.2v1.4l-.3,.2l-.4,-.2l-3.8,-2.2Z" class="g1_88"/>
<path fill-rule="evenodd" d="M595.3,339.3l3.9,-2.2l-3.9,13.7l-3.9,-13.7Z" class="g1_88"/>
<path d="M593.8,329.5h3v-3.1h-3v3.1Z" class="g1_88"/>
<path fill-rule="evenodd" d="M595.3,328H595l-.3,.1c-1.4,.7,-1.2,2.4,.3,2.9h.7c1.4,-.5,1.6,-2.2,.2,-2.9l-.2,-.1h-.4Z" class="g1_88"/>
<path d="M595.7,327.1l-3.8,2.3l-1.7,1l.5,-2l3.9,-13.6l.7,-2.6l.7,2.6l4,13.6l.5,1.9l-1.6,-.9l-.4,-.5l-3.9,-13.7l1.4,-.4v.4l-3.8,13.7l-1.5,-.5l.4,-.4l3.8,-2.3Z" class="g1_88"/>
<path d="M598.9,329.4l-4,-2.3v-1.4l.4,-.2l.4,.2l4,2.3Z" class="g1_88"/>
<path fill-rule="evenodd" d="M595.3,326.4l-3.9,2.3l3.9,-13.6l3.9,13.6Z" class="g1_88"/>
<path d="M593.8,337.8h3v-1.5h-3v1.5Z" class="g1_88"/>
<path d="M593.8,336.3h3V328h-3v8.3Z" class="g1_88"/>
<path d="M570.2,339.4h3v-3h-3v3Z" class="g1_88"/>
<path fill-rule="evenodd" d="M571.7,338l.4,-.1l.3,-.1c1.2,-.5,1.2,-2.5,-.3,-2.9h-.4l-.8,.2l-.3,.2l-.2,.3v.2l-.1,.3l-.1,.3l.2,.8l.2,.3l.3,.2l.3,.1l.3,.1l.2,.1Z" class="g1_88"/>
<path d="M571.3,338.8l3.9,-2.3l1.8,-1l-.6,1.9l-3.9,13.7l-.8,2.5l-.7,-2.5l-3.9,-13.7l-.6,-1.8l1.7,.9l.3,.5l4,13.6l-1.5,.5v-.5L574.9,337l1.5,.4l-.4,.5l-3.9,2.3Z" class="g1_88"/>
<path d="M568.2,336.5l3.9,2.3v1.4l-.5,.3l-.3,-.3l-4,-2.3Z" class="g1_88"/>
<path fill-rule="evenodd" d="M571.7,339.4l4,-2.3l-4,13.7l-3.9,-13.7Z" class="g1_88"/>
<path d="M570.3,329.5h3v-3h-3v3Z" class="g1_88"/>
<path fill-rule="evenodd" d="M571.7,328l-.2,.1h-.3l-.6,.3l-.2,.3v.2l-.1,.3l-.1,.3l.1,.3c.2,.6,.2,.9,.9,1.1l.3,.1l.2,.1l.4,-.1l.3,-.1l.2,-.1l.2,-.2l.2,-.2l.2,-.3v-.3l.1,-.3c-.1,-.5,-.2,-1,-.7,-1.2l-.2,-.2h-.3l-.4,-.1Z" class="g1_88"/>
<path d="M572.2,327.2l-4,2.3l-1.7,1l.6,-2L571,314.9l.7,-2.6l.8,2.6l3.9,13.6l.5,1.9l-1.6,-.9l-.4,-.5L571,315.3l1.5,-.4v.4l-4,13.7l-1.4,-.5l.3,-.4l4,-2.3Z" class="g1_88"/>
<path d="M575.3,329.5l-3.9,-2.3v-1.4l.4,-.3l.4,.3l3.9,2.3Z" class="g1_88"/>
<path fill-rule="evenodd" d="M571.7,326.5l-3.9,2.3l3.9,-13.7l4,13.7Z" class="g1_88"/>
<path d="M570.3,337.9h3v-1.5h-3v1.5Z" class="g1_88"/>
<path d="M570.3,336.4h3v-8.3h-3v8.3Z" class="g1_88"/>
<path d="M358.2,348.1h3.1v-3.2h-3.1v3.2Z" class="g1_88"/>
<path fill-rule="evenodd" d="M359.8,346.5h.3l.3,-.1l.2,-.2l.3,-.2l.2,-.1l.1,-.3l.1,-.3l.1,-.4l-.1,-.2l-.1,-.3l-.1,-.3l-.2,-.2l-.3,-.1l-.2,-.2l-.3,-.1h-.6c-1.5,.4,-1.7,2.3,-.3,2.9l.3,.1h.3Z" class="g1_88"/>
<path d="M359.4,347.4l4.1,-2.3l1.6,-1l-.5,1.9l-4.1,14.1l-.7,2.5l-.7,-2.5L355,346l-.5,-1.8l1.6,.9l.4,.5l4,14l-1.4,.5v-.5l4,-14l1.5,.4l-.4,.5l-4,2.3Z" class="g1_88"/>
<path d="M356.1,345.1l4.1,2.3v1.4l-.4,.2l-.4,-.2l-4,-2.3Z" class="g1_88"/>
<path fill-rule="evenodd" d="M359.8,348.1l4,-2.3l-4,14l-4,-14Z" class="g1_88"/>
<path d="M358.3,330.7h3v-3.1h-3v3.1Z" class="g1_88"/>
<path fill-rule="evenodd" d="M359.8,329.2l-.8,.3l-.3,.1l-.2,.3l-.1,.2l-.1,.4l-.1,.2l.1,.3c.2,.6,.2,.9,.9,1.1l.6,.2l.3,-.1c1.4,-.1,1.6,-2.3,.3,-2.8l-.3,-.1l-.3,-.1Z" class="g1_88"/>
<path d="M360.3,328.3l-4.1,2.3l-1.7,1L359.8,313l5.3,18.6l-1.6,-1l-.4,-.4l-4,-14.1l1.4,-.5v.5l-4,14.1l-1.5,-.5l.4,-.4l4,-2.4Z" class="g1_88"/>
<path d="M363.5,330.6l-4.1,-2.3v-1.4l.5,-.3l.3,.3l4.1,2.4Z" class="g1_88"/>
<path fill-rule="evenodd" d="M359.8,327.6l-4,2.4l4,-14.1l4,14.1Z" class="g1_88"/>
<path d="M358.3,346.4h3v-1.5h-3v1.5Z" class="g1_88"/>
<path d="M358.3,344.9h3V329.3h-3v15.6Z" class="g1_88"/>
<path d="M423.4,218.3v-.5l-2.1,.4v.4Z" class="g1_88"/>
<path d="M421.8,218l1.7,2.1l1.3,1.5l-2,-.3l-8.5,-1.1l-2.6,-.3l2.4,-1.1l7.8,-3.6l1.8,-.8l-.7,1.7l-.4,.5l-7.8,3.6l-.7,-1.4l.5,-.1l8.4,1.1l-.2,1.5l-.5,-.3l-1.6,-2.1Z" class="g1_88"/>
<path d="M423,216.1l-1,2.6l-1.3,.2l-.3,-.4l.2,-.3l.9,-2.6Z" class="g1_88"/>
<path fill-rule="evenodd" d="M421.3,218.4l1.6,2.1l-8.4,-1.1l7.8,-3.5Z" class="g1_88"/>
<path d="M651.1,184.3h.2l-.1,-.4H651Z" class="g1_88"/>
<path d="M423.5,218.3h-.2l-.1,-.4h.2Z" class="g1_88"/>
<path d="M651.1,184.3l-.1,-.4l-227.6,34l.1,.4Z" class="g1_88"/>
<path d="M465.6,222.2l-.1,-.5l-2.1,.4l.1,.5Z" class="g1_88"/>
<path d="M464,221.8l1.9,2.1l1.3,1.4l-2,-.2l-8.5,-.7l-2.6,-.2l2.3,-1.2l7.6,-3.8l1.7,-.9l-.6,1.8l-.4,.4l-7.6,3.9l-.7,-1.4l.5,-.1l8.4,.8l-.1,1.4l-.4,-.2l-1.9,-2.1Z" class="g1_88"/>
<path d="M465.1,220.1l-.9,2.6l-1.3,.1l-.3,-.3v-.4l1,-2.6Z" class="g1_88"/>
<path fill-rule="evenodd" d="M463.5,222.4l1.8,2l-8.5,-.7l7.6,-3.9Z" class="g1_88"/>
<path d="M668.2,184.3h.2l-.1,-.4h-.1Z" class="g1_88"/>
<path d="M465.7,222.3h-.2l-.1,-.5h.2Z" class="g1_88"/>
<path d="M668.2,184.3v-.4L465.6,221.8l.1,.5Z" class="g1_88"/>
<path d="M507.8,220.5l-.1,-.5l-2.1,.5l.1,.4Z" class="g1_88"/>
<path d="M506.3,220.2l1.8,2l1.3,1.5l-1.9,-.2l-8.6,-.7l-2.6,-.1l2.3,-1.2l7.5,-4l1.7,-.9l-.5,1.7l-.4,.5l-7.5,3.9l-.8,-1.2l.4,-.1l8.6,.6l-.1,1.5l-.6,-.2l-1.8,-2Z" class="g1_88"/>
<path d="M507.3,218.3l-.8,2.6l-1.4,.4l-.3,-.4l.1,-.4l.8,-2.5Z" class="g1_88"/>
<path fill-rule="evenodd" d="M505.7,220.7l1.9,2l-8.6,-.6l7.6,-3.9Z" class="g1_88"/>
<path d="M681.9,184.3h.2l-.1,-.4h-.2Z" class="g1_88"/>
<path d="M507.9,220.5h-.2v-.4h.1Z" class="g1_88"/>
<path d="M681.9,184.3l-.1,-.4l-174,36.2l.1,.4Z" class="g1_88"/>
<path d="M545,224.8l-.2,-.5l-2,.6l.1,.4Z" class="g1_88"/>
<path d="M543.4,224.6l3.3,3.3h-2l-8.5,-.1l-2.7,-.1l2.3,-1.4l7.2,-4.4l1.7,-1l-.5,1.8l-.3,.5l-7.3,4.4l-.8,-1.3l.5,-.1l8.5,.1l-.1,1.6l-.6,-.3l-1.9,-1.9Z" class="g1_88"/>
<path d="M544.2,222.7l-.6,2.6l-1.4,.4l-.3,-.3l.1,-.5l.7,-2.5Z" class="g1_88"/>
<path fill-rule="evenodd" d="M542.9,225.1l1.9,2l-8.5,-.1l7.2,-4.4Z" class="g1_88"/>
<path d="M689.8,185h.2l-.1,-.5h-.2Z" class="g1_88"/>
<path d="M545,224.9h-.2l-.1,-.5h.2Z" class="g1_88"/>
<path d="M689.8,185l-.1,-.5L544.9,224.4l.1,.5Z" class="g1_88"/>
<path d="M590.4,225.8l-.2,-.5l-2,.8l.2,.5Z" class="g1_88"/>
<path d="M588.8,225.8l2.1,1.6l1.6,1.2l-2.1,.3l-8.4,.8l-2.6,.2l2,-1.6l6.8,-5.2l1.7,-1.3l-.4,2l-.3,.5l-6.8,5.2l-1,-1.2l.5,-.1l8.4,-.9l.1,1.6l-.5,-.2l-2.1,-1.6Z" class="g1_88"/>
<path d="M589.5,223.8l-.4,2.7l-1.3,.6l-.3,-.3v-.6l.4,-2.7Z" class="g1_88"/>
<path fill-rule="evenodd" d="M588.3,226.4l2.1,1.7l-8.4,.8l6.8,-5.2Z" class="g1_88"/>
<path d="M696.2,185l.2,-.1l-.2,-.5l-.2,.1Z" class="g1_88"/>
<path d="M590.4,225.9l-.2,.1l-.1,-.5l.1,-.1Z" class="g1_88"/>
<path d="M696.2,185l-.2,-.5L590.2,225.4l.2,.5Z" class="g1_88"/>
<path d="M629.9,223.1l-.1,-.4l-1.9,1l.2,.4Z" class="g1_88"/>
<path d="M628.4,223.2l2.3,1.4l1.6,1.1l-1.9,.3l-8.4,1.9l-2.4,.5l1.8,-1.8l6.1,-6l1.2,-1.2v1.8l-.1,.5l-6.1,6l-1.1,-1.1l.4,-.2l8.3,-1.8l.3,1.4h-.6l-2.3,-1.4Z" class="g1_88"/>
<path d="M628.7,221.2v2.7l-1.1,.7l-.4,-.2v-3.2Z" class="g1_88"/>
<path fill-rule="evenodd" d="M628,223.9l2.3,1.4l-8.3,1.8l6,-5.9Z" class="g1_88"/>
<path d="M701.3,184.9l.1,-.1l-.1,-.4l-.2,.1Z" class="g1_88"/>
<path d="M629.9,223.1l-.1,.1l-.2,-.4l.2,-.1Z" class="g1_88"/>
<path d="M701.3,184.9l-.2,-.4l-71.3,38.3l.1,.3Z" class="g1_88"/>
</svg>