<?xml version="1.0" encoding="UTF-8" standalone="no"?>
<!DOCTYPE svg PUBLIC "-//W3C//DTD SVG 1.1//EN"
"http://www.w3.org/Graphics/SVG/1.1/DTD/svg11.dtd">
<svg viewBox="0 0 935 1210" version="1.1" xmlns="http://www.w3.org/2000/svg" xmlns:xlink="http://www.w3.org/1999/xlink">
<defs>
<clipPath id="c0_1534"><path d="M766.6,59.2V41.4h72.1V59.2Z"/></clipPath>
<style type="text/css"><![CDATA[
.g0_1534{
fill: #000;
}
]]></style>
</defs>
<path d="M97.3,62.9v.3H839.9v-.3H97.3Z" class="g0_1534"/>
<path d="M96.2,1114.1h-.1v.4h.1v-.4Z" class="g0_1534"/>
<path d="M838.7,1114.1h.2v.4h-.2v-.4Z" class="g0_1534"/>
<path d="M96.2,1114.1v.4H838.7v-.4H96.2Z" class="g0_1534"/>
<image clip-path="url(#c0_1534)" preserveAspectRatio="none" x="767" y="41" width="72" height="18" xlink:href="img/1.jpg"/>
<path d="M96.6,854h-.7V998.8h.7V854Z" class="g0_1534"/>
<path d="M244.8,850.9h-.7V999.5h.7V850.9Z" class="g0_1534"/>
<path d="M284.5,850.9h-.7V999.5h.7V850.9Z" class="g0_1534"/>
<path d="M338,850.9h-.8V999.5h.8V850.9Z" class="g0_1534"/>
<path d="M415.6,850.9h-.7V999.5h.7V850.9Z" class="g0_1534"/>
<path d="M847,854h-.8V998.8h.8V854Z" class="g0_1534"/>
<path d="M95.9,851v3H847v-3H95.9Z" class="g0_1534"/>
<path d="M95.9,893.8v3H847v-3H95.9Z" class="g0_1534"/>
<path d="M244,934.6v.7H847v-.7H244Z" class="g0_1534"/>
<path d="M95.9,974.3v.7H847v-.7H95.9Z" class="g0_1534"/>
<path d="M95.9,998.8v.7H847v-.7H95.9Z" class="g0_1534"/>
</svg>