<?xml version="1.0" encoding="UTF-8" standalone="no"?>
<!DOCTYPE svg PUBLIC "-//W3C//DTD SVG 1.1//EN"
"http://www.w3.org/Graphics/SVG/1.1/DTD/svg11.dtd">
<svg viewBox="0 0 935 1210" version="1.1" xmlns="http://www.w3.org/2000/svg" xmlns:xlink="http://www.w3.org/1999/xlink">
<defs>
<clipPath id="c0_2708"><path d="M766.6,59.2V41.4h72.2V59.2Z"/></clipPath>
<style type="text/css"><![CDATA[
.g0_2708{
fill: #000;
}
]]></style>
</defs>
<path d="M97.4,63.3H839.9v-.4H97.4v.4Z" class="g0_2708"/>
<path d="M96.1,1114.5h.2v-.4h-.2v.4Z" class="g0_2708"/>
<path d="M96.3,1114.5H838.9v-.4H96.3v.4Z" class="g0_2708"/>
<image clip-path="url(#c0_2708)" preserveAspectRatio="none" x="767" y="41" width="72" height="18" xlink:href="img/1.jpg"/>
<path d="M565.3,830.5h31.4v-1.1H565.3v1.1Z" class="g0_2708"/>
<path d="M95.9,678h.7V632.9h-.7V678Z" class="g0_2708"/>
<path d="M199.4,678.7h.7V632.1h-.7v46.6Z" class="g0_2708"/>
<path d="M269.6,678.7h.7V632.1h-.7v46.6Z" class="g0_2708"/>
<path d="M839.9,678h.8V632.9h-.8V678Z" class="g0_2708"/>
<path d="M95.9,632.9H840.7v-.8H95.9v.8Z" class="g0_2708"/>
<path d="M95.9,657H840.7v-3.1H95.9V657Z" class="g0_2708"/>
<path d="M95.9,678.7H840.7V678H95.9v.7Z" class="g0_2708"/>
</svg>