<?xml version="1.0" encoding="UTF-8" standalone="no"?>
<!DOCTYPE svg PUBLIC "-//W3C//DTD SVG 1.1//EN"
"http://www.w3.org/Graphics/SVG/1.1/DTD/svg11.dtd">
<svg viewBox="0 0 935 1210" version="1.1" xmlns="http://www.w3.org/2000/svg" xmlns:xlink="http://www.w3.org/1999/xlink">
<defs>
<style type="text/css"><![CDATA[
.g0_1658{
fill: #FFF;
}
.g1_1658{
fill: #000;
}
]]></style>
</defs>
<path d="M165,1149.3H852.5v-21.2H165v21.2Z" class="g0_1658"/>
<path d="M68.8,1149.3h82.5v-21.2H68.8v21.2Z" class="g0_1658"/>
<path d="M68.6,1078.3h.7v-971h-.7v971Z" class="g1_1658"/>
<path d="M366,1079h.8V106.6H366V1079Z" class="g1_1658"/>
<path d="M409.7,1079h.7V106.6h-.7V1079Z" class="g1_1658"/>
<path d="M483,1079h.7V106.6H483V1079Z" class="g1_1658"/>
<path d="M562.5,1079h.7V106.6h-.7V1079Z" class="g1_1658"/>
<path d="M853.3,1078.3h.8v-971h-.8v971Z" class="g1_1658"/>
<path d="M68.6,107.3H854.1v-.7H68.6v.7Z" class="g1_1658"/>
<path d="M68.6,160.8H854.1v-.7H68.6v.7Z" class="g1_1658"/>
<path d="M68.6,205.1H854.1v-.8H68.6v.8Z" class="g1_1658"/>
<path d="M68.6,249.4H854.1v-.7H68.6v.7Z" class="g1_1658"/>
<path d="M68.6,293.7H854.1V293H68.6v.7Z" class="g1_1658"/>
<path d="M68.6,338H854.1v-.8H68.6v.8Z" class="g1_1658"/>
<path d="M68.6,394.5H854.1v-.7H68.6v.7Z" class="g1_1658"/>
<path d="M68.6,451.1H854.1v-.7H68.6v.7Z" class="g1_1658"/>
<path d="M68.6,507.7H854.1v-.8H68.6v.8Z" class="g1_1658"/>
<path d="M68.6,547.3H854.1v-.7H68.6v.7Z" class="g1_1658"/>
<path d="M68.6,587H854.1v-.7H68.6v.7Z" class="g1_1658"/>
<path d="M68.6,626.8H854.1v-.7H68.6v.7Z" class="g1_1658"/>
<path d="M68.6,683.3H854.1v-.7H68.6v.7Z" class="g1_1658"/>
<path d="M68.6,739.8H854.1v-.7H68.6v.7Z" class="g1_1658"/>
<path d="M68.6,796.4H854.1v-.7H68.6v.7Z" class="g1_1658"/>
<path d="M68.6,852.9H854.1v-.8H68.6v.8Z" class="g1_1658"/>
<path d="M68.6,909.4H854.1v-.7H68.6v.7Z" class="g1_1658"/>
<path d="M68.6,966H854.1v-.8H68.6v.8Z" class="g1_1658"/>
<path d="M68.6,1022.5H854.1v-.8H68.6v.8Z" class="g1_1658"/>
<path d="M68.6,1079H854.1v-.7H68.6v.7Z" class="g1_1658"/>
</svg>