<?xml version="1.0" encoding="UTF-8" standalone="no"?>
<!DOCTYPE svg PUBLIC "-//W3C//DTD SVG 1.1//EN"
"http://www.w3.org/Graphics/SVG/1.1/DTD/svg11.dtd">
<svg viewBox="0 0 935 1210" version="1.1" xmlns="http://www.w3.org/2000/svg" xmlns:xlink="http://www.w3.org/1999/xlink">
<defs>
<clipPath id="c0_196"><path d="M97.2,59V41.4h72.2V59Z"/></clipPath>
<style type="text/css"><![CDATA[
.g0_196{
fill: #000;
}
.g1_196{
fill: none;
stroke: #000;
stroke-width: 1.527;
}
.g2_196{
fill: #E0E0E0;
}
.g3_196{
fill: none;
stroke: #000;
stroke-width: 0.763;
}
.g4_196{
fill: none;
stroke: #000;
stroke-width: 0.763;
stroke-dasharray: 19,7;
}
]]></style>
</defs>
<path d="M96.1,63.1v.3H838.9v-.3H96.1Z" class="g0_196"/>
<path d="M96.1,1114.3v.3v-.3Z" class="g0_196"/>
<path d="M838.9,1114.3v.3v-.3Z" class="g0_196"/>
<path d="M96.1,1114.3v.3H838.9v-.3H96.1Z" class="g0_196"/>
<image clip-path="url(#c0_196)" preserveAspectRatio="none" x="97" y="41" width="72" height="18" xlink:href="img/1.jpg"/>
<path d="M590.4,594.5H562.9v-22h27.5v22Zm-27.5,0H535.4v-22h27.5v22Zm-27.5,0H507.9v-22h27.5v22Zm-27.5,0H480.4v-22h27.5v22Zm-27.5,0H452.9v-22h27.5v22Zm-27.5,0H425.4v-22h27.5v22Zm-27.5,0H397.9v-22h27.5v22Zm-27.5,0H370.4v-22h27.5v22Zm61.6,-98.8H432v-22h27.5v22Zm-27.5,0H404.5v-22H432v22Zm-27.5,0H377v-22h27.5v22Zm-27.5,0H349.5v-22H377v22Z" class="g1_196"/>
<path d="M239.5,495.7h110v-22h-110v22Z" class="g2_196"/>
<path d="M349.5,495.7h-110v-22h110v22Zm371.8,0H693.8v-22h27.5v22Zm-27.5,0H666.3v-22h27.5v22Zm-27.5,0H638.8v-22h27.5v22Zm-27.5,0H611.3v-22h27.5v22Z" class="g1_196"/>
<path d="M501.3,495.7h110v-22h-110v22Z" class="g2_196"/>
<path d="M611.3,495.7h-110v-22h110v22Z" class="g1_196"/>
<path d="M446.8,502.3l123.8,58.6" class="g3_196"/>
<path d="M567.9,563.9l7.6,-.6L571.2,557l-3.3,6.9Z" class="g0_196"/>
<path d="M706.1,502.3L553.3,560.9" class="g3_196"/>
<path d="M552.9,556.9l-4.7,6l7.5,1.2l-2.8,-7.2Z" class="g0_196"/>
<path d="M366.4,500.8l42.8,60.6" class="g3_196"/>
<path d="M405.4,562.7l6.9,3.2l-.7,-7.6l-6.2,4.4Z" class="g0_196"/>
<path d="M623.6,501.8L392.3,560.9" class="g3_196"/>
<path d="M392.5,556.9l-5.5,5.3l7.4,2.1l-1.9,-7.4Z" class="g0_196"/>
<path d="M370.2,582.8H212.1V483.5h21" class="g4_196"/>
<path d="M232,487.3l6.6,-3.8L232,479.7v7.6Z" class="g0_196"/>
</svg>