<?xml version="1.0" encoding="UTF-8" standalone="no"?>
<!DOCTYPE svg PUBLIC "-//W3C//DTD SVG 1.1//EN"
"http://www.w3.org/Graphics/SVG/1.1/DTD/svg11.dtd">
<svg viewBox="0 0 935 1210" version="1.1" xmlns="http://www.w3.org/2000/svg" xmlns:xlink="http://www.w3.org/1999/xlink">
<defs>
<clipPath id="c0_1636"><path d="M766.6,59.2V41.4h72.1V59.2Z"/></clipPath>
<style type="text/css"><![CDATA[
.g0_1636{
fill: #000;
}
]]></style>
</defs>
<path d="M97.3,62.9v.3H839.9v-.3H97.3Z" class="g0_1636"/>
<path d="M96.2,1114.1h-.1v.4h.1v-.4Z" class="g0_1636"/>
<path d="M838.7,1114.1h.2v.4h-.2v-.4Z" class="g0_1636"/>
<path d="M96.2,1114.1v.4H838.7v-.4H96.2Z" class="g0_1636"/>
<image clip-path="url(#c0_1636)" preserveAspectRatio="none" x="767" y="41" width="72" height="18" xlink:href="img/1.jpg"/>
<path d="M96.6,867.8h-.7v132.5h.7V867.8Z" class="g0_1636"/>
<path d="M137.9,864.7h-.8v93.6h.8V864.7Z" class="g0_1636"/>
<path d="M179.1,864.7h-.7v93.6h.7V864.7Z" class="g0_1636"/>
<path d="M220.4,864.7h-.8v93.6h.8V864.7Z" class="g0_1636"/>
<path d="M261.6,864.7h-.7v93.6h.7V864.7Z" class="g0_1636"/>
<path d="M302.9,864.7h-.8v93.6h.8V864.7Z" class="g0_1636"/>
<path d="M344.1,864.7h-.7v93.6h.7V864.7Z" class="g0_1636"/>
<path d="M385.4,864.7h-.8v93.6h.8V864.7Z" class="g0_1636"/>
<path d="M467.9,864.7h-.8v93.6h.8V864.7Z" class="g0_1636"/>
<path d="M509.1,864.7h-.7v93.6h.7V864.7Z" class="g0_1636"/>
<path d="M550.4,864.7h-.8v93.6h.8V864.7Z" class="g0_1636"/>
<path d="M591.6,864.7h-.7v93.6h.7V864.7Z" class="g0_1636"/>
<path d="M632.9,864.7h-.8v93.6h.8V864.7Z" class="g0_1636"/>
<path d="M674.1,864.7h-.7v93.6h.7V864.7Z" class="g0_1636"/>
<path d="M715.3,864.7h-.7v93.6h.7V864.7Z" class="g0_1636"/>
<path d="M756.6,864.7h-.7v93.6h.7V864.7Z" class="g0_1636"/>
<path d="M797.8,864.7h-.7v93.6h.7V864.7Z" class="g0_1636"/>
<path d="M839.1,867.8h-.7v132.5h.7V867.8Z" class="g0_1636"/>
<path d="M95.9,864.8v3H839.1v-3H95.9Z" class="g0_1636"/>
<path d="M95.9,895.3v3H839.1v-3H95.9Z" class="g0_1636"/>
<path d="M95.9,927v.7H839.1V927H95.9Z" class="g0_1636"/>
<path d="M95.9,957.5v.8H839.1v-.8H95.9Z" class="g0_1636"/>
<path d="M95.9,1000.3v.8H839.1v-.8H95.9Z" class="g0_1636"/>
</svg>