<?xml version="1.0" encoding="UTF-8" standalone="no"?>
<!DOCTYPE svg PUBLIC "-//W3C//DTD SVG 1.1//EN"
"http://www.w3.org/Graphics/SVG/1.1/DTD/svg11.dtd">
<svg viewBox="0 0 935 1210" version="1.1" xmlns="http://www.w3.org/2000/svg" xmlns:xlink="http://www.w3.org/1999/xlink">
<defs>
<style type="text/css"><![CDATA[
.g0_120{
fill: #000;
}
]]></style>
</defs>
<path d="M104.1,559.3h.4v-.8h-.4v.8Z" class="g0_120"/>
<path d="M104.5,559.3H324.9v-.8H104.5v.8Z" class="g0_120"/>
<path d="M109.8,178.6h.4V151.4h-.4v27.2Z" class="g0_120"/>
<path d="M239.6,178.9h.4V151.1h-.4v27.8Z" class="g0_120"/>
<path d="M355.9,178.9h.4V151.1h-.4v27.8Z" class="g0_120"/>
<path d="M465.4,178.9h.4V151.1h-.4v27.8Z" class="g0_120"/>
<path d="M577.7,178.9h.3V151.1h-.3v27.8Z" class="g0_120"/>
<path d="M690.1,178.9h.3V151.1h-.3v27.8Z" class="g0_120"/>
<path d="M824.8,178.6h.4V151.4h-.4v27.2Z" class="g0_120"/>
<path d="M109.8,151.4H825.2v-.3H109.8v.3Z" class="g0_120"/>
<path d="M109.8,178.9H825.2v-.3H109.8v.3Z" class="g0_120"/>
<path d="M109.8,308.4h.4V281.3h-.4v27.1Z" class="g0_120"/>
<path d="M239.6,308.8h.4V280.9h-.4v27.9Z" class="g0_120"/>
<path d="M355.9,308.8h.4V280.9h-.4v27.9Z" class="g0_120"/>
<path d="M465.4,308.8h.4V280.9h-.4v27.9Z" class="g0_120"/>
<path d="M577.7,308.8h.3V280.9h-.3v27.9Z" class="g0_120"/>
<path d="M690.1,308.8h.3V280.9h-.3v27.9Z" class="g0_120"/>
<path d="M824.8,308.4h.4V281.3h-.4v27.1Z" class="g0_120"/>
<path d="M109.8,281.3H825.2V281H109.8v.3Z" class="g0_120"/>
<path d="M109.8,308.8H825.2v-.3H109.8v.3Z" class="g0_120"/>
<path d="M109.8,438.3h.4V411.1h-.4v27.2Z" class="g0_120"/>
<path d="M239.6,438.6h.4V410.8h-.4v27.8Z" class="g0_120"/>
<path d="M355.9,438.6h.4V410.8h-.4v27.8Z" class="g0_120"/>
<path d="M422,438.6h.4V410.8H422v27.8Z" class="g0_120"/>
<path d="M442.9,438.6h.4V410.8h-.4v27.8Z" class="g0_120"/>
<path d="M465.4,438.6h.4V410.8h-.4v27.8Z" class="g0_120"/>
<path d="M577.7,438.6h.3V410.8h-.3v27.8Z" class="g0_120"/>
<path d="M690.1,438.6h.3V410.8h-.3v27.8Z" class="g0_120"/>
<path d="M824.8,438.3h.4V411.1h-.4v27.2Z" class="g0_120"/>
<path d="M109.8,411.1H825.2v-.3H109.8v.3Z" class="g0_120"/>
<path d="M109.8,438.6H825.2v-.3H109.8v.3Z" class="g0_120"/>
</svg>