<?xml version="1.0" encoding="UTF-8" standalone="no"?>
<!DOCTYPE svg PUBLIC "-//W3C//DTD SVG 1.1//EN"
"http://www.w3.org/Graphics/SVG/1.1/DTD/svg11.dtd">
<svg viewBox="0 0 935 1210" version="1.1" xmlns="http://www.w3.org/2000/svg" xmlns:xlink="http://www.w3.org/1999/xlink">
<defs>
<style type="text/css"><![CDATA[
.g0_1547{
fill: #FFF;
}
.g1_1547{
fill: #000;
}
]]></style>
</defs>
<path d="M68.9,1149.3H755.2v-21.2H68.9v21.2Z" class="g0_1547"/>
<path d="M771.3,1149.3H855v-21.2H771.3v21.2Z" class="g0_1547"/>
<path d="M70.3,880.6H854.2V851H70.3v29.6Z" class="g0_1547"/>
<path d="M71.2,873.9h53.6V861.5H71.2v12.4Z" class="g0_1547"/>
<path d="M69.9,850.7h.8v-725h-.8v725Z" class="g1_1547"/>
<path d="M311.8,851.4h.7V124.9h-.7V851.4Z" class="g1_1547"/>
<path d="M357.6,851.4h.7V124.9h-.7V851.4Z" class="g1_1547"/>
<path d="M432.1,851.4h.8V124.9h-.8V851.4Z" class="g1_1547"/>
<path d="M519.2,851.4h.7V124.9h-.7V851.4Z" class="g1_1547"/>
<path d="M853.8,850.7h.7v-725h-.7v725Z" class="g1_1547"/>
<path d="M69.9,125.7H854.5v-.8H69.9v.8Z" class="g1_1547"/>
<path d="M69.9,179.1H854.5v-.7H69.9v.7Z" class="g1_1547"/>
<path d="M69.9,223.4H854.5v-.7H69.9v.7Z" class="g1_1547"/>
<path d="M69.9,279.9H854.5v-.7H69.9v.7Z" class="g1_1547"/>
<path d="M69.9,319.6H854.5v-.7H69.9v.7Z" class="g1_1547"/>
<path d="M69.9,376.2H854.5v-.7H69.9v.7Z" class="g1_1547"/>
<path d="M69.9,416H854.5v-.8H69.9v.8Z" class="g1_1547"/>
<path d="M69.9,472.4H854.5v-.7H69.9v.7Z" class="g1_1547"/>
<path d="M69.9,512.2H854.5v-.7H69.9v.7Z" class="g1_1547"/>
<path d="M69.9,568.7H854.5V568H69.9v.7Z" class="g1_1547"/>
<path d="M69.9,625.3H854.5v-.8H69.9v.8Z" class="g1_1547"/>
<path d="M69.9,681.8H854.5v-.7H69.9v.7Z" class="g1_1547"/>
<path d="M69.9,738.3H854.5v-.7H69.9v.7Z" class="g1_1547"/>
<path d="M69.9,794.8H854.5v-.7H69.9v.7Z" class="g1_1547"/>
<path d="M69.9,851.4H854.5v-.7H69.9v.7Z" class="g1_1547"/>
<path d="M69.9,1086.5h.8v-97h-.8v97Z" class="g1_1547"/>
<path d="M151.7,1087.3h.7V988.7h-.7v98.6Z" class="g1_1547"/>
<path d="M267.5,1087.3h.7V988.7h-.7v98.6Z" class="g1_1547"/>
<path d="M411.2,1087.3h.7V988.7h-.7v98.6Z" class="g1_1547"/>
<path d="M561.7,1087.3h.8V988.7h-.8v98.6Z" class="g1_1547"/>
<path d="M712.6,1087.3h.8V988.7h-.8v98.6Z" class="g1_1547"/>
<path d="M848.6,1086.5h.7v-97h-.7v97Z" class="g1_1547"/>
<path d="M69.9,989.5H849.3v-.8H69.9v.8Z" class="g1_1547"/>
<path d="M69.9,1013.9H849.3v-.7H69.9v.7Z" class="g1_1547"/>
<path d="M69.9,1038.3H849.3v-.7H69.9v.7Z" class="g1_1547"/>
<path d="M69.9,1062.8H849.3v-.8H69.9v.8Z" class="g1_1547"/>
<path d="M69.9,1087.3H849.3v-.8H69.9v.8Z" class="g1_1547"/>
</svg>