<?xml version="1.0" encoding="UTF-8" standalone="no"?>
<!DOCTYPE svg PUBLIC "-//W3C//DTD SVG 1.1//EN"
"http://www.w3.org/Graphics/SVG/1.1/DTD/svg11.dtd">
<svg viewBox="0 0 935 1210" version="1.1" xmlns="http://www.w3.org/2000/svg" xmlns:xlink="http://www.w3.org/1999/xlink">
<defs>
<style type="text/css"><![CDATA[
.g0_1109{
fill: #FFF;
}
.g1_1109{
fill: #000;
}
.g2_1109{
fill: #B3B3B3;
}
]]></style>
</defs>
<path d="M68.9,1149.3H852.7v-21.2H68.9v21.2Z" class="g0_1109"/>
<path d="M69.5,267h.7V141h-.7V267Z" class="g1_1109"/>
<path d="M251.6,267.8h.8V140.2h-.8V267.8Z" class="g1_1109"/>
<path d="M306,267.8h.7V140.2H306V267.8Z" class="g1_1109"/>
<path d="M852.6,267h.7V141h-.7V267Z" class="g1_1109"/>
<path d="M69.4,140.9H853.3v-.7H69.4v.7Z" class="g1_1109"/>
<path d="M69.4,179.1H853.3v-.7H69.4v.7Z" class="g1_1109"/>
<path d="M69.4,223.4H853.3v-.7H69.4v.7Z" class="g1_1109"/>
<path d="M69.4,267.8H853.3V267H69.4v.8Z" class="g1_1109"/>
<path d="M70.8,367.9h.7V319.7h-.7v48.2Z" class="g1_1109"/>
<path d="M150.1,368.6h.7V318.9h-.7v49.7Z" class="g1_1109"/>
<path d="M320.4,368.6h.7V318.9h-.7v49.7Z" class="g1_1109"/>
<path d="M490.5,368.6h.7V318.9h-.7v49.7Z" class="g1_1109"/>
<path d="M670.5,368.6h.7V318.9h-.7v49.7Z" class="g1_1109"/>
<path d="M851.2,367.9h.7V319.7h-.7v48.2Z" class="g1_1109"/>
<path d="M70.8,319.6H852v-.7H70.8v.7Z" class="g1_1109"/>
<path d="M70.8,344.1H852v-.7H70.8v.7Z" class="g1_1109"/>
<path d="M70.8,368.6H852v-.7H70.8v.7Z" class="g1_1109"/>
<path d="M171.3,884.9h.8V770.4h-.8V884.9Z" class="g1_1109"/>
<path d="M750.7,884.9h.7V770.4h-.7V884.9Z" class="g1_1109"/>
<path d="M171.3,770.4H751.4v-.8H171.3v.8Z" class="g1_1109"/>
<path d="M171.3,885.6H751.4v-.7H171.3v.7Z" class="g1_1109"/>
<path d="M234.7,841.9H702.3V814.4H234.7v27.5Z" class="g0_1109"/>
<path d="M234.7,815.2H703.1v-1.6H234.7v1.6Z" class="g1_1109"/>
<path d="M701.5,842.7h1.6V814.4h-1.6v28.3Z" class="g1_1109"/>
<path d="M233.9,842.7H702.3v-1.6H233.9v1.6Z" class="g1_1109"/>
<path d="M233.9,841.9h1.6V813.6h-1.6v28.3Z" class="g1_1109"/>
<path d="M234.7,841.9H468.5V814.4H234.7v27.5Z" class="g2_1109"/>
<path d="M234.7,815.2H469.3v-1.6H234.7v1.6Z" class="g1_1109"/>
<path d="M467.8,842.7h1.5V814.4h-1.5v28.3Z" class="g1_1109"/>
<path d="M233.9,842.7H468.5v-1.6H233.9v1.6Z" class="g1_1109"/>
<path d="M233.9,841.9h1.6V813.6h-1.6v28.3Z" class="g1_1109"/>
</svg>