<?xml version="1.0" encoding="UTF-8" standalone="no"?>
<!DOCTYPE svg PUBLIC "-//W3C//DTD SVG 1.1//EN"
"http://www.w3.org/Graphics/SVG/1.1/DTD/svg11.dtd">
<svg viewBox="0 0 935 1210" version="1.1" xmlns="http://www.w3.org/2000/svg" xmlns:xlink="http://www.w3.org/1999/xlink">
<defs>
<style type="text/css"><![CDATA[
.g0_1326{
fill: #FFF;
}
.g1_1326{
fill: #000;
}
]]></style>
</defs>
<path d="M68.8,1149.3H852.5v-21.2H68.8v21.2Z" class="g0_1326"/>
<path d="M68.6,215.1h.7V125.7h-.7v89.4Z" class="g1_1326"/>
<path d="M253.8,215.8h.8V124.9h-.8v90.9Z" class="g1_1326"/>
<path d="M311.1,215.8h.7V124.9h-.7v90.9Z" class="g1_1326"/>
<path d="M385.6,215.8h.7V124.9h-.7v90.9Z" class="g1_1326"/>
<path d="M453.2,215.8h.7V124.9h-.7v90.9Z" class="g1_1326"/>
<path d="M851.2,215.1h.7V125.7h-.7v89.4Z" class="g1_1326"/>
<path d="M68.6,125.7H852v-.8H68.6v.8Z" class="g1_1326"/>
<path d="M68.6,179.1H852v-.7H68.6v.7Z" class="g1_1326"/>
<path d="M68.6,215.8H852v-.7H68.6v.7Z" class="g1_1326"/>
<path d="M67.2,318.9h.7V270.8h-.7v48.1Z" class="g1_1326"/>
<path d="M147.5,319.7h.7V270.1h-.7v49.6Z" class="g1_1326"/>
<path d="M303.9,319.7h.7V270.1h-.7v49.6Z" class="g1_1326"/>
<path d="M532.4,319.7h.7V270.1h-.7v49.6Z" class="g1_1326"/>
<path d="M853.2,318.9h.8V270.8h-.8v48.1Z" class="g1_1326"/>
<path d="M67.2,270.8H854v-.7H67.2v.7Z" class="g1_1326"/>
<path d="M67.2,295.3H854v-.8H67.2v.8Z" class="g1_1326"/>
<path d="M67.2,319.6H854v-.7H67.2v.7Z" class="g1_1326"/>
<path d="M69,598.5h.8V533.6H69v64.9Z" class="g1_1326"/>
<path d="M210.7,599.3h.8V532.9h-.8v66.4Z" class="g1_1326"/>
<path d="M376.4,599.3h.7V532.9h-.7v66.4Z" class="g1_1326"/>
<path d="M518.2,599.3h.7V532.9h-.7v66.4Z" class="g1_1326"/>
<path d="M683.7,599.3h.8V532.9h-.8v66.4Z" class="g1_1326"/>
<path d="M851.4,598.5h.7V533.6h-.7v64.9Z" class="g1_1326"/>
<path d="M69,533.6H852.1v-.7H69v.7Z" class="g1_1326"/>
<path d="M69,558.1H852.1v-.8H69v.8Z" class="g1_1326"/>
<path d="M69,599.3H852.1v-.7H69v.7Z" class="g1_1326"/>
<path d="M70,804.8h.8V683.3H70V804.8Z" class="g1_1326"/>
<path d="M352,805.6h.7v-123H352v123Z" class="g1_1326"/>
<path d="M850.4,804.8h.7V683.3h-.7V804.8Z" class="g1_1326"/>
<path d="M70,683.3H851.1v-.7H70v.7Z" class="g1_1326"/>
<path d="M70,707.8H851.1V707H70v.8Z" class="g1_1326"/>
<path d="M70,732.2H851.1v-.7H70v.7Z" class="g1_1326"/>
<path d="M70,756.6H851.1v-.7H70v.7Z" class="g1_1326"/>
<path d="M70,781.1H851.1v-.7H70v.7Z" class="g1_1326"/>
<path d="M70,805.6H851.1v-.8H70v.8Z" class="g1_1326"/>
<path d="M70.2,974.4H71V883.5h-.8v90.9Z" class="g1_1326"/>
<path d="M169.4,975.2h.7V882.8h-.7v92.4Z" class="g1_1326"/>
<path d="M393.3,975.2h.8V882.8h-.8v92.4Z" class="g1_1326"/>
<path d="M497.9,975.2h.8V905.7h-.8v69.5Z" class="g1_1326"/>
<path d="M612.4,975.2h.8V905.7h-.8v69.5Z" class="g1_1326"/>
<path d="M850.1,974.4h.7V883.5h-.7v90.9Z" class="g1_1326"/>
<path d="M70.2,883.5H850.8v-.8H70.2v.8Z" class="g1_1326"/>
<path d="M393.3,906.4H850.8v-.7H393.3v.7Z" class="g1_1326"/>
<path d="M70.2,929.3H850.8v-.7H70.2v.7Z" class="g1_1326"/>
<path d="M169.4,952.2H850.8v-.7H169.4v.7Z" class="g1_1326"/>
<path d="M70.2,975.2H850.8v-.8H70.2v.8Z" class="g1_1326"/>
</svg>