<?xml version="1.0" encoding="UTF-8" standalone="no"?>
<!DOCTYPE svg PUBLIC "-//W3C//DTD SVG 1.1//EN"
"http://www.w3.org/Graphics/SVG/1.1/DTD/svg11.dtd">
<svg viewBox="0 0 935 1210" version="1.1" xmlns="http://www.w3.org/2000/svg" xmlns:xlink="http://www.w3.org/1999/xlink">
<defs>
<style type="text/css"><![CDATA[
.g0_4301{
fill: #FFF;
}
.g1_4301{
fill: #000;
}
]]></style>
</defs>
<path d="M68.9,1149.3H852.7v-21.2H68.9v21.2Z" class="g0_4301"/>
<path d="M69.1,667.2h.8V124.1h-.8V667.2Z" class="g1_4301"/>
<path d="M304.7,668.1h.7V123.4h-.7V668.1Z" class="g1_4301"/>
<path d="M391.8,668.1h.7V123.4h-.7V668.1Z" class="g1_4301"/>
<path d="M852.9,667.2h.7V124.1h-.7V667.2Z" class="g1_4301"/>
<path d="M69.1,124.1H853.6v-.7H69.1v.7Z" class="g1_4301"/>
<path d="M69.1,147H853.6v-.7H69.1v.7Z" class="g1_4301"/>
<path d="M69.1,186.7H853.6V186H69.1v.7Z" class="g1_4301"/>
<path d="M69.1,209.6H853.6v-.7H69.1v.7Z" class="g1_4301"/>
<path d="M69.1,232.6H853.6v-.8H69.1v.8Z" class="g1_4301"/>
<path d="M69.1,255.5H853.6v-.8H69.1v.8Z" class="g1_4301"/>
<path d="M69.1,278.4H853.6v-.7H69.1v.7Z" class="g1_4301"/>
<path d="M69.1,301.3H853.6v-.7H69.1v.7Z" class="g1_4301"/>
<path d="M69.1,324.2H853.6v-.7H69.1v.7Z" class="g1_4301"/>
<path d="M69.1,347.1H853.6v-.7H69.1v.7Z" class="g1_4301"/>
<path d="M69.1,370.1H853.6v-.8H69.1v.8Z" class="g1_4301"/>
<path d="M69.1,393H853.6v-.8H69.1v.8Z" class="g1_4301"/>
<path d="M69.1,416H853.6v-.8H69.1v.8Z" class="g1_4301"/>
<path d="M69.1,438.9H853.6v-.7H69.1v.7Z" class="g1_4301"/>
<path d="M69.1,461.8H853.6v-.7H69.1v.7Z" class="g1_4301"/>
<path d="M69.1,484.7H853.6V484H69.1v.7Z" class="g1_4301"/>
<path d="M69.1,507.7H853.6v-.8H69.1v.8Z" class="g1_4301"/>
<path d="M69.1,530.6H853.6v-.8H69.1v.8Z" class="g1_4301"/>
<path d="M69.1,553.5H853.6v-.8H69.1v.8Z" class="g1_4301"/>
<path d="M69.1,576.4H853.6v-.7H69.1v.7Z" class="g1_4301"/>
<path d="M69.1,599.3H853.6v-.7H69.1v.7Z" class="g1_4301"/>
<path d="M69.1,622.2H853.6v-.7H69.1v.7Z" class="g1_4301"/>
<path d="M69.1,645.2H853.6v-.8H69.1v.8Z" class="g1_4301"/>
<path d="M69.1,668.1H853.6v-.8H69.1v.8Z" class="g1_4301"/>
<path d="M71.8,1090.5h.7V839.2h-.7v251.3Z" class="g1_4301"/>
<path d="M493,1091.3h.7V838.4H493v252.9Z" class="g1_4301"/>
<path d="M671.6,1091.3h.7V838.4h-.7v252.9Z" class="g1_4301"/>
<path d="M850.2,1090.5h.7V839.2h-.7v251.3Z" class="g1_4301"/>
<path d="M71.8,839.1H850.9v-.7H71.8v.7Z" class="g1_4301"/>
<path d="M71.8,862H850.9v-.7H71.8v.7Z" class="g1_4301"/>
<path d="M71.8,885H850.9v-.8H71.8v.8Z" class="g1_4301"/>
<path d="M71.8,907.9H850.9v-.8H71.8v.8Z" class="g1_4301"/>
<path d="M71.8,930.8H850.9v-.7H71.8v.7Z" class="g1_4301"/>
<path d="M71.8,953.7H850.9V953H71.8v.7Z" class="g1_4301"/>
<path d="M71.8,976.6H850.9v-.7H71.8v.7Z" class="g1_4301"/>
<path d="M71.8,999.5H850.9v-.7H71.8v.7Z" class="g1_4301"/>
<path d="M71.8,1022.5H850.9v-.8H71.8v.8Z" class="g1_4301"/>
<path d="M71.8,1045.4H850.9v-.8H71.8v.8Z" class="g1_4301"/>
<path d="M71.8,1068.3H850.9v-.8H71.8v.8Z" class="g1_4301"/>
<path d="M71.8,1091.2H850.9v-.7H71.8v.7Z" class="g1_4301"/>
</svg>