<?xml version="1.0" encoding="UTF-8" standalone="no"?>
<!DOCTYPE svg PUBLIC "-//W3C//DTD SVG 1.1//EN"
"http://www.w3.org/Graphics/SVG/1.1/DTD/svg11.dtd">
<svg viewBox="0 0 935 1210" version="1.1" xmlns="http://www.w3.org/2000/svg" xmlns:xlink="http://www.w3.org/1999/xlink">
<defs>
<style type="text/css"><![CDATA[
.g0_178{
fill: #FFF;
}
.g1_178{
fill: #000;
}
]]></style>
</defs>
<path d="M68.8,1149.3H852.5v-21.2H68.8v21.2Z" class="g0_178"/>
<path d="M68.6,1081.3h.7V124.1h-.7v957.2Z" class="g1_178"/>
<path d="M125.3,1082.1h.7V164.6h-.7v917.5Z" class="g1_178"/>
<path d="M182.1,1082.1h.7V123.4h-.7v958.7Z" class="g1_178"/>
<path d="M440.1,1082.1h.7V123.4h-.7v958.7Z" class="g1_178"/>
<path d="M533.5,1082.1h.7V123.4h-.7v958.7Z" class="g1_178"/>
<path d="M849.8,1081.3h.8V124.1h-.8v957.2Z" class="g1_178"/>
<path d="M68.6,124.1h782v-.7H68.6v.7Z" class="g1_178"/>
<path d="M68.6,165.4H182.8v-.8H68.6v.8Z" class="g1_178"/>
<path d="M68.6,189.8h782v-.7H68.6v.7Z" class="g1_178"/>
<path d="M68.6,231.1h782v-.7H68.6v.7Z" class="g1_178"/>
<path d="M68.6,255.5h782v-.8H68.6v.8Z" class="g1_178"/>
<path d="M68.6,279.9h782v-.7H68.6v.7Z" class="g1_178"/>
<path d="M68.6,304.4h782v-.7H68.6v.7Z" class="g1_178"/>
<path d="M68.6,345.7h782v-.8H68.6v.8Z" class="g1_178"/>
<path d="M68.6,370.1h782v-.8H68.6v.8Z" class="g1_178"/>
<path d="M68.6,394.5h782v-.7H68.6v.7Z" class="g1_178"/>
<path d="M68.6,419h782v-.7H68.6v.7Z" class="g1_178"/>
<path d="M68.6,460.3h782v-.8H68.6v.8Z" class="g1_178"/>
<path d="M68.6,484.7h782V484H68.6v.7Z" class="g1_178"/>
<path d="M68.6,509.1h782v-.7H68.6v.7Z" class="g1_178"/>
<path d="M68.6,533.6h782v-.7H68.6v.7Z" class="g1_178"/>
<path d="M68.6,574.8h782v-.7H68.6v.7Z" class="g1_178"/>
<path d="M68.6,599.3h782v-.7H68.6v.7Z" class="g1_178"/>
<path d="M68.6,623.7h782V623H68.6v.7Z" class="g1_178"/>
<path d="M68.6,648.2h782v-.8H68.6v.8Z" class="g1_178"/>
<path d="M68.6,689.4h782v-.7H68.6v.7Z" class="g1_178"/>
<path d="M68.6,713.9h782v-.7H68.6v.7Z" class="g1_178"/>
<path d="M68.6,738.3h782v-.7H68.6v.7Z" class="g1_178"/>
<path d="M68.6,762.8h782V762H68.6v.8Z" class="g1_178"/>
<path d="M68.6,804h782v-.7H68.6v.7Z" class="g1_178"/>
<path d="M68.6,828.5h782v-.8H68.6v.8Z" class="g1_178"/>
<path d="M68.6,852.9h782v-.8H68.6v.8Z" class="g1_178"/>
<path d="M68.6,877.3h782v-.7H68.6v.7Z" class="g1_178"/>
<path d="M68.6,918.6h782v-.7H68.6v.7Z" class="g1_178"/>
<path d="M68.6,943.1h782v-.8H68.6v.8Z" class="g1_178"/>
<path d="M68.6,967.5h782v-.8H68.6v.8Z" class="g1_178"/>
<path d="M68.6,991.9h782v-.7H68.6v.7Z" class="g1_178"/>
<path d="M68.6,1033.2h782v-.8H68.6v.8Z" class="g1_178"/>
<path d="M68.6,1057.7h782v-.8H68.6v.8Z" class="g1_178"/>
<path d="M68.6,1082h782v-.7H68.6v.7Z" class="g1_178"/>
</svg>