<?xml version="1.0" encoding="UTF-8" standalone="no"?>
<!DOCTYPE svg PUBLIC "-//W3C//DTD SVG 1.1//EN"
"http://www.w3.org/Graphics/SVG/1.1/DTD/svg11.dtd">
<svg viewBox="0 0 935 1210" version="1.1" xmlns="http://www.w3.org/2000/svg" xmlns:xlink="http://www.w3.org/1999/xlink">
<defs>
<style type="text/css"><![CDATA[
.g0_59{
fill: #FFF;
}
.g1_59{
fill: #000;
}
]]></style>
</defs>
<path d="M68.9,1149.3H852.7v-21.2H68.9v21.2Z" class="g0_59"/>
<path d="M69.9,1085.9h.8V124.1h-.8v961.8Z" class="g1_59"/>
<path d="M168.2,1086.7h.7V123.4h-.7v963.3Z" class="g1_59"/>
<path d="M236.2,1086.7h.8V123.4h-.8v963.3Z" class="g1_59"/>
<path d="M361.4,1086.7h.8V123.4h-.8v963.3Z" class="g1_59"/>
<path d="M451.5,1086.7h.7V123.4h-.7v963.3Z" class="g1_59"/>
<path d="M514.3,1086.7h.8V123.4h-.8v963.3Z" class="g1_59"/>
<path d="M609.8,1086.7h.7V123.4h-.7v963.3Z" class="g1_59"/>
<path d="M688.6,1086.7h.7V123.4h-.7v963.3Z" class="g1_59"/>
<path d="M763.6,1086.7h.7V123.4h-.7v963.3Z" class="g1_59"/>
<path d="M852.7,1085.9h.7V124.1h-.7v961.8Z" class="g1_59"/>
<path d="M69.9,124.1H853.4v-.7H69.9v.7Z" class="g1_59"/>
<path d="M69.9,224.9H853.4v-.7H69.9v.7Z" class="g1_59"/>
<path d="M69.9,359.4H853.4v-.7H69.9v.7Z" class="g1_59"/>
<path d="M69.9,493.9H853.4v-.7H69.9v.7Z" class="g1_59"/>
<path d="M69.9,628.3H853.4v-.7H69.9v.7Z" class="g1_59"/>
<path d="M69.9,762.8H853.4V762H69.9v.8Z" class="g1_59"/>
<path d="M69.9,952.2H853.4v-.7H69.9v.7Z" class="g1_59"/>
<path d="M69.9,1086.6H853.4v-.7H69.9v.7Z" class="g1_59"/>
</svg>