<?xml version="1.0" encoding="UTF-8" standalone="no"?>
<!DOCTYPE svg PUBLIC "-//W3C//DTD SVG 1.1//EN"
"http://www.w3.org/Graphics/SVG/1.1/DTD/svg11.dtd">
<svg viewBox="0 0 935 1210" version="1.1" xmlns="http://www.w3.org/2000/svg" xmlns:xlink="http://www.w3.org/1999/xlink">
<defs>
<style type="text/css"><![CDATA[
.g0_4735{
fill: #FFF;
}
.g1_4735{
fill: #000;
}
]]></style>
</defs>
<path d="M68.9,1149.3H852.7v-21.2H68.9v21.2Z" class="g0_4735"/>
<path d="M69.9,1034h.8V286.1h-.8V1034Z" class="g1_4735"/>
<path d="M126.7,1034.7h.7V326.6h-.7v708.1Z" class="g1_4735"/>
<path d="M183.4,1034.7h.8V285.4h-.8v749.3Z" class="g1_4735"/>
<path d="M426.2,1034.7h.7V285.4h-.7v749.3Z" class="g1_4735"/>
<path d="M519.3,1034.7h.7V285.4h-.7v749.3Z" class="g1_4735"/>
<path d="M850.8,1034h.7V286.1h-.7V1034Z" class="g1_4735"/>
<path d="M69.9,286.1H851.5v-.7H69.9v.7Z" class="g1_4735"/>
<path d="M69.9,327.3H184.2v-.7H69.9v.7Z" class="g1_4735"/>
<path d="M69.9,351.7H851.5V351H69.9v.7Z" class="g1_4735"/>
<path d="M183.4,397.7H851.5v-.8H183.4v.8Z" class="g1_4735"/>
<path d="M183.4,443.5H851.5v-.8H183.4v.8Z" class="g1_4735"/>
<path d="M183.4,489.3H851.5v-.7H183.4v.7Z" class="g1_4735"/>
<path d="M69.9,513.7H851.5V513H69.9v.7Z" class="g1_4735"/>
<path d="M183.4,559.5H851.5v-.7H183.4v.7Z" class="g1_4735"/>
<path d="M69.9,605.4H851.5v-.8H69.9v.8Z" class="g1_4735"/>
<path d="M183.4,668.1H851.5v-.8H183.4v.8Z" class="g1_4735"/>
<path d="M183.4,692.4H851.5v-.7H183.4v.7Z" class="g1_4735"/>
<path d="M183.4,755.2H851.5v-.8H183.4v.8Z" class="g1_4735"/>
<path d="M183.4,779.5H851.5v-.7H183.4v.7Z" class="g1_4735"/>
<path d="M183.4,930.8H851.5v-.7H183.4v.7Z" class="g1_4735"/>
<path d="M183.4,955.3H851.5v-.8H183.4v.8Z" class="g1_4735"/>
<path d="M69.9,1034.7H851.5v-.7H69.9v.7Z" class="g1_4735"/>
</svg>