<?xml version="1.0" encoding="UTF-8" standalone="no"?>
<!DOCTYPE svg PUBLIC "-//W3C//DTD SVG 1.1//EN"
"http://www.w3.org/Graphics/SVG/1.1/DTD/svg11.dtd">
<svg viewBox="0 0 935 1210" version="1.1" xmlns="http://www.w3.org/2000/svg" xmlns:xlink="http://www.w3.org/1999/xlink">
<defs>
<style type="text/css"><![CDATA[
.g0_1594{
fill: #FFF;
}
.g1_1594{
fill: #000;
}
]]></style>
</defs>
<path d="M165,1149.3H852.5v-21.2H165v21.2Z" class="g0_1594"/>
<path d="M68.8,1149.3h82.5v-21.2H68.8v21.2Z" class="g0_1594"/>
<path d="M68.9,342.8H851.1V313.2H68.9v29.6Z" class="g0_1594"/>
<path d="M69.9,336.1h53.5V323.7H69.9v12.4Z" class="g0_1594"/>
<path d="M68.6,312.9h.7V147h-.7V312.9Z" class="g1_1594"/>
<path d="M315.1,313.6h.7V146.3h-.7V313.6Z" class="g1_1594"/>
<path d="M358.6,313.6h.7V146.3h-.7V313.6Z" class="g1_1594"/>
<path d="M433,313.6h.8V146.3H433V313.6Z" class="g1_1594"/>
<path d="M518,313.6h.7V146.3H518V313.6Z" class="g1_1594"/>
<path d="M850.8,312.9h.7V147h-.7V312.9Z" class="g1_1594"/>
<path d="M68.6,147h783v-.7H68.6v.7Z" class="g1_1594"/>
<path d="M68.6,200.5h783v-.8H68.6v.8Z" class="g1_1594"/>
<path d="M68.6,257h783v-.7H68.6v.7Z" class="g1_1594"/>
<path d="M68.6,313.6h783v-.7H68.6v.7Z" class="g1_1594"/>
<path d="M68.6,466.2h.7V418.1h-.7v48.1Z" class="g1_1594"/>
<path d="M128.3,467h.8V417.3h-.8V467Z" class="g1_1594"/>
<path d="M228.5,467h.8V417.3h-.8V467Z" class="g1_1594"/>
<path d="M375.7,467h.8V417.3h-.8V467Z" class="g1_1594"/>
<path d="M533,467h.8V417.3H533V467Z" class="g1_1594"/>
<path d="M690.9,467h.7V417.3h-.7V467Z" class="g1_1594"/>
<path d="M848.6,466.2h.7V418.1h-.7v48.1Z" class="g1_1594"/>
<path d="M68.6,418H849.3v-.7H68.6v.7Z" class="g1_1594"/>
<path d="M68.6,442.5H849.3v-.8H68.6v.8Z" class="g1_1594"/>
<path d="M68.6,467H849.3v-.8H68.6v.8Z" class="g1_1594"/>
</svg>