<?xml version="1.0" encoding="UTF-8" standalone="no"?>
<!DOCTYPE svg PUBLIC "-//W3C//DTD SVG 1.1//EN"
"http://www.w3.org/Graphics/SVG/1.1/DTD/svg11.dtd">
<svg viewBox="0 0 935 1210" version="1.1" xmlns="http://www.w3.org/2000/svg" xmlns:xlink="http://www.w3.org/1999/xlink">
<defs>
<style type="text/css"><![CDATA[
.g0_242{
fill: #FFF;
}
.g1_242{
fill: #000;
}
]]></style>
</defs>
<path d="M165,1149.3H852.5v-21.2H165v21.2Z" class="g0_242"/>
<path d="M68.8,1149.3h82.5v-21.2H68.8v21.2Z" class="g0_242"/>
<path d="M68.6,300.6h.7V125.7h-.7V300.6Z" class="g1_242"/>
<path d="M219.2,301.4h.7V124.9h-.7V301.4Z" class="g1_242"/>
<path d="M390.1,301.4h.8V124.9h-.8V301.4Z" class="g1_242"/>
<path d="M428,301.4h.7V124.9H428V301.4Z" class="g1_242"/>
<path d="M501.3,301.4h.8V124.9h-.8V301.4Z" class="g1_242"/>
<path d="M572.7,301.4h.8V124.9h-.8V301.4Z" class="g1_242"/>
<path d="M849.8,300.6h.8V125.7h-.8V300.6Z" class="g1_242"/>
<path d="M68.6,125.7h782v-.8H68.6v.8Z" class="g1_242"/>
<path d="M68.6,163.8h782v-.7H68.6v.7Z" class="g1_242"/>
<path d="M68.6,186.7h782V186H68.6v.7Z" class="g1_242"/>
<path d="M68.6,209.6h782v-.7H68.6v.7Z" class="g1_242"/>
<path d="M68.6,232.6h782v-.8H68.6v.8Z" class="g1_242"/>
<path d="M68.6,255.5h782v-.8H68.6v.8Z" class="g1_242"/>
<path d="M68.6,278.4h782v-.7H68.6v.7Z" class="g1_242"/>
<path d="M68.6,301.3h782v-.7H68.6v.7Z" class="g1_242"/>
<path d="M68.6,428.9h.7V356.4h-.7v72.5Z" class="g1_242"/>
<path d="M132.9,429.7h.8V355.6h-.8v74.1Z" class="g1_242"/>
<path d="M309.6,429.7h.7V355.6h-.7v74.1Z" class="g1_242"/>
<path d="M483.6,429.7h.8V355.6h-.8v74.1Z" class="g1_242"/>
<path d="M661.7,429.7h.8V355.6h-.8v74.1Z" class="g1_242"/>
<path d="M849.7,428.9h.7V356.4h-.7v72.5Z" class="g1_242"/>
<path d="M68.6,356.3H850.4v-.7H68.6v.7Z" class="g1_242"/>
<path d="M68.6,380.8H850.4v-.7H68.6v.7Z" class="g1_242"/>
<path d="M68.6,405.3H850.4v-.8H68.6v.8Z" class="g1_242"/>
<path d="M68.6,429.7H850.4V429H68.6v.7Z" class="g1_242"/>
</svg>