<?xml version="1.0" encoding="UTF-8" standalone="no"?>
<!DOCTYPE svg PUBLIC "-//W3C//DTD SVG 1.1//EN"
"http://www.w3.org/Graphics/SVG/1.1/DTD/svg11.dtd">
<svg viewBox="0 0 935 1210" version="1.1" xmlns="http://www.w3.org/2000/svg" xmlns:xlink="http://www.w3.org/1999/xlink">
<defs>
<style type="text/css"><![CDATA[
.g0_1147{
fill: #FFF;
}
.g1_1147{
fill: #000;
}
]]></style>
</defs>
<path d="M68.9,1149.3H755.2v-21.2H68.9v21.2Z" class="g0_1147"/>
<path d="M771.3,1149.3H855v-21.2H771.3v21.2Z" class="g0_1147"/>
<path d="M171.3,935h.8V735.3h-.8V935Z" class="g1_1147"/>
<path d="M750.7,935h.7V735.3h-.7V935Z" class="g1_1147"/>
<path d="M171.3,735.3H751.4v-.8H171.3v.8Z" class="g1_1147"/>
<path d="M171.3,935.7H751.4V935H171.3v.7Z" class="g1_1147"/>
<path d="M257.4,781.8h55.5V754.3H257.4v27.5Z" class="g0_1147"/>
<path d="M257.4,754.7h55.9V754H257.4v.7Z" class="g1_1147"/>
<path d="M312.6,782.2h.7V754.3h-.7v27.9Z" class="g1_1147"/>
<path d="M257,782.2h55.9v-.7H257v.7Z" class="g1_1147"/>
<path d="M257,781.8h.8V754H257v27.8Z" class="g1_1147"/>
<path d="M312.9,781.8h55.6V754.3H312.9v27.5Z" class="g0_1147"/>
<path d="M312.9,754.7h56V754h-56v.7Z" class="g1_1147"/>
<path d="M368.1,782.2h.8V754.3h-.8v27.9Z" class="g1_1147"/>
<path d="M312.6,782.2h55.9v-.7H312.6v.7Z" class="g1_1147"/>
<path d="M312.6,781.8h.7V754h-.7v27.8Z" class="g1_1147"/>
<path d="M368.5,781.8H424V754.3H368.5v27.5Z" class="g0_1147"/>
<path d="M368.5,754.7h55.9V754H368.5v.7Z" class="g1_1147"/>
<path d="M423.7,782.2h.7V754.3h-.7v27.9Z" class="g1_1147"/>
<path d="M368.1,782.2H424v-.7H368.1v.7Z" class="g1_1147"/>
<path d="M368.1,781.8h.8V754h-.8v27.8Z" class="g1_1147"/>
<path d="M424,781.8h55.7V754.3H424v27.5Z" class="g0_1147"/>
<path d="M424,754.7h56.1V754H424v.7Z" class="g1_1147"/>
<path d="M479.3,782.2h.8V754.3h-.8v27.9Z" class="g1_1147"/>
<path d="M423.7,782.2h56v-.7h-56v.7Z" class="g1_1147"/>
<path d="M423.7,781.8h.7V754h-.7v27.8Z" class="g1_1147"/>
<path d="M480,781.8h55.5V754.3H480v27.5Z" class="g0_1147"/>
<path d="M480,754.7h55.9V754H480v.7Z" class="g1_1147"/>
<path d="M535.2,782.2h.7V754.3h-.7v27.9Z" class="g1_1147"/>
<path d="M479.6,782.2h55.9v-.7H479.6v.7Z" class="g1_1147"/>
<path d="M479.6,781.8h.7V754h-.7v27.8Z" class="g1_1147"/>
<path d="M535.5,754.3h55.6v27.5H535.5Z" class="g0_1147"/>
<path d="M535.5,754.7h55.9V754H535.5v.7Z" class="g1_1147"/>
<path d="M590.7,782.2h.7V754.3h-.7v27.9Z" class="g1_1147"/>
<path d="M535.2,782.2h55.9v-.7H535.2v.7Z" class="g1_1147"/>
<path d="M535.2,781.8h.7V754h-.7v27.8Z" class="g1_1147"/>
<path d="M591.1,781.8h55.5V754.3H591.1v27.5Z" class="g0_1147"/>
<path d="M591.1,754.7H647V754H591.1v.7Z" class="g1_1147"/>
<path d="M646.3,782.2h.7V754.3h-.7v27.9Z" class="g1_1147"/>
<path d="M590.7,782.2h55.9v-.7H590.7v.7Z" class="g1_1147"/>
<path d="M590.7,781.8h.7V754h-.7v27.8Z" class="g1_1147"/>
<path d="M646.6,781.8h55.7V754.3H646.6v27.5Z" class="g0_1147"/>
<path d="M646.6,754.7h56V754h-56v.7Z" class="g1_1147"/>
<path d="M701.9,782.2h.7V754.3h-.7v27.9Z" class="g1_1147"/>
<path d="M646.3,782.2h56v-.7h-56v.7Z" class="g1_1147"/>
<path d="M646.3,781.8h.7V754h-.7v27.8Z" class="g1_1147"/>
<path d="M256.5,827.7H312V800.2H256.5v27.5Z" class="g0_1147"/>
<path d="M256.5,800.5h55.9v-.7H256.5v.7Z" class="g1_1147"/>
<path d="M311.7,828h.7V800.2h-.7V828Z" class="g1_1147"/>
<path d="M256.1,828H312v-.7H256.1v.7Z" class="g1_1147"/>
<path d="M256.1,827.7h.7V799.8h-.7v27.9Z" class="g1_1147"/>
<path d="M312,827.7h55.7V800.2H312v27.5Z" class="g0_1147"/>
<path d="M312,800.5h56v-.7H312v.7Z" class="g1_1147"/>
<path d="M367.3,828h.7V800.2h-.7V828Z" class="g1_1147"/>
<path d="M311.7,828h56v-.7h-56v.7Z" class="g1_1147"/>
<path d="M311.7,827.7h.7V799.8h-.7v27.9Z" class="g1_1147"/>
<path d="M367.7,827.7h55.5V800.2H367.7v27.5Z" class="g0_1147"/>
<path d="M367.7,800.5h55.9v-.7H367.7v.7Z" class="g1_1147"/>
<path d="M422.9,828h.7V800.2h-.7V828Z" class="g1_1147"/>
<path d="M367.3,828h55.9v-.7H367.3v.7Z" class="g1_1147"/>
<path d="M367.3,827.7h.7V799.8h-.7v27.9Z" class="g1_1147"/>
<path d="M423.2,827.7h55.6V800.2H423.2v27.5Z" class="g0_1147"/>
<path d="M423.2,800.5h55.9v-.7H423.2v.7Z" class="g1_1147"/>
<path d="M478.4,828h.7V800.2h-.7V828Z" class="g1_1147"/>
<path d="M422.9,828h55.9v-.7H422.9v.7Z" class="g1_1147"/>
<path d="M422.9,827.7h.7V799.8h-.7v27.9Z" class="g1_1147"/>
<path d="M479.1,827.6h55.5V801H479.1v26.6Z" class="g0_1147"/>
<path d="M479.1,801.3H535v-.7H479.1v.7Z" class="g1_1147"/>
<path d="M534.2,827.9h.8V801h-.8v26.9Z" class="g1_1147"/>
<path d="M478.7,827.9h55.9v-.7H478.7v.7Z" class="g1_1147"/>
<path d="M478.7,827.6h.7v-27h-.7v27Z" class="g1_1147"/>
<path d="M534.6,827.6h55.6V801H534.6v26.6Z" class="g0_1147"/>
<path d="M534.6,801.3h56v-.7h-56v.7Z" class="g1_1147"/>
<path d="M589.9,827.9h.7V801h-.7v26.9Z" class="g1_1147"/>
<path d="M534.2,827.9h56v-.7h-56v.7Z" class="g1_1147"/>
<path d="M534.2,827.6h.8v-27h-.8v27Z" class="g1_1147"/>
<path d="M590.2,827.6h55.6V801H590.2v26.6Z" class="g0_1147"/>
<path d="M590.2,801.3h56v-.7h-56v.7Z" class="g1_1147"/>
<path d="M645.4,827.9h.8V801h-.8v26.9Z" class="g1_1147"/>
<path d="M589.9,827.9h55.9v-.7H589.9v.7Z" class="g1_1147"/>
<path d="M589.9,827.6h.7v-27h-.7v27Z" class="g1_1147"/>
<path d="M645.8,827.6h55.5V801H645.8v26.6Z" class="g0_1147"/>
<path d="M645.8,801.3h55.9v-.7H645.8v.7Z" class="g1_1147"/>
<path d="M701,827.9h.7V801H701v26.9Z" class="g1_1147"/>
<path d="M645.4,827.9h55.9v-.7H645.4v.7Z" class="g1_1147"/>
<path d="M645.4,827.6h.8v-27h-.8v27Z" class="g1_1147"/>
<path d="M257.3,871.8h55.6V844.3H257.3v27.5Z" class="g0_1147"/>
<path d="M257.3,844.7h55.9V844H257.3v.7Z" class="g1_1147"/>
<path d="M312.5,872.2h.7V844.3h-.7v27.9Z" class="g1_1147"/>
<path d="M256.9,872.2h56v-.7h-56v.7Z" class="g1_1147"/>
<path d="M256.9,871.8h.8V844h-.8v27.8Z" class="g1_1147"/>
<path d="M312.9,871.8h55.5V844.3H312.9v27.5Z" class="g0_1147"/>
<path d="M312.9,844.7h55.9V844H312.9v.7Z" class="g1_1147"/>
<path d="M368,872.2h.8V844.3H368v27.9Z" class="g1_1147"/>
<path d="M312.5,872.2h55.9v-.7H312.5v.7Z" class="g1_1147"/>
<path d="M312.5,871.8h.7V844h-.7v27.8Z" class="g1_1147"/>
<path d="M368.5,871.8H424V844.3H368.5v27.5Z" class="g0_1147"/>
<path d="M368.5,844.7h55.9V844H368.5v.7Z" class="g1_1147"/>
<path d="M423.7,872.2h.7V844.3h-.7v27.9Z" class="g1_1147"/>
<path d="M368.1,872.2H424v-.7H368.1v.7Z" class="g1_1147"/>
<path d="M368.1,871.8h.8V844h-.8v27.8Z" class="g1_1147"/>
<path d="M424,871.8h55.6V844.3H424v27.5Z" class="g0_1147"/>
<path d="M424,844.7h56V844H424v.7Z" class="g1_1147"/>
<path d="M479.2,872.2h.8V844.3h-.8v27.9Z" class="g1_1147"/>
<path d="M423.7,872.2h55.9v-.7H423.7v.7Z" class="g1_1147"/>
<path d="M423.7,871.8h.7V844h-.7v27.8Z" class="g1_1147"/>
<path d="M479.9,871.8h55.5V844.3H479.9v27.5Z" class="g0_1147"/>
<path d="M479.9,844.6h55.9v-.7H479.9v.7Z" class="g1_1147"/>
<path d="M535.1,872.1h.7V844.2h-.7v27.9Z" class="g1_1147"/>
<path d="M479.5,872.1h55.9v-.7H479.5v.7Z" class="g1_1147"/>
<path d="M479.5,871.8h.7V843.9h-.7v27.9Z" class="g1_1147"/>
<path d="M535.4,871.8h55.7V844.3H535.4v27.5Z" class="g0_1147"/>
<path d="M535.4,844.6h56v-.7h-56v.7Z" class="g1_1147"/>
<path d="M590.7,872.1h.7V844.2h-.7v27.9Z" class="g1_1147"/>
<path d="M535.1,872.1h56v-.7h-56v.7Z" class="g1_1147"/>
<path d="M535.1,871.8h.7V843.9h-.7v27.9Z" class="g1_1147"/>
<path d="M591.1,871.8h55.5V844.3H591.1v27.5Z" class="g0_1147"/>
<path d="M591.1,844.6H647v-.7H591.1v.7Z" class="g1_1147"/>
<path d="M646.3,872.1h.7V844.2h-.7v27.9Z" class="g1_1147"/>
<path d="M590.7,872.1h55.9v-.7H590.7v.7Z" class="g1_1147"/>
<path d="M590.7,871.8h.7V843.9h-.7v27.9Z" class="g1_1147"/>
<path d="M646.6,871.8h55.6V844.3H646.6v27.5Z" class="g0_1147"/>
<path d="M646.6,844.6h55.9v-.7H646.6v.7Z" class="g1_1147"/>
<path d="M701.8,872.1h.7V844.2h-.7v27.9Z" class="g1_1147"/>
<path d="M646.3,872.1h55.9v-.7H646.3v.7Z" class="g1_1147"/>
<path d="M646.3,871.8h.7V843.9h-.7v27.9Z" class="g1_1147"/>
<path d="M257.8,923.4h55.6V895.9H257.8v27.5Z" class="g0_1147"/>
<path d="M257.8,896.2h56v-.7h-56v.7Z" class="g1_1147"/>
<path d="M313,923.7h.8V895.9H313v27.8Z" class="g1_1147"/>
<path d="M257.4,923.7h56V923h-56v.7Z" class="g1_1147"/>
<path d="M257.4,923.4h.7V895.5h-.7v27.9Z" class="g1_1147"/>
<path d="M313.4,923.4H369V895.9H313.4v27.5Z" class="g0_1147"/>
<path d="M313.4,896.2h55.9v-.7H313.4v.7Z" class="g1_1147"/>
<path d="M368.6,923.7h.7V895.9h-.7v27.8Z" class="g1_1147"/>
<path d="M313,923.7h56V923H313v.7Z" class="g1_1147"/>
<path d="M313,923.4h.8V895.5H313v27.9Z" class="g1_1147"/>
<path d="M369,923.4h55.5V895.9H369v27.5Z" class="g0_1147"/>
<path d="M369,896.2h55.9v-.7H369v.7Z" class="g1_1147"/>
<path d="M424.1,923.7h.8V895.9h-.8v27.8Z" class="g1_1147"/>
<path d="M368.6,923.7h55.9V923H368.6v.7Z" class="g1_1147"/>
<path d="M368.6,923.4h.7V895.5h-.7v27.9Z" class="g1_1147"/>
<path d="M424.5,923.4h55.6V895.9H424.5v27.5Z" class="g0_1147"/>
<path d="M424.5,896.2h55.9v-.7H424.5v.7Z" class="g1_1147"/>
<path d="M479.7,923.7h.7V895.9h-.7v27.8Z" class="g1_1147"/>
<path d="M424.1,923.7h56V923h-56v.7Z" class="g1_1147"/>
<path d="M424.1,923.4h.8V895.5h-.8v27.9Z" class="g1_1147"/>
<path d="M480.3,923.3H536V895.8H480.3v27.5Z" class="g0_1147"/>
<path d="M480.3,896.1h56v-.7h-56v.7Z" class="g1_1147"/>
<path d="M535.6,923.6h.7V895.8h-.7v27.8Z" class="g1_1147"/>
<path d="M480,923.6h56v-.7H480v.7Z" class="g1_1147"/>
<path d="M480,923.3h.7V895.4H480v27.9Z" class="g1_1147"/>
<path d="M536,923.3h55.5V895.8H536v27.5Z" class="g0_1147"/>
<path d="M536,896.1h55.9v-.7H536v.7Z" class="g1_1147"/>
<path d="M591.2,923.6h.7V895.8h-.7v27.8Z" class="g1_1147"/>
<path d="M535.6,923.6h55.9v-.7H535.6v.7Z" class="g1_1147"/>
<path d="M535.6,923.3h.7V895.4h-.7v27.9Z" class="g1_1147"/>
<path d="M591.5,923.3H700.3V895.8H591.5v27.5Z" class="g0_1147"/>
<path d="M591.5,896.1H700.7v-.7H591.5v.7Z" class="g1_1147"/>
<path d="M700,923.6h.7V895.8H700v27.8Z" class="g1_1147"/>
<path d="M591.2,923.6H700.3v-.7H591.2v.7Z" class="g1_1147"/>
<path d="M591.2,923.3h.7V895.4h-.7v27.9Z" class="g1_1147"/>
</svg>