<?xml version="1.0" encoding="UTF-8" standalone="no"?>
<!DOCTYPE svg PUBLIC "-//W3C//DTD SVG 1.1//EN"
"http://www.w3.org/Graphics/SVG/1.1/DTD/svg11.dtd">
<svg viewBox="0 0 935 1210" version="1.1" xmlns="http://www.w3.org/2000/svg" xmlns:xlink="http://www.w3.org/1999/xlink">
<defs>
<style type="text/css"><![CDATA[
.g0_4723{
fill: #FFF;
}
.g1_4723{
fill: #000;
}
]]></style>
</defs>
<path d="M68.9,1149.3H852.7v-21.2H68.9v21.2Z" class="g0_4723"/>
<path d="M69.9,1093.6h.8V124.1h-.8v969.5Z" class="g1_4723"/>
<path d="M126.7,1094.3h.7V164.6h-.7v929.7Z" class="g1_4723"/>
<path d="M183.4,1094.3h.8V123.4h-.8v970.9Z" class="g1_4723"/>
<path d="M441.6,1094.3h.8V123.4h-.8v970.9Z" class="g1_4723"/>
<path d="M535,1094.3h.7V123.4H535v970.9Z" class="g1_4723"/>
<path d="M853,1093.6h.8V124.1H853v969.5Z" class="g1_4723"/>
<path d="M69.9,124.1h784v-.7H69.9v.7Z" class="g1_4723"/>
<path d="M69.9,165.4H184.2v-.8H69.9v.8Z" class="g1_4723"/>
<path d="M69.9,189.8h784v-.7H69.9v.7Z" class="g1_4723"/>
<path d="M69.9,214.2h784v-.7H69.9v.7Z" class="g1_4723"/>
<path d="M69.9,238.7h784V238H69.9v.7Z" class="g1_4723"/>
<path d="M69.9,263.2h784v-.8H69.9v.8Z" class="g1_4723"/>
<path d="M69.9,287.6h784v-.8H69.9v.8Z" class="g1_4723"/>
<path d="M69.9,312h784v-.7H69.9v.7Z" class="g1_4723"/>
<path d="M69.9,336.5h784v-.7H69.9v.7Z" class="g1_4723"/>
<path d="M69.9,360.9h784v-.7H69.9v.7Z" class="g1_4723"/>
<path d="M69.9,385.4h784v-.8H69.9v.8Z" class="g1_4723"/>
<path d="M69.9,409.8h784v-.7H69.9v.7Z" class="g1_4723"/>
<path d="M69.9,434.3h784v-.7H69.9v.7Z" class="g1_4723"/>
<path d="M69.9,458.7h784V458H69.9v.7Z" class="g1_4723"/>
<path d="M69.9,483.2h784v-.8H69.9v.8Z" class="g1_4723"/>
<path d="M69.9,507.7h784v-.8H69.9v.8Z" class="g1_4723"/>
<path d="M69.9,532h784v-.7H69.9v.7Z" class="g1_4723"/>
<path d="M69.9,556.5h784v-.7H69.9v.7Z" class="g1_4723"/>
<path d="M69.9,581h784v-.8H69.9v.8Z" class="g1_4723"/>
<path d="M69.9,605.4h784v-.8H69.9v.8Z" class="g1_4723"/>
<path d="M69.9,629.8h784v-.7H69.9v.7Z" class="g1_4723"/>
<path d="M69.9,654.3h784v-.7H69.9v.7Z" class="g1_4723"/>
<path d="M69.9,678.7h784V678H69.9v.7Z" class="g1_4723"/>
<path d="M69.9,703.2h784v-.8H69.9v.8Z" class="g1_4723"/>
<path d="M69.9,727.7h784v-.8H69.9v.8Z" class="g1_4723"/>
<path d="M69.9,752h784v-.7H69.9v.7Z" class="g1_4723"/>
<path d="M69.9,776.5h784v-.7H69.9v.7Z" class="g1_4723"/>
<path d="M69.9,801h784v-.7H69.9v.7Z" class="g1_4723"/>
<path d="M69.9,825.4h784v-.8H69.9v.8Z" class="g1_4723"/>
<path d="M69.9,849.8h784v-.7H69.9v.7Z" class="g1_4723"/>
<path d="M69.9,874.3h784v-.7H69.9v.7Z" class="g1_4723"/>
<path d="M69.9,898.7h784V898H69.9v.7Z" class="g1_4723"/>
<path d="M69.9,923.2h784v-.8H69.9v.8Z" class="g1_4723"/>
<path d="M69.9,947.7h784v-.8H69.9v.8Z" class="g1_4723"/>
<path d="M69.9,972h784v-.7H69.9v.7Z" class="g1_4723"/>
<path d="M69.9,996.5h784v-.7H69.9v.7Z" class="g1_4723"/>
<path d="M69.9,1021h784v-.7H69.9v.7Z" class="g1_4723"/>
<path d="M69.9,1045.4h784v-.8H69.9v.8Z" class="g1_4723"/>
<path d="M69.9,1069.8h784v-.7H69.9v.7Z" class="g1_4723"/>
<path d="M69.9,1094.3h784v-.7H69.9v.7Z" class="g1_4723"/>
</svg>