<?xml version="1.0" encoding="UTF-8" standalone="no"?>
<!DOCTYPE svg PUBLIC "-//W3C//DTD SVG 1.1//EN"
"http://www.w3.org/Graphics/SVG/1.1/DTD/svg11.dtd">
<svg viewBox="0 0 935 1210" version="1.1" xmlns="http://www.w3.org/2000/svg" xmlns:xlink="http://www.w3.org/1999/xlink">
<defs>
<style type="text/css"><![CDATA[
.g0_573{
fill: #FFF;
}
.g1_573{
fill: #000;
}
]]></style>
</defs>
<path d="M68.9,1149.3H852.7v-21.2H68.9v21.2Z" class="g0_573"/>
<path d="M74.5,850.7h.8V202h-.8V850.7Z" class="g1_573"/>
<path d="M201.2,851.4h.7V201.3h-.7V851.4Z" class="g1_573"/>
<path d="M237.9,851.4h.7V201.3h-.7V851.4Z" class="g1_573"/>
<path d="M279.9,851.4h.7V201.3h-.7V851.4Z" class="g1_573"/>
<path d="M319.3,851.4h.7V201.3h-.7V851.4Z" class="g1_573"/>
<path d="M354.7,851.4h.8V201.3h-.8V851.4Z" class="g1_573"/>
<path d="M847.6,850.7h.7V202h-.7V850.7Z" class="g1_573"/>
<path d="M74.4,202H848.3v-.7H74.4v.7Z" class="g1_573"/>
<path d="M74.4,305.9H848.3v-.7H74.4v.7Z" class="g1_573"/>
<path d="M201.2,330.4H848.3v-.8H201.2v.8Z" class="g1_573"/>
<path d="M201.2,464.8H848.3v-.7H201.2v.7Z" class="g1_573"/>
<path d="M201.2,489.3H848.3v-.7H201.2v.7Z" class="g1_573"/>
<path d="M201.2,513.7H848.3V513H201.2v.7Z" class="g1_573"/>
<path d="M74.4,538.2H848.3v-.8H74.4v.8Z" class="g1_573"/>
<path d="M74.4,579.4H848.3v-.7H74.4v.7Z" class="g1_573"/>
<path d="M201.2,603.9H848.3v-.7H201.2v.7Z" class="g1_573"/>
<path d="M74.4,645.2H848.3v-.8H74.4v.8Z" class="g1_573"/>
<path d="M201.2,703.2H848.3v-.8H201.2v.8Z" class="g1_573"/>
<path d="M201.2,744.4H848.3v-.7H201.2v.7Z" class="g1_573"/>
<path d="M201.2,768.9H848.3v-.7H201.2v.7Z" class="g1_573"/>
<path d="M74.4,810.2H848.3v-.8H74.4v.8Z" class="g1_573"/>
<path d="M74.4,851.4H848.3v-.7H74.4v.7Z" class="g1_573"/>
</svg>