<?xml version="1.0" encoding="UTF-8" standalone="no"?>
<!DOCTYPE svg PUBLIC "-//W3C//DTD SVG 1.1//EN"
"http://www.w3.org/Graphics/SVG/1.1/DTD/svg11.dtd">
<svg viewBox="0 0 935 1210" version="1.1" xmlns="http://www.w3.org/2000/svg" xmlns:xlink="http://www.w3.org/1999/xlink">
<defs>
<style type="text/css"><![CDATA[
.g0_432{
fill: #FFF;
}
.g1_432{
fill: #000;
}
]]></style>
</defs>
<path d="M165,1149.3H852.5v-21.2H165v21.2Z" class="g0_432"/>
<path d="M68.8,1149.3h82.5v-21.2H68.8v21.2Z" class="g0_432"/>
<path d="M68.9,431.4H852.6V401.9H68.9v29.5Z" class="g0_432"/>
<path d="M69.9,424.8h53.5V412.3H69.9v12.5Z" class="g0_432"/>
<path d="M68.6,401.4h.7V131.8h-.7V401.4Z" class="g1_432"/>
<path d="M219.7,402.2h.8V131h-.8V402.2Z" class="g1_432"/>
<path d="M391.2,402.2h.8V131h-.8V402.2Z" class="g1_432"/>
<path d="M429.1,402.2h.7V131h-.7V402.2Z" class="g1_432"/>
<path d="M502.5,402.2h.7V131h-.7V402.2Z" class="g1_432"/>
<path d="M573.9,402.2h.8V131h-.8V402.2Z" class="g1_432"/>
<path d="M852.2,401.4h.8V131.8h-.8V401.4Z" class="g1_432"/>
<path d="M68.6,131.7H853V131H68.6v.7Z" class="g1_432"/>
<path d="M68.6,169.9H853v-.7H68.6v.7Z" class="g1_432"/>
<path d="M68.6,209.6H853v-.7H68.6v.7Z" class="g1_432"/>
<path d="M68.6,249.4H853v-.7H68.6v.7Z" class="g1_432"/>
<path d="M68.6,289.1H853v-.7H68.6v.7Z" class="g1_432"/>
<path d="M68.6,345.7H853v-.8H68.6v.8Z" class="g1_432"/>
<path d="M68.6,402.2H853v-.7H68.6v.7Z" class="g1_432"/>
<path d="M68.6,551.7h.7V503.6h-.7v48.1Z" class="g1_432"/>
<path d="M145.8,552.5h.7V502.9h-.7v49.6Z" class="g1_432"/>
<path d="M317.2,552.5h.7V502.9h-.7v49.6Z" class="g1_432"/>
<path d="M494.1,552.5h.7V502.9h-.7v49.6Z" class="g1_432"/>
<path d="M672.7,552.5h.8V502.9h-.8v49.6Z" class="g1_432"/>
<path d="M850.8,551.7h.7V503.6h-.7v48.1Z" class="g1_432"/>
<path d="M68.6,503.6H851.5v-.7H68.6v.7Z" class="g1_432"/>
<path d="M68.6,528H851.5v-.7H68.6v.7Z" class="g1_432"/>
<path d="M68.6,552.5H851.5v-.8H68.6v.8Z" class="g1_432"/>
<path d="M69.4,988.7h.7V830.6h-.7V988.7Z" class="g1_432"/>
<path d="M282.6,989.5h.7V829.8h-.7V989.5Z" class="g1_432"/>
<path d="M393.8,989.5h.7V829.8h-.7V989.5Z" class="g1_432"/>
<path d="M486.5,989.5h.7V829.8h-.7V989.5Z" class="g1_432"/>
<path d="M597.7,989.5h.7V829.8h-.7V989.5Z" class="g1_432"/>
<path d="M727.4,989.5h.7V829.8h-.7V989.5Z" class="g1_432"/>
<path d="M850.9,988.7h.8V830.6h-.8V988.7Z" class="g1_432"/>
<path d="M69.4,830.6H851.8v-.7H69.4v.7Z" class="g1_432"/>
<path d="M69.4,870.3H851.8v-.8H69.4v.8Z" class="g1_432"/>
<path d="M69.4,894.8H851.8V894H69.4v.8Z" class="g1_432"/>
<path d="M69.4,919.1H851.8v-.7H69.4v.7Z" class="g1_432"/>
<path d="M69.4,943.6H851.8v-.7H69.4v.7Z" class="g1_432"/>
<path d="M69.4,989.5H851.8v-.8H69.4v.8Z" class="g1_432"/>
</svg>