<?xml version="1.0" encoding="UTF-8" standalone="no"?>
<!DOCTYPE svg PUBLIC "-//W3C//DTD SVG 1.1//EN"
"http://www.w3.org/Graphics/SVG/1.1/DTD/svg11.dtd">
<svg viewBox="0 0 935 1210" version="1.1" xmlns="http://www.w3.org/2000/svg" xmlns:xlink="http://www.w3.org/1999/xlink">
<defs>
<style type="text/css"><![CDATA[
.g0_4859{
fill: #FFF;
}
.g1_4859{
fill: #000;
}
]]></style>
</defs>
<path d="M68.9,1149.3H852.7v-21.2H68.9v21.2Z" class="g0_4859"/>
<path d="M69.9,1041.6h.8V142.4h-.8v899.2Z" class="g1_4859"/>
<path d="M126.7,1042.3h.7V183h-.7v859.3Z" class="g1_4859"/>
<path d="M183.4,1042.3h.8V141.7h-.8v900.6Z" class="g1_4859"/>
<path d="M429.5,1042.3h.7V141.7h-.7v900.6Z" class="g1_4859"/>
<path d="M523,1042.3h.7V141.7H523v900.6Z" class="g1_4859"/>
<path d="M852.1,1041.6h.8V142.4h-.8v899.2Z" class="g1_4859"/>
<path d="M69.9,142.4h783v-.7H69.9v.7Z" class="g1_4859"/>
<path d="M69.9,183.7H184.2V183H69.9v.7Z" class="g1_4859"/>
<path d="M69.9,208.2h783v-.8H69.9v.8Z" class="g1_4859"/>
<path d="M69.9,232.6h783v-.8H69.9v.8Z" class="g1_4859"/>
<path d="M69.9,257h783v-.7H69.9v.7Z" class="g1_4859"/>
<path d="M69.9,281.5H523.7v-.7H69.9v.7Z" class="g1_4859"/>
<path d="M69.9,305.9H523.7v-.7H69.9v.7Z" class="g1_4859"/>
<path d="M69.9,330.4H523.7v-.8H69.9v.8Z" class="g1_4859"/>
<path d="M69.9,354.8h783v-.7H69.9v.7Z" class="g1_4859"/>
<path d="M69.9,379.2H523.7v-.7H69.9v.7Z" class="g1_4859"/>
<path d="M69.9,403.7H523.7V403H69.9v.7Z" class="g1_4859"/>
<path d="M69.9,428.2H523.7v-.8H69.9v.8Z" class="g1_4859"/>
<path d="M69.9,452.7h783v-.8H69.9v.8Z" class="g1_4859"/>
<path d="M69.9,477H523.7v-.7H69.9v.7Z" class="g1_4859"/>
<path d="M69.9,501.5H523.7v-.7H69.9v.7Z" class="g1_4859"/>
<path d="M69.9,526H523.7v-.8H69.9v.8Z" class="g1_4859"/>
<path d="M69.9,550.4h783v-.8H69.9v.8Z" class="g1_4859"/>
<path d="M69.9,574.8H523.7v-.7H69.9v.7Z" class="g1_4859"/>
<path d="M69.9,599.3H523.7v-.7H69.9v.7Z" class="g1_4859"/>
<path d="M69.9,623.7H523.7V623H69.9v.7Z" class="g1_4859"/>
<path d="M69.9,648.2h783v-.8H69.9v.8Z" class="g1_4859"/>
<path d="M69.9,672.7H523.7v-.8H69.9v.8Z" class="g1_4859"/>
<path d="M69.9,697H523.7v-.7H69.9v.7Z" class="g1_4859"/>
<path d="M69.9,721.5H523.7v-.7H69.9v.7Z" class="g1_4859"/>
<path d="M69.9,746h783v-.8H69.9v.8Z" class="g1_4859"/>
<path d="M69.9,770.4H523.7v-.8H69.9v.8Z" class="g1_4859"/>
<path d="M69.9,794.8H523.7v-.7H69.9v.7Z" class="g1_4859"/>
<path d="M69.9,819.3H523.7v-.7H69.9v.7Z" class="g1_4859"/>
<path d="M69.9,843.7h783V843H69.9v.7Z" class="g1_4859"/>
<path d="M69.9,868.2H523.7v-.8H69.9v.8Z" class="g1_4859"/>
<path d="M69.9,892.7H523.7v-.8H69.9v.8Z" class="g1_4859"/>
<path d="M69.9,917H523.7v-.7H69.9v.7Z" class="g1_4859"/>
<path d="M69.9,944.5h783v-.7H69.9v.7Z" class="g1_4859"/>
<path d="M69.9,969H523.7v-.7H69.9v.7Z" class="g1_4859"/>
<path d="M69.9,993.5H523.7v-.7H69.9v.7Z" class="g1_4859"/>
<path d="M69.9,1017.9H523.7v-.8H69.9v.8Z" class="g1_4859"/>
<path d="M69.9,1042.3h783v-.7H69.9v.7Z" class="g1_4859"/>
</svg>