<?xml version="1.0" encoding="UTF-8" standalone="no"?>
<!DOCTYPE svg PUBLIC "-//W3C//DTD SVG 1.1//EN"
"http://www.w3.org/Graphics/SVG/1.1/DTD/svg11.dtd">
<svg viewBox="0 0 935 1210" version="1.1" xmlns="http://www.w3.org/2000/svg" xmlns:xlink="http://www.w3.org/1999/xlink">
<defs>
<clipPath id="c0_560"><path d="M97.3,59.2V41.4h72.1V59.2Z"/></clipPath>
<style type="text/css"><![CDATA[
.g0_560{
fill: #000;
}
.g1_560{
fill: #FFF;
}
.g2_560{
fill: none;
stroke: #231F20;
stroke-width: 1.527;
}
.g3_560{
fill: none;
stroke: #231F20;
stroke-width: 0.763;
}
.g4_560{
fill: #231F20;
}
]]></style>
</defs>
<path d="M96.2,62.9v.3H838.7v-.3H96.2Z" class="g0_560"/>
<path d="M96.2,1114.1h-.1v.3h.1v-.3Z" class="g0_560"/>
<path d="M838.7,1114.1h.2v.3h-.2v-.3Z" class="g0_560"/>
<path d="M96.2,1114.1v.3H838.7v-.3H96.2Z" class="g0_560"/>
<image clip-path="url(#c0_560)" preserveAspectRatio="none" x="97" y="41" width="72" height="18" xlink:href="img/1.jpg"/>
<path d="M502.4,751.2c0,65.9,-53.4,119.2,-119.2,119.2C317.4,870.4,264,817.1,264,751.2c0,-65.8,53.4,-119.1,119.2,-119.1c65.8,0,119.2,53.3,119.2,119.1Z" class="g1_560"/>
<path d="M502.4,751.2c0,65.9,-53.4,119.2,-119.2,119.2C317.4,870.4,264,817.1,264,751.2c0,-65.8,53.4,-119.1,119.2,-119.1c65.8,0,119.2,53.3,119.2,119.1Z" class="g2_560"/>
<path d="M472.6,751.2c0,49.4,-40.1,89.4,-89.4,89.4c-49.4,0,-89.4,-40,-89.4,-89.4c0,-49.3,40,-89.3,89.4,-89.3c49.3,0,89.4,40,89.4,89.3Z" class="g1_560"/>
<path d="M472.6,751.2c0,49.4,-40.1,89.4,-89.4,89.4c-49.4,0,-89.4,-40,-89.4,-89.4c0,-49.3,40,-89.3,89.4,-89.3c49.3,0,89.4,40,89.4,89.3Z" class="g2_560"/>
<path d="M442.8,751.2c0,32.9,-26.7,59.6,-59.6,59.6c-32.9,0,-59.6,-26.7,-59.6,-59.6c0,-32.9,26.7,-59.5,59.6,-59.5c32.9,0,59.6,26.6,59.6,59.5Z" class="g1_560"/>
<path d="M442.8,751.2c0,32.9,-26.7,59.6,-59.6,59.6c-32.9,0,-59.6,-26.7,-59.6,-59.6c0,-32.9,26.7,-59.5,59.6,-59.5c32.9,0,59.6,26.6,59.6,59.5Z" class="g2_560"/>
<path d="M413,751.2c0,16.5,-13.4,29.8,-29.8,29.8c-16.5,0,-29.8,-13.3,-29.8,-29.8c0,-16.4,13.3,-29.8,29.8,-29.8c16.4,0,29.8,13.4,29.8,29.8Z" class="g1_560"/>
<path d="M413,751.2c0,16.5,-13.4,29.8,-29.8,29.8c-16.5,0,-29.8,-13.3,-29.8,-29.8c0,-16.4,13.3,-29.8,29.8,-29.8c16.4,0,29.8,13.4,29.8,29.8Z" class="g2_560"/>
<path d="M536,657H471.8l-80.5,75.6" class="g3_560"/>
<path d="M389.5,729.1l-2.2,7.3l7.5,-1.8l-5.3,-5.5Z" class="g4_560"/>
<path d="M536,747.2H430.5" class="g3_560"/>
<path d="M431.7,743.4l-6.6,3.8l6.6,3.8v-7.6Z" class="g4_560"/>
<path d="M523,747.2l-13,25.9H458" class="g3_560"/>
<path d="M459.2,769.3l-6.6,3.8l6.6,3.8v-7.6Z" class="g4_560"/>
<path d="M536,860.2H482.5L458,835.7" class="g3_560"/>
<path d="M461.5,833.8l-7.3,-2l1.9,7.4l5.4,-5.4Z" class="g4_560"/>
</svg>