<?xml version="1.0" encoding="UTF-8" standalone="no"?>
<!DOCTYPE svg PUBLIC "-//W3C//DTD SVG 1.1//EN"
"http://www.w3.org/Graphics/SVG/1.1/DTD/svg11.dtd">
<svg viewBox="0 0 935 1210" version="1.1" xmlns="http://www.w3.org/2000/svg" xmlns:xlink="http://www.w3.org/1999/xlink">
<defs>
<style type="text/css"><![CDATA[
.g0_1812{
fill: #FFF;
}
.g1_1812{
fill: #000;
}
]]></style>
</defs>
<path d="M165,1149.3H852.5v-21.2H165v21.2Z" class="g0_1812"/>
<path d="M68.8,1149.3h82.5v-21.2H68.8v21.2Z" class="g0_1812"/>
<path d="M68.6,1085.9h.7V131.8h-.7v954.1Z" class="g1_1812"/>
<path d="M217.6,1086.7h.8V131h-.8v955.7Z" class="g1_1812"/>
<path d="M386.7,1086.7h.7V131h-.7v955.7Z" class="g1_1812"/>
<path d="M424.5,1086.7h.7V131h-.7v955.7Z" class="g1_1812"/>
<path d="M497.9,1086.7h.8V131h-.8v955.7Z" class="g1_1812"/>
<path d="M569.3,1086.7h.8V131h-.8v955.7Z" class="g1_1812"/>
<path d="M845.4,1085.9h.7V131.8h-.7v954.1Z" class="g1_1812"/>
<path d="M68.6,131.7H846.1V131H68.6v.7Z" class="g1_1812"/>
<path d="M68.6,169.9H846.1v-.7H68.6v.7Z" class="g1_1812"/>
<path d="M68.6,192.9H846.1v-.8H68.6v.8Z" class="g1_1812"/>
<path d="M68.6,215.8H846.1v-.7H68.6v.7Z" class="g1_1812"/>
<path d="M68.6,238.7H846.1V238H68.6v.7Z" class="g1_1812"/>
<path d="M68.6,261.6H846.1v-.7H68.6v.7Z" class="g1_1812"/>
<path d="M68.6,284.5H846.1v-.7H68.6v.7Z" class="g1_1812"/>
<path d="M68.6,307.4H846.1v-.7H68.6v.7Z" class="g1_1812"/>
<path d="M68.6,330.4H846.1v-.8H68.6v.8Z" class="g1_1812"/>
<path d="M68.6,353.3H846.1v-.7H68.6v.7Z" class="g1_1812"/>
<path d="M68.6,376.2H846.1v-.7H68.6v.7Z" class="g1_1812"/>
<path d="M68.6,399.1H846.1v-.7H68.6v.7Z" class="g1_1812"/>
<path d="M68.6,422H846.1v-.7H68.6v.7Z" class="g1_1812"/>
<path d="M68.6,444.9H846.1v-.7H68.6v.7Z" class="g1_1812"/>
<path d="M68.6,467.9H846.1v-.8H68.6v.8Z" class="g1_1812"/>
<path d="M68.6,490.8H846.1v-.7H68.6v.7Z" class="g1_1812"/>
<path d="M68.6,513.7H846.1V513H68.6v.7Z" class="g1_1812"/>
<path d="M68.6,536.6H846.1v-.7H68.6v.7Z" class="g1_1812"/>
<path d="M68.6,559.5H846.1v-.7H68.6v.7Z" class="g1_1812"/>
<path d="M68.6,582.4H846.1v-.7H68.6v.7Z" class="g1_1812"/>
<path d="M68.6,605.4H846.1v-.8H68.6v.8Z" class="g1_1812"/>
<path d="M68.6,628.3H846.1v-.7H68.6v.7Z" class="g1_1812"/>
<path d="M68.6,651.2H846.1v-.7H68.6v.7Z" class="g1_1812"/>
<path d="M68.6,674.1H846.1v-.7H68.6v.7Z" class="g1_1812"/>
<path d="M68.6,697H846.1v-.7H68.6v.7Z" class="g1_1812"/>
<path d="M68.6,719.9H846.1v-.7H68.6v.7Z" class="g1_1812"/>
<path d="M68.6,742.9H846.1v-.8H68.6v.8Z" class="g1_1812"/>
<path d="M68.6,765.8H846.1V765H68.6v.8Z" class="g1_1812"/>
<path d="M68.6,788.7H846.1V788H68.6v.7Z" class="g1_1812"/>
<path d="M68.6,811.6H846.1v-.7H68.6v.7Z" class="g1_1812"/>
<path d="M68.6,834.5H846.1v-.7H68.6v.7Z" class="g1_1812"/>
<path d="M68.6,857.5H846.1v-.8H68.6v.8Z" class="g1_1812"/>
<path d="M68.6,880.4H846.1v-.8H68.6v.8Z" class="g1_1812"/>
<path d="M68.6,903.3H846.1v-.7H68.6v.7Z" class="g1_1812"/>
<path d="M68.6,926.2H846.1v-.7H68.6v.7Z" class="g1_1812"/>
<path d="M68.6,949.1H846.1v-.7H68.6v.7Z" class="g1_1812"/>
<path d="M68.6,972H846.1v-.7H68.6v.7Z" class="g1_1812"/>
<path d="M68.6,995H846.1v-.8H68.6v.8Z" class="g1_1812"/>
<path d="M68.6,1017.9H846.1v-.8H68.6v.8Z" class="g1_1812"/>
<path d="M68.6,1040.8H846.1v-.8H68.6v.8Z" class="g1_1812"/>
<path d="M68.6,1063.7H846.1v-.7H68.6v.7Z" class="g1_1812"/>
<path d="M68.6,1086.6H846.1v-.7H68.6v.7Z" class="g1_1812"/>
</svg>