<?xml version="1.0" encoding="UTF-8" standalone="no"?>
<!DOCTYPE svg PUBLIC "-//W3C//DTD SVG 1.1//EN"
"http://www.w3.org/Graphics/SVG/1.1/DTD/svg11.dtd">
<svg viewBox="0 0 935 1210" version="1.1" xmlns="http://www.w3.org/2000/svg" xmlns:xlink="http://www.w3.org/1999/xlink">
<defs>
<clipPath id="c0_2006"><path d="M766.6,59.2V41.4h72.2V59.2Z"/></clipPath>
<style type="text/css"><![CDATA[
.g0_2006{
fill: #000;
}
]]></style>
</defs>
<path d="M97.4,63.3H839.9v-.4H97.4v.4Z" class="g0_2006"/>
<path d="M96.1,1114.5h.2v-.4h-.2v.4Z" class="g0_2006"/>
<path d="M96.3,1114.5H838.9v-.4H96.3v.4Z" class="g0_2006"/>
<image clip-path="url(#c0_2006)" preserveAspectRatio="none" x="767" y="41" width="72" height="18" xlink:href="img/1.jpg"/>
<path d="M565.2,922.3h31.5v-1.1H565.2v1.1Z" class="g0_2006"/>
<path d="M699.2,922.3h20.4v-1.1H699.2v1.1Z" class="g0_2006"/>
<path d="M95.9,684.1h.7v-68h-.7v68Z" class="g0_2006"/>
<path d="M266.6,684.8h.7V615.4h-.7v69.4Z" class="g0_2006"/>
<path d="M326.7,684.8h.7V615.4h-.7v69.4Z" class="g0_2006"/>
<path d="M840.1,684.1h.8v-68h-.8v68Z" class="g0_2006"/>
<path d="M95.9,616.1h745v-.7H95.9v.7Z" class="g0_2006"/>
<path d="M95.9,640.2h745v-3H95.9v3Z" class="g0_2006"/>
<path d="M95.9,661.9h745v-.7H95.9v.7Z" class="g0_2006"/>
<path d="M95.9,684.8h745v-.7H95.9v.7Z" class="g0_2006"/>
</svg>