<?xml version="1.0" encoding="UTF-8" standalone="no"?>
<!DOCTYPE svg PUBLIC "-//W3C//DTD SVG 1.1//EN"
"http://www.w3.org/Graphics/SVG/1.1/DTD/svg11.dtd">
<svg viewBox="0 0 935 1210" version="1.1" xmlns="http://www.w3.org/2000/svg" xmlns:xlink="http://www.w3.org/1999/xlink">
<defs>
<clipPath id="c0_1080"><path d="M97.3,59.2V41.4h72.1V59.2Z"/></clipPath>
<style type="text/css"><![CDATA[
.g0_1080{
fill: #000;
}
.g1_1080{
fill: #E5E5E5;
}
]]></style>
</defs>
<path d="M96.2,62.9v.3H838.7v-.3H96.2Z" class="g0_1080"/>
<path d="M96.2,1114.1h-.1v.3h.1v-.3Z" class="g0_1080"/>
<path d="M838.7,1114.1h.2v.3h-.2v-.3Z" class="g0_1080"/>
<path d="M96.2,1114.1v.3H838.7v-.3H96.2Z" class="g0_1080"/>
<image clip-path="url(#c0_1080)" preserveAspectRatio="none" x="97" y="41" width="72" height="18" xlink:href="img/1.jpg"/>
<path d="M281.9,337.6H838.7v53.5H281.9V337.6Z" class="g1_1080"/>
<path d="M96.2,452.2h46.2v19.9H96.2V452.2Z" class="g1_1080"/>
<path d="M142.4,452.2h76.8v19.9H142.4V452.2Z" class="g1_1080"/>
<path d="M219.2,452.2H462.8v19.9H219.2V452.2Z" class="g1_1080"/>
<path d="M462.8,452.2h82.5v19.9H462.8V452.2Z" class="g1_1080"/>
<path d="M119.4,838.7H281.9v55H119.4v-55Z" class="g1_1080"/>
<path d="M467.5,838.7H653.1v55H467.5v-55Z" class="g1_1080"/>
<path d="M96.2,954.9h46.2v19.8H96.2V954.9Z" class="g1_1080"/>
<path d="M142.4,954.9h76.8v19.8H142.4V954.9Z" class="g1_1080"/>
<path d="M219.2,954.9H485.7v19.8H219.2V954.9Z" class="g1_1080"/>
<path d="M485.7,954.9h82.5v19.8H485.7V954.9Z" class="g1_1080"/>
<path d="M96.2,994.5h46.2v19.9H96.2V994.5Z" class="g1_1080"/>
<path d="M142.4,994.5h76.8v19.9H142.4V994.5Z" class="g1_1080"/>
<path d="M219.2,994.5H485.7v19.9H219.2V994.5Z" class="g1_1080"/>
<path d="M485.7,994.5h82.5v19.9H485.7V994.5Z" class="g1_1080"/>
<path d="M96.6,338h-.7v51.6h.7V338Z" class="g0_1080"/>
<path d="M282.2,337.2h-.7v55.4h.7V337.2Z" class="g0_1080"/>
<path d="M840.3,338h-3.1v51.6h3.1V338Z" class="g0_1080"/>
<path d="M95.9,337.2v.8H840.3v-.8H95.9Z" class="g0_1080"/>
<path d="M95.9,389.7v3H840.3v-3H95.9Z" class="g0_1080"/>
<path d="M96.2,432v.7H545.3V432H96.2Z" class="g0_1080"/>
<path d="M96.2,471.7v.7H545.3v-.7H96.2Z" class="g0_1080"/>
<path d="M96.6,839.1h-.7v53.1h.7V839.1Z" class="g0_1080"/>
<path d="M119.8,838.3h-.7v57h.7v-57Z" class="g0_1080"/>
<path d="M282.2,838.3h-.7v57h.7v-57Z" class="g0_1080"/>
<path d="M467.8,838.3h-.7v57h.7v-57Z" class="g0_1080"/>
<path d="M653.5,838.3h-.8v57h.8v-57Z" class="g0_1080"/>
<path d="M840.3,839.1h-3.1v53.1h3.1V839.1Z" class="g0_1080"/>
<path d="M95.9,838.3v.8H840.3v-.8H95.9Z" class="g0_1080"/>
<path d="M95.9,892.2v3.1H840.3v-3.1H95.9Z" class="g0_1080"/>
<path d="M96.2,934.6v.7h472v-.7H96.2Z" class="g0_1080"/>
<path d="M96.2,1034v.7h472v-.7H96.2Z" class="g0_1080"/>
</svg>