<?xml version="1.0" encoding="UTF-8" standalone="no"?>
<!DOCTYPE svg PUBLIC "-//W3C//DTD SVG 1.1//EN"
"http://www.w3.org/Graphics/SVG/1.1/DTD/svg11.dtd">
<svg viewBox="0 0 935 1210" version="1.1" xmlns="http://www.w3.org/2000/svg" xmlns:xlink="http://www.w3.org/1999/xlink">
<defs>
<style type="text/css"><![CDATA[
.g0_1039{
fill: #FFF;
}
.g1_1039{
fill: #000;
}
]]></style>
</defs>
<path d="M68.9,1149.3H852.7v-21.2H68.9v21.2Z" class="g0_1039"/>
<path d="M72.1,802.7H850.7V773.1H72.1v29.6Z" class="g0_1039"/>
<path d="M73,796h53.5V783.6H73V796Z" class="g0_1039"/>
<path d="M71.7,772.7h.7V131.8h-.7V772.7Z" class="g1_1039"/>
<path d="M184.2,773.5h.8V131h-.8V773.5Z" class="g1_1039"/>
<path d="M850.3,772.7h.7V131.8h-.7V772.7Z" class="g1_1039"/>
<path d="M71.7,131.7H851V131H71.7v.7Z" class="g1_1039"/>
<path d="M71.7,160.8H851v-.7H71.7v.7Z" class="g1_1039"/>
<path d="M71.7,276.9H851v-.7H71.7v.7Z" class="g1_1039"/>
<path d="M71.7,356.3H851v-.7H71.7v.7Z" class="g1_1039"/>
<path d="M71.7,419H851v-.7H71.7v.7Z" class="g1_1039"/>
<path d="M71.7,498.5H851v-.8H71.7v.8Z" class="g1_1039"/>
<path d="M71.7,527.4H851v-.7H71.7v.7Z" class="g1_1039"/>
<path d="M71.7,556.5H851v-.7H71.7v.7Z" class="g1_1039"/>
<path d="M71.7,636H851v-.8H71.7v.8Z" class="g1_1039"/>
<path d="M71.7,664.9H851v-.7H71.7v.7Z" class="g1_1039"/>
<path d="M71.7,744.4H851v-.7H71.7v.7Z" class="g1_1039"/>
<path d="M71.7,773.5H851v-.7H71.7v.7Z" class="g1_1039"/>
</svg>