<?xml version="1.0" encoding="UTF-8" standalone="no"?>
<!DOCTYPE svg PUBLIC "-//W3C//DTD SVG 1.1//EN"
"http://www.w3.org/Graphics/SVG/1.1/DTD/svg11.dtd">
<svg viewBox="0 0 935 1210" version="1.1" xmlns="http://www.w3.org/2000/svg" xmlns:xlink="http://www.w3.org/1999/xlink">
<defs>
<clipPath id="c0_2226"><path d="M766.6,59.2V41.4h72.2V59.2Z"/></clipPath>
<style type="text/css"><![CDATA[
.g0_2226{
fill: #000;
}
]]></style>
</defs>
<path d="M97.4,63.3H839.9v-.4H97.4v.4Z" class="g0_2226"/>
<path d="M96.1,1114.5h.2v-.4h-.2v.4Z" class="g0_2226"/>
<path d="M96.3,1114.5H838.9v-.4H96.3v.4Z" class="g0_2226"/>
<image clip-path="url(#c0_2226)" preserveAspectRatio="none" x="767" y="41" width="72" height="18" xlink:href="img/1.jpg"/>
<path d="M559.1,1036.8h31.3v-1.1H559.1v1.1Z" class="g0_2226"/>
<path d="M684.9,1036.8h20.4v-1.1H684.9v1.1Z" class="g0_2226"/>
<path d="M705.3,1036.8h8.4v-1.1h-8.4v1.1Z" class="g0_2226"/>
<path d="M559.1,1059.8h31.3v-1.1H559.1v1.1Z" class="g0_2226"/>
<path d="M684.9,1059.8h20.4v-1.1H684.9v1.1Z" class="g0_2226"/>
<path d="M705.3,1059.8h8.4v-1.1h-8.4v1.1Z" class="g0_2226"/>
<path d="M95.9,813.9h.7V723.1h-.7v90.8Z" class="g0_2226"/>
<path d="M262.7,814.7h.8V722.2h-.8v92.5Z" class="g0_2226"/>
<path d="M340.1,814.7h.7V722.2h-.7v92.5Z" class="g0_2226"/>
<path d="M839.1,813.9h.7V723.1h-.7v90.8Z" class="g0_2226"/>
<path d="M95.9,723h744v-.8H95.9v.8Z" class="g0_2226"/>
<path d="M95.9,747.1h744v-3H95.9v3Z" class="g0_2226"/>
<path d="M95.9,768.8h744v-.7H95.9v.7Z" class="g0_2226"/>
<path d="M95.9,791.7h744V791H95.9v.7Z" class="g0_2226"/>
<path d="M95.9,814.6h744v-.7H95.9v.7Z" class="g0_2226"/>
</svg>