<?xml version="1.0" encoding="UTF-8" standalone="no"?>
<!DOCTYPE svg PUBLIC "-//W3C//DTD SVG 1.1//EN"
"http://www.w3.org/Graphics/SVG/1.1/DTD/svg11.dtd">
<svg viewBox="0 0 935 1210" version="1.1" xmlns="http://www.w3.org/2000/svg" xmlns:xlink="http://www.w3.org/1999/xlink">
<defs>
<clipPath id="c0_1968"><path d="M766.6,59.2V41.4h72.2V59.2Z"/></clipPath>
<style type="text/css"><![CDATA[
.g0_1968{
fill: #000;
}
.g1_1968{
fill: #231F20;
}
.g2_1968{
fill: none;
stroke: #231F20;
stroke-width: 1.527;
}
.g3_1968{
fill: #FFF;
}
.g4_1968{
fill: none;
stroke: #231F20;
stroke-width: 0.763;
}
]]></style>
</defs>
<path d="M97.4,63.3H839.9v-.4H97.4v.4Z" class="g0_1968"/>
<path d="M96.1,1114.5h.2v-.4h-.2v.4Z" class="g0_1968"/>
<path d="M96.3,1114.5H838.9v-.4H96.3v.4Z" class="g0_1968"/>
<image clip-path="url(#c0_1968)" preserveAspectRatio="none" x="767" y="41" width="72" height="18" xlink:href="img/1.jpg"/>
<path d="M792.2,684.1h10.2V683H792.2v1.1Z" class="g0_1968"/>
<path d="M785.1,757.4h10.2v-1.1H785.1v1.1Z" class="g0_1968"/>
<path d="M644.9,936.2h10.2v-1.1H644.9v1.1Z" class="g0_1968"/>
<path d="M102.4,1070.7h10.2v-1.1H102.4v1.1Z" class="g0_1968"/>
<path d="M561.4,403.1h98.5v-22H561.4v22Z" class="g1_1968"/>
<path d="M659.9,403.1H561.4v-22h98.5v22Z" class="g2_1968"/>
<path d="M462.8,403.1h98.6v-22H462.8v22Z" class="g1_1968"/>
<path d="M561.4,403.1H462.8v-22h98.6v22Z" class="g2_1968"/>
<path d="M397.1,403.1h66v-22h-66v22Z" class="g1_1968"/>
<path d="M463.1,403.1h-66v-22h66v22Z" class="g2_1968"/>
<path d="M559.2,400.9h98.5v-22H559.2v22Z" class="g3_1968"/>
<path d="M657.7,400.9H559.2v-22h98.5v22Z" class="g2_1968"/>
<path d="M460.6,400.9h98.6v-22H460.6v22Z" class="g3_1968"/>
<path d="M559.2,400.9H460.6v-22h98.6v22Z" class="g2_1968"/>
<path d="M394.9,400.9h66v-22h-66v22Z" class="g3_1968"/>
<path d="M460.9,400.9h-66v-22h66v22Z" class="g2_1968"/>
<path d="M467.6,411.6v18.3H444.7" class="g4_1968"/>
<path d="M471.5,412.7l-3.8,-6.6l-3.9,6.6h7.7Z" class="g1_1968"/>
<path d="M567,411.6V498H444.7" class="g4_1968"/>
<path d="M570.8,412.7L567,406.1l-3.8,6.6h7.6Z" class="g1_1968"/>
</svg>