<?xml version="1.0" encoding="UTF-8" standalone="no"?>
<!DOCTYPE svg PUBLIC "-//W3C//DTD SVG 1.1//EN"
"http://www.w3.org/Graphics/SVG/1.1/DTD/svg11.dtd">
<svg viewBox="0 0 935 1210" version="1.1" xmlns="http://www.w3.org/2000/svg" xmlns:xlink="http://www.w3.org/1999/xlink">
<defs>
<style type="text/css"><![CDATA[
.g0_3481{
fill: #FFF;
}
.g1_3481{
fill: #000;
}
]]></style>
</defs>
<path d="M68.9,1149.3H852.7v-21.2H68.9v21.2Z" class="g0_3481"/>
<path d="M70.3,793.6H850.7V764H70.3v29.6Z" class="g0_3481"/>
<path d="M71.2,786.9h53.6V774.4H71.2v12.5Z" class="g0_3481"/>
<path d="M69.9,739.1h.8V477h-.8V739.1Z" class="g1_3481"/>
<path d="M161.5,739.8h.8v-239h-.8v239Z" class="g1_3481"/>
<path d="M301.1,739.8h.8V476.3h-.8V739.8Z" class="g1_3481"/>
<path d="M398.3,739.8h.7V476.3h-.7V739.8Z" class="g1_3481"/>
<path d="M441.4,739.8h.7v-239h-.7v239Z" class="g1_3481"/>
<path d="M504.9,739.8h.7v-239h-.7v239Z" class="g1_3481"/>
<path d="M545.9,739.8h.7V476.3h-.7V739.8Z" class="g1_3481"/>
<path d="M850.3,739.1h.7V477h-.7V739.1Z" class="g1_3481"/>
<path d="M69.9,477H851v-.7H69.9v.7Z" class="g1_3481"/>
<path d="M69.9,501.5H546.6v-.7H69.9v.7Z" class="g1_3481"/>
<path d="M69.9,559.5H851v-.7H69.9v.7Z" class="g1_3481"/>
<path d="M69.9,584H851v-.7H69.9v.7Z" class="g1_3481"/>
<path d="M69.9,608.5H851v-.8H69.9v.8Z" class="g1_3481"/>
<path d="M69.9,632.9H851v-.8H69.9v.8Z" class="g1_3481"/>
<path d="M69.9,674.1H851v-.7H69.9v.7Z" class="g1_3481"/>
<path d="M69.9,715.4H851v-.8H69.9v.8Z" class="g1_3481"/>
<path d="M69.9,739.8H851v-.7H69.9v.7Z" class="g1_3481"/>
</svg>