<?xml version="1.0" encoding="UTF-8" standalone="no"?>
<!DOCTYPE svg PUBLIC "-//W3C//DTD SVG 1.1//EN"
"http://www.w3.org/Graphics/SVG/1.1/DTD/svg11.dtd">
<svg viewBox="0 0 935 1210" version="1.1" xmlns="http://www.w3.org/2000/svg" xmlns:xlink="http://www.w3.org/1999/xlink">
<defs>
<style type="text/css"><![CDATA[
.g0_19{
fill: #000;
}
]]></style>
</defs>
<path d="M113.1,956h.8V134.8h-.8V956Z" class="g0_19"/>
<path d="M223.1,640.6h.7V134h-.7V640.6Z" class="g0_19"/>
<path d="M223.1,956.8h.7V639.7h-.7V956.8Z" class="g0_19"/>
<path d="M516.1,640.6h.7V134h-.7V640.6Z" class="g0_19"/>
<path d="M516.1,739.8h.7V698.2h-.7v41.6Z" class="g0_19"/>
<path d="M516.1,956.8h.7V780.7h-.7V956.8Z" class="g0_19"/>
<path d="M821.1,639.7h.8V134.8h-.8V639.7Z" class="g0_19"/>
<path d="M821.1,956h.8V640.6h-.8V956Z" class="g0_19"/>
<path d="M113.1,134.8H821.9V134H113.1v.8Z" class="g0_19"/>
<path d="M113.8,177.2H821.1v-.7H113.8v.7Z" class="g0_19"/>
<path d="M113.8,181H821.1v-.7H113.8v.7Z" class="g0_19"/>
<path d="M113.1,640.5H223.9v-.8H113.1v.8Z" class="g0_19"/>
<path d="M223.1,640.5H821.9v-.8H223.1v.8Z" class="g0_19"/>
<path d="M223.1,739.8H821.9v-.7H223.1v.7Z" class="g0_19"/>
<path d="M113.1,956.7h110V956h-110v.7Z" class="g0_19"/>
<path d="M223.9,956.7h598V956h-598v.7Z" class="g0_19"/>
</svg>