<?xml version="1.0" encoding="UTF-8" standalone="no"?>
<!DOCTYPE svg PUBLIC "-//W3C//DTD SVG 1.1//EN"
"http://www.w3.org/Graphics/SVG/1.1/DTD/svg11.dtd">
<svg viewBox="0 0 935 1210" version="1.1" xmlns="http://www.w3.org/2000/svg" xmlns:xlink="http://www.w3.org/1999/xlink">
<defs>
<style type="text/css"><![CDATA[
.g0_892{
fill: #FFF;
}
.g1_892{
fill: #000;
}
]]></style>
</defs>
<path d="M165,1149.3H852.5v-21.2H165v21.2Z" class="g0_892"/>
<path d="M68.8,1149.3h82.5v-21.2H68.8v21.2Z" class="g0_892"/>
<path d="M68.9,446.7H852V417.1H68.9v29.6Z" class="g0_892"/>
<path d="M69.9,440h53.5V427.6H69.9V440Z" class="g0_892"/>
<path d="M68.6,416.7h.7v-291h-.7v291Z" class="g1_892"/>
<path d="M326.6,417.4h.7V124.9h-.7V417.4Z" class="g1_892"/>
<path d="M375.9,417.4h.8V124.9h-.8V417.4Z" class="g1_892"/>
<path d="M450.4,417.4h.7V124.9h-.7V417.4Z" class="g1_892"/>
<path d="M531.2,417.4h.7V124.9h-.7V417.4Z" class="g1_892"/>
<path d="M851.6,416.7h.7v-291h-.7v291Z" class="g1_892"/>
<path d="M68.6,125.7H852.3v-.8H68.6v.8Z" class="g1_892"/>
<path d="M68.6,179.1H852.3v-.7H68.6v.7Z" class="g1_892"/>
<path d="M68.6,218.8H852.3v-.7H68.6v.7Z" class="g1_892"/>
<path d="M68.6,258.6H852.3v-.7H68.6v.7Z" class="g1_892"/>
<path d="M68.6,298.3H852.3v-.7H68.6v.7Z" class="g1_892"/>
<path d="M68.6,338H852.3v-.8H68.6v.8Z" class="g1_892"/>
<path d="M68.6,377.8H852.3V377H68.6v.8Z" class="g1_892"/>
<path d="M68.6,417.4H852.3v-.7H68.6v.7Z" class="g1_892"/>
<path d="M68.6,618.9h.7v-97h-.7v97Z" class="g1_892"/>
<path d="M147.9,619.8h.8V521.2h-.8v98.6Z" class="g1_892"/>
<path d="M241.2,619.8h.7V521.2h-.7v98.6Z" class="g1_892"/>
<path d="M394,619.8h.7V521.2H394v98.6Z" class="g1_892"/>
<path d="M543.3,619.8h.7V521.2h-.7v98.6Z" class="g1_892"/>
<path d="M696.5,619.8h.7V521.2h-.7v98.6Z" class="g1_892"/>
<path d="M853,618.9h.7v-97H853v97Z" class="g1_892"/>
<path d="M68.6,522H853.7v-.8H68.6v.8Z" class="g1_892"/>
<path d="M68.6,546.3H853.7v-.7H68.6v.7Z" class="g1_892"/>
<path d="M68.6,570.8H853.7v-.7H68.6v.7Z" class="g1_892"/>
<path d="M68.6,595.3H853.7v-.7H68.6v.7Z" class="g1_892"/>
<path d="M68.6,619.8H853.7V619H68.6v.8Z" class="g1_892"/>
</svg>