<?xml version="1.0" encoding="UTF-8" standalone="no"?>
<!DOCTYPE svg PUBLIC "-//W3C//DTD SVG 1.1//EN"
"http://www.w3.org/Graphics/SVG/1.1/DTD/svg11.dtd">
<svg viewBox="0 0 935 1210" version="1.1" xmlns="http://www.w3.org/2000/svg" xmlns:xlink="http://www.w3.org/1999/xlink">
<defs>
<style type="text/css"><![CDATA[
.g0_1135{
fill: #FFF;
}
.g1_1135{
fill: #000;
}
]]></style>
</defs>
<path d="M68.9,1149.3H755.2v-21.2H68.9v21.2Z" class="g0_1135"/>
<path d="M771.3,1149.3H855v-21.2H771.3v21.2Z" class="g0_1135"/>
<path d="M70.3,1064.9v-.7Z" class="g1_1135"/>
<path d="M70.3,1064.9H290.7v-.7H70.3v.7Z" class="g1_1135"/>
<path d="M69.9,231.8h.8V125.7h-.8V231.8Z" class="g1_1135"/>
<path d="M220.6,232.7h.7V124.9h-.7V232.7Z" class="g1_1135"/>
<path d="M391.5,232.7h.7V124.9h-.7V232.7Z" class="g1_1135"/>
<path d="M429.4,232.7h.7V124.9h-.7V232.7Z" class="g1_1135"/>
<path d="M502.7,232.7h.7V124.9h-.7V232.7Z" class="g1_1135"/>
<path d="M574.1,232.7h.7V124.9h-.7V232.7Z" class="g1_1135"/>
<path d="M852.4,231.8h.7V125.7h-.7V231.8Z" class="g1_1135"/>
<path d="M69.9,125.7H853.1v-.8H69.9v.8Z" class="g1_1135"/>
<path d="M69.9,163.8H853.1v-.7H69.9v.7Z" class="g1_1135"/>
<path d="M69.9,186.7H853.1V186H69.9v.7Z" class="g1_1135"/>
<path d="M69.9,209.6H853.1v-.7H69.9v.7Z" class="g1_1135"/>
<path d="M69.9,232.6H853.1v-.8H69.9v.8Z" class="g1_1135"/>
<path d="M69.9,335.8h.8V287.7h-.8v48.1Z" class="g1_1135"/>
<path d="M140.1,336.5h.7V286.8h-.7v49.7Z" class="g1_1135"/>
<path d="M315,336.5h.7V286.8H315v49.7Z" class="g1_1135"/>
<path d="M492,336.5h.7V286.8H492v49.7Z" class="g1_1135"/>
<path d="M674.1,336.5h.7V286.8h-.7v49.7Z" class="g1_1135"/>
<path d="M849.8,335.8h.8V287.7h-.8v48.1Z" class="g1_1135"/>
<path d="M69.9,287.6H850.6v-.8H69.9v.8Z" class="g1_1135"/>
<path d="M69.9,312H850.6v-.7H69.9v.7Z" class="g1_1135"/>
<path d="M69.9,336.5H850.6v-.7H69.9v.7Z" class="g1_1135"/>
</svg>