<?xml version="1.0" encoding="UTF-8" standalone="no"?>
<!DOCTYPE svg PUBLIC "-//W3C//DTD SVG 1.1//EN"
"http://www.w3.org/Graphics/SVG/1.1/DTD/svg11.dtd">
<svg viewBox="0 0 935 1210" version="1.1" xmlns="http://www.w3.org/2000/svg" xmlns:xlink="http://www.w3.org/1999/xlink">
<defs>
<style type="text/css"><![CDATA[
.g0_4258{
fill: #FFF;
}
.g1_4258{
fill: #000;
}
]]></style>
</defs>
<path d="M68.8,1149.3H852.5v-21.2H68.8v21.2Z" class="g0_4258"/>
<path d="M65.8,644.3h.8V124.1h-.8V644.3Z" class="g1_4258"/>
<path d="M195.7,582.4h.7v-459h-.7v459Z" class="g1_4258"/>
<path d="M289.3,622.2h.7V123.4h-.7V622.2Z" class="g1_4258"/>
<path d="M544.2,622.2h.8V123.4h-.8V622.2Z" class="g1_4258"/>
<path d="M657.5,622.2h.8V123.4h-.8V622.2Z" class="g1_4258"/>
<path d="M766.6,622.2h.7V123.4h-.7V622.2Z" class="g1_4258"/>
<path d="M854.6,644.3h.7V124.1h-.7V644.3Z" class="g1_4258"/>
<path d="M65.8,124.1H855.3v-.7H65.8v.7Z" class="g1_4258"/>
<path d="M65.8,147H855.3v-.7H65.8v.7Z" class="g1_4258"/>
<path d="M65.8,169.9H855.3v-.7H65.8v.7Z" class="g1_4258"/>
<path d="M65.8,192.9H855.3v-.8H65.8v.8Z" class="g1_4258"/>
<path d="M65.8,215.8H855.3v-.7H65.8v.7Z" class="g1_4258"/>
<path d="M65.8,238.7H855.3V238H65.8v.7Z" class="g1_4258"/>
<path d="M65.8,261.6H855.3v-.7H65.8v.7Z" class="g1_4258"/>
<path d="M65.8,284.5H855.3v-.7H65.8v.7Z" class="g1_4258"/>
<path d="M65.8,307.4H855.3v-.7H65.8v.7Z" class="g1_4258"/>
<path d="M65.8,330.4H855.3v-.8H65.8v.8Z" class="g1_4258"/>
<path d="M65.8,353.3H855.3v-.7H65.8v.7Z" class="g1_4258"/>
<path d="M65.8,376.2H855.3v-.7H65.8v.7Z" class="g1_4258"/>
<path d="M65.8,399.1H855.3v-.7H65.8v.7Z" class="g1_4258"/>
<path d="M65.8,422H855.3v-.7H65.8v.7Z" class="g1_4258"/>
<path d="M65.8,444.9H855.3v-.7H65.8v.7Z" class="g1_4258"/>
<path d="M65.8,467.9H855.3v-.8H65.8v.8Z" class="g1_4258"/>
<path d="M65.8,490.8H855.3v-.7H65.8v.7Z" class="g1_4258"/>
<path d="M65.8,513.7H855.3V513H65.8v.7Z" class="g1_4258"/>
<path d="M65.8,536.6H855.3v-.7H65.8v.7Z" class="g1_4258"/>
<path d="M65.8,559.5H855.3v-.7H65.8v.7Z" class="g1_4258"/>
<path d="M65.8,582.4H855.3v-.7H65.8v.7Z" class="g1_4258"/>
<path d="M65.8,622.2H855.3v-.7H65.8v.7Z" class="g1_4258"/>
<path d="M65.8,645.2H855.3v-.8H65.8v.8Z" class="g1_4258"/>
</svg>