<?xml version="1.0" encoding="UTF-8" standalone="no"?>
<!DOCTYPE svg PUBLIC "-//W3C//DTD SVG 1.1//EN"
"http://www.w3.org/Graphics/SVG/1.1/DTD/svg11.dtd">
<svg viewBox="0 0 935 1210" version="1.1" xmlns="http://www.w3.org/2000/svg" xmlns:xlink="http://www.w3.org/1999/xlink">
<defs>
<style type="text/css"><![CDATA[
.g0_1616{
fill: #FFF;
}
.g1_1616{
fill: #000;
}
]]></style>
</defs>
<path d="M165,1149.3H852.5v-21.2H165v21.2Z" class="g0_1616"/>
<path d="M68.8,1149.3h82.5v-21.2H68.8v21.2Z" class="g0_1616"/>
<path d="M68.6,364.7h.7v-239h-.7v239Z" class="g1_1616"/>
<path d="M303.2,179.1h.8V124.9h-.8v54.2Z" class="g1_1616"/>
<path d="M303.2,365.6h.8V178.4h-.8V365.6Z" class="g1_1616"/>
<path d="M346,179.1h.8V124.9H346v54.2Z" class="g1_1616"/>
<path d="M346,365.6h.8V178.4H346V365.6Z" class="g1_1616"/>
<path d="M419.4,179.1h.7V124.9h-.7v54.2Z" class="g1_1616"/>
<path d="M419.4,365.6h.7V178.4h-.7V365.6Z" class="g1_1616"/>
<path d="M544.2,365.6h.8V124.9h-.8V365.6Z" class="g1_1616"/>
<path d="M849.8,364.7h.8v-239h-.8v239Z" class="g1_1616"/>
<path d="M68.6,125.7h782v-.8H68.6v.8Z" class="g1_1616"/>
<path d="M68.6,179.1H545v-.7H68.6v.7Z" class="g1_1616"/>
<path d="M544.2,179.1H850.6v-.7H544.2v.7Z" class="g1_1616"/>
<path d="M68.6,235.7H545v-.8H68.6v.8Z" class="g1_1616"/>
<path d="M544.2,235.7H850.6v-.8H544.2v.8Z" class="g1_1616"/>
<path d="M68.6,292.1H545v-.7H68.6v.7Z" class="g1_1616"/>
<path d="M544.2,292.1H850.6v-.7H544.2v.7Z" class="g1_1616"/>
<path d="M68.6,365.5H544.2v-.8H68.6v.8Z" class="g1_1616"/>
<path d="M545,365.5H850.6v-.8H545v.8Z" class="g1_1616"/>
<path d="M68.6,468.7h.7V420.6h-.7v48.1Z" class="g1_1616"/>
<path d="M134.3,469.4h.7V419.7h-.7v49.7Z" class="g1_1616"/>
<path d="M227.5,469.4h.7V419.7h-.7v49.7Z" class="g1_1616"/>
<path d="M373.6,469.4h.8V419.7h-.8v49.7Z" class="g1_1616"/>
<path d="M533.5,469.4h.7V419.7h-.7v49.7Z" class="g1_1616"/>
<path d="M692.2,469.4h.7V419.7h-.7v49.7Z" class="g1_1616"/>
<path d="M848.8,468.7h.8V420.6h-.8v48.1Z" class="g1_1616"/>
<path d="M68.6,420.6H849.7v-.8H68.6v.8Z" class="g1_1616"/>
<path d="M68.6,444.9H849.7v-.7H68.6v.7Z" class="g1_1616"/>
<path d="M68.6,469.4H849.7v-.7H68.6v.7Z" class="g1_1616"/>
</svg>