<?xml version="1.0" encoding="UTF-8" standalone="no"?>
<!DOCTYPE svg PUBLIC "-//W3C//DTD SVG 1.1//EN"
"http://www.w3.org/Graphics/SVG/1.1/DTD/svg11.dtd">
<svg viewBox="0 0 935 1210" version="1.1" xmlns="http://www.w3.org/2000/svg" xmlns:xlink="http://www.w3.org/1999/xlink">
<defs>
<style type="text/css"><![CDATA[
.g0_1848{
fill: #FFF;
}
.g1_1848{
fill: #000;
}
]]></style>
</defs>
<path d="M165,1149.3H852.5v-21.2H165v21.2Z" class="g0_1848"/>
<path d="M68.8,1149.3h82.5v-21.2H68.8v21.2Z" class="g0_1848"/>
<path d="M68.6,401.4h.7V125.7h-.7V401.4Z" class="g1_1848"/>
<path d="M218.7,402.2h.8V124.9h-.8V402.2Z" class="g1_1848"/>
<path d="M388.9,402.2h.8V124.9h-.8V402.2Z" class="g1_1848"/>
<path d="M426.8,402.2h.7V124.9h-.7V402.2Z" class="g1_1848"/>
<path d="M500.2,402.2h.8V124.9h-.8V402.2Z" class="g1_1848"/>
<path d="M571.6,402.2h.8V124.9h-.8V402.2Z" class="g1_1848"/>
<path d="M848.7,401.4h.8V125.7h-.8V401.4Z" class="g1_1848"/>
<path d="M68.6,125.7H849.5v-.8H68.6v.8Z" class="g1_1848"/>
<path d="M68.6,163.8H849.5v-.7H68.6v.7Z" class="g1_1848"/>
<path d="M68.6,203.6H849.5v-.7H68.6v.7Z" class="g1_1848"/>
<path d="M68.6,243.3H849.5v-.7H68.6v.7Z" class="g1_1848"/>
<path d="M68.6,283H849.5v-.8H68.6v.8Z" class="g1_1848"/>
<path d="M68.6,322.8H849.5V322H68.6v.8Z" class="g1_1848"/>
<path d="M68.6,362.4H849.5v-.7H68.6v.7Z" class="g1_1848"/>
<path d="M68.6,402.2H849.5v-.7H68.6v.7Z" class="g1_1848"/>
<path d="M68.6,529.7h.7V457.2h-.7v72.5Z" class="g1_1848"/>
<path d="M143.4,530.6h.7V456.4h-.7v74.2Z" class="g1_1848"/>
<path d="M315.8,530.6h.7V456.4h-.7v74.2Z" class="g1_1848"/>
<path d="M487.9,530.6h.7V456.4h-.7v74.2Z" class="g1_1848"/>
<path d="M664.4,530.6h.7V456.4h-.7v74.2Z" class="g1_1848"/>
<path d="M848.5,529.7h.7V457.2h-.7v72.5Z" class="g1_1848"/>
<path d="M68.6,457.2H849.2v-.7H68.6v.7Z" class="g1_1848"/>
<path d="M68.6,481.6H849.2v-.7H68.6v.7Z" class="g1_1848"/>
<path d="M68.6,506.1H849.2v-.7H68.6v.7Z" class="g1_1848"/>
<path d="M68.6,530.6H849.2v-.8H68.6v.8Z" class="g1_1848"/>
</svg>