<?xml version="1.0" encoding="UTF-8" standalone="no"?>
<!DOCTYPE svg PUBLIC "-//W3C//DTD SVG 1.1//EN"
"http://www.w3.org/Graphics/SVG/1.1/DTD/svg11.dtd">
<svg viewBox="0 0 935 1210" version="1.1" xmlns="http://www.w3.org/2000/svg" xmlns:xlink="http://www.w3.org/1999/xlink">
<defs>
<style type="text/css"><![CDATA[
.g0_1352{
fill: #FFF;
}
.g1_1352{
fill: #000;
}
]]></style>
</defs>
<path d="M68.8,1149.3H852.5v-21.2H68.8v21.2Z" class="g0_1352"/>
<path d="M308.1,171.5h.7V121.8h-.7v49.7Z" class="g1_1352"/>
<path d="M613.4,171.5h.8V121.8h-.8v49.7Z" class="g1_1352"/>
<path d="M851.4,170.8h.7V122.7h-.7v48.1Z" class="g1_1352"/>
<path d="M69.4,122.6H852.1v-.8H69.4v.8Z" class="g1_1352"/>
<path d="M69.4,147H852.1v-.7H69.4v.7Z" class="g1_1352"/>
<path d="M69.4,171.5H852.1v-.7H69.4v.7Z" class="g1_1352"/>
<path d="M66.8,962.6h.8V733.7h-.8V962.6Z" class="g1_1352"/>
<path d="M304,963.3h.7V733H304V963.3Z" class="g1_1352"/>
<path d="M853.6,962.6h.7V733.7h-.7V962.6Z" class="g1_1352"/>
<path d="M66.8,733.7H854.3V733H66.8v.7Z" class="g1_1352"/>
<path d="M66.8,756.6H854.3v-.7H66.8v.7Z" class="g1_1352"/>
<path d="M66.8,779.5H854.3v-.7H66.8v.7Z" class="g1_1352"/>
<path d="M66.8,802.4H854.3v-.7H66.8v.7Z" class="g1_1352"/>
<path d="M66.8,825.4H854.3v-.8H66.8v.8Z" class="g1_1352"/>
<path d="M66.8,871.7H854.3v-.8H66.8v.8Z" class="g1_1352"/>
<path d="M66.8,894.6H854.3v-.8H66.8v.8Z" class="g1_1352"/>
<path d="M66.8,917.5H854.3v-.7H66.8v.7Z" class="g1_1352"/>
<path d="M66.8,940.4H854.3v-.7H66.8v.7Z" class="g1_1352"/>
<path d="M66.8,963.3H854.3v-.7H66.8v.7Z" class="g1_1352"/>
</svg>