<?xml version="1.0" encoding="UTF-8" standalone="no"?>
<!DOCTYPE svg PUBLIC "-//W3C//DTD SVG 1.1//EN"
"http://www.w3.org/Graphics/SVG/1.1/DTD/svg11.dtd">
<svg viewBox="0 0 935 1210" version="1.1" xmlns="http://www.w3.org/2000/svg" xmlns:xlink="http://www.w3.org/1999/xlink">
<defs>
<clipPath id="c0_329"><path d="M766.7,59V41.4h72.2V59Z"/></clipPath>
<style type="text/css"><![CDATA[
.g0_329{
fill: #000;
}
.g1_329{
fill: #E5E5E5;
}
.g2_329{
fill: #FFF;
}
]]></style>
</defs>
<path d="M97.5,63.1v.3H840v-.3H97.5Z" class="g0_329"/>
<path d="M96.1,1114.3v.3v-.3Z" class="g0_329"/>
<path d="M838.9,1114.3v.3v-.3Z" class="g0_329"/>
<path d="M96.1,1114.3v.3H838.9v-.3H96.1Z" class="g0_329"/>
<image clip-path="url(#c0_329)" preserveAspectRatio="none" x="767" y="41" width="72" height="18" xlink:href="img/1.jpg"/>
<path d="M282,191h69.6v53.6H282V191Z" class="g1_329"/>
<path d="M467.5,191H514v53.6H467.5V191Z" class="g1_329"/>
<path d="M514,191h23.1v53.6H514V191Z" class="g2_329"/>
<path d="M537.1,191h23.1v53.6H537.1V191Z" class="g2_329"/>
<path d="M560.2,191h23.1v53.6H560.2V191Z" class="g2_329"/>
<path d="M583.3,191h23.5v53.6H583.3V191Z" class="g2_329"/>
<path d="M606.8,191h23.1v53.6H606.8V191Z" class="g2_329"/>
<path d="M629.9,191H653v53.6H629.9V191Z" class="g2_329"/>
<path d="M282.3,191.4h-.7v51.3h.7V191.4Z" class="g0_329"/>
<path d="M352,190.7h-.7V246h.7V190.7Z" class="g0_329"/>
<path d="M375.1,190.7h-.7V246h.7V190.7Z" class="g0_329"/>
<path d="M421.3,190.7h-.8V246h.8V190.7Z" class="g0_329"/>
<path d="M467.8,190.7h-.7V246h.7V190.7Z" class="g0_329"/>
<path d="M514.4,190.7h-.7V246h.7V190.7Z" class="g0_329"/>
<path d="M537.5,190.7h-.7V246h.7V190.7Z" class="g0_329"/>
<path d="M560.6,190.7h-.7V246h.7V190.7Z" class="g0_329"/>
<path d="M583.7,190.7H583V246h.7V190.7Z" class="g0_329"/>
<path d="M607.2,190.7h-.8V246h.8V190.7Z" class="g0_329"/>
<path d="M630.3,190.7h-.8V246h.8V190.7Z" class="g0_329"/>
<path d="M654.5,191.4h-3v51.3h3V191.4Z" class="g0_329"/>
<path d="M281.6,190.7v.7H654.5v-.7H281.6Z" class="g0_329"/>
<path d="M281.6,243.1V246H654.5v-2.9H281.6Z" class="g0_329"/>
<path d="M225.5,276.1v.7h484v-.7h-484Z" class="g0_329"/>
<path d="M225.5,489.8v.8h484v-.8h-484Z" class="g0_329"/>
</svg>