<?xml version="1.0" encoding="UTF-8" standalone="no"?>
<!DOCTYPE svg PUBLIC "-//W3C//DTD SVG 1.1//EN"
"http://www.w3.org/Graphics/SVG/1.1/DTD/svg11.dtd">
<svg viewBox="0 0 935 1210" version="1.1" xmlns="http://www.w3.org/2000/svg" xmlns:xlink="http://www.w3.org/1999/xlink">
<defs>
<style type="text/css"><![CDATA[
.g0_354{
fill: #FFF;
}
.g1_354{
fill: #000;
}
]]></style>
</defs>
<path d="M68.8,1149.3H852.5v-21.2H68.8v21.2Z" class="g0_354"/>
<path d="M68.6,1001.9h.7V142.4h-.7v859.5Z" class="g1_354"/>
<path d="M125.3,1002.7h.7V183h-.7v819.7Z" class="g1_354"/>
<path d="M182.1,1002.7h.7v-861h-.7v861Z" class="g1_354"/>
<path d="M428.2,1002.7h.7v-861h-.7v861Z" class="g1_354"/>
<path d="M521.6,1002.7h.7v-861h-.7v861Z" class="g1_354"/>
<path d="M850.8,1001.9h.7V142.4h-.7v859.5Z" class="g1_354"/>
<path d="M68.6,142.4H851.5v-.7H68.6v.7Z" class="g1_354"/>
<path d="M68.6,183.7H182.8V183H68.6v.7Z" class="g1_354"/>
<path d="M68.6,208.2H851.5v-.8H68.6v.8Z" class="g1_354"/>
<path d="M68.6,232.6H522.4v-.8H68.6v.8Z" class="g1_354"/>
<path d="M68.6,257H522.4v-.7H68.6v.7Z" class="g1_354"/>
<path d="M68.6,281.5H522.4v-.7H68.6v.7Z" class="g1_354"/>
<path d="M68.6,305.9H851.5v-.7H68.6v.7Z" class="g1_354"/>
<path d="M68.6,330.4H522.4v-.8H68.6v.8Z" class="g1_354"/>
<path d="M68.6,354.8H522.4v-.7H68.6v.7Z" class="g1_354"/>
<path d="M68.6,379.2H522.4v-.7H68.6v.7Z" class="g1_354"/>
<path d="M68.6,403.7H851.5V403H68.6v.7Z" class="g1_354"/>
<path d="M68.6,428.2H522.4v-.8H68.6v.8Z" class="g1_354"/>
<path d="M68.6,452.7H522.4v-.8H68.6v.8Z" class="g1_354"/>
<path d="M68.6,477H522.4v-.7H68.6v.7Z" class="g1_354"/>
<path d="M68.6,501.5H851.5v-.7H68.6v.7Z" class="g1_354"/>
<path d="M68.6,526H522.4v-.8H68.6v.8Z" class="g1_354"/>
<path d="M68.6,550.4H522.4v-.8H68.6v.8Z" class="g1_354"/>
<path d="M68.6,574.8H522.4v-.7H68.6v.7Z" class="g1_354"/>
<path d="M68.6,599.3H851.5v-.7H68.6v.7Z" class="g1_354"/>
<path d="M68.6,623.7H522.4V623H68.6v.7Z" class="g1_354"/>
<path d="M68.6,648.2H522.4v-.8H68.6v.8Z" class="g1_354"/>
<path d="M68.6,672.7H522.4v-.8H68.6v.8Z" class="g1_354"/>
<path d="M68.6,700.2H851.5v-.8H68.6v.8Z" class="g1_354"/>
<path d="M68.6,724.5H522.4v-.7H68.6v.7Z" class="g1_354"/>
<path d="M68.6,749H522.4v-.7H68.6v.7Z" class="g1_354"/>
<path d="M68.6,773.5H522.4v-.7H68.6v.7Z" class="g1_354"/>
<path d="M68.6,801H851.5v-.7H68.6v.7Z" class="g1_354"/>
<path d="M68.6,825.4H522.4v-.8H68.6v.8Z" class="g1_354"/>
<path d="M68.6,849.8H522.4v-.7H68.6v.7Z" class="g1_354"/>
<path d="M68.6,874.3H522.4v-.7H68.6v.7Z" class="g1_354"/>
<path d="M68.6,901.8H851.5v-.7H68.6v.7Z" class="g1_354"/>
<path d="M68.6,926.2H522.4v-.7H68.6v.7Z" class="g1_354"/>
<path d="M68.6,950.7H522.4v-.8H68.6v.8Z" class="g1_354"/>
<path d="M68.6,975.2H522.4v-.8H68.6v.8Z" class="g1_354"/>
<path d="M68.6,1002.7H851.5v-.8H68.6v.8Z" class="g1_354"/>
</svg>