<?xml version="1.0" encoding="UTF-8" standalone="no"?>
<!DOCTYPE svg PUBLIC "-//W3C//DTD SVG 1.1//EN"
"http://www.w3.org/Graphics/SVG/1.1/DTD/svg11.dtd">
<svg viewBox="0 0 935 1210" version="1.1" xmlns="http://www.w3.org/2000/svg" xmlns:xlink="http://www.w3.org/1999/xlink">
<defs>
<clipPath id="c0_561"><path d="M158.9,958.7V929.1h605v29.6Z"/></clipPath>
<style type="text/css"><![CDATA[
.g0_561{
fill: #FFF;
}
.g1_561{
fill: #000;
}
]]></style>
</defs>
<path d="M68.9,1149.3H852.7v-21.2H68.9v21.2Z" class="g0_561"/>
<path clip-path="url(#c0_561)" d="M158.9,958.7h605V929.1h-605v29.6Z" class="g0_561"/>
<path d="M159.8,952.1h53.5V939.7H159.8v12.4Z" class="g0_561"/>
<path d="M158.5,579.5h.7V471h-.7V579.5Z" class="g1_561"/>
<path d="M763.5,579.5h.7V471h-.7V579.5Z" class="g1_561"/>
<path d="M158.5,471H764.2v-.8H158.5v.8Z" class="g1_561"/>
<path d="M158.5,580.3H764.2v-.7H158.5v.7Z" class="g1_561"/>
<path d="M158.5,904.3h.7v-191h-.7v191Z" class="g1_561"/>
<path d="M763.5,904.3h.7v-191h-.7v191Z" class="g1_561"/>
<path d="M158.5,713.3H764.2v-.8H158.5v.8Z" class="g1_561"/>
<path d="M158.5,905.1H764.2v-.7H158.5v.7Z" class="g1_561"/>
<path d="M676,528.4h75.7V507.7H676v20.7Z" class="g0_561"/>
<path d="M676,508.1h76v-.7H676v.7Z" class="g1_561"/>
<path d="M751.3,528.7h.7v-21h-.7v21Z" class="g1_561"/>
<path d="M675.7,528.7h76V528h-76v.7Z" class="g1_561"/>
<path d="M675.7,528.4h.7v-21h-.7v21Z" class="g1_561"/>
<path d="M176.9,528.4h57.3V507.7H176.9v20.7Z" class="g0_561"/>
<path d="M176.9,508.1h57.7v-.7H176.9v.7Z" class="g1_561"/>
<path d="M233.8,528.7h.8v-21h-.8v21Z" class="g1_561"/>
<path d="M176.5,528.7h57.7V528H176.5v.7Z" class="g1_561"/>
<path d="M176.5,528.4h.8v-21h-.8v21Z" class="g1_561"/>
<path d="M585.6,528.4h82.9V507.7H585.6v20.7Z" class="g0_561"/>
<path d="M585.6,508.1h83.3v-.7H585.6v.7Z" class="g1_561"/>
<path d="M668.2,528.7h.7v-21h-.7v21Z" class="g1_561"/>
<path d="M585.2,528.7h83.3V528H585.2v.7Z" class="g1_561"/>
<path d="M585.2,528.4h.7v-21h-.7v21Z" class="g1_561"/>
<path d="M534.6,528.4h38V507.7h-38v20.7Z" class="g0_561"/>
<path d="M534.6,508.1H573v-.7H534.6v.7Z" class="g1_561"/>
<path d="M572.3,528.7h.7v-21h-.7v21Z" class="g1_561"/>
<path d="M534.2,528.7h38.4V528H534.2v.7Z" class="g1_561"/>
<path d="M534.2,528.4h.8v-21h-.8v21Z" class="g1_561"/>
<path d="M441,528.4h63.7V507.7H441v20.7Z" class="g0_561"/>
<path d="M441,508.1h64.1v-.7H441v.7Z" class="g1_561"/>
<path d="M504.3,528.7h.8v-21h-.8v21Z" class="g1_561"/>
<path d="M440.6,528.7h64.1V528H440.6v.7Z" class="g1_561"/>
<path d="M440.6,528.4h.8v-21h-.8v21Z" class="g1_561"/>
<path d="M347.5,528.4h63.7V507.7H347.5v20.7Z" class="g0_561"/>
<path d="M347.5,508.1h64.1v-.7H347.5v.7Z" class="g1_561"/>
<path d="M410.9,528.7h.7v-21h-.7v21Z" class="g1_561"/>
<path d="M347.1,528.7h64.1V528H347.1v.7Z" class="g1_561"/>
<path d="M347.1,528.4h.8v-21h-.8v21Z" class="g1_561"/>
<path d="M264,528.4h53.6V507.7H264v20.7Z" class="g0_561"/>
<path d="M264,508.1h54v-.7H264v.7Z" class="g1_561"/>
<path d="M317.3,528.7h.7v-21h-.7v21Z" class="g1_561"/>
<path d="M263.6,528.7h54V528h-54v.7Z" class="g1_561"/>
<path d="M263.6,528.4h.8v-21h-.8v21Z" class="g1_561"/>
<path d="M585.9,570h83V549.4h-83V570Z" class="g0_561"/>
<path d="M585.9,549.7h83.4V549H585.9v.7Z" class="g1_561"/>
<path d="M668.5,570.4h.8v-21h-.8v21Z" class="g1_561"/>
<path d="M585.6,570.4h83.3v-.8H585.6v.8Z" class="g1_561"/>
<path d="M585.6,570h.7V549h-.7v21Z" class="g1_561"/>
<path d="M257.6,760.6h54V739.9h-54v20.7Z" class="g0_561"/>
<path d="M257.6,740.3h54.3v-.7H257.6v.7Z" class="g1_561"/>
<path d="M311.2,760.9h.7v-21h-.7v21Z" class="g1_561"/>
<path d="M257.2,760.9h54.4v-.7H257.2v.7Z" class="g1_561"/>
<path d="M257.2,760.6h.7v-21h-.7v21Z" class="g1_561"/>
<path d="M324,760.6h55V739.9H324v20.7Z" class="g0_561"/>
<path d="M324,740.3h55.3v-.7H324v.7Z" class="g1_561"/>
<path d="M378.6,760.9h.7v-21h-.7v21Z" class="g1_561"/>
<path d="M323.7,760.9H379v-.7H323.7v.7Z" class="g1_561"/>
<path d="M323.7,760.6h.7v-21h-.7v21Z" class="g1_561"/>
<path d="M391.5,760.6h54.8V739.9H391.5v20.7Z" class="g0_561"/>
<path d="M391.5,740.3h55.2v-.7H391.5v.7Z" class="g1_561"/>
<path d="M446,760.9h.7v-21H446v21Z" class="g1_561"/>
<path d="M391.1,760.9h55.2v-.7H391.1v.7Z" class="g1_561"/>
<path d="M391.1,760.6h.8v-21h-.8v21Z" class="g1_561"/>
<path d="M458.9,760.6h54.8V739.9H458.9v20.7Z" class="g0_561"/>
<path d="M458.9,740.3h55.2v-.7H458.9v.7Z" class="g1_561"/>
<path d="M513.3,760.9h.8v-21h-.8v21Z" class="g1_561"/>
<path d="M458.5,760.9h55.2v-.7H458.5v.7Z" class="g1_561"/>
<path d="M458.5,760.6h.8v-21h-.8v21Z" class="g1_561"/>
<path d="M329.6,804.9H648.2V784.3H329.6v20.6Z" class="g0_561"/>
<path d="M329.6,784.7H648.5v-.8H329.6v.8Z" class="g1_561"/>
<path d="M647.8,805.3h.7v-21h-.7v21Z" class="g1_561"/>
<path d="M329.3,805.3H648.2v-.7H329.3v.7Z" class="g1_561"/>
<path d="M329.3,804.9h.7v-21h-.7v21Z" class="g1_561"/>
<path d="M368.9,784.7h.7v-.4h-.7v.4Z" class="g1_561"/>
<path d="M368.9,805.7h.7v-21h-.7v21Z" class="g1_561"/>
<path d="M409.5,784.7h.7v-.4h-.7v.4Z" class="g1_561"/>
<path d="M409.5,805.7h.7v-21h-.7v21Z" class="g1_561"/>
<path d="M450,784.7h.7v-.4H450v.4Z" class="g1_561"/>
<path d="M450,805.7h.7v-21H450v21Z" class="g1_561"/>
<path d="M490.6,784.7h.7v-.4h-.7v.4Z" class="g1_561"/>
<path d="M490.6,805.7h.7v-21h-.7v21Z" class="g1_561"/>
<path d="M531.1,784.7h.7v-.4h-.7v.4Z" class="g1_561"/>
<path d="M531.1,805.7h.7v-21h-.7v21Z" class="g1_561"/>
<path d="M571.7,784.7h.8v-.4h-.8v.4Z" class="g1_561"/>
<path d="M571.7,805.7h.8v-21h-.8v21Z" class="g1_561"/>
<path d="M612.2,784.7h.8v-.4h-.8v.4Z" class="g1_561"/>
<path d="M612.2,805.7h.8v-21h-.8v21Z" class="g1_561"/>
<path d="M328.7,848.3H647.3V827.7H328.7v20.6Z" class="g0_561"/>
<path d="M328.7,828H647.6v-.7H328.7v.7Z" class="g1_561"/>
<path d="M646.9,848.7h.7v-21h-.7v21Z" class="g1_561"/>
<path d="M328.4,848.7H647.3v-.8H328.4v.8Z" class="g1_561"/>
<path d="M328.4,848.3h.7v-21h-.7v21Z" class="g1_561"/>
<path d="M367.9,828.1h.8v-.4h-.8v.4Z" class="g1_561"/>
<path d="M367.9,849.1h.8v-21h-.8v21Z" class="g1_561"/>
<path d="M408.6,828.1h.7v-.4h-.7v.4Z" class="g1_561"/>
<path d="M408.6,849.1h.7v-21h-.7v21Z" class="g1_561"/>
<path d="M449.1,828.1h.7v-.4h-.7v.4Z" class="g1_561"/>
<path d="M449.1,849.1h.7v-21h-.7v21Z" class="g1_561"/>
<path d="M489.7,828.1h.7v-.4h-.7v.4Z" class="g1_561"/>
<path d="M489.7,849.1h.7v-21h-.7v21Z" class="g1_561"/>
<path d="M530.2,828.1h.7v-.4h-.7v.4Z" class="g1_561"/>
<path d="M530.2,849.1h.7v-21h-.7v21Z" class="g1_561"/>
<path d="M570.8,828.1h.7v-.4h-.7v.4Z" class="g1_561"/>
<path d="M570.8,849.1h.7v-21h-.7v21Z" class="g1_561"/>
<path d="M611.4,828.1h.8v-.4h-.8v.4Z" class="g1_561"/>
<path d="M611.4,849.1h.8v-21h-.8v21Z" class="g1_561"/>
<path d="M328.7,891.6H647.3V871H328.7v20.6Z" class="g0_561"/>
<path d="M328.7,871.4H647.6v-.7H328.7v.7Z" class="g1_561"/>
<path d="M646.9,892h.7V871h-.7v21Z" class="g1_561"/>
<path d="M328.4,892H647.3v-.7H328.4v.7Z" class="g1_561"/>
<path d="M328.4,891.6h.7v-21h-.7v21Z" class="g1_561"/>
<path d="M367.9,871.5h.8v-.4h-.8v.4Z" class="g1_561"/>
<path d="M367.9,892.5h.8v-21h-.8v21Z" class="g1_561"/>
<path d="M408.6,871.5h.7v-.4h-.7v.4Z" class="g1_561"/>
<path d="M408.6,892.5h.7v-21h-.7v21Z" class="g1_561"/>
<path d="M449.1,871.5h.7v-.4h-.7v.4Z" class="g1_561"/>
<path d="M449.1,892.5h.7v-21h-.7v21Z" class="g1_561"/>
<path d="M489.7,871.5h.7v-.4h-.7v.4Z" class="g1_561"/>
<path d="M489.7,892.5h.7v-21h-.7v21Z" class="g1_561"/>
<path d="M530.2,871.5h.7v-.4h-.7v.4Z" class="g1_561"/>
<path d="M530.2,892.5h.7v-21h-.7v21Z" class="g1_561"/>
<path d="M570.8,871.5h.7v-.4h-.7v.4Z" class="g1_561"/>
<path d="M570.8,892.5h.7v-21h-.7v21Z" class="g1_561"/>
<path d="M611.4,871.5h.8v-.4h-.8v.4Z" class="g1_561"/>
<path d="M611.4,892.5h.8v-21h-.8v21Z" class="g1_561"/>
</svg>