<?xml version="1.0" encoding="UTF-8" standalone="no"?>
<!DOCTYPE svg PUBLIC "-//W3C//DTD SVG 1.1//EN"
"http://www.w3.org/Graphics/SVG/1.1/DTD/svg11.dtd">
<svg viewBox="0 0 935 1210" version="1.1" xmlns="http://www.w3.org/2000/svg" xmlns:xlink="http://www.w3.org/1999/xlink">
<defs>
<clipPath id="c0_2067"><path d="M97.3,59.2V41.4h72.1V59.2Z"/></clipPath>
<style type="text/css"><![CDATA[
.g0_2067{
fill: #000;
}
]]></style>
</defs>
<path d="M96.3,63.3H838.8v-.4H96.3v.4Z" class="g0_2067"/>
<path d="M96.1,1114.5h.2v-.4h-.2v.4Z" class="g0_2067"/>
<path d="M96.3,1114.5H838.9v-.4H96.3v.4Z" class="g0_2067"/>
<image clip-path="url(#c0_2067)" preserveAspectRatio="none" x="97" y="41" width="73" height="18" xlink:href="img/1.jpg"/>
<path d="M95.9,674.9h.7V197.1h-.7V674.9Z" class="g0_2067"/>
<path d="M273.3,584h.8V194h-.8V584Z" class="g0_2067"/>
<path d="M273.3,625.3h.8V604.6h-.8v20.7Z" class="g0_2067"/>
<path d="M310,584h.7V216.5H310V584Z" class="g0_2067"/>
<path d="M310,625.3h.7V604.6H310v20.7Z" class="g0_2067"/>
<path d="M346.7,584h.7V216.5h-.7V584Z" class="g0_2067"/>
<path d="M346.7,625.3h.7V604.6h-.7v20.7Z" class="g0_2067"/>
<path d="M383.4,584h.7V194h-.7V584Z" class="g0_2067"/>
<path d="M383.4,625.3h.7V604.6h-.7v20.7Z" class="g0_2067"/>
<path d="M839.2,674.9h.7V197.1h-.7V674.9Z" class="g0_2067"/>
<path d="M95.9,197.1h744v-3H95.9v3Z" class="g0_2067"/>
<path d="M273.3,217.3H384.2v-.8H273.3v.8Z" class="g0_2067"/>
<path d="M95.9,239.9h744v-3H95.9v3Z" class="g0_2067"/>
<path d="M273.3,258.6H839.9v-.7H273.3v.7Z" class="g0_2067"/>
<path d="M273.3,278.4H839.9v-.7H273.3v.7Z" class="g0_2067"/>
<path d="M273.3,298.3H839.9v-.7H273.3v.7Z" class="g0_2067"/>
<path d="M273.3,318.2H839.9v-.8H273.3v.8Z" class="g0_2067"/>
<path d="M273.3,338H839.9v-.8H273.3v.8Z" class="g0_2067"/>
<path d="M273.3,357.9H839.9v-.8H273.3v.8Z" class="g0_2067"/>
<path d="M273.3,377.8H839.9V377H273.3v.8Z" class="g0_2067"/>
<path d="M273.3,397.6H839.9v-.8H273.3v.8Z" class="g0_2067"/>
<path d="M95.9,431.2h744v-.7H95.9v.7Z" class="g0_2067"/>
<path d="M95.9,451.1h744v-.7H95.9v.7Z" class="g0_2067"/>
<path d="M95.9,470.9h744v-.7H95.9v.7Z" class="g0_2067"/>
<path d="M273.3,490.8H839.9V490H273.3v.8Z" class="g0_2067"/>
<path d="M95.9,510.7h744v-.8H95.9v.8Z" class="g0_2067"/>
<path d="M95.9,530.5h744v-.8H95.9v.8Z" class="g0_2067"/>
<path d="M95.9,550.4h744v-.8H95.9v.8Z" class="g0_2067"/>
<path d="M95.9,584h744v-.7H95.9v.7Z" class="g0_2067"/>
<path d="M95.9,605.4h744v-.8H95.9v.8Z" class="g0_2067"/>
<path d="M95.9,625.3h744v-.8H95.9v.8Z" class="g0_2067"/>
<path d="M95.9,675.7h744v-.8H95.9v.8Z" class="g0_2067"/>
</svg>