<?xml version="1.0" encoding="UTF-8" standalone="no"?>
<!DOCTYPE svg PUBLIC "-//W3C//DTD SVG 1.1//EN"
"http://www.w3.org/Graphics/SVG/1.1/DTD/svg11.dtd">
<svg viewBox="0 0 935 1210" version="1.1" xmlns="http://www.w3.org/2000/svg" xmlns:xlink="http://www.w3.org/1999/xlink">
<defs>
<clipPath id="c0_3314"><path d="M97.3,59.2V41.4h72.1V59.2Z"/></clipPath>
<style type="text/css"><![CDATA[
.g0_3314{
fill: #000;
}
]]></style>
</defs>
<path d="M96.3,63.3H838.8v-.4H96.3v.4Z" class="g0_3314"/>
<path d="M96.1,1114.5h.2v-.4h-.2v.4Z" class="g0_3314"/>
<path d="M96.3,1114.5H838.9v-.4H96.3v.4Z" class="g0_3314"/>
<image clip-path="url(#c0_3314)" preserveAspectRatio="none" x="97" y="41" width="73" height="18" xlink:href="img/1.jpg"/>
<path d="M96.9,711.6h.7V560.7h-.7V711.6Z" class="g0_3314"/>
<path d="M213.7,712.3h.7V557.6h-.7V712.3Z" class="g0_3314"/>
<path d="M311.5,712.3h.7V557.6h-.7V712.3Z" class="g0_3314"/>
<path d="M409.3,712.3h.7V557.6h-.7V712.3Z" class="g0_3314"/>
<path d="M507.1,712.3h.7V557.6h-.7V712.3Z" class="g0_3314"/>
<path d="M838.4,711.6h.7V560.7h-.7V711.6Z" class="g0_3314"/>
<path d="M96.8,560.7H839.1v-3H96.8v3Z" class="g0_3314"/>
<path d="M96.8,591.3H839.1v-3.1H96.8v3.1Z" class="g0_3314"/>
<path d="M96.8,620.7H839.1v-.8H96.8v.8Z" class="g0_3314"/>
<path d="M96.8,651.2H839.1v-.7H96.8v.7Z" class="g0_3314"/>
<path d="M96.8,681.7H839.1V681H96.8v.7Z" class="g0_3314"/>
<path d="M96.8,712.3H839.1v-.7H96.8v.7Z" class="g0_3314"/>
<path d="M95.9,1081.3h.7V771.6h-.7v309.7Z" class="g0_3314"/>
<path d="M251.5,907.9h.8V768.4h-.8V907.9Z" class="g0_3314"/>
<path d="M251.5,1082h.8V931.6h-.8V1082Z" class="g0_3314"/>
<path d="M297.7,907.9h.8V768.4h-.8V907.9Z" class="g0_3314"/>
<path d="M297.7,1082h.8V931.6h-.8V1082Z" class="g0_3314"/>
<path d="M356,907.9h.8V768.4H356V907.9Z" class="g0_3314"/>
<path d="M356,1082h.8V931.6H356V1082Z" class="g0_3314"/>
<path d="M434.1,907.9h.8V768.4h-.8V907.9Z" class="g0_3314"/>
<path d="M434.1,1082h.8V931.6h-.8V1082Z" class="g0_3314"/>
<path d="M841.1,1081.3h.8V771.6h-.8v309.7Z" class="g0_3314"/>
<path d="M95.9,771.6h746v-3.1H95.9v3.1Z" class="g0_3314"/>
<path d="M95.9,814.4h746v-3.1H95.9v3.1Z" class="g0_3314"/>
<path d="M95.9,852.9h746v-.8H95.9v.8Z" class="g0_3314"/>
<path d="M95.9,907.9h746v-.8H95.9v.8Z" class="g0_3314"/>
<path d="M95.9,932.3h746v-.7H95.9v.7Z" class="g0_3314"/>
<path d="M95.9,972h746v-.7H95.9v.7Z" class="g0_3314"/>
<path d="M95.9,1027h746v-.7H95.9v.7Z" class="g0_3314"/>
<path d="M95.9,1082h746v-.7H95.9v.7Z" class="g0_3314"/>
</svg>