<?xml version="1.0" encoding="UTF-8" standalone="no"?>
<!DOCTYPE svg PUBLIC "-//W3C//DTD SVG 1.1//EN"
"http://www.w3.org/Graphics/SVG/1.1/DTD/svg11.dtd">
<svg viewBox="0 0 935 1210" version="1.1" xmlns="http://www.w3.org/2000/svg" xmlns:xlink="http://www.w3.org/1999/xlink">
<defs>
<style type="text/css"><![CDATA[
.g0_2381{
fill: #FFF;
}
.g1_2381{
fill: #000;
}
]]></style>
</defs>
<path d="M68.9,1149.3H755.2v-21.2H68.9v21.2Z" class="g0_2381"/>
<path d="M771.3,1149.3H855v-21.2H771.3v21.2Z" class="g0_2381"/>
<path d="M70.3,700.3H853.9V670.7H70.3v29.6Z" class="g0_2381"/>
<path d="M71.2,693.6h53.6V681.3H71.2v12.3Z" class="g0_2381"/>
<path d="M69.9,670.4h.8V125.7h-.8V670.4Z" class="g1_2381"/>
<path d="M304.3,671.1h.8V124.9h-.8V671.1Z" class="g1_2381"/>
<path d="M348.5,671.1h.7V124.9h-.7V671.1Z" class="g1_2381"/>
<path d="M418.5,671.1h.7V124.9h-.7V671.1Z" class="g1_2381"/>
<path d="M507.1,671.1h.7V124.9h-.7V671.1Z" class="g1_2381"/>
<path d="M853.5,670.4h.7V125.7h-.7V670.4Z" class="g1_2381"/>
<path d="M69.9,125.7H854.2v-.8H69.9v.8Z" class="g1_2381"/>
<path d="M69.9,194.4H854.2v-.7H69.9v.7Z" class="g1_2381"/>
<path d="M69.9,234.1H854.2v-.7H69.9v.7Z" class="g1_2381"/>
<path d="M69.9,273.8H854.2v-.7H69.9v.7Z" class="g1_2381"/>
<path d="M69.9,313.6H854.2v-.7H69.9v.7Z" class="g1_2381"/>
<path d="M69.9,353.3H854.2v-.7H69.9v.7Z" class="g1_2381"/>
<path d="M69.9,393H854.2v-.8H69.9v.8Z" class="g1_2381"/>
<path d="M69.9,432.8H854.2V432H69.9v.8Z" class="g1_2381"/>
<path d="M69.9,472.4H854.2v-.7H69.9v.7Z" class="g1_2381"/>
<path d="M69.9,512.2H854.2v-.7H69.9v.7Z" class="g1_2381"/>
<path d="M69.9,551.9H854.2v-.7H69.9v.7Z" class="g1_2381"/>
<path d="M69.9,591.6H854.2v-.7H69.9v.7Z" class="g1_2381"/>
<path d="M69.9,631.4H854.2v-.7H69.9v.7Z" class="g1_2381"/>
<path d="M69.9,671.1H854.2v-.7H69.9v.7Z" class="g1_2381"/>
<path d="M69.9,823.7h.8V775.6h-.8v48.1Z" class="g1_2381"/>
<path d="M132.9,824.5h.8V774.8h-.8v49.7Z" class="g1_2381"/>
<path d="M243.6,824.5h.8V774.8h-.8v49.7Z" class="g1_2381"/>
<path d="M394,824.5h.7V774.8H394v49.7Z" class="g1_2381"/>
<path d="M544.2,824.5h.8V774.8h-.8v49.7Z" class="g1_2381"/>
<path d="M695.8,824.5h.8V774.8h-.8v49.7Z" class="g1_2381"/>
<path d="M847.2,823.7h.7V775.6h-.7v48.1Z" class="g1_2381"/>
<path d="M69.9,775.6h778v-.7H69.9v.7Z" class="g1_2381"/>
<path d="M69.9,800h778v-.8H69.9v.8Z" class="g1_2381"/>
<path d="M69.9,824.5h778v-.8H69.9v.8Z" class="g1_2381"/>
</svg>