<?xml version="1.0" encoding="UTF-8" standalone="no"?>
<!DOCTYPE svg PUBLIC "-//W3C//DTD SVG 1.1//EN"
"http://www.w3.org/Graphics/SVG/1.1/DTD/svg11.dtd">
<svg viewBox="0 0 935 1210" version="1.1" xmlns="http://www.w3.org/2000/svg" xmlns:xlink="http://www.w3.org/1999/xlink">
<defs>
<clipPath id="c0_2003"><path d="M97.3,59.2V41.4h72.1V59.2Z"/></clipPath>
<style type="text/css"><![CDATA[
.g0_2003{
fill: #000;
}
]]></style>
</defs>
<path d="M96.3,63.3H838.8v-.4H96.3v.4Z" class="g0_2003"/>
<path d="M96.1,1114.5h.2v-.4h-.2v.4Z" class="g0_2003"/>
<path d="M96.3,1114.5H838.9v-.4H96.3v.4Z" class="g0_2003"/>
<image clip-path="url(#c0_2003)" preserveAspectRatio="none" x="97" y="41" width="73" height="18" xlink:href="img/1.jpg"/>
<path d="M565,152.2h31.4v-1.1H565v1.1Z" class="g0_2003"/>
<path d="M699.1,152.2h20.3v-1.1H699.1v1.1Z" class="g0_2003"/>
<path d="M565,175.1h31.4V174H565v1.1Z" class="g0_2003"/>
<path d="M699.1,175.1h20.3V174H699.1v1.1Z" class="g0_2003"/>
<path d="M95.9,861.3h.7V438.4h-.7V861.3Z" class="g0_2003"/>
<path d="M273.3,811.6h.8V435.4h-.8V811.6Z" class="g0_2003"/>
<path d="M310,811.6h.7V458H310V811.6Z" class="g0_2003"/>
<path d="M346.7,811.6h.7V458h-.7V811.6Z" class="g0_2003"/>
<path d="M383.4,811.6h.7V435.4h-.7V811.6Z" class="g0_2003"/>
<path d="M839.2,861.3h.7V438.4h-.7V861.3Z" class="g0_2003"/>
<path d="M95.9,438.5h744v-3H95.9v3Z" class="g0_2003"/>
<path d="M273.3,458.7H384.2V458H273.3v.7Z" class="g0_2003"/>
<path d="M95.9,481.3h744v-3.1H95.9v3.1Z" class="g0_2003"/>
<path d="M273.3,499.9H839.9v-.7H273.3v.7Z" class="g0_2003"/>
<path d="M273.3,519.8H839.9v-.7H273.3v.7Z" class="g0_2003"/>
<path d="M273.3,539.6H839.9v-.7H273.3v.7Z" class="g0_2003"/>
<path d="M273.3,559.5H839.9v-.7H273.3v.7Z" class="g0_2003"/>
<path d="M273.3,579.4H839.9v-.7H273.3v.7Z" class="g0_2003"/>
<path d="M273.3,599.2H839.9v-.7H273.3v.7Z" class="g0_2003"/>
<path d="M273.3,619.1H839.9v-.7H273.3v.7Z" class="g0_2003"/>
<path d="M95.9,639h744v-.7H95.9v.7Z" class="g0_2003"/>
<path d="M95.9,658.8h744v-.7H95.9v.7Z" class="g0_2003"/>
<path d="M95.9,678.7h744V678H95.9v.7Z" class="g0_2003"/>
<path d="M273.3,698.6H839.9v-.7H273.3v.7Z" class="g0_2003"/>
<path d="M273.3,718.4H839.9v-.7H273.3v.7Z" class="g0_2003"/>
<path d="M95.9,738.3h744v-.8H95.9v.8Z" class="g0_2003"/>
<path d="M273.3,771.9H839.9v-.7H273.3v.7Z" class="g0_2003"/>
<path d="M95.9,791.7h744V791H95.9v.7Z" class="g0_2003"/>
<path d="M95.9,811.6h744v-.7H95.9v.7Z" class="g0_2003"/>
<path d="M95.9,862h744v-.7H95.9v.7Z" class="g0_2003"/>
</svg>