<?xml version="1.0" encoding="UTF-8" standalone="no"?>
<!DOCTYPE svg PUBLIC "-//W3C//DTD SVG 1.1//EN"
"http://www.w3.org/Graphics/SVG/1.1/DTD/svg11.dtd">
<svg viewBox="0 0 935 1210" version="1.1" xmlns="http://www.w3.org/2000/svg" xmlns:xlink="http://www.w3.org/1999/xlink">
<defs>
<style type="text/css"><![CDATA[
.g0_131{
fill: #FFF;
}
.g1_131{
fill: #000;
}
]]></style>
</defs>
<path d="M68.9,1149.3H755.2v-21.2H68.9v21.2Z" class="g0_131"/>
<path d="M771.3,1149.3H855v-21.2H771.3v21.2Z" class="g0_131"/>
<path d="M69.9,225.8h.8V125.7h-.8V225.8Z" class="g1_131"/>
<path d="M220.1,226.5h.7V124.9h-.7V226.5Z" class="g1_131"/>
<path d="M390.3,226.5h.7V124.9h-.7V226.5Z" class="g1_131"/>
<path d="M428.2,226.5h.7V124.9h-.7V226.5Z" class="g1_131"/>
<path d="M501.5,226.5h.7V124.9h-.7V226.5Z" class="g1_131"/>
<path d="M572.9,226.5h.8V124.9h-.8V226.5Z" class="g1_131"/>
<path d="M851.2,225.8h.7V125.7h-.7V225.8Z" class="g1_131"/>
<path d="M69.9,125.7H852v-.8H69.9v.8Z" class="g1_131"/>
<path d="M69.9,163.8H852v-.7H69.9v.7Z" class="g1_131"/>
<path d="M69.9,186.7H852V186H69.9v.7Z" class="g1_131"/>
<path d="M69.9,226.5H852v-.7H69.9v.7Z" class="g1_131"/>
<path d="M69.9,329.6h.8V281.5h-.8v48.1Z" class="g1_131"/>
<path d="M139.4,330.4h.8V280.8h-.8v49.6Z" class="g1_131"/>
<path d="M310.2,330.4h.7V280.8h-.7v49.6Z" class="g1_131"/>
<path d="M498.2,330.4h.7V280.8h-.7v49.6Z" class="g1_131"/>
<path d="M671.7,330.4h.8V280.8h-.8v49.6Z" class="g1_131"/>
<path d="M853.3,329.6h.8V281.5h-.8v48.1Z" class="g1_131"/>
<path d="M69.9,281.5H854.1v-.7H69.9v.7Z" class="g1_131"/>
<path d="M69.9,305.9H854.1v-.7H69.9v.7Z" class="g1_131"/>
<path d="M69.9,330.4H854.1v-.8H69.9v.8Z" class="g1_131"/>
</svg>