<?xml version="1.0" encoding="UTF-8" standalone="no"?>
<!DOCTYPE svg PUBLIC "-//W3C//DTD SVG 1.1//EN"
"http://www.w3.org/Graphics/SVG/1.1/DTD/svg11.dtd">
<svg viewBox="0 0 935 1210" version="1.1" xmlns="http://www.w3.org/2000/svg" xmlns:xlink="http://www.w3.org/1999/xlink">
<defs>
<style type="text/css"><![CDATA[
.g0_15{
fill: #000;
}
]]></style>
</defs>
<path d="M91.8,1080.8h.7V235.7h-.7v845.1Z" class="g0_15"/>
<path d="M237.5,1081.6h.7V234.9h-.7v846.7Z" class="g0_15"/>
<path d="M842.5,1080.8h.7V235.7h-.7v845.1Z" class="g0_15"/>
<path d="M91.8,235.7H843.2v-.8H91.8v.8Z" class="g0_15"/>
<path d="M91.8,263.2H843.2v-.8H91.8v.8Z" class="g0_15"/>
<path d="M91.8,287.6H843.2v-.8H91.8v.8Z" class="g0_15"/>
<path d="M91.8,312H843.2v-.7H91.8v.7Z" class="g0_15"/>
<path d="M91.8,336.5H843.2v-.7H91.8v.7Z" class="g0_15"/>
<path d="M91.8,364.6H843.2v-.8H91.8v.8Z" class="g0_15"/>
<path d="M91.8,422.7H843.2v-.8H91.8v.8Z" class="g0_15"/>
<path d="M91.8,447.1H843.2v-.8H91.8v.8Z" class="g0_15"/>
<path d="M91.8,471.5H843.2v-.7H91.8v.7Z" class="g0_15"/>
<path d="M91.8,512.8H843.2v-.7H91.8v.7Z" class="g0_15"/>
<path d="M91.8,539.7H843.2V539H91.8v.7Z" class="g0_15"/>
<path d="M91.8,566.7H843.2V566H91.8v.7Z" class="g0_15"/>
<path d="M91.8,593.6H843.2v-.7H91.8v.7Z" class="g0_15"/>
<path d="M91.8,620.7H843.2v-.8H91.8v.8Z" class="g0_15"/>
<path d="M91.8,678.7H843.2V678H91.8v.7Z" class="g0_15"/>
<path d="M91.8,703.2H843.2v-.8H91.8v.8Z" class="g0_15"/>
<path d="M91.8,763.8H843.2V763H91.8v.8Z" class="g0_15"/>
<path d="M91.8,788.2H843.2v-.8H91.8v.8Z" class="g0_15"/>
<path d="M91.8,812.6H843.2v-.7H91.8v.7Z" class="g0_15"/>
<path d="M91.8,837.1H843.2v-.7H91.8v.7Z" class="g0_15"/>
<path d="M91.8,861.5H843.2v-.7H91.8v.7Z" class="g0_15"/>
<path d="M91.8,886H843.2v-.8H91.8v.8Z" class="g0_15"/>
<path d="M91.8,910.4H843.2v-.7H91.8v.7Z" class="g0_15"/>
<path d="M91.8,934.8H843.2v-.7H91.8v.7Z" class="g0_15"/>
<path d="M91.8,959.3H843.2v-.7H91.8v.7Z" class="g0_15"/>
<path d="M91.8,983.8H843.2V983H91.8v.8Z" class="g0_15"/>
<path d="M91.8,1008.2H843.2v-.8H91.8v.8Z" class="g0_15"/>
<path d="M91.8,1032.6H843.2v-.7H91.8v.7Z" class="g0_15"/>
<path d="M91.8,1057.1H843.2v-.7H91.8v.7Z" class="g0_15"/>
<path d="M91.8,1081.5H843.2v-.7H91.8v.7Z" class="g0_15"/>
</svg>