<?xml version="1.0" encoding="UTF-8" standalone="no"?>
<!DOCTYPE svg PUBLIC "-//W3C//DTD SVG 1.1//EN"
"http://www.w3.org/Graphics/SVG/1.1/DTD/svg11.dtd">
<svg viewBox="0 0 935 1210" version="1.1" xmlns="http://www.w3.org/2000/svg" xmlns:xlink="http://www.w3.org/1999/xlink">
<defs>
<clipPath id="c0_3238"><path d="M97.3,59.2V41.4h72.1V59.2Z"/></clipPath>
<style type="text/css"><![CDATA[
.g0_3238{
fill: #000;
}
]]></style>
</defs>
<path d="M96.3,63.3H838.8v-.4H96.3v.4Z" class="g0_3238"/>
<path d="M96.1,1114.5h.2v-.4h-.2v.4Z" class="g0_3238"/>
<path d="M96.3,1114.5H838.9v-.4H96.3v.4Z" class="g0_3238"/>
<image clip-path="url(#c0_3238)" preserveAspectRatio="none" x="97" y="41" width="73" height="18" xlink:href="img/1.jpg"/>
<path d="M95.9,578.6h.7V189.4h-.7V578.6Z" class="g0_3238"/>
<path d="M248.2,325.8h.8V186.4h-.8V325.8Z" class="g0_3238"/>
<path d="M248.2,579.4h.8v-230h-.8v230Z" class="g0_3238"/>
<path d="M292.2,325.8h.8V186.4h-.8V325.8Z" class="g0_3238"/>
<path d="M292.2,579.4h.8v-230h-.8v230Z" class="g0_3238"/>
<path d="M349.4,325.8h.8V186.4h-.8V325.8Z" class="g0_3238"/>
<path d="M349.4,579.4h.8v-230h-.8v230Z" class="g0_3238"/>
<path d="M425.3,325.8h.8V186.4h-.8V325.8Z" class="g0_3238"/>
<path d="M425.3,579.4h.8v-230h-.8v230Z" class="g0_3238"/>
<path d="M840,578.6h.8V189.4H840V578.6Z" class="g0_3238"/>
<path d="M95.9,189.5H840.8v-3H95.9v3Z" class="g0_3238"/>
<path d="M95.9,232.2H840.8v-3H95.9v3Z" class="g0_3238"/>
<path d="M95.9,270.8H840.8v-.7H95.9v.7Z" class="g0_3238"/>
<path d="M95.9,325.8H840.8v-.7H95.9v.7Z" class="g0_3238"/>
<path d="M95.9,350.3H840.8v-.8H95.9v.8Z" class="g0_3238"/>
<path d="M95.9,389.9H840.8v-.7H95.9v.7Z" class="g0_3238"/>
<path d="M95.9,444.9H840.8v-.7H95.9v.7Z" class="g0_3238"/>
<path d="M95.9,499.9H840.8v-.7H95.9v.7Z" class="g0_3238"/>
<path d="M95.9,539.6H840.8v-.7H95.9v.7Z" class="g0_3238"/>
<path d="M95.9,579.4H840.8v-.7H95.9v.7Z" class="g0_3238"/>
</svg>