<?xml version="1.0" encoding="UTF-8" standalone="no"?>
<!DOCTYPE svg PUBLIC "-//W3C//DTD SVG 1.1//EN"
"http://www.w3.org/Graphics/SVG/1.1/DTD/svg11.dtd">
<svg viewBox="0 0 935 1210" version="1.1" xmlns="http://www.w3.org/2000/svg" xmlns:xlink="http://www.w3.org/1999/xlink">
<defs>
<style type="text/css"><![CDATA[
.g0_75{
fill: #FFF;
}
.g1_75{
fill: #000;
}
]]></style>
</defs>
<path d="M68.9,1149.3H852.7v-21.2H68.9v21.2Z" class="g0_75"/>
<path d="M67.7,1058.4h.8V124.1h-.8v934.3Z" class="g1_75"/>
<path d="M122.5,1059.2h.7V164.6h-.7v894.6Z" class="g1_75"/>
<path d="M183.4,1059.2h.8V123.4h-.8v935.8Z" class="g1_75"/>
<path d="M418.4,1059.2h.7V123.4h-.7v935.8Z" class="g1_75"/>
<path d="M683.2,1059.2h.7V123.4h-.7v935.8Z" class="g1_75"/>
<path d="M854.2,1058.4h.8V124.1h-.8v934.3Z" class="g1_75"/>
<path d="M67.7,124.1H855v-.7H67.7v.7Z" class="g1_75"/>
<path d="M67.7,165.4H184.2v-.8H67.7v.8Z" class="g1_75"/>
<path d="M67.7,189.8H855v-.7H67.7v.7Z" class="g1_75"/>
<path d="M183.4,269.2H855v-.7H183.4v.7Z" class="g1_75"/>
<path d="M67.7,310.5H855v-.8H67.7v.8Z" class="g1_75"/>
<path d="M183.4,351.7H855V351H183.4v.7Z" class="g1_75"/>
<path d="M183.4,431.2H855v-.7H183.4v.7Z" class="g1_75"/>
<path d="M67.7,472.4H855v-.7H67.7v.7Z" class="g1_75"/>
<path d="M183.4,513.7H855V513H183.4v.7Z" class="g1_75"/>
<path d="M183.4,554.9H855v-.7H183.4v.7Z" class="g1_75"/>
<path d="M183.4,579.4H855v-.7H183.4v.7Z" class="g1_75"/>
<path d="M183.4,637.4H855v-.7H183.4v.7Z" class="g1_75"/>
<path d="M67.7,661.9H855v-.7H67.7v.7Z" class="g1_75"/>
<path d="M183.4,703.2H855v-.8H183.4v.8Z" class="g1_75"/>
<path d="M183.4,727.7H855v-.8H183.4v.8Z" class="g1_75"/>
<path d="M183.4,785.7H855v-.8H183.4v.8Z" class="g1_75"/>
<path d="M67.7,843.7H855V843H67.7v.7Z" class="g1_75"/>
<path d="M183.4,918.6H855v-.7H183.4v.7Z" class="g1_75"/>
<path d="M183.4,976.6H855v-.7H183.4v.7Z" class="g1_75"/>
<path d="M183.4,1001.1H855v-.7H183.4v.7Z" class="g1_75"/>
<path d="M67.7,1059.1H855v-.7H67.7v.7Z" class="g1_75"/>
</svg>