<?xml version="1.0" encoding="UTF-8" standalone="no"?>
<!DOCTYPE svg PUBLIC "-//W3C//DTD SVG 1.1//EN"
"http://www.w3.org/Graphics/SVG/1.1/DTD/svg11.dtd">
<svg viewBox="0 0 935 1210" version="1.1" xmlns="http://www.w3.org/2000/svg" xmlns:xlink="http://www.w3.org/1999/xlink">
<defs>
<style type="text/css"><![CDATA[
.g0_1255{
fill: #FFF;
}
.g1_1255{
fill: #000;
}
]]></style>
</defs>
<path d="M68.9,1149.3H755.2v-21.2H68.9v21.2Z" class="g0_1255"/>
<path d="M771.3,1149.3H855v-21.2H771.3v21.2Z" class="g0_1255"/>
<path d="M69.9,231.8h.8V125.7h-.8V231.8Z" class="g1_1255"/>
<path d="M219.5,232.7h.8V124.9h-.8V232.7Z" class="g1_1255"/>
<path d="M389.2,232.7h.7V124.9h-.7V232.7Z" class="g1_1255"/>
<path d="M427.1,232.7h.7V124.9h-.7V232.7Z" class="g1_1255"/>
<path d="M500.4,232.7h.7V124.9h-.7V232.7Z" class="g1_1255"/>
<path d="M571.8,232.7h.8V124.9h-.8V232.7Z" class="g1_1255"/>
<path d="M848.9,231.8h.8V125.7h-.8V231.8Z" class="g1_1255"/>
<path d="M69.9,125.7H849.8v-.8H69.9v.8Z" class="g1_1255"/>
<path d="M69.9,163.8H849.8v-.7H69.9v.7Z" class="g1_1255"/>
<path d="M69.9,186.7H849.8V186H69.9v.7Z" class="g1_1255"/>
<path d="M69.9,209.6H849.8v-.7H69.9v.7Z" class="g1_1255"/>
<path d="M69.9,232.6H849.8v-.8H69.9v.8Z" class="g1_1255"/>
<path d="M69.9,335.8h.8V287.7h-.8v48.1Z" class="g1_1255"/>
<path d="M142.4,336.5h.8V286.8h-.8v49.7Z" class="g1_1255"/>
<path d="M314,336.5h.7V286.8H314v49.7Z" class="g1_1255"/>
<path d="M488.5,336.5h.7V286.8h-.7v49.7Z" class="g1_1255"/>
<path d="M671.8,336.5h.8V286.8h-.8v49.7Z" class="g1_1255"/>
<path d="M852.1,335.8h.8V287.7h-.8v48.1Z" class="g1_1255"/>
<path d="M69.9,287.6h783v-.8H69.9v.8Z" class="g1_1255"/>
<path d="M69.9,312h783v-.7H69.9v.7Z" class="g1_1255"/>
<path d="M69.9,336.5h783v-.7H69.9v.7Z" class="g1_1255"/>
</svg>