<?xml version="1.0" encoding="UTF-8" standalone="no"?>
<!DOCTYPE svg PUBLIC "-//W3C//DTD SVG 1.1//EN"
"http://www.w3.org/Graphics/SVG/1.1/DTD/svg11.dtd">
<svg viewBox="0 0 935 1210" version="1.1" xmlns="http://www.w3.org/2000/svg" xmlns:xlink="http://www.w3.org/1999/xlink">
<defs>
<clipPath id="c0_2002"><path d="M766.6,59.2V41.4h72.2V59.2Z"/></clipPath>
<style type="text/css"><![CDATA[
.g0_2002{
fill: #000;
}
]]></style>
</defs>
<path d="M97.4,63.3H839.9v-.4H97.4v.4Z" class="g0_2002"/>
<path d="M96.1,1114.5h.2v-.4h-.2v.4Z" class="g0_2002"/>
<path d="M96.3,1114.5H838.9v-.4H96.3v.4Z" class="g0_2002"/>
<image clip-path="url(#c0_2002)" preserveAspectRatio="none" x="767" y="41" width="72" height="18" xlink:href="img/1.jpg"/>
<path d="M95.9,872h.7V781.1h-.7V872Z" class="g0_2002"/>
<path d="M274.6,872.8h.8V780.4h-.8v92.4Z" class="g0_2002"/>
<path d="M352,872.8h.7V780.4H352v92.4Z" class="g0_2002"/>
<path d="M841.9,872h.7V781.1h-.7V872Z" class="g0_2002"/>
<path d="M95.9,781.1H842.7v-.7H95.9v.7Z" class="g0_2002"/>
<path d="M95.9,805.2H842.7v-3H95.9v3Z" class="g0_2002"/>
<path d="M95.9,826.9H842.7v-.7H95.9v.7Z" class="g0_2002"/>
<path d="M95.9,849.8H842.7v-.7H95.9v.7Z" class="g0_2002"/>
<path d="M95.9,872.8H842.7V872H95.9v.8Z" class="g0_2002"/>
</svg>