<?xml version="1.0" encoding="UTF-8" standalone="no"?>
<!DOCTYPE svg PUBLIC "-//W3C//DTD SVG 1.1//EN"
"http://www.w3.org/Graphics/SVG/1.1/DTD/svg11.dtd">
<svg viewBox="0 0 935 1210" version="1.1" xmlns="http://www.w3.org/2000/svg" xmlns:xlink="http://www.w3.org/1999/xlink">
<defs>
<style type="text/css"><![CDATA[
.g0_4413{
fill: #FFF;
}
.g1_4413{
fill: #000;
}
]]></style>
</defs>
<path d="M68.9,1149.3H852.7v-21.2H68.9v21.2Z" class="g0_4413"/>
<path d="M69.9,215.1h.8V125.7h-.8v89.4Z" class="g1_4413"/>
<path d="M255.2,215.8h.7V124.9h-.7v90.9Z" class="g1_4413"/>
<path d="M312.5,215.8h.7V124.9h-.7v90.9Z" class="g1_4413"/>
<path d="M386.9,215.8h.8V124.9h-.8v90.9Z" class="g1_4413"/>
<path d="M454.6,215.8h.7V124.9h-.7v90.9Z" class="g1_4413"/>
<path d="M852.6,215.1h.7V125.7h-.7v89.4Z" class="g1_4413"/>
<path d="M69.9,125.7H853.3v-.8H69.9v.8Z" class="g1_4413"/>
<path d="M69.9,179.1H853.3v-.7H69.9v.7Z" class="g1_4413"/>
<path d="M69.9,215.8H853.3v-.7H69.9v.7Z" class="g1_4413"/>
<path d="M68.9,318.9h.8V270.8h-.8v48.1Z" class="g1_4413"/>
<path d="M155.2,319.7h.7V270.1h-.7v49.6Z" class="g1_4413"/>
<path d="M303.1,319.7h.7V294.5h-.7v25.2Z" class="g1_4413"/>
<path d="M450.8,319.7h.8V270.1h-.8v49.6Z" class="g1_4413"/>
<path d="M647.4,319.7h.7V270.1h-.7v49.6Z" class="g1_4413"/>
<path d="M853,318.9h.8V270.8H853v48.1Z" class="g1_4413"/>
<path d="M68.9,270.8h785v-.7H68.9v.7Z" class="g1_4413"/>
<path d="M68.9,295.3h785v-.8H68.9v.8Z" class="g1_4413"/>
<path d="M68.9,319.6h785v-.7H68.9v.7Z" class="g1_4413"/>
<path d="M70.4,581.7h.7V533.6h-.7v48.1Z" class="g1_4413"/>
<path d="M461,582.4h.7V532.9H461v49.5Z" class="g1_4413"/>
<path d="M851.7,581.7h.7V533.6h-.7v48.1Z" class="g1_4413"/>
<path d="M70.3,533.6H852.4v-.7H70.3v.7Z" class="g1_4413"/>
<path d="M70.3,558.1H852.4v-.8H70.3v.8Z" class="g1_4413"/>
<path d="M70.3,582.4H852.4v-.7H70.3v.7Z" class="g1_4413"/>
</svg>