<?xml version="1.0" encoding="UTF-8" standalone="no"?>
<!DOCTYPE svg PUBLIC "-//W3C//DTD SVG 1.1//EN"
"http://www.w3.org/Graphics/SVG/1.1/DTD/svg11.dtd">
<svg viewBox="0 0 935 1210" version="1.1" xmlns="http://www.w3.org/2000/svg" xmlns:xlink="http://www.w3.org/1999/xlink">
<defs>
<style type="text/css"><![CDATA[
.g0_1628{
fill: #FFF;
}
.g1_1628{
fill: #000;
}
]]></style>
</defs>
<path d="M165,1149.3H852.5v-21.2H165v21.2Z" class="g0_1628"/>
<path d="M68.8,1149.3h82.5v-21.2H68.8v21.2Z" class="g0_1628"/>
<path d="M68.6,314.3h.7V125.7h-.7V314.3Z" class="g1_1628"/>
<path d="M323.3,315.2h.7V124.9h-.7V315.2Z" class="g1_1628"/>
<path d="M366.8,315.2h.8V124.9h-.8V315.2Z" class="g1_1628"/>
<path d="M441.3,315.2h.7V124.9h-.7V315.2Z" class="g1_1628"/>
<path d="M526.3,315.2h.7V124.9h-.7V315.2Z" class="g1_1628"/>
<path d="M851.4,314.3h.7V125.7h-.7V314.3Z" class="g1_1628"/>
<path d="M68.6,125.7H852.1v-.8H68.6v.8Z" class="g1_1628"/>
<path d="M68.6,179.1H852.1v-.7H68.6v.7Z" class="g1_1628"/>
<path d="M68.6,235.7H852.1v-.8H68.6v.8Z" class="g1_1628"/>
<path d="M68.6,275.4H852.1v-.8H68.6v.8Z" class="g1_1628"/>
<path d="M68.6,315.1H852.1v-.8H68.6v.8Z" class="g1_1628"/>
<path d="M68.6,419.7h.7V371.6h-.7v48.1Z" class="g1_1628"/>
<path d="M141,420.6h.7V370.9H141v49.7Z" class="g1_1628"/>
<path d="M253.7,420.6h.8V370.9h-.8v49.7Z" class="g1_1628"/>
<path d="M394.9,420.6h.7V370.9h-.7v49.7Z" class="g1_1628"/>
<path d="M547.3,420.6h.8V370.9h-.8v49.7Z" class="g1_1628"/>
<path d="M699.3,420.6h.8V370.9h-.8v49.7Z" class="g1_1628"/>
<path d="M850.5,419.7h.7V371.6h-.7v48.1Z" class="g1_1628"/>
<path d="M68.6,371.6H851.2v-.7H68.6v.7Z" class="g1_1628"/>
<path d="M68.6,396.1H851.2v-.7H68.6v.7Z" class="g1_1628"/>
<path d="M68.6,420.6H851.2v-.8H68.6v.8Z" class="g1_1628"/>
</svg>