<?xml version="1.0" encoding="UTF-8" standalone="no"?>
<!DOCTYPE svg PUBLIC "-//W3C//DTD SVG 1.1//EN"
"http://www.w3.org/Graphics/SVG/1.1/DTD/svg11.dtd">
<svg viewBox="0 0 825 990" version="1.1" xmlns="http://www.w3.org/2000/svg" xmlns:xlink="http://www.w3.org/1999/xlink">
<defs>
<style type="text/css"><![CDATA[
.g0_498{
fill: #000;
}
.g1_498{
fill: #FFF;
}
.g2_498{
fill: none;
stroke: #231F20;
stroke-width: 0.287;
stroke-miterlimit: 3;
}
.g3_498{
fill: none;
stroke: #FCE9F0;
stroke-width: 0.287;
stroke-miterlimit: 3;
}
.g4_498{
fill: none;
stroke: #231F20;
stroke-width: 0.299;
stroke-miterlimit: 3;
}
.g5_498{
fill: none;
stroke: #231F20;
stroke-width: 0.381;
stroke-miterlimit: 3;
}
]]></style>
</defs>
<path d="M79.8,910.3h.3v-.8h-.3v.8Z" class="g0_498"/>
<path d="M80.1,910.3h650v-.8H80.1v.8Z" class="g0_498"/>
<path d="M137,782.7H728.2V173.2H137V782.7Z" class="g1_498"/>
<path d="M311.3,288.4H467.2v26H311.3v-26Zm155.9,0H571.1v26H467.2v-26Zm181.9,0H727v26H649.1v-26Zm-78,0h78v26h-78v-26Z" class="g2_498"/>
<path d="M519.1,314.4h26v26h-26v-26Zm26,0h26v26h-26v-26Z" class="g3_498"/>
<path d="M467.2,314.4h51.9v26H467.2v-26Zm181.9,0H727v26H649.1v-26Zm-78,0h78v26h-78v-26Zm-52,0h26v26h-26v-26Zm26,0h26v26h-26v-26Zm-233.8,78H415.2v25.9H311.3V392.4Zm337.8,0H727v25.9H649.1V392.4Zm-78,0h78v25.9h-78V392.4Zm-77.9,0h77.9v25.9H493.2V392.4Zm-78,0h78v25.9h-78V392.4ZM311.3,418.3h77.9v26H311.3v-26Zm337.8,0H727v26H649.1v-26Zm-207.9,0H571.1v26H441.2v-26Zm-52,0h26v26h-26v-26Zm26,0h26v26h-26v-26Z" class="g2_498"/>
<path d="M415.2,444.3h26v26h-26v-26Z" class="g3_498"/>
<path d="M311.3,444.3H415.2v26H311.3v-26Zm337.8,0H727v26H649.1v-26Zm-78,0h78v26h-78v-26Zm-129.9,0H571.1v26H441.2v-26Zm-26,0h26v26h-26v-26Z" class="g2_498"/>
<path d="M415.2,470.3h26v26h-26v-26Z" class="g3_498"/>
<path d="M311.3,470.3H415.2v26H311.3v-26Zm207.8,0H727v26H519.1v-26Zm-77.9,0h77.9v26H441.2v-26Zm-26,0h26v26h-26v-26Z" class="g2_498"/>
<path d="M415.2,496.3h26v26h-26v-26Z" class="g3_498"/>
<path d="M311.3,496.3H415.2v26H311.3v-26Zm207.8,0H727v26H519.1v-26Zm-77.9,0h77.9v26H441.2v-26Zm-26,0h26v26h-26v-26Z" class="g2_498"/>
<path d="M311.3,210.5H467.2v25.9H311.3V210.5Zm155.9,0h25.9v25.9H467.2V210.5Zm181.9,0H727v25.9H649.1V210.5Zm-78,0h78v25.9h-78V210.5Zm-78,0h78v25.9h-78V210.5Z" class="g4_498"/>
<path d="M389.2,236.4h52v26h-52v-26Zm0,-25.9h52v25.9h-52V210.5ZM311.3,366.4H441.2v26H311.3v-26Zm207.8,0H727v26H519.1v-26Zm0,0h8.7h-8.7Zm-77.9,0h77.9v26H441.2v-26Z" class="g5_498"/>
<path d="M311.3,314.4H467.2v26H311.3v-26Zm0,26H467.2v26H311.3v-26Z" class="g2_498"/>
<path d="M545.1,340.4h26v26h-26v-26Z" class="g4_498"/>
<path d="M467.2,340.4h51.9v26H467.2v-26Zm181.9,0H727v26H649.1v-26Zm-78,0h78v26h-78v-26Zm-52,-78H727v26H519.1v-26Zm-77.9,0h77.9v26H441.2v-26Zm-129.9,0h77.9v26H311.3v-26Zm77.9,0h52v26h-52v-26Zm78,-26h26v26h-26v-26Zm-155.9,0h77.9v26H311.3v-26Zm337.8,0H727v26H649.1v-26Zm-78,0h78v26h-78v-26ZM311.3,184.5h77.9v26H311.3v-26Zm337.8,0H727v26H649.1v-26Zm-78,0h78v26h-78v-26Zm-129.9,0H571.1v26H441.2v-26Zm-52,0h52v26h-52v-26ZM571.1,418.3h78v26h-78v-26Zm-259.8,104H415.2v26H311.3v-26Zm103.9,0H727v26H415.2v-26Z" class="g5_498"/>
<path d="M311.3,574.3H415.2v25.9H311.3V574.3Zm207.8,0H727v25.9H519.1V574.3Zm-103.9,0H519.1v25.9H415.2V574.3ZM311.3,600.2H415.2v26H311.3v-26Zm207.8,0H727v26H519.1v-26Zm-207.8,26H415.2v26H311.3v-26Zm207.8,0H727v26H519.1v-26Zm-207.8,26H441.2v26H311.3v-26Zm129.9,0H727v26H441.2v-26Zm-129.9,52H441.2v26H311.3v-26Zm129.9,0H727v26H441.2v-26Zm-129.9,26H441.2v26H311.3v-26Zm129.9,0H727v26H441.2v-26Zm-129.9,26H441.2v25.9H311.3V756.2Zm129.9,0H727v25.9H441.2V756.2ZM311.3,548.3H415.2v26H311.3v-26Zm207.8,0H727v26H519.1v-26Zm-103.9,0h26v26h-26v-26Zm26,0h77.9v26H441.2v-26Z" class="g2_498"/>
<path d="M415.2,600.2H519.1v26H415.2v-26Zm0,26H519.1v26H415.2v-26Z" class="g5_498"/>
<path d="M311.3,678.2H441.2v26H311.3v-26Zm129.9,0H727v26H441.2v-26Z" class="g2_498"/>
<path d="M701,678.2h26v26H701v-26Zm0,26h26v26H701v-26Z" class="g5_498"/>
</svg>