<?xml version="1.0" encoding="UTF-8" standalone="no"?>
<!DOCTYPE svg PUBLIC "-//W3C//DTD SVG 1.1//EN"
"http://www.w3.org/Graphics/SVG/1.1/DTD/svg11.dtd">
<svg viewBox="0 0 935 1210" version="1.1" xmlns="http://www.w3.org/2000/svg" xmlns:xlink="http://www.w3.org/1999/xlink">
<defs>
<style type="text/css"><![CDATA[
.g0_2328{
fill: #FFF;
}
.g1_2328{
fill: #0860A8;
}
.g2_2328{
fill: #000;
}
]]></style>
</defs>
<path d="M165,1149.3H852.5v-21.2H165v21.2Z" class="g0_2328"/>
<path d="M68.8,1149.3h82.5v-21.2H68.8v21.2Z" class="g0_2328"/>
<path d="M523.4,625h328v-.8h-328v.8Z" class="g1_2328"/>
<path d="M68.9,641.8H742.2V641H68.9v.8Z" class="g1_2328"/>
<path d="M68.6,267h.7V147h-.7V267Z" class="g2_2328"/>
<path d="M256.9,267.8h.8V146.3h-.8V267.8Z" class="g2_2328"/>
<path d="M300.5,267.8h.7V146.3h-.7V267.8Z" class="g2_2328"/>
<path d="M375,267.8h.7V146.3H375V267.8Z" class="g2_2328"/>
<path d="M458.9,267.8h.7V146.3h-.7V267.8Z" class="g2_2328"/>
<path d="M849.8,267h.7V147h-.7V267Z" class="g2_2328"/>
<path d="M68.6,147H850.5v-.7H68.6v.7Z" class="g2_2328"/>
<path d="M68.6,197.4H850.5v-.7H68.6v.7Z" class="g2_2328"/>
<path d="M68.6,267.8H850.5V267H68.6v.8Z" class="g2_2328"/>
<path d="M68.6,370.9h.7V322.8h-.7v48.1Z" class="g2_2328"/>
<path d="M131,371.6h.7V322H131v49.6Z" class="g2_2328"/>
<path d="M233.8,371.6h.8V322h-.8v49.6Z" class="g2_2328"/>
<path d="M385.4,371.6h.7V322h-.7v49.6Z" class="g2_2328"/>
<path d="M537,371.6h.7V322H537v49.6Z" class="g2_2328"/>
<path d="M690.7,371.6h.7V322h-.7v49.6Z" class="g2_2328"/>
<path d="M845.2,370.9h.7V322.8h-.7v48.1Z" class="g2_2328"/>
<path d="M68.6,322.8H845.9V322H68.6v.8Z" class="g2_2328"/>
<path d="M68.6,347.1H845.9v-.7H68.6v.7Z" class="g2_2328"/>
<path d="M68.6,371.6H845.9v-.7H68.6v.7Z" class="g2_2328"/>
</svg>