<?xml version="1.0" encoding="UTF-8" standalone="no"?>
<!DOCTYPE svg PUBLIC "-//W3C//DTD SVG 1.1//EN"
"http://www.w3.org/Graphics/SVG/1.1/DTD/svg11.dtd">
<svg viewBox="0 0 935 1210" version="1.1" xmlns="http://www.w3.org/2000/svg" xmlns:xlink="http://www.w3.org/1999/xlink">
<defs>
<style type="text/css"><![CDATA[
.g0_2689{
fill: #FFF;
}
.g1_2689{
fill: #000;
}
]]></style>
</defs>
<path d="M68.9,1149.3H755.2v-21.2H68.9v21.2Z" class="g0_2689"/>
<path d="M771.3,1149.3H855v-21.2H771.3v21.2Z" class="g0_2689"/>
<path d="M69.9,346.4h.8V131.8h-.8V346.4Z" class="g1_2689"/>
<path d="M311.8,347.2h.8V131h-.8V347.2Z" class="g1_2689"/>
<path d="M355.4,347.2h.7V131h-.7V347.2Z" class="g1_2689"/>
<path d="M413.9,347.2h.7V131h-.7V347.2Z" class="g1_2689"/>
<path d="M492.8,347.2h.7V131h-.7V347.2Z" class="g1_2689"/>
<path d="M848.8,346.4h.8V131.8h-.8V346.4Z" class="g1_2689"/>
<path d="M69.9,131.7H849.6V131H69.9v.7Z" class="g1_2689"/>
<path d="M69.9,188.3H849.6v-.7H69.9v.7Z" class="g1_2689"/>
<path d="M69.9,228H849.6v-.8H69.9v.8Z" class="g1_2689"/>
<path d="M69.9,267.8H849.6V267H69.9v.8Z" class="g1_2689"/>
<path d="M69.9,307.4H849.6v-.7H69.9v.7Z" class="g1_2689"/>
<path d="M69.9,347.1H849.6v-.7H69.9v.7Z" class="g1_2689"/>
<path d="M69.9,447.2h.8V399.1h-.8v48.1Z" class="g1_2689"/>
<path d="M140.2,448.1h.7V398.4h-.7v49.7Z" class="g1_2689"/>
<path d="M315.2,448.1h.7V398.4h-.7v49.7Z" class="g1_2689"/>
<path d="M485.3,448.1h.7V398.4h-.7v49.7Z" class="g1_2689"/>
<path d="M668.5,448.1h.8V398.4h-.8v49.7Z" class="g1_2689"/>
<path d="M849.8,447.2h.8V399.1h-.8v48.1Z" class="g1_2689"/>
<path d="M69.9,399.1H850.6v-.7H69.9v.7Z" class="g1_2689"/>
<path d="M69.9,423.6H850.6v-.7H69.9v.7Z" class="g1_2689"/>
<path d="M69.9,448.1H850.6v-.8H69.9v.8Z" class="g1_2689"/>
</svg>