<?xml version="1.0" encoding="UTF-8" standalone="no"?>
<!DOCTYPE svg PUBLIC "-//W3C//DTD SVG 1.1//EN"
"http://www.w3.org/Graphics/SVG/1.1/DTD/svg11.dtd">
<svg viewBox="0 0 935 1210" version="1.1" xmlns="http://www.w3.org/2000/svg" xmlns:xlink="http://www.w3.org/1999/xlink">
<defs>
<style type="text/css"><![CDATA[
.g0_1568{
fill: #FFF;
}
.g1_1568{
fill: #000;
}
]]></style>
</defs>
<path d="M165,1149.3H852.5v-21.2H165v21.2Z" class="g0_1568"/>
<path d="M68.8,1149.3h82.5v-21.2H68.8v21.2Z" class="g0_1568"/>
<path d="M68.6,1008h.7V107.3h-.7V1008Z" class="g1_1568"/>
<path d="M300.8,1008.8h.7V106.6h-.7v902.2Z" class="g1_1568"/>
<path d="M348,1008.8h.7V106.6H348v902.2Z" class="g1_1568"/>
<path d="M422.5,1008.8h.7V106.6h-.7v902.2Z" class="g1_1568"/>
<path d="M510.9,1008.8h.7V106.6h-.7v902.2Z" class="g1_1568"/>
<path d="M854.2,1008h.7V107.3h-.7V1008Z" class="g1_1568"/>
<path d="M68.6,107.3H854.9v-.7H68.6v.7Z" class="g1_1568"/>
<path d="M68.6,160.8H854.9v-.7H68.6v.7Z" class="g1_1568"/>
<path d="M68.6,217.3H854.9v-.7H68.6v.7Z" class="g1_1568"/>
<path d="M68.6,273.8H854.9v-.7H68.6v.7Z" class="g1_1568"/>
<path d="M68.6,330.4H854.9v-.8H68.6v.8Z" class="g1_1568"/>
<path d="M68.6,386.9H854.9v-.7H68.6v.7Z" class="g1_1568"/>
<path d="M68.6,443.5H854.9v-.8H68.6v.8Z" class="g1_1568"/>
<path d="M68.6,499.9H854.9v-.7H68.6v.7Z" class="g1_1568"/>
<path d="M68.6,556.5H854.9v-.7H68.6v.7Z" class="g1_1568"/>
<path d="M68.6,613.1H854.9v-.8H68.6v.8Z" class="g1_1568"/>
<path d="M68.6,669.5H854.9v-.7H68.6v.7Z" class="g1_1568"/>
<path d="M68.6,726.1H854.9v-.7H68.6v.7Z" class="g1_1568"/>
<path d="M68.6,782.7H854.9v-.8H68.6v.8Z" class="g1_1568"/>
<path d="M68.6,839.1H854.9v-.7H68.6v.7Z" class="g1_1568"/>
<path d="M68.6,895.7H854.9v-.8H68.6v.8Z" class="g1_1568"/>
<path d="M68.6,952.2H854.9v-.7H68.6v.7Z" class="g1_1568"/>
<path d="M68.6,1008.7H854.9v-.7H68.6v.7Z" class="g1_1568"/>
</svg>