<?xml version="1.0" encoding="UTF-8" standalone="no"?>
<!DOCTYPE svg PUBLIC "-//W3C//DTD SVG 1.1//EN"
"http://www.w3.org/Graphics/SVG/1.1/DTD/svg11.dtd">
<svg viewBox="0 0 935 1210" version="1.1" xmlns="http://www.w3.org/2000/svg" xmlns:xlink="http://www.w3.org/1999/xlink">
<defs>
<style type="text/css"><![CDATA[
.g0_126{
fill: #000;
}
]]></style>
</defs>
<path d="M95.9,794.1h.7V169.9h-.7V794.1Z" class="g0_126"/>
<path d="M164.6,794.8h.8V201.3h-.8V794.8Z" class="g0_126"/>
<path d="M233.4,794.8h.7V169.2h-.7V794.8Z" class="g0_126"/>
<path d="M563.4,794.8h.7V169.2h-.7V794.8Z" class="g0_126"/>
<path d="M632.1,794.8h.8V169.2h-.8V794.8Z" class="g0_126"/>
<path d="M728.4,794.8h.7V169.2h-.7V794.8Z" class="g0_126"/>
<path d="M838.4,794.1h.7V169.9h-.7V794.1Z" class="g0_126"/>
<path d="M95.9,169.9H839.1v-.7H95.9v.7Z" class="g0_126"/>
<path d="M95.9,202H234.1v-.7H95.9v.7Z" class="g0_126"/>
<path d="M96.6,232.2H838.4v-.7H96.6v.7Z" class="g0_126"/>
<path d="M96.6,236H838.4v-.7H96.6v.7Z" class="g0_126"/>
<path d="M95.9,296.7H839.1V296H95.9v.7Z" class="g0_126"/>
<path d="M95.9,393H839.1v-.8H95.9v.8Z" class="g0_126"/>
<path d="M95.9,438.8H839.1v-.7H95.9v.7Z" class="g0_126"/>
<path d="M95.9,602.3H839.1v-.7H95.9v.7Z" class="g0_126"/>
<path d="M95.9,681.7H839.1V681H95.9v.7Z" class="g0_126"/>
<path d="M95.9,794.8H839.1v-.7H95.9v.7Z" class="g0_126"/>
<path d="M106.9,908.9h.3V878.7h-.3v30.2Z" class="g0_126"/>
<path d="M151.9,909.2h.4V878.3h-.4v30.9Z" class="g0_126"/>
<path d="M693,909.2h.4V878.3H693v30.9Z" class="g0_126"/>
<path d="M760.4,909.2h.3V878.3h-.3v30.9Z" class="g0_126"/>
<path d="M782.8,909.2h.4V878.3h-.4v30.9Z" class="g0_126"/>
<path d="M805.3,909.2h.4V878.3h-.4v30.9Z" class="g0_126"/>
<path d="M827.7,908.9h.4V878.7h-.4v30.2Z" class="g0_126"/>
<path d="M106.9,878.6H828.1v-.3H106.9v.3Z" class="g0_126"/>
<path d="M106.9,909.2H828.1v-.3H106.9v.3Z" class="g0_126"/>
</svg>