<?xml version="1.0" encoding="UTF-8" standalone="no"?>
<!DOCTYPE svg PUBLIC "-//W3C//DTD SVG 1.1//EN"
"http://www.w3.org/Graphics/SVG/1.1/DTD/svg11.dtd">
<svg viewBox="0 0 935 1210" version="1.1" xmlns="http://www.w3.org/2000/svg" xmlns:xlink="http://www.w3.org/1999/xlink">
<defs>
<style type="text/css"><![CDATA[
.g0_636{
fill: #FFF;
}
.g1_636{
fill: #000;
}
]]></style>
</defs>
<path d="M165,1149.3H852.5v-21.2H165v21.2Z" class="g0_636"/>
<path d="M68.8,1149.3h82.5v-21.2H68.8v21.2Z" class="g0_636"/>
<path d="M68.6,331.2h.7V125.7h-.7V331.2Z" class="g1_636"/>
<path d="M258.1,331.9h.8v-207h-.8v207Z" class="g1_636"/>
<path d="M304.4,331.9h.8v-207h-.8v207Z" class="g1_636"/>
<path d="M378.9,331.9h.7v-207h-.7v207Z" class="g1_636"/>
<path d="M461.8,331.9h.8v-207h-.8v207Z" class="g1_636"/>
<path d="M850.2,331.2h.7V125.7h-.7V331.2Z" class="g1_636"/>
<path d="M68.6,125.7H850.9v-.8H68.6v.8Z" class="g1_636"/>
<path d="M68.6,179.1H850.9v-.7H68.6v.7Z" class="g1_636"/>
<path d="M68.6,218.8H850.9v-.7H68.6v.7Z" class="g1_636"/>
<path d="M68.6,275.4H850.9v-.8H68.6v.8Z" class="g1_636"/>
<path d="M68.6,331.9H850.9v-.7H68.6v.7Z" class="g1_636"/>
<path d="M68.6,483.9h.7v-97h-.7v97Z" class="g1_636"/>
<path d="M161.6,484.7h.7V386.2h-.7v98.5Z" class="g1_636"/>
<path d="M254.7,484.7h.8V386.2h-.8v98.5Z" class="g1_636"/>
<path d="M408.7,484.7h.7V386.2h-.7v98.5Z" class="g1_636"/>
<path d="M556.2,484.7h.8V386.2h-.8v98.5Z" class="g1_636"/>
<path d="M707.9,484.7h.8V386.2h-.8v98.5Z" class="g1_636"/>
<path d="M849.7,483.9h.7v-97h-.7v97Z" class="g1_636"/>
<path d="M68.6,386.9H850.4v-.7H68.6v.7Z" class="g1_636"/>
<path d="M68.6,411.4H850.4v-.7H68.6v.7Z" class="g1_636"/>
<path d="M68.6,435.8H850.4v-.7H68.6v.7Z" class="g1_636"/>
<path d="M68.6,460.3H850.4v-.8H68.6v.8Z" class="g1_636"/>
<path d="M68.6,484.7H850.4V484H68.6v.7Z" class="g1_636"/>
</svg>