<?xml version="1.0" encoding="UTF-8" standalone="no"?>
<!DOCTYPE svg PUBLIC "-//W3C//DTD SVG 1.1//EN"
"http://www.w3.org/Graphics/SVG/1.1/DTD/svg11.dtd">
<svg viewBox="0 0 935 1210" version="1.1" xmlns="http://www.w3.org/2000/svg" xmlns:xlink="http://www.w3.org/1999/xlink">
<defs>
<style type="text/css"><![CDATA[
.g0_1538{
fill: #FFF;
}
.g1_1538{
fill: #000;
}
]]></style>
</defs>
<path d="M165,1149.3H852.5v-21.2H165v21.2Z" class="g0_1538"/>
<path d="M68.8,1149.3h82.5v-21.2H68.8v21.2Z" class="g0_1538"/>
<path d="M68.9,931.1h784V901.4H68.9v29.7Z" class="g0_1538"/>
<path d="M69.9,924.4h53.5V911.9H69.9v12.5Z" class="g0_1538"/>
<path d="M68.6,901.1h.7V125.7h-.7V901.1Z" class="g1_1538"/>
<path d="M325.2,901.8h.8V124.9h-.8V901.8Z" class="g1_1538"/>
<path d="M372.3,901.8h.7V124.9h-.7V901.8Z" class="g1_1538"/>
<path d="M445.6,901.8h.7V124.9h-.7V901.8Z" class="g1_1538"/>
<path d="M535,901.8h.7V124.9H535V901.8Z" class="g1_1538"/>
<path d="M852.5,901.1h.7V125.7h-.7V901.1Z" class="g1_1538"/>
<path d="M68.6,125.7H853.2v-.8H68.6v.8Z" class="g1_1538"/>
<path d="M68.6,179.1H853.2v-.7H68.6v.7Z" class="g1_1538"/>
<path d="M68.6,223.4H853.2v-.7H68.6v.7Z" class="g1_1538"/>
<path d="M68.6,279.9H853.2v-.7H68.6v.7Z" class="g1_1538"/>
<path d="M68.6,336.5H853.2v-.7H68.6v.7Z" class="g1_1538"/>
<path d="M68.6,393H853.2v-.8H68.6v.8Z" class="g1_1538"/>
<path d="M68.6,449.5H853.2v-.7H68.6v.7Z" class="g1_1538"/>
<path d="M68.6,506.1H853.2v-.7H68.6v.7Z" class="g1_1538"/>
<path d="M68.6,562.7H853.2v-.8H68.6v.8Z" class="g1_1538"/>
<path d="M68.6,619.1H853.2v-.7H68.6v.7Z" class="g1_1538"/>
<path d="M68.6,675.7H853.2v-.8H68.6v.8Z" class="g1_1538"/>
<path d="M68.6,732.2H853.2v-.7H68.6v.7Z" class="g1_1538"/>
<path d="M68.6,788.7H853.2V788H68.6v.7Z" class="g1_1538"/>
<path d="M68.6,845.3H853.2v-.8H68.6v.8Z" class="g1_1538"/>
<path d="M68.6,901.8H853.2v-.7H68.6v.7Z" class="g1_1538"/>
</svg>