<?xml version="1.0" encoding="UTF-8" standalone="no"?>
<!DOCTYPE svg PUBLIC "-//W3C//DTD SVG 1.1//EN"
"http://www.w3.org/Graphics/SVG/1.1/DTD/svg11.dtd">
<svg viewBox="0 0 935 1210" version="1.1" xmlns="http://www.w3.org/2000/svg" xmlns:xlink="http://www.w3.org/1999/xlink">
<defs>
<clipPath id="c0_1174"><path d="M97.3,59.2V41.4h72.1V59.2Z"/></clipPath>
<style type="text/css"><![CDATA[
.g0_1174{
fill: #000;
}
]]></style>
</defs>
<path d="M96.2,62.9v.3H838.7v-.3H96.2Z" class="g0_1174"/>
<path d="M96.2,1114.1h-.1v.3h.1v-.3Z" class="g0_1174"/>
<path d="M838.7,1114.1h.2v.3h-.2v-.3Z" class="g0_1174"/>
<path d="M96.2,1114.1v.3H838.7v-.3H96.2Z" class="g0_1174"/>
<image clip-path="url(#c0_1174)" preserveAspectRatio="none" x="97" y="41" width="72" height="18" xlink:href="img/1.jpg"/>
<path d="M92.9,179.1h-.7V477.7h.7V179.1Z" class="g0_1174"/>
<path d="M200.2,178.4h-.7V478.6h.7V178.4Z" class="g0_1174"/>
<path d="M414.1,178.4h-.7V478.6h.7V178.4Z" class="g0_1174"/>
<path d="M535.1,178.4h-.7V478.6h.7V178.4Z" class="g0_1174"/>
<path d="M842.7,179.1H842V477.7h.7V179.1Z" class="g0_1174"/>
<path d="M92.2,178.4v.7H842.7v-.7H92.2Z" class="g0_1174"/>
<path d="M92.2,221.1v.7H842.7v-.7H92.2Z" class="g0_1174"/>
<path d="M92.2,263.9v.7H414.1v-.7H92.2Z" class="g0_1174"/>
<path d="M92.2,306.7v.7H842.7v-.7H92.2Z" class="g0_1174"/>
<path d="M92.2,331.2v.7H414.1v-.7H92.2Z" class="g0_1174"/>
<path d="M92.2,355.6v.7H414.1v-.7H92.2Z" class="g0_1174"/>
<path d="M92.2,380v.8H414.1V380H92.2Z" class="g0_1174"/>
<path d="M92.2,404.5v.7H842.7v-.7H92.2Z" class="g0_1174"/>
<path d="M92.2,428.9v.7H414.1v-.7H92.2Z" class="g0_1174"/>
<path d="M92.2,453.4v.7H414.1v-.7H92.2Z" class="g0_1174"/>
<path d="M92.2,477.8v.8H842.7v-.8H92.2Z" class="g0_1174"/>
<path d="M94.7,649.7H94v420.8h.7V649.7Z" class="g0_1174"/>
<path d="M203.6,648.9h-.7v422.5h.7V648.9Z" class="g0_1174"/>
<path d="M343.3,648.9h-.8v422.5h.8V648.9Z" class="g0_1174"/>
<path d="M660.2,648.9h-.8v422.5h.8V648.9Z" class="g0_1174"/>
<path d="M841,649.7h-.7v420.8h.7V649.7Z" class="g0_1174"/>
<path d="M94,648.9v.7H841v-.7H94Z" class="g0_1174"/>
<path d="M94,673.4v.7H841v-.7H94Z" class="g0_1174"/>
<path d="M94,734.5v.7H841v-.7H94Z" class="g0_1174"/>
<path d="M94,777.2v.7H841v-.7H94Z" class="g0_1174"/>
<path d="M94,838.3v.8H841v-.8H94Z" class="g0_1174"/>
<path d="M94,881.2v.7H841v-.7H94Z" class="g0_1174"/>
<path d="M94,923.9v.7H841v-.7H94Z" class="g0_1174"/>
<path d="M94,948.3v.8H841v-.8H94Z" class="g0_1174"/>
<path d="M94,1009.5v.7H841v-.7H94Z" class="g0_1174"/>
<path d="M94,1070.6v.8H841v-.8H94Z" class="g0_1174"/>
</svg>