<?xml version="1.0" encoding="UTF-8" standalone="no"?>
<!DOCTYPE svg PUBLIC "-//W3C//DTD SVG 1.1//EN"
"http://www.w3.org/Graphics/SVG/1.1/DTD/svg11.dtd">
<svg viewBox="0 0 935 1210" version="1.1" xmlns="http://www.w3.org/2000/svg" xmlns:xlink="http://www.w3.org/1999/xlink">
<defs>
<style type="text/css"><![CDATA[
.g0_1359{
fill: #FFF;
}
.g1_1359{
fill: #000;
}
]]></style>
</defs>
<path d="M68.9,1149.3H755.2v-21.2H68.9v21.2Z" class="g0_1359"/>
<path d="M771.3,1149.3H855v-21.2H771.3v21.2Z" class="g0_1359"/>
<path d="M171.3,850.8h.8V218.9h-.8V850.8Z" class="g1_1359"/>
<path d="M750.7,850.8h.7V218.9h-.7V850.8Z" class="g1_1359"/>
<path d="M171.3,218.8H751.4v-.7H171.3v.7Z" class="g1_1359"/>
<path d="M171.3,851.5H751.4v-.7H171.3v.7Z" class="g1_1359"/>
<path d="M242.5,300.8h110V273.3h-110v27.5Z" class="g0_1359"/>
<path d="M242.5,273.6H352.9v-.7H242.5v.7Z" class="g1_1359"/>
<path d="M352.2,301.1h.7V273.3h-.7v27.8Z" class="g1_1359"/>
<path d="M242.2,301.1H352.6v-.7H242.2v.7Z" class="g1_1359"/>
<path d="M242.2,300.8h.7V272.9h-.7v27.9Z" class="g1_1359"/>
<path d="M352.5,300.8H462.6V273.3H352.5v27.5Z" class="g0_1359"/>
<path d="M352.5,273.6H462.9v-.7H352.5v.7Z" class="g1_1359"/>
<path d="M462.2,301.1h.7V273.3h-.7v27.8Z" class="g1_1359"/>
<path d="M352.2,301.1H462.6v-.7H352.2v.7Z" class="g1_1359"/>
<path d="M352.2,300.8h.7V272.9h-.7v27.9Z" class="g1_1359"/>
<path d="M462.6,300.8h110V273.3h-110v27.5Z" class="g0_1359"/>
<path d="M462.6,273.6H572.9v-.7H462.6v.7Z" class="g1_1359"/>
<path d="M572.2,301.1h.7V273.3h-.7v27.8Z" class="g1_1359"/>
<path d="M462.2,301.1H572.5v-.7H462.2v.7Z" class="g1_1359"/>
<path d="M462.2,300.8h.7V272.9h-.7v27.9Z" class="g1_1359"/>
<path d="M572.6,300.8h110V273.3h-110v27.5Z" class="g0_1359"/>
<path d="M572.6,273.6H682.9v-.7H572.6v.7Z" class="g1_1359"/>
<path d="M682.2,301.1h.7V273.3h-.7v27.8Z" class="g1_1359"/>
<path d="M572.2,301.1H682.5v-.7H572.2v.7Z" class="g1_1359"/>
<path d="M572.2,300.8h.7V272.9h-.7v27.9Z" class="g1_1359"/>
<path d="M567,343.3l-.6,.5l1.4,1.2l.5,-.5Z" class="g1_1359"/>
<path d="M567.3,344.5l1,-2.9l.5,-1.4l.9,1.3l5.7,8.4l1.5,2.2L574.5,351l-9.2,-4l-1.5,-.7l1.4,-.7h.8l9.1,4l-.6,1.4l-.4,-.3l-5.7,-8.3l1.3,-.9l.1,.7l-1,2.8Z" class="g1_1359"/>
<path d="M565.2,345.6l2.5,-1.5l1.1,.9l-.1,.3l-.3,.1l-2.4,1.5Z" class="g1_1359"/>
<path fill-rule="evenodd" d="M568.1,344.8l1,-2.9l5.7,8.4l-9.2,-4.1Z" class="g1_1359"/>
<path d="M520.4,305l-.3,-.2l-.4,.5l.2,.2Z" class="g1_1359"/>
<path d="M567,343.3l.2,.2l-.4,.5l-.3,-.2Z" class="g1_1359"/>
<path d="M520.4,305l-.5,.5l46.6,38.3l.5,-.5Z" class="g1_1359"/>
<path d="M625.8,416.1l-.1,-1.6v.1l-.3,-1.5v.1l-.5,-1.4l-.7,-1.4v.1l-1,-1.3l-1.1,-1.3h.1L621,406.7l-1.4,-1.1v.1l-1.6,-.9l-1.7,-.9h.1l-1.9,-.7l-1.9,-.7l-2,-.4h.1l-2.1,-.4l-2.1,-.3l-2.3,-.1l-2.2,.1h.1l-2.2,.3l-2.1,.4l-2.1,.4h.1l-1.9,.7l-1.8,.7l-1.8,.9l-1.5,.9l.1,-.1l-1.4,1.1l-1.3,1.2l-1.1,1.3h.1l-.9,1.3v-.1l-.8,1.4l-.5,1.4v-.1l-.4,1.5v-.1l-.1,1.6l.1,1.5v-.1l.4,1.5l.5,1.5v-.1l.8,1.4l.9,1.3h-.1l1.1,1.2v-.1l1.3,1.2l1.4,1.1h-.1l1.5,.9l-.3,.7l-1.6,-.9v-.1c-4.1,-2.8,-7.3,-7.6,-6.5,-12.7l.4,-1.4h.1l.5,-1.5v-.1l.7,-1.4l1,-1.3l1.1,-1.2v-.1l1.3,-1.2l1.4,-1.1l1.6,-.9l1.7,-1h.1l1.8,-.7v-.1l2,-.6l2,-.5h.1l2.1,-.3l2.2,-.3l2.2,-.1l2.3,.1h.1l2.1,.3l2.1,.3l2,.5h.1l1.9,.6v.1l1.8,.7c3.2,1.6,5,2.7,7.2,5.5h.1l.9,1.3c.8,1.3,1.4,3.1,1.7,4.5v1.6Z" class="g1_1359"/>
<path d="M590.3,427.4l1.8,1l1.8,.7V429l1.9,.6h-.1l2.1,.6l2.1,.4l2.2,.1H602l2.2,.1l2.3,-.1l2.1,-.1l2.1,-.4h-.1l2,-.6l1.9,-.6v.1l1.9,-.7h-.1l1.7,-1l1.6,-.9l1.4,-1.1l1.2,-1.2l-.1,.1l1.1,-1.2l1,-1.3l.7,-1.4v.1l.5,-1.5l.3,-1.5v.1l.1,-1.5h.7l-.1,1.5v.1c-.8,5.3,-5.1,9.2,-9.8,11.3l-1.8,.7l-1.9,.7h-.1l-2,.5l-2.1,.4l-2.1,.2h-.1l-2.3,.1l-2.2,-.1c-3,-.1,-5.6,-.7,-8.4,-1.8l-1.8,-.7h-.1l-1.7,-.9Z" class="g1_1359"/>
<path d="M627.9,486.3h51.4V458.7H627.9v27.6Z" class="g0_1359"/>
<path d="M627.9,459.1h51.7v-.8H627.9v.8Z" class="g1_1359"/>
<path d="M678.9,486.7h.7v-28h-.7v28Z" class="g1_1359"/>
<path d="M627.6,486.7h51.7v-.8H627.6v.8Z" class="g1_1359"/>
<path d="M627.6,486.3h.7v-28h-.7v28Z" class="g1_1359"/>
<path d="M576.9,486.3h51.3V458.7H576.9v27.6Z" class="g0_1359"/>
<path d="M576.9,459.1h51.7v-.8H576.9v.8Z" class="g1_1359"/>
<path d="M627.8,486.7h.8v-28h-.8v28Z" class="g1_1359"/>
<path d="M576.5,486.7h51.7v-.8H576.5v.8Z" class="g1_1359"/>
<path d="M576.5,486.3h.7v-28h-.7v28Z" class="g1_1359"/>
<path d="M525.8,486.3h51.3V458.7H525.8v27.6Z" class="g0_1359"/>
<path d="M525.8,459.1h51.7v-.8H525.8v.8Z" class="g1_1359"/>
<path d="M576.8,486.7h.7v-28h-.7v28Z" class="g1_1359"/>
<path d="M525.4,486.7h51.7v-.8H525.4v.8Z" class="g1_1359"/>
<path d="M525.4,486.3h.8v-28h-.8v28Z" class="g1_1359"/>
<path d="M474.8,486.3h51.4V458.7H474.8v27.6Z" class="g0_1359"/>
<path d="M474.8,459.1h51.7v-.8H474.8v.8Z" class="g1_1359"/>
<path d="M525.8,486.7h.7v-28h-.7v28Z" class="g1_1359"/>
<path d="M474.5,486.7h51.7v-.8H474.5v.8Z" class="g1_1359"/>
<path d="M474.5,486.3h.7v-28h-.7v28Z" class="g1_1359"/>
<path d="M423.8,486.3h51.3V458.7H423.8v27.6Z" class="g0_1359"/>
<path d="M423.8,459.1h51.7v-.8H423.8v.8Z" class="g1_1359"/>
<path d="M474.7,486.7h.8v-28h-.8v28Z" class="g1_1359"/>
<path d="M423.4,486.7h51.7v-.8H423.4v.8Z" class="g1_1359"/>
<path d="M423.4,486.3h.7v-28h-.7v28Z" class="g1_1359"/>
<path d="M372.7,486.3H424V458.7H372.7v27.6Z" class="g0_1359"/>
<path d="M372.7,459.1h51.7v-.8H372.7v.8Z" class="g1_1359"/>
<path d="M423.7,486.7h.7v-28h-.7v28Z" class="g1_1359"/>
<path d="M372.4,486.7H424v-.8H372.4v.8Z" class="g1_1359"/>
<path d="M372.4,486.3h.7v-28h-.7v28Z" class="g1_1359"/>
<path d="M321.7,486.3H373V458.7H321.7v27.6Z" class="g0_1359"/>
<path d="M321.7,459.1h51.7v-.8H321.7v.8Z" class="g1_1359"/>
<path d="M372.6,486.7h.8v-28h-.8v28Z" class="g1_1359"/>
<path d="M321.3,486.7H373v-.8H321.3v.8Z" class="g1_1359"/>
<path d="M321.3,486.3h.7v-28h-.7v28Z" class="g1_1359"/>
<path d="M270.7,486.3H322V458.7H270.7v27.6Z" class="g0_1359"/>
<path d="M270.7,459.1h51.7v-.8H270.7v.8Z" class="g1_1359"/>
<path d="M321.7,486.7h.7v-28h-.7v28Z" class="g1_1359"/>
<path d="M270.3,486.7H322v-.8H270.3v.8Z" class="g1_1359"/>
<path d="M270.3,486.3h.8v-28h-.8v28Z" class="g1_1359"/>
<path d="M307,425.7h92.6V398.2H307v27.5Z" class="g0_1359"/>
<path d="M307,398.6h92.9v-.8H307v.8Z" class="g1_1359"/>
<path d="M399.2,426.1h.7V398.2h-.7v27.9Z" class="g1_1359"/>
<path d="M306.6,426.1h93v-.8h-93v.8Z" class="g1_1359"/>
<path d="M306.6,425.7h.8V397.8h-.8v27.9Z" class="g1_1359"/>
<path d="M338.8,419.1h92.6V391.6H338.8v27.5Z" class="g0_1359"/>
<path d="M338.8,392h93v-.8h-93v.8Z" class="g1_1359"/>
<path d="M431,419.5h.8V391.6H431v27.9Z" class="g1_1359"/>
<path d="M338.4,419.5h93v-.8h-93v.8Z" class="g1_1359"/>
<path d="M338.4,419.1h.8V391.2h-.8v27.9Z" class="g1_1359"/>
<path d="M370.5,412.5h92.6V385H370.5v27.5Z" class="g0_1359"/>
<path d="M370.5,385.4h93v-.8h-93v.8Z" class="g1_1359"/>
<path d="M462.7,412.9h.8V385h-.8v27.9Z" class="g1_1359"/>
<path d="M370.2,412.9h92.9v-.8H370.2v.8Z" class="g1_1359"/>
<path d="M370.2,412.5h.7V384.6h-.7v27.9Z" class="g1_1359"/>
<path d="M402.2,405.8h92.6V378.3H402.2v27.5Z" class="g0_1359"/>
<path d="M402.2,378.7h93v-.8h-93v.8Z" class="g1_1359"/>
<path d="M494.5,406.2h.7V378.3h-.7v27.9Z" class="g1_1359"/>
<path d="M401.9,406.2h92.9v-.8H401.9v.8Z" class="g1_1359"/>
<path d="M401.9,405.8h.7V377.9h-.7v27.9Z" class="g1_1359"/>
<path d="M434,399.2h92.5V371.7H434v27.5Z" class="g0_1359"/>
<path d="M434,372.1h92.9v-.8H434v.8Z" class="g1_1359"/>
<path d="M526.2,399.6h.7V371.7h-.7v27.9Z" class="g1_1359"/>
<path d="M433.6,399.6h92.9v-.8H433.6v.8Z" class="g1_1359"/>
<path d="M433.6,399.2h.7V371.3h-.7v27.9Z" class="g1_1359"/>
<path d="M465.7,392.6h92.6V365.1H465.7v27.5Z" class="g0_1359"/>
<path d="M465.7,365.5h93v-.8h-93v.8Z" class="g1_1359"/>
<path d="M558,393h.7V365.1H558V393Z" class="g1_1359"/>
<path d="M465.3,393h93v-.8h-93v.8Z" class="g1_1359"/>
<path d="M465.3,392.6h.7V364.7h-.7v27.9Z" class="g1_1359"/>
<path d="M497.5,385.9h92.6V358.4H497.5v27.5Z" class="g0_1359"/>
<path d="M497.5,358.8h92.9V358H497.5v.8Z" class="g1_1359"/>
<path d="M589.7,386.3h.7V358.4h-.7v27.9Z" class="g1_1359"/>
<path d="M497.1,386.3h93v-.7h-93v.7Z" class="g1_1359"/>
<path d="M497.1,385.9h.7V358h-.7v27.9Z" class="g1_1359"/>
<path d="M529.2,379.3h92.6V351.8H529.2v27.5Z" class="g0_1359"/>
<path d="M529.2,352.2h92.9v-.7H529.2v.7Z" class="g1_1359"/>
<path d="M621.4,379.7h.7V351.8h-.7v27.9Z" class="g1_1359"/>
<path d="M528.8,379.7h93v-.8h-93v.8Z" class="g1_1359"/>
<path d="M528.8,379.3h.8V351.5h-.8v27.8Z" class="g1_1359"/>
<path d="M573.8,353.8h.8v-.3h-.8v.3Z" class="g1_1359"/>
<path d="M573.8,379.9h.8V353.8h-.8v26.1Z" class="g1_1359"/>
<path d="M597,353.2h.8v-.4H597v.4Z" class="g1_1359"/>
<path d="M597,379.9h.8V353.2H597v26.7Z" class="g1_1359"/>
<path d="M549.6,352h.8v-.4h-.8v.4Z" class="g1_1359"/>
<path d="M549.6,379.6h.8V352h-.8v27.6Z" class="g1_1359"/>
<path d="M462.6,299.9h109V273.3h-109v26.6Z" class="g0_1359"/>
<path d="M462.6,273.6H572v-.7H462.6v.7Z" class="g1_1359"/>
<path d="M571.3,300.3h.7v-27h-.7v27Z" class="g1_1359"/>
<path d="M462.2,300.3H571.6v-.7H462.2v.7Z" class="g1_1359"/>
<path d="M462.2,299.9h.7v-27h-.7v27Z" class="g1_1359"/>
<path d="M515.2,273.8h.7v-.4h-.7v.4Z" class="g1_1359"/>
<path d="M515.2,300.8h.7v-27h-.7v27Z" class="g1_1359"/>
<path d="M542.6,300.8h.7V273.3h-.7v27.5Z" class="g1_1359"/>
<path d="M486.8,300.2h.7V272.8h-.7v27.4Z" class="g1_1359"/>
<path d="M588.5,322.9l-.1,-1.7v.1l-.4,-1.7l-.7,-1.6v.1l-1.1,-1.6L585,315.1h.1l-1.5,-1.4l-1.8,-1.3v.1l-1.9,-1.2l-2.2,-1.1h.1l-2.3,-1l-2.5,-.8l-2.6,-.8l-2.9,-.5h.1l-2.8,-.5l-3.1,-.2l-3.1,-.1l-3,.1h.1l-3,.2l-3,.5l-2.7,.5l-2.7,.8h.1l-2.5,.8l-2.3,1l-2.2,1.1l-1.9,1.2l.1,-.1l-1.7,1.3l-1.6,1.4l-1.3,1.4l.1,-.1l-1,1.6l-.7,1.6l-.5,1.7l-.2,1.6l.2,1.7v-.1l.5,1.7l.7,1.6v-.1l1,1.6H531l1.3,1.5v-.1l1.6,1.4l1.7,1.3h-.1l1.9,1.2l2.2,1.1l-.3,.6h-.1l-2.1,-1.1L535.2,334v-.1l-1.8,-1.2l-1.6,-1.4l-1.3,-1.6v-.1l-1,-1.5l-.8,-1.6l-.1,-.1l-.4,-1.7l-.2,-1.8l.2,-1.7v-.1l.4,-1.7h.1l.8,-1.7v-.1l1,-1.5l1.3,-1.5v-.1l1.6,-1.4l1.8,-1.3l1.9,-1.1l2.1,-1.1h.1l2.4,-1v-.1l2.4,-.9l2.7,-.7l2.7,-.5h.1l3,-.5l3,-.3l3,-.1l3.1,.1c3.6,.2,8,1,11.5,2h.1l2.5,.9v.1l2.3,1c3,1.4,6.8,3.6,8.7,6.5h.1l1.1,1.5v.1l.7,1.7l.4,1.7v.1l.1,1.7Z" class="g1_1359"/>
<path d="M539.6,335.7l2.3,1v-.1l2.5,.8h-.1l2.7,.8l2.7,.5l3,.5l3,.2h-.1h6.1l3.1,-.2l2.8,-.5h-.1l2.9,-.5l2.6,-.8l2.5,-.8v.1l2.3,-1h-.1l2.2,-1.1l1.9,-1.2l1.7,-1.3l1.6,-1.4l-.1,.1l1.2,-1.5l1.1,-1.6v.1l.7,-1.6h-.1l.5,-1.7v.1l.1,-1.8h.7l-.1,1.8v.1l-.4,1.7v.1l-.8,1.6v.1l-1.1,1.5c-9,11.6,-32.4,12.7,-45.1,7.6l-2.4,-1Z" class="g1_1359"/>
<path d="M585.6,442.2l-.8,.2l.6,1.6l.7,-.2Z" class="g1_1359"/>
<path d="M585.2,443.4l2.3,-1.9l1.2,-1.1l.2,1.6l.7,10.1l.2,2.7l-1.6,-2.1l-5.9,-8.2l-1,-1.4h1.5l.7,.4l5.9,8.1l-1.2,1.1l-.2,-.5l-.7,-10.1l1.6,-.1l-.3,.6l-2.3,1.9Z" class="g1_1359"/>
<path d="M582.8,443.1h3l.5,1.4l-.3,.2l-.2,.1h-3Z" class="g1_1359"/>
<path fill-rule="evenodd" d="M585.7,443.9L588,442l.8,10.1l-6,-8.2Z" class="g1_1359"/>
<path d="M565.1,387.1l-.1,-.4l-.7,.3l.1,.4Z" class="g1_1359"/>
<path d="M585.6,442.2l.1,.4l-.8,.2l-.1,-.3Z" class="g1_1359"/>
<path d="M565.1,387.1l-.7,.3l20.4,55.1l.8,-.3Z" class="g1_1359"/>
<path d="M492.8,360.2l-.7,-.3l-.8,1.6l.8,.4Z" class="g1_1359"/>
<path d="M491.7,360.9l2.9,.2l1.7,.1l-1.1,1.2l-6.4,7.7l-1.8,2.1l.4,-2.7l1.4,-10L489,358l1.1,1.1l.2,.6l-1.3,10l-1.6,-.2l.2,-.4l6.4,-7.7l1.2,1l-.7,.3l-2.9,-.2Z" class="g1_1359"/>
<path d="M490.1,359.1l2.2,2.1l-.7,1.3l-.3,-.1L489,360.2Z" class="g1_1359"/>
<path fill-rule="evenodd" d="M491.7,361.7l2.9,.2l-6.4,7.7l1.4,-10Z" class="g1_1359"/>
<path d="M516.2,307.5l.1,-.2l-.7,-.3l-.1,.3Z" class="g1_1359"/>
<path d="M492.8,360.2l-.1,.3l-.6,-.3l.1,-.2Z" class="g1_1359"/>
<path d="M516.2,307.5l-.7,-.2L492.2,360l.6,.2Z" class="g1_1359"/>
<path d="M549.3,442.9l-.8,.2l.6,1.8l.7,-.2Z" class="g1_1359"/>
<path d="M549,444.1l2.3,-1.9l1.2,-.9l.1,1.5l.4,10.1l.1,2.7l-1.5,-2.2l-5.7,-8.3l-.9,-1.2h1.5l.7,.4l5.6,8.3l-1.2,.8l-.1,-.4L551,442.9l1.6,-.1l-.4,.7l-2.3,1.9Z" class="g1_1359"/>
<path d="M546.5,443.8l3,.1l.4,1.5l-.2,.2h-.2l-3,-.1Z" class="g1_1359"/>
<path fill-rule="evenodd" d="M549.5,444.8l2.2,-2l.5,10.1l-5.7,-8.2Z" class="g1_1359"/>
<path d="M532.5,393l-.1,-.4l-.7,.3l.1,.3Z" class="g1_1359"/>
<path d="M549.3,442.9l.1,.4l-.8,.3l-.1,-.4Z" class="g1_1359"/>
<path d="M532.5,393l-.7,.2l16.7,50l.8,-.3Z" class="g1_1359"/>
<path d="M639.8,445.5l-.5,.5l1.2,1.3l.5,-.5Z" class="g1_1359"/>
<path d="M640,446.7l1.4,-2.6l.7,-1.4l.8,1.5l4.4,9l1.2,2.4l-2.3,-1.4l-8.6,-5.3l-1.3,-.9l1.4,-.6l.8,.1l8.5,5.3l-.8,1.4l-.3,-.4l-4.4,-8.9l1.4,-.7v.7l-1.4,2.5Z" class="g1_1359"/>
<path d="M637.7,447.4l2.8,-1.1l1,1.1l-.2,.3l-.3,.1l-2.7,1.1Z" class="g1_1359"/>
<path fill-rule="evenodd" d="M640.7,447.1l1.4,-2.6l4.4,9L638,448.2Z" class="g1_1359"/>
<path d="M581.3,380.3l-.2,-.2l-.6,.4l.2,.3Z" class="g1_1359"/>
<path d="M639.8,445.6l.2,.3l-.5,.4l-.2,-.3Z" class="g1_1359"/>
<path d="M581.3,380.3l-.6,.5L639.3,446l.5,-.4Z" class="g1_1359"/>
<path d="M521.7,357.1h-.8l.1,1.8h.8Z" class="g1_1359"/>
<path d="M521.1,358.1l2.8,-1.1l1.4,-.6l-.4,1.6l-2.4,9.9l-.6,2.5l-.9,-2.5l-3.2,-9.7l-.5,-1.4l1.5,.4l.5,.6l3.2,9.6l-1.5,.5v-.5l2.4,-9.8l1.5,.4l-.5,.5l-2.7,1.1Z" class="g1_1359"/>
<path d="M518.8,357.2l2.9,.9v1.5l-.3,.1l-.3,-.1l-2.8,-.9Z" class="g1_1359"/>
<path fill-rule="evenodd" d="M521.4,358.9l2.7,-1.1l-2.3,9.8L518.6,358Z" class="g1_1359"/>
<path d="M518.8,308h.8v-.4h-.8v.4Z" class="g1_1359"/>
<path d="M520.9,357.5h.8v-.4h-.8v.4Z" class="g1_1359"/>
<path d="M519.6,308h-.8l2.1,49.1h.8Z" class="g1_1359"/>
<path d="M460.9,368.6l-.5,-.6l-1.1,1.4l.5,.6Z" class="g1_1359"/>
<path d="M459.8,369l2.7,1l1.5,.4l-1.4,.9l-8.2,5.7l-2.2,1.6l1.1,-2.5l3.9,-9.3l.7,-1.4l.7,1.4v.7l-3.9,9.2l-1.4,-.6l.3,-.4l8.2,-5.6l.8,1.2l-.6,.1l-2.7,-1Z" class="g1_1359"/>
<path d="M458.6,366.8l1.6,2.5l-.9,1.1l-.3,-.1l-.1,-.2l-1.6,-2.6Z" class="g1_1359"/>
<path fill-rule="evenodd" d="M459.5,369.7l2.8,1l-8.3,5.7l4,-9.3Z" class="g1_1359"/>
<path d="M511.8,306.2l.2,-.3l-.6,-.5l-.2,.3Z" class="g1_1359"/>
<path d="M460.9,368.6l-.2,.3l-.5,-.5l.2,-.3Z" class="g1_1359"/>
<path d="M511.8,306.2l-.6,-.5l-50.8,62.4l.5,.5Z" class="g1_1359"/>
<path d="M502.1,443.2h.8v-1.7h-.8v1.7Z" class="g1_1359"/>
<path d="M502.2,442.5l2.9,-1l1.5,-.6l-.5,1.6l-2.8,9.7l-.7,2.6l-.7,-2.6L499,442.5l-.4,-1.6l1.4,.6l.5,.5l2.8,9.7l-1.4,.5v-.5l2.7,-9.7l1.5,.5l-.5,.4l-2.8,1Z" class="g1_1359"/>
<path d="M500,441.5l2.8,1v1.4l-.3,.1l-.3,-.1l-2.7,-1Z" class="g1_1359"/>
<path fill-rule="evenodd" d="M502.5,443.2l2.9,-1l-2.8,9.7l-2.8,-9.7Z" class="g1_1359"/>
<path d="M501.8,401.6h.7v-.4h-.7v.4Z" class="g1_1359"/>
<path d="M502.1,441.8h.8v-.3h-.8v.3Z" class="g1_1359"/>
<path d="M502.5,401.6h-.7l.4,39.9h.7Z" class="g1_1359"/>
<path d="M460,443.8l-.8,-.4l-.7,1.6l.7,.4Z" class="g1_1359"/>
<path d="M459,444.4l2.9,.2l1.6,.2l-1.1,1.2l-6.6,7.6l-1.8,2l.4,-2.7L456,443l.2,-1.5l1.1,1.1l.2,.7l-1.5,9.9l-1.6,-.3l.3,-.3l6.6,-7.7l1.1,1.1l-.7,.2l-2.9,-.2Z" class="g1_1359"/>
<path d="M457.3,442.6l2.1,2.1l-.6,1.3h-.3l-2.3,-2.3Z" class="g1_1359"/>
<path fill-rule="evenodd" d="M458.9,445.2l2.9,.2l-6.6,7.6l1.6,-9.9Z" class="g1_1359"/>
<path d="M476.2,408.5l.1,-.3l-.6,-.3l-.1,.3Z" class="g1_1359"/>
<path d="M460,443.8l-.1,.2l-.7,-.2l.1,-.3Z" class="g1_1359"/>
<path d="M476.2,408.5l-.6,-.3l-16.3,35.3l.7,.3Z" class="g1_1359"/>
<path d="M419,444.9l-.5,-.6l-1.3,1.3l.5,.5Z" class="g1_1359"/>
<path d="M417.8,445.1l2.7,1.3l1.4,.7l-1.5,.8l-11.3,5.9l1.3,-2.3l5.1,-8.8l.9,-1.3l.6,1.4l-.1,.7l-5.1,8.7l-1.4,-.7l.4,-.3l8.9,-4.7l.7,1.4h-.7l-2.6,-1.3Z" class="g1_1359"/>
<path d="M417,442.8l1.2,2.8l-1.1,1l-.2,-.2l-.2,-.3l-1.2,-2.7Z" class="g1_1359"/>
<path fill-rule="evenodd" d="M417.4,445.9l2.7,1.2l-9,4.7l5.2,-8.7Z" class="g1_1359"/>
<path d="M450.8,414.4l.3,-.2l-.6,-.6l-.2,.3Z" class="g1_1359"/>
<path d="M419,444.9l-.3,.2l-.5,-.5l.3,-.3Z" class="g1_1359"/>
<path d="M450.8,414.4l-.5,-.5l-31.8,30.4l.5,.6Z" class="g1_1359"/>
<path d="M374.7,448.9l-.3,-.6l-1.5,1l.4,.5Z" class="g1_1359"/>
<path d="M373.5,448.9l2.3,1.8l1.3,1l-1.5,.4l-9.8,2.8l-2.5,.7l1.7,-1.9l6.8,-7.6l1.1,-1.1l.3,1.4l-.2,.7l-6.8,7.6l-1.2,-1l.4,-.3l9.7,-2.8l.5,1.5l-.7,-.1l-2.3,-1.8Z" class="g1_1359"/>
<path d="M373.2,446.4l.6,3l-1.2,.8l-.2,-.2v-.3l-.7,-2.9Z" class="g1_1359"/>
<path fill-rule="evenodd" d="M373.1,449.5l2.3,1.9l-9.7,2.7l6.7,-7.5Z" class="g1_1359"/>
<path d="M420.7,420.3l.3,-.2l-.3,-.6l-.3,.1Z" class="g1_1359"/>
<path d="M374.7,449l-.2,.2l-.4,-.7l.3,-.2Z" class="g1_1359"/>
<path d="M420.7,420.3l-.3,-.7l-46,28.7l.3,.7Z" class="g1_1359"/>
<path d="M317.2,452.3l-.2,-.7l-1.7,.6l.2,.7Z" class="g1_1359"/>
<path d="M316,452l1.9,2.2l1.1,1.2l-1.6,.2l-10.1,.7l-2.8,.2l2.2,-1.6l8.2,-5.8l1.4,-1v1.5l-.4,.7l-8.2,5.8l-1,-1.2l.5,-.1l10.1,-.8l.1,1.6l-.6,-.3l-1.9,-2.2Z" class="g1_1359"/>
<path d="M316.3,449.6v3l-1.4,.5l-.2,-.3l-.1,-.2v-3Z" class="g1_1359"/>
<path fill-rule="evenodd" d="M315.4,452.6l2,2.2l-10.1,.7l8.1,-5.9Z" class="g1_1359"/>
<path d="M383.4,427.9l.4,-.1l-.3,-.7l-.3,.1Z" class="g1_1359"/>
<path d="M317.3,452.3l-.4,.1l-.3,-.8h.4Z" class="g1_1359"/>
<path d="M383.4,427.9l-.2,-.7L317,451.6l.3,.7Z" class="g1_1359"/>
<path d="M433.3,369.4l-.5,-.5l-1.4,1.1l.5,.5Z" class="g1_1359"/>
<path d="M432,369.6l2.6,1.5l1.4,.7l-1.5,.6l-9.2,4.2l-2.4,1.1l1.5,-2.2l5.6,-8.4l.8,-1.4l.6,1.5l-.1,.7l-5.6,8.4l-1.3,-.8l.3,-.3l9.2,-4.1l.6,1.3l-.6,-.1l-2.6,-1.4Z" class="g1_1359"/>
<path d="M431.4,367.2l1,2.8l-1.1,.9l-.3,-.1l-.1,-.3l-1,-2.7Z" class="g1_1359"/>
<path fill-rule="evenodd" d="M431.7,370.2l2.5,1.5l-9.1,4.1l5.6,-8.3Z" class="g1_1359"/>
<path d="M507.6,306.4l.2,-.1l-.4,-.6l-.3,.2Z" class="g1_1359"/>
<path d="M433.3,369.4l-.3,.2l-.4,-.6l.3,-.1Z" class="g1_1359"/>
<path d="M507.6,306.4l-.5,-.5l-74.2,63l.4,.5Z" class="g1_1359"/>
<path d="M398.5,378l-.4,-.5l-1.4,1l.4,.5Z" class="g1_1359"/>
<path d="M397.4,378.1l2.4,1.8l1.2,.9l-1.5,.4l-9.5,3.3l-2.5,.8l1.6,-2l6.3,-7.8l1,-1.2l.4,1.4l-.2,.7l-6.3,7.8l-1.2,-.9l.4,-.3l9.5,-3.2l.5,1.4l-.7,-.1l-2.3,-1.7Z" class="g1_1359"/>
<path d="M396.8,375.7l.9,2.8l-1.2,.9l-.2,-.2l-.1,-.3l-.8,-2.8Z" class="g1_1359"/>
<path fill-rule="evenodd" d="M396.9,378.8l2.4,1.7l-9.5,3.2l6.3,-7.8Z" class="g1_1359"/>
<path d="M502.1,306.5l.2,-.1l-.4,-.7l-.3,.2Z" class="g1_1359"/>
<path d="M398.6,378.1l-.3,.2l-.5,-.6l.3,-.2Z" class="g1_1359"/>
<path d="M502.1,306.5l-.5,-.6L398.1,377.5l.5,.6Z" class="g1_1359"/>
<path d="M364.6,383.7l-.4,-.5l-1.6,.9l.4,.5Z" class="g1_1359"/>
<path d="M363.3,383.7l2.3,1.9l1.2,1l-1.6,.4l-9.8,2.5l-2.6,.7l1.9,-1.9l6.9,-7.3l1.1,-1.2l.3,1.5l-.2,.7l-6.9,7.3l-1.2,-1l.4,-.3l9.8,-2.5l.3,1.5l-.6,-.1L362.4,385Z" class="g1_1359"/>
<path d="M363,381.3l.6,3l-1.2,.7l-.3,-.2v-.4l-.6,-2.9Z" class="g1_1359"/>
<path fill-rule="evenodd" d="M362.8,384.4l2.3,1.9l-9.8,2.5l7,-7.4Z" class="g1_1359"/>
<path d="M497.4,305.6l.3,-.2l-.4,-.6l-.3,.2Z" class="g1_1359"/>
<path d="M364.6,383.8l-.3,.2l-.4,-.7l.3,-.1Z" class="g1_1359"/>
<path d="M497.4,305.6L497,305L364.2,383.2l.4,.6Z" class="g1_1359"/>
<path d="M328.4,389.2l-.3,-.7l-1.6,.8l.4,.7Z" class="g1_1359"/>
<path d="M327.2,389.1l3.4,3l-1.6,.3l-9.9,2.1l-2.5,.6l1.9,-1.8l7.2,-7.1l1.1,-1.1l.2,1.6l-.2,.6l-7.2,7l-1.1,-1l.3,-.2l9.9,-2.1l.3,1.4l-.6,-.2l-2.3,-2Z" class="g1_1359"/>
<path d="M327,386.7l.4,2.9l-1.2,.6L326,390v-.2l-.5,-3Z" class="g1_1359"/>
<path fill-rule="evenodd" d="M326.7,389.7l2.2,2l-9.9,2.1l7.2,-7.1Z" class="g1_1359"/>
<path d="M485.5,305.6l.2,-.2l-.3,-.6l-.3,.2Z" class="g1_1359"/>
<path d="M328.4,389.2l-.2,.2l-.4,-.6l.3,-.2Z" class="g1_1359"/>
<path d="M485.5,305.6l-.4,-.6l-157,83.6l.3,.6Z" class="g1_1359"/>
<path d="M572,268h.7v-6.2H572V268Z" class="g1_1359"/>
<path d="M621.5,345h.7v-7.1h-.7V345Z" class="g1_1359"/>
<path d="M251.1,603.6h110V576.1h-110v27.5Z" class="g0_1359"/>
<path d="M251.1,576.5H361.4v-.7H251.1v.7Z" class="g1_1359"/>
<path d="M360.7,604h.7V576.1h-.7V604Z" class="g1_1359"/>
<path d="M250.7,604H361.1v-.7H250.7v.7Z" class="g1_1359"/>
<path d="M250.7,603.6h.7V575.8h-.7v27.8Z" class="g1_1359"/>
<path d="M361.1,603.6h110V576.1h-110v27.5Z" class="g0_1359"/>
<path d="M361.1,576.5H471.4v-.7H361.1v.7Z" class="g1_1359"/>
<path d="M470.7,604h.7V576.1h-.7V604Z" class="g1_1359"/>
<path d="M360.7,604H471.1v-.7H360.7v.7Z" class="g1_1359"/>
<path d="M360.7,603.6h.7V575.8h-.7v27.8Z" class="g1_1359"/>
<path d="M471.1,603.6H581.2V576.1H471.1v27.5Z" class="g0_1359"/>
<path d="M471.1,576.5H581.5v-.7H471.1v.7Z" class="g1_1359"/>
<path d="M580.8,604h.7V576.1h-.7V604Z" class="g1_1359"/>
<path d="M470.7,604H581.2v-.7H470.7v.7Z" class="g1_1359"/>
<path d="M470.7,603.6h.7V575.8h-.7v27.8Z" class="g1_1359"/>
<path d="M581.2,603.6h110V576.1h-110v27.5Z" class="g0_1359"/>
<path d="M581.2,576.5H691.5v-.7H581.2v.7Z" class="g1_1359"/>
<path d="M690.8,604h.7V576.1h-.7V604Z" class="g1_1359"/>
<path d="M580.8,604H691.2v-.7H580.8v.7Z" class="g1_1359"/>
<path d="M580.8,603.6h.7V575.8h-.7v27.8Z" class="g1_1359"/>
<path d="M575.6,646.2l-.6,.5l1.4,1.1l.5,-.5Z" class="g1_1359"/>
<path d="M575.9,647.3l1,-2.8l.4,-1.6l.9,1.5l5.8,8.3l1.6,2.2l-2.5,-1.1l-9.3,-4.1l-1.4,-.6l1.3,-.7h.8l9.2,4l-.6,1.4l-.4,-.3L577,645.2l1.2,-.8l.1,.7l-.9,2.7Z" class="g1_1359"/>
<path d="M573.7,648.4l2.6,-1.5l1.1,.9l-.1,.3l-.3,.1l-2.5,1.4Z" class="g1_1359"/>
<path fill-rule="evenodd" d="M576.7,647.5l.9,-2.7l5.8,8.2l-9.3,-4Z" class="g1_1359"/>
<path d="M528.9,607.7l-.3,-.1l-.4,.5l.3,.2Z" class="g1_1359"/>
<path d="M575.6,646.2l.2,.1l-.4,.6l-.3,-.2Z" class="g1_1359"/>
<path d="M528.9,607.7l-.4,.6l46.6,38.4l.5,-.5Z" class="g1_1359"/>
<path d="M634.3,718.9l-.1,-1.5v.1l-.2,-1.6l.1,.1l-.6,-1.4l-.7,-1.4v.1l-1,-1.3l-1.1,-1.3h.1l-1.2,-1.1l-1.5,-1.1v.1l-1.6,-1l-1.6,-.9h.1l-1.8,-.7l-2,-.6l-2,-.6h.1l-2.1,-.3l-2.2,-.3h-4.5h.1l-2.2,.3l-2.1,.3l-2,.6h.1l-2,.6l-1.8,.7l-1.6,.9l-1.6,1l.1,-.1l-1.5,1.1l-1.3,1.1l-1.1,1.3h.1l-.9,1.3v-.1l-.7,1.4l-.6,1.4v-.1l-.2,1.6l-.2,1.5v-.1l.2,1.5l.2,1.6v-.1l.6,1.4v-.1l.7,1.4l.9,1.3h-.1l1.1,1.3v-.1l1.3,1.2l1.5,1h-.1l1.6,1l-.4,.6l-1.6,-1l-1.4,-1v-.1l-1.3,-1.1h-.1l-1.1,-1.3l-.9,-1.3V725l-.8,-1.4l-.5,-1.5h-.1l-.3,-1.6l-.2,-1.5v-.1l.2,-1.5l.3,-1.6l.1,-.1l.5,-1.3v-.1l.8,-1.5l.9,-1.3l1.1,-1.3l.1,-.1l1.3,-1.1l1.4,-1.1l1.6,-1l1.6,-.8h.1l1.9,-.7v-.1l1.9,-.7l2,-.5h.1l2.1,-.4l2.2,-.3h4.6l2.2,.3l2.1,.4l2,.5h.1l1.9,.7v.1l1.9,.7c3.6,1.7,5.7,3.4,8,6.7h.1l.8,1.5v.1l.5,1.3v.1l.3,1.6l.1,1.5Z" class="g1_1359"/>
<path d="M599,730.3l1.6,.8l1.8,.9v-.1l2,.6h-.1l2,.5l2.1,.3l2.2,.3h-.1l2.2,.1l2.3,-.1l2.2,-.3l2.1,-.3h-.1l2,-.5l2,-.6v.1l1.8,-.9h-.1l1.6,-.8l1.6,-1l1.5,-1h-.1l1.2,-1.2v.1l1.1,-1.3l1,-1.3l.7,-1.4v.1l.6,-1.4l-.1,.1l.2,-1.6l.1,-1.5h.8l-.1,1.5c-.3,3.7,-2.5,5.9,-5,8.4v.1l-1.4,1h-.1c-3.3,2.4,-7.2,3.7,-11.2,4.2l-2.2,.2H615c-4.2,.4,-10.9,-.5,-14.7,-2.5h-.1l-1.6,-.8Z" class="g1_1359"/>
<path d="M636.4,789.1h51.4V761.6H636.4v27.5Z" class="g0_1359"/>
<path d="M636.4,761.9h51.7v-.7H636.4v.7Z" class="g1_1359"/>
<path d="M687.4,789.4h.7V761.6h-.7v27.8Z" class="g1_1359"/>
<path d="M636.1,789.4h51.7v-.7H636.1v.7Z" class="g1_1359"/>
<path d="M636.1,789.1h.7V761.2h-.7v27.9Z" class="g1_1359"/>
<path d="M585.4,789.1h51.3V761.6H585.4v27.5Z" class="g0_1359"/>
<path d="M585.4,761.9h51.7v-.7H585.4v.7Z" class="g1_1359"/>
<path d="M636.3,789.4h.8V761.6h-.8v27.8Z" class="g1_1359"/>
<path d="M585,789.4h51.7v-.7H585v.7Z" class="g1_1359"/>
<path d="M585,789.1h.7V761.2H585v27.9Z" class="g1_1359"/>
<path d="M534.4,789.1h51.3V761.6H534.4v27.5Z" class="g0_1359"/>
<path d="M534.4,761.9h51.7v-.7H534.4v.7Z" class="g1_1359"/>
<path d="M585.4,789.4h.7V761.6h-.7v27.8Z" class="g1_1359"/>
<path d="M534.1,789.4h51.6v-.7H534.1v.7Z" class="g1_1359"/>
<path d="M534.1,789.1h.7V761.2h-.7v27.9Z" class="g1_1359"/>
<path d="M483.4,789.1h51.3V761.6H483.4v27.5Z" class="g0_1359"/>
<path d="M483.4,761.9h51.7v-.7H483.4v.7Z" class="g1_1359"/>
<path d="M534.3,789.4h.8V761.6h-.8v27.8Z" class="g1_1359"/>
<path d="M483,789.4h51.7v-.7H483v.7Z" class="g1_1359"/>
<path d="M483,789.1h.7V761.2H483v27.9Z" class="g1_1359"/>
<path d="M432.3,789.1h51.3V761.6H432.3v27.5Z" class="g0_1359"/>
<path d="M432.3,761.9H484v-.7H432.3v.7Z" class="g1_1359"/>
<path d="M483.3,789.4h.7V761.6h-.7v27.8Z" class="g1_1359"/>
<path d="M431.9,789.4h51.7v-.7H431.9v.7Z" class="g1_1359"/>
<path d="M431.9,789.1h.8V761.2h-.8v27.9Z" class="g1_1359"/>
<path d="M381.2,789.1h51.5V761.6H381.2v27.5Z" class="g0_1359"/>
<path d="M381.2,761.9H433v-.7H381.2v.7Z" class="g1_1359"/>
<path d="M432.3,789.4h.7V761.6h-.7v27.8Z" class="g1_1359"/>
<path d="M380.9,789.4h51.8v-.7H380.9v.7Z" class="g1_1359"/>
<path d="M380.9,789.1h.7V761.2h-.7v27.9Z" class="g1_1359"/>
<path d="M330.3,789.1h51.3V761.6H330.3v27.5Z" class="g0_1359"/>
<path d="M330.3,761.9H382v-.7H330.3v.7Z" class="g1_1359"/>
<path d="M381.2,789.4h.8V761.6h-.8v27.8Z" class="g1_1359"/>
<path d="M329.9,789.4h51.7v-.7H329.9v.7Z" class="g1_1359"/>
<path d="M329.9,789.1h.7V761.2h-.7v27.9Z" class="g1_1359"/>
<path d="M279.2,789.1h51.3V761.6H279.2v27.5Z" class="g0_1359"/>
<path d="M279.2,761.9h51.7v-.7H279.2v.7Z" class="g1_1359"/>
<path d="M330.2,789.4h.7V761.6h-.7v27.8Z" class="g1_1359"/>
<path d="M278.9,789.4h51.7v-.7H278.9v.7Z" class="g1_1359"/>
<path d="M278.9,789.1h.7V761.2h-.7v27.9Z" class="g1_1359"/>
<path d="M315.6,728.6h92.6V701.1H315.6v27.5Z" class="g0_1359"/>
<path d="M315.6,701.4h93v-.7h-93v.7Z" class="g1_1359"/>
<path d="M407.8,728.9h.8V701.1h-.8v27.8Z" class="g1_1359"/>
<path d="M315.2,728.9h93v-.7h-93v.7Z" class="g1_1359"/>
<path d="M315.2,728.6h.8V700.7h-.8v27.9Z" class="g1_1359"/>
<path d="M347.3,722h92.6V694.5H347.3V722Z" class="g0_1359"/>
<path d="M347.3,694.8h93v-.7h-93v.7Z" class="g1_1359"/>
<path d="M439.5,722.3h.8V694.5h-.8v27.8Z" class="g1_1359"/>
<path d="M347,722.3h92.9v-.7H347v.7Z" class="g1_1359"/>
<path d="M347,722h.7V694.1H347V722Z" class="g1_1359"/>
<path d="M379,715.3h92.6V687.8H379v27.5Z" class="g0_1359"/>
<path d="M379,688.1h93v-.7H379v.7Z" class="g1_1359"/>
<path d="M471.3,715.6h.7V687.8h-.7v27.8Z" class="g1_1359"/>
<path d="M378.7,715.6h92.9v-.7H378.7v.7Z" class="g1_1359"/>
<path d="M378.7,715.3h.7V687.4h-.7v27.9Z" class="g1_1359"/>
<path d="M410.8,708.7h92.5V681.2H410.8v27.5Z" class="g0_1359"/>
<path d="M410.8,681.5h92.9v-.7H410.8v.7Z" class="g1_1359"/>
<path d="M503,709h.7V681.2H503V709Z" class="g1_1359"/>
<path d="M410.4,709h92.9v-.7H410.4v.7Z" class="g1_1359"/>
<path d="M410.4,708.7h.7V680.8h-.7v27.9Z" class="g1_1359"/>
<path d="M442.6,702h92.6V674.5H442.6V702Z" class="g0_1359"/>
<path d="M442.6,674.9h92.9v-.8H442.6v.8Z" class="g1_1359"/>
<path d="M534.8,702.4h.7V674.5h-.7v27.9Z" class="g1_1359"/>
<path d="M442.2,702.4h93v-.8h-93v.8Z" class="g1_1359"/>
<path d="M442.2,702h.7V674.1h-.7V702Z" class="g1_1359"/>
<path d="M474.3,695.4h92.6V667.9H474.3v27.5Z" class="g0_1359"/>
<path d="M474.3,668.2h92.9v-.7H474.3v.7Z" class="g1_1359"/>
<path d="M566.5,695.7h.7V667.9h-.7v27.8Z" class="g1_1359"/>
<path d="M473.9,695.7h93V695h-93v.7Z" class="g1_1359"/>
<path d="M473.9,695.4h.7V667.5h-.7v27.9Z" class="g1_1359"/>
<path d="M506,688.8h92.6V661.3H506v27.5Z" class="g0_1359"/>
<path d="M506,661.6h93v-.7H506v.7Z" class="g1_1359"/>
<path d="M598.2,689.1h.8V661.3h-.8v27.8Z" class="g1_1359"/>
<path d="M505.6,689.1h93v-.7h-93v.7Z" class="g1_1359"/>
<path d="M505.6,688.8h.8V660.9h-.8v27.9Z" class="g1_1359"/>
<path d="M537.7,682.1h92.6V654.6H537.7v27.5Z" class="g0_1359"/>
<path d="M537.7,655h93v-.8h-93v.8Z" class="g1_1359"/>
<path d="M629.9,682.5h.8V654.6h-.8v27.9Z" class="g1_1359"/>
<path d="M537.4,682.5h92.9v-.8H537.4v.8Z" class="g1_1359"/>
<path d="M537.4,682.1h.7V654.2h-.7v27.9Z" class="g1_1359"/>
<path d="M582.4,682.6h.7V656.2h-.7v26.4Z" class="g1_1359"/>
<path d="M605.5,682.6h.8V655.7h-.8v26.9Z" class="g1_1359"/>
<path d="M558.2,682.4h.8v-28h-.8v28Z" class="g1_1359"/>
<path d="M471.2,602.7h109V576h-109v26.7Z" class="g0_1359"/>
<path d="M471.2,576.4H580.6v-.7H471.2v.7Z" class="g1_1359"/>
<path d="M579.9,603.1h.7V576h-.7v27.1Z" class="g1_1359"/>
<path d="M470.8,603.1H580.2v-.8H470.8v.8Z" class="g1_1359"/>
<path d="M470.8,602.7h.7v-27h-.7v27Z" class="g1_1359"/>
<path d="M523.8,603.7h.7V576.3h-.7v27.4Z" class="g1_1359"/>
<path d="M551.1,603.5h.7V576.1h-.7v27.4Z" class="g1_1359"/>
<path d="M495.4,603h.7V575.6h-.7V603Z" class="g1_1359"/>
<path d="M597.1,625.8l-.2,-1.7l-.4,-1.7l.1,.1l-.8,-1.6l-1,-1.6v.1l-1.3,-1.5h.1l-1.5,-1.4l-1.8,-1.3v.1l-1.9,-1.2L586.3,613h.1L584,612l-2.5,-.9l-2.6,-.7l-2.8,-.5h.1l-2.9,-.4l-3,-.3l-3.1,-.1l-3.1,.1h.1l-3,.3l-2.9,.4l-2.8,.5l-2.7,.7h.1l-2.4,.9l-2.3,1l-2.2,1.1l-2,1.2l.1,-.1l-1.7,1.3l-1.5,1.4l-1.3,1.5l.1,-.1l-1,1.6l-.8,1.6v-.1l-.5,1.7V624v3.5v-.1l.5,1.6v-.1l.8,1.7l1,1.5h-.1l1.3,1.5v-.1l1.5,1.4l1.7,1.4H544l2,1.1l2.2,1.1l-.3,.7h-.1l-2.2,-1.1l-1.9,-1.2v-.1l-1.8,-1.4c-2.7,-2.2,-5.5,-5.9,-5.3,-9.7l.1,-1.7v-.1c1.3,-5.5,6.1,-9.4,11.1,-11.6h.1l2.3,-1v-.1l2.5,-.8l2.6,-.7l2.9,-.6l2.9,-.3l3,-.3l3.1,-.1l3.1,.1c3.9,.3,7.6,.7,11.4,1.9h.1l2.5,.8v.1l2.4,1c3.6,1.9,6.2,3.4,8.7,6.6h.1l1,1.6v.1l.7,1.6l.5,1.7v.1l.2,1.7Z" class="g1_1359"/>
<path d="M548.2,638.5l2.3,1v-.1l2.4,.9h-.1l2.7,.6l2.8,.7l2.9,.3l3,.3h-.1l3.1,.1l3.1,-.1l3,-.3l2.9,-.3h-.1l2.8,-.7l2.6,-.6l2.5,-.9v.1l2.4,-1h-.1l2.1,-1.1l1.9,-1.1l1.8,-1.4l1.5,-1.4l-.1,.1l1.3,-1.5l1,-1.5v.1l.8,-1.7h-.1l.4,-1.6v.1l.2,-1.8v.1l.7,-.1v.1c-1.6,18,-35.1,20.1,-47.6,14.3l-2.3,-.9Z" class="g1_1359"/>
<path d="M594.1,745l-.7,.2l.6,1.6l.7,-.2Z" class="g1_1359"/>
<path d="M593.8,746.2l2.2,-2l1.2,-1.2l.2,1.8l.8,10.1l.1,2.5l-1.5,-2l-6,-8.1l-1,-1.4h1.5l.7,.4l6,8.1l-1.2,1l-.1,-.4l-.9,-10.1l1.6,-.1l-.3,.5l-2.2,2Z" class="g1_1359"/>
<path d="M591.3,745.9h3.1l.5,1.4l-.3,.1l-.2,.1h-3.1Z" class="g1_1359"/>
<path fill-rule="evenodd" d="M594.4,746.7l2.2,-1.9l.8,10.1l-6.1,-8.2Z" class="g1_1359"/>
<path d="M573.7,690v-.4l-.8,.3l.1,.3Z" class="g1_1359"/>
<path d="M594.1,745l.1,.3l-.8,.3v-.4Z" class="g1_1359"/>
<path d="M573.7,690l-.7,.2l20.4,55l.7,-.2Z" class="g1_1359"/>
<path d="M501.3,663l-.7,-.3l-.6,1.6l.7,.4Z" class="g1_1359"/>
<path d="M500.3,663.7l3,.1l1.6,.1l-1.1,1.3l-6.5,7.8l-1.7,2l.3,-2.6l1.4,-10l.2,-1.5l1.1,.9l.3,.8l-1.4,10l-1.6,-.2l.2,-.4l6.5,-7.8l1.2,1l-.6,.3l-3,-.2Z" class="g1_1359"/>
<path d="M498.6,661.8l2.2,2.1l-.6,1.4l-.3,-.1l-.1,-.2l-2.2,-2Z" class="g1_1359"/>
<path fill-rule="evenodd" d="M500.3,664.5l3,.2l-6.6,7.8l1.4,-10Z" class="g1_1359"/>
<path d="M524.7,610.4l.1,-.3l-.6,-.2l-.1,.2Z" class="g1_1359"/>
<path d="M501.3,663l-.1,.3l-.6,-.3l.1,-.2Z" class="g1_1359"/>
<path d="M524.7,610.4l-.6,-.3l-23.4,52.7l.6,.2Z" class="g1_1359"/>
<path d="M557.8,745.8l-.7,.2l.5,1.6l.7,-.2Z" class="g1_1359"/>
<path d="M557.5,746.9l2.3,-1.8l1.2,-.9l.1,1.5l.5,10.1v2.7l-1.5,-2.2l-5.7,-8.4l-.9,-1.3H555l.7,.5l5.7,8.3l-1.3,.9l-.1,-.4l-.5,-10.1l1.6,-.1l-.4,.7l-2.3,1.8Z" class="g1_1359"/>
<path d="M555,746.6l3,.1l.4,1.5l-.2,.2H558l-3,-.1Z" class="g1_1359"/>
<path fill-rule="evenodd" d="M558,747.5l2.3,-1.8l.4,10.1L555,747.4Z" class="g1_1359"/>
<path d="M541,695.7l-.1,-.3l-.7,.3l.1,.3Z" class="g1_1359"/>
<path d="M557.8,745.8l.1,.4l-.8,.2v-.3Z" class="g1_1359"/>
<path d="M541,695.7l-.7,.3l16.8,50.1l.7,-.3Z" class="g1_1359"/>
<path d="M648.5,748.3l-.6,.5l1.2,1.3l.5,-.5Z" class="g1_1359"/>
<path d="M648.6,749.5l1.4,-2.6l.7,-1.4l.8,1.5l4.4,9.1l1.2,2.4l-2.3,-1.4l-8.5,-5.3l-1.3,-.9l1.3,-.5h.8l8.5,5.3l-.8,1.4l-.3,-.4l-4.4,-9.1l1.4,-.6v.6l-1.4,2.6Z" class="g1_1359"/>
<path d="M646.3,750.4l2.7,-1.2l1.1,1l-.2,.3l-.3,.1l-2.7,1.2Z" class="g1_1359"/>
<path fill-rule="evenodd" d="M649.4,749.8l1.3,-2.5l4.4,9L646.6,751Z" class="g1_1359"/>
<path d="M589.8,683.2l-.2,-.3l-.5,.5l.1,.2Z" class="g1_1359"/>
<path d="M648.5,748.4l.1,.2l-.5,.5l-.2,-.3Z" class="g1_1359"/>
<path d="M589.8,683.2l-.6,.4l58.7,65.2l.6,-.4Z" class="g1_1359"/>
<path d="M529.6,661.7h.7v-1.8h-.7v1.8Z" class="g1_1359"/>
<path d="M529.6,661l2.8,-1.2l1.4,-.7l-.4,1.7l-2.3,9.8l-.6,2.6l-.9,-2.6l-3.2,-9.5l-.5,-1.5l1.5,.5l.5,.5l3.2,9.6l-1.5,.4v-.4l2.3,-9.8l1.5,.4l-.5,.5l-2.7,1.2Z" class="g1_1359"/>
<path d="M527.4,660.1l2.8,.9v1.5l-.3,.1l-3,-1Z" class="g1_1359"/>
<path fill-rule="evenodd" d="M529.9,661.7l2.8,-1.1l-2.3,9.8l-3.2,-9.6Z" class="g1_1359"/>
<path d="M527.4,610.8h.7v-.4h-.7v.4Z" class="g1_1359"/>
<path d="M529.6,660.3h.7v-.4h-.7v.4Z" class="g1_1359"/>
<path d="M528.1,610.8h-.7l2.2,49.1h.7Z" class="g1_1359"/>
<path d="M469.4,671.5l-.5,-.6l-1.1,1.4l.5,.5Z" class="g1_1359"/>
<path d="M468.3,671.8l2.8,.9l1.5,.5l-1.4,.9l-8.3,5.8l-2.2,1.5l1.1,-2.4l4,-9.3l.6,-1.5l.7,1.4v.8l-3.9,9.1l-1.4,-.5l.3,-.4l8.2,-5.8l.9,1.3l-.7,.1l-2.7,-.9Z" class="g1_1359"/>
<path d="M467.1,669.6l1.6,2.6l-.9,1.1l-.3,-.1l-.1,-.3l-1.5,-2.5Z" class="g1_1359"/>
<path fill-rule="evenodd" d="M468,672.6l2.8,.9l-8.3,5.8l4,-9.3Z" class="g1_1359"/>
<path d="M520.4,608.9l.2,-.2l-.6,-.5l-.2,.3Z" class="g1_1359"/>
<path d="M469.4,671.5l-.2,.2l-.5,-.4l.2,-.3Z" class="g1_1359"/>
<path d="M520.4,608.9l-.6,-.4L468.9,671l.5,.5Z" class="g1_1359"/>
<path d="M510.8,746h.7v-1.8h-.7V746Z" class="g1_1359"/>
<path d="M510.9,745.2l2.7,-1l1.5,-.6l-.5,1.6L512,755l-.8,2.4l-.7,-2.4l-2.9,-9.7l-.5,-1.4l1.4,.4l.5,.6l3,9.6l-1.5,.5v-.5l2.7,-9.7l1.4,.4l-.4,.5l-2.8,1Z" class="g1_1359"/>
<path d="M508.5,744.3l2.8,1l.1,1.4l-.3,.1l-.2,-.1l-2.9,-.9Z" class="g1_1359"/>
<path fill-rule="evenodd" d="M511.1,746l2.8,-1l-2.7,9.7l-2.9,-9.6Z" class="g1_1359"/>
<path d="M510.3,704.5h.7v-.4h-.7v.4Z" class="g1_1359"/>
<path d="M510.8,744.6h.7v-.4h-.7v.4Z" class="g1_1359"/>
<path d="M511,704.5h-.7l.5,39.7h.7Z" class="g1_1359"/>
<path d="M468.5,746.5l-.7,-.3l-.8,1.6l.8,.4Z" class="g1_1359"/>
<path d="M467.5,747.2l2.9,.2l1.6,.1l-1.1,1.3l-6.5,7.6l-1.8,2l.4,-2.6l1.5,-10l.3,-1.6l1.1,1.1l.1,.8l-1.4,10l-1.6,-.3l.3,-.4l6.5,-7.6l1.1,1l-.7,.3l-2.9,-.3Z" class="g1_1359"/>
<path d="M465.9,745.3l2.1,2.1l-.7,1.4l-.3,-.1l-2.2,-2.3Z" class="g1_1359"/>
<path fill-rule="evenodd" d="M467.4,748l2.9,.3l-6.5,7.6l1.5,-10Z" class="g1_1359"/>
<path d="M484.8,711.3l.1,-.2l-.6,-.3l-.1,.3Z" class="g1_1359"/>
<path d="M468.5,746.5l-.1,.3l-.6,-.3l.1,-.2Z" class="g1_1359"/>
<path d="M484.8,711.3l-.6,-.2l-16.3,35.2l.6,.2Z" class="g1_1359"/>
<path d="M427.5,747.7l-.5,-.5l-1.3,1.2l.6,.5Z" class="g1_1359"/>
<path d="M426.3,747.9l2.7,1.3l1.4,.7l-1.5,.8l-8.9,4.6l-2.3,1.2l1.3,-2.3l5,-8.7l.9,-1.3l.6,1.4l-.1,.7l-5,8.7l-1.4,-.8l.4,-.2l8.9,-4.7l.6,1.4h-.6l-2.7,-1.3Z" class="g1_1359"/>
<path d="M425.5,745.6l1.2,2.8l-1.1,1l-.2,-.2l-.2,-.3L424,746.2Z" class="g1_1359"/>
<path fill-rule="evenodd" d="M426,748.6l2.6,1.3l-8.9,4.7l5.1,-8.7Z" class="g1_1359"/>
<path d="M459.3,717.2l.3,-.3l-.5,-.5l-.3,.3Z" class="g1_1359"/>
<path d="M427.5,747.7l-.2,.3l-.6,-.5l.3,-.3Z" class="g1_1359"/>
<path d="M459.3,717.2l-.5,-.5L427,747.2l.5,.5Z" class="g1_1359"/>
<path d="M383.3,751.7l-.4,-.6l-1.5,.9l.4,.6Z" class="g1_1359"/>
<path d="M382.1,751.7l2.3,1.8l1.2,1l-1.5,.4l-12.2,3.5l1.7,-2l6.7,-7.4l1.1,-1.2l.3,1.5l-.2,.7l-6.7,7.4l-1.2,-1l.4,-.2l9.6,-2.8l.5,1.5l-.7,-.1L381.1,753Z" class="g1_1359"/>
<path d="M381.7,749.3l.6,2.8l-1.2,.9l-.2,-.2v-.3l-.7,-2.9Z" class="g1_1359"/>
<path fill-rule="evenodd" d="M381.6,752.3l2.3,1.8l-9.6,2.8l6.7,-7.4Z" class="g1_1359"/>
<path d="M429.3,723.2l.3,-.2l-.4,-.7l-.3,.2Z" class="g1_1359"/>
<path d="M383.3,751.8l-.3,.1l-.4,-.6l.3,-.2Z" class="g1_1359"/>
<path d="M429.3,723.2l-.4,-.7l-46,28.6l.4,.7Z" class="g1_1359"/>
<path d="M325.7,755.2l-.2,-.8l-1.6,.6l.1,.7Z" class="g1_1359"/>
<path d="M324.5,754.8l1.9,2.3l1.1,1.2l-1.6,.2l-10.1,.7l-2.7,.2l2.1,-1.6l8.2,-6l1.4,-1v1.6l-.4,.6l-8.1,6l-1.1,-1.2l.5,-.2l10.1,-.7l.1,1.6l-.6,-.3l-1.9,-2.3Z" class="g1_1359"/>
<path d="M324.8,752.4v2.9l-1.4,.6l-.2,-.3l-.1,-.3v-2.9Z" class="g1_1359"/>
<path fill-rule="evenodd" d="M323.9,755.3l2,2.3l-10.1,.8l8.1,-6Z" class="g1_1359"/>
<path d="M392.1,730.8l.3,-.1l-.3,-.8l-.3,.1Z" class="g1_1359"/>
<path d="M325.8,755.2h-.4l-.3,-.7l.4,-.1Z" class="g1_1359"/>
<path d="M392.1,730.8l-.3,-.8l-66.3,24.4l.3,.8Z" class="g1_1359"/>
<path d="M441.8,672.2l-.5,-.6l-1.4,1.2l.6,.6Z" class="g1_1359"/>
<path d="M440.5,672.5l2.6,1.4l1.4,.8l-1.5,.6l-9.1,4.1l-2.5,1.1l1.5,-2.2l5.6,-8.4l.9,-1.4l.5,1.5l-.1,.7l-5.6,8.5l-1.3,-.9l.3,-.2l9.2,-4.2l.6,1.4l-.6,-.1l-2.6,-1.4Z" class="g1_1359"/>
<path d="M439.9,670l1,2.8l-1.1,1l-.3,-.1v-.3l-1.1,-2.9Z" class="g1_1359"/>
<path fill-rule="evenodd" d="M440.2,673.1l2.5,1.5l-9.1,4.1l5.6,-8.4Z" class="g1_1359"/>
<path d="M516.1,609.2l.3,-.2l-.5,-.5l-.3,.2Z" class="g1_1359"/>
<path d="M441.8,672.2l-.2,.2l-.5,-.6l.3,-.2Z" class="g1_1359"/>
<path d="M516.1,609.2l-.5,-.5l-74.2,62.9l.4,.6Z" class="g1_1359"/>
<path d="M407.1,680.9l-.4,-.5l-1.4,1l.3,.5Z" class="g1_1359"/>
<path d="M405.9,681l2.4,1.6l1.3,1L408,684l-9.5,3.2l-2.5,.9l1.7,-2.1l6.4,-7.8l1,-1.2l.3,1.5l-.1,.7l-6.5,7.7l-1.1,-.9l.3,-.2l9.5,-3.3l.5,1.5l-.6,-.1L405,682.3Z" class="g1_1359"/>
<path d="M405.4,678.5l.8,3l-1.2,.8l-.2,-.2l-.1,-.3l-.7,-2.9Z" class="g1_1359"/>
<path fill-rule="evenodd" d="M405.4,681.6l2.4,1.7l-9.5,3.2l6.4,-7.8Z" class="g1_1359"/>
<path d="M510.6,609.3l.3,-.2l-.5,-.6l-.3,.2Z" class="g1_1359"/>
<path d="M407.2,681l-.3,.2l-.5,-.7l.3,-.2Z" class="g1_1359"/>
<path d="M510.6,609.3l-.5,-.6L406.7,680.4l.5,.6Z" class="g1_1359"/>
<path d="M373.1,686.6l-.4,-.6l-1.5,.9l.3,.6Z" class="g1_1359"/>
<path d="M371.8,686.6l2.3,1.8l1.4,1l-1.8,.4l-9.7,2.6l-2.5,.6l1.8,-1.8l6.9,-7.4l1.1,-1.2l.2,1.6l-.2,.6l-6.8,7.4l-1.2,-1l.4,-.3l9.8,-2.6l.2,1.5l-.5,-.1l-2.3,-1.8Z" class="g1_1359"/>
<path d="M371.5,684.2l.6,2.9l-1.2,.8l-.3,-.2v-.4l-.5,-2.9Z" class="g1_1359"/>
<path fill-rule="evenodd" d="M371.3,687.2l2.3,1.9l-9.7,2.5l6.9,-7.3Z" class="g1_1359"/>
<path d="M505.9,608.4l.3,-.2l-.4,-.6l-.3,.1Z" class="g1_1359"/>
<path d="M373.1,686.7l-.3,.2l-.4,-.7l.3,-.2Z" class="g1_1359"/>
<path d="M505.9,608.4l-.4,-.7L372.7,686l.4,.7Z" class="g1_1359"/>
<path d="M337,692.1l-.4,-.8l-1.6,.9l.4,.7Z" class="g1_1359"/>
<path d="M335.8,692l2.2,1.9l1.2,.9l-1.7,.4l-9.8,2.1l-2.6,.7l2,-2l7.2,-6.9l1.1,-1.1l.2,1.5l-.2,.7l-7.2,6.9L327.1,696l.3,-.2l9.8,-2.1l.3,1.5l-.6,-.2l-2.2,-1.9Z" class="g1_1359"/>
<path d="M335.6,689.5l.4,3l-1.3,.6l-.2,-.2v-.3l-.4,-2.9Z" class="g1_1359"/>
<path fill-rule="evenodd" d="M335.2,692.5l2.2,2l-9.8,2.1l7.3,-7Z" class="g1_1359"/>
<path d="M494,608.4l.3,-.2l-.4,-.6l-.3,.1Z" class="g1_1359"/>
<path d="M337,692.1l-.3,.2l-.4,-.7l.3,-.2Z" class="g1_1359"/>
<path d="M494,608.4l-.4,-.7l-157,83.7l.4,.7Z" class="g1_1359"/>
<path d="M580.5,564.9h.8v-.3h-.8v.3Z" class="g1_1359"/>
<path d="M580.5,570.8h.8v-5.9h-.8v5.9Z" class="g1_1359"/>
<path d="M630,641h.8v-.3H630v.3Z" class="g1_1359"/>
<path d="M630,647.8h.8V641H630v6.8Z" class="g1_1359"/>
</svg>