<?xml version="1.0" encoding="UTF-8" standalone="no"?>
<!DOCTYPE svg PUBLIC "-//W3C//DTD SVG 1.1//EN"
"http://www.w3.org/Graphics/SVG/1.1/DTD/svg11.dtd">
<svg viewBox="0 0 935 1210" version="1.1" xmlns="http://www.w3.org/2000/svg" xmlns:xlink="http://www.w3.org/1999/xlink">
<defs>
<style type="text/css"><![CDATA[
.g0_36{
fill: #000;
}
]]></style>
</defs>
<path d="M85.5,990.8h.8v-856h-.8v856Z" class="g0_36"/>
<path d="M312.4,991.7h.7V161.5h-.7V991.7Z" class="g0_36"/>
<path d="M505,991.7h.7V134H505V991.7Z" class="g0_36"/>
<path d="M697.5,991.7h.7V134h-.7V991.7Z" class="g0_36"/>
<path d="M848.7,990.8h.8v-856h-.8v856Z" class="g0_36"/>
<path d="M85.5,134.8h764V134H85.5v.8Z" class="g0_36"/>
<path d="M85.5,162.3H505.7v-.8H85.5v.8Z" class="g0_36"/>
<path d="M86.3,204.7H848.7V204H86.3v.7Z" class="g0_36"/>
<path d="M86.3,208.5H848.7v-.7H86.3v.7Z" class="g0_36"/>
<path d="M85.5,318.7h764V318H85.5v.7Z" class="g0_36"/>
<path d="M85.5,430.9h764v-.7H85.5v.7Z" class="g0_36"/>
<path d="M85.5,543h764v-.7H85.5v.7Z" class="g0_36"/>
<path d="M85.5,655.1h764v-.7H85.5v.7Z" class="g0_36"/>
<path d="M85.5,767.3h764v-.7H85.5v.7Z" class="g0_36"/>
<path d="M85.5,879.5h764v-.8H85.5v.8Z" class="g0_36"/>
<path d="M85.5,991.6h764v-.8H85.5v.8Z" class="g0_36"/>
</svg>