<?xml version="1.0" encoding="UTF-8" standalone="no"?>
<!DOCTYPE svg PUBLIC "-//W3C//DTD SVG 1.1//EN"
"http://www.w3.org/Graphics/SVG/1.1/DTD/svg11.dtd">
<svg viewBox="0 0 825 990" version="1.1" xmlns="http://www.w3.org/2000/svg" xmlns:xlink="http://www.w3.org/1999/xlink">
<defs>
<style type="text/css"><![CDATA[
.g0_590{
fill: #000;
}
]]></style>
</defs>
<path d="M79.8,910.3h.3v-.8h-.3v.8Z" class="g0_590"/>
<path d="M80.1,910.3h650v-.8H80.1v.8Z" class="g0_590"/>
<path d="M144.7,208.5h1.6V165.7h-1.6v42.8Z" class="g0_590"/>
<path d="M218.1,210.1h.7V164.3h-.7v45.8Z" class="g0_590"/>
<path d="M364.2,210.1h.7V164.3h-.7v45.8Z" class="g0_590"/>
<path d="M437.3,210.1h.7V164.3h-.7v45.8Z" class="g0_590"/>
<path d="M510.2,210.1h.8V164.3h-.8v45.8Z" class="g0_590"/>
<path d="M729,208.5h1.6V165.7H729v42.8Z" class="g0_590"/>
<path d="M144.7,165.8H730.5v-1.5H144.7v1.5Z" class="g0_590"/>
<path d="M144.7,210.1H730.5v-1.6H144.7v1.6Z" class="g0_590"/>
</svg>