<?xml version="1.0" encoding="UTF-8" standalone="no"?>
<!DOCTYPE svg PUBLIC "-//W3C//DTD SVG 1.1//EN"
"http://www.w3.org/Graphics/SVG/1.1/DTD/svg11.dtd">
<svg viewBox="0 0 935 1210" version="1.1" xmlns="http://www.w3.org/2000/svg" xmlns:xlink="http://www.w3.org/1999/xlink">
<defs>
<style type="text/css"><![CDATA[
.g0_538{
fill: #FFF;
}
.g1_538{
fill: #000;
}
.g2_538{
fill: #E6E6E6;
}
]]></style>
</defs>
<path d="M68.8,1149.3H852.5v-21.2H68.8v21.2Z" class="g0_538"/>
<path d="M117.6,1021.2h.7V704.7h-.7v316.5Z" class="g1_538"/>
<path d="M802.8,1021.2h.7V704.7h-.7v316.5Z" class="g1_538"/>
<path d="M117.5,704.7H803.6V704H117.5v.7Z" class="g1_538"/>
<path d="M117.5,1021.9H803.6v-.7H117.5v.7Z" class="g1_538"/>
<path d="M423.6,771.5h27.6V740H423.6v31.5Z" class="g2_538"/>
<path d="M488.7,771.2h29.8V739.8H488.7v31.4Z" class="g2_538"/>
<path d="M225.8,771.8H380.9V740.5H225.8v31.3Z" class="g2_538"/>
<path d="M225.2,740.3H664v-.7H225.2v.7Z" class="g1_538"/>
<path d="M663.3,772.3h.7V739.9h-.7v32.4Z" class="g1_538"/>
<path d="M224.9,772.3H663.7v-.7H224.9v.7Z" class="g1_538"/>
<path d="M224.9,771.9h.7V739.6h-.7v32.3Z" class="g1_538"/>
<path d="M607.7,941.9h.5V772.3h-.5V941.9Z" class="g1_538"/>
<path d="M360.3,941.9H607.9v-.5H360.3v.5Z" class="g1_538"/>
<path d="M626.2,740.7h.4v-.2h-.4v.2Z" class="g1_538"/>
<path d="M626.2,772.4h.4V740.7h-.4v31.7Z" class="g1_538"/>
<path d="M614,740.7h.4v-.2H614v.2Z" class="g1_538"/>
<path d="M614,772.4h.4V740.7H614v31.7Z" class="g1_538"/>
<path d="M601.7,740.7h.5v-.2h-.5v.2Z" class="g1_538"/>
<path d="M601.7,772.4h.5V740.7h-.5v31.7Z" class="g1_538"/>
<path d="M589.4,740.7h.5v-.2h-.5v.2Z" class="g1_538"/>
<path d="M589.4,772.4h.5V740.7h-.5v31.7Z" class="g1_538"/>
<path d="M577.2,740.7h.5v-.2h-.5v.2Z" class="g1_538"/>
<path d="M577.2,772.4h.5V740.7h-.5v31.7Z" class="g1_538"/>
<path d="M540.5,740.2h.4V740h-.4v.2Z" class="g1_538"/>
<path d="M540.5,771.9h.4V740.2h-.4v31.7Z" class="g1_538"/>
<path d="M529.8,739.9h.5v-.1h-.5v.1Z" class="g1_538"/>
<path d="M529.8,771.9h.5v-32h-.5v32Z" class="g1_538"/>
<path d="M518.4,740.2h.4V740h-.4v.2Z" class="g1_538"/>
<path d="M518.4,772.2h.4v-32h-.4v32Z" class="g1_538"/>
<path d="M451.1,740.2h.5V740h-.5v.2Z" class="g1_538"/>
<path d="M451.1,772.2h.5v-32h-.5v32Z" class="g1_538"/>
<path d="M381.7,740.2h.5V740h-.5v.2Z" class="g1_538"/>
<path d="M381.7,772.2h.5v-32h-.5v32Z" class="g1_538"/>
<path d="M389.2,820.1h.5V772.9h-.5v47.2Z" class="g1_538"/>
<path d="M311.3,820.1h78.1v-.4H311.3v.4Z" class="g1_538"/>
<path d="M411.4,833.7h.5V771.5h-.5v62.2Z" class="g1_538"/>
<path d="M357.9,833.7h53.7v-.5H357.9v.5Z" class="g1_538"/>
<path d="M470.2,846.7h.5V772.2h-.5v74.5Z" class="g1_538"/>
<path d="M317.1,846.7H470.4v-.4H317.1v.4Z" class="g1_538"/>
<path d="M558.7,894.7h.5v-123h-.5v123Z" class="g1_538"/>
<path d="M371.5,894.7H558.9v-.5H371.5v.5Z" class="g1_538"/>
<path d="M619,953.3h.5V772.5H619V953.3Z" class="g1_538"/>
<path d="M385.1,953.3H619.2v-.4H385.1v.4Z" class="g1_538"/>
<path d="M631.2,967h.5V772.2h-.5V967Z" class="g1_538"/>
<path d="M397.3,967H631.4v-.5H397.3v.5Z" class="g1_538"/>
<path d="M645,979.9h.4V772.3H645V979.9Z" class="g1_538"/>
<path d="M325.7,979.9H645.2v-.4H325.7v.4Z" class="g1_538"/>
<path d="M658.6,992.2h.5V772.3h-.5V992.2Z" class="g1_538"/>
<path d="M306.4,992.2H658.8v-.5H306.4v.5Z" class="g1_538"/>
<path d="M564.9,740.7h.5v-.2h-.5v.2Z" class="g1_538"/>
<path d="M564.9,772.4h.5V740.7h-.5v31.7Z" class="g1_538"/>
<path d="M552.7,739.9h.5v-.1h-.5v.1Z" class="g1_538"/>
<path d="M552.7,772.2h.5V739.9h-.5v32.3Z" class="g1_538"/>
<path d="M594.9,931.2h.5V772.3h-.5V931.2Z" class="g1_538"/>
<path d="M347.9,931.2H595.1v-.4H347.9v.4Z" class="g1_538"/>
<path d="M583.5,918.4h.4V772.3h-.4V918.4Z" class="g1_538"/>
<path d="M379.5,918.4H583.6V918H379.5v.4Z" class="g1_538"/>
<path d="M569.8,906.3h.5V772.2h-.5V906.3Z" class="g1_538"/>
<path d="M367.3,906.3H570v-.4H367.3v.4Z" class="g1_538"/>
<path d="M546.9,882.6h.4V772.3h-.4V882.6Z" class="g1_538"/>
<path d="M360.8,882.6H547.1v-.5H360.8v.5Z" class="g1_538"/>
<path d="M395.4,740.2h.4V740h-.4v.2Z" class="g1_538"/>
<path d="M395.4,772.2h.4v-32h-.4v32Z" class="g1_538"/>
<path d="M487.9,740.2h.4V740h-.4v.2Z" class="g1_538"/>
<path d="M487.9,772.2h.4v-32h-.4v32Z" class="g1_538"/>
<path d="M423.2,739.9h.5v-.1h-.5v.1Z" class="g1_538"/>
<path d="M423.2,771.9h.5v-32h-.5v32Z" class="g1_538"/>
<path d="M639.2,740.7h.5v-.2h-.5v.2Z" class="g1_538"/>
<path d="M639.2,772.4h.5V740.7h-.5v31.7Z" class="g1_538"/>
<path d="M651.4,739.9h.4v-.1h-.4v.1Z" class="g1_538"/>
<path d="M651.4,771.6h.4V739.9h-.4v31.7Z" class="g1_538"/>
<path d="M534.7,871.8h.5V772.3h-.5v99.5Z" class="g1_538"/>
<path d="M381.6,871.8H534.9v-.5H381.6v.5Z" class="g1_538"/>
<path d="M523.3,858.9h.5V772.3h-.5v86.6Z" class="g1_538"/>
<path d="M370.2,858.9H523.5v-.4H370.2v.4Z" class="g1_538"/>
</svg>