<?xml version="1.0" encoding="UTF-8" standalone="no"?>
<!DOCTYPE svg PUBLIC "-//W3C//DTD SVG 1.1//EN"
"http://www.w3.org/Graphics/SVG/1.1/DTD/svg11.dtd">
<svg viewBox="0 0 825 990" version="1.1" xmlns="http://www.w3.org/2000/svg" xmlns:xlink="http://www.w3.org/1999/xlink">
<defs>
<style type="text/css"><![CDATA[
.g0_112{
fill: #000;
}
]]></style>
</defs>
<path d="M79.8,910.3h.3v-.8h-.3v.8Z" class="g0_112"/>
<path d="M80.1,910.3h650v-.8H80.1v.8Z" class="g0_112"/>
<path d="M79.2,288.1H729.8v-.7H79.2v.7Z" class="g0_112"/>
<path d="M79.2,340.1H729.8v-.8H79.2v.8Z" class="g0_112"/>
<path d="M79.2,368.9H729.8v-.2H79.2v.2Z" class="g0_112"/>
<path d="M79.2,397.8H729.8v-.1H79.2v.1Z" class="g0_112"/>
<path d="M79.2,426.9H729.8v-.2H79.2v.2Z" class="g0_112"/>
<path d="M79.2,456H729.8v-.2H79.2v.2Z" class="g0_112"/>
<path d="M79.2,484.9H729.8v-.2H79.2v.2Z" class="g0_112"/>
<path d="M79.2,514H729.8v-.2H79.2v.2Z" class="g0_112"/>
<path d="M79.2,543H729.8v-.1H79.2v.1Z" class="g0_112"/>
<path d="M79.2,572H729.8v-.2H79.2v.2Z" class="g0_112"/>
<path d="M79.2,601.1H729.8v-.2H79.2v.2Z" class="g0_112"/>
<path d="M79.2,630.1H729.8v-.2H79.2v.2Z" class="g0_112"/>
<path d="M79.2,679H729.8v-.2H79.2v.2Z" class="g0_112"/>
<path d="M79.2,727.8H729.8v-.1H79.2v.1Z" class="g0_112"/>
<path d="M79.2,773.7H729.8v-.2H79.2v.2Z" class="g0_112"/>
<path d="M79.2,822.6H729.8v-.2H79.2v.2Z" class="g0_112"/>
<path d="M79.2,851.7H729.8v-.2H79.2v.2Z" class="g0_112"/>
<path d="M79.2,880.9H729.8v-.7H79.2v.7Z" class="g0_112"/>
</svg>