<?xml version="1.0" encoding="UTF-8" standalone="no"?>
<!DOCTYPE svg PUBLIC "-//W3C//DTD SVG 1.1//EN"
"http://www.w3.org/Graphics/SVG/1.1/DTD/svg11.dtd">
<svg viewBox="0 0 935 1210" version="1.1" xmlns="http://www.w3.org/2000/svg" xmlns:xlink="http://www.w3.org/1999/xlink">
<defs>
<style type="text/css"><![CDATA[
.g0_2890{
fill: #FFF;
}
.g1_2890{
fill: #000;
}
]]></style>
</defs>
<path d="M68.8,1149.3H852.5v-21.2H68.8v21.2Z" class="g0_2890"/>
<path d="M68.6,1082.9h.7V124.1h-.7v958.8Z" class="g1_2890"/>
<path d="M467.6,260.2h.7V123.4h-.7V260.2Z" class="g1_2890"/>
<path d="M467.6,399.1h.7V283.8h-.7V399.1Z" class="g1_2890"/>
<path d="M467.6,643.6h.7V422.9h-.7V643.6Z" class="g1_2890"/>
<path d="M467.6,765.8h.7V667.2h-.7v98.6Z" class="g1_2890"/>
<path d="M467.6,839.2h.7V789.5h-.7v49.7Z" class="g1_2890"/>
<path d="M467.6,1059.2h.7V862.9h-.7v196.3Z" class="g1_2890"/>
<path d="M851.1,1082.9h.8V124.1h-.8v958.8Z" class="g1_2890"/>
<path d="M68.6,124.1H852v-.7H68.6v.7Z" class="g1_2890"/>
<path d="M68.6,148.6H852v-.7H68.6v.7Z" class="g1_2890"/>
<path d="M68.6,189.8H852v-.7H68.6v.7Z" class="g1_2890"/>
<path d="M68.6,214.2H852v-.7H68.6v.7Z" class="g1_2890"/>
<path d="M68.6,260.1H852v-.8H68.6v.8Z" class="g1_2890"/>
<path d="M68.6,284.5H852v-.7H68.6v.7Z" class="g1_2890"/>
<path d="M68.6,309H852v-.7H68.6v.7Z" class="g1_2890"/>
<path d="M68.6,333.4H852v-.7H68.6v.7Z" class="g1_2890"/>
<path d="M68.6,357.9H852v-.8H68.6v.8Z" class="g1_2890"/>
<path d="M68.6,399.1H852v-.7H68.6v.7Z" class="g1_2890"/>
<path d="M68.6,423.6H852v-.7H68.6v.7Z" class="g1_2890"/>
<path d="M68.6,448.1H852v-.8H68.6v.8Z" class="g1_2890"/>
<path d="M68.6,472.4H852v-.7H68.6v.7Z" class="g1_2890"/>
<path d="M68.6,496.9H852v-.7H68.6v.7Z" class="g1_2890"/>
<path d="M68.6,521.4H852v-.7H68.6v.7Z" class="g1_2890"/>
<path d="M68.6,545.8H852v-.7H68.6v.7Z" class="g1_2890"/>
<path d="M68.6,570.3H852v-.8H68.6v.8Z" class="g1_2890"/>
<path d="M68.6,594.7H852V594H68.6v.7Z" class="g1_2890"/>
<path d="M68.6,619.1H852v-.7H68.6v.7Z" class="g1_2890"/>
<path d="M68.6,643.6H852v-.7H68.6v.7Z" class="g1_2890"/>
<path d="M68.6,668.1H852v-.8H68.6v.8Z" class="g1_2890"/>
<path d="M68.6,692.4H852v-.7H68.6v.7Z" class="g1_2890"/>
<path d="M68.6,716.9H852v-.7H68.6v.7Z" class="g1_2890"/>
<path d="M68.6,741.4H852v-.7H68.6v.7Z" class="g1_2890"/>
<path d="M68.6,765.8H852V765H68.6v.8Z" class="g1_2890"/>
<path d="M68.6,790.3H852v-.8H68.6v.8Z" class="g1_2890"/>
<path d="M68.6,814.7H852V814H68.6v.7Z" class="g1_2890"/>
<path d="M68.6,839.1H852v-.7H68.6v.7Z" class="g1_2890"/>
<path d="M68.6,863.6H852v-.7H68.6v.7Z" class="g1_2890"/>
<path d="M68.6,888.1H852v-.8H68.6v.8Z" class="g1_2890"/>
<path d="M68.6,912.5H852v-.8H68.6v.8Z" class="g1_2890"/>
<path d="M68.6,936.9H852v-.7H68.6v.7Z" class="g1_2890"/>
<path d="M68.6,961.4H852v-.7H68.6v.7Z" class="g1_2890"/>
<path d="M68.6,985.8H852v-.7H68.6v.7Z" class="g1_2890"/>
<path d="M68.6,1010.3H852v-.8H68.6v.8Z" class="g1_2890"/>
<path d="M68.6,1034.7H852v-.7H68.6v.7Z" class="g1_2890"/>
<path d="M68.6,1059.1H852v-.7H68.6v.7Z" class="g1_2890"/>
<path d="M68.6,1083.6H852v-.7H68.6v.7Z" class="g1_2890"/>
</svg>