<?xml version="1.0" encoding="UTF-8" standalone="no"?>
<!DOCTYPE svg PUBLIC "-//W3C//DTD SVG 1.1//EN"
"http://www.w3.org/Graphics/SVG/1.1/DTD/svg11.dtd">
<svg viewBox="0 0 935 1210" version="1.1" xmlns="http://www.w3.org/2000/svg" xmlns:xlink="http://www.w3.org/1999/xlink">
<defs>
<style type="text/css"><![CDATA[
.g0_4736{
fill: #FFF;
}
.g1_4736{
fill: #000;
}
]]></style>
</defs>
<path d="M68.8,1149.3H852.5v-21.2H68.8v21.2Z" class="g0_4736"/>
<path d="M68.6,1092h.7V142.4h-.7V1092Z" class="g1_4736"/>
<path d="M125.3,1092.8h.7V183h-.7v909.8Z" class="g1_4736"/>
<path d="M182.1,1092.8h.7V141.7h-.7v951.1Z" class="g1_4736"/>
<path d="M424.8,1092.8h.7V141.7h-.7v951.1Z" class="g1_4736"/>
<path d="M517.9,1092.8h.8V141.7h-.8v951.1Z" class="g1_4736"/>
<path d="M849.4,1092h.7V142.4h-.7V1092Z" class="g1_4736"/>
<path d="M68.6,142.4H850.1v-.7H68.6v.7Z" class="g1_4736"/>
<path d="M68.6,183.7H182.8V183H68.6v.7Z" class="g1_4736"/>
<path d="M68.6,208.2H850.1v-.8H68.6v.8Z" class="g1_4736"/>
<path d="M182.1,287.6h668v-.8h-668v.8Z" class="g1_4736"/>
<path d="M182.1,367h668v-.7h-668v.7Z" class="g1_4736"/>
<path d="M182.1,391.5h668v-.7h-668v.7Z" class="g1_4736"/>
<path d="M182.1,454.1h668v-.7h-668v.7Z" class="g1_4736"/>
<path d="M68.6,478.6H850.1v-.7H68.6v.7Z" class="g1_4736"/>
<path d="M182.1,579.4h668v-.7h-668v.7Z" class="g1_4736"/>
<path d="M182.1,901.8h668v-.7h-668v.7Z" class="g1_4736"/>
<path d="M182.1,926.2h668v-.7h-668v.7Z" class="g1_4736"/>
<path d="M182.1,1005.7h668v-.8h-668v.8Z" class="g1_4736"/>
<path d="M182.1,1030.2h668v-.8h-668v.8Z" class="g1_4736"/>
<path d="M68.6,1092.8H850.1v-.8H68.6v.8Z" class="g1_4736"/>
</svg>