<?xml version="1.0" encoding="UTF-8" standalone="no"?>
<!DOCTYPE svg PUBLIC "-//W3C//DTD SVG 1.1//EN"
"http://www.w3.org/Graphics/SVG/1.1/DTD/svg11.dtd">
<svg viewBox="0 0 935 1210" version="1.1" xmlns="http://www.w3.org/2000/svg" xmlns:xlink="http://www.w3.org/1999/xlink">
<defs>
<clipPath id="c0_2515"><path d="M97.3,59.2V41.4h72.1V59.2Z"/></clipPath>
<style type="text/css"><![CDATA[
.g0_2515{
fill: #000;
}
]]></style>
</defs>
<path d="M96.3,63.3H838.8v-.4H96.3v.4Z" class="g0_2515"/>
<path d="M96.1,1114.5h.2v-.4h-.2v.4Z" class="g0_2515"/>
<path d="M96.3,1114.5H838.9v-.4H96.3v.4Z" class="g0_2515"/>
<image clip-path="url(#c0_2515)" preserveAspectRatio="none" x="97" y="41" width="73" height="18" xlink:href="img/1.jpg"/>
<path d="M95.9,777.2h.7V192.5h-.7V777.2Z" class="g0_2515"/>
<path d="M286.8,723.1h.8V189.4h-.8V723.1Z" class="g0_2515"/>
<path d="M334.8,723.1h.7V189.4h-.7V723.1Z" class="g0_2515"/>
<path d="M397.1,723.1h.7V189.4h-.7V723.1Z" class="g0_2515"/>
<path d="M481.1,723.1h.7V189.4h-.7V723.1Z" class="g0_2515"/>
<path d="M839.2,777.2h.7V192.5h-.7V777.2Z" class="g0_2515"/>
<path d="M95.9,192.5h744v-3H95.9v3Z" class="g0_2515"/>
<path d="M95.9,235.3h744v-3H95.9v3Z" class="g0_2515"/>
<path d="M286.8,258.6H839.9v-.7H286.8v.7Z" class="g0_2515"/>
<path d="M286.8,298.3H839.9v-.7H286.8v.7Z" class="g0_2515"/>
<path d="M286.8,322.8H839.9V322H286.8v.8Z" class="g0_2515"/>
<path d="M286.8,362.4H839.9v-.7H286.8v.7Z" class="g0_2515"/>
<path d="M286.8,386.9H839.9v-.7H286.8v.7Z" class="g0_2515"/>
<path d="M286.8,411.3H839.9v-.7H286.8v.7Z" class="g0_2515"/>
<path d="M286.8,435.8H839.9V435H286.8v.8Z" class="g0_2515"/>
<path d="M95.9,460.3h744v-.8H95.9v.8Z" class="g0_2515"/>
<path d="M95.9,484.6h744v-.7H95.9v.7Z" class="g0_2515"/>
<path d="M95.9,524.4h744v-.7H95.9v.7Z" class="g0_2515"/>
<path d="M286.8,564.1H839.9v-.7H286.8v.7Z" class="g0_2515"/>
<path d="M95.9,588.6h744v-.7H95.9v.7Z" class="g0_2515"/>
<path d="M286.8,628.3H839.9v-.8H286.8v.8Z" class="g0_2515"/>
<path d="M95.9,683.3h744v-.8H95.9v.8Z" class="g0_2515"/>
<path d="M95.9,723h744v-.8H95.9v.8Z" class="g0_2515"/>
<path d="M95.9,778h744v-.8H95.9v.8Z" class="g0_2515"/>
</svg>