<?xml version="1.0" encoding="UTF-8" standalone="no"?>
<!DOCTYPE svg PUBLIC "-//W3C//DTD SVG 1.1//EN"
"http://www.w3.org/Graphics/SVG/1.1/DTD/svg11.dtd">
<svg viewBox="0 0 935 1210" version="1.1" xmlns="http://www.w3.org/2000/svg" xmlns:xlink="http://www.w3.org/1999/xlink">
<defs>
<style type="text/css"><![CDATA[
.g0_3265{
fill: #FFF;
}
.g1_3265{
fill: #000;
}
]]></style>
</defs>
<path d="M68.9,1149.3H852.7v-21.2H68.9v21.2Z" class="g0_3265"/>
<path d="M171.3,910.5h.8V400.7h-.8V910.5Z" class="g1_3265"/>
<path d="M750.7,910.5h.7V400.7h-.7V910.5Z" class="g1_3265"/>
<path d="M171.3,400.7H751.4v-.8H171.3v.8Z" class="g1_3265"/>
<path d="M171.3,911.3H751.4v-.8H171.3v.8Z" class="g1_3265"/>
<path d="M207.9,616.6H335v-32H207.9v32Z" class="g0_3265"/>
<path d="M207.9,585H335.3v-.7H207.9v.7Z" class="g1_3265"/>
<path d="M334.6,616.9h.7V584.6h-.7v32.3Z" class="g1_3265"/>
<path d="M207.5,616.9H334.9v-.7H207.5v.7Z" class="g1_3265"/>
<path d="M207.5,616.6h.8V584.3h-.8v32.3Z" class="g1_3265"/>
<path d="M208,601.4h.2V601H208v.4Z" class="g1_3265"/>
<path d="M208.2,601.4H334.6V601H208.2v.4Z" class="g1_3265"/>
<path d="M271.5,584.2h.5V584h-.5v.2Z" class="g1_3265"/>
<path d="M271.5,601.4h.5V584.2h-.5v17.2Z" class="g1_3265"/>
<path d="M207.9,633.4H335V440.6H207.9V633.4Z" class="g0_3265"/>
<path d="M207.9,440.9H335.3v-.7H207.9v.7Z" class="g1_3265"/>
<path d="M334.6,633.8h.7V440.5h-.7V633.8Z" class="g1_3265"/>
<path d="M207.5,633.8H334.9V633H207.5v.8Z" class="g1_3265"/>
<path d="M207.5,633.4h.8V440.2h-.8V633.4Z" class="g1_3265"/>
<path d="M208,569.2h.2v-.5H208v.5Z" class="g1_3265"/>
<path d="M208.2,569.2H334.6v-.5H208.2v.5Z" class="g1_3265"/>
<path d="M207.7,535.9h.4v-.7h-.4v.7Z" class="g1_3265"/>
<path d="M208.1,535.9H335.4v-.7H208.1v.7Z" class="g1_3265"/>
<path d="M207.7,503.8h.4v-.7h-.4v.7Z" class="g1_3265"/>
<path d="M208.1,503.8H335.4v-.7H208.1v.7Z" class="g1_3265"/>
<path d="M207.7,471.7h.4V471h-.4v.7Z" class="g1_3265"/>
<path d="M208.1,471.7H335.4V471H208.1v.7Z" class="g1_3265"/>
<path d="M387.7,520.4h2.2v-.5h-2.2v.5Z" class="g1_3265"/>
<path d="M389.2,520.5l-1.4,-2.4l-1,-1.7l2,.6l8.1,2.4l2.6,.7l-2.6,.7l-8.1,2.3l-2,.6l1,-1.7l.5,-.3l8.2,-2.3l.4,1.4h-.4l-8.2,-2.3l.5,-1.5l.4,.4l1.4,2.3Z" class="g1_3265"/>
<path d="M387.8,522l1.4,-2.2h1.4l.3,.4l-.3,.4l-1.4,2.3Z" class="g1_3265"/>
<path fill-rule="evenodd" d="M389.9,520.1l-1.4,-2.4l8.1,2.4l-8.1,2.3Z" class="g1_3265"/>
<path d="M334.5,520.4h.2v-.5h-.2v.5Z" class="g1_3265"/>
<path d="M334.7,520.4h53.1v-.5H334.7v.5Z" class="g1_3265"/>
<path d="M588.9,568.6h127V440.5h-127V568.6Z" class="g0_3265"/>
<path d="M588.9,440.9H716.3v-.7H588.9v.7Z" class="g1_3265"/>
<path d="M715.5,569h.8V440.6h-.8V569Z" class="g1_3265"/>
<path d="M588.5,569H715.9v-.8H588.5v.8Z" class="g1_3265"/>
<path d="M588.5,568.6h.7V440.2h-.7V568.6Z" class="g1_3265"/>
<path d="M398.8,616.6H525.9v-32H398.8v32Z" class="g0_3265"/>
<path d="M398.8,585H526.3v-.7H398.8v.7Z" class="g1_3265"/>
<path d="M525.5,616.9h.8V584.6h-.8v32.3Z" class="g1_3265"/>
<path d="M398.5,616.9H525.9v-.7H398.5v.7Z" class="g1_3265"/>
<path d="M398.5,616.6h.7V584.3h-.7v32.3Z" class="g1_3265"/>
<path d="M398.9,601.4h.2V601h-.2v.4Z" class="g1_3265"/>
<path d="M399.1,601.4H525.5V601H399.1v.4Z" class="g1_3265"/>
<path d="M462.6,584.2h.4V584h-.4v.2Z" class="g1_3265"/>
<path d="M462.6,601.4h.4V584.2h-.4v17.2Z" class="g1_3265"/>
<path d="M398.8,633.6H525.9V440.5H398.8V633.6Z" class="g0_3265"/>
<path d="M398.8,440.9H526.3v-.7H398.8v.7Z" class="g1_3265"/>
<path d="M525.5,634h.8V440.5h-.8V634Z" class="g1_3265"/>
<path d="M398.5,634H525.9v-.8H398.5v.8Z" class="g1_3265"/>
<path d="M398.5,633.6h.7V440.2h-.7V633.6Z" class="g1_3265"/>
<path d="M398.7,602.2h.3v-.8h-.3v.8Z" class="g1_3265"/>
<path d="M399,602.2H526.3v-.8H399v.8Z" class="g1_3265"/>
<path d="M398.7,569.1h.3v-.8h-.3v.8Z" class="g1_3265"/>
<path d="M399,569.1H526.3v-.8H399v.8Z" class="g1_3265"/>
<path d="M398.7,535.9h.3v-.7h-.3v.7Z" class="g1_3265"/>
<path d="M399,535.9H526.3v-.7H399v.7Z" class="g1_3265"/>
<path d="M398.7,503.8h.3v-.7h-.3v.7Z" class="g1_3265"/>
<path d="M399,503.8H526.3v-.7H399v.7Z" class="g1_3265"/>
<path d="M398.7,471.7h.3V471h-.3v.7Z" class="g1_3265"/>
<path d="M399,471.7H526.3V471H399v.7Z" class="g1_3265"/>
<path d="M207.9,883.3H335V851.4H207.9v31.9Z" class="g0_3265"/>
<path d="M207.9,851.8H335.3V851H207.9v.8Z" class="g1_3265"/>
<path d="M334.6,883.7h.7V851.4h-.7v32.3Z" class="g1_3265"/>
<path d="M207.5,883.7H334.9v-.8H207.5v.8Z" class="g1_3265"/>
<path d="M207.5,883.3h.8V851h-.8v32.3Z" class="g1_3265"/>
<path d="M208,868.1h.2v-.5H208v.5Z" class="g1_3265"/>
<path d="M208.2,868.1H334.6v-.5H208.2v.5Z" class="g1_3265"/>
<path d="M271.5,850.9h.5v-.1h-.5v.1Z" class="g1_3265"/>
<path d="M271.5,868.2h.5V850.9h-.5v17.3Z" class="g1_3265"/>
<path d="M207.9,900.4H335V707.3H207.9V900.4Z" class="g0_3265"/>
<path d="M207.9,707.7H335.3v-.8H207.9v.8Z" class="g1_3265"/>
<path d="M334.6,900.7h.7V707.3h-.7V900.7Z" class="g1_3265"/>
<path d="M207.5,900.7H334.9V900H207.5v.7Z" class="g1_3265"/>
<path d="M207.5,900.4h.8V706.9h-.8V900.4Z" class="g1_3265"/>
<path d="M207.7,868.9h.4v-.7h-.4v.7Z" class="g1_3265"/>
<path d="M208.1,868.9H335.4v-.7H208.1v.7Z" class="g1_3265"/>
<path d="M208.2,835.8h.3v-.7h-.3v.7Z" class="g1_3265"/>
<path d="M208.5,835.8H335.9v-.7H208.5v.7Z" class="g1_3265"/>
<path d="M207.7,802.6h.4v-.7h-.4v.7Z" class="g1_3265"/>
<path d="M208.1,802.6H335.4v-.7H208.1v.7Z" class="g1_3265"/>
<path d="M207.7,738.5h.4v-.8h-.4v.8Z" class="g1_3265"/>
<path d="M208.1,738.5H335.4v-.8H208.1v.8Z" class="g1_3265"/>
<path d="M387.7,527.8h2.1v-.2h-2.1v.2Z" class="g1_3265"/>
<path d="M389.1,528.1l-1.3,-2.4l-1.1,-1.6l2,.5l8.2,2.4l2.7,.7l-2.7,.8l-8.2,2.2l-2,.6l1.1,-1.7l.4,-.3l8.3,-2.3l.4,1.5h-.4l-8.3,-2.4l.5,-1.5l.4,.4l1.4,2.4Z" class="g1_3265"/>
<path d="M387.8,529.6l1.3,-2.2h1.4l.3,.4l-.3,.4l-1.4,2.3Z" class="g1_3265"/>
<path fill-rule="evenodd" d="M389.8,527.7l-1.4,-2.4l8.2,2.4l-8.2,2.3Z" class="g1_3265"/>
<path d="M334.6,787.1h31.9v-.2H334.6v.2Z" class="g1_3265"/>
<path d="M366.3,787h.2V527.6h-.2V787Z" class="g1_3265"/>
<path d="M366.4,527.8h21.4v-.2H366.4v.2Z" class="g1_3265"/>
<path d="M576.2,568.8h2.1v-.5h-2.1v.5Z" class="g1_3265"/>
<path d="M577.7,568.9l-1.3,-2.3l-1,-1.7l1.9,.6l8.2,2.3l2.4,.7l-2.4,.7l-8.2,2.4l-1.8,.6l.9,-1.7l.5,-.3l8.1,-2.4l.5,1.4H585L576.9,567l.4,-1.5l.5,.4l1.3,2.2Z" class="g1_3265"/>
<path d="M576.4,570.5l1.3,-2.3h1.4l.1,.3l-.1,.4l-1.3,2.4Z" class="g1_3265"/>
<path fill-rule="evenodd" d="M578.3,568.5L577,566.2l8.2,2.3l-8.2,2.4Z" class="g1_3265"/>
<path d="M525.8,520.1h30.8v-.4H525.8v.4Z" class="g1_3265"/>
<path d="M556.1,568.8h.5v-49h-.5v49Z" class="g1_3265"/>
<path d="M556.3,568.8h20.1v-.5H556.3v.5Z" class="g1_3265"/>
<path d="M207.7,569h.4v-.8h-.4v.8Z" class="g1_3265"/>
<path d="M208.1,569H335.4v-.8H208.1v.8Z" class="g1_3265"/>
<path d="M208.5,601.5h.4v-.7h-.4v.7Z" class="g1_3265"/>
<path d="M208.9,601.5H336.2v-.7H208.9v.7Z" class="g1_3265"/>
<path d="M207.4,770.2h.3v-.7h-.3v.7Z" class="g1_3265"/>
<path d="M207.7,770.2H335v-.7H207.7v.7Z" class="g1_3265"/>
<path d="M388.6,511.6H390v-.7h-1.4v.7Z" class="g1_3265"/>
<path d="M389.3,511.5l-.7,-2L388,508l1.6,.5l6.8,2l2.5,.7l-2.5,.8l-6.8,1.9l-1.6,.4l.6,-1.4l.5,-.5l6.8,-1.9l.5,1.5h-.5l-6.8,-2.1l.5,-1.4l.4,.4l.8,2.1Z" class="g1_3265"/>
<path d="M388.6,512.9l.7,-1.9h1.5l.1,.2l-.1,.3l-.8,1.9Z" class="g1_3265"/>
<path fill-rule="evenodd" d="M390,511.2l-.7,-2l6.8,2l-6.8,2Z" class="g1_3265"/>
<path d="M364.8,511.6h24.1v-.7H364.8v.7Z" class="g1_3265"/>
<path d="M364.8,511.2h.8V456.4h-.8v54.8Z" class="g1_3265"/>
<path d="M365.2,457.1h34v-.7h-34v.7Z" class="g1_3265"/>
</svg>