<?xml version="1.0" encoding="UTF-8" standalone="no"?>
<!DOCTYPE svg PUBLIC "-//W3C//DTD SVG 1.1//EN"
"http://www.w3.org/Graphics/SVG/1.1/DTD/svg11.dtd">
<svg viewBox="0 0 935 1210" version="1.1" xmlns="http://www.w3.org/2000/svg" xmlns:xlink="http://www.w3.org/1999/xlink">
<defs>
<style type="text/css"><![CDATA[
.g0_81{
fill: #FFF;
}
.g1_81{
fill: #000;
}
]]></style>
</defs>
<path d="M68.9,1149.3H852.7v-21.2H68.9v21.2Z" class="g0_81"/>
<path d="M70.6,619.8H411.5V592.1H70.6v27.7Z" class="g0_81"/>
<path d="M411.5,619.8H636.1V592.1H411.5v27.7Z" class="g0_81"/>
<path d="M636.1,619.8H852.2V592.1H636.1v27.7Z" class="g0_81"/>
<path d="M70.6,644.2H411.5V619.8H70.6v24.4Z" class="g0_81"/>
<path d="M411.5,644.2H636.1V619.8H411.5v24.4Z" class="g0_81"/>
<path d="M636.1,644.2H852.2V619.8H636.1v24.4Z" class="g0_81"/>
<path d="M70.6,668.7H411.5V644.2H70.6v24.5Z" class="g0_81"/>
<path d="M411.5,668.7H636.1V644.2H411.5v24.5Z" class="g0_81"/>
<path d="M636.1,668.7H852.2V644.2H636.1v24.5Z" class="g0_81"/>
<path d="M70.6,693.1H411.5V668.7H70.6v24.4Z" class="g0_81"/>
<path d="M411.5,693.1H636.1V668.7H411.5v24.4Z" class="g0_81"/>
<path d="M636.1,693.1H852.2V668.7H636.1v24.4Z" class="g0_81"/>
<path d="M70.6,717.6H411.5V693.1H70.6v24.5Z" class="g0_81"/>
<path d="M411.5,717.6H636.1V693.1H411.5v24.5Z" class="g0_81"/>
<path d="M636.1,717.6H852.2V693.1H636.1v24.5Z" class="g0_81"/>
<path d="M70.6,742H411.5V717.6H70.6V742Z" class="g0_81"/>
<path d="M411.5,742H636.1V717.6H411.5V742Z" class="g0_81"/>
<path d="M636.1,742H852.2V717.6H636.1V742Z" class="g0_81"/>
<path d="M70.6,766.4H411.5V742H70.6v24.4Z" class="g0_81"/>
<path d="M411.5,766.4H636.1V742H411.5v24.4Z" class="g0_81"/>
<path d="M636.1,766.4H852.2V742H636.1v24.4Z" class="g0_81"/>
<path d="M68.7,335.8h.7V137.9h-.7V335.8Z" class="g1_81"/>
<path d="M414.1,336.5h.8V137.1h-.8V336.5Z" class="g1_81"/>
<path d="M570,336.5h.7V137.1H570V336.5Z" class="g1_81"/>
<path d="M727.6,336.5h.7V137.1h-.7V336.5Z" class="g1_81"/>
<path d="M853.3,335.8h.8V137.9h-.8V335.8Z" class="g1_81"/>
<path d="M68.6,137.9H854.2v-.8H68.6v.8Z" class="g1_81"/>
<path d="M68.6,162.3H854.2v-.7H68.6v.7Z" class="g1_81"/>
<path d="M68.6,186.7H854.2V186H68.6v.7Z" class="g1_81"/>
<path d="M68.6,261.6H854.2v-.7H68.6v.7Z" class="g1_81"/>
<path d="M68.6,286.1H570.7v-.7H68.6v.7Z" class="g1_81"/>
<path d="M727.6,286.1H854.2v-.7H727.6v.7Z" class="g1_81"/>
<path d="M68.6,336.5H854.2v-.7H68.6v.7Z" class="g1_81"/>
<path d="M70.2,766.1H71V592.4h-.8V766.1Z" class="g1_81"/>
<path d="M411.1,766.9h.8V591.6h-.8V766.9Z" class="g1_81"/>
<path d="M635.7,766.9h.7V591.6h-.7V766.9Z" class="g1_81"/>
<path d="M851.9,766.1h.7V592.4h-.7V766.1Z" class="g1_81"/>
<path d="M70.1,592.4H852.6v-.7H70.1v.7Z" class="g1_81"/>
<path d="M70.1,620.1H852.6v-.7H70.1v.7Z" class="g1_81"/>
<path d="M70.1,644.6H852.6v-.7H70.1v.7Z" class="g1_81"/>
<path d="M70.1,669.1H852.6v-.8H70.1v.8Z" class="g1_81"/>
<path d="M70.1,693.5H852.6v-.8H70.1v.8Z" class="g1_81"/>
<path d="M70.1,717.9H852.6v-.7H70.1v.7Z" class="g1_81"/>
<path d="M70.1,742.4H852.6v-.7H70.1v.7Z" class="g1_81"/>
<path d="M70.1,766.8H852.6v-.7H70.1v.7Z" class="g1_81"/>
<path d="M69.2,1014.4h.7V892.9h-.7v121.5Z" class="g1_81"/>
<path d="M144,1015.1h.7v-123H144v123Z" class="g1_81"/>
<path d="M241.4,1015.1h.8v-123h-.8v123Z" class="g1_81"/>
<path d="M435.2,1015.1h.8v-123h-.8v123Z" class="g1_81"/>
<path d="M852.8,1014.4h.7V892.9h-.7v121.5Z" class="g1_81"/>
<path d="M69.2,892.8H853.5v-.7H69.2v.7Z" class="g1_81"/>
<path d="M69.2,917.3H853.5v-.7H69.2v.7Z" class="g1_81"/>
<path d="M69.2,941.8H853.5v-.7H69.2v.7Z" class="g1_81"/>
<path d="M69.2,966.2H853.5v-.8H69.2v.8Z" class="g1_81"/>
<path d="M69.2,990.6H853.5v-.7H69.2v.7Z" class="g1_81"/>
<path d="M69.2,1015.1H853.5v-.7H69.2v.7Z" class="g1_81"/>
</svg>