<?xml version="1.0" encoding="UTF-8" standalone="no"?>
<!DOCTYPE svg PUBLIC "-//W3C//DTD SVG 1.1//EN"
"http://www.w3.org/Graphics/SVG/1.1/DTD/svg11.dtd">
<svg viewBox="0 0 935 1210" version="1.1" xmlns="http://www.w3.org/2000/svg" xmlns:xlink="http://www.w3.org/1999/xlink">
<defs>
<style type="text/css"><![CDATA[
.g0_2495{
fill: #FFF;
}
.g1_2495{
fill: #000;
}
]]></style>
</defs>
<path d="M68.9,1149.3H852.7v-21.2H68.9v21.2Z" class="g0_2495"/>
<path d="M69.8,1085.9h.7V124.1h-.7v961.8Z" class="g1_2495"/>
<path d="M261.7,1086.7h.7V123.4h-.7v963.3Z" class="g1_2495"/>
<path d="M852.2,1085.9h.8V124.1h-.8v961.8Z" class="g1_2495"/>
<path d="M69.8,124.1H853v-.7H69.8v.7Z" class="g1_2495"/>
<path d="M69.8,147H853v-.7H69.8v.7Z" class="g1_2495"/>
<path d="M261.7,169.9H853v-.7H261.7v.7Z" class="g1_2495"/>
<path d="M261.7,192.9H853v-.8H261.7v.8Z" class="g1_2495"/>
<path d="M261.7,215.8H853v-.7H261.7v.7Z" class="g1_2495"/>
<path d="M261.7,238.7H853V238H261.7v.7Z" class="g1_2495"/>
<path d="M261.7,261.6H853v-.7H261.7v.7Z" class="g1_2495"/>
<path d="M261.7,284.5H853v-.7H261.7v.7Z" class="g1_2495"/>
<path d="M261.7,307.4H853v-.7H261.7v.7Z" class="g1_2495"/>
<path d="M261.7,330.4H853v-.8H261.7v.8Z" class="g1_2495"/>
<path d="M261.7,353.3H853v-.7H261.7v.7Z" class="g1_2495"/>
<path d="M261.7,376.2H853v-.7H261.7v.7Z" class="g1_2495"/>
<path d="M261.7,399.1H853v-.7H261.7v.7Z" class="g1_2495"/>
<path d="M69.8,422H853v-.7H69.8v.7Z" class="g1_2495"/>
<path d="M261.7,444.9H853v-.7H261.7v.7Z" class="g1_2495"/>
<path d="M261.7,467.9H853v-.8H261.7v.8Z" class="g1_2495"/>
<path d="M261.7,490.8H853v-.7H261.7v.7Z" class="g1_2495"/>
<path d="M261.7,513.7H853V513H261.7v.7Z" class="g1_2495"/>
<path d="M261.7,536.6H853v-.7H261.7v.7Z" class="g1_2495"/>
<path d="M261.7,559.5H853v-.7H261.7v.7Z" class="g1_2495"/>
<path d="M261.7,582.4H853v-.7H261.7v.7Z" class="g1_2495"/>
<path d="M261.7,605.4H853v-.8H261.7v.8Z" class="g1_2495"/>
<path d="M261.7,628.3H853v-.7H261.7v.7Z" class="g1_2495"/>
<path d="M261.7,651.2H853v-.7H261.7v.7Z" class="g1_2495"/>
<path d="M261.7,674.1H853v-.7H261.7v.7Z" class="g1_2495"/>
<path d="M69.8,697H853v-.7H69.8v.7Z" class="g1_2495"/>
<path d="M261.7,719.9H853v-.7H261.7v.7Z" class="g1_2495"/>
<path d="M261.7,742.9H853v-.8H261.7v.8Z" class="g1_2495"/>
<path d="M261.7,765.8H853V765H261.7v.8Z" class="g1_2495"/>
<path d="M261.7,788.7H853V788H261.7v.7Z" class="g1_2495"/>
<path d="M261.7,811.6H853v-.7H261.7v.7Z" class="g1_2495"/>
<path d="M261.7,834.5H853v-.7H261.7v.7Z" class="g1_2495"/>
<path d="M261.7,857.5H853v-.8H261.7v.8Z" class="g1_2495"/>
<path d="M261.7,880.4H853v-.8H261.7v.8Z" class="g1_2495"/>
<path d="M261.7,903.3H853v-.7H261.7v.7Z" class="g1_2495"/>
<path d="M261.7,926.2H853v-.7H261.7v.7Z" class="g1_2495"/>
<path d="M261.7,949.1H853v-.7H261.7v.7Z" class="g1_2495"/>
<path d="M69.8,972H853v-.7H69.8v.7Z" class="g1_2495"/>
<path d="M261.7,995H853v-.8H261.7v.8Z" class="g1_2495"/>
<path d="M261.7,1017.9H853v-.8H261.7v.8Z" class="g1_2495"/>
<path d="M261.7,1040.8H853v-.8H261.7v.8Z" class="g1_2495"/>
<path d="M261.7,1063.7H853v-.7H261.7v.7Z" class="g1_2495"/>
<path d="M69.8,1086.6H853v-.7H69.8v.7Z" class="g1_2495"/>
</svg>