<?xml version="1.0" encoding="UTF-8" standalone="no"?>
<!DOCTYPE svg PUBLIC "-//W3C//DTD SVG 1.1//EN"
"http://www.w3.org/Graphics/SVG/1.1/DTD/svg11.dtd">
<svg viewBox="0 0 935 1210" version="1.1" xmlns="http://www.w3.org/2000/svg" xmlns:xlink="http://www.w3.org/1999/xlink">
<defs>
<style type="text/css"><![CDATA[
.g0_47{
fill: #FFF;
}
.g1_47{
fill: #000;
}
]]></style>
</defs>
<path d="M68.9,1149.3H852.7v-21.2H68.9v21.2Z" class="g0_47"/>
<path d="M67.7,1026.3h.8V124.1h-.8v902.2Z" class="g1_47"/>
<path d="M122.5,1027.1h.7V164.6h-.7v862.5Z" class="g1_47"/>
<path d="M183.4,1027.1h.8V123.4h-.8v903.7Z" class="g1_47"/>
<path d="M418.4,1027.1h.7V123.4h-.7v903.7Z" class="g1_47"/>
<path d="M683.2,1027.1h.7V123.4h-.7v903.7Z" class="g1_47"/>
<path d="M854.2,1026.3h.8V124.1h-.8v902.2Z" class="g1_47"/>
<path d="M67.7,124.1H855v-.7H67.7v.7Z" class="g1_47"/>
<path d="M67.7,165.4H184.2v-.8H67.7v.8Z" class="g1_47"/>
<path d="M67.7,189.8H855v-.7H67.7v.7Z" class="g1_47"/>
<path d="M183.4,315.1H855v-.8H183.4v.8Z" class="g1_47"/>
<path d="M183.4,356.3H855v-.7H183.4v.7Z" class="g1_47"/>
<path d="M183.4,397.7H855v-.8H183.4v.8Z" class="g1_47"/>
<path d="M183.4,438.9H855v-.7H183.4v.7Z" class="g1_47"/>
<path d="M183.4,564.1H855v-.7H183.4v.7Z" class="g1_47"/>
<path d="M183.4,605.4H855v-.8H183.4v.8Z" class="g1_47"/>
<path d="M183.4,646.6H855v-.7H183.4v.7Z" class="g1_47"/>
<path d="M183.4,687.9H855v-.8H183.4v.8Z" class="g1_47"/>
<path d="M183.4,813.2H855v-.8H183.4v.8Z" class="g1_47"/>
<path d="M183.4,854.4H855v-.7H183.4v.7Z" class="g1_47"/>
<path d="M183.4,895.7H855v-.8H183.4v.8Z" class="g1_47"/>
<path d="M183.4,936.9H855v-.7H183.4v.7Z" class="g1_47"/>
<path d="M183.4,961.4H855v-.7H183.4v.7Z" class="g1_47"/>
<path d="M183.4,1002.7H855v-.8H183.4v.8Z" class="g1_47"/>
<path d="M67.7,1027H855v-.7H67.7v.7Z" class="g1_47"/>
</svg>