<?xml version="1.0" encoding="UTF-8" standalone="no"?>
<!DOCTYPE svg PUBLIC "-//W3C//DTD SVG 1.1//EN"
"http://www.w3.org/Graphics/SVG/1.1/DTD/svg11.dtd">
<svg viewBox="0 0 935 1210" version="1.1" xmlns="http://www.w3.org/2000/svg" xmlns:xlink="http://www.w3.org/1999/xlink">
<defs>
<clipPath id="c0_1821"><path d="M97.3,59.2V41.4h72.1V59.2Z"/></clipPath>
<style type="text/css"><![CDATA[
.g0_1821{
fill: #000;
}
]]></style>
</defs>
<path d="M96.2,62.9v.3H838.7v-.3H96.2Z" class="g0_1821"/>
<path d="M96.2,1114.1h-.1v.4h.1v-.4Z" class="g0_1821"/>
<path d="M838.7,1114.1h.2v.4h-.2v-.4Z" class="g0_1821"/>
<path d="M96.2,1114.1v.4H838.7v-.4H96.2Z" class="g0_1821"/>
<image clip-path="url(#c0_1821)" preserveAspectRatio="none" x="97" y="41" width="72" height="18" xlink:href="img/1.jpg"/>
<path d="M94.1,179.5h-.7v556h.7v-556Z" class="g0_1821"/>
<path d="M251.4,237.4h-.7V632.8h.7V237.4Z" class="g0_1821"/>
<path d="M405.4,177.9h-.7V632.8h.7V177.9Z" class="g0_1821"/>
<path d="M467.9,177.9h-.8v88.2h.8V177.9Z" class="g0_1821"/>
<path d="M468.3,264.5h-1.5V632.8h1.5V264.5Z" class="g0_1821"/>
<path d="M506.4,209.9h-.8v28.2h.8V209.9Z" class="g0_1821"/>
<path d="M506.4,264.5h-.8V632.8h.8V264.5Z" class="g0_1821"/>
<path d="M544.9,209.9h-.8v28.2h.8V209.9Z" class="g0_1821"/>
<path d="M544.9,264.5h-.8V632.8h.8V264.5Z" class="g0_1821"/>
<path d="M583.4,209.9h-.8v28.2h.8V209.9Z" class="g0_1821"/>
<path d="M583.4,264.5h-.8V632.8h.8V264.5Z" class="g0_1821"/>
<path d="M621.9,209.9h-.8v28.2h.8V209.9Z" class="g0_1821"/>
<path d="M621.9,264.5h-.8V632.8h.8V264.5Z" class="g0_1821"/>
<path d="M660.3,209.9h-.7v28.2h.7V209.9Z" class="g0_1821"/>
<path d="M660.3,264.5h-.7V632.8h.7V264.5Z" class="g0_1821"/>
<path d="M698.8,209.9h-.7v28.2h.7V209.9Z" class="g0_1821"/>
<path d="M698.8,264.5h-.7V632.8h.7V264.5Z" class="g0_1821"/>
<path d="M737.3,209.9h-.7v28.2h.7V209.9Z" class="g0_1821"/>
<path d="M737.3,264.5h-.7V632.8h.7V264.5Z" class="g0_1821"/>
<path d="M775.8,177.9h-.7v88.2h.7V177.9Z" class="g0_1821"/>
<path d="M776.3,264.5h-1.6V632.8h1.6V264.5Z" class="g0_1821"/>
<path d="M839.1,179.5h-.7v556h.7v-556Z" class="g0_1821"/>
<path d="M93.4,178v1.6H839.1V178H93.4Z" class="g0_1821"/>
<path d="M467.1,209.9v.7H775.8v-.7H467.1Z" class="g0_1821"/>
<path d="M93.4,237.4v.7h312v-.7H93.4Z" class="g0_1821"/>
<path d="M467.1,237.4v.7H775.8v-.7H467.1Z" class="g0_1821"/>
<path d="M93.4,264.5v1.6H839.1v-1.6H93.4Z" class="g0_1821"/>
<path d="M93.4,310.7v.8h312v-.8H93.4Z" class="g0_1821"/>
<path d="M466.8,310.7v.8H839.1v-.8H466.8Z" class="g0_1821"/>
<path d="M93.4,356.6v.7h312v-.7H93.4Z" class="g0_1821"/>
<path d="M466.8,356.6v.7H839.1v-.7H466.8Z" class="g0_1821"/>
<path d="M93.4,402.4v.7h312v-.7H93.4Z" class="g0_1821"/>
<path d="M466.8,402.4v.7H839.1v-.7H466.8Z" class="g0_1821"/>
<path d="M93.4,448.2v.8h312v-.8H93.4Z" class="g0_1821"/>
<path d="M466.8,448.2v.8H839.1v-.8H466.8Z" class="g0_1821"/>
<path d="M93.4,494.1v.7h312v-.7H93.4Z" class="g0_1821"/>
<path d="M466.8,494.1v.7H839.1v-.7H466.8Z" class="g0_1821"/>
<path d="M93.4,539.9v.7h312v-.7H93.4Z" class="g0_1821"/>
<path d="M466.8,539.9v.7H839.1v-.7H466.8Z" class="g0_1821"/>
<path d="M93.4,585.7v.8h312v-.8H93.4Z" class="g0_1821"/>
<path d="M466.8,585.7v.8H839.1v-.8H466.8Z" class="g0_1821"/>
<path d="M93.4,631.2v1.6H839.1v-1.6H93.4Z" class="g0_1821"/>
<path d="M93.4,735.5v.7H839.1v-.7H93.4Z" class="g0_1821"/>
</svg>