<?xml version="1.0" encoding="UTF-8" standalone="no"?>
<!DOCTYPE svg PUBLIC "-//W3C//DTD SVG 1.1//EN"
"http://www.w3.org/Graphics/SVG/1.1/DTD/svg11.dtd">
<svg viewBox="0 0 935 1210" version="1.1" xmlns="http://www.w3.org/2000/svg" xmlns:xlink="http://www.w3.org/1999/xlink">
<defs>
<style type="text/css"><![CDATA[
.g0_301{
fill: #000;
}
]]></style>
</defs>
<path d="M89,1062.3h.7V134.8H89v927.5Z" class="g0_301"/>
<path d="M171.5,1063.2h.7V161.5h-.7v901.7Z" class="g0_301"/>
<path d="M254,1063.2h.7V134H254v929.2Z" class="g0_301"/>
<path d="M584,1063.2h.7V134H584v929.2Z" class="g0_301"/>
<path d="M652.8,1063.2h.7V134h-.7v929.2Z" class="g0_301"/>
<path d="M749,1063.2h.7V134H749v929.2Z" class="g0_301"/>
<path d="M845.3,1062.3h.7V134.8h-.7v927.5Z" class="g0_301"/>
<path d="M89,134.8H846V134H89v.8Z" class="g0_301"/>
<path d="M89,162.3H254.7v-.8H89v.8Z" class="g0_301"/>
<path d="M89.7,187.9H845.3v-.7H89.7v.7Z" class="g0_301"/>
<path d="M89.7,191.7H845.3v-.8H89.7v.8Z" class="g0_301"/>
<path d="M89,1063.2H846v-.8H89v.8Z" class="g0_301"/>
<path d="M267.9,746.1h.4V569.3h-.4V746.1Z" class="g0_301"/>
<path d="M350.4,746.4h.4V568.8h-.4V746.4Z" class="g0_301"/>
<path d="M570.4,746.1h.4V569.3h-.4V746.1Z" class="g0_301"/>
<path d="M267.9,569.2H570.8v-.4H267.9v.4Z" class="g0_301"/>
<path d="M268.3,595.7H570.4V595H268.3v.7Z" class="g0_301"/>
<path d="M268.3,598H570.4v-.7H268.3v.7Z" class="g0_301"/>
<path d="M267.9,671.6H570.8v-.4H267.9v.4Z" class="g0_301"/>
<path d="M267.9,746.4H570.8v-.3H267.9v.3Z" class="g0_301"/>
<path d="M67.3,1058.2h6v-47.4h-6v47.4Z" class="g0_301"/>
<path d="M67.3,974.1h6V195.5h-6V974.1Z" class="g0_301"/>
</svg>