<?xml version="1.0" encoding="UTF-8" standalone="no"?>
<!DOCTYPE svg PUBLIC "-//W3C//DTD SVG 1.1//EN"
"http://www.w3.org/Graphics/SVG/1.1/DTD/svg11.dtd">
<svg viewBox="0 0 935 1210" version="1.1" xmlns="http://www.w3.org/2000/svg" xmlns:xlink="http://www.w3.org/1999/xlink">
<defs>
<style type="text/css"><![CDATA[
.g0_148{
fill: #000;
}
]]></style>
</defs>
<path d="M95.9,401.4h.7V154.6h-.7V401.4Z" class="g0_148"/>
<path d="M164.6,402.1h.8V186h-.8V402.1Z" class="g0_148"/>
<path d="M233.4,402.1h.7V153.9h-.7V402.1Z" class="g0_148"/>
<path d="M563.4,402.1h.7V153.9h-.7V402.1Z" class="g0_148"/>
<path d="M632.1,402.1h.8V153.9h-.8V402.1Z" class="g0_148"/>
<path d="M728.4,402.1h.7V153.9h-.7V402.1Z" class="g0_148"/>
<path d="M838.4,401.4h.7V154.6h-.7V401.4Z" class="g0_148"/>
<path d="M95.9,154.6H839.1v-.7H95.9v.7Z" class="g0_148"/>
<path d="M95.9,186.7H234.1V186H95.9v.7Z" class="g0_148"/>
<path d="M96.6,216.9H838.4v-.7H96.6v.7Z" class="g0_148"/>
<path d="M96.6,220.7H838.4V220H96.6v.7Z" class="g0_148"/>
<path d="M95.9,264.6H839.1v-.7H95.9v.7Z" class="g0_148"/>
<path d="M95.9,310.5H839.1v-.8H95.9v.8Z" class="g0_148"/>
<path d="M95.9,356.3H839.1v-.7H95.9v.7Z" class="g0_148"/>
<path d="M95.9,402.1H839.1v-.7H95.9v.7Z" class="g0_148"/>
</svg>