<?xml version="1.0" encoding="UTF-8" standalone="no"?>
<!DOCTYPE svg PUBLIC "-//W3C//DTD SVG 1.1//EN"
"http://www.w3.org/Graphics/SVG/1.1/DTD/svg11.dtd">
<svg viewBox="0 0 935 1210" version="1.1" xmlns="http://www.w3.org/2000/svg" xmlns:xlink="http://www.w3.org/1999/xlink">
<defs>
<style type="text/css"><![CDATA[
.g0_200{
fill: none;
stroke: #000;
stroke-width: 0.608;
stroke-miterlimit: 10;
}
]]></style>
</defs>
<path d="M134.6,103.8H794.9m-660,21V104.1m180.2,20.7V104.1m479.4,20.7V104.1m-659.9,21H794.9m-660.3,3.7H794.9m-660,21V129.1m36.7,14.2h5.3m138.2,6.5V129.1m479.4,20.7V129.1m-659.9,21H794.9m-660,21V150.4m36.7,14.2h5.3m138.2,6.5V150.4m479.4,20.7V150.4m-659.9,21H794.9m-660,21V171.7m36.7,14.2h5.3m138.2,6.5V171.7m479.4,20.7V171.7m-659.9,21H794.9m-660,21V193m36.7,14.2h5.3m138.2,6.5V193m479.4,20.7V193M134.6,214H794.9m-660,21V214.3m36.7,14.2h5.3M315.1,235V214.3M794.5,235V214.3m-659.9,21H794.9m-660,21V235.6m180.2,20.7V235.6m479.4,20.7V235.6m-659.9,21H794.9m-660,21V256.9m180.2,20.7V256.9m479.4,20.7V256.9m-659.9,21H794.9m-660,21V278.2m180.2,20.7V278.2m479.4,20.7V278.2M134.6,299.3H794.9m-660,21V299.6m36.7,14.1h5.3m36,0h5.3m96.9,6.6V299.6m479.4,20.7V299.6m-659.9,21H794.9m-660,21V320.9m36.7,14.2h5.3m44.8,0h5.2m88.2,6.5V320.9m479.4,20.7V320.9m-659.9,21H794.9m-660.3,3.6H794.9m-660,21V345.8m180.2,20.7V345.8m479.4,20.7V345.8m-659.9,21H794.9m-660,21V367.1m63,14.2h5.2m36.1,0h5.2m70.7,6.5V367.1m479.4,20.7V367.1m-659.9,21H794.9m-660,21V388.4m63,14.2h5.2m36.1,0h5.2m70.7,6.5V388.4m479.4,20.7V388.4M134.6,409.5H794.9m-660,21V409.8m63,14.1h5.2m36.1,0h5.2m70.7,6.6V409.8m479.4,20.7V409.8m-659.9,21H794.9m-660,21V431.1m63,14.1h5.2m112,6.6V431.1m479.4,20.7V431.1m-659.9,21H794.9m-660.3,3.6H794.9m-660,21V456m180.2,20.7V456m479.4,20.7V456M134.6,477H794.9m-660,21V477.3m63,14.2h5.2m36.1,0h5.2m70.7,6.5V477.3M794.5,498V477.3m-659.9,21H794.9m-660,21V498.6m63,14.2h5.2m36.1,0h5.2m70.7,6.5V498.6m479.4,20.7V498.6m-659.9,21H794.9m-660,21.1V520m63,24.5h5.2m36.1,0h5.2m70.7,-3.8V520m479.4,20.7V520M134.9,561.4V540.7m180.2,20.7V540.7m479.4,20.7V540.7m-659.9,21H794.9m-660,21V562m63,14.1h5.2m112,6.6V562m479.4,20.7V562M134.6,583H794.9" class="g0_200"/>
</svg>