<?xml version="1.0" encoding="UTF-8" standalone="no"?>
<!DOCTYPE svg PUBLIC "-//W3C//DTD SVG 1.1//EN"
"http://www.w3.org/Graphics/SVG/1.1/DTD/svg11.dtd">
<svg viewBox="0 0 935 1210" version="1.1" xmlns="http://www.w3.org/2000/svg" xmlns:xlink="http://www.w3.org/1999/xlink">
<defs>
<style type="text/css"><![CDATA[
.g0_4937{
fill: #FFF;
}
.g1_4937{
fill: #000;
}
]]></style>
</defs>
<path d="M68.9,1149.3H852.7v-21.2H68.9v21.2Z" class="g0_4937"/>
<path d="M69.9,1098.2h.8V124.1h-.8v974.1Z" class="g1_4937"/>
<path d="M126.7,1098.9h.7V164.6h-.7v934.3Z" class="g1_4937"/>
<path d="M183.4,1098.9h.8V123.4h-.8v975.5Z" class="g1_4937"/>
<path d="M412,1098.9h.8V123.4H412v975.5Z" class="g1_4937"/>
<path d="M851,1098.2h.8V124.1H851v974.1Z" class="g1_4937"/>
<path d="M69.9,124.1H851.8v-.7H69.9v.7Z" class="g1_4937"/>
<path d="M69.9,165.4H184.2v-.8H69.9v.8Z" class="g1_4937"/>
<path d="M69.9,189.8H851.8v-.7H69.9v.7Z" class="g1_4937"/>
<path d="M183.4,255.5H851.8v-.8H183.4v.8Z" class="g1_4937"/>
<path d="M183.4,279.9H851.8v-.7H183.4v.7Z" class="g1_4937"/>
<path d="M183.4,345.7H851.8v-.8H183.4v.8Z" class="g1_4937"/>
<path d="M183.4,411.4H851.8v-.7H183.4v.7Z" class="g1_4937"/>
<path d="M183.4,477H851.8v-.7H183.4v.7Z" class="g1_4937"/>
<path d="M183.4,542.8H851.8V542H183.4v.8Z" class="g1_4937"/>
<path d="M183.4,608.5H851.8v-.8H183.4v.8Z" class="g1_4937"/>
<path d="M183.4,632.9H851.8v-.8H183.4v.8Z" class="g1_4937"/>
<path d="M183.4,698.6H851.8v-.7H183.4v.7Z" class="g1_4937"/>
<path d="M183.4,764.3H851.8v-.7H183.4v.7Z" class="g1_4937"/>
<path d="M183.4,830H851.8v-.8H183.4v.8Z" class="g1_4937"/>
<path d="M183.4,895.7H851.8v-.8H183.4v.8Z" class="g1_4937"/>
<path d="M183.4,920.2H851.8v-.8H183.4v.8Z" class="g1_4937"/>
<path d="M183.4,1025.6H851.8v-.8H183.4v.8Z" class="g1_4937"/>
<path d="M183.4,1050H851.8v-.8H183.4v.8Z" class="g1_4937"/>
<path d="M183.4,1074.4H851.8v-.7H183.4v.7Z" class="g1_4937"/>
<path d="M69.9,1098.9H851.8v-.7H69.9v.7Z" class="g1_4937"/>
</svg>