<?xml version="1.0" encoding="UTF-8" standalone="no"?>
<!DOCTYPE svg PUBLIC "-//W3C//DTD SVG 1.1//EN"
"http://www.w3.org/Graphics/SVG/1.1/DTD/svg11.dtd">
<svg viewBox="0 0 935 1210" version="1.1" xmlns="http://www.w3.org/2000/svg" xmlns:xlink="http://www.w3.org/1999/xlink">
<defs>
<style type="text/css"><![CDATA[
.g0_1253{
fill: #FFF;
}
.g1_1253{
fill: #000;
}
.g2_1253{
fill: #DDD;
}
.g3_1253{
fill: #BABABA;
}
]]></style>
</defs>
<path d="M68.9,1149.3H852.7v-21.2H68.9v21.2Z" class="g0_1253"/>
<path d="M70.3,155.8v-1.5Z" class="g1_1253"/>
<path d="M70.3,155.8H852.4v-1.5H70.3v1.5Z" class="g1_1253"/>
<path d="M70.3,1048v-.7Z" class="g1_1253"/>
<path d="M70.3,1048H331.9v-.7H70.3v.7Z" class="g1_1253"/>
<path d="M77.8,821.6h.8V521.4h-.8V821.6Z" class="g1_1253"/>
<path d="M844.2,821.6h.7V521.4h-.7V821.6Z" class="g1_1253"/>
<path d="M77.8,521.4H844.9v-.7H77.8v.7Z" class="g1_1253"/>
<path d="M77.8,822.3H844.9v-.7H77.8v.7Z" class="g1_1253"/>
<path fill-rule="evenodd" d="M196.4,624l-1.1,.1l-1.1,.2l-1,.2l-1,.4c-1.5,.5,-3.2,1.8,-4.2,3.1l-.6,.8l-.6,1c-.8,1.7,-1.3,3.3,-1.4,5.2v38l.1,1.2c.6,5.5,5.4,10,10.9,9.8H336.3l1.1,-.2c5.3,-1.1,8.7,-5.4,8.8,-10.8V635c-.2,-5.8,-4.1,-10.2,-9.9,-10.9l-1.1,-.1H196.4Z" class="g2_1253"/>
<path d="M196.5,624.3l-1.1,.1l-1.1,.2l-1,.3h.1l-1,.4l-1,.4l-.9,.6l.1,-.1l-.9,.6l-.8,.8l-.6,.7l-.7,.8l.1,-.1l-.5,.9l-.5,1l-.3,1.1v-.1l-.3,1l-.2,1.1l-.1,1.1V635v38l.1,1.2l.2,1.1v-.1l.3,1l.3,1l.5,1l.5,.9h-.1l.7,.8l.6,.7v-.1l.8,.8l.9,.6h-.1l.9,.6l1,.4v-.1l1,.4h-.1l1,.3l1.1,.2h-.1h141l1.1,-.2h-.1l1,-.3l1,-.4v.1l1.1,-.4h-.1l.3,.6l-1,.5l-1,.3h-.1l-1,.3l-1.1,.2h-140c-1.7,.1,-3.8,-.5,-5.3,-1.3H191l-.9,-.5v-.1c-1.6,-1.3,-2.6,-2.1,-3.6,-4l-.4,-1H186l-.4,-1v-.1l-.2,-1l-.2,-1.1l-.1,-1.2V635l.1,-1.1l.2,-1.1v-.1l.2,-1l.4,-1h.1l.4,-1v-.1l.6,-.9l.6,-.9l.7,-.7l.1,-.1l.8,-.7l.8,-.7l.9,-.5h.1l1,-.5v-.1l1,-.3l1.1,-.3l1.1,-.2l1.1,-.1Z" class="g3_1253"/>
<path d="M340.3,682.5l.9,-.6l.8,-.6l.8,-.8l-.1,.1l.7,-.7l.6,-.8l.6,-.9l.4,-1h-.1l.4,-1l.3,-1v.1l.2,-1.1l.1,-1.2V635v.1l-.1,-1.1l-.2,-1.1l-.3,-1v.1l-.4,-1.1h.1l-.4,-1L344,629v.1l-.6,-.8l-.7,-.7h.1l-.8,-.8l-.8,-.6v.1l-.9,-.6h.1l-1.1,-.4l-1,-.4l-1,-.3h.1l-1.1,-.2l-1.1,-.1H196.4h.1l-.1,-.7H335.3l1.1,.1l1.1,.2l1,.3h.1l1,.3v.1l1,.5c1.9,.9,2.7,1.9,4,3.6h.1l.5,.9v.1l.5,1l.3,1l.3,1v.1l.2,1.1l.1,1.1v38.1l-.1,1.2l-.2,1.1c-.6,3.1,-2.1,5.2,-4.7,7.1l-.1,.1l-.9,.5Z" class="g3_1253"/>
<path fill-rule="evenodd" d="M487.4,628.3l-1.2,.1l-1,.2l-1.1,.2c-6.8,2.5,-8.3,7.7,-7.7,14.4v5c.5,5.5,5.4,10.1,11,9.9H594.2l1.1,-.2c5,-1,8.9,-5.6,8.8,-10.8v-7.8c.1,-5.8,-4.3,-10.3,-9.9,-10.9l-1.1,-.1H487.4Z" class="g2_1253"/>
<path d="M487.5,628.7h-1.2l-1,.2l-1.1,.3h.1l-1,.4l-.9,.4l-1,.6h.1l-.9,.6v-.1l-.7,.7l-.8,.8l-.6,.8l.1,-.1l-.6,.9l-.4,1l-.4,1v-.1l-.3,1.1l-.1,1.1v-.1v10l.1,1.1v-.1l.3,1.1l.4,1v-.1l.4,.9l.6,.9h-.1l.6,.9l.8,.8v-.1l.7,.7l.9,.7h-.1l1,.5l.9,.5v-.1l1,.4h-.1l1.1,.2l1,.2h-.1h108l1.1,-.2h-.1l1.1,-.2l1,-.4l-.1,.1l.9,-.5l.4,.7l-.9,.4l-1,.4h-.1l-1.1,.3l-1.1,.1H486.2l-1,-.1h-.1L484,658l-1,-.4h-.1l-.9,-.4l-.9,-.6l-.9,-.6l-.9,-.9l-.7,-.8l-.7,-.8v-.1l-.5,-.9l-.5,-.9h-.1l-.3,-1v-.1l-.3,-1.1l-.2,-1.1V638.2l.2,-1.1V637l.3,-1.1l.3,-1l.1,-.1l.5,-.9c1.4,-2.8,4.8,-5.2,7.8,-5.7l1,-.2l1.2,-.1Z" class="g3_1253"/>
<path d="M598.1,656.5l.9,-.5l.9,-.7l.8,-.7l-.1,.1l.7,-.8l.7,-.9l.5,-.9l.5,-.9l-.1,.1l.4,-1l.2,-1.1v.1l.2,-2.2v-7.8v.1l-.2,-2.2l-.2,-1.1v.1l-.4,-1h.1l-.5,-1l-.5,-.9v.1l-.7,-.8l-.7,-.8h.1L599,630.5v.1l-.9,-.6l-.9,-.4h.1l-1,-.4l-1.1,-.3h.1l-1.1,-.2H487.4h.1l-.1,-.8H593.2l1.1,.1l1.1,.2l1.1,.3h.1l1,.3v.1l.9,.5c1.8,1,2.8,1.8,4,3.6h.1l.6,.9l.4,.9v.1l.4,1l.3,1.1v.1l.1,1.1l.1,1.1v7.9l-.1,1.1l-.1,1.1c-.5,2.9,-2.4,5.4,-4.8,7.1l-.1,.1l-.9,.6Z" class="g3_1253"/>
<path d="M187.1,563.6l-1.1,.1l-1.1,.1l-1.1,.3h.1l-1,.4l-.9,.4l-1,.6l.1,-.1l-1.6,1.3l-.7,.8l-.7,.8l.1,-.1l-.6,1l-.4,.9l-.4,1V571l-.3,1.1v1.1l-.1,1.1v-.1V791l.1,1.1v1.1v-.1l.3,1.1l.4,1v-.1l.4,.9l.6,1l.6,.9v-.1l.7,.7l.8,.7l.8,.7H181l1,.5l.9,.5v-.1l1,.4h-.1l1.1,.2l1.1,.2h-.1H360.1l1.1,-.2h-.1l1.1,-.2l1,-.4l-.1,.1l.9,-.5l.4,.7l-.9,.4l-1.1,.4l-1.1,.3l-1.1,.2H185.9l-1.1,-.2h-.1l-1.1,-.3l-1,-.4h-.1l-.9,-.4l-.9,-.6v-.1c-1.8,-1.3,-2.7,-1.9,-3.7,-4l-.5,-.9l-.4,-1v-.1l-.3,-1.1l-.1,-1.1l-.1,-1.1V574.2l.2,-2.2v-.1l.3,-1.1l.4,-1v-.1l.5,-.9c1.3,-2.7,4.9,-5.3,7.8,-5.7l1.1,-.2l1.1,-.1Z" class="g1_1253"/>
<path d="M364,800.4l.9,-.5l.8,-.7l.9,-.7l-.1,.1l.6,-.7l.7,-.9l.5,-1l.5,-.9l-.1,.1l.3,-1l.3,-1.1v.1l.2,-1.1l.1,-1.1V574.2v.1l-.1,-1.1l-.2,-1.1L369,571v.1l-.3,-1h.1l-.5,-.9l-.5,-1v.1l-1.3,-1.6h.1l-1.7,-1.3v.1l-.9,-.6l-.9,-.4h.1l-1,-.4l-1.1,-.3h.1l-1.1,-.1l-1.1,-.1H187h.1l-.1,-.8H359.1l1.1,.1l1.1,.2l1.1,.3l1.1,.4l.9,.5c2.1,1.2,2.5,1.6,3.9,3.6h.1l.6,.9l.4,.9v.1l.4,1l.3,1.1v.1l.1,1.1l.1,1.1V791.1c-.1,2.3,-.6,4.3,-1.9,6.2v.1l-.6,.9h-.1l-.7,.8l-.8,.7l-.8,.6l-.1,.1l-.9,.6Z" class="g1_1253"/>
<path d="M434.6,638.9v.5l2.2,.1V639Z" class="g1_1253"/>
<path d="M436.2,639.6l-1.3,-2.4l-1,-1.8l1.9,.7l8.1,2.5l2.5,.9l-2.5,.6l-8.3,2.1l-1.9,.5l1,-1.6l.4,-.4l8.3,-2.1l.5,1.5h-.5l-8.1,-2.6l.5,-1.4l.4,.3l1.3,2.4Z" class="g1_1253"/>
<path d="M434.7,641.1l1.4,-2.3h1.4l.3,.5l-.3,.4l-1.4,2.2Z" class="g1_1253"/>
<path fill-rule="evenodd" d="M436.8,639.2l-1.3,-2.4l8.1,2.6l-8.3,2.1Z" class="g1_1253"/>
<path d="M344.5,636.7h.2v-.4h-.2v.4Z" class="g1_1253"/>
<path d="M434.6,639.4h.2v-.5h-.2v.5Z" class="g1_1253"/>
<path d="M344.7,636.3v.4l89.9,2.7v-.5Z" class="g1_1253"/>
<path d="M196.5,574.6l-1.1,.1l-1.1,.1l-1,.3h.1l-1,.4l-1,.4l-.9,.6l.1,-.1l-1.7,1.3l-1.3,1.6l.1,-.1l-.5,1l-.5,.9l-.3,1V582l-.3,1.1l-.2,1.1l-.1,1.1v-.1v20.6l.1,1.1l.2,1.1v-.1l.3,1.1l.3,1v-.1l.5,1l.5,.9h-.1l1.3,1.6v-.1l.8,.8l.9,.6h-.1l.9,.6l1,.4v-.1l1,.4h-.1l1,.3l1.1,.2h-.1h141l1.1,-.2h-.1l1,-.3l1,-.4v.1l1.1,-.4h-.1l.3,.6l-1,.5l-1,.3h-.1l-1,.3l-1.1,.2h-140c-1.7,.1,-3.8,-.5,-5.3,-1.3H191l-.9,-.5v-.1c-1.7,-1.3,-2.6,-2.2,-3.6,-4.1l-.4,-.9H186l-.4,-1v-.1l-.2,-1.1l-.2,-1.1l-.1,-1.1V585.2l.1,-1.1l.2,-1.1v-.1l.2,-1.1l.4,-1l.1,-.1l.4,-.9l.6,-.9l1.3,-1.7l.1,-.1l1.6,-1.3l.9,-.5h.1l1,-.5v-.1l1,-.3l1.1,-.3l1.1,-.2l1.1,-.1Z" class="g1_1253"/>
<path d="M340.3,615.3l.9,-.6l.8,-.6l.8,-.8l-.1,.1l1.3,-1.6l.6,-.9l.4,-1l-.1,.1l.4,-1l.3,-1.1v.1l.2,-1.1l.1,-1.1V585.2v.1l-.1,-1.1l-.2,-1.1l-.3,-1.1v.1l-.4,-1h.1l-.4,-.9l-.6,-1v.1l-1.3,-1.6h.1l-1.6,-1.3v.1l-.9,-.6h.1l-1.1,-.4l-1,-.4l-1,-.3h.1l-1.1,-.1l-1.1,-.1H196.4h.1l-.1,-.8H335.3l1.1,.1l1.1,.2l1,.3h.1l1,.4l1,.5c2.1,1.2,2.6,1.6,4,3.6h.1l.5,.9l.5,.9v.1l.3,1l.3,1.1v.1l.2,1.1l.1,1.1v20.7l-.1,1.1l-.2,1.1c-.4,2.7,-2.4,5.6,-4.7,7.2l-.1,.1l-.9,.5Z" class="g1_1253"/>
<path d="M195.5,697.1h-1.1h.1l-1.1,.2l-1,.3h.1l-1,.4l-1,.4l-.9,.6l.1,-.1l-.9,.6l-.8,.7l-.6,.8h.1l-.7,.9v-.1l-.5,.9l-.5,.9l-.4,1v-.1l-.2,1.1l-.2,1.1l-.1,1.1v20.6l.1,1.1l.2,1.1v-.1l.2,1.1l.4,1v-.1l.5,.9l.5,.9h-.1L188,736v-.1l1.7,1.3h-.1l.9,.5l1,.5v-.1l1,.4h-.1l1,.2l1.1,.2l1.1,.1h-.1H334.3l1.1,-.1l1.1,-.2h-.1l1,-.2l1,-.4v.1l1,-.5h-.1l.4,.7l-1,.4l-1,.4h-.1l-1,.3l-1.1,.2h-140c-1.9,0,-3.5,-.4,-5.3,-1.3h-.1l-.9,-.6v-.1c-1.9,-1.3,-2.4,-1.8,-3.6,-3.9l-.4,-.9h-.1l-.4,-1v-.1l-.3,-1.1l-.1,-1.1l-.1,-1.1V707.8l.1,-1.1l.1,-1.1v-.1l.3,-1.1l.4,-1l.1,-.1l.4,-.9l.6,-1l.6,-.9l.7,-.7l.1,-.1l.8,-.7l.8,-.7l.9,-.5h.1l1,-.5v-.1l1,-.4l1,-.2h.1l1.1,-.2h1.1Z" class="g1_1253"/>
<path d="M339.3,737.7l1,-.5l1.6,-1.3l-.1,.1l1.3,-1.7l.6,-.9l.4,-.9l-.1,.1l.4,-1l.3,-1.1v.1l.2,-1.1V707.8v.1v-1.1l-.2,-1.1l-.3,-1.1l-.4,-1h.1l-.4,-.9l-.6,-.9v.1l-.6,-.9l-.7,-.8h.1l-.8,-.7l-.8,-.6v.1l-1,-.6h.1l-1,-.4l-1,-.4l-1,-.3h.1l-1.1,-.2H195.5v-.7h140l1.1,.2l1,.2h.1l1,.4v.1l1,.5c1.3,.6,2.4,1.5,3.3,2.7h.1l.7,.9l.5,1l.5,.9v.1l.3,1l.3,1.1v.1l.2,1.1l.1,1.1v20.7l-.1,1.1l-.2,1.1c-.5,2.8,-2.3,5.4,-4.7,7l-.1,.1l-.9,.6Z" class="g1_1253"/>
<path d="M195.6,743.2l-1.1,.1l-1.1,.2l-1,.3h.1l-1,.4l-1,.4l-.9,.6l.1,-.1l-1.7,1.3l-1.3,1.6l.1,-.1l-.5,.9l-.5,.9l-.4,1.1v-.1l-.2,1.1l-.2,1.1l-.1,1.1v-.1v20.6l.1,1.1l.2,1.1v-.1l.2,1.1l.4,1v-.1l.5,.9l.5,1l.7,.9h-.1l.6,.7V782l.8,.7l.9,.7h-.1l.9,.5l1,.5v-.1l1,.4h-.1l1,.2l1.1,.2h-.1h141l1.1,-.2h-.1l1,-.2l1,-.4v.1l1,-.5h-.1l.4,.7l-1,.4l-1,.4h-.1l-1,.3l-1.1,.2h-140c-1.7,.1,-3.8,-.6,-5.3,-1.3h-.1l-.9,-.6v-.1c-1.9,-1.4,-2.4,-1.9,-3.6,-4l-.4,-.9h-.1l-.4,-1v-.1l-.3,-1.1l-.2,-1.1V752.8l.2,-1.1v-.1l.3,-1.1l.4,-1l.1,-.1l.4,-.9l.6,-1l1.3,-1.6v-.1l1.7,-1.3l.9,-.5h.1l1,-.5v-.1l1,-.3l1,-.3h.1l1.1,-.2l1.1,-.1Z" class="g1_1253"/>
<path d="M339.3,783.9l1,-.5l.8,-.7l.8,-.7l-.1,.1l.7,-.7l.6,-.9l.6,-1l.4,-.9l-.1,.1l.4,-1l.3,-1.1v.1l.2,-1.1V753.9v.1v-1.1l-.2,-1.1l-.3,-1.1l-.4,-1h.1l-.4,-.9l-.6,-.9v.1l-1.3,-1.7h.1l-1.6,-1.2v.1l-1,-.6h.1l-1,-.5l-1,-.3l-1,-.3h.1l-1.1,-.2l-1.1,-.1H195.5h.1l-.1,-.7H334.4l1.1,.1l1.1,.2l1,.2h.1l1,.4v.1l1,.5c2.1,1.1,2.6,1.6,4,3.5h.1l.5,1l.5,.9v.1l.3,1l.3,1.1v.1l.2,1.1l.1,1.1v20.7c-.2,2.3,-.6,4.3,-1.9,6.2v.1l-.7,.9H343l-.6,.8l-.9,.7l-.8,.6l-.1,.1l-.9,.6Z" class="g1_1253"/>
<path fill-rule="evenodd" d="M487.4,662.4l-1.2,.1l-1,.2l-1.1,.2c-6.7,2.5,-8.3,7.7,-7.7,14.4v5.1c.5,5.4,5.5,10,11,9.8H594.2l1.1,-.2c5.1,-1.1,8.9,-5.5,8.8,-10.8v-7.8c0,-5.7,-4.4,-10.3,-9.9,-10.9l-1.1,-.1H487.4Z" class="g2_1253"/>
<path d="M487.5,662.7l-1.2,.1l-1,.2l-1.1,.3h.1l-1,.4l-.9,.4l-1,.6h.1l-.9,.6v-.1l-1.5,1.5l-.6,.8l.1,-.1l-.6,.9l-.4,1l-.4,1.1v-.1l-.3,1l-.1,1.1v-.1v10.1l.1,1.1v-.1l.3,1l.4,1l.4,1v-.1l.6,.9h-.1l.6,.8l1.5,1.4l.9,.7h-.1l1,.5l.9,.5V691l1,.3h-.1l1.1,.3l1,.2h-.1h108l1.1,-.2h-.1l1.1,-.3l1,-.3l-.1,.1l.9,-.5l.4,.7l-.9,.4l-1,.4h-.1l-1.1,.3l-1.1,.1H486.2l-1,-.1h-.1l-1.1,-.3l-1,-.4h-.1l-.9,-.4l-.9,-.6l-.9,-.6l-1.6,-1.6l-.7,-.8v-.1l-.5,-.9l-.5,-1h-.1l-.3,-1v-.1l-.3,-1l-.2,-1.1V672.3l.2,-1.1v-.1l.3,-1l.3,-1h.1l.5,-1V668c.8,-1.5,1.5,-2.2,2.7,-3.3h.1l.9,-.7c1.2,-.8,2.6,-1.5,4.1,-1.7l1,-.2l1.2,-.1Z" class="g3_1253"/>
<path d="M598.1,690.6l.9,-.5l.9,-.7l.8,-.7h-.1l.7,-.7v.1l.7,-.9l.5,-.9v.1l.5,-1h-.1l.4,-1l.2,-1v.1l.1,-1.1l.1,-1.2v-7.8v.1l-.2,-2.2l-.2,-1v.1l-.4,-1.1h.1l-.5,-1l-.5,-.9v.1l-.7,-.8l-.7,-.7h.1l-.8,-.8l-.9,-.6v.1l-.9,-.6l-.9,-.4h.1l-1,-.4l-1.1,-.3h.1l-1.1,-.2H487.4h.1l-.1,-.8H593.2l1.1,.1l1.1,.2l1.1,.3h.1l1,.3v.1l.9,.5c1.5,.7,3.1,2.1,4,3.6h.1l.6,.9v.1c2.2,4,.9,8.8,1.3,13.2l-.1,1.2l-.1,1.1c-.8,3.3,-2.1,5,-4.8,7l-.1,.1l-.9,.6Z" class="g3_1253"/>
<path fill-rule="evenodd" d="M487.4,696.6h-1.2l-1,.2l-1.1,.2c-6.6,2.4,-8.4,7.8,-7.7,14.4v5.1c.7,5.7,5.3,9.7,11,9.9H593.1l1.1,-.1l1.1,-.2c5.1,-1.1,8.8,-5.4,8.8,-10.7v-7.8c.1,-5.7,-4.3,-10.4,-9.9,-11H487.4Z" class="g2_1253"/>
<path d="M487.4,696.9h-1.2h.1l-1,.2l-1.1,.3h.1l-1,.4l-.9,.4l-1,.6h.1l-.9,.6v-.1l-1.5,1.5h.1l-.6,.9v-.1l-.6,.9l-.4,1l-.4,1v-.1l-.3,1.1l-.1,1.1v-.1v10l.1,1.1v-.1l.3,1l.4,1l.4,1v-.1l.6,.9h-.1l.6,.8l.8,.9v-.1l.7,.6l.9,.7h-.1l1,.5l.9,.5v-.1l1,.4h-.1l1.1,.2l1,.2l1.2,.1h-.1H593.1l1.1,-.1l1.1,-.2h-.1l1.1,-.2l1,-.4l-.1,.1l.9,-.5l.4,.7l-.9,.4l-1,.4h-.1l-1.1,.3l-1.1,.1l-1.1,.1H487.4l-1.2,-.1c-1.5,-.2,-2.9,-.5,-4.2,-1.2l-.9,-.6l-.9,-.6v-.1c-1.2,-.9,-2.1,-2,-2.8,-3.3l-.5,-1h-.1l-.3,-1v-.1l-.3,-1l-.2,-1.1V706.5l.2,-1.1v-.1l.3,-1.1l.3,-1l.1,-.1l.5,-.9l.5,-.9l.7,-1v-.1l1.5,-1.4h.1l.9,-.7l.9,-.5l.9,-.5l.1,-.1l1,-.3l1.1,-.3h.1l1,-.2h1.2Z" class="g3_1253"/>
<path d="M598.1,724.7l.9,-.5l1.7,-1.3l-.1,.1l.7,-.9l.7,-.8l.5,-.9v.1l.5,-1h-.1l.4,-1l.2,-1v.1l.1,-1.1l.1,-1.1v-7.8v.1l-.2,-2.2l-.2,-1.1v.1l-.4,-1.1h.1l-.5,-.9l-.5,-.9v.1l-.7,-.9l-.7,-.7h.1l-.8,-.8l-.9,-.6v.1l-.9,-.6l-.9,-.4h.1l-1,-.4l-1.1,-.3h.1l-1.1,-.2H487.4v-.7H594.3l1.1,.2l1.1,.3h.1l1,.3v.1l.9,.5l.9,.5h.1l.8,.7l.9,.7l.8,.8l.6,1l.6,.9c.5,.8,.9,2.3,1.1,3.2l.1,1.1l.1,1.1v3.8c.1,5.8,.1,9.7,-5,13.3l-.1,.1l-.9,.6Z" class="g3_1253"/>
<path fill-rule="evenodd" d="M487.4,730.7l-1.2,.1l-1,.2l-1.1,.1c-6.8,2.8,-8.3,7.6,-7.7,14.5v5c.6,5.6,5.3,9.9,11,9.9H593.1l2.2,-.2c5,-1,8.9,-5.6,8.8,-10.8v-7.8c.1,-5.6,-4.4,-10.5,-9.9,-10.9l-1.1,-.1H487.4Z" class="g2_1253"/>
<path d="M487.5,731l-1.2,.1l-1,.2l-1.1,.2h.1l-1,.5l-.9,.4l-1.9,1.1l.1,-.1l-.7,.8l-.8,.8l-.6,.8l.1,-.1l-.6,.9l-.4,1l-.4,1v-.1l-.3,1.1l-.1,1.1v-.1v10l.1,1.1v-.1l.3,1.1l.4,1v-.1l.4,.9l.6,.9h-.1l.6,.9l.8,.8V757l.7,.7l.9,.7h-.1l1,.5l.9,.5v-.1l1,.3h-.1l1.1,.3l1,.1l1.2,.1h-.1H593.1l2.2,-.2h-.1l1.1,-.3l1,-.3l-.1,.1l.9,-.5l.4,.7l-.9,.4l-1,.4h-.1l-1.1,.3l-2.2,.1H487.4l-1.2,-.1h-1.1l-1.1,-.3l-1,-.4h-.1l-.9,-.4l-.9,-.6l-.9,-.6l-.9,-.9l-.7,-.8l-.7,-.8v-.1l-.5,-.9l-.5,-.9h-.1l-.3,-1v-.1l-.3,-1.1l-.2,-1.1V740.6l.2,-1.1v-.1l.3,-1.1l.3,-1l.1,-.1l.5,-.9l.5,-.9c1.5,-2.5,4.5,-4.3,7.3,-4.8l1,-.2l1.2,-.1Z" class="g3_1253"/>
<path d="M598.1,758.9l.9,-.5l.9,-.7l.8,-.7l-.1,.1l.7,-.8l.7,-.9l.5,-.9l.5,-.9l-.1,.1l.4,-1l.2,-1.1v.1l.1,-1.1l.1,-1.1v-7.8v.1l-.1,-1.1l-.1,-1.1l-.2,-1.1v.1l-.4,-1.1h.1l-.5,-.9l-.5,-.9v.1l-.7,-.8l-.7,-.8h.1l-.8,-.8v.1L599,733l-.9,-.6l-.9,-.4h.1l-1,-.5h.1l-2.2,-.4l-1.1,-.1H487.4h.1l-.1,-.7H593.2l1.1,.1l2.2,.4l.1,.1l1,.4l.9,.5c1.6,.9,2.2,1.2,3.4,2.7l.6,.8h.1l.6,1l.4,.9v.1l.4,1l.3,1.1v.1l.1,1.1l.1,1.1v7.9l-.1,1.1l-.1,1.1c-.5,2.9,-2.4,5.4,-4.8,7.1l-.1,.1l-.9,.6Z" class="g3_1253"/>
<path d="M457.8,621.6l-1.1,.1l-1.1,.2l-1,.2h.1l-1,.4l-1,.5l-1,.5l.1,-.1l-.8,.7l-1.5,1.4l-.6,.9l.1,-.1l-.6,.9l-.4,1l-.4,1v-.1l-.3,1l-.1,1.1l-.1,1.1v-.1v128l.1,1.1l.1,1.1v-.1l.3,1l.4,1l.4,1v-.1l.6,.9h-.1l.6,.9v-.1l1.5,1.4l.8,.7h-.1l1,.5l1,.5v-.1l1,.4h-.1l1,.2l1.1,.2l1.1,.1h-.1h160l1.2,-.1l1,-.2l1.1,-.2l1,-.4l-.1,.1l.9,-.5l.4,.7l-1,.4l-1,.4h-.1l-1.1,.3l-1,.2l-1.2,.1H457.7c-2,-.1,-3.6,-.5,-5.3,-1.4h-.1l-.9,-.6v-.1c-1.4,-.9,-2.9,-2.3,-3.6,-3.9l-.5,-1h-.1l-.3,-1v-.1l-.3,-1l-.2,-1.1l-.1,-1.1V632.2l.1,-1.1l.2,-1.1v-.1l.3,-1l.3,-1h.1l.5,-1v-.1l.5,-.9l.7,-.8V625l1.5,-1.5l.9,-.6l.9,-.6h.1l1,-.4v-.1l1,-.4l1,-.3h.1l1.1,-.2h1.1Z" class="g1_1253"/>
<path d="M622.8,769.5l.9,-.5l.9,-.6h-.1l1.5,-1.5v.1l.6,-.8l.6,-1v.1l.4,-1l.3,-1l.3,-1v.1l.2,-1.1V631.1v.1l-.2,-1.1l-.3,-1v.1l-.3,-1l-.4,-1l-.6,-.9v.1l-.6,-.9l-1.5,-1.4l.1,.1l-.9,-.7l-.9,-.5l-.9,-.5h.1l-1,-.4l-1.1,-.2l-1,-.2l-1.2,-.1h-160h.1l-.1,-.7H617.8l1.2,.1l1,.1l1.1,.3h.1l1,.4v.1l1,.4c1.7,.9,2.9,2,4,3.6h.1l.5,.9v.1l.5,1l.4,1l.2,1v.1l.2,1.1V761.4c-.3,2.6,-1.3,5,-3.3,6.8l-.7,.7v.1l-.9,.6h-.1l-.9,.6Z" class="g1_1253"/>
</svg>