<?xml version="1.0" encoding="UTF-8" standalone="no"?>
<!DOCTYPE svg PUBLIC "-//W3C//DTD SVG 1.1//EN"
"http://www.w3.org/Graphics/SVG/1.1/DTD/svg11.dtd">
<svg viewBox="0 0 935 1210" version="1.1" xmlns="http://www.w3.org/2000/svg" xmlns:xlink="http://www.w3.org/1999/xlink">
<defs>
<style type="text/css"><![CDATA[
.g0_948{
fill: #FFF;
}
.g1_948{
fill: #000;
}
]]></style>
</defs>
<path d="M68.8,1149.3H852.5v-21.2H68.8v21.2Z" class="g0_948"/>
<path d="M68.9,1026.7v-.8Z" class="g1_948"/>
<path d="M68.9,1026.7H289.3v-.8H68.9v.8Z" class="g1_948"/>
<path d="M71.3,974.4h.8V666.5h-.8V974.4Z" class="g1_948"/>
<path d="M173.9,975.2h.7V665.8h-.7V975.2Z" class="g1_948"/>
<path d="M283.9,975.2h.7V665.8h-.7V975.2Z" class="g1_948"/>
<path d="M849.1,974.4h.7V666.5h-.7V974.4Z" class="g1_948"/>
<path d="M71.3,666.5H849.8v-.7H71.3v.7Z" class="g1_948"/>
<path d="M71.3,710.8H849.8v-.7H71.3v.7Z" class="g1_948"/>
<path d="M71.3,794.8H849.8v-.7H71.3v.7Z" class="g1_948"/>
<path d="M71.3,912.5H849.8v-.8H71.3v.8Z" class="g1_948"/>
<path d="M71.3,975.2H849.8v-.8H71.3v.8Z" class="g1_948"/>
</svg>