<?xml version="1.0" encoding="UTF-8" standalone="no"?>
<!DOCTYPE svg PUBLIC "-//W3C//DTD SVG 1.1//EN"
"http://www.w3.org/Graphics/SVG/1.1/DTD/svg11.dtd">
<svg viewBox="0 0 825 990" version="1.1" xmlns="http://www.w3.org/2000/svg" xmlns:xlink="http://www.w3.org/1999/xlink">
<defs>
<style type="text/css"><![CDATA[
.g0_430{
fill: #000;
}
.g1_430{
fill: #FFF;
}
]]></style>
</defs>
<path d="M79.8,910.3h.3v-.8h-.3v.8Z" class="g0_430"/>
<path d="M80.1,910.3h650v-.8H80.1v.8Z" class="g0_430"/>
<path d="M311.7,602H729.8V576H311.7v26Z" class="g1_430"/>
<path d="M311.7,587v-.7Z" class="g0_430"/>
<path d="M311.7,587h43.6v-.7H311.7v.7Z" class="g0_430"/>
<path d="M398.1,587h.4v-.7h-.4v.7Z" class="g0_430"/>
<path d="M398.5,587h86.8v-.7H398.5v.7Z" class="g0_430"/>
<path d="M311.7,666.3H729.8V655.4H311.7v10.9Z" class="g1_430"/>
<path d="M311.7,659.3v-.8Z" class="g0_430"/>
<path d="M311.7,659.3H485.3v-.8H311.7v.8Z" class="g0_430"/>
<path d="M147.6,181.6h1.5V138.8h-1.5v42.8Z" class="g0_430"/>
<path d="M221,183.2h.7V137.3H221v45.9Z" class="g0_430"/>
<path d="M367,183.2h.8V137.3H367v45.9Z" class="g0_430"/>
<path d="M437.3,183.2h.7V137.3h-.7v45.9Z" class="g0_430"/>
<path d="M510.2,183.2h.8V137.3h-.8v45.9Z" class="g0_430"/>
<path d="M546.8,183.2h.7V137.3h-.7v45.9Z" class="g0_430"/>
<path d="M583.3,183.2h.7V137.3h-.7v45.9Z" class="g0_430"/>
<path d="M656.3,183.2h.8V137.3h-.8v45.9Z" class="g0_430"/>
<path d="M729,181.6h1.6V138.8H729v42.8Z" class="g0_430"/>
<path d="M147.6,138.9H730.5v-1.6H147.6v1.6Z" class="g0_430"/>
<path d="M147.6,183.2H730.5v-1.6H147.6v1.6Z" class="g0_430"/>
</svg>