<?xml version="1.0" encoding="UTF-8" standalone="no"?>
<!DOCTYPE svg PUBLIC "-//W3C//DTD SVG 1.1//EN"
"http://www.w3.org/Graphics/SVG/1.1/DTD/svg11.dtd">
<svg viewBox="0 0 935 1210" version="1.1" xmlns="http://www.w3.org/2000/svg" xmlns:xlink="http://www.w3.org/1999/xlink">
<defs>
<clipPath id="c0_244"><path d="M97.2,59V41.4h72.2V59Z"/></clipPath>
<style type="text/css"><![CDATA[
.g0_244{
fill: #000;
}
.g1_244{
fill: #D9DADB;
}
.g2_244{
fill: none;
stroke: #231F20;
stroke-width: 1.527;
}
.g3_244{
fill: none;
stroke: #231F20;
stroke-width: 0.763;
}
.g4_244{
fill: #231F20;
}
]]></style>
</defs>
<path d="M96.1,63.1v.3H838.9v-.3H96.1Z" class="g0_244"/>
<path d="M96.1,1114.3v.3v-.3Z" class="g0_244"/>
<path d="M838.9,1114.3v.3v-.3Z" class="g0_244"/>
<path d="M96.1,1114.3v.3H838.9v-.3H96.1Z" class="g0_244"/>
<image clip-path="url(#c0_244)" preserveAspectRatio="none" x="97" y="41" width="72" height="18" xlink:href="img/1.jpg"/>
<path d="M397.6,603.5h69.9v-22H397.6v22Z" class="g1_244"/>
<path d="M467.5,603.5H397.6v-22h69.9v22Z" class="g2_244"/>
<path d="M327.8,603.5h69.8v-22H327.8v22Z" class="g1_244"/>
<path d="M397.6,603.5H327.8v-22h69.8v22Z" class="g2_244"/>
<path d="M537.4,603.5h69.8v-22H537.4v22Z" class="g1_244"/>
<path d="M607.2,603.5H537.4v-22h69.8v22Z" class="g2_244"/>
<path d="M467.5,603.5h69.9v-22H467.5v22Z" class="g1_244"/>
<path d="M537.4,603.5H467.5v-22h69.9v22Zm-69.9,95.2H397.7v-22h69.8v22Zm-69.8,0H327.8v-22h69.9v22Zm209.6,0H537.4v-22h69.9v22Zm-69.9,0H467.5v-22h69.9v22ZM275,307.1H205.1v-22H275v22Zm-69.9,0H135.3v-22h69.8v22Zm209.6,0H344.9v-22h69.8v22Zm-69.8,0H275v-22h69.9v22ZM467,470.9H397.2v-22H467v22Zm-69.8,0H327.3v-22h69.9v22Zm209.6,0H536.9v-22h69.9v22Zm-69.9,0H467v-22h69.9v22ZM660,307.1H590.1v-22H660v22Zm-69.9,0H520.3v-22h69.8v22Zm209.6,0H729.9v-22h69.8v22Zm-69.8,0H660v-22h69.9v22Z" class="g2_244"/>
<path d="M670.6,333c0,-5.8,-4.8,-10.5,-10.6,-10.5c-5.8,0,-10.5,4.7,-10.5,10.5c0,5.8,4.7,10.5,10.5,10.5c5.8,0,10.6,-4.7,10.6,-10.5ZM582.3,539.2c0,-5.8,-4.7,-10.5,-10.5,-10.5c-5.8,0,-10.5,4.7,-10.5,10.5c0,5.8,4.7,10.5,10.5,10.5c5.8,0,10.5,-4.7,10.5,-10.5Zm-69.8,0c0,-5.8,-4.7,-10.5,-10.5,-10.5c-5.8,0,-10.5,4.7,-10.5,10.5c0,5.8,4.7,10.5,10.5,10.5c5.8,0,10.5,-4.7,10.5,-10.5Zm-69.9,0c0,-5.8,-4.7,-10.5,-10.5,-10.5c-5.8,0,-10.5,4.7,-10.5,10.5c0,5.8,4.7,10.5,10.5,10.5c5.8,0,10.5,-4.7,10.5,-10.5Zm-69.9,0c0,-5.8,-4.7,-10.5,-10.5,-10.5c-5.8,0,-10.5,4.7,-10.5,10.5c0,5.8,4.7,10.5,10.5,10.5c5.8,0,10.5,-4.7,10.5,-10.5ZM546.8,347c0,-5.8,-4.7,-10.5,-10.5,-10.5c-5.8,0,-10.5,4.7,-10.5,10.5c0,5.8,4.7,10.5,10.5,10.5c5.8,0,10.5,-4.7,10.5,-10.5ZM409.3,360.5c0,-5.8,-4.7,-10.5,-10.5,-10.5c-5.8,0,-10.5,4.7,-10.5,10.5c0,5.8,4.7,10.5,10.5,10.5c5.8,0,10.5,-4.7,10.5,-10.5ZM285,374.2c0,-5.8,-4.7,-10.5,-10.5,-10.5c-5.8,0,-10.5,4.7,-10.5,10.5c0,5.8,4.7,10.5,10.5,10.5c5.8,0,10.5,-4.7,10.5,-10.5ZM765.5,307.5V333H676.7" class="g3_244"/>
<path d="M678.8,330.1l-1.2,2.9l1.2,2.8L672.1,333l6.7,-2.9Z" class="g4_244"/>
<path d="M378.4,307v26H641.5" class="g3_244"/>
<path d="M639.4,335.8l1.2,-2.8l-1.2,-2.9l6.7,2.9l-6.7,2.8Z" class="g4_244"/>
<path d="M309.7,307.5v39.2H519.3" class="g3_244"/>
<path d="M517.1,349.6l1.2,-2.9l-1.2,-2.8l6.7,2.8l-6.7,2.9Z" class="g4_244"/>
<path d="M694.2,307v39.7H551.4" class="g3_244"/>
<path d="M553.5,343.9l-1.2,2.8l1.2,2.9l-6.7,-2.9l6.7,-2.8Z" class="g4_244"/>
<path d="M623.9,307.5v53H415.4" class="g3_244"/>
<path d="M417.5,357.6l-1.2,2.9l1.2,2.8l-6.7,-2.8l6.7,-2.9Z" class="g4_244"/>
<path d="M239.4,307v53.5H381.8" class="g3_244"/>
<path d="M379.6,363.3l1.2,-2.8l-1.2,-2.9l6.7,2.9l-6.7,2.8Z" class="g4_244"/>
<path d="M556.7,307.5v66.7H289.1" class="g3_244"/>
<path d="M291.2,371.4l-1.2,2.8l1.2,2.9l-6.7,-2.9l6.7,-2.8Z" class="g4_244"/>
<path d="M170.6,307.5v66.7h87.9" class="g3_244"/>
<path d="M256.4,377.1l1.2,-2.9l-1.2,-2.8l6.7,2.8l-6.7,2.9Z" class="g4_244"/>
<path d="M301.3,405.7c0,5.5,-4.8,10,-10.7,10H258.8c-5.9,0,-10.7,-4.5,-10.7,-10c0,-5.5,4.8,-9.9,10.7,-9.9h31.8c5.9,0,10.7,4.4,10.7,9.9Zm124.3,0c0,5.5,-4.8,10,-10.7,10H383.1c-5.9,0,-10.7,-4.5,-10.7,-10c0,-5.5,4.8,-9.9,10.7,-9.9h31.8c5.9,0,10.7,4.4,10.7,9.9Zm137.5,0c0,5.5,-4.8,10,-10.7,10H520.6c-5.9,0,-10.7,-4.5,-10.7,-10c0,-5.5,4.8,-9.9,10.7,-9.9h31.8c5.9,0,10.7,4.4,10.7,9.9Zm123.5,0c0,5.5,-4.7,10,-10.7,10H644.1c-5.9,0,-10.6,-4.5,-10.6,-10c0,-5.5,4.7,-9.9,10.6,-9.9h31.8c6,0,10.7,4.4,10.7,9.9ZM388.8,499.5c0,5.5,-4.8,9.9,-10.7,9.9H346.3c-5.9,0,-10.7,-4.4,-10.7,-9.9c0,-5.5,4.8,-9.9,10.7,-9.9h31.8c5.9,0,10.7,4.4,10.7,9.9Zm69.9,0c0,5.5,-4.8,9.9,-10.7,9.9H416.2c-5.9,0,-10.7,-4.4,-10.7,-9.9c0,-5.5,4.8,-9.9,10.7,-9.9H448c5.9,0,10.7,4.4,10.7,9.9Zm69.8,0c0,5.5,-4.7,9.9,-10.6,9.9H486.1c-5.9,0,-10.7,-4.4,-10.7,-9.9c0,-5.5,4.8,-9.9,10.7,-9.9h31.8c5.9,0,10.6,4.4,10.6,9.9Zm69.9,0c0,5.5,-4.8,9.9,-10.7,9.9H555.9c-5.9,0,-10.7,-4.4,-10.7,-9.9c0,-5.5,4.8,-9.9,10.7,-9.9h31.8c5.9,0,10.7,4.4,10.7,9.9ZM660,343.5V391" class="g3_244"/>
<path d="M657.2,388.9l2.8,1.2l2.9,-1.2l-2.9,6.7l-2.8,-6.7Z" class="g4_244"/>
<path d="M536.3,357.5v33.1" class="g3_244"/>
<path d="M533.5,388.5l2.8,1.2l2.8,-1.2l-2.8,6.7l-2.8,-6.7Z" class="g4_244"/>
<path d="M398.8,371v19.5" class="g3_244"/>
<path d="M396,388.4l2.8,1.2l2.8,-1.2l-2.8,6.7L396,388.4Z" class="g4_244"/>
<path d="M274.5,384.7V391" class="g3_244"/>
<path d="M271.7,388.9l2.8,1.2l2.9,-1.2l-2.9,6.7l-2.8,-6.7Z" class="g4_244"/>
<path d="M432.4,471v13.6" class="g3_244"/>
<path d="M429.6,482.5l2.8,1.2l2.8,-1.2l-2.8,6.7l-2.8,-6.7Z" class="g4_244"/>
<path d="M362.2,471.2v13.7" class="g3_244"/>
<path d="M359.4,482.7l2.8,1.2l2.9,-1.2l-2.9,6.8l-2.8,-6.8Z" class="g4_244"/>
<path d="M500.6,471v14" class="g3_244"/>
<path d="M497.8,482.9l2.8,1.2l2.9,-1.2l-2.9,6.7l-2.8,-6.7Z" class="g4_244"/>
<path d="M570.9,471v14.1" class="g3_244"/>
<path d="M568.1,482.9l2.8,1.2l2.9,-1.2l-2.9,6.7l-2.8,-6.7Z" class="g4_244"/>
<path d="M398.8,415.5v27.3M536.3,415.5v27.3M274.5,415.5V538.7h71.6" class="g3_244"/>
<path d="M351.5,538.7l-7.6,3.1l1.8,-3.1l-1.8,-3.1l7.6,3.1Z" class="g4_244"/>
<path d="M660,415.5V538.7H587.5" class="g3_244"/>
<path d="M582.1,538.7l7.6,-3.1l-1.8,3.1l1.8,3.1l-7.6,-3.1Z" class="g4_244"/>
<path d="M571.8,509.2V523" class="g3_244"/>
<path d="M571.8,528.4l-3.1,-7.6l3.1,1.8l3.1,-1.8l-3.1,7.6Z" class="g4_244"/>
<path d="M502.2,509.2v14.3" class="g3_244"/>
<path d="M502.2,528.9l-3.1,-7.6l3.1,1.8l3.1,-1.8l-3.1,7.6Z" class="g4_244"/>
<path d="M432.1,509.2v14" class="g3_244"/>
<path d="M432.1,528.6L429,521l3.1,1.8l3.1,-1.8l-3.1,7.6Z" class="g4_244"/>
<path d="M362.2,509.2v14.4" class="g3_244"/>
<path d="M362.2,529l-3.1,-7.7l3.1,1.9l3.1,-1.9l-3.1,7.7Z" class="g4_244"/>
<path d="M398.8,475.9v41.2l20.9,13.5" class="g3_244"/>
<path d="M424.2,533.5L416.1,532l3.2,-1.6l.2,-3.6l4.7,6.7Z" class="g4_244"/>
<path d="M536.3,475.9v42.7l-20.2,12.8" class="g3_244"/>
<path d="M511.5,534.3l4.8,-6.7l.1,3.6l3.2,1.6l-8.1,1.5Z" class="g4_244"/>
<path d="M571.8,549.7v25.7" class="g3_244"/>
<path d="M571.8,580.8l-3.1,-7.6l3.1,1.8l3.1,-1.8l-3.1,7.6Z" class="g4_244"/>
<path d="M502.2,549.7v25.2" class="g3_244"/>
<path d="M502.2,580.3l-3.1,-7.6l3.1,1.8l3.1,-1.8l-3.1,7.6Z" class="g4_244"/>
<path d="M432.1,549.4v26.5" class="g3_244"/>
<path d="M432.1,581.3L429,573.7l3.1,1.8l3.1,-1.8l-3.1,7.6Z" class="g4_244"/>
<path d="M362.2,549.7v25.2" class="g3_244"/>
<path d="M362.2,580.3l-3.1,-7.6l3.1,1.8l3.1,-1.8l-3.1,7.6Z" class="g4_244"/>
<path d="M604.5,640.5c0,5.6,-4.6,10.3,-10.3,10.3H339.8c-5.7,0,-10.3,-4.7,-10.3,-10.3c0,-5.7,4.6,-10.4,10.3,-10.4H594.2c5.7,0,10.3,4.7,10.3,10.4ZM571.8,603.4v21.3" class="g3_244"/>
<path d="M571.8,630.1l-3.1,-7.6l3.1,1.8l3.1,-1.8l-3.1,7.6Z" class="g4_244"/>
<path d="M502.2,603.4v21.3" class="g3_244"/>
<path d="M502.2,630.1l-3.1,-7.6l3.1,1.8l3.1,-1.8l-3.1,7.6Z" class="g4_244"/>
<path d="M432.1,603.4v21.3" class="g3_244"/>
<path d="M432.1,630.1L429,622.5l3.1,1.8l3.1,-1.8l-3.1,7.6Z" class="g4_244"/>
<path d="M362.2,603.4v21.3" class="g3_244"/>
<path d="M362.2,630.1l-3.1,-7.6l3.1,1.8l3.1,-1.8l-3.1,7.6Z" class="g4_244"/>
<path d="M571.8,650.8v20.4" class="g3_244"/>
<path d="M571.8,676.6L568.7,669l3.1,1.8l3.1,-1.8l-3.1,7.6Z" class="g4_244"/>
<path d="M502.2,650.8v20.4" class="g3_244"/>
<path d="M502.2,676.6L499.1,669l3.1,1.8l3.1,-1.8l-3.1,7.6Z" class="g4_244"/>
<path d="M432.1,650.8v20.4" class="g3_244"/>
<path d="M432.1,676.6L429,669l3.1,1.8l3.1,-1.8l-3.1,7.6Z" class="g4_244"/>
<path d="M362.2,650.8v20.4" class="g3_244"/>
<path d="M362.2,676.6L359.1,669l3.1,1.8l3.1,-1.8l-3.1,7.6Z" class="g4_244"/>
</svg>