<?xml version="1.0" encoding="UTF-8" standalone="no"?>
<!DOCTYPE svg PUBLIC "-//W3C//DTD SVG 1.1//EN"
"http://www.w3.org/Graphics/SVG/1.1/DTD/svg11.dtd">
<svg viewBox="0 0 935 1210" version="1.1" xmlns="http://www.w3.org/2000/svg" xmlns:xlink="http://www.w3.org/1999/xlink">
<defs>
<style type="text/css"><![CDATA[
.g0_137{
fill: #000;
}
]]></style>
</defs>
<path d="M101.6,383h.3V352.8h-.3V383Z" class="g0_137"/>
<path d="M800.1,383.4h.3V352.5h-.3v30.9Z" class="g0_137"/>
<path d="M833.1,383h.3V352.8h-.3V383Z" class="g0_137"/>
<path d="M101.6,352.8H833.4v-.3H101.6v.3Z" class="g0_137"/>
<path d="M101.6,383.3H833.4V383H101.6v.3Z" class="g0_137"/>
<path d="M89,688.9h.7V463H89V688.9Z" class="g0_137"/>
<path d="M171.5,689.6h.7V489.8h-.7V689.6Z" class="g0_137"/>
<path d="M254,689.6h.7V462.3H254V689.6Z" class="g0_137"/>
<path d="M584,689.6h.7V462.3H584V689.6Z" class="g0_137"/>
<path d="M652.8,689.6h.7V462.3h-.7V689.6Z" class="g0_137"/>
<path d="M749,689.6h.7V462.3H749V689.6Z" class="g0_137"/>
<path d="M845.3,688.9h.7V463h-.7V688.9Z" class="g0_137"/>
<path d="M89,463H846v-.7H89v.7Z" class="g0_137"/>
<path d="M89,490.5H254.7v-.7H89v.7Z" class="g0_137"/>
<path d="M89.7,516.1H845.3v-.8H89.7v.8Z" class="g0_137"/>
<path d="M89.7,519.9H845.3v-.7H89.7v.7Z" class="g0_137"/>
<path d="M89,542.5H846v-.8H89v.8Z" class="g0_137"/>
<path d="M89,689.6H846v-.7H89v.7Z" class="g0_137"/>
</svg>