<?xml version="1.0" encoding="UTF-8" standalone="no"?>
<!DOCTYPE svg PUBLIC "-//W3C//DTD SVG 1.1//EN"
"http://www.w3.org/Graphics/SVG/1.1/DTD/svg11.dtd">
<svg viewBox="0 0 935 1210" version="1.1" xmlns="http://www.w3.org/2000/svg" xmlns:xlink="http://www.w3.org/1999/xlink">
<defs>
<clipPath id="c0_2943"><path d="M97.3,59.2V41.4h72.1V59.2Z"/></clipPath>
<clipPath id="c1_2943"><path d="M351.1,930.4v-165H583.9v165Z"/></clipPath>
<style type="text/css"><![CDATA[
.g0_2943{
fill: #000;
}
]]></style>
</defs>
<path d="M96.3,63.3H838.8v-.4H96.3v.4Z" class="g0_2943"/>
<path d="M96.1,1114.5h.2v-.4h-.2v.4Z" class="g0_2943"/>
<path d="M96.3,1114.5H838.9v-.4H96.3v.4Z" class="g0_2943"/>
<image clip-path="url(#c0_2943)" preserveAspectRatio="none" x="97" y="41" width="73" height="18" xlink:href="img/1.jpg"/>
<path d="M435.1,286.5h.2v-.6h-.2v.6Z" class="g0_2943"/>
<path d="M426,286.5h9.1v-.6H426v.6Z" class="g0_2943"/>
<path d="M427,288.7v-.1h-.3v.2h.3v-.1Z" class="g0_2943"/>
<path d="M426.7,288.7l.2,-1l.4,-.7v-.1l.1,.2h.1l-.3,.7l-.2,1Z" class="g0_2943"/>
<path d="M427.3,286.9l.6,-.4h.1l.1,.2v-.1l-.7,.5Z" class="g0_2943"/>
<path d="M429,286.4v-.1h-.3v.2h.3v-.1Z" class="g0_2943"/>
<path d="M428,286.5l.1,.2l.8,-.2l-.1,-.2Z" class="g0_2943"/>
<path d="M426,288.8h1v-2.3h-1v2.3Z" class="g0_2943"/>
<path d="M428,286.5l-.6,-.5l-1.1,1.3l.6,.4Z" class="g0_2943"/>
<path d="M427.5,287h4.1v-1h-4.1v1Z" class="g0_2943"/>
<path d="M435.1,298h.2v-.6h-.2v.6Z" class="g0_2943"/>
<path d="M426,298h9.1v-.6H426v.6Z" class="g0_2943"/>
<path d="M435.3,286.5l-.2,-.3l-.3,-.2l-.3,.2l-.2,.3l.2,.3l.3,.2l.3,-.2l.2,-.3Z" class="g0_2943"/>
<path d="M429.6,297.5l-.2,-.3L429,297l-.3,.2l-.2,.3l.2,.3l.3,.2l.4,-.2l.2,-.3Z" class="g0_2943"/>
<path d="M435.2,286.7l-.9,-.4l-5.8,11l1,.4Z" class="g0_2943"/>
<path d="M432.7,286.5l-.2,-.3l-.4,-.2l-.3,.2l-.1,.3l.1,.3l.3,.2l.4,-.2l.2,-.3Z" class="g0_2943"/>
<path d="M426.9,297.3l-.2,-.3l-.4,-.2l-.2,.2l-.2,.3l.2,.3l.2,.2l.4,-.2l.2,-.3Z" class="g0_2943"/>
<path d="M432.6,286.7l-.9,-.4l-5.8,10.8l.9,.5Z" class="g0_2943"/>
<path d="M426,297.8h.3v-.6H426v.6Z" class="g0_2943"/>
<path d="M426.3,297.8h9v-.6h-9v.6Z" class="g0_2943"/>
<path d="M434.7,295.1V295h-.3v.3h.3v-.2Z" class="g0_2943"/>
<path d="M434.7,295.1l-.1,.8v.1l-.5,.7H434l-.1,-.2l.4,-.7v.1l.1,-.8Z" class="g0_2943"/>
<path d="M434,296.7l-.6,.6v.1l-.1,-.3h-.1l.7,-.6Z" class="g0_2943"/>
<path d="M432.7,297.4v-.1h-.3v.3h.3v-.2Z" class="g0_2943"/>
<path d="M433.4,297.4l-.1,-.3l-.8,.2l.1,.3Z" class="g0_2943"/>
<path d="M434.4,297.3h1v-2.5h-1v2.5Z" class="g0_2943"/>
<path d="M433.3,297.3l.6,.4l1.1,-1.2l-.6,-.4Z" class="g0_2943"/>
<path d="M429.6,297.9h4v-1h-4v1Z" class="g0_2943"/>
<image clip-path="url(#c1_2943)" preserveAspectRatio="none" x="351" y="765" width="233" height="165" xlink:href="img/2.jpg"/>
</svg>