<?xml version="1.0" encoding="UTF-8" standalone="no"?>
<!DOCTYPE svg PUBLIC "-//W3C//DTD SVG 1.1//EN"
"http://www.w3.org/Graphics/SVG/1.1/DTD/svg11.dtd">
<svg viewBox="0 0 935 1210" version="1.1" xmlns="http://www.w3.org/2000/svg" xmlns:xlink="http://www.w3.org/1999/xlink">
<defs>
<style type="text/css"><![CDATA[
.g0_1217{
fill: #FFF;
}
.g1_1217{
fill: #F8FAFC;
}
.g2_1217{
fill: #000;
}
.g3_1217{
fill: #FFE0D1;
}
.g4_1217{
fill: #E9F3E9;
}
.g5_1217{
fill: #FFE6FF;
}
]]></style>
</defs>
<path d="M68.9,1149.3H852.7v-21.2H68.9v21.2Z" class="g0_1217"/>
<path d="M70.3,189.5H175.2V165H70.3v24.5Z" class="g1_1217"/>
<path d="M70.3,299.6H175.2V189.5H70.3V299.6Z" class="g1_1217"/>
<path d="M70.3,340.8H175.2V299.6H70.3v41.2Z" class="g1_1217"/>
<path d="M384.1,340.8h97.3V299.6H384.1v41.2Z" class="g1_1217"/>
<path d="M70.3,543.2H175.2V340.8H70.3V543.2Z" class="g1_1217"/>
<path d="M70.3,635H175.2V543.2H70.3V635Z" class="g1_1217"/>
<path d="M69.9,634.5h.8V165.4h-.8V634.5Z" class="g2_1217"/>
<path d="M174.8,635.3h.7V164.6h-.7V635.3Z" class="g2_1217"/>
<path d="M383.7,341.2h.8v-42h-.8v42Z" class="g2_1217"/>
<path d="M481.1,341.2h.7v-42h-.7v42Z" class="g2_1217"/>
<path d="M854.2,634.5h.8V165.4h-.8V634.5Z" class="g2_1217"/>
<path d="M69.9,165.4H855v-.8H69.9v.8Z" class="g2_1217"/>
<path d="M69.9,189.8H855v-.7H69.9v.7Z" class="g2_1217"/>
<path d="M69.9,299.9H855v-.7H69.9v.7Z" class="g2_1217"/>
<path d="M69.9,341.2H855v-.7H69.9v.7Z" class="g2_1217"/>
<path d="M69.9,543.6H855v-.7H69.9v.7Z" class="g2_1217"/>
<path d="M69.9,635.3H855v-.7H69.9v.7Z" class="g2_1217"/>
<path d="M181.7,233.2H308.2V211.8H181.7v21.4Z" class="g3_1217"/>
<path d="M308.2,233.2h63.2V211.8H308.2v21.4Z" class="g3_1217"/>
<path d="M371.4,233.2h63.3V211.8H371.4v21.4Z" class="g3_1217"/>
<path d="M434.7,233.2h63.2V211.8H434.7v21.4Z" class="g3_1217"/>
<path d="M497.9,233.2h63.3V211.8H497.9v21.4Z" class="g3_1217"/>
<path d="M561.2,233.2h63.2V211.8H561.2v21.4Z" class="g3_1217"/>
<path d="M624.4,233.2H698V211.8H624.4v21.4Z" class="g3_1217"/>
<path d="M698,233.2H810.8V211.8H698v21.4Z" class="g3_1217"/>
<path d="M181.7,254.6h63.2V233.2H181.7v21.4Z" class="g3_1217"/>
<path d="M244.9,254.6h63.3V233.2H244.9v21.4Z" class="g4_1217"/>
<path d="M308.2,254.6h63.2V233.2H308.2v21.4Z" class="g4_1217"/>
<path d="M371.4,254.6h63.3V233.2H371.4v21.4Z" class="g4_1217"/>
<path d="M434.7,254.6h63.2V233.2H434.7v21.4Z" class="g4_1217"/>
<path d="M497.9,254.6h63.3V233.2H497.9v21.4Z" class="g4_1217"/>
<path d="M561.2,254.6h63.2V233.2H561.2v21.4Z" class="g4_1217"/>
<path d="M624.4,254.6H698V233.2H624.4v21.4Z" class="g4_1217"/>
<path d="M698,254.6H810.8V233.2H698v21.4Z" class="g4_1217"/>
<path d="M181.7,275.9h63.2V254.6H181.7v21.3Z" class="g3_1217"/>
<path d="M244.9,275.9h63.3V254.6H244.9v21.3Z" class="g5_1217"/>
<path d="M308.2,275.9h63.2V254.6H308.2v21.3Z" class="g5_1217"/>
<path d="M371.4,275.9h63.3V254.6H371.4v21.3Z" class="g5_1217"/>
<path d="M181.3,275.5h.8V212.1h-.8v63.4Z" class="g2_1217"/>
<path d="M244.6,276.3h.7V211.4h-.7v64.9Z" class="g2_1217"/>
<path d="M307.8,276.3h.8V211.4h-.8v64.9Z" class="g2_1217"/>
<path d="M371.1,276.3h.7V211.4h-.7v64.9Z" class="g2_1217"/>
<path d="M434.3,276.3h.8V211.4h-.8v64.9Z" class="g2_1217"/>
<path d="M497.6,276.3h.7V211.4h-.7v64.9Z" class="g2_1217"/>
<path d="M560.8,276.3h.8V211.4h-.8v64.9Z" class="g2_1217"/>
<path d="M624.1,276.3h.7V211.4h-.7v64.9Z" class="g2_1217"/>
<path d="M697.7,276.3h.7V211.4h-.7v64.9Z" class="g2_1217"/>
<path d="M810.4,275.5h.8V212.1h-.8v63.4Z" class="g2_1217"/>
<path d="M181.3,212.1H811.2v-.7H181.3v.7Z" class="g2_1217"/>
<path d="M181.3,233.6H811.2v-.8H181.3v.8Z" class="g2_1217"/>
<path d="M181.3,254.9H811.2v-.7H181.3v.7Z" class="g2_1217"/>
<path d="M181.3,276.3H811.2v-.8H181.3v.8Z" class="g2_1217"/>
<path d="M180.4,524.4h.4V417.9h-.4V524.4Z" class="g2_1217"/>
<path d="M260.5,524.8h.4V417.4h-.4V524.8Z" class="g2_1217"/>
<path d="M332.9,524.8h.4V417.4h-.4V524.8Z" class="g2_1217"/>
<path d="M775.5,524.4h.4V417.9h-.4V524.4Z" class="g2_1217"/>
<path d="M180.4,417.9H775.9v-.4H180.4v.4Z" class="g2_1217"/>
<path d="M180.4,439.3H775.9v-.4H180.4v.4Z" class="g2_1217"/>
<path d="M180.4,460.6H775.9v-.3H180.4v.3Z" class="g2_1217"/>
<path d="M180.4,482.1H775.9v-.4H180.4v.4Z" class="g2_1217"/>
<path d="M180.4,503.4H775.9v-.3H180.4v.3Z" class="g2_1217"/>
<path d="M180.4,524.8H775.9v-.4H180.4v.4Z" class="g2_1217"/>
</svg>