<?xml version="1.0" encoding="UTF-8" standalone="no"?>
<!DOCTYPE svg PUBLIC "-//W3C//DTD SVG 1.1//EN"
"http://www.w3.org/Graphics/SVG/1.1/DTD/svg11.dtd">
<svg viewBox="0 0 935 1210" version="1.1" xmlns="http://www.w3.org/2000/svg" xmlns:xlink="http://www.w3.org/1999/xlink">
<defs>
<clipPath id="c0_2494"><path d="M766.6,59.2V41.4h72.2V59.2Z"/></clipPath>
<style type="text/css"><![CDATA[
.g0_2494{
fill: #000;
}
]]></style>
</defs>
<path d="M97.4,63.3H839.9v-.4H97.4v.4Z" class="g0_2494"/>
<path d="M96.1,1114.5h.2v-.4h-.2v.4Z" class="g0_2494"/>
<path d="M96.3,1114.5H838.9v-.4H96.3v.4Z" class="g0_2494"/>
<image clip-path="url(#c0_2494)" preserveAspectRatio="none" x="767" y="41" width="72" height="18" xlink:href="img/1.jpg"/>
<path d="M559.6,719H591v-1.1H559.6V719Z" class="g0_2494"/>
<path d="M559.6,742H591v-1.1H559.6V742Z" class="g0_2494"/>
<path d="M95.9,496.1h.7V428.2h-.7v67.9Z" class="g0_2494"/>
<path d="M216,496.9h.7V427.4H216v69.5Z" class="g0_2494"/>
<path d="M293.3,496.9h.8V427.4h-.8v69.5Z" class="g0_2494"/>
<path d="M839.1,496.1h.7V428.2h-.7v67.9Z" class="g0_2494"/>
<path d="M95.9,428.2h744v-.8H95.9v.8Z" class="g0_2494"/>
<path d="M95.9,452.3h744v-3H95.9v3Z" class="g0_2494"/>
<path d="M95.9,474h744v-.7H95.9v.7Z" class="g0_2494"/>
<path d="M95.9,496.9h744v-.7H95.9v.7Z" class="g0_2494"/>
<path d="M95.9,1018.7h.7V930.4h-.7v88.3Z" class="g0_2494"/>
<path d="M139.5,998.1h.8V927.4h-.8v70.7Z" class="g0_2494"/>
<path d="M183.2,998.1h.8V927.4h-.8v70.7Z" class="g0_2494"/>
<path d="M226.9,998.1h.7V974.3h-.7v23.8Z" class="g0_2494"/>
<path d="M270.6,998.1h.7V927.4h-.7v70.7Z" class="g0_2494"/>
<path d="M314.2,998.1h.8V927.4h-.8v70.7Z" class="g0_2494"/>
<path d="M358,998.1h.7V927.4H358v70.7Z" class="g0_2494"/>
<path d="M401.6,998.1h.7V927.4h-.7v70.7Z" class="g0_2494"/>
<path d="M445.3,998.1h.8V927.4h-.8v70.7Z" class="g0_2494"/>
<path d="M489,998.1h.7V927.4H489v70.7Z" class="g0_2494"/>
<path d="M532.7,998.1h.7V927.4h-.7v70.7Z" class="g0_2494"/>
<path d="M576.3,998.1h.7V927.4h-.7v70.7Z" class="g0_2494"/>
<path d="M620,998.1h.8V927.4H620v70.7Z" class="g0_2494"/>
<path d="M663.7,998.1h.7V927.4h-.7v70.7Z" class="g0_2494"/>
<path d="M707.4,998.1h.7V927.4h-.7v70.7Z" class="g0_2494"/>
<path d="M751,998.1h.8V927.4H751v70.7Z" class="g0_2494"/>
<path d="M794.8,998.1h.7V927.4h-.7v70.7Z" class="g0_2494"/>
<path d="M838.4,1018.7h.7V930.4h-.7v88.3Z" class="g0_2494"/>
<path d="M95.9,930.4H839.1v-3H95.9v3Z" class="g0_2494"/>
<path d="M95.9,953.3H839.1v-3H95.9v3Z" class="g0_2494"/>
<path d="M95.9,975.1H839.1v-.8H95.9v.8Z" class="g0_2494"/>
<path d="M95.9,998.1H839.1v-.8H95.9v.8Z" class="g0_2494"/>
<path d="M95.9,1019.4H839.1v-.7H95.9v.7Z" class="g0_2494"/>
</svg>