<?xml version="1.0" encoding="UTF-8" standalone="no"?>
<!DOCTYPE svg PUBLIC "-//W3C//DTD SVG 1.1//EN"
"http://www.w3.org/Graphics/SVG/1.1/DTD/svg11.dtd">
<svg viewBox="0 0 935 1210" version="1.1" xmlns="http://www.w3.org/2000/svg" xmlns:xlink="http://www.w3.org/1999/xlink">
<defs>
<style type="text/css"><![CDATA[
.g0_382{
fill: #FFF;
}
.g1_382{
fill: #000;
}
]]></style>
</defs>
<path d="M165,1149.3H852.5v-21.2H165v21.2Z" class="g0_382"/>
<path d="M68.8,1149.3h82.5v-21.2H68.8v21.2Z" class="g0_382"/>
<path d="M68.6,538.9h.7V147h-.7V538.9Z" class="g1_382"/>
<path d="M313.2,539.7h.8V146.3h-.8V539.7Z" class="g1_382"/>
<path d="M360.3,539.7h.7V146.3h-.7V539.7Z" class="g1_382"/>
<path d="M434.7,539.7h.7V146.3h-.7V539.7Z" class="g1_382"/>
<path d="M518,539.7h.7V146.3H518V539.7Z" class="g1_382"/>
<path d="M853.3,538.9h.8V147h-.8V538.9Z" class="g1_382"/>
<path d="M68.6,147H854.1v-.7H68.6v.7Z" class="g1_382"/>
<path d="M68.6,200.5H854.1v-.8H68.6v.8Z" class="g1_382"/>
<path d="M68.6,257H854.1v-.7H68.6v.7Z" class="g1_382"/>
<path d="M68.6,313.6H854.1v-.7H68.6v.7Z" class="g1_382"/>
<path d="M68.6,370.1H854.1v-.8H68.6v.8Z" class="g1_382"/>
<path d="M68.6,426.6H854.1v-.7H68.6v.7Z" class="g1_382"/>
<path d="M68.6,483.2H854.1v-.8H68.6v.8Z" class="g1_382"/>
<path d="M68.6,539.7H854.1V539H68.6v.7Z" class="g1_382"/>
<path d="M68.6,667.2h.7V594.7h-.7v72.5Z" class="g1_382"/>
<path d="M145,668.1h.8V593.9H145v74.2Z" class="g1_382"/>
<path d="M228,668.1h.7V593.9H228v74.2Z" class="g1_382"/>
<path d="M375.1,668.1h.7V593.9h-.7v74.2Z" class="g1_382"/>
<path d="M531,668.1h.8V593.9H531v74.2Z" class="g1_382"/>
<path d="M687.4,668.1h.7V593.9h-.7v74.2Z" class="g1_382"/>
<path d="M847.1,667.2h.7V594.7h-.7v72.5Z" class="g1_382"/>
<path d="M68.6,594.7H847.8V594H68.6v.7Z" class="g1_382"/>
<path d="M68.6,619.1H847.8v-.7H68.6v.7Z" class="g1_382"/>
<path d="M68.6,643.6H847.8v-.7H68.6v.7Z" class="g1_382"/>
<path d="M68.6,668.1H847.8v-.8H68.6v.8Z" class="g1_382"/>
</svg>