<?xml version="1.0" encoding="UTF-8" standalone="no"?>
<!DOCTYPE svg PUBLIC "-//W3C//DTD SVG 1.1//EN"
"http://www.w3.org/Graphics/SVG/1.1/DTD/svg11.dtd">
<svg viewBox="0 0 935 1210" version="1.1" xmlns="http://www.w3.org/2000/svg" xmlns:xlink="http://www.w3.org/1999/xlink">
<defs>
<clipPath id="c0_554"><path d="M97.3,59.2V41.4h72.1V59.2Z"/></clipPath>
<style type="text/css"><![CDATA[
.g0_554{
fill: #000;
}
.g1_554{
fill: #E5E5E5;
}
]]></style>
</defs>
<path d="M96.2,62.9v.3H838.7v-.3H96.2Z" class="g0_554"/>
<path d="M96.2,1114.1h-.1v.3h.1v-.3Z" class="g0_554"/>
<path d="M838.7,1114.1h.2v.3h-.2v-.3Z" class="g0_554"/>
<path d="M96.2,1114.1v.3H838.7v-.3H96.2Z" class="g0_554"/>
<image clip-path="url(#c0_554)" preserveAspectRatio="none" x="97" y="41" width="72" height="18" xlink:href="img/1.jpg"/>
<path d="M96.2,698.2h67.9v24.4H96.2V698.2Z" class="g1_554"/>
<path d="M164.1,698.2h74.6v24.4H164.1V698.2Z" class="g1_554"/>
<path d="M238.7,698.2H339.1v24.4H238.7V698.2Z" class="g1_554"/>
<path d="M339.1,698.2H439.4v24.4H339.1V698.2Z" class="g1_554"/>
<path d="M439.4,698.2H539.6v24.4H439.4V698.2Z" class="g1_554"/>
<path d="M539.6,698.2H838.7v48.9H539.6V698.2Z" class="g1_554"/>
<path d="M96.2,722.6h67.9v24.5H96.2V722.6Z" class="g1_554"/>
<path d="M164.1,722.6h74.6v24.5H164.1V722.6Z" class="g1_554"/>
<path d="M238.7,722.6H339.1v24.5H238.7V722.6Z" class="g1_554"/>
<path d="M339.1,722.6H439.4v24.5H339.1V722.6Z" class="g1_554"/>
<path d="M439.4,722.6H539.6v24.5H439.4V722.6Z" class="g1_554"/>
<path d="M96.2,775.6h67.9V800H96.2V775.6Z" class="g1_554"/>
<path d="M164.1,775.6h74.6V800H164.1V775.6Z" class="g1_554"/>
<path d="M238.7,775.6H339.1V800H238.7V775.6Z" class="g1_554"/>
<path d="M339.1,775.6H439.4V800H339.1V775.6Z" class="g1_554"/>
<path d="M439.4,775.6H539.6V800H439.4V775.6Z" class="g1_554"/>
<path d="M539.6,775.6H838.7V922.2H539.6V775.6Z" class="g1_554"/>
<path d="M96.2,800h67.9v24.5H96.2V800Z" class="g1_554"/>
<path d="M164.1,800h74.6v24.5H164.1V800Z" class="g1_554"/>
<path d="M238.7,800H339.1v24.5H238.7V800Z" class="g1_554"/>
<path d="M339.1,800H439.4v24.5H339.1V800Z" class="g1_554"/>
<path d="M439.4,800H539.6v24.5H439.4V800Z" class="g1_554"/>
<path d="M96.2,824.5h67.9v24.4H96.2V824.5Z" class="g1_554"/>
<path d="M164.1,824.5h74.6v24.4H164.1V824.5Z" class="g1_554"/>
<path d="M238.7,824.5H339.1v24.4H238.7V824.5Z" class="g1_554"/>
<path d="M339.1,824.5H439.4v24.4H339.1V824.5Z" class="g1_554"/>
<path d="M439.4,824.5H539.6v24.4H439.4V824.5Z" class="g1_554"/>
<path d="M96.2,848.9h67.9v24.5H96.2V848.9Z" class="g1_554"/>
<path d="M164.1,848.9h74.6v24.5H164.1V848.9Z" class="g1_554"/>
<path d="M238.7,848.9H339.1v24.5H238.7V848.9Z" class="g1_554"/>
<path d="M339.1,848.9H439.4v24.5H339.1V848.9Z" class="g1_554"/>
<path d="M439.4,848.9H539.6v24.5H439.4V848.9Z" class="g1_554"/>
<path d="M96.2,873.4h67.9v24.4H96.2V873.4Z" class="g1_554"/>
<path d="M164.1,873.4h74.6v24.4H164.1V873.4Z" class="g1_554"/>
<path d="M238.7,873.4H339.1v24.4H238.7V873.4Z" class="g1_554"/>
<path d="M339.1,873.4H439.4v24.4H339.1V873.4Z" class="g1_554"/>
<path d="M439.4,873.4H539.6v24.4H439.4V873.4Z" class="g1_554"/>
<path d="M96.2,897.8h67.9v24.4H96.2V897.8Z" class="g1_554"/>
<path d="M164.1,897.8h74.6v24.4H164.1V897.8Z" class="g1_554"/>
<path d="M238.7,897.8H339.1v24.4H238.7V897.8Z" class="g1_554"/>
<path d="M339.1,897.8H439.4v24.4H339.1V897.8Z" class="g1_554"/>
<path d="M439.4,897.8H539.6v24.4H439.4V897.8Z" class="g1_554"/>
<path d="M96.2,946.7h67.9v24.5H96.2V946.7Z" class="g1_554"/>
<path d="M164.1,946.7h74.6v24.5H164.1V946.7Z" class="g1_554"/>
<path d="M238.7,946.7H339.1v24.5H238.7V946.7Z" class="g1_554"/>
<path d="M339.1,946.7H439.4v24.5H339.1V946.7Z" class="g1_554"/>
<path d="M439.4,946.7H539.6v24.5H439.4V946.7Z" class="g1_554"/>
<path d="M539.6,946.7H838.7v24.5H539.6V946.7Z" class="g1_554"/>
<path d="M96.6,649.7h-.7v409.6h.7V649.7Z" class="g0_554"/>
<path d="M164.4,648.9h-.7v371.5h.7V648.9Z" class="g0_554"/>
<path d="M239.1,673.4h-.8v347h.8v-347Z" class="g0_554"/>
<path d="M339.4,673.4h-.7v347h.7v-347Z" class="g0_554"/>
<path d="M439.8,673.4h-.7v347h.7v-347Z" class="g0_554"/>
<path d="M540,648.9h-.7v371.5h.7V648.9Z" class="g0_554"/>
<path d="M839.1,649.7h-.8v409.6h.8V649.7Z" class="g0_554"/>
<path d="M95.9,648.9v.7H839.1v-.7H95.9Z" class="g0_554"/>
<path d="M163.7,673.4v.7H540v-.7H163.7Z" class="g0_554"/>
<path d="M95.9,697.8v.8H839.1v-.8H95.9Z" class="g0_554"/>
<path d="M95.9,722.2v.7H540v-.7H95.9Z" class="g0_554"/>
<path d="M95.9,746.7v.7H839.1v-.7H95.9Z" class="g0_554"/>
<path d="M95.9,775.2v.7H839.1v-.7H95.9Z" class="g0_554"/>
<path d="M95.9,799.7v.7H540v-.7H95.9Z" class="g0_554"/>
<path d="M95.9,824.1v.8H540v-.8H95.9Z" class="g0_554"/>
<path d="M95.9,848.5v.8H540v-.8H95.9Z" class="g0_554"/>
<path d="M95.9,873v.7H540V873H95.9Z" class="g0_554"/>
<path d="M95.9,897.5v.7H540v-.7H95.9Z" class="g0_554"/>
<path d="M95.9,921.9v.7H839.1v-.7H95.9Z" class="g0_554"/>
<path d="M95.9,946.3v.8H839.1v-.8H95.9Z" class="g0_554"/>
<path d="M95.9,970.8v.7H839.1v-.7H95.9Z" class="g0_554"/>
<path d="M95.9,995.2v.7H839.1v-.7H95.9Z" class="g0_554"/>
<path d="M95.9,1019.7v.7H839.1v-.7H95.9Z" class="g0_554"/>
<path d="M95.9,1059.3v.8H839.1v-.8H95.9Z" class="g0_554"/>
</svg>