<?xml version="1.0" encoding="UTF-8" standalone="no"?>
<!DOCTYPE svg PUBLIC "-//W3C//DTD SVG 1.1//EN"
"http://www.w3.org/Graphics/SVG/1.1/DTD/svg11.dtd">
<svg viewBox="0 0 935 1210" version="1.1" xmlns="http://www.w3.org/2000/svg" xmlns:xlink="http://www.w3.org/1999/xlink">
<defs>
<style type="text/css"><![CDATA[
.g0_387{
fill: #FFF;
}
.g1_387{
fill: #000;
}
]]></style>
</defs>
<path d="M68.9,1149.3H852.7v-21.2H68.9v21.2Z" class="g0_387"/>
<path d="M69.9,542h.8V130.3h-.8V542Z" class="g1_387"/>
<path d="M203.4,325.8h.7V153.9h-.7V325.8Z" class="g1_387"/>
<path d="M203.4,469.4h.7V349.5h-.7V469.4Z" class="g1_387"/>
<path d="M374.6,325.8h.7V153.9h-.7V325.8Z" class="g1_387"/>
<path d="M374.6,469.4h.7V349.5h-.7V469.4Z" class="g1_387"/>
<path d="M374.6,542.8h.7V493.1h-.7v49.7Z" class="g1_387"/>
<path d="M851.9,542h.7V130.3h-.7V542Z" class="g1_387"/>
<path d="M69.9,130.3H852.6v-.8H69.9v.8Z" class="g1_387"/>
<path d="M69.9,154.6H852.6v-.7H69.9v.7Z" class="g1_387"/>
<path d="M69.9,179.1H852.6v-.7H69.9v.7Z" class="g1_387"/>
<path d="M69.9,203.6H852.6v-.7H69.9v.7Z" class="g1_387"/>
<path d="M69.9,228H852.6v-.8H69.9v.8Z" class="g1_387"/>
<path d="M69.9,252.4H852.6v-.7H69.9v.7Z" class="g1_387"/>
<path d="M69.9,276.9H852.6v-.7H69.9v.7Z" class="g1_387"/>
<path d="M69.9,301.3H852.6v-.7H69.9v.7Z" class="g1_387"/>
<path d="M69.9,325.8H852.6v-.7H69.9v.7Z" class="g1_387"/>
<path d="M69.9,350.3H852.6v-.8H69.9v.8Z" class="g1_387"/>
<path d="M69.9,396.1H852.6v-.7H69.9v.7Z" class="g1_387"/>
<path d="M69.9,420.6H852.6v-.8H69.9v.8Z" class="g1_387"/>
<path d="M69.9,444.9H852.6v-.7H69.9v.7Z" class="g1_387"/>
<path d="M69.9,469.4H852.6v-.7H69.9v.7Z" class="g1_387"/>
<path d="M69.9,493.9H852.6v-.7H69.9v.7Z" class="g1_387"/>
<path d="M69.9,518.3H852.6v-.7H69.9v.7Z" class="g1_387"/>
<path d="M69.9,542.8H852.6V542H69.9v.8Z" class="g1_387"/>
<path d="M70.5,780.4h.7V712.3h-.7v68.1Z" class="g1_387"/>
<path d="M259.4,781.1h.8V711.6h-.8v69.5Z" class="g1_387"/>
<path d="M353,781.1h.7V711.6H353v69.5Z" class="g1_387"/>
<path d="M851.5,780.4h.7V712.3h-.7v68.1Z" class="g1_387"/>
<path d="M70.5,712.3H852.3v-.7H70.5v.7Z" class="g1_387"/>
<path d="M70.5,735.3H852.3v-.8H70.5v.8Z" class="g1_387"/>
<path d="M70.5,758.2H852.3v-.8H70.5v.8Z" class="g1_387"/>
<path d="M70.5,781.1H852.3v-.7H70.5v.7Z" class="g1_387"/>
<path d="M71.2,1085.2H72V977.4h-.8v107.8Z" class="g1_387"/>
<path d="M273.5,1085.9h.8V999.6h-.8v86.3Z" class="g1_387"/>
<path d="M525.1,1085.9h.7V999.6h-.7v86.3Z" class="g1_387"/>
<path d="M850.8,1085.2h.8V977.4h-.8v107.8Z" class="g1_387"/>
<path d="M71.1,977.4H851.6v-.7H71.1v.7Z" class="g1_387"/>
<path d="M71.1,1000.4H851.6v-.8H71.1v.8Z" class="g1_387"/>
<path d="M71.1,1023.3H851.6v-.8H71.1v.8Z" class="g1_387"/>
<path d="M71.1,1046.2H851.6v-.7H71.1v.7Z" class="g1_387"/>
<path d="M71.1,1085.9H851.6v-.8H71.1v.8Z" class="g1_387"/>
</svg>