<?xml version="1.0" encoding="UTF-8" standalone="no"?>
<!DOCTYPE svg PUBLIC "-//W3C//DTD SVG 1.1//EN"
"http://www.w3.org/Graphics/SVG/1.1/DTD/svg11.dtd">
<svg viewBox="0 0 935 1210" version="1.1" xmlns="http://www.w3.org/2000/svg" xmlns:xlink="http://www.w3.org/1999/xlink">
<defs>
<clipPath id="c0_3067"><path d="M766.6,59.2V41.4h72.2V59.2Z"/></clipPath>
<style type="text/css"><![CDATA[
.g0_3067{
fill: #000;
}
]]></style>
</defs>
<path d="M97.4,63.3H839.9v-.4H97.4v.4Z" class="g0_3067"/>
<path d="M96.1,1114.5h.2v-.4h-.2v.4Z" class="g0_3067"/>
<path d="M96.3,1114.5H838.9v-.4H96.3v.4Z" class="g0_3067"/>
<image clip-path="url(#c0_3067)" preserveAspectRatio="none" x="767" y="41" width="72" height="18" xlink:href="img/1.jpg"/>
<path d="M95.9,593.9h.7V180.2h-.7V593.9Z" class="g0_3067"/>
<path d="M273.3,594.6h.8V177.2h-.8V594.6Z" class="g0_3067"/>
<path d="M321.3,594.6h.7V177.2h-.7V594.6Z" class="g0_3067"/>
<path d="M383.6,594.6h.8V177.2h-.8V594.6Z" class="g0_3067"/>
<path d="M464.6,594.6h.7V177.2h-.7V594.6Z" class="g0_3067"/>
<path d="M838.4,593.9h.7V180.2h-.7V593.9Z" class="g0_3067"/>
<path d="M95.9,180.3H839.1v-3H95.9v3Z" class="g0_3067"/>
<path d="M95.9,223H839.1v-3H95.9v3Z" class="g0_3067"/>
<path d="M273.3,246.3H839.1v-.7H273.3v.7Z" class="g0_3067"/>
<path d="M95.9,331.9H839.1v-.7H95.9v.7Z" class="g0_3067"/>
<path d="M95.9,371.6H839.1v-.7H95.9v.7Z" class="g0_3067"/>
<path d="M95.9,411.3H839.1v-.7H95.9v.7Z" class="g0_3067"/>
<path d="M273.3,451.1H839.1v-.7H273.3v.7Z" class="g0_3067"/>
<path d="M95.9,475.5H839.1v-.8H95.9v.8Z" class="g0_3067"/>
<path d="M95.9,515.3H839.1v-.8H95.9v.8Z" class="g0_3067"/>
<path d="M95.9,554.9H839.1v-.7H95.9v.7Z" class="g0_3067"/>
<path d="M95.9,594.6H839.1v-.7H95.9v.7Z" class="g0_3067"/>
</svg>