<?xml version="1.0" encoding="UTF-8" standalone="no"?>
<!DOCTYPE svg PUBLIC "-//W3C//DTD SVG 1.1//EN"
"http://www.w3.org/Graphics/SVG/1.1/DTD/svg11.dtd">
<svg viewBox="0 0 935 1210" version="1.1" xmlns="http://www.w3.org/2000/svg" xmlns:xlink="http://www.w3.org/1999/xlink">
<defs>
<clipPath id="c0_158"><path d="M97.2,59V41.4h72.2V59Z"/></clipPath>
<style type="text/css"><![CDATA[
.g0_158{
fill: #000;
}
]]></style>
</defs>
<path d="M96.1,63.1v.3H838.9v-.3H96.1Z" class="g0_158"/>
<path d="M96.1,1114.3v.3v-.3Z" class="g0_158"/>
<path d="M838.9,1114.3v.3v-.3Z" class="g0_158"/>
<path d="M96.1,1114.3v.3H838.9v-.3H96.1Z" class="g0_158"/>
<image clip-path="url(#c0_158)" preserveAspectRatio="none" x="97" y="41" width="72" height="18" xlink:href="img/1.jpg"/>
<path d="M94.6,197.3h-.7V464.2h.7V197.3Z" class="g0_158"/>
<path d="M172,239.4h-.8v172h.8v-172Z" class="g0_158"/>
<path d="M248.2,196.5h-.7V411.4h.7V196.5Z" class="g0_158"/>
<path d="M357.1,196.5h-.7V411.4h.7V196.5Z" class="g0_158"/>
<path d="M461.6,196.5h-.7V411.4h.7V196.5Z" class="g0_158"/>
<path d="M582.6,196.5h-.7V411.4h.7V196.5Z" class="g0_158"/>
<path d="M709.5,196.5h-.8V411.4h.8V196.5Z" class="g0_158"/>
<path d="M841.1,197.3h-.7V464.2h.7V197.3Z" class="g0_158"/>
<path d="M93.9,196.5v.8H841.1v-.8H93.9Z" class="g0_158"/>
<path d="M93.9,239.4v.8H841.1v-.8H93.9Z" class="g0_158"/>
<path d="M171.2,282.3v.8H841.1v-.8H171.2Z" class="g0_158"/>
<path d="M93.9,324.9v.7H841.1v-.7H93.9Z" class="g0_158"/>
<path d="M171.2,367.8v.7H841.1v-.7H171.2Z" class="g0_158"/>
<path d="M93.9,410.7v.7H841.1v-.7H93.9Z" class="g0_158"/>
<path d="M93.9,464.2v.7H841.1v-.7H93.9Z" class="g0_158"/>
<path d="M192.9,844h-.8v207.2h.8V844Z" class="g0_158"/>
<path d="M330.4,843.3h-.8v208.6h.8V843.3Z" class="g0_158"/>
<path d="M467.8,843.3h-.7v208.6h.7V843.3Z" class="g0_158"/>
<path d="M605.3,843.3h-.7v208.6h.7V843.3Z" class="g0_158"/>
<path d="M742.8,844h-.7v207.2h.7V844Z" class="g0_158"/>
<path d="M192.1,843.3v.7H742.8v-.7H192.1Z" class="g0_158"/>
<path d="M192.1,904.5v.8H742.8v-.8H192.1Z" class="g0_158"/>
<path d="M192.1,929.1v.7H742.8v-.7H192.1Z" class="g0_158"/>
<path d="M192.1,953.3v.7H742.8v-.7H192.1Z" class="g0_158"/>
<path d="M192.1,977.9v.7H742.8v-.7H192.1Z" class="g0_158"/>
<path d="M192.1,1002.4v.8H742.8v-.8H192.1Z" class="g0_158"/>
<path d="M192.1,1026.6v.8H742.8v-.8H192.1Z" class="g0_158"/>
<path d="M192.1,1051.2v.7H742.8v-.7H192.1Z" class="g0_158"/>
</svg>