<?xml version="1.0" encoding="UTF-8" standalone="no"?>
<!DOCTYPE svg PUBLIC "-//W3C//DTD SVG 1.1//EN"
"http://www.w3.org/Graphics/SVG/1.1/DTD/svg11.dtd">
<svg viewBox="0 0 935 1210" version="1.1" xmlns="http://www.w3.org/2000/svg" xmlns:xlink="http://www.w3.org/1999/xlink">
<defs>
<style type="text/css"><![CDATA[
.g0_84{
fill: none;
stroke: #000;
stroke-width: 0.608;
stroke-miterlimit: 10;
}
.g1_84{
fill: none;
stroke: #000;
stroke-width: 1.521;
stroke-miterlimit: 10;
}
]]></style>
</defs>
<path d="M160.7,103.8H774.3M161,122.4V104.1m125.6,18.3V104.1m87.8,18.3V104.1M774,122.4V104.1M160.7,122.7H774.3M161,141.3V123m125.6,18.3V123m87.8,18.3V123M774,141.3V123M160.7,141.6H774.3M161,160.1V141.9m125.6,18.2V141.9m87.8,18.2V141.9M774,160.1V141.9M160.7,160.4H774.3M161,179V160.7M286.6,179V160.7M374.4,179V160.7M774,179V160.7M160.7,179.3H774.3M161,197.9V179.6m125.6,18.3V179.6m87.8,18.3V179.6M774,197.9V179.6M160.7,198.2H774.3M161,216.8V198.5m125.6,18.3V198.5m87.8,18.3V198.5M774,216.8V198.5M160.7,217.1H774.3M161,235.6V217.4m125.6,18.2V217.4m87.8,18.2V217.4M774,235.6V217.4M160.7,235.9H774.3M161,254.5V236.2m125.6,18.3V236.2m87.8,18.3V236.2M774,254.5V236.2M160.7,254.8H774.3M161,273.4V255.1m125.6,18.3V255.1m87.8,18.3V255.1M774,273.4V255.1M161,291.6V273.4m125.6,18.2V273.4m87.8,18.2V273.4M774,291.6V273.4M160.7,291.9H774.3M337.8,441.3H597.2M338.1,459.9V441.6m122.3,18.3V441.6m136.5,18.3V441.6M337.8,460.2H597.2M338.1,478.7V460.5m122.3,18.2V460.5m136.5,18.2V460.5M337.8,479H597.2M338.1,497.6V479.3m122.3,18.3V479.3m136.5,18.3V479.3M337.8,497.9H597.2M338.1,516.5V498.2m122.3,18.3V498.2m136.5,18.3V498.2M337.8,516.8H597.2M338.1,535.4V517.1m122.3,18.3V517.1m136.5,18.3V517.1M337.8,535.7H597.2M338.1,554.2V536m122.3,18.2V536m136.5,18.2V536M337.8,554.5H597.2" class="g0_84"/>
<path d="M151.7,630.7H783.3M151.7,892.3H783.3M151.7,1028.9H783.3" class="g1_84"/>
</svg>