<?xml version="1.0" encoding="UTF-8" standalone="no"?>
<!DOCTYPE svg PUBLIC "-//W3C//DTD SVG 1.1//EN"
"http://www.w3.org/Graphics/SVG/1.1/DTD/svg11.dtd">
<svg viewBox="0 0 935 1210" version="1.1" xmlns="http://www.w3.org/2000/svg" xmlns:xlink="http://www.w3.org/1999/xlink">
<defs>
<style type="text/css"><![CDATA[
.g0_4726{
fill: #FFF;
}
.g1_4726{
fill: #000;
}
]]></style>
</defs>
<path d="M68.8,1149.3H852.5v-21.2H68.8v21.2Z" class="g0_4726"/>
<path d="M68.6,1099.6h.7V142.4h-.7v957.2Z" class="g1_4726"/>
<path d="M125.3,1100.5h.7V183h-.7v917.5Z" class="g1_4726"/>
<path d="M182.1,1100.5h.7V141.7h-.7v958.8Z" class="g1_4726"/>
<path d="M432.1,1100.5h.8V141.7h-.8v958.8Z" class="g1_4726"/>
<path d="M525.2,1100.5h.8V141.7h-.8v958.8Z" class="g1_4726"/>
<path d="M851.2,1099.6h.7V142.4h-.7v957.2Z" class="g1_4726"/>
<path d="M68.6,142.4H852v-.7H68.6v.7Z" class="g1_4726"/>
<path d="M68.6,183.7H182.8V183H68.6v.7Z" class="g1_4726"/>
<path d="M68.6,208.2H852v-.8H68.6v.8Z" class="g1_4726"/>
<path d="M68.6,249.4H852v-.7H68.6v.7Z" class="g1_4726"/>
<path d="M68.6,273.8H852v-.7H68.6v.7Z" class="g1_4726"/>
<path d="M68.6,298.3H852v-.7H68.6v.7Z" class="g1_4726"/>
<path d="M68.6,322.8H852V322H68.6v.8Z" class="g1_4726"/>
<path d="M68.6,364H852v-.7H68.6v.7Z" class="g1_4726"/>
<path d="M68.6,388.4H852v-.7H68.6v.7Z" class="g1_4726"/>
<path d="M68.6,412.9H852v-.8H68.6v.8Z" class="g1_4726"/>
<path d="M68.6,437.3H852v-.7H68.6v.7Z" class="g1_4726"/>
<path d="M68.6,478.6H852v-.7H68.6v.7Z" class="g1_4726"/>
<path d="M68.6,503.1H852v-.8H68.6v.8Z" class="g1_4726"/>
<path d="M68.6,527.4H852v-.7H68.6v.7Z" class="g1_4726"/>
<path d="M68.6,551.9H852v-.7H68.6v.7Z" class="g1_4726"/>
<path d="M68.6,593.2H852v-.8H68.6v.8Z" class="g1_4726"/>
<path d="M68.6,617.7H852v-.8H68.6v.8Z" class="g1_4726"/>
<path d="M68.6,642H852v-.7H68.6v.7Z" class="g1_4726"/>
<path d="M68.6,666.5H852v-.7H68.6v.7Z" class="g1_4726"/>
<path d="M68.6,707.8H852V707H68.6v.8Z" class="g1_4726"/>
<path d="M68.6,732.2H852v-.7H68.6v.7Z" class="g1_4726"/>
<path d="M68.6,756.6H852v-.7H68.6v.7Z" class="g1_4726"/>
<path d="M68.6,781.1H852v-.7H68.6v.7Z" class="g1_4726"/>
<path d="M68.6,822.3H852v-.7H68.6v.7Z" class="g1_4726"/>
<path d="M68.6,846.8H852v-.7H68.6v.7Z" class="g1_4726"/>
<path d="M68.6,871.2H852v-.7H68.6v.7Z" class="g1_4726"/>
<path d="M68.6,895.7H852v-.8H68.6v.8Z" class="g1_4726"/>
<path d="M68.6,936.9H852v-.7H68.6v.7Z" class="g1_4726"/>
<path d="M68.6,961.4H852v-.7H68.6v.7Z" class="g1_4726"/>
<path d="M68.6,985.8H852v-.7H68.6v.7Z" class="g1_4726"/>
<path d="M68.6,1010.3H852v-.8H68.6v.8Z" class="g1_4726"/>
<path d="M68.6,1051.5H852v-.7H68.6v.7Z" class="g1_4726"/>
<path d="M68.6,1076H852v-.7H68.6v.7Z" class="g1_4726"/>
<path d="M68.6,1100.4H852v-.8H68.6v.8Z" class="g1_4726"/>
</svg>