<?xml version="1.0" encoding="UTF-8" standalone="no"?>
<!DOCTYPE svg PUBLIC "-//W3C//DTD SVG 1.1//EN"
"http://www.w3.org/Graphics/SVG/1.1/DTD/svg11.dtd">
<svg viewBox="0 0 935 1210" version="1.1" xmlns="http://www.w3.org/2000/svg" xmlns:xlink="http://www.w3.org/1999/xlink">
<defs>
<clipPath id="c0_1461"><path d="M97.3,59.2V41.4h72.1V59.2Z"/></clipPath>
<style type="text/css"><![CDATA[
.g0_1461{
fill: #000;
}
]]></style>
</defs>
<path d="M96.2,62.9v.3H838.7v-.3H96.2Z" class="g0_1461"/>
<path d="M96.2,1114.1h-.1v.4h.1v-.4Z" class="g0_1461"/>
<path d="M838.7,1114.1h.2v.4h-.2v-.4Z" class="g0_1461"/>
<path d="M96.2,1114.1v.4H838.7v-.4H96.2Z" class="g0_1461"/>
<image clip-path="url(#c0_1461)" preserveAspectRatio="none" x="97" y="41" width="72" height="18" xlink:href="img/1.jpg"/>
<path d="M96.6,290.3h-.7V422.8h.7V290.3Z" class="g0_1461"/>
<path d="M137.9,287.2h-.8v93.6h.8V287.2Z" class="g0_1461"/>
<path d="M179.1,287.2h-.7v93.6h.7V287.2Z" class="g0_1461"/>
<path d="M220.4,287.2h-.8v93.6h.8V287.2Z" class="g0_1461"/>
<path d="M261.6,287.2h-.7v93.6h.7V287.2Z" class="g0_1461"/>
<path d="M302.9,287.2h-.8v93.6h.8V287.2Z" class="g0_1461"/>
<path d="M344.1,287.2h-.7v93.6h.7V287.2Z" class="g0_1461"/>
<path d="M385.4,287.2h-.8v93.6h.8V287.2Z" class="g0_1461"/>
<path d="M467.9,287.2h-.8v93.6h.8V287.2Z" class="g0_1461"/>
<path d="M509.1,287.2h-.7v93.6h.7V287.2Z" class="g0_1461"/>
<path d="M550.4,287.2h-.8v93.6h.8V287.2Z" class="g0_1461"/>
<path d="M591.6,287.2h-.7v93.6h.7V287.2Z" class="g0_1461"/>
<path d="M632.9,287.2h-.8v93.6h.8V287.2Z" class="g0_1461"/>
<path d="M674.1,287.2h-.7v93.6h.7V287.2Z" class="g0_1461"/>
<path d="M715.3,287.2h-.7v93.6h.7V287.2Z" class="g0_1461"/>
<path d="M756.6,287.2h-.7v93.6h.7V287.2Z" class="g0_1461"/>
<path d="M797.8,287.2h-.7v93.6h.7V287.2Z" class="g0_1461"/>
<path d="M839.1,290.3h-.7V422.8h.7V290.3Z" class="g0_1461"/>
<path d="M95.9,287.3v3H839.1v-3H95.9Z" class="g0_1461"/>
<path d="M95.9,317.8v3H839.1v-3H95.9Z" class="g0_1461"/>
<path d="M95.9,349.5v.7H839.1v-.7H95.9Z" class="g0_1461"/>
<path d="M95.9,380v.8H839.1V380H95.9Z" class="g0_1461"/>
<path d="M95.9,422.8v.8H839.1v-.8H95.9Z" class="g0_1461"/>
<path d="M96.6,473.6h-.7v538.9h.7V473.6Z" class="g0_1461"/>
<path d="M244.8,470.5h-.7v542.8h.7V470.5Z" class="g0_1461"/>
<path d="M284.5,470.5h-.7v542.8h.7V470.5Z" class="g0_1461"/>
<path d="M338,470.5h-.8v542.8h.8V470.5Z" class="g0_1461"/>
<path d="M415.6,470.5h-.7v542.8h.7V470.5Z" class="g0_1461"/>
<path d="M847,473.6h-.8v538.9h.8V473.6Z" class="g0_1461"/>
<path d="M95.9,470.6v3H847v-3H95.9Z" class="g0_1461"/>
<path d="M95.9,513.4v3H847v-3H95.9Z" class="g0_1461"/>
<path d="M244,554.2v.7H847v-.7H244Z" class="g0_1461"/>
<path d="M244,593.9v.7H847v-.7H244Z" class="g0_1461"/>
<path d="M244,633.7v.7H847v-.7H244Z" class="g0_1461"/>
<path d="M244,688.7v.7H847v-.7H244Z" class="g0_1461"/>
<path d="M244,728.4v.7H847v-.7H244Z" class="g0_1461"/>
<path d="M244,783.4v.7H847v-.7H244Z" class="g0_1461"/>
<path d="M95.9,823.1v.7H847v-.7H95.9Z" class="g0_1461"/>
<path d="M95.9,878.1v.7H847v-.7H95.9Z" class="g0_1461"/>
<path d="M95.9,917.8v.8H847v-.8H95.9Z" class="g0_1461"/>
<path d="M244,957.5v.8H847v-.8H244Z" class="g0_1461"/>
<path d="M95.9,1012.5v.8H847v-.8H95.9Z" class="g0_1461"/>
</svg>