<?xml version="1.0" encoding="UTF-8" standalone="no"?>
<!DOCTYPE svg PUBLIC "-//W3C//DTD SVG 1.1//EN"
"http://www.w3.org/Graphics/SVG/1.1/DTD/svg11.dtd">
<svg viewBox="0 0 935 1210" version="1.1" xmlns="http://www.w3.org/2000/svg" xmlns:xlink="http://www.w3.org/1999/xlink">
<defs>
<style type="text/css"><![CDATA[
.g0_1071{
fill: #FFF;
}
.g1_1071{
fill: #000;
}
]]></style>
</defs>
<path d="M68.9,1149.3H755.2v-21.2H68.9v21.2Z" class="g0_1071"/>
<path d="M771.3,1149.3H855v-21.2H771.3v21.2Z" class="g0_1071"/>
<path d="M69.9,219.6h.8V122.7h-.8v96.9Z" class="g1_1071"/>
<path d="M146.7,220.4h.7V121.8h-.7v98.6Z" class="g1_1071"/>
<path d="M257.4,220.4h.7V121.8h-.7v98.6Z" class="g1_1071"/>
<path d="M403.4,220.4h.8V121.8h-.8v98.6Z" class="g1_1071"/>
<path d="M556.1,220.4h.8V121.8h-.8v98.6Z" class="g1_1071"/>
<path d="M703.9,220.4h.7V121.8h-.7v98.6Z" class="g1_1071"/>
<path d="M851.3,219.6h.7V122.7h-.7v96.9Z" class="g1_1071"/>
<path d="M69.9,122.6H852v-.8H69.9v.8Z" class="g1_1071"/>
<path d="M69.9,147H852v-.7H69.9v.7Z" class="g1_1071"/>
<path d="M69.9,171.5H852v-.7H69.9v.7Z" class="g1_1071"/>
<path d="M69.9,195.9H852v-.7H69.9v.7Z" class="g1_1071"/>
<path d="M69.9,220.4H852v-.8H69.9v.8Z" class="g1_1071"/>
</svg>