<?xml version="1.0" encoding="UTF-8" standalone="no"?>
<!DOCTYPE svg PUBLIC "-//W3C//DTD SVG 1.1//EN"
"http://www.w3.org/Graphics/SVG/1.1/DTD/svg11.dtd">
<svg viewBox="0 0 935 1210" version="1.1" xmlns="http://www.w3.org/2000/svg" xmlns:xlink="http://www.w3.org/1999/xlink">
<defs>
<style type="text/css"><![CDATA[
.g0_776{
fill: #FFF;
}
.g1_776{
fill: #000;
}
]]></style>
</defs>
<path d="M68.8,1149.3H852.5v-21.2H68.8v21.2Z" class="g0_776"/>
<path d="M68.9,657.5H852.2V627.9H68.9v29.6Z" class="g0_776"/>
<path d="M69.9,650.8h53.4V638.5H69.9v12.3Z" class="g0_776"/>
<path d="M68.6,627.6h.7v-372h-.7v372Z" class="g1_776"/>
<path d="M205.4,628.3h.8V254.7h-.8V628.3Z" class="g1_776"/>
<path d="M266.1,628.3h.7V254.7h-.7V628.3Z" class="g1_776"/>
<path d="M851.9,627.6h.7v-372h-.7v372Z" class="g1_776"/>
<path d="M68.5,255.5H852.6v-.8H68.5v.8Z" class="g1_776"/>
<path d="M68.5,279.9H852.6v-.7H68.5v.7Z" class="g1_776"/>
<path d="M68.5,304.4H852.6v-.7H68.5v.7Z" class="g1_776"/>
<path d="M68.5,328.8H852.6v-.7H68.5v.7Z" class="g1_776"/>
<path d="M68.5,370.1H852.6v-.8H68.5v.8Z" class="g1_776"/>
<path d="M68.5,411.4H852.6v-.7H68.5v.7Z" class="g1_776"/>
<path d="M68.5,452.7H852.6v-.8H68.5v.8Z" class="g1_776"/>
<path d="M68.5,493.9H852.6v-.7H68.5v.7Z" class="g1_776"/>
<path d="M68.5,628.3H852.6v-.7H68.5v.7Z" class="g1_776"/>
<path d="M70.9,897.1h.7V758.7h-.7V897.1Z" class="g1_776"/>
<path d="M228.8,897.8h.7V758h-.7V897.8Z" class="g1_776"/>
<path d="M282.1,897.8h.8V758h-.8V897.8Z" class="g1_776"/>
<path d="M849.6,897.1h.7V758.7h-.7V897.1Z" class="g1_776"/>
<path d="M70.8,758.7H850.3V758H70.8v.7Z" class="g1_776"/>
<path d="M70.8,783.2H850.3v-.7H70.8v.7Z" class="g1_776"/>
<path d="M70.8,807.7H850.3v-.8H70.8v.8Z" class="g1_776"/>
<path d="M70.8,848.9H850.3v-.7H70.8v.7Z" class="g1_776"/>
<path d="M70.8,873.3H850.3v-.7H70.8v.7Z" class="g1_776"/>
<path d="M70.8,897.8H850.3V897H70.8v.8Z" class="g1_776"/>
</svg>