<?xml version="1.0" encoding="UTF-8" standalone="no"?>
<!DOCTYPE svg PUBLIC "-//W3C//DTD SVG 1.1//EN"
"http://www.w3.org/Graphics/SVG/1.1/DTD/svg11.dtd">
<svg viewBox="0 0 935 1210" version="1.1" xmlns="http://www.w3.org/2000/svg" xmlns:xlink="http://www.w3.org/1999/xlink">
<defs>
<style type="text/css"><![CDATA[
.g0_3064{
fill: #FFF;
}
.g1_3064{
fill: #000;
}
]]></style>
</defs>
<path d="M68.8,1149.3H852.5v-21.2H68.8v21.2Z" class="g0_3064"/>
<path d="M170.5,689h.7V318.2h-.7V689Z" class="g1_3064"/>
<path d="M749.8,689h.8V318.2h-.8V689Z" class="g1_3064"/>
<path d="M170.5,318.2H750.7v-.8H170.5v.8Z" class="g1_3064"/>
<path d="M170.5,689.7H750.7V689H170.5v.7Z" class="g1_3064"/>
<path d="M274,341.7l-2.2,.2l-1.1,.3h.1l-1,.4l-.9,.4l-.9,.7h-.1l-.8,.5l.1,-.1l-.8,.7l-.8,.9l-.6,.8l.1,-.1l-.5,.9l-.5,.9l-.4,1l-.2,1.1l-.1,1.1l-.1,1.1v-.1v37.1l.1,1.1l.1,1.1v-.1l.2,1.1l.4,1v-.1l.5,.9l.5,.9H265l.6,.9l.8,.8V397l.8,.7l.8,.7h-.1l1,.5l.9,.5v-.1l1,.4h-.1l1.1,.2l2.2,.2h-.1h95.6l1.2,-.1l1.1,-.1h-.1l1,-.2l1,-.4v.1l1,-.5h-.1l.4,.7l-1,.4l-1,.4h-.1l-1,.3l-1.1,.1l-1.2,.1H273.9l-2.2,-.2h-.1l-1.1,-.3l-1,-.4h-.1l-.9,-.4l-.9,-.6v-.1c-1.7,-1.2,-2.7,-2.1,-3.7,-4l-.4,-.9h-.1l-.4,-1v-.1l-.3,-1.1l-.1,-1.1l-.1,-1.1V352.4l.1,-1.1l.1,-1.1v-.1L263,349l.4,-1l.1,-.1l.4,-.9c1.3,-2.7,4.9,-5.4,7.8,-5.8l2.2,-.2Z" class="g1_3064"/>
<path d="M374.6,398.9l.9,-.5l.9,-.7h-.1l.7,-.7v.1l.8,-.8l.6,-.9l.6,-.9l.4,-.9l-.1,.1l.4,-1l.3,-1.1v.1l.1,-1.1V351.3v.1l-.1,-1.1l-.3,-1.1l-.4,-1h.1l-.4,-.9l-.6,-.9v.1l-.6,-.8l-.8,-.9l-.7,-.7l.1,.1l-.9,-.5v-.1l-.9,-.7l.1,.1l-1,-.4l-1,-.4l-1,-.3h.1l-1.1,-.1l-1.2,-.1H273.9h.1l-.1,-.7h95.7l1.2,.1l1.1,.1l1,.3h.1l1,.3v.1l1,.5h.1l.8,.6h-.1l1,.6l.8,.7v.1l.7,.8l.7,.8l.6,1l.4,.9v.1l.4,1l.3,1.1v.1l.2,1.1v39.4c-.4,2.9,-1.3,4.7,-3.3,6.9l-.8,.7v.1l-.9,.6h-.1l-.8,.6Z" class="g1_3064"/>
<path d="M274,448.3l-1.1,.1l-1.1,.2l-1.1,.3h.1l-1,.4l-.9,.4l-1,.6l.1,-.1l-.8,.6l-.8,.8l-.8,.7l-.6,.8l.1,-.1l-.5,.9l-.5,1l-.4,1.1v-.1l-.2,1l-.1,1.1l-.1,1.1V459v50.9l.1,1.1l.1,1.1l.2,1l.4,1l.5,1V515l.5,.9H265l.6,.8v-.1l.8,.8l.8,.7l.8,.6h-.1l1,.6l.9,.4l1,.3h-.1l1.1,.3l1.1,.2h-.1h89.8l1.1,-.2h-.1l1.1,-.3l1,-.3l.9,-.4l.3,.6l-.9,.5l-1,.4h-.1l-1.1,.2l-1.1,.2H272.8l-1.1,-.2h-.1l-1.1,-.2l-1,-.4h-.1l-.9,-.5l-.9,-.5v-.1c-1.5,-1.2,-2.9,-2.2,-3.7,-3.9l-.4,-1.1h-.1l-.4,-1v-.1l-.3,-1l-.1,-1.1l-.1,-1.2V459l.1,-1.1l.1,-1.1v-.1l.3,-1l.4,-1h.1l.4,-1v-.1l.6,-.9l.6,-.9v-.1l.7,-.7h.1l.8,-.7l.9,-.7c1.2,-.8,2.6,-1.5,4.1,-1.7l1.1,-.2l1.1,-.1Z" class="g1_3064"/>
<path d="M366.6,519.3l.9,-.6l.8,-.6l.8,-.7l-.1,.1l.7,-.8l.6,-.8l.6,-.9v.1l.4,-1l.3,-1l.3,-1l.2,-1.1l.1,-1.1V459v.1l-.1,-1.1l-.2,-1.1l-.3,-1v.1l-.3,-1.1l-.4,-1l-.6,-.9v.1l-.6,-.8l-.7,-.7h.1l-.8,-.8l-.8,-.6v.1l-.9,-.6l-.9,-.4h.1l-1.1,-.4l-1.1,-.3h.1l-1.1,-.2l-1.1,-.1H273.9h.1l-.1,-.7h87.7l1.1,.1l1.1,.2l1.1,.3h.1l1,.3v.1l.9,.5c1.9,.9,2.8,1.9,4,3.6h.1l.5,.9v.1l.5,1l.4,1l.2,1v.1l.2,1.1l.1,1.1v50.9l-.1,1.2l-.2,1.1c-.6,3.1,-2.1,5.2,-4.7,7.1v.1l-1,.5Z" class="g1_3064"/>
<path d="M275,610h-1.1h.1l-1.1,.2l-1,.3h.1l-1,.4l-1,.4l-1,.6l.1,-.1l-.8,.6l-1.5,1.5h.1l-.6,.9v-.1l-.6,.9l-.4,1l-.4,1v-.1l-.3,1.1l-.1,1.1l-.1,1.1v-.1v37.1l.1,1.1l.1,1.1v-.1l.3,1l.4,1.1v-.1l.4,.9l.6,1h-.1l.6,.8l.8,.8v-.1l.7,.7l.8,.6H269l1,.5l1,.5v-.1l1,.4h-.1l1,.3l1.1,.1l1.1,.1H275h77.4l1.1,-.1l1.1,-.1h-.1l1.1,-.3l1,-.4l-.1,.1l.9,-.5l.4,.7l-.9,.4l-1,.4h-.1l-1.1,.3l-1.1,.2l-1.1,.1H275c-2,-.1,-3.5,-.5,-5.3,-1.4h-.1l-.9,-.6v-.1c-1.7,-1.2,-2.6,-2,-3.6,-3.9l-.5,-.9l-.4,-1.1v-.1l-.3,-1l-.2,-1.1l-.1,-1.1V620.7l.1,-1.1l.2,-1.1v-.1l.3,-1.1l.4,-1v-.1l.5,-.9l.6,-1l.6,-.9v-.1l1.5,-1.4h.1l.8,-.7l.9,-.5h.1l1,-.5v-.1l1,-.3l1,-.3h.1l1.1,-.2H275Z" class="g1_3064"/>
<path d="M357.4,667.1l.9,-.5l1.7,-1.3l-.1,.1l1.3,-1.6l.5,-1l.5,-.9l-.1,.1l.4,-1.1l.2,-1v.1l.2,-1.1l.1,-1.1V620.7v.1l-.1,-1.1l-.2,-1.1l-.2,-1.1v.1l-.4,-1h.1l-.5,-1l-.5,-.9v.1l-.7,-.9l-.6,-.7h.1l-.8,-.8l-.9,-.6v.1l-.9,-.6l-.9,-.4h.1l-1,-.4l-1.1,-.3h.1l-1.1,-.2H275v-.7h78.6l1.1,.2l1.1,.3h.1l1,.3v.1l.9,.5c1.3,.7,2.4,1.5,3.3,2.7h.1l.6,.9l.6,1l.4,.9v.1l.4,1l.3,1.1v.1l.1,1.1l.1,1.1v37.2l-.1,1.1l-.1,1.1c-.6,2.8,-2.3,5.4,-4.7,7l-.1,.1l-.9,.6Z" class="g1_3064"/>
<path d="M678.9,502l-.1,-2.5v.1l-.3,-2.4l-.4,-2.5l-.4,-2.4l-.7,-2.2l-.8,-2.2h.1l-.9,-2.2l-1.1,-2.2l-1.2,-2.2l-1.3,-2.1v.1l-1.3,-2l-1.6,-1.9l-1.7,-1.9l-1.7,-1.9l-1.8,-1.7h.1l-2.1,-1.7l-2,-1.5l-2.1,-1.6v.1L653,462.5l-2.4,-1.3h.1l-2.4,-1.1c-4.3,-1.9,-8.9,-3.4,-13.4,-4.3l-2.9,-.6h.1l-5.8,-.7l-3,-.2h-6.1l-2.9,.2l-3,.4l-2.8,.3l-2.9,.6l-2.8,.6l-2.8,.7h.1l-5.3,1.9l-.3,-.7v-.1l2.7,-.9c14.3,-5.1,32,-5,46.2,0l2.6,.9v.1l2.5,1.1c9,4,16.6,9.5,22.5,17.4h.1l1.4,2.1c4.3,6.8,6.3,12.5,7,20.6l.1,2.5Z" class="g1_3064"/>
<path d="M594.8,459l-4.9,2.2l-2.4,1.3l-2.4,1.3l-2.2,1.4l.1,-.1l-2.1,1.6c-3.4,2.3,-6.6,5.5,-9.3,8.7l-1.5,1.9h.1l-1.4,2v-.1l-1.3,2.1l-1.2,2.2l-1.1,2.2l-.9,2.2l-.8,2.2l-.7,2.2l-.5,2.4l-.4,2.5l-.2,2.4v-.1l-.1,2.5l.1,2.4l.2,2.5l.4,2.4v-.1l.5,2.4l.7,2.3l.8,2.3l.9,2.3v-.1l1.1,2.1l1.2,2.2l1.3,2l1.4,2h-.1l1.5,1.9l1.7,2v-.1l1.7,1.8l1.9,1.8l1.9,1.6l4.2,3.1h-.1l-.4,.7v-.1l-2.1,-1.6c-7,-5,-12.1,-11.3,-15.8,-19.1l-.9,-2.2h-.1l-.9,-2.3v-.1l-.6,-2.3l-.5,-2.4l-.4,-2.4l-.2,-2.5v-.1l-.1,-2.4c.1,-3.4,.3,-6.6,1.2,-9.8l.6,-2.3l.9,-2.3h.1l.9,-2.2v-.1l1.1,-2.2l1.2,-2.1l1.3,-2.1l1.3,-2l1.6,-2l1.6,-1.9v-.1l1.8,-1.8l1.8,-1.8h.1l1.9,-1.6l4.2,-3.1l2.2,-1.4l2.4,-1.4l2.4,-1.3h.1l5,-2.2Z" class="g1_3064"/>
<path d="M582.9,538.8l2.2,1.5l4.8,2.6l4.9,2.1l2.7,1.1l-.1,-.1l2.7,.8l2.7,.7l2.8,.7l2.9,.5l2.8,.5l3,.2l2.9,.2l3,.1l3.1,-.1l3,-.2l2.9,-.2l2.9,-.5H632l2.9,-.5l2.8,-.7l2.8,-.7l2.6,-.8v.1l2.6,-1.1l2.6,-1.1l2.4,-1l2.3,-1.3l2.3,-1.3l2.3,-1.5l2.1,-1.5l2,-1.6l2.1,-1.6h-.1l1.8,-1.8l1.7,-1.8v.1l1.7,-2l1.6,-1.9l1.3,-2l1.3,-2l1.2,-2.2l1.1,-2.1v.1l.9,-2.3h-.1l.9,-2.3l.7,.2v.1l-.8,2.2l-1,2.3l-1.1,2.1l-1.1,2.2l-1.3,2.1v.1l-1.4,2H671c-19.7,25.7,-59.3,29.8,-86.3,13.7l-2.2,-1.4Z" class="g1_3064"/>
<path d="M677.1,513.9l.6,-2.3l.5,-2.4v.1l.3,-2.4l.3,-2.5l.1,-2.4h.7l-.1,2.4v.1l-.2,2.5l-.4,2.4l-.5,2.4l-.6,2.3Z" class="g1_3064"/>
<path d="M303.3,413h.5v-2.2h-.5V413Z" class="g1_3064"/>
<path d="M304,411.5l-2.3,1.4l-1.8,1l.6,-1.9l2.3,-8.2l.7,-2.5l.7,2.5l2.4,8.2l.6,1.8l-1.7,-.9l-.3,-.5l-2.4,-8.1l1.4,-.5v.5l-2.2,8.1l-1.5,-.4l.4,-.5l2.2,-1.4Z" class="g1_3064"/>
<path d="M305.5,412.9l-2.4,-1.4v-1.4l.4,-.2l.4,.2l2.4,1.4Z" class="g1_3064"/>
<path fill-rule="evenodd" d="M303.5,410.8l-2.3,1.4l2.3,-8.1l2.4,8.1Z" class="g1_3064"/>
<path d="M303.3,413h.5v-.1h-.5v.1Z" class="g1_3064"/>
<path d="M303.3,444h.5V413h-.5v31Z" class="g1_3064"/>
<path d="M339.3,433.8h.5v-2.1h-.5v2.1Z" class="g1_3064"/>
<path d="M339.3,433.1l2.2,-1.3l1.7,-1l-.5,2l-2.3,8.1l-.8,2.5l-.7,-2.5l-2.4,-8.1l-.5,-1.9l1.6,.9l.4,.5l2.4,8.2l-1.5,.4v-.4l2.3,-8.2l1.5,.5l-.4,.4l-2.3,1.3Z" class="g1_3064"/>
<path d="M337.6,431.8l2.4,1.3v1.4l-.4,.2l-.3,-.2l-2.4,-1.3Z" class="g1_3064"/>
<path fill-rule="evenodd" d="M339.6,433.8l2.3,-1.3l-2.3,8.1l-2.4,-8.1Z" class="g1_3064"/>
<path d="M339.4,431.8h.5v-.1h-.5v.1Z" class="g1_3064"/>
<path d="M339.4,431.7h.5V400.2h-.5v31.5Z" class="g1_3064"/>
<path d="M303.3,533.5h.5v-2.1h-.5v2.1Z" class="g1_3064"/>
<path d="M303.9,532l-2.3,1.3l-1.7,1l.6,-1.9l2.3,-8.2l.7,-2.4l.7,2.4l2.4,8.2l.6,1.8l-1.7,-.9l-.3,-.4l-2.4,-8.2l1.4,-.5v.5l-2.2,8.2l-1.5,-.5l.3,-.5l2.3,-1.2Z" class="g1_3064"/>
<path d="M305.5,533.3L303.1,532v-1.3l.4,-.2l.4,.2l2.4,1.2Z" class="g1_3064"/>
<path fill-rule="evenodd" d="M303.5,531.4l-2.3,1.3l2.3,-8.2l2.4,8.2Z" class="g1_3064"/>
<path d="M303.3,533.5h.5v-.2h-.5v.2Z" class="g1_3064"/>
<path d="M303.3,606.7h.5V533.5h-.5v73.2Z" class="g1_3064"/>
<path d="M316.4,600.3h.5v-2.1h-.5v2.1Z" class="g1_3064"/>
<path d="M316.3,599.7l2.2,-1.4l1.8,-1.1l-.6,2l-2.3,8.3l-.7,2.5l-.7,-2.5l-2.4,-8.3l-.6,-1.8l1.7,.9l.4,.5l2.3,8.2l-1.4,.5V607l2.3,-8.2l1.4,.4l-.3,.5l-2.3,1.4Z" class="g1_3064"/>
<path d="M314.7,598.3l2.4,1.4v1.4l-.4,.1l-.4,-.1L314,599.7Z" class="g1_3064"/>
<path fill-rule="evenodd" d="M316.7,600.3L319,599l-2.3,8.2L314.3,599Z" class="g1_3064"/>
<path d="M316.5,598.4h.5v-.2h-.5v.2Z" class="g1_3064"/>
<path d="M316.5,598.2h.5V527.3h-.5v70.9Z" class="g1_3064"/>
<path d="M549.5,472.9v.5l2.2,.1V473Z" class="g1_3064"/>
<path d="M551,473.6l-1.3,-2.4l-.9,-1.9l1.8,.7l8.1,2.7l2.5,.8l-2.5,.7l-8.2,2l-2,.5l1,-1.6l.5,-.4l8.2,-2l.5,1.5h-.5l-8,-2.8l.4,-1.4l.5,.3l1.3,2.5Z" class="g1_3064"/>
<path d="M549.5,475.1l1.5,-2.3h1.4l.2,.4l-.2,.4l-1.5,2.3Z" class="g1_3064"/>
<path fill-rule="evenodd" d="M551.6,473.2l-1.2,-2.5l8,2.8l-8.2,2Z" class="g1_3064"/>
<path d="M385.7,465.9h.2v-.5h-.2v.5Z" class="g1_3064"/>
<path d="M549.5,473.4h.1v-.5h-.1v.5Z" class="g1_3064"/>
<path d="M385.9,465.4v.4l163.6,7.6v-.5Z" class="g1_3064"/>
<path d="M394.2,479v-.5l-2.1,-.1v.5Z" class="g1_3064"/>
<path d="M392.7,478.2l1.3,2.4l.9,1.8l-1.8,-.6L385,479.1l-2.6,-.9l2.6,-.6l8.2,-1.9l2,-.5l-1,1.6l-.5,.3l-8.2,2l-.5,-1.5h.5l8,2.7l-.4,1.5l-.5,-.4l-1.3,-2.3Z" class="g1_3064"/>
<path d="M394.2,476.8l-1.5,2.3h-1.4l-.2,-.4l.2,-.4l1.5,-2.3Z" class="g1_3064"/>
<path fill-rule="evenodd" d="M392.1,478.7l1.2,2.4l-8,-2.8l8.2,-1.9Z" class="g1_3064"/>
<path d="M552,486.5h.2V486H552v.5Z" class="g1_3064"/>
<path d="M394,479.1h.2v-.5H394v.5Z" class="g1_3064"/>
<path d="M552,486.5V486L394.2,478.6v.5Z" class="g1_3064"/>
<path d="M391.1,380.1h2.1v-.4h-2.1v.4Z" class="g1_3064"/>
<path d="M391.7,379.6l1.4,2.4l1,1.6l-2,-.5L384,380.7l-2.5,-.7l2.5,-.8l8.1,-2.4l1.9,-.5l-.9,1.6l-.5,.4l-8.1,2.4l-.5,-1.5h.5l8.1,2.4l-.5,1.5l-.4,-.4l-1.4,-2.4Z" class="g1_3064"/>
<path d="M393.1,377.9l-1.4,2.4h-1.4l-.2,-.3l.2,-.4l1.4,-2.4Z" class="g1_3064"/>
<path fill-rule="evenodd" d="M391.1,380l1.3,2.3L384.3,380l8.1,-2.4Z" class="g1_3064"/>
<path d="M393,380.2h.2v-.4H393v.4Z" class="g1_3064"/>
<path d="M393.2,379.8v.4H514.5l.2,-.4h-.2Z" class="g1_3064"/>
<path d="M593.2,454.8l.2,.1l-.3,.3l-.2,-.1Z" class="g1_3064"/>
<path d="M514.7,379.8l-.3,.3l78.5,75l.3,-.3Z" class="g1_3064"/>
<path d="M605.5,441.2l-.3,.3l1.5,1.4l.3,-.2Z" class="g1_3064"/>
<path d="M606.2,442.6l.6,-2.6l.5,-1.9l1,1.7l4.3,7.3l1.3,2.3l-2.3,-1.2L604,444.3l-1.7,-.9l1.8,-.6l.5,.1l7.6,4l-.6,1.3l-.4,-.3l-4.3,-7.4l1.4,-.7l.1,.7l-.7,2.5Z" class="g1_3064"/>
<path d="M604.1,442.8l2.6,-.8l1,1l-.1,.4l-.4,.1l-2.7,.8Z" class="g1_3064"/>
<path fill-rule="evenodd" d="M606.9,442.7l.7,-2.5l4.3,7.3l-7.6,-3.9Z" class="g1_3064"/>
<path d="M381.6,363h.2v-.5h-.2v.5Z" class="g1_3064"/>
<path d="M381.8,362.5v.5H523.5l.2,-.5h-.2Z" class="g1_3064"/>
<path d="M605.5,441.1l.2,.1l-.2,.4l-.2,-.1Z" class="g1_3064"/>
<path d="M523.7,362.5l-.3,.4l81.9,78.6l.2,-.4Z" class="g1_3064"/>
<path d="M595,563.8l.3,.2l1.5,-1.4l-.2,-.3Z" class="g1_3064"/>
<path d="M596.5,563.1l-2.7,-.8l-1.8,-.7l1.7,-.8l7.7,-3.7l2.4,-1.2l-1.4,2.3l-4.5,7.2l-1.1,1.6l-.3,-1.8l.1,-.6l4.5,-7.3l1.3,.9l-.3,.2l-7.7,3.8l-.7,-1.4h.6l2.6,.8Z" class="g1_3064"/>
<path d="M596.5,565.2l-.6,-2.6l1,-1l.6,.1v.5l.5,2.7Z" class="g1_3064"/>
<path fill-rule="evenodd" d="M596.7,562.4l-2.7,-.8l7.7,-3.8l-4.5,7.2Z" class="g1_3064"/>
<path d="M369.8,635.6h.2v-.4h-.2v.4Z" class="g1_3064"/>
<path d="M370,635.2v.4H517.1l.1,-.1l-.2,-.3Z" class="g1_3064"/>
<path d="M595,563.7l.2,-.1l.3,.3l-.2,.1Z" class="g1_3064"/>
<path d="M516.9,635.2l.3,.3L595.3,564l-.3,-.3Z" class="g1_3064"/>
<path d="M380,649.6h2.1v-.5H380v.5Z" class="g1_3064"/>
<path d="M380.6,648.9l1.4,2.3l1.1,1.7l-2,-.5l-8.3,-2.3l-2.6,-.7l2.6,-.8l8.3,-2.3l1.8,-.6l-.9,1.7l-.5,.3l-8.2,2.4l-.5,-1.5h.5l8.2,2.3l-.4,1.5l-.5,-.4l-1.4,-2.3Z" class="g1_3064"/>
<path d="M382,647.4l-1.4,2.3h-1.4l-.2,-.3l.2,-.4l1.4,-2.4Z" class="g1_3064"/>
<path fill-rule="evenodd" d="M380,649.4l1.3,2.3l-8.2,-2.3l8.2,-2.4Z" class="g1_3064"/>
<path d="M381.9,649.6h.2v-.4h-.2v.4Z" class="g1_3064"/>
<path d="M382.1,649.2v.4H522l-.2,-.4Z" class="g1_3064"/>
<path d="M618.3,561.3l.2,-.1l.3,.4h-.2Z" class="g1_3064"/>
<path d="M521.7,649.2l.2,.4l96.7,-88l-.3,-.3Z" class="g1_3064"/>
<path d="M250.2,370.5h2.1v-.4h-2.1v.4Z" class="g1_3064"/>
<path d="M251.6,370.6l-1.3,-2.4l-1.1,-1.6l2,.5l8.1,2.4l2.6,.7l-2.6,.8l-8.1,2.3l-2,.5l1.1,-1.6l.4,-.4l8.2,-2.3l.4,1.5h-.4l-8.2,-2.4l.5,-1.5l.4,.4l1.4,2.4Z" class="g1_3064"/>
<path d="M250.3,372.2l1.3,-2.3H253l.3,.4l-.3,.4l-1.4,2.3Z" class="g1_3064"/>
<path fill-rule="evenodd" d="M252.3,370.2l-1.4,-2.3l8.1,2.3l-8.1,2.3Z" class="g1_3064"/>
<path d="M233.9,638.5h28.5V638H233.9v.5Z" class="g1_3064"/>
<path d="M233.9,638.2h.5V370.1h-.5V638.2Z" class="g1_3064"/>
<path d="M234.1,370.5h16.2v-.4H234.1v.4Z" class="g1_3064"/>
<path d="M405.4,537.4l-1.1,.1l-1.1,.2l-1.1,.2h.1l-2,.9l-.9,.6l-.8,.5l.1,-.1l-.8,.8l-.7,.8l-.6,.8v-.1l-.5,.9l-.5,1l-.3,1v-.1l-.3,1.1l-.2,1.1l-.1,1.1v-.1v37.1l.1,1.1l.2,1.1v-.1l.3,1.1l.3,1v-.1l.5,.9l.5,1l.6,.8l.7,.8v-.1l.8,.8l.8,.6h-.1l.9,.5l1,.5V595l1,.4h-.1l1.1,.3l2.2,.1h-.1H478l2.2,-.1l1,-.3l1,-.4v.1l1,-.5h-.1l.4,.7l-1.1,.4l-1,.4h-.1l-1,.3l-2.2,.2H405.3c-2.5,-.2,-3,-.2,-5.4,-1.3l-1,-.6v-.1c-1.4,-.9,-2.8,-2.5,-3.5,-4l-.5,-.9h-.1l-.4,-1v-.1l-.2,-1.1l-.2,-1.1l-.1,-1.1V548.1L394,547l.2,-1.1v-.1l.2,-1.1l.4,-1l.1,-.1l.5,-.9l.5,-.9c1.6,-2.6,4.3,-4.2,7.2,-4.8l1.1,-.2l1.1,-.1Z" class="g1_3064"/>
<path d="M483.1,594.6l.9,-.5l.8,-.6l.9,-.8l-.1,.1l1.2,-1.6l.6,-1l.5,-.9l-.1,.1l.3,-1l.3,-1.1v.1l.2,-1.1l.1,-1.1V548.1v.1l-.1,-1.1l-.2,-1.1l-.3,-1.1v.1l-.3,-1h.1l-.5,-1l-.6,-.9v.1l-1.2,-1.6h.1l-.9,-.8v.1l-.8,-.5l-.9,-.6h.1l-2,-.9h.1l-1.1,-.2l-1.1,-.2l-1.1,-.1H405.3h.1l-.1,-.7h72.8l1.1,.1l1.1,.2l1,.2l.1,.1l2.1,.9c1.4,.9,2.3,1.2,3.3,2.7l.6,.9h.1l.5,.9l.5,.9v.1l.4,1l.2,1.1v.1l.2,1.1l.1,1.1v37.2l-.1,1.1l-.2,1.1c-.4,2.7,-2.4,5.6,-4.6,7.1l-.1,.1l-.9,.6Z" class="g1_3064"/>
<path d="M557.5,536.3v.4l2.1,-.2v-.4Z" class="g1_3064"/>
<path d="M559,536.8l-1.6,-2.2l-1.1,-1.7l1.9,.4l8.5,1.7l2.6,.4l-2.4,1l-8,3.1l-1.8,.6l.8,-1.7l.3,-.4l8,-3l.7,1.4h-.5L558,534.8l.2,-1.5l.6,.3l1.6,2.2Z" class="g1_3064"/>
<path d="M557.9,538.5L559,536l1.4,-.2l.1,.4l-.1,.3l-1.1,2.5Z" class="g1_3064"/>
<path fill-rule="evenodd" d="M559.6,536.3l-1.5,-2.2l8.4,1.6l-8,3Z" class="g1_3064"/>
<path d="M499.1,541.5h.2V541h-.2v.5Z" class="g1_3064"/>
<path d="M557.5,536.7h.2v-.4h-.2v.4Z" class="g1_3064"/>
<path d="M499.3,541v.5l58.2,-4.8v-.4Z" class="g1_3064"/>
<path d="M506.5,550.8v-.4l-2.2,.2v.4Z" class="g1_3064"/>
<path d="M505,550.3l1.6,2.2l1.1,1.7l-2,-.4L497.4,552l-2.7,-.5l2.5,-1l8,-2.9L507,547l-.8,1.6l-.4,.5l-8,2.9l-.6,-1.5h.5l8.3,1.8l-.3,1.5l-.5,-.3l-1.6,-2.2Z" class="g1_3064"/>
<path d="M506.2,548.6l-1.2,2.5l-1.4,.2l-.2,-.4l.2,-.4l1.2,-2.5Z" class="g1_3064"/>
<path fill-rule="evenodd" d="M504.3,550.8l1.6,2.2l-8.3,-1.7l7.9,-2.9Z" class="g1_3064"/>
<path d="M583,545h.2v-.5H583v.5Z" class="g1_3064"/>
<path d="M506.3,550.9h.2v-.4h-.2v.4Z" class="g1_3064"/>
<path d="M583,545v-.5l-76.5,6v.4Z" class="g1_3064"/>
<path d="M388.9,535.8l-.4,.3l1.1,1.8l.4,-.3Z" class="g1_3064"/>
<path d="M389.2,537.4l1.3,-2.5l.9,-1.7l.5,1.9l2.4,8.2l.8,2.6l-2,-1.8l-6.4,-5.6l-1.6,-1.4h2l.6,.2l6.4,5.6l-1,1.2l-.3,-.3l-2.4,-8.3l1.5,-.4v.6l-1.3,2.5Z" class="g1_3064"/>
<path d="M387.1,537.1l2.8,-.1l.7,1.2l-.3,.4l-.4,-.1l-2.8,.1Z" class="g1_3064"/>
<path fill-rule="evenodd" d="M389.9,537.7l1.2,-2.5l2.4,8.3l-6.4,-5.7Z" class="g1_3064"/>
<path d="M388.6,536.1l.1,.2l.3,-.3l-.1,-.2Z" class="g1_3064"/>
<path d="M374.3,513.9l-.1,-.2l.3,-.3l.1,.2Z" class="g1_3064"/>
<path d="M388.6,536.1l.3,-.3L374.6,513.6l-.3,.3Z" class="g1_3064"/>
<path d="M371,532.4l.4,-.3l-1.1,-1.7l-.4,.3Z" class="g1_3064"/>
<path d="M370.8,530.8l-1.3,2.4l-.9,1.9l-.6,-2l-2.3,-8.2l-.7,-2.6l1.9,1.8l6.4,5.7l1.4,1.3l-1.9,.1l-.5,-.2l-6.4,-5.8l1,-1.1l.3,.4l2.3,8.3l-1.5,.3v-.6l1.3,-2.4Z" class="g1_3064"/>
<path d="M372.8,531.2l-2.7,.1l-.8,-1.2l.3,-.4h3.1Z" class="g1_3064"/>
<path fill-rule="evenodd" d="M370.1,530.6l-1.3,2.3l-2.3,-8.2l6.3,5.8Z" class="g1_3064"/>
<path d="M371.3,532.2V532l-.4,.3l.1,.2Z" class="g1_3064"/>
<path d="M389.5,561.7l.1,.2l-.4,.3l-.1,-.2Z" class="g1_3064"/>
<path d="M371.3,532.2l-.3,.3L389.1,562l.4,-.3Z" class="g1_3064"/>
</svg>