<?xml version="1.0" encoding="UTF-8" standalone="no"?>
<!DOCTYPE svg PUBLIC "-//W3C//DTD SVG 1.1//EN"
"http://www.w3.org/Graphics/SVG/1.1/DTD/svg11.dtd">
<svg viewBox="0 0 935 1210" version="1.1" xmlns="http://www.w3.org/2000/svg" xmlns:xlink="http://www.w3.org/1999/xlink">
<defs>
<clipPath id="c0_1340"><path d="M766.6,59.2V41.4h72.1V59.2Z"/></clipPath>
<clipPath id="c1_1340"><path d="M96.2,196V178.2H838.7V196Z"/></clipPath>
<style type="text/css"><![CDATA[
.g0_1340{
fill: #000;
}
]]></style>
</defs>
<path d="M97.3,62.9v.3H839.9v-.3H97.3Z" class="g0_1340"/>
<path d="M96.2,1114.1h-.1v.4h.1v-.4Z" class="g0_1340"/>
<path d="M838.7,1114.1h.2v.4h-.2v-.4Z" class="g0_1340"/>
<path d="M96.2,1114.1v.4H838.7v-.4H96.2Z" class="g0_1340"/>
<image clip-path="url(#c0_1340)" preserveAspectRatio="none" x="767" y="41" width="72" height="18" xlink:href="img/1.jpg"/>
<g clip-path="url(#c1_1340)">
<path d="M96.2,179.3h-.1v.4h.1v-.4Z" class="g0_1340"/>
<path d="M838.7,179.3h.2v.4h-.2v-.4Z" class="g0_1340"/>
<path d="M96.2,179.3v.4H838.7v-.4H96.2Z" class="g0_1340"/>
</g>
<path d="M96.6,545.2h-.7v509.6h.7V545.2Z" class="g0_1340"/>
<path d="M311.6,544.5h-.8v511h.8v-511Z" class="g0_1340"/>
<path d="M526.4,544.5h-.7v511h.7v-511Z" class="g0_1340"/>
<path d="M690.2,544.5h-.7v511h.7v-511Z" class="g0_1340"/>
<path d="M839.1,545.2h-.7v509.6h.7V545.2Z" class="g0_1340"/>
<path d="M95.9,544.5v.7H839.1v-.7H95.9Z" class="g0_1340"/>
<path d="M95.9,569v.7H839.1V569H95.9Z" class="g0_1340"/>
<path d="M95.9,593.3v.8H839.1v-.8H95.9Z" class="g0_1340"/>
<path d="M95.9,633.1v.8H839.1v-.8H95.9Z" class="g0_1340"/>
<path d="M95.9,672.8v.7H839.1v-.7H95.9Z" class="g0_1340"/>
<path d="M95.9,697.3v.7H839.1v-.7H95.9Z" class="g0_1340"/>
<path d="M95.9,721.7v.7H839.1v-.7H95.9Z" class="g0_1340"/>
<path d="M95.9,746.1v.8H839.1v-.8H95.9Z" class="g0_1340"/>
<path d="M95.9,770.6v.8H839.1v-.8H95.9Z" class="g0_1340"/>
<path d="M95.9,795v.7H839.1V795H95.9Z" class="g0_1340"/>
<path d="M95.9,819.5v.7H839.1v-.7H95.9Z" class="g0_1340"/>
<path d="M95.9,844v.7H839.1V844H95.9Z" class="g0_1340"/>
<path d="M95.9,868.3v.8H839.1v-.8H95.9Z" class="g0_1340"/>
<path d="M95.9,892.8v.7H839.1v-.7H95.9Z" class="g0_1340"/>
<path d="M95.9,917.3v.7H839.1v-.7H95.9Z" class="g0_1340"/>
<path d="M95.9,957v.7H839.1V957H95.9Z" class="g0_1340"/>
<path d="M95.9,981.4v.8H839.1v-.8H95.9Z" class="g0_1340"/>
<path d="M95.9,1005.8v.8H839.1v-.8H95.9Z" class="g0_1340"/>
<path d="M95.9,1030.3v.7H839.1v-.7H95.9Z" class="g0_1340"/>
<path d="M95.9,1054.8v.7H839.1v-.7H95.9Z" class="g0_1340"/>
</svg>