<?xml version="1.0" encoding="UTF-8" standalone="no"?>
<!DOCTYPE svg PUBLIC "-//W3C//DTD SVG 1.1//EN"
"http://www.w3.org/Graphics/SVG/1.1/DTD/svg11.dtd">
<svg viewBox="0 0 935 1210" version="1.1" xmlns="http://www.w3.org/2000/svg" xmlns:xlink="http://www.w3.org/1999/xlink">
<defs>
<style type="text/css"><![CDATA[
.g0_3186{
fill: #FFF;
}
.g1_3186{
fill: #000;
}
]]></style>
</defs>
<path d="M68.8,1149.3H852.5v-21.2H68.8v21.2Z" class="g0_3186"/>
<path d="M68.9,1064.9v-.7Z" class="g1_3186"/>
<path d="M68.9,1064.9H289.3v-.7H68.9v.7Z" class="g1_3186"/>
<path d="M69.9,696.3h.8V631.4h-.8v64.9Z" class="g1_3186"/>
<path d="M164.9,697h.7V630.6h-.7V697Z" class="g1_3186"/>
<path d="M297.1,697h.7V630.6h-.7V697Z" class="g1_3186"/>
<path d="M418.5,697h.7V630.6h-.7V697Z" class="g1_3186"/>
<path d="M508.8,697h.8V630.6h-.8V697Z" class="g1_3186"/>
<path d="M634.8,697h.7V630.6h-.7V697Z" class="g1_3186"/>
<path d="M723.2,697h.8V630.6h-.8V697Z" class="g1_3186"/>
<path d="M850.5,696.3h.7V631.4h-.7v64.9Z" class="g1_3186"/>
<path d="M69.9,631.4H851.2v-.7H69.9v.7Z" class="g1_3186"/>
<path d="M69.9,655.8H851.2v-.7H69.9v.7Z" class="g1_3186"/>
<path d="M69.9,697H851.2v-.7H69.9v.7Z" class="g1_3186"/>
</svg>