<?xml version="1.0" encoding="UTF-8" standalone="no"?>
<!DOCTYPE svg PUBLIC "-//W3C//DTD SVG 1.1//EN"
"http://www.w3.org/Graphics/SVG/1.1/DTD/svg11.dtd">
<svg viewBox="0 0 935 1210" version="1.1" xmlns="http://www.w3.org/2000/svg" xmlns:xlink="http://www.w3.org/1999/xlink">
<defs>
<style type="text/css"><![CDATA[
.g0_1074{
fill: #FFF;
}
.g1_1074{
fill: #000;
}
]]></style>
</defs>
<path d="M165,1149.3H852.5v-21.2H165v21.2Z" class="g0_1074"/>
<path d="M68.8,1149.3h82.5v-21.2H68.8v21.2Z" class="g0_1074"/>
<path d="M68.6,517.6h.7V125.7h-.7V517.6Z" class="g1_1074"/>
<path d="M299.4,518.3h.7V124.9h-.7V518.3Z" class="g1_1074"/>
<path d="M360.3,518.3h.8V124.9h-.8V518.3Z" class="g1_1074"/>
<path d="M433.7,518.3h.7V124.9h-.7V518.3Z" class="g1_1074"/>
<path d="M558.4,518.3h.8V124.9h-.8V518.3Z" class="g1_1074"/>
<path d="M849.8,517.6h.7V125.7h-.7V517.6Z" class="g1_1074"/>
<path d="M68.6,125.7H850.5v-.8H68.6v.8Z" class="g1_1074"/>
<path d="M68.6,179.1H850.5v-.7H68.6v.7Z" class="g1_1074"/>
<path d="M68.6,235.7H850.5v-.8H68.6v.8Z" class="g1_1074"/>
<path d="M68.6,292.1H850.5v-.7H68.6v.7Z" class="g1_1074"/>
<path d="M68.6,348.7H850.5V348H68.6v.7Z" class="g1_1074"/>
<path d="M68.6,405.3H850.5v-.8H68.6v.8Z" class="g1_1074"/>
<path d="M68.6,461.8H850.5v-.7H68.6v.7Z" class="g1_1074"/>
<path d="M68.6,518.3H850.5v-.7H68.6v.7Z" class="g1_1074"/>
<path d="M68.6,670.4h.7V573.3h-.7v97.1Z" class="g1_1074"/>
<path d="M130.8,671.1h.7V572.6h-.7v98.5Z" class="g1_1074"/>
<path d="M203.2,671.1h.8V572.6h-.8v98.5Z" class="g1_1074"/>
<path d="M351.1,671.1h.7V572.6h-.7v98.5Z" class="g1_1074"/>
<path d="M518.8,671.1h.8V572.6h-.8v98.5Z" class="g1_1074"/>
<path d="M685.3,671.1h.7V572.6h-.7v98.5Z" class="g1_1074"/>
<path d="M849.8,670.4h.7V573.3h-.7v97.1Z" class="g1_1074"/>
<path d="M68.6,573.3h782v-.7H68.6v.7Z" class="g1_1074"/>
<path d="M68.6,597.8h782V597H68.6v.8Z" class="g1_1074"/>
<path d="M68.6,622.2h782v-.7H68.6v.7Z" class="g1_1074"/>
<path d="M68.6,646.6h782v-.7H68.6v.7Z" class="g1_1074"/>
<path d="M68.6,671.1h782v-.7H68.6v.7Z" class="g1_1074"/>
</svg>