<?xml version="1.0" encoding="UTF-8" standalone="no"?>
<!DOCTYPE svg PUBLIC "-//W3C//DTD SVG 1.1//EN"
"http://www.w3.org/Graphics/SVG/1.1/DTD/svg11.dtd">
<svg viewBox="0 0 935 1210" version="1.1" xmlns="http://www.w3.org/2000/svg" xmlns:xlink="http://www.w3.org/1999/xlink">
<defs>
<style type="text/css"><![CDATA[
.g0_188{
fill: #FFF;
}
.g1_188{
fill: #000;
}
]]></style>
</defs>
<path d="M68.8,1149.3H852.5v-21.2H68.8v21.2Z" class="g0_188"/>
<path d="M170.5,1041.5h.7V594.7h-.7v446.8Z" class="g1_188"/>
<path d="M749.8,1041.5h.8V594.7h-.8v446.8Z" class="g1_188"/>
<path d="M170.5,594.7H750.7V594H170.5v.7Z" class="g1_188"/>
<path d="M170.5,1042.3H750.7v-.8H170.5v.8Z" class="g1_188"/>
<path d="M445.4,718.7h2.1v-.5h-2.1v.5Z" class="g1_188"/>
<path d="M446.9,718.8l-1.4,-2.4l-1,-1.7l1.9,.6l8.3,2.4l2.6,.7l-2.6,.7l-8.3,2.3l-1.9,.6l1,-1.7l.5,-.4l8.2,-2.2l.5,1.4h-.5L446,716.7l.4,-1.4l.5,.3l1.3,2.4Z" class="g1_188"/>
<path d="M445.5,720.3l1.4,-2.3h1.3l.3,.5l-.3,.4l-1.3,2.2Z" class="g1_188"/>
<path fill-rule="evenodd" d="M447.5,718.4L446.1,716l8.3,2.4l-8.3,2.3Z" class="g1_188"/>
<path d="M431.3,718.7h.2v-.5h-.2v.5Z" class="g1_188"/>
<path d="M431.5,718.7h14.1v-.5H431.5v.5Z" class="g1_188"/>
<path d="M575,960.9h.5v-2.2H575v2.2Z" class="g1_188"/>
<path d="M574.8,960.2l2.3,-1.4l1.8,-1l-.6,2l-2.3,8.1l-.7,2.5l-.7,-2.5l-2.4,-8.1l-.6,-1.8l1.7,.9l.4,.5l2.3,8.1l-1.4,.4v-.4l2.3,-8.2l1.4,.5l-.3,.4l-2.3,1.4Z" class="g1_188"/>
<path d="M573.3,958.9l2.4,1.3v1.4l-.4,.2l-.4,-.2l-2.4,-1.3Z" class="g1_188"/>
<path fill-rule="evenodd" d="M575.3,960.9l2.3,-1.4l-2.3,8.1l-2.4,-8Z" class="g1_188"/>
<path d="M529.6,655.1h.2v-.4h-.2v.4Z" class="g1_188"/>
<path d="M529.8,654.7l1.1,.1h.1l1.2,.2l1.1,.6h.1l1.1,.6l1.2,1l1.1,1v.1l2.2,2.6l2.1,3.4l2.2,4h.1l2,4.8l2.1,5.4l1.9,6.1v.1l2.1,6.6l1.8,7.3l1.8,7.9l3.5,17.4c7,38.5,10.4,77.1,13.1,116.1l1.6,28l1.2,29.2H574L572.8,868l-1.5,-28l-2.1,-26.5L567,788.4v.1l-2.6,-23.4c-4.5,-30.6,-8.8,-67.7,-21.5,-96.6l-2.2,-4v.1l-2.1,-3.4l-2.2,-2.7h.1l-1.1,-1l-1.2,-.9l-1.1,-.6l-1.1,-.6l.1,.1l-1.2,-.3l-1.1,-.1Z" class="g1_188"/>
<path d="M574.5,897.2l.7,30.3h-.5L574,897.2Z" class="g1_188"/>
<path d="M575.1,958.9h.5v-.2h-.5v.2Z" class="g1_188"/>
<path d="M575.2,927.5h-.4l.3,31.2h.5Z" class="g1_188"/>
<path d="M633.5,693.7l-.4,.1l.4,2.1l.5,-.1Z" class="g1_188"/>
<path d="M633.2,695.3l2.1,-1.9l1.3,-1.3l-.1,1.9l-.3,8.5l-.1,2.7l-1.3,-2.3l-4.2,-7.3l-1,-1.7l1.8,.5l.5,.3l4.2,7.4l-1.3,.8l-.1,-.5l.4,-8.5l1.4,.1l-.1,.6l-2.1,1.9Z" class="g1_188"/>
<path d="M631.4,694.4l2.6,.7l.3,1.4l-.3,.3l-.4,-.1l-2.6,-.8Z" class="g1_188"/>
<path fill-rule="evenodd" d="M633.8,695.8l2,-1.9l-.4,8.5l-4.2,-7.3Z" class="g1_188"/>
<path d="M528.8,655.7h.2v-.5h-.2v.5Z" class="g1_188"/>
<path d="M529,655.2l9.5,.2c25.5,.8,77.4,7.8,92.3,31.8l1.2,2.1l-.4,.2l-1.2,-2.1v.1l-1.4,-2l-1.5,-2l-1.9,-2h.1l-1.9,-1.8l-2.2,-1.8l-2.4,-1.8l-2.6,-1.6L611,671.4v.1l-6.3,-3L597.9,666l-7.4,-2.4h.1l-7.9,-2c-14.5,-3.5,-29.2,-5,-44.2,-5.7l-9.5,-.2Z" class="g1_188"/>
<path d="M632,689.3l1,2.1v.1l-.5,.1l-.9,-2.1Z" class="g1_188"/>
<path d="M633.6,693.7v.2l-.5,.1v-.2Z" class="g1_188"/>
<path d="M633,691.5l-.5,.1l.6,2.2l.5,-.1Z" class="g1_188"/>
<path d="M298.7,721.5h.2v-.4h-.2v.4Z" class="g1_188"/>
<path d="M298.9,721.5h21.4v-.4H298.9v.4Z" class="g1_188"/>
<path d="M193,1030h.1v-.5H193v.5Z" class="g1_188"/>
<path d="M193.1,1030H703.8v-.5H193.1v.5Z" class="g1_188"/>
<path d="M193,941.7h.1v-.5H193v.5Z" class="g1_188"/>
<path d="M193.1,941.7H703.5v-.5H193.1v.5Z" class="g1_188"/>
<path d="M193,853.5h.1v-.4H193v.4Z" class="g1_188"/>
<path d="M193.1,853.5H703.5v-.4H193.1v.4Z" class="g1_188"/>
<path d="M193,765.3h.1v-.4H193v.4Z" class="g1_188"/>
<path d="M193.1,765.3H703.5v-.4H193.1v.4Z" class="g1_188"/>
<path d="M193,676.9h.1v-.5H193v.5Z" class="g1_188"/>
<path d="M193.1,676.9H703.5v-.5H193.1v.5Z" class="g1_188"/>
<path d="M193.1,761h16.5V740.4H193.1V761Z" class="g1_188"/>
<path d="M193.1,740.5h16.5v-.2H193.1v.2Z" class="g1_188"/>
<path d="M209.5,761.1h.1V740.4h-.1v20.7Z" class="g1_188"/>
<path d="M193.1,761.1h16.5v-.2H193.1v.2Z" class="g1_188"/>
<path d="M193.1,761h.1V740.3h-.1V761Z" class="g1_188"/>
<path d="M193.1,849.3h16.5V828.7H193.1v20.6Z" class="g1_188"/>
<path d="M193.1,828.8h16.5v-.2H193.1v.2Z" class="g1_188"/>
<path d="M209.5,849.4h.1V828.7h-.1v20.7Z" class="g1_188"/>
<path d="M193.1,849.4h16.5v-.2H193.1v.2Z" class="g1_188"/>
<path d="M193.1,849.3h.1V828.6h-.1v20.7Z" class="g1_188"/>
<path d="M193.1,937.1h16.4V916.5H193.1v20.6Z" class="g1_188"/>
<path d="M193.1,916.6h16.5v-.2H193.1v.2Z" class="g1_188"/>
<path d="M209.4,937.2h.1V916.5h-.1v20.7Z" class="g1_188"/>
<path d="M193,937.2h16.5V937H193v.2Z" class="g1_188"/>
<path d="M193,937.1h.1V916.4H193v20.7Z" class="g1_188"/>
<path d="M193.1,1024.9h16.4v-20.6H193.1v20.6Z" class="g1_188"/>
<path d="M193.1,1004.4h16.5v-.2H193.1v.2Z" class="g1_188"/>
<path d="M209.4,1025h.1v-20.7h-.1V1025Z" class="g1_188"/>
<path d="M193,1025h16.5v-.2H193v.2Z" class="g1_188"/>
<path d="M193,1024.9h.1v-20.7H193v20.7Z" class="g1_188"/>
<path d="M487.9,981.9H490v-.4h-2.1v.4Z" class="g1_188"/>
<path d="M489.3,982.1l-1.4,-2.3l-1.1,-1.7l2.1,.5l8.2,2.3l2.6,.8l-2.6,.7l-8.2,2.4l-1.9,.5l.9,-1.6l.5,-.4l8.2,-2.4l.5,1.5h-.5l-8.2,-2.3l.5,-1.5l.4,.4l1.4,2.3Z" class="g1_188"/>
<path d="M487.9,983.7l1.4,-2.4h1.4l.2,.4l-.2,.3l-1.4,2.4Z" class="g1_188"/>
<path fill-rule="evenodd" d="M490,981.7l-1.4,-2.3l8.2,2.3l-8.2,2.3Z" class="g1_188"/>
<path d="M483.2,981.9h.2v-.4h-.2v.4Z" class="g1_188"/>
<path d="M483.4,981.9H488v-.4h-4.6v.4Z" class="g1_188"/>
<path d="M632.3,957.7h69.1V957H632.3v.7Z" class="g1_188"/>
<path d="M700.7,1005.3h.7V957.4h-.7v47.9Z" class="g1_188"/>
<path d="M632,1005.3h69.1v-.7H632v.7Z" class="g1_188"/>
<path d="M632,1004.9h.7V957H632v47.9Z" class="g1_188"/>
<path d="M620.2,981.9h2.2v-.4h-2.2v.4Z" class="g1_188"/>
<path d="M621.8,982.1l-1.4,-2.3l-1,-1.7l1.9,.5l8.2,2.3l2.5,.8l-2.5,.7l-8.2,2.4l-1.8,.5l.9,-1.6l.5,-.4l8.1,-2.4l.5,1.5H629l-8.1,-2.3l.4,-1.5l.5,.4l1.4,2.3Z" class="g1_188"/>
<path d="M620.4,983.7l1.4,-2.4h1.3l.2,.4l-.2,.3l-1.3,2.4Z" class="g1_188"/>
<path fill-rule="evenodd" d="M622.4,981.7L621,979.4l8.2,2.3L621,984Z" class="g1_188"/>
<path d="M611.7,981.9h.2v-.4h-.2v.4Z" class="g1_188"/>
<path d="M611.9,981.9h8.5v-.4h-8.5v.4Z" class="g1_188"/>
<path d="M440.4,945.5H461v-7.7H440.4v7.7Z" class="g0_188"/>
<path d="M668.6,735.1h.5v-.2h-.5v.2Z" class="g1_188"/>
<path d="M668.5,741.1h.5v-.2h-.5v.2Z" class="g1_188"/>
<path d="M669.1,735.1h-.5l-.1,5.8h.5Z" class="g1_188"/>
<path d="M668.4,750.2h.5V750h-.5v.2Z" class="g1_188"/>
<path d="M668.3,761.8h.5v-.2h-.5v.2Z" class="g1_188"/>
<path fill-rule="evenodd" d="M668.9,750.2h-.5l-.1,11.4h.5Z" class="g1_188"/>
<path d="M668.2,770.8h.4v-.2h-.4v.2Z" class="g1_188"/>
<path d="M668.1,782.4h.4v-.2h-.4v.2Z" class="g1_188"/>
<path fill-rule="evenodd" d="M668.6,770.8h-.4l-.1,11.4h.4Z" class="g1_188"/>
<path d="M668,791.5h.4v-.2H668v.2Z" class="g1_188"/>
<path d="M667.8,802.9h.4v-.2h-.4v.2Z" class="g1_188"/>
<path fill-rule="evenodd" d="M668.4,791.5H668l-.2,11.2h.4Z" class="g1_188"/>
<path d="M667.7,812.1h.5v-.2h-.5v.2Z" class="g1_188"/>
<path d="M667.6,823.5h.5v-.1h-.5v.1Z" class="g1_188"/>
<path fill-rule="evenodd" d="M668.2,812.1h-.5l-.1,11.3h.5Z" class="g1_188"/>
<path d="M667.5,832.6h.5v-.2h-.5v.2Z" class="g1_188"/>
<path d="M667.3,844.2h.5V844h-.5v.2Z" class="g1_188"/>
<path fill-rule="evenodd" d="M668,832.6h-.5l-.2,11.4h.5Z" class="g1_188"/>
<path d="M667.2,853.2h.5V853h-.5v.2Z" class="g1_188"/>
<path d="M667.1,864.7h.5v-.2h-.5v.2Z" class="g1_188"/>
<path fill-rule="evenodd" d="M667.7,853.2h-.5v11.3h.4Z" class="g1_188"/>
<path d="M667,873.9h.4v-.2H667v.2Z" class="g1_188"/>
<path d="M666.9,885.3h.4v-.2h-.4v.2Z" class="g1_188"/>
<path fill-rule="evenodd" d="M667.4,873.9H667l-.1,11.2h.4Z" class="g1_188"/>
<path d="M666.8,894.4h.4v-.2h-.4v.2Z" class="g1_188"/>
<path d="M666.6,905.9h.5v-.1h-.5v.1Z" class="g1_188"/>
<path fill-rule="evenodd" d="M667.2,894.4h-.4l-.2,11.4h.5Z" class="g1_188"/>
<path d="M666.5,915h.5v-.2h-.5v.2Z" class="g1_188"/>
<path d="M666.4,926.6h.5v-.2h-.5v.2Z" class="g1_188"/>
<path fill-rule="evenodd" d="M667,915h-.5l-.1,11.4h.5Z" class="g1_188"/>
<path d="M666.3,935.6h.5v-.1h-.5v.1Z" class="g1_188"/>
<path d="M666.2,941.7h.5v-.2h-.5v.2Z" class="g1_188"/>
<path d="M666.8,935.6h-.5l-.1,5.9h.5Z" class="g1_188"/>
<path d="M660.7,936l-.2,-.2l-.5,.6l.3,.2Z" class="g1_188"/>
<path d="M672.2,945.9l.3,.2l-.5,.5l-.3,-.1Z" class="g1_188"/>
<path d="M660.7,936l-.4,.6l11.4,9.9l.5,-.6Z" class="g1_188"/>
<path d="M672.2,936.6l.3,-.2l-.5,-.6l-.3,.2Z" class="g1_188"/>
<path d="M660.7,946.5l-.2,.1l-.5,-.5l.3,-.2Z" class="g1_188"/>
<path d="M672.2,936.6l-.5,-.6l-11.4,9.9l.4,.6Z" class="g1_188"/>
<path d="M578.1,708H691v-.7H578.1v.7Z" class="g1_188"/>
<path d="M690.2,734.8h.8V707.7h-.8v27.1Z" class="g1_188"/>
<path d="M577.8,734.8H690.6v-.7H577.8v.7Z" class="g1_188"/>
<path d="M577.8,734.4h.7V707.3h-.7v27.1Z" class="g1_188"/>
<path d="M649.9,721.9h41.3v-.8H649.9v.8Z" class="g1_188"/>
<path d="M649.9,734.4h.8V721.5h-.8v12.9Z" class="g1_188"/>
<path d="M499.8,969.4H612.6v-.8H499.8v.8Z" class="g1_188"/>
<path d="M611.9,996.1h.7V969h-.7v27.1Z" class="g1_188"/>
<path d="M499.4,996.1H612.2v-.7H499.4v.7Z" class="g1_188"/>
<path d="M499.4,995.8h.7V968.6h-.7v27.2Z" class="g1_188"/>
<path d="M571.6,983.2h41.3v-.7H571.6v.7Z" class="g1_188"/>
<path d="M571.6,995.8h.8v-13h-.8v13Z" class="g1_188"/>
<path d="M319.1,708.1H431.9v-.7H319.1v.7Z" class="g1_188"/>
<path d="M431.2,734.9h.7V707.8h-.7v27.1Z" class="g1_188"/>
<path d="M318.7,734.9H431.6v-.7H318.7v.7Z" class="g1_188"/>
<path d="M318.7,734.5h.8V707.4h-.8v27.1Z" class="g1_188"/>
<path d="M390.9,722h41.2v-.8H390.9v.8Z" class="g1_188"/>
<path d="M390.9,734.5h.7V721.6h-.7v12.9Z" class="g1_188"/>
<path d="M230.7,696h69.1v-.7H230.7v.7Z" class="g1_188"/>
<path d="M299.1,743.6h.7V695.7h-.7v47.9Z" class="g1_188"/>
<path d="M230.4,743.6h69.1v-.7H230.4v.7Z" class="g1_188"/>
<path d="M230.4,743.2h.7V695.3h-.7v47.9Z" class="g1_188"/>
<path d="M230.9,726.6h45.8v-.8H230.9v.8Z" class="g1_188"/>
<path d="M276,742.6h.7V726.2H276v16.4Z" class="g1_188"/>
<path d="M413,955.3h69.2v-.8H413v.8Z" class="g1_188"/>
<path d="M481.4,1002.8h.8V954.9h-.8v47.9Z" class="g1_188"/>
<path d="M412.7,1002.8h69.1v-.7H412.7v.7Z" class="g1_188"/>
<path d="M412.7,1002.5h.7v-48h-.7v48Z" class="g1_188"/>
<path d="M413.5,986.4h45.8v-.7H413.5v.7Z" class="g1_188"/>
<path d="M458.6,1002.5h.7V986.1h-.7v16.4Z" class="g1_188"/>
<path d="M457.2,701.7h69.1V701H457.2v.7Z" class="g1_188"/>
<path d="M525.6,749.3h.7v-48h-.7v48Z" class="g1_188"/>
<path d="M456.9,749.3H526v-.7H456.9v.7Z" class="g1_188"/>
<path d="M456.9,748.9h.7V701h-.7v47.9Z" class="g1_188"/>
<path d="M457.1,732.6H503v-.7H457.1v.7Z" class="g1_188"/>
<path d="M502.2,748.6h.8V732.2h-.8v16.4Z" class="g1_188"/>
<path d="M538.5,947.7h20.7V933.2H538.5v14.5Z" class="g0_188"/>
<path d="M440.4,856.8H461v-7.7H440.4v7.7Z" class="g0_188"/>
<path d="M481.6,769h20.6v-7.7H481.6V769Z" class="g0_188"/>
<path d="M450.4,947h.4v-2.1h-.4V947Z" class="g1_188"/>
<path d="M450.3,946.4l2.4,-1.4l1.6,-1l-.5,1.9l-2.4,8.3l-.8,2.6l-.7,-2.6l-2.3,-8.3l-.5,-1.9l1.6,1l.4,.5l2.3,8.2l-1.5,.5v-.5l2.4,-8.2l1.5,.4l-.4,.5l-2.4,1.3Z" class="g1_188"/>
<path d="M448.7,945l2.3,1.4v1.3l-.5,.3l-.3,-.3l-2.3,-1.3Z" class="g1_188"/>
<path fill-rule="evenodd" d="M450.6,947l2.4,-1.4l-2.4,8.3l-2.3,-8.3Z" class="g1_188"/>
<path d="M491.2,814.4h.4V749.2h-.4v65.2Z" class="g1_188"/>
<path d="M450.4,814.4h40.9v-.5H450.4v.5Z" class="g1_188"/>
<path d="M450.4,945.1h.5v-131h-.5v131Z" class="g1_188"/>
<path d="M538.9,856.1h20.6v-7.7H538.9v7.7Z" class="g0_188"/>
<path d="M537.4,769H558v-7.7H537.4V769Z" class="g0_188"/>
<path d="M658.1,769h20.6v-7.7H658.1V769Z" class="g0_188"/>
<path d="M657.3,856.1H678v-7.7H657.3v7.7Z" class="g0_188"/>
<path d="M571,721.2h6.5v-.7H571v.7Z" class="g1_188"/>
<path d="M548.2,721.2h6.5v-.7h-6.5v.7Z" class="g1_188"/>
<path d="M548.2,727h.7v-6.1h-.7V727Z" class="g1_188"/>
<path d="M548.2,749.2h.7V736.5h-.7v12.7Z" class="g1_188"/>
<path d="M548.2,771.3h.7V758.7h-.7v12.6Z" class="g1_188"/>
<path d="M548.2,793.5h.7V780.9h-.7v12.6Z" class="g1_188"/>
<path d="M548.2,815.7h.7V803.1h-.7v12.6Z" class="g1_188"/>
<path d="M548.2,837.8h.7V825.2h-.7v12.6Z" class="g1_188"/>
<path d="M548.2,860h.7V847.4h-.7V860Z" class="g1_188"/>
<path d="M548.2,882.2h.7V869.6h-.7v12.6Z" class="g1_188"/>
<path d="M548.2,904.4h.7V891.7h-.7v12.7Z" class="g1_188"/>
<path d="M548.2,926.5h.7V913.9h-.7v12.6Z" class="g1_188"/>
<path d="M548.2,948.7h.7V936.1h-.7v12.6Z" class="g1_188"/>
<path d="M548.2,964.7h.7v-6.4h-.7v6.4Z" class="g1_188"/>
<path d="M542.5,964.7h6V964h-6v.7Z" class="g1_188"/>
<path d="M520.7,964.7H533V964H520.7v.7Z" class="g1_188"/>
<path d="M511,964.7h.3V964H511v.7Z" class="g1_188"/>
<path d="M498.9,964.7h12V964h-12v.7Z" class="g1_188"/>
<path d="M489.1,964.7h.4V964h-.4v.7Z" class="g1_188"/>
<path d="M483.1,964.7h6V964h-6v.7Z" class="g1_188"/>
<path d="M632,989.5h45.8v-.8H632v.8Z" class="g1_188"/>
<path d="M677.1,1005.5h.7V989.1h-.7v16.4Z" class="g1_188"/>
</svg>