<?xml version="1.0" encoding="UTF-8" standalone="no"?>
<!DOCTYPE svg PUBLIC "-//W3C//DTD SVG 1.1//EN"
"http://www.w3.org/Graphics/SVG/1.1/DTD/svg11.dtd">
<svg viewBox="0 0 935 1210" version="1.1" xmlns="http://www.w3.org/2000/svg" xmlns:xlink="http://www.w3.org/1999/xlink">
<defs>
<clipPath id="c0_2228"><path d="M766.6,59.2V41.4h72.2V59.2Z"/></clipPath>
<style type="text/css"><![CDATA[
.g0_2228{
fill: #000;
}
]]></style>
</defs>
<path d="M97.4,63.3H839.9v-.4H97.4v.4Z" class="g0_2228"/>
<path d="M96.1,1114.5h.2v-.4h-.2v.4Z" class="g0_2228"/>
<path d="M96.3,1114.5H838.9v-.4H96.3v.4Z" class="g0_2228"/>
<image clip-path="url(#c0_2228)" preserveAspectRatio="none" x="767" y="41" width="72" height="18" xlink:href="img/1.jpg"/>
<path d="M556.7,997.1H588V996H556.7v1.1Z" class="g0_2228"/>
<path d="M683.9,997.1h20.4V996H683.9v1.1Z" class="g0_2228"/>
<path d="M704.3,997.1h8.5V996h-8.5v1.1Z" class="g0_2228"/>
<path d="M556.7,1020H588v-1.1H556.7v1.1Z" class="g0_2228"/>
<path d="M683.9,1020h20.4v-1.1H683.9v1.1Z" class="g0_2228"/>
<path d="M704.3,1020h8.5v-1.1h-8.5v1.1Z" class="g0_2228"/>
<path d="M95.9,789.5h.7V698.6h-.7v90.9Z" class="g0_2228"/>
<path d="M216,790.3h.7V697.9H216v92.4Z" class="g0_2228"/>
<path d="M293.3,790.3h.8V697.9h-.8v92.4Z" class="g0_2228"/>
<path d="M839.1,789.5h.7V698.6h-.7v90.9Z" class="g0_2228"/>
<path d="M95.9,698.6h744v-.7H95.9v.7Z" class="g0_2228"/>
<path d="M95.9,722.7h744v-3H95.9v3Z" class="g0_2228"/>
<path d="M95.9,744.4h744v-.7H95.9v.7Z" class="g0_2228"/>
<path d="M95.9,767.3h744v-.7H95.9v.7Z" class="g0_2228"/>
<path d="M95.9,790.3h744v-.8H95.9v.8Z" class="g0_2228"/>
</svg>