<?xml version="1.0" encoding="UTF-8" standalone="no"?>
<!DOCTYPE svg PUBLIC "-//W3C//DTD SVG 1.1//EN"
"http://www.w3.org/Graphics/SVG/1.1/DTD/svg11.dtd">
<svg viewBox="0 0 935 1210" version="1.1" xmlns="http://www.w3.org/2000/svg" xmlns:xlink="http://www.w3.org/1999/xlink">
<defs>
<style type="text/css"><![CDATA[
.g0_149{
fill: none;
stroke: #000;
stroke-width: 0.608;
stroke-miterlimit: 10;
}
]]></style>
</defs>
<path d="M154.2,169.6H714.7m-560.2,18V169.3m140.3,18.3V169.3m93.5,18.3V169.3m84.3,18.3V169.3m62.2,18.3V169.3m84.3,18.3V169.3m95.3,18.3V169.3M154.2,187.9H714.7M154.5,205.8V187.6m233.8,18.2V187.6m84.3,18.2V187.6m62.2,18.2V187.6m84.3,18.2V187.6m95.3,18.2V187.6M154.2,206.1H714.7m-560.2,18V205.8m140.3,18.3V205.8m93.5,18.3V205.8m84.3,18.3V205.8m62.2,18.3V205.8m84.3,18.3V205.8m95.3,18.3V205.8M154.2,224.4H714.7M154.2,260.9H714.7m-560.2,18V260.6m233.8,18.3V260.6m84.3,18.3V260.6m62.2,18.3V260.6m84.3,18.3V260.6m95.3,18.3V260.6M154.2,279.2H714.7M154.5,297.1V278.9m233.8,18.2V278.9m84.3,18.2V278.9m62.2,18.2V278.9m84.3,18.2V278.9m95.3,18.2V278.9M154.2,297.4H714.7m-560.2,18V297.1m140.3,18.3V297.1m93.5,18.3V297.1m84.3,18.3V297.1m62.2,18.3V297.1m84.3,18.3V297.1m95.3,18.3V297.1M154.2,315.7H714.7m-560.2,18V315.4m116.6,18.3V315.4m117.2,18.3V315.4m84.3,18.3V315.4m62.2,18.3V315.4m84.3,18.3V315.4m95.3,18.3V315.4M154.2,334H714.7M154.5,351.9V333.7m116.6,18.2V333.7m117.2,18.2V333.7m84.3,18.2V333.7m62.2,18.2V333.7m84.3,18.2V333.7m95.3,18.2V333.7M154.2,352.2H714.7m-560.2,18V351.9m116.6,18.3V351.9m117.2,18.3V351.9m84.3,18.3V351.9m62.2,18.3V351.9m84.3,18.3V351.9m95.3,18.3V351.9M154.2,370.5H714.7m-560.2,18V370.2m233.8,18.3V370.2m84.3,18.3V370.2m62.2,18.3V370.2m84.3,18.3V370.2m95.3,18.3V370.2M154.2,388.8H714.7M154.5,406.7V388.5m140.3,18.2V388.5m93.5,18.2V388.5m84.3,18.2V388.5m62.2,18.2V388.5m84.3,18.2V388.5m95.3,18.2V388.5M154.2,407H714.7M154.5,425V406.7M294.8,425V406.7M388.3,425V406.7M472.6,425V406.7M534.8,425V406.7M619.1,425V406.7M714.4,425V406.7M154.2,425.3H714.7m-560.2,18V425m140.3,18.3V425m93.5,18.3V425m84.3,18.3V425m62.2,18.3V425m84.3,18.3V425m95.3,18.3V425M154.2,443.6H714.7M154.5,461.5V443.3m140.3,18.2V443.3m93.5,18.2V443.3m84.3,18.2V443.3m62.2,18.2V443.3m84.3,18.2V443.3m95.3,18.2V443.3M154.2,461.8H714.7m-560.2,18V461.5m140.3,18.3V461.5m93.5,18.3V461.5m84.3,18.3V461.5m62.2,18.3V461.5m84.3,18.3V461.5m95.3,18.3V461.5M154.2,480.1H714.7m-560.2,18V479.8m140.3,18.3V479.8m93.5,18.3V479.8m84.3,18.3V479.8m62.2,18.3V479.8m84.3,18.3V479.8m95.3,18.3V479.8M154.2,498.4H714.7M154.5,516.3V498.1m140.3,18.2V498.1m93.5,18.2V498.1m84.3,18.2V498.1m62.2,18.2V498.1m84.3,18.2V498.1m95.3,18.2V498.1M154.2,516.6H714.7m-560.2,18V516.3m140.3,18.3V516.3m93.5,18.3V516.3m84.3,18.3V516.3m62.2,18.3V516.3m84.3,18.3V516.3m95.3,18.3V516.3M154.2,534.9H714.7M154.2,571.4H714.7m-560.2,18V571.1m233.8,18.3V571.1m84.3,18.3V571.1m62.2,18.3V571.1m84.3,18.3V571.1m95.3,18.3V571.1M154.2,589.7H714.7M154.2,626.2H714.7m-560.2,18V625.9m233.8,18.3V625.9m84.3,18.3V625.9m62.2,18.3V625.9m84.3,18.3V625.9m95.3,18.3V625.9M154.2,644.5H714.7M154.5,662.4V644.2m233.8,18.2V644.2m84.3,18.2V644.2m62.2,18.2V644.2m84.3,18.2V644.2m95.3,18.2V644.2M154.2,662.7H714.7m-560.2,18V662.4m233.8,18.3V662.4m84.3,18.3V662.4m62.2,18.3V662.4m84.3,18.3V662.4m95.3,18.3V662.4M154.2,681H714.7M154.5,699V680.7M388.3,699V680.7M472.6,699V680.7M534.8,699V680.7M619.1,699V680.7M714.4,699V680.7M154.2,699.3H714.7M154.5,717.2V699m233.8,18.2V699m84.3,18.2V699m62.2,18.2V699m84.3,18.2V699m95.3,18.2V699M154.2,717.5H714.7m-560.2,18V717.2m233.8,18.3V717.2m84.3,18.3V717.2m62.2,18.3V717.2m84.3,18.3V717.2m95.3,18.3V717.2M154.2,735.8H714.7M154.2,772.3H714.7m-560.2,18V772m140.3,18.3V772m93.5,18.3V772m84.3,18.3V772m62.2,18.3V772m84.3,18.3V772m95.3,18.3V772M154.2,790.6H714.7m-560.2,18V790.3m140.3,18.3V790.3m93.5,18.3V790.3m84.3,18.3V790.3m62.2,18.3V790.3m84.3,18.3V790.3m95.3,18.3V790.3M154.2,808.9H714.7M154.5,826.8V808.6m140.3,18.2V808.6m93.5,18.2V808.6m84.3,18.2V808.6m62.2,18.2V808.6m84.3,18.2V808.6m95.3,18.2V808.6M154.2,827.1H714.7m-560.2,18V826.8m140.3,18.3V826.8m93.5,18.3V826.8m84.3,18.3V826.8m62.2,18.3V826.8m84.3,18.3V826.8m95.3,18.3V826.8M154.2,845.4H714.7m-560.2,18V845.1m140.3,18.3V845.1m93.5,18.3V845.1m84.3,18.3V845.1m62.2,18.3V845.1m84.3,18.3V845.1m95.3,18.3V845.1M154.2,863.7H714.7M154.5,881.6V863.4m140.3,18.2V863.4m93.5,18.2V863.4m84.3,18.2V863.4m62.2,18.2V863.4m84.3,18.2V863.4m95.3,18.2V863.4M154.2,881.9H714.7m-560.2,18V881.6m140.3,18.3V881.6m93.5,18.3V881.6m84.3,18.3V881.6m62.2,18.3V881.6m84.3,18.3V881.6m95.3,18.3V881.6M154.2,900.2H714.7M154.5,918.1V899.9m140.3,18.2V899.9m93.5,18.2V899.9m84.3,18.2V899.9m62.2,18.2V899.9m84.3,18.2V899.9m95.3,18.2V899.9M154.2,918.5H714.7M154.2,955H714.7M154.5,972.9V954.7m140.3,18.2V954.7m93.5,18.2V954.7m84.3,18.2V954.7m62.2,18.2V954.7m84.3,18.2V954.7m95.3,18.2V954.7M154.2,973.2H714.7m-560.2,18V972.9m140.3,18.3V972.9m93.5,18.3V972.9m84.3,18.3V972.9m62.2,18.3V972.9m84.3,18.3V972.9m95.3,18.3V972.9M154.2,991.5H714.7m-560.2,18V991.2m140.3,18.3V991.2m93.5,18.3V991.2m84.3,18.3V991.2m62.2,18.3V991.2m84.3,18.3V991.2m95.3,18.3V991.2m-560.2,18.6H714.7m-560.2,17.9v-18.2m140.3,18.2v-18.2m93.5,18.2v-18.2m84.3,18.2v-18.2m62.2,18.2v-18.2m84.3,18.2v-18.2m95.3,18.2v-18.2M154.2,1028H714.7m-560.2,18v-18.3M294.8,1046v-18.3m93.5,18.3v-18.3m84.3,18.3v-18.3m62.2,18.3v-18.3m84.3,18.3v-18.3m95.3,18.3v-18.3m-560.2,18.6H714.7" class="g0_149"/>
</svg>