<?xml version="1.0" encoding="UTF-8" standalone="no"?>
<!DOCTYPE svg PUBLIC "-//W3C//DTD SVG 1.1//EN"
"http://www.w3.org/Graphics/SVG/1.1/DTD/svg11.dtd">
<svg viewBox="0 0 935 1210" version="1.1" xmlns="http://www.w3.org/2000/svg" xmlns:xlink="http://www.w3.org/1999/xlink">
<defs>
<style type="text/css"><![CDATA[
.g0_2063{
fill: #FFF;
}
.g1_2063{
fill: #000;
}
]]></style>
</defs>
<path d="M68.9,1149.3H755.2v-21.2H68.9v21.2Z" class="g0_2063"/>
<path d="M771.3,1149.3H855v-21.2H771.3v21.2Z" class="g0_2063"/>
<path d="M69.9,687.1h.8V125.7h-.8V687.1Z" class="g1_2063"/>
<path d="M300.7,687.9h.7v-563h-.7v563Z" class="g1_2063"/>
<path d="M361.6,687.9h.8v-563h-.8v563Z" class="g1_2063"/>
<path d="M435.1,687.9h.7v-563h-.7v563Z" class="g1_2063"/>
<path d="M559.8,687.9h.7v-563h-.7v563Z" class="g1_2063"/>
<path d="M851.1,687.1h.8V125.7h-.8V687.1Z" class="g1_2063"/>
<path d="M69.9,125.7h782v-.8H69.9v.8Z" class="g1_2063"/>
<path d="M69.9,179.1h782v-.7H69.9v.7Z" class="g1_2063"/>
<path d="M69.9,235.7h782v-.8H69.9v.8Z" class="g1_2063"/>
<path d="M69.9,292.1h782v-.7H69.9v.7Z" class="g1_2063"/>
<path d="M69.9,348.7h782V348H69.9v.7Z" class="g1_2063"/>
<path d="M69.9,405.3h782v-.8H69.9v.8Z" class="g1_2063"/>
<path d="M69.9,461.8h782v-.7H69.9v.7Z" class="g1_2063"/>
<path d="M69.9,518.3h782v-.7H69.9v.7Z" class="g1_2063"/>
<path d="M69.9,574.8h782v-.7H69.9v.7Z" class="g1_2063"/>
<path d="M69.9,631.4h782v-.7H69.9v.7Z" class="g1_2063"/>
<path d="M69.9,687.9h782v-.8H69.9v.8Z" class="g1_2063"/>
<path d="M69.9,815.5h.8V742.9h-.8v72.6Z" class="g1_2063"/>
<path d="M132,816.3h.7V742.1H132v74.2Z" class="g1_2063"/>
<path d="M209.6,816.3h.8V742.1h-.8v74.2Z" class="g1_2063"/>
<path d="M353.8,816.3h.8V742.1h-.8v74.2Z" class="g1_2063"/>
<path d="M521.1,816.3h.8V742.1h-.8v74.2Z" class="g1_2063"/>
<path d="M687.2,816.3h.8V742.1h-.8v74.2Z" class="g1_2063"/>
<path d="M851.1,815.5h.8V742.9h-.8v72.6Z" class="g1_2063"/>
<path d="M69.9,742.9H852v-.8H69.9v.8Z" class="g1_2063"/>
<path d="M69.9,767.3H852v-.7H69.9v.7Z" class="g1_2063"/>
<path d="M69.9,791.8H852v-.7H69.9v.7Z" class="g1_2063"/>
<path d="M69.9,816.2H852v-.7H69.9v.7Z" class="g1_2063"/>
</svg>