<?xml version="1.0" encoding="UTF-8" standalone="no"?>
<!DOCTYPE svg PUBLIC "-//W3C//DTD SVG 1.1//EN"
"http://www.w3.org/Graphics/SVG/1.1/DTD/svg11.dtd">
<svg viewBox="0 0 935 1210" version="1.1" xmlns="http://www.w3.org/2000/svg" xmlns:xlink="http://www.w3.org/1999/xlink">
<defs>
<clipPath id="c0_2220"><path d="M766.6,59.2V41.4h72.2V59.2Z"/></clipPath>
<style type="text/css"><![CDATA[
.g0_2220{
fill: #000;
}
]]></style>
</defs>
<path d="M97.4,63.3H839.9v-.4H97.4v.4Z" class="g0_2220"/>
<path d="M96.1,1114.5h.2v-.4h-.2v.4Z" class="g0_2220"/>
<path d="M96.3,1114.5H838.9v-.4H96.3v.4Z" class="g0_2220"/>
<image clip-path="url(#c0_2220)" preserveAspectRatio="none" x="767" y="41" width="72" height="18" xlink:href="img/1.jpg"/>
<path d="M561.5,1055.2h31.3v-1.1H561.5v1.1Z" class="g0_2220"/>
<path d="M686.9,1055.2h28.7v-1.1H686.9v1.1Z" class="g0_2220"/>
<path d="M561.5,1078.1h31.3V1077H561.5v1.1Z" class="g0_2220"/>
<path d="M686.9,1078.1h28.7V1077H686.9v1.1Z" class="g0_2220"/>
<path d="M95.9,832.2h.7V741.4h-.7v90.8Z" class="g0_2220"/>
<path d="M262.7,833.1h.8V740.6h-.8v92.5Z" class="g0_2220"/>
<path d="M340.1,833.1h.7V740.6h-.7v92.5Z" class="g0_2220"/>
<path d="M839.1,832.2h.7V741.4h-.7v90.8Z" class="g0_2220"/>
<path d="M95.9,741.3h744v-.7H95.9v.7Z" class="g0_2220"/>
<path d="M95.9,765.4h744v-3H95.9v3Z" class="g0_2220"/>
<path d="M95.9,787.1h744v-.7H95.9v.7Z" class="g0_2220"/>
<path d="M95.9,810.1h744v-.8H95.9v.8Z" class="g0_2220"/>
<path d="M95.9,833h744v-.8H95.9v.8Z" class="g0_2220"/>
</svg>