<?xml version="1.0" encoding="UTF-8" standalone="no"?>
<!DOCTYPE svg PUBLIC "-//W3C//DTD SVG 1.1//EN"
"http://www.w3.org/Graphics/SVG/1.1/DTD/svg11.dtd">
<svg viewBox="0 0 935 1210" version="1.1" xmlns="http://www.w3.org/2000/svg" xmlns:xlink="http://www.w3.org/1999/xlink">
<defs>
<style type="text/css"><![CDATA[
.g0_147{
fill: #FFF;
}
.g1_147{
fill: #000;
}
]]></style>
</defs>
<path d="M68.9,1149.3H755.2v-21.2H68.9v21.2Z" class="g0_147"/>
<path d="M771.3,1149.3H855v-21.2H771.3v21.2Z" class="g0_147"/>
<path d="M69.9,467.1h.8V125.7h-.8V467.1Z" class="g1_147"/>
<path d="M308.4,467.9h.7v-343h-.7v343Z" class="g1_147"/>
<path d="M355.3,467.9h.7v-343h-.7v343Z" class="g1_147"/>
<path d="M429.8,467.9h.8v-343h-.8v343Z" class="g1_147"/>
<path d="M515,467.9h.7v-343H515v343Z" class="g1_147"/>
<path d="M852.9,467.1h.7V125.7h-.7V467.1Z" class="g1_147"/>
<path d="M69.9,125.7H853.6v-.8H69.9v.8Z" class="g1_147"/>
<path d="M69.9,179.1H853.6v-.7H69.9v.7Z" class="g1_147"/>
<path d="M69.9,218.8H853.6v-.7H69.9v.7Z" class="g1_147"/>
<path d="M69.9,258.6H853.6v-.7H69.9v.7Z" class="g1_147"/>
<path d="M69.9,298.3H853.6v-.7H69.9v.7Z" class="g1_147"/>
<path d="M69.9,354.8H853.6v-.7H69.9v.7Z" class="g1_147"/>
<path d="M69.9,411.4H853.6v-.7H69.9v.7Z" class="g1_147"/>
<path d="M69.9,467.9H853.6v-.8H69.9v.8Z" class="g1_147"/>
<path d="M69.9,619.9h.8v-97h-.8v97Z" class="g1_147"/>
<path d="M162.3,620.7h.8V522.1h-.8v98.6Z" class="g1_147"/>
<path d="M254.8,620.7h.8V522.1h-.8v98.6Z" class="g1_147"/>
<path d="M398.6,620.7h.7V522.1h-.7v98.6Z" class="g1_147"/>
<path d="M550.4,620.7h.7V522.1h-.7v98.6Z" class="g1_147"/>
<path d="M705.6,620.7h.7V522.1h-.7v98.6Z" class="g1_147"/>
<path d="M856.4,619.9h.8v-97h-.8v97Z" class="g1_147"/>
<path d="M69.9,522.9H857.2v-.8H69.9v.8Z" class="g1_147"/>
<path d="M69.9,547.3H857.2v-.7H69.9v.7Z" class="g1_147"/>
<path d="M69.9,571.8H857.2v-.7H69.9v.7Z" class="g1_147"/>
<path d="M69.9,596.2H857.2v-.7H69.9v.7Z" class="g1_147"/>
<path d="M69.9,620.7H857.2v-.8H69.9v.8Z" class="g1_147"/>
</svg>