<?xml version="1.0" encoding="UTF-8" standalone="no"?>
<!DOCTYPE svg PUBLIC "-//W3C//DTD SVG 1.1//EN"
"http://www.w3.org/Graphics/SVG/1.1/DTD/svg11.dtd">
<svg viewBox="0 0 935 1210" version="1.1" xmlns="http://www.w3.org/2000/svg" xmlns:xlink="http://www.w3.org/1999/xlink">
<defs>
<style type="text/css"><![CDATA[
.g0_785{
fill: #FFF;
}
.g1_785{
fill: #000;
}
.g2_785{
fill: none;
stroke: #000;
stroke-width: 0.372;
stroke-linecap: round;
stroke-linejoin: round;
}
]]></style>
</defs>
<path d="M68.9,1149.3H852.7v-21.2H68.9v21.2Z" class="g0_785"/>
<path d="M69.9,601.6h.8V124.1h-.8V601.6Z" class="g1_785"/>
<path d="M251.2,602.3h.7V123.4h-.7V602.3Z" class="g1_785"/>
<path d="M444.7,602.3h.7V123.4h-.7V602.3Z" class="g1_785"/>
<path d="M647.6,602.3h.8V123.4h-.8V602.3Z" class="g1_785"/>
<path d="M853.8,601.6h.7V124.1h-.7V601.6Z" class="g1_785"/>
<path d="M69.9,124.1H854.5v-.7H69.9v.7Z" class="g1_785"/>
<path d="M69.9,165.4H854.5v-.8H69.9v.8Z" class="g1_785"/>
<path d="M69.9,206.6H854.5v-.7H69.9v.7Z" class="g1_785"/>
<path d="M69.9,247.9H854.5v-.8H69.9v.8Z" class="g1_785"/>
<path d="M69.9,272.3H854.5v-.7H69.9v.7Z" class="g1_785"/>
<path d="M69.9,318.2H854.5v-.8H69.9v.8Z" class="g1_785"/>
<path d="M69.9,359.4H854.5v-.7H69.9v.7Z" class="g1_785"/>
<path d="M69.9,426.6H854.5v-.7H69.9v.7Z" class="g1_785"/>
<path d="M69.9,493.9H854.5v-.7H69.9v.7Z" class="g1_785"/>
<path d="M69.9,539.7H854.5V539H69.9v.7Z" class="g1_785"/>
<path d="M69.9,602.3H854.5v-.7H69.9v.7Z" class="g1_785"/>
<path d="M123.9,984.7h.8V729.1h-.8V984.7Z" class="g1_785"/>
<path d="M798,984.7h.8V729.1H798V984.7Z" class="g1_785"/>
<path d="M123.9,729.1H798.8v-.7H123.9v.7Z" class="g1_785"/>
<path d="M123.9,985.4H798.8v-.7H123.9v.7Z" class="g1_785"/>
<path d="M158.1,813.7h20V770.2h-20v43.5Zm20.1,.1h20V770.2h-20v43.6Zm20.1,0h20V770.2h-20v43.6Zm20,0h20V770.2h-20v43.6Zm20,0h20.1V770.2H238.3v43.6Zm20.2,0h20V770.2h-20v43.6Zm20.2,0h19.9V770.2H278.7v43.6Zm20,0h20V770.2h-20v43.6Zm20.1,0h20V770.2h-20v43.6Zm20,0h20.1V770.2H338.8v43.6Zm20.2,0h19.9V770.2H359v43.6Zm19.9,0h19.9V770.2H378.9v43.6Zm20.1,0h20V770.2H399v43.6Zm20.1,0h20V770.2h-20v43.6Zm20.1,0h20V770.2h-20v43.6Zm20,0h19.9V770.2H459.2v43.6Zm20.1,0h20V770.2h-20v43.6Zm20,0h20.1V770.2H499.3v43.6Zm20.1,0h20V770.2h-20v43.6Zm-381.3,0H158V770.2H138.1v43.6Zm421.3,-.1h20V770.1h-20v43.6Zm20,0h20V770.1h-20v43.6Zm20.1,0h20V770.1h-20v43.6Zm20.1,0h20V770.1h-20v43.6Zm20.1,0h20V770.1h-20v43.6Zm20.1,0h20V770.1h-20v43.6Zm20.1,0h20V770.1h-20v43.6Zm20.1,0h20V770.1H700v43.6Zm20.1,0h20V770.1h-20v43.6Zm20,0h20V770.1h-20v43.6Zm20.2,0h20V770.1h-20v43.6Zm-220.9,0h20V770.2h-20v43.5ZM138.1,770.2H298.7V739.9H138.1v30.3Zm160.6,-.1H459.3V739.9H298.7v30.2Zm160.6,0H619.5V739.9H459.3v30.2Zm160.3,0H780.3V739.9H619.6v30.2ZM158.2,950h20V906.5h-20V950Zm20.1,0h20V906.5h-20V950Zm20.1,0h19.9V906.5H198.4V950Zm19.9,0h20V906.5h-20V950Zm20.2,0h20V906.5h-20V950Zm20.2,0h20V906.5h-20V950Zm20.1,0h19.9V906.5H278.8V950Zm20,0h20V906.5h-20V950Zm20.1,0h20V906.5h-20V950Zm20,0h20V906.5h-20V950Zm20.2,0H379V906.5H359.1V950Zm19.9,0h20V906.5H379V950Zm20.2,0h20V906.5h-20V950Zm20,0h20V906.5h-20V950Zm20.1,0h19.9V906.5H439.3V950Zm20,0h20V906.5h-20V950Zm20.1,0h20V906.5h-20V950Zm20.1,0h20V906.5h-20V950Zm20,0h20V906.5h-20V950Zm-381.3,0h20V906.5h-20V950Zm421.3,-.1h20V906.5h-20v43.4Zm20,0h20V906.5h-20v43.4Zm20.2,.1h20V906.5h-20V950Zm20.1,0h19.9V906.5H619.8V950Zm20,0h20V906.5h-20V950Zm20.1,0h20V906.5h-20V950Zm20.2,0h20V906.5h-20V950Zm20.1,0h19.9V906.5H700.2V950Zm20,0h20V906.5h-20V950Zm20.1,0h20V906.5h-20V950Zm20.1,0h20V906.5h-20V950Zm-220.9,-.1h19.9V906.5H539.5v43.4ZM138.2,906.5H298.8V876.2H138.2v30.3Zm160.6,0H459.4V876.2H298.8v30.3Zm160.7,0H619.7V876.2H459.5v30.3Zm160.3,0H780.4V876.2H619.8v30.3Z" class="g2_785"/>
</svg>