<?xml version="1.0" encoding="UTF-8" standalone="no"?>
<!DOCTYPE svg PUBLIC "-//W3C//DTD SVG 1.1//EN"
"http://www.w3.org/Graphics/SVG/1.1/DTD/svg11.dtd">
<svg viewBox="0 0 935 1210" version="1.1" xmlns="http://www.w3.org/2000/svg" xmlns:xlink="http://www.w3.org/1999/xlink">
<defs>
<clipPath id="c0_2217"><path d="M97.3,59.2V41.4h72.1V59.2Z"/></clipPath>
<style type="text/css"><![CDATA[
.g0_2217{
fill: #000;
}
]]></style>
</defs>
<path d="M96.3,63.3H838.8v-.4H96.3v.4Z" class="g0_2217"/>
<path d="M96.1,1114.5h.2v-.4h-.2v.4Z" class="g0_2217"/>
<path d="M96.3,1114.5H838.9v-.4H96.3v.4Z" class="g0_2217"/>
<image clip-path="url(#c0_2217)" preserveAspectRatio="none" x="97" y="41" width="73" height="18" xlink:href="img/1.jpg"/>
<path d="M95.9,713.1h.7V236.8h-.7V713.1Z" class="g0_2217"/>
<path d="M273.3,663.5h.8V233.8h-.8V663.5Z" class="g0_2217"/>
<path d="M310,663.5h.7V256.3H310V663.5Z" class="g0_2217"/>
<path d="M346.7,663.5h.7V256.3h-.7V663.5Z" class="g0_2217"/>
<path d="M383.4,663.5h.7V233.8h-.7V663.5Z" class="g0_2217"/>
<path d="M839.2,713.1h.7V236.8h-.7V713.1Z" class="g0_2217"/>
<path d="M95.9,236.9h744v-3.1H95.9v3.1Z" class="g0_2217"/>
<path d="M273.3,257H384.2v-.7H273.3v.7Z" class="g0_2217"/>
<path d="M95.9,279.6h744v-3H95.9v3Z" class="g0_2217"/>
<path d="M273.3,298.3H839.9v-.7H273.3v.7Z" class="g0_2217"/>
<path d="M273.3,318.2H839.9v-.8H273.3v.8Z" class="g0_2217"/>
<path d="M273.3,338H839.9v-.8H273.3v.8Z" class="g0_2217"/>
<path d="M273.3,357.9H839.9v-.8H273.3v.8Z" class="g0_2217"/>
<path d="M273.3,377.8H839.9V377H273.3v.8Z" class="g0_2217"/>
<path d="M273.3,397.6H839.9v-.8H273.3v.8Z" class="g0_2217"/>
<path d="M273.3,417.4H839.9v-.7H273.3v.7Z" class="g0_2217"/>
<path d="M273.3,437.3H839.9v-.7H273.3v.7Z" class="g0_2217"/>
<path d="M273.3,457.1H839.9v-.7H273.3v.7Z" class="g0_2217"/>
<path d="M95.9,477h744v-.7H95.9v.7Z" class="g0_2217"/>
<path d="M95.9,496.9h744v-.7H95.9v.7Z" class="g0_2217"/>
<path d="M95.9,516.7h744V516H95.9v.7Z" class="g0_2217"/>
<path d="M273.3,536.6H839.9v-.7H273.3v.7Z" class="g0_2217"/>
<path d="M95.9,556.5h744v-.7H95.9v.7Z" class="g0_2217"/>
<path d="M273.3,590.1H839.9v-.8H273.3v.8Z" class="g0_2217"/>
<path d="M95.9,643.6h744v-.7H95.9v.7Z" class="g0_2217"/>
<path d="M95.9,663.4h744v-.7H95.9v.7Z" class="g0_2217"/>
<path d="M95.9,713.8h744v-.7H95.9v.7Z" class="g0_2217"/>
</svg>