<?xml version="1.0" encoding="UTF-8" standalone="no"?>
<!DOCTYPE svg PUBLIC "-//W3C//DTD SVG 1.1//EN"
"http://www.w3.org/Graphics/SVG/1.1/DTD/svg11.dtd">
<svg viewBox="0 0 825 990" version="1.1" xmlns="http://www.w3.org/2000/svg" xmlns:xlink="http://www.w3.org/1999/xlink">
<defs>
<style type="text/css"><![CDATA[
.g0_436{
fill: #000;
}
]]></style>
</defs>
<path d="M79.8,910.3h.3v-.8h-.3v.8Z" class="g0_436"/>
<path d="M80.1,910.3h650v-.8H80.1v.8Z" class="g0_436"/>
<path d="M145.1,182.7H729.8V182H145.1v.7Z" class="g0_436"/>
<path d="M145.1,234.7H729.8v-.8H145.1v.8Z" class="g0_436"/>
<path d="M145.1,263.5H729.8v-.2H145.1v.2Z" class="g0_436"/>
<path d="M145.1,292.4H729.8v-.2H145.1v.2Z" class="g0_436"/>
<path d="M145.1,321.5H729.8v-.2H145.1v.2Z" class="g0_436"/>
<path d="M145.1,350.5H729.8v-.1H145.1v.1Z" class="g0_436"/>
<path d="M145.1,379.5H729.8v-.2H145.1v.2Z" class="g0_436"/>
<path d="M145.1,408.6H729.8v-.2H145.1v.2Z" class="g0_436"/>
<path d="M145.1,437.6H729.8v-.2H145.1v.2Z" class="g0_436"/>
<path d="M145.1,466.6H729.8v-.2H145.1v.2Z" class="g0_436"/>
<path d="M145.1,495.6H729.8v-.1H145.1v.1Z" class="g0_436"/>
<path d="M145.1,524.7H729.8v-.2H145.1v.2Z" class="g0_436"/>
<path d="M145.1,553.7H729.8v-.2H145.1v.2Z" class="g0_436"/>
<path d="M145.1,582.7H729.8v-.2H145.1v.2Z" class="g0_436"/>
<path d="M145.1,611.8H729.8v-.2H145.1v.2Z" class="g0_436"/>
<path d="M145.1,640.7H729.8v-.1H145.1v.1Z" class="g0_436"/>
<path d="M145.1,669.8H729.8v-.2H145.1v.2Z" class="g0_436"/>
<path d="M145.1,698.9H729.8v-.2H145.1v.2Z" class="g0_436"/>
<path d="M145.1,727.8H729.8v-.1H145.1v.1Z" class="g0_436"/>
<path d="M145.1,756.9H729.8v-.2H145.1v.2Z" class="g0_436"/>
<path d="M145.1,786H729.8v-.2H145.1v.2Z" class="g0_436"/>
<path d="M145.1,815H729.8v-.2H145.1v.2Z" class="g0_436"/>
<path d="M145.1,844H729.8v-.2H145.1v.2Z" class="g0_436"/>
</svg>