<?xml version="1.0" encoding="UTF-8" standalone="no"?>
<!DOCTYPE svg PUBLIC "-//W3C//DTD SVG 1.1//EN"
"http://www.w3.org/Graphics/SVG/1.1/DTD/svg11.dtd">
<svg viewBox="0 0 935 1210" version="1.1" xmlns="http://www.w3.org/2000/svg" xmlns:xlink="http://www.w3.org/1999/xlink">
<defs>
<style type="text/css"><![CDATA[
.g0_2373{
fill: #FFF;
}
.g1_2373{
fill: #000;
}
]]></style>
</defs>
<path d="M68.9,1149H852.7v-21.4H68.9V1149Z" class="g0_2373"/>
<path d="M69.2,374.7h2.3V170.8H69.2V374.7Z" class="g1_2373"/>
<path d="M69.2,603.9h2.3v-204H69.2v204Z" class="g1_2373"/>
<path d="M105.8,377h2.3V168.5h-2.3V377Z" class="g1_2373"/>
<path d="M105.8,606.2h2.3V397.7h-2.3V606.2Z" class="g1_2373"/>
<path d="M204.3,193.7h.8V168.5h-.8v25.2Z" class="g1_2373"/>
<path d="M204.3,238.7h.8V215.1h-.8v23.6Z" class="g1_2373"/>
<path d="M204.3,284.5h.8V260.9h-.8v23.6Z" class="g1_2373"/>
<path d="M204.3,330.4h.8V306.7h-.8v23.7Z" class="g1_2373"/>
<path d="M204.3,377h.8V352.6h-.8V377Z" class="g1_2373"/>
<path d="M204.3,422.9h.8V397.7h-.8v25.2Z" class="g1_2373"/>
<path d="M204.3,467.9h.8V444.2h-.8v23.7Z" class="g1_2373"/>
<path d="M204.3,513.7h.8V490h-.8v23.7Z" class="g1_2373"/>
<path d="M204.3,559.5h.8V535.9h-.8v23.6Z" class="g1_2373"/>
<path d="M204.3,606.2h.8V581.7h-.8v24.5Z" class="g1_2373"/>
<path d="M295.9,193.7h.7V168.5h-.7v25.2Z" class="g1_2373"/>
<path d="M295.9,238.7h.7V215.1h-.7v23.6Z" class="g1_2373"/>
<path d="M295.9,284.5h.7V260.9h-.7v23.6Z" class="g1_2373"/>
<path d="M295.9,330.4h.7V306.7h-.7v23.7Z" class="g1_2373"/>
<path d="M295.9,377h.7V352.6h-.7V377Z" class="g1_2373"/>
<path d="M295.9,422.9h.7V397.7h-.7v25.2Z" class="g1_2373"/>
<path d="M295.9,467.9h.7V444.2h-.7v23.7Z" class="g1_2373"/>
<path d="M295.9,513.7h.7V490h-.7v23.7Z" class="g1_2373"/>
<path d="M295.9,559.5h.7V535.9h-.7v23.6Z" class="g1_2373"/>
<path d="M295.9,606.2h.7V581.7h-.7v24.5Z" class="g1_2373"/>
<path d="M387.7,193.7h.7V168.5h-.7v25.2Z" class="g1_2373"/>
<path d="M387.7,238.7h.7V215.1h-.7v23.6Z" class="g1_2373"/>
<path d="M387.7,284.5h.7V260.9h-.7v23.6Z" class="g1_2373"/>
<path d="M387.7,330.4h.7V306.7h-.7v23.7Z" class="g1_2373"/>
<path d="M387.7,377h.7V352.6h-.7V377Z" class="g1_2373"/>
<path d="M387.7,422.9h.7V397.7h-.7v25.2Z" class="g1_2373"/>
<path d="M387.7,467.9h.7V444.2h-.7v23.7Z" class="g1_2373"/>
<path d="M387.7,513.7h.7V490h-.7v23.7Z" class="g1_2373"/>
<path d="M387.7,559.5h.7V535.9h-.7v23.6Z" class="g1_2373"/>
<path d="M387.7,606.2h.7V581.7h-.7v24.5Z" class="g1_2373"/>
<path d="M479.5,193.7h.7V168.5h-.7v25.2Z" class="g1_2373"/>
<path d="M479.5,238.7h.7V215.1h-.7v23.6Z" class="g1_2373"/>
<path d="M479.5,284.5h.7V260.9h-.7v23.6Z" class="g1_2373"/>
<path d="M479.5,330.4h.7V306.7h-.7v23.7Z" class="g1_2373"/>
<path d="M479.5,377h.7V352.6h-.7V377Z" class="g1_2373"/>
<path d="M479.5,422.9h.7V397.7h-.7v25.2Z" class="g1_2373"/>
<path d="M479.5,467.9h.7V444.2h-.7v23.7Z" class="g1_2373"/>
<path d="M479.5,513.7h.7V490h-.7v23.7Z" class="g1_2373"/>
<path d="M479.5,559.5h.7V535.9h-.7v23.6Z" class="g1_2373"/>
<path d="M479.5,606.2h.7V581.7h-.7v24.5Z" class="g1_2373"/>
<path d="M571.4,193.7h.7V168.5h-.7v25.2Z" class="g1_2373"/>
<path d="M571.4,238.7h.7V215.1h-.7v23.6Z" class="g1_2373"/>
<path d="M571.4,284.5h.7V260.9h-.7v23.6Z" class="g1_2373"/>
<path d="M571.4,330.4h.7V306.7h-.7v23.7Z" class="g1_2373"/>
<path d="M571.4,377h.7V352.6h-.7V377Z" class="g1_2373"/>
<path d="M571.4,422.9h.7V397.7h-.7v25.2Z" class="g1_2373"/>
<path d="M571.4,467.9h.7V444.2h-.7v23.7Z" class="g1_2373"/>
<path d="M571.4,513.7h.7V490h-.7v23.7Z" class="g1_2373"/>
<path d="M571.4,559.5h.7V535.9h-.7v23.6Z" class="g1_2373"/>
<path d="M571.4,606.2h.7V581.7h-.7v24.5Z" class="g1_2373"/>
<path d="M663.1,193.7h.7V168.5h-.7v25.2Z" class="g1_2373"/>
<path d="M663.1,238.7h.7V215.1h-.7v23.6Z" class="g1_2373"/>
<path d="M663.1,284.5h.7V260.9h-.7v23.6Z" class="g1_2373"/>
<path d="M663.1,330.4h.7V306.7h-.7v23.7Z" class="g1_2373"/>
<path d="M663.1,377h.7V352.6h-.7V377Z" class="g1_2373"/>
<path d="M663.1,422.9h.7V397.7h-.7v25.2Z" class="g1_2373"/>
<path d="M663.1,467.9h.7V444.2h-.7v23.7Z" class="g1_2373"/>
<path d="M663.1,513.7h.7V490h-.7v23.7Z" class="g1_2373"/>
<path d="M663.1,559.5h.7V535.9h-.7v23.6Z" class="g1_2373"/>
<path d="M663.1,606.2h.7V581.7h-.7v24.5Z" class="g1_2373"/>
<path d="M758.6,193.7h.8V168.5h-.8v25.2Z" class="g1_2373"/>
<path d="M758.6,238.7h.8V215.1h-.8v23.6Z" class="g1_2373"/>
<path d="M758.6,284.5h.8V260.9h-.8v23.6Z" class="g1_2373"/>
<path d="M758.6,330.4h.8V306.7h-.8v23.7Z" class="g1_2373"/>
<path d="M758.6,377h.8V352.6h-.8V377Z" class="g1_2373"/>
<path d="M758.6,422.9h.8V397.7h-.8v25.2Z" class="g1_2373"/>
<path d="M758.6,467.9h.8V444.2h-.8v23.7Z" class="g1_2373"/>
<path d="M758.6,513.7h.8V490h-.8v23.7Z" class="g1_2373"/>
<path d="M758.6,559.5h.8V535.9h-.8v23.6Z" class="g1_2373"/>
<path d="M758.6,606.2h.8V581.7h-.8v24.5Z" class="g1_2373"/>
<path d="M852,374.7h2.2V170.8H852V374.7Z" class="g1_2373"/>
<path d="M852,603.9h2.2v-204H852v204Z" class="g1_2373"/>
<path d="M69.1,170.8H854.2v-2.3H69.1v2.3Z" class="g1_2373"/>
<path d="M69.1,193.7H854.2v-2.3H69.1v2.3Z" class="g1_2373"/>
<path d="M105.8,215.8H854.2v-.7H105.8v.7Z" class="g1_2373"/>
<path d="M69.1,238.7H854.2V238H69.1v.7Z" class="g1_2373"/>
<path d="M105.8,261.6H854.2v-.7H105.8v.7Z" class="g1_2373"/>
<path d="M69.1,284.5H854.2v-.7H69.1v.7Z" class="g1_2373"/>
<path d="M105.8,307.4H854.2v-.7H105.8v.7Z" class="g1_2373"/>
<path d="M69.1,330.4H854.2v-.8H69.1v.8Z" class="g1_2373"/>
<path d="M105.8,353.3H854.2v-.7H105.8v.7Z" class="g1_2373"/>
<path d="M69.1,377H854.2v-2.3H69.1V377Z" class="g1_2373"/>
<path d="M69.1,399.9H854.2v-2.2H69.1v2.2Z" class="g1_2373"/>
<path d="M69.1,422.9H854.2v-2.3H69.1v2.3Z" class="g1_2373"/>
<path d="M105.8,444.9H854.2v-.7H105.8v.7Z" class="g1_2373"/>
<path d="M69.1,467.9H854.2v-.8H69.1v.8Z" class="g1_2373"/>
<path d="M105.8,490.8H854.2v-.7H105.8v.7Z" class="g1_2373"/>
<path d="M69.1,513.7H854.2V513H69.1v.7Z" class="g1_2373"/>
<path d="M105.8,536.6H854.2v-.7H105.8v.7Z" class="g1_2373"/>
<path d="M69.1,559.5H854.2v-.7H69.1v.7Z" class="g1_2373"/>
<path d="M105.8,582.4H854.2v-.7H105.8v.7Z" class="g1_2373"/>
<path d="M69.1,606.2H854.2v-2.3H69.1v2.3Z" class="g1_2373"/>
<path d="M69.2,852.1h2.3V770.4H69.2v81.7Z" class="g1_2373"/>
<path d="M167.8,854.4h.8V791.8h-.8v62.6Z" class="g1_2373"/>
<path d="M265.7,854.4h.8V791.8h-.8v62.6Z" class="g1_2373"/>
<path d="M363.7,854.4h.8V791.8h-.8v62.6Z" class="g1_2373"/>
<path d="M461.6,854.4h.8V791.8h-.8v62.6Z" class="g1_2373"/>
<path d="M559.5,854.4h.8V791.8h-.8v62.6Z" class="g1_2373"/>
<path d="M657.5,854.4h.8V791.8h-.8v62.6Z" class="g1_2373"/>
<path d="M755.4,854.4h.8V791.8h-.8v62.6Z" class="g1_2373"/>
<path d="M852.6,852.1h2.3V770.4h-2.3v81.7Z" class="g1_2373"/>
<path d="M69.1,770.5H854.9v-2.3H69.1v2.3Z" class="g1_2373"/>
<path d="M69.1,792.6H854.9v-.8H69.1v.8Z" class="g1_2373"/>
<path d="M69.1,816.3H854.9V814H69.1v2.3Z" class="g1_2373"/>
<path d="M69.1,854.5H854.9v-2.3H69.1v2.3Z" class="g1_2373"/>
</svg>