<?xml version="1.0" encoding="UTF-8" standalone="no"?>
<!DOCTYPE svg PUBLIC "-//W3C//DTD SVG 1.1//EN"
"http://www.w3.org/Graphics/SVG/1.1/DTD/svg11.dtd">
<svg viewBox="0 0 935 1210" version="1.1" xmlns="http://www.w3.org/2000/svg" xmlns:xlink="http://www.w3.org/1999/xlink">
<defs>
<style type="text/css"><![CDATA[
.g0_353{
fill: #B3B3B3;
}
.g1_353{
fill: #000;
}
]]></style>
</defs>
<path d="M82.5,96.3h770V55H82.5V96.3Z" class="g0_353"/>
<path d="M113.5,204.5h.3V160.6h-.3v43.9Z" class="g1_353"/>
<path d="M245.5,204.9h.3V160.2h-.3v44.7Z" class="g1_353"/>
<path d="M355.5,204.9h.4V160.2h-.4v44.7Z" class="g1_353"/>
<path d="M465.5,204.9h.3V160.2h-.3v44.7Z" class="g1_353"/>
<path d="M487.5,204.9h.3V160.2h-.3v44.7Z" class="g1_353"/>
<path d="M513.2,204.9h.3V160.2h-.3v44.7Z" class="g1_353"/>
<path d="M689.1,204.9h.4V160.2h-.4v44.7Z" class="g1_353"/>
<path d="M821.1,204.5h.4V160.6h-.4v43.9Z" class="g1_353"/>
<path d="M113.5,160.6h708v-.4h-708v.4Z" class="g1_353"/>
<path d="M113.5,204.9h708v-.4h-708v.4Z" class="g1_353"/>
</svg>