<?xml version="1.0" encoding="UTF-8" standalone="no"?>
<!DOCTYPE svg PUBLIC "-//W3C//DTD SVG 1.1//EN"
"http://www.w3.org/Graphics/SVG/1.1/DTD/svg11.dtd">
<svg viewBox="0 0 935 1210" version="1.1" xmlns="http://www.w3.org/2000/svg" xmlns:xlink="http://www.w3.org/1999/xlink">
<defs>
<clipPath id="c0_726"><path d="M97.3,59.2V41.4h72.1V59.2Z"/></clipPath>
<style type="text/css"><![CDATA[
.g0_726{
fill: #000;
}
.g1_726{
fill: #FFF;
stroke: #000;
stroke-width: 1.527;
}
.g2_726{
fill: #000;
stroke: #000;
stroke-width: 1.527;
}
.g3_726{
fill: none;
stroke: #000;
stroke-width: 0.763;
}
.g4_726{
fill: #FFF;
stroke: #000;
stroke-width: 1.527;
stroke-dasharray: 4,5;
}
.g5_726{
fill: #E5E5E5;
stroke: #000;
stroke-width: 1.527;
}
.g6_726{
fill: none;
stroke: #000;
stroke-width: 1.527;
}
.g7_726{
fill: #FFF;
stroke: #000;
stroke-width: 0.763;
stroke-dasharray: 4,5;
}
.g8_726{
fill: none;
stroke: #000;
stroke-width: 0.763;
stroke-dasharray: 4,5;
}
.g9_726{
fill: #FFF;
}
]]></style>
</defs>
<path d="M96.2,62.9v.3H838.7v-.3H96.2Z" class="g0_726"/>
<path d="M96.2,1114.1h-.1v.3h.1v-.3Z" class="g0_726"/>
<path d="M838.7,1114.1h.2v.3h-.2v-.3Z" class="g0_726"/>
<path d="M96.2,1114.1v.3H838.7v-.3H96.2Z" class="g0_726"/>
<image clip-path="url(#c0_726)" preserveAspectRatio="none" x="97" y="41" width="72" height="18" xlink:href="img/1.jpg"/>
<path d="M563.8,315.7c0,5.5,-4.5,9.9,-10,9.9c-5.5,0,-9.9,-4.4,-9.9,-9.9c0,-5.5,4.4,-10,9.9,-10c5.5,0,10,4.5,10,10Z" class="g1_726"/>
<path d="M688.9,307.8H600.1V275.5h88.8v32.3Z" class="g2_726"/>
<path d="M686.7,305.6H597.9V273.3h88.8v32.3Z" class="g1_726"/>
<path d="M470,315.7c0,5.5,-4.4,9.9,-9.9,9.9c-5.5,0,-9.9,-4.4,-9.9,-9.9c0,-5.5,4.4,-10,9.9,-10c5.5,0,9.9,4.5,9.9,10Z" class="g1_726"/>
<path d="M559.8,307.7l17,-17h21.1" class="g3_726"/>
<path d="M562.4,299.7l-1.9,7.3l7.3,-1.9l-5.4,-5.4Z" class="g0_726"/>
<path d="M559.8,323.6l17,17h21.1" class="g3_726"/>
<path d="M567.8,326.3l-7.3,-2l2,7.4l5.3,-5.4Z" class="g0_726"/>
<path d="M543.9,315.7H476.4" class="g3_726"/>
<path d="M477.5,311.8l-6.6,3.9l6.6,3.8v-7.7Z" class="g0_726"/>
<path d="M450.2,315.7h-40" class="g3_726"/>
<path d="M412.8,311.8l-6.5,3.9l6.5,3.8v-7.7Z" class="g0_726"/>
<path d="M460.1,411.4V329.9" class="g3_726"/>
<path d="M463.9,332.6L460.1,326l-3.8,6.6h7.6Z" class="g0_726"/>
<path d="M720.7,849.5H583.1V533.1H720.7V849.5Z" class="g2_726"/>
<path d="M718.5,847.3H580.9V530.9H718.5V847.3Z" class="g1_726"/>
<path d="M580.9,677.7H718.5" class="g4_726"/>
<path d="M580.9,697.5H718.5" class="g4_726"/>
<path d="M718.5,643.4H580.9V530.9H718.5V643.4Z" class="g5_726"/>
<path d="M718.5,847.3H580.9V759.5H718.5v87.8Z" class="g5_726"/>
<path d="M520,688.6c0,5.9,-4.8,10.7,-10.7,10.7c-6,0,-10.7,-4.8,-10.7,-10.7c0,-5.9,4.7,-10.7,10.7,-10.7c5.9,0,10.7,4.8,10.7,10.7Z" class="g6_726"/>
<path d="M520.1,688.2h53.3" class="g3_726"/>
<path d="M572.3,692l6.6,-3.8l-6.6,-3.8V692Z" class="g0_726"/>
<path d="M406.1,413.4h-213V220.1h213V413.4Z" class="g2_726"/>
<path d="M403.9,411.2h-213V217.9h213V411.2Z" class="g5_726"/>
<path d="M191,316.7H403.9V270.6H191v46.1Z" class="g1_726"/>
<path d="M191,293.6H403.9" class="g7_726"/>
<path d="M331.6,270.5v23.1" class="g7_726"/>
<path d="M301.2,270.5v23.1" class="g7_726"/>
<path d="M487.5,411.4H411.3" class="g3_726"/>
<path d="M412.4,407.6l-6.6,3.8l6.6,3.8v-7.6Z" class="g0_726"/>
<path d="M406.1,822.3h-213V629h213V822.3Z" class="g2_726"/>
<path d="M403.9,820.1h-213V626.8h213V820.1Z" class="g5_726"/>
<path d="M191,771.5H403.9V725.3H191v46.2Z" class="g1_726"/>
<path d="M191,748.4H403.9" class="g7_726"/>
<path d="M331.6,725.3v23" class="g7_726"/>
<path d="M301.2,725.3v23" class="g7_726"/>
<path d="M798.7,429.9h-309V397.6h309v32.3Z" class="g2_726"/>
<path d="M796.5,427.7h-309V395.4h309v32.3Z" class="g1_726"/>
<path d="M690.6,395.4v32.3" class="g8_726"/>
<path d="M191,306H160.1V474.1H508.9v196" class="g3_726"/>
<path d="M505.1,669l3.8,6.6l3.8,-6.6h-7.6Z" class="g0_726"/>
<path d="M190.9,281.5H136.2v490h47.9" class="g3_726"/>
<path d="M183,775.3l6.6,-3.8L183,767.7v7.6Z" class="g0_726"/>
<path d="M406.1,759.5H572.3" class="g3_726"/>
<path d="M571.1,763.3l6.6,-3.8l-6.6,-3.8v7.6Z" class="g0_726"/>
<path d="M508.9,759.5V706.3" class="g3_726"/>
<path d="M512.8,707.4L509,700.8l-3.9,6.6h7.7Z" class="g0_726"/>
<path d="M732.2,840.3H778v11.4H732.2V840.3Z" class="g9_726"/>
<path d="M732.2,839.9h46.2v.7H732.2v-.7Z" class="g9_726"/>
<path d="M777.7,840.3h.7v11.8h-.7V840.3Z" class="g9_726"/>
<path d="M731.8,851.4H778v.7H731.8v-.7Z" class="g9_726"/>
<path d="M731.8,839.9h.8v11.8h-.8V839.9Z" class="g9_726"/>
</svg>