<?xml version="1.0" encoding="UTF-8" standalone="no"?>
<!DOCTYPE svg PUBLIC "-//W3C//DTD SVG 1.1//EN"
"http://www.w3.org/Graphics/SVG/1.1/DTD/svg11.dtd">
<svg viewBox="0 0 935 1210" version="1.1" xmlns="http://www.w3.org/2000/svg" xmlns:xlink="http://www.w3.org/1999/xlink">
<defs>
<style type="text/css"><![CDATA[
.g0_4675{
fill: #FFF;
}
.g1_4675{
fill: #000;
}
]]></style>
</defs>
<path d="M68.9,1149.3H852.7v-21.2H68.9v21.2Z" class="g0_4675"/>
<path d="M69.9,1099.6h.8V124.1h-.8v975.5Z" class="g1_4675"/>
<path d="M126.7,1100.5h.7V164.6h-.7v935.9Z" class="g1_4675"/>
<path d="M183.4,1100.5h.8V123.4h-.8v977.1Z" class="g1_4675"/>
<path d="M427.1,1100.5h.7V123.4h-.7v977.1Z" class="g1_4675"/>
<path d="M520.2,1100.5h.7V123.4h-.7v977.1Z" class="g1_4675"/>
<path d="M854.4,1099.6h.8V124.1h-.8v975.5Z" class="g1_4675"/>
<path d="M69.9,124.1H855.2v-.7H69.9v.7Z" class="g1_4675"/>
<path d="M69.9,165.4H184.2v-.8H69.9v.8Z" class="g1_4675"/>
<path d="M69.9,189.8H855.2v-.7H69.9v.7Z" class="g1_4675"/>
<path d="M69.9,269.2H855.2v-.7H69.9v.7Z" class="g1_4675"/>
<path d="M69.9,293.7H855.2V293H69.9v.7Z" class="g1_4675"/>
<path d="M69.9,318.2H855.2v-.8H69.9v.8Z" class="g1_4675"/>
<path d="M69.9,452.7H855.2v-.8H69.9v.8Z" class="g1_4675"/>
<path d="M69.9,477H855.2v-.7H69.9v.7Z" class="g1_4675"/>
<path d="M69.9,501.5H855.2v-.7H69.9v.7Z" class="g1_4675"/>
<path d="M69.9,526H855.2v-.8H69.9v.8Z" class="g1_4675"/>
<path d="M69.9,660.4H855.2v-.8H69.9v.8Z" class="g1_4675"/>
<path d="M69.9,684.8H855.2v-.7H69.9v.7Z" class="g1_4675"/>
<path d="M69.9,709.3H855.2v-.7H69.9v.7Z" class="g1_4675"/>
<path d="M69.9,733.7H855.2V733H69.9v.7Z" class="g1_4675"/>
<path d="M69.9,868.2H855.2v-.8H69.9v.8Z" class="g1_4675"/>
<path d="M69.9,892.7H855.2v-.8H69.9v.8Z" class="g1_4675"/>
<path d="M69.9,917H855.2v-.7H69.9v.7Z" class="g1_4675"/>
<path d="M69.9,941.5H855.2v-.7H69.9v.7Z" class="g1_4675"/>
<path d="M69.9,1076H855.2v-.7H69.9v.7Z" class="g1_4675"/>
<path d="M69.9,1100.4H855.2v-.8H69.9v.8Z" class="g1_4675"/>
</svg>