<?xml version="1.0" encoding="UTF-8" standalone="no"?>
<!DOCTYPE svg PUBLIC "-//W3C//DTD SVG 1.1//EN"
"http://www.w3.org/Graphics/SVG/1.1/DTD/svg11.dtd">
<svg viewBox="0 0 825 990" version="1.1" xmlns="http://www.w3.org/2000/svg" xmlns:xlink="http://www.w3.org/1999/xlink">
<defs>
<style type="text/css"><![CDATA[
.g0_226{
fill: #000;
}
]]></style>
</defs>
<path d="M79.8,910.3h.3v-.8h-.3v.8Z" class="g0_226"/>
<path d="M80.1,910.3h650v-.8H80.1v.8Z" class="g0_226"/>
<path d="M144.7,209.1h1.6V166.3h-1.6v42.8Z" class="g0_226"/>
<path d="M218.1,210.7h.7V164.8h-.7v45.9Z" class="g0_226"/>
<path d="M309.4,210.7h.7V164.8h-.7v45.9Z" class="g0_226"/>
<path d="M327.7,210.7h.7V164.8h-.7v45.9Z" class="g0_226"/>
<path d="M364.2,210.7h.7V164.8h-.7v45.9Z" class="g0_226"/>
<path d="M437.3,210.7h.7V164.8h-.7v45.9Z" class="g0_226"/>
<path d="M510.2,210.7h.8V164.8h-.8v45.9Z" class="g0_226"/>
<path d="M583.3,210.7h.7V164.8h-.7v45.9Z" class="g0_226"/>
<path d="M729,209.1h1.6V166.3H729v42.8Z" class="g0_226"/>
<path d="M144.7,166.4H730.5v-1.6H144.7v1.6Z" class="g0_226"/>
<path d="M144.7,210.7H730.5v-1.6H144.7v1.6Z" class="g0_226"/>
<path d="M144.7,316.1h1.6V273.3h-1.6v42.8Z" class="g0_226"/>
<path d="M218.1,317.5h.7V271.7h-.7v45.8Z" class="g0_226"/>
<path d="M309.4,317.5h.7V271.7h-.7v45.8Z" class="g0_226"/>
<path d="M327.7,317.5h.7V271.7h-.7v45.8Z" class="g0_226"/>
<path d="M364.2,317.5h.7V271.7h-.7v45.8Z" class="g0_226"/>
<path d="M437.3,317.5h.7V271.7h-.7v45.8Z" class="g0_226"/>
<path d="M510.2,317.5h.8V271.7h-.8v45.8Z" class="g0_226"/>
<path d="M583.3,317.5h.7V271.7h-.7v45.8Z" class="g0_226"/>
<path d="M656.3,317.5h.8V271.7h-.8v45.8Z" class="g0_226"/>
<path d="M729,316.1h1.6V273.3H729v42.8Z" class="g0_226"/>
<path d="M144.7,273.4H730.5v-1.6H144.7v1.6Z" class="g0_226"/>
<path d="M144.7,317.6H730.5v-1.5H144.7v1.5Z" class="g0_226"/>
</svg>