<?xml version="1.0" encoding="UTF-8" standalone="no"?>
<!DOCTYPE svg PUBLIC "-//W3C//DTD SVG 1.1//EN"
"http://www.w3.org/Graphics/SVG/1.1/DTD/svg11.dtd">
<svg viewBox="0 0 935 1210" version="1.1" xmlns="http://www.w3.org/2000/svg" xmlns:xlink="http://www.w3.org/1999/xlink">
<defs>
<clipPath id="c0_1728"><path d="M766.6,59.2V41.4h72.1V59.2Z"/></clipPath>
<style type="text/css"><![CDATA[
.g0_1728{
fill: #000;
}
]]></style>
</defs>
<path d="M97.3,62.9v.3H839.9v-.3H97.3Z" class="g0_1728"/>
<path d="M96.2,1114.1h-.1v.4h.1v-.4Z" class="g0_1728"/>
<path d="M838.7,1114.1h.2v.4h-.2v-.4Z" class="g0_1728"/>
<path d="M96.2,1114.1v.4H838.7v-.4H96.2Z" class="g0_1728"/>
<image clip-path="url(#c0_1728)" preserveAspectRatio="none" x="767" y="41" width="72" height="18" xlink:href="img/1.jpg"/>
<path d="M96.6,152.7h-.7V257.8h.7V152.7Z" class="g0_1728"/>
<path d="M244.8,149.7h-.7V258.6h.7V149.7Z" class="g0_1728"/>
<path d="M284.5,149.7h-.7V258.6h.7V149.7Z" class="g0_1728"/>
<path d="M338,149.7h-.8V258.6h.8V149.7Z" class="g0_1728"/>
<path d="M410.1,149.7h-.7V258.6h.7V149.7Z" class="g0_1728"/>
<path d="M841.5,152.7h-.8V257.8h.8V152.7Z" class="g0_1728"/>
<path d="M95.9,149.8v3H841.5v-3H95.9Z" class="g0_1728"/>
<path d="M95.9,192.5v3H841.5v-3H95.9Z" class="g0_1728"/>
<path d="M95.9,218.1v.7H841.5v-.7H95.9Z" class="g0_1728"/>
<path d="M95.9,257.9v.7H841.5v-.7H95.9Z" class="g0_1728"/>
</svg>