<?xml version="1.0" encoding="UTF-8" standalone="no"?>
<!DOCTYPE svg PUBLIC "-//W3C//DTD SVG 1.1//EN"
"http://www.w3.org/Graphics/SVG/1.1/DTD/svg11.dtd">
<svg viewBox="0 0 825 990" version="1.1" xmlns="http://www.w3.org/2000/svg" xmlns:xlink="http://www.w3.org/1999/xlink">
<defs>
<style type="text/css"><![CDATA[
.g0_761{
fill: #000;
}
]]></style>
</defs>
<path d="M94.9,910.3h.3v-.8h-.3v.8Z" class="g0_761"/>
<path d="M95.2,910.3h650v-.8H95.2v.8Z" class="g0_761"/>
<path d="M157.5,213.3H744.9v-.7H157.5v.7Z" class="g0_761"/>
<path d="M157.5,265.2H744.9v-.7H157.5v.7Z" class="g0_761"/>
<path d="M157.5,294H744.9v-.2H157.5v.2Z" class="g0_761"/>
<path d="M157.5,323H744.9v-.1H157.5v.1Z" class="g0_761"/>
<path d="M157.5,368.9H744.9v-.2H157.5v.2Z" class="g0_761"/>
<path d="M157.5,397.8H744.9v-.1H157.5v.1Z" class="g0_761"/>
<path d="M157.5,426.9H744.9v-.2H157.5v.2Z" class="g0_761"/>
<path d="M157.5,456H744.9v-.2H157.5v.2Z" class="g0_761"/>
<path d="M157.5,484.9H744.9v-.2H157.5v.2Z" class="g0_761"/>
<path d="M157.5,514.3H744.9v-.8H157.5v.8Z" class="g0_761"/>
<path d="M446,676.2H744.9v-.7H446v.7Z" class="g0_761"/>
<path d="M446,711.3H744.9v-.7H446v.7Z" class="g0_761"/>
<path d="M446,740.1H744.9v-.2H446v.2Z" class="g0_761"/>
<path d="M446,769.4H744.9v-.8H446v.8Z" class="g0_761"/>
</svg>