<?xml version="1.0" encoding="UTF-8" standalone="no"?>
<!DOCTYPE svg PUBLIC "-//W3C//DTD SVG 1.1//EN"
"http://www.w3.org/Graphics/SVG/1.1/DTD/svg11.dtd">
<svg viewBox="0 0 935 1210" version="1.1" xmlns="http://www.w3.org/2000/svg" xmlns:xlink="http://www.w3.org/1999/xlink">
<defs>
<clipPath id="c0_1896"><path d="M766.6,59.2V41.4h72.1V59.2Z"/></clipPath>
<style type="text/css"><![CDATA[
.g0_1896{
fill: #000;
}
]]></style>
</defs>
<path d="M97.3,62.9v.3H839.9v-.3H97.3Z" class="g0_1896"/>
<path d="M96.2,1114.1h-.1v.4h.1v-.4Z" class="g0_1896"/>
<path d="M838.7,1114.1h.2v.4h-.2v-.4Z" class="g0_1896"/>
<path d="M96.2,1114.1v.4H838.7v-.4H96.2Z" class="g0_1896"/>
<image clip-path="url(#c0_1896)" preserveAspectRatio="none" x="767" y="41" width="72" height="18" xlink:href="img/1.jpg"/>
<path d="M96.6,160.8h-.7v915.9h.7V160.8Z" class="g0_1896"/>
<path d="M142.8,160h-.7v917.4h.7V160Z" class="g0_1896"/>
<path d="M324.3,160h-.7v917.4h.7V160Z" class="g0_1896"/>
<path d="M833.4,160.8h-.7v915.9h.7V160.8Z" class="g0_1896"/>
<path d="M95.9,160v.8H833.4V160H95.9Z" class="g0_1896"/>
<path d="M95.9,184.4v.8H833.4v-.8H95.9Z" class="g0_1896"/>
<path d="M95.9,208.9v.7H833.4v-.7H95.9Z" class="g0_1896"/>
<path d="M95.9,233.4v.7H833.4v-.7H95.9Z" class="g0_1896"/>
<path d="M95.9,257.9v.7H833.4v-.7H95.9Z" class="g0_1896"/>
<path d="M95.9,300.6v.7H833.4v-.7H95.9Z" class="g0_1896"/>
<path d="M95.9,325v.8H833.4V325H95.9Z" class="g0_1896"/>
<path d="M95.9,349.5v.7H833.4v-.7H95.9Z" class="g0_1896"/>
<path d="M95.9,392.2v.8H833.4v-.8H95.9Z" class="g0_1896"/>
<path d="M95.9,453.4v.7H833.4v-.7H95.9Z" class="g0_1896"/>
<path d="M95.9,477.8v.8H833.4v-.8H95.9Z" class="g0_1896"/>
<path d="M95.9,502.2v.8H833.4v-.8H95.9Z" class="g0_1896"/>
<path d="M95.9,526.7v.7H833.4v-.7H95.9Z" class="g0_1896"/>
<path d="M95.9,569.5v.7H833.4v-.7H95.9Z" class="g0_1896"/>
<path d="M95.9,612.2v.8H833.4v-.8H95.9Z" class="g0_1896"/>
<path d="M95.9,636.7v.7H833.4v-.7H95.9Z" class="g0_1896"/>
<path d="M95.9,661.2v.7H833.4v-.7H95.9Z" class="g0_1896"/>
<path d="M95.9,685.6v.7H833.4v-.7H95.9Z" class="g0_1896"/>
<path d="M95.9,710v.8H833.4V710H95.9Z" class="g0_1896"/>
<path d="M95.9,752.8v.8H833.4v-.8H95.9Z" class="g0_1896"/>
<path d="M95.9,795.6v.7H833.4v-.7H95.9Z" class="g0_1896"/>
<path d="M95.9,820v.8H833.4V820H95.9Z" class="g0_1896"/>
<path d="M95.9,862.8v.8H833.4v-.8H95.9Z" class="g0_1896"/>
<path d="M95.9,887.2v.8H833.4v-.8H95.9Z" class="g0_1896"/>
<path d="M95.9,930v.8H833.4V930H95.9Z" class="g0_1896"/>
<path d="M95.9,991.2v.7H833.4v-.7H95.9Z" class="g0_1896"/>
<path d="M95.9,1034v.7H833.4v-.7H95.9Z" class="g0_1896"/>
<path d="M95.9,1076.7v.7H833.4v-.7H95.9Z" class="g0_1896"/>
<path d="M65.6,215.4h3.1v15.2H65.6V215.4Z" class="g0_1896"/>
<path d="M65.6,239.9h3.1v15.2H65.6V239.9Z" class="g0_1896"/>
<path d="M65.6,264.3h3.1v33.6H65.6V264.3Z" class="g0_1896"/>
</svg>