<?xml version="1.0" encoding="UTF-8" standalone="no"?>
<!DOCTYPE svg PUBLIC "-//W3C//DTD SVG 1.1//EN"
"http://www.w3.org/Graphics/SVG/1.1/DTD/svg11.dtd">
<svg viewBox="0 0 935 1210" version="1.1" xmlns="http://www.w3.org/2000/svg" xmlns:xlink="http://www.w3.org/1999/xlink">
<defs>
<clipPath id="c0_874"><path d="M97.3,59.2V41.4h72.1V59.2Z"/></clipPath>
<style type="text/css"><![CDATA[
.g0_874{
fill: #000;
}
.g1_874{
fill: #DFDFDF;
}
.g2_874{
fill: #E5E5E5;
}
]]></style>
</defs>
<path d="M96.2,62.9v.3H838.7v-.3H96.2Z" class="g0_874"/>
<path d="M96.2,1114.1h-.1v.3h.1v-.3Z" class="g0_874"/>
<path d="M838.7,1114.1h.2v.3h-.2v-.3Z" class="g0_874"/>
<path d="M96.2,1114.1v.3H838.7v-.3H96.2Z" class="g0_874"/>
<image clip-path="url(#c0_874)" preserveAspectRatio="none" x="97" y="41" width="72" height="18" xlink:href="img/1.jpg"/>
<path d="M96.2,184.1H746v55H96.2v-55Z" class="g1_874"/>
<path d="M96.2,286.4H305.1v55H96.2v-55Z" class="g1_874"/>
<path d="M328.2,286.4h23.2v55H328.2v-55Z" class="g1_874"/>
<path d="M374.6,286.4h92.9v55H374.6v-55Z" class="g1_874"/>
<path d="M96.2,385.7h43v19.9h-43V385.7Z" class="g1_874"/>
<path d="M139.2,385.7H297.6v19.9H139.2V385.7Z" class="g1_874"/>
<path d="M297.6,385.7H571.9v19.9H297.6V385.7Z" class="g1_874"/>
<path d="M571.9,385.7h110v19.9h-110V385.7Z" class="g1_874"/>
<path d="M96.2,425.5h43v19.8h-43V425.5Z" class="g1_874"/>
<path d="M139.2,425.5H297.6v19.8H139.2V425.5Z" class="g1_874"/>
<path d="M297.6,425.5H571.9v19.8H297.6V425.5Z" class="g1_874"/>
<path d="M571.9,425.5h110v19.8h-110V425.5Z" class="g1_874"/>
<path d="M96.2,465.2h43v19.9h-43V465.2Z" class="g2_874"/>
<path d="M139.2,465.2H297.6v19.9H139.2V465.2Z" class="g2_874"/>
<path d="M297.6,465.2H571.9v19.9H297.6V465.2Z" class="g2_874"/>
<path d="M571.9,465.2h110v19.9h-110V465.2Z" class="g2_874"/>
<path d="M96.2,504.9h43v19.9h-43V504.9Z" class="g1_874"/>
<path d="M139.2,504.9H297.6v19.9H139.2V504.9Z" class="g1_874"/>
<path d="M297.6,504.9H571.9v19.9H297.6V504.9Z" class="g1_874"/>
<path d="M571.9,504.9h110v19.9h-110V504.9Z" class="g1_874"/>
<path d="M96.6,184.4h-.7v53.2h.7V184.4Z" class="g0_874"/>
<path d="M746.3,183.7h-.7v56.9h.7V183.7Z" class="g0_874"/>
<path d="M840.3,184.4h-3.1v53.2h3.1V184.4Z" class="g0_874"/>
<path d="M95.9,183.7v.7H840.3v-.7H95.9Z" class="g0_874"/>
<path d="M95.9,237.6v3H840.3v-3H95.9Z" class="g0_874"/>
<path d="M96.6,286.8h-.7v53.1h.7V286.8Z" class="g0_874"/>
<path d="M305.4,286.1h-.7V343h.7V286.1Z" class="g0_874"/>
<path d="M328.6,286.1h-.7V343h.7V286.1Z" class="g0_874"/>
<path d="M351.8,286.1h-.7V343h.7V286.1Z" class="g0_874"/>
<path d="M375,286.1h-.7V343h.7V286.1Z" class="g0_874"/>
<path d="M467.8,286.1h-.7V343h.7V286.1Z" class="g0_874"/>
<path d="M653.5,286.1h-.8V343h.8V286.1Z" class="g0_874"/>
<path d="M840.3,286.8h-3.1v53.1h3.1V286.8Z" class="g0_874"/>
<path d="M95.9,286.1v.7H840.3v-.7H95.9Z" class="g0_874"/>
<path d="M95.9,340v3H840.3v-3H95.9Z" class="g0_874"/>
<path d="M96.2,385.4v.7H681.9v-.7H96.2Z" class="g0_874"/>
<path d="M96.2,564.1v.7H681.9v-.7H96.2Z" class="g0_874"/>
</svg>