<?xml version="1.0" encoding="UTF-8" standalone="no"?>
<!DOCTYPE svg PUBLIC "-//W3C//DTD SVG 1.1//EN"
"http://www.w3.org/Graphics/SVG/1.1/DTD/svg11.dtd">
<svg viewBox="0 0 935 1210" version="1.1" xmlns="http://www.w3.org/2000/svg" xmlns:xlink="http://www.w3.org/1999/xlink">
<defs>
<clipPath id="c0_730"><path d="M97.3,59.2V41.4h72.1V59.2Z"/></clipPath>
<style type="text/css"><![CDATA[
.g0_730{
fill: #000;
}
.g1_730{
fill: #000;
stroke: #000;
stroke-width: 1.527;
}
.g2_730{
fill: #FFF;
stroke: #000;
stroke-width: 1.527;
}
.g3_730{
fill: #FFF;
stroke: #000;
stroke-width: 0.763;
}
.g4_730{
fill: #E5E5E5;
}
.g5_730{
fill: none;
stroke: #000;
stroke-width: 1.527;
}
.g6_730{
fill: #000;
stroke: #000;
stroke-width: 0.763;
}
.g7_730{
fill: none;
stroke: #000;
stroke-width: 0.763;
}
.g8_730{
fill: none;
stroke: #000;
stroke-width: 0.763;
stroke-dasharray: 4,5;
}
.g9_730{
fill: #FFF;
}
]]></style>
</defs>
<path d="M96.2,62.9v.3H838.7v-.3H96.2Z" class="g0_730"/>
<path d="M96.2,1114.1h-.1v.3h.1v-.3Z" class="g0_730"/>
<path d="M838.7,1114.1h.2v.3h-.2v-.3Z" class="g0_730"/>
<path d="M96.2,1114.1v.3H838.7v-.3H96.2Z" class="g0_730"/>
<image clip-path="url(#c0_730)" preserveAspectRatio="none" x="97" y="41" width="72" height="18" xlink:href="img/1.jpg"/>
<path d="M347.3,720.3H224.1V675.4H347.3v44.9Z" class="g1_730"/>
<path d="M345.1,718.1H221.9V673.2H345.1v44.9Z" class="g2_730"/>
<path d="M221.9,695.7H345.1" class="g3_730"/>
<path d="M283.5,673.2v22.5" class="g3_730"/>
<path d="M630.6,796.8H741.9V604.3H630.6V796.8Z" class="g4_730"/>
<path d="M629,604.3V796.8M740.4,604.3V796.8" class="g5_730"/>
<path d="M740.3,771.8H629.2V659.7H740.3V771.8Z" class="g2_730"/>
<path d="M223.7,583.3H347V560.9H223.7v22.4Z" class="g6_730"/>
<path d="M221.5,581.1H344.8V558.7H221.5v22.4Z" class="g2_730"/>
<path d="M299.4,558.7v22.4" class="g7_730"/>
<path d="M405.4,653.9c0,8.1,-6.6,14.7,-14.8,14.7c-8.2,0,-14.8,-6.6,-14.8,-14.7c0,-8.2,6.6,-14.8,14.8,-14.8c8.2,0,14.8,6.6,14.8,14.8Z" class="g2_730"/>
<path d="M347.3,819.3H224.1V774.5H347.3v44.8Z" class="g1_730"/>
<path d="M345.1,817.1H221.9V772.3H345.1v44.8Z" class="g2_730"/>
<path d="M221.9,794.7H345.1" class="g3_730"/>
<path d="M283.5,772.3v22.4" class="g3_730"/>
<path d="M347.3,709.2h14.4V755H192.5v62.1H214" class="g7_730"/>
<path d="M212.9,820.9l6.6,-3.8l-6.6,-3.8v7.6Z" class="g0_730"/>
<path d="M441.7,741.4c0,8.2,-6.7,14.8,-14.8,14.8c-8.2,0,-14.8,-6.6,-14.8,-14.8c0,-8.1,6.6,-14.7,14.8,-14.7c8.1,0,14.8,6.6,14.8,14.7Z" class="g2_730"/>
<path d="M482.4,687.5c0,8.1,-6.6,14.7,-14.8,14.7c-8.1,0,-14.7,-6.6,-14.7,-14.7c0,-8.2,6.6,-14.8,14.7,-14.8c8.2,0,14.8,6.6,14.8,14.8Z" class="g2_730"/>
<path d="M347.3,685.7h43.3V675.6" class="g7_730"/>
<path d="M394.4,676.7l-3.8,-6.6l-3.8,6.6h7.6Z" class="g0_730"/>
<path d="M347.3,784.5h79.6V762.1" class="g7_730"/>
<path d="M430.7,763.2l-3.8,-6.6l-3.8,6.6h7.6Z" class="g0_730"/>
<path d="M405.4,653.9h62.2v12.5" class="g8_730"/>
<path d="M463.8,665.3l3.8,6.6l3.8,-6.6h-7.6Z" class="g0_730"/>
<path d="M441.7,741.4h25.9V707.1" class="g8_730"/>
<path d="M471.4,708.2l-3.8,-6.6l-3.8,6.6h7.6Z" class="g0_730"/>
<path d="M482.4,687.5H623.5" class="g8_730"/>
<path d="M622.4,691.3l6.5,-3.8l-6.5,-3.8v7.6Z" class="g0_730"/>
<path d="M344.8,569.8h45.8v63.1" class="g7_730"/>
<path d="M386.8,631.8l3.8,6.6l3.8,-6.6h-7.6Z" class="g0_730"/>
<path d="M238.1,626.8H192.5v91.3h20.4" class="g7_730"/>
<path d="M211.8,721.9l6.6,-3.8l-6.6,-3.8v7.6Z" class="g0_730"/>
<path d="M390.6,569.8h36.3V720.5" class="g7_730"/>
<path d="M423.1,719.4l3.8,6.6l3.8,-6.6h-7.6Z" class="g0_730"/>
<path d="M347.3,352.7H224.1V307.9H347.3v44.8Z" class="g1_730"/>
<path d="M345.1,350.5H221.9V305.7H345.1v44.8Z" class="g2_730"/>
<path d="M221.9,328.1H345.1" class="g3_730"/>
<path d="M283.5,305.7v22.4" class="g3_730"/>
<path d="M630.6,429.2H741.9V236.7H630.6V429.2Z" class="g4_730"/>
<path d="M629,236.7V429.2M740.4,236.7V429.2" class="g5_730"/>
<path d="M740.3,404.2H629.2v-112H740.3v112Z" class="g2_730"/>
<path d="M223.7,215.8H347V193.4H223.7v22.4Z" class="g6_730"/>
<path d="M221.5,213.6H344.8V191.2H221.5v22.4Z" class="g2_730"/>
<path d="M299.4,191.2v22.4" class="g7_730"/>
<path d="M405.4,286.3c0,8.2,-6.6,14.8,-14.8,14.8c-8.2,0,-14.8,-6.6,-14.8,-14.8c0,-8.1,6.6,-14.7,14.8,-14.7c8.2,0,14.8,6.6,14.8,14.7Z" class="g2_730"/>
<path d="M347.3,451.8H224.1V407H347.3v44.8Z" class="g1_730"/>
<path d="M345.1,449.6H221.9V404.8H345.1v44.8Z" class="g2_730"/>
<path d="M221.9,427.2H345.1" class="g3_730"/>
<path d="M283.5,404.8v22.4" class="g3_730"/>
<path d="M347.3,341.6h14.4v45.9H192.5v62.1H214" class="g7_730"/>
<path d="M212.9,453.4l6.6,-3.8l-6.6,-3.8v7.6Z" class="g0_730"/>
<path d="M441.7,373.9c0,8.2,-6.7,14.8,-14.8,14.8c-8.2,0,-14.8,-6.6,-14.8,-14.8c0,-8.1,6.6,-14.7,14.8,-14.7c8.1,0,14.8,6.6,14.8,14.7Z" class="g2_730"/>
<path d="M482.4,319.9c0,8.2,-6.6,14.8,-14.8,14.8c-8.1,0,-14.7,-6.6,-14.7,-14.8c0,-8.1,6.6,-14.7,14.7,-14.7c8.2,0,14.8,6.6,14.8,14.7Z" class="g2_730"/>
<path d="M347.3,318.2h43.3V308" class="g7_730"/>
<path d="M394.4,309.1l-3.8,-6.6l-3.8,6.6h7.6Z" class="g0_730"/>
<path d="M347.3,417h79.6V394.6" class="g7_730"/>
<path d="M430.7,395.7l-3.8,-6.6l-3.8,6.6h7.6Z" class="g0_730"/>
<path d="M405.4,286.3h62.2v12.6" class="g7_730"/>
<path d="M463.8,297.7l3.8,6.6l3.8,-6.6h-7.6Z" class="g0_730"/>
<path d="M441.7,373.9h25.9V339.6" class="g7_730"/>
<path d="M471.4,340.7l-3.8,-6.6l-3.8,6.6h7.6Z" class="g0_730"/>
<path d="M482.4,319.9H623.5" class="g7_730"/>
<path d="M622.4,323.8l6.5,-3.8l-6.5,-3.9v7.7Z" class="g0_730"/>
<path d="M344.8,202.2h45.8v63.2" class="g7_730"/>
<path d="M386.8,264.3l3.8,6.6l3.8,-6.6h-7.6Z" class="g0_730"/>
<path d="M238.1,259.3H192.5v91.2h20.4" class="g7_730"/>
<path d="M211.8,354.4l6.6,-3.9l-6.6,-3.8v7.7Z" class="g0_730"/>
<path d="M390.6,202.2h36.3V353" class="g7_730"/>
<path d="M423.1,351.9l3.8,6.6l3.8,-6.6h-7.6Z" class="g0_730"/>
<path d="M689.8,853.7h43.5v11.4H689.8V853.7Z" class="g9_730"/>
<path d="M689.8,853.3h43.9v.7H689.8v-.7Z" class="g9_730"/>
<path d="M732.9,853.7h.8v11.8h-.8V853.7Z" class="g9_730"/>
<path d="M689.4,864.7h43.9v.8H689.4v-.8Z" class="g9_730"/>
<path d="M689.4,853.3h.7v11.8h-.7V853.3Z" class="g9_730"/>
</svg>