<?xml version="1.0" encoding="UTF-8" standalone="no"?>
<!DOCTYPE svg PUBLIC "-//W3C//DTD SVG 1.1//EN"
"http://www.w3.org/Graphics/SVG/1.1/DTD/svg11.dtd">
<svg viewBox="0 0 935 1210" version="1.1" xmlns="http://www.w3.org/2000/svg" xmlns:xlink="http://www.w3.org/1999/xlink">
<defs>
<style type="text/css"><![CDATA[
.g0_1034{
fill: #FFF;
}
.g1_1034{
fill: #000;
}
]]></style>
</defs>
<path d="M165,1149.3H852.5v-21.2H165v21.2Z" class="g0_1034"/>
<path d="M68.8,1149.3h82.5v-21.2H68.8v21.2Z" class="g0_1034"/>
<path d="M68.9,278.7H852.2V249.1H68.9v29.6Z" class="g0_1034"/>
<path d="M69.9,272h53.5V259.5H69.9V272Z" class="g0_1034"/>
<path d="M68.6,248.7h.7V131.8h-.7V248.7Z" class="g1_1034"/>
<path d="M193.9,249.4h.7V131h-.7V249.4Z" class="g1_1034"/>
<path d="M377.9,249.4h.8V131h-.8V249.4Z" class="g1_1034"/>
<path d="M440.5,249.4h.8V131h-.8V249.4Z" class="g1_1034"/>
<path d="M515.5,249.4h.8V131h-.8V249.4Z" class="g1_1034"/>
<path d="M851.9,248.7h.7V131.8h-.7V248.7Z" class="g1_1034"/>
<path d="M68.6,131.7h784V131H68.6v.7Z" class="g1_1034"/>
<path d="M68.6,169.9h784v-.7H68.6v.7Z" class="g1_1034"/>
<path d="M68.6,209.6h784v-.7H68.6v.7Z" class="g1_1034"/>
<path d="M68.6,249.4h784v-.7H68.6v.7Z" class="g1_1034"/>
</svg>