<?xml version="1.0" encoding="UTF-8" standalone="no"?>
<!DOCTYPE svg PUBLIC "-//W3C//DTD SVG 1.1//EN"
"http://www.w3.org/Graphics/SVG/1.1/DTD/svg11.dtd">
<svg viewBox="0 0 825 990" version="1.1" xmlns="http://www.w3.org/2000/svg" xmlns:xlink="http://www.w3.org/1999/xlink">
<defs>
<style type="text/css"><![CDATA[
.g0_884{
fill: #000;
}
]]></style>
</defs>
<path d="M79.8,910.3h.3v-.8h-.3v.8Z" class="g0_884"/>
<path d="M80.1,910.3h650v-.8H80.1v.8Z" class="g0_884"/>
<path d="M143.2,209.1h1.5V166.3h-1.5v42.8Z" class="g0_884"/>
<path d="M279,210.7h.8V164.8H279v45.9Z" class="g0_884"/>
<path d="M305.6,210.7h.8V164.8h-.8v45.9Z" class="g0_884"/>
<path d="M328.9,210.7h.7V164.8h-.7v45.9Z" class="g0_884"/>
<path d="M348.8,210.7h.7V164.8h-.7v45.9Z" class="g0_884"/>
<path d="M378.2,210.7h.8V164.8h-.8v45.9Z" class="g0_884"/>
<path d="M451.3,210.7h.7V164.8h-.7v45.9Z" class="g0_884"/>
<path d="M583.3,210.7h.7V164.8h-.7v45.9Z" class="g0_884"/>
<path d="M656.3,210.7h.8V164.8h-.8v45.9Z" class="g0_884"/>
<path d="M729,209.1h1.6V166.3H729v42.8Z" class="g0_884"/>
<path d="M143.2,166.4H730.5v-1.6H143.2v1.6Z" class="g0_884"/>
<path d="M143.2,210.7H730.5v-1.6H143.2v1.6Z" class="g0_884"/>
</svg>