<?xml version="1.0" encoding="UTF-8" standalone="no"?>
<!DOCTYPE svg PUBLIC "-//W3C//DTD SVG 1.1//EN"
"http://www.w3.org/Graphics/SVG/1.1/DTD/svg11.dtd">
<svg viewBox="0 0 935 1210" version="1.1" xmlns="http://www.w3.org/2000/svg" xmlns:xlink="http://www.w3.org/1999/xlink">
<defs>
<style type="text/css"><![CDATA[
.g0_2587{
fill: #FFF;
}
.g1_2587{
fill: #000;
}
]]></style>
</defs>
<path d="M68.9,1149.3H755.2v-21.2H68.9v21.2Z" class="g0_2587"/>
<path d="M771.3,1149.3H855v-21.2H771.3v21.2Z" class="g0_2587"/>
<path d="M69.9,448.8h.8V125.7h-.8V448.8Z" class="g1_2587"/>
<path d="M295.6,449.5h.8V124.9h-.8V449.5Z" class="g1_2587"/>
<path d="M339.7,449.5h.7V124.9h-.7V449.5Z" class="g1_2587"/>
<path d="M414.1,449.5h.8V124.9h-.8V449.5Z" class="g1_2587"/>
<path d="M500.1,449.5h.8V124.9h-.8V449.5Z" class="g1_2587"/>
<path d="M856.5,448.8h.8V125.7h-.8V448.8Z" class="g1_2587"/>
<path d="M69.9,125.7H857.3v-.8H69.9v.8Z" class="g1_2587"/>
<path d="M69.9,179.1H857.3v-.7H69.9v.7Z" class="g1_2587"/>
<path d="M69.9,269.2H857.3v-.7H69.9v.7Z" class="g1_2587"/>
<path d="M69.9,359.4H857.3v-.7H69.9v.7Z" class="g1_2587"/>
<path d="M69.9,449.5H857.3v-.7H69.9v.7Z" class="g1_2587"/>
<path d="M69.9,552.7h.8V504.5h-.8v48.2Z" class="g1_2587"/>
<path d="M153.5,553.5h.7V503.8h-.7v49.7Z" class="g1_2587"/>
<path d="M259,553.5h.8V503.8H259v49.7Z" class="g1_2587"/>
<path d="M403.8,553.5h.7V503.8h-.7v49.7Z" class="g1_2587"/>
<path d="M562.6,553.5h.7V503.8h-.7v49.7Z" class="g1_2587"/>
<path d="M709,553.5h.8V503.8H709v49.7Z" class="g1_2587"/>
<path d="M848.1,552.7h.7V504.5h-.7v48.2Z" class="g1_2587"/>
<path d="M69.9,504.5h779v-.7H69.9v.7Z" class="g1_2587"/>
<path d="M69.9,529h779v-.7H69.9v.7Z" class="g1_2587"/>
<path d="M69.9,553.5h779v-.8H69.9v.8Z" class="g1_2587"/>
</svg>