<?xml version="1.0" encoding="UTF-8" standalone="no"?>
<!DOCTYPE svg PUBLIC "-//W3C//DTD SVG 1.1//EN"
"http://www.w3.org/Graphics/SVG/1.1/DTD/svg11.dtd">
<svg viewBox="0 0 935 1210" version="1.1" xmlns="http://www.w3.org/2000/svg" xmlns:xlink="http://www.w3.org/1999/xlink">
<defs>
<clipPath id="c0_1868"><path d="M766.6,59.2V41.4h72.1V59.2Z"/></clipPath>
<style type="text/css"><![CDATA[
.g0_1868{
fill: #000;
}
]]></style>
</defs>
<path d="M97.3,62.9v.3H839.9v-.3H97.3Z" class="g0_1868"/>
<path d="M96.2,1114.1h-.1v.4h.1v-.4Z" class="g0_1868"/>
<path d="M838.7,1114.1h.2v.4h-.2v-.4Z" class="g0_1868"/>
<path d="M96.2,1114.1v.4H838.7v-.4H96.2Z" class="g0_1868"/>
<image clip-path="url(#c0_1868)" preserveAspectRatio="none" x="767" y="41" width="72" height="18" xlink:href="img/1.jpg"/>
<path d="M96.6,151.6h-.7V639.7h.7V151.6Z" class="g0_1868"/>
<path d="M142.8,150.9h-.7V640.6h.7V150.9Z" class="g0_1868"/>
<path d="M274.8,150.9h-.7V640.6h.7V150.9Z" class="g0_1868"/>
<path d="M839.1,151.6h-.7V639.7h.7V151.6Z" class="g0_1868"/>
<path d="M95.9,150.9v.7H839.1v-.7H95.9Z" class="g0_1868"/>
<path d="M95.9,175.3v.7H839.1v-.7H95.9Z" class="g0_1868"/>
<path d="M95.9,199.7v.8H839.1v-.8H95.9Z" class="g0_1868"/>
<path d="M95.9,224.2v.7H839.1v-.7H95.9Z" class="g0_1868"/>
<path d="M95.9,248.7v.7H839.1v-.7H95.9Z" class="g0_1868"/>
<path d="M95.9,273.1v.7H839.1v-.7H95.9Z" class="g0_1868"/>
<path d="M95.9,315.9v.7H839.1v-.7H95.9Z" class="g0_1868"/>
<path d="M95.9,340.3v.8H839.1v-.8H95.9Z" class="g0_1868"/>
<path d="M95.9,364.7v.8H839.1v-.8H95.9Z" class="g0_1868"/>
<path d="M95.9,389.2v.7H839.1v-.7H95.9Z" class="g0_1868"/>
<path d="M95.9,413.7v.7H839.1v-.7H95.9Z" class="g0_1868"/>
<path d="M95.9,438.1v.7H839.1v-.7H95.9Z" class="g0_1868"/>
<path d="M95.9,462.5v.8H839.1v-.8H95.9Z" class="g0_1868"/>
<path d="M95.9,487v.7H839.1V487H95.9Z" class="g0_1868"/>
<path d="M95.9,511.4v.7H839.1v-.7H95.9Z" class="g0_1868"/>
<path d="M95.9,535.9v.7H839.1v-.7H95.9Z" class="g0_1868"/>
<path d="M95.9,578.7v.7H839.1v-.7H95.9Z" class="g0_1868"/>
<path d="M95.9,639.7v.8H839.1v-.8H95.9Z" class="g0_1868"/>
<path d="M96.2,701.3v3H838.7v-3H96.2Z" class="g0_1868"/>
<path d="M96.6,758.2h-.7v335.3h.7V758.2Z" class="g0_1868"/>
<path d="M142.8,757.4h-.7v336.9h.7V757.4Z" class="g0_1868"/>
<path d="M274.8,757.4h-.7v336.9h.7V757.4Z" class="g0_1868"/>
<path d="M839.1,758.2h-.7v335.3h.7V758.2Z" class="g0_1868"/>
<path d="M95.9,757.4v.8H839.1v-.8H95.9Z" class="g0_1868"/>
<path d="M95.9,781.8v.7H839.1v-.7H95.9Z" class="g0_1868"/>
<path d="M95.9,806.3v.7H839.1v-.7H95.9Z" class="g0_1868"/>
<path d="M95.9,849.1v.7H839.1v-.7H95.9Z" class="g0_1868"/>
<path d="M95.9,873.5v.7H839.1v-.7H95.9Z" class="g0_1868"/>
<path d="M95.9,916.3v.7H839.1v-.7H95.9Z" class="g0_1868"/>
<path d="M95.9,959.1v.7H839.1v-.7H95.9Z" class="g0_1868"/>
<path d="M95.9,1001.8v.7H839.1v-.7H95.9Z" class="g0_1868"/>
<path d="M95.9,1044.6v.7H839.1v-.7H95.9Z" class="g0_1868"/>
<path d="M95.9,1069.1v.7H839.1v-.7H95.9Z" class="g0_1868"/>
<path d="M95.9,1093.6v.7H839.1v-.7H95.9Z" class="g0_1868"/>
</svg>