<?xml version="1.0" encoding="UTF-8" standalone="no"?>
<!DOCTYPE svg PUBLIC "-//W3C//DTD SVG 1.1//EN"
"http://www.w3.org/Graphics/SVG/1.1/DTD/svg11.dtd">
<svg viewBox="0 0 935 1210" version="1.1" xmlns="http://www.w3.org/2000/svg" xmlns:xlink="http://www.w3.org/1999/xlink">
<defs>
<style type="text/css"><![CDATA[
.g0_1618{
fill: #FFF;
}
.g1_1618{
fill: #000;
}
]]></style>
</defs>
<path d="M165,1149.3H852.5v-21.2H165v21.2Z" class="g0_1618"/>
<path d="M68.8,1149.3h82.5v-21.2H68.8v21.2Z" class="g0_1618"/>
<path d="M68.6,348h.7V125.7h-.7V348Z" class="g1_1618"/>
<path d="M303.2,179.1h.8V124.9h-.8v54.2Z" class="g1_1618"/>
<path d="M303.2,348.7h.8V178.4h-.8V348.7Z" class="g1_1618"/>
<path d="M348,179.1h.7V124.9H348v54.2Z" class="g1_1618"/>
<path d="M348,348.7h.7V178.4H348V348.7Z" class="g1_1618"/>
<path d="M421.3,179.1h.7V124.9h-.7v54.2Z" class="g1_1618"/>
<path d="M421.3,348.7h.7V178.4h-.7V348.7Z" class="g1_1618"/>
<path d="M546.2,348.7h.7V124.9h-.7V348.7Z" class="g1_1618"/>
<path d="M851.8,348h.7V125.7h-.7V348Z" class="g1_1618"/>
<path d="M68.6,125.7H852.5v-.8H68.6v.8Z" class="g1_1618"/>
<path d="M68.6,179.1H546.9v-.7H68.6v.7Z" class="g1_1618"/>
<path d="M546.1,179.1H852.5v-.7H546.1v.7Z" class="g1_1618"/>
<path d="M68.6,235.7H546.9v-.8H68.6v.8Z" class="g1_1618"/>
<path d="M546.1,235.7H852.5v-.8H546.1v.8Z" class="g1_1618"/>
<path d="M68.6,292.1H546.9v-.7H68.6v.7Z" class="g1_1618"/>
<path d="M546.1,292.1H852.5v-.7H546.1v.7Z" class="g1_1618"/>
<path d="M68.6,348.7H546.1V348H68.6v.7Z" class="g1_1618"/>
<path d="M546.9,348.7H852.5V348H546.9v.7Z" class="g1_1618"/>
<path d="M68.6,451.8h.7V403.7h-.7v48.1Z" class="g1_1618"/>
<path d="M134.3,452.7h.7V403h-.7v49.7Z" class="g1_1618"/>
<path d="M227.5,452.7h.7V403h-.7v49.7Z" class="g1_1618"/>
<path d="M373.6,452.7h.8V403h-.8v49.7Z" class="g1_1618"/>
<path d="M533.5,452.7h.7V403h-.7v49.7Z" class="g1_1618"/>
<path d="M692.2,452.7h.7V403h-.7v49.7Z" class="g1_1618"/>
<path d="M848.8,451.8h.8V403.7h-.8v48.1Z" class="g1_1618"/>
<path d="M68.6,403.7H849.7V403H68.6v.7Z" class="g1_1618"/>
<path d="M68.6,428.2H849.7v-.8H68.6v.8Z" class="g1_1618"/>
<path d="M68.6,452.7H849.7v-.8H68.6v.8Z" class="g1_1618"/>
</svg>