<?xml version="1.0" encoding="UTF-8" standalone="no"?>
<!DOCTYPE svg PUBLIC "-//W3C//DTD SVG 1.1//EN"
"http://www.w3.org/Graphics/SVG/1.1/DTD/svg11.dtd">
<svg viewBox="0 0 935 1210" version="1.1" xmlns="http://www.w3.org/2000/svg" xmlns:xlink="http://www.w3.org/1999/xlink">
<defs>
<clipPath id="c0_2117"><path d="M97.3,59.2V41.4h72.1V59.2Z"/></clipPath>
<style type="text/css"><![CDATA[
.g0_2117{
fill: #000;
}
]]></style>
</defs>
<path d="M96.3,63.3H838.8v-.4H96.3v.4Z" class="g0_2117"/>
<path d="M96.1,1114.5h.2v-.4h-.2v.4Z" class="g0_2117"/>
<path d="M96.3,1114.5H838.9v-.4H96.3v.4Z" class="g0_2117"/>
<image clip-path="url(#c0_2117)" preserveAspectRatio="none" x="97" y="41" width="73" height="18" xlink:href="img/1.jpg"/>
<path d="M546,1053.6h31.3v-1.1H546v1.1Z" class="g0_2117"/>
<path d="M546,1076.5h31.3v-1.1H546v1.1Z" class="g0_2117"/>
<path d="M95.9,846h.7V778.1h-.7V846Z" class="g0_2117"/>
<path d="M216,846.8h.7V777.2H216v69.6Z" class="g0_2117"/>
<path d="M293.3,846.8h.8V777.2h-.8v69.6Z" class="g0_2117"/>
<path d="M839.1,846h.7V778.1h-.7V846Z" class="g0_2117"/>
<path d="M95.9,778h744v-.8H95.9v.8Z" class="g0_2117"/>
<path d="M95.9,802.1h744v-3H95.9v3Z" class="g0_2117"/>
<path d="M95.9,823.8h744v-.7H95.9v.7Z" class="g0_2117"/>
<path d="M95.9,846.7h744V846H95.9v.7Z" class="g0_2117"/>
</svg>