<?xml version="1.0" encoding="UTF-8" standalone="no"?>
<!DOCTYPE svg PUBLIC "-//W3C//DTD SVG 1.1//EN"
"http://www.w3.org/Graphics/SVG/1.1/DTD/svg11.dtd">
<svg viewBox="0 0 935 1210" version="1.1" xmlns="http://www.w3.org/2000/svg" xmlns:xlink="http://www.w3.org/1999/xlink">
<defs>
<style type="text/css"><![CDATA[
.g0_488{
fill: #FFF;
}
.g1_488{
fill: #000;
}
]]></style>
</defs>
<path d="M68.8,1149.3H852.5v-21.2H68.8v21.2Z" class="g0_488"/>
<path d="M68.9,364.2H851.6V334.6H68.9v29.6Z" class="g0_488"/>
<path d="M69.9,357.5h53.5V345.1H69.9v12.4Z" class="g0_488"/>
<path d="M68.6,309.7h.7V130.3h-.7V309.7Z" class="g1_488"/>
<path d="M188.1,310.6h.7V129.5h-.7V310.6Z" class="g1_488"/>
<path d="M315,310.6h.7V129.5H315V310.6Z" class="g1_488"/>
<path d="M392.6,310.6h.7V153.9h-.7V310.6Z" class="g1_488"/>
<path d="M467.8,310.6h.7V129.5h-.7V310.6Z" class="g1_488"/>
<path d="M851.2,309.7h.7V130.3h-.7V309.7Z" class="g1_488"/>
<path d="M68.6,130.3H852v-.8H68.6v.8Z" class="g1_488"/>
<path d="M68.6,154.6H468.5v-.7H68.6v.7Z" class="g1_488"/>
<path d="M68.6,212.8H852V212H68.6v.8Z" class="g1_488"/>
<path d="M68.6,237.1H852v-.7H68.6v.7Z" class="g1_488"/>
<path d="M68.6,261.6H852v-.7H68.6v.7Z" class="g1_488"/>
<path d="M68.6,286.1H852v-.7H68.6v.7Z" class="g1_488"/>
<path d="M68.6,310.5H852v-.8H68.6v.8Z" class="g1_488"/>
</svg>