<?xml version="1.0" encoding="UTF-8" standalone="no"?>
<!DOCTYPE svg PUBLIC "-//W3C//DTD SVG 1.1//EN"
"http://www.w3.org/Graphics/SVG/1.1/DTD/svg11.dtd">
<svg viewBox="0 0 935 1210" version="1.1" xmlns="http://www.w3.org/2000/svg" xmlns:xlink="http://www.w3.org/1999/xlink">
<defs>
<clipPath id="c0_374"><path d="M97.2,59V41.4h72.2V59Z"/></clipPath>
<style type="text/css"><![CDATA[
.g0_374{
fill: #000;
}
]]></style>
</defs>
<path d="M96.1,63.1v.3H838.9v-.3H96.1Z" class="g0_374"/>
<path d="M96.1,1114.3v.3v-.3Z" class="g0_374"/>
<path d="M838.9,1114.3v.3v-.3Z" class="g0_374"/>
<path d="M96.1,1114.3v.3H838.9v-.3H96.1Z" class="g0_374"/>
<image clip-path="url(#c0_374)" preserveAspectRatio="none" x="97" y="41" width="72" height="18" xlink:href="img/1.jpg"/>
<path d="M96.4,178.9h-.7V845.5h.7V178.9Z" class="g0_374"/>
<path d="M250.4,178.2h-.7v43.6h.7V178.2Z" class="g0_374"/>
<path d="M250.4,517.3h-.7v231h.7v-231Z" class="g0_374"/>
<path d="M424.9,178.2h-.7V748.3h.7V178.2Z" class="g0_374"/>
<path d="M839.3,178.9h-.8V845.5h.8V178.9Z" class="g0_374"/>
<path d="M95.7,178.2v.7H839.3v-.7H95.7Z" class="g0_374"/>
<path d="M95.7,221.1v.7H839.3v-.7H95.7Z" class="g0_374"/>
<path d="M95.7,517.3v.8H839.3v-.8H95.7Z" class="g0_374"/>
<path d="M249.7,582.6v.7H839.3v-.7H249.7Z" class="g0_374"/>
<path d="M249.7,625.5v.7H424.9v-.7H249.7Z" class="g0_374"/>
<path d="M249.7,686.7v.8H839.3v-.8H249.7Z" class="g0_374"/>
<path d="M95.7,747.6v.7H839.3v-.7H95.7Z" class="g0_374"/>
<path d="M95.7,845.5v.7H839.3v-.7H95.7Z" class="g0_374"/>
</svg>