<?xml version="1.0" encoding="UTF-8" standalone="no"?>
<!DOCTYPE svg PUBLIC "-//W3C//DTD SVG 1.1//EN"
"http://www.w3.org/Graphics/SVG/1.1/DTD/svg11.dtd">
<svg viewBox="0 0 935 1210" version="1.1" xmlns="http://www.w3.org/2000/svg" xmlns:xlink="http://www.w3.org/1999/xlink">
<defs>
<style type="text/css"><![CDATA[
.g0_481{
fill: #FFF;
}
.g1_481{
fill: #000;
}
]]></style>
</defs>
<path d="M68.9,1149.3H852.7v-21.2H68.9v21.2Z" class="g0_481"/>
<path d="M69.9,302.1h.8v-178h-.8v178Z" class="g1_481"/>
<path d="M200.6,302.9h.7V123.4h-.7V302.9Z" class="g1_481"/>
<path d="M323.5,302.9h.7V123.4h-.7V302.9Z" class="g1_481"/>
<path d="M439.7,302.9h.8V123.4h-.8V302.9Z" class="g1_481"/>
<path d="M574.8,302.9h.8V123.4h-.8V302.9Z" class="g1_481"/>
<path d="M717.7,302.9h.7V123.4h-.7V302.9Z" class="g1_481"/>
<path d="M852.8,302.1h.7v-178h-.7v178Z" class="g1_481"/>
<path d="M69.9,124.1H853.5v-.7H69.9v.7Z" class="g1_481"/>
<path d="M69.9,179.1H853.5v-.7H69.9v.7Z" class="g1_481"/>
<path d="M69.9,220.4H853.5v-.8H69.9v.8Z" class="g1_481"/>
<path d="M69.9,261.6H853.5v-.7H69.9v.7Z" class="g1_481"/>
<path d="M69.9,302.9H853.5v-.8H69.9v.8Z" class="g1_481"/>
<path d="M69.9,968.3h.8V639h-.8V968.3Z" class="g1_481"/>
<path d="M189.2,969h.7V638.3h-.7V969Z" class="g1_481"/>
<path d="M352.4,969h.7V638.3h-.7V969Z" class="g1_481"/>
<path d="M601.2,969h.7V638.3h-.7V969Z" class="g1_481"/>
<path d="M851,968.3h.8V639H851V968.3Z" class="g1_481"/>
<path d="M69.9,639H851.8v-.7H69.9v.7Z" class="g1_481"/>
<path d="M69.9,678.7H851.8V678H69.9v.7Z" class="g1_481"/>
<path d="M69.9,703.2H851.8v-.8H69.9v.8Z" class="g1_481"/>
<path d="M69.9,727.7H851.8v-.8H69.9v.8Z" class="g1_481"/>
<path d="M69.9,785.7H851.8v-.8H69.9v.8Z" class="g1_481"/>
<path d="M69.9,877.3H851.8v-.7H69.9v.7Z" class="g1_481"/>
<path d="M69.9,969H851.8v-.7H69.9v.7Z" class="g1_481"/>
</svg>