<?xml version="1.0" encoding="UTF-8" standalone="no"?>
<!DOCTYPE svg PUBLIC "-//W3C//DTD SVG 1.1//EN"
"http://www.w3.org/Graphics/SVG/1.1/DTD/svg11.dtd">
<svg viewBox="0 0 935 1210" version="1.1" xmlns="http://www.w3.org/2000/svg" xmlns:xlink="http://www.w3.org/1999/xlink">
<defs>
<style type="text/css"><![CDATA[
.g0_1216{
fill: #FFF;
}
.g1_1216{
fill: #FFE0D1;
}
.g2_1216{
fill: #E9F3E9;
}
.g3_1216{
fill: #F8FAFC;
}
.g4_1216{
fill: #000;
}
.g5_1216{
fill: #FFE6FF;
}
]]></style>
</defs>
<path d="M68.8,1149.3H852.5v-21.2H68.8v21.2Z" class="g0_1216"/>
<path d="M68.9,166.6H224.8V142.1H68.9v24.5Z" class="g1_1216"/>
<path d="M224.8,166.6h89.3V142.1H224.8v24.5Z" class="g1_1216"/>
<path d="M314.1,166.6h89.5V142.1H314.1v24.5Z" class="g1_1216"/>
<path d="M403.6,166.6h89.5V142.1H403.6v24.5Z" class="g1_1216"/>
<path d="M493.1,142.1h89.4v24.5H493.1Z" class="g1_1216"/>
<path d="M582.5,166.6H672V142.1H582.5v24.5Z" class="g1_1216"/>
<path d="M672,166.6h89.4V142.1H672v24.5Z" class="g1_1216"/>
<path d="M761.4,166.6h89.4V142.1H761.4v24.5Z" class="g1_1216"/>
<path d="M68.9,190.9h66.4V166.6H68.9v24.3Z" class="g1_1216"/>
<path d="M135.3,190.9h89.5V166.6H135.3v24.3Z" class="g2_1216"/>
<path d="M224.8,190.9h89.3V166.6H224.8v24.3Z" class="g2_1216"/>
<path d="M314.1,190.9h89.5V166.6H314.1v24.3Z" class="g2_1216"/>
<path d="M403.6,190.9h89.5V166.6H403.6v24.3Z" class="g2_1216"/>
<path d="M493.1,166.6h89.4v24.3H493.1Z" class="g2_1216"/>
<path d="M582.5,190.9H672V166.6H582.5v24.3Z" class="g2_1216"/>
<path d="M672,190.9h89.4V166.6H672v24.3Z" class="g2_1216"/>
<path d="M761.4,190.9h89.4V166.6H761.4v24.3Z" class="g2_1216"/>
<path d="M68.9,215.4h66.4V190.9H68.9v24.5Z" class="g1_1216"/>
<path d="M68.9,355.9H173.8V331.6H68.9v24.3Z" class="g3_1216"/>
<path d="M68.9,478.1H173.8V355.9H68.9V478.1Z" class="g3_1216"/>
<path d="M68.9,569.8H173.8V478.1H68.9v91.7Z" class="g3_1216"/>
<path d="M255.4,569.8h97.3V478.1H255.4v91.7Z" class="g3_1216"/>
<path d="M68.9,990.7H173.8V569.8H68.9V990.7Z" class="g3_1216"/>
<path d="M68.9,1048.8H173.8V990.7H68.9v58.1Z" class="g3_1216"/>
<path d="M68.6,215.1h.7V142.4h-.7v72.7Z" class="g4_1216"/>
<path d="M134.9,215.8h.8V141.7h-.8v74.1Z" class="g4_1216"/>
<path d="M224.4,191.4h.7V141.7h-.7v49.7Z" class="g4_1216"/>
<path d="M313.8,191.4h.7V141.7h-.7v49.7Z" class="g4_1216"/>
<path d="M403.2,215.8h.8V141.7h-.8v74.1Z" class="g4_1216"/>
<path d="M492.7,191.4h.7V141.7h-.7v49.7Z" class="g4_1216"/>
<path d="M582.2,191.4h.7V141.7h-.7v49.7Z" class="g4_1216"/>
<path d="M671.6,191.4h.8V141.7h-.8v49.7Z" class="g4_1216"/>
<path d="M761,191.4h.8V141.7H761v49.7Z" class="g4_1216"/>
<path d="M850.5,215.1h.7V142.4h-.7v72.7Z" class="g4_1216"/>
<path d="M68.6,142.4H851.2v-.7H68.6v.7Z" class="g4_1216"/>
<path d="M68.6,166.9H851.2v-.7H68.6v.7Z" class="g4_1216"/>
<path d="M68.6,191.3H851.2v-.7H68.6v.7Z" class="g4_1216"/>
<path d="M68.6,215.8H851.2v-.7H68.6v.7Z" class="g4_1216"/>
<path d="M68.6,1048.4h.7V331.9h-.7v716.5Z" class="g4_1216"/>
<path d="M173.4,1049.1h.8V331.2h-.8v717.9Z" class="g4_1216"/>
<path d="M255,570.2h.7V477.8H255v92.4Z" class="g4_1216"/>
<path d="M352.4,570.2h.7V477.8h-.7v92.4Z" class="g4_1216"/>
<path d="M852.9,1048.4h.7V331.9h-.7v716.5Z" class="g4_1216"/>
<path d="M68.6,331.9h785v-.7H68.6v.7Z" class="g4_1216"/>
<path d="M68.6,356.3h785v-.7H68.6v.7Z" class="g4_1216"/>
<path d="M68.6,478.5h785v-.7H68.6v.7Z" class="g4_1216"/>
<path d="M68.6,570.2h785v-.8H68.6v.8Z" class="g4_1216"/>
<path d="M68.6,991.1h785v-.7H68.6v.7Z" class="g4_1216"/>
<path d="M68.6,1049.1h785v-.7H68.6v.7Z" class="g4_1216"/>
<path d="M180.3,399.7H306.8V378.3H180.3v21.4Z" class="g1_1216"/>
<path d="M306.8,399.7h63.3V378.3H306.8v21.4Z" class="g1_1216"/>
<path d="M370.1,399.7h63.2V378.3H370.1v21.4Z" class="g1_1216"/>
<path d="M433.3,399.7h63.3V378.3H433.3v21.4Z" class="g1_1216"/>
<path d="M496.6,399.7h63.2V378.3H496.6v21.4Z" class="g1_1216"/>
<path d="M559.8,399.7h63.3V378.3H559.8v21.4Z" class="g1_1216"/>
<path d="M623.1,399.7h63.2V378.3H623.1v21.4Z" class="g1_1216"/>
<path d="M686.3,399.7H799.1V378.3H686.3v21.4Z" class="g1_1216"/>
<path d="M180.3,421.1h63.3V399.7H180.3v21.4Z" class="g1_1216"/>
<path d="M243.6,421.1h63.2V399.7H243.6v21.4Z" class="g2_1216"/>
<path d="M306.8,421.1h63.3V399.7H306.8v21.4Z" class="g2_1216"/>
<path d="M370.1,421.1h63.2V399.7H370.1v21.4Z" class="g2_1216"/>
<path d="M433.3,421.1h63.3V399.7H433.3v21.4Z" class="g2_1216"/>
<path d="M496.6,421.1h63.2V399.7H496.6v21.4Z" class="g2_1216"/>
<path d="M559.8,421.1h63.3V399.7H559.8v21.4Z" class="g2_1216"/>
<path d="M623.1,421.1h63.2V399.7H623.1v21.4Z" class="g2_1216"/>
<path d="M686.3,421.1H799.1V399.7H686.3v21.4Z" class="g2_1216"/>
<path d="M180.3,442.5h63.3V421.1H180.3v21.4Z" class="g1_1216"/>
<path d="M243.6,442.5h63.2V421.1H243.6v21.4Z" class="g5_1216"/>
<path d="M306.8,442.5h63.3V421.1H306.8v21.4Z" class="g5_1216"/>
<path d="M370.1,442.5h63.2V421.1H370.1v21.4Z" class="g5_1216"/>
<path d="M179.9,442.1h.8V378.7h-.8v63.4Z" class="g4_1216"/>
<path d="M243.2,442.8h.7V377.9h-.7v64.9Z" class="g4_1216"/>
<path d="M306.4,442.8h.8V377.9h-.8v64.9Z" class="g4_1216"/>
<path d="M369.7,442.8h.7V377.9h-.7v64.9Z" class="g4_1216"/>
<path d="M432.9,442.8h.8V377.9h-.8v64.9Z" class="g4_1216"/>
<path d="M496.2,421.5h.7V377.9h-.7v43.6Z" class="g4_1216"/>
<path d="M559.4,442.8h.8V377.9h-.8v64.9Z" class="g4_1216"/>
<path d="M622.7,442.8h.7V377.9h-.7v64.9Z" class="g4_1216"/>
<path d="M685.9,442.8h.8V377.9h-.8v64.9Z" class="g4_1216"/>
<path d="M798.7,442.1h.7V378.7h-.7v63.4Z" class="g4_1216"/>
<path d="M179.9,378.7H799.5v-.8H179.9v.8Z" class="g4_1216"/>
<path d="M179.9,400H799.5v-.7H179.9v.7Z" class="g4_1216"/>
<path d="M179.9,421.5H799.5v-.7H179.9v.7Z" class="g4_1216"/>
<path d="M179.9,442.8H799.5v-.7H179.9v.7Z" class="g4_1216"/>
<path d="M179,938.3h.4V831.7H179V938.3Z" class="g4_1216"/>
<path d="M271.6,938.7h.4V831.3h-.4V938.7Z" class="g4_1216"/>
<path d="M465,938.7h.4V831.3H465V938.7Z" class="g4_1216"/>
<path d="M692.6,938.3h.4V831.7h-.4V938.3Z" class="g4_1216"/>
<path d="M179,831.7H693v-.4H179v.4Z" class="g4_1216"/>
<path d="M179,853.1H693v-.3H179v.3Z" class="g4_1216"/>
<path d="M179,874.5H693v-.4H179v.4Z" class="g4_1216"/>
<path d="M179,895.9H693v-.4H179v.4Z" class="g4_1216"/>
<path d="M179,917.3H693v-.4H179v.4Z" class="g4_1216"/>
<path d="M179,938.7H693v-.4H179v.4Z" class="g4_1216"/>
</svg>