<?xml version="1.0" encoding="UTF-8" standalone="no"?>
<!DOCTYPE svg PUBLIC "-//W3C//DTD SVG 1.1//EN"
"http://www.w3.org/Graphics/SVG/1.1/DTD/svg11.dtd">
<svg viewBox="0 0 935 1210" version="1.1" xmlns="http://www.w3.org/2000/svg" xmlns:xlink="http://www.w3.org/1999/xlink">
<defs>
<clipPath id="c0_1086"><path d="M97.3,59.2V41.4h72.1V59.2Z"/></clipPath>
<style type="text/css"><![CDATA[
.g0_1086{
fill: #000;
}
.g1_1086{
fill: #E5E5E5;
}
]]></style>
</defs>
<path d="M96.2,62.9v.3H838.7v-.3H96.2Z" class="g0_1086"/>
<path d="M96.2,1114.1h-.1v.3h.1v-.3Z" class="g0_1086"/>
<path d="M838.7,1114.1h.2v.3h-.2v-.3Z" class="g0_1086"/>
<path d="M96.2,1114.1v.3H838.7v-.3H96.2Z" class="g0_1086"/>
<image clip-path="url(#c0_1086)" preserveAspectRatio="none" x="97" y="41" width="72" height="18" xlink:href="img/1.jpg"/>
<path d="M96.2,539.3H444.3v55H96.2v-55Z" class="g1_1086"/>
<path d="M513.9,539.3h23.2v55H513.9v-55Z" class="g1_1086"/>
<path d="M560.3,539.3h23.2v55H560.3v-55Z" class="g1_1086"/>
<path d="M96.2,990H444.3v55H96.2V990Z" class="g1_1086"/>
<path d="M467.5,990h69.6v55H467.5V990Z" class="g1_1086"/>
<path d="M560.3,990h23.2v55H560.3V990Z" class="g1_1086"/>
<path d="M96.6,182.1h-.7V373.9h.7V182.1Z" class="g0_1086"/>
<path d="M196.7,181.4H196V374.6h.7V181.4Z" class="g0_1086"/>
<path d="M400.6,182.1h-.8V373.9h.8V182.1Z" class="g0_1086"/>
<path d="M95.9,181.4v.7H400.6v-.7H95.9Z" class="g0_1086"/>
<path d="M95.9,202.8v.7H400.6v-.7H95.9Z" class="g0_1086"/>
<path d="M95.9,224.2v.7H400.6v-.7H95.9Z" class="g0_1086"/>
<path d="M95.9,245.6v.7H400.6v-.7H95.9Z" class="g0_1086"/>
<path d="M95.9,267v.7H400.6V267H95.9Z" class="g0_1086"/>
<path d="M95.9,288.4v.7H400.6v-.7H95.9Z" class="g0_1086"/>
<path d="M95.9,309.7v.8H400.6v-.8H95.9Z" class="g0_1086"/>
<path d="M95.9,331.2v.7H400.6v-.7H95.9Z" class="g0_1086"/>
<path d="M95.9,352.5v.8H400.6v-.8H95.9Z" class="g0_1086"/>
<path d="M95.9,373.9v.7H400.6v-.7H95.9Z" class="g0_1086"/>
<path d="M96.6,539.6h-.7v53.2h.7V539.6Z" class="g0_1086"/>
<path d="M444.7,538.9h-.8v56.9h.8V538.9Z" class="g0_1086"/>
<path d="M467.8,538.9h-.7v56.9h.7V538.9Z" class="g0_1086"/>
<path d="M491,538.9h-.7v56.9h.7V538.9Z" class="g0_1086"/>
<path d="M514.2,538.9h-.7v56.9h.7V538.9Z" class="g0_1086"/>
<path d="M537.4,538.9h-.7v56.9h.7V538.9Z" class="g0_1086"/>
<path d="M560.7,538.9H560v56.9h.7V538.9Z" class="g0_1086"/>
<path d="M583.9,538.9h-.7v56.9h.7V538.9Z" class="g0_1086"/>
<path d="M653.5,538.9h-.8v56.9h.8V538.9Z" class="g0_1086"/>
<path d="M840.3,539.6h-3.1v53.2h3.1V539.6Z" class="g0_1086"/>
<path d="M95.9,538.9v.7H840.3v-.7H95.9Z" class="g0_1086"/>
<path d="M95.9,592.8v3H840.3v-3H95.9Z" class="g0_1086"/>
<path d="M96.6,990.3h-.7v53.2h.7V990.3Z" class="g0_1086"/>
<path d="M444.7,989.6h-.8v56.9h.8V989.6Z" class="g0_1086"/>
<path d="M467.8,989.6h-.7v56.9h.7V989.6Z" class="g0_1086"/>
<path d="M537.4,989.6h-.7v56.9h.7V989.6Z" class="g0_1086"/>
<path d="M560.7,989.6H560v56.9h.7V989.6Z" class="g0_1086"/>
<path d="M583.9,989.6h-.7v56.9h.7V989.6Z" class="g0_1086"/>
<path d="M653.5,989.6h-.8v56.9h.8V989.6Z" class="g0_1086"/>
<path d="M840.3,990.3h-3.1v53.2h3.1V990.3Z" class="g0_1086"/>
<path d="M95.9,989.6v.7H840.3v-.7H95.9Z" class="g0_1086"/>
<path d="M95.9,1043.5v3H840.3v-3H95.9Z" class="g0_1086"/>
</svg>