<?xml version="1.0" encoding="UTF-8" standalone="no"?>
<!DOCTYPE svg PUBLIC "-//W3C//DTD SVG 1.1//EN"
"http://www.w3.org/Graphics/SVG/1.1/DTD/svg11.dtd">
<svg viewBox="0 0 935 1210" version="1.1" xmlns="http://www.w3.org/2000/svg" xmlns:xlink="http://www.w3.org/1999/xlink">
<defs>
<clipPath id="c0_2874"><path d="M766.6,59.2V41.4h72.2V59.2Z"/></clipPath>
<style type="text/css"><![CDATA[
.g0_2874{
fill: #000;
}
]]></style>
</defs>
<path d="M97.4,63.3H839.9v-.4H97.4v.4Z" class="g0_2874"/>
<path d="M96.1,1114.5h.2v-.4h-.2v.4Z" class="g0_2874"/>
<path d="M96.3,1114.5H838.9v-.4H96.3v.4Z" class="g0_2874"/>
<image clip-path="url(#c0_2874)" preserveAspectRatio="none" x="767" y="41" width="72" height="18" xlink:href="img/1.jpg"/>
<path d="M95.9,754.3h.7V216.9h-.7V754.3Z" class="g0_2874"/>
<path d="M273.3,623.7h.8V213.9h-.8V623.7Z" class="g0_2874"/>
<path d="M273.3,704.7h.8V644.3h-.8v60.4Z" class="g0_2874"/>
<path d="M310,623.7h.7V236.4H310V623.7Z" class="g0_2874"/>
<path d="M310,704.7h.7V644.3H310v60.4Z" class="g0_2874"/>
<path d="M346.7,623.7h.7V236.4h-.7V623.7Z" class="g0_2874"/>
<path d="M346.7,704.7h.7V644.3h-.7v60.4Z" class="g0_2874"/>
<path d="M383.4,623.7h.7V213.9h-.7V623.7Z" class="g0_2874"/>
<path d="M383.4,704.7h.7V644.3h-.7v60.4Z" class="g0_2874"/>
<path d="M839.2,754.3h.7V216.9h-.7V754.3Z" class="g0_2874"/>
<path d="M95.9,217h744v-3H95.9v3Z" class="g0_2874"/>
<path d="M273.3,237.1H384.2v-.7H273.3v.7Z" class="g0_2874"/>
<path d="M95.9,259.8h744v-3H95.9v3Z" class="g0_2874"/>
<path d="M273.3,278.4H839.9v-.7H273.3v.7Z" class="g0_2874"/>
<path d="M273.3,298.3H839.9v-.7H273.3v.7Z" class="g0_2874"/>
<path d="M273.3,318.2H839.9v-.8H273.3v.8Z" class="g0_2874"/>
<path d="M273.3,338H839.9v-.8H273.3v.8Z" class="g0_2874"/>
<path d="M273.3,357.9H839.9v-.8H273.3v.8Z" class="g0_2874"/>
<path d="M273.3,377.8H839.9V377H273.3v.8Z" class="g0_2874"/>
<path d="M273.3,397.6H839.9v-.8H273.3v.8Z" class="g0_2874"/>
<path d="M273.3,417.4H839.9v-.7H273.3v.7Z" class="g0_2874"/>
<path d="M273.3,437.3H839.9v-.7H273.3v.7Z" class="g0_2874"/>
<path d="M95.9,470.9h744v-.7H95.9v.7Z" class="g0_2874"/>
<path d="M95.9,490.8h744V490H95.9v.8Z" class="g0_2874"/>
<path d="M95.9,510.7h744v-.8H95.9v.8Z" class="g0_2874"/>
<path d="M273.3,530.5H839.9v-.8H273.3v.8Z" class="g0_2874"/>
<path d="M95.9,550.4h744v-.8H95.9v.8Z" class="g0_2874"/>
<path d="M95.9,570.3h744v-.8H95.9v.8Z" class="g0_2874"/>
<path d="M95.9,590.1h744v-.8H95.9v.8Z" class="g0_2874"/>
<path d="M95.9,623.7h744V623H95.9v.7Z" class="g0_2874"/>
<path d="M95.9,645.1h744v-.8H95.9v.8Z" class="g0_2874"/>
<path d="M273.3,664.9H839.9v-.7H273.3v.7Z" class="g0_2874"/>
<path d="M95.9,684.8h744v-.7H95.9v.7Z" class="g0_2874"/>
<path d="M95.9,704.6h744v-.7H95.9v.7Z" class="g0_2874"/>
<path d="M95.9,755.1h744v-.8H95.9v.8Z" class="g0_2874"/>
</svg>