<?xml version="1.0" encoding="UTF-8" standalone="no"?>
<!DOCTYPE svg PUBLIC "-//W3C//DTD SVG 1.1//EN"
"http://www.w3.org/Graphics/SVG/1.1/DTD/svg11.dtd">
<svg viewBox="0 0 935 1210" version="1.1" xmlns="http://www.w3.org/2000/svg" xmlns:xlink="http://www.w3.org/1999/xlink">
<defs>
<style type="text/css"><![CDATA[
.g0_2900{
fill: #FFF;
}
.g1_2900{
fill: #000;
}
]]></style>
</defs>
<path d="M68.8,1149.3H852.5v-21.2H68.8v21.2Z" class="g0_2900"/>
<path d="M68.6,1093.6h.7V124.1h-.7v969.5Z" class="g1_2900"/>
<path d="M467.6,148.6h.7V123.4h-.7v25.2Z" class="g1_2900"/>
<path d="M467.6,221.9h.7V172.2h-.7v49.7Z" class="g1_2900"/>
<path d="M467.6,409.8h.7V245.6h-.7V409.8Z" class="g1_2900"/>
<path d="M467.6,507.7h.7V433.5h-.7v74.2Z" class="g1_2900"/>
<path d="M467.6,581h.7V531.3h-.7V581Z" class="g1_2900"/>
<path d="M467.6,1094.3h.7V604.6h-.7v489.7Z" class="g1_2900"/>
<path d="M851.1,1093.6h.8V124.1h-.8v969.5Z" class="g1_2900"/>
<path d="M68.6,124.1H852v-.7H68.6v.7Z" class="g1_2900"/>
<path d="M68.6,148.6H852v-.7H68.6v.7Z" class="g1_2900"/>
<path d="M68.6,173H852v-.8H68.6v.8Z" class="g1_2900"/>
<path d="M68.6,197.4H852v-.7H68.6v.7Z" class="g1_2900"/>
<path d="M68.6,221.9H852v-.7H68.6v.7Z" class="g1_2900"/>
<path d="M68.6,246.3H852v-.7H68.6v.7Z" class="g1_2900"/>
<path d="M68.6,270.8H852v-.7H68.6v.7Z" class="g1_2900"/>
<path d="M68.6,295.3H852v-.8H68.6v.8Z" class="g1_2900"/>
<path d="M68.6,336.5H852v-.7H68.6v.7Z" class="g1_2900"/>
<path d="M68.6,360.9H852v-.7H68.6v.7Z" class="g1_2900"/>
<path d="M68.6,385.4H852v-.8H68.6v.8Z" class="g1_2900"/>
<path d="M68.6,409.8H852v-.7H68.6v.7Z" class="g1_2900"/>
<path d="M68.6,434.3H852v-.7H68.6v.7Z" class="g1_2900"/>
<path d="M68.6,458.7H852V458H68.6v.7Z" class="g1_2900"/>
<path d="M68.6,483.2H852v-.8H68.6v.8Z" class="g1_2900"/>
<path d="M68.6,507.7H852v-.8H68.6v.8Z" class="g1_2900"/>
<path d="M68.6,532H852v-.7H68.6v.7Z" class="g1_2900"/>
<path d="M68.6,556.5H852v-.7H68.6v.7Z" class="g1_2900"/>
<path d="M68.6,581H852v-.8H68.6v.8Z" class="g1_2900"/>
<path d="M68.6,605.4H852v-.8H68.6v.8Z" class="g1_2900"/>
<path d="M68.6,629.8H852v-.7H68.6v.7Z" class="g1_2900"/>
<path d="M68.6,654.3H852v-.7H68.6v.7Z" class="g1_2900"/>
<path d="M68.6,678.7H852V678H68.6v.7Z" class="g1_2900"/>
<path d="M68.6,703.2H852v-.8H68.6v.8Z" class="g1_2900"/>
<path d="M68.6,727.7H852v-.8H68.6v.8Z" class="g1_2900"/>
<path d="M68.6,752H852v-.7H68.6v.7Z" class="g1_2900"/>
<path d="M68.6,776.5H852v-.7H68.6v.7Z" class="g1_2900"/>
<path d="M68.6,801H852v-.7H68.6v.7Z" class="g1_2900"/>
<path d="M68.6,825.4H852v-.8H68.6v.8Z" class="g1_2900"/>
<path d="M68.6,849.8H852v-.7H68.6v.7Z" class="g1_2900"/>
<path d="M68.6,874.3H852v-.7H68.6v.7Z" class="g1_2900"/>
<path d="M68.6,898.7H852V898H68.6v.7Z" class="g1_2900"/>
<path d="M68.6,923.2H852v-.8H68.6v.8Z" class="g1_2900"/>
<path d="M68.6,947.7H852v-.8H68.6v.8Z" class="g1_2900"/>
<path d="M68.6,972H852v-.7H68.6v.7Z" class="g1_2900"/>
<path d="M68.6,996.5H852v-.7H68.6v.7Z" class="g1_2900"/>
<path d="M68.6,1021H852v-.7H68.6v.7Z" class="g1_2900"/>
<path d="M68.6,1045.4H852v-.8H68.6v.8Z" class="g1_2900"/>
<path d="M68.6,1069.8H852v-.7H68.6v.7Z" class="g1_2900"/>
<path d="M68.6,1094.3H852v-.7H68.6v.7Z" class="g1_2900"/>
</svg>