<?xml version="1.0" encoding="UTF-8" standalone="no"?>
<!DOCTYPE svg PUBLIC "-//W3C//DTD SVG 1.1//EN"
"http://www.w3.org/Graphics/SVG/1.1/DTD/svg11.dtd">
<svg viewBox="0 0 935 1210" version="1.1" xmlns="http://www.w3.org/2000/svg" xmlns:xlink="http://www.w3.org/1999/xlink">
<defs>
<style type="text/css"><![CDATA[
.g0_4757{
fill: #FFF;
}
.g1_4757{
fill: #000;
}
]]></style>
</defs>
<path d="M68.9,1149.3H852.7v-21.2H68.9v21.2Z" class="g0_4757"/>
<path d="M69.9,1087.4h.8V124.1h-.8v963.3Z" class="g1_4757"/>
<path d="M126.7,1088.2h.7V164.6h-.7v923.6Z" class="g1_4757"/>
<path d="M183.4,1088.2h.8V123.4h-.8v964.8Z" class="g1_4757"/>
<path d="M439.7,1088.2h.8V123.4h-.8v964.8Z" class="g1_4757"/>
<path d="M533,1088.2h.8V123.4H533v964.8Z" class="g1_4757"/>
<path d="M853,1087.4h.7V124.1H853v963.3Z" class="g1_4757"/>
<path d="M69.9,124.1H853.7v-.7H69.9v.7Z" class="g1_4757"/>
<path d="M69.9,165.4H184.2v-.8H69.9v.8Z" class="g1_4757"/>
<path d="M69.9,189.8H853.7v-.7H69.9v.7Z" class="g1_4757"/>
<path d="M69.9,214.2H853.7v-.7H69.9v.7Z" class="g1_4757"/>
<path d="M183.4,238.7H853.7V238H183.4v.7Z" class="g1_4757"/>
<path d="M183.4,284.5H853.7v-.7H183.4v.7Z" class="g1_4757"/>
<path d="M183.4,309H853.7v-.7H183.4v.7Z" class="g1_4757"/>
<path d="M183.4,405.3H853.7v-.8H183.4v.8Z" class="g1_4757"/>
<path d="M183.4,429.7H853.7V429H183.4v.7Z" class="g1_4757"/>
<path d="M183.4,475.6H853.7v-.8H183.4v.8Z" class="g1_4757"/>
<path d="M69.9,499.9H853.7v-.7H69.9v.7Z" class="g1_4757"/>
<path d="M69.9,545.8H853.7v-.7H69.9v.7Z" class="g1_4757"/>
<path d="M69.9,591.6H853.7v-.7H69.9v.7Z" class="g1_4757"/>
<path d="M69.9,637.4H853.7v-.7H69.9v.7Z" class="g1_4757"/>
<path d="M69.9,683.3H853.7v-.7H69.9v.7Z" class="g1_4757"/>
<path d="M183.4,746H853.7v-.8H183.4v.8Z" class="g1_4757"/>
<path d="M183.4,825.4H853.7v-.8H183.4v.8Z" class="g1_4757"/>
<path d="M183.4,888.1H853.7v-.8H183.4v.8Z" class="g1_4757"/>
<path d="M183.4,912.5H853.7v-.8H183.4v.8Z" class="g1_4757"/>
<path d="M183.4,991.9H853.7v-.7H183.4v.7Z" class="g1_4757"/>
<path d="M69.9,1088.2H853.7v-.8H69.9v.8Z" class="g1_4757"/>
</svg>