<?xml version="1.0" encoding="UTF-8" standalone="no"?>
<!DOCTYPE svg PUBLIC "-//W3C//DTD SVG 1.1//EN"
"http://www.w3.org/Graphics/SVG/1.1/DTD/svg11.dtd">
<svg viewBox="0 0 935 1210" version="1.1" xmlns="http://www.w3.org/2000/svg" xmlns:xlink="http://www.w3.org/1999/xlink">
<defs>
<style type="text/css"><![CDATA[
.g0_1273{
fill: #FFF;
}
.g1_1273{
fill: #000;
}
]]></style>
</defs>
<path d="M68.9,1149.3H755.2v-21.2H68.9v21.2Z" class="g0_1273"/>
<path d="M771.3,1149.3H855v-21.2H771.3v21.2Z" class="g0_1273"/>
<path d="M70.3,1066.4v-.8Z" class="g1_1273"/>
<path d="M70.3,1066.4H290.7v-.8H70.3v.8Z" class="g1_1273"/>
<path d="M69.9,267h.8V131.8h-.8V267Z" class="g1_1273"/>
<path d="M359.2,267.8h.7V131h-.7V267.8Z" class="g1_1273"/>
<path d="M401.6,267.8h.7V131h-.7V267.8Z" class="g1_1273"/>
<path d="M462.4,267.8h.7V131h-.7V267.8Z" class="g1_1273"/>
<path d="M551.7,267.8h.8V131h-.8V267.8Z" class="g1_1273"/>
<path d="M858.6,267h.8V131.8h-.8V267Z" class="g1_1273"/>
<path d="M69.9,131.7H859.4V131H69.9v.7Z" class="g1_1273"/>
<path d="M69.9,188.3H859.4v-.7H69.9v.7Z" class="g1_1273"/>
<path d="M69.9,228H859.4v-.8H69.9v.8Z" class="g1_1273"/>
<path d="M69.9,267.8H859.4V267H69.9v.8Z" class="g1_1273"/>
<path d="M69.9,367.9h.8V319.7h-.8v48.2Z" class="g1_1273"/>
<path d="M135.2,368.6h.7V318.9h-.7v49.7Z" class="g1_1273"/>
<path d="M306.4,368.6h.7V318.9h-.7v49.7Z" class="g1_1273"/>
<path d="M483,368.6h.7V318.9H483v49.7Z" class="g1_1273"/>
<path d="M664.9,368.6h.8V318.9h-.8v49.7Z" class="g1_1273"/>
<path d="M852.1,367.9h.8V319.7h-.8v48.2Z" class="g1_1273"/>
<path d="M69.9,319.6h783v-.7H69.9v.7Z" class="g1_1273"/>
<path d="M69.9,344.1h783v-.7H69.9v.7Z" class="g1_1273"/>
<path d="M69.9,368.6h783v-.7H69.9v.7Z" class="g1_1273"/>
</svg>