<?xml version="1.0" encoding="UTF-8" standalone="no"?>
<!DOCTYPE svg PUBLIC "-//W3C//DTD SVG 1.1//EN"
"http://www.w3.org/Graphics/SVG/1.1/DTD/svg11.dtd">
<svg viewBox="0 0 935 1210" version="1.1" xmlns="http://www.w3.org/2000/svg" xmlns:xlink="http://www.w3.org/1999/xlink">
<defs>
<style type="text/css"><![CDATA[
.g0_127{
fill: #000;
}
]]></style>
</defs>
<path d="M86.3,1050.8H87V467.9h-.7v582.9Z" class="g0_127"/>
<path d="M160.5,1051.5h.7V467.1h-.7v584.4Z" class="g0_127"/>
<path d="M215.5,1051.5h.7V467.1h-.7v584.4Z" class="g0_127"/>
<path d="M325.5,1051.5h.7V467.1h-.7v584.4Z" class="g0_127"/>
<path d="M573,1051.5h.7V467.1H573v584.4Z" class="g0_127"/>
<path d="M710.5,1051.5h.7V467.1h-.7v584.4Z" class="g0_127"/>
<path d="M848,1050.8h.7V467.9H848v582.9Z" class="g0_127"/>
<path d="M86.3,467.9H848.7v-.8H86.3v.8Z" class="g0_127"/>
<path d="M87,510.2H848v-.7H87v.7Z" class="g0_127"/>
<path d="M87,514.1H848v-.8H87v.8Z" class="g0_127"/>
<path d="M86.3,570.3H848.7v-.8H86.3v.8Z" class="g0_127"/>
<path d="M86.3,628.3H848.7v-.8H86.3v.8Z" class="g0_127"/>
<path d="M86.3,686.3H848.7v-.7H86.3v.7Z" class="g0_127"/>
<path d="M86.3,727.6H848.7v-.8H86.3v.8Z" class="g0_127"/>
<path d="M86.3,836.1H848.7v-.7H86.3v.7Z" class="g0_127"/>
<path d="M86.3,894.1H848.7v-.7H86.3v.7Z" class="g0_127"/>
<path d="M86.3,952.1H848.7v-.7H86.3v.7Z" class="g0_127"/>
<path d="M86.3,993.5H848.7v-.7H86.3v.7Z" class="g0_127"/>
<path d="M86.3,1051.5H848.7v-.7H86.3v.7Z" class="g0_127"/>
</svg>