<?xml version="1.0" encoding="UTF-8" standalone="no"?>
<!DOCTYPE svg PUBLIC "-//W3C//DTD SVG 1.1//EN"
"http://www.w3.org/Graphics/SVG/1.1/DTD/svg11.dtd">
<svg viewBox="0 0 935 1210" version="1.1" xmlns="http://www.w3.org/2000/svg" xmlns:xlink="http://www.w3.org/1999/xlink">
<defs>
<style type="text/css"><![CDATA[
.g0_1751{
fill: #FFF;
}
.g1_1751{
fill: #000;
}
]]></style>
</defs>
<path d="M68.9,1149.3H755.2v-21.2H68.9v21.2Z" class="g0_1751"/>
<path d="M771.3,1149.3H855v-21.2H771.3v21.2Z" class="g0_1751"/>
<path d="M69.9,348h.8V125.7h-.8V348Z" class="g1_1751"/>
<path d="M391.5,348.7h.7V124.9h-.7V348.7Z" class="g1_1751"/>
<path d="M429.4,348.7h.7V124.9h-.7V348.7Z" class="g1_1751"/>
<path d="M502.7,348.7h.7V124.9h-.7V348.7Z" class="g1_1751"/>
<path d="M574.1,348.7h.7V124.9h-.7V348.7Z" class="g1_1751"/>
<path d="M850.1,348h.7V125.7h-.7V348Z" class="g1_1751"/>
<path d="M69.9,125.7h781v-.8H69.9v.8Z" class="g1_1751"/>
<path d="M69.9,179.1h781v-.7H69.9v.7Z" class="g1_1751"/>
<path d="M69.9,235.7h781v-.8H69.9v.8Z" class="g1_1751"/>
<path d="M69.9,292.1h781v-.7H69.9v.7Z" class="g1_1751"/>
<path d="M69.9,348.7h781V348H69.9v.7Z" class="g1_1751"/>
<path d="M69.9,451.8h.8V403.7h-.8v48.1Z" class="g1_1751"/>
<path d="M146.1,452.7h.8V403h-.8v49.7Z" class="g1_1751"/>
<path d="M323,452.7h.8V403H323v49.7Z" class="g1_1751"/>
<path d="M501.5,452.7h.7V403h-.7v49.7Z" class="g1_1751"/>
<path d="M674.5,452.7h.7V403h-.7v49.7Z" class="g1_1751"/>
<path d="M851,451.8h.8V403.7H851v48.1Z" class="g1_1751"/>
<path d="M69.9,403.7H851.8V403H69.9v.7Z" class="g1_1751"/>
<path d="M69.9,428.2H851.8v-.8H69.9v.8Z" class="g1_1751"/>
<path d="M69.9,452.7H851.8v-.8H69.9v.8Z" class="g1_1751"/>
</svg>