<?xml version="1.0" encoding="UTF-8" standalone="no"?>
<!DOCTYPE svg PUBLIC "-//W3C//DTD SVG 1.1//EN"
"http://www.w3.org/Graphics/SVG/1.1/DTD/svg11.dtd">
<svg viewBox="0 0 935 1210" version="1.1" xmlns="http://www.w3.org/2000/svg" xmlns:xlink="http://www.w3.org/1999/xlink">
<defs>
<clipPath id="c0_3020"><path d="M97.3,59.2V41.4h72.1V59.2Z"/></clipPath>
<style type="text/css"><![CDATA[
.g0_3020{
fill: #000;
}
]]></style>
</defs>
<path d="M96.3,63.3H838.8v-.4H96.3v.4Z" class="g0_3020"/>
<path d="M96.1,1114.5h.2v-.4h-.2v.4Z" class="g0_3020"/>
<path d="M96.3,1114.5H838.9v-.4H96.3v.4Z" class="g0_3020"/>
<image clip-path="url(#c0_3020)" preserveAspectRatio="none" x="97" y="41" width="73" height="18" xlink:href="img/1.jpg"/>
<path d="M95.9,1063h.7V912.1h-.7V1063Z" class="g0_3020"/>
<path d="M261.9,1063.7h.7V909.1h-.7v154.6Z" class="g0_3020"/>
<path d="M318.3,1063.7h.7V909.1h-.7v154.6Z" class="g0_3020"/>
<path d="M838.4,1063h.7V912.1h-.7V1063Z" class="g0_3020"/>
<path d="M95.9,912.1H839.1v-3H95.9v3Z" class="g0_3020"/>
<path d="M95.9,942.7H839.1v-3H95.9v3Z" class="g0_3020"/>
<path d="M95.9,972H839.1v-.7H95.9v.7Z" class="g0_3020"/>
<path d="M95.9,1002.7H839.1v-.8H95.9v.8Z" class="g0_3020"/>
<path d="M95.9,1033.2H839.1v-.8H95.9v.8Z" class="g0_3020"/>
<path d="M95.9,1063.7H839.1v-.7H95.9v.7Z" class="g0_3020"/>
</svg>