<?xml version="1.0" encoding="UTF-8" standalone="no"?>
<!DOCTYPE svg PUBLIC "-//W3C//DTD SVG 1.1//EN"
"http://www.w3.org/Graphics/SVG/1.1/DTD/svg11.dtd">
<svg viewBox="0 0 935 1210" version="1.1" xmlns="http://www.w3.org/2000/svg" xmlns:xlink="http://www.w3.org/1999/xlink">
<defs>
<style type="text/css"><![CDATA[
.g0_108{
fill: #FFF;
}
.g1_108{
fill: #000;
}
]]></style>
</defs>
<path d="M68.8,1149.3H852.5v-21.2H68.8v21.2Z" class="g0_108"/>
<path d="M70,861.3h.8V200.6H70V861.3Z" class="g1_108"/>
<path d="M174.7,862.1h.8V199.7h-.8V862.1Z" class="g1_108"/>
<path d="M850.4,861.3h.7V200.6h-.7V861.3Z" class="g1_108"/>
<path d="M69.9,200.5H851.1v-.8H69.9v.8Z" class="g1_108"/>
<path d="M69.9,224.9H851.1v-.7H69.9v.7Z" class="g1_108"/>
<path d="M174.7,316.6H851.1v-.7H174.7v.7Z" class="g1_108"/>
<path d="M174.7,357.9H851.1v-.8H174.7v.8Z" class="g1_108"/>
<path d="M174.7,382.3H851.1v-.7H174.7v.7Z" class="g1_108"/>
<path d="M69.9,406.8H851.1v-.7H69.9v.7Z" class="g1_108"/>
<path d="M174.7,498.5H851.1v-.8H174.7v.8Z" class="g1_108"/>
<path d="M174.7,522.9H851.1v-.8H174.7v.8Z" class="g1_108"/>
<path d="M174.7,547.3H851.1v-.7H174.7v.7Z" class="g1_108"/>
<path d="M69.9,571.8H851.1v-.7H69.9v.7Z" class="g1_108"/>
<path d="M174.7,764.3H851.1v-.7H174.7v.7Z" class="g1_108"/>
<path d="M174.7,788.7H851.1V788H174.7v.7Z" class="g1_108"/>
<path d="M174.7,813.2H851.1v-.8H174.7v.8Z" class="g1_108"/>
<path d="M174.7,837.7H851.1v-.8H174.7v.8Z" class="g1_108"/>
<path d="M69.9,862H851.1v-.7H69.9v.7Z" class="g1_108"/>
</svg>