<?xml version="1.0" encoding="UTF-8" standalone="no"?>
<!DOCTYPE svg PUBLIC "-//W3C//DTD SVG 1.1//EN"
"http://www.w3.org/Graphics/SVG/1.1/DTD/svg11.dtd">
<svg viewBox="0 0 935 1210" version="1.1" xmlns="http://www.w3.org/2000/svg" xmlns:xlink="http://www.w3.org/1999/xlink">
<defs>
<style type="text/css"><![CDATA[
.g0_4444{
fill: #FFF;
}
.g1_4444{
fill: #000;
}
]]></style>
</defs>
<path d="M68.8,1149.3H852.5v-21.2H68.8v21.2Z" class="g0_4444"/>
<path d="M68.6,215.1h.7V125.7h-.7v89.4Z" class="g1_4444"/>
<path d="M253.8,215.8h.8V124.9h-.8v90.9Z" class="g1_4444"/>
<path d="M311.1,215.8h.7V124.9h-.7v90.9Z" class="g1_4444"/>
<path d="M385.6,215.8h.7V124.9h-.7v90.9Z" class="g1_4444"/>
<path d="M453.2,215.8h.7V124.9h-.7v90.9Z" class="g1_4444"/>
<path d="M848.5,215.1h.7V125.7h-.7v89.4Z" class="g1_4444"/>
<path d="M68.6,125.7H849.2v-.8H68.6v.8Z" class="g1_4444"/>
<path d="M68.6,179.1H849.2v-.7H68.6v.7Z" class="g1_4444"/>
<path d="M68.6,215.8H849.2v-.7H68.6v.7Z" class="g1_4444"/>
<path d="M69.3,318.9H70V270.8h-.7v48.1Z" class="g1_4444"/>
<path d="M159,319.7h.8V270.1H159v49.6Z" class="g1_4444"/>
<path d="M317.6,319.7h.8V294.5h-.8v25.2Z" class="g1_4444"/>
<path d="M476.3,319.7h.7V270.1h-.7v49.6Z" class="g1_4444"/>
<path d="M670.5,319.7h.8V270.1h-.8v49.6Z" class="g1_4444"/>
<path d="M851,318.9h.8V270.8H851v48.1Z" class="g1_4444"/>
<path d="M69.3,270.8H851.8v-.7H69.3v.7Z" class="g1_4444"/>
<path d="M69.3,295.3H851.8v-.8H69.3v.8Z" class="g1_4444"/>
<path d="M69.3,319.6H851.8v-.7H69.3v.7Z" class="g1_4444"/>
<path d="M68.3,531.3H69V483.2h-.7v48.1Z" class="g1_4444"/>
<path d="M460.4,532h.7V482.4h-.7V532Z" class="g1_4444"/>
<path d="M852.1,531.3h.8V483.2h-.8v48.1Z" class="g1_4444"/>
<path d="M68.3,483.2H852.9v-.8H68.3v.8Z" class="g1_4444"/>
<path d="M68.3,507.7H852.9v-.8H68.3v.8Z" class="g1_4444"/>
<path d="M68.3,532H852.9v-.7H68.3v.7Z" class="g1_4444"/>
<path d="M69.6,769.6h.7V639h-.7V769.6Z" class="g1_4444"/>
<path d="M461.9,770.4h.7V638.3h-.7V770.4Z" class="g1_4444"/>
<path d="M850.8,769.6h.8V639h-.8V769.6Z" class="g1_4444"/>
<path d="M69.6,639h782v-.7H69.6v.7Z" class="g1_4444"/>
<path d="M69.6,680.3h782v-.8H69.6v.8Z" class="g1_4444"/>
<path d="M69.6,704.7h782V704H69.6v.7Z" class="g1_4444"/>
<path d="M69.6,729.1h782v-.7H69.6v.7Z" class="g1_4444"/>
<path d="M69.6,770.4h782v-.8H69.6v.8Z" class="g1_4444"/>
<path d="M71.6,972.9h.7V848.4h-.7V972.9Z" class="g1_4444"/>
<path d="M307.7,973.6h.8V847.5h-.8V973.6Z" class="g1_4444"/>
<path d="M475.4,973.6h.7V847.5h-.7V973.6Z" class="g1_4444"/>
<path d="M580,973.6h.7V870.5H580V973.6Z" class="g1_4444"/>
<path d="M691.7,973.6h.8V870.5h-.8V973.6Z" class="g1_4444"/>
<path d="M848.7,972.9h.8V848.4h-.8V972.9Z" class="g1_4444"/>
<path d="M71.6,848.3H849.5v-.7H71.6v.7Z" class="g1_4444"/>
<path d="M475.4,871.2H849.5v-.7H475.4v.7Z" class="g1_4444"/>
<path d="M71.6,911H849.5v-.8H71.6v.8Z" class="g1_4444"/>
<path d="M307.7,950.7H849.5v-.8H307.7v.8Z" class="g1_4444"/>
<path d="M71.6,973.6H849.5v-.7H71.6v.7Z" class="g1_4444"/>
</svg>