<?xml version="1.0" encoding="UTF-8" standalone="no"?>
<!DOCTYPE svg PUBLIC "-//W3C//DTD SVG 1.1//EN"
"http://www.w3.org/Graphics/SVG/1.1/DTD/svg11.dtd">
<svg viewBox="0 0 825 990" version="1.1" xmlns="http://www.w3.org/2000/svg" xmlns:xlink="http://www.w3.org/1999/xlink">
<defs>
<style type="text/css"><![CDATA[
.g0_2{
fill: #000;
}
]]></style>
</defs>
<path d="M79.8,910.3h.3v-.8h-.3v.8Z" class="g0_2"/>
<path d="M80.1,910.3h650v-.8H80.1v.8Z" class="g0_2"/>
<path d="M255.4,231.6H729.8v-.7H255.4v.7Z" class="g0_2"/>
<path d="M255.4,263.7H729.8V263H255.4v.7Z" class="g0_2"/>
<path d="M255.4,289.4H729.8v-.2H255.4v.2Z" class="g0_2"/>
<path d="M255.4,315.3H729.8v-.1H255.4v.1Z" class="g0_2"/>
<path d="M255.4,341.4H729.8v-.2H255.4v.2Z" class="g0_2"/>
<path d="M255.4,367.3H729.8v-.2H255.4v.2Z" class="g0_2"/>
<path d="M255.4,393.2H729.8v-.1H255.4v.1Z" class="g0_2"/>
<path d="M255.4,419.3H729.8v-.2H255.4v.2Z" class="g0_2"/>
<path d="M255.4,445.2H729.8V445H255.4v.2Z" class="g0_2"/>
<path d="M255.4,471.2H729.8V471H255.4v.2Z" class="g0_2"/>
<path d="M255.4,497.5H729.8v-.8H255.4v.8Z" class="g0_2"/>
</svg>