<?xml version="1.0" encoding="UTF-8" standalone="no"?>
<!DOCTYPE svg PUBLIC "-//W3C//DTD SVG 1.1//EN"
"http://www.w3.org/Graphics/SVG/1.1/DTD/svg11.dtd">
<svg viewBox="0 0 935 1210" version="1.1" xmlns="http://www.w3.org/2000/svg" xmlns:xlink="http://www.w3.org/1999/xlink">
<defs>
<clipPath id="c0_2599"><path d="M97.3,59.2V41.4h72.1V59.2Z"/></clipPath>
<style type="text/css"><![CDATA[
.g0_2599{
fill: #000;
}
]]></style>
</defs>
<path d="M96.3,63.3H838.8v-.4H96.3v.4Z" class="g0_2599"/>
<path d="M96.1,1114.5h.2v-.4h-.2v.4Z" class="g0_2599"/>
<path d="M96.3,1114.5H838.9v-.4H96.3v.4Z" class="g0_2599"/>
<image clip-path="url(#c0_2599)" preserveAspectRatio="none" x="97" y="41" width="73" height="18" xlink:href="img/1.jpg"/>
<path d="M95.9,953h.7V884.9h-.7V953Z" class="g0_2599"/>
<path d="M275,953.7h.7V884.2H275v69.5Z" class="g0_2599"/>
<path d="M345.2,953.7h.8V884.2h-.8v69.5Z" class="g0_2599"/>
<path d="M837.7,953h.8V884.9h-.8V953Z" class="g0_2599"/>
<path d="M95.9,885H838.6v-.8H95.9v.8Z" class="g0_2599"/>
<path d="M95.9,909.1H838.6V906H95.9v3.1Z" class="g0_2599"/>
<path d="M95.9,930.8H838.6v-.7H95.9v.7Z" class="g0_2599"/>
<path d="M95.9,953.7H838.6V953H95.9v.7Z" class="g0_2599"/>
</svg>