<?xml version="1.0" encoding="UTF-8" standalone="no"?>
<!DOCTYPE svg PUBLIC "-//W3C//DTD SVG 1.1//EN"
"http://www.w3.org/Graphics/SVG/1.1/DTD/svg11.dtd">
<svg viewBox="0 0 935 1210" version="1.1" xmlns="http://www.w3.org/2000/svg" xmlns:xlink="http://www.w3.org/1999/xlink">
<defs>
<style type="text/css"><![CDATA[
.g0_168{
fill: #FFF;
}
.g1_168{
fill: #000;
}
]]></style>
</defs>
<path d="M68.8,1149.3H852.5v-21.2H68.8v21.2Z" class="g0_168"/>
<path d="M68.6,1099.6h.7V124.1h-.7v975.5Z" class="g1_168"/>
<path d="M125.3,1100.5h.7V164.6h-.7v935.9Z" class="g1_168"/>
<path d="M182.1,1100.5h.7V123.4h-.7v977.1Z" class="g1_168"/>
<path d="M425.7,1100.5h.7V123.4h-.7v977.1Z" class="g1_168"/>
<path d="M518.8,1100.5h.8V123.4h-.8v977.1Z" class="g1_168"/>
<path d="M853,1099.6h.8V124.1H853v975.5Z" class="g1_168"/>
<path d="M68.6,124.1H853.8v-.7H68.6v.7Z" class="g1_168"/>
<path d="M68.6,165.4H182.8v-.8H68.6v.8Z" class="g1_168"/>
<path d="M68.6,189.8H853.8v-.7H68.6v.7Z" class="g1_168"/>
<path d="M182.1,214.2H853.8v-.7H182.1v.7Z" class="g1_168"/>
<path d="M182.1,238.7H853.8V238H182.1v.7Z" class="g1_168"/>
<path d="M182.1,263.2H853.8v-.8H182.1v.8Z" class="g1_168"/>
<path d="M182.1,287.6H853.8v-.8H182.1v.8Z" class="g1_168"/>
<path d="M182.1,312H853.8v-.7H182.1v.7Z" class="g1_168"/>
<path d="M182.1,336.5H853.8v-.7H182.1v.7Z" class="g1_168"/>
<path d="M182.1,360.9H853.8v-.7H182.1v.7Z" class="g1_168"/>
<path d="M68.6,385.4H853.8v-.8H68.6v.8Z" class="g1_168"/>
<path d="M182.1,426.6H853.8v-.7H182.1v.7Z" class="g1_168"/>
<path d="M182.1,467.9H853.8v-.8H182.1v.8Z" class="g1_168"/>
<path d="M68.6,492.3H853.8v-.7H68.6v.7Z" class="g1_168"/>
<path d="M182.1,550.4H853.8v-.8H182.1v.8Z" class="g1_168"/>
<path d="M68.6,629.8H853.8v-.7H68.6v.7Z" class="g1_168"/>
<path d="M182.1,687.9H853.8v-.8H182.1v.8Z" class="g1_168"/>
<path d="M68.6,767.3H853.8v-.7H68.6v.7Z" class="g1_168"/>
<path d="M182.1,825.4H853.8v-.8H182.1v.8Z" class="g1_168"/>
<path d="M68.6,904.8H853.8v-.7H68.6v.7Z" class="g1_168"/>
<path d="M182.1,962.9H853.8v-.8H182.1v.8Z" class="g1_168"/>
<path d="M68.6,1042.3H853.8v-.7H68.6v.7Z" class="g1_168"/>
<path d="M68.6,1100.4H853.8v-.8H68.6v.8Z" class="g1_168"/>
</svg>