<?xml version="1.0" encoding="UTF-8" standalone="no"?>
<!DOCTYPE svg PUBLIC "-//W3C//DTD SVG 1.1//EN"
"http://www.w3.org/Graphics/SVG/1.1/DTD/svg11.dtd">
<svg viewBox="0 0 935 1210" version="1.1" xmlns="http://www.w3.org/2000/svg" xmlns:xlink="http://www.w3.org/1999/xlink">
<defs>
<style type="text/css"><![CDATA[
.g0_708{
fill: #FFF;
}
.g1_708{
fill: #000;
}
]]></style>
</defs>
<path d="M68.8,1149.3H852.5v-21.2H68.8v21.2Z" class="g0_708"/>
<path d="M68.9,365.8H848.4V336.1H68.9v29.7Z" class="g0_708"/>
<path d="M69.9,359.1h53.5V346.6H69.9v12.5Z" class="g0_708"/>
<path d="M68.6,335.8h.7V124.1h-.7V335.8Z" class="g1_708"/>
<path d="M307.4,336.5h.7V123.4h-.7V336.5Z" class="g1_708"/>
<path d="M577.7,336.5h.7V123.4h-.7V336.5Z" class="g1_708"/>
<path d="M848,335.8h.7V124.1H848V335.8Z" class="g1_708"/>
<path d="M68.6,124.1H848.7v-.7H68.6v.7Z" class="g1_708"/>
<path d="M68.6,148.6H848.7v-.7H68.6v.7Z" class="g1_708"/>
<path d="M68.6,189.8H848.7v-.7H68.6v.7Z" class="g1_708"/>
<path d="M68.6,214.2H848.7v-.7H68.6v.7Z" class="g1_708"/>
<path d="M68.6,238.7H848.7V238H68.6v.7Z" class="g1_708"/>
<path d="M68.6,263.2H848.7v-.8H68.6v.8Z" class="g1_708"/>
<path d="M68.6,287.6H848.7v-.8H68.6v.8Z" class="g1_708"/>
<path d="M68.6,312H848.7v-.7H68.6v.7Z" class="g1_708"/>
<path d="M68.6,336.5H848.7v-.7H68.6v.7Z" class="g1_708"/>
</svg>