<?xml version="1.0" encoding="UTF-8" standalone="no"?>
<!DOCTYPE svg PUBLIC "-//W3C//DTD SVG 1.1//EN"
"http://www.w3.org/Graphics/SVG/1.1/DTD/svg11.dtd">
<svg viewBox="0 0 825 990" version="1.1" xmlns="http://www.w3.org/2000/svg" xmlns:xlink="http://www.w3.org/1999/xlink">
<defs>
<style type="text/css"><![CDATA[
.g0_814{
fill: #000;
}
]]></style>
</defs>
<path d="M79.8,910.3h.3v-.8h-.3v.8Z" class="g0_814"/>
<path d="M80.1,910.3h650v-.8H80.1v.8Z" class="g0_814"/>
<path d="M145.8,150.6h584v-.7h-584v.7Z" class="g0_814"/>
<path d="M145.8,185.8h584v-.7h-584v.7Z" class="g0_814"/>
<path d="M145.8,214.5h584v-.2h-584v.2Z" class="g0_814"/>
<path d="M145.8,243.6h584v-.2h-584v.2Z" class="g0_814"/>
<path d="M145.8,272.6h584v-.2h-584v.2Z" class="g0_814"/>
<path d="M145.8,301.6h584v-.2h-584v.2Z" class="g0_814"/>
<path d="M145.8,330.6h584v-.1h-584v.1Z" class="g0_814"/>
<path d="M145.8,359.7h584v-.2h-584v.2Z" class="g0_814"/>
<path d="M145.8,388.7h584v-.2h-584v.2Z" class="g0_814"/>
<path d="M145.8,417.7h584v-.2h-584v.2Z" class="g0_814"/>
<path d="M145.8,446.8h584v-.2h-584v.2Z" class="g0_814"/>
<path d="M145.8,475.7h584v-.1h-584v.1Z" class="g0_814"/>
<path d="M145.8,504.8h584v-.2h-584v.2Z" class="g0_814"/>
<path d="M145.8,550.9h584v-.7h-584v.7Z" class="g0_814"/>
</svg>