<?xml version="1.0" encoding="UTF-8" standalone="no"?>
<!DOCTYPE svg PUBLIC "-//W3C//DTD SVG 1.1//EN"
"http://www.w3.org/Graphics/SVG/1.1/DTD/svg11.dtd">
<svg viewBox="0 0 935 1210" version="1.1" xmlns="http://www.w3.org/2000/svg" xmlns:xlink="http://www.w3.org/1999/xlink">
<defs>
<clipPath id="c0_872"><path d="M97.3,59.2V41.4h72.1V59.2Z"/></clipPath>
<style type="text/css"><![CDATA[
.g0_872{
fill: #000;
}
.g1_872{
fill: #E5E5E5;
}
.g2_872{
fill: #FFF;
}
]]></style>
</defs>
<path d="M96.2,62.9v.3H838.7v-.3H96.2Z" class="g0_872"/>
<path d="M96.2,1114.1h-.1v.3h.1v-.3Z" class="g0_872"/>
<path d="M838.7,1114.1h.2v.3h-.2v-.3Z" class="g0_872"/>
<path d="M96.2,1114.1v.3H838.7v-.3H96.2Z" class="g0_872"/>
<image clip-path="url(#c0_872)" preserveAspectRatio="none" x="97" y="41" width="72" height="18" xlink:href="img/1.jpg"/>
<path d="M96.2,194.8H189v59.6H96.2V194.8Z" class="g1_872"/>
<path d="M189,194.8h23.2v59.6H189V194.8Z" class="g2_872"/>
<path d="M212.2,194.8h23.3v59.6H212.2V194.8Z" class="g2_872"/>
<path d="M235.5,194.8h464v59.6h-464V194.8Z" class="g1_872"/>
<path d="M699.5,194.8H838.7v59.6H699.5V194.8Z" class="g2_872"/>
<path d="M96.2,300.2h43v19.9h-43V300.2Z" class="g1_872"/>
<path d="M139.2,300.2h87.3v19.9H139.2V300.2Z" class="g1_872"/>
<path d="M226.5,300.2H500.8v19.9H226.5V300.2Z" class="g1_872"/>
<path d="M500.8,300.2h110v19.9h-110V300.2Z" class="g1_872"/>
<path d="M96.2,359.8h43v19.9h-43V359.8Z" class="g1_872"/>
<path d="M139.2,359.8h87.3v19.9H139.2V359.8Z" class="g1_872"/>
<path d="M226.5,359.8H500.8v19.9H226.5V359.8Z" class="g1_872"/>
<path d="M500.8,359.8h110v19.9h-110V359.8Z" class="g1_872"/>
<path d="M96.2,379.7h43v36.6h-43V379.7Z" class="g2_872"/>
<path d="M139.2,379.7h87.3v36.6H139.2V379.7Z" class="g2_872"/>
<path d="M226.5,379.7H500.8v36.6H226.5V379.7Z" class="g2_872"/>
<path d="M500.8,379.7h110v36.6h-110V379.7Z" class="g2_872"/>
<path d="M96.6,195.2h-.7v57.6h.7V195.2Z" class="g0_872"/>
<path d="M189.4,194.4h-.8v61.5h.8V194.4Z" class="g0_872"/>
<path d="M212.6,194.4h-.8v61.5h.8V194.4Z" class="g0_872"/>
<path d="M235.8,194.4h-.7v61.5h.7V194.4Z" class="g0_872"/>
<path d="M699.8,194.4h-.7v61.5h.7V194.4Z" class="g0_872"/>
<path d="M840.3,195.2h-3.1v57.6h3.1V195.2Z" class="g0_872"/>
<path d="M95.9,194.4v.8H840.3v-.8H95.9Z" class="g0_872"/>
<path d="M95.9,252.9v3H840.3v-3H95.9Z" class="g0_872"/>
<path d="M96.2,299.8v.8H610.7v-.8H96.2Z" class="g0_872"/>
<path d="M96.2,416v.7H610.7V416H96.2Z" class="g0_872"/>
</svg>