<?xml version="1.0" encoding="UTF-8" standalone="no"?>
<!DOCTYPE svg PUBLIC "-//W3C//DTD SVG 1.1//EN"
"http://www.w3.org/Graphics/SVG/1.1/DTD/svg11.dtd">
<svg viewBox="0 0 935 1210" version="1.1" xmlns="http://www.w3.org/2000/svg" xmlns:xlink="http://www.w3.org/1999/xlink">
<defs>
<style type="text/css"><![CDATA[
.g0_579{
fill: #FFF;
}
.g1_579{
fill: #000;
}
]]></style>
</defs>
<path d="M68.9,1149.3H755.2v-21.2H68.9v21.2Z" class="g0_579"/>
<path d="M771.3,1149.3H855v-21.2H771.3v21.2Z" class="g0_579"/>
<path d="M69.9,228.8h.8v-94h-.8v94Z" class="g1_579"/>
<path d="M346.7,229.5h.7V134.1h-.7v95.4Z" class="g1_579"/>
<path d="M407.2,229.5h.7V134.1h-.7v95.4Z" class="g1_579"/>
<path d="M486.2,229.5h.7V134.1h-.7v95.4Z" class="g1_579"/>
<path d="M851.6,228.8h.7v-94h-.7v94Z" class="g1_579"/>
<path d="M69.9,134.8H852.3v-.7H69.9v.7Z" class="g1_579"/>
<path d="M69.9,173H852.3v-.8H69.9v.8Z" class="g1_579"/>
<path d="M69.9,229.5H852.3v-.7H69.9v.7Z" class="g1_579"/>
</svg>