<?xml version="1.0" encoding="UTF-8" standalone="no"?>
<!DOCTYPE svg PUBLIC "-//W3C//DTD SVG 1.1//EN"
"http://www.w3.org/Graphics/SVG/1.1/DTD/svg11.dtd">
<svg viewBox="0 0 935 1210" version="1.1" xmlns="http://www.w3.org/2000/svg" xmlns:xlink="http://www.w3.org/1999/xlink">
<defs>
<style type="text/css"><![CDATA[
.g0_1393{
fill: #FFF;
}
.g1_1393{
fill: #000;
}
]]></style>
</defs>
<path d="M68.9,1149.3H755.2v-21.2H68.9v21.2Z" class="g0_1393"/>
<path d="M771.3,1149.3H855v-21.2H771.3v21.2Z" class="g0_1393"/>
<path d="M69.9,467.1h.8V125.7h-.8V467.1Z" class="g1_1393"/>
<path d="M292.2,467.9h.8v-343h-.8v343Z" class="g1_1393"/>
<path d="M342.4,467.9h.7v-343h-.7v343Z" class="g1_1393"/>
<path d="M416.9,467.9h.7v-343h-.7v343Z" class="g1_1393"/>
<path d="M502.8,467.9h.7v-343h-.7v343Z" class="g1_1393"/>
<path d="M853,467.1h.7V125.7H853V467.1Z" class="g1_1393"/>
<path d="M69.9,125.7H853.7v-.8H69.9v.8Z" class="g1_1393"/>
<path d="M69.9,179.1H853.7v-.7H69.9v.7Z" class="g1_1393"/>
<path d="M69.9,218.8H853.7v-.7H69.9v.7Z" class="g1_1393"/>
<path d="M69.9,258.6H853.7v-.7H69.9v.7Z" class="g1_1393"/>
<path d="M69.9,298.3H853.7v-.7H69.9v.7Z" class="g1_1393"/>
<path d="M69.9,354.8H853.7v-.7H69.9v.7Z" class="g1_1393"/>
<path d="M69.9,411.4H853.7v-.7H69.9v.7Z" class="g1_1393"/>
<path d="M69.9,467.9H853.7v-.8H69.9v.8Z" class="g1_1393"/>
<path d="M69.9,619.9h.8v-97h-.8v97Z" class="g1_1393"/>
<path d="M150,620.7h.7V522.1H150v98.6Z" class="g1_1393"/>
<path d="M244.7,620.7h.7V522.1h-.7v98.6Z" class="g1_1393"/>
<path d="M395.1,620.7h.7V522.1h-.7v98.6Z" class="g1_1393"/>
<path d="M552,620.7h.8V522.1H552v98.6Z" class="g1_1393"/>
<path d="M702.3,620.7h.7V522.1h-.7v98.6Z" class="g1_1393"/>
<path d="M848.9,619.9h.8v-97h-.8v97Z" class="g1_1393"/>
<path d="M69.9,522.9H849.7v-.8H69.9v.8Z" class="g1_1393"/>
<path d="M69.9,547.3H849.7v-.7H69.9v.7Z" class="g1_1393"/>
<path d="M69.9,571.8H849.7v-.7H69.9v.7Z" class="g1_1393"/>
<path d="M69.9,596.2H849.7v-.7H69.9v.7Z" class="g1_1393"/>
<path d="M69.9,620.7H849.7v-.8H69.9v.8Z" class="g1_1393"/>
</svg>