<?xml version="1.0" encoding="UTF-8" standalone="no"?>
<!DOCTYPE svg PUBLIC "-//W3C//DTD SVG 1.1//EN"
"http://www.w3.org/Graphics/SVG/1.1/DTD/svg11.dtd">
<svg viewBox="0 0 935 1210" version="1.1" xmlns="http://www.w3.org/2000/svg" xmlns:xlink="http://www.w3.org/1999/xlink">
<defs>
<style type="text/css"><![CDATA[
.g0_1245{
fill: #FFF;
}
.g1_1245{
fill: #000;
}
]]></style>
</defs>
<path d="M68.9,1149.3H852.7v-21.2H68.9v21.2Z" class="g0_1245"/>
<path d="M69.9,1074.3h.8V687.9h-.8v386.4Z" class="g1_1245"/>
<path d="M111.7,1075.1h.8v-388h-.8v388Z" class="g1_1245"/>
<path d="M348.5,1075.1h.7v-388h-.7v388Z" class="g1_1245"/>
<path d="M629,1075.1h.8v-388H629v388Z" class="g1_1245"/>
<path d="M853.9,1074.3h.7V687.9h-.7v386.4Z" class="g1_1245"/>
<path d="M69.9,687.9H854.6v-.8H69.9v.8Z" class="g1_1245"/>
<path d="M69.9,712.3H854.6v-.7H69.9v.7Z" class="g1_1245"/>
<path d="M69.9,736.8H854.6v-.7H69.9v.7Z" class="g1_1245"/>
<path d="M69.9,761.2H854.6v-.7H69.9v.7Z" class="g1_1245"/>
<path d="M69.9,789.3H854.6v-.7H69.9v.7Z" class="g1_1245"/>
<path d="M69.9,813.8H854.6v-.7H69.9v.7Z" class="g1_1245"/>
<path d="M69.9,838.2H854.6v-.7H69.9v.7Z" class="g1_1245"/>
<path d="M69.9,862.7H854.6v-.8H69.9v.8Z" class="g1_1245"/>
<path d="M69.9,887.1H854.6v-.7H69.9v.7Z" class="g1_1245"/>
<path d="M69.9,911.5H854.6v-.7H69.9v.7Z" class="g1_1245"/>
<path d="M69.9,936H854.6v-.7H69.9v.7Z" class="g1_1245"/>
<path d="M69.9,960.5H854.6v-.7H69.9v.7Z" class="g1_1245"/>
<path d="M69.9,984.9H854.6v-.8H69.9v.8Z" class="g1_1245"/>
<path d="M69.9,1026.1H854.6v-.7H69.9v.7Z" class="g1_1245"/>
<path d="M69.9,1050.6H854.6v-.7H69.9v.7Z" class="g1_1245"/>
<path d="M69.9,1075.1H854.6v-.8H69.9v.8Z" class="g1_1245"/>
</svg>