<?xml version="1.0" encoding="UTF-8" standalone="no"?>
<!DOCTYPE svg PUBLIC "-//W3C//DTD SVG 1.1//EN"
"http://www.w3.org/Graphics/SVG/1.1/DTD/svg11.dtd">
<svg viewBox="0 0 935 1210" version="1.1" xmlns="http://www.w3.org/2000/svg" xmlns:xlink="http://www.w3.org/1999/xlink">
<defs>
<style type="text/css"><![CDATA[
.g0_61{
fill: #000;
}
]]></style>
</defs>
<path d="M123.4,896.4h.7v-728h-.7v728Z" class="g0_61"/>
<path d="M257.9,897.2h.7V167.7h-.7V897.2Z" class="g0_61"/>
<path d="M594.6,897.2h.7V167.7h-.7V897.2Z" class="g0_61"/>
<path d="M810.9,896.4h.7v-728h-.7v728Z" class="g0_61"/>
<path d="M123.4,168.4H811.6v-.7H123.4v.7Z" class="g0_61"/>
<path d="M124.1,194H810.9v-.8H124.1v.8Z" class="g0_61"/>
<path d="M124.1,197.8H810.9v-.7H124.1v.7Z" class="g0_61"/>
<path d="M123.4,237.1H811.6v-.7H123.4v.7Z" class="g0_61"/>
<path d="M123.4,278.4H811.6v-.7H123.4v.7Z" class="g0_61"/>
<path d="M123.4,319.6H811.6v-.7H123.4v.7Z" class="g0_61"/>
<path d="M123.4,360.9H811.6v-.7H123.4v.7Z" class="g0_61"/>
<path d="M123.4,402.1H811.6v-.7H123.4v.7Z" class="g0_61"/>
<path d="M123.4,443.4H811.6v-.7H123.4v.7Z" class="g0_61"/>
<path d="M123.4,484.6H811.6v-.7H123.4v.7Z" class="g0_61"/>
<path d="M123.4,525.9H811.6v-.7H123.4v.7Z" class="g0_61"/>
<path d="M123.4,567.1H811.6v-.7H123.4v.7Z" class="g0_61"/>
<path d="M123.4,608.4H811.6v-.7H123.4v.7Z" class="g0_61"/>
<path d="M123.4,649.6H811.6v-.7H123.4v.7Z" class="g0_61"/>
<path d="M123.4,690.9H811.6v-.7H123.4v.7Z" class="g0_61"/>
<path d="M123.4,732.1H811.6v-.7H123.4v.7Z" class="g0_61"/>
<path d="M123.4,773.4H811.6v-.7H123.4v.7Z" class="g0_61"/>
<path d="M123.4,814.6H811.6v-.7H123.4v.7Z" class="g0_61"/>
<path d="M123.4,855.9H811.6v-.7H123.4v.7Z" class="g0_61"/>
<path d="M123.4,897.1H811.6v-.7H123.4v.7Z" class="g0_61"/>
</svg>