<?xml version="1.0" encoding="UTF-8" standalone="no"?>
<!DOCTYPE svg PUBLIC "-//W3C//DTD SVG 1.1//EN"
"http://www.w3.org/Graphics/SVG/1.1/DTD/svg11.dtd">
<svg viewBox="0 0 825 990" version="1.1" xmlns="http://www.w3.org/2000/svg" xmlns:xlink="http://www.w3.org/1999/xlink">
<defs>
<style type="text/css"><![CDATA[
.g0_806{
fill: #000;
}
]]></style>
</defs>
<path d="M79.8,910.3h.3v-.8h-.3v.8Z" class="g0_806"/>
<path d="M80.1,910.3h650v-.8H80.1v.8Z" class="g0_806"/>
<path d="M78.9,118.5H729.8v-.7H78.9v.7Z" class="g0_806"/>
<path d="M78.9,153.7H729.8V153H78.9v.7Z" class="g0_806"/>
<path d="M78.9,183.6H729.8v-.2H78.9v.2Z" class="g0_806"/>
<path d="M78.9,229.4H729.8v-.1H78.9v.1Z" class="g0_806"/>
<path d="M78.9,259.6H729.8v-.2H78.9v.2Z" class="g0_806"/>
<path d="M78.9,289.8H729.8v-.2H78.9v.2Z" class="g0_806"/>
<path d="M78.9,319.9H729.8v-.2H78.9v.2Z" class="g0_806"/>
<path d="M78.9,350.1H729.8v-.2H78.9v.2Z" class="g0_806"/>
<path d="M78.9,380.3H729.8v-.2H78.9v.2Z" class="g0_806"/>
<path d="M78.9,410.5H729.8v-.2H78.9v.2Z" class="g0_806"/>
<path d="M78.9,440.6H729.8v-.1H78.9v.1Z" class="g0_806"/>
<path d="M78.9,469.7H729.8v-.2H78.9v.2Z" class="g0_806"/>
<path d="M78.9,499.9H729.8v-.2H78.9v.2Z" class="g0_806"/>
<path d="M78.9,530H729.8v-.2H78.9v.2Z" class="g0_806"/>
<path d="M78.9,560.4H729.8v-.7H78.9v.7Z" class="g0_806"/>
</svg>