<?xml version="1.0" encoding="UTF-8" standalone="no"?>
<!DOCTYPE svg PUBLIC "-//W3C//DTD SVG 1.1//EN"
"http://www.w3.org/Graphics/SVG/1.1/DTD/svg11.dtd">
<svg viewBox="0 0 935 1210" version="1.1" xmlns="http://www.w3.org/2000/svg" xmlns:xlink="http://www.w3.org/1999/xlink">
<defs>
<style type="text/css"><![CDATA[
.g0_1109{
fill: #FFF;
}
.g1_1109{
fill: #000;
}
]]></style>
</defs>
<path d="M68.9,1149.3H755.2v-21.2H68.9v21.2Z" class="g0_1109"/>
<path d="M771.3,1149.3H855v-21.2H771.3v21.2Z" class="g0_1109"/>
<path d="M69.9,432h.8V125.7h-.8V432Z" class="g1_1109"/>
<path d="M307.5,432.8h.8V124.9h-.8V432.8Z" class="g1_1109"/>
<path d="M365.3,432.8h.7V124.9h-.7V432.8Z" class="g1_1109"/>
<path d="M439.8,432.8h.8V124.9h-.8V432.8Z" class="g1_1109"/>
<path d="M518.6,432.8h.7V124.9h-.7V432.8Z" class="g1_1109"/>
<path d="M851,432h.8V125.7H851V432Z" class="g1_1109"/>
<path d="M69.9,125.7H851.8v-.8H69.9v.8Z" class="g1_1109"/>
<path d="M69.9,179.1H851.8v-.7H69.9v.7Z" class="g1_1109"/>
<path d="M69.9,252.4H851.8v-.7H69.9v.7Z" class="g1_1109"/>
<path d="M69.9,342.6H851.8v-.8H69.9v.8Z" class="g1_1109"/>
<path d="M69.9,432.8H851.8V432H69.9v.8Z" class="g1_1109"/>
<path d="M69.9,584.7h.8V487.8h-.8v96.9Z" class="g1_1109"/>
<path d="M155.5,585.6h.7V487h-.7v98.6Z" class="g1_1109"/>
<path d="M246.5,585.6h.7V487h-.7v98.6Z" class="g1_1109"/>
<path d="M395.2,585.6h.7V487h-.7v98.6Z" class="g1_1109"/>
<path d="M547.8,585.6h.7V487h-.7v98.6Z" class="g1_1109"/>
<path d="M703.5,585.6h.7V487h-.7v98.6Z" class="g1_1109"/>
<path d="M853.2,584.7h.8V487.8h-.8v96.9Z" class="g1_1109"/>
<path d="M69.9,487.8H854V487H69.9v.8Z" class="g1_1109"/>
<path d="M69.9,512.2H854v-.7H69.9v.7Z" class="g1_1109"/>
<path d="M69.9,536.6H854v-.7H69.9v.7Z" class="g1_1109"/>
<path d="M69.9,561.1H854v-.7H69.9v.7Z" class="g1_1109"/>
<path d="M69.9,585.6H854v-.8H69.9v.8Z" class="g1_1109"/>
</svg>