<?xml version="1.0" encoding="UTF-8" standalone="no"?>
<!DOCTYPE svg PUBLIC "-//W3C//DTD SVG 1.1//EN"
"http://www.w3.org/Graphics/SVG/1.1/DTD/svg11.dtd">
<svg viewBox="0 0 935 1210" version="1.1" xmlns="http://www.w3.org/2000/svg" xmlns:xlink="http://www.w3.org/1999/xlink">
<defs>
<clipPath id="c0_1035"><path d="M766.6,59.2V41.4h72.1V59.2Z"/></clipPath>
<style type="text/css"><![CDATA[
.g0_1035{
fill: #000;
}
.g1_1035{
fill: #DFDFDF;
}
]]></style>
</defs>
<path d="M97.3,62.9v.3H839.9v-.3H97.3Z" class="g0_1035"/>
<path d="M96.2,1114.1h-.1v.3h.1v-.3Z" class="g0_1035"/>
<path d="M838.7,1114.1h.2v.3h-.2v-.3Z" class="g0_1035"/>
<path d="M96.2,1114.1v.3H838.7v-.3H96.2Z" class="g0_1035"/>
<image clip-path="url(#c0_1035)" preserveAspectRatio="none" x="767" y="41" width="72" height="18" xlink:href="img/1.jpg"/>
<path d="M466.5,710.4H721.1v55H466.5v-55Z" class="g1_1035"/>
<path d="M100.1,905.9H164v24.5H100.1V905.9Z" class="g1_1035"/>
<path d="M164,905.9H331.2v24.5H164V905.9Z" class="g1_1035"/>
<path d="M331.2,905.9H834.9v24.5H331.2V905.9Z" class="g1_1035"/>
<path d="M96.6,347.1h-.7v54.3h.7V347.1Z" class="g0_1035"/>
<path d="M467.8,346.4h-.7v55.7h.7V346.4Z" class="g0_1035"/>
<path d="M839.1,347.1h-.8v54.3h.8V347.1Z" class="g0_1035"/>
<path d="M95.9,346.4v.7H839.1v-.7H95.9Z" class="g0_1035"/>
<path d="M95.9,401.4v.7H839.1v-.7H95.9Z" class="g0_1035"/>
<path d="M100.5,493.8h-.8v72.6h.8V493.8Z" class="g0_1035"/>
<path d="M164.4,493.1h-.8v74h.8v-74Z" class="g0_1035"/>
<path d="M331.5,493.1h-.7v74h.7v-74Z" class="g0_1035"/>
<path d="M835.2,493.8h-.7v72.6h.7V493.8Z" class="g0_1035"/>
<path d="M99.7,493.1v.7H835.2v-.7H99.7Z" class="g0_1035"/>
<path d="M99.7,517.5v.8H835.2v-.8H99.7Z" class="g0_1035"/>
<path d="M99.7,542v.7H835.2V542H99.7Z" class="g0_1035"/>
<path d="M99.7,566.4v.7H835.2v-.7H99.7Z" class="g0_1035"/>
<path d="M96.6,710.8h-.7V765h.7V710.8Z" class="g0_1035"/>
<path d="M466.8,710h-.7v55.8h.7V710Z" class="g0_1035"/>
<path d="M721.5,710h-.8v55.8h.8V710Z" class="g0_1035"/>
<path d="M837.2,710.8h-.8V765h.8V710.8Z" class="g0_1035"/>
<path d="M95.9,710v.8H837.2V710H95.9Z" class="g0_1035"/>
<path d="M95.9,765v.8H837.2V765H95.9Z" class="g0_1035"/>
<path d="M100.5,857.4h-.8V972.8h.8V857.4Z" class="g0_1035"/>
<path d="M164.4,856.7h-.8V973.6h.8V856.7Z" class="g0_1035"/>
<path d="M331.5,856.7h-.7V973.6h.7V856.7Z" class="g0_1035"/>
<path d="M835.2,857.4h-.7V972.8h.7V857.4Z" class="g0_1035"/>
<path d="M99.7,856.7v.7H835.2v-.7H99.7Z" class="g0_1035"/>
<path d="M99.7,881.2v.7H835.2v-.7H99.7Z" class="g0_1035"/>
<path d="M99.7,905.5v.8H835.2v-.8H99.7Z" class="g0_1035"/>
<path d="M99.7,930v.7H835.2V930H99.7Z" class="g0_1035"/>
<path d="M99.7,972.8v.8H835.2v-.8H99.7Z" class="g0_1035"/>
</svg>