<?xml version="1.0" encoding="UTF-8" standalone="no"?>
<!DOCTYPE svg PUBLIC "-//W3C//DTD SVG 1.1//EN"
"http://www.w3.org/Graphics/SVG/1.1/DTD/svg11.dtd">
<svg viewBox="0 0 935 1210" version="1.1" xmlns="http://www.w3.org/2000/svg" xmlns:xlink="http://www.w3.org/1999/xlink">
<defs>
<style type="text/css"><![CDATA[
.g0_4882{
fill: #FFF;
}
.g1_4882{
fill: #000;
}
]]></style>
</defs>
<path d="M68.8,1149.3H852.5v-21.2H68.8v21.2Z" class="g0_4882"/>
<path d="M68.6,1067.6h.7V142.4h-.7v925.2Z" class="g1_4882"/>
<path d="M125.3,1068.4h.7V183h-.7v885.4Z" class="g1_4882"/>
<path d="M182.1,1068.4h.7V141.7h-.7v926.7Z" class="g1_4882"/>
<path d="M421.5,1068.4h.7V141.7h-.7v926.7Z" class="g1_4882"/>
<path d="M514.7,1068.4h.7V141.7h-.7v926.7Z" class="g1_4882"/>
<path d="M850.9,1067.6h.8V142.4h-.8v925.2Z" class="g1_4882"/>
<path d="M68.6,142.4H851.7v-.7H68.6v.7Z" class="g1_4882"/>
<path d="M68.6,183.7H182.8V183H68.6v.7Z" class="g1_4882"/>
<path d="M68.6,208.2H851.7v-.8H68.6v.8Z" class="g1_4882"/>
<path d="M182.1,232.6H851.7v-.8H182.1v.8Z" class="g1_4882"/>
<path d="M182.1,257H851.7v-.7H182.1v.7Z" class="g1_4882"/>
<path d="M182.1,281.5H851.7v-.7H182.1v.7Z" class="g1_4882"/>
<path d="M182.1,305.9H851.7v-.7H182.1v.7Z" class="g1_4882"/>
<path d="M182.1,330.4H851.7v-.8H182.1v.8Z" class="g1_4882"/>
<path d="M182.1,354.8H851.7v-.7H182.1v.7Z" class="g1_4882"/>
<path d="M182.1,379.2H851.7v-.7H182.1v.7Z" class="g1_4882"/>
<path d="M182.1,403.7H851.7V403H182.1v.7Z" class="g1_4882"/>
<path d="M182.1,428.2H851.7v-.8H182.1v.8Z" class="g1_4882"/>
<path d="M68.6,452.7H851.7v-.8H68.6v.8Z" class="g1_4882"/>
<path d="M182.1,477H851.7v-.7H182.1v.7Z" class="g1_4882"/>
<path d="M182.1,501.5H851.7v-.7H182.1v.7Z" class="g1_4882"/>
<path d="M182.1,526H851.7v-.8H182.1v.8Z" class="g1_4882"/>
<path d="M182.1,550.4H851.7v-.8H182.1v.8Z" class="g1_4882"/>
<path d="M68.6,574.8H851.7v-.7H68.6v.7Z" class="g1_4882"/>
<path d="M182.1,599.3H851.7v-.7H182.1v.7Z" class="g1_4882"/>
<path d="M182.1,645.2H851.7v-.8H182.1v.8Z" class="g1_4882"/>
<path d="M182.1,691H851.7v-.8H182.1v.8Z" class="g1_4882"/>
<path d="M68.6,715.4H851.7v-.8H68.6v.8Z" class="g1_4882"/>
<path d="M68.6,739.8H851.7v-.7H68.6v.7Z" class="g1_4882"/>
<path d="M68.6,764.3H851.7v-.7H68.6v.7Z" class="g1_4882"/>
<path d="M182.1,805.6H851.7v-.8H182.1v.8Z" class="g1_4882"/>
<path d="M182.1,830H851.7v-.8H182.1v.8Z" class="g1_4882"/>
<path d="M182.1,892.7H851.7v-.8H182.1v.8Z" class="g1_4882"/>
<path d="M182.1,972H851.7v-.7H182.1v.7Z" class="g1_4882"/>
<path d="M68.6,1068.3H851.7v-.8H68.6v.8Z" class="g1_4882"/>
</svg>