<?xml version="1.0" encoding="UTF-8" standalone="no"?>
<!DOCTYPE svg PUBLIC "-//W3C//DTD SVG 1.1//EN"
"http://www.w3.org/Graphics/SVG/1.1/DTD/svg11.dtd">
<svg viewBox="0 0 935 1210" version="1.1" xmlns="http://www.w3.org/2000/svg" xmlns:xlink="http://www.w3.org/1999/xlink">
<defs>
<style type="text/css"><![CDATA[
.g0_1260{
fill: #FFF;
}
.g1_1260{
fill: #000;
}
]]></style>
</defs>
<path d="M165,1149.3H852.5v-21.2H165v21.2Z" class="g0_1260"/>
<path d="M68.8,1149.3h82.5v-21.2H68.8v21.2Z" class="g0_1260"/>
<path d="M68.6,1092h.7V134.8h-.7V1092Z" class="g1_1260"/>
<path d="M216.5,1092.8h.7V134.1h-.7v958.7Z" class="g1_1260"/>
<path d="M384.4,1092.8h.7V134.1h-.7v958.7Z" class="g1_1260"/>
<path d="M422.2,1092.8h.7V134.1h-.7v958.7Z" class="g1_1260"/>
<path d="M495.6,1092.8h.8V134.1h-.8v958.7Z" class="g1_1260"/>
<path d="M567.1,1092.8h.7V134.1h-.7v958.7Z" class="g1_1260"/>
<path d="M845.4,1092h.7V134.8h-.7V1092Z" class="g1_1260"/>
<path d="M68.6,134.8H846.1v-.7H68.6v.7Z" class="g1_1260"/>
<path d="M68.6,173H846.1v-.8H68.6v.8Z" class="g1_1260"/>
<path d="M68.6,195.9H846.1v-.7H68.6v.7Z" class="g1_1260"/>
<path d="M68.6,218.8H846.1v-.7H68.6v.7Z" class="g1_1260"/>
<path d="M68.6,241.7H846.1V241H68.6v.7Z" class="g1_1260"/>
<path d="M68.6,264.6H846.1v-.7H68.6v.7Z" class="g1_1260"/>
<path d="M68.6,287.6H846.1v-.8H68.6v.8Z" class="g1_1260"/>
<path d="M68.6,310.5H846.1v-.8H68.6v.8Z" class="g1_1260"/>
<path d="M68.6,333.4H846.1v-.7H68.6v.7Z" class="g1_1260"/>
<path d="M68.6,356.3H846.1v-.7H68.6v.7Z" class="g1_1260"/>
<path d="M68.6,379.2H846.1v-.7H68.6v.7Z" class="g1_1260"/>
<path d="M68.6,402.2H846.1v-.7H68.6v.7Z" class="g1_1260"/>
<path d="M68.6,441.9H846.1v-.7H68.6v.7Z" class="g1_1260"/>
<path d="M68.6,464.8H846.1v-.7H68.6v.7Z" class="g1_1260"/>
<path d="M68.6,504.5H846.1v-.7H68.6v.7Z" class="g1_1260"/>
<path d="M68.6,527.4H846.1v-.7H68.6v.7Z" class="g1_1260"/>
<path d="M68.6,567.2H846.1v-.7H68.6v.7Z" class="g1_1260"/>
<path d="M68.6,590.2H846.1v-.8H68.6v.8Z" class="g1_1260"/>
<path d="M68.6,613.1H846.1v-.8H68.6v.8Z" class="g1_1260"/>
<path d="M68.6,636H846.1v-.8H68.6v.8Z" class="g1_1260"/>
<path d="M68.6,658.9H846.1v-.7H68.6v.7Z" class="g1_1260"/>
<path d="M68.6,681.8H846.1v-.7H68.6v.7Z" class="g1_1260"/>
<path d="M68.6,704.7H846.1V704H68.6v.7Z" class="g1_1260"/>
<path d="M68.6,727.7H846.1v-.8H68.6v.8Z" class="g1_1260"/>
<path d="M68.6,750.6H846.1v-.8H68.6v.8Z" class="g1_1260"/>
<path d="M68.6,773.5H846.1v-.7H68.6v.7Z" class="g1_1260"/>
<path d="M68.6,813.2H846.1v-.8H68.6v.8Z" class="g1_1260"/>
<path d="M68.6,852.9H846.1v-.8H68.6v.8Z" class="g1_1260"/>
<path d="M68.6,875.8H846.1v-.7H68.6v.7Z" class="g1_1260"/>
<path d="M68.6,915.6H846.1v-.8H68.6v.8Z" class="g1_1260"/>
<path d="M68.6,938.5H846.1v-.8H68.6v.8Z" class="g1_1260"/>
<path d="M68.6,978.2H846.1v-.8H68.6v.8Z" class="g1_1260"/>
<path d="M68.6,1001.1H846.1v-.7H68.6v.7Z" class="g1_1260"/>
<path d="M68.6,1024H846.1v-.7H68.6v.7Z" class="g1_1260"/>
<path d="M68.6,1046.9H846.1v-.7H68.6v.7Z" class="g1_1260"/>
<path d="M68.6,1069.8H846.1v-.7H68.6v.7Z" class="g1_1260"/>
<path d="M68.6,1092.8H846.1v-.8H68.6v.8Z" class="g1_1260"/>
</svg>