<?xml version="1.0" encoding="UTF-8" standalone="no"?>
<!DOCTYPE svg PUBLIC "-//W3C//DTD SVG 1.1//EN"
"http://www.w3.org/Graphics/SVG/1.1/DTD/svg11.dtd">
<svg viewBox="0 0 935 1210" version="1.1" xmlns="http://www.w3.org/2000/svg" xmlns:xlink="http://www.w3.org/1999/xlink">
<defs>
<clipPath id="c0_2293"><path d="M97.3,59.2V41.4h72.1V59.2Z"/></clipPath>
<style type="text/css"><![CDATA[
.g0_2293{
fill: #000;
}
]]></style>
</defs>
<path d="M96.3,63.3H838.8v-.4H96.3v.4Z" class="g0_2293"/>
<path d="M96.1,1114.5h.2v-.4h-.2v.4Z" class="g0_2293"/>
<path d="M96.3,1114.5H838.9v-.4H96.3v.4Z" class="g0_2293"/>
<image clip-path="url(#c0_2293)" preserveAspectRatio="none" x="97" y="41" width="73" height="18" xlink:href="img/1.jpg"/>
<path d="M563.3,919.1h31.4V918H563.3v1.1Z" class="g0_2293"/>
<path d="M207.7,352.6h.8V279.9h-.8v72.7Z" class="g0_2293"/>
<path d="M464.2,353.3h.7V279.2h-.7v74.1Z" class="g0_2293"/>
<path d="M726.6,352.6h.7V279.9h-.7v72.7Z" class="g0_2293"/>
<path d="M207.7,279.9H727.3v-.7H207.7v.7Z" class="g0_2293"/>
<path d="M207.7,304.4H727.3v-.7H207.7v.7Z" class="g0_2293"/>
<path d="M207.7,328.8H727.3v-.7H207.7v.7Z" class="g0_2293"/>
<path d="M207.7,353.3H727.3v-.7H207.7v.7Z" class="g0_2293"/>
<path d="M95.9,711.6h.7v-68h-.7v68Z" class="g0_2293"/>
<path d="M216,712.3h.7V642.9H216v69.4Z" class="g0_2293"/>
<path d="M293.3,712.3h.8V642.9h-.8v69.4Z" class="g0_2293"/>
<path d="M839.1,711.6h.7v-68h-.7v68Z" class="g0_2293"/>
<path d="M95.9,643.6h744v-.7H95.9v.7Z" class="g0_2293"/>
<path d="M95.9,667.7h744v-3H95.9v3Z" class="g0_2293"/>
<path d="M95.9,689.4h744v-.7H95.9v.7Z" class="g0_2293"/>
<path d="M95.9,712.3h744v-.7H95.9v.7Z" class="g0_2293"/>
</svg>