<?xml version="1.0" encoding="UTF-8" standalone="no"?>
<!DOCTYPE svg PUBLIC "-//W3C//DTD SVG 1.1//EN"
"http://www.w3.org/Graphics/SVG/1.1/DTD/svg11.dtd">
<svg viewBox="0 0 935 1210" version="1.1" xmlns="http://www.w3.org/2000/svg" xmlns:xlink="http://www.w3.org/1999/xlink">
<defs>
<style type="text/css"><![CDATA[
.g0_4683{
fill: #FFF;
}
.g1_4683{
fill: #000;
}
]]></style>
</defs>
<path d="M68.9,1149.3H852.7v-21.2H68.9v21.2Z" class="g0_4683"/>
<path d="M69.9,436.6h.8V124.1h-.8V436.6Z" class="g1_4683"/>
<path d="M126.7,437.3h.7V164.6h-.7V437.3Z" class="g1_4683"/>
<path d="M183.4,437.3h.8V123.4h-.8V437.3Z" class="g1_4683"/>
<path d="M440.8,437.3h.8V123.4h-.8V437.3Z" class="g1_4683"/>
<path d="M534,437.3h.7V123.4H534V437.3Z" class="g1_4683"/>
<path d="M852.6,436.6h.7V124.1h-.7V436.6Z" class="g1_4683"/>
<path d="M69.9,124.1H853.3v-.7H69.9v.7Z" class="g1_4683"/>
<path d="M69.9,165.4H184.2v-.8H69.9v.8Z" class="g1_4683"/>
<path d="M69.9,189.8H853.3v-.7H69.9v.7Z" class="g1_4683"/>
<path d="M69.9,231.1H853.3v-.7H69.9v.7Z" class="g1_4683"/>
<path d="M69.9,272.3H853.3v-.7H69.9v.7Z" class="g1_4683"/>
<path d="M69.9,313.6H853.3v-.7H69.9v.7Z" class="g1_4683"/>
<path d="M69.9,354.8H853.3v-.7H69.9v.7Z" class="g1_4683"/>
<path d="M69.9,396.1H853.3v-.7H69.9v.7Z" class="g1_4683"/>
<path d="M69.9,437.3H853.3v-.7H69.9v.7Z" class="g1_4683"/>
<path d="M69.9,1098.2h.8v-502h-.8v502Z" class="g1_4683"/>
<path d="M126.7,1098.9h.7V636.7h-.7v462.2Z" class="g1_4683"/>
<path d="M183.4,1098.9h.8V595.5h-.8v503.4Z" class="g1_4683"/>
<path d="M441.4,1098.9h.7V595.5h-.7v503.4Z" class="g1_4683"/>
<path d="M534.9,1098.9h.7V595.5h-.7v503.4Z" class="g1_4683"/>
<path d="M851.2,1098.2h.7v-502h-.7v502Z" class="g1_4683"/>
<path d="M69.9,596.2H852v-.7H69.9v.7Z" class="g1_4683"/>
<path d="M69.9,637.4H184.2v-.7H69.9v.7Z" class="g1_4683"/>
<path d="M69.9,661.9H852v-.7H69.9v.7Z" class="g1_4683"/>
<path d="M69.9,707.8H852V707H69.9v.8Z" class="g1_4683"/>
<path d="M69.9,732.2H852v-.7H69.9v.7Z" class="g1_4683"/>
<path d="M69.9,756.6H852v-.7H69.9v.7Z" class="g1_4683"/>
<path d="M69.9,781.1H852v-.7H69.9v.7Z" class="g1_4683"/>
<path d="M69.9,805.6H852v-.8H69.9v.8Z" class="g1_4683"/>
<path d="M69.9,830H852v-.8H69.9v.8Z" class="g1_4683"/>
<path d="M69.9,854.4H852v-.7H69.9v.7Z" class="g1_4683"/>
<path d="M69.9,878.9H852v-.7H69.9v.7Z" class="g1_4683"/>
<path d="M69.9,903.3H852v-.7H69.9v.7Z" class="g1_4683"/>
<path d="M69.9,927.8H852V927H69.9v.8Z" class="g1_4683"/>
<path d="M69.9,952.2H852v-.7H69.9v.7Z" class="g1_4683"/>
<path d="M69.9,976.6H852v-.7H69.9v.7Z" class="g1_4683"/>
<path d="M69.9,1001.1H852v-.7H69.9v.7Z" class="g1_4683"/>
<path d="M69.9,1025.6H852v-.8H69.9v.8Z" class="g1_4683"/>
<path d="M69.9,1050H852v-.8H69.9v.8Z" class="g1_4683"/>
<path d="M69.9,1074.4H852v-.7H69.9v.7Z" class="g1_4683"/>
<path d="M69.9,1098.9H852v-.7H69.9v.7Z" class="g1_4683"/>
</svg>