<?xml version="1.0" encoding="UTF-8" standalone="no"?>
<!DOCTYPE svg PUBLIC "-//W3C//DTD SVG 1.1//EN"
"http://www.w3.org/Graphics/SVG/1.1/DTD/svg11.dtd">
<svg viewBox="0 0 935 1210" version="1.1" xmlns="http://www.w3.org/2000/svg" xmlns:xlink="http://www.w3.org/1999/xlink">
<defs>
<style type="text/css"><![CDATA[
.g0_1505{
fill: #FFF;
}
.g1_1505{
fill: #000;
}
]]></style>
</defs>
<path d="M68.9,1149.3H755.2v-21.2H68.9v21.2Z" class="g0_1505"/>
<path d="M771.3,1149.3H855v-21.2H771.3v21.2Z" class="g0_1505"/>
<path d="M69.9,348h.8V125.7h-.8V348Z" class="g1_1505"/>
<path d="M323.9,348.7h.7V124.9h-.7V348.7Z" class="g1_1505"/>
<path d="M369.4,348.7h.8V124.9h-.8V348.7Z" class="g1_1505"/>
<path d="M443.9,348.7h.8V124.9h-.8V348.7Z" class="g1_1505"/>
<path d="M528.1,348.7h.7V124.9h-.7V348.7Z" class="g1_1505"/>
<path d="M854.6,348h.7V125.7h-.7V348Z" class="g1_1505"/>
<path d="M69.9,125.7H855.3v-.8H69.9v.8Z" class="g1_1505"/>
<path d="M69.9,179.1H855.3v-.7H69.9v.7Z" class="g1_1505"/>
<path d="M69.9,235.7H855.3v-.8H69.9v.8Z" class="g1_1505"/>
<path d="M69.9,292.1H855.3v-.7H69.9v.7Z" class="g1_1505"/>
<path d="M69.9,348.7H855.3V348H69.9v.7Z" class="g1_1505"/>
<path d="M69.9,451.8h.8V403.7h-.8v48.1Z" class="g1_1505"/>
<path d="M144.7,452.7h.8V403h-.8v49.7Z" class="g1_1505"/>
<path d="M235.2,452.7h.8V403h-.8v49.7Z" class="g1_1505"/>
<path d="M382,452.7h.7V403H382v49.7Z" class="g1_1505"/>
<path d="M534.1,452.7h.7V403h-.7v49.7Z" class="g1_1505"/>
<path d="M687.5,452.7h.7V403h-.7v49.7Z" class="g1_1505"/>
<path d="M847.9,451.8h.8V403.7h-.8v48.1Z" class="g1_1505"/>
<path d="M69.9,403.7H848.6V403H69.9v.7Z" class="g1_1505"/>
<path d="M69.9,428.2H848.6v-.8H69.9v.8Z" class="g1_1505"/>
<path d="M69.9,452.7H848.6v-.8H69.9v.8Z" class="g1_1505"/>
</svg>