<?xml version="1.0" encoding="UTF-8" standalone="no"?>
<!DOCTYPE svg PUBLIC "-//W3C//DTD SVG 1.1//EN"
"http://www.w3.org/Graphics/SVG/1.1/DTD/svg11.dtd">
<svg viewBox="0 0 935 1210" version="1.1" xmlns="http://www.w3.org/2000/svg" xmlns:xlink="http://www.w3.org/1999/xlink">
<defs>
<clipPath id="c0_1788"><path d="M766.6,59.2V41.4h72.1V59.2Z"/></clipPath>
<style type="text/css"><![CDATA[
.g0_1788{
fill: #000;
}
.g1_1788{
fill: #E5E5E5;
}
]]></style>
</defs>
<path d="M97.3,62.9v.3H839.9v-.3H97.3Z" class="g0_1788"/>
<path d="M96.2,1114.1h-.1v.4h.1v-.4Z" class="g0_1788"/>
<path d="M838.7,1114.1h.2v.4h-.2v-.4Z" class="g0_1788"/>
<path d="M96.2,1114.1v.4H838.7v-.4H96.2Z" class="g0_1788"/>
<image clip-path="url(#c0_1788)" preserveAspectRatio="none" x="767" y="41" width="72" height="18" xlink:href="img/1.jpg"/>
<path d="M702.1,227.6h68.3v61.1H702.1V227.6Z" class="g1_1788"/>
<path d="M770.4,227.6h68.3v61.1H770.4V227.6Z" class="g1_1788"/>
<path d="M270.4,355.9h68.3v55H270.4v-55Z" class="g1_1788"/>
<path d="M338.7,355.9h83v55h-83v-55Z" class="g1_1788"/>
<path d="M421.7,355.9h68.2v55H421.7v-55Z" class="g1_1788"/>
<path d="M489.9,355.9h64.7v55H489.9v-55Z" class="g1_1788"/>
<path d="M270.4,410.9h68.3v36.7H270.4V410.9Z" class="g1_1788"/>
<path d="M421.7,410.9h68.2v36.7H421.7V410.9Z" class="g1_1788"/>
<path d="M489.9,410.9h64.7v36.7H489.9V410.9Z" class="g1_1788"/>
<path d="M554.6,410.9h68.3v36.7H554.6V410.9Z" class="g1_1788"/>
<path d="M622.9,410.9h79.2v36.7H622.9V410.9Z" class="g1_1788"/>
<path d="M270.4,447.6h68.3v36.7H270.4V447.6Z" class="g1_1788"/>
<path d="M421.7,447.6h68.2v36.7H421.7V447.6Z" class="g1_1788"/>
<path d="M489.9,447.6h64.7v36.7H489.9V447.6Z" class="g1_1788"/>
<path d="M554.6,447.6h68.3v36.7H554.6V447.6Z" class="g1_1788"/>
<path d="M622.9,447.6h79.2v36.7H622.9V447.6Z" class="g1_1788"/>
<path d="M270.4,484.3h68.3v18.3H270.4V484.3Z" class="g1_1788"/>
<path d="M338.7,484.3h83v18.3h-83V484.3Z" class="g1_1788"/>
<path d="M421.7,484.3h68.2v18.3H421.7V484.3Z" class="g1_1788"/>
<path d="M489.9,484.3h64.7v18.3H489.9V484.3Z" class="g1_1788"/>
<path d="M554.6,484.3h68.3v18.3H554.6V484.3Z" class="g1_1788"/>
<path d="M622.9,484.3h79.2v18.3H622.9V484.3Z" class="g1_1788"/>
<path d="M702.1,484.3h68.3v18.3H702.1V484.3Z" class="g1_1788"/>
<path d="M770.4,484.3h68.3v18.3H770.4V484.3Z" class="g1_1788"/>
<path d="M270.4,502.6h68.3v36.7H270.4V502.6Z" class="g1_1788"/>
<path d="M338.7,502.6h83v36.7h-83V502.6Z" class="g1_1788"/>
<path d="M421.7,502.6h68.2v36.7H421.7V502.6Z" class="g1_1788"/>
<path d="M489.9,502.6h64.7v36.7H489.9V502.6Z" class="g1_1788"/>
<path d="M554.6,502.6h68.3v36.7H554.6V502.6Z" class="g1_1788"/>
<path d="M622.9,502.6h79.2v36.7H622.9V502.6Z" class="g1_1788"/>
<path d="M702.1,502.6h68.3v36.7H702.1V502.6Z" class="g1_1788"/>
<path d="M270.4,603.4h68.3v73.4H270.4V603.4Z" class="g1_1788"/>
<path d="M338.7,603.4h83v73.4h-83V603.4Z" class="g1_1788"/>
<path d="M489.9,603.4h64.7v73.4H489.9V603.4Z" class="g1_1788"/>
<path d="M622.9,603.4h79.2v73.4H622.9V603.4Z" class="g1_1788"/>
<path d="M770.4,603.4h68.3v73.4H770.4V603.4Z" class="g1_1788"/>
<path d="M270.4,676.8h68.3v18.3H270.4V676.8Z" class="g1_1788"/>
<path d="M338.7,676.8h83v18.3h-83V676.8Z" class="g1_1788"/>
<path d="M421.7,676.8h68.2v18.3H421.7V676.8Z" class="g1_1788"/>
<path d="M489.9,676.8h64.7v18.3H489.9V676.8Z" class="g1_1788"/>
<path d="M554.6,676.8h68.3v18.3H554.6V676.8Z" class="g1_1788"/>
<path d="M622.9,676.8h79.2v18.3H622.9V676.8Z" class="g1_1788"/>
<path d="M702.1,676.8h68.3v18.3H702.1V676.8Z" class="g1_1788"/>
<path d="M770.4,676.8h68.3v18.3H770.4V676.8Z" class="g1_1788"/>
<path d="M270.4,695.1h68.3v36.7H270.4V695.1Z" class="g1_1788"/>
<path d="M338.7,695.1h83v36.7h-83V695.1Z" class="g1_1788"/>
<path d="M489.9,695.1h64.7v36.7H489.9V695.1Z" class="g1_1788"/>
<path d="M622.9,695.1h79.2v36.7H622.9V695.1Z" class="g1_1788"/>
<path d="M770.4,695.1h68.3v36.7H770.4V695.1Z" class="g1_1788"/>
<path d="M270.4,731.8h68.3v36.6H270.4V731.8Z" class="g1_1788"/>
<path d="M338.7,731.8h83v36.6h-83V731.8Z" class="g1_1788"/>
<path d="M489.9,731.8h64.7v36.6H489.9V731.8Z" class="g1_1788"/>
<path d="M622.9,731.8h79.2v36.6H622.9V731.8Z" class="g1_1788"/>
<path d="M770.4,731.8h68.3v36.6H770.4V731.8Z" class="g1_1788"/>
<path d="M270.4,768.4h68.3v18.4H270.4V768.4Z" class="g1_1788"/>
<path d="M338.7,768.4h83v18.4h-83V768.4Z" class="g1_1788"/>
<path d="M421.7,768.4h68.2v18.4H421.7V768.4Z" class="g1_1788"/>
<path d="M489.9,768.4h64.7v18.4H489.9V768.4Z" class="g1_1788"/>
<path d="M554.6,768.4h68.3v18.4H554.6V768.4Z" class="g1_1788"/>
<path d="M622.9,768.4h79.2v18.4H622.9V768.4Z" class="g1_1788"/>
<path d="M702.1,768.4h68.3v18.4H702.1V768.4Z" class="g1_1788"/>
<path d="M770.4,768.4h68.3v18.4H770.4V768.4Z" class="g1_1788"/>
<path d="M270.4,786.8h68.3v18.3H270.4V786.8Z" class="g1_1788"/>
<path d="M338.7,786.8h83v18.3h-83V786.8Z" class="g1_1788"/>
<path d="M489.9,786.8h64.7v18.3H489.9V786.8Z" class="g1_1788"/>
<path d="M554.6,786.8h68.3v18.3H554.6V786.8Z" class="g1_1788"/>
<path d="M622.9,786.8h79.2v18.3H622.9V786.8Z" class="g1_1788"/>
<path d="M770.4,786.8h68.3v18.3H770.4V786.8Z" class="g1_1788"/>
<path d="M270.4,805.1h68.3v18.3H270.4V805.1Z" class="g1_1788"/>
<path d="M338.7,805.1h83v18.3h-83V805.1Z" class="g1_1788"/>
<path d="M489.9,805.1h64.7v18.3H489.9V805.1Z" class="g1_1788"/>
<path d="M554.6,805.1h68.3v18.3H554.6V805.1Z" class="g1_1788"/>
<path d="M622.9,805.1h79.2v18.3H622.9V805.1Z" class="g1_1788"/>
<path d="M770.4,805.1h68.3v18.3H770.4V805.1Z" class="g1_1788"/>
<path d="M270.4,823.4h68.3v18.4H270.4V823.4Z" class="g1_1788"/>
<path d="M338.7,823.4h83v18.4h-83V823.4Z" class="g1_1788"/>
<path d="M554.6,823.4h68.3v18.4H554.6V823.4Z" class="g1_1788"/>
<path d="M622.9,823.4h79.2v18.4H622.9V823.4Z" class="g1_1788"/>
<path d="M270.4,841.8h68.3v18.3H270.4V841.8Z" class="g1_1788"/>
<path d="M338.7,841.8h83v18.3h-83V841.8Z" class="g1_1788"/>
<path d="M554.6,841.8h68.3v18.3H554.6V841.8Z" class="g1_1788"/>
<path d="M622.9,841.8h79.2v18.3H622.9V841.8Z" class="g1_1788"/>
<path d="M270.4,860.1h68.3v18.3H270.4V860.1Z" class="g1_1788"/>
<path d="M338.7,860.1h83v18.3h-83V860.1Z" class="g1_1788"/>
<path d="M421.7,860.1h68.2v18.3H421.7V860.1Z" class="g1_1788"/>
<path d="M489.9,860.1h64.7v18.3H489.9V860.1Z" class="g1_1788"/>
<path d="M554.6,860.1h68.3v18.3H554.6V860.1Z" class="g1_1788"/>
<path d="M622.9,860.1h79.2v18.3H622.9V860.1Z" class="g1_1788"/>
<path d="M702.1,860.1h68.3v18.3H702.1V860.1Z" class="g1_1788"/>
<path d="M770.4,860.1h68.3v18.3H770.4V860.1Z" class="g1_1788"/>
<path d="M270.4,878.4h68.3v18.4H270.4V878.4Z" class="g1_1788"/>
<path d="M338.7,878.4h83v18.4h-83V878.4Z" class="g1_1788"/>
<path d="M421.7,878.4h68.2v18.4H421.7V878.4Z" class="g1_1788"/>
<path d="M489.9,878.4h64.7v18.4H489.9V878.4Z" class="g1_1788"/>
<path d="M554.6,878.4h68.3v18.4H554.6V878.4Z" class="g1_1788"/>
<path d="M622.9,878.4h79.2v18.4H622.9V878.4Z" class="g1_1788"/>
<path d="M702.1,878.4h68.3v18.4H702.1V878.4Z" class="g1_1788"/>
<path d="M770.4,878.4h68.3v18.4H770.4V878.4Z" class="g1_1788"/>
<path d="M97,188.3h-.8v859.3H97V188.3Z" class="g0_1788"/>
<path d="M160.7,187.5H160V897.6h.7V187.5Z" class="g0_1788"/>
<path d="M209.3,187.5h-.8V897.6h.8V187.5Z" class="g0_1788"/>
<path d="M270.8,187.5H270V897.6h.8V187.5Z" class="g0_1788"/>
<path d="M339.1,207.3h-.8V540.1h.8V207.3Z" class="g0_1788"/>
<path d="M339.1,602.7h-.8V897.6h.8V602.7Z" class="g0_1788"/>
<path d="M422,207.3h-.7V540.1h.7V207.3Z" class="g0_1788"/>
<path d="M422,602.7h-.7V897.6h.7V602.7Z" class="g0_1788"/>
<path d="M490.3,207.3h-.7V540.1h.7V207.3Z" class="g0_1788"/>
<path d="M490.3,602.7h-.7V897.6h.7V602.7Z" class="g0_1788"/>
<path d="M554.9,207.3h-.7V540.1h.7V207.3Z" class="g0_1788"/>
<path d="M554.9,602.7h-.7V897.6h.7V602.7Z" class="g0_1788"/>
<path d="M623.2,207.3h-.7V540.1h.7V207.3Z" class="g0_1788"/>
<path d="M623.2,602.7h-.7V897.6h.7V602.7Z" class="g0_1788"/>
<path d="M702.5,207.3h-.7V540.1h.7V207.3Z" class="g0_1788"/>
<path d="M702.5,602.7h-.7V897.6h.7V602.7Z" class="g0_1788"/>
<path d="M770.8,207.3h-.7V540.1h.7V207.3Z" class="g0_1788"/>
<path d="M770.8,602.7h-.7V897.6h.7V602.7Z" class="g0_1788"/>
<path d="M839.1,188.3h-.7v859.3h.7V188.3Z" class="g0_1788"/>
<path d="M96.2,187.5v.8H839.1v-.8H96.2Z" class="g0_1788"/>
<path d="M270,207.3v.8H839.1v-.8H270Z" class="g0_1788"/>
<path d="M96.2,226.9v1.5H839.1v-1.5H96.2Z" class="g0_1788"/>
<path d="M96.2,288v1.6H839.1V288H96.2Z" class="g0_1788"/>
<path d="M96.2,355.2v1.6H839.1v-1.6H96.2Z" class="g0_1788"/>
<path d="M96.2,410.2v1.6H839.1v-1.6H96.2Z" class="g0_1788"/>
<path d="M160,447.2v.8h49.3v-.8H160Z" class="g0_1788"/>
<path d="M270,447.2v.8H702.5v-.8H270Z" class="g0_1788"/>
<path d="M160,483.9v.7h49.3v-.7H160Z" class="g0_1788"/>
<path d="M270,483.9v.7H839.1v-.7H270Z" class="g0_1788"/>
<path d="M160,502.2v.8h49.3v-.8H160Z" class="g0_1788"/>
<path d="M270,502.2v.8H839.1v-.8H270Z" class="g0_1788"/>
<path d="M96.2,538.5v1.6H839.1v-1.6H96.2Z" class="g0_1788"/>
<path d="M96.2,602.7v1.6H839.1v-1.6H96.2Z" class="g0_1788"/>
<path d="M160,639.7v.8h49.3v-.8H160Z" class="g0_1788"/>
<path d="M421.3,639.7v.8h69v-.8h-69Z" class="g0_1788"/>
<path d="M554.2,639.7v.8h69v-.8h-69Z" class="g0_1788"/>
<path d="M701.8,639.7v.8h69v-.8h-69Z" class="g0_1788"/>
<path d="M160,676.4v.7h49.3v-.7H160Z" class="g0_1788"/>
<path d="M270,676.4v.7H839.1v-.7H270Z" class="g0_1788"/>
<path d="M96.2,694.4v1.5H839.1v-1.5H96.2Z" class="g0_1788"/>
<path d="M160,731.4v.7h49.3v-.7H160Z" class="g0_1788"/>
<path d="M270,731.4v.7H839.1v-.7H270Z" class="g0_1788"/>
<path d="M160,768.1v.7h49.3v-.7H160Z" class="g0_1788"/>
<path d="M270,768.1v.7H839.1v-.7H270Z" class="g0_1788"/>
<path d="M96.2,786v1.6H839.1V786H96.2Z" class="g0_1788"/>
<path d="M160,823.1v.7h49.3v-.7H160Z" class="g0_1788"/>
<path d="M270,823.1v.7H839.1v-.7H270Z" class="g0_1788"/>
<path d="M160,859.7v.8h49.3v-.8H160Z" class="g0_1788"/>
<path d="M270,859.7v.8H839.1v-.8H270Z" class="g0_1788"/>
<path d="M96.2,896v1.6H839.1V896H96.2Z" class="g0_1788"/>
<path d="M96.2,1047.7v.8H839.1v-.8H96.2Z" class="g0_1788"/>
</svg>