<?xml version="1.0" encoding="UTF-8" standalone="no"?>
<!DOCTYPE svg PUBLIC "-//W3C//DTD SVG 1.1//EN"
"http://www.w3.org/Graphics/SVG/1.1/DTD/svg11.dtd">
<svg viewBox="0 0 935 1210" version="1.1" xmlns="http://www.w3.org/2000/svg" xmlns:xlink="http://www.w3.org/1999/xlink">
<defs>
<clipPath id="c0_1600"><path d="M766.6,59.2V41.4h72.1V59.2Z"/></clipPath>
<style type="text/css"><![CDATA[
.g0_1600{
fill: #000;
}
]]></style>
</defs>
<path d="M97.3,62.9v.3H839.9v-.3H97.3Z" class="g0_1600"/>
<path d="M96.2,1114.1h-.1v.4h.1v-.4Z" class="g0_1600"/>
<path d="M838.7,1114.1h.2v.4h-.2v-.4Z" class="g0_1600"/>
<path d="M96.2,1114.1v.4H838.7v-.4H96.2Z" class="g0_1600"/>
<image clip-path="url(#c0_1600)" preserveAspectRatio="none" x="767" y="41" width="72" height="18" xlink:href="img/1.jpg"/>
<path d="M96.6,171h-.7V468.6h.7V171Z" class="g0_1600"/>
<path d="M275.7,168H275V469.4h.7V168Z" class="g0_1600"/>
<path d="M315.4,168h-.7V469.4h.7V168Z" class="g0_1600"/>
<path d="M368.9,168h-.7V469.4h.7V168Z" class="g0_1600"/>
<path d="M440.7,168H440V469.4h.7V168Z" class="g0_1600"/>
<path d="M841.2,171h-.7V468.6h.7V171Z" class="g0_1600"/>
<path d="M95.9,168.1v3H841.2v-3H95.9Z" class="g0_1600"/>
<path d="M95.9,210.8v3.1H841.2v-3.1H95.9Z" class="g0_1600"/>
<path d="M275,236.4v.7H841.2v-.7H275Z" class="g0_1600"/>
<path d="M275,276.2v.7H841.2v-.7H275Z" class="g0_1600"/>
<path d="M95.9,300.6v.7H841.2v-.7H95.9Z" class="g0_1600"/>
<path d="M95.9,340.3v.8H841.2v-.8H95.9Z" class="g0_1600"/>
<path d="M275,380v.8H841.2V380H275Z" class="g0_1600"/>
<path d="M95.9,404.5v.7H841.2v-.7H95.9Z" class="g0_1600"/>
<path d="M95.9,428.9v.7H841.2v-.7H95.9Z" class="g0_1600"/>
<path d="M95.9,468.7v.7H841.2v-.7H95.9Z" class="g0_1600"/>
</svg>