<?xml version="1.0" encoding="UTF-8" standalone="no"?>
<!DOCTYPE svg PUBLIC "-//W3C//DTD SVG 1.1//EN"
"http://www.w3.org/Graphics/SVG/1.1/DTD/svg11.dtd">
<svg viewBox="0 0 935 1210" version="1.1" xmlns="http://www.w3.org/2000/svg" xmlns:xlink="http://www.w3.org/1999/xlink">
<defs>
<clipPath id="c0_3214"><path d="M97.3,59.2V41.4h72.1V59.2Z"/></clipPath>
<style type="text/css"><![CDATA[
.g0_3214{
fill: #000;
}
]]></style>
</defs>
<path d="M96.3,63.3H838.8v-.4H96.3v.4Z" class="g0_3214"/>
<path d="M96.1,1114.5h.2v-.4h-.2v.4Z" class="g0_3214"/>
<path d="M96.3,1114.5H838.9v-.4H96.3v.4Z" class="g0_3214"/>
<image clip-path="url(#c0_3214)" preserveAspectRatio="none" x="97" y="41" width="73" height="18" xlink:href="img/1.jpg"/>
<path d="M95.9,578.6h.7V180.2h-.7V578.6Z" class="g0_3214"/>
<path d="M261.8,579.4h.7V177.2h-.7V579.4Z" class="g0_3214"/>
<path d="M310,579.4h.7V177.2H310V579.4Z" class="g0_3214"/>
<path d="M372.9,579.4h.7V177.2h-.7V579.4Z" class="g0_3214"/>
<path d="M454.5,579.4h.7V177.2h-.7V579.4Z" class="g0_3214"/>
<path d="M838.4,578.6h.7V180.2h-.7V578.6Z" class="g0_3214"/>
<path d="M95.9,180.3H839.1v-3H95.9v3Z" class="g0_3214"/>
<path d="M95.9,223H839.1v-3H95.9v3Z" class="g0_3214"/>
<path d="M261.8,246.3H839.1v-.7H261.8v.7Z" class="g0_3214"/>
<path d="M95.9,301.3H839.1v-.7H95.9v.7Z" class="g0_3214"/>
<path d="M95.9,341.1H839.1v-.7H95.9v.7Z" class="g0_3214"/>
<path d="M95.9,380.8H839.1v-.7H95.9v.7Z" class="g0_3214"/>
<path d="M261.8,420.5H839.1v-.8H261.8v.8Z" class="g0_3214"/>
<path d="M95.9,444.9H839.1v-.7H95.9v.7Z" class="g0_3214"/>
<path d="M95.9,484.6H839.1v-.7H95.9v.7Z" class="g0_3214"/>
<path d="M95.9,539.6H839.1v-.7H95.9v.7Z" class="g0_3214"/>
<path d="M95.9,579.4H839.1v-.7H95.9v.7Z" class="g0_3214"/>
</svg>