<?xml version="1.0" encoding="UTF-8" standalone="no"?>
<!DOCTYPE svg PUBLIC "-//W3C//DTD SVG 1.1//EN"
"http://www.w3.org/Graphics/SVG/1.1/DTD/svg11.dtd">
<svg viewBox="0 0 935 1210" version="1.1" xmlns="http://www.w3.org/2000/svg" xmlns:xlink="http://www.w3.org/1999/xlink">
<defs>
<style type="text/css"><![CDATA[
.g0_2021{
fill: #FFF;
}
.g1_2021{
fill: #000;
}
]]></style>
</defs>
<path d="M68.9,1149.3H755.2v-21.2H68.9v21.2Z" class="g0_2021"/>
<path d="M771.3,1149.3H855v-21.2H771.3v21.2Z" class="g0_2021"/>
<path d="M69.9,348h.8V125.7h-.8V348Z" class="g1_2021"/>
<path d="M304.6,179.1h.7V124.9h-.7v54.2Z" class="g1_2021"/>
<path d="M304.6,348.7h.7V178.4h-.7V348.7Z" class="g1_2021"/>
<path d="M347.4,179.1h.7V124.9h-.7v54.2Z" class="g1_2021"/>
<path d="M347.4,348.7h.7V178.4h-.7V348.7Z" class="g1_2021"/>
<path d="M420.7,179.1h.8V124.9h-.8v54.2Z" class="g1_2021"/>
<path d="M420.7,348.7h.8V178.4h-.8V348.7Z" class="g1_2021"/>
<path d="M545.6,348.7h.7V124.9h-.7V348.7Z" class="g1_2021"/>
<path d="M854.1,348h.7V125.7h-.7V348Z" class="g1_2021"/>
<path d="M69.9,125.7H854.8v-.8H69.9v.8Z" class="g1_2021"/>
<path d="M69.9,179.1H546.3v-.7H69.9v.7Z" class="g1_2021"/>
<path d="M545.6,179.1H854.8v-.7H545.6v.7Z" class="g1_2021"/>
<path d="M69.9,235.7H546.3v-.8H69.9v.8Z" class="g1_2021"/>
<path d="M545.6,235.7H854.8v-.8H545.6v.8Z" class="g1_2021"/>
<path d="M69.9,292.1H546.3v-.7H69.9v.7Z" class="g1_2021"/>
<path d="M545.6,292.1H854.8v-.7H545.6v.7Z" class="g1_2021"/>
<path d="M69.9,348.7H545.6V348H69.9v.7Z" class="g1_2021"/>
<path d="M546.3,348.7H854.8V348H546.3v.7Z" class="g1_2021"/>
<path d="M69.9,451.8h.8V403.7h-.8v48.1Z" class="g1_2021"/>
<path d="M135.7,452.7h.7V403h-.7v49.7Z" class="g1_2021"/>
<path d="M228.9,452.7h.7V403h-.7v49.7Z" class="g1_2021"/>
<path d="M375,452.7h.7V403H375v49.7Z" class="g1_2021"/>
<path d="M534.9,452.7h.7V403h-.7v49.7Z" class="g1_2021"/>
<path d="M693.5,452.7h.8V403h-.8v49.7Z" class="g1_2021"/>
<path d="M850.2,451.8h.7V403.7h-.7v48.1Z" class="g1_2021"/>
<path d="M69.9,403.7H851V403H69.9v.7Z" class="g1_2021"/>
<path d="M69.9,428.2H851v-.8H69.9v.8Z" class="g1_2021"/>
<path d="M69.9,452.7H851v-.8H69.9v.8Z" class="g1_2021"/>
</svg>