<?xml version="1.0" encoding="UTF-8" standalone="no"?>
<!DOCTYPE svg PUBLIC "-//W3C//DTD SVG 1.1//EN"
"http://www.w3.org/Graphics/SVG/1.1/DTD/svg11.dtd">
<svg viewBox="0 0 935 1210" version="1.1" xmlns="http://www.w3.org/2000/svg" xmlns:xlink="http://www.w3.org/1999/xlink">
<defs>
<style type="text/css"><![CDATA[
.g0_1000{
fill: #FFF;
}
.g1_1000{
fill: #000;
}
]]></style>
</defs>
<path d="M165,1149.3H852.5v-21.2H165v21.2Z" class="g0_1000"/>
<path d="M68.8,1149.3h82.5v-21.2H68.8v21.2Z" class="g0_1000"/>
<path d="M68.6,329.6h.7V131.8h-.7V329.6Z" class="g1_1000"/>
<path d="M202.9,330.4h.8V131h-.8V330.4Z" class="g1_1000"/>
<path d="M344.5,330.4h.7V131h-.7V330.4Z" class="g1_1000"/>
<path d="M402.4,330.4h.8V131h-.8V330.4Z" class="g1_1000"/>
<path d="M482.5,330.4h.8V131h-.8V330.4Z" class="g1_1000"/>
<path d="M851.8,329.6h.7V131.8h-.7V329.6Z" class="g1_1000"/>
<path d="M68.6,131.7H852.5V131H68.6v.7Z" class="g1_1000"/>
<path d="M68.6,169.9H852.5v-.7H68.6v.7Z" class="g1_1000"/>
<path d="M68.6,192.9H852.5v-.8H68.6v.8Z" class="g1_1000"/>
<path d="M68.6,215.8H852.5v-.7H68.6v.7Z" class="g1_1000"/>
<path d="M68.6,238.7H852.5V238H68.6v.7Z" class="g1_1000"/>
<path d="M68.6,261.6H852.5v-.7H68.6v.7Z" class="g1_1000"/>
<path d="M68.6,284.5H852.5v-.7H68.6v.7Z" class="g1_1000"/>
<path d="M68.6,307.4H852.5v-.7H68.6v.7Z" class="g1_1000"/>
<path d="M68.6,330.4H852.5v-.8H68.6v.8Z" class="g1_1000"/>
</svg>