<?xml version="1.0" encoding="UTF-8" standalone="no"?>
<!DOCTYPE svg PUBLIC "-//W3C//DTD SVG 1.1//EN"
"http://www.w3.org/Graphics/SVG/1.1/DTD/svg11.dtd">
<svg viewBox="0 0 935 1210" version="1.1" xmlns="http://www.w3.org/2000/svg" xmlns:xlink="http://www.w3.org/1999/xlink">
<defs>
<style type="text/css"><![CDATA[
.g0_1421{
fill: #FFF;
}
.g1_1421{
fill: #000;
}
]]></style>
</defs>
<path d="M68.9,1149.3H755.2v-21.2H68.9v21.2Z" class="g0_1421"/>
<path d="M771.3,1149.3H855v-21.2H771.3v21.2Z" class="g0_1421"/>
<path d="M69.9,186h.8V125.7h-.8V186Z" class="g1_1421"/>
<path d="M198.4,186.8h.7V124.9h-.7v61.9Z" class="g1_1421"/>
<path d="M344.1,186.8h.8V124.9h-.8v61.9Z" class="g1_1421"/>
<path d="M382,186.8h.7V124.9H382v61.9Z" class="g1_1421"/>
<path d="M455.3,186.8h.7V124.9h-.7v61.9Z" class="g1_1421"/>
<path d="M526.7,186.8h.7V124.9h-.7v61.9Z" class="g1_1421"/>
<path d="M852,186h.8V125.7H852V186Z" class="g1_1421"/>
<path d="M69.9,125.7H852.8v-.8H69.9v.8Z" class="g1_1421"/>
<path d="M69.9,163.8H852.8v-.7H69.9v.7Z" class="g1_1421"/>
<path d="M69.9,186.7H852.8V186H69.9v.7Z" class="g1_1421"/>
<path d="M69.9,289.9h.8V241.8h-.8v48.1Z" class="g1_1421"/>
<path d="M135.6,290.7h.7V241h-.7v49.7Z" class="g1_1421"/>
<path d="M315.7,290.7h.7V241h-.7v49.7Z" class="g1_1421"/>
<path d="M494.4,290.7h.7V241h-.7v49.7Z" class="g1_1421"/>
<path d="M671.2,290.7h.7V241h-.7v49.7Z" class="g1_1421"/>
<path d="M853.3,289.9h.8V241.8h-.8v48.1Z" class="g1_1421"/>
<path d="M69.9,241.7H854.1V241H69.9v.7Z" class="g1_1421"/>
<path d="M69.9,266.2H854.1v-.7H69.9v.7Z" class="g1_1421"/>
<path d="M69.9,290.7H854.1v-.8H69.9v.8Z" class="g1_1421"/>
</svg>