<?xml version="1.0" encoding="UTF-8" standalone="no"?>
<!DOCTYPE svg PUBLIC "-//W3C//DTD SVG 1.1//EN"
"http://www.w3.org/Graphics/SVG/1.1/DTD/svg11.dtd">
<svg viewBox="0 0 935 1210" version="1.1" xmlns="http://www.w3.org/2000/svg" xmlns:xlink="http://www.w3.org/1999/xlink">
<defs>
<style type="text/css"><![CDATA[
.g0_3258{
fill: #FFF;
}
.g1_3258{
fill: #000;
}
]]></style>
</defs>
<path d="M68.8,1149.3H852.5v-21.2H68.8v21.2Z" class="g0_3258"/>
<path d="M170.5,418.6h.7V113.5h-.7V418.6Z" class="g1_3258"/>
<path d="M749.8,418.6h.8V113.5h-.8V418.6Z" class="g1_3258"/>
<path d="M170.5,113.4H750.7v-.7H170.5v.7Z" class="g1_3258"/>
<path d="M170.5,419.3H750.7v-.8H170.5v.8Z" class="g1_3258"/>
<path d="M312.9,272.5h82.5V163.1H312.9V272.5Z" class="g0_3258"/>
<path d="M312.9,163.4h82.8v-.7H312.9v.7Z" class="g1_3258"/>
<path d="M395,272.9h.7V163.1H395V272.9Z" class="g1_3258"/>
<path d="M312.5,272.9h82.9v-.7H312.5v.7Z" class="g1_3258"/>
<path d="M312.5,272.5h.7V162.7h-.7V272.5Z" class="g1_3258"/>
<path d="M506.2,186.3h82.5V135.6H506.2v50.7Z" class="g0_3258"/>
<path d="M506.2,135.9h82.9v-.7H506.2v.7Z" class="g1_3258"/>
<path d="M588.3,186.6h.8v-51h-.8v51Z" class="g1_3258"/>
<path d="M505.8,186.6h82.9v-.7H505.8v.7Z" class="g1_3258"/>
<path d="M505.8,186.3h.8V135.2h-.8v51.1Z" class="g1_3258"/>
<path d="M533.7,221h82.5V169.7H533.7V221Z" class="g0_3258"/>
<path d="M533.7,170h82.9v-.7H533.7v.7Z" class="g1_3258"/>
<path d="M615.8,221.4h.8V169.7h-.8v51.7Z" class="g1_3258"/>
<path d="M533.3,221.4h82.9v-.8H533.3v.8Z" class="g1_3258"/>
<path d="M533.3,221h.8V169.3h-.8V221Z" class="g1_3258"/>
<path d="M561.2,260.2h82.5V208.1H561.2v52.1Z" class="g0_3258"/>
<path d="M561.2,208.5h82.9v-.8H561.2v.8Z" class="g1_3258"/>
<path d="M643.3,260.6h.7V208.1h-.7v52.5Z" class="g1_3258"/>
<path d="M560.8,260.6h82.9v-.7H560.8v.7Z" class="g1_3258"/>
<path d="M560.8,260.2h.8V207.7h-.8v52.5Z" class="g1_3258"/>
<path d="M506.2,329.5h82.5V279.6H506.2v49.9Z" class="g0_3258"/>
<path d="M506.2,279.9h82.9v-.7H506.2v.7Z" class="g1_3258"/>
<path d="M588.3,329.8h.8V279.6h-.8v50.2Z" class="g1_3258"/>
<path d="M505.8,329.8h82.9v-.7H505.8v.7Z" class="g1_3258"/>
<path d="M505.8,329.5h.8V279.2h-.8v50.3Z" class="g1_3258"/>
<path d="M533.7,368.3h82.5V317H533.7v51.3Z" class="g0_3258"/>
<path d="M533.7,317.3h82.9v-.7H533.7v.7Z" class="g1_3258"/>
<path d="M615.8,368.7h.8V317h-.8v51.7Z" class="g1_3258"/>
<path d="M533.3,368.7h82.9V368H533.3v.7Z" class="g1_3258"/>
<path d="M533.3,368.3h.8V316.6h-.8v51.7Z" class="g1_3258"/>
<path d="M561.2,408.9h82.5V356.8H561.2v52.1Z" class="g0_3258"/>
<path d="M561.2,357.1h82.9v-.7H561.2v.7Z" class="g1_3258"/>
<path d="M643.3,409.3h.7V356.8h-.7v52.5Z" class="g1_3258"/>
<path d="M560.8,409.3h82.9v-.7H560.8v.7Z" class="g1_3258"/>
<path d="M560.8,408.9h.8V356.4h-.8v52.5Z" class="g1_3258"/>
<path d="M521.5,197.2h2.2v-.5h-2.2v.5Z" class="g1_3258"/>
<path d="M523,197.3l-1.3,-2.4l-1,-1.7l1.9,.6l8.1,2.4l2.5,.7l-2.5,.7l-8.1,2.4l-1.8,.6l.9,-1.7l.4,-.3l8.2,-2.4l.4,1.4h-.4l-8.2,-2.4l.5,-1.4l.4,.4l1.4,2.3Z" class="g1_3258"/>
<path d="M521.7,198.9l1.3,-2.4h1.4l.2,.4l-.2,.4l-1.4,2.3Z" class="g1_3258"/>
<path fill-rule="evenodd" d="M523.7,196.9l-1.4,-2.4l8.2,2.4l-8.2,2.4Z" class="g1_3258"/>
<path d="M395.5,183h83v-.5h-83v.5Z" class="g1_3258"/>
<path d="M478,197.2h.5V182.7H478v14.5Z" class="g1_3258"/>
<path d="M478.2,197.2h43.5v-.5H478.2v.5Z" class="g1_3258"/>
<path d="M549,235.9h2.2v-.5H549v.5Z" class="g1_3258"/>
<path d="M550.5,236l-1.3,-2.4l-1,-1.7l1.9,.6l8.1,2.4l2.5,.7l-2.5,.7l-8.1,2.4l-1.8,.5l.9,-1.6l.4,-.4l8.2,-2.3l.4,1.4h-.4l-8.2,-2.4l.5,-1.4l.4,.3l1.4,2.4Z" class="g1_3258"/>
<path d="M549.2,237.6l1.3,-2.4h1.4l.2,.4l-.2,.4l-1.4,2.3Z" class="g1_3258"/>
<path fill-rule="evenodd" d="M551.2,235.6l-1.4,-2.4l8.2,2.4l-8.2,2.4Z" class="g1_3258"/>
<path d="M395.5,191.2h69.2v-.4H395.5v.4Z" class="g1_3258"/>
<path d="M464.3,235.9h.5v-45h-.5v45Z" class="g1_3258"/>
<path d="M464.5,235.9h84.7v-.5H464.5v.5Z" class="g1_3258"/>
<path d="M494,305.9h2.1v-.5H494v.5Z" class="g1_3258"/>
<path d="M495.5,306l-1.3,-2.4l-1,-1.6l1.9,.5l8.1,2.4l2.5,.7l-2.5,.8l-8.1,2.3l-1.8,.6l.9,-1.7l.4,-.3l8.2,-2.4l.4,1.5h-.4L494.6,304l.5,-1.5l.4,.4l1.3,2.4Z" class="g1_3258"/>
<path d="M494.2,307.6l1.3,-2.4h1.3l.2,.4l-.2,.4l-1.3,2.4Z" class="g1_3258"/>
<path fill-rule="evenodd" d="M496.1,305.6l-1.3,-2.4l8.2,2.4l-8.2,2.4Z" class="g1_3258"/>
<path d="M395.5,245.3H451v-.5H395.5v.5Z" class="g1_3258"/>
<path d="M450.5,305.9h.5V245h-.5v60.9Z" class="g1_3258"/>
<path d="M450.7,305.9h43.5v-.5H450.7v.5Z" class="g1_3258"/>
<path d="M521.5,343.6h2.2v-.5h-2.2v.5Z" class="g1_3258"/>
<path d="M523,343.7l-1.3,-2.4l-1,-1.7l1.9,.6l8.1,2.4l2.5,.7l-2.5,.7l-8.1,2.4l-1.8,.6l.9,-1.7l.4,-.4l8.2,-2.3l.4,1.4h-.4l-8.2,-2.4l.5,-1.4l.4,.3l1.4,2.4Z" class="g1_3258"/>
<path d="M521.7,345.3l1.3,-2.4h1.4l.2,.4l-.2,.4L523,346Z" class="g1_3258"/>
<path fill-rule="evenodd" d="M523.7,343.3l-1.4,-2.4l8.2,2.4l-8.2,2.4Z" class="g1_3258"/>
<path d="M395.5,254.5h41.7V254H395.5v.5Z" class="g1_3258"/>
<path d="M436.8,343.6h.5V254.2h-.5v89.4Z" class="g1_3258"/>
<path d="M437,343.6h84.7v-.5H437v.5Z" class="g1_3258"/>
<path d="M549,383.3h2.2v-.4H549v.4Z" class="g1_3258"/>
<path d="M550.5,383.5l-1.3,-2.3l-1,-1.7l1.9,.5l8.1,2.3l2.5,.8l-2.5,.7l-8.1,2.4l-1.8,.5l.9,-1.6l.4,-.4l8.2,-2.4l.4,1.5h-.4l-8.2,-2.3l.5,-1.5l.4,.4l1.4,2.3Z" class="g1_3258"/>
<path d="M549.2,385.1l1.3,-2.4h1.4l.2,.4l-.2,.3l-1.4,2.4Z" class="g1_3258"/>
<path fill-rule="evenodd" d="M551.2,383.1l-1.4,-2.3l8.2,2.3l-8.2,2.4Z" class="g1_3258"/>
<path d="M395.5,264.5h28v-.4h-28v.4Z" class="g1_3258"/>
<path d="M423,383.3h.5v-119H423v119Z" class="g1_3258"/>
<path d="M423.2,383.3h126v-.4h-126v.4Z" class="g1_3258"/>
<path d="M494,161.6h2.1v-.5H494v.5Z" class="g1_3258"/>
<path d="M495.5,161.7l-1.3,-2.4l-1,-1.6l1.9,.5l8.1,2.4l2.5,.7l-2.5,.8l-8.1,2.4l-1.8,.5l.9,-1.6l.4,-.4l8.2,-2.4l.4,1.5h-.4l-8.2,-2.4l.5,-1.5l.4,.4l1.3,2.4Z" class="g1_3258"/>
<path d="M494.2,163.3l1.3,-2.3h1.3l.2,.3l-.2,.4l-1.3,2.4Z" class="g1_3258"/>
<path fill-rule="evenodd" d="M496.1,161.3l-1.3,-2.4l8.2,2.4l-8.2,2.4Z" class="g1_3258"/>
<path d="M395.5,173.8h83v-.5h-83v.5Z" class="g1_3258"/>
<path d="M478,173.5h.5V161.2H478v12.3Z" class="g1_3258"/>
<path d="M478.2,161.6h16v-.5h-16v.5Z" class="g1_3258"/>
<path d="M313.7,342.2h82.8v-.7H313.7v.7Z" class="g1_3258"/>
<path d="M395.8,355.9h.7V341.8h-.7v14.1Z" class="g1_3258"/>
<path d="M313.3,355.9h82.9v-.7H313.3v.7Z" class="g1_3258"/>
<path d="M313.3,355.6h.7V341.5h-.7v14.1Z" class="g1_3258"/>
<path d="M300.5,272.8h2.1v-.5h-2.1v.5Z" class="g1_3258"/>
<path d="M302,272.9l-1.4,-2.4l-1,-1.6l1.9,.5l8.2,2.4l2.7,.7l-2.7,.8l-8.2,2.2l-1.9,.6l1,-1.6l.4,-.4l8.3,-2.3l.4,1.5h-.4L301,270.9l.5,-1.5l.5,.4l1.3,2.4Z" class="g1_3258"/>
<path d="M300.6,274.5l1.4,-2.3h1.3l.3,.4l-.3,.4l-1.3,2.3Z" class="g1_3258"/>
<path fill-rule="evenodd" d="M302.6,272.5l-1.4,-2.4l8.3,2.4l-8.3,2.3Z" class="g1_3258"/>
<path d="M285.5,348.9h28.7v-.5H285.5v.5Z" class="g1_3258"/>
<path d="M285.5,348.6h.5V272.3h-.5v76.3Z" class="g1_3258"/>
<path d="M285.7,272.8h15v-.5h-15v.5Z" class="g1_3258"/>
<path d="M313.7,378.9h82.8v-.8H313.7v.8Z" class="g1_3258"/>
<path d="M395.8,392.6h.7V378.5h-.7v14.1Z" class="g1_3258"/>
<path d="M313.3,392.6h82.9v-.7H313.3v.7Z" class="g1_3258"/>
<path d="M313.3,392.2h.7V378.1h-.7v14.1Z" class="g1_3258"/>
</svg>