<?xml version="1.0" encoding="UTF-8" standalone="no"?>
<!DOCTYPE svg PUBLIC "-//W3C//DTD SVG 1.1//EN"
"http://www.w3.org/Graphics/SVG/1.1/DTD/svg11.dtd">
<svg viewBox="0 0 935 1210" version="1.1" xmlns="http://www.w3.org/2000/svg" xmlns:xlink="http://www.w3.org/1999/xlink">
<defs>
<clipPath id="c0_491"><path d="M766.6,59.2V41.4h72.1V59.2Z"/></clipPath>
<style type="text/css"><![CDATA[
.g0_491{
fill: #000;
}
]]></style>
</defs>
<path d="M97.3,62.9v.3H839.9v-.3H97.3Z" class="g0_491"/>
<path d="M96.2,1114.1h-.1v.3h.1v-.3Z" class="g0_491"/>
<path d="M838.7,1114.1h.2v.3h-.2v-.3Z" class="g0_491"/>
<path d="M96.2,1114.1v.3H838.7v-.3H96.2Z" class="g0_491"/>
<image clip-path="url(#c0_491)" preserveAspectRatio="none" x="767" y="41" width="72" height="18" xlink:href="img/1.jpg"/>
<path d="M199.6,284.5h-.8v152h.8v-152Z" class="g0_491"/>
<path d="M305.6,283.8h-.7V412.9h.7V283.8Z" class="g0_491"/>
<path d="M514.8,283.8H514V412.9h.8V283.8Z" class="g0_491"/>
<path d="M736.1,284.5h-.7v152h.7v-152Z" class="g0_491"/>
<path d="M198.8,283.8v.7H736.1v-.7H198.8Z" class="g0_491"/>
<path d="M198.8,326.6v.7H736.1v-.7H198.8Z" class="g0_491"/>
<path d="M198.8,369.3v.7H736.1v-.7H198.8Z" class="g0_491"/>
<path d="M198.8,412.1v.7H736.1v-.7H198.8Z" class="g0_491"/>
<path d="M198.8,436.6v.7H736.1v-.7H198.8Z" class="g0_491"/>
</svg>