<?xml version="1.0" encoding="UTF-8" standalone="no"?>
<!DOCTYPE svg PUBLIC "-//W3C//DTD SVG 1.1//EN"
"http://www.w3.org/Graphics/SVG/1.1/DTD/svg11.dtd">
<svg viewBox="0 0 935 1210" version="1.1" xmlns="http://www.w3.org/2000/svg" xmlns:xlink="http://www.w3.org/1999/xlink">
<defs>
<clipPath id="c0_194"><path d="M503.6,693.6V436.9H861.1V693.6Z"/></clipPath>
<style type="text/css"><![CDATA[
.g0_194{
fill: #FFF;
}
.g1_194{
fill: none;
stroke: #FFFFFE;
stroke-width: 0.687;
stroke-miterlimit: 10;
}
.g2_194{
fill: none;
stroke: #006400;
stroke-width: 2.75;
stroke-linejoin: bevel;
}
.g3_194{
fill: none;
stroke: #4B0082;
stroke-width: 2.75;
stroke-linejoin: bevel;
}
.g4_194{
fill: #006400;
}
.g5_194{
fill: none;
stroke: #006400;
stroke-width: 2.75;
stroke-miterlimit: 10;
}
.g6_194{
fill: none;
stroke: #F00;
stroke-width: 2.75;
stroke-linejoin: bevel;
}
.g7_194{
fill: #F00;
}
.g8_194{
fill: none;
stroke: #F00;
stroke-width: 2.75;
stroke-miterlimit: 10;
}
.g9_194{
fill: #4B0082;
}
.ga_194{
fill: none;
stroke: #4B0082;
stroke-width: 2.75;
stroke-miterlimit: 10;
}
.gb_194{
fill: none;
stroke: #FFA040;
stroke-width: 2.75;
stroke-linejoin: bevel;
}
.gc_194{
fill: #FFA040;
}
.gd_194{
fill: none;
stroke: #FFA040;
stroke-width: 2.75;
stroke-miterlimit: 10;
}
.ge_194{
fill: none;
stroke: #000;
stroke-width: 0.608;
stroke-miterlimit: 10;
}
]]></style>
</defs>
<path d="M171.9,377.8V315.7m0,103.5V377.8M145.4,513.5h309M294.1,532.1V513.8m3.6,18.3V513.8m-3.6,36.5V532.1m3.6,18.2V532.1m-3.6,36.5V550.3m3.6,18.3V550.3m-3.6,36.6V568.6m3.6,18.3V568.6m-3.6,36.5V586.9m3.6,18.2V586.9m-3.6,36.5V605.1m3.6,18.3V605.1M145.4,623.7h309" class="ge_194"/>
<g clip-path="url(#c0_194)">
<path fill-rule="evenodd" d="M505,692.5H858.8V438.6H505V692.5Z" class="g0_194"/>
<path d="M505,692.5H858.8V438.6H505V692.5Z" class="g1_194"/>
<path d="M578.3,544.2v30.5" class="g2_194"/>
<path d="M582,544.2v30.5" class="g3_194"/>
<path fill-rule="evenodd" d="M584.5,574.7l-4.3,12.2l-4.3,-12.2Z" class="g4_194"/>
<path d="M584.5,574.7l-4.3,12.2l-4.3,-12.2Z" class="g5_194"/>
<path d="M601.4,586.8l.2,-.2l.7,-.4l1,-.9l1.4,-1.1l1.8,-1.2l1.8,-1.4l1.9,-1.5l1.9,-1.4l1.7,-1.2l1.7,-1.3l1.4,-1.1l1.4,-1l1.4,-1l1.2,-1l1.3,-.9l1.2,-.9l1.1,-.8l1.1,-.9l1.3,-.9l1.3,-1.1l1.3,-1l1.4,-1l1.4,-1.1l1.4,-1l1.5,-1.1l1.4,-1.1l1.4,-1l1.4,-1.1l1.4,-1l1.3,-1l1.3,-1l1.3,-.9l1.3,-1l1.3,-1l1.4,-1l1.2,-1l1.5,-1.1l1.4,-1.1l1.4,-1.1l1.6,-1.1l1.6,-1.2l1.5,-1.2l1.6,-1.1l1.5,-1.1l1.6,-1.2l1.5,-1.1l1.4,-1.1l1.5,-1.1l1.4,-1l1.3,-1.1l1.4,-1.1l1.4,-1l1.4,-1l1.3,-1.1l1.5,-1l1.5,-1.2l1.5,-1.1l1.6,-1.2l1.6,-1.2l1.6,-1.1l1.6,-1.2l1.5,-1.2l1.6,-1.1l1.5,-1.2l1.5,-1.1l1.5,-1.1l1.3,-1l1.4,-1l1.4,-1l1.3,-1.1l1.4,-1l1.3,-1l1.4,-1.1l1.5,-1.1l1.4,-1.1l1.5,-1.1l1.6,-1.1l1.4,-1.2l1.6,-1.1l1.5,-1.1l1.4,-1.1l1.5,-1.1l1.4,-1l1.2,-1l1.3,-1l1.3,-.9l1.2,-.9l1.4,-1l1.4,-1l1.4,-1.1l1.6,-1.2l1.5,-1.2l1.9,-1.3l1.9,-1.5l2,-1.5l2.1,-1.7l2.1,-1.5l2,-1.4l1.6,-1.2l1.1,-.9l.6,-.5l.4,-.3" class="g6_194"/>
<path fill-rule="evenodd" d="M744.8,473.9l12.4,-4l-7.3,10.8Z" class="g7_194"/>
<path d="M744.8,473.9l12.4,-4l-7.3,10.8Z" class="g8_194"/>
<path d="M778.2,469.9v30.6" class="g3_194"/>
<path fill-rule="evenodd" d="M782.5,500.5l-4.3,12.2l-4.3,-12.2Z" class="g9_194"/>
<path d="M782.5,500.5l-4.3,12.2l-4.3,-12.2Z" class="ga_194"/>
<path d="M797.6,470.1l.1,.1l.4,.4l.8,.8l.9,.9l.9,.8l.8,.8l.7,.7l.5,.6l.6,.6l.6,.6l.7,.8l.7,.7l.7,.7l.6,.8l.6,.7l.7,.7l.5,.6l.6,.7l.6,.8l.7,.8l.6,.8l.6,.8l.7,.8l.5,.7l.5,.7l.6,.8l.6,.8l.6,.8l.6,.9l.6,.9l.5,.7l.5,.8l.5,.8l.5,.8l.5,.8l.5,.9l.6,.9l.5,1l.4,.8l.5,.8l.3,.7l.4,1l.5,.8l.4,1l.4,.9l.4,1l.4,.8l.3,1l.4,.9l.3,.9l.4,1l.4,1l.2,1.1l.4,1l.3,.9l.2,.9l.3,.9l.3,.9l.2,.9l.3,1l.1,.9l.2,.9l.2,.8l.2,.8l.1,.7l.1,.9l.2,.8v1.7l.1,.9v2.9l-.1,.8v1.8l-.2,.8l-.1,.8l-.1,.7l-.2,.9l-.2,.8l-.2,.8l-.1,.9l-.3,1l-.2,1l-.3,.9l-.3,.8l-.2,.9l-.3,.9l-.3,1l-.3,1l-.4,1.1l-.3,.9l-.4,.9l-.2,.8l-.3,.7l-.3,.8l-.3,.7l-.3,.7l-.3,.8l-.4,.6l-.2,.7l-.3,.6l-.4,.7l-.3,.9l-.5,.9l-.5,.8l-.4,.8l-.5,.9l-.4,.7l-.5,.8l-.5,.8l-.5,.9l-.6,.8l-.4,.7l-.6,.8l-.4,.7l-.7,.8l-.5,.8l-.6,.9l-.4,.7l-.6,.6l-.5,.8l-.7,.8l-.6,.7l-.6,.8l-.5,.7l-.6,.6l-.7,.8l-.8,.9l-.8,1l-.7,.7l-.1,.1" class="g3_194"/>
<path fill-rule="evenodd" d="M809.3,581l-11.7,5.7l5.5,-11.6Z" class="g9_194"/>
<path d="M809.3,581l-11.7,5.7l5.5,-11.6Z" class="ga_194"/>
<path d="M778.2,544.2v30.5" class="g6_194"/>
<path fill-rule="evenodd" d="M782.5,574.7l-4.3,12.2l-4.3,-12.2Z" class="g7_194"/>
<path d="M782.5,574.7l-4.3,12.2l-4.3,-12.2Z" class="g8_194"/>
<path d="M778.2,618.4V649" class="g3_194"/>
<path fill-rule="evenodd" d="M782.5,649l-4.3,12.2L773.9,649Z" class="g9_194"/>
<path d="M782.5,649l-4.3,12.2L773.9,649Z" class="ga_194"/>
<path d="M757,661.1l-.3,-.2l-.6,-.5l-1,-.8l-1.5,-1.1l-1.7,-1.3L750,655.8l-1.9,-1.4L746.3,653l-1.8,-1.3l-1.6,-1.3l-1.5,-1.1l-1.4,-1l-1.3,-1l-1.2,-.9l-1.3,-.9l-1.2,-.9l-1.1,-.9l-1.2,-.9l-1.3,-.9l-1.3,-1l-1.2,-1l-1.4,-1L726,637.8l-1.4,-1l-1.4,-1.1l-1.4,-1.1l-1.5,-1L719,632.5l-1.4,-1l-1.4,-1.1l-1.3,-1l-1.3,-.9l-1.2,-1l-1.3,-1l-1.4,-.9l-1.3,-1L707,623.5l-1.4,-1.1l-1.5,-1.1l-1.5,-1.1L701,619l-1.6,-1.2l-1.5,-1.1l-1.6,-1.2l-1.5,-1.2l-1.5,-1.1l-1.5,-1.1L690.4,611L689,610l-1.4,-1.1l-1.4,-1l-1.3,-1l-1.4,-1l-1.4,-1.1l-1.5,-1l-1.4,-1.2l-1.6,-1.1l-1.5,-1.2l-1.6,-1.2l-1.6,-1.2l-1.6,-1.2l-1.6,-1.2l-1.5,-1.1l-1.6,-1.2l-1.4,-1.1L663.7,591l-1.4,-1l-1.4,-1l-1.2,-1l-1.4,-1l-1.4,-1l-1.4,-1l-1.3,-1.1l-1.5,-1.1l-1.5,-1.1l-1.4,-1.1l-1.6,-1.1l-1.5,-1.2l-1.5,-1.1l-1.5,-1.1L642.2,575l-1.4,-1.1l-1.4,-1l-1.3,-1l-1.3,-1l-1.3,-1l-1.1,-.9L633,568l-1.4,-1l-1.5,-1.1l-1.5,-1.2L627,563.5l-1.8,-1.3l-1.9,-1.4l-2.1,-1.6l-2.1,-1.6L617,556l-1.9,-1.4l-1.6,-1.2l-1.1,-.9l-.7,-.4l-.4,-.3" class="gb_194"/>
<path fill-rule="evenodd" d="M608.4,554.9l-7.2,-10.7l12.3,3.9Z" class="gc_194"/>
<path d="M608.4,554.9l-7.2,-10.7l12.3,3.9Z" class="gd_194"/>
</g>
</svg>