<?xml version="1.0" encoding="UTF-8" standalone="no"?>
<!DOCTYPE svg PUBLIC "-//W3C//DTD SVG 1.1//EN"
"http://www.w3.org/Graphics/SVG/1.1/DTD/svg11.dtd">
<svg viewBox="0 0 935 1210" version="1.1" xmlns="http://www.w3.org/2000/svg" xmlns:xlink="http://www.w3.org/1999/xlink">
<defs>
<clipPath id="c0_2738"><path d="M766.6,59.2V41.4h72.2V59.2Z"/></clipPath>
<style type="text/css"><![CDATA[
.g0_2738{
fill: #000;
}
]]></style>
</defs>
<path d="M97.4,63.3H839.9v-.4H97.4v.4Z" class="g0_2738"/>
<path d="M96.1,1114.5h.2v-.4h-.2v.4Z" class="g0_2738"/>
<path d="M96.3,1114.5H838.9v-.4H96.3v.4Z" class="g0_2738"/>
<image clip-path="url(#c0_2738)" preserveAspectRatio="none" x="767" y="41" width="72" height="18" xlink:href="img/1.jpg"/>
<path d="M530.9,572.4h31.5v-1.1H530.9v1.1Z" class="g0_2738"/>
<path d="M95.9,425.9h.7V380.8h-.7v45.1Z" class="g0_2738"/>
<path d="M216,426.6h.7V380.1H216v46.5Z" class="g0_2738"/>
<path d="M293.3,426.6h.8V380.1h-.8v46.5Z" class="g0_2738"/>
<path d="M839.1,425.9h.7V380.8h-.7v45.1Z" class="g0_2738"/>
<path d="M95.9,380.8h744v-.7H95.9v.7Z" class="g0_2738"/>
<path d="M95.9,404.9h744v-3H95.9v3Z" class="g0_2738"/>
<path d="M95.9,426.6h744v-.7H95.9v.7Z" class="g0_2738"/>
</svg>