<?xml version="1.0" encoding="UTF-8" standalone="no"?>
<!DOCTYPE svg PUBLIC "-//W3C//DTD SVG 1.1//EN"
"http://www.w3.org/Graphics/SVG/1.1/DTD/svg11.dtd">
<svg viewBox="0 0 935 1210" version="1.1" xmlns="http://www.w3.org/2000/svg" xmlns:xlink="http://www.w3.org/1999/xlink">
<defs>
<style type="text/css"><![CDATA[
.g0_4740{
fill: #FFF;
}
.g1_4740{
fill: #000;
}
]]></style>
</defs>
<path d="M68.8,1149.3H852.5v-21.2H68.8v21.2Z" class="g0_4740"/>
<path d="M68.6,1011.1h.7V142.4h-.7v868.7Z" class="g1_4740"/>
<path d="M125.3,1011.8h.7V183h-.7v828.8Z" class="g1_4740"/>
<path d="M182.1,1011.8h.7V141.7h-.7v870.1Z" class="g1_4740"/>
<path d="M424.8,1011.8h.7V141.7h-.7v870.1Z" class="g1_4740"/>
<path d="M517.9,1011.8h.8V141.7h-.8v870.1Z" class="g1_4740"/>
<path d="M849.4,1011.1h.7V142.4h-.7v868.7Z" class="g1_4740"/>
<path d="M68.6,142.4H850.1v-.7H68.6v.7Z" class="g1_4740"/>
<path d="M68.6,183.7H182.8V183H68.6v.7Z" class="g1_4740"/>
<path d="M68.6,208.2H850.1v-.8H68.6v.8Z" class="g1_4740"/>
<path d="M68.6,232.6H518.7v-.8H68.6v.8Z" class="g1_4740"/>
<path d="M68.6,257H518.7v-.7H68.6v.7Z" class="g1_4740"/>
<path d="M68.6,281.5H518.7v-.7H68.6v.7Z" class="g1_4740"/>
<path d="M68.6,309H850.1v-.7H68.6v.7Z" class="g1_4740"/>
<path d="M68.6,333.4H518.7v-.7H68.6v.7Z" class="g1_4740"/>
<path d="M68.6,357.9H518.7v-.8H68.6v.8Z" class="g1_4740"/>
<path d="M68.6,382.3H518.7v-.7H68.6v.7Z" class="g1_4740"/>
<path d="M68.6,409.8H850.1v-.7H68.6v.7Z" class="g1_4740"/>
<path d="M68.6,434.3H518.7v-.7H68.6v.7Z" class="g1_4740"/>
<path d="M68.6,458.7H518.7V458H68.6v.7Z" class="g1_4740"/>
<path d="M68.6,483.2H518.7v-.8H68.6v.8Z" class="g1_4740"/>
<path d="M68.6,510.7H850.1v-.8H68.6v.8Z" class="g1_4740"/>
<path d="M68.6,535.2H518.7v-.8H68.6v.8Z" class="g1_4740"/>
<path d="M68.6,559.5H518.7v-.7H68.6v.7Z" class="g1_4740"/>
<path d="M68.6,584H518.7v-.7H68.6v.7Z" class="g1_4740"/>
<path d="M68.6,611.5H850.1v-.7H68.6v.7Z" class="g1_4740"/>
<path d="M68.6,636H518.7v-.8H68.6v.8Z" class="g1_4740"/>
<path d="M68.6,660.4H518.7v-.8H68.6v.8Z" class="g1_4740"/>
<path d="M68.6,684.8H518.7v-.7H68.6v.7Z" class="g1_4740"/>
<path d="M68.6,712.3H850.1v-.7H68.6v.7Z" class="g1_4740"/>
<path d="M68.6,736.8H850.1v-.7H68.6v.7Z" class="g1_4740"/>
<path d="M68.6,761.2H518.7v-.7H68.6v.7Z" class="g1_4740"/>
<path d="M68.6,785.7H518.7v-.8H68.6v.8Z" class="g1_4740"/>
<path d="M68.6,810.2H850.1v-.8H68.6v.8Z" class="g1_4740"/>
<path d="M68.6,834.5H518.7v-.7H68.6v.7Z" class="g1_4740"/>
<path d="M68.6,859H518.7v-.7H68.6v.7Z" class="g1_4740"/>
<path d="M68.6,883.5H518.7v-.8H68.6v.8Z" class="g1_4740"/>
<path d="M68.6,911H850.1v-.8H68.6v.8Z" class="g1_4740"/>
<path d="M68.6,935.4H518.7v-.8H68.6v.8Z" class="g1_4740"/>
<path d="M68.6,959.8H518.7v-.7H68.6v.7Z" class="g1_4740"/>
<path d="M68.6,984.3H518.7v-.7H68.6v.7Z" class="g1_4740"/>
<path d="M68.6,1011.8H850.1v-.7H68.6v.7Z" class="g1_4740"/>
</svg>