<?xml version="1.0" encoding="UTF-8" standalone="no"?>
<!DOCTYPE svg PUBLIC "-//W3C//DTD SVG 1.1//EN"
"http://www.w3.org/Graphics/SVG/1.1/DTD/svg11.dtd">
<svg viewBox="0 0 935 1210" version="1.1" xmlns="http://www.w3.org/2000/svg" xmlns:xlink="http://www.w3.org/1999/xlink">
<defs>
<style type="text/css"><![CDATA[
.g0_2422{
fill: #FFF;
}
.g1_2422{
fill: #000;
}
]]></style>
</defs>
<path d="M68.8,1149.3H852.5v-21.2H68.8v21.2Z" class="g0_2422"/>
<path d="M68.6,1098.2h.7V124.1h-.7v974.1Z" class="g1_2422"/>
<path d="M416,148.6h.7V123.4H416v25.2Z" class="g1_2422"/>
<path d="M416,292.2h.7v-120H416v120Z" class="g1_2422"/>
<path d="M416,341.1h.7V315.9H416v25.2Z" class="g1_2422"/>
<path d="M416,414.4h.7V364.7H416v49.7Z" class="g1_2422"/>
<path d="M416,463.3h.7V438.1H416v25.2Z" class="g1_2422"/>
<path d="M416,536.6h.7V487H416v49.6Z" class="g1_2422"/>
<path d="M416,585.6h.7V560.4H416v25.2Z" class="g1_2422"/>
<path d="M416,707.8h.7V609.2H416v98.6Z" class="g1_2422"/>
<path d="M416,830h.7V731.4H416V830Z" class="g1_2422"/>
<path d="M416,903.4h.7V853.7H416v49.7Z" class="g1_2422"/>
<path d="M416,976.7h.7V927H416v49.7Z" class="g1_2422"/>
<path d="M416,1050h.7v-49.6H416V1050Z" class="g1_2422"/>
<path d="M416,1098.9h.7v-25.2H416v25.2Z" class="g1_2422"/>
<path d="M851.9,1098.2h.7V124.1h-.7v974.1Z" class="g1_2422"/>
<path d="M68.6,124.1H852.7v-.7H68.6v.7Z" class="g1_2422"/>
<path d="M68.6,148.6H852.7v-.7H68.6v.7Z" class="g1_2422"/>
<path d="M68.6,173H852.7v-.8H68.6v.8Z" class="g1_2422"/>
<path d="M68.6,197.4H852.7v-.7H68.6v.7Z" class="g1_2422"/>
<path d="M68.6,243.3H852.7v-.7H68.6v.7Z" class="g1_2422"/>
<path d="M68.6,267.8H852.7V267H68.6v.8Z" class="g1_2422"/>
<path d="M68.6,292.1H852.7v-.7H68.6v.7Z" class="g1_2422"/>
<path d="M68.6,316.6H852.7v-.7H68.6v.7Z" class="g1_2422"/>
<path d="M68.6,341.1H852.7v-.7H68.6v.7Z" class="g1_2422"/>
<path d="M68.6,365.5H852.7v-.8H68.6v.8Z" class="g1_2422"/>
<path d="M68.6,389.9H852.7v-.7H68.6v.7Z" class="g1_2422"/>
<path d="M68.6,414.4H852.7v-.7H68.6v.7Z" class="g1_2422"/>
<path d="M68.6,438.9H852.7v-.7H68.6v.7Z" class="g1_2422"/>
<path d="M68.6,463.3H852.7v-.7H68.6v.7Z" class="g1_2422"/>
<path d="M68.6,487.8H852.7V487H68.6v.8Z" class="g1_2422"/>
<path d="M68.6,512.2H852.7v-.7H68.6v.7Z" class="g1_2422"/>
<path d="M68.6,536.6H852.7v-.7H68.6v.7Z" class="g1_2422"/>
<path d="M68.6,561.1H852.7v-.7H68.6v.7Z" class="g1_2422"/>
<path d="M68.6,585.6H852.7v-.8H68.6v.8Z" class="g1_2422"/>
<path d="M68.6,609.9H852.7v-.7H68.6v.7Z" class="g1_2422"/>
<path d="M68.6,634.4H852.7v-.7H68.6v.7Z" class="g1_2422"/>
<path d="M68.6,658.9H852.7v-.7H68.6v.7Z" class="g1_2422"/>
<path d="M68.6,683.3H852.7v-.7H68.6v.7Z" class="g1_2422"/>
<path d="M68.6,707.8H852.7V707H68.6v.8Z" class="g1_2422"/>
<path d="M68.6,732.2H852.7v-.7H68.6v.7Z" class="g1_2422"/>
<path d="M68.6,756.6H852.7v-.7H68.6v.7Z" class="g1_2422"/>
<path d="M68.6,781.1H852.7v-.7H68.6v.7Z" class="g1_2422"/>
<path d="M68.6,805.6H852.7v-.8H68.6v.8Z" class="g1_2422"/>
<path d="M68.6,830H852.7v-.8H68.6v.8Z" class="g1_2422"/>
<path d="M68.6,854.4H852.7v-.7H68.6v.7Z" class="g1_2422"/>
<path d="M68.6,878.9H852.7v-.7H68.6v.7Z" class="g1_2422"/>
<path d="M68.6,903.3H852.7v-.7H68.6v.7Z" class="g1_2422"/>
<path d="M68.6,927.8H852.7V927H68.6v.8Z" class="g1_2422"/>
<path d="M68.6,952.2H852.7v-.7H68.6v.7Z" class="g1_2422"/>
<path d="M68.6,976.6H852.7v-.7H68.6v.7Z" class="g1_2422"/>
<path d="M68.6,1001.1H852.7v-.7H68.6v.7Z" class="g1_2422"/>
<path d="M68.6,1025.6H852.7v-.8H68.6v.8Z" class="g1_2422"/>
<path d="M68.6,1050H852.7v-.8H68.6v.8Z" class="g1_2422"/>
<path d="M68.6,1074.4H852.7v-.7H68.6v.7Z" class="g1_2422"/>
<path d="M68.6,1098.9H852.7v-.7H68.6v.7Z" class="g1_2422"/>
</svg>