<?xml version="1.0" encoding="UTF-8" standalone="no"?>
<!DOCTYPE svg PUBLIC "-//W3C//DTD SVG 1.1//EN"
"http://www.w3.org/Graphics/SVG/1.1/DTD/svg11.dtd">
<svg viewBox="0 0 935 1210" version="1.1" xmlns="http://www.w3.org/2000/svg" xmlns:xlink="http://www.w3.org/1999/xlink">
<defs>
<clipPath id="c0_1523"><path d="M97.3,59.2V41.4h72.1V59.2Z"/></clipPath>
<style type="text/css"><![CDATA[
.g0_1523{
fill: #000;
}
]]></style>
</defs>
<path d="M96.2,62.9v.3H838.7v-.3H96.2Z" class="g0_1523"/>
<path d="M96.2,1114.1h-.1v.4h.1v-.4Z" class="g0_1523"/>
<path d="M838.7,1114.1h.2v.4h-.2v-.4Z" class="g0_1523"/>
<path d="M96.2,1114.1v.4H838.7v-.4H96.2Z" class="g0_1523"/>
<image clip-path="url(#c0_1523)" preserveAspectRatio="none" x="97" y="41" width="72" height="18" xlink:href="img/1.jpg"/>
<path d="M559,691.9V693h31.4v-1.1H559Z" class="g0_1523"/>
<path d="M680.7,691.9V693h37.4v-1.1H680.7Z" class="g0_1523"/>
<path d="M559,719.4v1.1h31.4v-1.1H559Z" class="g0_1523"/>
<path d="M680.7,719.4v1.1h37.4v-1.1H680.7Z" class="g0_1523"/>
<path d="M96.6,942.6h-.7v129.5h.7V942.6Z" class="g0_1523"/>
<path d="M275.7,939.6H275v133.2h.7V939.6Z" class="g0_1523"/>
<path d="M315.4,939.6h-.7v133.2h.7V939.6Z" class="g0_1523"/>
<path d="M368.9,939.6h-.7v133.2h.7V939.6Z" class="g0_1523"/>
<path d="M440.7,939.6H440v133.2h.7V939.6Z" class="g0_1523"/>
<path d="M841.2,942.6h-.7v129.5h.7V942.6Z" class="g0_1523"/>
<path d="M95.9,939.7v3H841.2v-3H95.9Z" class="g0_1523"/>
<path d="M95.9,982.4v3H841.2v-3H95.9Z" class="g0_1523"/>
<path d="M275,1007.9v.8H841.2v-.8H275Z" class="g0_1523"/>
<path d="M275,1047.7v.8H841.2v-.8H275Z" class="g0_1523"/>
<path d="M95.9,1072.1v.7H841.2v-.7H95.9Z" class="g0_1523"/>
</svg>