<?xml version="1.0" encoding="UTF-8" standalone="no"?>
<!DOCTYPE svg PUBLIC "-//W3C//DTD SVG 1.1//EN"
"http://www.w3.org/Graphics/SVG/1.1/DTD/svg11.dtd">
<svg viewBox="0 0 935 1210" version="1.1" xmlns="http://www.w3.org/2000/svg" xmlns:xlink="http://www.w3.org/1999/xlink">
<defs>
<style type="text/css"><![CDATA[
.g0_898{
fill: #FFF;
}
.g1_898{
fill: #000;
}
]]></style>
</defs>
<path d="M165,1149.3H852.5v-21.2H165v21.2Z" class="g0_898"/>
<path d="M68.8,1149.3h82.5v-21.2H68.8v21.2Z" class="g0_898"/>
<path d="M68.6,589.3h.7V147h-.7V589.3Z" class="g1_898"/>
<path d="M308.9,590.2h.8V146.3h-.8V590.2Z" class="g1_898"/>
<path d="M352.5,590.2h.7V146.3h-.7V590.2Z" class="g1_898"/>
<path d="M427,590.2h.7V146.3H427V590.2Z" class="g1_898"/>
<path d="M512.2,590.2h.8V146.3h-.8V590.2Z" class="g1_898"/>
<path d="M852,589.3h.8V147H852V589.3Z" class="g1_898"/>
<path d="M68.6,147H852.8v-.7H68.6v.7Z" class="g1_898"/>
<path d="M68.6,200.5H852.8v-.8H68.6v.8Z" class="g1_898"/>
<path d="M68.6,257H852.8v-.7H68.6v.7Z" class="g1_898"/>
<path d="M68.6,313.6H852.8v-.7H68.6v.7Z" class="g1_898"/>
<path d="M68.6,370.1H852.8v-.8H68.6v.8Z" class="g1_898"/>
<path d="M68.6,443.5H852.8v-.8H68.6v.8Z" class="g1_898"/>
<path d="M68.6,516.8H852.8v-.7H68.6v.7Z" class="g1_898"/>
<path d="M68.6,590.2H852.8v-.8H68.6v.8Z" class="g1_898"/>
<path d="M68.6,717.7h.7V645.2h-.7v72.5Z" class="g1_898"/>
<path d="M143.7,718.5h.8V644.3h-.8v74.2Z" class="g1_898"/>
<path d="M230.9,718.5h.7V644.3h-.7v74.2Z" class="g1_898"/>
<path d="M377.3,718.5h.7V644.3h-.7v74.2Z" class="g1_898"/>
<path d="M535.2,718.5h.7V644.3h-.7v74.2Z" class="g1_898"/>
<path d="M693.6,718.5h.8V644.3h-.8v74.2Z" class="g1_898"/>
<path d="M853.7,717.7h.7V645.2h-.7v72.5Z" class="g1_898"/>
<path d="M68.6,645.2H854.4v-.8H68.6v.8Z" class="g1_898"/>
<path d="M68.6,669.5H854.4v-.7H68.6v.7Z" class="g1_898"/>
<path d="M68.6,694H854.4v-.7H68.6v.7Z" class="g1_898"/>
<path d="M68.6,718.5H854.4v-.8H68.6v.8Z" class="g1_898"/>
</svg>