<?xml version="1.0" encoding="UTF-8" standalone="no"?>
<!DOCTYPE svg PUBLIC "-//W3C//DTD SVG 1.1//EN"
"http://www.w3.org/Graphics/SVG/1.1/DTD/svg11.dtd">
<svg viewBox="0 0 935 1210" version="1.1" xmlns="http://www.w3.org/2000/svg" xmlns:xlink="http://www.w3.org/1999/xlink">
<defs>
<style type="text/css"><![CDATA[
.g0_658{
fill: #FFF;
}
.g1_658{
fill: #000;
}
]]></style>
</defs>
<path d="M165,1149.3H852.5v-21.2H165v21.2Z" class="g0_658"/>
<path d="M68.8,1149.3h82.5v-21.2H68.8v21.2Z" class="g0_658"/>
<path d="M68.6,1078.3h.7v-971h-.7v971Z" class="g1_658"/>
<path d="M219.7,1079h.8V106.6h-.8V1079Z" class="g1_658"/>
<path d="M391.2,1079h.8V106.6h-.8V1079Z" class="g1_658"/>
<path d="M429.1,1079h.7V106.6h-.7V1079Z" class="g1_658"/>
<path d="M502.5,1079h.7V106.6h-.7V1079Z" class="g1_658"/>
<path d="M573.9,1079h.8V106.6h-.8V1079Z" class="g1_658"/>
<path d="M851,1078.3h.8v-971H851v971Z" class="g1_658"/>
<path d="M68.6,107.3H851.8v-.7H68.6v.7Z" class="g1_658"/>
<path d="M68.6,145.5H851.8v-.8H68.6v.8Z" class="g1_658"/>
<path d="M68.6,185.3H851.8v-.8H68.6v.8Z" class="g1_658"/>
<path d="M68.6,208.2H851.8v-.8H68.6v.8Z" class="g1_658"/>
<path d="M68.6,247.9H851.8v-.8H68.6v.8Z" class="g1_658"/>
<path d="M68.6,270.8H851.8v-.7H68.6v.7Z" class="g1_658"/>
<path d="M68.6,310.5H851.8v-.8H68.6v.8Z" class="g1_658"/>
<path d="M68.6,333.4H851.8v-.7H68.6v.7Z" class="g1_658"/>
<path d="M68.6,373.2H851.8v-.8H68.6v.8Z" class="g1_658"/>
<path d="M68.6,396.1H851.8v-.7H68.6v.7Z" class="g1_658"/>
<path d="M68.6,435.8H851.8v-.7H68.6v.7Z" class="g1_658"/>
<path d="M68.6,458.7H851.8V458H68.6v.7Z" class="g1_658"/>
<path d="M68.6,498.5H851.8v-.8H68.6v.8Z" class="g1_658"/>
<path d="M68.6,521.4H851.8v-.7H68.6v.7Z" class="g1_658"/>
<path d="M68.6,561.1H851.8v-.7H68.6v.7Z" class="g1_658"/>
<path d="M68.6,584H851.8v-.7H68.6v.7Z" class="g1_658"/>
<path d="M68.6,623.7H851.8V623H68.6v.7Z" class="g1_658"/>
<path d="M68.6,646.6H851.8v-.7H68.6v.7Z" class="g1_658"/>
<path d="M68.6,686.4H851.8v-.7H68.6v.7Z" class="g1_658"/>
<path d="M68.6,709.3H851.8v-.7H68.6v.7Z" class="g1_658"/>
<path d="M68.6,749H851.8v-.7H68.6v.7Z" class="g1_658"/>
<path d="M68.6,771.9H851.8v-.7H68.6v.7Z" class="g1_658"/>
<path d="M68.6,811.6H851.8v-.7H68.6v.7Z" class="g1_658"/>
<path d="M68.6,834.5H851.8v-.7H68.6v.7Z" class="g1_658"/>
<path d="M68.6,874.3H851.8v-.7H68.6v.7Z" class="g1_658"/>
<path d="M68.6,897.2H851.8v-.7H68.6v.7Z" class="g1_658"/>
<path d="M68.6,936.9H851.8v-.7H68.6v.7Z" class="g1_658"/>
<path d="M68.6,976.6H851.8v-.7H68.6v.7Z" class="g1_658"/>
<path d="M68.6,1016.4H851.8v-.7H68.6v.7Z" class="g1_658"/>
<path d="M68.6,1039.3H851.8v-.7H68.6v.7Z" class="g1_658"/>
<path d="M68.6,1079H851.8v-.7H68.6v.7Z" class="g1_658"/>
</svg>