<?xml version="1.0" encoding="UTF-8" standalone="no"?>
<!DOCTYPE svg PUBLIC "-//W3C//DTD SVG 1.1//EN"
"http://www.w3.org/Graphics/SVG/1.1/DTD/svg11.dtd">
<svg viewBox="0 0 935 1210" version="1.1" xmlns="http://www.w3.org/2000/svg" xmlns:xlink="http://www.w3.org/1999/xlink">
<defs>
<style type="text/css"><![CDATA[
.g0_1343{
fill: #FFF;
}
.g1_1343{
fill: #000;
}
]]></style>
</defs>
<path d="M68.9,1149.3H755.2v-21.2H68.9v21.2Z" class="g0_1343"/>
<path d="M771.3,1149.3H855v-21.2H771.3v21.2Z" class="g0_1343"/>
<path d="M69.9,648.9h.8V125.7h-.8V648.9Z" class="g1_1343"/>
<path d="M307.4,649.7h.7V124.9h-.7V649.7Z" class="g1_1343"/>
<path d="M374.6,649.7h.7V124.9h-.7V649.7Z" class="g1_1343"/>
<path d="M449.1,649.7h.7V124.9h-.7V649.7Z" class="g1_1343"/>
<path d="M527.9,649.7h.7V124.9h-.7V649.7Z" class="g1_1343"/>
<path d="M852.1,648.9h.8V125.7h-.8V648.9Z" class="g1_1343"/>
<path d="M69.9,125.7H853v-.8H69.9v.8Z" class="g1_1343"/>
<path d="M69.9,179.1H853v-.7H69.9v.7Z" class="g1_1343"/>
<path d="M69.9,218.8H853v-.7H69.9v.7Z" class="g1_1343"/>
<path d="M69.9,258.6H853v-.7H69.9v.7Z" class="g1_1343"/>
<path d="M69.9,298.3H853v-.7H69.9v.7Z" class="g1_1343"/>
<path d="M69.9,338H853v-.8H69.9v.8Z" class="g1_1343"/>
<path d="M69.9,377.8H853V377H69.9v.8Z" class="g1_1343"/>
<path d="M69.9,417.4H853v-.7H69.9v.7Z" class="g1_1343"/>
<path d="M69.9,457.2H853v-.7H69.9v.7Z" class="g1_1343"/>
<path d="M69.9,513.7H853V513H69.9v.7Z" class="g1_1343"/>
<path d="M69.9,553.5H853v-.8H69.9v.8Z" class="g1_1343"/>
<path d="M69.9,609.9H853v-.7H69.9v.7Z" class="g1_1343"/>
<path d="M69.9,649.7H853V649H69.9v.7Z" class="g1_1343"/>
<path d="M69.9,899.5h.8V704.7h-.8V899.5Z" class="g1_1343"/>
<path d="M143.4,900.3h.7V703.9h-.7V900.3Z" class="g1_1343"/>
<path d="M241.5,900.3h.8V703.9h-.8V900.3Z" class="g1_1343"/>
<path d="M389.7,900.3h.7V703.9h-.7V900.3Z" class="g1_1343"/>
<path d="M546.9,900.3h.7V703.9h-.7V900.3Z" class="g1_1343"/>
<path d="M701.9,900.3h.7V703.9h-.7V900.3Z" class="g1_1343"/>
<path d="M851.3,899.5h.7V704.7h-.7V899.5Z" class="g1_1343"/>
<path d="M69.9,704.7H852V704H69.9v.7Z" class="g1_1343"/>
<path d="M69.9,729.1H852v-.7H69.9v.7Z" class="g1_1343"/>
<path d="M69.9,753.6H852v-.7H69.9v.7Z" class="g1_1343"/>
<path d="M69.9,778.1H852v-.8H69.9v.8Z" class="g1_1343"/>
<path d="M69.9,802.4H852v-.7H69.9v.7Z" class="g1_1343"/>
<path d="M69.9,826.9H852v-.7H69.9v.7Z" class="g1_1343"/>
<path d="M69.9,851.4H852v-.7H69.9v.7Z" class="g1_1343"/>
<path d="M69.9,875.8H852v-.7H69.9v.7Z" class="g1_1343"/>
<path d="M69.9,900.3H852v-.8H69.9v.8Z" class="g1_1343"/>
</svg>