<?xml version="1.0" encoding="UTF-8" standalone="no"?>
<!DOCTYPE svg PUBLIC "-//W3C//DTD SVG 1.1//EN"
"http://www.w3.org/Graphics/SVG/1.1/DTD/svg11.dtd">
<svg viewBox="0 0 935 1210" version="1.1" xmlns="http://www.w3.org/2000/svg" xmlns:xlink="http://www.w3.org/1999/xlink">
<defs>
<style type="text/css"><![CDATA[
.g0_659{
fill: #FFF;
}
.g1_659{
fill: #000;
}
]]></style>
</defs>
<path d="M68.9,1149.3H755.2v-21.2H68.9v21.2Z" class="g0_659"/>
<path d="M771.3,1149.3H855v-21.2H771.3v21.2Z" class="g0_659"/>
<path d="M69.9,1061.5h.8V107.3h-.8v954.2Z" class="g1_659"/>
<path d="M221.1,1062.2h.7V106.6h-.7v955.6Z" class="g1_659"/>
<path d="M392.6,1062.2h.7V106.6h-.7v955.6Z" class="g1_659"/>
<path d="M430.5,1062.2h.7V106.6h-.7v955.6Z" class="g1_659"/>
<path d="M503.9,1062.2h.7V106.6h-.7v955.6Z" class="g1_659"/>
<path d="M575.2,1062.2h.7V106.6h-.7v955.6Z" class="g1_659"/>
<path d="M852.4,1061.5h.7V107.3h-.7v954.2Z" class="g1_659"/>
<path d="M69.9,107.3H853.1v-.7H69.9v.7Z" class="g1_659"/>
<path d="M69.9,145.5H853.1v-.8H69.9v.8Z" class="g1_659"/>
<path d="M69.9,168.4H853.1v-.7H69.9v.7Z" class="g1_659"/>
<path d="M69.9,208.2H853.1v-.8H69.9v.8Z" class="g1_659"/>
<path d="M69.9,231.1H853.1v-.7H69.9v.7Z" class="g1_659"/>
<path d="M69.9,270.8H853.1v-.7H69.9v.7Z" class="g1_659"/>
<path d="M69.9,293.7H853.1V293H69.9v.7Z" class="g1_659"/>
<path d="M69.9,333.4H853.1v-.7H69.9v.7Z" class="g1_659"/>
<path d="M69.9,356.3H853.1v-.7H69.9v.7Z" class="g1_659"/>
<path d="M69.9,396.1H853.1v-.7H69.9v.7Z" class="g1_659"/>
<path d="M69.9,435.8H853.1v-.7H69.9v.7Z" class="g1_659"/>
<path d="M69.9,475.6H853.1v-.8H69.9v.8Z" class="g1_659"/>
<path d="M69.9,498.5H853.1v-.8H69.9v.8Z" class="g1_659"/>
<path d="M69.9,538.2H853.1v-.8H69.9v.8Z" class="g1_659"/>
<path d="M69.9,561.1H853.1v-.7H69.9v.7Z" class="g1_659"/>
<path d="M69.9,600.8H853.1v-.7H69.9v.7Z" class="g1_659"/>
<path d="M69.9,623.7H853.1V623H69.9v.7Z" class="g1_659"/>
<path d="M69.9,663.5H853.1v-.8H69.9v.8Z" class="g1_659"/>
<path d="M69.9,686.4H853.1v-.7H69.9v.7Z" class="g1_659"/>
<path d="M69.9,726.1H853.1v-.7H69.9v.7Z" class="g1_659"/>
<path d="M69.9,749H853.1v-.7H69.9v.7Z" class="g1_659"/>
<path d="M69.9,788.7H853.1V788H69.9v.7Z" class="g1_659"/>
<path d="M69.9,811.6H853.1v-.7H69.9v.7Z" class="g1_659"/>
<path d="M69.9,851.4H853.1v-.7H69.9v.7Z" class="g1_659"/>
<path d="M69.9,874.3H853.1v-.7H69.9v.7Z" class="g1_659"/>
<path d="M69.9,914H853.1v-.7H69.9v.7Z" class="g1_659"/>
<path d="M69.9,936.9H853.1v-.7H69.9v.7Z" class="g1_659"/>
<path d="M69.9,976.6H853.1v-.7H69.9v.7Z" class="g1_659"/>
<path d="M69.9,999.5H853.1v-.7H69.9v.7Z" class="g1_659"/>
<path d="M69.9,1039.3H853.1v-.7H69.9v.7Z" class="g1_659"/>
<path d="M69.9,1062.2H853.1v-.7H69.9v.7Z" class="g1_659"/>
</svg>