<?xml version="1.0" encoding="UTF-8" standalone="no"?>
<!DOCTYPE svg PUBLIC "-//W3C//DTD SVG 1.1//EN"
"http://www.w3.org/Graphics/SVG/1.1/DTD/svg11.dtd">
<svg viewBox="0 0 935 1210" version="1.1" xmlns="http://www.w3.org/2000/svg" xmlns:xlink="http://www.w3.org/1999/xlink">
<defs>
<style type="text/css"><![CDATA[
.g0_2045{
fill: #FFF;
}
.g1_2045{
fill: #000;
}
]]></style>
</defs>
<path d="M68.9,1149.3H755.2v-21.2H68.9v21.2Z" class="g0_2045"/>
<path d="M771.3,1149.3H855v-21.2H771.3v21.2Z" class="g0_2045"/>
<path d="M70.3,326H851.5V296.4H70.3V326Z" class="g0_2045"/>
<path d="M71.2,319.3h53.6V306.9H71.2v12.4Z" class="g0_2045"/>
<path d="M69.9,296h.8V147h-.8V296Z" class="g1_2045"/>
<path d="M305.3,296.8h.7V146.3h-.7V296.8Z" class="g1_2045"/>
<path d="M348.7,296.8h.7V146.3h-.7V296.8Z" class="g1_2045"/>
<path d="M423.2,296.8h.8V146.3h-.8V296.8Z" class="g1_2045"/>
<path d="M506.1,296.8h.7V146.3h-.7V296.8Z" class="g1_2045"/>
<path d="M851.1,296h.8V147h-.8V296Z" class="g1_2045"/>
<path d="M69.9,147h782v-.7H69.9v.7Z" class="g1_2045"/>
<path d="M69.9,200.5h782v-.8H69.9v.8Z" class="g1_2045"/>
<path d="M69.9,240.3h782v-.8H69.9v.8Z" class="g1_2045"/>
<path d="M69.9,296.7h782V296H69.9v.7Z" class="g1_2045"/>
<path d="M69.9,449.3h.8V401.2h-.8v48.1Z" class="g1_2045"/>
<path d="M139.1,450.2h.7V400.5h-.7v49.7Z" class="g1_2045"/>
<path d="M252.2,450.2h.7V400.5h-.7v49.7Z" class="g1_2045"/>
<path d="M398,450.2h.8V400.5H398v49.7Z" class="g1_2045"/>
<path d="M549.1,450.2h.7V400.5h-.7v49.7Z" class="g1_2045"/>
<path d="M699.8,450.2h.7V400.5h-.7v49.7Z" class="g1_2045"/>
<path d="M849.3,449.3h.7V401.2h-.7v48.1Z" class="g1_2045"/>
<path d="M69.9,401.2H850.1v-.7H69.9v.7Z" class="g1_2045"/>
<path d="M69.9,425.7H850.1V425H69.9v.7Z" class="g1_2045"/>
<path d="M69.9,450.1H850.1v-.8H69.9v.8Z" class="g1_2045"/>
</svg>