<?xml version="1.0" encoding="UTF-8" standalone="no"?>
<!DOCTYPE svg PUBLIC "-//W3C//DTD SVG 1.1//EN"
"http://www.w3.org/Graphics/SVG/1.1/DTD/svg11.dtd">
<svg viewBox="0 0 935 1210" version="1.1" xmlns="http://www.w3.org/2000/svg" xmlns:xlink="http://www.w3.org/1999/xlink">
<defs>
<style type="text/css"><![CDATA[
.g0_2107{
fill: #FFF;
}
.g1_2107{
fill: #000;
}
]]></style>
</defs>
<path d="M68.9,1149.3H755.2v-21.2H68.9v21.2Z" class="g0_2107"/>
<path d="M771.3,1149.3H855v-21.2H771.3v21.2Z" class="g0_2107"/>
<path d="M84.3,726.8h.8V124.1h-.8V726.8Z" class="g1_2107"/>
<path d="M837.7,726.8h.7V124.1h-.7V726.8Z" class="g1_2107"/>
<path d="M84.3,124.1H838.4v-.7H84.3v.7Z" class="g1_2107"/>
<path d="M84.3,727.6H838.4v-.8H84.3v.8Z" class="g1_2107"/>
<path d="M254.8,685.1H695.2v-.7H254.8v.7Z" class="g1_2107"/>
<path d="M694.5,705.4h.7V684.8h-.7v20.6Z" class="g1_2107"/>
<path d="M254.5,705.4H694.8v-.8H254.5v.8Z" class="g1_2107"/>
<path d="M254.5,705h.7V684.4h-.7V705Z" class="g1_2107"/>
<path d="M584.5,685.2h.7v-.4h-.7v.4Z" class="g1_2107"/>
<path d="M584.5,705.4h.7V685.2h-.7v20.2Z" class="g1_2107"/>
<path d="M474.5,685.2h.7v-.4h-.7v.4Z" class="g1_2107"/>
<path d="M474.5,705.4h.7V685.2h-.7v20.2Z" class="g1_2107"/>
<path d="M364.5,685.2h.7v-.4h-.7v.4Z" class="g1_2107"/>
<path d="M364.5,705.4h.7V685.2h-.7v20.2Z" class="g1_2107"/>
<path d="M526.3,417H632.2v-.7H526.3v.7Z" class="g1_2107"/>
<path d="M631.5,435.3h.7V416.6h-.7v18.7Z" class="g1_2107"/>
<path d="M525.9,435.3h106v-.7h-106v.7Z" class="g1_2107"/>
<path d="M525.9,435h.7V416.3h-.7V435Z" class="g1_2107"/>
<path d="M552.3,416.6h.7v-.3h-.7v.3Z" class="g1_2107"/>
<path d="M552.3,435h.7V416.6h-.7V435Z" class="g1_2107"/>
<path d="M578.7,416.6h.7v-.3h-.7v.3Z" class="g1_2107"/>
<path d="M578.7,435h.7V416.6h-.7V435Z" class="g1_2107"/>
<path d="M605.1,416.6h.7v-.3h-.7v.3Z" class="g1_2107"/>
<path d="M605.1,435h.7V416.6h-.7V435Z" class="g1_2107"/>
<path d="M526.3,467H632.2v-.8H526.3v.8Z" class="g1_2107"/>
<path d="M631.5,485.3h.7V466.6h-.7v18.7Z" class="g1_2107"/>
<path d="M525.9,485.3h106v-.7h-106v.7Z" class="g1_2107"/>
<path d="M525.9,484.9h.7V466.2h-.7v18.7Z" class="g1_2107"/>
<path d="M552.3,466.6h.7v-.4h-.7v.4Z" class="g1_2107"/>
<path d="M552.3,484.8h.7V466.6h-.7v18.2Z" class="g1_2107"/>
<path d="M578.7,466.6h.7v-.4h-.7v.4Z" class="g1_2107"/>
<path d="M578.7,484.8h.7V466.6h-.7v18.2Z" class="g1_2107"/>
<path d="M605.1,466.6h.7v-.4h-.7v.4Z" class="g1_2107"/>
<path d="M605.1,484.8h.7V466.6h-.7v18.2Z" class="g1_2107"/>
<path d="M527.1,381.3H633v-.7H527.1v.7Z" class="g1_2107"/>
<path d="M632.3,399.7h.8V381h-.8v18.7Z" class="g1_2107"/>
<path d="M526.7,399.7h106v-.8h-106v.8Z" class="g1_2107"/>
<path d="M526.7,399.3h.7V380.6h-.7v18.7Z" class="g1_2107"/>
<path d="M553.1,381h.7v-.4h-.7v.4Z" class="g1_2107"/>
<path d="M553.1,399.3h.7V381h-.7v18.3Z" class="g1_2107"/>
<path d="M579.5,381h.8v-.4h-.8v.4Z" class="g1_2107"/>
<path d="M579.5,399.3h.8V381h-.8v18.3Z" class="g1_2107"/>
<path d="M605.9,381h.7v-.4h-.7v.4Z" class="g1_2107"/>
<path d="M605.9,399.3h.7V381h-.7v18.3Z" class="g1_2107"/>
<path d="M376.7,651.1l-1.5,.2l-1.4,.4h.1l-1.3,.7l.1,-.1l-1.1,.8l-.9,1.1l.1,-.1l-.6,1.3l-.5,1.4v-.2l-.1,1.5l.1,1.4v-.1l.5,1.4v-.1l.6,1.2h-.1l.9,1.1v-.1l1.1,.9h-.1l1.3,.7v-.1l1.4,.5h-.1l1.5,.1h-.1h.6l1.5,-.1h-.1l1.4,-.5l-.1,.1l1.2,-.7l1.1,-.9l-.1,.1l.9,-1.1l.6,-1.2l-.1,.1l.5,-1.4v.1l.2,-1.4v.1l-.2,-1.5v.1l-.5,-1.4h.1l-.6,-1.3v.1l-.9,-1.1h.1l-1.1,-.8v.1l-1.2,-.7h.1l-1.4,-.4h.1l-1.5,-.2h-.6v-.7h.2c2.7,-.2,5.3,1.2,6.7,3.4h.1l.7,1.2v.1c1.2,2.9,.5,6.2,-1.7,8.4l-1.1,.9l-.1,.1c-2.1,1.5,-5.4,1.7,-7.8,.6h-.1l-1.2,-.6v-.1l-1.1,-.9h-.1l-.9,-1.1v-.1l-.7,-1.2h-.1l-.4,-1.4v-.2l-.1,-1.4l.1,-1.5v-.1l.4,-1.4l.1,-.1l.7,-1.2l.9,-1.1l.1,-.1l1.1,-.8l1.2,-.8l.1,-.1l1.4,-.3h.1l1.5,-.2Z" class="g1_2107"/>
<path d="M376.6,651.1h.1l-.1,-.7Z" class="g1_2107"/>
<path d="M536.7,439.4l-1.3,.1l-1.2,.4h.1l-1.1,.6l.1,-.1l-.9,.7l-.7,.9l.1,-.1l-.6,1.1v-.1l-.4,1.2l-.1,1.3v-.1l.1,1.3v-.1l.4,1.1v-.1l.6,1.1h-.1l.7,.9v-.1l.9,.8h-.1l1.1,.6l-.1,-.1l1.2,.4l1.3,.1h-.1h2.8l1.2,-.1h-.1l1.2,-.4l-.1,.1l1.1,-.6l.9,-.8l-.1,.1l.7,-.9l.7,-1.1l-.1,.1l.3,-1.1v.1l.1,-1.3v.1l-.1,-1.3l-.3,-1.2l.1,.1l-.7,-1.1v.1l-.7,-.9h.1l-.9,-.7v.1l-1.1,-.6h.1l-1.2,-.4h.1l-1.2,-.1h-2.8v-.8H538c2.4,-.2,5.6,.8,6.8,3h.1l.6,1.1c1,2.7,.5,5.2,-1.5,7.3l-.9,.7l-.1,.1l-1.1,.7h-.1l-1.2,.3l-1.1,.1h-2.9l-1.3,-.1h-.1l-1.1,-.3H534l-1.1,-.7v-.1l-1,-.7h-.1l-.7,-.9V449l-.5,-1.1h-.1l-.4,-1.1v-.1c-.4,-1.3,-.1,-2.7,.4,-4h.1l.5,-1.1c1,-1.5,2.5,-2.4,4.1,-2.8h.1l1.3,-.2Z" class="g1_2107"/>
<path d="M536.6,439.4h.1l-.1,-.8Z" class="g1_2107"/>
<path d="M530.9,453l-1.2,.1l-1.2,.4h.1l-1,.5l.1,-.1l-.9,.8l-.7,.9l.1,-.1l-.6,1v-.1l-.4,1.2v1.2v-.1v1.2v-.1l.4,1.2v-.1l.6,1h-.1l.7,.9v-.1l.9,.8h-.1l1,.5l-.1,-.1l1.2,.4l1.2,.1h-.1h16.1l1.2,-.1H548l1.2,-.4l-.1,.1l1,-.5l.9,-.8l-.1,.1l.7,-.9l.6,-1l-.1,.1l.4,-1.2v.1l.1,-1.2v.1l-.1,-1.2l-.4,-1.2l.1,.1l-.6,-1v.1l-.7,-.9h.1l-.9,-.8v.1l-1,-.5h.1l-1.2,-.4h.1l-1.2,-.1H530.8v-.7h8c4.5,.7,10.5,-1.8,13.4,2.8h.1l.5,1v.1c1,2.4,.5,5.2,-1.3,7.1l-1,.7v.1l-1.1,.6l-1.2,.3l-1.2,.1H530.8l-1.2,-.1l-1.2,-.3h-.1l-1,-.6V464l-1,-.7l-.8,-.9v-.1l-.5,-1l-.1,-.1l-.4,-1.2l-.1,-1.2v-.1l.1,-1.2v-.1c.6,-2.5,2.5,-4.4,5.1,-5l1.2,-.1Z" class="g1_2107"/>
<path d="M530.8,453h.1l-.1,-.7Z" class="g1_2107"/>
<path d="M620.3,439.4l-1.3,.1l-1.2,.4h.1l-1.1,.6l.1,-.1l-.9,.7l-.7,.9l.1,-.1l-.6,1.1v-.1l-.4,1.2l-.1,1.3v-.1l.1,1.3v-.1l.4,1.1v-.1l.6,1.1h-.1l.7,.9v-.1l.9,.8h-.1l1.1,.6l-.1,-.1l1.2,.4l1.3,.1h-.1H623l1.2,-.1h-.1l1.2,-.4l-.1,.1l1.1,-.6l.9,-.8l-.1,.1l.7,-.9l.7,-1.1l-.1,.1l.3,-1.1v.1l.1,-1.3v.1l-.1,-1.3l-.3,-1.2l.1,.1l-.7,-1.1v.1l-.7,-.9h.1l-.9,-.7v.1l-1.1,-.6h.1l-1.2,-.4h.1l-1.2,-.1h-2.8v-.8h1.4c2.4,-.2,5.6,.8,6.8,3h.1l.6,1.1c1,2.7,.6,5.2,-1.5,7.3l-.9,.7l-.1,.1l-1.1,.7h-.1l-1.2,.3l-1.1,.1h-2.9l-1.3,-.1h-.1l-1.1,-.3h-.1l-1.1,-.7v-.1l-1,-.7h-.1l-.7,-.9V449l-.5,-1.1h-.1l-.4,-1.1v-.1c-.4,-1.3,-.1,-2.7,.4,-4h.1l.5,-1.1c1,-1.5,2.5,-2.4,4.1,-2.8h.1l1.3,-.2Z" class="g1_2107"/>
<path d="M620.2,439.4h.1l-.1,-.8Z" class="g1_2107"/>
<path d="M614.5,453l-1.2,.1l-1.2,.4h.1l-1,.5l.1,-.1l-.9,.8l-.7,.9l.1,-.1l-.6,1v-.1l-.4,1.2v1.2v-.1v1.2v-.1l.4,1.2v-.1l.6,1h-.1l.7,.9v-.1l.9,.8h-.1l1,.5l-.1,-.1l1.2,.4l1.2,.1h-.1h16.1l1.2,-.1h-.1l1.2,-.4l-.1,.1l1,-.5l.9,-.8l-.1,.1l.7,-.9l.6,-1l-.1,.1l.4,-1.2v.1l.1,-1.2v.1l-.1,-1.2l-.4,-1.2l.1,.1l-.6,-1v.1l-.7,-.9h.1l-.9,-.8v.1l-1,-.5h.1l-1.2,-.4h.1l-1.2,-.1H614.4v-.7h8.1c4.5,.6,10.4,-1.8,13.3,2.8h.1l.5,1v.1c1,2.4,.5,5.2,-1.3,7.1l-1,.7v.1l-1.1,.6l-1.2,.3l-1.2,.1H614.4l-1.2,-.1l-1.2,-.3h-.1l-1,-.6V464l-1,-.7l-.8,-.9v-.1l-.5,-1l-.1,-.1l-.4,-1.2l-.1,-1.2v-.1l.1,-1.2v-.1c.6,-2.5,2.5,-4.4,5.1,-5l1.2,-.1Z" class="g1_2107"/>
<path d="M614.4,453h.1l-.1,-.7Z" class="g1_2107"/>
<path d="M564.6,439.4l-1.3,.1l-1.2,.4h.1l-1.1,.6l.1,-.1l-.9,.7l-.8,.9l.1,-.1l-.5,1.1v-.1l-.4,1.2l-.2,1.3v-.1l.2,1.3v-.1l.4,1.1v-.1l.5,1.1h-.1l.8,.9v-.1l.9,.8h-.1l1.1,.6l-.1,-.1l1.2,.4l1.3,.1h-.1h2.7l1.2,-.1h-.1l1.2,-.4l-.1,.1l1.1,-.6l1,-.8l-.1,.1l.7,-.9l.6,-1.1l-.1,.1l.4,-1.1v.1l.1,-1.3v.1l-.1,-1.3l-.4,-1.2l.1,.1l-.6,-1.1v.1l-.7,-.9h.1l-1,-.7v.1l-1.1,-.6h.1l-1.2,-.4h.1l-1.2,-.1h-2.7v-.8h1.4c2.4,-.2,5.5,.8,6.7,3h.1l.7,1.1c.9,2.7,.5,5.2,-1.5,7.3l-.9,.7l-.1,.1l-1.1,.7h-.1l-1.2,.3l-1.2,.1h-2.8l-1.3,-.1h-.1l-1.2,-.3h-.1l-1.1,-.7v-.1l-.9,-.7h-.1l-.7,-.9V449l-.6,-1.1h-.1l-.3,-1.1v-.1c-.4,-1.3,-.1,-2.7,.3,-4h.1l.6,-1.1c.9,-1.5,2.5,-2.4,4.1,-2.8h.1l1.3,-.2Z" class="g1_2107"/>
<path d="M564.5,439.4h.1l-.1,-.8Z" class="g1_2107"/>
<path d="M558.8,453l-1.2,.1l-1.2,.4h.1l-1,.5l.1,-.1l-.9,.8l-.8,.9l.1,-.1l-.5,1v-.1l-.4,1.2l-.1,1.2v-.1l.1,1.2v-.1l.4,1.2v-.1l.5,1h-.1l.8,.9v-.1l.9,.8h-.1l1,.5l-.1,-.1l1.2,.4l1.2,.1h-.1h16.1l1.1,-.1l1.1,-.4v.1l1,-.5l.9,-.8l-.1,.1l.7,-.9l.6,-1l-.1,.1l.3,-1.2v.1l.1,-1.2v.1l-.1,-1.2l-.3,-1.2l.1,.1l-.6,-1v.1l-.7,-.9h.1l-.9,-.8v.1l-1,-.5l-1.1,-.4l-1.1,-.1H558.7v-.7h8.1c4.4,.6,10.3,-1.8,13.3,2.8h.1l.5,1v.1c.9,2.4,.5,5.2,-1.4,7.1l-.9,.7l-.1,.1l-1,.6h-.1L576,465l-1.2,.1H558.7l-1.2,-.1h-.1l-1.2,-.3h-.1l-1,-.6V464l-.9,-.7h-.1l-.7,-.9v-.1l-.6,-1v-.1l-.4,-1.2l-.1,-1.2v-.1l.1,-1.2v-.1c.6,-2.5,2.5,-4.4,5,-5h.1l1.2,-.1Z" class="g1_2107"/>
<path d="M558.7,453h.1l-.1,-.7Z" class="g1_2107"/>
<path d="M592.4,439.4l-1.2,.1l-1.2,.4h.1l-1.1,.6l.1,-.1l-1,.7l-.7,.9l.1,-.1l-.6,1.1v-.1l-.3,1.2l-.2,1.3v-.1l.2,1.3v-.1l.3,1.1v-.1l.6,1.1h-.1l.7,.9v-.1l1,.8H589l1.1,.6l-.1,-.1l1.2,.4l1.2,.1h2.7l1.2,-.1h-.1l1.2,-.4l-.1,.1l1.1,-.6l.9,-.8l-.1,.1l.8,-.9l.6,-1.1l-.1,.1l.4,-1.1v.1l.1,-1.3v.1l-.1,-1.3l-.4,-1.2l.1,.1l-.6,-1.1v.1l-.8,-.9h.1l-.9,-.7v.1l-1.1,-.6h.1l-1.2,-.4h.1l-1.2,-.1h-2.7v-.8h1.3c2.4,-.2,5.6,.8,6.8,3h.1l.6,1.1c1,2.7,.6,5.2,-1.4,7.3l-.9,.7l-.1,.1l-1.1,.7h-.1l-1.2,.3l-1.2,.1h-2.8l-1.3,-.1H591l-1.2,-.3h-.1l-1.1,-.7v-.1l-.9,-.7h-.1l-.8,-.9V449l-.5,-1.1h-.1l-.4,-1.1v-.1c-.4,-1.3,0,-2.7,.4,-4h.1l.5,-1.1c1,-1.5,2.5,-2.4,4.2,-2.8h.1l1.3,-.2Z" class="g1_2107"/>
<path d="M592.4,439.4v-.8Z" class="g1_2107"/>
<path d="M586.7,453l-1.2,.1l-1.2,.4h.1l-1,.5l.1,-.1l-1,.8l-.7,.9l.1,-.1l-.6,1v-.1l-.3,1.2l-.1,1.2v-.1l.1,1.2v-.1l.3,1.2v-.1l.6,1h-.1l.7,.9v-.1l1,.8h-.1l1,.5l-.1,-.1l1.2,.4l1.2,.1h-.1h16l1.2,-.1h-.1l1.2,-.4l-.1,.1l1,-.5l.9,-.8l-.1,.1l.8,-.9l.5,-1l-.1,.1l.4,-1.2v.1l.1,-1.2v.1l-.1,-1.2l-.4,-1.2l.1,.1l-.5,-1v.1l-.8,-.9h.1l-.9,-.8v.1l-1,-.5h.1l-1.2,-.4h.1l-1.2,-.1h-16v-.7h8c4.5,.6,10.4,-1.8,13.3,2.8h.1l.6,1v.1c.9,2.4,.5,5.2,-1.4,7.1l-.9,.7l-.1,.1l-1,.6h-.1l-1.2,.3l-1.2,.1H586.6l-1.2,-.1h-.1l-1.2,-.3H584l-1,-.6V464l-.9,-.7H582l-.7,-.9v-.1l-.6,-1l-.1,-.1l-.4,-1.2v-2.6c.6,-2.5,2.6,-4.4,5.1,-5h.1l1.2,-.1Z" class="g1_2107"/>
<path d="M586.6,453h.1l-.1,-.7Z" class="g1_2107"/>
<path d="M620.7,437.1h.7V420.8h-.7v16.3Z" class="g1_2107"/>
<path d="M626,421.3l-.7,-.2L620.7,437v.2l.3,1.2l.4,-1.2Z" class="g1_2107"/>
<path d="M620.7,437.2l.7,-.2l-4.6,-15.9l-.7,.2Z" class="g1_2107"/>
<path d="M620.7,388.9h.7v-.3h-.7v.3Z" class="g1_2107"/>
<path d="M620.7,421.2h.7V388.9h-.7v32.3Z" class="g1_2107"/>
<path d="M539.7,437.8h.8V421.6h-.8v16.2Z" class="g1_2107"/>
<path d="M545,422l-.8,-.2l-4.5,15.9v.2l.4,1.3l.4,-1.3Z" class="g1_2107"/>
<path d="M539.7,437.9l.8,-.2l-4.6,-15.9l-.7,.2Z" class="g1_2107"/>
<path d="M539.7,389.7h.8v-.4h-.8v.4Z" class="g1_2107"/>
<path d="M539.7,421.9h.8V389.7h-.8v32.2Z" class="g1_2107"/>
<path d="M564.9,439.4h.8V423.1h-.8v16.3Z" class="g1_2107"/>
<path d="M570.2,423.6l-.8,-.2l-4.5,15.9v.2l.4,1.2l.4,-1.2Z" class="g1_2107"/>
<path d="M564.9,439.5l.8,-.2l-4.6,-15.9l-.7,.2Z" class="g1_2107"/>
<path d="M564.9,391.2h.8v-.3h-.8v.3Z" class="g1_2107"/>
<path d="M564.9,423.5h.8V391.2h-.8v32.3Z" class="g1_2107"/>
<path d="M593.2,437.1h.7V420.8h-.7v16.3Z" class="g1_2107"/>
<path d="M598.5,421.3l-.7,-.2L593.2,437v.2l.3,1.2l.4,-1.2Z" class="g1_2107"/>
<path d="M593.2,437.2l.7,-.2l-4.6,-15.9l-.7,.2Z" class="g1_2107"/>
<path d="M593.2,388.9h.7v-.3h-.7v.3Z" class="g1_2107"/>
<path d="M593.2,421.2h.7V388.9h-.7v32.3Z" class="g1_2107"/>
<path d="M650.6,659.1l-1.5,.1h.2l-1.4,.4l-1.3,.7l.1,-.1l-1,.9l-.9,1.1l.1,-.1l-.7,1.3l-.4,1.4v-.1l-.2,1.4V666l.2,1.5v-.1l.4,1.4v-.1l.7,1.2h-.1l.9,1.1v-.1l1,.9h-.1l1.3,.7v-.1l1.4,.4h-.2l1.5,.1h.6l1.5,-.1h-.1l1.4,-.4l-.1,.1l1.2,-.7l1.1,-.9v.1l.8,-1.1l.7,-1.2l-.1,.1l.4,-1.4v.1l.2,-1.5v.1l-.2,-1.4l-.4,-1.4l.1,.1l-.7,-1.3v.1l-.8,-1.1l-1.1,-.9v.1l-1.2,-.7h.1l-1.4,-.4h.1l-1.5,-.1h-.6v-.8h.6l1.5,.1h.2l1.3,.5v.1l1.3,.6h.1l1.1,.9v.1l.8,1.1h.1l.8,1.3v.1c.8,2.4,.8,5.3,-.9,7.3l-.8,1.1l-1.1,.9c-2,1.5,-5.7,1.7,-8,.7h-.1l-1.2,-.6v-.1l-1.1,-.9l-1,-1.1v-.1l-.6,-1.2h-.1l-.5,-1.4v-.1c-.3,-1.5,-.1,-3.1,.5,-4.5l.1,-.1l.6,-1.3c1.6,-2,2.4,-2.5,4.8,-3.3h.1l1.5,-.1Z" class="g1_2107"/>
<path d="M650.6,659.1v-.8Z" class="g1_2107"/>
<path d="M552.9,498.7l-.5,.5l12.3,10.6l.5,-.6Z" class="g1_2107"/>
<path d="M556.1,495.5l-.5,.4l9.1,13.8l.1,.1l1.2,.6l-.8,-1.1Z" class="g1_2107"/>
<path d="M564.8,509.9l.3,-.8l-14.9,-6.9l-.4,.8Z" class="g1_2107"/>
<path d="M540.4,487.9l-.3,-.1l-.5,.5l.3,.2Z" class="g1_2107"/>
<path d="M552.9,498.7l.3,.1l-.4,.6l-.3,-.2Z" class="g1_2107"/>
<path d="M540.4,487.9l-.5,.6l12.6,10.7l.4,-.5Z" class="g1_2107"/>
<path d="M565.5,490.1l-.7,.1l3.6,15.9l.8,-.2Z" class="g1_2107"/>
<path d="M570,489.5h-.8l-.8,16.5v.2l.7,1.2l.1,-1.4Z" class="g1_2107"/>
<path d="M568.4,506.2l.8,-.4l-8.1,-14.4l-.7,.4Z" class="g1_2107"/>
<path d="M564.1,484.3l-.1,-.4l-.7,.2l.1,.4Z" class="g1_2107"/>
<path d="M565.5,490.1l.1,.3l-.7,.2l-.1,-.4Z" class="g1_2107"/>
<path d="M564.1,484.3l-.7,.2l1.4,5.7l.7,-.1Z" class="g1_2107"/>
<path d="M583.1,492.7l-.7,-.4l-7.6,14.3l.7,.4Z" class="g1_2107"/>
<path d="M586.8,495.3l-.5,-.6l-11.5,11.9l-.1,.1l-.2,1.3l.9,-.9Z" class="g1_2107"/>
<path d="M574.8,506.7l.7,.2l3.4,-16.1l-.8,-.2Z" class="g1_2107"/>
<path d="M587.8,483.8l.1,-.3l-.6,-.3l-.2,.3Z" class="g1_2107"/>
<path d="M583.1,492.7l-.2,.3l-.6,-.4l.1,-.3Z" class="g1_2107"/>
<path d="M587.8,483.8l-.7,-.3l-4.7,8.8l.7,.4Z" class="g1_2107"/>
<path d="M596.3,499.6l-.4,-.6l-13.6,8.8l.3,.6Z" class="g1_2107"/>
<path d="M598.4,503.7l-.2,-.7l-15.8,4.7l-.2,.1l-.9,1l1.2,-.3Z" class="g1_2107"/>
<path d="M582.2,507.8l.5,.6l10.9,-12.5l-.5,-.5Z" class="g1_2107"/>
<path d="M618.2,485.6l.3,-.2l-.4,-.7l-.3,.2Z" class="g1_2107"/>
<path d="M596.3,499.7l-.3,.2l-.4,-.7l.3,-.2Z" class="g1_2107"/>
<path d="M618.2,485.6l-.4,-.7L595.9,499l.4,.7Z" class="g1_2107"/>
<path d="M602.7,569h106v-.8h-106v.8Z" class="g1_2107"/>
<path d="M707.9,587.3h.8V568.6h-.8v18.7Z" class="g1_2107"/>
<path d="M602.3,587.3h106v-.7h-106v.7Z" class="g1_2107"/>
<path d="M602.3,586.9h.8V568.2h-.8v18.7Z" class="g1_2107"/>
<path d="M628.7,586.9h.8V568.2h-.8v18.7Z" class="g1_2107"/>
<path d="M655.1,586.9h.8V568.2h-.8v18.7Z" class="g1_2107"/>
<path d="M681.5,586.9h.8V568.2h-.8v18.7Z" class="g1_2107"/>
<path d="M602.7,618.9h106v-.7h-106v.7Z" class="g1_2107"/>
<path d="M707.9,637.3h.8V618.6h-.8v18.7Z" class="g1_2107"/>
<path d="M602.3,637.3h106v-.8h-106v.8Z" class="g1_2107"/>
<path d="M602.3,636.9h.8V618.2h-.8v18.7Z" class="g1_2107"/>
<path d="M628.7,636.9h.8V618.2h-.8v18.7Z" class="g1_2107"/>
<path d="M655.1,636.9h.8V618.2h-.8v18.7Z" class="g1_2107"/>
<path d="M681.5,636.9h.8V618.2h-.8v18.7Z" class="g1_2107"/>
<path d="M603.4,533.4h106v-.7h-106v.7Z" class="g1_2107"/>
<path d="M708.7,551.7h.7V533h-.7v18.7Z" class="g1_2107"/>
<path d="M603.1,551.7H709V551H603.1v.7Z" class="g1_2107"/>
<path d="M603.1,551.4h.7V532.7h-.7v18.7Z" class="g1_2107"/>
<path d="M629.5,551.3h.7V532.7h-.7v18.6Z" class="g1_2107"/>
<path d="M655.9,551.3h.7V532.7h-.7v18.6Z" class="g1_2107"/>
<path d="M682.3,551.3h.7V532.7h-.7v18.6Z" class="g1_2107"/>
<path d="M613.1,591.4l-1.3,.1l-1.2,.4h.1l-1,.5h.1l-1,.8l-.8,.9l.1,-.1l-.5,1v-.1l-.4,1.2l-.1,1.3v-.1l.1,1.3v-.1l.4,1.2v-.1l.5,1H608l.8,.9v-.1l1,.8h-.1l1,.6l-.1,-.1l1.2,.4l1.3,.2H613h2.7l1.3,-.2h-.1l1.2,-.4l-.1,.1l1,-.6l.9,-.8v.1l.8,-.9l.5,-1l-.1,.1l.4,-1.2v.1l.1,-1.3v.1l-.1,-1.3l-.4,-1.2l.1,.1l-.5,-1v.1l-.8,-.9l-.9,-.8l-1,-.5h.1l-1.2,-.4h.1l-1.3,-.1H613v-.7h1.3c3.3,-.1,5,.4,6.9,2.9h.1l.6,1v.1c.9,2.3,.5,5.6,-1.5,7.3l-.9,.8l-.1,.1c-1.8,1.4,-7,1.4,-9,.5h-.1l-1,-.5v-.1l-.9,-.8h-.1l-.8,-.9V601l-.6,-1l-.1,-.1l-.3,-1.2l-.1,-1.3v-.1l.1,-1.3v-.1c.4,-2.3,2.8,-4.7,5.1,-5.1h.1l1.3,-.1Z" class="g1_2107"/>
<path d="M613,591.4h.1l-.1,-.7Z" class="g1_2107"/>
<path d="M607.3,605.1l-1.2,.1h.1l-1.1,.3l-1.1,.6l.1,-.1l-.8,.7l-.8,1l.1,-.1l-.6,1v-.1l-.3,1.1l-.2,1.3v-.1l.2,1.2v-.1l.3,1.1v-.1l.6,1h-.1l.8,.9v-.1l.8,.7H604l1.1,.6v-.1l1.1,.4h-.1l1.2,.2h-.1h16l1.3,-.2h-.1l1.1,-.4l-.1,.1l1.1,-.6l.9,-.7l-.1,.1l.7,-.9l.6,-1l-.1,.1l.3,-1.1v.1l.1,-1.2v.1l-.1,-1.3v.1l-.3,-1.1h.1l-.6,-1v.1l-.7,-1h.1l-.9,-.7v.1l-1.1,-.6h.1l-1.1,-.3h.1l-1.3,-.1h-16v-.7h17.5l1.1,.4v.1l1,.6h.1l.9,.7v.1l.8,.9h.1l.5,1v.1c1,2.4,.5,5.1,-1.4,7l-.9,.7l-.1,.1l-1,.5l-1.1,.4h-.1l-1.3,.2H607.2L606,617h-.1l-1.1,-.4h-.1l-1.1,-.5V616l-.8,-.7h-.1l-.7,-1l-.7,-1.1h-.1l-.2,-1.1l-.2,-1.2v-.1l.2,-1.3v-.1c.3,-2.2,2.7,-4.5,4.9,-5h1.3Z" class="g1_2107"/>
<path d="M607.2,605.1h.1l-.1,-.7Z" class="g1_2107"/>
<path d="M696.7,591.4l-1.3,.1l-1.2,.4h.1l-1,.5h.1l-1,.8l-.8,.9l.1,-.1l-.5,1v-.1l-.4,1.2l-.1,1.3v-.1l.1,1.3v-.1l.4,1.2v-.1l.5,1h-.1l.8,.9v-.1l1,.8h-.1l1,.6l-.1,-.1l1.2,.4l1.3,.2h-.1h2.7l1.3,-.2h-.1l1.2,-.4l-.1,.1l1,-.6l.9,-.8v.1l.8,-.9l.5,-1l-.1,.1l.4,-1.2v.1l.1,-1.3v.1l-.1,-1.3l-.4,-1.2l.1,.1l-.5,-1v.1l-.8,-.9l-.9,-.8l-1,-.5h.1l-1.2,-.4h.1l-1.3,-.1h-2.7v-.7H698c3.2,-.1,4.9,.4,6.8,2.9h.1l.6,1v.1c.9,2.3,.5,5.6,-1.5,7.3l-.9,.8l-.1,.1c-1.8,1.4,-7,1.4,-9,.5h-.1l-1,-.5v-.1L692,602h-.1l-.8,-.9V601l-.6,-1l-.1,-.1l-.3,-1.2l-.1,-1.3v-.1l.1,-1.3v-.1c.4,-2.3,2.8,-4.7,5.1,-5.1h.1l1.3,-.1Z" class="g1_2107"/>
<path d="M696.6,591.4h.1l-.1,-.7Z" class="g1_2107"/>
<path d="M690.9,605.1l-1.2,.1h.1l-1.1,.3l-1.1,.6l.1,-.1l-.8,.7l-.8,1l.1,-.1l-.6,1v-.1l-.3,1.1l-.2,1.3v-.1l.2,1.2v-.1l.3,1.1v-.1l.6,1h-.1l.8,.9v-.1l.8,.7h-.1l1.1,.6v-.1l1.1,.4h-.1l1.2,.2h-.1h16l1.3,-.2H708l1.1,-.4l-.1,.1l1.1,-.6l.9,-.7l-.1,.1l.7,-.9l.6,-1l-.1,.1l.3,-1.1v.1l.1,-1.2v.1l-.1,-1.3v.1l-.3,-1.1h.1l-.6,-1v.1l-.7,-1h.1l-.9,-.7v.1l-1.1,-.6h.1l-1.1,-.3h.1l-1.3,-.1h-16v-.7h17.5l1.1,.4v.1l1,.6h.1l.9,.7v.1l.8,.9h.1l.5,1v.1c1,2.4,.5,5.1,-1.4,7l-.9,.7l-.1,.1l-1,.5l-1.1,.4h-.1l-1.3,.2H690.8l-1.2,-.2h-.1l-1.1,-.4h-.1l-1.1,-.5V616l-.8,-.7h-.1l-.7,-1l-.7,-1.1h-.1l-.2,-1.1l-.2,-1.2v-.1l.2,-1.3v-.1c.3,-2.2,2.7,-4.5,4.9,-5h1.3Z" class="g1_2107"/>
<path d="M690.8,605.1h.1l-.1,-.7Z" class="g1_2107"/>
<path d="M640.9,591.4l-1.3,.1l-1.1,.4l-1,.5h.1l-.9,.8l-.8,.9l.1,-.1l-.6,1v-.1l-.3,1.2l-.1,1.3v-.1l.1,1.3v-.1l.3,1.2v-.1l.6,1h-.1l.8,.9v-.1l.9,.8h-.1l1,.6v-.1l1.1,.4l1.3,.2h-.1h2.8l1.3,-.2h-.1l1.2,-.4l-.1,.1l1,-.6l.9,-.8l-.1,.1l.8,-.9l.6,-1l-.1,.1l.4,-1.2v.1l.1,-1.3v.1l-.1,-1.3l-.4,-1.2l.1,.1l-.6,-1v.1l-.8,-.9h.1l-.9,-.8l-1,-.5h.1l-1.2,-.4h.1l-1.3,-.1h-2.8v-.7h1.4c3.2,-.1,5,.4,6.9,2.9h.1l.5,1v.1c1,2.3,.6,5.6,-1.4,7.3l-.9,.8l-.1,.1c-1.9,1.4,-7,1.4,-9,.5h-.1l-1,-.5v-.1l-.9,-.8h-.1l-.9,-.9V601l-.5,-1l-.1,-.1l-.4,-1.2l-.1,-1.3v-.1l.1,-1.3v-.1c.5,-2.3,2.9,-4.7,5.2,-5.1h.1l1.2,-.1Z" class="g1_2107"/>
<path d="M640.8,591.4h.1l-.1,-.7Z" class="g1_2107"/>
<path d="M635.2,605.1l-1.2,.1h.1l-1.1,.3l-1.1,.6V606l-.8,.7l-.7,1l.1,-.1l-.7,1v-.1l-.2,1.1l-.2,1.3v-.1l.2,1.2v-.1l.2,1.1v-.1l.7,1h-.1l.7,.9v-.1l.8,.7l1.1,.6v-.1l1.1,.4H634l1.2,.2h-.1h16l1.3,-.2h-.1l1.1,-.4l-.1,.1l1,-.6l.9,-.7l-.1,.1l.8,-.9l.5,-1l-.1,.1l.4,-1.1v.1l.1,-1.2v.1l-.1,-1.3v.1l-.4,-1.1h.1l-.5,-1v.1l-.8,-1h.1l-.9,-.7v.1l-1,-.6h.1l-1.1,-.3h.1l-1.3,-.1h-16v-.7h17.5l1.1,.4v.1l1,.6h.1l.9,.7v.1l.7,.9h.1l.6,1v.1c.9,2.4,.4,5.1,-1.4,7l-.9,.7l-.1,.1l-1,.5l-1.1,.4h-.1l-1.3,.2H635.1l-1.2,-.2h-.1l-1.1,-.4h-.1l-1.1,-.5V616l-.8,-.7h-.1l-.8,-1l-.6,-1.1h-.1l-.3,-1.1l-.2,-1.2v-.1l.2,-1.3v-.1c.4,-2.2,2.8,-4.5,5,-5h1.3Z" class="g1_2107"/>
<path d="M635.1,605.1h.1l-.1,-.7Z" class="g1_2107"/>
<path d="M668.8,591.4l-1.3,.1l-1.2,.4h.1l-1,.5h.1l-.9,.8l-.8,.9l.1,-.1l-.6,1v-.1l-.4,1.2l-.1,1.3v-.1l.1,1.3v-.1l.4,1.2v-.1l.6,1h-.1l.8,.9v-.1l.9,.8h-.1l1,.6l-.1,-.1l1.2,.4l1.3,.2h-.1h2.8l1.2,-.2l1.1,-.4v.1l1,-.6l.9,-.8l-.1,.1l.8,-.9l.6,-1l-.1,.1l.3,-1.2v.1l.1,-1.3v.1l-.1,-1.3l-.3,-1.2l.1,.1l-.6,-1v.1l-.8,-.9h.1l-.9,-.8l-1,-.5l-1.1,-.4l-1.2,-.1h-2.8v-.7h1.4c3.2,-.1,4.9,.4,6.9,2.9h.1l.5,1v.1c.9,2.3,.5,5.6,-1.5,7.3l-.9,.8l-.1,.1c-1.8,1.4,-6.9,1.4,-9,.5l-1.1,-.5v-.1l-.9,-.8H664l-.8,-.9V601l-.5,-1l-.1,-.1l-.4,-1.2l-.1,-1.3v-.1l.1,-1.3v-.1c.4,-2.3,2.8,-4.7,5.1,-5.1h.1l1.3,-.1Z" class="g1_2107"/>
<path d="M668.7,591.4h.1l-.1,-.7Z" class="g1_2107"/>
<path d="M663,605.1l-1.2,.1h.1l-1.1,.3l-1.1,.6l.1,-.1l-.8,.7l-.7,1l.1,-.1l-.7,1v-.1l-.3,1.1l-.1,1.3v-.1l.1,1.2v-.1l.3,1.1v-.1l.7,1h-.1l.7,.9v-.1l.8,.7h-.1l1.1,.6v-.1l1.1,.4h-.1l1.2,.2h-.1H679l1.3,-.2h-.1l1.1,-.4l-.1,.1l1,-.6l.9,-.7l-.1,.1l.7,-.9l.6,-1l-.1,.1l.4,-1.1v.1l.1,-1.2v.1l-.1,-1.3v.1l-.4,-1.1h.1l-.6,-1v.1l-.7,-1h.1l-.9,-.7v.1l-1,-.6h.1l-1.1,-.3h.1l-1.3,-.1H662.9v-.7h17.5l1.1,.4v.1l1.1,.6l1,.7v.1l.7,.9h.1l.5,1v.1c1,2.4,.5,5.1,-1.3,7l-1,.7v.1l-1.1,.5l-1.1,.4l-1.3,.2H662.9l-1.2,-.2l-1.1,-.4h-.1l-1.1,-.5V616l-.9,-.7h-.1l-.7,-1l-.6,-1.1H657l-.3,-1.1l-.2,-1.2v-.1l.2,-1.3v-.1c.3,-2.2,2.7,-4.5,5,-5h1.2Z" class="g1_2107"/>
<path d="M662.9,605.1h.1l-.1,-.7Z" class="g1_2107"/>
<path d="M697,589.1h.8V572.8H697v16.3Z" class="g1_2107"/>
<path d="M702.4,573.3l-.8,-.2L697,589v.1l.4,1.3l.4,-1.3Z" class="g1_2107"/>
<path d="M697,589.1l.8,-.1l-4.5,-15.9l-.8,.2Z" class="g1_2107"/>
<path d="M697,573.2h.8V540.6H697v32.6Z" class="g1_2107"/>
<path d="M616.1,589.8h.7V573.6h-.7v16.2Z" class="g1_2107"/>
<path d="M621.4,574l-.7,-.2l-4.6,15.9v.2l.4,1.3l.3,-1.3Z" class="g1_2107"/>
<path d="M616.1,589.9l.7,-.2l-4.6,-15.9l-.7,.2Z" class="g1_2107"/>
<path d="M616.1,573.9h.7V541.3h-.7v32.6Z" class="g1_2107"/>
<path d="M641.3,591.3h.7V575.1h-.7v16.2Z" class="g1_2107"/>
<path d="M646.6,575.6l-.7,-.2l-4.6,15.9v.1l.4,1.3l.3,-1.3Z" class="g1_2107"/>
<path d="M641.3,591.4l.7,-.1l-4.5,-15.9l-.8,.2Z" class="g1_2107"/>
<path d="M641.3,575.5h.7V542.9h-.7v32.6Z" class="g1_2107"/>
<path d="M669.5,589.1h.8V572.8h-.8v16.3Z" class="g1_2107"/>
<path d="M674.9,573.3l-.8,-.2L669.5,589v.1l.4,1.3l.4,-1.3Z" class="g1_2107"/>
<path d="M669.5,589.1l.8,-.1l-4.5,-15.9l-.8,.2Z" class="g1_2107"/>
<path d="M669.5,573.2h.8V540.6h-.8v32.6Z" class="g1_2107"/>
<path d="M629.3,650.7l-.6,.5l12.4,10.5l.6,-.5Z" class="g1_2107"/>
<path d="M632.5,647.5l-.5,.4l9.1,13.7l.1,.2l1.2,.6l-.7,-1.1Z" class="g1_2107"/>
<path d="M641.2,661.8l.4,-.7l-15.1,-6.8l-.3,.8Z" class="g1_2107"/>
<path d="M616.7,639.9l-.2,-.2l-.5,.6l.3,.2Z" class="g1_2107"/>
<path d="M629.3,650.7l.3,.1l-.5,.6l-.3,-.2Z" class="g1_2107"/>
<path d="M616.7,639.9l-.4,.6l12.5,10.7l.5,-.6Z" class="g1_2107"/>
<path d="M641.8,642.1l-.7,.2l3.7,15.8l.7,-.2Z" class="g1_2107"/>
<path d="M646.3,641.5h-.7l-.8,16.5v.2l.6,1.2l.1,-1.4Z" class="g1_2107"/>
<path d="M644.8,658.2l.7,-.4l-8,-14.4l-.7,.4Z" class="g1_2107"/>
<path d="M640.5,636.3l-.1,-.3l-.8,.2l.1,.3Z" class="g1_2107"/>
<path d="M641.8,642.1l.1,.4l-.7,.2l-.1,-.4Z" class="g1_2107"/>
<path d="M640.5,636.3l-.8,.2l1.4,5.8l.7,-.2Z" class="g1_2107"/>
<path d="M659.5,644.7l-.8,-.4l-7.6,14.4l.7,.4Z" class="g1_2107"/>
<path d="M663.2,647.3l-.5,-.6l-11.5,11.9l-.1,.2l-.3,1.3l1,-.9Z" class="g1_2107"/>
<path d="M651.1,658.8l.7,.2l3.4,-16.1l-.7,-.2Z" class="g1_2107"/>
<path d="M664.2,635.8l.2,-.3l-.6,-.3l-.2,.2Z" class="g1_2107"/>
<path d="M659.5,644.7l-.2,.3l-.7,-.4l.2,-.3Z" class="g1_2107"/>
<path d="M664.2,635.8l-.6,-.4l-4.8,8.9l.7,.4Z" class="g1_2107"/>
<path d="M672.7,651.6l-.3,-.6l-13.7,8.8l.4,.6Z" class="g1_2107"/>
<path d="M674.8,655.7l-.2,-.7l-15.8,4.7l-.2,.1l-.9,1l1.3,-.3Z" class="g1_2107"/>
<path d="M658.6,659.8l.6,.6L670,648l-.6,-.6Z" class="g1_2107"/>
<path d="M694.6,637.5l.2,-.1l-.3,-.7l-.3,.2Z" class="g1_2107"/>
<path d="M672.7,651.7l-.2,.1l-.4,-.6l.3,-.2Z" class="g1_2107"/>
<path d="M694.6,637.5l-.4,-.6L672.4,651l.3,.7Z" class="g1_2107"/>
<path d="M327.5,561.9h106v-.7h-106v.7Z" class="g1_2107"/>
<path d="M432.8,580.2h.7V561.6h-.7v18.6Z" class="g1_2107"/>
<path d="M327.2,580.2H433.1v-.7H327.2v.7Z" class="g1_2107"/>
<path d="M327.2,579.9h.7V561.2h-.7v18.7Z" class="g1_2107"/>
<path d="M353.6,579.9h.7V561.2h-.7v18.7Z" class="g1_2107"/>
<path d="M380,579.9h.7V561.2H380v18.7Z" class="g1_2107"/>
<path d="M406.4,579.9h.7V561.2h-.7v18.7Z" class="g1_2107"/>
<path d="M327.5,611.9h106v-.8h-106v.8Z" class="g1_2107"/>
<path d="M432.8,630.2h.7V611.5h-.7v18.7Z" class="g1_2107"/>
<path d="M327.2,630.2H433.1v-.7H327.2v.7Z" class="g1_2107"/>
<path d="M327.2,629.8h.7V611.1h-.7v18.7Z" class="g1_2107"/>
<path d="M353.6,629.8h.7V611.1h-.7v18.7Z" class="g1_2107"/>
<path d="M380,629.8h.7V611.1H380v18.7Z" class="g1_2107"/>
<path d="M406.4,611.5h.7v-.4h-.7v.4Z" class="g1_2107"/>
<path d="M406.4,629.8h.7V611.5h-.7v18.3Z" class="g1_2107"/>
<path d="M328.4,526.3H434.3v-.8H328.4v.8Z" class="g1_2107"/>
<path d="M433.6,544.6h.7V525.9h-.7v18.7Z" class="g1_2107"/>
<path d="M328,544.6H433.9v-.7H328v.7Z" class="g1_2107"/>
<path d="M328,544.2h.7V525.5H328v18.7Z" class="g1_2107"/>
<path d="M354.4,525.9h.7v-.4h-.7v.4Z" class="g1_2107"/>
<path d="M354.4,544.2h.7V525.9h-.7v18.3Z" class="g1_2107"/>
<path d="M380.8,525.9h.7v-.4h-.7v.4Z" class="g1_2107"/>
<path d="M380.8,544.2h.7V525.9h-.7v18.3Z" class="g1_2107"/>
<path d="M407.2,525.9h.7v-.4h-.7v.4Z" class="g1_2107"/>
<path d="M407.2,544.2h.7V525.9h-.7v18.3Z" class="g1_2107"/>
<path d="M338,584.3l-1.3,.2l-1.2,.3h.1l-1,.6l.1,-.1l-1,.7l-.8,.9l.1,-.1l-.5,1.1l-.4,1.2l-.2,1.2v-.1l.2,1.3v-.1l.4,1.1v-.1l.5,1.1h-.1l.8,1v-.1l1,.7h-.1l1,.6h-.1l1.2,.3l1.3,.1h-.1h2.7l1.2,-.1h-.1l1.2,-.3h-.1l1.1,-.6l1,-.7l-.1,.1l.7,-1l.6,-1.1l-.1,.1l.4,-1.1v.1l.1,-1.3v.1l-.1,-1.2l-.4,-1.2h.1l-.6,-1.1v.1l-.7,-.9h.1l-1,-.7v.1l-1.1,-.6h.1l-1.2,-.3h.1l-1.2,-.2h-2.7v-.8h1.4c2.4,-.2,5.5,.8,6.7,3h.1l.7,1.1v.1c.9,2.6,.5,5.2,-1.5,7.2l-.9,.8h-.1l-1.1,.7h-.1l-1.2,.4h-5.4l-1.2,-.4h-.1l-1,-.7l-1,-.8h-.1l-.7,-.9v-.1l-.6,-1.1h-.1l-.3,-1.1v-.1c-.4,-1.3,-.1,-2.7,.3,-3.9l.1,-.1l.6,-1.1l.7,-.9l.1,-.1l1,-.8l1,-.5l.1,-.1l1.2,-.4h.1l1.3,-.2Z" class="g1_2107"/>
<path d="M337.9,584.3h.1l-.1,-.8Z" class="g1_2107"/>
<path d="M332.2,597.9L331,598l-1.2,.4h.1l-1,.6l.1,-.1l-.9,.7l-.8,.9l.1,-.1l-.5,1v-.1l-.4,1.2l-.1,1.2v-.1l.1,1.2v-.1l.4,1.2v-.1l.5,1h-.1l.8,1v-.1l.9,.7h-.1l1,.5h-.1l1.2,.3l1.2,.1h-.1h16.1l1.1,-.1l1.1,-.3l1,-.5l.9,-.7l-.1,.1l.7,-1l.6,-1l-.1,.1l.3,-1.2v.1l.1,-1.2v.1l-.1,-1.2l-.3,-1.2l.1,.1l-.6,-1v.1l-.7,-.9h.1l-.9,-.7v.1l-1,-.6l-1.1,-.4l-1.1,-.1H332.1v-.7h8.1c4.4,.7,10.3,-1.7,13.3,2.9h.1l.5,1v.1c.9,2.3,.5,5.2,-1.4,7l-.9,.7l-.1,.1l-1,.6h-.1l-1.2,.3l-1.2,.1H332.1l-1.2,-.1h-.1l-1.2,-.3h-.1l-1,-.6v-.1l-.9,-.7h-.1l-.7,-.9v-.1l-.6,-1l-.1,-.1l-.3,-1.2l-.1,-1.2v-.1l.1,-1.2v-.1c.6,-2.5,2.5,-4.4,5,-5h.1l1.2,-.1Z" class="g1_2107"/>
<path d="M332.1,597.9h.1l-.1,-.7Z" class="g1_2107"/>
<path d="M421.6,584.3l-1.3,.2l-1.2,.3h.1l-1,.6l.1,-.1l-1,.7l-.8,.9l.1,-.1l-.5,1.1l-.4,1.2l-.2,1.2v-.1l.2,1.3v-.1l.4,1.1v-.1l.5,1.1h-.1l.8,1v-.1l1,.7h-.1l1,.6h-.1l1.2,.3l1.3,.1h-.1h2.7l1.2,-.1h-.1l1.2,-.3h-.1l1.1,-.6l1,-.7l-.1,.1l.7,-1l.6,-1.1l-.1,.1l.4,-1.1v.1l.1,-1.3v.1l-.1,-1.2l-.4,-1.2h.1l-.6,-1.1v.1l-.7,-.9h.1l-1,-.7v.1l-1.1,-.6h.1l-1.2,-.3h.1l-1.2,-.2h-2.7v-.8h1.4c2.4,-.2,5.5,.8,6.7,3h.1l.7,1.1v.1c.9,2.6,.5,5.2,-1.5,7.2l-.9,.8h-.1l-1.1,.7h-.1l-1.2,.4h-5.4l-1.2,-.4h-.1l-1,-.7l-1,-.8h-.1L416,594v-.1l-.6,-1.1h-.1l-.3,-1.1v-.1c-.4,-1.3,-.1,-2.7,.3,-3.9l.1,-.1l.6,-1.1l.7,-.9l.1,-.1l1,-.8l1,-.5l.1,-.1l1.2,-.4h.1l1.3,-.2Z" class="g1_2107"/>
<path d="M421.5,584.3h.1l-.1,-.8Z" class="g1_2107"/>
<path d="M415.8,597.9l-1.2,.1l-1.2,.4h.1l-1,.6l.1,-.1l-.9,.7l-.8,.9l.1,-.1l-.5,1v-.1l-.4,1.2l-.1,1.2v-.1l.1,1.2v-.1l.4,1.2v-.1l.5,1h-.1l.8,1v-.1l.9,.7h-.1l1,.5h-.1l1.2,.3l1.2,.1h-.1h16.1l1.2,-.1h-.1l1.1,-.3l1,-.5l.9,-.7l-.1,.1l.7,-1l.6,-1l-.1,.1l.3,-1.2v.1l.1,-1.2v.1l-.1,-1.2l-.3,-1.2l.1,.1l-.6,-1v.1l-.7,-.9h.1l-.9,-.7v.1l-1,-.6l-1.1,-.4h.1l-1.2,-.1H415.7v-.7h16.1l1.3,.1h.1l1.1,.4v.1l1,.5h.1l.9,.7v.1l.8,1h.1l.5,1v.1c.9,2.3,.5,5.2,-1.4,7l-.9,.7l-.1,.1l-1,.6l-1.1,.3h-.1l-1.3,.1H415.7l-1.2,-.1h-.1l-1.2,-.3h-.1l-1,-.6v-.1l-.9,-.7h-.1l-.7,-.9v-.1l-.6,-1v-.1l-.4,-1.2l-.1,-1.2v-.1l.1,-1.2v-.1c.6,-2.5,2.5,-4.4,5,-5h.1l1.2,-.1Z" class="g1_2107"/>
<path d="M415.7,597.9h.1l-.1,-.7Z" class="g1_2107"/>
<path d="M365.8,584.3l-1.2,.2l-1.2,.3h.1l-1,.6v-.1l-1,.7l-.7,.9l.1,-.1l-.6,1.1l-.3,1.2l-.2,1.2v-.1l.2,1.3v-.1l.3,1.1v-.1l.6,1.1h-.1l.7,1v-.1l1,.7l1,.6h-.1l1.2,.3l1.2,.1h2.7l1.2,-.1h-.1l1.2,-.3h-.1l1.1,-.6l.9,-.7l-.1,.1l.8,-1l.6,-1.1l-.1,.1l.4,-1.1v.1l.1,-1.3v.1l-.1,-1.2l-.4,-1.2h.1l-.6,-1.1v.1l-.8,-.9h.1l-.9,-.7v.1l-1.1,-.6h.1l-1.2,-.3h.1l-1.2,-.2h-2.7v-.8h1.3c2.4,-.2,5.6,.8,6.8,3h.1l.6,1.1v.1c1,2.6,.6,5.2,-1.4,7.2l-.9,.8h-.1l-1.1,.7H371l-1.2,.4h-5.4l-1.2,-.4h-.1l-1,-.7l-1,-.8H361l-.7,-.9v-.1l-.6,-1.1h-.1l-.4,-1.1v-.1c-.4,-1.3,0,-2.7,.4,-3.9l.1,-.1l.6,-1.1l.7,-.9l.1,-.1l1,-.8l1,-.5l.1,-.1l1.2,-.4h.1l1.3,-.2Z" class="g1_2107"/>
<path d="M365.7,584.3h.1l-.1,-.8Z" class="g1_2107"/>
<path d="M360.1,597.9l-1.2,.1l-1.2,.4h.1l-1,.6l.1,-.1l-1,.7l-.7,.9l.1,-.1l-.6,1v-.1l-.3,1.2l-.1,1.2v-.1l.1,1.2v-.1l.3,1.2v-.1l.6,1h-.1l.7,1v-.1l1,.7h-.1l1,.5h-.1l1.2,.3l1.2,.1H360h16l1.2,-.1h-.1l1.2,-.3h-.1l1,-.5l.9,-.7l-.1,.1l.8,-1l.5,-1l-.1,.1l.4,-1.2v.1l.1,-1.2v.1l-.1,-1.2l-.4,-1.2l.1,.1l-.5,-1v.1l-.8,-.9h.1l-.9,-.7v.1l-1,-.6h.1l-1.2,-.4h.1l-1.2,-.1H360v-.7h8c4.5,.7,10.4,-1.7,13.3,2.9h.1l.6,1v.1c.9,2.3,.5,5.2,-1.4,7l-.9,.7l-.1,.1l-1,.6h-.1l-1.2,.3l-1.2,.1H360l-1.2,-.1h-.1l-1.2,-.3h-.1l-1,-.6v-.1l-.9,-.7h-.1l-.7,-.9v-.1l-.6,-1l-.1,-.1l-.4,-1.2v-2.6c.6,-2.5,2.6,-4.4,5.1,-5h.1l1.2,-.1Z" class="g1_2107"/>
<path d="M360,597.9h.1l-.1,-.7Z" class="g1_2107"/>
<path d="M393.7,584.3l-1.3,.2l-1.2,.3h.1l-1,.6l.1,-.1l-1,.7l-.7,.9l.1,-.1l-.6,1.1l-.4,1.2l-.1,1.2v-.1l.1,1.3v-.1l.4,1.1v-.1l.6,1.1h-.1l.7,1v-.1l1,.7h-.1l1,.6h-.1l1.2,.3l1.3,.1h-.1h2.8l1.2,-.1h-.1l1.2,-.3h-.1l1.1,-.6l.9,-.7l-.1,.1l.7,-1l.7,-1.1l-.1,.1l.3,-1.1v.1l.1,-1.3v.1l-.1,-1.2l-.3,-1.2h.1l-.7,-1.1v.1l-.7,-.9h.1l-.9,-.7v.1l-1.1,-.6h.1l-1.2,-.3h.1l-1.2,-.2h-2.8v-.8H395c2.4,-.2,5.6,.8,6.8,3h.1l.6,1.1v.1c1,2.6,.5,5.2,-1.5,7.2l-.9,.8H400l-1.1,.7h-.1l-1.1,.4h-5.5l-1.1,-.4H391l-1,-.7l-1.1,-.8l-.8,-.9v-.1l-.5,-1.1h-.1l-.4,-1.1v-.1c-.4,-1.3,-.1,-2.7,.4,-3.9l.1,-.1l.5,-1.1l.8,-.9v-.1l1.1,-.8l1,-.5l.1,-.1l1.1,-.4h.1l1.3,-.2Z" class="g1_2107"/>
<path d="M393.6,584.3h.1l-.1,-.8Z" class="g1_2107"/>
<path d="M387.9,597.9l-1.2,.1l-1.1,.4l-1,.6l.1,-.1l-.9,.7l-.7,.9l.1,-.1l-.6,1v-.1l-.4,1.2v1.2v-.1v1.2v-.1l.4,1.2v-.1l.6,1h-.1l.7,1v-.1l.9,.7h-.1l1,.5l1.1,.3l1.2,.1h-.1h16.1l1.2,-.1H405l1.2,-.3h-.1l1,-.5l.9,-.7l-.1,.1l.8,-1l.5,-1l-.1,.1l.4,-1.2v.1l.1,-1.2v.1l-.1,-1.2l-.4,-1.2l.1,.1l-.5,-1v.1l-.8,-.9h.1l-.9,-.7v.1l-1,-.6h.1L405,598h.1l-1.2,-.1H387.8v-.7h8.1c4.5,.7,10.4,-1.7,13.3,2.9h.1l.5,1v.1c1,2.3,.5,5.2,-1.3,7l-.9,.7l-.1,.1l-1,.6h-.1l-1.2,.3L404,610H387.8l-1.1,-.1h-.1l-1.2,-.3h-.1l-1,-.6v-.1l-.9,-.7h-.1l-.8,-.9v-.1l-.5,-1l-.1,-.1l-.4,-1.2l-.1,-1.2v-.1l.1,-1.2v-.1c.6,-2.5,2.5,-4.4,5.1,-5h.1l1.1,-.1Z" class="g1_2107"/>
<path d="M387.8,597.9h.1l-.1,-.7Z" class="g1_2107"/>
<path d="M421.9,582h.8V565.8h-.8V582Z" class="g1_2107"/>
<path d="M427.3,566.2l-.8,-.2l-4.6,15.9v.2l.4,1.3l.4,-1.3Z" class="g1_2107"/>
<path d="M421.9,582.1l.8,-.2L418.1,566l-.7,.2Z" class="g1_2107"/>
<path d="M421.9,566.1h.8V533.5h-.8v32.6Z" class="g1_2107"/>
<path d="M341,582.7h.7V566.5H341v16.2Z" class="g1_2107"/>
<path d="M346.2,567l-.7,-.2L341,582.6v.2l.4,1.3l.3,-1.3Z" class="g1_2107"/>
<path d="M341,582.8l.7,-.2l-4.6,-15.8l-.7,.2Z" class="g1_2107"/>
<path d="M341,566.9h.7V534.2H341v32.7Z" class="g1_2107"/>
<path d="M366.2,584.3h.7V568.1h-.7v16.2Z" class="g1_2107"/>
<path d="M371.4,568.5l-.7,-.2l-4.5,15.9v.2l.4,1.3l.3,-1.3Z" class="g1_2107"/>
<path d="M366.2,584.4l.7,-.2l-4.5,-15.9l-.8,.2Z" class="g1_2107"/>
<path d="M366.2,568.4h.7V535.8h-.7v32.6Z" class="g1_2107"/>
<path d="M394.4,582h.8V565.8h-.8V582Z" class="g1_2107"/>
<path d="M399.8,566.2L399,566l-4.6,15.9v.2l.4,1.3l.4,-1.3Z" class="g1_2107"/>
<path d="M394.4,582.1l.8,-.2L390.6,566l-.7,.2Z" class="g1_2107"/>
<path d="M394.4,566.1h.8V533.5h-.8v32.6Z" class="g1_2107"/>
<path d="M354.2,643.6l-.6,.5L366,654.7l.6,-.6Z" class="g1_2107"/>
<path d="M357.4,640.5l-.5,.3l9.1,13.8l.1,.2l1.2,.5l-.7,-1.1Z" class="g1_2107"/>
<path d="M366.1,654.8l.4,-.8l-15.1,-6.8l-.3,.7Z" class="g1_2107"/>
<path d="M341.6,632.9l-.2,-.2l-.5,.5l.3,.2Z" class="g1_2107"/>
<path d="M354.2,643.6l.3,.2l-.5,.5l-.3,-.2Z" class="g1_2107"/>
<path d="M341.6,632.9l-.4,.5l12.5,10.7l.5,-.5Z" class="g1_2107"/>
<path d="M366.8,635l-.8,.2l3.7,15.8l.7,-.2Z" class="g1_2107"/>
<path d="M371.3,634.4h-.8l-.8,16.5v.2l.6,1.2l.1,-1.4Z" class="g1_2107"/>
<path d="M369.7,651.1l.7,-.4l-8,-14.4l-.8,.4Z" class="g1_2107"/>
<path d="M365.4,629.2l-.1,-.4l-.7,.2l.1,.4Z" class="g1_2107"/>
<path d="M366.8,635v.3l-.7,.2l-.1,-.3Z" class="g1_2107"/>
<path d="M365.4,629.2l-.7,.2l1.3,5.8l.8,-.2Z" class="g1_2107"/>
<path d="M384.4,637.6l-.8,-.3L376,651.6l.8,.3Z" class="g1_2107"/>
<path d="M388.1,640.2l-.5,-.5l-11.5,11.8l-.1,.2l-.3,1.2l1,-.9Z" class="g1_2107"/>
<path d="M376,651.7l.7,.1l3.4,-16.1l-.7,-.2Z" class="g1_2107"/>
<path d="M389,628.7l.2,-.2l-.6,-.4l-.2,.3Z" class="g1_2107"/>
<path d="M384.4,637.6l-.2,.3l-.7,-.4l.2,-.2Z" class="g1_2107"/>
<path d="M389,628.7l-.6,-.3l-4.7,8.9l.7,.3Z" class="g1_2107"/>
<path d="M397.6,644.5l-.4,-.5l-13.7,8.8l.4,.5Z" class="g1_2107"/>
<path d="M399.7,648.6l-.2,-.7l-15.9,4.8l-.2,.1l-.9,1l1.3,-.4Z" class="g1_2107"/>
<path d="M383.4,652.8l.6,.5l10.9,-12.5l-.6,-.5Z" class="g1_2107"/>
<path d="M419.5,630.5l.2,-.2l-.3,-.6l-.3,.1Z" class="g1_2107"/>
<path d="M397.6,644.6l-.3,.2l-.4,-.7l.3,-.1Z" class="g1_2107"/>
<path d="M419.5,630.5l-.4,-.7L397.2,644l.4,.6Z" class="g1_2107"/>
<path d="M194.2,418h106v-.7h-106v.7Z" class="g1_2107"/>
<path d="M299.5,436.3h.7V417.6h-.7v18.7Z" class="g1_2107"/>
<path d="M193.8,436.3h106v-.7h-106v.7Z" class="g1_2107"/>
<path d="M193.8,436h.7V417.3h-.7V436Z" class="g1_2107"/>
<path d="M220.2,435.9h.7V417.3h-.7v18.6Z" class="g1_2107"/>
<path d="M246.7,435.9h.7V417.3h-.7v18.6Z" class="g1_2107"/>
<path d="M273.1,435.9h.7V417.3h-.7v18.6Z" class="g1_2107"/>
<path d="M194.2,467.9h106v-.8h-106v.8Z" class="g1_2107"/>
<path d="M299.5,486.2h.7V467.5h-.7v18.7Z" class="g1_2107"/>
<path d="M193.8,486.2h106v-.7h-106v.7Z" class="g1_2107"/>
<path d="M193.8,485.8h.7V467.1h-.7v18.7Z" class="g1_2107"/>
<path d="M220.2,485.8h.7V467.1h-.7v18.7Z" class="g1_2107"/>
<path d="M246.7,485.8h.7V467.1h-.7v18.7Z" class="g1_2107"/>
<path d="M273.1,485.8h.7V467.1h-.7v18.7Z" class="g1_2107"/>
<path d="M195,382.3H300.9v-.7H195v.7Z" class="g1_2107"/>
<path d="M300.2,400.7h.7V382h-.7v18.7Z" class="g1_2107"/>
<path d="M194.6,400.7h106v-.8h-106v.8Z" class="g1_2107"/>
<path d="M194.6,400.3h.7V381.6h-.7v18.7Z" class="g1_2107"/>
<path d="M221,400.3h.7V381.6H221v18.7Z" class="g1_2107"/>
<path d="M247.4,400.3h.7V381.6h-.7v18.7Z" class="g1_2107"/>
<path d="M273.8,400.3h.7V381.6h-.7v18.7Z" class="g1_2107"/>
<path d="M204.6,440.4l-1.3,.1l-1.2,.3h.1l-1,.7l.1,-.1l-.9,.7l-.8,.9v-.1l-.5,1.1v-.1l-.4,1.2l-.1,1.2v-.1l.1,1.3v-.1l.4,1.2v-.1l.5,1.1l.8,.9v-.1l.9,.8h-.1l1,.5l-.1,-.1l1.2,.4l1.3,.2h-.1h2.8l1.2,-.2l1.1,-.4l-.1,.1l1.1,-.5l.9,-.8l-.1,.1l.8,-.9l.6,-1.1l-.1,.1l.3,-1.2v.1l.1,-1.3v.1l-.1,-1.2l-.3,-1.2l.1,.1l-.6,-1.1v.1l-.8,-.9h.1l-.9,-.7v.1l-1.1,-.7h.1l-1.1,-.3l-1.2,-.1h-2.8v-.8h2.9l1.2,.1h.1l1.1,.4v.1l1.1,.6h.1l.9,.8l.9,1l.6,1.1v.1c.9,2.1,.5,5.7,-1.5,7.2l-.9,.7l-.1,.1l-1.1,.6l-1.1,.3h-.1l-1.2,.2h-2.9l-1.3,-.2h-.1l-1.2,-.3h-.1l-1,-.6v-.1l-.9,-.7h-.1l-.8,-.9V450l-.5,-1.1l-.1,-.1l-.4,-1.2l-.1,-1.3v-.1L198,445v-.1c.5,-2.4,2.7,-4.6,5.1,-5.2h.1l1.3,-.1Z" class="g1_2107"/>
<path d="M204.5,440.4h.1l-.1,-.8Z" class="g1_2107"/>
<path d="M198.8,454l-1.2,.1l-1.2,.4h.1l-1,.5l.1,-.1l-.9,.8l-.7,.9l.1,-.1l-.6,1v-.1l-.4,1.2v1.2v-.1v1.2v-.1l.4,1.2v-.1l.6,1H194l.7,.9v-.1l.9,.8h-.1l1,.5l-.1,-.1l1.2,.4l1.2,.1h-.1h16.1l1.3,-.1H216l1.1,-.4l-.1,.1l1,-.5l.9,-.8l-.1,.1l.7,-.9l.6,-1l-.1,.1l.4,-1.2v.1l.1,-1.2v.1l-.1,-1.2l-.4,-1.2l.1,.1l-.6,-1v.1l-.7,-.9h.1l-.9,-.8v.1l-1,-.5h.1l-1.1,-.4h.1l-1.3,-.1H198.7v-.7h16.2l1.2,.1h.1l1.1,.4l1,.6h.1l1,.7v.1l.7,.9h.1l.5,1v.1c1,2.4,.5,5.3,-1.3,7.1l-1,.7l-.1,.1l-1,.6l-1.1,.3h-.1l-1.2,.1H198.7l-1.2,-.1l-1.2,-.3h-.1l-1,-.6V465l-1,-.7l-.8,-.9v-.1l-.5,-1l-.1,-.1l-.4,-1.2l-.1,-1.2v-.1l.1,-1.2v-.1c.6,-2.5,2.5,-4.4,5.1,-5l1.2,-.1Z" class="g1_2107"/>
<path d="M198.7,454h.1l-.1,-.7Z" class="g1_2107"/>
<path d="M288.2,440.4l-1.3,.1l-1.2,.3h.1l-1,.7l.1,-.1l-.9,.7l-.8,.9v-.1l-.5,1.1v-.1l-.4,1.2l-.1,1.2v-.1l.1,1.3v-.1l.4,1.2v-.1l.5,1.1l.8,.9v-.1l.9,.8h-.1l1,.5l-.1,-.1l1.2,.4l1.3,.2h-.1h2.8l1.2,-.2l1.1,-.4l-.1,.1l1.1,-.5l.9,-.8l-.1,.1l.8,-.9l.6,-1.1l-.1,.1l.3,-1.2v.1l.1,-1.3v.1l-.1,-1.2l-.3,-1.2l.1,.1l-.6,-1.1v.1l-.8,-.9h.1l-.9,-.7v.1l-1.1,-.7h.1l-1.1,-.3l-1.2,-.1h-2.8v-.8H291l1.2,.1h.1l1.1,.4v.1l1.1,.6h.1l.9,.8l.9,1l.6,1.1v.1c.9,2.1,.5,5.7,-1.5,7.2l-.9,.7l-.1,.1l-1.1,.6l-1.1,.3h-.1l-1.2,.2h-2.9l-1.3,-.2h-.1l-1.2,-.3h-.1l-1,-.6v-.1l-.9,-.7h-.1l-.8,-.9V450l-.5,-1.1l-.1,-.1l-.4,-1.2l-.1,-1.3v-.1l.1,-1.2v-.1c.5,-2.4,2.7,-4.6,5.1,-5.2h.1l1.3,-.1Z" class="g1_2107"/>
<path d="M288.1,440.4h.1l-.1,-.8Z" class="g1_2107"/>
<path d="M282.4,454l-1.2,.1l-1.2,.4h.1l-1,.5l.1,-.1l-.8,.8l-.8,.9l.1,-.1l-.6,1v-.1l-.3,1.2l-.1,1.2v-.1l.1,1.2v-.1l.3,1.2v-.1l.6,1h-.1l.8,.9v-.1l.8,.8h-.1l1,.5l-.1,-.1l1.2,.4l1.2,.1h-.1h16.1l1.3,-.1h-.1l1.1,-.4l-.1,.1l1,-.5l.9,-.8l-.1,.1l.7,-.9l.6,-1l-.1,.1l.4,-1.2v.1l.1,-1.2v.1l-.1,-1.2l-.4,-1.2l.1,.1l-.6,-1v.1l-.7,-.9h.1l-.9,-.8v.1l-1,-.5h.1l-1.1,-.4h.1l-1.3,-.1H282.3v-.7h16.2l1.2,.1h.1l1.1,.4l1.1,.6l1,.7v.1l.7,.9h.1l.5,1v.1c1,2.4,.5,5.3,-1.3,7.1l-1,.7v.1l-1.1,.6l-1.1,.3h-.1l-1.2,.1H282.3l-1.2,-.1l-1.2,-.3h-.1l-1,-.6V465l-.9,-.7h-.1l-.8,-.9v-.1l-.5,-1l-.1,-.1l-.3,-1.2l-.2,-1.2v-.1l.2,-1.2v-.1c.2,-2.2,2.8,-4.7,5,-5l1.2,-.1Z" class="g1_2107"/>
<path d="M282.3,454h.1l-.1,-.7Z" class="g1_2107"/>
<path d="M232.5,440.4l-1.3,.1l-1.2,.3h.1l-1,.7l.1,-.1l-.9,.7l-.9,.9l.1,-.1L227,444v-.1l-.4,1.2l-.1,1.2v-.1l.1,1.3v-.1l.4,1.2v-.1l.5,1.1h-.1l.9,.9v-.1l.9,.8h-.1l1,.5l-.1,-.1l1.2,.4l1.3,.2h-.1h2.7l1.3,-.2h-.1l1.1,-.4l-.1,.1l1.1,-.5l.9,-.8v.1l.8,-.9l.5,-1.1l-.1,.1l.4,-1.2v.1l.1,-1.3v.1l-.1,-1.2l-.4,-1.2l.1,.1l-.5,-1.1v.1l-.8,-.9l-.9,-.7v.1l-1.1,-.7h.1l-1.1,-.3h.1l-1.3,-.1h-2.7v-.8h2.8l1.3,.1h.1l1.1,.4v.1l1.1,.6h.1l.9,.8l.8,1h.1l.6,1.1v.1c.9,2.1,.4,5.7,-1.5,7.2l-.9,.7l-.1,.1l-1.1,.6l-1.1,.3h-.1l-1.3,.2h-2.8l-1.3,-.2H231l-1.2,-.3h-.1l-1,-.6v-.1l-.9,-.7h-.1l-.8,-.9V450l-.6,-1.1l-.1,-.1l-.3,-1.2l-.1,-1.3v-.1l.1,-1.2v-.1c.4,-2.4,2.7,-4.6,5.1,-5.2h.1l1.3,-.1Z" class="g1_2107"/>
<path d="M232.4,440.4h.1l-.1,-.8Z" class="g1_2107"/>
<path d="M226.7,454l-1.2,.1l-1.2,.4h.1l-1,.5l.1,-.1l-.9,.8l-.8,.9l.1,-.1l-.5,1v-.1l-.3,1.2l-.2,1.2v-.1l.2,1.2v-.1l.3,1.2v-.1l.5,1h-.1l.8,.9v-.1l.9,.8h-.1l1,.5l-.1,-.1l1.2,.4l1.2,.1h-.1h16l1.3,-.1h-.1l1.1,-.4l-.1,.1l1,-.5l1,-.8l-.1,.1l.7,-.9l.6,-1l-.1,.1l.3,-1.2v.1l.1,-1.2v.1l-.1,-1.2l-.3,-1.2l.1,.1l-.6,-1v.1l-.7,-.9h.1l-1,-.8v.1l-1,-.5h.1l-1.1,-.4h.1l-1.3,-.1h-16v-.7h16.1l1.3,.1h.1l1.1,.4l1,.6h.1l.9,.7v.1l.8,.9h.1l.5,1v.1c.9,2.4,.5,5.3,-1.4,7.1l-.9,.7l-.1,.1l-1,.6l-1.1,.3H244l-1.3,.1H226.6l-1.2,-.1h-.1l-1.2,-.3H224l-1,-.6V465l-.9,-.7H222l-.7,-.9v-.1l-.6,-1l-.1,-.1l-.2,-1.2l-.2,-1.2v-.1l.2,-1.2v-.1c.3,-2.4,2.6,-4.5,4.9,-5h.1l1.2,-.1Z" class="g1_2107"/>
<path d="M226.6,454h.1l-.1,-.7Z" class="g1_2107"/>
<path d="M260.3,440.4l-1.3,.1l-1.1,.3l-1,.7l.1,-.1l-.9,.7l-.8,.9l.1,-.1l-.6,1.1v-.1l-.3,1.2l-.1,1.2v-.1l.1,1.3v-.1l.3,1.2v-.1l.6,1.1h-.1l.8,.9v-.1l.9,.8h-.1l1,.5v-.1l1.1,.4l1.3,.2h-.1H263l1.3,-.2h-.1l1.1,-.4l-.1,.1l1.1,-.5l.9,-.8l-.1,.1l.8,-.9l.6,-1.1l-.1,.1l.4,-1.2v.1l.1,-1.3v.1l-.1,-1.2l-.4,-1.2l.1,.1l-.6,-1.1v.1l-.8,-.9h.1l-.9,-.7v.1l-1.1,-.7h.1l-1.1,-.3h.1l-1.3,-.1h-2.8v-.8h2.9l1.3,.1h.1l1.1,.4v.1l1.1,.6l1,.8l.8,1h.1l.5,1.1v.1c1,2.1,.5,5.7,-1.4,7.2l-1,.7v.1l-1.1,.6l-1.1,.3h-.1l-1.3,.2h-2.9l-1.2,-.2h-.1l-1.2,-.3h-.1l-1,-.6v-.1l-.9,-.7h-.1l-.9,-.9V450l-.5,-1.1l-.1,-.1l-.4,-1.2l-.1,-1.3v-.1l.1,-1.2v-.1c.5,-2.4,2.8,-4.6,5.2,-5.2h.1l1.2,-.1Z" class="g1_2107"/>
<path d="M260.2,440.4h.1l-.1,-.8Z" class="g1_2107"/>
<path d="M254.6,454l-1.2,.1l-1.2,.4h.1l-1,.5v-.1l-.8,.8l-.8,.9l.1,-.1l-.6,1v-.1l-.2,1.2l-.2,1.2v-.1l.2,1.2v-.1l.2,1.2v-.1l.6,1h-.1l.8,.9v-.1l.8,.8l1,.5l-.1,-.1l1.2,.4l1.2,.1h-.1h16l1.3,-.1h-.1l1.1,-.4l-.1,.1l1,-.5l.9,-.8l-.1,.1l.8,-.9l.5,-1l-.1,.1l.4,-1.2v.1l.1,-1.2v.1l-.1,-1.2l-.4,-1.2l.1,.1l-.5,-1v.1l-.8,-.9h.1l-.9,-.8v.1l-1,-.5h.1l-1.1,-.4h.1l-1.3,-.1h-16v-.7h16.1l1.3,.1h.1l1.1,.4l1,.6h.1l.9,.7v.1l.7,.9h.1l.6,1v.1c.9,2.4,.4,5.3,-1.4,7.1l-.9,.7l-.1,.1l-1,.6L272,466h-.1l-1.3,.1H254.5l-1.2,-.1h-.1l-1.2,-.3h-.1l-1,-.6V465l-.8,-.7H250l-.8,-.9v-.1l-.6,-1l-.1,-.1l-.3,-1.2l-.1,-1.2v-.1l.1,-1.2v-.1c.2,-2.2,2.8,-4.7,5,-5h.1l1.2,-.1Z" class="g1_2107"/>
<path d="M254.5,454h.1l-.1,-.7Z" class="g1_2107"/>
<path d="M288.6,438h.7V421.8h-.7V438Z" class="g1_2107"/>
<path d="M293.9,422.2l-.7,-.2l-4.6,15.9v.2l.3,1.3l.4,-1.3Z" class="g1_2107"/>
<path d="M288.6,438.1l.7,-.2L284.8,422l-.7,.2Z" class="g1_2107"/>
<path d="M288.6,422.1h.7V389.5h-.7v32.6Z" class="g1_2107"/>
<path d="M207.6,438.8h.8V422.6h-.8v16.2Z" class="g1_2107"/>
<path d="M212.9,423l-.7,-.1l-4.6,15.8v.2l.4,1.3l.4,-1.3Z" class="g1_2107"/>
<path d="M207.6,438.9l.8,-.2l-4.6,-15.8l-.8,.1Z" class="g1_2107"/>
<path d="M207.6,423h.8V390.3h-.8V423Z" class="g1_2107"/>
<path d="M232.8,440.3h.8V424h-.8v16.3Z" class="g1_2107"/>
<path d="M238.2,424.5l-.8,-.2l-4.6,15.9v.2l.4,1.2l.4,-1.2Z" class="g1_2107"/>
<path d="M232.8,440.4l.8,-.2L229,424.3l-.8,.2Z" class="g1_2107"/>
<path d="M232.8,392.1h.8v-.3h-.8v.3Z" class="g1_2107"/>
<path d="M232.8,424.4h.8V392.1h-.8v32.3Z" class="g1_2107"/>
<path d="M261.1,438h.7V421.8h-.7V438Z" class="g1_2107"/>
<path d="M266.4,422.2l-.7,-.2l-4.6,15.9v.2l.3,1.3l.4,-1.3Z" class="g1_2107"/>
<path d="M261.1,438.1l.7,-.2L257.3,422l-.7,.2Z" class="g1_2107"/>
<path d="M261.1,389.9h.7v-.4h-.7v.4Z" class="g1_2107"/>
<path d="M261.1,422.1h.7V389.9h-.7v32.2Z" class="g1_2107"/>
<path d="M220.8,499.7l-.5,.5l12.4,10.6l.5,-.6Z" class="g1_2107"/>
<path d="M224,496.6l-.5,.3l9.2,13.8v.2l1.2,.5l-.7,-1.1Z" class="g1_2107"/>
<path d="M232.7,510.9l.4,-.8l-15,-6.9l-.4,.8Z" class="g1_2107"/>
<path d="M208.3,489l-.3,-.2l-.5,.5l.3,.2Z" class="g1_2107"/>
<path d="M220.8,499.7l.3,.2l-.5,.5l-.2,-.2Z" class="g1_2107"/>
<path d="M208.3,489l-.5,.5l12.6,10.7l.4,-.5Z" class="g1_2107"/>
<path d="M233.4,491.1l-.7,.1l3.6,15.8l.7,-.2Z" class="g1_2107"/>
<path d="M237.9,490.5h-.8l-.8,16.4v.2l.7,1.2l.1,-1.4Z" class="g1_2107"/>
<path d="M236.3,507.1l.7,-.4l-7.9,-14.4l-.8,.4Z" class="g1_2107"/>
<path d="M232,485.3l-.1,-.4l-.7,.2l.1,.4Z" class="g1_2107"/>
<path d="M233.4,491.1l.1,.3l-.8,.2v-.4Z" class="g1_2107"/>
<path d="M232,485.3l-.7,.2l1.4,5.7l.7,-.1Z" class="g1_2107"/>
<path d="M251,493.7l-.7,-.3l-7.7,14.3l.8,.3Z" class="g1_2107"/>
<path d="M254.7,496.3l-.5,-.6l-11.5,11.9l-.1,.1l-.2,1.3l.9,-.9Z" class="g1_2107"/>
<path d="M242.6,507.7l.8,.2l3.4,-16.1l-.8,-.2Z" class="g1_2107"/>
<path d="M255.7,484.8l.2,-.2l-.6,-.4l-.2,.3Z" class="g1_2107"/>
<path d="M251,493.7l-.2,.3l-.6,-.4l.1,-.2Z" class="g1_2107"/>
<path d="M255.7,484.8l-.6,-.3l-4.8,8.8l.7,.4Z" class="g1_2107"/>
<path d="M264.2,500.6l-.4,-.6l-13.5,8.8l.3,.6Z" class="g1_2107"/>
<path d="M266.3,504.6l-.2,-.7l-15.8,4.9h-.1l-1,1.1l1.3,-.4Z" class="g1_2107"/>
<path d="M250.2,508.8l.5,.6l10.8,-12.5l-.5,-.5Z" class="g1_2107"/>
<path d="M286.1,486.5l.3,-.2l-.4,-.6l-.3,.1Z" class="g1_2107"/>
<path d="M264.2,500.7l-.3,.2l-.4,-.7l.3,-.2Z" class="g1_2107"/>
<path d="M286.1,486.5l-.4,-.7L263.8,500l.4,.7Z" class="g1_2107"/>
<path d="M573.7,507.8l-1.4,.1h.2l-1.4,.5l-1.3,.6l.1,-.1l-1,1L568,511l.1,-.1l-.8,1.2l-.3,1.3l-.2,1.5v-.1l.2,1.5v-.1l.3,1.3l.8,1.1H568l.9,1.1l1,.9h-.1l1.3,.6v-.1l1.4,.5h-.2l1.4,.1h.7l1.5,-.1h-.1l1.3,-.5l-.1,.1l1.3,-.6l1,-.9h-.1l1,-1.1l.7,-1.1h-.1l.4,-1.3v.1l.2,-1.5v.1l-.2,-1.5l-.4,-1.3h.1l-.7,-1.2v.1l-1,-1.1h.1l-1,-1v.1l-1.3,-.6h.1l-1.3,-.5h.1l-1.5,-.1h-.7v-.7h.7l1.5,.1h.1l1.4,.5l1.3,.7h.1l1,.9v.1l.9,1.1h.1l.7,1.3v.1c.8,2.3,.9,5.2,-.8,7.2l-.9,1.1l-1,.9c-2,1.5,-5.7,1.7,-8,.8h-.1l-1.3,-.7v-.1l-1,-.9h-.1l-.9,-1.1V519l-.7,-1.2l-.1,-.1l-.4,-1.3l-.2,-1.5v-.1l.2,-1.5v-.1c.6,-2.9,3.1,-5.3,6,-6h.1l1.4,-.1Z" class="g1_2107"/>
<path d="M573.7,507.8v-.7Z" class="g1_2107"/>
<path d="M242,508.3l-1.5,.1h.2l-1.4,.4l-1.2,.7v-.1l-1.1,.9l-.8,1.1l.1,-.1l-.7,1.2v-.1l-.4,1.4l-.2,1.5v-.1l.2,1.4v-.1l.4,1.4v-.1l.7,1.3h-.1l.8,1.1v-.1l1.1,.9l1.2,.7v-.1l1.4,.4h-.2l1.5,.1h.6l1.5,-.1H244l1.4,-.4l-.1,.1l1.2,-.7l1.1,-.9l-.1,.1l.9,-1.1l.7,-1.3l-.1,.1l.4,-1.4v.1l.2,-1.4v.1l-.2,-1.5v.1l-.4,-1.4h.1l-.7,-1.2v.1l-.9,-1.1h.1l-1.1,-.9v.1l-1.2,-.7h.1l-1.4,-.4h.1l-1.5,-.1H242v-.7h.6l1.5,.1h.2l1.4,.4v.1l1.2,.6h.1l1.1,1v.1l.9,1.1h.1l.6,1.1v.1l.5,1.4v.1l.1,1.5v.1l-.1,1.4v.1l-.5,1.4l-.6,1.3l-.1,.1l-.9,1.1l-1.1,.9c-1.9,1.5,-5.8,1.6,-7.9,.7H239l-1.3,-.6v-.1l-1.1,-.9h-.1l-.8,-1.1v-.1l-.8,-1.3v-.1l-.4,-1.4l-.2,-1.4v-.1l.2,-1.5v-.1l.4,-1.4v-.1c1.6,-2.7,2.6,-3.5,5.5,-4.4h.1l1.5,-.1Z" class="g1_2107"/>
<path d="M242,508.3v-.7Z" class="g1_2107"/>
<path d="M318.2,673l-.8,.4l7,14.6l.7,-.3Z" class="g1_2107"/>
<path d="M322.4,671.6l-.7,.1l2.7,16.3l.1,.1l.8,1l-.2,-1.3Z" class="g1_2107"/>
<path d="M324.5,688.1l.5,-.5L314.1,675.3l-.5,.6Z" class="g1_2107"/>
<path d="M245.6,521.7l-.1,-.3l-.7,.3l.1,.2Z" class="g1_2107"/>
<path d="M318.2,673.1l.1,.3l-.7,.3l-.1,-.3Z" class="g1_2107"/>
<path d="M245.6,521.7l-.7,.2l72.6,151.5l.7,-.3Z" class="g1_2107"/>
<path d="M549,674.4l-.7,-.2l-2.9,16l.8,.1Z" class="g1_2107"/>
<path d="M553.4,675.6l-.7,-.4l-7.3,14.9v.2l.1,1.3l.7,-1.2Z" class="g1_2107"/>
<path d="M545.4,690.2h.8l-1.8,-16.4h-.7Z" class="g1_2107"/>
<path d="M574.8,527.2v-.4l-.7,-.1v.4Z" class="g1_2107"/>
<path d="M549,674.4v.4l-.7,-.1v-.4Z" class="g1_2107"/>
<path d="M574.8,527.2l-.7,-.1L548.3,674.3l.7,.1Z" class="g1_2107"/>
<path d="M643.7,682.3l-.6,-.6l-11.4,11.5l.5,.5Z" class="g1_2107"/>
<path d="M646.5,685.9l-.3,-.8l-14.4,8l-.1,.2l-.8,1.2l1.2,-.8Z" class="g1_2107"/>
<path d="M631.7,693.3l.6,.3l8,-14.3l-.7,-.4Z" class="g1_2107"/>
<path d="M650.4,675.6l.3,-.3l-.6,-.5l-.3,.2Z" class="g1_2107"/>
<path d="M643.7,682.3l-.3,.2l-.5,-.5l.2,-.3Z" class="g1_2107"/>
<path d="M650.4,675.6l-.6,-.6l-6.7,6.7l.6,.6Z" class="g1_2107"/>
<path d="M408.8,683.2l-.5,.5l12.1,10.9l.5,-.6Z" class="g1_2107"/>
<path d="M412.2,680.2l-.5,.3l8.7,14l.1,.2l1.2,.5l-.8,-1.1Z" class="g1_2107"/>
<path d="M420.5,694.6l.3,-.7L406,686.7l-.4,.7Z" class="g1_2107"/>
<path d="M386.1,662.6l-.3,-.2l-.4,.5l.2,.2Z" class="g1_2107"/>
<path d="M408.8,683.2l.3,.2l-.4,.5l-.3,-.2Z" class="g1_2107"/>
<path d="M386.1,662.6l-.5,.5l22.8,20.6l.4,-.5Z" class="g1_2107"/>
<path d="M270.2,159H710.7v-.7H270.2v.7Z" class="g1_2107"/>
<path d="M710,179.3h.7V158.7H710v20.6Z" class="g1_2107"/>
<path d="M269.9,179.3H710.3v-.7H269.9v.7Z" class="g1_2107"/>
<path d="M269.9,178.9h.7V158.3h-.7v20.6Z" class="g1_2107"/>
<path d="M600,179.3h.7V158.7H600v20.6Z" class="g1_2107"/>
<path d="M490,179.3h.7V158.7H490v20.6Z" class="g1_2107"/>
<path d="M379.9,179.3h.7V158.7h-.7v20.6Z" class="g1_2107"/>
<path d="M468.3,213.4h106v-.7h-106v.7Z" class="g1_2107"/>
<path d="M573.6,231.7h.7V213h-.7v18.7Z" class="g1_2107"/>
<path d="M468,231.7H573.9V231H468v.7Z" class="g1_2107"/>
<path d="M468,231.4h.7V212.7H468v18.7Z" class="g1_2107"/>
<path d="M494.4,231.4h.7V212.7h-.7v18.7Z" class="g1_2107"/>
<path d="M520.8,231.4h.7V212.7h-.7v18.7Z" class="g1_2107"/>
<path d="M547.2,231.4h.7V212.7h-.7v18.7Z" class="g1_2107"/>
<path d="M520.4,213.6l.9,-4l.4,-.9l.8,.5l12.8,7l2.3,1.3l-2.6,.1l-14.6,.8l-1,.1l.2,-1l.7,-.5l14.6,-.9l.1,1.5l-.5,-.1l-12.8,-7l.8,-1.3l.4,.8l-1,3.9Z" class="g1_2107"/>
<path d="M519.6,217.5l.8,-3.9l1.5,.3l-.8,4Z" class="g1_2107"/>
<path fill-rule="evenodd" d="M521.1,213.8l.9,-4l12.9,7.1l-14.6,.8Z" class="g1_2107"/>
<path d="M351,175.6l-.4,-.1l-.2,.8l.4,.1Z" class="g1_2107"/>
<path d="M520.5,213.2l.3,.1l-.1,.7l-.4,-.1Z" class="g1_2107"/>
<path d="M351,175.6l-.2,.8L520.3,214l.2,-.8Z" class="g1_2107"/>
<path d="M523.1,208.4l1.8,-3.7l.4,-.8l.8,.6l10.9,9.8l2,1.8l-2.7,-.4l-14.4,-2.6l-1,-.2l.4,-1l.8,-.3l14.5,2.5l-.3,1.6l-.3,-.3l-10.9,-9.8l1,-1.1l.2,.9l-1.8,3.7Z" class="g1_2107"/>
<path d="M521.3,211.9l1.8,-3.5l1.4,.7l-1.8,3.6Z" class="g1_2107"/>
<path fill-rule="evenodd" d="M523.8,208.7l1.7,-3.6l10.9,9.8l-14.5,-2.6Z" class="g1_2107"/>
<path d="M451.1,172.6l-.3,-.2l-.4,.7l.3,.1Z" class="g1_2107"/>
<path d="M523.2,208.1l.3,.2l-.4,.6l-.2,-.2Z" class="g1_2107"/>
<path d="M451.1,172.6l-.4,.6l72.2,35.5l.3,-.6Z" class="g1_2107"/>
<path d="M535.2,201.9l4.1,-.5l1,-.1l-.2,1L538,216.9l-.4,2.6l-1.1,-2.4l-5.9,-13.5l-.4,-.9l1,-.2l.8,.4l6,13.5l-1.5,.7v-.5L538.6,202l1.5,.3l-.6,.6l-4.1,.6Z" class="g1_2107"/>
<path d="M531.2,202.5l4,-.6l.2,1.6l-4,.5Z" class="g1_2107"/>
<path fill-rule="evenodd" d="M535.3,202.7l4.1,-.6l-2.1,14.6l-6,-13.5Z" class="g1_2107"/>
<path d="M531.5,171.4v-.3h-.8v.4Z" class="g1_2107"/>
<path d="M535.6,201.9v.4l-.7,.1V202Z" class="g1_2107"/>
<path d="M531.5,171.4l-.8,.1l4.2,30.5l.7,-.1Z" class="g1_2107"/>
<path d="M555,207.7l2,3.6l.4,.9l-1,.2l-14.3,3.1l-2.6,.7l2,-2L551.9,204l.8,-.6l.4,.8l-.1,1l-10.4,10.1l-1.1,-1.1l.3,-.2l14.3,-3.1l.3,1.5l-.8,-.4l-1.9,-3.5Z" class="g1_2107"/>
<path d="M553.1,204.2l1.9,3.5l-1.3,.8l-2,-3.5Z" class="g1_2107"/>
<path fill-rule="evenodd" d="M554.4,208.1l1.9,3.6L542,214.8l10.5,-10.2Z" class="g1_2107"/>
<path d="M618.4,174.1l.3,-.2l-.4,-.6l-.3,.1Z" class="g1_2107"/>
<path d="M555.2,208.2l-.2,.2l-.4,-.7l.3,-.2Z" class="g1_2107"/>
<path d="M618.4,174.1l-.4,-.7l-63.1,34.1l.3,.7Z" class="g1_2107"/>
<path d="M268.4,288H708.8v-.7H268.4v.7Z" class="g1_2107"/>
<path d="M708,308.3h.8V287.7H708v20.6Z" class="g1_2107"/>
<path d="M268,308.3H708.4v-.8H268v.8Z" class="g1_2107"/>
<path d="M268,307.9h.8V287.3H268v20.6Z" class="g1_2107"/>
<path d="M598,288h.8v-.3H598v.3Z" class="g1_2107"/>
<path d="M598,308.3h.8V288H598v20.3Z" class="g1_2107"/>
<path d="M488,288h.8v-.3H488v.3Z" class="g1_2107"/>
<path d="M488,308.3h.8V288H488v20.3Z" class="g1_2107"/>
<path d="M378,288h.8v-.3H378v.3Z" class="g1_2107"/>
<path d="M378,308.3h.8V288H378v20.3Z" class="g1_2107"/>
<path d="M544.8,280.3l3.9,-.8l1,-.1l-.1,.9l-1,14.6l-.1,2.7l-1.3,-2.3l-6.8,-13l-.5,-1l.9,-.2l.9,.4l6.8,12.9l-1.3,.9v-.5l1,-14.6l1.4,.1l-.5,.7l-4,.9Z" class="g1_2107"/>
<path d="M540.8,281.1l4,-.8l.3,1.6l-3.9,.8Z" class="g1_2107"/>
<path fill-rule="evenodd" d="M545,281.1l3.9,-.9l-1,14.6L541,281.9Z" class="g1_2107"/>
<path d="M535.3,234.4l-.1,-.4l-.7,.2l.1,.4Z" class="g1_2107"/>
<path d="M545.1,280.2l.1,.4l-.7,.2l-.1,-.4Z" class="g1_2107"/>
<path d="M535.3,234.4l-.7,.2l9.8,45.8l.7,-.2Z" class="g1_2107"/>
<path d="M652.4,289.8l2.2,-3.3l.6,-.7l.7,.7l9.3,11.3l1.8,2l-2.6,-.8l-13.8,-4.7l-1,-.2l.5,-1l.9,-.2l13.9,4.6l-.5,1.5l-.4,-.3l-9.3,-11.2l1.2,-1v1l-2.2,3.3Z" class="g1_2107"/>
<path d="M650.1,293.2l2.3,-3.3l1.3,.9l-2.3,3.3Z" class="g1_2107"/>
<path fill-rule="evenodd" d="M653,290.3l2.2,-3.3l9.4,11.3l-13.9,-4.7Z" class="g1_2107"/>
<path d="M570.6,233.6l-.2,-.2l-.5,.6l.3,.2Z" class="g1_2107"/>
<path d="M652.7,289.6l.2,.2l-.4,.6l-.3,-.2Z" class="g1_2107"/>
<path d="M570.6,233.6l-.4,.6l82,56l.5,-.6Z" class="g1_2107"/>
<path d="M467,287.6l3.2,2.4l.7,.7l-.8,.5l-11.9,8.6l-2.2,1.6l1.1,-2.5l5.5,-13.5l.3,-1l.8,.7l.3,.8l-5.5,13.6l-1.4,-.6l.2,-.3l11.9,-8.7l.9,1.3h-.9l-3.3,-2.4Z" class="g1_2107"/>
<path d="M463.7,285.1l3.3,2.5l-1.1,1.2l-3.2,-2.5Z" class="g1_2107"/>
<path fill-rule="evenodd" d="M466.5,288.1l3.2,2.5l-11.9,8.6l5.5,-13.6Z" class="g1_2107"/>
<path d="M510.4,232.7l.2,-.2L510,232l-.1,.3Z" class="g1_2107"/>
<path d="M467.2,287.7l-.2,.3l-.5,-.4l.2,-.3Z" class="g1_2107"/>
<path d="M510.4,232.7l-.5,-.4l-43.2,55l.5,.4Z" class="g1_2107"/>
<path d="M333.1,291.1l1.6,3.8l.3,.9l-1,.2l-14.5,1.7l-2.7,.3l2.1,-1.6l11.5,-9.3l.8,-.6l.4,.9l-.2,.9l-11.5,9.3l-1,-1.2l.5,-.2l14.5,-1.8l.1,1.6l-.7,-.5l-1.6,-3.7Z" class="g1_2107"/>
<path d="M331.6,287.4l1.5,3.7l-1.4,.7L330.2,288Z" class="g1_2107"/>
<path fill-rule="evenodd" d="M332.5,291.4l1.5,3.8l-14.5,1.7l11.4,-9.3Z" class="g1_2107"/>
<path d="M470.3,233.6l.3,-.1l-.3,-.7l-.2,.1Z" class="g1_2107"/>
<path d="M333.3,291.5l-.3,.1l-.2,-.6l.2,-.1Z" class="g1_2107"/>
<path d="M470.3,233.6l-.2,-.7L333,290.9l.3,.6Z" class="g1_2107"/>
<path d="M490.1,325.8h.5v-9.3h-.5v9.3Z" class="g1_2107"/>
<path d="M490.3,325.8H707.9v-.5H490.3v.5Z" class="g1_2107"/>
<path d="M707.4,325.5h.5v-8.8h-.5v8.8Z" class="g1_2107"/>
<path d="M641.7,373.1l-.6,-.6l-10.2,12.7l.5,.4Z" class="g1_2107"/>
<path d="M644.9,376.3l-.4,-.6l-13.6,9.5l-.1,.1l-.5,1.3l1,-.9Z" class="g1_2107"/>
<path d="M630.8,385.3l.7,.3L638,370.4l-.7,-.3Z" class="g1_2107"/>
<path d="M680.9,325l.2,-.3l-.6,-.5l-.1,.3Z" class="g1_2107"/>
<path d="M641.7,373.1l-.2,.3l-.6,-.5l.2,-.3Z" class="g1_2107"/>
<path d="M680.9,325l-.5,-.5l-39.3,48.1l.6,.5Z" class="g1_2107"/>
<path d="M651.5,521.3l-.8,-.2l-3,16l.8,.2Z" class="g1_2107"/>
<path d="M655.9,522.6l-.8,-.4L647.7,537v.2l.1,1.3l.7,-1.1Z" class="g1_2107"/>
<path d="M647.7,537.2h.8l-1.6,-16.4h-.7Z" class="g1_2107"/>
<path d="M687.9,328.5v-.3l-.8,-.1v.3Z" class="g1_2107"/>
<path d="M651.5,521.3v.4l-.8,-.1v-.4Z" class="g1_2107"/>
<path d="M687.9,328.5l-.8,-.1L650.7,521.2l.8,.1Z" class="g1_2107"/>
<path d="M311.9,382.3l-.1,-.8l-15.6,4.3l.2,.8Z" class="g1_2107"/>
<path d="M312.7,386.7V386l-16.4,-.2h-.2l-1.1,.8h1.3Z" class="g1_2107"/>
<path d="M296.1,385.8l.4,.8l14,-8.7l-.4,-.7Z" class="g1_2107"/>
<path d="M513.4,327.3h.4l-.2,-.8l-.4,.1Z" class="g1_2107"/>
<path d="M311.9,382.3h-.3l-.2,-.7l.4,-.1Z" class="g1_2107"/>
<path d="M513.4,327.3l-.2,-.7L311.8,381.5l.1,.8Z" class="g1_2107"/>
<path d="M407.7,514.6l-.5,-.3L398.5,528l.5,.4Z" class="g1_2107"/>
<path d="M411.3,517.6l-.5,-.6l-12.3,10.9l-.1,.2l-.4,1.3l1,-.9Z" class="g1_2107"/>
<path d="M398.4,528.1l.7,.2l4.7,-15.9l-.7,-.2Z" class="g1_2107"/>
<path d="M526,327.9l.2,-.3l-.7,-.3l-.2,.2Z" class="g1_2107"/>
<path d="M407.8,514.6l-.2,.3l-.6,-.4l.2,-.2Z" class="g1_2107"/>
<path d="M526,327.9l-.7,-.4L407.2,514.3l.6,.3Z" class="g1_2107"/>
</svg>