<?xml version="1.0" encoding="UTF-8" standalone="no"?>
<!DOCTYPE svg PUBLIC "-//W3C//DTD SVG 1.1//EN"
"http://www.w3.org/Graphics/SVG/1.1/DTD/svg11.dtd">
<svg viewBox="0 0 935 1210" version="1.1" xmlns="http://www.w3.org/2000/svg" xmlns:xlink="http://www.w3.org/1999/xlink">
<defs>
<style type="text/css"><![CDATA[
.g0_2871{
fill: #FFF;
}
.g1_2871{
fill: #000;
}
]]></style>
</defs>
<path d="M68.9,1149.3H852.7v-21.2H68.9v21.2Z" class="g0_2871"/>
<path d="M70.9,195.2h.7V122.6h-.7v72.6Z" class="g1_2871"/>
<path d="M164.7,196h.8V121.8h-.8V196Z" class="g1_2871"/>
<path d="M851.1,195.2h.8V122.6h-.8v72.6Z" class="g1_2871"/>
<path d="M70.9,122.6h781v-.8H70.9v.8Z" class="g1_2871"/>
<path d="M70.9,147h781v-.7H70.9v.7Z" class="g1_2871"/>
<path d="M70.9,171.5h781v-.7H70.9v.7Z" class="g1_2871"/>
<path d="M70.9,195.9h781v-.7H70.9v.7Z" class="g1_2871"/>
<path d="M69.9,1075.3h.8V367h-.8v708.3Z" class="g1_2871"/>
<path d="M468.3,684.8h.8V366.3h-.8V684.8Z" class="g1_2871"/>
<path d="M468.3,880.5h.8v-172h-.8v172Z" class="g1_2871"/>
<path d="M468.3,1076h.8V904.1h-.8V1076Z" class="g1_2871"/>
<path d="M851.4,1075.3h.7V367h-.7v708.3Z" class="g1_2871"/>
<path d="M69.9,367H852.1v-.7H69.9v.7Z" class="g1_2871"/>
<path d="M69.9,391.5H852.1v-.7H69.9v.7Z" class="g1_2871"/>
<path d="M69.9,416H852.1v-.8H69.9v.8Z" class="g1_2871"/>
<path d="M69.9,440.4H852.1v-.8H69.9v.8Z" class="g1_2871"/>
<path d="M69.9,464.8H852.1v-.7H69.9v.7Z" class="g1_2871"/>
<path d="M69.9,489.3H852.1v-.7H69.9v.7Z" class="g1_2871"/>
<path d="M69.9,513.7H852.1V513H69.9v.7Z" class="g1_2871"/>
<path d="M69.9,538.2H852.1v-.8H69.9v.8Z" class="g1_2871"/>
<path d="M69.9,562.7H852.1v-.8H69.9v.8Z" class="g1_2871"/>
<path d="M69.9,587H852.1v-.7H69.9v.7Z" class="g1_2871"/>
<path d="M69.9,611.5H852.1v-.7H69.9v.7Z" class="g1_2871"/>
<path d="M69.9,636H852.1v-.8H69.9v.8Z" class="g1_2871"/>
<path d="M69.9,660.4H852.1v-.8H69.9v.8Z" class="g1_2871"/>
<path d="M69.9,684.8H852.1v-.7H69.9v.7Z" class="g1_2871"/>
<path d="M69.9,709.3H852.1v-.7H69.9v.7Z" class="g1_2871"/>
<path d="M69.9,733.7H852.1V733H69.9v.7Z" class="g1_2871"/>
<path d="M69.9,758.2H852.1v-.8H69.9v.8Z" class="g1_2871"/>
<path d="M69.9,782.7H852.1v-.8H69.9v.8Z" class="g1_2871"/>
<path d="M69.9,807H852.1v-.7H69.9v.7Z" class="g1_2871"/>
<path d="M69.9,831.5H852.1v-.7H69.9v.7Z" class="g1_2871"/>
<path d="M69.9,856H852.1v-.8H69.9v.8Z" class="g1_2871"/>
<path d="M69.9,880.4H852.1v-.8H69.9v.8Z" class="g1_2871"/>
<path d="M69.9,904.8H852.1v-.7H69.9v.7Z" class="g1_2871"/>
<path d="M69.9,929.3H852.1v-.7H69.9v.7Z" class="g1_2871"/>
<path d="M69.9,953.7H852.1V953H69.9v.7Z" class="g1_2871"/>
<path d="M69.9,978.2H852.1v-.8H69.9v.8Z" class="g1_2871"/>
<path d="M69.9,1002.7H852.1v-.8H69.9v.8Z" class="g1_2871"/>
<path d="M69.9,1027H852.1v-.7H69.9v.7Z" class="g1_2871"/>
<path d="M69.9,1051.5H852.1v-.7H69.9v.7Z" class="g1_2871"/>
<path d="M69.9,1076H852.1v-.7H69.9v.7Z" class="g1_2871"/>
</svg>