<?xml version="1.0" encoding="UTF-8" standalone="no"?>
<!DOCTYPE svg PUBLIC "-//W3C//DTD SVG 1.1//EN"
"http://www.w3.org/Graphics/SVG/1.1/DTD/svg11.dtd">
<svg viewBox="0 0 935 1210" version="1.1" xmlns="http://www.w3.org/2000/svg" xmlns:xlink="http://www.w3.org/1999/xlink">
<defs>
<style type="text/css"><![CDATA[
.g0_2901{
fill: #FFF;
}
.g1_2901{
fill: #000;
}
]]></style>
</defs>
<path d="M68.9,1149.3H852.7v-21.2H68.9v21.2Z" class="g0_2901"/>
<path d="M69.9,441.2h.8V124.1h-.8V441.2Z" class="g1_2901"/>
<path d="M469,197.4h.7v-74H469v74Z" class="g1_2901"/>
<path d="M469,441.9h.7V221.2H469V441.9Z" class="g1_2901"/>
<path d="M852.5,441.2h.7V124.1h-.7V441.2Z" class="g1_2901"/>
<path d="M69.9,124.1H853.3v-.7H69.9v.7Z" class="g1_2901"/>
<path d="M69.9,148.6H853.3v-.7H69.9v.7Z" class="g1_2901"/>
<path d="M69.9,173H853.3v-.8H69.9v.8Z" class="g1_2901"/>
<path d="M69.9,197.4H853.3v-.7H69.9v.7Z" class="g1_2901"/>
<path d="M69.9,221.9H853.3v-.7H69.9v.7Z" class="g1_2901"/>
<path d="M69.9,246.3H853.3v-.7H69.9v.7Z" class="g1_2901"/>
<path d="M69.9,270.8H853.3v-.7H69.9v.7Z" class="g1_2901"/>
<path d="M69.9,295.3H853.3v-.8H69.9v.8Z" class="g1_2901"/>
<path d="M69.9,319.6H853.3v-.7H69.9v.7Z" class="g1_2901"/>
<path d="M69.9,344.1H853.3v-.7H69.9v.7Z" class="g1_2901"/>
<path d="M69.9,368.6H853.3v-.7H69.9v.7Z" class="g1_2901"/>
<path d="M69.9,393H853.3v-.8H69.9v.8Z" class="g1_2901"/>
<path d="M69.9,417.4H853.3v-.7H69.9v.7Z" class="g1_2901"/>
<path d="M69.9,441.9H853.3v-.7H69.9v.7Z" class="g1_2901"/>
<path d="M69.9,650.5h.8V577.9h-.8v72.6Z" class="g1_2901"/>
<path d="M468.3,602.3h.8V577.1h-.8v25.2Z" class="g1_2901"/>
<path d="M468.3,651.2h.8V626h-.8v25.2Z" class="g1_2901"/>
<path d="M851.4,650.5h.7V577.9h-.7v72.6Z" class="g1_2901"/>
<path d="M69.9,577.9H852.1v-.8H69.9v.8Z" class="g1_2901"/>
<path d="M69.9,602.3H852.1v-.7H69.9v.7Z" class="g1_2901"/>
<path d="M69.9,626.8H852.1v-.7H69.9v.7Z" class="g1_2901"/>
<path d="M69.9,651.2H852.1v-.7H69.9v.7Z" class="g1_2901"/>
<path d="M69.9,804.8h.8v-97h-.8v97Z" class="g1_2901"/>
<path d="M468.3,732.2h.8V707h-.8v25.2Z" class="g1_2901"/>
<path d="M468.3,805.6h.8V755.9h-.8v49.7Z" class="g1_2901"/>
<path d="M851.4,804.8h.7v-97h-.7v97Z" class="g1_2901"/>
<path d="M69.9,707.8H852.1V707H69.9v.8Z" class="g1_2901"/>
<path d="M69.9,732.2H852.1v-.7H69.9v.7Z" class="g1_2901"/>
<path d="M69.9,756.6H852.1v-.7H69.9v.7Z" class="g1_2901"/>
<path d="M69.9,781.1H852.1v-.7H69.9v.7Z" class="g1_2901"/>
<path d="M69.9,805.6H852.1v-.8H69.9v.8Z" class="g1_2901"/>
</svg>