<?xml version="1.0" encoding="UTF-8" standalone="no"?>
<!DOCTYPE svg PUBLIC "-//W3C//DTD SVG 1.1//EN"
"http://www.w3.org/Graphics/SVG/1.1/DTD/svg11.dtd">
<svg viewBox="0 0 935 1210" version="1.1" xmlns="http://www.w3.org/2000/svg" xmlns:xlink="http://www.w3.org/1999/xlink">
<defs>
<style type="text/css"><![CDATA[
.g0_458{
fill: #000;
}
]]></style>
</defs>
<path d="M104.1,448.8h.8v-314h-.8v314Z" class="g0_458"/>
<path d="M104.1,801.7h.8V469.4h-.8V801.7Z" class="g0_458"/>
<path d="M104.1,844.5h.8V822.3h-.8v22.2Z" class="g0_458"/>
<path d="M104.1,887.2h.8v-22h-.8v22Z" class="g0_458"/>
<path d="M128,449.5h.7V134H128V449.5Z" class="g0_458"/>
<path d="M128,802.4h.7V468.6H128V802.4Z" class="g0_458"/>
<path d="M128,845.3h.7V821.6H128v23.7Z" class="g0_458"/>
<path d="M128,888.1h.7V864.3H128v23.8Z" class="g0_458"/>
<path d="M163.7,449.5h.8V134h-.8V449.5Z" class="g0_458"/>
<path d="M163.7,802.4h.8V468.6h-.8V802.4Z" class="g0_458"/>
<path d="M163.7,845.3h.8V821.6h-.8v23.7Z" class="g0_458"/>
<path d="M163.7,888.1h.8V864.3h-.8v23.8Z" class="g0_458"/>
<path d="M238.7,449.5h.7V134h-.7V449.5Z" class="g0_458"/>
<path d="M238.7,802.4h.7V468.6h-.7V802.4Z" class="g0_458"/>
<path d="M238.7,845.3h.7V821.6h-.7v23.7Z" class="g0_458"/>
<path d="M238.7,888.1h.7V864.3h-.7v23.8Z" class="g0_458"/>
<path d="M313.8,449.5h.7V134h-.7V449.5Z" class="g0_458"/>
<path d="M313.8,802.4h.7V468.6h-.7V802.4Z" class="g0_458"/>
<path d="M313.8,845.3h.7V821.6h-.7v23.7Z" class="g0_458"/>
<path d="M313.8,888.1h.7V864.3h-.7v23.8Z" class="g0_458"/>
<path d="M388.9,449.5h.7V134h-.7V449.5Z" class="g0_458"/>
<path d="M388.9,802.4h.7V468.6h-.7V802.4Z" class="g0_458"/>
<path d="M388.9,845.3h.7V821.6h-.7v23.7Z" class="g0_458"/>
<path d="M388.9,888.1h.7V864.3h-.7v23.8Z" class="g0_458"/>
<path d="M463.9,449.5h.8V134h-.8V449.5Z" class="g0_458"/>
<path d="M463.9,802.4h.8V468.6h-.8V802.4Z" class="g0_458"/>
<path d="M463.9,845.3h.8V821.6h-.8v23.7Z" class="g0_458"/>
<path d="M463.9,888.1h.8V864.3h-.8v23.8Z" class="g0_458"/>
<path d="M539,449.5h.7V134H539V449.5Z" class="g0_458"/>
<path d="M539,802.4h.7V468.6H539V802.4Z" class="g0_458"/>
<path d="M539,845.3h.7V821.6H539v23.7Z" class="g0_458"/>
<path d="M539,888.1h.7V864.3H539v23.8Z" class="g0_458"/>
<path d="M614.1,449.5h.7V134h-.7V449.5Z" class="g0_458"/>
<path d="M614.1,802.4h.7V468.6h-.7V802.4Z" class="g0_458"/>
<path d="M614.1,845.3h.7V821.6h-.7v23.7Z" class="g0_458"/>
<path d="M614.1,888.1h.7V864.3h-.7v23.8Z" class="g0_458"/>
<path d="M689.1,449.5h.7V134h-.7V449.5Z" class="g0_458"/>
<path d="M689.1,802.4h.7V468.6h-.7V802.4Z" class="g0_458"/>
<path d="M689.1,845.3h.7V821.6h-.7v23.7Z" class="g0_458"/>
<path d="M689.1,888.1h.7V864.3h-.7v23.8Z" class="g0_458"/>
<path d="M764.1,449.5h.8V134h-.8V449.5Z" class="g0_458"/>
<path d="M764.1,802.4h.8V468.6h-.8V802.4Z" class="g0_458"/>
<path d="M764.1,844.5h.8V822.3h-.8v22.2Z" class="g0_458"/>
<path d="M764.1,887.2h.8v-22h-.8v22Z" class="g0_458"/>
<path d="M808.1,449.5h.8V134h-.8V449.5Z" class="g0_458"/>
<path d="M808.1,802.4h.8V468.6h-.8V802.4Z" class="g0_458"/>
<path d="M830.1,448.8h.8v-314h-.8v314Z" class="g0_458"/>
<path d="M830.1,801.7h.8V469.4h-.8V801.7Z" class="g0_458"/>
<path d="M104.1,134.8H830.9V134H104.1v.8Z" class="g0_458"/>
<path d="M104.1,157.7H830.9v-.8H104.1v.8Z" class="g0_458"/>
<path d="M104.1,180.6H830.9v-.7H104.1v.7Z" class="g0_458"/>
<path d="M104.1,203.5H830.9v-.7H104.1v.7Z" class="g0_458"/>
<path d="M104.1,226.4H830.9v-.7H104.1v.7Z" class="g0_458"/>
<path d="M104.1,249.4H830.9v-.7H104.1v.7Z" class="g0_458"/>
<path d="M104.1,272.3H830.9v-.7H104.1v.7Z" class="g0_458"/>
<path d="M104.1,295.3H830.9v-.8H104.1v.8Z" class="g0_458"/>
<path d="M104.1,318.2H830.9v-.8H104.1v.8Z" class="g0_458"/>
<path d="M104.1,341.1H830.9v-.7H104.1v.7Z" class="g0_458"/>
<path d="M104.1,364H830.9v-.7H104.1v.7Z" class="g0_458"/>
<path d="M104.1,383.8H830.9v-.7H104.1v.7Z" class="g0_458"/>
<path d="M104.1,406.7H830.9V406H104.1v.7Z" class="g0_458"/>
<path d="M104.1,426.6H830.9v-.7H104.1v.7Z" class="g0_458"/>
<path d="M104.1,449.5H830.9v-.7H104.1v.7Z" class="g0_458"/>
<path d="M104.1,469.4H830.9v-.7H104.1v.7Z" class="g0_458"/>
<path d="M104.1,492.3H830.9v-.7H104.1v.7Z" class="g0_458"/>
<path d="M104.1,515.3H830.9v-.8H104.1v.8Z" class="g0_458"/>
<path d="M104.1,538.2H830.9v-.8H104.1v.8Z" class="g0_458"/>
<path d="M104.1,561.1H830.9v-.7H104.1v.7Z" class="g0_458"/>
<path d="M104.1,580.9H830.9v-.7H104.1v.7Z" class="g0_458"/>
<path d="M104.1,600.8H830.9V600H104.1v.8Z" class="g0_458"/>
<path d="M104.1,620.7H830.9v-.8H104.1v.8Z" class="g0_458"/>
<path d="M104.1,640.5H830.9v-.8H104.1v.8Z" class="g0_458"/>
<path d="M104.1,660.4H830.9v-.8H104.1v.8Z" class="g0_458"/>
<path d="M104.1,680.3H830.9v-.8H104.1v.8Z" class="g0_458"/>
<path d="M104.1,700.1H830.9v-.8H104.1v.8Z" class="g0_458"/>
<path d="M104.1,719.9H830.9v-.7H104.1v.7Z" class="g0_458"/>
<path d="M104.1,739.8H830.9v-.7H104.1v.7Z" class="g0_458"/>
<path d="M104.1,762.8H830.9V762H104.1v.8Z" class="g0_458"/>
<path d="M104.1,782.6H830.9v-.8H104.1v.8Z" class="g0_458"/>
<path d="M104.1,802.4H830.9v-.7H104.1v.7Z" class="g0_458"/>
<path d="M104.1,822.3H764.9v-.7H104.1v.7Z" class="g0_458"/>
<path d="M104.1,845.3H764.9v-.8H104.1v.8Z" class="g0_458"/>
<path d="M104.1,865.1H313.8v-.8H104.1v.8Z" class="g0_458"/>
<path d="M314.5,865.1h74.4v-.8H314.5v.8Z" class="g0_458"/>
<path d="M389.6,865.1H764.9v-.8H389.6v.8Z" class="g0_458"/>
<path d="M104.1,888H313.8v-.8H104.1v.8Z" class="g0_458"/>
<path d="M314.5,888h74.4v-.8H314.5v.8Z" class="g0_458"/>
<path d="M389.6,888H764.9v-.8H389.6v.8Z" class="g0_458"/>
</svg>