<?xml version="1.0" encoding="UTF-8" standalone="no"?>
<!DOCTYPE svg PUBLIC "-//W3C//DTD SVG 1.1//EN"
"http://www.w3.org/Graphics/SVG/1.1/DTD/svg11.dtd">
<svg viewBox="0 0 935 1210" version="1.1" xmlns="http://www.w3.org/2000/svg" xmlns:xlink="http://www.w3.org/1999/xlink">
<defs>
<clipPath id="c0_100"><path d="M97.2,59V41.4h72.2V59Z"/></clipPath>
<style type="text/css"><![CDATA[
.g0_100{
fill: #000;
}
]]></style>
</defs>
<path d="M96.1,63.1v.3H838.9v-.3H96.1Z" class="g0_100"/>
<path d="M96.1,1114.3v.3v-.3Z" class="g0_100"/>
<path d="M838.9,1114.3v.3v-.3Z" class="g0_100"/>
<path d="M96.1,1114.3v.3H838.9v-.3H96.1Z" class="g0_100"/>
<image clip-path="url(#c0_100)" preserveAspectRatio="none" x="97" y="41" width="72" height="18" xlink:href="img/1.jpg"/>
<path d="M168.3,556.6h-.7v543h.7v-543Z" class="g0_100"/>
<path d="M328.5,555.8h-.7v544.5h.7V555.8Z" class="g0_100"/>
<path d="M492.8,555.8H492v544.5h.8V555.8Z" class="g0_100"/>
<path d="M767.4,556.6h-.7v543h.7v-543Z" class="g0_100"/>
<path d="M167.6,555.8v.8H767.4v-.8H167.6Z" class="g0_100"/>
<path d="M167.6,580v.8H767.4V580H167.6Z" class="g0_100"/>
<path d="M167.6,604.6v.7H767.4v-.7H167.6Z" class="g0_100"/>
<path d="M167.6,629.2v.7H767.4v-.7H167.6Z" class="g0_100"/>
<path d="M167.6,690v.8H767.4V690H167.6Z" class="g0_100"/>
<path d="M167.6,751.3v.7H767.4v-.7H167.6Z" class="g0_100"/>
<path d="M167.6,794.2v.7H767.4v-.7H167.6Z" class="g0_100"/>
<path d="M167.6,836.7v.7H767.4v-.7H167.6Z" class="g0_100"/>
<path d="M167.6,879.6v.7H767.4v-.7H167.6Z" class="g0_100"/>
<path d="M167.6,922.5v.7H767.4v-.7H167.6Z" class="g0_100"/>
<path d="M167.6,946.7v.7H767.4v-.7H167.6Z" class="g0_100"/>
<path d="M167.6,971.3v.7H767.4v-.7H167.6Z" class="g0_100"/>
<path d="M167.6,1014.2v.7H767.4v-.7H167.6Z" class="g0_100"/>
<path d="M167.6,1056.7v.7H767.4v-.7H167.6Z" class="g0_100"/>
<path d="M167.6,1099.6v.7H767.4v-.7H167.6Z" class="g0_100"/>
</svg>