<?xml version="1.0" encoding="UTF-8" standalone="no"?>
<!DOCTYPE svg PUBLIC "-//W3C//DTD SVG 1.1//EN"
"http://www.w3.org/Graphics/SVG/1.1/DTD/svg11.dtd">
<svg viewBox="0 0 935 1210" version="1.1" xmlns="http://www.w3.org/2000/svg" xmlns:xlink="http://www.w3.org/1999/xlink">
<defs>
<style type="text/css"><![CDATA[
.g0_240{
fill: #FFF;
}
.g1_240{
fill: #000;
}
]]></style>
</defs>
<path d="M68.8,1149.3H852.5v-21.2H68.8v21.2Z" class="g0_240"/>
<path d="M68.6,1082.9h.7V124.1h-.7v958.8Z" class="g1_240"/>
<path d="M125.3,1083.6h.7v-919h-.7v919Z" class="g1_240"/>
<path d="M182.1,1083.6h.7V123.4h-.7v960.2Z" class="g1_240"/>
<path d="M458.9,1083.6h.7V123.4h-.7v960.2Z" class="g1_240"/>
<path d="M540.9,1083.6h.8V123.4h-.8v960.2Z" class="g1_240"/>
<path d="M850.4,1082.9h.7V124.1h-.7v958.8Z" class="g1_240"/>
<path d="M68.6,124.1H851.1v-.7H68.6v.7Z" class="g1_240"/>
<path d="M68.6,165.4H182.8v-.8H68.6v.8Z" class="g1_240"/>
<path d="M68.6,189.8H851.1v-.7H68.6v.7Z" class="g1_240"/>
<path d="M68.6,231.1H851.1v-.7H68.6v.7Z" class="g1_240"/>
<path d="M68.6,272.3H851.1v-.7H68.6v.7Z" class="g1_240"/>
<path d="M68.6,313.6H851.1v-.7H68.6v.7Z" class="g1_240"/>
<path d="M68.6,338H851.1v-.8H68.6v.8Z" class="g1_240"/>
<path d="M68.6,362.4H851.1v-.7H68.6v.7Z" class="g1_240"/>
<path d="M68.6,386.9H851.1v-.7H68.6v.7Z" class="g1_240"/>
<path d="M68.6,411.4H851.1v-.7H68.6v.7Z" class="g1_240"/>
<path d="M68.6,435.8H851.1v-.7H68.6v.7Z" class="g1_240"/>
<path d="M68.6,460.3H851.1v-.8H68.6v.8Z" class="g1_240"/>
<path d="M68.6,484.7H851.1V484H68.6v.7Z" class="g1_240"/>
<path d="M68.6,526H851.1v-.8H68.6v.8Z" class="g1_240"/>
<path d="M68.6,567.2H851.1v-.7H68.6v.7Z" class="g1_240"/>
<path d="M68.6,608.5H851.1v-.8H68.6v.8Z" class="g1_240"/>
<path d="M68.6,649.7H851.1V649H68.6v.7Z" class="g1_240"/>
<path d="M68.6,674.1H851.1v-.7H68.6v.7Z" class="g1_240"/>
<path d="M68.6,698.6H851.1v-.7H68.6v.7Z" class="g1_240"/>
<path d="M68.6,723.1H851.1v-.8H68.6v.8Z" class="g1_240"/>
<path d="M68.6,747.4H851.1v-.7H68.6v.7Z" class="g1_240"/>
<path d="M68.6,771.9H851.1v-.7H68.6v.7Z" class="g1_240"/>
<path d="M68.6,796.4H851.1v-.7H68.6v.7Z" class="g1_240"/>
<path d="M68.6,820.8H851.1v-.7H68.6v.7Z" class="g1_240"/>
<path d="M68.6,862H851.1v-.7H68.6v.7Z" class="g1_240"/>
<path d="M68.6,903.3H851.1v-.7H68.6v.7Z" class="g1_240"/>
<path d="M68.6,944.5H851.1v-.7H68.6v.7Z" class="g1_240"/>
<path d="M68.6,985.8H851.1v-.7H68.6v.7Z" class="g1_240"/>
<path d="M68.6,1010.3H851.1v-.8H68.6v.8Z" class="g1_240"/>
<path d="M68.6,1034.7H851.1v-.7H68.6v.7Z" class="g1_240"/>
<path d="M68.6,1059.1H851.1v-.7H68.6v.7Z" class="g1_240"/>
<path d="M68.6,1083.6H851.1v-.7H68.6v.7Z" class="g1_240"/>
</svg>