<?xml version="1.0" encoding="UTF-8" standalone="no"?>
<!DOCTYPE svg PUBLIC "-//W3C//DTD SVG 1.1//EN"
"http://www.w3.org/Graphics/SVG/1.1/DTD/svg11.dtd">
<svg viewBox="0 0 935 1210" version="1.1" xmlns="http://www.w3.org/2000/svg" xmlns:xlink="http://www.w3.org/1999/xlink">
<defs>
<style type="text/css"><![CDATA[
.g0_138{
fill: #FFF;
}
.g1_138{
fill: #000;
}
]]></style>
</defs>
<path d="M68.8,1149.3H852.5v-21.2H68.8v21.2Z" class="g0_138"/>
<path d="M70,941.1H851.1V911.5H70v29.6Z" class="g0_138"/>
<path d="M70.9,934.5h53.6V922H70.9v12.5Z" class="g0_138"/>
<path d="M771.3,258.6h8.4v-1.1h-8.4v1.1Z" class="g1_138"/>
<path d="M771.3,313.6h8.4v-1.1h-8.4v1.1Z" class="g1_138"/>
<path d="M771.3,368.6h8.4v-1.1h-8.4v1.1Z" class="g1_138"/>
<path d="M771.3,423.6h8.4v-1.1h-8.4v1.1Z" class="g1_138"/>
<path d="M678.5,478.6h8.4v-1.1h-8.4v1.1Z" class="g1_138"/>
<path d="M771.3,478.6h8.4v-1.1h-8.4v1.1Z" class="g1_138"/>
<path d="M678.5,533.6h8.4v-1.1h-8.4v1.1Z" class="g1_138"/>
<path d="M771.3,533.6h8.4v-1.1h-8.4v1.1Z" class="g1_138"/>
<path d="M771.3,588.6h8.4v-1.1h-8.4v1.1Z" class="g1_138"/>
<path d="M678.5,643.6h8.4v-1.1h-8.4v1.1Z" class="g1_138"/>
<path d="M771.3,643.6h8.4v-1.1h-8.4v1.1Z" class="g1_138"/>
<path d="M678.5,698.6h8.4v-1.1h-8.4v1.1Z" class="g1_138"/>
<path d="M771.3,698.6h8.4v-1.1h-8.4v1.1Z" class="g1_138"/>
<path d="M771.3,753.6h8.4v-1.1h-8.4v1.1Z" class="g1_138"/>
<path d="M771.3,808.6h8.4v-1.1h-8.4v1.1Z" class="g1_138"/>
<path d="M771.3,863.6h8.4v-1.1h-8.4v1.1Z" class="g1_138"/>
<path d="M68.9,886h2.3V140.2H68.9V886Z" class="g1_138"/>
<path d="M82.7,173.2h.7V137.9h-.7v35.3Z" class="g1_138"/>
<path d="M82.7,282.4h.7V225.9h-.7v56.5Z" class="g1_138"/>
<path d="M82.7,392.4h.7V335.9h-.7v56.5Z" class="g1_138"/>
<path d="M82.7,557.4h.7V445.9h-.7V557.4Z" class="g1_138"/>
<path d="M82.7,722.4h.7V610.9h-.7V722.4Z" class="g1_138"/>
<path d="M82.7,832.4h.7V776h-.7v56.4Z" class="g1_138"/>
<path d="M95.7,173.2h.7V137.9h-.7v35.3Z" class="g1_138"/>
<path d="M108.8,173.2h.7V137.9h-.7v35.3Z" class="g1_138"/>
<path d="M121.8,173.2h.8V137.9h-.8v35.3Z" class="g1_138"/>
<path d="M134.8,173.2h.8V137.9h-.8v35.3Z" class="g1_138"/>
<path d="M134.8,502.4h.8V445.9h-.8v56.5Z" class="g1_138"/>
<path d="M134.8,667.4h.8V610.9h-.8v56.5Z" class="g1_138"/>
<path d="M134.8,832.4h.8V776h-.8v56.4Z" class="g1_138"/>
<path d="M147.9,173.2h.7V137.9h-.7v35.3Z" class="g1_138"/>
<path d="M160.9,173.2h.7V137.9h-.7v35.3Z" class="g1_138"/>
<path d="M174,173.2h.7V137.9H174v35.3Z" class="g1_138"/>
<path d="M187,173.2h.7V137.9H187v35.3Z" class="g1_138"/>
<path d="M200,173.2h.7V137.9H200v35.3Z" class="g1_138"/>
<path d="M213,173.2h.8V137.9H213v35.3Z" class="g1_138"/>
<path d="M226.1,173.2h.8V137.9h-.8v35.3Z" class="g1_138"/>
<path d="M226.1,282.4h.8V225.9h-.8v56.5Z" class="g1_138"/>
<path d="M226.1,392.4h.8V335.9h-.8v56.5Z" class="g1_138"/>
<path d="M226.1,557.4h.8V445.9h-.8V557.4Z" class="g1_138"/>
<path d="M226.1,722.4h.8V610.9h-.8V722.4Z" class="g1_138"/>
<path d="M226.1,832.4h.8V776h-.8v56.4Z" class="g1_138"/>
<path d="M239.2,173.2h.7V137.9h-.7v35.3Z" class="g1_138"/>
<path d="M265.2,173.2h.7V137.9h-.7v35.3Z" class="g1_138"/>
<path d="M294.2,282.4h.7V137.9h-.7V282.4Z" class="g1_138"/>
<path d="M294.2,392.4h.7V335.9h-.7v56.5Z" class="g1_138"/>
<path d="M294.2,557.4h.7V445.9h-.7V557.4Z" class="g1_138"/>
<path d="M294.2,722.4h.7V610.9h-.7V722.4Z" class="g1_138"/>
<path d="M294.2,832.4h.7V776h-.7v56.4Z" class="g1_138"/>
<path d="M323.1,173.2h.8V137.9h-.8v35.3Z" class="g1_138"/>
<path d="M336.1,173.2h.8V137.9h-.8v35.3Z" class="g1_138"/>
<path d="M349.3,173.2h.7V137.9h-.7v35.3Z" class="g1_138"/>
<path d="M362.3,173.2h.7V137.9h-.7v35.3Z" class="g1_138"/>
<path d="M375.3,173.2h.7V137.9h-.7v35.3Z" class="g1_138"/>
<path d="M388.3,173.2h.7V137.9h-.7v35.3Z" class="g1_138"/>
<path d="M388.3,502.4h.7V445.9h-.7v56.5Z" class="g1_138"/>
<path d="M401.4,173.2h.7V137.9h-.7v35.3Z" class="g1_138"/>
<path d="M414.4,173.2h.8V137.9h-.8v35.3Z" class="g1_138"/>
<path d="M427.4,173.2h.8V137.9h-.8v35.3Z" class="g1_138"/>
<path d="M440.5,173.2h.7V137.9h-.7v35.3Z" class="g1_138"/>
<path d="M453.5,173.2h.7V137.9h-.7v35.3Z" class="g1_138"/>
<path d="M466.6,173.2h.7V137.9h-.7v35.3Z" class="g1_138"/>
<path d="M479.6,173.2h.7V137.9h-.7v35.3Z" class="g1_138"/>
<path d="M492.6,173.2h.8V137.9h-.8v35.3Z" class="g1_138"/>
<path d="M505.6,173.2h.8V137.9h-.8v35.3Z" class="g1_138"/>
<path d="M505.6,667.4h.8V610.9h-.8v56.5Z" class="g1_138"/>
<path d="M518.7,173.2h.8V137.9h-.8v35.3Z" class="g1_138"/>
<path d="M531.8,173.2h.7V137.9h-.7v35.3Z" class="g1_138"/>
<path d="M544.8,173.2h.7V137.9h-.7v35.3Z" class="g1_138"/>
<path d="M557.8,173.2h.7V137.9h-.7v35.3Z" class="g1_138"/>
<path d="M570.8,173.2h.7V137.9h-.7v35.3Z" class="g1_138"/>
<path d="M583.9,173.2h.8V137.9h-.8v35.3Z" class="g1_138"/>
<path d="M596.9,173.2h.8V137.9h-.8v35.3Z" class="g1_138"/>
<path d="M609.9,173.2h.8V137.9h-.8v35.3Z" class="g1_138"/>
<path d="M609.9,502.4h.8V445.9h-.8v56.5Z" class="g1_138"/>
<path d="M609.9,667.4h.8V610.9h-.8v56.5Z" class="g1_138"/>
<path d="M623,282.4h.7V137.9H623V282.4Z" class="g1_138"/>
<path d="M623,392.4h.7V335.9H623v56.5Z" class="g1_138"/>
<path d="M623,557.4h.7V445.9H623V557.4Z" class="g1_138"/>
<path d="M623,722.4h.7V610.9H623V722.4Z" class="g1_138"/>
<path d="M623,832.4h.7V776H623v56.4Z" class="g1_138"/>
<path d="M636.1,173.2h.7V137.9h-.7v35.3Z" class="g1_138"/>
<path d="M636.1,282.4h.7V225.9h-.7v56.5Z" class="g1_138"/>
<path d="M636.1,392.4h.7V335.9h-.7v56.5Z" class="g1_138"/>
<path d="M636.1,557.4h.7V445.9h-.7V557.4Z" class="g1_138"/>
<path d="M636.1,722.4h.7V610.9h-.7V722.4Z" class="g1_138"/>
<path d="M636.1,832.4h.7V776h-.7v56.4Z" class="g1_138"/>
<path d="M649.1,173.2h.7V137.9h-.7v35.3Z" class="g1_138"/>
<path d="M662.1,173.2h.7V137.9h-.7v35.3Z" class="g1_138"/>
<path d="M662.1,502.4h.7V445.9h-.7v56.5Z" class="g1_138"/>
<path d="M662.1,667.4h.7V610.9h-.7v56.5Z" class="g1_138"/>
<path d="M662.1,832.4h.7V776h-.7v56.4Z" class="g1_138"/>
<path d="M675.1,173.2h.8V137.9h-.8v35.3Z" class="g1_138"/>
<path d="M675.1,282.4h.8V225.9h-.8v56.5Z" class="g1_138"/>
<path d="M675.1,392.4h.8V335.9h-.8v56.5Z" class="g1_138"/>
<path d="M675.1,557.4h.8V445.9h-.8V557.4Z" class="g1_138"/>
<path d="M675.1,722.4h.8V610.9h-.8V722.4Z" class="g1_138"/>
<path d="M675.1,832.4h.8V776h-.8v56.4Z" class="g1_138"/>
<path d="M689.6,173.2h.7V137.9h-.7v35.3Z" class="g1_138"/>
<path d="M689.6,282.4h.7V225.9h-.7v56.5Z" class="g1_138"/>
<path d="M689.6,392.4h.7V335.9h-.7v56.5Z" class="g1_138"/>
<path d="M689.6,557.4h.7V445.9h-.7V557.4Z" class="g1_138"/>
<path d="M689.6,722.4h.7V610.9h-.7V722.4Z" class="g1_138"/>
<path d="M689.6,832.4h.7V776h-.7v56.4Z" class="g1_138"/>
<path d="M702.7,173.2h.8V137.9h-.8v35.3Z" class="g1_138"/>
<path d="M702.7,282.4h.8V225.9h-.8v56.5Z" class="g1_138"/>
<path d="M702.7,392.4h.8V335.9h-.8v56.5Z" class="g1_138"/>
<path d="M702.7,557.4h.8V445.9h-.8V557.4Z" class="g1_138"/>
<path d="M702.7,722.4h.8V610.9h-.8V722.4Z" class="g1_138"/>
<path d="M702.7,832.4h.8V776h-.8v56.4Z" class="g1_138"/>
<path d="M715.7,282.4h.8V137.9h-.8V282.4Z" class="g1_138"/>
<path d="M715.7,392.4h.8V335.9h-.8v56.5Z" class="g1_138"/>
<path d="M715.7,557.4h.8V445.9h-.8V557.4Z" class="g1_138"/>
<path d="M715.7,722.4h.8V610.9h-.8V722.4Z" class="g1_138"/>
<path d="M715.7,832.4h.8V776h-.8v56.4Z" class="g1_138"/>
<path d="M728.8,282.4h.7V137.9h-.7V282.4Z" class="g1_138"/>
<path d="M728.8,392.4h.7V335.9h-.7v56.5Z" class="g1_138"/>
<path d="M728.8,557.4h.7V445.9h-.7V557.4Z" class="g1_138"/>
<path d="M728.8,722.4h.7V610.9h-.7V722.4Z" class="g1_138"/>
<path d="M728.8,832.4h.7V776h-.7v56.4Z" class="g1_138"/>
<path d="M741.8,282.4h.7V137.9h-.7V282.4Z" class="g1_138"/>
<path d="M741.8,392.4h.7V335.9h-.7v56.5Z" class="g1_138"/>
<path d="M741.8,557.4h.7V445.9h-.7V557.4Z" class="g1_138"/>
<path d="M741.8,722.4h.7V610.9h-.7V722.4Z" class="g1_138"/>
<path d="M741.8,832.4h.7V776h-.7v56.4Z" class="g1_138"/>
<path d="M754.8,173.2h.7V137.9h-.7v35.3Z" class="g1_138"/>
<path d="M754.8,282.4h.7V225.9h-.7v56.5Z" class="g1_138"/>
<path d="M754.8,392.4h.7V335.9h-.7v56.5Z" class="g1_138"/>
<path d="M754.8,557.4h.7V445.9h-.7V557.4Z" class="g1_138"/>
<path d="M754.8,722.4h.7V610.9h-.7V722.4Z" class="g1_138"/>
<path d="M754.8,832.4h.7V776h-.7v56.4Z" class="g1_138"/>
<path d="M767.9,173.2h.7V137.9h-.7v35.3Z" class="g1_138"/>
<path d="M767.9,888.2h.7V225.9h-.7V888.2Z" class="g1_138"/>
<path d="M781.6,888.2h2.3V137.9h-2.3V888.2Z" class="g1_138"/>
<path d="M850,886h2.3V140.2H850V886Z" class="g1_138"/>
<path d="M68.8,140.2H852.2V138H68.8v2.2Z" class="g1_138"/>
<path d="M68.8,173.3H852.2V171H68.8v2.3Z" class="g1_138"/>
<path d="M68.8,228.3H852.2V226H68.8v2.3Z" class="g1_138"/>
<path d="M68.8,282.4H852.2v-.7H68.8v.7Z" class="g1_138"/>
<path d="M68.8,338.3H852.2V336H68.8v2.3Z" class="g1_138"/>
<path d="M68.8,392.4H852.2v-.7H68.8v.7Z" class="g1_138"/>
<path d="M68.8,448.2H852.2V446H68.8v2.2Z" class="g1_138"/>
<path d="M68.8,502.4H852.2v-.7H68.8v.7Z" class="g1_138"/>
<path d="M68.8,557.4H852.2v-.7H68.8v.7Z" class="g1_138"/>
<path d="M68.8,613.2H852.2V611H68.8v2.2Z" class="g1_138"/>
<path d="M68.8,667.4H852.2v-.7H68.8v.7Z" class="g1_138"/>
<path d="M68.8,722.4H852.2v-.7H68.8v.7Z" class="g1_138"/>
<path d="M68.8,778.2H852.2V776H68.8v2.2Z" class="g1_138"/>
<path d="M68.8,832.4H852.2v-.7H68.8v.7Z" class="g1_138"/>
<path d="M68.8,888.2H852.2V886H68.8v2.2Z" class="g1_138"/>
</svg>