<?xml version="1.0" encoding="UTF-8" standalone="no"?>
<!DOCTYPE svg PUBLIC "-//W3C//DTD SVG 1.1//EN"
"http://www.w3.org/Graphics/SVG/1.1/DTD/svg11.dtd">
<svg viewBox="0 0 935 1210" version="1.1" xmlns="http://www.w3.org/2000/svg" xmlns:xlink="http://www.w3.org/1999/xlink">
<defs>
<style type="text/css"><![CDATA[
.g0_4922{
fill: #FFF;
}
.g1_4922{
fill: #000;
}
]]></style>
</defs>
<path d="M68.8,1149.3H852.5v-21.2H68.8v21.2Z" class="g0_4922"/>
<path d="M68.6,1032.4h.7V124.1h-.7v908.3Z" class="g1_4922"/>
<path d="M125.3,1033.2h.7V164.6h-.7v868.6Z" class="g1_4922"/>
<path d="M182.1,1033.2h.7V123.4h-.7v909.8Z" class="g1_4922"/>
<path d="M388.4,1033.2h.7V123.4h-.7v909.8Z" class="g1_4922"/>
<path d="M475.5,1033.2h.7V123.4h-.7v909.8Z" class="g1_4922"/>
<path d="M848.6,1032.4h.8V124.1h-.8v908.3Z" class="g1_4922"/>
<path d="M68.6,124.1H849.5v-.7H68.6v.7Z" class="g1_4922"/>
<path d="M68.6,165.4H182.8v-.8H68.6v.8Z" class="g1_4922"/>
<path d="M68.6,189.8H849.5v-.7H68.6v.7Z" class="g1_4922"/>
<path d="M68.6,235.7H849.5v-.8H68.6v.8Z" class="g1_4922"/>
<path d="M68.6,281.5H849.5v-.7H68.6v.7Z" class="g1_4922"/>
<path d="M68.6,305.9H849.5v-.7H68.6v.7Z" class="g1_4922"/>
<path d="M182.1,351.7H849.5V351H182.1v.7Z" class="g1_4922"/>
<path d="M182.1,417.4H849.5v-.7H182.1v.7Z" class="g1_4922"/>
<path d="M182.1,441.9H849.5v-.7H182.1v.7Z" class="g1_4922"/>
<path d="M182.1,544.3H849.5v-.7H182.1v.7Z" class="g1_4922"/>
<path d="M182.1,568.7H849.5V568H182.1v.7Z" class="g1_4922"/>
<path d="M182.1,634.4H849.5v-.7H182.1v.7Z" class="g1_4922"/>
<path d="M68.6,680.3H849.5v-.8H68.6v.8Z" class="g1_4922"/>
<path d="M68.6,704.7H849.5V704H68.6v.7Z" class="g1_4922"/>
<path d="M68.6,729.1H849.5v-.7H68.6v.7Z" class="g1_4922"/>
<path d="M68.6,774.9H849.5v-.7H68.6v.7Z" class="g1_4922"/>
<path d="M68.6,799.4H849.5v-.7H68.6v.7Z" class="g1_4922"/>
<path d="M182.1,823.9H849.5v-.7H182.1v.7Z" class="g1_4922"/>
<path d="M182.1,936.9H849.5v-.7H182.1v.7Z" class="g1_4922"/>
<path d="M68.6,1033.2H849.5v-.8H68.6v.8Z" class="g1_4922"/>
</svg>