<?xml version="1.0" encoding="UTF-8" standalone="no"?>
<!DOCTYPE svg PUBLIC "-//W3C//DTD SVG 1.1//EN"
"http://www.w3.org/Graphics/SVG/1.1/DTD/svg11.dtd">
<svg viewBox="0 0 935 1210" version="1.1" xmlns="http://www.w3.org/2000/svg" xmlns:xlink="http://www.w3.org/1999/xlink">
<defs>
<style type="text/css"><![CDATA[
.g0_1741{
fill: #FFF;
}
.g1_1741{
fill: #000;
}
]]></style>
</defs>
<path d="M68.9,1149.3H755.2v-21.2H68.9v21.2Z" class="g0_1741"/>
<path d="M771.3,1149.3H855v-21.2H771.3v21.2Z" class="g0_1741"/>
<path d="M69.9,538.9h.8V147h-.8V538.9Z" class="g1_1741"/>
<path d="M274.6,539.7h.8V146.3h-.8V539.7Z" class="g1_1741"/>
<path d="M325.8,539.7h.7V146.3h-.7V539.7Z" class="g1_1741"/>
<path d="M397.9,539.7h.8V146.3h-.8V539.7Z" class="g1_1741"/>
<path d="M479.8,539.7h.7V146.3h-.7V539.7Z" class="g1_1741"/>
<path d="M852.9,538.9h.7V147h-.7V538.9Z" class="g1_1741"/>
<path d="M69.9,147H853.6v-.7H69.9v.7Z" class="g1_1741"/>
<path d="M69.9,200.5H853.6v-.8H69.9v.8Z" class="g1_1741"/>
<path d="M69.9,257H853.6v-.7H69.9v.7Z" class="g1_1741"/>
<path d="M69.9,313.6H853.6v-.7H69.9v.7Z" class="g1_1741"/>
<path d="M69.9,370.1H853.6v-.8H69.9v.8Z" class="g1_1741"/>
<path d="M69.9,426.6H853.6v-.7H69.9v.7Z" class="g1_1741"/>
<path d="M69.9,483.2H853.6v-.8H69.9v.8Z" class="g1_1741"/>
<path d="M69.9,539.7H853.6V539H69.9v.7Z" class="g1_1741"/>
<path d="M69.9,667.2h.8V594.7h-.8v72.5Z" class="g1_1741"/>
<path d="M139.2,668.1h.7V593.9h-.7v74.2Z" class="g1_1741"/>
<path d="M260.6,668.1h.7V593.9h-.7v74.2Z" class="g1_1741"/>
<path d="M406.6,668.1h.8V593.9h-.8v74.2Z" class="g1_1741"/>
<path d="M556.2,668.1h.8V593.9h-.8v74.2Z" class="g1_1741"/>
<path d="M701,668.1h.7V593.9H701v74.2Z" class="g1_1741"/>
<path d="M848.4,667.2h.7V594.7h-.7v72.5Z" class="g1_1741"/>
<path d="M69.9,594.7H849.1V594H69.9v.7Z" class="g1_1741"/>
<path d="M69.9,619.1H849.1v-.7H69.9v.7Z" class="g1_1741"/>
<path d="M69.9,643.6H849.1v-.7H69.9v.7Z" class="g1_1741"/>
<path d="M69.9,668.1H849.1v-.8H69.9v.8Z" class="g1_1741"/>
</svg>