<?xml version="1.0" encoding="UTF-8" standalone="no"?>
<!DOCTYPE svg PUBLIC "-//W3C//DTD SVG 1.1//EN"
"http://www.w3.org/Graphics/SVG/1.1/DTD/svg11.dtd">
<svg viewBox="0 0 935 1210" version="1.1" xmlns="http://www.w3.org/2000/svg" xmlns:xlink="http://www.w3.org/1999/xlink">
<defs>
<style type="text/css"><![CDATA[
.g0_666{
fill: #FFF;
}
.g1_666{
fill: #000;
}
]]></style>
</defs>
<path d="M68.8,1149.3H852.5v-21.2H68.8v21.2Z" class="g0_666"/>
<path d="M68.6,1059.3h.7V976.1h-.7v83.2Z" class="g1_666"/>
<path d="M189.6,1060.1h.7V975.3h-.7v84.8Z" class="g1_666"/>
<path d="M270.3,1060.1h.8V975.3h-.8v84.8Z" class="g1_666"/>
<path d="M332.8,1060.1h.7V975.3h-.7v84.8Z" class="g1_666"/>
<path d="M848.9,1059.3h.8V976.1h-.8v83.2Z" class="g1_666"/>
<path d="M68.6,976.1H849.7v-.8H68.6v.8Z" class="g1_666"/>
<path d="M68.6,999H849.7v-.7H68.6v.7Z" class="g1_666"/>
<path d="M68.6,1021.9H849.7v-.7H68.6v.7Z" class="g1_666"/>
<path d="M68.6,1060H849.7v-.7H68.6v.7Z" class="g1_666"/>
</svg>