<?xml version="1.0" encoding="UTF-8" standalone="no"?>
<!DOCTYPE svg PUBLIC "-//W3C//DTD SVG 1.1//EN"
"http://www.w3.org/Graphics/SVG/1.1/DTD/svg11.dtd">
<svg viewBox="0 0 935 1210" version="1.1" xmlns="http://www.w3.org/2000/svg" xmlns:xlink="http://www.w3.org/1999/xlink">
<defs>
<clipPath id="c0_1013"><path d="M766.6,59.2V41.4h72.1V59.2Z"/></clipPath>
<clipPath id="c1_1013"><path d="M96.2,783.2V160.4H838.7V783.2Z"/></clipPath>
<style type="text/css"><![CDATA[
.g0_1013{
fill: #000;
}
.g1_1013{
fill: #E5E5E5;
}
.g2_1013{
fill: #FFF;
}
.g3_1013{
fill: #B2B2B2;
}
]]></style>
</defs>
<path d="M97.3,62.9v.3H839.9v-.3H97.3Z" class="g0_1013"/>
<path d="M96.2,1114.1h-.1v.3h.1v-.3Z" class="g0_1013"/>
<path d="M838.7,1114.1h.2v.3h-.2v-.3Z" class="g0_1013"/>
<path d="M96.2,1114.1v.3H838.7v-.3H96.2Z" class="g0_1013"/>
<image clip-path="url(#c0_1013)" preserveAspectRatio="none" x="767" y="41" width="72" height="18" xlink:href="img/1.jpg"/>
<path d="M372.4,225.9H620.2V711.4H372.4V225.9Z" class="g1_1013"/>
<path d="M372.4,225.5H620.6v.7H372.4v-.7Z" class="g0_1013"/>
<path d="M619.8,225.9h.8V711.8h-.8V225.9Z" class="g0_1013"/>
<path d="M372.1,711H620.2v.8H372.1V711Z" class="g0_1013"/>
<path d="M372.1,225.5h.7V711.4h-.7V225.5Z" class="g0_1013"/>
<path d="M372.7,225.2H619.5v189H372.7v-189Z" class="g2_1013"/>
<path d="M372.7,224.8H619.9v.8H372.7v-.8Z" class="g0_1013"/>
<path d="M619.2,225.2h.7V414.6h-.7V225.2Z" class="g0_1013"/>
<path d="M372.3,413.9H619.5v.7H372.3v-.7Z" class="g0_1013"/>
<path d="M372.3,224.8h.8V414.2h-.8V224.8Z" class="g0_1013"/>
<path d="M372.5,711.9H620.3v56H372.5v-56Z" class="g3_1013"/>
<path d="M372.5,711.6H620.6v.7H372.5v-.7Z" class="g0_1013"/>
<path d="M619.9,711.9h.7v56.3h-.7V711.9Z" class="g0_1013"/>
<path d="M372.2,767.5H620.3v.7H372.2v-.7Z" class="g0_1013"/>
<path d="M372.2,711.6h.7v56.3h-.7V711.6Z" class="g0_1013"/>
<path fill-rule="evenodd" d="M340.2,495.9l-1.6,-4.1l-.5,-1.7l-.2,-1.5l.1,-.8l.1,-.6l.1,-.7l.3,-.7l.5,-.6l.5,-.7l.7,-.6l.8,-.7l1.9,-1.3l2.7,-1.4l3.2,-1.6l3.9,-1.7l10.3,-4l13.6,-5.3l13.9,-5.2l5.7,-2l5.1,-1.7l4.5,-1.1l4.2,-1l3.9,-.5l1.9,-.1h1.8l1.8,.1l1.9,.2l1.8,.2l1.8,.4l3.9,1l4.2,1.5l4.5,1.8l5.1,2.2l12.1,5.6l12.2,5.7l5.1,2.2l4.6,1.8l4.2,1.4l2,.6l2,.4l1.9,.3l1.9,.3l1.9,.1h1.9l1.9,-.1l2.1,-.2l2,-.3l2.2,-.4l4.5,-1.2l4.9,-1.5l5.6,-1.9l6.3,-2.4l15.2,-6.2l15.2,-6.1l6.3,-2.4l5.5,-2l4.9,-1.6l4.4,-1.2l4,-.7l1.9,-.2l1.8,-.1l1.9,-.1l1.7,.1l1.8,.2l1.7,.3l3.6,.9l3.7,1.2l4.1,1.7l4.4,2l10.4,5.2l10.5,5.2l7.7,4.1l2.9,1.6l2.5,1.6l1.9,1.3l1.4,1.3l.5,.6l.5,.6l.3,.6l.3,.6l.2,1.2l-.1,1.3l-.4,1.4l-.5,1.5l-1.8,3.6l-2.1,3.5l-.8,1.3l-.9,1.1l-.9,1l-1.1,.5l-1.1,.3l-1.4,.1l-1.6,-.3l-1.9,-.5l-2.2,-.8l-2.6,-1.1l-6.4,-3.1l-8.6,-4.2l-8.6,-4.2l-3.6,-1.7l-3.4,-1.3l-3.2,-.9l-3.2,-.6l-1.5,-.2l-1.6,-.1l-3.3,.2l-3.5,.4l-3.9,1l-4.3,1.2l-4.9,1.7l-5.6,2.1l-6.3,2.5l-15.4,6.4l-15.5,6.3l-6.3,2.5l-5.7,2l-5,1.7l-4.6,1.1l-2.2,.4l-2,.3l-2,.2l-2,.1l-2,-.1l-1.9,-.1l-1.9,-.3l-2,-.4l-1.9,-.4l-2,-.7l-4.2,-1.4l-4.7,-2l-5,-2.4l-12.2,-6.2l-12.1,-6L436.1,488l-4.5,-1.9l-4.1,-1.7l-3.7,-1.2l-3.5,-.7l-1.8,-.2l-1.6,-.2h-3.4l-1.8,.2l-1.7,.3l-3.8,.8l-4,1.2l-4.4,1.6l-4.9,1.9L381,493l-11.9,4.9l-8.9,3.6l-3.5,1.3l-3.1,.9l-2.4,.6l-2.1,.3h-1.8l-.8,-.1l-.7,-.3l-.6,-.2l-.5,-.4l-.6,-.5l-.5,-.4l-.9,-1.3l-.8,-1.6l-1.7,-3.9Z" class="g2_1013"/>
<path d="M373.8,633.7h-.4v.7h.4v-.7Z" class="g0_1013"/>
<path d="M621.6,633.7h.3v.7h-.3v-.7Z" class="g0_1013"/>
<path d="M373.8,633.7v.7H621.6v-.7H373.8Z" class="g0_1013"/>
<path d="M372.4,672.3h-.3v.8h.3v-.8Z" class="g0_1013"/>
<path d="M620.2,672.3h.4v.8h-.4v-.8Z" class="g0_1013"/>
<path d="M372.4,672.3v.8H620.2v-.8H372.4Z" class="g0_1013"/>
<path d="M496.6,672.7v-.4h-.7v.4h.7Z" class="g0_1013"/>
<path d="M496.6,711.9v.3h-.7v-.3h.7Z" class="g0_1013"/>
<path d="M496.6,672.7h-.7v39.2h.7V672.7Z" class="g0_1013"/>
<path clip-path="url(#c1_1013)" fill-rule="evenodd" d="M344.7,786.5l-1.6,-4.6l-.6,-1.9l-.1,-1.8l.1,-.8v-.7l.2,-.9l.3,-.7l.5,-.7l.5,-.8l.7,-.7l.8,-.7l1.9,-1.5l2.7,-1.6l3.2,-1.8l3.9,-1.9l10.3,-4.6l13.6,-5.9l3.8,-1.6l3.6,-1.7l6.4,-3.3l5.6,-3l4.9,-2.9l8.4,-5.2l3.6,-2l3.5,-1.7l1.8,-.7l1.6,-.5l1.7,-.5l1.8,-.2l1.8,-.2l1.9,-.1l2,.1l2,.3l2.1,.4l2.3,.6l2.4,.7l2.5,1l2.8,1.1l2.8,1.3l3.1,1.5l3.3,1.7l6.6,3.7l5.7,3.4l10,6.4l4.4,2.8l4.1,2.5l4.1,2.1l2,.9l2,.8l2.1,.7l2.1,.5l2.1,.5l2.2,.3l2.4,.1H509l2.5,-.2l2.6,-.3l2.9,-.6l2.9,-.6l3.1,-.8l3.2,-1.1l3.6,-1.2l3.7,-1.5l3.9,-1.6l4.1,-1.9L556.8,748l6.2,-2.7l5.6,-2.3l4.8,-1.7l4.4,-1.3l2.2,-.6l1.9,-.3l1.9,-.2l1.8,-.2h1.8l1.8,.1l1.8,.2l1.7,.4l1.7,.4l1.9,.5l3.7,1.4l4.1,1.9l4.4,2.3l10.4,5.7l10.5,6l7.7,4.6L640,764l2.5,1.8l1.9,1.5l.7,.7l.7,.8l.5,.6l.5,.8l.3,.6l.3,.7l.2,1.4l-.1,1.4l-.4,1.5l-.6,1.8l-1.8,4l-2,4l-.8,1.5l-.9,1.3l-.5,.5l-.4,.4l-.6,.4l-.5,.3l-1.1,.3l-1.4,.1l-1.6,-.3l-1.9,-.6l-2.3,-.9l-2.5,-1.2l-6.4,-3.5l-8.6,-4.8l-8.6,-4.7l-3.7,-1.9l-3.3,-1.4L594.3,770l-1.5,-.4l-1.6,-.3l-1.5,-.2h-4.9l-1.7,.3l-1.8,.3l-3.9,1l-4.3,1.5l-4.9,1.8l-5.6,2.4l-6.3,2.8l-15.4,7.3l-15.5,7.1l-6.3,2.9l-5.7,2.3l-5,1.7l-2.4,.7l-2.2,.7l-2.2,.4l-2,.3l-2.1,.3h-3.9l-1.9,-.2l-1.9,-.3l-2,-.4l-1.9,-.6l-2,-.6l-2.1,-.9l-2.1,-.9L475,796.8l-5,-2.6l-12.2,-6.9l-12.1,-7l-5.1,-2.7l-4.5,-2.2L432,773.5l-3.7,-1.2l-1.8,-.5l-1.7,-.4l-1.8,-.2l-1.6,-.2H418l-1.8,.2l-1.8,.3l-1.7,.4l-2,.5l-4,1.3l-4.4,1.8l-4.9,2.2l-12,5.5l-11.8,5.6l-9,4l-3.4,1.5l-3.1,1.1l-2.5,.6l-2.1,.4l-1.7,-.1l-.8,-.1l-.7,-.3l-.6,-.3l-.6,-.4l-.5,-.5l-.5,-.6l-.9,-1.4l-.8,-1.7l-1.7,-4.5Z" class="g2_1013"/>
<path d="M639,625.2l-1.4,5.2l-.4,.9l-.8,-.5L620,620.7l-2.3,-1.3l2.7,-.1l19.2,-.1l1.1,.1l-.3,.9l-.7,.5l-19.2,.1l-.1,-1.5l.4,.2l16.4,10l-.8,1.3L636,630l1.4,-5.1l1.6,.3Z" class="g0_1013"/>
<path d="M640.4,620.2l-1.4,5l-1.6,-.3l1.5,-5.1l1.5,.4Z" class="g0_1013"/>
<path fill-rule="evenodd" d="M638.2,625l-1.3,5.2L620.5,620.1l19.2,-.1l-1.5,5Z" class="g0_1013"/>
<path d="M604,691.8l.9,1.3l2.6,-1.9l-1,-1.3l-2.5,1.9Z" class="g0_1013"/>
<path d="M611.8,686.2l.9,1.3l5.1,-3.7l-.9,-1.3l-5.1,3.7Z" class="g0_1013"/>
<path d="M622.1,678.9l.9,1.2l5.3,-3.6l-1,-1.3l-5.2,3.7Z" class="g0_1013"/>
<path d="M632.5,671.4l.9,1.3l5.2,-3.7l-.9,-1.2l-5.2,3.6Z" class="g0_1013"/>
<path d="M642.8,664.1l.9,1.3l.4,-.3l-.9,-1.3l-.4,.3Z" class="g0_1013"/>
<path d="M643.2,663.8l.9,1.3l4.8,-3.6l-.9,-1.3l-4.8,3.6Z" class="g0_1013"/>
<path d="M652.9,656.4l1,1.2l3,-2.4L655.8,654l-2.9,2.4Z" class="g0_1013"/>
<path d="M655.8,654l1.1,1.2l1.9,-1.7l-1,-1.2l-2,1.7Z" class="g0_1013"/>
<path d="M662.1,647.8l1.2,-1.6v.1l1.1,-1.6l1.3,.7v.1l-1.1,1.6l-1.2,1.6l-1.3,-.9Z" class="g0_1013"/>
<path d="M664.4,644.7l.8,-1.7l-.1,.3l1.6,.3l-.1,.1l-.9,1.7l-1.3,-.7Z" class="g0_1013"/>
<path d="M665.1,643.3l1.6,.3l.1,-.6l-1.6,-.3l-.1,.6Z" class="g0_1013"/>
<path d="M664.2,637.3l-.4,-.5l.1,.1l-1.4,-1.3l.1,.1l.9,-1.3l.1,.1l1.4,1.3l.1,.2l.4,.5l-1.3,.8Z" class="g0_1013"/>
<path d="M662.6,635.7l-1.7,-1.3l.1,.1l.7,-1.4h.1l1.7,1.3l-.9,1.3Z" class="g0_1013"/>
<path d="M661,634.5l.7,-1.4l-1.5,-.8l-.7,1.4l1.5,.8Z" class="g0_1013"/>
<path d="M654.9,630.2h-1.5l1,-.8l-.6,1.5l1.1,-.7Z" class="g0_1013"/>
<path d="M653.8,630.9l.6,-1.5l-6,-2.1l-.5,1.5l5.9,2.1Z" class="g0_1013"/>
<path d="M641.8,627l.5,-1.5l-3,-.9l-.5,1.5l3,.9Z" class="g0_1013"/>
<path d="M363.8,712.3h.7v-1.5h-.7v1.5Z" class="g0_1013"/>
<path d="M234.8,712.3h-.7v-1.5h.7v1.5Z" class="g0_1013"/>
<path d="M363.8,712.3v-1.5h-129v1.5h129Z" class="g0_1013"/>
<path d="M753.2,712.1h.7v-1.5h-.7v1.5Z" class="g0_1013"/>
<path d="M624.3,712.1h-.7v-1.5h.7v1.5Z" class="g0_1013"/>
<path d="M753.2,712.1v-1.5H624.3v1.5H753.2Z" class="g0_1013"/>
<path d="M753.2,226.9h.7v-1.6h-.7v1.6Z" class="g0_1013"/>
<path d="M624.3,226.9h-.7v-1.6h.7v1.6Z" class="g0_1013"/>
<path d="M753.2,226.9v-1.6H624.3v1.6H753.2Z" class="g0_1013"/>
<path d="M363.8,227h.7v-1.5h-.7V227Z" class="g0_1013"/>
<path d="M234.8,227h-.7v-1.5h.7V227Z" class="g0_1013"/>
<path d="M363.8,227v-1.5h-129V227h129Z" class="g0_1013"/>
<path d="M241.5,245h-5l.3,-1l4,-14.1l.7,-2.6l.8,2.6l4,14.1l.3,1h-1l-.8,-.5l-4,-14.2l1.5,-.4v.4l-4.1,14.2l-1.4,-.5l.7,-.5h4V245Z" class="g0_1013"/>
<path d="M245.6,245h-4.1v-1.5h4.1V245Z" class="g0_1013"/>
<path fill-rule="evenodd" d="M241.5,244.3h-4l4,-14.1l4.1,14.1h-4.1Z" class="g0_1013"/>
<path d="M241.9,245v-.4h-.7v.4h.7Z" class="g0_1013"/>
<path d="M241.9,459v.3h-.7V459h.7Z" class="g0_1013"/>
<path d="M241.9,245h-.7V459h.7V245Z" class="g0_1013"/>
<path d="M241.5,693h5.1l-.3,1l-4,14.1l-.8,2.6l-.7,-2.6l-4,-14.1l-.3,-1h1l.7,.5l4.1,14.1l-1.5,.5v-.5l4,-14.1l1.5,.5l-.7,.5h-4.1V693Z" class="g0_1013"/>
<path d="M237.5,693h4v1.5h-4V693Z" class="g0_1013"/>
<path fill-rule="evenodd" d="M241.5,693.7h4.1l-4.1,14.1l-4,-14.1h4Z" class="g0_1013"/>
<path d="M241.9,487.6v-.4h-.7v.4h.7Z" class="g0_1013"/>
<path d="M241.9,693v.3h-.7V693h.7Z" class="g0_1013"/>
<path d="M241.9,487.6h-.7V693h.7V487.6Z" class="g0_1013"/>
<path d="M366.7,415.3h.7v-1.5h-.7v1.5Z" class="g0_1013"/>
<path d="M296,415.3h-.8v-1.5h.8v1.5Z" class="g0_1013"/>
<path d="M366.7,415.3v-1.5H296v1.5h70.7Z" class="g0_1013"/>
<path d="M306.5,432.1h-5l.3,-1l4,-14l.7,-2.6l.8,2.6l4,14l.3,1h-1l-.8,-.6l-4,-14l1.5,-.4v.4l-4.1,14l-1.4,-.4l.7,-.6h4v1.6Z" class="g0_1013"/>
<path d="M310.6,432.1h-4.1v-1.6h4.1v1.6Z" class="g0_1013"/>
<path fill-rule="evenodd" d="M306.5,431.4h-4l4,-14.1l4.1,14.1h-4.1Z" class="g0_1013"/>
<path d="M306.5,693.9h5.1l-.3,1l-4,14.1l-.8,2.6l-.7,-2.6l-4,-14.1l-.3,-1h1l.7,.5l4.1,14.2l-1.5,.4v-.4l4,-14.2l1.5,.5l-.7,.5h-4.1v-1.5Z" class="g0_1013"/>
<path d="M302.5,693.9h4v1.5h-4v-1.5Z" class="g0_1013"/>
<path fill-rule="evenodd" d="M306.5,694.6h4.1l-4.1,14.1l-4,-14.1h4Z" class="g0_1013"/>
<path d="M306.9,432.2v-.4h-.7v.4h.7Z" class="g0_1013"/>
<path d="M306.9,693.9v.4h-.7v-.4h.7Z" class="g0_1013"/>
<path d="M306.9,432.2h-.7V693.9h.7V432.2Z" class="g0_1013"/>
<path d="M326,583.2l-2.4,4.6l-.6,.9l-.6,-.7l-14,-13.1l-1.9,-1.8l2.6,.5l18.8,3.8l1,.2l-.5,.9l-.8,.4l-18.8,-3.8l.3,-1.5l.4,.2l13.9,13.1l-1,1.1l-.2,-.9l2.5,-4.7l1.3,.8Z" class="g0_1013"/>
<path d="M328.4,578.5l-2.4,4.7l-1.3,-.8l2.4,-4.6l1.3,.7Z" class="g0_1013"/>
<path fill-rule="evenodd" d="M325.4,582.8l-2.5,4.7L309,574.4l18.8,3.7l-2.4,4.7Z" class="g0_1013"/>
<path d="M392.2,696l.5,-1.5l-2.9,-.8l-.4,1.5l2.8,.8Z" class="g0_1013"/>
<path d="M383.7,693.4l.5,-1.4l-5.6,-1.8l-.5,1.5l5.6,1.7Z" class="g0_1013"/>
<path d="M372.4,689.9l.5,-1.4l-5.4,-1.8l-.5,1.5l5.4,1.7Z" class="g0_1013"/>
<path d="M367,688.2l.5,-1.5l-.3,-.1l-.5,1.5l.3,.1Z" class="g0_1013"/>
<path d="M361.1,686.1l.7,-1.4l-.4,-.2l-.1,-.1l-.5,1.5h-.1l.4,.2Z" class="g0_1013"/>
<path d="M360.8,685.9l.5,-1.5l-5.1,-2.1l-.5,1.5l5.1,2.1Z" class="g0_1013"/>
<path d="M350.2,680.9l-.9,-.7L347.7,679l1,-1.2h-.1l1.6,1.1l1,.7l-1,1.3Z" class="g0_1013"/>
<path d="M347.7,679l-1.5,-1.2l-.1,-.1l1.2,-1l-.1,-.1l1.5,1.2l-1,1.2Z" class="g0_1013"/>
<path d="M346.1,677.7l1.2,-1l-.5,-.7l-1.2,1l.5,.7Z" class="g0_1013"/>
<path d="M342.3,672l-.2,-.4l-.1,-.1l1.5,-.4v-.2l.1,.3l-1.3,.8Z" class="g0_1013"/>
<path d="M342,671.5l-.6,-1.7v-.1l1.6,-.3l-.1,-.1l.6,1.8l-1.5,.4Z" class="g0_1013"/>
<path d="M341.4,669.7l1.6,-.3l-.7,-3.7l-1.6,.3l.7,3.7Z" class="g0_1013"/>
<path d="M340.3,660h1.6l.1,-3.6v.1l-1.6,-.1l-.1,3.6Z" class="g0_1013"/>
<path d="M340.4,656.4l1.6,.1l.2,-2.4l-1.6,-.1l-.2,2.4Z" class="g0_1013"/>
<path d="M341.2,648.1l1.5,.1l.8,-5.8l-1.6,-.2l-.7,5.9Z" class="g0_1013"/>
<path d="M342.5,636.3l1.6,.2l.7,-6l-1.5,-.1l-.8,5.9Z" class="g0_1013"/>
<path d="M343.9,624.5l1.6,.2l.5,-5.9l-1.5,-.2l-.6,5.9Z" class="g0_1013"/>
<path d="M344.9,612.9l.1,-1.7h1.6v.1l-.1,1.7l-1.6,-.1Z" class="g0_1013"/>
<path d="M345,611.2l-.1,-3.7v.1l1.6,-.1l.1,3.7H345Z" class="g0_1013"/>
<path d="M344.9,607.6l1.6,-.1l-.1,-.7l-1.6,.2l.1,.6Z" class="g0_1013"/>
<path d="M343.9,601.3l-.8,-2.5l.1,.1l1.4,-.7v.2l.8,2.5l-1.5,.4Z" class="g0_1013"/>
<path d="M343.2,598.9l-1.3,-2.4l1.4,-.8l1.3,2.5l-1.4,.7Z" class="g0_1013"/>
<path d="M341.9,596.5l1.4,-.8l-.3,-.4l-1.4,.8l.3,.4Z" class="g0_1013"/>
<path d="M338,591.8l1,-1.2l-2,-1.7l-.1,-.1l-1,1.3l2.1,1.7Z" class="g0_1013"/>
<path d="M335.9,590.1l1,-1.3l-2.7,-1.9l-.9,1.3l2.6,1.9Z" class="g0_1013"/>
<path d="M328.3,585.3l.8,-1.4l-2.7,-1.4l-.7,1.4l2.6,1.4Z" class="g0_1013"/>
<path d="M626.3,413.8h-.7v1.5h.7v-1.5Z" class="g0_1013"/>
<path d="M755.3,413.8h.7v1.5h-.7v-1.5Z" class="g0_1013"/>
<path d="M626.3,413.8v1.5h129v-1.5h-129Z" class="g0_1013"/>
<path d="M705.6,244h-5l.3,-1l4,-14.1l.7,-2.6l.8,2.6l4,14.1l.3,1h-1l-.8,-.5l-4,-14.2l1.5,-.4v.4l-4.1,14.2l-1.4,-.5l.7,-.6h4V244Z" class="g0_1013"/>
<path d="M709.7,244h-4.1v-1.6h4.1V244Z" class="g0_1013"/>
<path fill-rule="evenodd" d="M705.6,243.3h-4l4,-14.1l4.1,14.1h-4.1Z" class="g0_1013"/>
<path d="M706,244.1v-.4h-.7v.4h.7Z" class="g0_1013"/>
<path d="M706,303.8v.3h-.7v-.3h.7Z" class="g0_1013"/>
<path d="M706,244.1h-.7v59.7h.7V244.1Z" class="g0_1013"/>
<path d="M706.5,396h5.2l-.3,1l-4.1,14.1l-.8,2.6l-.7,-2.6l-4,-14.1l-.3,-1h1l.7,.5l4.1,14.2l-1.5,.4v-.4l4.1,-14.2l1.5,.5l-.7,.5h-4.2V396Z" class="g0_1013"/>
<path d="M702.5,396h4v1.5h-4V396Z" class="g0_1013"/>
<path fill-rule="evenodd" d="M706.5,396.7h4.2l-4.2,14.1l-4,-14.1h4Z" class="g0_1013"/>
<path d="M706.9,335.3v-.4h-.7v.4h.7Z" class="g0_1013"/>
<path d="M706.9,396v.4h-.7V396h.7Z" class="g0_1013"/>
<path d="M706.9,335.3h-.7V396h.7V335.3Z" class="g0_1013"/>
<path d="M706.5,693.9h5.2l-.3,1L707.3,709l-.8,2.6l-.7,-2.6l-4,-14.1l-.3,-1h1l.7,.5l4.1,14.2l-1.5,.4v-.4l4.1,-14.2l1.5,.5l-.7,.5h-4.2v-1.5Z" class="g0_1013"/>
<path d="M702.5,693.9h4v1.5h-4v-1.5Z" class="g0_1013"/>
<path fill-rule="evenodd" d="M706.5,694.6h4.2l-4.2,14.1l-4,-14.1h4Z" class="g0_1013"/>
<path d="M706.9,564.5v-.4h-.7v.4h.7Z" class="g0_1013"/>
<path d="M706.9,693.9v.4h-.7v-.4h.7Z" class="g0_1013"/>
<path d="M706.9,564.5h-.7V693.9h.7V564.5Z" class="g0_1013"/>
<path d="M706.5,432.1h-5l.3,-1l4,-14l.7,-2.5l.8,2.5l4.1,14l.3,1h-1l-.8,-.6l-4.1,-14l1.5,-.4v.4l-4.1,14l-1.4,-.4l.7,-.6h4v1.6Z" class="g0_1013"/>
<path d="M710.7,432.1h-4.2v-1.6h4.2v1.6Z" class="g0_1013"/>
<path fill-rule="evenodd" d="M706.5,431.4h-4l4,-14.1l4.2,14.1h-4.2Z" class="g0_1013"/>
<path d="M706.9,432.2v-.4h-.7v.4h.7Z" class="g0_1013"/>
<path d="M706.9,534.9v.3h-.7v-.3h.7Z" class="g0_1013"/>
<path d="M706.9,432.2h-.7V534.9h.7V432.2Z" class="g0_1013"/>
<path d="M372.3,168.2H620.6v58.2H372.3V168.2Z" class="g3_1013"/>
<path d="M372.3,167.8H621v.8H372.3v-.8Z" class="g0_1013"/>
<path d="M620.3,168.2h.7v58.6h-.7V168.2Z" class="g0_1013"/>
<path d="M372,226H620.6v.8H372V226Z" class="g0_1013"/>
<path d="M372,167.8h.7v58.6H372V167.8Z" class="g0_1013"/>
<path clip-path="url(#c1_1013)" fill-rule="evenodd" d="M339.9,191.6l-1.6,-4.1l-.5,-1.7l-.2,-1.6v-.7l.2,-.6l.2,-.8l.2,-.6l.5,-.6l.5,-.7l.7,-.6l.8,-.7l1.9,-1.3l2.7,-1.4l3.2,-1.6l3.9,-1.7l10.3,-4.1l13.7,-5.2l13.8,-5.2l5.7,-2l5,-1.8l4.6,-1.4l4.1,-1.1l3.9,-.8l3.6,-.5l3.5,-.2h3.7l3.8,.3l3.9,.5l4.4,.8l4.9,.9l11.6,2.5l11.6,2.6l5,1l4.4,.8l4.1,.6l3.9,.5l3.7,.1l3.9,.1l3.9,-.2l4.2,-.3l4.6,-.7l5.2,-.7l12.1,-2.2l15.8,-3l15.7,-3l6.4,-1.1l5.8,-1l5,-.6l4.5,-.5l4.1,-.1l3.9,.2l3.6,.5l3.5,.7l3.6,1.1l3.8,1.4l4,1.7l4.5,2.1l10.4,5.2l10.4,5.2l7.8,4l2.9,1.7l2.5,1.5l1.8,1.4l1.5,1.3l.5,.6l.5,.6l.4,.6l.2,.6l.2,1.2l-.1,1.3l-.3,1.3l-.7,1.6l-1.8,3.6l-1.9,3.5l-.9,1.3l-.9,1.1l-.9,.9l-1.1,.6L633,195l-1.3,.1l-1.6,-.3l-1.9,-.6l-2.2,-.7l-2.6,-1.1L617,189.3l-8.5,-4.2l-8.7,-4.2l-3.6,-1.7l-3.4,-1.3l-3.2,-.9l-3.1,-.6l-1.6,-.2l-1.6,-.1l-3.3,.2l-3.4,.4l-4,.9l-4.3,1.3l-4.9,1.7l-5.5,2.1l-6.4,2.5L536,191.6l-15.4,6.3l-6.4,2.5l-5.6,2l-5,1.6l-4.6,1.1l-2.2,.5l-2,.3l-2,.2l-2,.1l-2,-.1l-1.9,-.1l-1.9,-.3l-1.9,-.4l-2,-.4l-2,-.7l-4.3,-1.4l-4.6,-2.1l-5,-2.3L453,192.2l-12.1,-6l-5,-2.5l-4.5,-1.9l-4.2,-1.7L423.5,179l-3.5,-.8l-1.7,-.2l-1.7,-.2h-1.7l-1.7,.1l-1.7,.1l-1.9,.3l-3.6,.8l-4.1,1.2l-4.4,1.6l-4.9,1.9l-11.9,4.8l-11.8,5l-9,3.6l-3.5,1.3l-3,.9l-2.6,.6l-2.1,.3h-1.8l-.7,-.1l-.6,-.3l-.7,-.3l-.5,-.3l-.6,-.5l-.5,-.4l-.8,-1.3l-.9,-1.6l-1.7,-3.9Z" class="g2_1013"/>
<path d="M639.2,214.9V220l-1,-.3l-14.1,-4l-2.5,-.8l2.5,-.7l14.1,-4l1,-.3v1l-.6,.7l-14,4.1l-.5,-1.5h.5l14,4l-.4,1.5l-.6,-.7v-4.1h1.6Z" class="g0_1013"/>
<path d="M639.2,210.9v4h-1.6v-4h1.6Z" class="g0_1013"/>
<path fill-rule="evenodd" d="M638.4,214.9V219l-14,-4.1l14,-4v4Z" class="g0_1013"/>
<path d="M763.4,215.3h.3v-.7h-.3v.7Z" class="g0_1013"/>
<path d="M639.3,215.3h-.4v-.7h.4v.7Z" class="g0_1013"/>
<path d="M763.4,215.3v-.7H639.3v.7H763.4Z" class="g0_1013"/>
<path d="M642.6,704.8l1.1,3.8l.2,1.1h-1l-14.6,-.3l-2.7,-.1l2.3,-1.4l12.5,-7.5l1,-.6l.2,1.1l-.3,.8l-12.6,7.5l-.8,-1.3l.4,-.1l14.7,.3l-.1,1.6l-.7,-.7l-1.1,-3.8l1.5,-.4Z" class="g0_1013"/>
<path d="M641.6,700.9l1,3.9l-1.5,.4l-1,-4l1.5,-.3Z" class="g0_1013"/>
<path fill-rule="evenodd" d="M641.9,705l1.1,3.8l-14.7,-.2L640.9,701l1,4Z" class="g0_1013"/>
<path d="M762.7,673l.4,-.1l-.2,-.7l-.4,.1l.2,.7Z" class="g0_1013"/>
<path d="M642.8,705.1l-.3,.1l-.2,-.8l.3,-.1l.2,.8Z" class="g0_1013"/>
<path d="M762.7,673l-.2,-.7l-119.9,32l.2,.8L762.7,673Z" class="g0_1013"/>
</svg>