<?xml version="1.0" encoding="UTF-8" standalone="no"?>
<!DOCTYPE svg PUBLIC "-//W3C//DTD SVG 1.1//EN"
"http://www.w3.org/Graphics/SVG/1.1/DTD/svg11.dtd">
<svg viewBox="0 0 935 1210" version="1.1" xmlns="http://www.w3.org/2000/svg" xmlns:xlink="http://www.w3.org/1999/xlink">
<defs>
<style type="text/css"><![CDATA[
.g0_394{
fill: #FFF;
}
.g1_394{
fill: #000;
}
]]></style>
</defs>
<path d="M68.8,1149.3H852.5v-21.2H68.8v21.2Z" class="g0_394"/>
<path d="M68.6,1096.6h.7V124.1h-.7v972.5Z" class="g1_394"/>
<path d="M122.7,1097.3h.8V164.6h-.8v932.7Z" class="g1_394"/>
<path d="M173.5,1097.3h.8V123.4h-.8v973.9Z" class="g1_394"/>
<path d="M393.8,1097.3h.7V123.4h-.7v973.9Z" class="g1_394"/>
<path d="M469.1,1097.3h.7V123.4h-.7v973.9Z" class="g1_394"/>
<path d="M560.4,1097.3h.8V123.4h-.8v973.9Z" class="g1_394"/>
<path d="M850.1,1096.6h.7V124.1h-.7v972.5Z" class="g1_394"/>
<path d="M68.6,124.1H850.8v-.7H68.6v.7Z" class="g1_394"/>
<path d="M68.6,165.4H174.3v-.8H68.6v.8Z" class="g1_394"/>
<path d="M68.6,189.8H850.8v-.7H68.6v.7Z" class="g1_394"/>
<path d="M68.6,281.5H850.8v-.7H68.6v.7Z" class="g1_394"/>
<path d="M173.5,344.1H850.8v-.7H173.5v.7Z" class="g1_394"/>
<path d="M68.6,435.8H850.8v-.7H68.6v.7Z" class="g1_394"/>
<path d="M173.5,498.5H850.8v-.8H173.5v.8Z" class="g1_394"/>
<path d="M68.6,590.2H850.8v-.8H68.6v.8Z" class="g1_394"/>
<path d="M68.6,631.4H850.8v-.7H68.6v.7Z" class="g1_394"/>
<path d="M68.6,672.7H850.8v-.8H68.6v.8Z" class="g1_394"/>
<path d="M68.6,756.6H850.8v-.7H68.6v.7Z" class="g1_394"/>
<path d="M68.6,819.3H850.8v-.7H68.6v.7Z" class="g1_394"/>
<path d="M68.6,881.9H850.8v-.7H68.6v.7Z" class="g1_394"/>
<path d="M173.5,906.4H850.8v-.7H173.5v.7Z" class="g1_394"/>
<path d="M393.8,981.2H850.9v-.7H393.8v.7Z" class="g1_394"/>
<path d="M68.6,1056.1H850.8v-.7H68.6v.7Z" class="g1_394"/>
<path d="M68.6,1097.3H850.8v-.7H68.6v.7Z" class="g1_394"/>
</svg>