<?xml version="1.0" encoding="UTF-8" standalone="no"?>
<!DOCTYPE svg PUBLIC "-//W3C//DTD SVG 1.1//EN"
"http://www.w3.org/Graphics/SVG/1.1/DTD/svg11.dtd">
<svg viewBox="0 0 935 1210" version="1.1" xmlns="http://www.w3.org/2000/svg" xmlns:xlink="http://www.w3.org/1999/xlink">
<defs>
<style type="text/css"><![CDATA[
.g0_592{
fill: #FFF;
}
.g1_592{
fill: #000;
}
]]></style>
</defs>
<path d="M68.8,1149.3H852.5v-21.2H68.8v21.2Z" class="g0_592"/>
<path d="M71.2,626H72V295.3h-.8V626Z" class="g1_592"/>
<path d="M210.9,626.8h.8V294.5h-.8V626.8Z" class="g1_592"/>
<path d="M247.6,626.8h.7V294.5h-.7V626.8Z" class="g1_592"/>
<path d="M289.6,626.8h.7V294.5h-.7V626.8Z" class="g1_592"/>
<path d="M328.9,626.8h.7V294.5h-.7V626.8Z" class="g1_592"/>
<path d="M364.5,626.8h.7V294.5h-.7V626.8Z" class="g1_592"/>
<path d="M849.2,626h.7V295.3h-.7V626Z" class="g1_592"/>
<path d="M71.2,295.3H849.9v-.8H71.2v.8Z" class="g1_592"/>
<path d="M71.2,399.1H849.9v-.7H71.2v.7Z" class="g1_592"/>
<path d="M71.2,423.6H849.9v-.7H71.2v.7Z" class="g1_592"/>
<path d="M71.2,448.1H849.9v-.8H71.2v.8Z" class="g1_592"/>
<path d="M71.2,536.6H849.9v-.7H71.2v.7Z" class="g1_592"/>
<path d="M71.2,561.1H849.9v-.7H71.2v.7Z" class="g1_592"/>
<path d="M71.2,585.6H849.9v-.8H71.2v.8Z" class="g1_592"/>
<path d="M71.2,626.8H849.9v-.7H71.2v.7Z" class="g1_592"/>
</svg>