<?xml version="1.0" encoding="UTF-8" standalone="no"?>
<!DOCTYPE svg PUBLIC "-//W3C//DTD SVG 1.1//EN"
"http://www.w3.org/Graphics/SVG/1.1/DTD/svg11.dtd">
<svg viewBox="0 0 935 1210" version="1.1" xmlns="http://www.w3.org/2000/svg" xmlns:xlink="http://www.w3.org/1999/xlink">
<defs>
<clipPath id="c0_1540"><path d="M766.6,59.2V41.4h72.1V59.2Z"/></clipPath>
<style type="text/css"><![CDATA[
.g0_1540{
fill: #000;
}
.g1_1540{
fill: none;
stroke: #231F20;
stroke-width: 0.763;
}
.g2_1540{
fill: none;
stroke: #231F20;
stroke-width: 1.527;
}
.g3_1540{
fill: #231F20;
}
.g4_1540{
fill: none;
stroke: #231F20;
stroke-width: 1.527;
stroke-dasharray: 2,4;
}
.g5_1540{
fill: none;
stroke: #231F20;
stroke-width: 1.145;
}
]]></style>
</defs>
<path d="M97.3,62.9v.3H839.9v-.3H97.3Z" class="g0_1540"/>
<path d="M96.2,1114.1h-.1v.4h.1v-.4Z" class="g0_1540"/>
<path d="M838.7,1114.1h.2v.4h-.2v-.4Z" class="g0_1540"/>
<path d="M96.2,1114.1v.4H838.7v-.4H96.2Z" class="g0_1540"/>
<image clip-path="url(#c0_1540)" preserveAspectRatio="none" x="767" y="41" width="72" height="18" xlink:href="img/1.jpg"/>
<path d="M559,1008.8v1.1h31.4v-1.1H559Z" class="g0_1540"/>
<path d="M688.7,1008.8v1.1H709v-1.1H688.7Z" class="g0_1540"/>
<path d="M559,1036.3v1.1h31.4v-1.1H559Z" class="g0_1540"/>
<path d="M688.7,1036.3v1.1H709v-1.1H688.7Z" class="g0_1540"/>
<path d="M669.4,526.3H641.9V498.8h27.5v27.5ZM422.2,443.8H394.7V416.3h27.5v27.5Z" class="g1_1540"/>
<path d="M201.9,443.8H174.4V416.3h27.5v27.5Zm495,0h-440V416.3h440v27.5Z" class="g2_1540"/>
<path d="M449.4,443.8H421.9V416.3h27.5v27.5Zm27.5,0H449.4V416.3h27.5v27.5Zm27.5,0H476.9V416.3h27.5v27.5Zm27.5,0H504.4V416.3h27.5v27.5Zm27.5,0H531.9V416.3h27.5v27.5Zm27.5,0H559.4V416.3h27.5v27.5Zm27.5,0H586.9V416.3h27.5v27.5Zm27.5,0H614.4V416.3h27.5v27.5Zm27.5,0H641.9V416.3h27.5v27.5Z" class="g1_1540"/>
<path d="M219.5,432c0,1.1,-.8,1.9,-1.9,1.9c-1.1,0,-1.9,-.8,-1.9,-1.9c0,-1.1,.8,-1.9,1.9,-1.9c1.1,0,1.9,.8,1.9,1.9Z" class="g3_1540"/>
<path d="M219.5,432c0,1.1,-.8,1.9,-1.9,1.9c-1.1,0,-1.9,-.8,-1.9,-1.9c0,-1.1,.8,-1.9,1.9,-1.9c1.1,0,1.9,.8,1.9,1.9Z" class="g2_1540"/>
<path d="M232.1,432c0,1.1,-.8,1.9,-1.9,1.9c-1.1,0,-1.9,-.8,-1.9,-1.9c0,-1.1,.8,-1.9,1.9,-1.9c1.1,0,1.9,.8,1.9,1.9Z" class="g3_1540"/>
<path d="M232.1,432c0,1.1,-.8,1.9,-1.9,1.9c-1.1,0,-1.9,-.8,-1.9,-1.9c0,-1.1,.8,-1.9,1.9,-1.9c1.1,0,1.9,.8,1.9,1.9Z" class="g2_1540"/>
<path d="M244.7,432c0,1.1,-.8,1.9,-1.9,1.9c-1.1,0,-1.9,-.8,-1.9,-1.9c0,-1.1,.8,-1.9,1.9,-1.9c1.1,0,1.9,.8,1.9,1.9Z" class="g3_1540"/>
<path d="M244.7,432c0,1.1,-.8,1.9,-1.9,1.9c-1.1,0,-1.9,-.8,-1.9,-1.9c0,-1.1,.8,-1.9,1.9,-1.9c1.1,0,1.9,.8,1.9,1.9Z" class="g2_1540"/>
<path d="M394.4,443.8H366.9V416.3h27.5v27.5Zm-55,0H311.9V416.3h27.5v27.5Zm-27.5,0H284.4V416.3h27.5v27.5Zm-27.5,0H256.9V416.3h27.5v27.5Z" class="g1_1540"/>
<path d="M696.9,526.3h-440V498.8h440v27.5Z" class="g2_1540"/>
<path d="M449.4,526.3H421.9V498.8h27.5v27.5Zm27.5,0H449.4V498.8h27.5v27.5Zm27.5,0H476.9V498.8h27.5v27.5Zm27.5,0H504.4V498.8h27.5v27.5Zm27.5,0H531.9V498.8h27.5v27.5Zm27.5,0H559.4V498.8h27.5v27.5Zm27.5,0H586.9V498.8h27.5v27.5Zm27.5,0H614.4V498.8h27.5v27.5Zm-220,0H394.4V498.8h27.5v27.5Zm-27.5,0H366.9V498.8h27.5v27.5Zm-27.5,0H339.4V498.8h27.5v27.5Zm-27.5,0H311.9V498.8h27.5v27.5Z" class="g1_1540"/>
<path d="M201.9,526.3H174.4V498.8h27.5v27.5Z" class="g2_1540"/>
<path d="M311.9,526.3H284.4V498.8h27.5v27.5Z" class="g1_1540"/>
<path d="M219.5,514.5c0,1.1,-.8,1.9,-1.9,1.9c-1.1,0,-1.9,-.8,-1.9,-1.9c0,-1.1,.8,-1.9,1.9,-1.9c1.1,0,1.9,.8,1.9,1.9Z" class="g3_1540"/>
<path d="M219.5,514.5c0,1.1,-.8,1.9,-1.9,1.9c-1.1,0,-1.9,-.8,-1.9,-1.9c0,-1.1,.8,-1.9,1.9,-1.9c1.1,0,1.9,.8,1.9,1.9Z" class="g2_1540"/>
<path d="M232.1,514.5c0,1.1,-.8,1.9,-1.9,1.9c-1.1,0,-1.9,-.8,-1.9,-1.9c0,-1.1,.8,-1.9,1.9,-1.9c1.1,0,1.9,.8,1.9,1.9Z" class="g3_1540"/>
<path d="M232.1,514.5c0,1.1,-.8,1.9,-1.9,1.9c-1.1,0,-1.9,-.8,-1.9,-1.9c0,-1.1,.8,-1.9,1.9,-1.9c1.1,0,1.9,.8,1.9,1.9Z" class="g2_1540"/>
<path d="M244.7,514.5c0,1.1,-.8,1.9,-1.9,1.9c-1.1,0,-1.9,-.8,-1.9,-1.9c0,-1.1,.8,-1.9,1.9,-1.9c1.1,0,1.9,.8,1.9,1.9Z" class="g3_1540"/>
<path d="M244.7,514.5c0,1.1,-.8,1.9,-1.9,1.9c-1.1,0,-1.9,-.8,-1.9,-1.9c0,-1.1,.8,-1.9,1.9,-1.9c1.1,0,1.9,.8,1.9,1.9Z" class="g2_1540"/>
<path d="M188.2,388.8v19" class="g4_1540"/>
<path d="M182.4,406.1l5.7,9.9l5.8,-9.9H182.4Z" class="g3_1540"/>
<path d="M518.2,388.8v19" class="g2_1540"/>
<path d="M512.4,406.1l5.8,9.9l5.7,-9.9H512.4Z" class="g3_1540"/>
<path d="M463.2,388.8v19" class="g2_1540"/>
<path d="M457.4,406.1l5.8,9.9l5.7,-9.9H457.4Z" class="g3_1540"/>
<path d="M435.7,388.8v19" class="g2_1540"/>
<path d="M429.9,406.1l5.7,9.9l5.8,-9.9H429.9Z" class="g3_1540"/>
<path d="M353.2,388.8v19" class="g2_1540"/>
<path d="M347.4,406.1l5.7,9.9l5.8,-9.9H347.4Z" class="g3_1540"/>
<path d="M325.7,388.8v19" class="g2_1540"/>
<path d="M319.9,406.1l5.7,9.9l5.8,-9.9H319.9Z" class="g3_1540"/>
<path d="M298.2,388.8v19" class="g2_1540"/>
<path d="M292.4,406.1l5.7,9.9l5.8,-9.9H292.4Z" class="g3_1540"/>
<path d="M628.2,388.8v19" class="g2_1540"/>
<path d="M622.4,406.1l5.8,9.9l5.7,-9.9H622.4Z" class="g3_1540"/>
<path d="M696.9,388.8h-440V361.3h440v27.5Z" class="g2_1540"/>
<path d="M449.4,388.8H421.9V361.3h27.5v27.5Zm27.5,0H449.4V361.3h27.5v27.5Zm27.5,0H476.9V361.3h27.5v27.5Zm27.5,0H504.4V361.3h27.5v27.5Zm27.5,0H531.9V361.3h27.5v27.5Zm27.5,0H559.4V361.3h27.5v27.5Zm27.5,0H586.9V361.3h27.5v27.5Zm27.5,0H614.4V361.3h27.5v27.5Zm27.5,0H641.9V361.3h27.5v27.5Zm-247.5,0H394.4V361.3h27.5v27.5Zm-27.5,0H366.9V361.3h27.5v27.5Zm-27.5,0H339.4V361.3h27.5v27.5Zm-27.5,0H311.9V361.3h27.5v27.5Z" class="g1_1540"/>
<path d="M201.9,388.8H174.4V361.3h27.5v27.5Z" class="g2_1540"/>
<path d="M311.9,388.8H284.4V361.3h27.5v27.5Z" class="g1_1540"/>
<path d="M219.5,377c0,1.1,-.8,1.9,-1.9,1.9c-1.1,0,-1.9,-.8,-1.9,-1.9c0,-1.1,.8,-1.9,1.9,-1.9c1.1,0,1.9,.8,1.9,1.9Z" class="g3_1540"/>
<path d="M219.5,377c0,1.1,-.8,1.9,-1.9,1.9c-1.1,0,-1.9,-.8,-1.9,-1.9c0,-1.1,.8,-1.9,1.9,-1.9c1.1,0,1.9,.8,1.9,1.9Z" class="g2_1540"/>
<path d="M232.1,377c0,1.1,-.8,1.9,-1.9,1.9c-1.1,0,-1.9,-.8,-1.9,-1.9c0,-1.1,.8,-1.9,1.9,-1.9c1.1,0,1.9,.8,1.9,1.9Z" class="g3_1540"/>
<path d="M232.1,377c0,1.1,-.8,1.9,-1.9,1.9c-1.1,0,-1.9,-.8,-1.9,-1.9c0,-1.1,.8,-1.9,1.9,-1.9c1.1,0,1.9,.8,1.9,1.9Z" class="g2_1540"/>
<path d="M244.7,377c0,1.1,-.8,1.9,-1.9,1.9c-1.1,0,-1.9,-.8,-1.9,-1.9c0,-1.1,.8,-1.9,1.9,-1.9c1.1,0,1.9,.8,1.9,1.9Z" class="g3_1540"/>
<path d="M244.7,377c0,1.1,-.8,1.9,-1.9,1.9c-1.1,0,-1.9,-.8,-1.9,-1.9c0,-1.1,.8,-1.9,1.9,-1.9c1.1,0,1.9,.8,1.9,1.9Z" class="g2_1540"/>
<path d="M628.4,444.4c1.4,15.2,30,13.9,39.3,20.4c9.6,6.7,13.8,17.2,14.8,27.9" class="g5_1540"/>
<path d="M678.1,491.9l4.9,7l3.6,-7.8l-8.5,.8Z" class="g3_1540"/>
<path d="M517.9,444.9c-7.1,12.5,15,10.2,21,10.3c19.6,.5,39.9,-.6,59.1,4.2c16.1,3.9,34.1,10.2,45.3,23.1c2.7,3.1,5.4,6.7,7.3,10.4" class="g5_1540"/>
<path d="M646.2,493.8l7.3,4.6l.3,-8.6l-7.6,4Z" class="g3_1540"/>
<path d="M298.9,443.9c-.9,10.5,-2.4,17.6,5.1,25.7c7.6,8.2,16,12.1,27,13.9c23.5,3.8,47.3,4.2,71,5.2c28.4,1.2,57.1,.3,85.5,.6c10.4,.1,22.5,-4.3,29,4.3" class="g5_1540"/>
<path d="M512.3,495.2l7.9,3.3L519.1,490l-6.8,5.2Z" class="g3_1540"/>
<path d="M325.4,444.4c-3.2,5.5,-3.1,15.7,-.4,21.4c5,10.6,17.6,11.2,27.6,12.9c14.9,2.5,29.5,2.9,44.6,3.8c13.9,.9,27.3,.9,41.2,1.5c24.1,1,48.1,.6,72.2,1.1c8,.2,25.5,-.1,31.1,8.1" class="g5_1540"/>
<path d="M537.4,494.6l7.7,3.7l-.6,-8.6l-7.1,4.9Z" class="g3_1540"/>
<path d="M353.4,444.4c0,11,.6,20.5,12.5,24.9c10.6,4.1,23.1,6.6,34.1,7.4c15,1,30,1.8,45,2.6c19.7,.9,43,1.1,65.3,1c25,-.3,49.8,-.2,60,13.1" class="g5_1540"/>
<path d="M566.1,495l7.9,3.4l-1.1,-8.5l-6.8,5.1Z" class="g3_1540"/>
<path d="M435.6,443.9c-.6,9.5,1.8,18.1,10.3,23.4c9.6,5.9,22.9,8.1,34,8.7c17.2,.9,34.6,-.4,51.9,.6c17.6,1,35.8,1.5,52.3,8.2c4.2,1.7,9.8,4.3,12.3,8.3" class="g5_1540"/>
<path d="M592.1,494.3l7.6,4.1l-.3,-8.6l-7.3,4.5Z" class="g3_1540"/>
<path d="M463.5,443.9c-.9,8.7,12.5,11.8,18.3,13.8c31,10.8,65.5,8.8,97.9,12.3c7.7,.8,15.5,2,22.9,4.3c5.6,1.8,11.3,4.3,15.9,7.9c4,3,6.5,6.6,8.5,10.9" class="g5_1540"/>
<path d="M622.5,493.7l7,5.1l.9,-8.5l-7.9,3.4Z" class="g3_1540"/>
</svg>