<?xml version="1.0" encoding="UTF-8" standalone="no"?>
<!DOCTYPE svg PUBLIC "-//W3C//DTD SVG 1.1//EN"
"http://www.w3.org/Graphics/SVG/1.1/DTD/svg11.dtd">
<svg viewBox="0 0 935 1210" version="1.1" xmlns="http://www.w3.org/2000/svg" xmlns:xlink="http://www.w3.org/1999/xlink">
<defs>
<style type="text/css"><![CDATA[
.g0_166{
fill: #000;
}
]]></style>
</defs>
<path d="M80.8,693.2h.7V134.8h-.7V693.2Z" class="g0_166"/>
<path d="M163.3,693.9h.7V161.5h-.7V693.9Z" class="g0_166"/>
<path d="M262.3,693.9h.7V134h-.7V693.9Z" class="g0_166"/>
<path d="M537.3,693.9h.7V134h-.7V693.9Z" class="g0_166"/>
<path d="M606,693.9h.7V134H606V693.9Z" class="g0_166"/>
<path d="M729.8,693.9h.7V134h-.7V693.9Z" class="g0_166"/>
<path d="M853.5,693.2h.7V134.8h-.7V693.2Z" class="g0_166"/>
<path d="M80.8,134.8H854.2V134H80.8v.8Z" class="g0_166"/>
<path d="M80.8,162.3H263v-.8H80.8v.8Z" class="g0_166"/>
<path d="M81.5,187.9h772v-.7H81.5v.7Z" class="g0_166"/>
<path d="M81.5,191.7h772v-.8H81.5v.8Z" class="g0_166"/>
<path d="M80.8,546.8H854.2v-.7H80.8v.7Z" class="g0_166"/>
<path d="M80.8,693.9H854.2v-.7H80.8v.7Z" class="g0_166"/>
<path d="M192.1,1060.6h.8V800.3h-.8v260.3Z" class="g0_166"/>
<path d="M302.1,1061.4h.8V799.6h-.8v261.8Z" class="g0_166"/>
<path d="M577.1,1061.4h.8V799.6h-.8v261.8Z" class="g0_166"/>
<path d="M742.1,1060.6h.8V800.3h-.8v260.3Z" class="g0_166"/>
<path d="M192.1,800.3H742.9v-.7H192.1v.7Z" class="g0_166"/>
<path d="M192.9,867H742.1v-.7H192.9v.7Z" class="g0_166"/>
<path d="M192.9,870.7H742.1V870H192.9v.7Z" class="g0_166"/>
<path d="M192.1,901H742.9v-.7H192.1v.7Z" class="g0_166"/>
<path d="M192.1,933.1H742.9v-.8H192.1v.8Z" class="g0_166"/>
<path d="M192.1,965.2H742.9v-.8H192.1v.8Z" class="g0_166"/>
<path d="M192.1,997.2H742.9v-.7H192.1v.7Z" class="g0_166"/>
<path d="M192.1,1029.3H742.9v-.7H192.1v.7Z" class="g0_166"/>
<path d="M192.1,1061.4H742.9v-.7H192.1v.7Z" class="g0_166"/>
</svg>