<?xml version="1.0" encoding="UTF-8" standalone="no"?>
<!DOCTYPE svg PUBLIC "-//W3C//DTD SVG 1.1//EN"
"http://www.w3.org/Graphics/SVG/1.1/DTD/svg11.dtd">
<svg viewBox="0 0 935 1210" version="1.1" xmlns="http://www.w3.org/2000/svg" xmlns:xlink="http://www.w3.org/1999/xlink">
<defs>
<clipPath id="c0_182"><path d="M97.2,59V41.4h72.2V59Z"/></clipPath>
<style type="text/css"><![CDATA[
.g0_182{
fill: #000;
}
.g1_182{
fill: none;
stroke: #000;
stroke-width: 1.527;
}
.g2_182{
fill: none;
stroke: #000;
stroke-width: 0.763;
}
.g3_182{
fill: none;
stroke: #000;
stroke-width: 0.763;
stroke-dasharray: 19,7;
}
]]></style>
</defs>
<path d="M96.1,63.1v.3H838.9v-.3H96.1Z" class="g0_182"/>
<path d="M96.1,1114.3v.3v-.3Z" class="g0_182"/>
<path d="M838.9,1114.3v.3v-.3Z" class="g0_182"/>
<path d="M96.1,1114.3v.3H838.9v-.3H96.1Z" class="g0_182"/>
<image clip-path="url(#c0_182)" preserveAspectRatio="none" x="97" y="41" width="72" height="18" xlink:href="img/1.jpg"/>
<path d="M465.9,214.4H438.3v-22h27.6v22Zm-27.6,0H410.8v-22h27.5v22Zm-27.5,0H383.3v-22h27.5v22Zm-27.5,0H355.8v-22h27.5v22Zm-27.5,0H328.3v-22h27.5v22Zm-27.5,0H300.8v-22h27.5v22Zm-27.5,0H273.3v-22h27.5v22Zm-27.5,0H245.8v-22h27.5v22Zm454.3,0H700.1v-22h27.5v22Zm-27.5,0H672.6v-22h27.5v22Zm-27.5,0H645.1v-22h27.5v22Zm-27.5,0H617.6v-22h27.5v22Zm-27.5,0H590.1v-22h27.5v22Zm-27.5,0H562.6v-22h27.5v22Zm-27.5,0H535.1v-22h27.5v22Zm-27.5,0H507.6v-22h27.5v22Z" class="g1_182"/>
<path d="M293.5,274.2v25.3Z" class="g0_182"/>
<path d="M293.5,274.2v25.3" class="g2_182"/>
<path d="M296.6,298.3l-3.1,6.6l-3,-6.6h6.1Z" class="g0_182"/>
<path d="M260,220l27.9,35.4Z" class="g0_182"/>
<path d="M260,220l27.9,35.4" class="g2_182"/>
<path d="M522.5,220.1L301.7,256.4Z" class="g0_182"/>
<path d="M522.5,220.1L301.7,256.4" class="g2_182"/>
<path d="M678.6,274.2v28.4Z" class="g0_182"/>
<path d="M678.6,274.2v28.4" class="g2_182"/>
<path d="M675.5,298.3l3.1,6.6l3,-6.6h-6.1Z" class="g0_182"/>
<path d="M714.5,220.5l-30.3,34.9Z" class="g0_182"/>
<path d="M714.5,220.5l-30.3,34.9" class="g2_182"/>
<path d="M454,220l216.9,36.4Z" class="g0_182"/>
<path d="M454,220l216.9,36.4" class="g2_182"/>
<path d="M623.6,274.2v25.3Z" class="g0_182"/>
<path d="M623.6,274.2v25.3" class="g2_182"/>
<path d="M620.5,298.3l3,6.6l3.1,-6.6h-6.1Z" class="g0_182"/>
<path d="M687,220l-56.8,35.9Z" class="g0_182"/>
<path d="M687,220l-56.8,35.9" class="g2_182"/>
<path d="M426.5,220l189.9,36.4Z" class="g0_182"/>
<path d="M426.5,220l189.9,36.4" class="g2_182"/>
<path d="M348.5,274.2v25.3Z" class="g0_182"/>
<path d="M348.5,274.2v25.3" class="g2_182"/>
<path d="M351.6,298.3l-3.1,6.6l-3,-6.6h6.1Z" class="g0_182"/>
<path d="M284.4,220l57,35.9Z" class="g0_182"/>
<path d="M284.4,220l57,35.9" class="g2_182"/>
<path d="M550.5,220L356.2,256.4Z" class="g0_182"/>
<path d="M550.5,220L356.2,256.4" class="g2_182"/>
<path d="M706.1,330h-55V308h55v22Zm-55,0H596V308h55.1v22ZM596,330H541V308h55v22Zm-55,0H486V308h55v22Zm-55,0H431V308h55v22Zm-55,0H376V308h55v22Zm-55,0H321V308h55v22Zm-55,0H266V308h55v22ZM596.6,446h-55V424h55v22Zm-55,0h-55V424h55v22Zm-55,0h-55V424h55v22Zm-55,0h-55V424h55v22Z" class="g1_182"/>
<path d="M458.5,386.5v25.3Z" class="g0_182"/>
<path d="M458.5,386.5v25.3" class="g2_182"/>
<path d="M461.6,410.6l-3.1,6.6l-3,-6.6h6.1Z" class="g0_182"/>
<path d="M458.5,336.6v28.3Z" class="g0_182"/>
<path d="M458.5,336.6v28.3" class="g2_182"/>
<path d="M402.5,336.9l49.9,31.6Z" class="g0_182"/>
<path d="M402.5,336.9l49.9,31.6" class="g2_182"/>
<path d="M513.6,386.5v25.3Z" class="g0_182"/>
<path d="M513.6,386.5v25.3" class="g2_182"/>
<path d="M510.5,410.6l3,6.6l3.1,-6.6h-6.1Z" class="g0_182"/>
<path d="M513.5,337.4v28.3Z" class="g0_182"/>
<path d="M513.5,337.4v28.3" class="g2_182"/>
<path d="M570.1,336.9l-49.9,31.6Z" class="g0_182"/>
<path d="M570.1,336.9l-49.9,31.6" class="g2_182"/>
<path d="M348.5,337.4v28.3Z" class="g0_182"/>
<path d="M348.5,337.4v28.3" class="g2_182"/>
<path d="M623.5,337.4v28.3Z" class="g0_182"/>
<path d="M623.5,337.4v28.3M304,263.8c0,-5.9,-4.7,-10.6,-10.5,-10.6c-5.8,0,-10.5,4.7,-10.5,10.6c0,5.8,4.7,10.5,10.5,10.5c5.8,0,10.5,-4.7,10.5,-10.5Zm55,0c0,-5.9,-4.7,-10.6,-10.5,-10.6c-5.8,0,-10.5,4.7,-10.5,10.6c0,5.8,4.7,10.5,10.5,10.5c5.8,0,10.5,-4.7,10.5,-10.5Zm275.1,0c0,-5.9,-4.7,-10.6,-10.6,-10.6c-5.8,0,-10.5,4.7,-10.5,10.6c0,5.8,4.7,10.5,10.5,10.5c5.9,0,10.6,-4.7,10.6,-10.5Zm55,0c0,-5.9,-4.7,-10.6,-10.5,-10.6c-5.9,0,-10.6,4.7,-10.6,10.6c0,5.8,4.7,10.5,10.6,10.5c5.8,0,10.5,-4.7,10.5,-10.5ZM359,376.3c0,-5.8,-4.7,-10.5,-10.5,-10.5c-5.8,0,-10.5,4.7,-10.5,10.5c0,5.8,4.7,10.5,10.5,10.5c5.8,0,10.5,-4.7,10.5,-10.5Zm110.1,0c0,-5.8,-4.8,-10.5,-10.6,-10.5c-5.8,0,-10.5,4.7,-10.5,10.5c0,5.8,4.7,10.5,10.5,10.5c5.8,0,10.6,-4.7,10.6,-10.5Zm55,0c0,-5.8,-4.8,-10.5,-10.6,-10.5c-5.8,0,-10.5,4.7,-10.5,10.5c0,5.8,4.7,10.5,10.5,10.5c5.8,0,10.6,-4.7,10.6,-10.5Zm110,0c0,-5.8,-4.7,-10.5,-10.6,-10.5c-5.8,0,-10.5,4.7,-10.5,10.5c0,5.8,4.7,10.5,10.5,10.5c5.9,0,10.6,-4.7,10.6,-10.5Zm44,-39.7l-45.6,32.6M291,336.6l49.1,34.6m275.6,12.7l-34.2,27" class="g2_182"/>
<path d="M580,407.2l-2.8,7.1l7.6,-1.1l-4.8,-6Z" class="g0_182"/>
<path d="M356.9,383.4l40.9,28" class="g2_182"/>
<path d="M394.8,413.9l7.6,.6l-3.3,-6.9l-4.3,6.3Z" class="g0_182"/>
<path d="M376.3,433.9H205.7V201.6h32.6" class="g3_182"/>
<path d="M237.2,205.4l6.6,-3.8l-6.6,-3.8v7.6Z" class="g0_182"/>
<path d="M405.1,712.2H391.4v-22h13.7v22Zm-13.7,0H377.6v-22h13.8v22Zm-13.8,0H363.9v-22h13.7v22Zm-13.7,0H350.1v-22h13.8v22Zm96.2,0H446.4v-22h13.7v22Zm-13.7,0H432.6v-22h13.8v22Zm-13.8,0H418.9v-22h13.7v22Zm-13.7,0H405.1v-22h13.8v22Zm-123.8,0H281.4v-22h13.7v22Zm-13.7,0H267.6v-22h13.8v22Zm-13.8,0H253.9v-22h13.7v22Zm-13.7,0H240.1v-22h13.8v22Zm96.2,0H336.4v-22h13.7v22Zm-13.7,0H322.6v-22h13.8v22Zm-13.8,0H308.9v-22h13.7v22Zm-13.7,0H295.1v-22h13.8v22Zm248,0H543.2v-22h13.7v22Zm-13.7,0H529.4v-22h13.8v22Zm-13.8,0H515.7v-22h13.7v22Zm-13.7,0H501.9v-22h13.8v22Zm96.2,0H598.2v-22h13.7v22Zm-13.7,0H584.4v-22h13.8v22Zm-13.8,0H570.7v-22h13.7v22Zm-13.7,0H556.9v-22h13.8v22Zm96.2,0H653.2v-22h13.7v22Zm-13.7,0H639.4v-22h13.8v22Zm-13.8,0H625.7v-22h13.7v22Zm-13.7,0H611.9v-22h13.8v22Zm96.2,0H708.2v-22h13.7v22Zm-13.7,0H694.4v-22h13.8v22Zm-13.8,0H680.7v-22h13.7v22Zm-13.7,0H666.9v-22h13.8v22Z" class="g1_182"/>
<path d="M715,720.3l-4.9,32.8Z" class="g0_182"/>
<path d="M715,720.3l-4.9,32.8" class="g2_182"/>
<path d="M455.5,720.3l245.9,33.8Z" class="g0_182"/>
<path d="M455.5,720.3l245.9,33.8" class="g2_182"/>
<path d="M618,720.2l-96.6,34.4Z" class="g0_182"/>
<path d="M618,720.2l-96.6,34.4" class="g2_182"/>
<path d="M358.2,718.7l151.5,35.4Z" class="g0_182"/>
<path d="M358.2,718.7l151.5,35.4" class="g2_182"/>
<path d="M517.1,835.9l49.7,32.5Z" class="g0_182"/>
<path d="M517.1,835.9l49.7,32.5" class="g2_182"/>
<path d="M709.1,834.6L586.6,871.4Z" class="g0_182"/>
<path d="M709.1,834.6L586.6,871.4" class="g2_182"/>
<path d="M448.3,835.8l14,29Z" class="g0_182"/>
<path d="M448.3,835.8l14,29" class="g2_182"/>
<path d="M256.4,834.6l198.9,36.8Z" class="g0_182"/>
<path d="M256.4,834.6l198.9,36.8" class="g2_182"/>
<path d="M722.6,827.5H695.1v-22h27.5v22Zm-27.5,0H667.6v-22h27.5v22Zm-27.5,0H640.1v-22h27.5v22Zm-27.5,0H612.6v-22h27.5v22Zm-27.5,0H585.1v-22h27.5v22Zm-27.5,0H557.6v-22h27.5v22Zm-27.5,0H530.1v-22h27.5v22Zm-27.5,0H502.6v-22h27.5v22Zm60.1,116.6H562.7v-22h27.5v22Zm-27.5,0H480.2v-22h82.5v22Zm-82.5,0H452.7v-22h27.5v22Zm-27.5,0H370.2v-22h82.5v22Z" class="g1_182"/>
<path d="M249.2,720.3l4.9,32.8Z" class="g0_182"/>
<path d="M249.2,720.3l4.9,32.8" class="g2_182"/>
<path d="M508.7,720.3L262.8,754.1Z" class="g0_182"/>
<path d="M508.7,720.3L262.8,754.1" class="g2_182"/>
<path d="M348,720.2l96.6,34.4Z" class="g0_182"/>
<path d="M348,720.2l96.6,34.4" class="g2_182"/>
<path d="M607.7,718.7L456.3,754.1Z" class="g0_182"/>
<path d="M607.7,718.7L456.3,754.1" class="g2_182"/>
<path d="M460.6,827.5H433.1v-22h27.5v22Zm-27.5,0H405.6v-22h27.5v22Zm-27.5,0H378.1v-22h27.5v22Zm-27.5,0H350.6v-22h27.5v22Zm-27.5,0H323.1v-22h27.5v22Zm-27.5,0H295.5v-22h27.6v22Zm-27.6,0H268v-22h27.5v22Zm-27.5,0H240.5v-22H268v22Z" class="g1_182"/>
<path d="M277.1,764.2c0,4,-3.4,7.2,-7.5,7.2H239c-4.1,0,-7.5,-3.2,-7.5,-7.2c0,-4.1,3.4,-7.3,7.5,-7.3h30.6c4.1,0,7.5,3.2,7.5,7.3Zm192.5,0c0,4,-3.4,7.2,-7.4,7.2H431.5c-4.1,0,-7.5,-3.2,-7.5,-7.2c0,-4.1,3.4,-7.3,7.5,-7.3h30.7c4,0,7.4,3.2,7.4,7.3Zm69.5,0c0,4,-3.3,7.2,-7.4,7.2H501c-4.1,0,-7.4,-3.2,-7.4,-7.2c0,-4.1,3.3,-7.3,7.4,-7.3h30.7c4.1,0,7.4,3.2,7.4,7.3Zm192.5,0c0,4,-3.3,7.2,-7.4,7.2H693.5c-4.1,0,-7.4,-3.2,-7.4,-7.2c0,-4.1,3.3,-7.3,7.4,-7.3h30.7c4.1,0,7.4,3.2,7.4,7.3ZM475.1,875.9c0,4.8,-3.9,8.6,-8.7,8.6c-4.8,0,-8.6,-3.8,-8.6,-8.6c0,-4.8,3.8,-8.7,8.6,-8.7c4.8,0,8.7,3.9,8.7,8.7Zm110,0c0,4.8,-3.9,8.6,-8.7,8.6c-4.8,0,-8.6,-3.8,-8.6,-8.6c0,-4.8,3.8,-8.7,8.6,-8.7c4.8,0,8.7,3.9,8.7,8.7Zm-8.7,8.6v31.3" class="g2_182"/>
<path d="M576.4,921.2l-3.1,-7.6l3.1,1.8l3.1,-1.8l-3.1,7.6Z" class="g0_182"/>
<path d="M466.4,884.5v31.3" class="g2_182"/>
<path d="M466.4,921.2l-3.1,-7.6l3.1,1.8l3.1,-1.8l-3.1,7.6Z" class="g0_182"/>
<path d="M446.8,771.4v28.4" class="g2_182"/>
<path d="M446.8,805.2l-3.1,-7.6l3.1,1.8l3.1,-1.8l-3.1,7.6Z" class="g0_182"/>
<path d="M254.3,771.4v28.4" class="g2_182"/>
<path d="M254.3,805.2l-3.1,-7.6l3.1,1.8l3.1,-1.8l-3.1,7.6Z" class="g0_182"/>
<path d="M516.3,771.4v28.4" class="g2_182"/>
<path d="M516.3,805.2l-3.1,-7.6l3.1,1.8l3.1,-1.8l-3.1,7.6Z" class="g0_182"/>
<path d="M708.8,771.4v28.4" class="g2_182"/>
<path d="M708.8,805.2l-3.1,-7.6l3.1,1.8l3.1,-1.8l-3.1,7.6Z" class="g0_182"/>
<path d="M369.9,932.3H203.4V701.1h30.8" class="g3_182"/>
<path d="M239.6,701.1l-7.6,3.1l1.8,-3.1L232,698l7.6,3.1Z" class="g0_182"/>
</svg>