<?xml version="1.0" encoding="UTF-8" standalone="no"?>
<!DOCTYPE svg PUBLIC "-//W3C//DTD SVG 1.1//EN"
"http://www.w3.org/Graphics/SVG/1.1/DTD/svg11.dtd">
<svg viewBox="0 0 935 1210" version="1.1" xmlns="http://www.w3.org/2000/svg" xmlns:xlink="http://www.w3.org/1999/xlink">
<defs>
<style type="text/css"><![CDATA[
.g0_2962{
fill: #FFF;
}
.g1_2962{
fill: #000;
}
]]></style>
</defs>
<path d="M68.8,1149.3H852.5v-21.2H68.8v21.2Z" class="g0_2962"/>
<path d="M68.6,1084.4h.7V107.3h-.7v977.1Z" class="g1_2962"/>
<path d="M443.8,254h.8V106.6h-.8V254Z" class="g1_2962"/>
<path d="M443.8,474h.8V277.7h-.8V474Z" class="g1_2962"/>
<path d="M443.8,694h.8V497.7h-.8V694Z" class="g1_2962"/>
<path d="M443.8,914h.8V717.7h-.8V914Z" class="g1_2962"/>
<path d="M443.8,1085.2h.8V937.7h-.8v147.5Z" class="g1_2962"/>
<path d="M849.9,1084.4h.8V107.3h-.8v977.1Z" class="g1_2962"/>
<path d="M68.6,107.3H850.7v-.7H68.6v.7Z" class="g1_2962"/>
<path d="M68.6,131.7H850.7V131H68.6v.7Z" class="g1_2962"/>
<path d="M68.6,156.2H850.7v-.7H68.6v.7Z" class="g1_2962"/>
<path d="M68.6,180.7H850.7v-.8H68.6v.8Z" class="g1_2962"/>
<path d="M68.6,205.1H850.7v-.8H68.6v.8Z" class="g1_2962"/>
<path d="M68.6,229.5H850.7v-.7H68.6v.7Z" class="g1_2962"/>
<path d="M68.6,254H850.7v-.7H68.6v.7Z" class="g1_2962"/>
<path d="M68.6,278.4H850.7v-.7H68.6v.7Z" class="g1_2962"/>
<path d="M68.6,302.9H850.7v-.8H68.6v.8Z" class="g1_2962"/>
<path d="M68.6,327.3H850.7v-.7H68.6v.7Z" class="g1_2962"/>
<path d="M68.6,351.7H850.7V351H68.6v.7Z" class="g1_2962"/>
<path d="M68.6,376.2H850.7v-.7H68.6v.7Z" class="g1_2962"/>
<path d="M68.6,400.7H850.7v-.8H68.6v.8Z" class="g1_2962"/>
<path d="M68.6,425.2H850.7v-.8H68.6v.8Z" class="g1_2962"/>
<path d="M68.6,449.5H850.7v-.7H68.6v.7Z" class="g1_2962"/>
<path d="M68.6,474H850.7v-.7H68.6v.7Z" class="g1_2962"/>
<path d="M68.6,498.5H850.7v-.8H68.6v.8Z" class="g1_2962"/>
<path d="M68.6,522.9H850.7v-.8H68.6v.8Z" class="g1_2962"/>
<path d="M68.6,547.3H850.7v-.7H68.6v.7Z" class="g1_2962"/>
<path d="M68.6,571.8H850.7v-.7H68.6v.7Z" class="g1_2962"/>
<path d="M68.6,596.2H850.7v-.7H68.6v.7Z" class="g1_2962"/>
<path d="M68.6,620.7H850.7v-.8H68.6v.8Z" class="g1_2962"/>
<path d="M68.6,645.2H850.7v-.8H68.6v.8Z" class="g1_2962"/>
<path d="M68.6,669.5H850.7v-.7H68.6v.7Z" class="g1_2962"/>
<path d="M68.6,694H850.7v-.7H68.6v.7Z" class="g1_2962"/>
<path d="M68.6,718.5H850.7v-.8H68.6v.8Z" class="g1_2962"/>
<path d="M68.6,742.9H850.7v-.8H68.6v.8Z" class="g1_2962"/>
<path d="M68.6,767.3H850.7v-.7H68.6v.7Z" class="g1_2962"/>
<path d="M68.6,791.8H850.7v-.7H68.6v.7Z" class="g1_2962"/>
<path d="M68.6,816.2H850.7v-.7H68.6v.7Z" class="g1_2962"/>
<path d="M68.6,840.7H850.7v-.8H68.6v.8Z" class="g1_2962"/>
<path d="M68.6,865.2H850.7v-.8H68.6v.8Z" class="g1_2962"/>
<path d="M68.6,889.5H850.7v-.7H68.6v.7Z" class="g1_2962"/>
<path d="M68.6,914H850.7v-.7H68.6v.7Z" class="g1_2962"/>
<path d="M68.6,938.5H850.7v-.8H68.6v.8Z" class="g1_2962"/>
<path d="M68.6,962.9H850.7v-.8H68.6v.8Z" class="g1_2962"/>
<path d="M68.6,987.3H850.7v-.7H68.6v.7Z" class="g1_2962"/>
<path d="M68.6,1011.8H850.7v-.7H68.6v.7Z" class="g1_2962"/>
<path d="M68.6,1036.2H850.7v-.7H68.6v.7Z" class="g1_2962"/>
<path d="M68.6,1060.7H850.7v-.8H68.6v.8Z" class="g1_2962"/>
<path d="M68.6,1085.2H850.7v-.8H68.6v.8Z" class="g1_2962"/>
</svg>