<?xml version="1.0" encoding="UTF-8" standalone="no"?>
<!DOCTYPE svg PUBLIC "-//W3C//DTD SVG 1.1//EN"
"http://www.w3.org/Graphics/SVG/1.1/DTD/svg11.dtd">
<svg viewBox="0 0 935 1210" version="1.1" xmlns="http://www.w3.org/2000/svg" xmlns:xlink="http://www.w3.org/1999/xlink">
<defs>
<clipPath id="c0_1034"><path d="M97.3,59.2V41.4h72.1V59.2Z"/></clipPath>
<style type="text/css"><![CDATA[
.g0_1034{
fill: #000;
}
.g1_1034{
fill: #E5E5E5;
}
]]></style>
</defs>
<path d="M96.2,62.9v.3H838.7v-.3H96.2Z" class="g0_1034"/>
<path d="M96.2,1114.1h-.1v.3h.1v-.3Z" class="g0_1034"/>
<path d="M838.7,1114.1h.2v.3h-.2v-.3Z" class="g0_1034"/>
<path d="M96.2,1114.1v.3H838.7v-.3H96.2Z" class="g0_1034"/>
<image clip-path="url(#c0_1034)" preserveAspectRatio="none" x="97" y="41" width="72" height="18" xlink:href="img/1.jpg"/>
<path d="M96.2,418.6H653.1v55H96.2v-55Z" class="g1_1034"/>
<path d="M96.6,419h-.7v54.2h.7V419Z" class="g0_1034"/>
<path d="M653.5,418.2h-.8V474h.8V418.2Z" class="g0_1034"/>
<path d="M839.1,419h-.8v54.2h.8V419Z" class="g0_1034"/>
<path d="M95.9,418.3v.7H839.1v-.7H95.9Z" class="g0_1034"/>
<path d="M95.9,473.3v.7H839.1v-.7H95.9Z" class="g0_1034"/>
</svg>