<?xml version="1.0" encoding="UTF-8" standalone="no"?>
<!DOCTYPE svg PUBLIC "-//W3C//DTD SVG 1.1//EN"
"http://www.w3.org/Graphics/SVG/1.1/DTD/svg11.dtd">
<svg viewBox="0 0 935 1210" version="1.1" xmlns="http://www.w3.org/2000/svg" xmlns:xlink="http://www.w3.org/1999/xlink">
<defs>
<style type="text/css"><![CDATA[
.g0_313{
fill: #000;
}
]]></style>
</defs>
<path d="M196.3,1062.4h.7V831.5h-.7v230.9Z" class="g0_313"/>
<path d="M306.3,1063.2h.7V830.8h-.7v232.4Z" class="g0_313"/>
<path d="M430,1063.2h.7V830.8H430v232.4Z" class="g0_313"/>
<path d="M584,947.1h.7V858.3H584v88.8Z" class="g0_313"/>
<path d="M738,1062.4h.7V831.5H738v230.9Z" class="g0_313"/>
<path d="M196.3,831.5H738.7v-.7H196.3v.7Z" class="g0_313"/>
<path d="M430,859H738.7v-.7H430v.7Z" class="g0_313"/>
<path d="M197,887.1H738v-.8H197v.8Z" class="g0_313"/>
<path d="M197,890.9H738v-.7H197v.7Z" class="g0_313"/>
<path d="M196.3,947.1H738.7v-.7H196.3v.7Z" class="g0_313"/>
<path d="M196.3,1005.1H738.7v-.7H196.3v.7Z" class="g0_313"/>
<path d="M196.3,1063.2H738.7v-.8H196.3v.8Z" class="g0_313"/>
</svg>