<?xml version="1.0" encoding="UTF-8" standalone="no"?>
<!DOCTYPE svg PUBLIC "-//W3C//DTD SVG 1.1//EN"
"http://www.w3.org/Graphics/SVG/1.1/DTD/svg11.dtd">
<svg viewBox="0 0 935 1210" version="1.1" xmlns="http://www.w3.org/2000/svg" xmlns:xlink="http://www.w3.org/1999/xlink">
<defs>
<style type="text/css"><![CDATA[
.g0_566{
fill: #FFF;
}
.g1_566{
fill: #000;
}
]]></style>
</defs>
<path d="M165,1149.3H852.5v-21.2H165v21.2Z" class="g0_566"/>
<path d="M68.8,1149.3h82.5v-21.2H68.8v21.2Z" class="g0_566"/>
<path d="M68.6,218.1h.7V134.8h-.7v83.3Z" class="g1_566"/>
<path d="M208.5,218.9h.8V134.1h-.8v84.8Z" class="g1_566"/>
<path d="M344.9,218.9h.7V134.1h-.7v84.8Z" class="g1_566"/>
<path d="M424,218.9h.7V134.1H424v84.8Z" class="g1_566"/>
<path d="M525,218.9h.7V134.1H525v84.8Z" class="g1_566"/>
<path d="M851.3,218.1h.7V134.8h-.7v83.3Z" class="g1_566"/>
<path d="M68.6,134.8H852v-.7H68.6v.7Z" class="g1_566"/>
<path d="M68.6,173H852v-.8H68.6v.8Z" class="g1_566"/>
<path d="M68.6,195.9H852v-.7H68.6v.7Z" class="g1_566"/>
<path d="M68.6,218.8H852v-.7H68.6v.7Z" class="g1_566"/>
</svg>