<?xml version="1.0" encoding="UTF-8" standalone="no"?>
<!DOCTYPE svg PUBLIC "-//W3C//DTD SVG 1.1//EN"
"http://www.w3.org/Graphics/SVG/1.1/DTD/svg11.dtd">
<svg viewBox="0 0 935 1210" version="1.1" xmlns="http://www.w3.org/2000/svg" xmlns:xlink="http://www.w3.org/1999/xlink">
<defs>
<style type="text/css"><![CDATA[
.g0_269{
fill: #B3B3B3;
}
.g1_269{
fill: #000;
}
]]></style>
</defs>
<path d="M82.5,96.3h770V55H82.5V96.3Z" class="g0_269"/>
<path d="M109.8,218.3h.4v-44h-.4v44Z" class="g1_269"/>
<path d="M109.8,322.1h.4V278.2h-.4v43.9Z" class="g1_269"/>
<path d="M239.6,218.6h.4V174h-.4v44.6Z" class="g1_269"/>
<path d="M239.6,322.6h.4V277.8h-.4v44.8Z" class="g1_269"/>
<path d="M355.9,218.6h.4V174h-.4v44.6Z" class="g1_269"/>
<path d="M355.9,322.6h.4V277.8h-.4v44.8Z" class="g1_269"/>
<path d="M465.4,218.6h.4V174h-.4v44.6Z" class="g1_269"/>
<path d="M465.4,322.6h.4V277.8h-.4v44.8Z" class="g1_269"/>
<path d="M577.7,322.6h.3V277.8h-.3v44.8Z" class="g1_269"/>
<path d="M824.8,218.3h.4v-44h-.4v44Z" class="g1_269"/>
<path d="M824.8,322.1h.4V278.2h-.4v43.9Z" class="g1_269"/>
<path d="M109.8,174.3H825.2V174H109.8v.3Z" class="g1_269"/>
<path d="M109.8,218.6H825.2v-.3H109.8v.3Z" class="g1_269"/>
<path d="M109.8,278.2H825.2v-.4H109.8v.4Z" class="g1_269"/>
<path d="M109.8,322.6H825.2v-.4H109.8v.4Z" class="g1_269"/>
</svg>