<?xml version="1.0" encoding="UTF-8" standalone="no"?>
<!DOCTYPE svg PUBLIC "-//W3C//DTD SVG 1.1//EN"
"http://www.w3.org/Graphics/SVG/1.1/DTD/svg11.dtd">
<svg viewBox="0 0 935 1210" version="1.1" xmlns="http://www.w3.org/2000/svg" xmlns:xlink="http://www.w3.org/1999/xlink">
<defs>
<clipPath id="c0_264"><path d="M97.2,59V41.4h72.2V59Z"/></clipPath>
<style type="text/css"><![CDATA[
.g0_264{
fill: #000;
}
]]></style>
</defs>
<path d="M96.1,63.1v.3H838.9v-.3H96.1Z" class="g0_264"/>
<path d="M96.1,1114.3v.3v-.3Z" class="g0_264"/>
<path d="M838.9,1114.3v.3v-.3Z" class="g0_264"/>
<path d="M96.1,1114.3v.3H838.9v-.3H96.1Z" class="g0_264"/>
<image clip-path="url(#c0_264)" preserveAspectRatio="none" x="97" y="41" width="72" height="18" xlink:href="img/1.jpg"/>
<path d="M96.1,178.9h-.8v845.2h.8V178.9Z" class="g0_264"/>
<path d="M206.8,178.2h-.7V937.9h.7V178.2Z" class="g0_264"/>
<path d="M424.2,582.6h-.7V937.9h.7V582.6Z" class="g0_264"/>
<path d="M658.1,178.2h-.7V937.9h.7V178.2Z" class="g0_264"/>
<path d="M839.6,178.9h-.7v845.2h.7V178.9Z" class="g0_264"/>
<path d="M95.3,178.2v.7H839.6v-.7H95.3Z" class="g0_264"/>
<path d="M95.3,206.8v.7H839.6v-.7H95.3Z" class="g0_264"/>
<path d="M206.1,326v.7H839.6V326H206.1Z" class="g0_264"/>
<path d="M95.3,442.2v.7H839.6v-.7H95.3Z" class="g0_264"/>
<path d="M95.3,521.7v.8H839.6v-.8H95.3Z" class="g0_264"/>
<path d="M95.3,582.6v.7H839.6v-.7H95.3Z" class="g0_264"/>
<path d="M423.5,610.1v.7H839.6v-.7H423.5Z" class="g0_264"/>
<path d="M206.1,637.6v.7H839.6v-.7H206.1Z" class="g0_264"/>
<path d="M423.5,665.1v.7H839.6v-.7H423.5Z" class="g0_264"/>
<path d="M206.1,726.3v.8H839.6v-.8H206.1Z" class="g0_264"/>
<path d="M423.5,787.6v.7H839.6v-.7H423.5Z" class="g0_264"/>
<path d="M206.1,815.1v.7H839.6v-.7H206.1Z" class="g0_264"/>
<path d="M423.5,875.9v.8H839.6v-.8H423.5Z" class="g0_264"/>
<path d="M95.3,937.2v.7H839.6v-.7H95.3Z" class="g0_264"/>
<path d="M95.3,1024.1v.7H839.6v-.7H95.3Z" class="g0_264"/>
</svg>