<?xml version="1.0" encoding="UTF-8" standalone="no"?>
<!DOCTYPE svg PUBLIC "-//W3C//DTD SVG 1.1//EN"
"http://www.w3.org/Graphics/SVG/1.1/DTD/svg11.dtd">
<svg viewBox="0 0 935 1210" version="1.1" xmlns="http://www.w3.org/2000/svg" xmlns:xlink="http://www.w3.org/1999/xlink">
<defs>
<clipPath id="c0_2816"><path d="M766.6,59.2V41.4h72.2V59.2Z"/></clipPath>
<style type="text/css"><![CDATA[
.g0_2816{
fill: #000;
}
]]></style>
</defs>
<path d="M97.4,63.3H839.9v-.4H97.4v.4Z" class="g0_2816"/>
<path d="M96.1,1114.5h.2v-.4h-.2v.4Z" class="g0_2816"/>
<path d="M96.3,1114.5H838.9v-.4H96.3v.4Z" class="g0_2816"/>
<image clip-path="url(#c0_2816)" preserveAspectRatio="none" x="767" y="41" width="72" height="18" xlink:href="img/1.jpg"/>
<path d="M552.5,790.8h31.4v-1.1H552.5v1.1Z" class="g0_2816"/>
<path d="M552.5,813.7h31.4v-1.1H552.5v1.1Z" class="g0_2816"/>
<path d="M95.9,644.3h.7V599.2h-.7v45.1Z" class="g0_2816"/>
<path d="M216,645.2h.7V598.5H216v46.7Z" class="g0_2816"/>
<path d="M293.3,645.2h.8V598.5h-.8v46.7Z" class="g0_2816"/>
<path d="M839.1,644.3h.7V599.2h-.7v45.1Z" class="g0_2816"/>
<path d="M95.9,599.2h744v-.7H95.9v.7Z" class="g0_2816"/>
<path d="M95.9,623.3h744v-3H95.9v3Z" class="g0_2816"/>
<path d="M95.9,645.1h744v-.8H95.9v.8Z" class="g0_2816"/>
</svg>