<?xml version="1.0" encoding="UTF-8" standalone="no"?>
<!DOCTYPE svg PUBLIC "-//W3C//DTD SVG 1.1//EN"
"http://www.w3.org/Graphics/SVG/1.1/DTD/svg11.dtd">
<svg viewBox="0 0 935 1210" version="1.1" xmlns="http://www.w3.org/2000/svg" xmlns:xlink="http://www.w3.org/1999/xlink">
<defs>
<style type="text/css"><![CDATA[
.g0_4237{
fill: #FFF;
}
.g1_4237{
fill: #000;
}
]]></style>
</defs>
<path d="M68.9,1149.3H852.7v-21.2H68.9v21.2Z" class="g0_4237"/>
<path d="M69.9,783.4h.8V238.7h-.8V783.4Z" class="g1_4237"/>
<path d="M142.1,784.2h.7V238h-.7V784.2Z" class="g1_4237"/>
<path d="M285.1,784.2h.7V238h-.7V784.2Z" class="g1_4237"/>
<path d="M396.5,784.2h.8V238h-.8V784.2Z" class="g1_4237"/>
<path d="M851.6,783.4h.7V238.7h-.7V783.4Z" class="g1_4237"/>
<path d="M69.9,238.7H852.3V238H69.9v.7Z" class="g1_4237"/>
<path d="M69.9,263.2H852.3v-.8H69.9v.8Z" class="g1_4237"/>
<path d="M142,321.2H852.3v-.7H142v.7Z" class="g1_4237"/>
<path d="M142,379.2H852.3v-.7H142v.7Z" class="g1_4237"/>
<path d="M142,454.1H852.3v-.7H142v.7Z" class="g1_4237"/>
<path d="M69.9,550.4H852.3v-.8H69.9v.8Z" class="g1_4237"/>
<path d="M142,596.2H852.3v-.7H142v.7Z" class="g1_4237"/>
<path d="M142,671.1H852.3v-.7H142v.7Z" class="g1_4237"/>
<path d="M69.9,784.1H852.3v-.7H69.9v.7Z" class="g1_4237"/>
</svg>