<?xml version="1.0" encoding="UTF-8" standalone="no"?>
<!DOCTYPE svg PUBLIC "-//W3C//DTD SVG 1.1//EN"
"http://www.w3.org/Graphics/SVG/1.1/DTD/svg11.dtd">
<svg viewBox="0 0 935 1210" version="1.1" xmlns="http://www.w3.org/2000/svg" xmlns:xlink="http://www.w3.org/1999/xlink">
<defs>
<style type="text/css"><![CDATA[
.g0_233{
fill: #FFF;
}
.g1_233{
fill: #000;
}
]]></style>
</defs>
<path d="M68.9,1149.3H755.2v-21.2H68.9v21.2Z" class="g0_233"/>
<path d="M771.3,1149.3H855v-21.2H771.3v21.2Z" class="g0_233"/>
<path d="M69.9,242.6h.8V125.7h-.8V242.6Z" class="g1_233"/>
<path d="M220.6,243.3h.7V124.9h-.7V243.3Z" class="g1_233"/>
<path d="M391.5,243.3h.7V124.9h-.7V243.3Z" class="g1_233"/>
<path d="M429.4,243.3h.7V124.9h-.7V243.3Z" class="g1_233"/>
<path d="M502.7,243.3h.7V124.9h-.7V243.3Z" class="g1_233"/>
<path d="M574.1,243.3h.7V124.9h-.7V243.3Z" class="g1_233"/>
<path d="M853.5,242.6h.7V125.7h-.7V242.6Z" class="g1_233"/>
<path d="M69.9,125.7H854.2v-.8H69.9v.8Z" class="g1_233"/>
<path d="M69.9,163.8H854.2v-.7H69.9v.7Z" class="g1_233"/>
<path d="M69.9,203.6H854.2v-.7H69.9v.7Z" class="g1_233"/>
<path d="M69.9,243.3H854.2v-.7H69.9v.7Z" class="g1_233"/>
<path d="M69.9,346.4h.8V298.3h-.8v48.1Z" class="g1_233"/>
<path d="M138.9,347.2h.7V297.6h-.7v49.6Z" class="g1_233"/>
<path d="M320.1,347.2h.7V297.6h-.7v49.6Z" class="g1_233"/>
<path d="M503.4,347.2h.8V297.6h-.8v49.6Z" class="g1_233"/>
<path d="M673.8,347.2h.8V297.6h-.8v49.6Z" class="g1_233"/>
<path d="M852.1,346.4h.8V298.3h-.8v48.1Z" class="g1_233"/>
<path d="M69.9,298.3h783v-.7H69.9v.7Z" class="g1_233"/>
<path d="M69.9,322.8h783V322H69.9v.8Z" class="g1_233"/>
<path d="M69.9,347.1h783v-.7H69.9v.7Z" class="g1_233"/>
</svg>