<?xml version="1.0" encoding="UTF-8" standalone="no"?>
<!DOCTYPE svg PUBLIC "-//W3C//DTD SVG 1.1//EN"
"http://www.w3.org/Graphics/SVG/1.1/DTD/svg11.dtd">
<svg viewBox="0 0 935 1210" version="1.1" xmlns="http://www.w3.org/2000/svg" xmlns:xlink="http://www.w3.org/1999/xlink">
<defs>
<clipPath id="c0_1155"><path d="M766.6,59.2V41.4h72.1V59.2Z"/></clipPath>
<style type="text/css"><![CDATA[
.g0_1155{
fill: #000;
}
.g1_1155{
fill: #D9D9D9;
}
.g2_1155{
fill: #FFF;
}
.g3_1155{
fill: #8099B3;
}
]]></style>
</defs>
<path d="M97.3,62.9v.3H839.9v-.3H97.3Z" class="g0_1155"/>
<path d="M96.2,1114.1h-.1v.3h.1v-.3Z" class="g0_1155"/>
<path d="M838.7,1114.1h.2v.3h-.2v-.3Z" class="g0_1155"/>
<path d="M96.2,1114.1v.3H838.7v-.3H96.2Z" class="g0_1155"/>
<image clip-path="url(#c0_1155)" preserveAspectRatio="none" x="767" y="41" width="72" height="18" xlink:href="img/1.jpg"/>
<path d="M96,590H792.5v71.8H96V590Z" class="g1_1155"/>
<path d="M96.2,689.3h88V726h-88V689.3Z" class="g2_1155"/>
<path d="M184.2,689.3h77V726h-77V689.3Z" class="g2_1155"/>
<path d="M261.2,689.3h275V726h-275V689.3Z" class="g2_1155"/>
<path d="M536.2,689.3h62.7V726H536.2V689.3Z" class="g2_1155"/>
<path d="M96.2,726h88v19.9h-88V726Z" class="g1_1155"/>
<path d="M184.2,726h77v19.9h-77V726Z" class="g1_1155"/>
<path d="M261.2,726h275v19.9h-275V726Z" class="g1_1155"/>
<path d="M536.2,726h62.7v19.9H536.2V726Z" class="g1_1155"/>
<path d="M96.2,765.7h88v19.9h-88V765.7Z" class="g2_1155"/>
<path d="M184.2,765.7h77v19.9h-77V765.7Z" class="g2_1155"/>
<path d="M261.2,765.7h275v19.9h-275V765.7Z" class="g2_1155"/>
<path d="M536.2,765.7h62.7v19.9H536.2V765.7Z" class="g2_1155"/>
<path d="M96.3,590.4h-.7v69.8h.7V590.4Z" class="g3_1155"/>
<path d="M792.9,589.6h-.7v73.8h.7V589.6Z" class="g3_1155"/>
<path d="M816.6,589.6h-1.5v73.8h1.5V589.6Z" class="g0_1155"/>
<path d="M840.5,590.4h-3v69.8h3V590.4Z" class="g0_1155"/>
<path d="M95.6,589.7v.7H840.5v-.7H95.6Z" class="g0_1155"/>
<path d="M95.6,660.3v3.1H840.5v-3.1H95.6Z" class="g0_1155"/>
<path d="M96.2,725.2v1.6H598.9v-1.6H96.2Z" class="g0_1155"/>
<path d="M96.2,784.8v1.6H598.9v-1.6H96.2Z" class="g0_1155"/>
<path d="M65.6,151.2h3.1v907.2H65.6V151.2Z" class="g0_1155"/>
</svg>