<?xml version="1.0" encoding="UTF-8" standalone="no"?>
<!DOCTYPE svg PUBLIC "-//W3C//DTD SVG 1.1//EN"
"http://www.w3.org/Graphics/SVG/1.1/DTD/svg11.dtd">
<svg viewBox="0 0 935 1210" version="1.1" xmlns="http://www.w3.org/2000/svg" xmlns:xlink="http://www.w3.org/1999/xlink">
<defs>
<style type="text/css"><![CDATA[
.g0_389{
fill: #FFF;
}
.g1_389{
fill: #000;
}
]]></style>
</defs>
<path d="M68.9,1149.3H852.7v-21.2H68.9v21.2Z" class="g0_389"/>
<path d="M568.3,638.6h52.2v-.9H568.3v.9Z" class="g1_389"/>
<path d="M621.5,638.6H732.8v-.9H621.5v.9Z" class="g1_389"/>
<path d="M69.9,1034h.8V124.1h-.8V1034Z" class="g1_389"/>
<path d="M124.1,1034.7h.8V164.6h-.8v870.1Z" class="g1_389"/>
<path d="M174.9,1034.7h.7V123.4h-.7v911.3Z" class="g1_389"/>
<path d="M395.2,1034.7h.7V123.4h-.7v911.3Z" class="g1_389"/>
<path d="M470.4,1034.7h.8V123.4h-.8v911.3Z" class="g1_389"/>
<path d="M561.8,1034.7h.8V123.4h-.8v911.3Z" class="g1_389"/>
<path d="M851.5,1034h.7V124.1h-.7V1034Z" class="g1_389"/>
<path d="M69.9,124.1H852.2v-.7H69.9v.7Z" class="g1_389"/>
<path d="M69.9,165.4H175.7v-.8H69.9v.8Z" class="g1_389"/>
<path d="M69.9,189.8H852.2v-.7H69.9v.7Z" class="g1_389"/>
<path d="M174.9,252.4H852.2v-.7H174.9v.7Z" class="g1_389"/>
<path d="M174.9,315.1H852.2v-.8H174.9v.8Z" class="g1_389"/>
<path d="M174.9,377.8H852.2V377H174.9v.8Z" class="g1_389"/>
<path d="M69.9,402.2H852.2v-.7H69.9v.7Z" class="g1_389"/>
<path d="M174.9,553.5H852.2v-.8H174.9v.8Z" class="g1_389"/>
<path d="M174.9,577.9H852.2v-.8H174.9v.8Z" class="g1_389"/>
<path d="M174.9,762.8H852.2V762H174.9v.8Z" class="g1_389"/>
<path d="M174.9,875.8H852.2v-.7H174.9v.7Z" class="g1_389"/>
<path d="M174.9,1010.3H852.2v-.8H174.9v.8Z" class="g1_389"/>
<path d="M69.9,1034.7H852.2v-.7H69.9v.7Z" class="g1_389"/>
</svg>