<?xml version="1.0" encoding="UTF-8" standalone="no"?>
<!DOCTYPE svg PUBLIC "-//W3C//DTD SVG 1.1//EN"
"http://www.w3.org/Graphics/SVG/1.1/DTD/svg11.dtd">
<svg viewBox="0 0 935 1210" version="1.1" xmlns="http://www.w3.org/2000/svg" xmlns:xlink="http://www.w3.org/1999/xlink">
<defs>
<clipPath id="c0_686"><path d="M97.3,59.2V41.4h72.1V59.2Z"/></clipPath>
<style type="text/css"><![CDATA[
.g0_686{
fill: #000;
}
]]></style>
</defs>
<path d="M96.2,62.9v.3H838.7v-.3H96.2Z" class="g0_686"/>
<path d="M96.2,1114.1h-.1v.3h.1v-.3Z" class="g0_686"/>
<path d="M838.7,1114.1h.2v.3h-.2v-.3Z" class="g0_686"/>
<path d="M96.2,1114.1v.3H838.7v-.3H96.2Z" class="g0_686"/>
<image clip-path="url(#c0_686)" preserveAspectRatio="none" x="97" y="41" width="72" height="18" xlink:href="img/1.jpg"/>
<path d="M155.4,180.2h-.8V468.6h.8V180.2Z" class="g0_686"/>
<path d="M211.7,226H211V359h.7V226Z" class="g0_686"/>
<path d="M268.1,177.2h-.7V359h.7V177.2Z" class="g0_686"/>
<path d="M370.6,202.8h-.7V359h.7V202.8Z" class="g0_686"/>
<path d="M473,202.8h-.8V359h.8V202.8Z" class="g0_686"/>
<path d="M575.5,202.8h-.8V359h.8V202.8Z" class="g0_686"/>
<path d="M677.8,202.8h-.7V359h.7V202.8Z" class="g0_686"/>
<path d="M780.3,180.2h-.7V468.6h.7V180.2Z" class="g0_686"/>
<path d="M154.6,177.3v3H780.3v-3H154.6Z" class="g0_686"/>
<path d="M154.6,202.8v.7H780.3v-.7H154.6Z" class="g0_686"/>
<path d="M154.6,226.1v3.1H780.3v-3.1H154.6Z" class="g0_686"/>
<path d="M211,253.3v.7H780.3v-.7H211Z" class="g0_686"/>
<path d="M211,279.2v.7H780.3v-.7H211Z" class="g0_686"/>
<path d="M211,305.1v.8H780.3v-.8H211Z" class="g0_686"/>
<path d="M211,331.2v.7H780.3v-.7H211Z" class="g0_686"/>
<path d="M154.6,356v3H780.3v-3H154.6Z" class="g0_686"/>
<path d="M154.6,468.7v.7H780.3v-.7H154.6Z" class="g0_686"/>
</svg>