<?xml version="1.0" encoding="UTF-8" standalone="no"?>
<!DOCTYPE svg PUBLIC "-//W3C//DTD SVG 1.1//EN"
"http://www.w3.org/Graphics/SVG/1.1/DTD/svg11.dtd">
<svg viewBox="0 0 935 1210" version="1.1" xmlns="http://www.w3.org/2000/svg" xmlns:xlink="http://www.w3.org/1999/xlink">
<defs>
<style type="text/css"><![CDATA[
.g0_2448{
fill: #FFF;
}
.g1_2448{
fill: #000;
}
]]></style>
</defs>
<path d="M165,1149.3H852.5v-21.2H165v21.2Z" class="g0_2448"/>
<path d="M68.8,1149.3h82.5v-21.2H68.8v21.2Z" class="g0_2448"/>
<path d="M157.7,540.7h.7V339.5h-.7V540.7Z" class="g1_2448"/>
<path d="M762.8,540.7h.7V339.5h-.7V540.7Z" class="g1_2448"/>
<path d="M157.7,339.5H763.5v-.7H157.7v.7Z" class="g1_2448"/>
<path d="M157.7,541.4H763.5v-.7H157.7v.7Z" class="g1_2448"/>
<path d="M157.7,801.2h.7V645.3h-.7V801.2Z" class="g1_2448"/>
<path d="M762.8,801.2h.7V645.3h-.7V801.2Z" class="g1_2448"/>
<path d="M157.7,645.3H763.5v-.7H157.7v.7Z" class="g1_2448"/>
<path d="M157.7,801.9H763.5v-.7H157.7v.7Z" class="g1_2448"/>
<path d="M207.2,518.8h56.6V482.7H207.2v36.1Z" class="g0_2448"/>
<path d="M207.2,483.1h57v-.7h-57v.7Z" class="g1_2448"/>
<path d="M263.5,519.2h.7V482.7h-.7v36.5Z" class="g1_2448"/>
<path d="M206.8,519.2h57v-.7h-57v.7Z" class="g1_2448"/>
<path d="M206.8,518.8h.7V482.4h-.7v36.4Z" class="g1_2448"/>
<path d="M320.6,518.8h56.7V482.7H320.6v36.1Z" class="g0_2448"/>
<path d="M320.6,483.1h57.1v-.7H320.6v.7Z" class="g1_2448"/>
<path d="M376.9,519.2h.8V482.7h-.8v36.5Z" class="g1_2448"/>
<path d="M320.2,519.2h57.1v-.7H320.2v.7Z" class="g1_2448"/>
<path d="M320.2,518.8h.7V482.4h-.7v36.4Z" class="g1_2448"/>
<path d="M434,518.8h56.8V482.7H434v36.1Z" class="g0_2448"/>
<path d="M434,483.1h57.2v-.7H434v.7Z" class="g1_2448"/>
<path d="M490.4,519.2h.8V482.7h-.8v36.5Z" class="g1_2448"/>
<path d="M433.7,519.2h57.1v-.7H433.7v.7Z" class="g1_2448"/>
<path d="M433.7,518.8h.7V482.4h-.7v36.4Z" class="g1_2448"/>
<path d="M547.4,518.8h56.8V482.7H547.4v36.1Z" class="g0_2448"/>
<path d="M547.4,483.1h57.1v-.7H547.4v.7Z" class="g1_2448"/>
<path d="M603.8,519.2h.7V482.7h-.7v36.5Z" class="g1_2448"/>
<path d="M547.1,519.2h57.1v-.7H547.1v.7Z" class="g1_2448"/>
<path d="M547.1,518.8h.7V482.4h-.7v36.4Z" class="g1_2448"/>
<path fill-rule="evenodd" d="M482.5,465.1l.3,.2l.3,.1c1.2,.6,2.8,-1.1,1.8,-2.2l-.2,-.3l-.2,-.2c-1.3,-.7,-2.7,.4,-2.2,1.9l.1,.2l.1,.3Z" class="g1_2448"/>
<path d="M483.6,464l4.7,4.6l.7,.8l-21.7,12l-2.4,1.3l1.3,-2.4l11.6,-20.8l.5,-.8l.8,.6v1l-11.5,20.8l-1.4,-.8l.4,-.2l20.8,-11.6l.7,1.4l-.9,-.2l-4.7,-4.6Z" class="g1_2448"/>
<path d="M479.1,459.3l4.5,4.7l-1.1,1.1l-4.6,-4.7Z" class="g1_2448"/>
<path fill-rule="evenodd" d="M483.1,464.6l4.7,4.5L467,480.7l11.5,-20.8Z" class="g1_2448"/>
<path d="M548.5,401.3l-2.1,-2.1L482.6,463l2.1,2.1Z" class="g1_2448"/>
<path d="M604.2,400.2h56.7V379.6H604.2v20.6Z" class="g0_2448"/>
<path d="M604.2,380h57.1v-.8H604.2v.8Z" class="g1_2448"/>
<path d="M660.5,400.6h.8v-21h-.8v21Z" class="g1_2448"/>
<path d="M603.8,400.6h57.1v-.8H603.8v.8Z" class="g1_2448"/>
<path d="M603.8,400.2h.7v-21h-.7v21Z" class="g1_2448"/>
<path fill-rule="evenodd" d="M612.3,465.1l.4,-.5c.5,-1.4,-.9,-2.7,-2.3,-1.9l-.2,.2l-.2,.3c-.9,1.1,.5,2.9,1.9,2.2l.2,-.1l.2,-.2Z" class="g1_2448"/>
<path d="M611.2,464l4.7,-4.7l.7,-.6l.6,.8l11.5,20.8l1.3,2.4l-2.4,-1.3L606.8,469.9l-.8,-.6l.6,-.7l1,-.1l20.8,11.6l-.8,1.3l-.2,-.3L615.8,460.3l1.4,-.8l-.2,.9l-4.7,4.7Z" class="g1_2448"/>
<path d="M606.6,468.6l4.6,-4.6l1.1,1.1l-4.6,4.6Z" class="g1_2448"/>
<path fill-rule="evenodd" d="M611.8,464.6l4.7,-4.7L628,480.7L607.2,469.1Z" class="g1_2448"/>
<path d="M548.5,399.2l-2.1,2.1l63.8,63.8l2.1,-2.1Z" class="g1_2448"/>
<path fill-rule="evenodd" d="M565.9,458.9l.2,-.1l.2,-.2c1.2,-.8,.4,-2.8,-1.1,-2.7l-.3,.1l-.3,.1c-1.2,.9,-.9,2.8,.6,2.9h.3l.4,-.1Z" class="g1_2448"/>
<path d="M565.4,457.5l6.2,-2l.9,-.3l.1,1l.7,23.9v2.7l-1.5,-2.3L558.7,460.6l-.5,-.8l1,-.4l.8,.4l13.1,19.9l-1.3,.8l-.1,-.4l-.6,-23.9h1.5l-.5,.9l-6.2,2Z" class="g1_2448"/>
<path d="M559.2,459.4l6.2,-1.9l.5,1.6l-6.3,1.9Z" class="g1_2448"/>
<path fill-rule="evenodd" d="M565.6,458.2l6.2,-2l.7,23.9L559.4,460.2Z" class="g1_2448"/>
<path d="M548.9,399.8l-2.8,.9L564,458l2.9,-1Z" class="g1_2448"/>
<path fill-rule="evenodd" d="M525.2,459.3l.3,.1h.4c1.5,0,2,-2,.7,-2.7l-.3,-.2l-.2,-.1c-1.5,-.2,-2.5,1.6,-1.3,2.7l.2,.2h.2Z" class="g1_2448"/>
<path d="M525.8,458.1l6.1,2.3l1,.3l-.7,.8L518,480.7l-1.5,2.1l.1,-2.6l2,-23.9l.1,-1l1,.4l.4,.7l-1.9,23.8h-1.6l.2,-.5L531,460.5l1.2,1l-.8,.2l-6.1,-2.3Z" class="g1_2448"/>
<path d="M519.7,455.7l6.1,2.4l-.5,1.3l-6.2,-2.3Z" class="g1_2448"/>
<path fill-rule="evenodd" d="M525.5,458.7l6.2,2.3l-14.2,19.2l1.9,-23.9Z" class="g1_2448"/>
<path d="M548.9,400.8l-2.8,-1.1l-21.7,57.7l2.9,1.1Z" class="g1_2448"/>
<path d="M547.4,400.2h56.8V379.6H547.4v20.6Z" class="g0_2448"/>
<path d="M547.4,380h57.1v-.8H547.4v.8Z" class="g1_2448"/>
<path d="M603.8,400.6h.7v-21h-.7v21Z" class="g1_2448"/>
<path d="M547.1,400.6h57.1v-.8H547.1v.8Z" class="g1_2448"/>
<path d="M547.1,400.2h.7v-21h-.7v21Z" class="g1_2448"/>
<path d="M490.8,400.2h56.6V379.6H490.8v20.6Z" class="g0_2448"/>
<path d="M490.8,380h57v-.8h-57v.8Z" class="g1_2448"/>
<path d="M547.1,400.6h.7v-21h-.7v21Z" class="g1_2448"/>
<path d="M490.4,400.6h57v-.8h-57v.8Z" class="g1_2448"/>
<path d="M490.4,400.2h.8v-21h-.8v21Z" class="g1_2448"/>
<path d="M434,400.2h56.8V379.6H434v20.6Z" class="g0_2448"/>
<path d="M434,380h57.2v-.8H434v.8Z" class="g1_2448"/>
<path d="M490.4,400.6h.8v-21h-.8v21Z" class="g1_2448"/>
<path d="M433.7,400.6h57.1v-.8H433.7v.8Z" class="g1_2448"/>
<path d="M433.7,400.2h.7v-21h-.7v21Z" class="g1_2448"/>
<path d="M377.3,400.2H434V379.6H377.3v20.6Z" class="g0_2448"/>
<path d="M377.3,380h57.1v-.8H377.3v.8Z" class="g1_2448"/>
<path d="M433.7,400.6h.7v-21h-.7v21Z" class="g1_2448"/>
<path d="M376.9,400.6H434v-.8H376.9v.8Z" class="g1_2448"/>
<path d="M376.9,400.2h.8v-21h-.8v21Z" class="g1_2448"/>
<path d="M320.6,400.2h56.7V379.6H320.6v20.6Z" class="g0_2448"/>
<path d="M320.6,380h57.1v-.8H320.6v.8Z" class="g1_2448"/>
<path d="M376.9,400.6h.8v-21h-.8v21Z" class="g1_2448"/>
<path d="M320.2,400.6h57.1v-.8H320.2v.8Z" class="g1_2448"/>
<path d="M320.2,400.2h.7v-21h-.7v21Z" class="g1_2448"/>
<path d="M263.8,400.2h56.8V379.6H263.8v20.6Z" class="g0_2448"/>
<path d="M263.8,380h57.1v-.8H263.8v.8Z" class="g1_2448"/>
<path d="M320.2,400.6h.7v-21h-.7v21Z" class="g1_2448"/>
<path d="M263.5,400.6h57.1v-.8H263.5v.8Z" class="g1_2448"/>
<path d="M263.5,400.2h.7v-21h-.7v21Z" class="g1_2448"/>
<path d="M207.2,400.2h56.6V379.6H207.2v20.6Z" class="g0_2448"/>
<path d="M207.2,380h57v-.8h-57v.8Z" class="g1_2448"/>
<path d="M263.5,400.6h.7v-21h-.7v21Z" class="g1_2448"/>
<path d="M206.8,400.6h57v-.8h-57v.8Z" class="g1_2448"/>
<path d="M206.8,400.2h.7v-21h-.7v21Z" class="g1_2448"/>
<path d="M604.2,518.8h56.7V482.7H604.2v36.1Z" class="g0_2448"/>
<path d="M604.2,483.1h57.1v-.7H604.2v.7Z" class="g1_2448"/>
<path d="M660.5,519.2h.8V482.7h-.8v36.5Z" class="g1_2448"/>
<path d="M603.8,519.2h57.1v-.7H603.8v.7Z" class="g1_2448"/>
<path d="M603.8,518.8h.7V482.4h-.7v36.4Z" class="g1_2448"/>
<path d="M263.8,518.8h56.8V482.7H263.8v36.1Z" class="g0_2448"/>
<path d="M263.8,483.1h57.1v-.7H263.8v.7Z" class="g1_2448"/>
<path d="M320.2,519.2h.7V482.7h-.7v36.5Z" class="g1_2448"/>
<path d="M263.5,519.2h57.1v-.7H263.5v.7Z" class="g1_2448"/>
<path d="M263.5,518.8h.7V482.4h-.7v36.4Z" class="g1_2448"/>
<path d="M377.3,518.8H434V482.7H377.3v36.1Z" class="g0_2448"/>
<path d="M377.3,483.1h57.1v-.7H377.3v.7Z" class="g1_2448"/>
<path d="M433.7,519.2h.7V482.7h-.7v36.5Z" class="g1_2448"/>
<path d="M376.9,519.2H434v-.7H376.9v.7Z" class="g1_2448"/>
<path d="M376.9,518.8h.8V482.4h-.8v36.4Z" class="g1_2448"/>
<path d="M490.8,518.8h56.6V482.7H490.8v36.1Z" class="g0_2448"/>
<path d="M490.8,483.1h57v-.7h-57v.7Z" class="g1_2448"/>
<path d="M547.1,519.2h.7V482.7h-.7v36.5Z" class="g1_2448"/>
<path d="M490.4,519.2h57v-.7h-57v.7Z" class="g1_2448"/>
<path d="M490.4,518.8h.8V482.4h-.8v36.4Z" class="g1_2448"/>
<path fill-rule="evenodd" d="M255.7,465.1l.2,.2l.3,.1c1.4,.6,2.7,-1,1.8,-2.2l-.1,-.3l-.3,-.2c-1.2,-.8,-2.8,.5,-2.2,1.9l.1,.2l.2,.3Z" class="g1_2448"/>
<path d="M256.8,464l4.6,4.6l.7,.8l-21.7,12l-2.3,1.3l1.2,-2.4l11.6,-20.8l.5,-.8l.8,.6l.1,1l-11.6,20.8l-1.4,-.8l.4,-.2l20.8,-11.6l.8,1.4l-1,-.2l-4.6,-4.6Z" class="g1_2448"/>
<path d="M252.2,459.3l4.6,4.7l-1.1,1.1l-4.6,-4.7Z" class="g1_2448"/>
<path fill-rule="evenodd" d="M256.2,464.6l4.7,4.5l-20.8,11.6l11.5,-20.8Z" class="g1_2448"/>
<path d="M321.7,401.3l-2.2,-2.1L255.7,463l2.2,2.1Z" class="g1_2448"/>
<path fill-rule="evenodd" d="M385.5,465.1l.3,-.5c.5,-1.4,-.9,-2.7,-2.3,-1.9l-.4,.5c-.7,1.3,.5,2.8,1.9,2.2l.3,-.1l.2,-.2Z" class="g1_2448"/>
<path d="M384.4,464l4.6,-4.7l.8,-.6l.5,.8l11.6,20.8l1.3,2.4l-2.4,-1.3L380,469.9l-.9,-.6l.7,-.7l.9,-.1l20.8,11.6l-.7,1.3l-.3,-.3L388.9,460.3l1.4,-.8l-.2,.9l-4.6,4.7Z" class="g1_2448"/>
<path d="M379.8,468.6l4.6,-4.6l1.1,1.1l-4.6,4.6Z" class="g1_2448"/>
<path fill-rule="evenodd" d="M384.9,464.6l4.7,-4.7l11.5,20.8L380.3,469.1Z" class="g1_2448"/>
<path d="M321.7,399.2l-2.2,2.1l63.9,63.8l2.1,-2.1Z" class="g1_2448"/>
<path fill-rule="evenodd" d="M338.9,458.9l.4,-.1l.1,-.2c1.2,-1,.5,-2.7,-1.1,-2.7l-.3,.1l-.3,.1l-.2,.2l-.3,.2v.3l-.2,.2v.6l.1,.4c.1,.5,.5,.8,1,1h.5l.3,-.1Z" class="g1_2448"/>
<path d="M338.5,457.5l6.3,-2l.9,-.2l.1,.9l.5,23.9v2.7l-1.4,-2.3L331.8,460.6l-.5,-.8l1,-.4l.8,.4l13,19.9l-1.2,.8l-.1,-.4l-.6,-23.9h1.6l-.6,.9l-6.2,2Z" class="g1_2448"/>
<path d="M332.3,459.4l6.2,-1.9l.5,1.6l-6.2,1.9Z" class="g1_2448"/>
<path fill-rule="evenodd" d="M338.7,458.2l6.2,-2l.6,23.9l-13,-19.9Z" class="g1_2448"/>
<path d="M322,399.8l-2.9,.9L337,458l2.9,-1Z" class="g1_2448"/>
<path fill-rule="evenodd" d="M298.4,459.3l.2,.1h.7l.3,-.1l.2,-.1l.4,-.4l.2,-.3v-.3l.1,-.3l-.1,-.3l-.2,-.5l-.3,-.2l-.2,-.2l-.2,-.2l-.3,-.1c-1.6,0,-2.4,1.4,-1.4,2.7l.3,.2h.3Z" class="g1_2448"/>
<path d="M298.9,458.1l6.2,2.3l.9,.3l-.7,.8l-14.2,19.2l-1.5,2.1l.2,-2.6l1.9,-23.9l.2,-1l.9,.4l.4,.7l-1.9,23.8h-1.5l.1,-.5l14.3,-19.2l1.1,1l-.8,.2l-6.1,-2.3Z" class="g1_2448"/>
<path d="M292.8,455.7l6.1,2.4l-.5,1.3l-6.2,-2.3Z" class="g1_2448"/>
<path fill-rule="evenodd" d="M298.6,458.7l6.2,2.3l-14.2,19.2l1.9,-23.9Z" class="g1_2448"/>
<path d="M322,400.8l-2.8,-1.1l-21.7,57.7l2.9,1.1Z" class="g1_2448"/>
<path d="M320.5,745.9h33.9v-55H320.5v55Z" class="g0_2448"/>
<path d="M320.5,691.7h34.7v-1.5H320.5v1.5Z" class="g1_2448"/>
<path d="M353.6,746.7h1.6V690.9h-1.6v55.8Z" class="g1_2448"/>
<path d="M319.7,746.7h34.7v-1.5H319.7v1.5Z" class="g1_2448"/>
<path d="M319.7,745.9h1.6V690.2h-1.6v55.7Z" class="g1_2448"/>
<path d="M551.6,745.9h33.9v-55H551.6v55Z" class="g0_2448"/>
<path d="M551.6,691.7h34.7v-1.5H551.6v1.5Z" class="g1_2448"/>
<path d="M584.7,746.7h1.6V690.9h-1.6v55.8Z" class="g1_2448"/>
<path d="M550.8,746.7h34.7v-1.5H550.8v1.5Z" class="g1_2448"/>
<path d="M550.8,745.9h1.6V690.2h-1.6v55.7Z" class="g1_2448"/>
<path d="M715,745.9h33.9v-55H715v55Z" class="g0_2448"/>
<path d="M715,691.7h34.7v-1.5H715v1.5Z" class="g1_2448"/>
<path d="M748.2,746.7h1.5V690.9h-1.5v55.8Z" class="g1_2448"/>
<path d="M714.3,746.7h34.6v-1.5H714.3v1.5Z" class="g1_2448"/>
<path d="M714.3,745.9h1.5V690.2h-1.5v55.7Z" class="g1_2448"/>
<path d="M191.3,745.9H318.1v-55H191.3v55Z" class="g0_2448"/>
<path d="M191.3,691.3H318.5v-.8H191.3v.8Z" class="g1_2448"/>
<path d="M317.7,746.3h.7V690.9h-.7v55.4Z" class="g1_2448"/>
<path d="M190.9,746.3H318.1v-.8H190.9v.8Z" class="g1_2448"/>
<path d="M190.9,745.9h.8V690.5h-.8v55.4Z" class="g1_2448"/>
<path d="M421.2,745.1H548.1v-55H421.2v55Z" class="g0_2448"/>
<path d="M421.2,690.4H548.4v-.7H421.2v.7Z" class="g1_2448"/>
<path d="M547.7,745.4h.7V690.1h-.7v55.3Z" class="g1_2448"/>
<path d="M420.8,745.4H548.1v-.7H420.8v.7Z" class="g1_2448"/>
<path d="M420.8,745.1h.8V689.7h-.8v55.4Z" class="g1_2448"/>
<path d="M586.2,745.1H713.1v-55H586.2v55Z" class="g0_2448"/>
<path d="M586.2,690.4H713.4v-.7H586.2v.7Z" class="g1_2448"/>
<path d="M712.7,745.4h.7V690.1h-.7v55.3Z" class="g1_2448"/>
<path d="M585.8,745.4H713.1v-.7H585.8v.7Z" class="g1_2448"/>
<path d="M585.8,745.1h.8V689.7h-.8v55.4Z" class="g1_2448"/>
</svg>