<?xml version="1.0" encoding="UTF-8" standalone="no"?>
<!DOCTYPE svg PUBLIC "-//W3C//DTD SVG 1.1//EN"
"http://www.w3.org/Graphics/SVG/1.1/DTD/svg11.dtd">
<svg viewBox="0 0 935 1210" version="1.1" xmlns="http://www.w3.org/2000/svg" xmlns:xlink="http://www.w3.org/1999/xlink">
<defs>
<clipPath id="c0_3058"><path d="M97.3,59.2V41.4h72.1V59.2Z"/></clipPath>
<style type="text/css"><![CDATA[
.g0_3058{
fill: #000;
}
.g1_3058{
fill: none;
stroke: #000;
stroke-width: 0.763;
}
.g2_3058{
fill: #FFF;
stroke: #000;
stroke-width: 1.527;
}
]]></style>
</defs>
<path d="M96.3,63.3H838.8v-.4H96.3v.4Z" class="g0_3058"/>
<path d="M96.1,1114.5h.2v-.4h-.2v.4Z" class="g0_3058"/>
<path d="M96.3,1114.5H838.9v-.4H96.3v.4Z" class="g0_3058"/>
<image clip-path="url(#c0_3058)" preserveAspectRatio="none" x="97" y="41" width="73" height="18" xlink:href="img/1.jpg"/>
<path d="M254.2,692.7v17.2M368.1,692.7v40.1M715.8,692.7v52.7H383.2m-15.1,8.2v9.9m0,16.9v13.3H210.6V618.8H367.8v19.8" class="g1_3058"/>
<path d="M364,637.5l3.8,6.6l3.8,-6.6H364Z" class="g0_3058"/>
<path d="M601.7,692.7V724H269.3m-15.1,11.2v10.6m0,18.9v10.8H225.9v-146h29.5v9.1" class="g1_3058"/>
<path d="M251.6,637.5l3.8,6.6l3.8,-6.6h-7.6Z" class="g0_3058"/>
<path d="M581.4,686.7h38V661.9h-38v24.8Z" class="g2_3058"/>
<path d="M619.4,686.7h38.1V661.9H619.4v24.8Z" class="g2_3058"/>
<path d="M657.5,686.7h38.1V661.9H657.5v24.8Z" class="g2_3058"/>
<path d="M695.6,686.7h38V661.9h-38v24.8Z" class="g2_3058"/>
<path d="M236.6,686.7h38.1V661.9H236.6v24.8Z" class="g2_3058"/>
<path d="M274.7,686.7h38V661.9h-38v24.8Z" class="g2_3058"/>
<path d="M312.7,686.7h38.1V661.9H312.7v24.8Z" class="g2_3058"/>
<path d="M350.8,686.7h38V661.9h-38v24.8Z" class="g2_3058"/>
</svg>