<?xml version="1.0" encoding="UTF-8" standalone="no"?>
<!DOCTYPE svg PUBLIC "-//W3C//DTD SVG 1.1//EN"
"http://www.w3.org/Graphics/SVG/1.1/DTD/svg11.dtd">
<svg viewBox="0 0 935 1210" version="1.1" xmlns="http://www.w3.org/2000/svg" xmlns:xlink="http://www.w3.org/1999/xlink">
<defs>
<style type="text/css"><![CDATA[
.g0_4686{
fill: #FFF;
}
.g1_4686{
fill: #000;
}
]]></style>
</defs>
<path d="M68.8,1149.3H852.5v-21.2H68.8v21.2Z" class="g0_4686"/>
<path d="M68.6,1069.1h.7v-945h-.7v945Z" class="g1_4686"/>
<path d="M125.3,1069.8h.7V164.6h-.7v905.2Z" class="g1_4686"/>
<path d="M182.1,1069.8h.7V123.4h-.7v946.4Z" class="g1_4686"/>
<path d="M440.1,1069.8h.7V123.4h-.7v946.4Z" class="g1_4686"/>
<path d="M533.5,1069.8h.7V123.4h-.7v946.4Z" class="g1_4686"/>
<path d="M849.8,1069.1h.8v-945h-.8v945Z" class="g1_4686"/>
<path d="M68.6,124.1h782v-.7H68.6v.7Z" class="g1_4686"/>
<path d="M68.6,165.4H182.8v-.8H68.6v.8Z" class="g1_4686"/>
<path d="M68.6,189.8h782v-.7H68.6v.7Z" class="g1_4686"/>
<path d="M68.6,214.2h782v-.7H68.6v.7Z" class="g1_4686"/>
<path d="M68.6,260.1h782v-.8H68.6v.8Z" class="g1_4686"/>
<path d="M68.6,284.5h782v-.7H68.6v.7Z" class="g1_4686"/>
<path d="M68.6,330.4h782v-.8H68.6v.8Z" class="g1_4686"/>
<path d="M68.6,354.8h782v-.7H68.6v.7Z" class="g1_4686"/>
<path d="M68.6,400.7h782v-.8H68.6v.8Z" class="g1_4686"/>
<path d="M68.6,425.2h782v-.8H68.6v.8Z" class="g1_4686"/>
<path d="M68.6,471h782v-.8H68.6v.8Z" class="g1_4686"/>
<path d="M68.6,495.4h782v-.8H68.6v.8Z" class="g1_4686"/>
<path d="M68.6,536.6h782v-.7H68.6v.7Z" class="g1_4686"/>
<path d="M68.6,582.4h782v-.7H68.6v.7Z" class="g1_4686"/>
<path d="M68.6,606.9h782v-.7H68.6v.7Z" class="g1_4686"/>
<path d="M68.6,652.8h782V652H68.6v.8Z" class="g1_4686"/>
<path d="M68.6,677.2h782v-.7H68.6v.7Z" class="g1_4686"/>
<path d="M68.6,723.1h782v-.8H68.6v.8Z" class="g1_4686"/>
<path d="M68.6,747.4h782v-.7H68.6v.7Z" class="g1_4686"/>
<path d="M68.6,793.3h782v-.8H68.6v.8Z" class="g1_4686"/>
<path d="M68.6,817.8h782V817H68.6v.8Z" class="g1_4686"/>
<path d="M68.6,863.6h782v-.7H68.6v.7Z" class="g1_4686"/>
<path d="M68.6,888.1h782v-.8H68.6v.8Z" class="g1_4686"/>
<path d="M68.6,929.3h782v-.7H68.6v.7Z" class="g1_4686"/>
<path d="M68.6,975.2h782v-.8H68.6v.8Z" class="g1_4686"/>
<path d="M68.6,999.5h782v-.7H68.6v.7Z" class="g1_4686"/>
<path d="M68.6,1045.4h782v-.8H68.6v.8Z" class="g1_4686"/>
<path d="M68.6,1069.8h782v-.7H68.6v.7Z" class="g1_4686"/>
</svg>