<?xml version="1.0" encoding="UTF-8" standalone="no"?>
<!DOCTYPE svg PUBLIC "-//W3C//DTD SVG 1.1//EN"
"http://www.w3.org/Graphics/SVG/1.1/DTD/svg11.dtd">
<svg viewBox="0 0 935 1210" version="1.1" xmlns="http://www.w3.org/2000/svg" xmlns:xlink="http://www.w3.org/1999/xlink">
<defs>
<style type="text/css"><![CDATA[
.g0_799{
fill: #FFF;
}
.g1_799{
fill: #000;
}
]]></style>
</defs>
<path d="M68.9,1149.3H755.2v-21.2H68.9v21.2Z" class="g0_799"/>
<path d="M771.3,1149.3H855v-21.2H771.3v21.2Z" class="g0_799"/>
<path d="M69.9,364.7h.8v-239h-.8v239Z" class="g1_799"/>
<path d="M310.4,365.6h.7V124.9h-.7V365.6Z" class="g1_799"/>
<path d="M361.7,365.6h.8V124.9h-.8V365.6Z" class="g1_799"/>
<path d="M436.2,365.6h.8V124.9h-.8V365.6Z" class="g1_799"/>
<path d="M515,365.6h.7V124.9H515V365.6Z" class="g1_799"/>
<path d="M852.6,364.7h.7v-239h-.7v239Z" class="g1_799"/>
<path d="M69.9,125.7H853.3v-.8H69.9v.8Z" class="g1_799"/>
<path d="M69.9,179.1H853.3v-.7H69.9v.7Z" class="g1_799"/>
<path d="M69.9,235.7H853.3v-.8H69.9v.8Z" class="g1_799"/>
<path d="M69.9,292.1H853.3v-.7H69.9v.7Z" class="g1_799"/>
<path d="M69.9,365.5H853.3v-.8H69.9v.8Z" class="g1_799"/>
<path d="M69.9,517.6h.8v-97h-.8v97Z" class="g1_799"/>
<path d="M151.6,518.3h.8V419.7h-.8v98.6Z" class="g1_799"/>
<path d="M245.3,518.3h.7V419.7h-.7v98.6Z" class="g1_799"/>
<path d="M392.1,518.3h.7V419.7h-.7v98.6Z" class="g1_799"/>
<path d="M547.5,518.3h.8V419.7h-.8v98.6Z" class="g1_799"/>
<path d="M704.5,518.3h.7V419.7h-.7v98.6Z" class="g1_799"/>
<path d="M852.5,517.6h.7v-97h-.7v97Z" class="g1_799"/>
<path d="M69.9,420.6H853.2v-.8H69.9v.8Z" class="g1_799"/>
<path d="M69.9,444.9H853.2v-.7H69.9v.7Z" class="g1_799"/>
<path d="M69.9,469.4H853.2v-.7H69.9v.7Z" class="g1_799"/>
<path d="M69.9,493.9H853.2v-.7H69.9v.7Z" class="g1_799"/>
<path d="M69.9,518.3H853.2v-.7H69.9v.7Z" class="g1_799"/>
</svg>