<?xml version="1.0" encoding="UTF-8" standalone="no"?>
<!DOCTYPE svg PUBLIC "-//W3C//DTD SVG 1.1//EN"
"http://www.w3.org/Graphics/SVG/1.1/DTD/svg11.dtd">
<svg viewBox="0 0 935 1210" version="1.1" xmlns="http://www.w3.org/2000/svg" xmlns:xlink="http://www.w3.org/1999/xlink">
<defs>
<style type="text/css"><![CDATA[
.g0_276{
fill: #FFF;
}
.g1_276{
fill: #000;
}
]]></style>
</defs>
<path d="M68.8,1149.3H852.5v-21.2H68.8v21.2Z" class="g0_276"/>
<path d="M170.5,335.4h.7V113.5h-.7V335.4Z" class="g1_276"/>
<path d="M749.8,335.4h.8V113.5h-.8V335.4Z" class="g1_276"/>
<path d="M170.5,113.4H750.6v-.7H170.5v.7Z" class="g1_276"/>
<path d="M170.5,336.2H750.6v-.7H170.5v.7Z" class="g1_276"/>
<path d="M170.5,744.6h.7v-219h-.7v219Z" class="g1_276"/>
<path d="M749.8,744.6h.8v-219h-.8v219Z" class="g1_276"/>
<path d="M170.5,525.6H750.6v-.7H170.5v.7Z" class="g1_276"/>
<path d="M170.5,745.3H750.6v-.7H170.5v.7Z" class="g1_276"/>
<path d="M170.5,1041.5h.7V815.7h-.7v225.8Z" class="g1_276"/>
<path d="M749.8,1041.5h.8V815.7h-.8v225.8Z" class="g1_276"/>
<path d="M170.5,815.7H750.6v-.8H170.5v.8Z" class="g1_276"/>
<path d="M170.5,1042.3H750.6v-.8H170.5v.8Z" class="g1_276"/>
<path d="M259.7,156.6H483.3V129.1H259.7v27.5Z" class="g0_276"/>
<path d="M259.7,129.4H483.6v-.7H259.7v.7Z" class="g1_276"/>
<path d="M482.9,156.9h.7V129.1h-.7v27.8Z" class="g1_276"/>
<path d="M259.3,156.9h224v-.7h-224v.7Z" class="g1_276"/>
<path d="M259.3,156.6h.8V128.7h-.8v27.9Z" class="g1_276"/>
<path d="M483.3,156.6H699.7V129.1H483.3v27.5Z" class="g0_276"/>
<path d="M483.3,129.4H700.1v-.7H483.3v.7Z" class="g1_276"/>
<path d="M699.3,156.9h.8V129.1h-.8v27.8Z" class="g1_276"/>
<path d="M482.9,156.9H699.7v-.7H482.9v.7Z" class="g1_276"/>
<path d="M482.9,156.6h.7V128.7h-.7v27.9Z" class="g1_276"/>
<path d="M259.7,225.3H483.3V197.8H259.7v27.5Z" class="g0_276"/>
<path d="M259.7,198.2H483.6v-.8H259.7v.8Z" class="g1_276"/>
<path d="M482.9,225.7h.7V197.8h-.7v27.9Z" class="g1_276"/>
<path d="M259.3,225.7h224v-.8h-224v.8Z" class="g1_276"/>
<path d="M259.3,225.3h.8V197.4h-.8v27.9Z" class="g1_276"/>
<path d="M483.3,225.3H699.7V197.8H483.3v27.5Z" class="g0_276"/>
<path d="M483.3,198.2H700.1v-.8H483.3v.8Z" class="g1_276"/>
<path d="M699.3,225.7h.8V197.8h-.8v27.9Z" class="g1_276"/>
<path d="M482.9,225.7H699.7v-.8H482.9v.8Z" class="g1_276"/>
<path d="M482.9,225.3h.7V197.4h-.7v27.9Z" class="g1_276"/>
<path d="M258.7,321.6H483.3V294.1H258.7v27.5Z" class="g0_276"/>
<path d="M258.7,294.4H483.6v-.7H258.7v.7Z" class="g1_276"/>
<path d="M482.9,321.9h.7V294.1h-.7v27.8Z" class="g1_276"/>
<path d="M258.3,321.9h225v-.7h-225v.7Z" class="g1_276"/>
<path d="M258.3,321.6h.7V293.7h-.7v27.9Z" class="g1_276"/>
<path d="M483.3,321.6H698.7V294.1H483.3v27.5Z" class="g0_276"/>
<path d="M483.3,294.4H699.1v-.7H483.3v.7Z" class="g1_276"/>
<path d="M698.3,321.9h.8V294.1h-.8v27.8Z" class="g1_276"/>
<path d="M482.9,321.9H698.7v-.7H482.9v.7Z" class="g1_276"/>
<path d="M482.9,321.6h.7V293.7h-.7v27.9Z" class="g1_276"/>
<path d="M361.8,278.7h-.7l.2,1.7h.7Z" class="g1_276"/>
<path d="M361.3,279.7l2.6,-1.3l1.4,-.7l-.3,1.6l-1.6,9.9l-.4,2.7l-1.1,-2.5l-3.8,-9.3l-.7,-1.4l1.6,.3l.5,.5l3.9,9.3l-1.5,.6v-.5l1.7,-9.9l1.4,.3l-.3,.6l-2.7,1.2Z" class="g1_276"/>
<path d="M359,279l2.8,.7l.2,1.4l-.3,.1l-.3,-.1l-2.8,-.6Z" class="g1_276"/>
<path fill-rule="evenodd" d="M361.6,280.4l2.7,-1.3l-1.7,9.9l-3.8,-9.2Z" class="g1_276"/>
<path d="M355.8,226.9v-.4l-.8,.1v.4Z" class="g1_276"/>
<path d="M361.8,278.7v.3l-.7,.1v-.3Z" class="g1_276"/>
<path d="M355.8,226.9l-.8,.1l6.1,51.8l.7,-.1Z" class="g1_276"/>
<path d="M558.7,285.3l-.4,.5l1.5,1.1l.4,-.5Z" class="g1_276"/>
<path d="M559.3,286.5l.8,-2.9l.3,-1.5l1.1,1.2l6.2,7.9l1.6,2.1l-2.4,-.9L557.3,289l-1.5,-.5l1.3,-.8l.7,-.1l9.5,3.4l-.4,1.4l-.4,-.3l-6.2,-7.8l1.2,-1l.1,.7l-.9,2.8Z" class="g1_276"/>
<path d="M557.1,287.7l2.4,-1.7l1.2,.8l-.1,.3l-.2,.2l-2.4,1.6Z" class="g1_276"/>
<path fill-rule="evenodd" d="M560,286.6l.8,-2.8l6.3,7.9l-9.6,-3.4Z" class="g1_276"/>
<path d="M380,156.3l-.2,-.2l-.5,.6l.3,.1Z" class="g1_276"/>
<path d="M558.8,285.3l.3,.1l-.5,.6l-.3,-.2Z" class="g1_276"/>
<path d="M380,156.3l-.4,.5l178.7,129l.5,-.5Z" class="g1_276"/>
<path d="M387.8,289.4l-.1,-.7l-1.8,.5l.2,.7Z" class="g1_276"/>
<path d="M386.7,289.1l1.9,2.3l1,1.1l-1.7,.2l-10,.5l-2.7,.1l2.2,-1.5l8.2,-5.8l1.3,-.9v1.5l-.3,.7l-8.3,5.8l-.9,-1.3l.4,-.1l10,-.6l.1,1.6l-.6,-.4L385.4,290Z" class="g1_276"/>
<path d="M386.9,286.6l-.1,3l-1.4,.4l-.2,-.2v-.2l.1,-3Z" class="g1_276"/>
<path fill-rule="evenodd" d="M386,289.6l1.9,2.3l-10,.5l8.2,-5.8Z" class="g1_276"/>
<path d="M570.2,226.4l.3,-.1l-.2,-.7l-.4,.1Z" class="g1_276"/>
<path d="M387.9,289.4l-.3,.1l-.3,-.7l.4,-.1Z" class="g1_276"/>
<path d="M570.2,226.4l-.3,-.7l-182.2,63l.2,.7Z" class="g1_276"/>
<path d="M576.5,279.4h-.7l-.1,1.7h.7Z" class="g1_276"/>
<path d="M575.8,280.4l2.8,-.8l1.6,-.6l-.6,1.6l-3.3,9.4l-.9,2.6l-.6,-2.6l-2.2,-9.8l-.3,-1.6l1.3,.6l.5,.6l2.2,9.8l-1.5,.4v-.4l3.3,-9.5l1.5,.5l-.5,.4l-2.8,.9Z" class="g1_276"/>
<path d="M573.7,279.2l2.6,1.2v1.5l-.4,.1l-.1,-.1l-2.7,-1.2Z" class="g1_276"/>
<path fill-rule="evenodd" d="M576,281.1l2.9,-.8l-3.3,9.5l-2.2,-9.9Z" class="g1_276"/>
<path d="M583.4,150.4h.7v-.3h-.7v.3Z" class="g1_276"/>
<path d="M575.8,279.8h.7v-.4h-.7v.4Z" class="g1_276"/>
<path d="M584.1,150.4h-.7l-7.6,129h.7Z" class="g1_276"/>
<path d="M256.6,568.8H476.8V541.3H256.6v27.5Z" class="g0_276"/>
<path d="M256.6,541.7H477.2v-.8H256.6v.8Z" class="g1_276"/>
<path d="M476.5,569.2h.7V541.3h-.7v27.9Z" class="g1_276"/>
<path d="M256.2,569.2H476.8v-.8H256.2v.8Z" class="g1_276"/>
<path d="M256.2,568.8h.7V540.9h-.7v27.9Z" class="g1_276"/>
<path d="M476.4,568.8H696.7V541.3H476.4v27.5Z" class="g0_276"/>
<path d="M476.4,541.7H697v-.8H476.4v.8Z" class="g1_276"/>
<path d="M696.3,569.2h.7V541.3h-.7v27.9Z" class="g1_276"/>
<path d="M476,569.2H696.7v-.8H476v.8Z" class="g1_276"/>
<path d="M476,568.8h.8V540.9H476v27.9Z" class="g1_276"/>
<path d="M256.6,637.5H476.8V610H256.6v27.5Z" class="g0_276"/>
<path d="M256.6,610.4H477.2v-.7H256.6v.7Z" class="g1_276"/>
<path d="M476.5,637.9h.7V610h-.7v27.9Z" class="g1_276"/>
<path d="M256.2,637.9H476.8v-.7H256.2v.7Z" class="g1_276"/>
<path d="M256.2,637.5h.7V609.7h-.7v27.8Z" class="g1_276"/>
<path d="M475,637.5H696.7V610H475v27.5Z" class="g0_276"/>
<path d="M475,610.4H697v-.7H475v.7Z" class="g1_276"/>
<path d="M696.3,637.9h.7V610h-.7v27.9Z" class="g1_276"/>
<path d="M474.6,637.9H696.7v-.7H474.6v.7Z" class="g1_276"/>
<path d="M474.6,637.5h.8V609.7h-.8v27.8Z" class="g1_276"/>
<path d="M256.8,733.8H475.7V706.3H256.8v27.5Z" class="g0_276"/>
<path d="M256.8,706.7H476.1v-.8H256.8v.8Z" class="g1_276"/>
<path d="M475.4,734.2h.7V706.3h-.7v27.9Z" class="g1_276"/>
<path d="M256.5,734.2H475.8v-.8H256.5v.8Z" class="g1_276"/>
<path d="M256.5,733.8h.7V705.9h-.7v27.9Z" class="g1_276"/>
<path d="M475.4,733.8H695.7V706.3H475.4v27.5Z" class="g0_276"/>
<path d="M475.4,706.7H696v-.8H475.4v.8Z" class="g1_276"/>
<path d="M695.3,734.2h.7V706.3h-.7v27.9Z" class="g1_276"/>
<path d="M475,734.2H695.7v-.8H475v.8Z" class="g1_276"/>
<path d="M475,733.8h.7V705.9H475v27.9Z" class="g1_276"/>
<path d="M572.9,699.2l-.3,.6l1.4,1l.4,-.6Z" class="g1_276"/>
<path d="M573.5,700.3l.6,-2.9l.3,-1.5l1.1,1.2l6.7,7.5l1.7,2l-12.2,-3.5l-1.5,-.4l1.2,-1l.8,-.1l9.6,2.8l-.5,1.4l-.3,-.1l-6.7,-7.6l1.2,-1l.1,.7l-.7,2.9Z" class="g1_276"/>
<path d="M571.5,701.7l2.2,-1.8l1.2,.8v.3l-.2,.2l-2.3,1.8Z" class="g1_276"/>
<path fill-rule="evenodd" d="M574.2,700.5l.6,-2.9l6.7,7.5l-9.6,-2.7Z" class="g1_276"/>
<path d="M363.6,568.8l-.2,-.2l-.4,.6l.3,.2Z" class="g1_276"/>
<path d="M572.9,699.2l.3,.2l-.4,.7l-.2,-.2Z" class="g1_276"/>
<path d="M363.6,568.8l-.3,.6L572.6,699.9l.3,-.7Z" class="g1_276"/>
<path d="M365.8,696.5h.8v-1.9h-.8v1.9Z" class="g1_276"/>
<path d="M365.9,695.7l2.8,-1l1.5,-.6l-.5,1.6l-3.5,12.2l-3.5,-12.2l-.4,-1.5l1.4,.5l.5,.6l2.7,9.6l-1.4,.5v-.5l2.7,-9.6l1.5,.4l-.5,.5l-2.7,1Z" class="g1_276"/>
<path d="M363.7,694.7l2.8,1v1.5l-.3,.1l-.3,-.1l-2.7,-1Z" class="g1_276"/>
<path fill-rule="evenodd" d="M366.2,696.5l2.8,-1l-2.8,9.6l-2.7,-9.6Z" class="g1_276"/>
<path d="M365.8,637.2h.8v-.4h-.8v.4Z" class="g1_276"/>
<path d="M365.8,695h.8V637.2h-.8V695Z" class="g1_276"/>
<path d="M257,865.6H477.2V838.1H257v27.5Z" class="g0_276"/>
<path d="M257,838.5H477.6v-.8H257v.8Z" class="g1_276"/>
<path d="M476.8,866h.8V838.1h-.8V866Z" class="g1_276"/>
<path d="M256.7,866H477.2v-.8H256.7v.8Z" class="g1_276"/>
<path d="M256.7,865.6h.7V837.7h-.7v27.9Z" class="g1_276"/>
<path d="M476.8,865.6H697V838.1H476.8v27.5Z" class="g0_276"/>
<path d="M476.8,838.5H697.4v-.8H476.8v.8Z" class="g1_276"/>
<path d="M696.7,866h.7V838.1h-.7V866Z" class="g1_276"/>
<path d="M476.4,866H697v-.8H476.4v.8Z" class="g1_276"/>
<path d="M476.4,865.6h.7V837.7h-.7v27.9Z" class="g1_276"/>
<path d="M257,934.4H477.2V906.9H257v27.5Z" class="g0_276"/>
<path d="M257,907.2H477.6v-.7H257v.7Z" class="g1_276"/>
<path d="M476.8,934.7h.8V906.9h-.8v27.8Z" class="g1_276"/>
<path d="M256.7,934.7H477.2V934H256.7v.7Z" class="g1_276"/>
<path d="M256.7,934.4h.7V906.5h-.7v27.9Z" class="g1_276"/>
<path d="M475.5,934.4H697V906.9H475.5v27.5Z" class="g0_276"/>
<path d="M475.5,907.2H697.4v-.7H475.5v.7Z" class="g1_276"/>
<path d="M696.7,934.7h.7V906.9h-.7v27.8Z" class="g1_276"/>
<path d="M475.1,934.7H697V934H475.1v.7Z" class="g1_276"/>
<path d="M475.1,934.4h.7V906.5h-.7v27.9Z" class="g1_276"/>
<path d="M257.3,1030.6H476.1v-27.5H257.3v27.5Z" class="g0_276"/>
<path d="M257.3,1003.5H476.5v-.8H257.3v.8Z" class="g1_276"/>
<path d="M475.7,1031h.8v-27.9h-.8V1031Z" class="g1_276"/>
<path d="M256.9,1031H476.1v-.8H256.9v.8Z" class="g1_276"/>
<path d="M256.9,1030.6h.8v-27.9h-.8v27.9Z" class="g1_276"/>
<path d="M475.7,1030.6H696v-27.5H475.7v27.5Z" class="g0_276"/>
<path d="M475.7,1003.5H696.4v-.8H475.7v.8Z" class="g1_276"/>
<path d="M695.7,1031h.7v-27.9h-.7V1031Z" class="g1_276"/>
<path d="M475.4,1031H696v-.8H475.4v.8Z" class="g1_276"/>
<path d="M475.4,1030.6h.7v-27.9h-.7v27.9Z" class="g1_276"/>
<path d="M587.6,990.6l-.8,-.1l-.3,1.7l.7,.2Z" class="g1_276"/>
<path d="M586.8,991.6l2.9,-.4l1.6,-.3l-.9,1.5l-4.8,8.8l-1.3,2.3l-.1,-2.7l-.6,-10.1l-.1,-1.6l1.3,.9l.3,.6l.6,10.1l-1.5,.1l.1,-.4l4.8,-8.8l1.3,.8l-.5,.3l-3,.3Z" class="g1_276"/>
<path d="M584.8,990l2.5,1.7l-.4,1.3l-.2,.1l-2.8,-1.8Z" class="g1_276"/>
<path fill-rule="evenodd" d="M586.8,992.3l3,-.4l-4.9,8.8l-.5,-10.1Z" class="g1_276"/>
<path d="M616.1,866.5l.1,-.3l-.8,-.2v.3Z" class="g1_276"/>
<path d="M587.6,990.6l-.1,.4l-.7,-.2v-.3Z" class="g1_276"/>
<path d="M616.1,866.5l-.7,-.2L586.8,990.5l.8,.1Z" class="g1_276"/>
<path d="M387.6,999.1l-.2,-.8l-1.7,.6l.2,.7Z" class="g1_276"/>
<path d="M386.4,998.7l1.9,2.3l1.2,1.2l-1.8,.2l-10,.7l-2.7,.2l2.1,-1.7l8.2,-5.8l1.3,-1v1.5l-.3,.7l-8.2,5.9l-1,-1.3h.5l10.1,-.8v1.6l-.5,-.3l-1.9,-2.3Z" class="g1_276"/>
<path d="M386.7,996.3v3l-1.4,.5l-.2,-.3l-.1,-.2v-3Z" class="g1_276"/>
<path fill-rule="evenodd" d="M385.8,999.3l1.9,2.3l-10,.7l8.1,-6Z" class="g1_276"/>
<path d="M563.1,935.2l.4,-.1l-.3,-.7l-.4,.1Z" class="g1_276"/>
<path d="M387.7,999.1l-.4,.1l-.3,-.8l.4,-.1Z" class="g1_276"/>
<path d="M563.1,935.2l-.3,-.7L387.4,998.3l.3,.8Z" class="g1_276"/>
</svg>