<?xml version="1.0" encoding="UTF-8" standalone="no"?>
<!DOCTYPE svg PUBLIC "-//W3C//DTD SVG 1.1//EN"
"http://www.w3.org/Graphics/SVG/1.1/DTD/svg11.dtd">
<svg viewBox="0 0 935 1210" version="1.1" xmlns="http://www.w3.org/2000/svg" xmlns:xlink="http://www.w3.org/1999/xlink">
<defs>
<style type="text/css"><![CDATA[
.g0_359{
fill: #B3B3B3;
}
.g1_359{
fill: #000;
}
]]></style>
</defs>
<path d="M82.5,96.3h770V55H82.5V96.3Z" class="g0_359"/>
<path d="M113,204.5h.4V160.6H113v43.9Z" class="g1_359"/>
<path d="M245,204.9h.4V160.2H245v44.7Z" class="g1_359"/>
<path d="M355,204.9h.4V160.2H355v44.7Z" class="g1_359"/>
<path d="M465,204.9h.4V160.2H465v44.7Z" class="g1_359"/>
<path d="M487,204.9h.4V160.2H487v44.7Z" class="g1_359"/>
<path d="M513.6,204.9h.4V160.2h-.4v44.7Z" class="g1_359"/>
<path d="M689.6,204.9h.4V160.2h-.4v44.7Z" class="g1_359"/>
<path d="M821.6,204.5h.4V160.6h-.4v43.9Z" class="g1_359"/>
<path d="M113,160.6H822v-.4H113v.4Z" class="g1_359"/>
<path d="M113,204.9H822v-.4H113v.4Z" class="g1_359"/>
</svg>