<?xml version="1.0" encoding="UTF-8" standalone="no"?>
<!DOCTYPE svg PUBLIC "-//W3C//DTD SVG 1.1//EN"
"http://www.w3.org/Graphics/SVG/1.1/DTD/svg11.dtd">
<svg viewBox="0 0 935 1210" version="1.1" xmlns="http://www.w3.org/2000/svg" xmlns:xlink="http://www.w3.org/1999/xlink">
<defs>
<style type="text/css"><![CDATA[
.g0_2137{
fill: #FFF;
}
.g1_2137{
fill: #000;
}
]]></style>
</defs>
<path d="M68.9,1149.3H755.2v-21.2H68.9v21.2Z" class="g0_2137"/>
<path d="M771.3,1149.3H855v-21.2H771.3v21.2Z" class="g0_2137"/>
<path d="M69.9,568h.8V125.7h-.8V568Z" class="g1_2137"/>
<path d="M304.6,179.1h.7V124.9h-.7v54.2Z" class="g1_2137"/>
<path d="M304.6,568.7h.7V178.4h-.7V568.7Z" class="g1_2137"/>
<path d="M345.5,179.1h.7V124.9h-.7v54.2Z" class="g1_2137"/>
<path d="M345.5,568.7h.7V178.4h-.7V568.7Z" class="g1_2137"/>
<path d="M418.8,179.1h.8V124.9h-.8v54.2Z" class="g1_2137"/>
<path d="M418.8,568.7h.8V178.4h-.8V568.7Z" class="g1_2137"/>
<path d="M543.7,568.7h.7V124.9h-.7V568.7Z" class="g1_2137"/>
<path d="M853,568h.8V125.7H853V568Z" class="g1_2137"/>
<path d="M69.9,125.7h784v-.8H69.9v.8Z" class="g1_2137"/>
<path d="M69.9,179.1H544.4v-.7H69.9v.7Z" class="g1_2137"/>
<path d="M543.7,179.1H853.9v-.7H543.7v.7Z" class="g1_2137"/>
<path d="M69.9,235.7H544.4v-.8H69.9v.8Z" class="g1_2137"/>
<path d="M543.7,235.7H853.9v-.8H543.7v.8Z" class="g1_2137"/>
<path d="M69.9,292.1H544.4v-.7H69.9v.7Z" class="g1_2137"/>
<path d="M543.7,292.1H853.9v-.7H543.7v.7Z" class="g1_2137"/>
<path d="M69.9,348.7H544.4V348H69.9v.7Z" class="g1_2137"/>
<path d="M543.7,348.7H853.9V348H543.7v.7Z" class="g1_2137"/>
<path d="M69.9,422H544.4v-.7H69.9v.7Z" class="g1_2137"/>
<path d="M543.7,422H853.9v-.7H543.7v.7Z" class="g1_2137"/>
<path d="M69.9,495.4H544.4v-.8H69.9v.8Z" class="g1_2137"/>
<path d="M543.7,495.4H853.9v-.8H543.7v.8Z" class="g1_2137"/>
<path d="M69.9,568.7H543.7V568H69.9v.7Z" class="g1_2137"/>
<path d="M544.4,568.7H853.9V568H544.4v.7Z" class="g1_2137"/>
<path d="M69.9,671.8h.8V623.7h-.8v48.1Z" class="g1_2137"/>
<path d="M135.7,672.7h.7V623h-.7v49.7Z" class="g1_2137"/>
<path d="M228.9,672.7h.7V623h-.7v49.7Z" class="g1_2137"/>
<path d="M375,672.7h.7V623H375v49.7Z" class="g1_2137"/>
<path d="M534.9,672.7h.7V623h-.7v49.7Z" class="g1_2137"/>
<path d="M693.5,672.7h.8V623h-.8v49.7Z" class="g1_2137"/>
<path d="M850.2,671.8h.7V623.7h-.7v48.1Z" class="g1_2137"/>
<path d="M69.9,623.7H851V623H69.9v.7Z" class="g1_2137"/>
<path d="M69.9,648.2H851v-.8H69.9v.8Z" class="g1_2137"/>
<path d="M69.9,672.7H851v-.8H69.9v.8Z" class="g1_2137"/>
</svg>