<?xml version="1.0" encoding="UTF-8" standalone="no"?>
<!DOCTYPE svg PUBLIC "-//W3C//DTD SVG 1.1//EN"
"http://www.w3.org/Graphics/SVG/1.1/DTD/svg11.dtd">
<svg viewBox="0 0 935 1210" version="1.1" xmlns="http://www.w3.org/2000/svg" xmlns:xlink="http://www.w3.org/1999/xlink">
<defs>
<style type="text/css"><![CDATA[
.g0_1377{
fill: #FFF;
}
.g1_1377{
fill: #000;
}
]]></style>
</defs>
<path d="M68.9,1149.3H852.7v-21.2H68.9v21.2Z" class="g0_1377"/>
<path d="M69.9,215.1h.8V125.7h-.8v89.4Z" class="g1_1377"/>
<path d="M255.2,215.8h.7V124.9h-.7v90.9Z" class="g1_1377"/>
<path d="M312.5,215.8h.7V124.9h-.7v90.9Z" class="g1_1377"/>
<path d="M386.9,215.8h.8V124.9h-.8v90.9Z" class="g1_1377"/>
<path d="M454.6,215.8h.7V124.9h-.7v90.9Z" class="g1_1377"/>
<path d="M852.6,215.1h.7V125.7h-.7v89.4Z" class="g1_1377"/>
<path d="M69.9,125.7H853.3v-.8H69.9v.8Z" class="g1_1377"/>
<path d="M69.9,179.1H853.3v-.7H69.9v.7Z" class="g1_1377"/>
<path d="M69.9,215.8H853.3v-.7H69.9v.7Z" class="g1_1377"/>
<path d="M69.4,318.9h.7V270.8h-.7v48.1Z" class="g1_1377"/>
<path d="M171,319.7h.7V270.1H171v49.6Z" class="g1_1377"/>
<path d="M339.6,319.7h.8V294.5h-.8v25.2Z" class="g1_1377"/>
<path d="M508.3,319.7h.7V270.1h-.7v49.6Z" class="g1_1377"/>
<path d="M852.6,318.9h.7V270.8h-.7v48.1Z" class="g1_1377"/>
<path d="M69.4,270.8H853.3v-.7H69.4v.7Z" class="g1_1377"/>
<path d="M69.4,295.3H853.3v-.8H69.4v.8Z" class="g1_1377"/>
<path d="M69.4,319.6H853.3v-.7H69.4v.7Z" class="g1_1377"/>
<path d="M70.9,610.8h.8V562.7h-.8v48.1Z" class="g1_1377"/>
<path d="M851,610.8h.8V562.7H851v48.1Z" class="g1_1377"/>
<path d="M70.9,562.7H851.8v-.8H70.9v.8Z" class="g1_1377"/>
<path d="M70.9,587H851.8v-.7H70.9v.7Z" class="g1_1377"/>
<path d="M70.9,611.5H851.8v-.7H70.9v.7Z" class="g1_1377"/>
<path d="M69.4,792.6h.7v-97h-.7v97Z" class="g1_1377"/>
<path d="M424,793.4h.8V694.7H424v98.7Z" class="g1_1377"/>
<path d="M852.6,792.6h.7v-97h-.7v97Z" class="g1_1377"/>
<path d="M69.4,695.6H853.3v-.8H69.4v.8Z" class="g1_1377"/>
<path d="M69.4,719.9H853.3v-.7H69.4v.7Z" class="g1_1377"/>
<path d="M69.4,744.4H853.3v-.7H69.4v.7Z" class="g1_1377"/>
<path d="M69.4,768.9H853.3v-.7H69.4v.7Z" class="g1_1377"/>
<path d="M69.4,793.3H853.3v-.8H69.4v.8Z" class="g1_1377"/>
<path d="M68.7,965.3h.7v-91h-.7v91Z" class="g1_1377"/>
<path d="M305.8,966h.7V873.6h-.7V966Z" class="g1_1377"/>
<path d="M853.3,965.3h.8v-91h-.8v91Z" class="g1_1377"/>
<path d="M68.7,874.3H854.1v-.7H68.7v.7Z" class="g1_1377"/>
<path d="M68.7,897.2H854.1v-.7H68.7v.7Z" class="g1_1377"/>
<path d="M68.7,920.2H854.1v-.8H68.7v.8Z" class="g1_1377"/>
<path d="M68.7,943.1H854.1v-.8H68.7v.8Z" class="g1_1377"/>
<path d="M68.7,966H854.1v-.8H68.7v.8Z" class="g1_1377"/>
</svg>