<?xml version="1.0" encoding="UTF-8" standalone="no"?>
<!DOCTYPE svg PUBLIC "-//W3C//DTD SVG 1.1//EN"
"http://www.w3.org/Graphics/SVG/1.1/DTD/svg11.dtd">
<svg viewBox="0 0 935 1210" version="1.1" xmlns="http://www.w3.org/2000/svg" xmlns:xlink="http://www.w3.org/1999/xlink">
<defs>
<style type="text/css"><![CDATA[
.g0_241{
fill: #B3B3B3;
}
.g1_241{
fill: #000;
}
]]></style>
</defs>
<path d="M82.5,96.3h770V55H82.5V96.3Z" class="g0_241"/>
<path d="M107.1,198.4h.3V154.5h-.3v43.9Z" class="g1_241"/>
<path d="M239.1,198.8h.3V154.1h-.3v44.7Z" class="g1_241"/>
<path d="M349.1,198.8h.3V154.1h-.3v44.7Z" class="g1_241"/>
<path d="M459.1,198.8h.3V154.1h-.3v44.7Z" class="g1_241"/>
<path d="M602.1,198.8h.3V154.1h-.3v44.7Z" class="g1_241"/>
<path d="M646.1,198.8h.3V154.1h-.3v44.7Z" class="g1_241"/>
<path d="M695.6,198.8h.3V154.1h-.3v44.7Z" class="g1_241"/>
<path d="M827.6,198.4h.3V154.5h-.3v43.9Z" class="g1_241"/>
<path d="M107.1,154.5H827.9v-.4H107.1v.4Z" class="g1_241"/>
<path d="M107.1,198.7H827.9v-.3H107.1v.3Z" class="g1_241"/>
<path d="M274.6,822.8h.8V681.5h-.8V822.8Z" class="g1_241"/>
<path d="M384.6,823.6h.8V680.7h-.8V823.6Z" class="g1_241"/>
<path d="M659.6,822.8h.8V681.5h-.8V822.8Z" class="g1_241"/>
<path d="M274.6,681.5H660.4v-.7H274.6v.7Z" class="g1_241"/>
<path d="M275.4,723.9H659.6v-.7H275.4v.7Z" class="g1_241"/>
<path d="M275.4,727.7H659.6V727H275.4v.7Z" class="g1_241"/>
<path d="M274.6,750.3H660.4v-.7H274.6v.7Z" class="g1_241"/>
<path d="M274.6,774.7H660.4v-.8H274.6v.8Z" class="g1_241"/>
<path d="M274.6,799.1H660.4v-.7H274.6v.7Z" class="g1_241"/>
<path d="M274.6,823.6H660.4v-.7H274.6v.7Z" class="g1_241"/>
</svg>