<?xml version="1.0" encoding="UTF-8" standalone="no"?>
<!DOCTYPE svg PUBLIC "-//W3C//DTD SVG 1.1//EN"
"http://www.w3.org/Graphics/SVG/1.1/DTD/svg11.dtd">
<svg viewBox="0 0 935 1210" version="1.1" xmlns="http://www.w3.org/2000/svg" xmlns:xlink="http://www.w3.org/1999/xlink">
<defs>
<style type="text/css"><![CDATA[
.g0_4636{
fill: #FFF;
}
.g1_4636{
fill: #000;
}
]]></style>
</defs>
<path d="M68.8,1149.3H852.5v-21.2H68.8v21.2Z" class="g0_4636"/>
<path d="M68.6,1067.6h.7V124.1h-.7v943.5Z" class="g1_4636"/>
<path d="M125.3,1068.4h.7V164.6h-.7v903.8Z" class="g1_4636"/>
<path d="M182.1,1068.4h.7v-945h-.7v945Z" class="g1_4636"/>
<path d="M430.3,1068.4h.7v-945h-.7v945Z" class="g1_4636"/>
<path d="M523.4,1068.4h.7v-945h-.7v945Z" class="g1_4636"/>
<path d="M849.4,1067.6h.7V124.1h-.7v943.5Z" class="g1_4636"/>
<path d="M68.6,124.1H850.1v-.7H68.6v.7Z" class="g1_4636"/>
<path d="M68.6,165.4H182.8v-.8H68.6v.8Z" class="g1_4636"/>
<path d="M68.6,189.8H850.1v-.7H68.6v.7Z" class="g1_4636"/>
<path d="M68.6,214.2H850.1v-.7H68.6v.7Z" class="g1_4636"/>
<path d="M182.1,276.9h668v-.7h-668v.7Z" class="g1_4636"/>
<path d="M182.1,301.3h668v-.7h-668v.7Z" class="g1_4636"/>
<path d="M182.1,380.8h668v-.7h-668v.7Z" class="g1_4636"/>
<path d="M182.1,443.5h668v-.8h-668v.8Z" class="g1_4636"/>
<path d="M68.6,467.9H850.1v-.8H68.6v.8Z" class="g1_4636"/>
<path d="M68.6,492.3H850.1v-.7H68.6v.7Z" class="g1_4636"/>
<path d="M68.6,516.8H850.1v-.7H68.6v.7Z" class="g1_4636"/>
<path d="M182.1,579.4h668v-.7h-668v.7Z" class="g1_4636"/>
<path d="M182.1,625.3h668v-.8h-668v.8Z" class="g1_4636"/>
<path d="M182.1,649.7h668V649h-668v.7Z" class="g1_4636"/>
<path d="M182.1,695.6h668v-.8h-668v.8Z" class="g1_4636"/>
<path d="M182.1,719.9h668v-.7h-668v.7Z" class="g1_4636"/>
<path d="M182.1,765.8h668V765h-668v.8Z" class="g1_4636"/>
<path d="M182.1,790.3h668v-.8h-668v.8Z" class="g1_4636"/>
<path d="M182.1,836.1h668v-.7h-668v.7Z" class="g1_4636"/>
<path d="M182.1,881.9h668v-.7h-668v.7Z" class="g1_4636"/>
<path d="M182.1,906.4h668v-.7h-668v.7Z" class="g1_4636"/>
<path d="M182.1,952.2h668v-.7h-668v.7Z" class="g1_4636"/>
<path d="M182.1,998.1h668v-.8h-668v.8Z" class="g1_4636"/>
<path d="M182.1,1022.5h668v-.8h-668v.8Z" class="g1_4636"/>
<path d="M68.6,1068.3H850.1v-.8H68.6v.8Z" class="g1_4636"/>
</svg>