<?xml version="1.0" encoding="UTF-8" standalone="no"?>
<!DOCTYPE svg PUBLIC "-//W3C//DTD SVG 1.1//EN"
"http://www.w3.org/Graphics/SVG/1.1/DTD/svg11.dtd">
<svg viewBox="0 0 935 1210" version="1.1" xmlns="http://www.w3.org/2000/svg" xmlns:xlink="http://www.w3.org/1999/xlink">
<defs>
<style type="text/css"><![CDATA[
.g0_1361{
fill: #FFF;
}
.g1_1361{
fill: #000;
}
]]></style>
</defs>
<path d="M68.9,1149.3H755.2v-21.2H68.9v21.2Z" class="g0_1361"/>
<path d="M771.3,1149.3H855v-21.2H771.3v21.2Z" class="g0_1361"/>
<path d="M69.9,238h.8V125.7h-.8V238Z" class="g1_1361"/>
<path d="M257.5,238.7h.7V124.9h-.7V238.7Z" class="g1_1361"/>
<path d="M314.8,238.7h.7V124.9h-.7V238.7Z" class="g1_1361"/>
<path d="M389.2,238.7h.7V124.9h-.7V238.7Z" class="g1_1361"/>
<path d="M456.9,238.7h.7V124.9h-.7V238.7Z" class="g1_1361"/>
<path d="M852.1,238h.8V125.7h-.8V238Z" class="g1_1361"/>
<path d="M69.9,125.7h783v-.8H69.9v.8Z" class="g1_1361"/>
<path d="M69.9,182.1h783v-.7H69.9v.7Z" class="g1_1361"/>
<path d="M69.9,238.7h783V238H69.9v.7Z" class="g1_1361"/>
<path d="M69.9,341.8h.8V293.7h-.8v48.1Z" class="g1_1361"/>
<path d="M170.6,342.7h.7V293h-.7v49.7Z" class="g1_1361"/>
<path d="M395.4,342.7h.8V293h-.8v49.7Z" class="g1_1361"/>
<path d="M627.4,342.7h.7V293h-.7v49.7Z" class="g1_1361"/>
<path d="M853.2,341.8h.8V293.7h-.8v48.1Z" class="g1_1361"/>
<path d="M69.9,293.7H854.1V293H69.9v.7Z" class="g1_1361"/>
<path d="M69.9,318.2H854.1v-.8H69.9v.8Z" class="g1_1361"/>
<path d="M69.9,342.6H854.1v-.8H69.9v.8Z" class="g1_1361"/>
</svg>