<?xml version="1.0" encoding="UTF-8" standalone="no"?>
<!DOCTYPE svg PUBLIC "-//W3C//DTD SVG 1.1//EN"
"http://www.w3.org/Graphics/SVG/1.1/DTD/svg11.dtd">
<svg viewBox="0 0 935 1210" version="1.1" xmlns="http://www.w3.org/2000/svg" xmlns:xlink="http://www.w3.org/1999/xlink">
<defs>
<clipPath id="c0_2158"><path d="M766.6,59.2V41.4h72.2V59.2Z"/></clipPath>
<style type="text/css"><![CDATA[
.g0_2158{
fill: #000;
}
]]></style>
</defs>
<path d="M97.4,63.3H839.9v-.4H97.4v.4Z" class="g0_2158"/>
<path d="M96.1,1114.5h.2v-.4h-.2v.4Z" class="g0_2158"/>
<path d="M96.3,1114.5H838.9v-.4H96.3v.4Z" class="g0_2158"/>
<image clip-path="url(#c0_2158)" preserveAspectRatio="none" x="767" y="41" width="72" height="18" xlink:href="img/1.jpg"/>
<path d="M543.6,327.9h31.3v-1.1H543.6v1.1Z" class="g0_2158"/>
<path d="M687.5,327.9h20.4v-1.1H687.5v1.1Z" class="g0_2158"/>
<path d="M543.6,350.8h31.3v-1.1H543.6v1.1Z" class="g0_2158"/>
<path d="M95.9,896.4h.7V467.5h-.7V896.4Z" class="g0_2158"/>
<path d="M273.3,846.8h.8V464.5h-.8V846.8Z" class="g0_2158"/>
<path d="M310,846.8h.7V486.9H310V846.8Z" class="g0_2158"/>
<path d="M346.7,846.8h.7V486.9h-.7V846.8Z" class="g0_2158"/>
<path d="M383.4,846.8h.7V464.5h-.7V846.8Z" class="g0_2158"/>
<path d="M839.2,896.4h.7V467.5h-.7V896.4Z" class="g0_2158"/>
<path d="M95.9,467.5h744v-3H95.9v3Z" class="g0_2158"/>
<path d="M273.3,487.8H384.2V487H273.3v.8Z" class="g0_2158"/>
<path d="M95.9,510.3h744v-3H95.9v3Z" class="g0_2158"/>
<path d="M273.3,529H839.9v-.7H273.3v.7Z" class="g0_2158"/>
<path d="M273.3,548.8H839.9v-.7H273.3v.7Z" class="g0_2158"/>
<path d="M273.3,568.7H839.9V568H273.3v.7Z" class="g0_2158"/>
<path d="M273.3,588.6H839.9v-.7H273.3v.7Z" class="g0_2158"/>
<path d="M273.3,608.4H839.9v-.7H273.3v.7Z" class="g0_2158"/>
<path d="M273.3,628.3H839.9v-.8H273.3v.8Z" class="g0_2158"/>
<path d="M273.3,648.2H839.9v-.8H273.3v.8Z" class="g0_2158"/>
<path d="M273.3,668H839.9v-.8H273.3v.8Z" class="g0_2158"/>
<path d="M273.3,687.9H839.9v-.8H273.3v.8Z" class="g0_2158"/>
<path d="M95.9,707.8h744V707H95.9v.8Z" class="g0_2158"/>
<path d="M95.9,727.6h744v-.8H95.9v.8Z" class="g0_2158"/>
<path d="M95.9,747.4h744v-.7H95.9v.7Z" class="g0_2158"/>
<path d="M273.3,767.3H839.9v-.7H273.3v.7Z" class="g0_2158"/>
<path d="M273.3,787.1H839.9v-.7H273.3v.7Z" class="g0_2158"/>
<path d="M95.9,807h744v-.7H95.9v.7Z" class="g0_2158"/>
<path d="M95.9,826.9h744v-.7H95.9v.7Z" class="g0_2158"/>
<path d="M95.9,846.7h744V846H95.9v.7Z" class="g0_2158"/>
<path d="M95.9,897.1h744v-.7H95.9v.7Z" class="g0_2158"/>
</svg>