<?xml version="1.0" encoding="UTF-8" standalone="no"?>
<!DOCTYPE svg PUBLIC "-//W3C//DTD SVG 1.1//EN"
"http://www.w3.org/Graphics/SVG/1.1/DTD/svg11.dtd">
<svg viewBox="0 0 935 1210" version="1.1" xmlns="http://www.w3.org/2000/svg" xmlns:xlink="http://www.w3.org/1999/xlink">
<defs>
<style type="text/css"><![CDATA[
.g0_48{
fill: #FFF;
}
.g1_48{
fill: #000;
}
.g2_48{
fill: #FEFEFE;
}
.g3_48{
fill: none;
stroke: #000;
stroke-width: 0.88;
stroke-linecap: round;
stroke-linejoin: round;
}
.g4_48{
fill: none;
stroke: #000;
stroke-width: 0.293;
stroke-linecap: round;
stroke-linejoin: round;
}
]]></style>
</defs>
<path d="M68.8,1149.3H852.5v-21.2H68.8v21.2Z" class="g0_48"/>
<path d="M170.1,333.4h.8V113.5h-.8V333.4Z" class="g1_48"/>
<path d="M750.3,333.4h.7V113.5h-.7V333.4Z" class="g1_48"/>
<path d="M170,113.4H751v-.7H170v.7Z" class="g1_48"/>
<path d="M170,334.1H751v-.7H170v.7Z" class="g1_48"/>
<path d="M170.1,592.8h.8V404.4h-.8V592.8Z" class="g1_48"/>
<path d="M750.3,592.8h.7V404.4h-.7V592.8Z" class="g1_48"/>
<path d="M170,404.4H751v-.7H170v.7Z" class="g1_48"/>
<path d="M170,593.6H751v-.7H170v.7Z" class="g1_48"/>
<path d="M428,219h38.5V175.5H428V219Z" class="g2_48"/>
<path d="M466.5,175.5H428V219h38.5V175.5Z" class="g3_48"/>
<path d="M428,175.5H549V150.4H428v25.1Z" class="g2_48"/>
<path d="M549,150.4H428v25.1H549V150.4Z" class="g3_48"/>
<path d="M510.5,219H549V175.5H510.5V219Z" class="g2_48"/>
<path d="M549,175.5H510.5V219H549V175.5Z" class="g3_48"/>
<path d="M466.5,219h44V175.5h-44V219Z" class="g2_48"/>
<path d="M510.5,175.5h-44V219h44V175.5Z" class="g3_48"/>
<path d="M615,219h49.5V175.5H615V219Z" class="g2_48"/>
<path d="M664.5,175.5H615V219h49.5V175.5Z" class="g3_48"/>
<path d="M664.5,219H703V175.5H664.5V219Z" class="g2_48"/>
<path d="M703,175.5H664.5V219H703V175.5Z" class="g3_48"/>
<path d="M565.5,219H615V175.5H565.5V219Z" class="g2_48"/>
<path d="M615,175.5H565.5V219H615V175.5Z" class="g3_48"/>
<path d="M565.5,175.5H703V150.4H565.5v25.1Z" class="g2_48"/>
<path d="M703,150.4H565.5v25.1H703V150.4Z" class="g3_48"/>
<path d="M203.9,218.6H311.7V169.5H203.9v49.1Z" class="g2_48"/>
<path d="M311.7,169.5H203.9v49.1H311.7V169.5Z" class="g3_48"/>
<path d="M329,218.6h82.5V169.5H329v49.1Z" class="g2_48"/>
<path d="M411.5,169.5H329v49.1h82.5V169.5Z" class="g3_48"/>
<path d="M267.1,212.5v35.2H477.5v16.9" class="g4_48"/>
<path fill-rule="evenodd" d="M480,264.6l-2.5,5l-2.5,-5h5Z" class="g1_48"/>
<path d="M282.2,212.5v25.8h331c0,-4.1,3.2,-7.3,7.3,-7.3c4,0,7.3,3.2,7.3,7.3h39.4v25.3" class="g4_48"/>
<path fill-rule="evenodd" d="M669.7,263.6l-2.5,4.9l-2.4,-4.9h4.9Z" class="g1_48"/>
<path d="M482.7,211.8v52.8" class="g4_48"/>
<path fill-rule="evenodd" d="M485.1,264.6l-2.4,5l-2.5,-5h4.9Z" class="g1_48"/>
<path d="M488.2,211.8v52.8" class="g4_48"/>
<path fill-rule="evenodd" d="M490.6,264.6l-2.4,5l-2.5,-5h4.9Z" class="g1_48"/>
<path d="M493.7,211.8v52.8" class="g4_48"/>
<path fill-rule="evenodd" d="M496.1,264.6l-2.4,5l-2.5,-5h4.9Z" class="g1_48"/>
<path d="M673,211.2V264" class="g4_48"/>
<path fill-rule="evenodd" d="M675.5,264l-2.5,4.9L670.5,264h5Z" class="g1_48"/>
<path d="M681.2,211.2V264" class="g4_48"/>
<path fill-rule="evenodd" d="M683.7,264l-2.5,4.9L678.8,264h4.9Z" class="g1_48"/>
<path d="M689.5,211.2V264" class="g4_48"/>
<path fill-rule="evenodd" d="M692,264l-2.5,4.9L687,264h5Z" class="g1_48"/>
<path d="M628.9,210.8v52.8" class="g4_48"/>
<path fill-rule="evenodd" d="M631.4,263.6l-2.5,4.9l-2.5,-4.9h5Z" class="g1_48"/>
<path d="M637,210.8v52.8" class="g4_48"/>
<path fill-rule="evenodd" d="M639.5,263.6l-2.5,4.9l-2.5,-4.9h5Z" class="g1_48"/>
<path d="M645.1,210.8v52.8" class="g4_48"/>
<path fill-rule="evenodd" d="M647.6,263.6l-2.5,4.9l-2.5,-4.9h5Z" class="g1_48"/>
<path d="M275.4,212.5v16.2H620.5v34.9" class="g4_48"/>
<path fill-rule="evenodd" d="M623,263.6l-2.5,4.9L618,263.6h5Z" class="g1_48"/>
<path d="M537.2,479.5h54.5V430.9H537.2v48.6Z" class="g2_48"/>
<path d="M591.7,430.9H537.2v48.6h54.5V430.9Z" class="g3_48"/>
<path d="M300.7,479.5H408.5V430.9H300.7v48.6Z" class="g2_48"/>
<path d="M408.5,430.9H300.7v48.6H408.5V430.9Z" class="g3_48"/>
<path d="M428.3,479.5H537.2V430.9H428.3v48.6Z" class="g2_48"/>
<path d="M537.2,430.9H428.3v48.6H537.2V430.9Z" class="g3_48"/>
<path d="M377.7,473.4V492H548.2v33.5" class="g4_48"/>
<path fill-rule="evenodd" d="M550.7,525.5l-2.5,5l-2.5,-5h5Z" class="g1_48"/>
<path d="M555.1,472.8v52.7" class="g4_48"/>
<path fill-rule="evenodd" d="M557.6,525.5l-2.5,5l-2.5,-5h5Z" class="g1_48"/>
<path d="M563.3,472.8v52.7" class="g4_48"/>
<path fill-rule="evenodd" d="M565.8,525.5l-2.5,5l-2.5,-5h5Z" class="g1_48"/>
<path d="M571.6,472.8v52.7" class="g4_48"/>
<path fill-rule="evenodd" d="M574.1,525.5l-2.5,5l-2.5,-5h5Z" class="g1_48"/>
</svg>