<?xml version="1.0" encoding="UTF-8" standalone="no"?>
<!DOCTYPE svg PUBLIC "-//W3C//DTD SVG 1.1//EN"
"http://www.w3.org/Graphics/SVG/1.1/DTD/svg11.dtd">
<svg viewBox="0 0 935 1210" version="1.1" xmlns="http://www.w3.org/2000/svg" xmlns:xlink="http://www.w3.org/1999/xlink">
<defs>
<style type="text/css"><![CDATA[
.g0_1208{
fill: #FFF;
}
.g1_1208{
fill: #000;
}
]]></style>
</defs>
<path d="M165,1149.3H852.5v-21.2H165v21.2Z" class="g0_1208"/>
<path d="M68.8,1149.3h82.5v-21.2H68.8v21.2Z" class="g0_1208"/>
<path d="M68.9,359.6H859.5V330H68.9v29.6Z" class="g0_1208"/>
<path d="M69.9,352.9h53.5V340.5H69.9v12.4Z" class="g0_1208"/>
<path d="M68.6,329.6h.7V107.3h-.7V329.6Z" class="g1_1208"/>
<path d="M391.2,330.4h.8V106.6h-.8V330.4Z" class="g1_1208"/>
<path d="M429.1,330.4h.7V106.6h-.7V330.4Z" class="g1_1208"/>
<path d="M502.5,330.4h.7V106.6h-.7V330.4Z" class="g1_1208"/>
<path d="M583.1,330.4h.7V106.6h-.7V330.4Z" class="g1_1208"/>
<path d="M859.1,329.6h.7V107.3h-.7V329.6Z" class="g1_1208"/>
<path d="M68.6,107.3H859.8v-.7H68.6v.7Z" class="g1_1208"/>
<path d="M68.6,160.8H859.8v-.7H68.6v.7Z" class="g1_1208"/>
<path d="M68.6,217.3H859.8v-.7H68.6v.7Z" class="g1_1208"/>
<path d="M68.6,273.8H859.8v-.7H68.6v.7Z" class="g1_1208"/>
<path d="M68.6,330.4H859.8v-.8H68.6v.8Z" class="g1_1208"/>
<path d="M68.6,586.8h.7V465.4h-.7V586.8Z" class="g1_1208"/>
<path d="M130.4,587.7h.7v-123h-.7v123Z" class="g1_1208"/>
<path d="M241.6,587.7h.8v-123h-.8v123Z" class="g1_1208"/>
<path d="M382.1,587.7h.7v-123h-.7v123Z" class="g1_1208"/>
<path d="M537,587.7h.7v-123H537v123Z" class="g1_1208"/>
<path d="M692.6,587.7h.8v-123h-.8v123Z" class="g1_1208"/>
<path d="M850.5,586.8h.7V465.4h-.7V586.8Z" class="g1_1208"/>
<path d="M68.6,465.4H851.2v-.7H68.6v.7Z" class="g1_1208"/>
<path d="M68.6,489.9H851.2v-.8H68.6v.8Z" class="g1_1208"/>
<path d="M68.6,514.3H851.2v-.8H68.6v.8Z" class="g1_1208"/>
<path d="M68.6,538.7H851.2V538H68.6v.7Z" class="g1_1208"/>
<path d="M68.6,563.2H851.2v-.7H68.6v.7Z" class="g1_1208"/>
<path d="M68.6,587.7H851.2v-.8H68.6v.8Z" class="g1_1208"/>
</svg>