<?xml version="1.0" encoding="UTF-8" standalone="no"?>
<!DOCTYPE svg PUBLIC "-//W3C//DTD SVG 1.1//EN"
"http://www.w3.org/Graphics/SVG/1.1/DTD/svg11.dtd">
<svg viewBox="0 0 935 1210" version="1.1" xmlns="http://www.w3.org/2000/svg" xmlns:xlink="http://www.w3.org/1999/xlink">
<defs>
<style type="text/css"><![CDATA[
.g0_4481{
fill: #FFF;
}
.g1_4481{
fill: #000;
}
]]></style>
</defs>
<path d="M67.7,1149.3h785v-21.2H67.7v21.2Z" class="g0_4481"/>
<path d="M69.1,155.8H852.4v-1.5H69.1v1.5Z" class="g1_4481"/>
<path d="M69.1,971.7v-.8Z" class="g1_4481"/>
<path d="M69.1,971.7H289.5v-.8H69.1v.8Z" class="g1_4481"/>
<path d="M70,913.3h.8V791.8H70V913.3Z" class="g1_4481"/>
<path d="M226.2,914h.8V791.1h-.8V914Z" class="g1_4481"/>
<path d="M850.8,913.3h.8V791.8h-.8V913.3Z" class="g1_4481"/>
<path d="M69.9,791.8H851.6v-.7H69.9v.7Z" class="g1_4481"/>
<path d="M69.9,816.2H851.6v-.7H69.9v.7Z" class="g1_4481"/>
<path d="M69.9,840.7H851.6v-.8H69.9v.8Z" class="g1_4481"/>
<path d="M69.9,865.2H851.6v-.8H69.9v.8Z" class="g1_4481"/>
<path d="M69.9,889.5H851.6v-.7H69.9v.7Z" class="g1_4481"/>
<path d="M69.9,914H851.6v-.7H69.9v.7Z" class="g1_4481"/>
</svg>