<?xml version="1.0" encoding="UTF-8" standalone="no"?>
<!DOCTYPE svg PUBLIC "-//W3C//DTD SVG 1.1//EN"
"http://www.w3.org/Graphics/SVG/1.1/DTD/svg11.dtd">
<svg viewBox="0 0 935 1210" version="1.1" xmlns="http://www.w3.org/2000/svg" xmlns:xlink="http://www.w3.org/1999/xlink">
<defs>
<style type="text/css"><![CDATA[
.g0_67{
fill: #000;
}
]]></style>
</defs>
<path d="M123.4,296.6h.7V134.8h-.7V296.6Z" class="g0_67"/>
<path d="M219.6,297.4h.8V134h-.8V297.4Z" class="g0_67"/>
<path d="M673.4,297.4h.7V134h-.7V297.4Z" class="g0_67"/>
<path d="M810.9,296.6h.7V134.8h-.7V296.6Z" class="g0_67"/>
<path d="M123.4,134.8H811.6V134H123.4v.8Z" class="g0_67"/>
<path d="M124.1,177.2H810.9v-.7H124.1v.7Z" class="g0_67"/>
<path d="M124.1,181H810.9v-.7H124.1v.7Z" class="g0_67"/>
<path d="M123.4,203.5H811.6v-.7H123.4v.7Z" class="g0_67"/>
<path d="M123.4,228H811.6v-.8H123.4v.8Z" class="g0_67"/>
<path d="M123.4,252.4H811.6v-.7H123.4v.7Z" class="g0_67"/>
<path d="M123.4,297.4H811.6v-.8H123.4v.8Z" class="g0_67"/>
<path d="M123.4,739.7h.7V366.1h-.7V739.7Z" class="g0_67"/>
<path d="M219.6,740.5h.8V365.4h-.8V740.5Z" class="g0_67"/>
<path d="M673.4,740.5h.7V365.4h-.7V740.5Z" class="g0_67"/>
<path d="M810.9,739.7h.7V366.1h-.7V739.7Z" class="g0_67"/>
<path d="M123.4,366.1H811.6v-.7H123.4v.7Z" class="g0_67"/>
<path d="M124.1,408.5H810.9v-.8H124.1v.8Z" class="g0_67"/>
<path d="M124.1,412.3H810.9v-.7H124.1v.7Z" class="g0_67"/>
<path d="M123.4,451.6H811.6v-.7H123.4v.7Z" class="g0_67"/>
<path d="M123.4,492.9H811.6v-.7H123.4v.7Z" class="g0_67"/>
<path d="M123.4,534.1H811.6v-.7H123.4v.7Z" class="g0_67"/>
<path d="M123.4,575.4H811.6v-.7H123.4v.7Z" class="g0_67"/>
<path d="M123.4,616.6H811.6v-.7H123.4v.7Z" class="g0_67"/>
<path d="M123.4,657.9H811.6v-.7H123.4v.7Z" class="g0_67"/>
<path d="M123.4,699.1H811.6v-.7H123.4v.7Z" class="g0_67"/>
<path d="M123.4,740.4H811.6v-.7H123.4v.7Z" class="g0_67"/>
<path d="M123.4,1078.8h.7V905.5h-.7v173.3Z" class="g0_67"/>
<path d="M292.1,1079.7h.8v-175h-.8v175Z" class="g0_67"/>
<path d="M629.7,1079.7h.7v-175h-.7v175Z" class="g0_67"/>
<path d="M810.9,1078.8h.7V905.5h-.7v173.3Z" class="g0_67"/>
<path d="M123.4,905.4H811.6v-.7H123.4v.7Z" class="g0_67"/>
<path d="M124.1,931.1H810.9v-.8H124.1v.8Z" class="g0_67"/>
<path d="M124.1,934.8H810.9v-.7H124.1v.7Z" class="g0_67"/>
<path d="M123.4,957.4H811.6v-.8H123.4v.8Z" class="g0_67"/>
<path d="M123.4,981.8H811.6v-.7H123.4v.7Z" class="g0_67"/>
<path d="M123.4,1006.3H811.6v-.7H123.4v.7Z" class="g0_67"/>
<path d="M123.4,1030.7H811.6v-.7H123.4v.7Z" class="g0_67"/>
<path d="M123.4,1055.2H811.6v-.8H123.4v.8Z" class="g0_67"/>
<path d="M123.4,1079.7H811.6v-.8H123.4v.8Z" class="g0_67"/>
</svg>