<?xml version="1.0" encoding="UTF-8" standalone="no"?>
<!DOCTYPE svg PUBLIC "-//W3C//DTD SVG 1.1//EN"
"http://www.w3.org/Graphics/SVG/1.1/DTD/svg11.dtd">
<svg viewBox="0 0 935 1210" version="1.1" xmlns="http://www.w3.org/2000/svg" xmlns:xlink="http://www.w3.org/1999/xlink">
<defs>
<clipPath id="c0_3188"><path d="M97.3,59.2V41.4h72.1V59.2Z"/></clipPath>
<style type="text/css"><![CDATA[
.g0_3188{
fill: #000;
}
]]></style>
</defs>
<path d="M96.3,63.3H838.8v-.4H96.3v.4Z" class="g0_3188"/>
<path d="M96.1,1114.5h.2v-.4h-.2v.4Z" class="g0_3188"/>
<path d="M96.3,1114.5H838.9v-.4H96.3v.4Z" class="g0_3188"/>
<image clip-path="url(#c0_3188)" preserveAspectRatio="none" x="97" y="41" width="73" height="18" xlink:href="img/1.jpg"/>
<path d="M95.9,548.1h.7V180.2h-.7V548.1Z" class="g0_3188"/>
<path d="M273.3,548.8h.8V177.2h-.8V548.8Z" class="g0_3188"/>
<path d="M321.3,548.8h.7V177.2h-.7V548.8Z" class="g0_3188"/>
<path d="M383.6,548.8h.8V177.2h-.8V548.8Z" class="g0_3188"/>
<path d="M464.6,548.8h.7V177.2h-.7V548.8Z" class="g0_3188"/>
<path d="M838.4,548.1h.7V180.2h-.7V548.1Z" class="g0_3188"/>
<path d="M95.9,180.3H839.1v-3H95.9v3Z" class="g0_3188"/>
<path d="M95.9,223H839.1v-3H95.9v3Z" class="g0_3188"/>
<path d="M273.3,246.3H839.1v-.7H273.3v.7Z" class="g0_3188"/>
<path d="M95.9,286.1H839.1v-.7H95.9v.7Z" class="g0_3188"/>
<path d="M95.9,325.8H839.1v-.7H95.9v.7Z" class="g0_3188"/>
<path d="M95.9,365.5H839.1v-.8H95.9v.8Z" class="g0_3188"/>
<path d="M273.3,405.3H839.1v-.8H273.3v.8Z" class="g0_3188"/>
<path d="M95.9,429.6H839.1v-.7H95.9v.7Z" class="g0_3188"/>
<path d="M95.9,469.4H839.1v-.7H95.9v.7Z" class="g0_3188"/>
<path d="M95.9,509.1H839.1v-.7H95.9v.7Z" class="g0_3188"/>
<path d="M95.9,548.8H839.1v-.7H95.9v.7Z" class="g0_3188"/>
</svg>