<?xml version="1.0" encoding="UTF-8" standalone="no"?>
<!DOCTYPE svg PUBLIC "-//W3C//DTD SVG 1.1//EN"
"http://www.w3.org/Graphics/SVG/1.1/DTD/svg11.dtd">
<svg viewBox="0 0 935 1210" version="1.1" xmlns="http://www.w3.org/2000/svg" xmlns:xlink="http://www.w3.org/1999/xlink">
<defs>
<clipPath id="c0_332"><path d="M97.2,59V41.4h72.2V59Z"/></clipPath>
<style type="text/css"><![CDATA[
.g0_332{
fill: #000;
}
.g1_332{
fill: #000;
stroke: #000;
stroke-width: 0.763;
}
.g2_332{
fill: #FFF;
stroke: #000;
stroke-width: 0.763;
}
]]></style>
</defs>
<path d="M96.1,63.1v.3H838.9v-.3H96.1Z" class="g0_332"/>
<path d="M96.1,1114.3v.3v-.3Z" class="g0_332"/>
<path d="M838.9,1114.3v.3v-.3Z" class="g0_332"/>
<path d="M96.1,1114.3v.3H838.9v-.3H96.1Z" class="g0_332"/>
<image clip-path="url(#c0_332)" preserveAspectRatio="none" x="97" y="41" width="72" height="18" xlink:href="img/1.jpg"/>
<path d="M575.6,383.8h59v-31h-59v31Z" class="g1_332"/>
<path d="M303,322.6H634.6v-31H303v31Z" class="g1_332"/>
<path d="M303,353.2H634.6v-31H303v31Z" class="g1_332"/>
<path d="M573.4,381.6h59v-31h-59v31Z" class="g2_332"/>
<path d="M300.8,320.4H632.4v-31H300.8v31Z" class="g2_332"/>
<path d="M300.8,351H632.4V320H300.8v31Z" class="g2_332"/>
</svg>