<?xml version="1.0" encoding="UTF-8" standalone="no"?>
<!DOCTYPE svg PUBLIC "-//W3C//DTD SVG 1.1//EN"
"http://www.w3.org/Graphics/SVG/1.1/DTD/svg11.dtd">
<svg viewBox="0 0 825 990" version="1.1" xmlns="http://www.w3.org/2000/svg" xmlns:xlink="http://www.w3.org/1999/xlink">
<defs>
<style type="text/css"><![CDATA[
.g0_568{
fill: #000;
}
]]></style>
</defs>
<path d="M79.8,910.3h.3v-.8h-.3v.8Z" class="g0_568"/>
<path d="M80.1,910.3h650v-.8H80.1v.8Z" class="g0_568"/>
<path d="M144.7,558.4h1.6V515.6h-1.6v42.8Z" class="g0_568"/>
<path d="M218.1,560h.7V514.2h-.7V560Z" class="g0_568"/>
<path d="M364.2,560h.7V514.2h-.7V560Z" class="g0_568"/>
<path d="M437.3,560h.7V514.2h-.7V560Z" class="g0_568"/>
<path d="M510.2,560h.8V514.2h-.8V560Z" class="g0_568"/>
<path d="M546.8,560h.7V514.2h-.7V560Z" class="g0_568"/>
<path d="M692.8,560h.7V514.2h-.7V560Z" class="g0_568"/>
<path d="M729,558.4h1.6V515.6H729v42.8Z" class="g0_568"/>
<path d="M144.7,515.7H730.5v-1.5H144.7v1.5Z" class="g0_568"/>
<path d="M144.7,560H730.5v-1.6H144.7V560Z" class="g0_568"/>
</svg>