<?xml version="1.0" encoding="UTF-8" standalone="no"?>
<!DOCTYPE svg PUBLIC "-//W3C//DTD SVG 1.1//EN"
"http://www.w3.org/Graphics/SVG/1.1/DTD/svg11.dtd">
<svg viewBox="0 0 935 1210" version="1.1" xmlns="http://www.w3.org/2000/svg" xmlns:xlink="http://www.w3.org/1999/xlink">
<defs>
<style type="text/css"><![CDATA[
.g0_1041{
fill: #FFF;
}
.g1_1041{
fill: #000;
}
]]></style>
</defs>
<path d="M68.9,1149.3H755.2v-21.2H68.9v21.2Z" class="g0_1041"/>
<path d="M771.3,1149.3H855v-21.2H771.3v21.2Z" class="g0_1041"/>
<path d="M72.8,343.4h.7V124.1h-.7V343.4Z" class="g1_1041"/>
<path d="M148.7,344.1H151V149.3h-2.3V344.1Z" class="g1_1041"/>
<path d="M234.9,344.1h2.2V147h-2.2V344.1Z" class="g1_1041"/>
<path d="M321.7,344.1h.7V147h-.7V344.1Z" class="g1_1041"/>
<path d="M413.8,344.1h.7V147h-.7V344.1Z" class="g1_1041"/>
<path d="M499.9,344.1h.8V147h-.8V344.1Z" class="g1_1041"/>
<path d="M586,344.1h.8V147H586V344.1Z" class="g1_1041"/>
<path d="M677,344.1h.7V147H677V344.1Z" class="g1_1041"/>
<path d="M763,344.1h.8V147H763V344.1Z" class="g1_1041"/>
<path d="M849.2,343.4h.7V124.1h-.7V343.4Z" class="g1_1041"/>
<path d="M72.8,124.1H849.9v-.7H72.8v.7Z" class="g1_1041"/>
<path d="M148.7,149.4H849.9v-2.3H148.7v2.3Z" class="g1_1041"/>
<path d="M148.7,173.8H849.9v-2.3H148.7v2.3Z" class="g1_1041"/>
<path d="M148.7,197.4H849.9v-.7H148.7v.7Z" class="g1_1041"/>
<path d="M148.7,221.9H849.9v-.7H148.7v.7Z" class="g1_1041"/>
<path d="M148.7,246.3H849.9v-.7H148.7v.7Z" class="g1_1041"/>
<path d="M148.7,270.8H849.9v-.7H148.7v.7Z" class="g1_1041"/>
<path d="M148.7,295.3H849.9v-.8H148.7v.8Z" class="g1_1041"/>
<path d="M148.7,319.6H849.9v-.7H148.7v.7Z" class="g1_1041"/>
<path d="M72.8,344.1H849.9v-.7H72.8v.7Z" class="g1_1041"/>
</svg>