<?xml version="1.0" encoding="UTF-8" standalone="no"?>
<!DOCTYPE svg PUBLIC "-//W3C//DTD SVG 1.1//EN"
"http://www.w3.org/Graphics/SVG/1.1/DTD/svg11.dtd">
<svg viewBox="0 0 935 1210" version="1.1" xmlns="http://www.w3.org/2000/svg" xmlns:xlink="http://www.w3.org/1999/xlink">
<defs>
<style type="text/css"><![CDATA[
.g0_4839{
fill: #FFF;
}
.g1_4839{
fill: #000;
}
]]></style>
</defs>
<path d="M68.9,1149.3H852.7v-21.2H68.9v21.2Z" class="g0_4839"/>
<path d="M69.9,1067.6h.8V124.1h-.8v943.5Z" class="g1_4839"/>
<path d="M126.7,1068.4h.7V164.6h-.7v903.8Z" class="g1_4839"/>
<path d="M183.4,1068.4h.8v-945h-.8v945Z" class="g1_4839"/>
<path d="M434.3,1068.4h.8v-945h-.8v945Z" class="g1_4839"/>
<path d="M527.6,1068.4h.8v-945h-.8v945Z" class="g1_4839"/>
<path d="M852.1,1067.6h.8V124.1h-.8v943.5Z" class="g1_4839"/>
<path d="M69.9,124.1H853v-.7H69.9v.7Z" class="g1_4839"/>
<path d="M69.9,165.4H184.2v-.8H69.9v.8Z" class="g1_4839"/>
<path d="M69.9,189.8H853v-.7H69.9v.7Z" class="g1_4839"/>
<path d="M183.4,307.4H853v-.7H183.4v.7Z" class="g1_4839"/>
<path d="M183.4,370.1H853v-.8H183.4v.8Z" class="g1_4839"/>
<path d="M69.9,394.5H853v-.7H69.9v.7Z" class="g1_4839"/>
<path d="M183.4,419H853v-.7H183.4v.7Z" class="g1_4839"/>
<path d="M183.4,464.8H853v-.7H183.4v.7Z" class="g1_4839"/>
<path d="M69.9,489.3H853v-.7H69.9v.7Z" class="g1_4839"/>
<path d="M183.4,530.6H853v-.8H183.4v.8Z" class="g1_4839"/>
<path d="M183.4,554.9H853v-.7H183.4v.7Z" class="g1_4839"/>
<path d="M183.4,579.4H853v-.7H183.4v.7Z" class="g1_4839"/>
<path d="M183.4,603.9H853v-.7H183.4v.7Z" class="g1_4839"/>
<path d="M183.4,628.3H853v-.7H183.4v.7Z" class="g1_4839"/>
<path d="M69.9,652.8H853V652H69.9v.8Z" class="g1_4839"/>
<path d="M69.9,715.4H853v-.8H69.9v.8Z" class="g1_4839"/>
<path d="M183.4,828.5H853v-.8H183.4v.8Z" class="g1_4839"/>
<path d="M183.4,869.7H853V869H183.4v.7Z" class="g1_4839"/>
<path d="M183.4,927.8H853V927H183.4v.8Z" class="g1_4839"/>
<path d="M183.4,985.8H853v-.7H183.4v.7Z" class="g1_4839"/>
<path d="M183.4,1043.9H853v-.7H183.4v.7Z" class="g1_4839"/>
<path d="M69.9,1068.3H853v-.8H69.9v.8Z" class="g1_4839"/>
</svg>