<?xml version="1.0" encoding="UTF-8" standalone="no"?>
<!DOCTYPE svg PUBLIC "-//W3C//DTD SVG 1.1//EN"
"http://www.w3.org/Graphics/SVG/1.1/DTD/svg11.dtd">
<svg viewBox="0 0 935 1210" version="1.1" xmlns="http://www.w3.org/2000/svg" xmlns:xlink="http://www.w3.org/1999/xlink">
<defs>
<style type="text/css"><![CDATA[
.g0_4854{
fill: #FFF;
}
.g1_4854{
fill: #000;
}
]]></style>
</defs>
<path d="M68.8,1149.3H852.5v-21.2H68.8v21.2Z" class="g0_4854"/>
<path d="M68.6,1078.3h.7V142.4h-.7v935.9Z" class="g1_4854"/>
<path d="M125.3,1079h.7V183h-.7v896Z" class="g1_4854"/>
<path d="M182.1,1079h.7V141.7h-.7V1079Z" class="g1_4854"/>
<path d="M428.2,1079h.7V141.7h-.7V1079Z" class="g1_4854"/>
<path d="M521.6,1079h.7V141.7h-.7V1079Z" class="g1_4854"/>
<path d="M850.8,1078.3h.7V142.4h-.7v935.9Z" class="g1_4854"/>
<path d="M68.6,142.4H851.5v-.7H68.6v.7Z" class="g1_4854"/>
<path d="M68.6,183.7H182.8V183H68.6v.7Z" class="g1_4854"/>
<path d="M68.6,208.2H851.5v-.8H68.6v.8Z" class="g1_4854"/>
<path d="M182.1,232.6H851.5v-.8H182.1v.8Z" class="g1_4854"/>
<path d="M182.1,278.4H851.5v-.7H182.1v.7Z" class="g1_4854"/>
<path d="M182.1,302.9H851.5v-.8H182.1v.8Z" class="g1_4854"/>
<path d="M182.1,348.7H851.5V348H182.1v.7Z" class="g1_4854"/>
<path d="M182.1,394.5H851.5v-.7H182.1v.7Z" class="g1_4854"/>
<path d="M182.1,440.4H851.5v-.8H182.1v.8Z" class="g1_4854"/>
<path d="M182.1,464.8H851.5v-.7H182.1v.7Z" class="g1_4854"/>
<path d="M182.1,510.7H851.5v-.8H182.1v.8Z" class="g1_4854"/>
<path d="M68.6,535.2H851.5v-.8H68.6v.8Z" class="g1_4854"/>
<path d="M182.1,636H851.5v-.8H182.1v.8Z" class="g1_4854"/>
<path d="M182.1,894.1H851.5v-.7H182.1v.7Z" class="g1_4854"/>
<path d="M182.1,918.6H851.5v-.7H182.1v.7Z" class="g1_4854"/>
<path d="M182.1,943.1H851.5v-.8H182.1v.8Z" class="g1_4854"/>
<path d="M182.1,967.5H851.5v-.8H182.1v.8Z" class="g1_4854"/>
<path d="M182.1,991.9H851.5v-.7H182.1v.7Z" class="g1_4854"/>
<path d="M182.1,1054.5H851.5v-.7H182.1v.7Z" class="g1_4854"/>
<path d="M68.6,1079H851.5v-.7H68.6v.7Z" class="g1_4854"/>
</svg>