<?xml version="1.0" encoding="UTF-8" standalone="no"?>
<!DOCTYPE svg PUBLIC "-//W3C//DTD SVG 1.1//EN"
"http://www.w3.org/Graphics/SVG/1.1/DTD/svg11.dtd">
<svg viewBox="0 0 935 1210" version="1.1" xmlns="http://www.w3.org/2000/svg" xmlns:xlink="http://www.w3.org/1999/xlink">
<defs>
<clipPath id="c0_2261"><path d="M97.3,59.2V41.4h72.1V59.2Z"/></clipPath>
<style type="text/css"><![CDATA[
.g0_2261{
fill: #000;
}
]]></style>
</defs>
<path d="M96.3,63.3H838.8v-.4H96.3v.4Z" class="g0_2261"/>
<path d="M96.1,1114.5h.2v-.4h-.2v.4Z" class="g0_2261"/>
<path d="M96.3,1114.5H838.9v-.4H96.3v.4Z" class="g0_2261"/>
<image clip-path="url(#c0_2261)" preserveAspectRatio="none" x="97" y="41" width="73" height="18" xlink:href="img/1.jpg"/>
<path d="M544.2,960.4h31.5v-1.1H544.2v1.1Z" class="g0_2261"/>
<path d="M668.7,960.4h20.4v-1.1H668.7v1.1Z" class="g0_2261"/>
<path d="M689.1,960.4h8.4v-1.1h-8.4v1.1Z" class="g0_2261"/>
<path d="M544.2,983.3h31.5v-1.1H544.2v1.1Z" class="g0_2261"/>
<path d="M668.7,983.3h20.4v-1.1H668.7v1.1Z" class="g0_2261"/>
<path d="M689.1,983.3h8.4v-1.1h-8.4v1.1Z" class="g0_2261"/>
<path d="M95.9,752.9h.7v-91h-.7v91Z" class="g0_2261"/>
<path d="M253.2,753.6h.7V661.2h-.7v92.4Z" class="g0_2261"/>
<path d="M330.6,753.6h.7V661.2h-.7v92.4Z" class="g0_2261"/>
<path d="M839.1,752.9h.7v-91h-.7v91Z" class="g0_2261"/>
<path d="M95.9,661.9h744v-.7H95.9v.7Z" class="g0_2261"/>
<path d="M95.9,686h744v-3H95.9v3Z" class="g0_2261"/>
<path d="M95.9,707.8h744V707H95.9v.8Z" class="g0_2261"/>
<path d="M95.9,730.7h744v-.8H95.9v.8Z" class="g0_2261"/>
<path d="M95.9,753.6h744v-.7H95.9v.7Z" class="g0_2261"/>
</svg>