<?xml version="1.0" encoding="UTF-8" standalone="no"?>
<!DOCTYPE svg PUBLIC "-//W3C//DTD SVG 1.1//EN"
"http://www.w3.org/Graphics/SVG/1.1/DTD/svg11.dtd">
<svg viewBox="0 0 935 1210" version="1.1" xmlns="http://www.w3.org/2000/svg" xmlns:xlink="http://www.w3.org/1999/xlink">
<defs>
<style type="text/css"><![CDATA[
.g0_1926{
fill: #FFF;
}
.g1_1926{
fill: #000;
}
]]></style>
</defs>
<path d="M165,1149.3H852.5v-21.2H165v21.2Z" class="g0_1926"/>
<path d="M68.8,1149.3h82.5v-21.2H68.8v21.2Z" class="g0_1926"/>
<path d="M68.6,297.6h.7V125.7h-.7V297.6Z" class="g1_1926"/>
<path d="M340.7,298.3h.8V124.9h-.8V298.3Z" class="g1_1926"/>
<path d="M386.7,298.3h.8V124.9h-.8V298.3Z" class="g1_1926"/>
<path d="M459.3,298.3h.7V124.9h-.7V298.3Z" class="g1_1926"/>
<path d="M543.1,298.3h.8V124.9h-.8V298.3Z" class="g1_1926"/>
<path d="M852.7,297.6h.7V125.7h-.7V297.6Z" class="g1_1926"/>
<path d="M68.6,125.7H853.4v-.8H68.6v.8Z" class="g1_1926"/>
<path d="M68.6,179.1H853.4v-.7H68.6v.7Z" class="g1_1926"/>
<path d="M68.6,218.8H853.4v-.7H68.6v.7Z" class="g1_1926"/>
<path d="M68.6,258.6H853.4v-.7H68.6v.7Z" class="g1_1926"/>
<path d="M68.6,298.3H853.4v-.7H68.6v.7Z" class="g1_1926"/>
<path d="M68.6,401.4h.7V353.3h-.7v48.1Z" class="g1_1926"/>
<path d="M137.3,402.2h.8V352.6h-.8v49.6Z" class="g1_1926"/>
<path d="M241.9,402.2h.7V352.6h-.7v49.6Z" class="g1_1926"/>
<path d="M386.4,402.2h.7V352.6h-.7v49.6Z" class="g1_1926"/>
<path d="M545,402.2h.7V352.6H545v49.6Z" class="g1_1926"/>
<path d="M696.6,402.2h.7V352.6h-.7v49.6Z" class="g1_1926"/>
<path d="M845.3,401.4h.7V353.3h-.7v48.1Z" class="g1_1926"/>
<path d="M68.6,353.3H846v-.7H68.6v.7Z" class="g1_1926"/>
<path d="M68.6,377.8H846V377H68.6v.8Z" class="g1_1926"/>
<path d="M68.6,402.2H846v-.7H68.6v.7Z" class="g1_1926"/>
</svg>