<?xml version="1.0" encoding="UTF-8" standalone="no"?>
<!DOCTYPE svg PUBLIC "-//W3C//DTD SVG 1.1//EN"
"http://www.w3.org/Graphics/SVG/1.1/DTD/svg11.dtd">
<svg viewBox="0 0 935 1210" version="1.1" xmlns="http://www.w3.org/2000/svg" xmlns:xlink="http://www.w3.org/1999/xlink">
<defs>
<style type="text/css"><![CDATA[
.g0_1038{
fill: #FFF;
}
.g1_1038{
fill: #000;
}
]]></style>
</defs>
<path d="M68.8,1149.3H852.5v-21.2H68.8v21.2Z" class="g0_1038"/>
<path d="M70.9,1023.3h.7V551.9h-.7v471.4Z" class="g1_1038"/>
<path d="M183.4,1024h.8V551.2h-.8V1024Z" class="g1_1038"/>
<path d="M849.5,1023.3h.7V551.9h-.7v471.4Z" class="g1_1038"/>
<path d="M70.9,551.9H850.3v-.7H70.9v.7Z" class="g1_1038"/>
<path d="M70.9,581H850.3v-.8H70.9v.8Z" class="g1_1038"/>
<path d="M70.9,609.9H850.3v-.7H70.9v.7Z" class="g1_1038"/>
<path d="M70.9,639H850.3v-.7H70.9v.7Z" class="g1_1038"/>
<path d="M70.9,668.1H850.3v-.8H70.9v.8Z" class="g1_1038"/>
<path d="M70.9,713.9H850.3v-.7H70.9v.7Z" class="g1_1038"/>
<path d="M70.9,759.7H850.3V759H70.9v.7Z" class="g1_1038"/>
<path d="M70.9,860.6H850.3v-.8H70.9v.8Z" class="g1_1038"/>
<path d="M70.9,940H850.3v-.8H70.9v.8Z" class="g1_1038"/>
<path d="M70.9,1024H850.3v-.7H70.9v.7Z" class="g1_1038"/>
</svg>