<?xml version="1.0" encoding="UTF-8" standalone="no"?>
<!DOCTYPE svg PUBLIC "-//W3C//DTD SVG 1.1//EN"
"http://www.w3.org/Graphics/SVG/1.1/DTD/svg11.dtd">
<svg viewBox="0 0 935 1210" version="1.1" xmlns="http://www.w3.org/2000/svg" xmlns:xlink="http://www.w3.org/1999/xlink">
<defs>
<style type="text/css"><![CDATA[
.g0_3089{
fill: #FFF;
}
.g1_3089{
fill: #000;
}
]]></style>
</defs>
<path d="M68.9,1149.3H852.7v-21.2H68.9v21.2Z" class="g0_3089"/>
<path d="M171.3,573.7h.8V113.5h-.8V573.7Z" class="g1_3089"/>
<path d="M750.7,573.7h.7V113.5h-.7V573.7Z" class="g1_3089"/>
<path d="M171.3,113.4H751.4v-.7H171.3v.7Z" class="g1_3089"/>
<path d="M171.3,574.4H751.4v-.7H171.3v.7Z" class="g1_3089"/>
<path d="M593.5,561.6h77.8V163.3H593.5V561.6Z" class="g0_3089"/>
<path d="M593.5,163.6h78.1v-.7H593.5v.7Z" class="g1_3089"/>
<path d="M670.9,561.9h.7V163.3h-.7V561.9Z" class="g1_3089"/>
<path d="M593.2,561.9h78.1v-.7H593.2v.7Z" class="g1_3089"/>
<path d="M593.2,561.6h.7V162.9h-.7V561.6Z" class="g1_3089"/>
<path d="M238.1,170.9h82.8v-.8H238.1v.8Z" class="g1_3089"/>
<path d="M320.2,188.5h.7v-18h-.7v18Z" class="g1_3089"/>
<path d="M237.7,188.5h82.9v-.8H237.7v.8Z" class="g1_3089"/>
<path d="M237.7,188.1h.7v-18h-.7v18Z" class="g1_3089"/>
<path d="M593.8,314.1h.2v-.4h-.2v.4Z" class="g1_3089"/>
<path d="M594,314.1h77.6v-.4H594v.4Z" class="g1_3089"/>
<path d="M593.8,227.1h.2v-.4h-.2v.4Z" class="g1_3089"/>
<path d="M594,227.1h77.6v-.4H594v.4Z" class="g1_3089"/>
<path d="M348.9,195.6H475.8V163.7H348.9v31.9Z" class="g0_3089"/>
<path d="M348.9,164.1H476.2v-.7H348.9v.7Z" class="g1_3089"/>
<path d="M475.5,196h.7V163.7h-.7V196Z" class="g1_3089"/>
<path d="M348.5,196H475.8v-.7H348.5v.7Z" class="g1_3089"/>
<path d="M348.5,195.6h.7V163.3h-.7v32.3Z" class="g1_3089"/>
<path d="M348.9,180.4h.2v-.5h-.2v.5Z" class="g1_3089"/>
<path d="M349.1,180.4H475.6v-.5H349.1v.5Z" class="g1_3089"/>
<path d="M412.5,163.2h.5V163h-.5v.2Z" class="g1_3089"/>
<path d="M412.5,179.8h.5V163.2h-.5v16.6Z" class="g1_3089"/>
<path d="M336.1,180.4h2.1v-.5h-2.1v.5Z" class="g1_3089"/>
<path d="M337.5,180.6l-1.4,-2.3L335,176.5l2.1,.6l8.2,2.3l2.6,.7l-2.6,.8l-8.2,2.3l-1.9,.6l.9,-1.7l.5,-.3l8.3,-2.4l.4,1.5h-.4l-8.3,-2.3l.5,-1.5l.4,.4l1.4,2.3Z" class="g1_3089"/>
<path d="M336.1,182.1l1.4,-2.3h1.4l.2,.3l-.2,.4l-1.4,2.4Z" class="g1_3089"/>
<path fill-rule="evenodd" d="M338.2,180.1l-1.4,-2.3l8.2,2.3l-8.2,2.4Z" class="g1_3089"/>
<path d="M336.1,180.4h.1v-.5h-.1v.5Z" class="g1_3089"/>
<path d="M320.6,180.4h15.5v-.5H320.6v.5Z" class="g1_3089"/>
<path d="M593.6,544.2h.2v-.4h-.2v.4Z" class="g1_3089"/>
<path d="M593.8,544.2h76.6v-.4H593.8v.4Z" class="g1_3089"/>
<path d="M584.1,304.5l-.4,.3l1.5,1.6l.4,-.2Z" class="g1_3089"/>
<path d="M584.6,306.1l.9,-2.6l.6,-1.9l.8,1.8l3.6,7.8l1.2,2.5l-2.3,-1.6l-8.8,-5.8l1.8,-.3l.7,.1l7.1,4.7l-.8,1.3l-.3,-.2l-3.5,-7.8l1.3,-.7v.6l-.8,2.5Z" class="g1_3089"/>
<path d="M582.4,306l2.8,-.5l.9,1l-.2,.5l-.4,.1l-2.8,.4Z" class="g1_3089"/>
<path fill-rule="evenodd" d="M585.4,306.3l.8,-2.6l3.6,7.8l-7.2,-4.8Z" class="g1_3089"/>
<path d="M476.9,179.9l-.1,-.1l-.3,.2l.1,.2Z" class="g1_3089"/>
<path d="M584.1,304.5l.1,.2l-.4,.3l-.1,-.2Z" class="g1_3089"/>
<path d="M476.9,179.9l-.3,.3L583.7,304.8l.4,-.3Z" class="g1_3089"/>
<path d="M238.1,210.7h82.8V210H238.1v.7Z" class="g1_3089"/>
<path d="M320.2,228.3h.7V210.4h-.7v17.9Z" class="g1_3089"/>
<path d="M237.7,228.3h82.9v-.7H237.7v.7Z" class="g1_3089"/>
<path d="M237.7,228h.7V210h-.7v18Z" class="g1_3089"/>
<path d="M348.9,235.5H475.8V203.6H348.9v31.9Z" class="g0_3089"/>
<path d="M348.9,204H476.2v-.8H348.9v.8Z" class="g1_3089"/>
<path d="M475.5,235.9h.7V203.6h-.7v32.3Z" class="g1_3089"/>
<path d="M348.5,235.9H475.8v-.8H348.5v.8Z" class="g1_3089"/>
<path d="M348.5,235.5h.7V203.2h-.7v32.3Z" class="g1_3089"/>
<path d="M348.9,220.3h.2v-.5h-.2v.5Z" class="g1_3089"/>
<path d="M349.1,220.3H475.6v-.5H349.1v.5Z" class="g1_3089"/>
<path d="M412.5,203h.5v-.1h-.5v.1Z" class="g1_3089"/>
<path d="M412.5,219.6h.5V203h-.5v16.6Z" class="g1_3089"/>
<path d="M336.4,220.3h2.1v-.5h-2.1v.5Z" class="g1_3089"/>
<path d="M337.9,220.5l-1.4,-2.3l-1.1,-1.8l2,.6l8.3,2.3l2.5,.7l-2.5,.7l-8.3,2.4l-1.8,.6l.9,-1.7l.5,-.3l8.2,-2.4l.5,1.4h-.5L337,218.4l.4,-1.4l.5,.3l1.4,2.3Z" class="g1_3089"/>
<path d="M336.5,222l1.4,-2.4h1.4l.1,.4l-.1,.4l-1.4,2.3Z" class="g1_3089"/>
<path fill-rule="evenodd" d="M338.5,220l-1.3,-2.3l8.2,2.3l-8.2,2.4Z" class="g1_3089"/>
<path d="M336.4,220.3h.2v-.5h-.2v.5Z" class="g1_3089"/>
<path d="M320.9,220.3h15.5v-.5H320.9v.5Z" class="g1_3089"/>
<path d="M579.9,226.3v.5l2.1,.1v-.5Z" class="g1_3089"/>
<path d="M581.3,227l-1.1,-2.5l-.9,-1.8l1.9,.7l8,2.9l2.5,.9l-2.6,.6l-8.4,1.8l-1.8,.5l1,-1.6l.5,-.3l8.4,-1.9l.3,1.5h-.5l-8.1,-2.9l.7,-1.5l.3,.5l1.2,2.4Z" class="g1_3089"/>
<path d="M579.9,228.5l1.4,-2.3l1.4,.1l.2,.4l-.2,.4l-1.4,2.2Z" class="g1_3089"/>
<path fill-rule="evenodd" d="M582,226.6l-1.2,-2.5l8.1,3l-8.4,1.8Z" class="g1_3089"/>
<path d="M476.6,220.2h.2v-.5h-.2v.5Z" class="g1_3089"/>
<path d="M579.9,226.8h.2v-.5h-.2v.5Z" class="g1_3089"/>
<path d="M476.8,219.7v.5l103.1,6.6v-.5Z" class="g1_3089"/>
<path d="M238.1,251.1h82.8v-.8H238.1v.8Z" class="g1_3089"/>
<path d="M320.2,268.7h.7v-18h-.7v18Z" class="g1_3089"/>
<path d="M237.7,268.7h82.9v-.8H237.7v.8Z" class="g1_3089"/>
<path d="M237.7,268.3h.7v-18h-.7v18Z" class="g1_3089"/>
<path d="M348.9,275.8H475.8V243.9H348.9v31.9Z" class="g0_3089"/>
<path d="M348.9,244.3H476.2v-.7H348.9v.7Z" class="g1_3089"/>
<path d="M475.5,276.2h.7V243.9h-.7v32.3Z" class="g1_3089"/>
<path d="M348.5,276.2H475.8v-.7H348.5v.7Z" class="g1_3089"/>
<path d="M348.5,275.8h.7V243.6h-.7v32.2Z" class="g1_3089"/>
<path d="M348.9,260.6h.2v-.4h-.2v.4Z" class="g1_3089"/>
<path d="M349.1,260.6H475.6v-.4H349.1v.4Z" class="g1_3089"/>
<path d="M412.5,243.4h.5v-.2h-.5v.2Z" class="g1_3089"/>
<path d="M412.5,260h.5V243.4h-.5V260Z" class="g1_3089"/>
<path d="M336.4,260.6h2.1v-.4h-2.1v.4Z" class="g1_3089"/>
<path d="M337.9,260.8l-1.4,-2.3l-1.1,-1.7l2,.5l8.3,2.3l2.5,.7l-2.5,.8l-8.3,2.4l-1.8,.5l.9,-1.6l.5,-.4l8.2,-2.4l.5,1.5h-.5L337,258.8l.4,-1.5l.5,.4l1.4,2.3Z" class="g1_3089"/>
<path d="M336.5,262.3l1.4,-2.3h1.4l.1,.3l-.1,.4l-1.4,2.4Z" class="g1_3089"/>
<path fill-rule="evenodd" d="M338.5,260.3L337.2,258l8.2,2.3l-8.2,2.4Z" class="g1_3089"/>
<path d="M336.4,260.6h.2v-.4h-.2v.4Z" class="g1_3089"/>
<path d="M320.9,260.6h15.5v-.4H320.9v.4Z" class="g1_3089"/>
<path d="M588.1,495.5l-.4,.2l.9,2l.5,-.2Z" class="g1_3089"/>
<path d="M588.2,497.1l1.6,-2.2l1.1,-1.5l.4,1.9l1.3,8.4l.4,2.6l-1.7,-2l-5.7,-6.4l-1.3,-1.3l1.9,.1l.5,.2l5.7,6.4l-1.1,1l-.2,-.3l-1.4,-8.4l1.6,-.3l-.2,.6l-1.6,2.2Z" class="g1_3089"/>
<path d="M586.2,496.6l2.8,.2l.5,1.3l-.3,.3h-.3l-2.8,-.2Z" class="g1_3089"/>
<path fill-rule="evenodd" d="M588.9,497.6l1.5,-2.2l1.4,8.4l-5.7,-6.4Z" class="g1_3089"/>
<path d="M477,260.2l-.1,-.2l-.4,.2l.1,.1Z" class="g1_3089"/>
<path d="M588.2,495.5l.1,.2l-.4,.2l-.1,-.2Z" class="g1_3089"/>
<path d="M477,260.2l-.4,.1L587.8,495.7l.4,-.1Z" class="g1_3089"/>
<path d="M238.1,291.8h82.8V291H238.1v.8Z" class="g1_3089"/>
<path d="M320.2,309.4h.7v-18h-.7v18Z" class="g1_3089"/>
<path d="M237.7,309.4h82.9v-.8H237.7v.8Z" class="g1_3089"/>
<path d="M237.7,309h.7V291h-.7v18Z" class="g1_3089"/>
<path d="M348.9,316.4H475.8V284.5H348.9v31.9Z" class="g0_3089"/>
<path d="M348.9,284.9H476.2v-.7H348.9v.7Z" class="g1_3089"/>
<path d="M475.5,316.8h.7V284.5h-.7v32.3Z" class="g1_3089"/>
<path d="M348.5,316.8H475.8v-.7H348.5v.7Z" class="g1_3089"/>
<path d="M348.5,316.4h.7V284.2h-.7v32.2Z" class="g1_3089"/>
<path d="M348.9,301.2H475.6v-.4H348.9v.4Z" class="g1_3089"/>
<path d="M412.5,300.7h.5V283.9h-.5v16.8Z" class="g1_3089"/>
<path d="M336.4,300.9h2.1v-.4h-2.1v.4Z" class="g1_3089"/>
<path d="M337.9,301l-1.4,-2.4l-1,-1.6l1.9,.5l8.3,2.4l2.6,.8l-2.6,.7l-8.3,2.3l-1.9,.5l1,-1.6l.5,-.4l8.2,-2.3l.5,1.5h-.5L337,299l.4,-1.5l.5,.4l1.4,2.4Z" class="g1_3089"/>
<path d="M336.5,302.6l1.4,-2.3h1.4l.2,.5l-.2,.3l-1.4,2.3Z" class="g1_3089"/>
<path fill-rule="evenodd" d="M338.5,300.7l-1.3,-2.4l8.2,2.4l-8.2,2.3Z" class="g1_3089"/>
<path d="M320.9,300.9h15.7v-.4H320.9v.4Z" class="g1_3089"/>
<path d="M581.1,328l-.2,.4l2.1,.6l.2,-.5Z" class="g1_3089"/>
<path d="M582.4,329l-.8,-2.7l-.5,-1.9l1.7,1l7.4,4.3l2.2,1.4h-2.6l-8.5,.3l-2.1,.1l1.4,-1.4l.6,-.2l8.5,-.3l.1,1.5l-.5,-.1L582,326.7l.8,-1.3l.4,.5l.7,2.6Z" class="g1_3089"/>
<path d="M580.6,330.1l1.9,-1.9l1.4,.3l.1,.6l-.4,.3l-1.9,1.9Z" class="g1_3089"/>
<path fill-rule="evenodd" d="M583.1,328.7l-.7,-2.6l7.3,4.3l-8.5,.2Z" class="g1_3089"/>
<path d="M476.8,300.7h-.1l-.1,.4h.2Z" class="g1_3089"/>
<path d="M581.1,328h.2l-.1,.4H581Z" class="g1_3089"/>
<path d="M476.8,300.7v.4L581,328.4l.1,-.4Z" class="g1_3089"/>
<path d="M238.1,332.2h82.8v-.7H238.1v.7Z" class="g1_3089"/>
<path d="M320.2,349.8h.7v-18h-.7v18Z" class="g1_3089"/>
<path d="M237.7,349.8h82.9v-.7H237.7v.7Z" class="g1_3089"/>
<path d="M237.7,349.4h.7V331.5h-.7v17.9Z" class="g1_3089"/>
<path d="M348.9,357H475.8V325.1H348.9V357Z" class="g0_3089"/>
<path d="M348.9,325.4H476.2v-.7H348.9v.7Z" class="g1_3089"/>
<path d="M475.5,357.3h.7V325.1h-.7v32.2Z" class="g1_3089"/>
<path d="M348.5,357.3H475.8v-.7H348.5v.7Z" class="g1_3089"/>
<path d="M348.5,357h.7V324.7h-.7V357Z" class="g1_3089"/>
<path d="M348.9,341.7H475.6v-.4H348.9v.4Z" class="g1_3089"/>
<path d="M412.5,341.1h.5V324.3h-.5v16.8Z" class="g1_3089"/>
<path d="M336.4,341.7h2.1v-.4h-2.1v.4Z" class="g1_3089"/>
<path d="M337.9,341.9l-1.4,-2.3l-1.1,-1.7l2,.5l8.3,2.3l2.5,.8l-2.5,.7l-8.3,2.4l-1.8,.5l.9,-1.6l.5,-.4l8.2,-2.4l.5,1.5h-.5L337,339.9l.4,-1.5l.5,.4l1.4,2.3Z" class="g1_3089"/>
<path d="M336.5,343.5l1.4,-2.4h1.4l.1,.4l-.1,.3l-1.4,2.4Z" class="g1_3089"/>
<path fill-rule="evenodd" d="M338.5,341.5l-1.3,-2.3l8.2,2.3l-8.2,2.3Z" class="g1_3089"/>
<path d="M320.9,341.7h15.7v-.4H320.9v.4Z" class="g1_3089"/>
<path d="M583.2,423.8l-.3,.3l1.7,1.3l.2,-.3Z" class="g1_3089"/>
<path d="M584,425.2l.5,-2.7l.2,-1.9l1.1,1.6l5.1,6.9l1.5,2l-2.4,-.9l-8,-3.1l-1.7,-.7l1.7,-.7l.5,-.1l8,3.1l-.5,1.5l-.3,-.3l-5,-6.9l1.1,-.8l.2,.6l-.4,2.6Z" class="g1_3089"/>
<path d="M582,425.7l2.5,-1.1l1.1,.8l-.1,.4l-.4,.2l-2.5,1.1Z" class="g1_3089"/>
<path fill-rule="evenodd" d="M584.7,425.2l.5,-2.6l5,6.9l-7.9,-3.2Z" class="g1_3089"/>
<path d="M476.9,341.2l-.1,-.1l-.3,.4h.2Z" class="g1_3089"/>
<path d="M583.3,423.8l.2,.1l-.3,.3l-.2,-.1Z" class="g1_3089"/>
<path d="M476.9,341.2l-.2,.3L583,424.1l.3,-.3Z" class="g1_3089"/>
<path d="M238.1,373.5h82.8v-.8H238.1v.8Z" class="g1_3089"/>
<path d="M320.2,391.1h.7v-18h-.7v18Z" class="g1_3089"/>
<path d="M237.7,391.1h82.9v-.8H237.7v.8Z" class="g1_3089"/>
<path d="M237.7,390.7h.7v-18h-.7v18Z" class="g1_3089"/>
<path d="M348.9,398.2H475.8V366.3H348.9v31.9Z" class="g0_3089"/>
<path d="M348.9,366.7H476.2v-.8H348.9v.8Z" class="g1_3089"/>
<path d="M475.5,398.6h.7V366.3h-.7v32.3Z" class="g1_3089"/>
<path d="M348.5,398.6H475.8v-.8H348.5v.8Z" class="g1_3089"/>
<path d="M348.5,398.2h.7V365.9h-.7v32.3Z" class="g1_3089"/>
<path d="M348.9,383H475.6v-.5H348.9v.5Z" class="g1_3089"/>
<path d="M412.5,382.3h.5V365.6h-.5v16.7Z" class="g1_3089"/>
<path d="M336.4,383h2.1v-.5h-2.1v.5Z" class="g1_3089"/>
<path d="M337.9,383.2l-1.4,-2.3l-1.1,-1.8l2,.6l8.3,2.3l2.5,.7l-2.5,.7l-8.3,2.4l-1.8,.6l.9,-1.7l.5,-.3l8.2,-2.4l.5,1.4h-.5L337,381.1l.4,-1.4l.5,.4l1.4,2.2Z" class="g1_3089"/>
<path d="M336.5,384.7l1.4,-2.4h1.4l.1,.4l-.1,.4l-1.4,2.4Z" class="g1_3089"/>
<path fill-rule="evenodd" d="M338.5,382.7l-1.3,-2.3l8.2,2.3l-8.2,2.4Z" class="g1_3089"/>
<path d="M320.9,383h15.7v-.5H320.9v.5Z" class="g1_3089"/>
<path d="M580.6,382.9h2.1v-.5h-2.1v.5Z" class="g1_3089"/>
<path d="M582.1,383l-1.3,-2.4l-1,-1.7l1.9,.6l8.2,2.4l2.5,.7l-2.5,.7l-8.2,2.3l-1.8,.6l.9,-1.7l.5,-.3l8.1,-2.3l.5,1.4h-.5L581.3,381l.4,-1.5l.5,.4l1.3,2.4Z" class="g1_3089"/>
<path d="M580.8,384.5l1.3,-2.2h1.4l.1,.3l-.1,.4l-1.3,2.3Z" class="g1_3089"/>
<path fill-rule="evenodd" d="M582.7,382.6l-1.3,-2.4l8.2,2.4l-8.2,2.3Z" class="g1_3089"/>
<path d="M476.6,382.9H580.8v-.5H476.6v.5Z" class="g1_3089"/>
<path d="M348.9,439.3H475.8V407.4H348.9v31.9Z" class="g0_3089"/>
<path d="M348.9,407.7H476.2V407H348.9v.7Z" class="g1_3089"/>
<path d="M475.5,439.6h.7V407.4h-.7v32.2Z" class="g1_3089"/>
<path d="M348.5,439.6H475.8v-.7H348.5v.7Z" class="g1_3089"/>
<path d="M348.5,439.3h.7V407h-.7v32.3Z" class="g1_3089"/>
<path d="M348.9,424H475.6v-.4H348.9v.4Z" class="g1_3089"/>
<path d="M412.5,423.5h.5V406.7h-.5v16.8Z" class="g1_3089"/>
<path d="M584.4,536.4l-.3,.3l1.5,1.6l.2,-.3Z" class="g1_3089"/>
<path d="M585,537.9l.8,-2.7l.5,-1.9l.9,1.9l4.1,7.6l1.1,2.2l-2.2,-1.2l-7.5,-4.3l-1.6,-1.1l1.8,-.4l.6,.1l7.4,4.3l-.7,1.4l-.3,-.4l-4.1,-7.6l1.4,-.6v.5l-.7,2.7Z" class="g1_3089"/>
<path d="M582.9,538l2.7,-.6l.9,1l-.1,.3l-.5,.2l-2.6,.7Z" class="g1_3089"/>
<path fill-rule="evenodd" d="M585.7,538.1l.8,-2.7l4,7.6l-7.4,-4.3Z" class="g1_3089"/>
<path d="M476.9,423.6l-.1,-.2l-.3,.3l.1,.2Z" class="g1_3089"/>
<path d="M584.5,536.4l.1,.2l-.4,.3l-.1,-.2Z" class="g1_3089"/>
<path d="M476.9,423.6l-.3,.3L584.1,536.7l.4,-.3Z" class="g1_3089"/>
<path d="M348.9,480H475.8V448.1H348.9V480Z" class="g0_3089"/>
<path d="M348.9,448.4H476.2v-.7H348.9v.7Z" class="g1_3089"/>
<path d="M475.5,480.3h.7V448.1h-.7v32.2Z" class="g1_3089"/>
<path d="M348.5,480.3H475.8v-.7H348.5v.7Z" class="g1_3089"/>
<path d="M348.5,480h.7V447.7h-.7V480Z" class="g1_3089"/>
<path d="M348.9,464.8H475.6v-.5H348.9v.5Z" class="g1_3089"/>
<path d="M412.5,464.1h.5V447.3h-.5v16.8Z" class="g1_3089"/>
<path d="M580.9,443.9l.1,.5l2,-.5l-.1,-.4Z" class="g1_3089"/>
<path d="M582.4,444.1l-1.8,-2l-1.3,-1.4l2,.2l8.5,.8l2.6,.1l-2.3,1.2l-7.7,4l-1.6,.9l.5,-1.8l.5,-.4l7.6,-4l.7,1.3l-.4,.1l-8.5,-.7l.1,-1.5l.5,.3l1.7,2Z" class="g1_3089"/>
<path d="M581.3,446l.9,-2.6l1.3,-.2l.3,.3l-.1,.3l-.8,2.7Z" class="g1_3089"/>
<path fill-rule="evenodd" d="M582.9,443.7l-1.7,-2.1l8.5,.8l-7.6,3.9Z" class="g1_3089"/>
<path d="M476.8,464.1h-.2l.1,.5h.1Z" class="g1_3089"/>
<path d="M580.9,443.9h.2l.1,.5H581Z" class="g1_3089"/>
<path d="M476.8,464.1v.5L581,444.4l-.1,-.5Z" class="g1_3089"/>
<path d="M348.9,520.4H475.8V488.5H348.9v31.9Z" class="g0_3089"/>
<path d="M348.9,488.9H476.2v-.8H348.9v.8Z" class="g1_3089"/>
<path d="M475.5,520.8h.7V488.5h-.7v32.3Z" class="g1_3089"/>
<path d="M348.5,520.8H475.8V520H348.5v.8Z" class="g1_3089"/>
<path d="M348.5,520.4h.7V488.1h-.7v32.3Z" class="g1_3089"/>
<path d="M348.9,505.2H475.6v-.5H348.9v.5Z" class="g1_3089"/>
<path d="M412.5,504.6h.5V487.8h-.5v16.8Z" class="g1_3089"/>
<path d="M581.5,475.4l.2,.4l2,-.6l-.1,-.5Z" class="g1_3089"/>
<path d="M583.2,475.6l-1.9,-1.9l-1.5,-1.4h10.5l2.7,.1l-2.3,1.3l-7.2,4.5l-1.7,1l.5,-1.8l.3,-.5l7.3,-4.5l.8,1.3l-.5,.1h-8.5l.1,-1.5l.6,.2l1.9,1.9Z" class="g1_3089"/>
<path d="M582.3,477.4l.6,-2.7l1.4,-.3l.3,.3l-.1,.4l-.7,2.7Z" class="g1_3089"/>
<path fill-rule="evenodd" d="M583.6,474.9l-1.9,-1.8h8.5l-7.2,4.5Z" class="g1_3089"/>
<path d="M476.8,504.6h-.2l.1,.5h.1Z" class="g1_3089"/>
<path d="M581.6,475.4h.2l.1,.4h-.2Z" class="g1_3089"/>
<path d="M476.8,504.6v.5L581.7,475.8l-.1,-.4Z" class="g1_3089"/>
<path d="M348.9,561.6H475.8V529.7H348.9v31.9Z" class="g0_3089"/>
<path d="M348.9,530.1H476.2v-.7H348.9v.7Z" class="g1_3089"/>
<path d="M475.5,562h.7V529.7h-.7V562Z" class="g1_3089"/>
<path d="M348.5,562H475.8v-.7H348.5v.7Z" class="g1_3089"/>
<path d="M348.5,561.6h.7V529.4h-.7v32.2Z" class="g1_3089"/>
<path d="M348.9,546.5h.2v-.4h-.2v.4Z" class="g1_3089"/>
<path d="M349.1,546.5H475.6v-.4H349.1v.4Z" class="g1_3089"/>
<path d="M412.5,529.3h.5v-.2h-.5v.2Z" class="g1_3089"/>
<path d="M412.5,545.9h.5V529.3h-.5v16.6Z" class="g1_3089"/>
<path d="M580.7,560.1v.4l2.1,.3v-.4Z" class="g1_3089"/>
<path d="M582.2,560.8l-1,-2.6l-.8,-1.7l1.8,.7l7.8,3.5l2.4,1.1l-2.6,.4l-8.5,1.2l-2,.3l1.3,-1.5l.5,-.3l8.4,-1.2l.3,1.5h-.5l-7.8,-3.5l.7,-1.5l.3,.5l1,2.6Z" class="g1_3089"/>
<path d="M580.6,562.2l1.7,-2.1l1.3,.2l.2,.4l-.3,.4l-1.7,2.1Z" class="g1_3089"/>
<path fill-rule="evenodd" d="M582.8,560.5l-1,-2.5l7.8,3.5l-8.4,1.2Z" class="g1_3089"/>
<path d="M476.8,545.9h-.1l-.1,.4h.2Z" class="g1_3089"/>
<path d="M580.8,560.1h.2l-.1,.4h-.2Z" class="g1_3089"/>
<path d="M476.8,545.9v.4l103.9,14.2l.1,-.4Z" class="g1_3089"/>
<path d="M593.8,506.7h.2v-.4h-.2v.4Z" class="g1_3089"/>
<path d="M594,506.7h77.6v-.4H594v.4Z" class="g1_3089"/>
<path d="M593.8,471.6h.2v-.4h-.2v.4Z" class="g1_3089"/>
<path d="M594,471.6h77.6v-.4H594v.4Z" class="g1_3089"/>
<path d="M593.8,331.6h.2v-.5h-.2v.5Z" class="g1_3089"/>
<path d="M594,331.6h77.6v-.5H594v.5Z" class="g1_3089"/>
<path d="M593.8,382.8h.2v-.5h-.2v.5Z" class="g1_3089"/>
<path d="M594,382.8h77.6v-.5H594v.5Z" class="g1_3089"/>
<path d="M593.8,442.4h.2v-.5h-.2v.5Z" class="g1_3089"/>
<path d="M594,442.4h77.6v-.5H594v.5Z" class="g1_3089"/>
<path d="M593.8,431.7h.2v-.5h-.2v.5Z" class="g1_3089"/>
<path d="M594,431.7h77.6v-.5H594v.5Z" class="g1_3089"/>
</svg>