<?xml version="1.0" encoding="UTF-8" standalone="no"?>
<!DOCTYPE svg PUBLIC "-//W3C//DTD SVG 1.1//EN"
"http://www.w3.org/Graphics/SVG/1.1/DTD/svg11.dtd">
<svg viewBox="0 0 935 1210" version="1.1" xmlns="http://www.w3.org/2000/svg" xmlns:xlink="http://www.w3.org/1999/xlink">
<defs>
<style type="text/css"><![CDATA[
.g0_876{
fill: #FFF;
}
.g1_876{
fill: #000;
}
]]></style>
</defs>
<path d="M68.8,1149.3H852.5v-21.2H68.8v21.2Z" class="g0_876"/>
<path d="M68.6,728.4h.7V176.1h-.7V728.4Z" class="g1_876"/>
<path d="M142.1,729.1h.7V175.4h-.7V729.1Z" class="g1_876"/>
<path d="M407.1,729.1h.7V175.4h-.7V729.1Z" class="g1_876"/>
<path d="M544.3,729.1h.8V175.4h-.8V729.1Z" class="g1_876"/>
<path d="M690.2,729.1h.7V175.4h-.7V729.1Z" class="g1_876"/>
<path d="M850.7,728.4h.7V176.1h-.7V728.4Z" class="g1_876"/>
<path d="M68.6,176.1H851.5v-.7H68.6v.7Z" class="g1_876"/>
<path d="M68.6,215.8H851.5v-.7H68.6v.7Z" class="g1_876"/>
<path d="M68.6,680.3H851.5v-.8H68.6v.8Z" class="g1_876"/>
<path d="M68.6,729.1H851.5v-.7H68.6v.7Z" class="g1_876"/>
</svg>