<?xml version="1.0" encoding="UTF-8" standalone="no"?>
<!DOCTYPE svg PUBLIC "-//W3C//DTD SVG 1.1//EN"
"http://www.w3.org/Graphics/SVG/1.1/DTD/svg11.dtd">
<svg viewBox="0 0 935 1210" version="1.1" xmlns="http://www.w3.org/2000/svg" xmlns:xlink="http://www.w3.org/1999/xlink">
<defs>
<style type="text/css"><![CDATA[
.g0_986{
fill: #FFF;
}
.g1_986{
fill: #000;
}
]]></style>
</defs>
<path d="M165,1149.3H852.5v-21.2H165v21.2Z" class="g0_986"/>
<path d="M68.8,1149.3h82.5v-21.2H68.8v21.2Z" class="g0_986"/>
<path d="M68.6,260.9h.7V131.8h-.7V260.9Z" class="g1_986"/>
<path d="M203.1,261.6h.8V131h-.8V261.6Z" class="g1_986"/>
<path d="M380.9,261.6h.7V131h-.7V261.6Z" class="g1_986"/>
<path d="M447.1,261.6h.8V131h-.8V261.6Z" class="g1_986"/>
<path d="M525.3,261.6h.8V131h-.8V261.6Z" class="g1_986"/>
<path d="M848.7,260.9h.8V131.8h-.8V260.9Z" class="g1_986"/>
<path d="M68.6,131.7H849.5V131H68.6v.7Z" class="g1_986"/>
<path d="M68.6,169.9H849.5v-.7H68.6v.7Z" class="g1_986"/>
<path d="M68.6,192.9H849.5v-.8H68.6v.8Z" class="g1_986"/>
<path d="M68.6,215.8H849.5v-.7H68.6v.7Z" class="g1_986"/>
<path d="M68.6,238.7H849.5V238H68.6v.7Z" class="g1_986"/>
<path d="M68.6,261.6H849.5v-.7H68.6v.7Z" class="g1_986"/>
<path d="M69.7,511.4h.7V397.6h-.7V511.4Z" class="g1_986"/>
<path d="M397.6,512.2h.7V396.8h-.7V512.2Z" class="g1_986"/>
<path d="M532.6,512.2h.7V396.8h-.7V512.2Z" class="g1_986"/>
<path d="M696.5,512.2h.7V396.8h-.7V512.2Z" class="g1_986"/>
<path d="M850.7,511.4h.7V397.6h-.7V511.4Z" class="g1_986"/>
<path d="M69.7,397.7H851.5v-.8H69.7v.8Z" class="g1_986"/>
<path d="M69.7,420.6H851.5v-.8H69.7v.8Z" class="g1_986"/>
<path d="M69.7,443.5H851.5v-.8H69.7v.8Z" class="g1_986"/>
<path d="M69.7,466.4H851.5v-.7H69.7v.7Z" class="g1_986"/>
<path d="M69.7,489.3H851.5v-.7H69.7v.7Z" class="g1_986"/>
<path d="M69.7,512.2H851.5v-.7H69.7v.7Z" class="g1_986"/>
</svg>