<?xml version="1.0" encoding="UTF-8" standalone="no"?>
<!DOCTYPE svg PUBLIC "-//W3C//DTD SVG 1.1//EN"
"http://www.w3.org/Graphics/SVG/1.1/DTD/svg11.dtd">
<svg viewBox="0 0 935 1210" version="1.1" xmlns="http://www.w3.org/2000/svg" xmlns:xlink="http://www.w3.org/1999/xlink">
<defs>
<style type="text/css"><![CDATA[
.g0_4627{
fill: #FFF;
}
.g1_4627{
fill: #000;
}
]]></style>
</defs>
<path d="M68.9,1149.3H852.7v-21.2H68.9v21.2Z" class="g0_4627"/>
<path d="M69.9,1063h.8V124.1h-.8V1063Z" class="g1_4627"/>
<path d="M126.7,1063.8h.7V164.6h-.7v899.2Z" class="g1_4627"/>
<path d="M183.4,1063.8h.8V123.4h-.8v940.4Z" class="g1_4627"/>
<path d="M417.9,1063.8h.7V123.4h-.7v940.4Z" class="g1_4627"/>
<path d="M511,1063.8h.8V123.4H511v940.4Z" class="g1_4627"/>
<path d="M852.6,1063h.7V124.1h-.7V1063Z" class="g1_4627"/>
<path d="M69.9,124.1H853.3v-.7H69.9v.7Z" class="g1_4627"/>
<path d="M69.9,165.4H184.2v-.8H69.9v.8Z" class="g1_4627"/>
<path d="M69.9,189.8H853.3v-.7H69.9v.7Z" class="g1_4627"/>
<path d="M183.4,214.2H853.3v-.7H183.4v.7Z" class="g1_4627"/>
<path d="M183.4,454.1H853.3v-.7H183.4v.7Z" class="g1_4627"/>
<path d="M69.9,478.6H853.3v-.7H69.9v.7Z" class="g1_4627"/>
<path d="M183.4,524.4H853.3v-.7H183.4v.7Z" class="g1_4627"/>
<path d="M183.4,548.9H853.3v-.7H183.4v.7Z" class="g1_4627"/>
<path d="M183.4,573.3H853.3v-.7H183.4v.7Z" class="g1_4627"/>
<path d="M183.4,597.8H853.3V597H183.4v.8Z" class="g1_4627"/>
<path d="M183.4,622.2H853.3v-.7H183.4v.7Z" class="g1_4627"/>
<path d="M183.4,646.6H853.3v-.7H183.4v.7Z" class="g1_4627"/>
<path d="M183.4,671.1H853.3v-.7H183.4v.7Z" class="g1_4627"/>
<path d="M183.4,695.6H853.3v-.8H183.4v.8Z" class="g1_4627"/>
<path d="M183.4,719.9H853.3v-.7H183.4v.7Z" class="g1_4627"/>
<path d="M183.4,744.4H853.3v-.7H183.4v.7Z" class="g1_4627"/>
<path d="M69.9,768.9H853.3v-.7H69.9v.7Z" class="g1_4627"/>
<path d="M69.9,852.9H853.3v-.8H69.9v.8Z" class="g1_4627"/>
<path d="M69.9,894.1H853.3v-.7H69.9v.7Z" class="g1_4627"/>
<path d="M69.9,935.4H853.3v-.8H69.9v.8Z" class="g1_4627"/>
<path d="M183.4,981.2H853.3v-.7H183.4v.7Z" class="g1_4627"/>
<path d="M69.9,1005.7H853.3v-.8H69.9v.8Z" class="g1_4627"/>
<path d="M69.9,1063.7H853.3v-.7H69.9v.7Z" class="g1_4627"/>
</svg>