<?xml version="1.0" encoding="UTF-8" standalone="no"?>
<!DOCTYPE svg PUBLIC "-//W3C//DTD SVG 1.1//EN"
"http://www.w3.org/Graphics/SVG/1.1/DTD/svg11.dtd">
<svg viewBox="0 0 935 1210" version="1.1" xmlns="http://www.w3.org/2000/svg" xmlns:xlink="http://www.w3.org/1999/xlink">
<defs>
<clipPath id="c0_601"><path d="M766.6,59.2V41.4h72.1V59.2Z"/></clipPath>
<style type="text/css"><![CDATA[
.g0_601{
fill: #000;
}
.g1_601{
fill: #FFF;
}
.g2_601{
fill: none;
stroke: #000;
stroke-width: 1.292;
}
.g3_601{
fill: none;
stroke: #000;
stroke-width: 1.436;
}
.g4_601{
fill: none;
stroke: #000;
stroke-width: 1.077;
}
.g5_601{
fill: none;
stroke: #000;
stroke-width: 1.234;
}
.g6_601{
fill: none;
stroke: #000;
stroke-width: 0.718;
}
]]></style>
</defs>
<path d="M97.3,62.9v.3H839.9v-.3H97.3Z" class="g0_601"/>
<path d="M96.2,1114.1h-.1v.3h.1v-.3Z" class="g0_601"/>
<path d="M838.7,1114.1h.2v.3h-.2v-.3Z" class="g0_601"/>
<path d="M96.2,1114.1v.3H838.7v-.3H96.2Z" class="g0_601"/>
<image clip-path="url(#c0_601)" preserveAspectRatio="none" x="767" y="41" width="72" height="18" xlink:href="img/1.jpg"/>
<path d="M831.4,277.8h-721V213.7h721v64.1Z" class="g0_601"/>
<path d="M832.3,278.6H109.5V212.8H832.3v65.8ZM111.2,276.9H830.6V214.5H111.2v62.4Z" class="g0_601"/>
<path d="M828.7,274h-721V209.9h721V274Z" class="g1_601"/>
<path d="M829.6,274.9H106.8V209H829.6v65.9Zm-721,-1.8H827.9V210.7H108.6v62.4Z" class="g0_601"/>
<path d="M307.7,210.5v62.3M418.3,210.5v62.3M520.2,210.5v62.3m102,-62.3v62.3" class="g2_601"/>
<path d="M358.9,495.5h49.8V344.6H358.9V495.5Z" class="g0_601"/>
<path d="M354.8,490.7h49.8V339.8H354.8V490.7Z" class="g1_601"/>
<path d="M354.8,339.8h49.8V490.7H354.8V339.8Z" class="g3_601"/>
<path d="M332.6,275.5V440.8m-.1,0h12.8" class="g4_601"/>
<path d="M343.2,443.9l11.6,-3.1l-11.6,-3.1Z" class="g0_601"/>
<path d="M338.8,282.9l-13,13" class="g4_601"/>
<path d="M566.4,495.5h49.8V344.6H566.4V495.5Z" class="g0_601"/>
<path d="M562.3,490.7h49.8V339.8H562.3V490.7Z" class="g1_601"/>
<path d="M562.3,339.8h49.8V490.7H562.3V339.8Z" class="g3_601"/>
<path d="M540.1,277.3V446.9m-.1,0h11.3" class="g5_601"/>
<path d="M548.9,450.5l13.4,-3.6l-13.4,-3.6Z" class="g0_601"/>
<path d="M546.4,282.9l-13,13" class="g4_601"/>
<path d="M775.4,495.5h49.8V344.6H775.4V495.5Z" class="g0_601"/>
<path d="M771.4,490.7h49.8V339.8H771.4V490.7Z" class="g1_601"/>
<path d="M771.4,339.8h49.8V490.7H771.4V339.8Z" class="g3_601"/>
<path d="M748.6,278.6V443.9m-.1,0h12.8" class="g4_601"/>
<path d="M759.2,447.1l11.7,-3.2l-11.7,-3.1Z" class="g0_601"/>
<path d="M756,282.9l-12.9,13" class="g4_601"/>
<path d="M355,428.7h49.8M355,452.3h49.8" class="g3_601"/>
<path d="M463.2,495.5H513V344.6H463.2V495.5Z" class="g0_601"/>
<path d="M459.2,490.7H509V339.8H459.2V490.7Z" class="g1_601"/>
<path d="M459.2,339.8H509V490.7H459.2V339.8Z" class="g3_601"/>
<path d="M435.7,275.5V416.2m0,0h12.8" class="g4_601"/>
<path d="M446.3,419.4L458,416.2l-11.7,-3.1Z" class="g0_601"/>
<path d="M442.7,282.9l-13,13" class="g4_601"/>
<path d="M458.3,403.5h49.8M458.3,427h49.9m54.1,8.2h49.8m-49.8,23.5h49.8M771.2,429H821m-49.8,23.5H821" class="g3_601"/>
<path d="M429.5,442.7v47.8M407.2,443h22.3m-4.6,-5.9l-13,13m17.6,40.2h20.9" class="g4_601"/>
<path d="M448.2,493.5l11.7,-3.2l-11.7,-3.1Z" class="g0_601"/>
<path d="M531.9,415.2v74.9M509.6,415.5h22.3m-4.6,-5.9l-13,13m17.6,67.5h20.9" class="g4_601"/>
<path d="M550.7,493.3l11.6,-3.2L550.7,487Z" class="g0_601"/>
<path d="M685.1,444.8v45M634.6,439.2l-13,13" class="g4_601"/>
<path d="M694,571.6H329.2V539.5H694v32.1Z" class="g0_601"/>
<path d="M694.4,572H328.7V539.1H694.4V572Zm-364.8,-.8h364V540h-364v31.2Z" class="g0_601"/>
<path d="M692.1,568.5H327.3v-32H692.1v32Z" class="g1_601"/>
<path d="M692.1,568.5H327.3v-32H692.1v32Z" class="g6_601"/>
<path d="M692.6,569H326.9V536H692.6v33Zm-364.9,-.9h364V536.9h-364v31.2Z" class="g1_601"/>
<path d="M692.6,569H326.9V536H692.6v33Zm-364.9,-.9h364V536.9h-364v31.2Z" class="g6_601"/>
<path d="M416.6,535.7v34.2m133.3,-34v34.3" class="g2_601"/>
<path d="M685.1,489.8h77.7" class="g4_601"/>
<path d="M760.7,493l11.7,-3.2l-11.7,-3.1Z" class="g0_601"/>
<path d="M613.3,445.7h71.2" class="g4_601"/>
<path d="M328,551.6H307.7m-.2,-61.7v61.7" class="g6_601"/>
<path d="M307.5,489.9l36.4,-.1" class="g4_601"/>
<path d="M341.8,493l11.7,-3.2l-11.7,-3.1Z" class="g0_601"/>
</svg>