<?xml version="1.0" encoding="UTF-8" standalone="no"?>
<!DOCTYPE svg PUBLIC "-//W3C//DTD SVG 1.1//EN"
"http://www.w3.org/Graphics/SVG/1.1/DTD/svg11.dtd">
<svg viewBox="0 0 935 1210" version="1.1" xmlns="http://www.w3.org/2000/svg" xmlns:xlink="http://www.w3.org/1999/xlink">
<defs>
<clipPath id="c0_1341"><path d="M97.3,59.2V41.4h72.1V59.2Z"/></clipPath>
<style type="text/css"><![CDATA[
.g0_1341{
fill: #000;
}
]]></style>
</defs>
<path d="M96.2,62.9v.3H838.7v-.3H96.2Z" class="g0_1341"/>
<path d="M96.2,1114.1h-.1v.4h.1v-.4Z" class="g0_1341"/>
<path d="M838.7,1114.1h.2v.4h-.2v-.4Z" class="g0_1341"/>
<path d="M96.2,1114.1v.4H838.7v-.4H96.2Z" class="g0_1341"/>
<image clip-path="url(#c0_1341)" preserveAspectRatio="none" x="97" y="41" width="72" height="18" xlink:href="img/1.jpg"/>
<path d="M96.6,179.1h-.7V645.9h.7V179.1Z" class="g0_1341"/>
<path d="M311.6,178.4h-.8V576.3h.8V178.4Z" class="g0_1341"/>
<path d="M526.4,178.4h-.7V576.3h.7V178.4Z" class="g0_1341"/>
<path d="M690.2,178.4h-.7V576.3h.7V178.4Z" class="g0_1341"/>
<path d="M839.1,179.1h-.7V645.9h.7V179.1Z" class="g0_1341"/>
<path d="M95.9,178.4v.7H839.1v-.7H95.9Z" class="g0_1341"/>
<path d="M95.9,202.8v.7H839.1v-.7H95.9Z" class="g0_1341"/>
<path d="M310.8,227.2v.8H839.1v-.8H310.8Z" class="g0_1341"/>
<path d="M95.9,251.7v.7H839.1v-.7H95.9Z" class="g0_1341"/>
<path d="M95.9,276.2v.7H839.1v-.7H95.9Z" class="g0_1341"/>
<path d="M95.9,300.6v.7H839.1v-.7H95.9Z" class="g0_1341"/>
<path d="M525.7,325v.8H839.1V325H525.7Z" class="g0_1341"/>
<path d="M525.7,349.5v.7H839.1v-.7H525.7Z" class="g0_1341"/>
<path d="M95.9,373.9v.7H839.1v-.7H95.9Z" class="g0_1341"/>
<path d="M95.9,413.7v.7H839.1v-.7H95.9Z" class="g0_1341"/>
<path d="M95.9,438.1v.7H839.1v-.7H95.9Z" class="g0_1341"/>
<path d="M95.9,462.5v.8H839.1v-.8H95.9Z" class="g0_1341"/>
<path d="M95.9,487v.7H839.1V487H95.9Z" class="g0_1341"/>
<path d="M95.9,511.4v.7H839.1v-.7H95.9Z" class="g0_1341"/>
<path d="M95.9,535.9v.7H839.1v-.7H95.9Z" class="g0_1341"/>
<path d="M95.9,575.6v.7H839.1v-.7H95.9Z" class="g0_1341"/>
<path d="M95.9,645.9v.7H839.1v-.7H95.9Z" class="g0_1341"/>
</svg>