<?xml version="1.0" encoding="UTF-8" standalone="no"?>
<!DOCTYPE svg PUBLIC "-//W3C//DTD SVG 1.1//EN"
"http://www.w3.org/Graphics/SVG/1.1/DTD/svg11.dtd">
<svg viewBox="0 0 935 1210" version="1.1" xmlns="http://www.w3.org/2000/svg" xmlns:xlink="http://www.w3.org/1999/xlink">
<defs>
<style type="text/css"><![CDATA[
.g0_59{
fill: #FFF;
}
.g1_59{
fill: #000;
}
]]></style>
</defs>
<path d="M68.9,1149.3H852.7v-21.2H68.9v21.2Z" class="g0_59"/>
<path d="M67.7,1093.6h.8V124.1h-.8v969.5Z" class="g1_59"/>
<path d="M122.5,1094.3h.7V164.6h-.7v929.7Z" class="g1_59"/>
<path d="M183.4,1094.3h.8V123.4h-.8v970.9Z" class="g1_59"/>
<path d="M418.4,1094.3h.7V123.4h-.7v970.9Z" class="g1_59"/>
<path d="M683.2,1094.3h.7V123.4h-.7v970.9Z" class="g1_59"/>
<path d="M854.2,1093.6h.8V124.1h-.8v969.5Z" class="g1_59"/>
<path d="M67.7,124.1H855v-.7H67.7v.7Z" class="g1_59"/>
<path d="M67.7,165.4H184.2v-.8H67.7v.8Z" class="g1_59"/>
<path d="M67.7,189.8H855v-.7H67.7v.7Z" class="g1_59"/>
<path d="M183.4,231.1H855v-.7H183.4v.7Z" class="g1_59"/>
<path d="M183.4,255.5H855v-.8H183.4v.8Z" class="g1_59"/>
<path d="M183.4,279.9H855v-.7H183.4v.7Z" class="g1_59"/>
<path d="M183.4,321.2H855v-.7H183.4v.7Z" class="g1_59"/>
<path d="M183.4,362.4H855v-.7H183.4v.7Z" class="g1_59"/>
<path d="M183.4,403.7H855V403H183.4v.7Z" class="g1_59"/>
<path d="M183.4,444.9H855v-.7H183.4v.7Z" class="g1_59"/>
<path d="M183.4,469.4H855v-.7H183.4v.7Z" class="g1_59"/>
<path d="M183.4,510.7H855v-.8H183.4v.8Z" class="g1_59"/>
<path d="M183.4,535.2H855v-.8H183.4v.8Z" class="g1_59"/>
<path d="M183.4,559.5H855v-.7H183.4v.7Z" class="g1_59"/>
<path d="M183.4,600.8H855v-.7H183.4v.7Z" class="g1_59"/>
<path d="M183.4,625.3H855v-.8H183.4v.8Z" class="g1_59"/>
<path d="M183.4,666.5H855v-.7H183.4v.7Z" class="g1_59"/>
<path d="M183.4,691H855v-.8H183.4v.8Z" class="g1_59"/>
<path d="M183.4,732.2H855v-.7H183.4v.7Z" class="g1_59"/>
<path d="M183.4,756.6H855v-.7H183.4v.7Z" class="g1_59"/>
<path d="M183.4,797.9H855v-.8H183.4v.8Z" class="g1_59"/>
<path d="M183.4,822.3H855v-.7H183.4v.7Z" class="g1_59"/>
<path d="M183.4,863.6H855v-.7H183.4v.7Z" class="g1_59"/>
<path d="M183.4,904.8H855v-.7H183.4v.7Z" class="g1_59"/>
<path d="M183.4,946.1H855v-.7H183.4v.7Z" class="g1_59"/>
<path d="M183.4,987.3H855v-.7H183.4v.7Z" class="g1_59"/>
<path d="M183.4,1028.6H855v-.7H183.4v.7Z" class="g1_59"/>
<path d="M183.4,1053.1H855v-.8H183.4v.8Z" class="g1_59"/>
<path d="M67.7,1094.3H855v-.7H67.7v.7Z" class="g1_59"/>
</svg>