<?xml version="1.0" encoding="UTF-8" standalone="no"?>
<!DOCTYPE svg PUBLIC "-//W3C//DTD SVG 1.1//EN"
"http://www.w3.org/Graphics/SVG/1.1/DTD/svg11.dtd">
<svg viewBox="0 0 935 1210" version="1.1" xmlns="http://www.w3.org/2000/svg" xmlns:xlink="http://www.w3.org/1999/xlink">
<defs>
<clipPath id="c0_1054"><path d="M97.3,59.2V41.4h72.1V59.2Z"/></clipPath>
<style type="text/css"><![CDATA[
.g0_1054{
fill: #000;
}
]]></style>
</defs>
<path d="M96.2,62.9v.3H838.7v-.3H96.2Z" class="g0_1054"/>
<path d="M96.2,1114.1h-.1v.3h.1v-.3Z" class="g0_1054"/>
<path d="M838.7,1114.1h.2v.3h-.2v-.3Z" class="g0_1054"/>
<path d="M96.2,1114.1v.3H838.7v-.3H96.2Z" class="g0_1054"/>
<image clip-path="url(#c0_1054)" preserveAspectRatio="none" x="97" y="41" width="72" height="18" xlink:href="img/1.jpg"/>
<path d="M96.6,715.3h-.7v45.1h.7V715.3Z" class="g0_1054"/>
<path d="M157.8,714.6H157v46.6h.8V714.6Z" class="g0_1054"/>
<path d="M403.1,715.3h-.7v45.1h.7V715.3Z" class="g0_1054"/>
<path d="M95.9,714.6v.7H403.1v-.7H95.9Z" class="g0_1054"/>
<path d="M95.9,737.5v.8H403.1v-.8H95.9Z" class="g0_1054"/>
<path d="M95.9,760.4v.8H403.1v-.8H95.9Z" class="g0_1054"/>
</svg>