<?xml version="1.0" encoding="UTF-8" standalone="no"?>
<!DOCTYPE svg PUBLIC "-//W3C//DTD SVG 1.1//EN"
"http://www.w3.org/Graphics/SVG/1.1/DTD/svg11.dtd">
<svg viewBox="0 0 935 1210" version="1.1" xmlns="http://www.w3.org/2000/svg" xmlns:xlink="http://www.w3.org/1999/xlink">
<defs>
<style type="text/css"><![CDATA[
.g0_1278{
fill: #FFF;
}
.g1_1278{
fill: #000;
}
]]></style>
</defs>
<path d="M165,1149.3H852.5v-21.2H165v21.2Z" class="g0_1278"/>
<path d="M68.8,1149.3h82.5v-21.2H68.8v21.2Z" class="g0_1278"/>
<path d="M68.6,483.9h.7V125.7h-.7V483.9Z" class="g1_1278"/>
<path d="M294.1,484.7h.7V124.9h-.7V484.7Z" class="g1_1278"/>
<path d="M362.8,484.7h.8V124.9h-.8V484.7Z" class="g1_1278"/>
<path d="M437.3,484.7h.7V124.9h-.7V484.7Z" class="g1_1278"/>
<path d="M521.1,484.7h.8V124.9h-.8V484.7Z" class="g1_1278"/>
<path d="M849.7,483.9h.7V125.7h-.7V483.9Z" class="g1_1278"/>
<path d="M68.6,125.7H850.4v-.8H68.6v.8Z" class="g1_1278"/>
<path d="M68.6,179.1H850.4v-.7H68.6v.7Z" class="g1_1278"/>
<path d="M68.6,218.8H850.4v-.7H68.6v.7Z" class="g1_1278"/>
<path d="M68.6,258.6H850.4v-.7H68.6v.7Z" class="g1_1278"/>
<path d="M68.6,315.1H850.4v-.8H68.6v.8Z" class="g1_1278"/>
<path d="M68.6,371.6H850.4v-.7H68.6v.7Z" class="g1_1278"/>
<path d="M68.6,428.2H850.4v-.8H68.6v.8Z" class="g1_1278"/>
<path d="M68.6,484.7H850.4V484H68.6v.7Z" class="g1_1278"/>
<path d="M68.6,612.2h.7V539.7h-.7v72.5Z" class="g1_1278"/>
<path d="M150,613.1h.7V538.9H150v74.2Z" class="g1_1278"/>
<path d="M250.5,613.1h.8V538.9h-.8v74.2Z" class="g1_1278"/>
<path d="M392.8,613.1h.7V538.9h-.7v74.2Z" class="g1_1278"/>
<path d="M543,613.1h.8V538.9H543v74.2Z" class="g1_1278"/>
<path d="M695.6,613.1h.7V538.9h-.7v74.2Z" class="g1_1278"/>
<path d="M848.1,612.2h.7V539.7h-.7v72.5Z" class="g1_1278"/>
<path d="M68.6,539.7H848.8V539H68.6v.7Z" class="g1_1278"/>
<path d="M68.6,564.1H848.8v-.7H68.6v.7Z" class="g1_1278"/>
<path d="M68.6,588.6H848.8v-.7H68.6v.7Z" class="g1_1278"/>
<path d="M68.6,613.1H848.8v-.8H68.6v.8Z" class="g1_1278"/>
</svg>