<?xml version="1.0" encoding="UTF-8" standalone="no"?>
<!DOCTYPE svg PUBLIC "-//W3C//DTD SVG 1.1//EN"
"http://www.w3.org/Graphics/SVG/1.1/DTD/svg11.dtd">
<svg viewBox="0 0 935 1210" version="1.1" xmlns="http://www.w3.org/2000/svg" xmlns:xlink="http://www.w3.org/1999/xlink">
<defs>
<style type="text/css"><![CDATA[
.g0_295{
fill: #000;
}
]]></style>
</defs>
<path d="M140,517h.3V486.8H140V517Z" class="g0_295"/>
<path d="M794.7,517h.3V486.8h-.3V517Z" class="g0_295"/>
<path d="M140,486.8H795v-.4H140v.4Z" class="g0_295"/>
<path d="M140,517.4H795V517H140v.4Z" class="g0_295"/>
<path d="M102.8,758.2h.7V598.5h-.7V758.2Z" class="g0_295"/>
<path d="M171.5,758.9h.7V629.8h-.7V758.9Z" class="g0_295"/>
<path d="M240.3,758.9h.7V597.8h-.7V758.9Z" class="g0_295"/>
<path d="M570.3,758.9h.7V597.8h-.7V758.9Z" class="g0_295"/>
<path d="M639,758.9h.7V597.8H639V758.9Z" class="g0_295"/>
<path d="M721.5,758.9h.7V597.8h-.7V758.9Z" class="g0_295"/>
<path d="M831.5,758.2h.7V598.5h-.7V758.2Z" class="g0_295"/>
<path d="M102.8,598.5H832.2v-.7H102.8v.7Z" class="g0_295"/>
<path d="M102.8,630.6H241v-.8H102.8v.8Z" class="g0_295"/>
<path d="M103.5,660.7h728V660h-728v.7Z" class="g0_295"/>
<path d="M103.5,664.6h728v-.8h-728v.8Z" class="g0_295"/>
<path d="M102.8,758.9H832.2v-.7H102.8v.7Z" class="g0_295"/>
<path d="M133.7,915.7h.3V885.6h-.3v30.1Z" class="g0_295"/>
<path d="M768,916.1h.3v-31H768v31Z" class="g0_295"/>
<path d="M801,915.7h.4V885.6H801v30.1Z" class="g0_295"/>
<path d="M133.7,885.5H801.4v-.4H133.7v.4Z" class="g0_295"/>
<path d="M133.7,916.1H801.4v-.4H133.7v.4Z" class="g0_295"/>
</svg>