<?xml version="1.0" encoding="UTF-8" standalone="no"?>
<!DOCTYPE svg PUBLIC "-//W3C//DTD SVG 1.1//EN"
"http://www.w3.org/Graphics/SVG/1.1/DTD/svg11.dtd">
<svg viewBox="0 0 935 1210" version="1.1" xmlns="http://www.w3.org/2000/svg" xmlns:xlink="http://www.w3.org/1999/xlink">
<defs>
<clipPath id="c0_1672"><path d="M766.6,59.2V41.4h72.1V59.2Z"/></clipPath>
<style type="text/css"><![CDATA[
.g0_1672{
fill: #000;
}
]]></style>
</defs>
<path d="M97.3,62.9v.3H839.9v-.3H97.3Z" class="g0_1672"/>
<path d="M96.2,1114.1h-.1v.4h.1v-.4Z" class="g0_1672"/>
<path d="M838.7,1114.1h.2v.4h-.2v-.4Z" class="g0_1672"/>
<path d="M96.2,1114.1v.4H838.7v-.4H96.2Z" class="g0_1672"/>
<image clip-path="url(#c0_1672)" preserveAspectRatio="none" x="767" y="41" width="72" height="18" xlink:href="img/1.jpg"/>
<path d="M96.6,873.8h-.7V978.9h.7V873.8Z" class="g0_1672"/>
<path d="M262,870.8h-.8V979.7h.8V870.8Z" class="g0_1672"/>
<path d="M301.7,870.8h-.8V979.7h.8V870.8Z" class="g0_1672"/>
<path d="M355.2,870.8h-.7V979.7h.7V870.8Z" class="g0_1672"/>
<path d="M429.1,870.8h-.8V979.7h.8V870.8Z" class="g0_1672"/>
<path d="M844.8,873.8H844V978.9h.8V873.8Z" class="g0_1672"/>
<path d="M95.9,870.9v3H844.8v-3H95.9Z" class="g0_1672"/>
<path d="M95.9,913.6v3H844.8v-3H95.9Z" class="g0_1672"/>
<path d="M95.9,939.2v.7H844.8v-.7H95.9Z" class="g0_1672"/>
<path d="M95.9,978.9v.7H844.8v-.7H95.9Z" class="g0_1672"/>
</svg>