<?xml version="1.0" encoding="UTF-8" standalone="no"?>
<!DOCTYPE svg PUBLIC "-//W3C//DTD SVG 1.1//EN"
"http://www.w3.org/Graphics/SVG/1.1/DTD/svg11.dtd">
<svg viewBox="0 0 935 1210" version="1.1" xmlns="http://www.w3.org/2000/svg" xmlns:xlink="http://www.w3.org/1999/xlink">
<defs>
<style type="text/css"><![CDATA[
.g0_1167{
fill: #FFF;
}
.g1_1167{
fill: #000;
}
]]></style>
</defs>
<path d="M68.9,1149.3H755.2v-21.2H68.9v21.2Z" class="g0_1167"/>
<path d="M771.3,1149.3H855v-21.2H771.3v21.2Z" class="g0_1167"/>
<path d="M69.9,340.4h.8V125.7h-.8V340.4Z" class="g1_1167"/>
<path d="M263.7,341.1h.8V124.9h-.8V341.1Z" class="g1_1167"/>
<path d="M329,341.1h.7V124.9H329V341.1Z" class="g1_1167"/>
<path d="M403.5,341.1h.8V124.9h-.8V341.1Z" class="g1_1167"/>
<path d="M494.5,341.1h.8V124.9h-.8V341.1Z" class="g1_1167"/>
<path d="M855.9,340.4h.7V125.7h-.7V340.4Z" class="g1_1167"/>
<path d="M69.9,125.7H856.6v-.8H69.9v.8Z" class="g1_1167"/>
<path d="M69.9,182.1H856.6v-.7H69.9v.7Z" class="g1_1167"/>
<path d="M69.9,221.9H856.6v-.7H69.9v.7Z" class="g1_1167"/>
<path d="M69.9,261.6H856.6v-.7H69.9v.7Z" class="g1_1167"/>
<path d="M69.9,301.3H856.6v-.7H69.9v.7Z" class="g1_1167"/>
<path d="M69.9,341.1H856.6v-.7H69.9v.7Z" class="g1_1167"/>
<path d="M69.9,444.2h.8V396.1h-.8v48.1Z" class="g1_1167"/>
<path d="M157.8,444.9h.7V395.4h-.7v49.5Z" class="g1_1167"/>
<path d="M369.7,444.9h.7V395.4h-.7v49.5Z" class="g1_1167"/>
<path d="M625.5,444.9h.8V395.4h-.8v49.5Z" class="g1_1167"/>
<path d="M853.5,444.2h.7V396.1h-.7v48.1Z" class="g1_1167"/>
<path d="M69.9,396.1H854.2v-.7H69.9v.7Z" class="g1_1167"/>
<path d="M69.9,420.6H854.2v-.8H69.9v.8Z" class="g1_1167"/>
<path d="M69.9,444.9H854.2v-.7H69.9v.7Z" class="g1_1167"/>
</svg>