<?xml version="1.0" encoding="UTF-8" standalone="no"?>
<!DOCTYPE svg PUBLIC "-//W3C//DTD SVG 1.1//EN"
"http://www.w3.org/Graphics/SVG/1.1/DTD/svg11.dtd">
<svg viewBox="0 0 935 1210" version="1.1" xmlns="http://www.w3.org/2000/svg" xmlns:xlink="http://www.w3.org/1999/xlink">
<defs>
<style type="text/css"><![CDATA[
.g0_174{
fill: #FFF;
}
.g1_174{
fill: #000;
}
]]></style>
</defs>
<path d="M68.8,1149.3H852.5v-21.2H68.8v21.2Z" class="g0_174"/>
<path d="M68.6,1061.5h.7V124.1h-.7v937.4Z" class="g1_174"/>
<path d="M125.3,1062.2h.7V164.6h-.7v897.6Z" class="g1_174"/>
<path d="M182.1,1062.2h.7V123.4h-.7v938.8Z" class="g1_174"/>
<path d="M425.7,1062.2h.7V123.4h-.7v938.8Z" class="g1_174"/>
<path d="M518.8,1062.2h.8V123.4h-.8v938.8Z" class="g1_174"/>
<path d="M853,1061.5h.8V124.1H853v937.4Z" class="g1_174"/>
<path d="M68.6,124.1H853.8v-.7H68.6v.7Z" class="g1_174"/>
<path d="M68.6,165.4H182.8v-.8H68.6v.8Z" class="g1_174"/>
<path d="M68.6,189.8H853.8v-.7H68.6v.7Z" class="g1_174"/>
<path d="M68.6,214.2H853.8v-.7H68.6v.7Z" class="g1_174"/>
<path d="M68.6,238.7H853.8V238H68.6v.7Z" class="g1_174"/>
<path d="M68.6,263.2H853.8v-.8H68.6v.8Z" class="g1_174"/>
<path d="M68.6,287.6H853.8v-.8H68.6v.8Z" class="g1_174"/>
<path d="M68.6,312H853.8v-.7H68.6v.7Z" class="g1_174"/>
<path d="M68.6,336.5H853.8v-.7H68.6v.7Z" class="g1_174"/>
<path d="M68.6,360.9H853.8v-.7H68.6v.7Z" class="g1_174"/>
<path d="M68.6,385.4H853.8v-.8H68.6v.8Z" class="g1_174"/>
<path d="M68.6,409.8H853.8v-.7H68.6v.7Z" class="g1_174"/>
<path d="M68.6,434.3H853.8v-.7H68.6v.7Z" class="g1_174"/>
<path d="M68.6,458.7H853.8V458H68.6v.7Z" class="g1_174"/>
<path d="M68.6,483.2H853.8v-.8H68.6v.8Z" class="g1_174"/>
<path d="M68.6,507.7H853.8v-.8H68.6v.8Z" class="g1_174"/>
<path d="M68.6,532H853.8v-.7H68.6v.7Z" class="g1_174"/>
<path d="M68.6,556.5H853.8v-.7H68.6v.7Z" class="g1_174"/>
<path d="M68.6,581H853.8v-.8H68.6v.8Z" class="g1_174"/>
<path d="M68.6,605.4H853.8v-.8H68.6v.8Z" class="g1_174"/>
<path d="M68.6,629.8H853.8v-.7H68.6v.7Z" class="g1_174"/>
<path d="M68.6,654.3H853.8v-.7H68.6v.7Z" class="g1_174"/>
<path d="M68.6,678.7H853.8V678H68.6v.7Z" class="g1_174"/>
<path d="M68.6,703.2H853.8v-.8H68.6v.8Z" class="g1_174"/>
<path d="M68.6,727.7H853.8v-.8H68.6v.8Z" class="g1_174"/>
<path d="M68.6,752H853.8v-.7H68.6v.7Z" class="g1_174"/>
<path d="M68.6,793.3H853.8v-.8H68.6v.8Z" class="g1_174"/>
<path d="M68.6,817.8H853.8V817H68.6v.8Z" class="g1_174"/>
<path d="M68.6,842.2H853.8v-.7H68.6v.7Z" class="g1_174"/>
<path d="M68.6,866.6H853.8v-.7H68.6v.7Z" class="g1_174"/>
<path d="M68.6,891.1H853.8v-.7H68.6v.7Z" class="g1_174"/>
<path d="M68.6,915.6H853.8v-.8H68.6v.8Z" class="g1_174"/>
<path d="M68.6,940H853.8v-.8H68.6v.8Z" class="g1_174"/>
<path d="M68.6,964.4H853.8v-.7H68.6v.7Z" class="g1_174"/>
<path d="M68.6,988.9H853.8v-.7H68.6v.7Z" class="g1_174"/>
<path d="M68.6,1013.3H853.8v-.7H68.6v.7Z" class="g1_174"/>
<path d="M68.6,1037.8H853.8v-.8H68.6v.8Z" class="g1_174"/>
<path d="M68.6,1062.2H853.8v-.7H68.6v.7Z" class="g1_174"/>
</svg>