<?xml version="1.0" encoding="UTF-8" standalone="no"?>
<!DOCTYPE svg PUBLIC "-//W3C//DTD SVG 1.1//EN"
"http://www.w3.org/Graphics/SVG/1.1/DTD/svg11.dtd">
<svg viewBox="0 0 935 1210" version="1.1" xmlns="http://www.w3.org/2000/svg" xmlns:xlink="http://www.w3.org/1999/xlink">
<defs>
<style type="text/css"><![CDATA[
.g0_233{
fill: #FFF;
}
.g1_233{
fill: #000;
}
]]></style>
</defs>
<path d="M68.9,1149.3H852.7v-21.2H68.9v21.2Z" class="g0_233"/>
<path d="M69.9,1011.1h.8V142.4h-.8v868.7Z" class="g1_233"/>
<path d="M126.7,1011.8h.7V183h-.7v828.8Z" class="g1_233"/>
<path d="M183.4,1011.8h.8V141.7h-.8v870.1Z" class="g1_233"/>
<path d="M426.2,1011.8h.7V141.7h-.7v870.1Z" class="g1_233"/>
<path d="M519.3,1011.8h.7V141.7h-.7v870.1Z" class="g1_233"/>
<path d="M850.8,1011.1h.7V142.4h-.7v868.7Z" class="g1_233"/>
<path d="M69.9,142.4H851.5v-.7H69.9v.7Z" class="g1_233"/>
<path d="M69.9,183.7H184.2V183H69.9v.7Z" class="g1_233"/>
<path d="M69.9,208.2H851.5v-.8H69.9v.8Z" class="g1_233"/>
<path d="M69.9,232.6H520v-.8H69.9v.8Z" class="g1_233"/>
<path d="M69.9,257H520v-.7H69.9v.7Z" class="g1_233"/>
<path d="M69.9,281.5H520v-.7H69.9v.7Z" class="g1_233"/>
<path d="M69.9,309H851.5v-.7H69.9v.7Z" class="g1_233"/>
<path d="M69.9,333.4H520v-.7H69.9v.7Z" class="g1_233"/>
<path d="M69.9,357.9H520v-.8H69.9v.8Z" class="g1_233"/>
<path d="M69.9,382.3H520v-.7H69.9v.7Z" class="g1_233"/>
<path d="M69.9,409.8H851.5v-.7H69.9v.7Z" class="g1_233"/>
<path d="M69.9,434.3H520v-.7H69.9v.7Z" class="g1_233"/>
<path d="M69.9,458.7H520V458H69.9v.7Z" class="g1_233"/>
<path d="M69.9,483.2H520v-.8H69.9v.8Z" class="g1_233"/>
<path d="M69.9,510.7H851.5v-.8H69.9v.8Z" class="g1_233"/>
<path d="M69.9,535.2H520v-.8H69.9v.8Z" class="g1_233"/>
<path d="M69.9,559.5H520v-.7H69.9v.7Z" class="g1_233"/>
<path d="M69.9,584H520v-.7H69.9v.7Z" class="g1_233"/>
<path d="M69.9,611.5H851.5v-.7H69.9v.7Z" class="g1_233"/>
<path d="M69.9,636H851.5v-.8H69.9v.8Z" class="g1_233"/>
<path d="M69.9,660.4H520v-.8H69.9v.8Z" class="g1_233"/>
<path d="M69.9,684.8H520v-.7H69.9v.7Z" class="g1_233"/>
<path d="M69.9,709.3H851.5v-.7H69.9v.7Z" class="g1_233"/>
<path d="M69.9,733.7H520V733H69.9v.7Z" class="g1_233"/>
<path d="M69.9,758.2H520v-.8H69.9v.8Z" class="g1_233"/>
<path d="M69.9,782.7H520v-.8H69.9v.8Z" class="g1_233"/>
<path d="M69.9,810.2H851.5v-.8H69.9v.8Z" class="g1_233"/>
<path d="M69.9,834.5H520v-.7H69.9v.7Z" class="g1_233"/>
<path d="M69.9,859H520v-.7H69.9v.7Z" class="g1_233"/>
<path d="M69.9,883.5H520v-.8H69.9v.8Z" class="g1_233"/>
<path d="M69.9,911H851.5v-.8H69.9v.8Z" class="g1_233"/>
<path d="M69.9,935.4H520v-.8H69.9v.8Z" class="g1_233"/>
<path d="M69.9,959.8H520v-.7H69.9v.7Z" class="g1_233"/>
<path d="M69.9,984.3H520v-.7H69.9v.7Z" class="g1_233"/>
<path d="M69.9,1011.8H851.5v-.7H69.9v.7Z" class="g1_233"/>
</svg>