<?xml version="1.0" encoding="UTF-8" standalone="no"?>
<!DOCTYPE svg PUBLIC "-//W3C//DTD SVG 1.1//EN"
"http://www.w3.org/Graphics/SVG/1.1/DTD/svg11.dtd">
<svg viewBox="0 0 935 1210" version="1.1" xmlns="http://www.w3.org/2000/svg" xmlns:xlink="http://www.w3.org/1999/xlink">
<defs>
<clipPath id="c0_3325"><path d="M766.6,59.2V41.4h72.2V59.2Z"/></clipPath>
<style type="text/css"><![CDATA[
.g0_3325{
fill: #000;
}
]]></style>
</defs>
<path d="M97.4,63.3H839.9v-.4H97.4v.4Z" class="g0_3325"/>
<path d="M96.1,1114.5h.2v-.4h-.2v.4Z" class="g0_3325"/>
<path d="M96.3,1114.5H838.9v-.4H96.3v.4Z" class="g0_3325"/>
<image clip-path="url(#c0_3325)" preserveAspectRatio="none" x="767" y="41" width="72" height="18" xlink:href="img/1.jpg"/>
<path d="M95.1,833.5h.8v-241h-.8v241Z" class="g0_3325"/>
<path d="M266.5,805.3h.7V589.5h-.7V805.3Z" class="g0_3325"/>
<path d="M342.4,805.3h.7V589.5h-.7V805.3Z" class="g0_3325"/>
<path d="M838.4,833.5h.7v-241h-.7v241Z" class="g0_3325"/>
<path d="M95.1,592.5h744v-3H95.1v3Z" class="g0_3325"/>
<path d="M95.1,623.2h744v-3.1H95.1v3.1Z" class="g0_3325"/>
<path d="M95.1,652.5h744v-.8H95.1v.8Z" class="g0_3325"/>
<path d="M266.5,683H839.1v-.7H266.5v.7Z" class="g0_3325"/>
<path d="M266.5,713.6H839.1v-.7H266.5v.7Z" class="g0_3325"/>
<path d="M266.5,744.1H839.1v-.7H266.5v.7Z" class="g0_3325"/>
<path d="M95.1,774.7h744v-.8H95.1v.8Z" class="g0_3325"/>
<path d="M95.1,805.3h744v-.7H95.1v.7Z" class="g0_3325"/>
<path d="M95.1,834.3h744v-.8H95.1v.8Z" class="g0_3325"/>
</svg>