<?xml version="1.0" encoding="UTF-8" standalone="no"?>
<!DOCTYPE svg PUBLIC "-//W3C//DTD SVG 1.1//EN"
"http://www.w3.org/Graphics/SVG/1.1/DTD/svg11.dtd">
<svg viewBox="0 0 935 1210" version="1.1" xmlns="http://www.w3.org/2000/svg" xmlns:xlink="http://www.w3.org/1999/xlink">
<defs>
<style type="text/css"><![CDATA[
.g0_1957{
fill: #FFF;
}
.g1_1957{
fill: #000;
}
]]></style>
</defs>
<path d="M68.9,1149.3H755.2v-21.2H68.9v21.2Z" class="g0_1957"/>
<path d="M771.3,1149.3H855v-21.2H771.3v21.2Z" class="g0_1957"/>
<path d="M95.3,518h.8V339.5h-.8V518Z" class="g1_1957"/>
<path d="M826.7,518h.7V339.5h-.7V518Z" class="g1_1957"/>
<path d="M95.3,339.5H827.4v-.7H95.3v.7Z" class="g1_1957"/>
<path d="M95.3,518.7H827.4V518H95.3v.7Z" class="g1_1957"/>
<path d="M100.9,790.1h.8V622.7h-.8V790.1Z" class="g1_1957"/>
<path d="M821.1,790.1h.7V622.7h-.7V790.1Z" class="g1_1957"/>
<path d="M100.9,622.6H821.8v-.7H100.9v.7Z" class="g1_1957"/>
<path d="M100.9,790.8H821.8v-.7H100.9v.7Z" class="g1_1957"/>
<path d="M252.9,497.3H366.3V476.7H252.9v20.6Z" class="g0_1957"/>
<path d="M252.9,477H366.7v-.7H252.9v.7Z" class="g1_1957"/>
<path d="M365.9,497.7h.8v-21h-.8v21Z" class="g1_1957"/>
<path d="M252.5,497.7H366.3v-.8H252.5v.8Z" class="g1_1957"/>
<path d="M252.5,497.3h.8v-21h-.8v21Z" class="g1_1957"/>
<path d="M366.3,497.3H479.8V476.7H366.3v20.6Z" class="g0_1957"/>
<path d="M366.3,477H480.2v-.7H366.3v.7Z" class="g1_1957"/>
<path d="M479.4,497.7h.8v-21h-.8v21Z" class="g1_1957"/>
<path d="M365.9,497.7H479.8v-.8H365.9v.8Z" class="g1_1957"/>
<path d="M365.9,497.3h.8v-21h-.8v21Z" class="g1_1957"/>
<path d="M479.8,497.3H593.2V476.7H479.8v20.6Z" class="g0_1957"/>
<path d="M479.8,477H593.5v-.7H479.8v.7Z" class="g1_1957"/>
<path d="M592.8,497.7h.7v-21h-.7v21Z" class="g1_1957"/>
<path d="M479.4,497.7H593.2v-.8H479.4v.8Z" class="g1_1957"/>
<path d="M479.4,497.3h.8v-21h-.8v21Z" class="g1_1957"/>
<path d="M593.2,497.3H706.7V476.7H593.2v20.6Z" class="g0_1957"/>
<path d="M593.2,477H707v-.7H593.2v.7Z" class="g1_1957"/>
<path d="M706.3,497.7h.7v-21h-.7v21Z" class="g1_1957"/>
<path d="M592.8,497.7H706.7v-.8H592.8v.8Z" class="g1_1957"/>
<path d="M592.8,497.3h.7v-21h-.7v21Z" class="g1_1957"/>
<path d="M252.9,394.2H366.3V373.5H252.9v20.7Z" class="g0_1957"/>
<path d="M252.9,373.9H366.7v-.7H252.9v.7Z" class="g1_1957"/>
<path d="M365.9,394.5h.8v-21h-.8v21Z" class="g1_1957"/>
<path d="M252.5,394.5H366.3v-.7H252.5v.7Z" class="g1_1957"/>
<path d="M252.5,394.2h.8v-21h-.8v21Z" class="g1_1957"/>
<path d="M366.3,394.2H479.8V373.5H366.3v20.7Z" class="g0_1957"/>
<path d="M366.3,373.9H480.2v-.7H366.3v.7Z" class="g1_1957"/>
<path d="M479.4,394.5h.8v-21h-.8v21Z" class="g1_1957"/>
<path d="M365.9,394.5H479.8v-.7H365.9v.7Z" class="g1_1957"/>
<path d="M365.9,394.2h.8v-21h-.8v21Z" class="g1_1957"/>
<path fill-rule="evenodd" d="M554.9,455.6l.5,.2c1.6,.2,2.3,-1.7,1.3,-2.6l-.6,-.4c-1.3,-.5,-2.6,1.2,-1.7,2.3l.2,.3l.3,.2Z" class="g1_1957"/>
<path d="M555.6,454.3l5.6,3.5l.8,.6l-.7,.7L543.6,475l-1.9,1.8l.7,-2.6l6.5,-22.9l.3,-1l.8,.5l.4,.9l-6.5,22.9l-1.5,-.4l.2,-.4l17.7,-15.9l1,1.2l-.9,.1l-5.6,-3.5Z" class="g1_1957"/>
<path d="M550,450.8l5.6,3.5l-.8,1.4l-5.6,-3.5Z" class="g1_1957"/>
<path fill-rule="evenodd" d="M555.2,454.9l5.6,3.5l-17.7,16l6.5,-22.9Z" class="g1_1957"/>
<path d="M594.5,395l-2.6,-1.6l-37.5,60.2l2.6,1.5Z" class="g1_1957"/>
<path fill-rule="evenodd" d="M413.2,456.8l.3,-.2l.2,-.3c.6,-1.4,-.6,-2.7,-2,-2.2l-.3,.2l-.2,.2c-1,1.1,0,2.8,1.5,2.6l.3,-.1l.2,-.2Z" class="g1_1957"/>
<path d="M412.3,455.6l5.3,-4l.9,-.5l.3,.9l8.5,22.3l1,2.5l-2.2,-1.7l-19,-14.4l-.8,-.6l.8,-.6h.9l19,14.4l-.9,1.2l-.3,-.4l-8.4,-22.2l1.4,-.5l-.3,.8l-5.3,4Z" class="g1_1957"/>
<path d="M407.1,459.5l5.2,-3.9l.9,1.2l-5.2,3.9Z" class="g1_1957"/>
<path fill-rule="evenodd" d="M412.8,456.1l5.3,-3.9l8.4,22.3l-19,-14.4Z" class="g1_1957"/>
<path d="M367.5,393.3l-2.4,1.8l46,61.3l2.4,-1.8Z" class="g1_1957"/>
<path d="M479.8,394.2H593.2V373.5H479.8v20.7Z" class="g0_1957"/>
<path d="M479.8,373.9H593.5v-.7H479.8v.7Z" class="g1_1957"/>
<path d="M592.8,394.5h.7v-21h-.7v21Z" class="g1_1957"/>
<path d="M479.4,394.5H593.2v-.7H479.4v.7Z" class="g1_1957"/>
<path d="M479.4,394.2h.8v-21h-.8v21Z" class="g1_1957"/>
<path d="M593.2,394.2H706.7V373.5H593.2v20.7Z" class="g0_1957"/>
<path d="M593.2,373.9H707v-.7H593.2v.7Z" class="g1_1957"/>
<path d="M706.3,394.5h.7v-21h-.7v21Z" class="g1_1957"/>
<path d="M592.8,394.5H706.7v-.7H592.8v.7Z" class="g1_1957"/>
<path d="M592.8,394.2h.7v-21h-.7v21Z" class="g1_1957"/>
<path fill-rule="evenodd" d="M640.1,456.8l.3,-.2l.2,-.3c.6,-1.4,-.6,-2.7,-2,-2.2l-.3,.2l-.2,.2c-.9,1.2,-.1,2.7,1.5,2.6l.2,-.1l.3,-.2Z" class="g1_1957"/>
<path d="M639.2,455.6l5.3,-4l.9,-.5l.3,.9l8.4,22.3l1,2.5l-2.2,-1.7L634,460.7l-.9,-.6l.9,-.6h.9l19,14.4l-1,1.2l-.2,-.4l-8.5,-22.2l1.5,-.5l-.3,.8l-5.3,4Z" class="g1_1957"/>
<path d="M634,459.5l5.2,-3.9l.9,1.2l-5.2,3.9Z" class="g1_1957"/>
<path fill-rule="evenodd" d="M639.6,456.1l5.4,-3.9l8.4,22.3l-19,-14.4Z" class="g1_1957"/>
<path d="M594.4,393.3l-2.4,1.8l46,61.3l2.4,-1.8Z" class="g1_1957"/>
<path fill-rule="evenodd" d="M328,455.6l.5,.2c1.6,.2,2.4,-1.7,1.3,-2.6l-.5,-.4c-1.5,-.5,-2.6,1.2,-1.8,2.3l.2,.3l.3,.2Z" class="g1_1957"/>
<path d="M328.7,454.3l5.6,3.5l.8,.6l-.7,.7L316.7,475l-1.9,1.8l.7,-2.6L322,451.3l.3,-1l.8,.5l.4,.9L317,474.6l-1.5,-.4l.2,-.4l17.7,-15.9l1,1.2l-.9,.1l-5.6,-3.5Z" class="g1_1957"/>
<path d="M323.1,450.8l5.6,3.5l-.8,1.4l-5.6,-3.5Z" class="g1_1957"/>
<path fill-rule="evenodd" d="M328.4,454.9l5.5,3.5l-17.6,16l6.5,-22.9Z" class="g1_1957"/>
<path d="M367.6,395L365,393.4l-37.5,60.2l2.6,1.5Z" class="g1_1957"/>
<path d="M687.3,732.2h26.3V678H687.3v54.2Z" class="g0_1957"/>
<path d="M687.3,678.8h27.2v-1.6H687.3v1.6Z" class="g1_1957"/>
<path d="M712.9,733.1h1.5V678h-1.5v55.1Z" class="g1_1957"/>
<path d="M686.6,733.1h27v-1.6h-27v1.6Z" class="g1_1957"/>
<path d="M686.6,732.2h1.5v-55h-1.5v55Z" class="g1_1957"/>
<path d="M181.9,732.6H291.1v-55H181.9v55Z" class="g0_1957"/>
<path d="M181.9,678H291.5v-.8H181.9v.8Z" class="g1_1957"/>
<path d="M290.8,733h.7V677.6h-.7V733Z" class="g1_1957"/>
<path d="M181.5,733H291.1v-.8H181.5v.8Z" class="g1_1957"/>
<path d="M181.5,732.6h.7V677.2h-.7v55.4Z" class="g1_1957"/>
<path d="M714.1,732.6H743v-55H714.1v55Z" class="g0_1957"/>
<path d="M714.1,678.4h29.8v-1.5H714.1v1.5Z" class="g1_1957"/>
<path d="M742.3,733.4h1.6V677.6h-1.6v55.8Z" class="g1_1957"/>
<path d="M713.4,733.4h29.7v-1.5H713.4v1.5Z" class="g1_1957"/>
<path d="M713.4,732.6h1.5V676.9h-1.5v55.7Z" class="g1_1957"/>
<path d="M520.8,732.2h26.3V678H520.8v54.2Z" class="g0_1957"/>
<path d="M520.8,678.8h27.1v-1.6H520.8v1.6Z" class="g1_1957"/>
<path d="M546.3,733.1h1.6V678h-1.6v55.1Z" class="g1_1957"/>
<path d="M520,733.1h27.1v-1.6H520v1.6Z" class="g1_1957"/>
<path d="M520,732.2h1.6v-55H520v55Z" class="g1_1957"/>
<path d="M547.5,732.6h29v-55h-29v55Z" class="g0_1957"/>
<path d="M547.5,678.4h29.8v-1.5H547.5v1.5Z" class="g1_1957"/>
<path d="M575.8,733.4h1.5V677.6h-1.5v55.8Z" class="g1_1957"/>
<path d="M546.8,733.4h29.7v-1.5H546.8v1.5Z" class="g1_1957"/>
<path d="M546.8,732.6h1.5V676.9h-1.5v55.7Z" class="g1_1957"/>
<path d="M293.2,732.2h26.2V678H293.2v54.2Z" class="g0_1957"/>
<path d="M293.2,678.8h27v-1.6h-27v1.6Z" class="g1_1957"/>
<path d="M318.6,733.1h1.6V678h-1.6v55.1Z" class="g1_1957"/>
<path d="M292.4,733.1h27v-1.6h-27v1.6Z" class="g1_1957"/>
<path d="M292.4,732.2H294v-55h-1.6v55Z" class="g1_1957"/>
<path d="M319.8,732.6h29.1v-55H319.8v55Z" class="g0_1957"/>
<path d="M319.8,678.4h29.9v-1.5H319.8v1.5Z" class="g1_1957"/>
<path d="M348.2,733.4h1.5V677.6h-1.5v55.8Z" class="g1_1957"/>
<path d="M319.1,733.4h29.8v-1.5H319.1v1.5Z" class="g1_1957"/>
<path d="M319.1,732.6h1.6V676.9h-1.6v55.7Z" class="g1_1957"/>
<path d="M410.3,731.8H519.6v-55H410.3v55Z" class="g0_1957"/>
<path d="M410.3,677.1H519.9v-.7H410.3v.7Z" class="g1_1957"/>
<path d="M519.2,732.1h.7V676.8h-.7v55.3Z" class="g1_1957"/>
<path d="M409.9,732.1H519.6v-.7H409.9v.7Z" class="g1_1957"/>
<path d="M409.9,731.8h.8V676.4h-.8v55.4Z" class="g1_1957"/>
<path d="M576,732.6H685.3v-55H576v55Z" class="g0_1957"/>
<path d="M576,678H685.7v-.8H576v.8Z" class="g1_1957"/>
<path d="M684.9,733h.8V677.6h-.8V733Z" class="g1_1957"/>
<path d="M575.7,733H685.3v-.8H575.7v.8Z" class="g1_1957"/>
<path d="M575.7,732.6h.7V677.2h-.7v55.4Z" class="g1_1957"/>
</svg>