<?xml version="1.0" encoding="UTF-8" standalone="no"?>
<!DOCTYPE svg PUBLIC "-//W3C//DTD SVG 1.1//EN"
"http://www.w3.org/Graphics/SVG/1.1/DTD/svg11.dtd">
<svg viewBox="0 0 935 1210" version="1.1" xmlns="http://www.w3.org/2000/svg" xmlns:xlink="http://www.w3.org/1999/xlink">
<defs>
<style type="text/css"><![CDATA[
.g0_571{
fill: #FFF;
}
.g1_571{
fill: #E6E6E6;
}
.g2_571{
fill: #000;
}
]]></style>
</defs>
<path d="M68.9,1149.3H755.2v-21.2H68.9v21.2Z" class="g0_571"/>
<path d="M771.3,1149.3H855v-21.2H771.3v21.2Z" class="g0_571"/>
<path d="M70.9,640.2h88.8V615.7H70.9v24.5Z" class="g1_571"/>
<path d="M514.8,640.2h44.5V615.7H514.8v24.5Z" class="g1_571"/>
<path d="M426.1,664.6h88.7V640.2H426.1v24.4Z" class="g1_571"/>
<path d="M70.9,689.1H337.2V664.6H70.9v24.5Z" class="g1_571"/>
<path d="M70.9,713.5H337.2V689.1H70.9v24.4Z" class="g1_571"/>
<path d="M70.9,737.9H337.2V713.5H70.9v24.4Z" class="g1_571"/>
<path d="M70.9,762.4H337.2V737.9H70.9v24.5Z" class="g1_571"/>
<path d="M70.9,786.9H337.2V762.4H70.9v24.5Z" class="g1_571"/>
<path d="M70.9,811.3H337.2V786.9H70.9v24.4Z" class="g1_571"/>
<path d="M70.9,835.7H337.2V811.3H70.9v24.4Z" class="g1_571"/>
<path d="M70.9,860.2H337.2V835.7H70.9v24.5Z" class="g1_571"/>
<path d="M70.9,1080.2H792.6v-24.5H70.9v24.5Z" class="g1_571"/>
<path d="M69.9,251.7h.8v-126h-.8v126Z" class="g2_571"/>
<path d="M390.3,252.4h.7V124.9h-.7V252.4Z" class="g2_571"/>
<path d="M428.2,252.4h.7V124.9h-.7V252.4Z" class="g2_571"/>
<path d="M501.6,252.4h.7V124.9h-.7V252.4Z" class="g2_571"/>
<path d="M572.9,252.4h.8V124.9h-.8V252.4Z" class="g2_571"/>
<path d="M851.2,251.7h.7v-126h-.7v126Z" class="g2_571"/>
<path d="M69.9,125.7H852v-.8H69.9v.8Z" class="g2_571"/>
<path d="M69.9,163.8H852v-.7H69.9v.7Z" class="g2_571"/>
<path d="M69.9,208.2H852v-.8H69.9v.8Z" class="g2_571"/>
<path d="M69.9,252.4H852v-.7H69.9v.7Z" class="g2_571"/>
<path d="M69.9,355.6h.8V307.4h-.8v48.2Z" class="g2_571"/>
<path d="M140.3,356.4h.7V306.7h-.7v49.7Z" class="g2_571"/>
<path d="M311,356.4h.8V306.7H311v49.7Z" class="g2_571"/>
<path d="M488.5,356.4h.7V306.7h-.7v49.7Z" class="g2_571"/>
<path d="M668.9,356.4h.7V306.7h-.7v49.7Z" class="g2_571"/>
<path d="M851,355.6h.8V307.4H851v48.2Z" class="g2_571"/>
<path d="M69.9,307.4H851.8v-.7H69.9v.7Z" class="g2_571"/>
<path d="M69.9,331.9H851.8v-.7H69.9v.7Z" class="g2_571"/>
<path d="M69.9,356.3H851.8v-.7H69.9v.7Z" class="g2_571"/>
<path d="M69.8,614.5h2.3V592.4H69.8v22.1Z" class="g2_571"/>
<path d="M70.5,639.7h.7V616.8h-.7v22.9Z" class="g2_571"/>
<path d="M70.5,1055.4h.7V640.6h-.7v414.8Z" class="g2_571"/>
<path d="M70.5,1079.8h.7v-23.7h-.7v23.7Z" class="g2_571"/>
<path d="M159.3,616.8h.8V590.2h-.8v26.6Z" class="g2_571"/>
<path d="M159.3,640.6h.8V614.5h-.8v26.1Z" class="g2_571"/>
<path d="M248.1,664.9h.8V590.2h-.8v74.7Z" class="g2_571"/>
<path d="M336.9,616.8h.7V590.2h-.7v26.6Z" class="g2_571"/>
<path d="M336.9,860.6h.7V664.2h-.7V860.6Z" class="g2_571"/>
<path d="M425.7,664.9h.7V590.2h-.7v74.7Z" class="g2_571"/>
<path d="M514.4,616.8h.8V590.2h-.8v26.6Z" class="g2_571"/>
<path d="M514.4,640.6h.8V614.5h-.8v26.1Z" class="g2_571"/>
<path d="M514.4,664.9h.8V639.7h-.8v25.2Z" class="g2_571"/>
<path d="M558.9,616.8h.7V590.2h-.7v26.6Z" class="g2_571"/>
<path d="M558.9,640.6h.7V614.5h-.7v26.1Z" class="g2_571"/>
<path d="M614.7,664.9h.7V590.2h-.7v74.7Z" class="g2_571"/>
<path d="M703.5,640.6h.7V590.2h-.7v50.4Z" class="g2_571"/>
<path d="M792.3,616.8h.7V590.2h-.7v26.6Z" class="g2_571"/>
<path d="M791.5,1080.6h2.3V614.5h-2.3v466.1Z" class="g2_571"/>
<path d="M850.8,1079.8H853V592.4h-2.2v487.4Z" class="g2_571"/>
<path d="M69.8,592.4H853v-2.2H69.8v2.2Z" class="g2_571"/>
<path d="M69.8,616.9H853v-2.3H69.8v2.3Z" class="g2_571"/>
<path d="M70.5,640.6H515.3v-.8H70.5v.8Z" class="g2_571"/>
<path d="M514.4,640.6h44.5v-.8H514.4v.8Z" class="g2_571"/>
<path d="M559.6,640.6H853v-.8H559.6v.8Z" class="g2_571"/>
<path d="M70.5,664.9H853v-.7H70.5v.7Z" class="g2_571"/>
<path d="M70.5,689.4H853v-.7H70.5v.7Z" class="g2_571"/>
<path d="M70.5,713.9H853v-.7H70.5v.7Z" class="g2_571"/>
<path d="M70.5,738.3H853v-.7H70.5v.7Z" class="g2_571"/>
<path d="M70.5,762.8H853V762H70.5v.8Z" class="g2_571"/>
<path d="M70.5,787.2H853v-.7H70.5v.7Z" class="g2_571"/>
<path d="M70.5,811.6H853v-.7H70.5v.7Z" class="g2_571"/>
<path d="M70.5,836.1H853v-.7H70.5v.7Z" class="g2_571"/>
<path d="M70.5,860.6H853v-.8H70.5v.8Z" class="g2_571"/>
<path d="M70.5,885H853v-.8H70.5v.8Z" class="g2_571"/>
<path d="M70.5,909.4H853v-.7H70.5v.7Z" class="g2_571"/>
<path d="M70.5,933.9H853v-.7H70.5v.7Z" class="g2_571"/>
<path d="M70.5,958.3H853v-.7H70.5v.7Z" class="g2_571"/>
<path d="M70.5,982.8H853V982H70.5v.8Z" class="g2_571"/>
<path d="M70.5,1007.2H853v-.7H70.5v.7Z" class="g2_571"/>
<path d="M70.5,1031.6H853v-.7H70.5v.7Z" class="g2_571"/>
<path d="M70.5,1056.1H793.8v-.7H70.5v.7Z" class="g2_571"/>
<path d="M791.5,1056.1H853v-.7H791.5v.7Z" class="g2_571"/>
<path d="M70.5,1080.6H853v-.8H70.5v.8Z" class="g2_571"/>
</svg>