<?xml version="1.0" encoding="UTF-8" standalone="no"?>
<!DOCTYPE svg PUBLIC "-//W3C//DTD SVG 1.1//EN"
"http://www.w3.org/Graphics/SVG/1.1/DTD/svg11.dtd">
<svg viewBox="0 0 935 1210" version="1.1" xmlns="http://www.w3.org/2000/svg" xmlns:xlink="http://www.w3.org/1999/xlink">
<defs>
<clipPath id="c0_174"><path d="M97.2,59V41.4h72.2V59Z"/></clipPath>
<style type="text/css"><![CDATA[
.g0_174{
fill: #000;
}
.g1_174{
fill: none;
stroke: #231F20;
stroke-width: 1.527;
}
.g2_174{
fill: none;
stroke: #231F20;
stroke-width: 0.763;
}
.g3_174{
fill: #231F20;
}
]]></style>
</defs>
<path d="M96.1,63.1v.3H838.9v-.3H96.1Z" class="g0_174"/>
<path d="M96.1,1114.3v.3v-.3Z" class="g0_174"/>
<path d="M838.9,1114.3v.3v-.3Z" class="g0_174"/>
<path d="M96.1,1114.3v.3H838.9v-.3H96.1Z" class="g0_174"/>
<image clip-path="url(#c0_174)" preserveAspectRatio="none" x="97" y="41" width="72" height="18" xlink:href="img/1.jpg"/>
<path d="M467.5,401.8H397.6V379.1h69.9v22.7Zm-69.9,0H327.8V379.1h69.8v22.7Zm209.6,0H537.4V379.1h69.8v22.7Zm-69.8,0H467.5V379.1h69.9v22.7ZM275,210.4H205.1V187.7H275v22.7Zm-69.9,0H135.3V187.7h69.8v22.7Zm209.6,0H344.9V187.7h69.8v22.7Zm-69.8,0H275V187.7h69.9v22.7Zm315.1,0H590.1V187.7H660v22.7Zm-69.9,0H520.3V187.7h69.8v22.7Zm209.6,0H729.9V187.7h69.8v22.7Zm-69.8,0H660V187.7h69.9v22.7Z" class="g1_174"/>
<path d="M767.4,210.3v26.8H677.7" class="g2_174"/>
<path d="M678.8,233.2l-6.6,4l6.6,3.9v-7.9Z" class="g3_174"/>
<path d="M379,210.3v27H640.4" class="g2_174"/>
<path d="M639.3,241.3l6.6,-3.9l-6.6,-4v7.9Z" class="g3_174"/>
<path d="M170.5,210.6v112h84.6" class="g2_174"/>
<path d="M254,326.6l6.6,-3.9l-6.6,-4v7.9Z" class="g3_174"/>
<path d="M240.4,210.7v83.9H413.6" class="g2_174"/>
<path d="M412.5,298.6l6.6,-4l-6.6,-3.9v7.9Z" class="g3_174"/>
<path d="M309.9,210.6V267H483.5" class="g2_174"/>
<path d="M482.4,270.9L489,267l-6.6,-3.9v7.8Z" class="g3_174"/>
<path d="M555.3,210.3V322.6H293" class="g2_174"/>
<path d="M294.1,318.7l-6.6,4l6.6,3.9v-7.9Z" class="g3_174"/>
<path d="M695.8,210.3V267H521.7" class="g2_174"/>
<path d="M522.8,263l-6.6,4l6.6,3.9V263Z" class="g3_174"/>
<path d="M625.6,210.3v84.1H451.8" class="g2_174"/>
<path d="M453,290.5l-6.6,4l6.6,3.9v-7.9Z" class="g3_174"/>
<path d="M287.3,322.8c0,4.7,-3.7,8.4,-8.2,8.4H268.9c-4.5,0,-8.1,-3.7,-8.1,-8.4c0,-4.6,3.6,-8.4,8.1,-8.4h10.2c4.5,0,8.2,3.8,8.2,8.4ZM445.8,293.9c0,4.6,-3.6,8.4,-8.1,8.4H427.5c-4.5,0,-8.2,-3.8,-8.2,-8.4c0,-4.6,3.7,-8.4,8.2,-8.4h10.2c4.5,0,8.1,3.8,8.1,8.4Zm69.9,-27.1c0,4.7,-3.7,8.4,-8.2,8.4H497.3c-4.5,0,-8.1,-3.7,-8.1,-8.4c0,-4.6,3.6,-8.4,8.1,-8.4h10.2c4.5,0,8.2,3.8,8.2,8.4ZM672.8,237.4c0,4.6,-3.7,8.4,-8.2,8.4H654.4c-4.5,0,-8.1,-3.8,-8.1,-8.4c0,-4.7,3.6,-8.4,8.1,-8.4h10.2c4.5,0,8.2,3.7,8.2,8.4ZM502.4,373V275.8" class="g2_174"/>
<path d="M498.6,371.9l3.8,6.8l3.8,-6.8h-7.6Z" class="g3_174"/>
<path d="M432.6,302v70.6" class="g2_174"/>
<path d="M428.8,371.5l3.8,6.8l3.8,-6.8h-7.6Z" class="g3_174"/>
<path d="M274.3,331.4v19.2h87.8v22.2" class="g2_174"/>
<path d="M358.3,371.7l3.8,6.8l3.8,-6.8h-7.6Z" class="g3_174"/>
<path d="M659.7,246.1V350.4H569.2v22.8" class="g2_174"/>
<path d="M565.4,372l3.8,6.8L573,372h-7.6Z" class="g3_174"/>
</svg>