<?xml version="1.0" encoding="UTF-8" standalone="no"?>
<!DOCTYPE svg PUBLIC "-//W3C//DTD SVG 1.1//EN"
"http://www.w3.org/Graphics/SVG/1.1/DTD/svg11.dtd">
<svg viewBox="0 0 935 1210" version="1.1" xmlns="http://www.w3.org/2000/svg" xmlns:xlink="http://www.w3.org/1999/xlink">
<defs>
<style type="text/css"><![CDATA[
.g0_882{
fill: #FFF;
}
.g1_882{
fill: #000;
}
]]></style>
</defs>
<path d="M165,1149.3H852.5v-21.2H165v21.2Z" class="g0_882"/>
<path d="M68.8,1149.3h82.5v-21.2H68.8v21.2Z" class="g0_882"/>
<path d="M68.6,467.1h.7V125.7h-.7V467.1Z" class="g1_882"/>
<path d="M311.8,467.9h.8v-343h-.8v343Z" class="g1_882"/>
<path d="M357.7,467.9h.7v-343h-.7v343Z" class="g1_882"/>
<path d="M432.2,467.9h.7v-343h-.7v343Z" class="g1_882"/>
<path d="M517.1,467.9h.7v-343h-.7v343Z" class="g1_882"/>
<path d="M853.3,467.1h.8V125.7h-.8V467.1Z" class="g1_882"/>
<path d="M68.6,125.7H854.1v-.8H68.6v.8Z" class="g1_882"/>
<path d="M68.6,179.1H854.1v-.7H68.6v.7Z" class="g1_882"/>
<path d="M68.6,218.8H854.1v-.7H68.6v.7Z" class="g1_882"/>
<path d="M68.6,258.6H854.1v-.7H68.6v.7Z" class="g1_882"/>
<path d="M68.6,298.3H854.1v-.7H68.6v.7Z" class="g1_882"/>
<path d="M68.6,354.8H854.1v-.7H68.6v.7Z" class="g1_882"/>
<path d="M68.6,411.4H854.1v-.7H68.6v.7Z" class="g1_882"/>
<path d="M68.6,467.9H854.1v-.8H68.6v.8Z" class="g1_882"/>
<path d="M68.6,619.9h.7v-97h-.7v97Z" class="g1_882"/>
<path d="M141.9,620.7h.7V522.1h-.7v98.6Z" class="g1_882"/>
<path d="M233.6,620.7h.7V522.1h-.7v98.6Z" class="g1_882"/>
<path d="M387.8,620.7h.7V522.1h-.7v98.6Z" class="g1_882"/>
<path d="M543.3,620.7h.7V522.1h-.7v98.6Z" class="g1_882"/>
<path d="M696.4,620.7h.7V522.1h-.7v98.6Z" class="g1_882"/>
<path d="M850,619.9h.8v-97H850v97Z" class="g1_882"/>
<path d="M68.6,522.9H850.8v-.8H68.6v.8Z" class="g1_882"/>
<path d="M68.6,547.3H850.8v-.7H68.6v.7Z" class="g1_882"/>
<path d="M68.6,571.8H850.8v-.7H68.6v.7Z" class="g1_882"/>
<path d="M68.6,596.2H850.8v-.7H68.6v.7Z" class="g1_882"/>
<path d="M68.6,620.7H850.8v-.8H68.6v.8Z" class="g1_882"/>
</svg>