<?xml version="1.0" encoding="UTF-8" standalone="no"?>
<!DOCTYPE svg PUBLIC "-//W3C//DTD SVG 1.1//EN"
"http://www.w3.org/Graphics/SVG/1.1/DTD/svg11.dtd">
<svg viewBox="0 0 935 1210" version="1.1" xmlns="http://www.w3.org/2000/svg" xmlns:xlink="http://www.w3.org/1999/xlink">
<defs>
<style type="text/css"><![CDATA[
.g0_273{
fill: #000;
}
]]></style>
</defs>
<path d="M80.5,1022.1h.7V136.3h-.7v885.8Z" class="g0_273"/>
<path d="M154.9,1022.9h.8V167.7h-.8v855.2Z" class="g0_273"/>
<path d="M208.2,1022.9h.7V135.6h-.7v887.3Z" class="g0_273"/>
<path d="M538.2,1022.9h.7V135.6h-.7v887.3Z" class="g0_273"/>
<path d="M642.9,1022.9h.8V135.6h-.8v887.3Z" class="g0_273"/>
<path d="M747.1,1022.9h.7V135.6h-.7v887.3Z" class="g0_273"/>
<path d="M853.8,1022.1h.7V136.3h-.7v885.8Z" class="g0_273"/>
<path d="M80.5,136.3h774v-.7H80.5v.7Z" class="g0_273"/>
<path d="M80.5,168.4H208.9v-.7H80.5v.7Z" class="g0_273"/>
<path d="M81.2,198.6H853.8v-.8H81.2v.8Z" class="g0_273"/>
<path d="M81.2,202.4H853.8v-.7H81.2v.7Z" class="g0_273"/>
<path d="M80.5,359.4h774v-.7H80.5v.7Z" class="g0_273"/>
<path d="M80.5,513h774v-.8H80.5v.8Z" class="g0_273"/>
<path d="M80.5,814.7h774V814H80.5v.7Z" class="g0_273"/>
<path d="M80.5,1022.9h774v-.7H80.5v.7Z" class="g0_273"/>
<path d="M222.1,339.5h.4v-76h-.4v76Z" class="g0_273"/>
<path d="M304.6,340h.4V263.2h-.4V340Z" class="g0_273"/>
<path d="M524.6,339.5h.4v-76h-.4v76Z" class="g0_273"/>
<path d="M222.1,263.5H525v-.3H222.1v.3Z" class="g0_273"/>
<path d="M222.5,290.1H524.6v-.7H222.5v.7Z" class="g0_273"/>
<path d="M222.5,292.4H524.6v-.7H222.5v.7Z" class="g0_273"/>
<path d="M222.1,315.5H525v-.3H222.1v.3Z" class="g0_273"/>
<path d="M222.1,340H525v-.4H222.1v.4Z" class="g0_273"/>
<path d="M220.4,498.5h.3V405.6h-.3v92.9Z" class="g0_273"/>
<path d="M302.9,498.8h.3V405.3h-.3v93.5Z" class="g0_273"/>
<path d="M522.9,498.5h.3V405.6h-.3v92.9Z" class="g0_273"/>
<path d="M220.4,405.6H523.2v-.3H220.4v.3Z" class="g0_273"/>
<path d="M220.7,432.2H522.9v-.7H220.7v.7Z" class="g0_273"/>
<path d="M220.7,434.5H522.9v-.7H220.7v.7Z" class="g0_273"/>
<path d="M220.4,474.4H523.2V474H220.4v.4Z" class="g0_273"/>
<path d="M220.4,498.8H523.2v-.3H220.4v.3Z" class="g0_273"/>
<path d="M218.3,679.8h.3V545.7h-.3V679.8Z" class="g0_273"/>
<path d="M306.3,680.2h.3V545.3h-.3V680.2Z" class="g0_273"/>
<path d="M528.5,679.8h.3V545.7h-.3V679.8Z" class="g0_273"/>
<path d="M218.3,545.7H528.8v-.4H218.3v.4Z" class="g0_273"/>
<path d="M218.6,572.3H528.5v-.8H218.6v.8Z" class="g0_273"/>
<path d="M218.6,574.6H528.5v-.8H218.6v.8Z" class="g0_273"/>
<path d="M218.3,614.4H528.8v-.3H218.3v.3Z" class="g0_273"/>
<path d="M218.3,655.7H528.8v-.4H218.3v.4Z" class="g0_273"/>
<path d="M218.3,680.2H528.8v-.4H218.3v.4Z" class="g0_273"/>
<path d="M222.1,971.9h.4V895.8h-.4v76.1Z" class="g0_273"/>
<path d="M304.6,972.2h.4V895.4h-.4v76.8Z" class="g0_273"/>
<path d="M524.6,971.9h.4V895.8h-.4v76.1Z" class="g0_273"/>
<path d="M222.1,895.8H525v-.4H222.1v.4Z" class="g0_273"/>
<path d="M222.5,922.4H524.6v-.8H222.5v.8Z" class="g0_273"/>
<path d="M222.5,924.6H524.6v-.7H222.5v.7Z" class="g0_273"/>
<path d="M222.1,947.7H525v-.3H222.1v.3Z" class="g0_273"/>
<path d="M222.1,972.2H525v-.3H222.1v.3Z" class="g0_273"/>
</svg>