<?xml version="1.0" encoding="UTF-8" standalone="no"?>
<!DOCTYPE svg PUBLIC "-//W3C//DTD SVG 1.1//EN"
"http://www.w3.org/Graphics/SVG/1.1/DTD/svg11.dtd">
<svg viewBox="0 0 825 990" version="1.1" xmlns="http://www.w3.org/2000/svg" xmlns:xlink="http://www.w3.org/1999/xlink">
<defs>
<clipPath id="c0_744"><path d="M145.1,546.1V535.3H729.8v10.8Z"/></clipPath>
<style type="text/css"><![CDATA[
.g0_744{
fill: #000;
}
.g1_744{
fill: #FFF;
}
]]></style>
</defs>
<path d="M79.8,910.3h.3v-.8h-.3v.8Z" class="g0_744"/>
<path d="M80.1,910.3h650v-.8H80.1v.8Z" class="g0_744"/>
<path d="M145.1,410H729.8V384H145.1v26Z" class="g1_744"/>
<path d="M145.1,395.1v-.8Z" class="g0_744"/>
<path d="M145.1,395.1h43.6v-.8H145.1v.8Z" class="g0_744"/>
<path d="M231.5,395.1h.4v-.8h-.4v.8Z" class="g0_744"/>
<path d="M231.9,395.1h86.7v-.8H231.9v.8Z" class="g0_744"/>
<path clip-path="url(#c0_744)" d="M145.1,546.2H729.8V535.3H145.1v10.9Z" class="g1_744"/>
<path d="M145.1,539.1v-.7Z" class="g0_744"/>
<path d="M145.1,539.1H318.6v-.7H145.1v.7Z" class="g0_744"/>
<path d="M455.1,196.4H729.8v-.7H455.1v.7Z" class="g0_744"/>
<path d="M455.1,231.6H729.8v-.7H455.1v.7Z" class="g0_744"/>
<path d="M455.1,260.3H729.8v-.1H455.1v.1Z" class="g0_744"/>
<path d="M455.1,289.4H729.8v-.2H455.1v.2Z" class="g0_744"/>
<path d="M455.1,335.5H729.8v-.7H455.1v.7Z" class="g0_744"/>
</svg>