<?xml version="1.0" encoding="UTF-8" standalone="no"?>
<!DOCTYPE svg PUBLIC "-//W3C//DTD SVG 1.1//EN"
"http://www.w3.org/Graphics/SVG/1.1/DTD/svg11.dtd">
<svg viewBox="0 0 935 1210" version="1.1" xmlns="http://www.w3.org/2000/svg" xmlns:xlink="http://www.w3.org/1999/xlink">
<defs>
<clipPath id="c0_1306"><path d="M766.6,59.2V41.4h72.1V59.2Z"/></clipPath>
<style type="text/css"><![CDATA[
.g0_1306{
fill: #000;
}
.g1_1306{
fill: #231F20;
}
.g2_1306{
fill: none;
stroke: #231F20;
stroke-width: 0.763;
}
.g3_1306{
fill: #FFF;
}
]]></style>
</defs>
<path d="M97.3,62.9v.3H839.9v-.3H97.3Z" class="g0_1306"/>
<path d="M96.2,1114.1h-.1v.4h.1v-.4Z" class="g0_1306"/>
<path d="M838.7,1114.1h.2v.4h-.2v-.4Z" class="g0_1306"/>
<path d="M96.2,1114.1v.4H838.7v-.4H96.2Z" class="g0_1306"/>
<image clip-path="url(#c0_1306)" preserveAspectRatio="none" x="767" y="41" width="72" height="18" xlink:href="img/1.jpg"/>
<path d="M233.7,739.8h348V299.6h-348V739.8Z" class="g1_1306"/>
<path d="M581.7,739.8h-348V299.6h348V739.8Z" class="g2_1306"/>
<path d="M491.3,322.4h43.5V294.9H491.3v27.5Z" class="g3_1306"/>
<path d="M534.8,322.4H491.3V294.9h43.5v27.5Z" class="g2_1306"/>
<path d="M534.8,322.4h43.4V294.9H534.8v27.5Z" class="g3_1306"/>
<path d="M578.2,322.4H534.8V294.9h43.4v27.5Z" class="g2_1306"/>
<path d="M404.4,322.4h86.9V294.9H404.4v27.5Z" class="g3_1306"/>
<path d="M491.3,322.4H404.4V294.9h86.9v27.5Z" class="g2_1306"/>
<path d="M230.6,322.4H404.4V294.9H230.6v27.5Z" class="g3_1306"/>
<path d="M404.4,322.4H230.6V294.9H404.4v27.5Z" class="g2_1306"/>
<path d="M491.3,349.9h43.5V322.4H491.3v27.5Z" class="g3_1306"/>
<path d="M534.8,349.9H491.3V322.4h43.5v27.5Z" class="g2_1306"/>
<path d="M534.8,349.9h43.4V322.4H534.8v27.5Z" class="g3_1306"/>
<path d="M578.2,349.9H534.8V322.4h43.4v27.5Z" class="g2_1306"/>
<path d="M404.4,349.9h86.9V322.4H404.4v27.5Z" class="g3_1306"/>
<path d="M491.3,349.9H404.4V322.4h86.9v27.5Z" class="g2_1306"/>
<path d="M230.6,349.9H404.4V322.4H230.6v27.5Z" class="g3_1306"/>
<path d="M404.4,349.9H230.6V322.4H404.4v27.5Z" class="g2_1306"/>
<path d="M491.3,377.4h43.5V349.9H491.3v27.5Z" class="g3_1306"/>
<path d="M534.8,377.4H491.3V349.9h43.5v27.5Z" class="g2_1306"/>
<path d="M534.8,377.4h43.4V349.9H534.8v27.5Z" class="g3_1306"/>
<path d="M578.2,377.4H534.8V349.9h43.4v27.5Z" class="g2_1306"/>
<path d="M404.4,377.4h86.9V349.9H404.4v27.5Z" class="g3_1306"/>
<path d="M491.3,377.4H404.4V349.9h86.9v27.5Z" class="g2_1306"/>
<path d="M230.6,377.4H404.4V349.9H230.6v27.5Z" class="g3_1306"/>
<path d="M404.4,377.4H230.6V349.9H404.4v27.5Z" class="g2_1306"/>
<path d="M491.3,404.9h43.5V377.4H491.3v27.5Z" class="g3_1306"/>
<path d="M534.8,404.9H491.3V377.4h43.5v27.5Z" class="g2_1306"/>
<path d="M534.8,404.9h43.4V377.4H534.8v27.5Z" class="g3_1306"/>
<path d="M578.2,404.9H534.8V377.4h43.4v27.5Z" class="g2_1306"/>
<path d="M404.4,404.9h86.9V377.4H404.4v27.5Z" class="g3_1306"/>
<path d="M491.3,404.9H404.4V377.4h86.9v27.5Z" class="g2_1306"/>
<path d="M230.6,404.9H404.4V377.4H230.6v27.5Z" class="g3_1306"/>
<path d="M404.4,404.9H230.6V377.4H404.4v27.5Z" class="g2_1306"/>
<path d="M491.3,432.4h43.5V404.9H491.3v27.5Z" class="g3_1306"/>
<path d="M534.8,432.4H491.3V404.9h43.5v27.5Z" class="g2_1306"/>
<path d="M534.8,432.4h43.4V404.9H534.8v27.5Z" class="g3_1306"/>
<path d="M578.2,432.4H534.8V404.9h43.4v27.5Z" class="g2_1306"/>
<path d="M404.4,432.4h86.9V404.9H404.4v27.5Z" class="g3_1306"/>
<path d="M491.3,432.4H404.4V404.9h86.9v27.5Z" class="g2_1306"/>
<path d="M230.6,432.4H404.4V404.9H230.6v27.5Z" class="g3_1306"/>
<path d="M404.4,432.4H230.6V404.9H404.4v27.5Z" class="g2_1306"/>
<path d="M491.3,459.9h43.5V432.4H491.3v27.5Z" class="g3_1306"/>
<path d="M534.8,459.9H491.3V432.4h43.5v27.5Z" class="g2_1306"/>
<path d="M534.8,459.9h43.4V432.4H534.8v27.5Z" class="g3_1306"/>
<path d="M578.2,459.9H534.8V432.4h43.4v27.5Z" class="g2_1306"/>
<path d="M404.4,459.9h86.9V432.4H404.4v27.5Z" class="g3_1306"/>
<path d="M491.3,459.9H404.4V432.4h86.9v27.5Z" class="g2_1306"/>
<path d="M230.6,459.9H404.4V432.4H230.6v27.5Z" class="g3_1306"/>
<path d="M404.4,459.9H230.6V432.4H404.4v27.5Z" class="g2_1306"/>
<path d="M491.3,487.4h43.5V459.9H491.3v27.5Z" class="g3_1306"/>
<path d="M534.8,487.4H491.3V459.9h43.5v27.5Z" class="g2_1306"/>
<path d="M534.8,487.4h43.4V459.9H534.8v27.5Z" class="g3_1306"/>
<path d="M578.2,487.4H534.8V459.9h43.4v27.5Z" class="g2_1306"/>
<path d="M404.4,487.4h86.9V459.9H404.4v27.5Z" class="g3_1306"/>
<path d="M491.3,487.4H404.4V459.9h86.9v27.5Z" class="g2_1306"/>
<path d="M230.6,487.4H404.4V459.9H230.6v27.5Z" class="g3_1306"/>
<path d="M404.4,487.4H230.6V459.9H404.4v27.5Z" class="g2_1306"/>
<path d="M491.3,514.9h43.5V487.4H491.3v27.5Z" class="g3_1306"/>
<path d="M534.8,514.9H491.3V487.4h43.5v27.5Z" class="g2_1306"/>
<path d="M534.8,514.9h43.4V487.4H534.8v27.5Z" class="g3_1306"/>
<path d="M578.2,514.9H534.8V487.4h43.4v27.5Z" class="g2_1306"/>
<path d="M404.4,514.9h86.9V487.4H404.4v27.5Z" class="g3_1306"/>
<path d="M491.3,514.9H404.4V487.4h86.9v27.5Z" class="g2_1306"/>
<path d="M230.6,514.9H404.4V487.4H230.6v27.5Z" class="g3_1306"/>
<path d="M404.4,514.9H230.6V487.4H404.4v27.5Z" class="g2_1306"/>
<path d="M491.3,542.4h43.5V514.9H491.3v27.5Z" class="g3_1306"/>
<path d="M534.8,542.4H491.3V514.9h43.5v27.5Z" class="g2_1306"/>
<path d="M534.8,542.4h43.4V514.9H534.8v27.5Z" class="g3_1306"/>
<path d="M578.2,542.4H534.8V514.9h43.4v27.5Z" class="g2_1306"/>
<path d="M404.4,542.4h86.9V514.9H404.4v27.5Z" class="g3_1306"/>
<path d="M491.3,542.4H404.4V514.9h86.9v27.5Z" class="g2_1306"/>
<path d="M230.6,542.4H404.4V514.9H230.6v27.5Z" class="g3_1306"/>
<path d="M404.4,542.4H230.6V514.9H404.4v27.5Z" class="g2_1306"/>
<path d="M491.3,569.9h43.5V542.4H491.3v27.5Z" class="g3_1306"/>
<path d="M534.8,569.9H491.3V542.4h43.5v27.5Z" class="g2_1306"/>
<path d="M534.8,569.9h43.4V542.4H534.8v27.5Z" class="g3_1306"/>
<path d="M578.2,569.9H534.8V542.4h43.4v27.5Z" class="g2_1306"/>
<path d="M404.4,569.9h86.9V542.4H404.4v27.5Z" class="g3_1306"/>
<path d="M491.3,569.9H404.4V542.4h86.9v27.5Z" class="g2_1306"/>
<path d="M230.6,569.9H404.4V542.4H230.6v27.5Z" class="g3_1306"/>
<path d="M404.4,569.9H230.6V542.4H404.4v27.5Z" class="g2_1306"/>
<path d="M491.3,597.4h43.5V569.9H491.3v27.5Z" class="g3_1306"/>
<path d="M534.8,597.4H491.3V569.9h43.5v27.5Z" class="g2_1306"/>
<path d="M534.8,597.4h43.4V569.9H534.8v27.5Z" class="g3_1306"/>
<path d="M578.2,597.4H534.8V569.9h43.4v27.5Z" class="g2_1306"/>
<path d="M404.4,597.4h86.9V569.9H404.4v27.5Z" class="g3_1306"/>
<path d="M491.3,597.4H404.4V569.9h86.9v27.5Z" class="g2_1306"/>
<path d="M230.6,597.4H404.4V569.9H230.6v27.5Z" class="g3_1306"/>
<path d="M404.4,597.4H230.6V569.9H404.4v27.5Z" class="g2_1306"/>
<path d="M491.3,624.9h43.5V597.4H491.3v27.5Z" class="g3_1306"/>
<path d="M534.8,624.9H491.3V597.4h43.5v27.5Z" class="g2_1306"/>
<path d="M534.8,624.9h43.4V597.4H534.8v27.5Z" class="g3_1306"/>
<path d="M578.2,624.9H534.8V597.4h43.4v27.5Z" class="g2_1306"/>
<path d="M404.4,624.9h86.9V597.4H404.4v27.5Z" class="g3_1306"/>
<path d="M491.3,624.9H404.4V597.4h86.9v27.5Z" class="g2_1306"/>
<path d="M230.6,624.9H404.4V597.4H230.6v27.5Z" class="g3_1306"/>
<path d="M404.4,624.9H230.6V597.4H404.4v27.5Z" class="g2_1306"/>
<path d="M491.3,652.4h43.5V624.9H491.3v27.5Z" class="g3_1306"/>
<path d="M534.8,652.4H491.3V624.9h43.5v27.5Z" class="g2_1306"/>
<path d="M534.8,652.4h43.4V624.9H534.8v27.5Z" class="g3_1306"/>
<path d="M578.2,652.4H534.8V624.9h43.4v27.5Z" class="g2_1306"/>
<path d="M404.4,652.4h86.9V624.9H404.4v27.5Z" class="g3_1306"/>
<path d="M491.3,652.4H404.4V624.9h86.9v27.5Z" class="g2_1306"/>
<path d="M230.6,652.4H404.4V624.9H230.6v27.5Z" class="g3_1306"/>
<path d="M404.4,652.4H230.6V624.9H404.4v27.5Z" class="g2_1306"/>
<path d="M491.3,679.9h43.5V652.4H491.3v27.5Z" class="g3_1306"/>
<path d="M534.8,679.9H491.3V652.4h43.5v27.5Z" class="g2_1306"/>
<path d="M534.8,679.9h43.4V652.4H534.8v27.5Z" class="g3_1306"/>
<path d="M578.2,679.9H534.8V652.4h43.4v27.5Z" class="g2_1306"/>
<path d="M404.4,679.9h86.9V652.4H404.4v27.5Z" class="g3_1306"/>
<path d="M491.3,679.9H404.4V652.4h86.9v27.5Z" class="g2_1306"/>
<path d="M230.6,679.9H404.4V652.4H230.6v27.5Z" class="g3_1306"/>
<path d="M404.4,679.9H230.6V652.4H404.4v27.5Z" class="g2_1306"/>
<path d="M491.3,707.4h43.5V679.9H491.3v27.5Z" class="g3_1306"/>
<path d="M534.8,707.4H491.3V679.9h43.5v27.5Z" class="g2_1306"/>
<path d="M534.8,707.4h43.4V679.9H534.8v27.5Z" class="g3_1306"/>
<path d="M578.2,707.4H534.8V679.9h43.4v27.5Z" class="g2_1306"/>
<path d="M404.4,707.4h86.9V679.9H404.4v27.5Z" class="g3_1306"/>
<path d="M491.3,707.4H404.4V679.9h86.9v27.5Z" class="g2_1306"/>
<path d="M230.6,707.4H404.4V679.9H230.6v27.5Z" class="g3_1306"/>
<path d="M404.4,707.4H230.6V679.9H404.4v27.5Z" class="g2_1306"/>
<path d="M491.3,734.9h43.5V707.4H491.3v27.5Z" class="g3_1306"/>
<path d="M534.8,734.9H491.3V707.4h43.5v27.5Z" class="g2_1306"/>
<path d="M534.8,734.9h43.4V707.4H534.8v27.5Z" class="g3_1306"/>
<path d="M578.2,734.9H534.8V707.4h43.4v27.5Z" class="g2_1306"/>
<path d="M404.4,734.9h86.9V707.4H404.4v27.5Z" class="g3_1306"/>
<path d="M491.3,734.9H404.4V707.4h86.9v27.5Z" class="g2_1306"/>
<path d="M230.6,734.9H404.4V707.4H230.6v27.5Z" class="g3_1306"/>
<path d="M404.4,734.9H230.6V707.4H404.4v27.5ZM230.6,291.7V221.9m303.9,69.8V276.4m-42.6,5.7h36.4" class="g2_1306"/>
<path d="M532.9,282.1c-2.1,.8,-4.8,2.2,-6.5,3.6l1.3,-3.6l-1.3,-3.6c1.7,1.4,4.4,2.8,6.5,3.6Z" class="g1_1306"/>
<path d="M272.7,282.1H236.2" class="g2_1306"/>
<path d="M231.6,282.1c2.2,-.8,4.9,-2.2,6.5,-3.6l-1.3,3.6l1.3,3.6c-1.6,-1.4,-4.3,-2.8,-6.5,-3.6Z" class="g1_1306"/>
<path d="M491.4,273.5V256.7m-21.7,7.1H485" class="g2_1306"/>
<path d="M489.6,263.8c-2.2,.8,-4.8,2.2,-6.5,3.6l1.3,-3.6l-1.3,-3.7c1.7,1.5,4.3,2.9,6.5,3.7Z" class="g1_1306"/>
<path d="M383.1,236.3h15.2" class="g2_1306"/>
<path d="M402.9,236.3c-2.1,.8,-4.8,2.2,-6.5,3.6l1.3,-3.6l-1.3,-3.6c1.7,1.4,4.4,2.8,6.5,3.6Z" class="g1_1306"/>
<path d="M251.7,236.3H236.4" class="g2_1306"/>
<path d="M231.8,236.3c2.2,-.8,4.9,-2.2,6.6,-3.6l-1.3,3.6l1.3,3.6c-1.7,-1.4,-4.4,-2.8,-6.6,-3.6Z" class="g1_1306"/>
<path d="M251.8,263.8H236.5" class="g2_1306"/>
<path d="M231.9,263.8c2.1,-.8,4.8,-2.2,6.5,-3.7l-1.3,3.7l1.3,3.6c-1.7,-1.4,-4.4,-2.8,-6.5,-3.6Z" class="g1_1306"/>
<path d="M404.4,254.4V221.5" class="g2_1306"/>
<path d="M234,810.5H581.7V783H234v27.5Z" class="g1_1306"/>
<path d="M581.7,810.5H234V783H581.7v27.5Z" class="g2_1306"/>
<path d="M234,838H581.7V810.5H234V838Z" class="g1_1306"/>
<path d="M581.7,838H234V810.5H581.7V838Z" class="g2_1306"/>
<path d="M404.4,805.6H578.2V778.1H404.4v27.5Z" class="g3_1306"/>
<path d="M578.2,805.6H404.4V778.1H578.2v27.5Z" class="g2_1306"/>
<path d="M230.6,805.6H404.4V778.1H230.6v27.5Z" class="g3_1306"/>
<path d="M404.4,805.6H230.6V778.1H404.4v27.5Z" class="g2_1306"/>
<path d="M230.6,833.1H578.2V805.6H230.6v27.5Z" class="g3_1306"/>
<path d="M578.2,833.1H230.6V805.6H578.2v27.5Z" class="g2_1306"/>
</svg>