<?xml version="1.0" encoding="UTF-8" standalone="no"?>
<!DOCTYPE svg PUBLIC "-//W3C//DTD SVG 1.1//EN"
"http://www.w3.org/Graphics/SVG/1.1/DTD/svg11.dtd">
<svg viewBox="0 0 935 1210" version="1.1" xmlns="http://www.w3.org/2000/svg" xmlns:xlink="http://www.w3.org/1999/xlink">
<defs>
<style type="text/css"><![CDATA[
.g0_3122{
fill: #FFF;
}
.g1_3122{
fill: #000;
}
]]></style>
</defs>
<path d="M68.8,1149.3H852.5v-21.2H68.8v21.2Z" class="g0_3122"/>
<path d="M68.9,1064.9v-.7Z" class="g1_3122"/>
<path d="M68.9,1064.9H289.3v-.7H68.9v.7Z" class="g1_3122"/>
<path d="M170.5,630.7h.7V217.3h-.7V630.7Z" class="g1_3122"/>
<path d="M749.8,630.7h.8V217.3h-.8V630.7Z" class="g1_3122"/>
<path d="M170.5,217.3H750.6v-.7H170.5v.7Z" class="g1_3122"/>
<path d="M170.5,631.5H750.6v-.7H170.5v.7Z" class="g1_3122"/>
<path d="M300.2,287.7H723.7v-19H300.2v19Z" class="g0_3122"/>
<path d="M300.2,269H724.1v-.7H300.2v.7Z" class="g1_3122"/>
<path d="M723.3,288.1h.8V268.7h-.8v19.4Z" class="g1_3122"/>
<path d="M299.8,288.1H723.7v-.7H299.8v.7Z" class="g1_3122"/>
<path d="M299.8,287.7h.8V268.3h-.8v19.4Z" class="g1_3122"/>
<path d="M453.4,269.9h.4v-.2h-.4v.2Z" class="g1_3122"/>
<path d="M453.4,288.5h.4V269.9h-.4v18.6Z" class="g1_3122"/>
<path d="M359.2,333.5h87.6v-.8H359.2v.8Z" class="g1_3122"/>
<path d="M446,410.8h.8V333.1H446v77.7Z" class="g1_3122"/>
<path d="M358.9,410.8h87.5v-.7H358.9v.7Z" class="g1_3122"/>
<path d="M358.9,410.5h.7V332.7h-.7v77.8Z" class="g1_3122"/>
<path d="M475.8,371.9v.4h2.1v-.5Z" class="g1_3122"/>
<path d="M477.3,372.4l-1.5,-2.2l-1,-1.8l2,.6l8.3,2.2l2.7,.6l-2.7,.8l-8.2,2.5l-2,.6l1,-1.7l.5,-.4l8.2,-2.4l.5,1.4h-.5l-8.3,-2.2l.5,-1.4l.3,.3l1.5,2.3Z" class="g1_3122"/>
<path d="M475.9,374l1.4,-2.4h1.3l.3,.5l-.2,.3l-1.4,2.4Z" class="g1_3122"/>
<path fill-rule="evenodd" d="M477.9,372l-1.4,-2.3l8.3,2.2l-8.2,2.5Z" class="g1_3122"/>
<path d="M570.6,320.4h.5V288.6h-.5v31.8Z" class="g1_3122"/>
<path d="M472.1,320.4h98.7v-.5H472.1v.5Z" class="g1_3122"/>
<path d="M472.1,372.3h.4V320.1h-.4v52.2Z" class="g1_3122"/>
<path d="M472.3,372.3H476v-.4h-3.7v.4Z" class="g1_3122"/>
<path d="M234.6,562.3h2.2v-.5h-2.2v.5Z" class="g1_3122"/>
<path d="M236.1,562.5l-1.3,-2.3l-1,-1.8l1.9,.6l8.1,2.3l2.5,.7l-2.5,.7l-8.1,2.4l-1.9,.6l1,-1.7l.4,-.3l8.2,-2.4l.4,1.4h-.4l-8.2,-2.3l.5,-1.4l.4,.3l1.4,2.3Z" class="g1_3122"/>
<path d="M234.8,564l1.3,-2.4h1.4l.2,.4l-.2,.4l-1.4,2.4Z" class="g1_3122"/>
<path fill-rule="evenodd" d="M236.8,562l-1.4,-2.3l8.2,2.3l-8.2,2.4Z" class="g1_3122"/>
<path d="M215.8,562.3h19v-.5h-19v.5Z" class="g1_3122"/>
<path d="M215.8,607.9h.4V562h-.4v45.9Z" class="g1_3122"/>
<path d="M216,607.9h32.5v-.4H216v.4Z" class="g1_3122"/>
<path d="M359.5,382.6h.2v-.4h-.2v.4Z" class="g1_3122"/>
<path d="M359.7,382.6h87.2v-.4H359.7v.4Z" class="g1_3122"/>
<path d="M359.1,399.7h.1v-.5h-.1v.5Z" class="g1_3122"/>
<path d="M359.2,399.7h87.4v-.5H359.2v.5Z" class="g1_3122"/>
<path d="M486.8,336.1H591.7v-.8H486.8v.8Z" class="g1_3122"/>
<path d="M591,393.4h.7V335.7H591v57.7Z" class="g1_3122"/>
<path d="M486.5,393.4H591.3v-.7H486.5v.7Z" class="g1_3122"/>
<path d="M486.5,393.1h.7V335.3h-.7v57.8Z" class="g1_3122"/>
<path d="M487.3,363.8h.2v-.4h-.2v.4Z" class="g1_3122"/>
<path d="M487.5,363.8H591.8v-.4H487.5v.4Z" class="g1_3122"/>
<path d="M486.8,380h.1v-.5h-.1v.5Z" class="g1_3122"/>
<path d="M486.9,380H591.6v-.5H486.9v.5Z" class="g1_3122"/>
<path d="M628.7,325.3h92.4v-.7H628.7v.7Z" class="g1_3122"/>
<path d="M720.4,374.2h.7V325h-.7v49.2Z" class="g1_3122"/>
<path d="M628.3,374.2h92.5v-.8H628.3v.8Z" class="g1_3122"/>
<path d="M628.3,373.8h.7V324.6h-.7v49.2Z" class="g1_3122"/>
<path d="M628.6,333.1h.1v-.4h-.1v.4Z" class="g1_3122"/>
<path d="M628.7,333.1h92.1v-.4H628.7v.4Z" class="g1_3122"/>
<path d="M628.5,347.9h.1v-.5h-.1v.5Z" class="g1_3122"/>
<path d="M628.7,347.9H721v-.5H628.7v.5Z" class="g1_3122"/>
<path d="M355.3,479.7h2.1v-.5h-2.1v.5Z" class="g1_3122"/>
<path d="M355.9,479.1l1.4,2.2l1.1,1.8l-2,-.6l-8.3,-2.3l-2.5,-.7l2.5,-.7l8.3,-2.4l1.8,-.6l-.9,1.7l-.4,.4l-8.3,2.3l-.5,-1.4h.5l8.3,2.3l-.5,1.4l-.5,-.3l-1.3,-2.3Z" class="g1_3122"/>
<path d="M357.3,477.5l-1.4,2.4h-1.3l-.2,-.4l.2,-.4l1.3,-2.3Z" class="g1_3122"/>
<path fill-rule="evenodd" d="M355.3,479.5l1.4,2.3l-8.3,-2.3l8.3,-2.4Z" class="g1_3122"/>
<path d="M346.6,524.4h32.2V524H346.6v.4Z" class="g1_3122"/>
<path d="M378.3,524.1h.5V479.3h-.5v44.8Z" class="g1_3122"/>
<path d="M357.2,479.8h21.3v-.5H357.2v.5Z" class="g1_3122"/>
<path d="M475.6,393.1h2.2v-.5h-2.2v.5Z" class="g1_3122"/>
<path d="M477.1,393.2l-1.4,-2.4l-1,-1.7l2,.6l8.1,2.4l2.5,.7l-2.5,.7l-8.1,2.4l-1.9,.6l.9,-1.7l.5,-.4l8.2,-2.3l.4,1.4h-.4l-8.2,-2.4l.5,-1.4l.4,.3l1.4,2.4Z" class="g1_3122"/>
<path d="M475.7,394.8l1.4,-2.4h1.4l.2,.4l-.2,.4l-1.4,2.3Z" class="g1_3122"/>
<path fill-rule="evenodd" d="M477.8,392.8l-1.4,-2.4l8.2,2.4l-8.2,2.4Z" class="g1_3122"/>
<path d="M446.5,393.1h.2v-.5h-.2v.5Z" class="g1_3122"/>
<path d="M446.7,393.1h29v-.5h-29v.5Z" class="g1_3122"/>
<path d="M616.6,373.8h2.1v-.4h-2.1v.4Z" class="g1_3122"/>
<path d="M618,373.9l-1.4,-2.4l-1,-1.6l2,.5l8.2,2.4l2.7,.7l-2.7,.8l-8.2,2.3l-2,.5l1,-1.6l.5,-.4l8.2,-2.3l.5,1.5h-.5l-8.2,-2.4l.5,-1.5l.4,.4l1.4,2.4Z" class="g1_3122"/>
<path d="M616.6,375.5l1.4,-2.3h1.4l.3,.4l-.3,.4l-1.4,2.3Z" class="g1_3122"/>
<path fill-rule="evenodd" d="M618.7,373.5l-1.4,-2.3l8.2,2.3l-8.2,2.3Z" class="g1_3122"/>
<path d="M590.5,373.8h.2v-.4h-.2v.4Z" class="g1_3122"/>
<path d="M590.7,373.8h26v-.4h-26v.4Z" class="g1_3122"/>
<path d="M246.4,414.4h98.9v-.7H246.4v.7Z" class="g1_3122"/>
<path d="M344.6,480h.7V414.1h-.7V480Z" class="g1_3122"/>
<path d="M246,480h98.9v-.8H246v.8Z" class="g1_3122"/>
<path d="M246,479.6h.8V413.7H246v65.9Z" class="g1_3122"/>
<path d="M248.5,596.8h99.3V596H248.5v.8Z" class="g1_3122"/>
<path d="M347.1,618.1h.7V596.4h-.7v21.7Z" class="g1_3122"/>
<path d="M248.1,618.1h99.3v-.7H248.1v.7Z" class="g1_3122"/>
<path d="M248.1,617.7h.8V596h-.8v21.7Z" class="g1_3122"/>
<path d="M246.8,452.9h.2v-.4h-.2v.4Z" class="g1_3122"/>
<path d="M247,452.9h98.5v-.4H247v.4Z" class="g1_3122"/>
<path d="M246.7,436.1h.2v-.5h-.2v.5Z" class="g1_3122"/>
<path d="M246.9,436.1h98.5v-.5H246.9v.5Z" class="g1_3122"/>
<path d="M235.5,444.3h2.1v-.5h-2.1v.5Z" class="g1_3122"/>
<path d="M237,444.4l-1.3,-2.3l-1,-1.6l1.9,.5l8.2,2.3l2.4,.7l-2.4,.8l-8.2,2.3l-1.8,.6l.9,-1.7l.4,-.3l8.2,-2.4l.5,1.5h-.5l-8.2,-2.3l.5,-1.5l.5,.4l1.2,2.3Z" class="g1_3122"/>
<path d="M235.7,446l1.3,-2.3h1.3l.2,.3l-.2,.4l-1.3,2.4Z" class="g1_3122"/>
<path fill-rule="evenodd" d="M237.6,444l-1.3,-2.3l8.2,2.3l-8.2,2.4Z" class="g1_3122"/>
<path d="M386,309.9h.5V288H386v21.9Z" class="g1_3122"/>
<path d="M386.2,309.9H228.9l-.2,-.3h.5L229.1,444l-.3,.3h-.2V444l.1,-134.4v-.1H386.2Z" class="g1_3122"/>
<path d="M228.8,444.3h6.9v-.5h-6.9v.5Z" class="g1_3122"/>
<path d="M366.8,268.7h.5v-.2h-.5v.2Z" class="g1_3122"/>
<path d="M366.8,287.4h.5V268.7h-.5v18.7Z" class="g1_3122"/>
<path d="M360.2,422.3h.4v-2.1h-.4v2.1Z" class="g1_3122"/>
<path d="M360.8,420.8l-2.3,1.4l-1.7,1.1l.5,-2l2.3,-8.2l.7,-2.6l.8,2.6l2.4,8.2l.5,1.8l-1.6,-.9l-.4,-.4l-2.4,-8.3l1.5,-.4v.4l-2.3,8.3l-1.5,-.5l.4,-.5l2.3,-1.3Z" class="g1_3122"/>
<path d="M362.4,422.2L360,420.8v-1.3l.3,-.2l.4,.2l2.4,1.3Z" class="g1_3122"/>
<path fill-rule="evenodd" d="M360.3,420.2l-2.2,1.4l2.2,-8.3l2.4,8.3Z" class="g1_3122"/>
<path d="M345.9,445.8h14.7v-.5H345.9v.5Z" class="g1_3122"/>
<path d="M360.2,445.5h.4V422.1h-.4v23.4Z" class="g1_3122"/>
<path d="M321.8,307.1l.3,-.3l-.5,-.5l-.3,.2Z" class="g1_3122"/>
<path d="M308.1,320.8l-.3,.3l-.5,-.5l.2,-.3Z" class="g1_3122"/>
<path d="M321.8,307.1l-.5,-.6l-13.8,13.8l.6,.5Z" class="g1_3122"/>
<path d="M474,295.3l.3,-.3l-.6,-.6l-.2,.3Z" class="g1_3122"/>
<path d="M460.3,309l-.3,.3l-.6,-.6l.3,-.2Z" class="g1_3122"/>
<path d="M474,295.3l-.5,-.6l-13.8,13.8l.6,.5Z" class="g1_3122"/>
<path d="M223.4,575l.3,-.2l-.6,-.6l-.3,.3Z" class="g1_3122"/>
<path d="M209.6,588.8l-.2,.3l-.6,-.6l.3,-.3Z" class="g1_3122"/>
<path d="M223.4,575l-.6,-.5l-13.7,13.7l.5,.6Z" class="g1_3122"/>
<path d="M614.2,311.8l.2,-.2l-.5,-.6l-.3,.3Z" class="g1_3122"/>
<path d="M600.4,325.6l-.3,.3l-.5,-.6l.3,-.2Z" class="g1_3122"/>
<path d="M614.2,311.8l-.6,-.5l-13.7,13.8l.5,.5Z" class="g1_3122"/>
<path d="M575.8,298.8l.2,-.2l-.5,-.6l-.3,.3Z" class="g1_3122"/>
<path d="M562,312.6l-.3,.3l-.5,-.6l.3,-.3Z" class="g1_3122"/>
<path d="M575.8,298.8l-.6,-.5L561.5,312l.5,.6Z" class="g1_3122"/>
<path d="M612.1,368l.2,-.1l-.4,-.6l-.3,.2Z" class="g1_3122"/>
<path d="M595.6,381.8l-.3,.2l-.5,-.6l.3,-.2Z" class="g1_3122"/>
<path d="M612.1,368l-.5,-.5l-16.5,13.7l.5,.6Z" class="g1_3122"/>
<path d="M616.7,339.3h2.1v-.5h-2.1v.5Z" class="g1_3122"/>
<path d="M618.2,339.3L616.8,337l-1,-1.7l1.9,.6l8.3,2.4l2.6,.7l-2.6,.7l-8.3,2.4l-1.8,.5l.9,-1.6l.5,-.4l8.2,-2.3l.5,1.4h-.5l-8.2,-2.4l.4,-1.4l.5,.3l1.4,2.4Z" class="g1_3122"/>
<path d="M616.8,341l1.4,-2.4h1.4l.2,.4l-.2,.3l-1.4,2.4Z" class="g1_3122"/>
<path fill-rule="evenodd" d="M618.8,339l-1.3,-2.4l8.2,2.4l-8.2,2.4Z" class="g1_3122"/>
<path d="M653.5,305.6h.4V287.8h-.4v17.8Z" class="g1_3122"/>
<path d="M607.7,305.6h46v-.4h-46v.4Z" class="g1_3122"/>
<path d="M607.7,339.3h.5v-34h-.5v34Z" class="g1_3122"/>
<path d="M607.9,339.3h9v-.5h-9v.5Z" class="g1_3122"/>
<path d="M628.1,269.4h.5v-.2h-.5v.2Z" class="g1_3122"/>
<path d="M628.1,288.1h.5V269.4h-.5v18.7Z" class="g1_3122"/>
<path d="M346.7,391.5h2.1V391h-2.1v.5Z" class="g1_3122"/>
<path d="M348.2,391.6l-1.4,-2.4l-1,-1.6l1.9,.5l8.2,2.4l2.6,.7l-2.6,.8l-8.2,2.3l-1.8,.6l.9,-1.6l.4,-.4l8.3,-2.4l.4,1.5h-.4l-8.3,-2.4l.5,-1.5l.5,.4l1.3,2.4Z" class="g1_3122"/>
<path d="M346.8,393.3l1.3,-2.4h1.4l.2,.3l-.2,.4l-1.4,2.4Z" class="g1_3122"/>
<path fill-rule="evenodd" d="M348.8,391.2l-1.4,-2.3l8.3,2.3l-8.3,2.4Z" class="g1_3122"/>
<path d="M468.4,318.1h.5V287.8h-.5v30.3Z" class="g1_3122"/>
<path d="M338.8,318.1H468.6v-.5H338.8v.5Z" class="g1_3122"/>
<path d="M338.8,391.5h.5V317.8h-.5v73.7Z" class="g1_3122"/>
<path d="M339,391.5h7.9V391H339v.5Z" class="g1_3122"/>
<path d="M544.7,269.4h.4v-.2h-.4v.2Z" class="g1_3122"/>
<path d="M544.7,288.1h.4V269.4h-.4v18.7Z" class="g1_3122"/>
<path d="M247.1,496.6h99v-.8h-99v.8Z" class="g1_3122"/>
<path d="M345.4,562.1h.7V496.2h-.7v65.9Z" class="g1_3122"/>
<path d="M246.8,562.1h99v-.7h-99v.7Z" class="g1_3122"/>
<path d="M246.8,561.7h.7V495.8h-.7v65.9Z" class="g1_3122"/>
<path d="M247.5,535.1h.2v-.5h-.2v.5Z" class="g1_3122"/>
<path d="M247.7,535.1h98.5v-.5H247.7v.5Z" class="g1_3122"/>
<path d="M248.1,518.2h.2v-.5h-.2v.5Z" class="g1_3122"/>
<path d="M248.3,518.2h98.8v-.5H248.3v.5Z" class="g1_3122"/>
<path d="M234.9,525.9h2.2v-.5h-2.2v.5Z" class="g1_3122"/>
<path d="M236.4,526L235,523.6l-1,-1.7l2,.6l8.2,2.4l2.6,.7l-2.6,.7l-8.2,2.4l-1.9,.6l.9,-1.7l.5,-.3l8.2,-2.4l.5,1.4h-.5L235.5,524l.5,-1.5l.4,.4l1.4,2.3Z" class="g1_3122"/>
<path d="M235,527.6l1.4,-2.4h1.4l.2,.4l-.2,.4l-1.4,2.4Z" class="g1_3122"/>
<path fill-rule="evenodd" d="M237.1,525.6l-1.4,-2.4l8.2,2.4l-8.2,2.4Z" class="g1_3122"/>
<path d="M315.7,303.7h.5V287.8h-.5v15.9Z" class="g1_3122"/>
<path d="M315.9,303.7l-96.7,.6l-.2,-.2h.5l-.1,221.5l-.3,.3h-.2v-.3L219,304.1v-.2h.2l96.7,-.7Z" class="g1_3122"/>
<path d="M219.1,525.9h16v-.5h-16v.5Z" class="g1_3122"/>
<path d="M225.2,459.1l.3,-.3l-.5,-.6l-.3,.3Z" class="g1_3122"/>
<path d="M211.5,472.8l-.3,.3l-.5,-.6l.2,-.2Z" class="g1_3122"/>
<path d="M225.2,459.1l-.5,-.6l-13.8,13.8l.6,.5Z" class="g1_3122"/>
<path d="M385.3,495.6l.2,-.2l-.5,-.6l-.3,.3Z" class="g1_3122"/>
<path d="M371.5,509.4l-.2,.3l-.6,-.6l.3,-.3Z" class="g1_3122"/>
<path d="M385.3,495.6l-.6,-.5L371,508.8l.5,.6Z" class="g1_3122"/>
<path d="M366,428.4l.3,-.3l-.5,-.6l-.3,.3Z" class="g1_3122"/>
<path d="M352.3,442.1l-.3,.3l-.5,-.6l.2,-.2Z" class="g1_3122"/>
<path d="M366,428.4l-.5,-.6l-13.8,13.8l.6,.5Z" class="g1_3122"/>
<path d="M473.2,386l.3,-.2l-.5,-.5l-.3,.2Z" class="g1_3122"/>
<path d="M456.7,399.8l-.3,.1l-.4,-.5l.2,-.2Z" class="g1_3122"/>
<path d="M473.2,386l-.5,-.5l-16.5,13.7l.5,.6Z" class="g1_3122"/>
</svg>