<?xml version="1.0" encoding="UTF-8" standalone="no"?>
<!DOCTYPE svg PUBLIC "-//W3C//DTD SVG 1.1//EN"
"http://www.w3.org/Graphics/SVG/1.1/DTD/svg11.dtd">
<svg viewBox="0 0 935 1210" version="1.1" xmlns="http://www.w3.org/2000/svg" xmlns:xlink="http://www.w3.org/1999/xlink">
<defs>
<style type="text/css"><![CDATA[
.g0_518{
fill: #FFF;
}
.g1_518{
fill: #000;
}
]]></style>
</defs>
<path d="M165,1149.3H852.5v-21.2H165v21.2Z" class="g0_518"/>
<path d="M68.8,1149.3h82.5v-21.2H68.8v21.2Z" class="g0_518"/>
<path d="M68.6,192.1h.7V131.8h-.7v60.3Z" class="g1_518"/>
<path d="M177.6,192.9h.7V131h-.7v61.9Z" class="g1_518"/>
<path d="M392.9,192.9h.7V131h-.7v61.9Z" class="g1_518"/>
<path d="M452.7,192.9h.8V131h-.8v61.9Z" class="g1_518"/>
<path d="M537.6,192.9h.8V131h-.8v61.9Z" class="g1_518"/>
<path d="M850.3,192.1h.7V131.8h-.7v60.3Z" class="g1_518"/>
<path d="M68.6,131.7H851V131H68.6v.7Z" class="g1_518"/>
<path d="M68.6,169.9H851v-.7H68.6v.7Z" class="g1_518"/>
<path d="M68.6,192.9H851v-.8H68.6v.8Z" class="g1_518"/>
</svg>