<?xml version="1.0" encoding="UTF-8" standalone="no"?>
<!DOCTYPE svg PUBLIC "-//W3C//DTD SVG 1.1//EN"
"http://www.w3.org/Graphics/SVG/1.1/DTD/svg11.dtd">
<svg viewBox="0 0 935 1210" version="1.1" xmlns="http://www.w3.org/2000/svg" xmlns:xlink="http://www.w3.org/1999/xlink">
<defs>
<style type="text/css"><![CDATA[
.g0_2125{
fill: #FFF;
}
.g1_2125{
fill: #000;
}
]]></style>
</defs>
<path d="M68.9,1149.3H755.2v-21.2H68.9v21.2Z" class="g0_2125"/>
<path d="M771.3,1149.3H855v-21.2H771.3v21.2Z" class="g0_2125"/>
<path d="M73,397.8H849.8V368.2H73v29.6Z" class="g0_2125"/>
<path d="M74,391.1h53.4V378.7H74v12.4Z" class="g0_2125"/>
<path d="M72.6,367.9h.7V124.1h-.7V367.9Z" class="g1_2125"/>
<path d="M259.9,368.6h.7V123.4h-.7V368.6Z" class="g1_2125"/>
<path d="M410.1,368.6h.8V123.4h-.8V368.6Z" class="g1_2125"/>
<path d="M849.4,367.9h.7V124.1h-.7V367.9Z" class="g1_2125"/>
<path d="M72.6,124.1H850.1v-.7H72.6v.7Z" class="g1_2125"/>
<path d="M72.6,148.6H850.1v-.7H72.6v.7Z" class="g1_2125"/>
<path d="M72.6,173H850.1v-.8H72.6v.8Z" class="g1_2125"/>
<path d="M259.9,197.4H850.1v-.7H259.9v.7Z" class="g1_2125"/>
<path d="M259.9,221.9H850.1v-.7H259.9v.7Z" class="g1_2125"/>
<path d="M259.9,246.3H850.1v-.7H259.9v.7Z" class="g1_2125"/>
<path d="M72.6,270.8H850.1v-.7H72.6v.7Z" class="g1_2125"/>
<path d="M259.9,295.3H850.1v-.8H259.9v.8Z" class="g1_2125"/>
<path d="M72.6,319.6H850.1v-.7H72.6v.7Z" class="g1_2125"/>
<path d="M72.6,344.1H850.1v-.7H72.6v.7Z" class="g1_2125"/>
<path d="M72.6,368.6H850.1v-.7H72.6v.7Z" class="g1_2125"/>
</svg>