<?xml version="1.0" encoding="UTF-8" standalone="no"?>
<!DOCTYPE svg PUBLIC "-//W3C//DTD SVG 1.1//EN"
"http://www.w3.org/Graphics/SVG/1.1/DTD/svg11.dtd">
<svg viewBox="0 0 935 1210" version="1.1" xmlns="http://www.w3.org/2000/svg" xmlns:xlink="http://www.w3.org/1999/xlink">
<defs>
<style type="text/css"><![CDATA[
.g0_2652{
fill: #FFF;
}
.g1_2652{
fill: #000;
}
]]></style>
</defs>
<path d="M165,1149.3H852.5v-21.2H165v21.2Z" class="g0_2652"/>
<path d="M68.8,1149.3h82.5v-21.2H68.8v21.2Z" class="g0_2652"/>
<path d="M68.6,348h.7V125.7h-.7V348Z" class="g1_2652"/>
<path d="M300.3,348.7h.7V124.9h-.7V348.7Z" class="g1_2652"/>
<path d="M344.9,348.7h.8V124.9h-.8V348.7Z" class="g1_2652"/>
<path d="M417.2,348.7h.7V124.9h-.7V348.7Z" class="g1_2652"/>
<path d="M503.1,348.7h.7V124.9h-.7V348.7Z" class="g1_2652"/>
<path d="M855.8,348h.7V125.7h-.7V348Z" class="g1_2652"/>
<path d="M68.6,125.7H856.5v-.8H68.6v.8Z" class="g1_2652"/>
<path d="M68.6,179.1H856.5v-.7H68.6v.7Z" class="g1_2652"/>
<path d="M68.6,235.7H856.5v-.8H68.6v.8Z" class="g1_2652"/>
<path d="M68.6,292.1H856.5v-.7H68.6v.7Z" class="g1_2652"/>
<path d="M68.6,348.7H856.5V348H68.6v.7Z" class="g1_2652"/>
<path d="M68.6,451.8h.7V403.7h-.7v48.1Z" class="g1_2652"/>
<path d="M128.5,452.7h.8V403h-.8v49.7Z" class="g1_2652"/>
<path d="M237.9,452.7h.7V403h-.7v49.7Z" class="g1_2652"/>
<path d="M386.3,452.7h.7V403h-.7v49.7Z" class="g1_2652"/>
<path d="M538.1,452.7h.7V403h-.7v49.7Z" class="g1_2652"/>
<path d="M693.7,452.7h.8V403h-.8v49.7Z" class="g1_2652"/>
<path d="M847.8,451.8h.8V403.7h-.8v48.1Z" class="g1_2652"/>
<path d="M68.6,403.7h780V403H68.6v.7Z" class="g1_2652"/>
<path d="M68.6,428.2h780v-.8H68.6v.8Z" class="g1_2652"/>
<path d="M68.6,452.7h780v-.8H68.6v.8Z" class="g1_2652"/>
<path d="M69.3,994.9H70V922.3h-.7v72.6Z" class="g1_2652"/>
<path d="M273.9,995.6h.7V921.5h-.7v74.1Z" class="g1_2652"/>
<path d="M682.3,995.6h.7V921.5h-.7v74.1Z" class="g1_2652"/>
<path d="M851,994.9h.8V922.3H851v72.6Z" class="g1_2652"/>
<path d="M69.3,922.3H851.8v-.8H69.3v.8Z" class="g1_2652"/>
<path d="M69.3,946.7H851.8V946H69.3v.7Z" class="g1_2652"/>
<path d="M69.3,971.1H851.8v-.7H69.3v.7Z" class="g1_2652"/>
<path d="M69.3,995.6H851.8v-.7H69.3v.7Z" class="g1_2652"/>
</svg>