<?xml version="1.0" encoding="UTF-8" standalone="no"?>
<!DOCTYPE svg PUBLIC "-//W3C//DTD SVG 1.1//EN"
"http://www.w3.org/Graphics/SVG/1.1/DTD/svg11.dtd">
<svg viewBox="0 0 935 1210" version="1.1" xmlns="http://www.w3.org/2000/svg" xmlns:xlink="http://www.w3.org/1999/xlink">
<defs>
<style type="text/css"><![CDATA[
.g0_2347{
fill: #FFF;
}
.g1_2347{
fill: #000;
}
]]></style>
</defs>
<path d="M68.9,1149.3H755.2v-21.2H68.9v21.2Z" class="g0_2347"/>
<path d="M771.3,1149.3H855v-21.2H771.3v21.2Z" class="g0_2347"/>
<path d="M69.9,595.5h.8V147h-.8V595.5Z" class="g1_2347"/>
<path d="M324.4,596.2h.7V146.3h-.7V596.2Z" class="g1_2347"/>
<path d="M372.8,596.2h.7V146.3h-.7V596.2Z" class="g1_2347"/>
<path d="M447.2,596.2h.8V146.3h-.8V596.2Z" class="g1_2347"/>
<path d="M533.2,596.2h.8V146.3h-.8V596.2Z" class="g1_2347"/>
<path d="M854.8,595.5h.7V147h-.7V595.5Z" class="g1_2347"/>
<path d="M69.9,147H855.5v-.7H69.9v.7Z" class="g1_2347"/>
<path d="M69.9,200.5H855.5v-.8H69.9v.8Z" class="g1_2347"/>
<path d="M69.9,257H855.5v-.7H69.9v.7Z" class="g1_2347"/>
<path d="M69.9,313.6H855.5v-.7H69.9v.7Z" class="g1_2347"/>
<path d="M69.9,370.1H855.5v-.8H69.9v.8Z" class="g1_2347"/>
<path d="M69.9,426.6H855.5v-.7H69.9v.7Z" class="g1_2347"/>
<path d="M69.9,483.2H855.5v-.8H69.9v.8Z" class="g1_2347"/>
<path d="M69.9,539.7H855.5V539H69.9v.7Z" class="g1_2347"/>
<path d="M69.9,596.2H855.5v-.7H69.9v.7Z" class="g1_2347"/>
<path d="M69.9,772.7h.8V651.2h-.8V772.7Z" class="g1_2347"/>
<path d="M129.2,773.5h.8v-123h-.8v123Z" class="g1_2347"/>
<path d="M250,773.5h.7v-123H250v123Z" class="g1_2347"/>
<path d="M395,773.5h.7v-123H395v123Z" class="g1_2347"/>
<path d="M545.4,773.5h.8v-123h-.8v123Z" class="g1_2347"/>
<path d="M694.6,773.5h.7v-123h-.7v123Z" class="g1_2347"/>
<path d="M843.6,772.7h.7V651.2h-.7V772.7Z" class="g1_2347"/>
<path d="M69.9,651.2H844.3v-.7H69.9v.7Z" class="g1_2347"/>
<path d="M69.9,675.7H844.3v-.8H69.9v.8Z" class="g1_2347"/>
<path d="M69.9,700.2H844.3v-.8H69.9v.8Z" class="g1_2347"/>
<path d="M69.9,724.5H844.3v-.7H69.9v.7Z" class="g1_2347"/>
<path d="M69.9,749H844.3v-.7H69.9v.7Z" class="g1_2347"/>
<path d="M69.9,773.5H844.3v-.7H69.9v.7Z" class="g1_2347"/>
</svg>