<?xml version="1.0" encoding="UTF-8" standalone="no"?>
<!DOCTYPE svg PUBLIC "-//W3C//DTD SVG 1.1//EN"
"http://www.w3.org/Graphics/SVG/1.1/DTD/svg11.dtd">
<svg viewBox="0 0 935 1210" version="1.1" xmlns="http://www.w3.org/2000/svg" xmlns:xlink="http://www.w3.org/1999/xlink">
<defs>
<style type="text/css"><![CDATA[
.g0_2210{
fill: #FFF;
}
.g1_2210{
fill: #000;
}
]]></style>
</defs>
<path d="M165,1149.3H852.5v-21.2H165v21.2Z" class="g0_2210"/>
<path d="M68.8,1149.3h82.5v-21.2H68.8v21.2Z" class="g0_2210"/>
<path d="M68.6,453.4h.7V107.3h-.7V453.4Z" class="g1_2210"/>
<path d="M303.2,160.8h.8V106.6h-.8v54.2Z" class="g1_2210"/>
<path d="M303.2,454.1h.8v-294h-.8v294Z" class="g1_2210"/>
<path d="M348,160.8h.7V106.6H348v54.2Z" class="g1_2210"/>
<path d="M348,454.1h.7v-294H348v294Z" class="g1_2210"/>
<path d="M421.3,160.8h.7V106.6h-.7v54.2Z" class="g1_2210"/>
<path d="M421.3,454.1h.7v-294h-.7v294Z" class="g1_2210"/>
<path d="M546.2,454.1h.7V106.6h-.7V454.1Z" class="g1_2210"/>
<path d="M851.8,453.4h.7V107.3h-.7V453.4Z" class="g1_2210"/>
<path d="M68.6,107.3H852.5v-.7H68.6v.7Z" class="g1_2210"/>
<path d="M68.6,160.8H546.9v-.7H68.6v.7Z" class="g1_2210"/>
<path d="M546.1,160.8H852.5v-.7H546.1v.7Z" class="g1_2210"/>
<path d="M68.6,234.1H546.9v-.7H68.6v.7Z" class="g1_2210"/>
<path d="M546.1,234.1H852.5v-.7H546.1v.7Z" class="g1_2210"/>
<path d="M68.6,307.4H546.9v-.7H68.6v.7Z" class="g1_2210"/>
<path d="M546.1,307.4H852.5v-.7H546.1v.7Z" class="g1_2210"/>
<path d="M68.6,380.8H546.9v-.7H68.6v.7Z" class="g1_2210"/>
<path d="M546.1,380.8H852.5v-.7H546.1v.7Z" class="g1_2210"/>
<path d="M68.6,454.1H546.1v-.7H68.6v.7Z" class="g1_2210"/>
<path d="M546.9,454.1H852.5v-.7H546.9v.7Z" class="g1_2210"/>
<path d="M68.6,554.2h.7V506.1h-.7v48.1Z" class="g1_2210"/>
<path d="M134.3,554.9h.7V505.4h-.7v49.5Z" class="g1_2210"/>
<path d="M227.5,554.9h.7V505.4h-.7v49.5Z" class="g1_2210"/>
<path d="M373.6,554.9h.8V505.4h-.8v49.5Z" class="g1_2210"/>
<path d="M533.5,554.9h.7V505.4h-.7v49.5Z" class="g1_2210"/>
<path d="M692.2,554.9h.7V505.4h-.7v49.5Z" class="g1_2210"/>
<path d="M848.8,554.2h.8V506.1h-.8v48.1Z" class="g1_2210"/>
<path d="M68.6,506.1H849.7v-.7H68.6v.7Z" class="g1_2210"/>
<path d="M68.6,530.6H849.7v-.8H68.6v.8Z" class="g1_2210"/>
<path d="M68.6,554.9H849.7v-.7H68.6v.7Z" class="g1_2210"/>
<path d="M69.7,843h.7V746h-.7v97Z" class="g1_2210"/>
<path d="M299.4,843.8h.7V745.2h-.7v98.6Z" class="g1_2210"/>
<path d="M850.8,843h.7V746h-.7v97Z" class="g1_2210"/>
<path d="M69.7,746H851.5v-.8H69.7v.8Z" class="g1_2210"/>
<path d="M69.7,770.4H851.5v-.8H69.7v.8Z" class="g1_2210"/>
<path d="M69.7,794.8H851.5v-.7H69.7v.7Z" class="g1_2210"/>
<path d="M69.7,819.3H851.5v-.7H69.7v.7Z" class="g1_2210"/>
<path d="M69.7,843.7H851.5V843H69.7v.7Z" class="g1_2210"/>
</svg>