<?xml version="1.0" encoding="UTF-8" standalone="no"?>
<!DOCTYPE svg PUBLIC "-//W3C//DTD SVG 1.1//EN"
"http://www.w3.org/Graphics/SVG/1.1/DTD/svg11.dtd">
<svg viewBox="0 0 825 990" version="1.1" xmlns="http://www.w3.org/2000/svg" xmlns:xlink="http://www.w3.org/1999/xlink">
<defs>
<style type="text/css"><![CDATA[
.g0_579{
fill: #000;
}
]]></style>
</defs>
<path d="M94.9,910.3h.3v-.8h-.3v.8Z" class="g0_579"/>
<path d="M95.2,910.3h650v-.8H95.2v.8Z" class="g0_579"/>
<path d="M159.9,530.9h1.5V488.1h-1.5v42.8Z" class="g0_579"/>
<path d="M233.3,532.5h.7V486.7h-.7v45.8Z" class="g0_579"/>
<path d="M379.3,532.5h.7V486.7h-.7v45.8Z" class="g0_579"/>
<path d="M452.4,532.5h.7V486.7h-.7v45.8Z" class="g0_579"/>
<path d="M525.4,532.5h.8V486.7h-.8v45.8Z" class="g0_579"/>
<path d="M598.5,532.5h.7V486.7h-.7v45.8Z" class="g0_579"/>
<path d="M671.5,532.5h.7V486.7h-.7v45.8Z" class="g0_579"/>
<path d="M744.1,530.9h1.6V488.1h-1.6v42.8Z" class="g0_579"/>
<path d="M159.9,488.2H745.6v-1.5H159.9v1.5Z" class="g0_579"/>
<path d="M159.9,532.5H745.6v-1.6H159.9v1.6Z" class="g0_579"/>
</svg>