<?xml version="1.0" encoding="UTF-8" standalone="no"?>
<!DOCTYPE svg PUBLIC "-//W3C//DTD SVG 1.1//EN"
"http://www.w3.org/Graphics/SVG/1.1/DTD/svg11.dtd">
<svg viewBox="0 0 935 1210" version="1.1" xmlns="http://www.w3.org/2000/svg" xmlns:xlink="http://www.w3.org/1999/xlink">
<defs>
<style type="text/css"><![CDATA[
.g0_57{
fill: #B3B3B3;
}
.g1_57{
fill: #000;
}
]]></style>
</defs>
<path d="M82.5,96.3h770V55H82.5V96.3Z" class="g0_57"/>
<path d="M115.3,209.1h.4V163.6h-.4v45.5Z" class="g1_57"/>
<path d="M247.1,209.6h.8V163.1h-.8v46.5Z" class="g1_57"/>
<path d="M357.1,209.6h.8V163.1h-.8v46.5Z" class="g1_57"/>
<path d="M467.1,209.6h.8V163.1h-.8v46.5Z" class="g1_57"/>
<path d="M819.3,209.1h.4V163.6h-.4v45.5Z" class="g1_57"/>
<path d="M115.3,163.6H247.1v-.3H115.3v.3Z" class="g1_57"/>
<path d="M247.9,163.8H467.1v-.7H247.9v.7Z" class="g1_57"/>
<path d="M467.9,163.6H819.7v-.3H467.9v.3Z" class="g1_57"/>
<path d="M115.3,209.5H247.1v-.4H115.3v.4Z" class="g1_57"/>
<path d="M247.9,209.6H467.1v-.7H247.9v.7Z" class="g1_57"/>
<path d="M467.9,209.5H819.7v-.4H467.9v.4Z" class="g1_57"/>
</svg>