<?xml version="1.0" encoding="UTF-8" standalone="no"?>
<!DOCTYPE svg PUBLIC "-//W3C//DTD SVG 1.1//EN"
"http://www.w3.org/Graphics/SVG/1.1/DTD/svg11.dtd">
<svg viewBox="0 0 935 1210" version="1.1" xmlns="http://www.w3.org/2000/svg" xmlns:xlink="http://www.w3.org/1999/xlink">
<defs>
<clipPath id="c0_3226"><path d="M97.3,59.2V41.4h72.1V59.2Z"/></clipPath>
<style type="text/css"><![CDATA[
.g0_3226{
fill: #000;
}
]]></style>
</defs>
<path d="M96.3,63.3H838.8v-.4H96.3v.4Z" class="g0_3226"/>
<path d="M96.1,1114.5h.2v-.4h-.2v.4Z" class="g0_3226"/>
<path d="M96.3,1114.5H838.9v-.4H96.3v.4Z" class="g0_3226"/>
<image clip-path="url(#c0_3226)" preserveAspectRatio="none" x="97" y="41" width="73" height="18" xlink:href="img/1.jpg"/>
<path d="M95.9,716.2h.7V189.4h-.7V716.2Z" class="g0_3226"/>
<path d="M247.1,518.3h.8V186.4h-.8V518.3Z" class="g0_3226"/>
<path d="M247.1,716.9h.8v-175h-.8v175Z" class="g0_3226"/>
<path d="M292,518.3h.7V186.4H292V518.3Z" class="g0_3226"/>
<path d="M292,716.9h.7v-175H292v175Z" class="g0_3226"/>
<path d="M349.2,518.3h.7V186.4h-.7V518.3Z" class="g0_3226"/>
<path d="M349.2,716.9h.7v-175h-.7v175Z" class="g0_3226"/>
<path d="M425.1,518.3h.7V186.4h-.7V518.3Z" class="g0_3226"/>
<path d="M425.1,716.9h.7v-175h-.7v175Z" class="g0_3226"/>
<path d="M840,716.2h.8V189.4H840V716.2Z" class="g0_3226"/>
<path d="M95.9,189.5H840.8v-3H95.9v3Z" class="g0_3226"/>
<path d="M95.9,232.2H840.8v-3H95.9v3Z" class="g0_3226"/>
<path d="M95.9,270.8H840.8v-.7H95.9v.7Z" class="g0_3226"/>
<path d="M95.9,310.5H840.8v-.8H95.9v.8Z" class="g0_3226"/>
<path d="M247.1,350.3H840.8v-.8H247.1v.8Z" class="g0_3226"/>
<path d="M247.1,374.6H840.8v-.7H247.1v.7Z" class="g0_3226"/>
<path d="M95.9,399.1H840.8v-.7H95.9v.7Z" class="g0_3226"/>
<path d="M95.9,423.6H840.8v-.7H95.9v.7Z" class="g0_3226"/>
<path d="M95.9,463.3H840.8v-.8H95.9v.8Z" class="g0_3226"/>
<path d="M95.9,518.3H840.8v-.8H95.9v.8Z" class="g0_3226"/>
<path d="M95.9,542.8H840.8V542H95.9v.8Z" class="g0_3226"/>
<path d="M247.1,582.4H840.8v-.7H247.1v.7Z" class="g0_3226"/>
<path d="M95.9,622.1H840.8v-.7H95.9v.7Z" class="g0_3226"/>
<path d="M95.9,677.1H840.8v-.7H95.9v.7Z" class="g0_3226"/>
<path d="M95.9,716.9H840.8v-.7H95.9v.7Z" class="g0_3226"/>
</svg>