<?xml version="1.0" encoding="UTF-8" standalone="no"?>
<!DOCTYPE svg PUBLIC "-//W3C//DTD SVG 1.1//EN"
"http://www.w3.org/Graphics/SVG/1.1/DTD/svg11.dtd">
<svg viewBox="0 0 935 1210" version="1.1" xmlns="http://www.w3.org/2000/svg" xmlns:xlink="http://www.w3.org/1999/xlink">
<defs>
<clipPath id="c0_295"><path d="M766.7,59V41.4h72.2V59Z"/></clipPath>
<style type="text/css"><![CDATA[
.g0_295{
fill: #000;
}
.g1_295{
fill: none;
stroke: #000;
stroke-width: 1.63;
}
.g2_295{
fill: none;
stroke: #000;
stroke-width: 0.815;
}
]]></style>
</defs>
<path d="M97.5,63.1v.3H840v-.3H97.5Z" class="g0_295"/>
<path d="M96.1,1114.3v.3v-.3Z" class="g0_295"/>
<path d="M838.9,1114.3v.3v-.3Z" class="g0_295"/>
<path d="M96.1,1114.3v.3H838.9v-.3H96.1Z" class="g0_295"/>
<image clip-path="url(#c0_295)" preserveAspectRatio="none" x="767" y="41" width="72" height="18" xlink:href="img/1.jpg"/>
<path d="M459.9,321.3H401.2v-22h58.7v22Zm-58.7,.2H342.5v-22h58.7v22Zm220.7,-.2H563.2v-22h58.7v22Zm-58.7,0H504.5v-22h58.7v22Zm-22.3,98.2H511.5v-22h29.4v22Zm-29.4,0H482.2v-22h29.3v22Zm-29.3,0H452.8v-22h29.4v22Zm-29.4,0H423.5v-22h29.3v22Z" class="g1_295"/>
<path d="M482.3,449.6v13.5H324.4V249.4h78.3v10.7" class="g2_295"/>
<path d="M398.6,259l4.1,6.6l4,-6.6h-8.1Z" class="g0_295"/>
<path d="M430.8,329.1l91.3,55.4Z" class="g0_295"/>
<path d="M430.8,329.1l91.3,55.4" class="g2_295"/>
<path d="M518.9,387.1l8.1,.4l-3.7,-6.8l-4.4,6.4Z" class="g0_295"/>
<path d="M593.9,329.1L472.7,384.5Z" class="g0_295"/>
<path d="M593.9,329.1L472.7,384.5" class="g2_295"/>
<path d="M471.9,380.6l-4.5,6.3l8.1,.5l-3.6,-6.8Z" class="g0_295"/>
<path d="M371,329.1l121.8,55.4Z" class="g0_295"/>
<path d="M371,329.1l121.8,55.4" class="g2_295"/>
<path d="M489.9,387.5l8.1,-.6l-4.5,-6.3l-3.6,6.9Z" class="g0_295"/>
<path d="M536.2,329.1l-91.8,55.4Z" class="g0_295"/>
<path d="M536.2,329.1l-91.8,55.4" class="g2_295"/>
<path d="M443.2,380.7l-3.7,6.8l8.1,-.4l-4.4,-6.4Z" class="g0_295"/>
</svg>