<?xml version="1.0" encoding="UTF-8" standalone="no"?>
<!DOCTYPE svg PUBLIC "-//W3C//DTD SVG 1.1//EN"
"http://www.w3.org/Graphics/SVG/1.1/DTD/svg11.dtd">
<svg viewBox="0 0 935 1210" version="1.1" xmlns="http://www.w3.org/2000/svg" xmlns:xlink="http://www.w3.org/1999/xlink">
<defs>
<style type="text/css"><![CDATA[
.g0_2048{
fill: #FFF;
}
.g1_2048{
fill: #000;
}
]]></style>
</defs>
<path d="M165,1149.3H852.5v-21.2H165v21.2Z" class="g0_2048"/>
<path d="M68.8,1149.3h82.5v-21.2H68.8v21.2Z" class="g0_2048"/>
<path d="M68.9,287.8H851.1V258.2H68.9v29.6Z" class="g0_2048"/>
<path d="M69.9,281.1h53.5V268.7H69.9v12.4Z" class="g0_2048"/>
<path d="M68.6,257.9h.7V125.7h-.7V257.9Z" class="g1_2048"/>
<path d="M303.2,179.1h.8V124.9h-.8v54.2Z" class="g1_2048"/>
<path d="M303.2,258.6h.8V178.4h-.8v80.2Z" class="g1_2048"/>
<path d="M345.1,179.1h.8V124.9h-.8v54.2Z" class="g1_2048"/>
<path d="M345.1,258.6h.8V178.4h-.8v80.2Z" class="g1_2048"/>
<path d="M418.5,179.1h.7V124.9h-.7v54.2Z" class="g1_2048"/>
<path d="M418.5,258.6h.7V178.4h-.7v80.2Z" class="g1_2048"/>
<path d="M543.2,258.6h.8V124.9h-.8V258.6Z" class="g1_2048"/>
<path d="M850.8,257.9h.7V125.7h-.7V257.9Z" class="g1_2048"/>
<path d="M68.6,125.7H851.5v-.8H68.6v.8Z" class="g1_2048"/>
<path d="M68.6,179.1H544v-.7H68.6v.7Z" class="g1_2048"/>
<path d="M543.2,179.1H851.5v-.7H543.2v.7Z" class="g1_2048"/>
<path d="M68.6,218.8H544v-.7H68.6v.7Z" class="g1_2048"/>
<path d="M543.2,218.8H851.5v-.7H543.2v.7Z" class="g1_2048"/>
<path d="M68.6,258.6H543.2v-.7H68.6v.7Z" class="g1_2048"/>
<path d="M544,258.6H851.5v-.7H544v.7Z" class="g1_2048"/>
<path d="M68.6,411.2h.7V363.1h-.7v48.1Z" class="g1_2048"/>
<path d="M134.3,412h.7V362.3h-.7V412Z" class="g1_2048"/>
<path d="M227.5,412h.7V362.3h-.7V412Z" class="g1_2048"/>
<path d="M373.6,412h.8V362.3h-.8V412Z" class="g1_2048"/>
<path d="M533.5,412h.7V362.3h-.7V412Z" class="g1_2048"/>
<path d="M692.2,412h.7V362.3h-.7V412Z" class="g1_2048"/>
<path d="M848.8,411.2h.8V363.1h-.8v48.1Z" class="g1_2048"/>
<path d="M68.6,363H849.7v-.7H68.6v.7Z" class="g1_2048"/>
<path d="M68.6,387.5H849.7v-.8H68.6v.8Z" class="g1_2048"/>
<path d="M68.6,412H849.7v-.8H68.6v.8Z" class="g1_2048"/>
</svg>