<?xml version="1.0" encoding="UTF-8" standalone="no"?>
<!DOCTYPE svg PUBLIC "-//W3C//DTD SVG 1.1//EN"
"http://www.w3.org/Graphics/SVG/1.1/DTD/svg11.dtd">
<svg viewBox="0 0 935 1210" version="1.1" xmlns="http://www.w3.org/2000/svg" xmlns:xlink="http://www.w3.org/1999/xlink">
<defs>
<style type="text/css"><![CDATA[
.g0_1155{
fill: #FFF;
}
.g1_1155{
fill: #000;
}
]]></style>
</defs>
<path d="M68.9,1149.3H755.2v-21.2H68.9v21.2Z" class="g0_1155"/>
<path d="M771.3,1149.3H855v-21.2H771.3v21.2Z" class="g0_1155"/>
<path d="M282.4,195H338V167.5H282.4V195Z" class="g0_1155"/>
<path d="M282.4,167.8h55.9v-.7H282.4v.7Z" class="g1_1155"/>
<path d="M337.6,195.3h.7V167.5h-.7v27.8Z" class="g1_1155"/>
<path d="M282.1,195.3H338v-.7H282.1v.7Z" class="g1_1155"/>
<path d="M282.1,195h.7V167.1h-.7V195Z" class="g1_1155"/>
<path d="M338,195h55.5V167.5H338V195Z" class="g0_1155"/>
<path d="M338,167.8h55.9v-.7H338v.7Z" class="g1_1155"/>
<path d="M393.2,195.3h.7V167.5h-.7v27.8Z" class="g1_1155"/>
<path d="M337.6,195.3h55.9v-.7H337.6v.7Z" class="g1_1155"/>
<path d="M337.6,195h.7V167.1h-.7V195Z" class="g1_1155"/>
<path d="M393.5,195h55.7V167.5H393.5V195Z" class="g0_1155"/>
<path d="M393.5,167.8h56v-.7h-56v.7Z" class="g1_1155"/>
<path d="M448.8,195.3h.7V167.5h-.7v27.8Z" class="g1_1155"/>
<path d="M393.2,195.3h56v-.7h-56v.7Z" class="g1_1155"/>
<path d="M393.2,195h.7V167.1h-.7V195Z" class="g1_1155"/>
<path d="M449.2,195h55.5V167.5H449.2V195Z" class="g0_1155"/>
<path d="M449.2,167.8h55.9v-.7H449.2v.7Z" class="g1_1155"/>
<path d="M504.3,195.3h.8V167.5h-.8v27.8Z" class="g1_1155"/>
<path d="M448.8,195.3h55.9v-.7H448.8v.7Z" class="g1_1155"/>
<path d="M448.8,195h.7V167.1h-.7V195Z" class="g1_1155"/>
<path d="M282.3,276.2h55.6V248.7H282.3v27.5Z" class="g0_1155"/>
<path d="M282.3,249.1h55.9v-.8H282.3v.8Z" class="g1_1155"/>
<path d="M337.5,276.6h.7V248.7h-.7v27.9Z" class="g1_1155"/>
<path d="M282,276.6h55.9v-.8H282v.8Z" class="g1_1155"/>
<path d="M282,276.2h.7V248.3H282v27.9Z" class="g1_1155"/>
<path d="M337.9,276.2h55.6V248.7H337.9v27.5Z" class="g0_1155"/>
<path d="M337.9,249.1h56v-.8h-56v.8Z" class="g1_1155"/>
<path d="M393.2,276.6h.7V248.7h-.7v27.9Z" class="g1_1155"/>
<path d="M337.5,276.6h56v-.8h-56v.8Z" class="g1_1155"/>
<path d="M337.5,276.2h.7V248.3h-.7v27.9Z" class="g1_1155"/>
<path d="M393.5,276.2h55.6V248.7H393.5v27.5Z" class="g0_1155"/>
<path d="M393.5,249.1h55.9v-.8H393.5v.8Z" class="g1_1155"/>
<path d="M448.7,276.6h.7V248.7h-.7v27.9Z" class="g1_1155"/>
<path d="M393.2,276.6h55.9v-.8H393.2v.8Z" class="g1_1155"/>
<path d="M393.2,276.2h.7V248.3h-.7v27.9Z" class="g1_1155"/>
<path d="M449.1,276.2h55.5V248.7H449.1v27.5Z" class="g0_1155"/>
<path d="M449.1,249.1H505v-.8H449.1v.8Z" class="g1_1155"/>
<path d="M504.3,276.6h.7V248.7h-.7v27.9Z" class="g1_1155"/>
<path d="M448.7,276.6h55.9v-.8H448.7v.8Z" class="g1_1155"/>
<path d="M448.7,276.2h.7V248.3h-.7v27.9Z" class="g1_1155"/>
<path d="M715.3,237.2l-.8,.2l.4,1.6l.7,-.2Z" class="g1_1155"/>
<path d="M714.8,238.2l2.1,-1.3l1.4,-.9l-.2,1.6l-.5,8.5l-.1,2.8l-1.3,-2.4l-4,-7.5l-.9,-1.5l1.6,.3l.5,.4l4.1,7.5l-1.3,.8l-.1,-.5l.6,-8.5l1.4,.1l-.3,.6l-2.1,1.3Z" class="g1_1155"/>
<path d="M712.9,237.8l2.5,.4l.3,1.3l-.2,.2l-.3,-.1l-2.5,-.3Z" class="g1_1155"/>
<path fill-rule="evenodd" d="M715.3,238.9l2.1,-1.4l-.6,8.5l-4,-7.5Z" class="g1_1155"/>
<path d="M706.4,197.5l-.1,-.3l-.7,.2v.3Z" class="g1_1155"/>
<path d="M715.3,237.2l.1,.4l-.8,.2l-.1,-.4Z" class="g1_1155"/>
<path d="M706.4,197.5l-.8,.2l8.9,39.7l.8,-.2Z" class="g1_1155"/>
<path d="M453.5,310.4H563.8v-.8H453.5v.8Z" class="g1_1155"/>
<path d="M563.1,337.9h.7V310h-.7v27.9Z" class="g1_1155"/>
<path d="M453.1,337.9H563.5v-.8H453.1v.8Z" class="g1_1155"/>
<path d="M453.1,337.5h.7V309.6h-.7v27.9Z" class="g1_1155"/>
<path d="M508.1,310h.7v-.4h-.7v.4Z" class="g1_1155"/>
<path d="M508.1,337.9h.7V310h-.7v27.9Z" class="g1_1155"/>
<path d="M535.6,310h.7v-.4h-.7v.4Z" class="g1_1155"/>
<path d="M535.6,337.9h.7V310h-.7v27.9Z" class="g1_1155"/>
<path d="M480.6,310h.7v-.4h-.7v.4Z" class="g1_1155"/>
<path d="M480.6,337.9h.7V310h-.7v27.9Z" class="g1_1155"/>
<path d="M695.7,279.7l.2,.7l1.6,-.3l-.2,-.7Z" class="g1_1155"/>
<path d="M696.8,280.2l-1.3,-2.1l-.9,-1.4l1.6,.2l8.5,.7l2.7,.1l-2.3,1.2l-7.6,4l-1.5,.8l.3,-1.6l.4,-.5l7.6,-3.9l.8,1.2l-.5,.1l-8.5,-.6l.1,-1.5l.6,.3l1.2,2.1Z" class="g1_1155"/>
<path d="M696.3,282.1l.4,-2.4l1.3,-.4l.2,.3l-.1,.3l-.3,2.4Z" class="g1_1155"/>
<path fill-rule="evenodd" d="M697.4,279.8l-1.3,-2.1l8.5,.6l-7.6,3.9Z" class="g1_1155"/>
<path d="M548.9,309.7l-.4,.1l.2,.8l.4,-.1Z" class="g1_1155"/>
<path d="M695.7,279.7l.4,-.1l.2,.7l-.4,.1Z" class="g1_1155"/>
<path d="M548.9,309.7l.2,.8L695.9,280.4l-.2,-.7Z" class="g1_1155"/>
<path d="M624.5,280.7l.2,.7l1.5,-.4l-.2,-.8Z" class="g1_1155"/>
<path d="M625.4,281.1L624,279l-1,-1.2h1.7l8.5,-.1l2.6,.1l-2.2,1.3l-7.1,4.6l-1.3,.8l.1,-1.4l.3,-.7l7.2,-4.6l.8,1.3l-.5,.1l-8.5,.1l.1,-1.5l.6,.3l1.4,2Z" class="g1_1155"/>
<path d="M625.3,283.1l.1,-2.5l1.3,-.5l.2,.2v.4l-.1,2.5Z" class="g1_1155"/>
<path fill-rule="evenodd" d="M626.1,280.6l-1.5,-2l8.5,-.1l-7.1,4.6Z" class="g1_1155"/>
<path d="M522.7,310.6l-.4,.1l.2,.7l.4,-.1Z" class="g1_1155"/>
<path d="M624.5,280.7l.4,-.1l.2,.7l-.4,.1Z" class="g1_1155"/>
<path d="M522.7,310.6l.2,.7L624.7,281.4l-.2,-.7Z" class="g1_1155"/>
<path d="M489.3,283.3l.4,-.8l-1.5,-.7l-.3,.7Z" class="g1_1155"/>
<path d="M488.9,282.2l-.3,2.5l-.1,1.6l-7.7,-6.6l-2,-1.8l2.6,.4l8.5,1.3l1.5,.3l-1.1,1.1l-.7,.1l-8.3,-1.2l.1,-1.6l.4,.3l6.4,5.5l-1,1.1l-.2,-.8l.3,-2.4Z" class="g1_1155"/>
<path d="M490.3,281l-1.7,1.7l-1.3,-.7v-.3l.2,-.1l1.7,-1.7Z" class="g1_1155"/>
<path fill-rule="evenodd" d="M488,282.1l-.2,2.5l-6.5,-5.5l8.5,1.3Z" class="g1_1155"/>
<path d="M545.9,309.3l.2,.1l.3,-.7l-.3,-.1Z" class="g1_1155"/>
<path d="M489.4,283.3l-.3,-.1l.3,-.7l.3,.1Z" class="g1_1155"/>
<path d="M545.9,309.3l.2,-.7l-56.4,-26l-.3,.7Z" class="g1_1155"/>
<path d="M439.8,284.5l.2,-.7l-1.6,-.5l-.1,.8Z" class="g1_1155"/>
<path d="M439.2,283.7l.1,2.5l.1,1.5l-1.4,-.9l-7.2,-4.7l-2.3,-1.4h2.8l8.5,.2h1.5l-.8,1.2l-.7,.3l-8.5,-.2v-1.5l.4,.2l7.1,4.6l-.8,1.3l-.4,-.6l-.1,-2.5Z" class="g1_1155"/>
<path d="M440.5,282.1l-1.5,2l-1.5,-.4v-.3l.2,-.1l1.5,-2.1Z" class="g1_1155"/>
<path fill-rule="evenodd" d="M438.4,283.7v2.5l-7.1,-4.7l8.5,.2Z" class="g1_1155"/>
<path d="M519.3,309.3l.4,.1l.1,-.8h-.3Z" class="g1_1155"/>
<path d="M439.8,284.5l-.3,-.1l.1,-.7l.4,.1Z" class="g1_1155"/>
<path d="M519.3,309.3l.2,-.7L440,283.8l-.2,.7Z" class="g1_1155"/>
<path d="M705.1,238.2l-.5,.6l1.2,1l.6,-.6Z" class="g1_1155"/>
<path d="M705.4,239.2l.8,-2.3l.5,-1.5l.9,1.4l4.7,7l1.6,2.2l-2.5,-1.1l-7.8,-3.4l-1.4,-.6l1.3,-.7h.8l7.8,3.4l-.7,1.3l-.3,-.2l-4.8,-7.1l1.3,-.8l.1,.6l-.9,2.4Z" class="g1_1155"/>
<path d="M703.5,240.2l2.2,-1.3l1.1,.9v.3l-.3,.1l-2.2,1.3Z" class="g1_1155"/>
<path fill-rule="evenodd" d="M706.1,239.5l.8,-2.4l4.8,7.1l-7.8,-3.4Z" class="g1_1155"/>
<path d="M652.8,195l-.3,-.2l-.5,.5l.3,.2Z" class="g1_1155"/>
<path d="M705.1,238.2l.3,.2l-.5,.6l-.3,-.2Z" class="g1_1155"/>
<path d="M652.8,195l-.5,.5l52.3,43.3l.5,-.6Z" class="g1_1155"/>
<path d="M695.7,244.6l-.4,.7l1.5,.8l.3,-.7Z" class="g1_1155"/>
<path d="M696.2,245.7l.3,-2.6l.2,-1.6l1.1,1.1l6.2,6l1.9,1.8l-2.5,-.5l-8.5,-1.8l-1.5,-.2l1.1,-1l.7,-.2l8.4,1.7l-.2,1.5l-.4,-.2l-6.2,-6l1,-1.1l.2,.7l-.3,2.5Z" class="g1_1155"/>
<path d="M694.5,246.9l1.9,-1.7l1.3,.7v.2l-.2,.2l-1.9,1.7Z" class="g1_1155"/>
<path fill-rule="evenodd" d="M696.9,245.8l.3,-2.6l6.3,5.9L695,247.4Z" class="g1_1155"/>
<path d="M603.7,196.9l-.3,-.2l-.3,.7l.3,.1Z" class="g1_1155"/>
<path d="M695.7,244.7l.2,.1l-.3,.7l-.3,-.2Z" class="g1_1155"/>
<path d="M603.7,196.9l-.3,.6l91.9,47.8l.4,-.6Z" class="g1_1155"/>
<path d="M675.5,244.6l-.2,.7l1.5,.5l.2,-.8Z" class="g1_1155"/>
<path d="M676,245.4v-4l1.3,.9l7,4.9l2.2,1.6l-2.7,-.1l-8.5,-.5l-1.5,-.1l.9,-1.1l.7,-.3l8.5,.4l-.1,1.6l-.4,-.2l-7,-4.9l.9,-1.3l.4,.6v2.5Z" class="g1_1155"/>
<path d="M674.7,247l1.5,-2.1l1.5,.5v.3l-.2,.2l-1.5,2Z" class="g1_1155"/>
<path fill-rule="evenodd" d="M676.9,245.4v-2.5l6.9,5l-8.5,-.5Z" class="g1_1155"/>
<path d="M540.2,197.6l-.4,-.1l-.3,.8l.4,.1Z" class="g1_1155"/>
<path d="M675.6,244.6l.4,.1l-.3,.7l-.4,-.1Z" class="g1_1155"/>
<path d="M540.2,197.6l-.3,.8l135.4,46.9l.3,-.7Z" class="g1_1155"/>
<path d="M505.4,275.5H561V248H505.4v27.5Z" class="g0_1155"/>
<path d="M505.4,248.4h56v-.7h-56v.7Z" class="g1_1155"/>
<path d="M560.6,275.9h.8V248h-.8v27.9Z" class="g1_1155"/>
<path d="M505.1,275.9H561v-.7H505.1v.7Z" class="g1_1155"/>
<path d="M505.1,275.5h.7V247.7h-.7v27.8Z" class="g1_1155"/>
<path d="M561,275.5h55.6V248H561v27.5Z" class="g0_1155"/>
<path d="M561,248.4h55.9v-.7H561v.7Z" class="g1_1155"/>
<path d="M616.2,275.9h.7V248h-.7v27.9Z" class="g1_1155"/>
<path d="M560.6,275.9h56v-.7h-56v.7Z" class="g1_1155"/>
<path d="M560.6,275.5h.8V247.7h-.8v27.8Z" class="g1_1155"/>
<path d="M616.6,275.5h55.5V248H616.6v27.5Z" class="g0_1155"/>
<path d="M616.6,248.4h55.9v-.7H616.6v.7Z" class="g1_1155"/>
<path d="M671.7,275.9h.8V248h-.8v27.9Z" class="g1_1155"/>
<path d="M616.2,275.9h55.9v-.7H616.2v.7Z" class="g1_1155"/>
<path d="M616.2,275.5h.7V247.7h-.7v27.8Z" class="g1_1155"/>
<path d="M672.1,275.5h55.6V248H672.1v27.5Z" class="g0_1155"/>
<path d="M672.1,248.4h56v-.7h-56v.7Z" class="g1_1155"/>
<path d="M727.4,275.9h.7V248h-.7v27.9Z" class="g1_1155"/>
<path d="M671.7,275.9h56v-.7h-56v.7Z" class="g1_1155"/>
<path d="M671.7,275.5h.8V247.7h-.8v27.8Z" class="g1_1155"/>
<path d="M505.7,195.2h55.6V167.7H505.7v27.5Z" class="g0_1155"/>
<path d="M505.7,168.1h55.9v-.7H505.7v.7Z" class="g1_1155"/>
<path d="M560.9,195.6h.7V167.7h-.7v27.9Z" class="g1_1155"/>
<path d="M505.4,195.6h55.9v-.7H505.4v.7Z" class="g1_1155"/>
<path d="M505.4,195.2h.7V167.4h-.7v27.8Z" class="g1_1155"/>
<path d="M561.3,195.2h55.5V167.7H561.3v27.5Z" class="g0_1155"/>
<path d="M561.3,168.1h55.9v-.7H561.3v.7Z" class="g1_1155"/>
<path d="M616.5,195.6h.7V167.7h-.7v27.9Z" class="g1_1155"/>
<path d="M560.9,195.6h55.9v-.7H560.9v.7Z" class="g1_1155"/>
<path d="M560.9,195.2h.7V167.4h-.7v27.8Z" class="g1_1155"/>
<path d="M616.8,195.2h55.7V167.7H616.8v27.5Z" class="g0_1155"/>
<path d="M616.8,168.1h56v-.7h-56v.7Z" class="g1_1155"/>
<path d="M672.1,195.6h.7V167.7h-.7v27.9Z" class="g1_1155"/>
<path d="M616.5,195.6h56v-.7h-56v.7Z" class="g1_1155"/>
<path d="M616.5,195.2h.7V167.4h-.7v27.8Z" class="g1_1155"/>
<path d="M672.5,195.2H728V167.7H672.5v27.5Z" class="g0_1155"/>
<path d="M672.5,168.1h55.9v-.7H672.5v.7Z" class="g1_1155"/>
<path d="M727.7,195.6h.7V167.7h-.7v27.9Z" class="g1_1155"/>
<path d="M672.1,195.6H728v-.7H672.1v.7Z" class="g1_1155"/>
<path d="M672.1,195.2h.7V167.4h-.7v27.8Z" class="g1_1155"/>
<path d="M584.6,278.5l.1,.7l1.6,-.4l-.2,-.8Z" class="g1_1155"/>
<path d="M585.6,278.9L584,276.8l-.9,-1.2h1.5l8.6,-.3l2.6,-.1l-2.2,1.5l-7,4.8l-1.3,.9v-1.5l.4,-.7l7.1,-4.7l.8,1.2l-.3,.1l-8.6,.3l-.1,-1.5l.7,.3l1.5,2Z" class="g1_1155"/>
<path d="M585.3,280.9l.1,-2.5l1.4,-.5l.2,.2v.3l-.1,2.5Z" class="g1_1155"/>
<path fill-rule="evenodd" d="M586.2,278.4l-1.5,-2l8.5,-.3l-7.1,4.8Z" class="g1_1155"/>
<path d="M497.3,306.7l-.4,.1l.2,.7l.4,-.1Z" class="g1_1155"/>
<path d="M584.6,278.5l.3,-.1l.2,.7l-.4,.1Z" class="g1_1155"/>
<path d="M497.3,306.7l.2,.7l87.2,-28.2l-.1,-.7Z" class="g1_1155"/>
<path d="M532.2,280.4l.4,.7l1.5,-.7l-.4,-.7Z" class="g1_1155"/>
<path d="M533.3,280.6l-1.8,-1.8l-1.1,-1l1.5,-.2l8.5,-1.5l2.6,-.6l-2,1.9l-6.3,5.7l-1.2,1.1l-.2,-1.6l.4,-.6l6.3,-5.7l1,1.1l-.4,.2l-8.4,1.4l-.3,-1.4l.7,.1l1.8,1.8Z" class="g1_1155"/>
<path d="M533.3,282.6l-.3,-2.5l1.4,-.6l.2,.2v.2l.3,2.5Z" class="g1_1155"/>
<path fill-rule="evenodd" d="M533.9,280L532,278.3l8.5,-1.5l-6.4,5.7Z" class="g1_1155"/>
<path d="M477,307.7l-.2,.2l.3,.6l.3,-.1Z" class="g1_1155"/>
<path d="M532.2,280.5l.3,-.2l.4,.7l-.3,.1Z" class="g1_1155"/>
<path d="M477,307.7l.4,.7l55.2,-27.3l-.4,-.6Z" class="g1_1155"/>
<path d="M327.6,279.3l.2,-.7l-1.7,-.4l-.1,.7Z" class="g1_1155"/>
<path d="M326.8,278.5l.4,2.6l.2,1.5l-1.4,-.8l-7.6,-4.1l-2.1,-1.3l2.5,-.1l8.5,-.6l1.7,-.1l-.9,1.3l-.7,.3l-8.5,.6l-.1,-1.5l.5,.1l7.5,4.1l-.8,1.3l-.3,-.6l-.4,-2.5Z" class="g1_1155"/>
<path d="M328.1,276.9l-1.4,2.1l-1.4,-.3l-.1,-.3l.2,-.3l1.4,-2.1Z" class="g1_1155"/>
<path fill-rule="evenodd" d="M326.1,278.6l.3,2.5L318.9,277l8.5,-.5Z" class="g1_1155"/>
<path d="M464.3,310.2l.4,.1l.1,-.7l-.3,-.1Z" class="g1_1155"/>
<path d="M327.6,279.3l-.4,-.1l.2,-.7l.4,.1Z" class="g1_1155"/>
<path d="M464.3,310.2l.2,-.7L327.8,278.6l-.2,.7Z" class="g1_1155"/>
<path d="M381,280.8l.1,-.8l-1.5,-.3l-.2,.7Z" class="g1_1155"/>
<path d="M380.2,279.9l.3,2.5l.3,1.6l-1.5,-.8l-7.4,-4.3l-2.2,-1.2l2.6,-.2l8.5,-.3l1.6,-.1l-.9,1.3l-.6,.3l-8.5,.3l-.1,-1.5l.4,.2l7.4,4.2l-.8,1.3l-.3,-.6l-.2,-2.5Z" class="g1_1155"/>
<path d="M381.5,278.4l-1.4,2.1l-1.3,-.4l-.1,-.2l.2,-.3l1.3,-2.1Z" class="g1_1155"/>
<path fill-rule="evenodd" d="M379.5,280l.3,2.5l-7.4,-4.2l8.5,-.4Z" class="g1_1155"/>
<path d="M491.8,308.4l.4,.1l.1,-.8l-.3,-.1Z" class="g1_1155"/>
<path d="M381,280.8l-.4,-.1l.2,-.7h.3Z" class="g1_1155"/>
<path d="M491.8,308.4l.2,-.8L381.1,280l-.1,.8Z" class="g1_1155"/>
<path d="M489.1,236.6l-.7,.2l.4,1.5l.7,-.1Z" class="g1_1155"/>
<path d="M488.7,237.6l2.1,-1.4l1.3,-.9L492,237l-.5,8.5l-.1,2.6l-1.3,-2.2L486,238.4l-.8,-1.3l1.5,.1l.6,.4l4.1,7.4l-1.3,.9l-.1,-.5l.5,-8.5l1.5,.1l-.3,.5l-2.1,1.4Z" class="g1_1155"/>
<path d="M486.8,237.2l2.4,.3l.4,1.4l-.3,.2L489,239l-2.4,-.3Z" class="g1_1155"/>
<path fill-rule="evenodd" d="M489.1,238.2l2.1,-1.3l-.4,8.5L486.7,238Z" class="g1_1155"/>
<path d="M480.2,196.9v-.4l-.8,.2l.1,.4Z" class="g1_1155"/>
<path d="M489.1,236.6l.1,.4l-.7,.1l-.1,-.3Z" class="g1_1155"/>
<path d="M480.2,196.9l-.7,.2l8.9,39.7l.7,-.2Z" class="g1_1155"/>
<path d="M479,237.6l-.6,.6l1.3,1.1l.5,-.6Z" class="g1_1155"/>
<path d="M479.2,238.7l.9,-2.4l.4,-1.5l.9,1.4l4.9,7.1l1.6,2.2l-2.5,-1.1l-7.9,-3.5l-1.5,-.6l1.4,-.8h.7L486,243l-.6,1.4l-.4,-.3L480.2,237l1.2,-.8l.1,.7l-.8,2.3Z" class="g1_1155"/>
<path d="M477.4,239.5l2.2,-1.2l1.1,1l-.1,.2l-.3,.1l-2.2,1.2Z" class="g1_1155"/>
<path fill-rule="evenodd" d="M480,239l.8,-2.4l4.9,7l-7.9,-3.4Z" class="g1_1155"/>
<path d="M426.6,194.3l-.3,-.1l-.4,.5l.3,.2Z" class="g1_1155"/>
<path d="M479,237.6l.2,.2l-.4,.5l-.3,-.1Z" class="g1_1155"/>
<path d="M426.6,194.3l-.4,.6l52.3,43.3l.5,-.6Z" class="g1_1155"/>
<path d="M469.5,244l-.3,.7l1.4,.8l.4,-.8Z" class="g1_1155"/>
<path d="M470.1,245l.2,-2.4l.1,-1.6l1.2,1.1l6.3,5.9l1.9,1.8l-2.6,-.6l-8.3,-1.7l-1.6,-.3l1.1,-1l.7,-.2l8.4,1.8l-.3,1.4l-.4,-.1l-6.2,-5.9l1,-1.1l.2,.6l-.3,2.5Z" class="g1_1155"/>
<path d="M468.4,246.2l1.9,-1.6l1.2,.6v.3l-.1,.2l-1.9,1.6Z" class="g1_1155"/>
<path fill-rule="evenodd" d="M470.8,245.1l.3,-2.5l6.2,5.9L469,246.8Z" class="g1_1155"/>
<path d="M377.7,196.3l-.3,-.2l-.4,.6l.3,.2Z" class="g1_1155"/>
<path d="M469.5,244.1l.3,.2l-.4,.6l-.2,-.1Z" class="g1_1155"/>
<path d="M377.7,196.3l-.4,.6l91.8,47.9l.4,-.7Z" class="g1_1155"/>
<path d="M449.3,243.9l-.1,.8l1.5,.5l.2,-.7Z" class="g1_1155"/>
<path d="M450,244.8l-.1,-2.5v-1.6l1.3,.9l7,5l2.2,1.5l-2.7,-.1l-8.5,-.4l-1.6,-.1l.9,-1.2l.8,-.3l8.5,.5l-.1,1.5l-.5,-.1l-6.9,-5l.9,-1.3l.4,.7v2.5Z" class="g1_1155"/>
<path d="M448.5,246.3l1.7,-1.9l1.4,.4v.3l-.1,.2l-1.7,1.9Z" class="g1_1155"/>
<path fill-rule="evenodd" d="M450.8,244.8l-.1,-2.5l7,4.9l-8.5,-.4Z" class="g1_1155"/>
<path d="M314,197l-.3,-.1l-.3,.7l.4,.1Z" class="g1_1155"/>
<path d="M449.4,243.9l.4,.1l-.3,.7h-.3Z" class="g1_1155"/>
<path d="M314,197l-.2,.7l135.4,47l.2,-.8Z" class="g1_1155"/>
</svg>