<?xml version="1.0" encoding="UTF-8" standalone="no"?>
<!DOCTYPE svg PUBLIC "-//W3C//DTD SVG 1.1//EN"
"http://www.w3.org/Graphics/SVG/1.1/DTD/svg11.dtd">
<svg viewBox="0 0 935 1210" version="1.1" xmlns="http://www.w3.org/2000/svg" xmlns:xlink="http://www.w3.org/1999/xlink">
<defs>
<style type="text/css"><![CDATA[
.g0_4894{
fill: #FFF;
}
.g1_4894{
fill: #000;
}
]]></style>
</defs>
<path d="M68.8,1149.3H852.5v-21.2H68.8v21.2Z" class="g0_4894"/>
<path d="M68.6,1099.6h.7V124.1h-.7v975.5Z" class="g1_4894"/>
<path d="M122.7,1100.5h.8V164.6h-.8v935.9Z" class="g1_4894"/>
<path d="M173.5,1100.5h.8V123.4h-.8v977.1Z" class="g1_4894"/>
<path d="M393.8,1100.5h.7V123.4h-.7v977.1Z" class="g1_4894"/>
<path d="M469.1,1100.5h.7V123.4h-.7v977.1Z" class="g1_4894"/>
<path d="M560.4,1100.5h.8V123.4h-.8v977.1Z" class="g1_4894"/>
<path d="M850.1,1099.6h.7V124.1h-.7v975.5Z" class="g1_4894"/>
<path d="M68.6,124.1H850.8v-.7H68.6v.7Z" class="g1_4894"/>
<path d="M68.6,165.4H174.3v-.8H68.6v.8Z" class="g1_4894"/>
<path d="M68.6,189.8H850.8v-.7H68.6v.7Z" class="g1_4894"/>
<path d="M173.5,302.9H850.8v-.8H173.5v.8Z" class="g1_4894"/>
<path d="M173.5,432.8H850.8V432H173.5v.8Z" class="g1_4894"/>
<path d="M173.5,545.8H850.8v-.7H173.5v.7Z" class="g1_4894"/>
<path d="M173.5,658.9H850.8v-.7H173.5v.7Z" class="g1_4894"/>
<path d="M173.5,683.3H850.8v-.7H173.5v.7Z" class="g1_4894"/>
<path d="M173.5,796.4H850.8v-.7H173.5v.7Z" class="g1_4894"/>
<path d="M68.6,820.8H850.8v-.7H68.6v.7Z" class="g1_4894"/>
<path d="M173.5,866.6H850.8v-.7H173.5v.7Z" class="g1_4894"/>
<path d="M173.5,946.1H850.8v-.7H173.5v.7Z" class="g1_4894"/>
<path d="M173.5,1008.7H850.8v-.7H173.5v.7Z" class="g1_4894"/>
<path d="M173.5,1054.5H850.8v-.7H173.5v.7Z" class="g1_4894"/>
<path d="M68.6,1100.4H850.8v-.8H68.6v.8Z" class="g1_4894"/>
</svg>