<?xml version="1.0" encoding="UTF-8" standalone="no"?>
<!DOCTYPE svg PUBLIC "-//W3C//DTD SVG 1.1//EN"
"http://www.w3.org/Graphics/SVG/1.1/DTD/svg11.dtd">
<svg viewBox="0 0 935 1210" version="1.1" xmlns="http://www.w3.org/2000/svg" xmlns:xlink="http://www.w3.org/1999/xlink">
<defs>
<style type="text/css"><![CDATA[
.g0_735{
fill: #FFF;
}
.g1_735{
fill: #000;
}
]]></style>
</defs>
<path d="M68.9,1149.3H852.7v-21.2H68.9v21.2Z" class="g0_735"/>
<path d="M118.3,1015.1h.8V481.6h-.8v533.5Z" class="g1_735"/>
<path d="M803.6,1015.1h.8V481.6h-.8v533.5Z" class="g1_735"/>
<path d="M118.3,481.6H804.4v-.7H118.3v.7Z" class="g1_735"/>
<path d="M118.3,1015.9H804.4v-.8H118.3v.8Z" class="g1_735"/>
<path d="M297.5,749.3H405.4v-.7H297.5v.7Z" class="g1_735"/>
<path d="M404.6,793.1h.8V748.9h-.8v44.2Z" class="g1_735"/>
<path d="M297.2,793.1H405v-.7H297.2v.7Z" class="g1_735"/>
<path d="M297.2,792.7h.7V748.5h-.7v44.2Z" class="g1_735"/>
<path d="M297.5,539.2H405.4v-.7H297.5v.7Z" class="g1_735"/>
<path d="M404.6,565.4h.8V538.8h-.8v26.6Z" class="g1_735"/>
<path d="M297.2,565.4H405v-.7H297.2v.7Z" class="g1_735"/>
<path d="M297.2,565h.7V538.5h-.7V565Z" class="g1_735"/>
<path d="M297.5,565.4H405.4v-.7H297.5v.7Z" class="g1_735"/>
<path d="M404.6,591.6h.8V565h-.8v26.6Z" class="g1_735"/>
<path d="M297.2,591.6H405v-.7H297.2v.7Z" class="g1_735"/>
<path d="M297.2,591.3h.7V564.7h-.7v26.6Z" class="g1_735"/>
<path d="M297.5,617.7H405.4V617H297.5v.7Z" class="g1_735"/>
<path d="M404.6,644h.8V617.4h-.8V644Z" class="g1_735"/>
<path d="M297.2,644H405v-.8H297.2v.8Z" class="g1_735"/>
<path d="M297.2,643.6h.7V617h-.7v26.6Z" class="g1_735"/>
<path d="M297.5,591.6H405.4v-.7H297.5v.7Z" class="g1_735"/>
<path d="M404.6,617.7h.8V591.3h-.8v26.4Z" class="g1_735"/>
<path d="M297.2,617.7H405V617H297.2v.7Z" class="g1_735"/>
<path d="M297.2,617.4h.7V590.9h-.7v26.5Z" class="g1_735"/>
<path d="M297.5,644H405.4v-.8H297.5v.8Z" class="g1_735"/>
<path d="M404.6,670.2h.8V643.6h-.8v26.6Z" class="g1_735"/>
<path d="M297.2,670.2H405v-.8H297.2v.8Z" class="g1_735"/>
<path d="M297.2,669.8h.7V643.2h-.7v26.6Z" class="g1_735"/>
<path d="M297.5,670.2H405.4v-.8H297.5v.8Z" class="g1_735"/>
<path d="M404.6,696.4h.8V669.8h-.8v26.6Z" class="g1_735"/>
<path d="M297.2,696.4H405v-.7H297.2v.7Z" class="g1_735"/>
<path d="M297.2,696h.7V669.4h-.7V696Z" class="g1_735"/>
<path d="M297.5,722.5H405.4v-.7H297.5v.7Z" class="g1_735"/>
<path d="M404.6,748.7h.8V722.1h-.8v26.6Z" class="g1_735"/>
<path d="M297.2,748.7H405V748H297.2v.7Z" class="g1_735"/>
<path d="M297.2,748.4h.7V721.8h-.7v26.6Z" class="g1_735"/>
<path d="M297.5,696.4H405.4v-.7H297.5v.7Z" class="g1_735"/>
<path d="M404.6,722.5h.8V696h-.8v26.5Z" class="g1_735"/>
<path d="M297.2,722.5H405v-.7H297.2v.7Z" class="g1_735"/>
<path d="M297.2,722.1h.7V695.7h-.7v26.4Z" class="g1_735"/>
<path d="M297.2,923.9H405v-.7H297.2v.7Z" class="g1_735"/>
<path d="M404.3,950h.7V923.5h-.7V950Z" class="g1_735"/>
<path d="M296.8,950H404.6v-.7H296.8v.7Z" class="g1_735"/>
<path d="M296.8,949.7h.7V923.2h-.7v26.5Z" class="g1_735"/>
<path d="M512.4,696.9H620.2v-.7H512.4v.7Z" class="g1_735"/>
<path d="M619.5,748.7h.7V696.6h-.7v52.1Z" class="g1_735"/>
<path d="M512.1,748.7H619.9V748H512.1v.7Z" class="g1_735"/>
<path d="M512.1,748.4h.7V696.2h-.7v52.2Z" class="g1_735"/>
<path d="M512.4,591.6H620.2v-.7H512.4v.7Z" class="g1_735"/>
<path d="M619.5,643.4h.7V591.3h-.7v52.1Z" class="g1_735"/>
<path d="M512.1,643.4H619.9v-.7H512.1v.7Z" class="g1_735"/>
<path d="M512.1,643h.7V590.9h-.7V643Z" class="g1_735"/>
<path d="M512.4,539.2H620.2v-.7H512.4v.7Z" class="g1_735"/>
<path d="M619.5,592h.7V538.8h-.7V592Z" class="g1_735"/>
<path d="M512.1,592H619.9v-.7H512.1v.7Z" class="g1_735"/>
<path d="M512.1,591.6h.7V538.5h-.7v53.1Z" class="g1_735"/>
<path d="M619.3,643.3h.7v-.4h-.7v.4Z" class="g1_735"/>
<path d="M620,643.3v15.5l-3.8,5.7l-.6,.2l.4,-.7l8.9,4.7l.4,.2l-.3,.4h-.5l-8.9,-4.6l-.3,-.2l.2,-.4l3.9,-5.7l.6,.4l-.7,-.2V643.3Z" class="g1_735"/>
<path d="M625,669.3l-5.1,6.2l-.6,-.3v-.1l.1,-.1l5,-6.2Z" class="g1_735"/>
<path d="M619.3,696.4h.7V675.2h-.7v21.2Z" class="g1_735"/>
<path d="M511.9,643.6h.7v-.4h-.7v.4Z" class="g1_735"/>
<path d="M512.6,643.6v15.6l-3.9,5.7l-.6,.1l.4,-.7l9,4.7l.3,.2l-.3,.3l-.4,.1l-9,-4.6l-.4,-.2l.3,-.4l4,-5.7l.6,.5l-.7,-.3V643.6Z" class="g1_735"/>
<path d="M517.6,669.5l-5.1,6.3l-.6,-.3v-.1l.1,-.1l5,-6.2Z" class="g1_735"/>
<path d="M511.9,696.7h.7V675.5h-.7v21.2Z" class="g1_735"/>
<path d="M511.4,951.8H619.2V951H511.4v.8Z" class="g1_735"/>
<path d="M618.5,1003.6h.7V951.4h-.7v52.2Z" class="g1_735"/>
<path d="M511,1003.6H618.8v-.8H511v.8Z" class="g1_735"/>
<path d="M511,1003.2h.8V951H511v52.2Z" class="g1_735"/>
<path d="M511.4,846.4H619.2v-.7H511.4v.7Z" class="g1_735"/>
<path d="M618.5,898.2h.7V846.1h-.7v52.1Z" class="g1_735"/>
<path d="M511,898.2H618.8v-.7H511v.7Z" class="g1_735"/>
<path d="M511,897.9h.8V845.7H511v52.2Z" class="g1_735"/>
<path d="M511.4,794.1H619.2v-.7H511.4v.7Z" class="g1_735"/>
<path d="M618.5,846.8h.7V793.7h-.7v53.1Z" class="g1_735"/>
<path d="M511,846.8H618.8v-.7H511v.7Z" class="g1_735"/>
<path d="M511,846.4h.8v-53H511v53Z" class="g1_735"/>
<path d="M618.3,898.2h.7v-.4h-.7v.4Z" class="g1_735"/>
<path d="M619,898.2v15.5l-3.9,5.8l-.6,.1l.4,-.6l9,4.5l.4,.2l-.3,.4l-.5,.1l-9,-4.6l-.3,-.2l.2,-.3l4,-5.8l.6,.4l-.7,-.2V898.2Z" class="g1_735"/>
<path d="M624,924.1l-5.1,6.3l-.6,-.3V930h.1l5,-6.4Z" class="g1_735"/>
<path d="M618.3,951.2h.7V930.1h-.7v21.1Z" class="g1_735"/>
<path d="M510.9,898.4h.7v-.3h-.7v.3Z" class="g1_735"/>
<path d="M511.6,898.4V914l-3.9,5.8l-.6,.1l.4,-.7l8.9,4.6l.4,.2l-.3,.4l-.4,.1l-9,-4.6l-.4,-.2l.3,-.4l3.9,-5.8l.7,.5l-.7,-.3V898.4Z" class="g1_735"/>
<path d="M516.5,924.4l-5,6.3l-.6,-.3v-.1l.1,-.1l5,-6.3Z" class="g1_735"/>
<path d="M510.9,951.5h.7V930.4h-.7v21.1Z" class="g1_735"/>
<path d="M497.4,552.3H499v-.7h-1.6v.7Z" class="g1_735"/>
<path d="M498.3,552.2l-.9,-2.3l-.7,-1.5l9.9,2.8l2.6,.7l-2.6,.8l-8.2,2.3l-1.6,.5l.6,-1.5l.5,-.4l8.3,-2.4l.4,1.5h-.4l-8.3,-2.3l.5,-1.5l.4,.5l1,2.3Z" class="g1_735"/>
<path d="M497.4,554l.9,-2.3h1.5l.1,.2l-.1,.3l-1,2.4Z" class="g1_735"/>
<path fill-rule="evenodd" d="M499,551.9l-.9,-2.3l8.3,2.3l-8.3,2.4Z" class="g1_735"/>
<path d="M431.5,552.3h.3v-.7h-.3v.7Z" class="g1_735"/>
<path d="M431.8,552.3h65.9v-.7H431.8v.7Z" class="g1_735"/>
<path d="M501.2,649.5h1.6v-.8h-1.6v.8Z" class="g1_735"/>
<path d="M502.1,649.4l-.9,-2.2l-.6,-1.5l1.6,.5l10.3,2.9L502.2,652l-1.5,.5l.5,-1.5l.6,-.4l7.7,-2.2l.4,1.4h-.4l-7.7,-2.2l.4,-1.4l.5,.4l.8,2.2Z" class="g1_735"/>
<path d="M501.2,651l.9,-2.2h1.4l.1,.3l-.1,.3l-.8,2.2Z" class="g1_735"/>
<path fill-rule="evenodd" d="M502.8,649.1l-.8,-2.2l7.7,2.2l-7.7,2.2Z" class="g1_735"/>
<path d="M431.5,578.5h67.9v-.7H431.5v.7Z" class="g1_735"/>
<path d="M498.7,649.5h.7V578.1h-.7v71.4Z" class="g1_735"/>
<path d="M499,649.5h2.6v-.8H499v.8Z" class="g1_735"/>
<path d="M497.7,743.2h1.7v-.7h-1.7v.7Z" class="g1_735"/>
<path d="M498.7,743.1l-1,-2.3l-.5,-1.5l1.6,.5l8.2,2.3l2.6,.8l-2.6,.7l-8.2,2.4l-1.6,.4l.5,-1.4l.6,-.5l8.3,-2.4l.4,1.5h-.4l-8.3,-2.4l.5,-1.4l.4,.4l.9,2.4Z" class="g1_735"/>
<path d="M497.7,745l1,-2.4h1.4l.1,.3l-.1,.2l-.9,2.4Z" class="g1_735"/>
<path fill-rule="evenodd" d="M499.4,742.9l-.9,-2.4l8.2,2.4l-8.2,2.3Z" class="g1_735"/>
<path d="M431.5,604.7H484V604H431.5v.7Z" class="g1_735"/>
<path d="M483.3,743.2h.7V604.4h-.7V743.2Z" class="g1_735"/>
<path d="M483.6,743.2h14.5v-.7H483.6v.7Z" class="g1_735"/>
<path d="M496.7,803.9h1.7v-.7h-1.7v.7Z" class="g1_735"/>
<path d="M497.7,803.8l-.9,-2.3l-.6,-1.4l1.6,.4l8.2,2.3l2.5,.8l-2.5,.7l-8.2,2.4l-1.5,.4l.5,-1.4l.6,-.5l8.1,-2.4l.5,1.5h-.5L497.4,802l.4,-1.5l.5,.5l.8,2.3Z" class="g1_735"/>
<path d="M496.8,805.7l.9,-2.4h1.4l.1,.2l-.1,.3l-.8,2.4Z" class="g1_735"/>
<path fill-rule="evenodd" d="M498.4,803.5l-.8,-2.2l8.1,2.2l-8.1,2.4Z" class="g1_735"/>
<path d="M431.5,657.1h39v-.8h-39v.8Z" class="g1_735"/>
<path d="M469.8,803.9h.7V656.7h-.7V803.9Z" class="g1_735"/>
<path d="M470.2,803.9h26.9v-.7H470.2v.7Z" class="g1_735"/>
<path d="M498.8,904.9h1.5v-.7h-1.5v.7Z" class="g1_735"/>
<path d="M499.6,904.8l-.8,-2.3l-.6,-1.5l1.6,.4l8.2,2.4l2.7,.8l-2.7,.7l-8.2,2.3l-1.6,.5l.6,-1.5l.5,-.5l8.3,-2.3l.4,1.5h-.4l-8.3,-2.4l.5,-1.5l.4,.5l.8,2.4Z" class="g1_735"/>
<path d="M498.8,906.6l.8,-2.3H501l.1,.3l-.1,.2l-.8,2.3Z" class="g1_735"/>
<path fill-rule="evenodd" d="M500.3,904.6l-.8,-2.4l8.2,2.4l-8.2,2.3Z" class="g1_735"/>
<path d="M436.3,681.4h25.3v-.8H436.3v.8Z" class="g1_735"/>
<path d="M460.9,904.9h.7V681h-.7V904.9Z" class="g1_735"/>
<path d="M461.3,904.9h37.8v-.7H461.3v.7Z" class="g1_735"/>
<path d="M495.8,998.4h1.7v-.7h-1.7v.7Z" class="g1_735"/>
<path d="M496.7,998.3l-.9,-2.2l-.6,-1.5l9.9,2.7l2.6,.8l-2.6,.7l-8.3,2.4l-1.5,.4l.5,-1.4l.6,-.5l8.2,-2.4l.5,1.5h-.5l-8.2,-2.3l.4,-1.5l.5,.5l.9,2.3Z" class="g1_735"/>
<path d="M495.8,1000.2l.9,-2.4h1.5l.1,.3l-.1,.2l-.9,2.4Z" class="g1_735"/>
<path fill-rule="evenodd" d="M497.5,998.1l-.9,-2.3l8.2,2.3l-8.2,2.4Z" class="g1_735"/>
<path d="M431.5,709.4h13.4v-.7H431.5v.7Z" class="g1_735"/>
<path d="M444.1,998.4h.8V709h-.8V998.4Z" class="g1_735"/>
<path d="M444.5,998.4h51.7v-.7H444.5v.7Z" class="g1_735"/>
<path d="M415.9,542.2h1.6v-.7h-1.6v.7Z" class="g1_735"/>
<path d="M416.6,541.6l.9,2.3l.6,1.4l-1.7,-.4l-8.1,-2.3l-2.5,-.8l2.5,-.7l8.1,-2.4l1.6,-.4l-.5,1.4l-.6,.5l-8.2,2.4l-.4,-1.5h.4l8.2,2.3l-.5,1.5l-.4,-.5l-.8,-2.3Z" class="g1_735"/>
<path d="M417.4,539.7l-.8,2.4h-1.4l-.1,-.3l.1,-.2l.8,-2.4Z" class="g1_735"/>
<path fill-rule="evenodd" d="M415.9,541.8l.8,2.3l-8.1,-2.3l8.1,-2.3Z" class="g1_735"/>
<path d="M433.4,499.7h12.5v-.8H433.4v.8Z" class="g1_735"/>
<path d="M433.4,542.2h.7V499.3h-.7v42.9Z" class="g1_735"/>
<path d="M417.2,542.2h16.6v-.7H417.2v.7Z" class="g1_735"/>
<path d="M297.1,792.5H405v-.8H297.1v.8Z" class="g1_735"/>
<path d="M404.3,836.3h.7V792.1h-.7v44.2Z" class="g1_735"/>
<path d="M296.7,836.3H404.6v-.8H296.7v.8Z" class="g1_735"/>
<path d="M296.7,835.9h.8V791.7h-.8v44.2Z" class="g1_735"/>
<path d="M297.1,835.6H404.9v-.7H297.1v.7Z" class="g1_735"/>
<path d="M404.2,879.4h.7V835.3h-.7v44.1Z" class="g1_735"/>
<path d="M296.7,879.4H404.5v-.8H296.7v.8Z" class="g1_735"/>
<path d="M296.7,879h.8V834.9h-.8V879Z" class="g1_735"/>
<path d="M297,879.7H404.9V879H297v.7Z" class="g1_735"/>
<path d="M404.2,923.5h.7V879.4h-.7v44.1Z" class="g1_735"/>
<path d="M296.6,923.5H404.5v-.7H296.6v.7Z" class="g1_735"/>
<path d="M296.6,923.2h.8V879h-.8v44.2Z" class="g1_735"/>
</svg>