<?xml version="1.0" encoding="UTF-8" standalone="no"?>
<!DOCTYPE svg PUBLIC "-//W3C//DTD SVG 1.1//EN"
"http://www.w3.org/Graphics/SVG/1.1/DTD/svg11.dtd">
<svg viewBox="0 0 935 1210" version="1.1" xmlns="http://www.w3.org/2000/svg" xmlns:xlink="http://www.w3.org/1999/xlink">
<defs>
<style type="text/css"><![CDATA[
.g0_3842{
fill: #FFF;
}
.g1_3842{
fill: #0860A8;
}
.g2_3842{
fill: #000;
}
.g3_3842{
fill: #E6E6E6;
}
]]></style>
</defs>
<path d="M68.8,1149.3H852.5v-21.2H68.8v21.2Z" class="g0_3842"/>
<path d="M430.9,142.2H672.7v-.9H430.9v.9Z" class="g1_3842"/>
<path d="M118.1,867h.7V653.5h-.7V867Z" class="g2_3842"/>
<path d="M802.4,867h.7V653.5h-.7V867Z" class="g2_3842"/>
<path d="M118.1,653.5h685v-.7h-685v.7Z" class="g2_3842"/>
<path d="M118.1,867.7h685V867h-685v.7Z" class="g2_3842"/>
<path d="M414.7,728.8h12.9V687.2H414.7v41.6Z" class="g3_3842"/>
<path d="M352.8,776h55.9v-.5H352.8v.5Z" class="g2_3842"/>
<path d="M408.3,775.7h.4V728.4h-.4v47.3Z" class="g2_3842"/>
<path d="M370.3,761.6h26.3v-.5H370.3v.5Z" class="g2_3842"/>
<path d="M396.2,761.3h.4V727.8h-.4v33.5Z" class="g2_3842"/>
<path d="M329,846.4H486v-.5H329v.5Z" class="g2_3842"/>
<path d="M485.6,846.1h.4V728.2h-.4V846.1Z" class="g2_3842"/>
<path d="M390.8,832.6h82.6v-.5H390.8v.5Z" class="g2_3842"/>
<path d="M472.9,832.3h.5V729h-.5V832.3Z" class="g2_3842"/>
<path d="M317.1,818H459.8v-.4H317.1v.4Z" class="g2_3842"/>
<path d="M459.3,817.8h.5V728.5h-.5v89.3Z" class="g2_3842"/>
<path d="M319.6,803.5H447.8V803H319.6v.5Z" class="g2_3842"/>
<path d="M447.3,803.2h.5V728.5h-.5v74.7Z" class="g2_3842"/>
<path d="M381.1,789.1h53.8v-.5H381.1v.5Z" class="g2_3842"/>
<path d="M434.4,788.8h.5V728.5h-.5v60.3Z" class="g2_3842"/>
<path d="M283.6,687.2H697.4v-.7H283.6v.7Z" class="g2_3842"/>
<path d="M696.7,729.4h.7V686.9h-.7v42.5Z" class="g2_3842"/>
<path d="M283.2,729.4H697v-.7H283.2v.7Z" class="g2_3842"/>
<path d="M283.2,729h.8V686.5h-.8V729Z" class="g2_3842"/>
<path d="M594.3,687h.4v-.1h-.4v.1Z" class="g2_3842"/>
<path d="M594.3,728.9h.4V687h-.4v41.9Z" class="g2_3842"/>
<path d="M491.7,687h.5v-.1h-.5v.1Z" class="g2_3842"/>
<path d="M491.7,728.9h.5V687h-.5v41.9Z" class="g2_3842"/>
<path d="M478.8,687h.4v-.1h-.4v.1Z" class="g2_3842"/>
<path d="M478.8,728.9h.4V687h-.4v41.9Z" class="g2_3842"/>
<path d="M440.7,687h.5v-.1h-.5v.1Z" class="g2_3842"/>
<path d="M440.7,728.9h.5V687h-.5v41.9Z" class="g2_3842"/>
<path d="M453,687h.5v-.1H453v.1Z" class="g2_3842"/>
<path d="M453,728.9h.5V687H453v41.9Z" class="g2_3842"/>
<path d="M465.9,687h.5v-.1h-.5v.1Z" class="g2_3842"/>
<path d="M465.9,728.9h.5V687h-.5v41.9Z" class="g2_3842"/>
<path d="M425.9,687h.4v-.1h-.4v.1Z" class="g2_3842"/>
<path d="M425.9,728.9h.4V687h-.4v41.9Z" class="g2_3842"/>
<path d="M414.7,687h.5v-.1h-.5v.1Z" class="g2_3842"/>
<path d="M414.7,728.9h.5V687h-.5v41.9Z" class="g2_3842"/>
<path d="M402.1,687h.4v-.1h-.4v.1Z" class="g2_3842"/>
<path d="M402.1,728.9h.4V687h-.4v41.9Z" class="g2_3842"/>
<path d="M389.1,687h.5v-.1h-.5v.1Z" class="g2_3842"/>
<path d="M389.1,728.9h.5V687h-.5v41.9Z" class="g2_3842"/>
<path d="M594.1,799.6h25.2v-16H594.1v16Z" class="g3_3842"/>
<path d="M594.1,783.8h25.5v-.4H594.1v.4Z" class="g2_3842"/>
<path d="M619.1,799.9h.5V783.6h-.5v16.3Z" class="g2_3842"/>
<path d="M593.9,799.9h25.4v-.5H593.9v.5Z" class="g2_3842"/>
<path d="M593.9,799.6h.5V783.4h-.5v16.2Z" class="g2_3842"/>
</svg>