<?xml version="1.0" encoding="UTF-8" standalone="no"?>
<!DOCTYPE svg PUBLIC "-//W3C//DTD SVG 1.1//EN"
"http://www.w3.org/Graphics/SVG/1.1/DTD/svg11.dtd">
<svg viewBox="0 0 935 1210" version="1.1" xmlns="http://www.w3.org/2000/svg" xmlns:xlink="http://www.w3.org/1999/xlink">
<defs>
<style type="text/css"><![CDATA[
.g0_3389{
fill: #FFF;
}
.g1_3389{
fill: #000;
}
.g2_3389{
fill: #000;
stroke: #000;
stroke-width: 0.152;
stroke-linejoin: round;
}
.g3_3389{
fill: none;
stroke: #000;
stroke-width: 0.244;
stroke-linecap: round;
stroke-linejoin: round;
}
.g4_3389{
fill: none;
stroke: #000;
stroke-width: 1.569;
stroke-linecap: round;
stroke-linejoin: round;
}
]]></style>
</defs>
<path d="M68.9,1149.3H852.7v-21.2H68.9v21.2Z" class="g0_3389"/>
<path d="M171,773.6h.7V113.5H171V773.6Z" class="g1_3389"/>
<path d="M751,773.6h.8V113.5H751V773.6Z" class="g1_3389"/>
<path d="M171,113.4H751.8v-.7H171v.7Z" class="g1_3389"/>
<path d="M171,774.3H751.8v-.7H171v.7Z" class="g1_3389"/>
<path d="M480.3,329.6v5.5c0,.2,-.1,.4,-.4,.4c-.2,0,-.4,-.2,-.4,-.4v-5.5c0,-.2,.2,-.4,.4,-.4c.3,0,.4,.2,.4,.4Zm0,9.5v5.5c0,.2,-.1,.3,-.4,.3c-.2,0,-.4,-.1,-.4,-.3v-5.5c0,-.3,.2,-.5,.4,-.5c.3,0,.4,.2,.4,.5Zm0,9.4V354c0,.2,-.1,.4,-.4,.4c-.2,0,-.4,-.2,-.4,-.4v-5.5c0,-.3,.2,-.4,.4,-.4c.3,0,.4,.1,.4,.4Zm0,9.5v5.5c0,.1,-.1,.3,-.4,.3c-.2,0,-.4,-.2,-.4,-.3V358c0,-.3,.2,-.5,.4,-.5c.3,0,.4,.2,.4,.5Zm0,9.4v5.5c0,.2,-.1,.4,-.4,.4c-.2,0,-.4,-.2,-.4,-.4v-5.5c0,-.3,.2,-.5,.4,-.5c.3,0,.4,.2,.4,.5Zm0,9.4v5.5c0,.2,-.1,.4,-.4,.4c-.2,0,-.4,-.2,-.4,-.4v-5.5c0,-.2,.2,-.4,.4,-.4c.3,0,.4,.2,.4,.4Zm0,9.5v5.5c0,.2,-.1,.3,-.4,.3c-.2,0,-.4,-.1,-.4,-.3v-5.5c0,-.3,.2,-.5,.4,-.5c.3,0,.4,.2,.4,.5Zm0,9.4v5.5c0,.2,-.1,.4,-.4,.4c-.2,0,-.4,-.2,-.4,-.4v-5.5c0,-.2,.2,-.4,.4,-.4c.3,0,.4,.2,.4,.4Zm0,9.5V409l-.4,-.4h1.5c.3,0,.5,.2,.5,.4c0,.3,-.2,.5,-.5,.5h-1.5c-.2,0,-.4,-.2,-.4,-.5v-3.8c0,-.3,.2,-.5,.4,-.5c.3,0,.4,.2,.4,.5Zm5.1,3.4h5.5c.2,0,.4,.2,.4,.4c0,.3,-.2,.5,-.4,.5h-5.5c-.2,0,-.4,-.2,-.4,-.5c0,-.2,.2,-.4,.4,-.4Zm9.4,0h5.5c.3,0,.4,.2,.4,.4c0,.3,-.1,.5,-.4,.5h-5.5c-.2,0,-.4,-.2,-.4,-.5c0,-.2,.2,-.4,.4,-.4Zm9.5,0h5.5c.2,0,.3,.2,.3,.4c0,.3,-.1,.5,-.3,.5h-5.5c-.2,0,-.4,-.2,-.4,-.5c0,-.2,.2,-.4,.4,-.4Zm9.4,0h5.5c.3,0,.4,.2,.4,.4c0,.3,-.1,.5,-.4,.5h-5.5c-.2,0,-.4,-.2,-.4,-.5c0,-.2,.2,-.4,.4,-.4Zm9.4,0h5.5c.2,0,.4,.2,.4,.4c0,.3,-.2,.5,-.4,.5h-5.5c-.1,0,-.4,-.2,-.4,-.5c0,-.2,.3,-.4,.4,-.4Zm9.5,0h5.5c.2,0,.4,.2,.4,.4c0,.3,-.2,.5,-.4,.5h-5.5c-.3,0,-.5,-.2,-.5,-.5c0,-.2,.2,-.4,.5,-.4Zm9.3,0h5.5c.3,0,.5,.2,.5,.4c0,.3,-.2,.5,-.5,.5h-5.5c-.1,0,-.3,-.2,-.3,-.5c0,-.2,.2,-.4,.3,-.4Zm9.5,0h5.5c.2,0,.4,.2,.4,.4c0,.3,-.2,.5,-.4,.5h-5.5c-.2,0,-.4,-.2,-.4,-.5c0,-.2,.2,-.4,.4,-.4Zm9.4,0h5.5c.3,0,.4,.2,.4,.4c0,.3,-.1,.5,-.4,.5h-5.5c-.2,0,-.4,-.2,-.4,-.5c0,-.2,.2,-.4,.4,-.4Zm9.5,0h5.5c.2,0,.3,.2,.3,.4c0,.3,-.1,.5,-.3,.5h-5.5c-.2,0,-.4,-.2,-.4,-.5c0,-.2,.2,-.4,.4,-.4Zm9.4,0h5.5c.3,0,.4,.2,.4,.4c0,.3,-.1,.5,-.4,.5h-5.5c-.2,0,-.4,-.2,-.4,-.5c0,-.2,.2,-.4,.4,-.4Zm9.4,0h5.5c.2,0,.4,.2,.4,.4c0,.3,-.2,.5,-.4,.5h-5.5c-.1,0,-.4,-.2,-.4,-.5c0,-.2,.3,-.4,.4,-.4Zm9.5,0h5.5c.2,0,.3,.2,.3,.4c0,.3,-.1,.5,-.3,.5h-5.5c-.3,0,-.5,-.2,-.5,-.5c0,-.2,.2,-.4,.5,-.4Zm9.3,0h5.6c.2,0,.4,.2,.4,.4c0,.3,-.2,.5,-.4,.5h-5.6c-.2,0,-.3,-.2,-.3,-.5c0,-.2,.1,-.4,.3,-.4Zm9.5,0h5.5c.3,0,.4,.2,.4,.4c0,.3,-.1,.5,-.4,.5h-5.5c-.2,0,-.4,-.2,-.4,-.5c0,-.2,.2,-.4,.4,-.4Zm9.4,0h5.5c.3,0,.5,.2,.5,.4c0,.3,-.2,.5,-.5,.5h-5.5c-.2,0,-.4,-.2,-.4,-.5c0,-.2,.2,-.4,.4,-.4Zm9.5,0h5.5c.2,0,.3,.2,.3,.4c0,.3,-.1,.5,-.3,.5h-5.5c-.2,0,-.4,-.2,-.4,-.5c0,-.2,.2,-.4,.4,-.4Zm9.4,0h5.5c.3,0,.4,.2,.4,.4c0,.3,-.1,.5,-.4,.5h-5.5c-.2,0,-.4,-.2,-.4,-.5c0,-.2,.2,-.4,.4,-.4Zm9.4,0h5.5c.2,0,.4,.2,.4,.4c0,.3,-.2,.5,-.4,.5h-5.5c-.1,0,-.3,-.2,-.3,-.5c0,-.2,.2,-.4,.3,-.4Zm9.5,0h5.5c.2,0,.4,.2,.4,.4c0,.3,-.2,.5,-.4,.5h-5.5c-.2,0,-.5,-.2,-.5,-.5c0,-.2,.3,-.4,.5,-.4Zm9.4,0h5.5c.2,0,.4,.2,.4,.4c0,.3,-.2,.5,-.4,.5H674c-.2,0,-.4,-.2,-.4,-.5c0,-.2,.2,-.4,.4,-.4Zm9.4,0h5.5c.2,0,.4,.2,.4,.4c0,.3,-.2,.5,-.4,.5h-5.5c-.2,0,-.4,-.2,-.4,-.5c0,-.2,.2,-.4,.4,-.4Zm9.4,0h5.5c.3,0,.5,.2,.5,.4c0,.3,-.2,.5,-.5,.5h-5.5c-.2,0,-.4,-.2,-.4,-.5c0,-.2,.2,-.4,.4,-.4Zm9.5,0h5.5c.2,0,.3,.2,.3,.4c0,.3,-.1,.5,-.3,.5h-5.5c-.2,0,-.4,-.2,-.4,-.5c0,-.2,.2,-.4,.4,-.4Zm5.8,-2.7v-5.5c0,-.2,.3,-.4,.5,-.4c.2,0,.3,.2,.3,.4v5.5c0,.3,-.1,.4,-.3,.4c-.2,0,-.5,-.1,-.5,-.4Zm0,-9.4V391c0,-.2,.3,-.4,.5,-.4c.2,0,.3,.2,.3,.4v5.5c0,.2,-.1,.3,-.3,.3c-.2,0,-.5,-.1,-.5,-.3Zm0,-9.5v-5.5c0,-.2,.3,-.4,.5,-.4c.2,0,.3,.2,.3,.4V387c0,.3,-.1,.4,-.3,.4c-.2,0,-.5,-.1,-.5,-.4Zm0,-9.4v-5.5c0,-.2,.3,-.4,.5,-.4c.2,0,.3,.2,.3,.4v5.5c0,.3,-.1,.3,-.3,.3c-.2,0,-.5,0,-.5,-.3Zm0,-9.5v-5.5c0,-.2,.3,-.3,.5,-.3c.2,0,.3,.1,.3,.3v5.5c0,.3,-.1,.4,-.3,.4c-.2,0,-.5,-.1,-.5,-.4Zm0,-9.4v-5.5c0,-.2,.3,-.4,.5,-.4c.2,0,.3,.2,.3,.4v5.5c0,.3,-.1,.4,-.3,.4c-.2,0,-.5,-.1,-.5,-.4Zm0,-9.4v-5.5c0,-.2,.3,-.4,.5,-.4c.2,0,.3,.2,.3,.4v5.5c0,.2,-.1,.3,-.3,.3c-.2,0,-.5,-.1,-.5,-.3Zm0,-9.5v-5.5c0,-.2,.3,-.4,.5,-.4c.2,0,.3,.2,.3,.4v5.5c0,.3,-.1,.4,-.3,.4c-.2,0,-.5,-.1,-.5,-.4Zm0,-9.4v-1.6l.5,.4h-4c-.1,0,-.3,-.1,-.3,-.4c0,-.2,.2,-.4,.3,-.4h4c.2,0,.3,.2,.3,.4v1.6c0,.2,-.1,.3,-.3,.3c-.2,0,-.5,-.1,-.5,-.3Zm-7.4,-1.2h-5.5c-.2,0,-.4,-.1,-.4,-.4c0,-.2,.2,-.4,.4,-.4h5.5c.3,0,.4,.2,.4,.4c0,.3,-.1,.4,-.4,.4Zm-9.4,0h-5.5c-.2,0,-.4,-.1,-.4,-.4c0,-.2,.2,-.4,.4,-.4h5.5c.2,0,.3,.2,.3,.4c0,.3,-.1,.4,-.3,.4Zm-9.5,0h-5.5c-.2,0,-.3,-.1,-.3,-.4c0,-.2,.1,-.4,.3,-.4h5.5c.3,0,.5,.2,.5,.4c0,.3,-.2,.4,-.5,.4Zm-9.4,0h-5.5c-.2,0,-.4,-.1,-.4,-.4c0,-.2,.2,-.4,.4,-.4h5.5c.3,0,.4,.2,.4,.4c0,.3,-.1,.4,-.4,.4Zm-9.4,0h-5.5c-.2,0,-.4,-.1,-.4,-.4c0,-.2,.2,-.4,.4,-.4H663c.2,0,.4,.2,.4,.4c0,.3,-.2,.4,-.4,.4Zm-9.4,0h-5.5c-.2,0,-.5,-.1,-.5,-.4c0,-.2,.3,-.4,.5,-.4h5.5c.2,0,.3,.2,.3,.4c0,.3,-.1,.4,-.3,.4Zm-9.5,0h-5.5c-.1,0,-.3,-.1,-.3,-.4c0,-.2,.2,-.4,.3,-.4h5.5c.2,0,.4,.2,.4,.4c0,.3,-.2,.4,-.4,.4Zm-9.4,0h-5.5c-.2,0,-.4,-.1,-.4,-.4c0,-.2,.2,-.4,.4,-.4h5.5c.3,0,.4,.2,.4,.4c0,.3,-.1,.4,-.4,.4Zm-9.4,0h-5.5c-.2,0,-.4,-.1,-.4,-.4c0,-.2,.2,-.4,.4,-.4h5.5c.2,0,.3,.2,.3,.4c0,.3,-.1,.4,-.3,.4Zm-9.5,0h-5.5c-.2,0,-.4,-.1,-.4,-.4c0,-.2,.2,-.4,.4,-.4h5.5c.3,0,.5,.2,.5,.4c0,.3,-.2,.4,-.5,.4Zm-9.4,0h-5.5c-.2,0,-.4,-.1,-.4,-.4c0,-.2,.2,-.4,.4,-.4h5.5c.2,0,.4,.2,.4,.4c0,.3,-.2,.4,-.4,.4Zm-9.5,0h-5.5c-.1,0,-.3,-.1,-.3,-.4c0,-.2,.2,-.4,.3,-.4h5.5c.3,0,.5,.2,.5,.4c0,.3,-.2,.4,-.5,.4Zm-9.3,0h-5.5c-.3,0,-.5,-.1,-.5,-.4c0,-.2,.2,-.4,.5,-.4h5.5c.2,0,.3,.2,.3,.4c0,.3,-.1,.4,-.3,.4Zm-9.5,0h-5.5c-.1,0,-.4,-.1,-.4,-.4c0,-.2,.3,-.4,.4,-.4h5.5c.2,0,.4,.2,.4,.4c0,.3,-.2,.4,-.4,.4Zm-9.4,0h-5.5c-.2,0,-.4,-.1,-.4,-.4c0,-.2,.2,-.4,.4,-.4h5.5c.3,0,.4,.2,.4,.4c0,.3,-.1,.4,-.4,.4Zm-9.4,0h-5.5c-.2,0,-.4,-.1,-.4,-.4c0,-.2,.2,-.4,.4,-.4h5.5c.2,0,.3,.2,.3,.4c0,.3,-.1,.4,-.3,.4Zm-9.5,0h-5.5c-.2,0,-.4,-.1,-.4,-.4c0,-.2,.2,-.4,.4,-.4h5.5c.3,0,.4,.2,.4,.4c0,.3,-.1,.4,-.4,.4Zm-9.4,0h-5.5c-.2,0,-.4,-.1,-.4,-.4c0,-.2,.2,-.4,.4,-.4h5.5c.3,0,.4,.2,.4,.4c0,.3,-.1,.4,-.4,.4Zm-9.5,0h-5.5c-.2,0,-.3,-.1,-.3,-.4c0,-.2,.1,-.4,.3,-.4h5.5c.3,0,.5,.2,.5,.4c0,.3,-.2,.4,-.5,.4Zm-9.3,0h-5.5c-.3,0,-.5,-.1,-.5,-.4c0,-.2,.2,-.4,.5,-.4h5.5c.2,0,.3,.2,.3,.4c0,.3,-.1,.4,-.3,.4Zm-9.5,0h-5.5c-.1,0,-.4,-.1,-.4,-.4c0,-.2,.3,-.4,.4,-.4h5.5c.2,0,.4,.2,.4,.4c0,.3,-.2,.4,-.4,.4Zm-9.4,0h-5.5c-.2,0,-.4,-.1,-.4,-.4c0,-.2,.2,-.4,.4,-.4h5.5c.3,0,.4,.2,.4,.4c0,.3,-.1,.4,-.4,.4Zm-9.4,0h-5.5c-.2,0,-.4,-.1,-.4,-.4c0,-.2,.2,-.4,.4,-.4h5.5c.2,0,.3,.2,.3,.4c0,.3,-.1,.4,-.3,.4Zm-9.5,0h-3.9c-.2,0,-.4,-.1,-.4,-.4c0,-.2,.2,-.4,.4,-.4h3.9c.3,0,.4,.2,.4,.4c0,.3,-.1,.4,-.4,.4Z" class="g2_3389"/>
<path d="M269.3,185.3H399.8V157.7H269.3v27.6Z" class="g0_3389"/>
<path d="M269.3,185.3H399.8V157.7H269.3v27.6Z" class="g3_3389"/>
<path d="M269.3,240.3H399.8V212.8H269.3v27.5Z" class="g0_3389"/>
<path d="M269.3,240.3H399.8V212.8H269.3v27.5Z" class="g3_3389"/>
<path d="M269.3,267.9H399.8V240.4H269.3v27.5Z" class="g0_3389"/>
<path d="M269.3,267.9H399.8V240.4H269.3v27.5Z" class="g3_3389"/>
<path d="M269.3,295.5H399.8V267.9H269.3v27.6Z" class="g0_3389"/>
<path d="M269.3,295.5H399.8V267.9H269.3v27.6Z" class="g3_3389"/>
<path d="M269.3,448.1H399.8V419.6H269.3v28.5Z" class="g0_3389"/>
<path d="M269.3,448.1H399.8V419.6H269.3v28.5Z" class="g3_3389"/>
<path d="M269.3,476.3H399.8V448H269.3v28.3Z" class="g0_3389"/>
<path d="M269.3,476.3H399.8V448H269.3v28.3Z" class="g3_3389"/>
<path d="M269.3,516H399.8V488.5H269.3V516Z" class="g0_3389"/>
<path d="M269.3,516H399.8V488.5H269.3V516Zm-3.7,-53.8H235.3v40.1h33.9" class="g3_3389"/>
<path fill-rule="evenodd" d="M265,464.3l4.3,-2.1L265,460.1v4.2Z" class="g1_3389"/>
<path d="M269.3,226.5H235.4v111h30.2" class="g3_3389"/>
<path fill-rule="evenodd" d="M265,339.7l4.3,-2.2L265,335.4v4.3Z" class="g1_3389"/>
<path d="M220.6,366.2h44.9" class="g3_3389"/>
<path fill-rule="evenodd" d="M264.9,364.1l4.3,2.1l-4.3,2.1v-4.2Z" class="g1_3389"/>
<path d="M221.1,400.8H266" class="g3_3389"/>
<path fill-rule="evenodd" d="M265.5,398.7l4.3,2.1l-4.3,2.2v-4.3Z" class="g1_3389"/>
<path d="M220.4,431.5h44.8" class="g3_3389"/>
<path fill-rule="evenodd" d="M264.6,429.4l4.4,2.1l-4.4,2.2v-4.3Z" class="g1_3389"/>
<path d="M432.8,142.5V637.9" class="g4_3389"/>
<path fill-rule="evenodd" d="M436.2,143.4l-3.4,-7l-3.5,7h6.9Z" class="g1_3389"/>
<path fill-rule="evenodd" d="M429.3,637l3.5,7l3.4,-7h-6.9Z" class="g1_3389"/>
<path d="M527.4,179.5H638.3v-23H527.4v23Z" class="g0_3389"/>
<path d="M527.4,179.5H638.3v-23H527.4v23Z" class="g3_3389"/>
<path d="M527.4,216.1H638.3V192.4H527.4v23.7Z" class="g0_3389"/>
<path d="M527.4,216.1H638.3V192.4H527.4v23.7Z" class="g3_3389"/>
<path d="M456,267.5H566.7V240.6H456v26.9Z" class="g0_3389"/>
<path d="M456,267.5H566.7V240.6H456v26.9Zm-18.7,-98h86.1" class="g3_3389"/>
<path fill-rule="evenodd" d="M437.9,171.7l-4.3,-2.2l4.3,-2.1v4.3Z" class="g1_3389"/>
<path fill-rule="evenodd" d="M523,167.4l4.2,2.1l-4.2,2.2v-4.3Z" class="g1_3389"/>
<path d="M437.3,205.4h86" class="g3_3389"/>
<path fill-rule="evenodd" d="M437.8,207.5l-4.4,-2.1l4.4,-2.2v4.3Z" class="g1_3389"/>
<path fill-rule="evenodd" d="M522.9,203.2l4.2,2.2l-4.2,2.1v-4.3Z" class="g1_3389"/>
<path d="M437.2,254.6H452" class="g3_3389"/>
<path fill-rule="evenodd" d="M437.7,256.8l-4.4,-2.2l4.4,-2.1v4.3Z" class="g1_3389"/>
<path fill-rule="evenodd" d="M451.5,252.5l4.3,2.1l-4.3,2.2v-4.3Z" class="g1_3389"/>
<path d="M399.8,174.2h28" class="g3_3389"/>
<path fill-rule="evenodd" d="M427.4,172.1l4.2,2.1l-4.2,2.2v-4.3Z" class="g1_3389"/>
<path d="M403.5,258.4h24.7" class="g3_3389"/>
<path fill-rule="evenodd" d="M404.1,260.5l-4.3,-2.1l4.3,-2.1v4.2Z" class="g1_3389"/>
<path fill-rule="evenodd" d="M427.6,256.3l4.2,2.1l-4.2,2.1v-4.2Z" class="g1_3389"/>
<path d="M403.5,378.4h24.7" class="g3_3389"/>
<path fill-rule="evenodd" d="M404.1,380.5l-4.3,-2.1l4.3,-2.1v4.2Z" class="g1_3389"/>
<path fill-rule="evenodd" d="M427.6,376.3l4.2,2.1l-4.2,2.1v-4.2Z" class="g1_3389"/>
<path d="M403.5,502.3h24.7" class="g3_3389"/>
<path fill-rule="evenodd" d="M404.1,504.4l-4.3,-2.1l4.3,-2.1v4.2Z" class="g1_3389"/>
<path fill-rule="evenodd" d="M427.6,500.2l4.2,2.1l-4.2,2.1v-4.2Z" class="g1_3389"/>
<path d="M403.8,584.6h24.7" class="g3_3389"/>
<path fill-rule="evenodd" d="M404.3,586.8L400,584.6l4.3,-2.1v4.3Z" class="g1_3389"/>
<path fill-rule="evenodd" d="M427.9,582.5l4.3,2.1l-4.3,2.2v-4.3Z" class="g1_3389"/>
<path d="M527.5,314.7H662.6V296H527.5v18.7Z" class="g0_3389"/>
<path d="M527.5,314.7H662.6V296H527.5v18.7Zm18.6,-98.5v20.5" class="g3_3389"/>
<path fill-rule="evenodd" d="M544,236.1l2.1,4.3l2.2,-4.3H544Z" class="g1_3389"/>
<path d="M546.1,267.7v24.6" class="g3_3389"/>
<path fill-rule="evenodd" d="M544,291.8l2.1,4.3l2.2,-4.3H544Z" class="g1_3389"/>
<path d="M662.7,311.1h48.9" class="g3_3389"/>
<path fill-rule="evenodd" d="M711.2,309l4.2,2.1l-4.2,2.1V309Z" class="g1_3389"/>
<path d="M663,301.7h48.9" class="g3_3389"/>
<path fill-rule="evenodd" d="M711.3,299.6l4.3,2.1l-4.3,2.1v-4.2Z" class="g1_3389"/>
<path d="M712.7,251.5h-84v40.6" class="g3_3389"/>
<path fill-rule="evenodd" d="M630.9,291.6l-2.2,4.3l-2.2,-4.3h4.4Z" class="g1_3389"/>
<path d="M269.3,352.1H399.8V323H269.3v29.1Z" class="g0_3389"/>
<path d="M269.3,352.1H399.8V323H269.3v29.1Z" class="g3_3389"/>
<path d="M269.3,381.2H399.8v-29H269.3v29Z" class="g0_3389"/>
<path d="M269.3,381.2H399.8v-29H269.3v29Z" class="g3_3389"/>
<path d="M269.3,419.6H399.8V381.2H269.3v38.4Z" class="g0_3389"/>
<path d="M269.3,419.6H399.8V381.2H269.3v38.4Z" class="g3_3389"/>
<path d="M486.9,358.3H700.3V337.1H486.9v21.2Z" class="g0_3389"/>
<path d="M486.9,358.3H700.3V337.1H486.9v21.2Z" class="g3_3389"/>
<path d="M486.9,379.6H700.3V358.3H486.9v21.3Z" class="g0_3389"/>
<path d="M486.9,379.6H700.3V358.3H486.9v21.3Z" class="g3_3389"/>
<path d="M486.9,400.8H700.3V379.6H486.9v21.2Z" class="g0_3389"/>
<path d="M486.9,400.8H700.3V379.6H486.9v21.2ZM590.1,321.7v15.4" class="g3_3389"/>
<path fill-rule="evenodd" d="M592.3,322.2l-2.2,-4.3l-2.2,4.3h4.4Z" class="g1_3389"/>
<path d="M494.6,271.3v64.6" class="g3_3389"/>
<path fill-rule="evenodd" d="M496.7,271.9l-2.1,-4.3l-2.2,4.3h4.3Z" class="g1_3389"/>
<path d="M437.4,367.8H475" class="g3_3389"/>
<path fill-rule="evenodd" d="M438,369.9l-4.2,-2.1l4.2,-2.1v4.2Z" class="g1_3389"/>
<path fill-rule="evenodd" d="M474.5,365.7l4.2,2.1l-4.2,2.1v-4.2Z" class="g1_3389"/>
<path d="M486.9,470.8h66.4V437H486.9v33.8Z" class="g0_3389"/>
<path d="M486.9,470.8h66.4V437H486.9v33.8Z" class="g3_3389"/>
<path d="M619.8,470.8h66.3V437H619.8v33.8Z" class="g0_3389"/>
<path d="M619.8,470.8h66.3V437H619.8v33.8Z" class="g3_3389"/>
<path d="M560.8,527.1h125V496.4h-125v30.7Z" class="g0_3389"/>
<path d="M560.8,527.1h125V496.4h-125v30.7ZM580,404.6v91.6" class="g3_3389"/>
<path fill-rule="evenodd" d="M582.1,405.2L580,400.8l-2.1,4.4h4.2Z" class="g1_3389"/>
<path d="M658.6,404.6v32.3" class="g3_3389"/>
<path fill-rule="evenodd" d="M660.8,405.2l-2.2,-4.4l-2.1,4.4h4.3Z" class="g1_3389"/>
<path d="M561,587.8H686V557.1H561v30.7Z" class="g0_3389"/>
<path d="M561,587.8H686V557.1H561v30.7Zm60.9,-57v26.3" class="g3_3389"/>
<path fill-rule="evenodd" d="M624,531.4l-2.1,-4.3l-2.1,4.3H624Z" class="g1_3389"/>
<path d="M528.8,511.5h28.1" class="g3_3389"/>
<path fill-rule="evenodd" d="M556.3,509.4l4.3,2.1l-4.3,2.2v-4.3Z" class="g1_3389"/>
<path d="M686.1,571.3h28.6" class="g3_3389"/>
<path fill-rule="evenodd" d="M714.2,569.1l4.3,2.2l-4.3,2.1v-4.3Z" class="g1_3389"/>
<path d="M490,637.4H615V606.6H490v30.8Z" class="g0_3389"/>
<path d="M490,637.4H615V606.6H490v30.8ZM599.5,591.6v11.3" class="g3_3389"/>
<path fill-rule="evenodd" d="M601.7,592.2l-2.2,-4.3l-2.1,4.3h4.3Z" class="g1_3389"/>
<path fill-rule="evenodd" d="M597.4,602.3l2.1,4.4l2.2,-4.4h-4.3Z" class="g1_3389"/>
<path d="M437.3,617.8h48.9" class="g3_3389"/>
<path fill-rule="evenodd" d="M437.9,619.9l-4.3,-2.1l4.3,-2.1v4.2Z" class="g1_3389"/>
<path fill-rule="evenodd" d="M485.7,615.7l4.3,2.1l-4.3,2.1v-4.2Z" class="g1_3389"/>
<path d="M651.7,591.7v53.2" class="g3_3389"/>
<path fill-rule="evenodd" d="M653.8,592.2l-2.1,-4.3l-2.2,4.3h4.3Z" class="g1_3389"/>
<path fill-rule="evenodd" d="M649.5,644.3l2.2,4.3l2.1,-4.3h-4.3Z" class="g1_3389"/>
<path d="M269.3,571.1H399.8V543.6H269.3v27.5Z" class="g0_3389"/>
<path d="M269.3,571.1H399.8V543.6H269.3v27.5Z" class="g3_3389"/>
<path d="M269.3,598.7H399.8V571.2H269.3v27.5Z" class="g0_3389"/>
<path d="M269.3,598.7H399.8V571.2H269.3v27.5Z" class="g3_3389"/>
<path d="M269.3,626.4H399.8V598.8H269.3v27.6Z" class="g0_3389"/>
<path d="M269.3,626.4H399.8V598.8H269.3v27.6Z" class="g3_3389"/>
<path d="M269.3,653.9H399.8V626.4H269.3v27.5Z" class="g0_3389"/>
<path d="M269.3,653.9H399.8V626.4H269.3v27.5ZM652.3,475v21.1" class="g3_3389"/>
<path fill-rule="evenodd" d="M654.4,475.6l-2.1,-4.3l-2.1,4.3h4.2Z" class="g1_3389"/>
</svg>