<?xml version="1.0" encoding="UTF-8" standalone="no"?>
<!DOCTYPE svg PUBLIC "-//W3C//DTD SVG 1.1//EN"
"http://www.w3.org/Graphics/SVG/1.1/DTD/svg11.dtd">
<svg viewBox="0 0 935 1210" version="1.1" xmlns="http://www.w3.org/2000/svg" xmlns:xlink="http://www.w3.org/1999/xlink">
<defs>
<style type="text/css"><![CDATA[
.g0_3350{
fill: #FFF;
}
.g1_3350{
fill: #000;
}
]]></style>
</defs>
<path d="M68.8,1149.3H852.5v-21.2H68.8v21.2Z" class="g0_3350"/>
<path d="M68.6,716.2h.7V130.3h-.7V716.2Z" class="g1_3350"/>
<path d="M156.2,716.9h.7V169.2h-.7V716.9Z" class="g1_3350"/>
<path d="M243.8,716.9h.8V129.5h-.8V716.9Z" class="g1_3350"/>
<path d="M849.6,716.2h.7V130.3h-.7V716.2Z" class="g1_3350"/>
<path d="M68.6,130.3H850.3v-.8H68.6v.8Z" class="g1_3350"/>
<path d="M68.6,169.9h176v-.7H68.6v.7Z" class="g1_3350"/>
<path d="M68.6,194.4H850.3v-.7H68.6v.7Z" class="g1_3350"/>
<path d="M68.6,218.8H850.3v-.7H68.6v.7Z" class="g1_3350"/>
<path d="M68.6,276.9H850.3v-.7H68.6v.7Z" class="g1_3350"/>
<path d="M68.6,301.3H850.3v-.7H68.6v.7Z" class="g1_3350"/>
<path d="M68.6,325.8H850.3v-.7H68.6v.7Z" class="g1_3350"/>
<path d="M68.6,350.3H850.3v-.8H68.6v.8Z" class="g1_3350"/>
<path d="M68.6,374.6H850.3v-.7H68.6v.7Z" class="g1_3350"/>
<path d="M68.6,399.1H850.3v-.7H68.6v.7Z" class="g1_3350"/>
<path d="M68.6,423.6H850.3v-.7H68.6v.7Z" class="g1_3350"/>
<path d="M68.6,448.1H850.3v-.8H68.6v.8Z" class="g1_3350"/>
<path d="M68.6,472.4H850.3v-.7H68.6v.7Z" class="g1_3350"/>
<path d="M68.6,496.9H850.3v-.7H68.6v.7Z" class="g1_3350"/>
<path d="M68.6,521.4H850.3v-.7H68.6v.7Z" class="g1_3350"/>
<path d="M68.6,545.8H850.3v-.7H68.6v.7Z" class="g1_3350"/>
<path d="M68.6,570.3H850.3v-.8H68.6v.8Z" class="g1_3350"/>
<path d="M68.6,594.7H850.3V594H68.6v.7Z" class="g1_3350"/>
<path d="M68.6,619.1H850.3v-.7H68.6v.7Z" class="g1_3350"/>
<path d="M68.6,643.6H850.3v-.7H68.6v.7Z" class="g1_3350"/>
<path d="M68.6,668.1H850.3v-.8H68.6v.8Z" class="g1_3350"/>
<path d="M68.6,692.4H850.3v-.7H68.6v.7Z" class="g1_3350"/>
<path d="M68.6,716.9H850.3v-.7H68.6v.7Z" class="g1_3350"/>
</svg>