<?xml version="1.0" encoding="UTF-8" standalone="no"?>
<!DOCTYPE svg PUBLIC "-//W3C//DTD SVG 1.1//EN"
"http://www.w3.org/Graphics/SVG/1.1/DTD/svg11.dtd">
<svg viewBox="0 0 935 1210" version="1.1" xmlns="http://www.w3.org/2000/svg" xmlns:xlink="http://www.w3.org/1999/xlink">
<defs>
<clipPath id="c0_1869"><path d="M97.3,59.2V41.4h72.1V59.2Z"/></clipPath>
<style type="text/css"><![CDATA[
.g0_1869{
fill: #000;
}
]]></style>
</defs>
<path d="M96.2,62.9v.3H838.7v-.3H96.2Z" class="g0_1869"/>
<path d="M96.2,1114.1h-.1v.4h.1v-.4Z" class="g0_1869"/>
<path d="M838.7,1114.1h.2v.4h-.2v-.4Z" class="g0_1869"/>
<path d="M96.2,1114.1v.4H838.7v-.4H96.2Z" class="g0_1869"/>
<image clip-path="url(#c0_1869)" preserveAspectRatio="none" x="97" y="41" width="72" height="18" xlink:href="img/1.jpg"/>
<path d="M96.6,151.6h-.7V878.1h.7V151.6Z" class="g0_1869"/>
<path d="M142.8,150.9h-.7v728h.7v-728Z" class="g0_1869"/>
<path d="M274.8,150.9h-.7v728h.7v-728Z" class="g0_1869"/>
<path d="M839.1,151.6h-.7V878.1h.7V151.6Z" class="g0_1869"/>
<path d="M95.9,150.9v.7H839.1v-.7H95.9Z" class="g0_1869"/>
<path d="M95.9,175.3v.7H839.1v-.7H95.9Z" class="g0_1869"/>
<path d="M95.9,199.7v.8H839.1v-.8H95.9Z" class="g0_1869"/>
<path d="M95.9,242.5v.8H839.1v-.8H95.9Z" class="g0_1869"/>
<path d="M95.9,267v.8H839.1V267H95.9Z" class="g0_1869"/>
<path d="M95.9,291.4v.7H839.1v-.7H95.9Z" class="g0_1869"/>
<path d="M95.9,315.9v.7H839.1v-.7H95.9Z" class="g0_1869"/>
<path d="M95.9,340.3v.8H839.1v-.8H95.9Z" class="g0_1869"/>
<path d="M95.9,383.1v.7H839.1v-.7H95.9Z" class="g0_1869"/>
<path d="M95.9,425.9v.7H839.1v-.7H95.9Z" class="g0_1869"/>
<path d="M95.9,450.3v.8H839.1v-.8H95.9Z" class="g0_1869"/>
<path d="M95.9,493.1v.7H839.1v-.7H95.9Z" class="g0_1869"/>
<path d="M95.9,517.5v.8H839.1v-.8H95.9Z" class="g0_1869"/>
<path d="M95.9,542v.7H839.1V542H95.9Z" class="g0_1869"/>
<path d="M95.9,603.1v.7H839.1v-.7H95.9Z" class="g0_1869"/>
<path d="M95.9,664.2v.7H839.1v-.7H95.9Z" class="g0_1869"/>
<path d="M95.9,707v.7H839.1V707H95.9Z" class="g0_1869"/>
<path d="M95.9,731.4v.7H839.1v-.7H95.9Z" class="g0_1869"/>
<path d="M95.9,774.2v.7H839.1v-.7H95.9Z" class="g0_1869"/>
<path d="M95.9,835.3v.8H839.1v-.8H95.9Z" class="g0_1869"/>
<path d="M95.9,878.1v.7H839.1v-.7H95.9Z" class="g0_1869"/>
<path d="M96.2,979.3v3.1H838.7v-3.1H96.2Z" class="g0_1869"/>
</svg>