<?xml version="1.0" encoding="UTF-8" standalone="no"?>
<!DOCTYPE svg PUBLIC "-//W3C//DTD SVG 1.1//EN"
"http://www.w3.org/Graphics/SVG/1.1/DTD/svg11.dtd">
<svg viewBox="0 0 935 1210" version="1.1" xmlns="http://www.w3.org/2000/svg" xmlns:xlink="http://www.w3.org/1999/xlink">
<defs>
<style type="text/css"><![CDATA[
.g0_1036{
fill: #FFF;
}
.g1_1036{
fill: #000;
}
]]></style>
</defs>
<path d="M68.8,1149.3H852.5v-21.2H68.8v21.2Z" class="g0_1036"/>
<path d="M68.9,1048v-.7Z" class="g1_1036"/>
<path d="M68.9,1048H289.3v-.7H68.9v.7Z" class="g1_1036"/>
<path d="M71.5,720.8h.7V362.4h-.7V720.8Z" class="g1_1036"/>
<path d="M179.9,721.5h.7V361.7h-.7V721.5Z" class="g1_1036"/>
<path d="M848.8,720.8h.8V362.4h-.8V720.8Z" class="g1_1036"/>
<path d="M71.5,362.4H849.7v-.7H71.5v.7Z" class="g1_1036"/>
<path d="M71.5,391.5H849.7v-.7H71.5v.7Z" class="g1_1036"/>
<path d="M71.5,420.6H849.7v-.8H71.5v.8Z" class="g1_1036"/>
<path d="M71.5,449.5H849.7v-.7H71.5v.7Z" class="g1_1036"/>
<path d="M71.5,478.6H849.7v-.7H71.5v.7Z" class="g1_1036"/>
<path d="M71.5,507.7H849.7v-.8H71.5v.8Z" class="g1_1036"/>
<path d="M71.5,692.4H849.7v-.7H71.5v.7Z" class="g1_1036"/>
<path d="M71.5,721.5H849.7v-.7H71.5v.7Z" class="g1_1036"/>
<path d="M70.3,1032.4H71V823.9h-.7v208.5Z" class="g1_1036"/>
<path d="M182.9,1033.2h.7v-210h-.7v210Z" class="g1_1036"/>
<path d="M850.1,1032.4h.7V823.9h-.7v208.5Z" class="g1_1036"/>
<path d="M70.3,823.9H850.8v-.7H70.3v.7Z" class="g1_1036"/>
<path d="M70.3,852.9H850.8v-.8H70.3v.8Z" class="g1_1036"/>
<path d="M70.3,975.2H850.8v-.8H70.3v.8Z" class="g1_1036"/>
<path d="M70.3,1004.1H850.8v-.7H70.3v.7Z" class="g1_1036"/>
<path d="M70.3,1033.2H850.8v-.8H70.3v.8Z" class="g1_1036"/>
</svg>