<?xml version="1.0" encoding="UTF-8" standalone="no"?>
<!DOCTYPE svg PUBLIC "-//W3C//DTD SVG 1.1//EN"
"http://www.w3.org/Graphics/SVG/1.1/DTD/svg11.dtd">
<svg viewBox="0 0 935 1210" version="1.1" xmlns="http://www.w3.org/2000/svg" xmlns:xlink="http://www.w3.org/1999/xlink">
<defs>
<clipPath id="c0_1481"><path d="M97.3,59.2V41.4h72.1V59.2Z"/></clipPath>
<style type="text/css"><![CDATA[
.g0_1481{
fill: #000;
}
]]></style>
</defs>
<path d="M96.2,62.9v.3H838.7v-.3H96.2Z" class="g0_1481"/>
<path d="M96.2,1114.1h-.1v.4h.1v-.4Z" class="g0_1481"/>
<path d="M838.7,1114.1h.2v.4h-.2v-.4Z" class="g0_1481"/>
<path d="M96.2,1114.1v.4H838.7v-.4H96.2Z" class="g0_1481"/>
<image clip-path="url(#c0_1481)" preserveAspectRatio="none" x="97" y="41" width="72" height="18" xlink:href="img/1.jpg"/>
<path d="M96.6,852.5h-.7V997.2h.7V852.5Z" class="g0_1481"/>
<path d="M244.8,849.5h-.7V998h.7V849.5Z" class="g0_1481"/>
<path d="M284.5,849.5h-.7V998h.7V849.5Z" class="g0_1481"/>
<path d="M338,849.5h-.8V998h.8V849.5Z" class="g0_1481"/>
<path d="M415.6,849.5h-.7V998h.7V849.5Z" class="g0_1481"/>
<path d="M847,852.5h-.8V997.2h.8V852.5Z" class="g0_1481"/>
<path d="M95.9,849.5v3H847v-3H95.9Z" class="g0_1481"/>
<path d="M95.9,892.3v3H847v-3H95.9Z" class="g0_1481"/>
<path d="M95.9,933.1v.7H847v-.7H95.9Z" class="g0_1481"/>
<path d="M95.9,957.5v.8H847v-.8H95.9Z" class="g0_1481"/>
<path d="M95.9,997.3v.7H847v-.7H95.9Z" class="g0_1481"/>
</svg>