<?xml version="1.0" encoding="UTF-8" standalone="no"?>
<!DOCTYPE svg PUBLIC "-//W3C//DTD SVG 1.1//EN"
"http://www.w3.org/Graphics/SVG/1.1/DTD/svg11.dtd">
<svg viewBox="0 0 935 1210" version="1.1" xmlns="http://www.w3.org/2000/svg" xmlns:xlink="http://www.w3.org/1999/xlink">
<defs>
<clipPath id="c0_800"><path d="M97.3,59.2V41.4h72.1V59.2Z"/></clipPath>
<style type="text/css"><![CDATA[
.g0_800{
fill: #000;
}
.g1_800{
fill: #231F20;
}
.g2_800{
fill: none;
stroke: #231F20;
stroke-width: 0.763;
}
.g3_800{
fill: #FFF;
}
.g4_800{
fill: #E7E8E8;
}
.g5_800{
fill: none;
stroke: #231F20;
stroke-width: 1.527;
}
]]></style>
</defs>
<path d="M96.2,62.9v.3H838.7v-.3H96.2Z" class="g0_800"/>
<path d="M96.2,1114.1h-.1v.3h.1v-.3Z" class="g0_800"/>
<path d="M838.7,1114.1h.2v.3h-.2v-.3Z" class="g0_800"/>
<path d="M96.2,1114.1v.3H838.7v-.3H96.2Z" class="g0_800"/>
<image clip-path="url(#c0_800)" preserveAspectRatio="none" x="97" y="41" width="72" height="18" xlink:href="img/1.jpg"/>
<path d="M136.9,301.3H746.5v-31H136.9v31Z" class="g1_800"/>
<path d="M136.9,301.3H746.5v-31H136.9v31Z" class="g2_800"/>
<path d="M136.9,332.2H746.5v-31H136.9v31Z" class="g1_800"/>
<path d="M136.9,332.2H746.5v-31H136.9v31Z" class="g2_800"/>
<path d="M136.9,363.2H746.5v-31H136.9v31Z" class="g1_800"/>
<path d="M136.9,363.2H746.5v-31H136.9v31Z" class="g2_800"/>
<path d="M136.9,394.1H746.5v-31H136.9v31Z" class="g1_800"/>
<path d="M136.9,394.1H746.5v-31H136.9v31Z" class="g2_800"/>
<path d="M136.9,425.1H746.5V394H136.9v31.1Z" class="g1_800"/>
<path d="M136.9,425.1H746.5V394H136.9v31.1Z" class="g2_800"/>
<path d="M136.9,456H746.5V425H136.9v31Z" class="g1_800"/>
<path d="M136.9,456H746.5V425H136.9v31Z" class="g2_800"/>
<path d="M136.9,486.9H746.5v-31H136.9v31Z" class="g1_800"/>
<path d="M136.9,486.9H746.5v-31H136.9v31Z" class="g2_800"/>
<path d="M136.9,517.9H746.5v-31H136.9v31Z" class="g1_800"/>
<path d="M136.9,517.9H746.5v-31H136.9v31Z" class="g2_800"/>
<path d="M136.9,548.8H746.5v-31H136.9v31Z" class="g1_800"/>
<path d="M136.9,548.8H746.5v-31H136.9v31Z" class="g2_800"/>
<path d="M136.9,579.8H746.5V548.7H136.9v31.1Z" class="g1_800"/>
<path d="M136.9,579.8H746.5V548.7H136.9v31.1Z" class="g2_800"/>
<path d="M136.9,610.7H746.5v-31H136.9v31Z" class="g1_800"/>
<path d="M136.9,610.7H746.5v-31H136.9v31Z" class="g2_800"/>
<path d="M136.9,641.6H746.5v-31H136.9v31Z" class="g1_800"/>
<path d="M136.9,641.6H746.5v-31H136.9v31Z" class="g2_800"/>
<path d="M136.9,672.6H746.5v-31H136.9v31Z" class="g1_800"/>
<path d="M136.9,672.6H746.5v-31H136.9v31Z" class="g2_800"/>
<path d="M136.9,703.5H746.5v-31H136.9v31Z" class="g1_800"/>
<path d="M136.9,703.5H746.5v-31H136.9v31Z" class="g2_800"/>
<path d="M136.9,734.4H746.5v-31H136.9v31Z" class="g1_800"/>
<path d="M136.9,734.4H746.5v-31H136.9v31Z" class="g2_800"/>
<path d="M136.9,765.4H746.5v-31H136.9v31Z" class="g1_800"/>
<path d="M136.9,765.4H746.5v-31H136.9v31Z" class="g2_800"/>
<path d="M134.9,298.3H744.5v-31H134.9v31Z" class="g3_800"/>
<path d="M134.9,298.3H744.5v-31H134.9v31Z" class="g2_800"/>
<path d="M134.9,329.3H744.5v-31H134.9v31Z" class="g3_800"/>
<path d="M134.9,329.3H744.5v-31H134.9v31Z" class="g2_800"/>
<path d="M134.9,360.2H744.5v-31H134.9v31Z" class="g3_800"/>
<path d="M134.9,360.2H744.5v-31H134.9v31Z" class="g2_800"/>
<path d="M134.9,391.2H744.5V360.1H134.9v31.1Z" class="g3_800"/>
<path d="M134.9,391.2H744.5V360.1H134.9v31.1Z" class="g2_800"/>
<path d="M134.9,422.1H744.5v-31H134.9v31Z" class="g3_800"/>
<path d="M134.9,422.1H744.5v-31H134.9v31Z" class="g2_800"/>
<path d="M134.9,453H744.5V422H134.9v31Z" class="g3_800"/>
<path d="M134.9,453H744.5V422H134.9v31Z" class="g2_800"/>
<path d="M134.9,484H744.5V453H134.9v31Z" class="g3_800"/>
<path d="M134.9,484H744.5V453H134.9v31Z" class="g2_800"/>
<path d="M134.9,514.9H744.5v-31H134.9v31Z" class="g3_800"/>
<path d="M134.9,514.9H744.5v-31H134.9v31Z" class="g2_800"/>
<path d="M134.9,545.9H744.5V514.8H134.9v31.1Z" class="g4_800"/>
<path d="M134.9,545.9H744.5V514.8H134.9v31.1Z" class="g2_800"/>
<path d="M134.9,576.8H744.5v-31H134.9v31Z" class="g4_800"/>
<path d="M134.9,576.8H744.5v-31H134.9v31Z" class="g2_800"/>
<path d="M134.9,607.7H744.5v-31H134.9v31Z" class="g4_800"/>
<path d="M134.9,607.7H744.5v-31H134.9v31Z" class="g2_800"/>
<path d="M134.9,638.7H744.5v-31H134.9v31Z" class="g4_800"/>
<path d="M134.9,638.7H744.5v-31H134.9v31Z" class="g2_800"/>
<path d="M134.9,669.6H744.5v-31H134.9v31Z" class="g4_800"/>
<path d="M134.9,669.6H744.5v-31H134.9v31Z" class="g2_800"/>
<path d="M134.9,700.5H744.5v-31H134.9v31Z" class="g4_800"/>
<path d="M134.9,700.5H744.5v-31H134.9v31Z" class="g2_800"/>
<path d="M134.9,731.5H744.5v-31H134.9v31Z" class="g4_800"/>
<path d="M134.9,731.5H744.5v-31H134.9v31Z" class="g2_800"/>
<path d="M134.9,762.4H744.5v-31H134.9v31Z" class="g4_800"/>
<path d="M134.9,762.4H744.5v-31H134.9v31Z" class="g2_800"/>
<path d="M134.2,865.1h41.3V848.6H134.2v16.5Z" class="g4_800"/>
<path d="M175.5,865.1H134.2V848.6h41.3v16.5Zm0,-23.7H134.2V824.9h41.3v16.5Z" class="g2_800"/>
<path d="M634.9,825.9H800.7v-31H634.9v31Z" class="g1_800"/>
<path d="M634.9,825.9H800.7v-31H634.9v31Z" class="g2_800"/>
<path d="M632.7,823.7H798.5v-31H632.7v31Z" class="g3_800"/>
<path d="M632.7,823.7H798.5v-31H632.7v31Z" class="g2_800"/>
<path d="M433.4,267.4V763" class="g5_800"/>
</svg>