<?xml version="1.0" encoding="UTF-8" standalone="no"?>
<!DOCTYPE svg PUBLIC "-//W3C//DTD SVG 1.1//EN"
"http://www.w3.org/Graphics/SVG/1.1/DTD/svg11.dtd">
<svg viewBox="0 0 935 1210" version="1.1" xmlns="http://www.w3.org/2000/svg" xmlns:xlink="http://www.w3.org/1999/xlink">
<defs>
<style type="text/css"><![CDATA[
.g0_277{
fill: #B3B3B3;
}
.g1_277{
fill: #000;
}
]]></style>
</defs>
<path d="M82.5,96.3h770V55H82.5V96.3Z" class="g0_277"/>
<path d="M123.4,535.9h.7V150.1h-.7V535.9Z" class="g1_277"/>
<path d="M192.1,536.6h.8V149.3h-.8V536.6Z" class="g1_277"/>
<path d="M370.9,536.6h.7V149.3h-.7V536.6Z" class="g1_277"/>
<path d="M810.9,535.9h.7V150.1h-.7V535.9Z" class="g1_277"/>
<path d="M123.4,150.1H811.6v-.8H123.4v.8Z" class="g1_277"/>
<path d="M123.4,177.6H811.6v-.8H123.4v.8Z" class="g1_277"/>
<path d="M123.4,252.4H811.6v-.7H123.4v.7Z" class="g1_277"/>
<path d="M123.4,461.7H811.6V461H123.4v.7Z" class="g1_277"/>
<path d="M123.4,536.6H811.6v-.7H123.4v.7Z" class="g1_277"/>
</svg>