<?xml version="1.0" encoding="UTF-8" standalone="no"?>
<!DOCTYPE svg PUBLIC "-//W3C//DTD SVG 1.1//EN"
"http://www.w3.org/Graphics/SVG/1.1/DTD/svg11.dtd">
<svg viewBox="0 0 935 1210" version="1.1" xmlns="http://www.w3.org/2000/svg" xmlns:xlink="http://www.w3.org/1999/xlink">
<defs>
<style type="text/css"><![CDATA[
.g0_4812{
fill: #FFF;
}
.g1_4812{
fill: #000;
}
]]></style>
</defs>
<path d="M68.8,1149.3H852.5v-21.2H68.8v21.2Z" class="g0_4812"/>
<path d="M68.6,1085.9h.7V179.1h-.7v906.8Z" class="g1_4812"/>
<path d="M125.3,1086.7h.7V219.6h-.7v867.1Z" class="g1_4812"/>
<path d="M182.1,1086.7h.7V178.4h-.7v908.3Z" class="g1_4812"/>
<path d="M426.3,1086.7h.8V178.4h-.8v908.3Z" class="g1_4812"/>
<path d="M519.8,1086.7h.7V178.4h-.7v908.3Z" class="g1_4812"/>
<path d="M850.8,1085.9h.7V179.1h-.7v906.8Z" class="g1_4812"/>
<path d="M68.6,179.1H851.5v-.7H68.6v.7Z" class="g1_4812"/>
<path d="M68.6,220.4H182.8v-.8H68.6v.8Z" class="g1_4812"/>
<path d="M68.6,244.8H851.5v-.7H68.6v.7Z" class="g1_4812"/>
<path d="M182.1,269.2H851.5v-.7H182.1v.7Z" class="g1_4812"/>
<path d="M182.1,293.7H851.5V293H182.1v.7Z" class="g1_4812"/>
<path d="M182.1,318.2H851.5v-.8H182.1v.8Z" class="g1_4812"/>
<path d="M68.6,342.6H851.5v-.8H68.6v.8Z" class="g1_4812"/>
<path d="M182.1,383.8H851.5v-.7H182.1v.7Z" class="g1_4812"/>
<path d="M182.1,446.5H851.5v-.7H182.1v.7Z" class="g1_4812"/>
<path d="M182.1,471H851.5v-.8H182.1v.8Z" class="g1_4812"/>
<path d="M182.1,533.6H851.5v-.7H182.1v.7Z" class="g1_4812"/>
<path d="M68.6,558.1H851.5v-.8H68.6v.8Z" class="g1_4812"/>
<path d="M68.6,603.9H851.5v-.7H68.6v.7Z" class="g1_4812"/>
<path d="M68.6,649.7H851.5V649H68.6v.7Z" class="g1_4812"/>
<path d="M182.1,674.1H851.5v-.7H182.1v.7Z" class="g1_4812"/>
<path d="M182.1,698.6H851.5v-.7H182.1v.7Z" class="g1_4812"/>
<path d="M182.1,723.1H851.5v-.8H182.1v.8Z" class="g1_4812"/>
<path d="M182.1,747.4H851.5v-.7H182.1v.7Z" class="g1_4812"/>
<path d="M182.1,771.9H851.5v-.7H182.1v.7Z" class="g1_4812"/>
<path d="M182.1,796.4H851.5v-.7H182.1v.7Z" class="g1_4812"/>
<path d="M182.1,820.8H851.5v-.7H182.1v.7Z" class="g1_4812"/>
<path d="M182.1,866.6H851.5v-.7H182.1v.7Z" class="g1_4812"/>
<path d="M182.1,891.1H851.5v-.7H182.1v.7Z" class="g1_4812"/>
<path d="M182.1,915.6H851.5v-.8H182.1v.8Z" class="g1_4812"/>
<path d="M182.1,940H851.5v-.8H182.1v.8Z" class="g1_4812"/>
<path d="M182.1,964.4H851.5v-.7H182.1v.7Z" class="g1_4812"/>
<path d="M182.1,988.9H851.5v-.7H182.1v.7Z" class="g1_4812"/>
<path d="M182.1,1013.3H851.5v-.7H182.1v.7Z" class="g1_4812"/>
<path d="M182.1,1037.8H851.5v-.8H182.1v.8Z" class="g1_4812"/>
<path d="M182.1,1062.2H851.5v-.7H182.1v.7Z" class="g1_4812"/>
<path d="M68.6,1086.6H851.5v-.7H68.6v.7Z" class="g1_4812"/>
</svg>