<?xml version="1.0" encoding="UTF-8" standalone="no"?>
<!DOCTYPE svg PUBLIC "-//W3C//DTD SVG 1.1//EN"
"http://www.w3.org/Graphics/SVG/1.1/DTD/svg11.dtd">
<svg viewBox="0 0 935 1210" version="1.1" xmlns="http://www.w3.org/2000/svg" xmlns:xlink="http://www.w3.org/1999/xlink">
<defs>
<clipPath id="c0_1549"><path d="M97.3,59.2V41.4h72.1V59.2Z"/></clipPath>
<style type="text/css"><![CDATA[
.g0_1549{
fill: #000;
}
]]></style>
</defs>
<path d="M96.2,62.9v.3H838.7v-.3H96.2Z" class="g0_1549"/>
<path d="M96.2,1114.1h-.1v.4h.1v-.4Z" class="g0_1549"/>
<path d="M838.7,1114.1h.2v.4h-.2v-.4Z" class="g0_1549"/>
<path d="M96.2,1114.1v.4H838.7v-.4H96.2Z" class="g0_1549"/>
<image clip-path="url(#c0_1549)" preserveAspectRatio="none" x="97" y="41" width="72" height="18" xlink:href="img/1.jpg"/>
<path d="M96.6,180.2h-.7V467.1h.7V180.2Z" class="g0_1549"/>
<path d="M244.8,177.2h-.7V467.9h.7V177.2Z" class="g0_1549"/>
<path d="M284.5,177.2h-.7V467.9h.7V177.2Z" class="g0_1549"/>
<path d="M338,177.2h-.8V467.9h.8V177.2Z" class="g0_1549"/>
<path d="M413.8,177.2H413V467.9h.8V177.2Z" class="g0_1549"/>
<path d="M845.1,180.2h-.7V467.1h.7V180.2Z" class="g0_1549"/>
<path d="M95.9,177.3v3H845.1v-3H95.9Z" class="g0_1549"/>
<path d="M95.9,220v3H845.1v-3H95.9Z" class="g0_1549"/>
<path d="M95.9,260.9v.7H845.1v-.7H95.9Z" class="g0_1549"/>
<path d="M95.9,403v.7H845.1V403H95.9Z" class="g0_1549"/>
<path d="M95.9,427.4v.8H845.1v-.8H95.9Z" class="g0_1549"/>
<path d="M95.9,467.1v.8H845.1v-.8H95.9Z" class="g0_1549"/>
</svg>