<?xml version="1.0" encoding="UTF-8" standalone="no"?>
<!DOCTYPE svg PUBLIC "-//W3C//DTD SVG 1.1//EN"
"http://www.w3.org/Graphics/SVG/1.1/DTD/svg11.dtd">
<svg viewBox="0 0 935 1210" version="1.1" xmlns="http://www.w3.org/2000/svg" xmlns:xlink="http://www.w3.org/1999/xlink">
<defs>
<style type="text/css"><![CDATA[
.g0_2580{
fill: #FFF;
}
.g1_2580{
fill: #000;
}
]]></style>
</defs>
<path d="M165,1149.3H852.5v-21.2H165v21.2Z" class="g0_2580"/>
<path d="M68.8,1149.3h82.5v-21.2H68.8v21.2Z" class="g0_2580"/>
<path d="M68.6,1058.4h.7V125.7h-.7v932.7Z" class="g1_2580"/>
<path d="M282.8,1059.2h.7V124.9h-.7v934.3Z" class="g1_2580"/>
<path d="M328.7,1059.2h.8V124.9h-.8v934.3Z" class="g1_2580"/>
<path d="M402.1,1059.2h.7V124.9h-.7v934.3Z" class="g1_2580"/>
<path d="M491.8,1059.2h.7V124.9h-.7v934.3Z" class="g1_2580"/>
<path d="M853,1058.4h.8V125.7H853v932.7Z" class="g1_2580"/>
<path d="M68.6,125.7H853.8v-.8H68.6v.8Z" class="g1_2580"/>
<path d="M68.6,179.1H853.8v-.7H68.6v.7Z" class="g1_2580"/>
<path d="M68.6,252.4H853.8v-.7H68.6v.7Z" class="g1_2580"/>
<path d="M68.6,325.8H853.8v-.7H68.6v.7Z" class="g1_2580"/>
<path d="M68.6,399.1H853.8v-.7H68.6v.7Z" class="g1_2580"/>
<path d="M68.6,472.4H853.8v-.7H68.6v.7Z" class="g1_2580"/>
<path d="M68.6,545.8H853.8v-.7H68.6v.7Z" class="g1_2580"/>
<path d="M68.6,619.1H853.8v-.7H68.6v.7Z" class="g1_2580"/>
<path d="M68.6,692.4H853.8v-.7H68.6v.7Z" class="g1_2580"/>
<path d="M68.6,765.8H853.8V765H68.6v.8Z" class="g1_2580"/>
<path d="M68.6,839.1H853.8v-.7H68.6v.7Z" class="g1_2580"/>
<path d="M68.6,912.5H853.8v-.8H68.6v.8Z" class="g1_2580"/>
<path d="M68.6,985.8H853.8v-.7H68.6v.7Z" class="g1_2580"/>
<path d="M68.6,1059.1H853.8v-.7H68.6v.7Z" class="g1_2580"/>
</svg>