<?xml version="1.0" encoding="UTF-8" standalone="no"?>
<!DOCTYPE svg PUBLIC "-//W3C//DTD SVG 1.1//EN"
"http://www.w3.org/Graphics/SVG/1.1/DTD/svg11.dtd">
<svg viewBox="0 0 935 1210" version="1.1" xmlns="http://www.w3.org/2000/svg" xmlns:xlink="http://www.w3.org/1999/xlink">
<defs>
<style type="text/css"><![CDATA[
.g0_357{
fill: #FFF;
}
.g1_357{
fill: #000;
}
]]></style>
</defs>
<path d="M68.9,1149.3H852.7v-21.2H68.9v21.2Z" class="g0_357"/>
<path d="M69.9,1099.6h.8V142.4h-.8v957.2Z" class="g1_357"/>
<path d="M126.7,1100.5h.7V183h-.7v917.5Z" class="g1_357"/>
<path d="M183.4,1100.5h.8V141.7h-.8v958.8Z" class="g1_357"/>
<path d="M429.5,1100.5h.7V141.7h-.7v958.8Z" class="g1_357"/>
<path d="M523,1100.5h.7V141.7H523v958.8Z" class="g1_357"/>
<path d="M852.1,1099.6h.8V142.4h-.8v957.2Z" class="g1_357"/>
<path d="M69.9,142.4h783v-.7H69.9v.7Z" class="g1_357"/>
<path d="M69.9,183.7H184.2V183H69.9v.7Z" class="g1_357"/>
<path d="M69.9,208.2h783v-.8H69.9v.8Z" class="g1_357"/>
<path d="M69.9,232.6h783v-.8H69.9v.8Z" class="g1_357"/>
<path d="M183.4,278.4H852.9v-.7H183.4v.7Z" class="g1_357"/>
<path d="M183.4,319.6H852.9v-.7H183.4v.7Z" class="g1_357"/>
<path d="M69.9,344.1h783v-.7H69.9v.7Z" class="g1_357"/>
<path d="M183.4,389.9H852.9v-.7H183.4v.7Z" class="g1_357"/>
<path d="M183.4,431.2H852.9v-.7H183.4v.7Z" class="g1_357"/>
<path d="M69.9,455.7h783v-.8H69.9v.8Z" class="g1_357"/>
<path d="M183.4,501.5H852.9v-.7H183.4v.7Z" class="g1_357"/>
<path d="M183.4,542.8H852.9V542H183.4v.8Z" class="g1_357"/>
<path d="M69.9,567.2h783v-.7H69.9v.7Z" class="g1_357"/>
<path d="M183.4,613.1H852.9v-.8H183.4v.8Z" class="g1_357"/>
<path d="M183.4,654.3H852.9v-.7H183.4v.7Z" class="g1_357"/>
<path d="M69.9,678.7h783V678H69.9v.7Z" class="g1_357"/>
<path d="M183.4,724.5H852.9v-.7H183.4v.7Z" class="g1_357"/>
<path d="M183.4,765.8H852.9V765H183.4v.8Z" class="g1_357"/>
<path d="M69.9,790.3h783v-.8H69.9v.8Z" class="g1_357"/>
<path d="M183.4,836.1H852.9v-.7H183.4v.7Z" class="g1_357"/>
<path d="M183.4,877.3H852.9v-.7H183.4v.7Z" class="g1_357"/>
<path d="M69.9,901.8h783v-.7H69.9v.7Z" class="g1_357"/>
<path d="M183.4,947.7H852.9v-.8H183.4v.8Z" class="g1_357"/>
<path d="M183.4,988.9H852.9v-.7H183.4v.7Z" class="g1_357"/>
<path d="M69.9,1013.3h783v-.7H69.9v.7Z" class="g1_357"/>
<path d="M183.4,1059.1H852.9v-.7H183.4v.7Z" class="g1_357"/>
<path d="M69.9,1100.4h783v-.8H69.9v.8Z" class="g1_357"/>
</svg>