<?xml version="1.0" encoding="UTF-8" standalone="no"?>
<!DOCTYPE svg PUBLIC "-//W3C//DTD SVG 1.1//EN"
"http://www.w3.org/Graphics/SVG/1.1/DTD/svg11.dtd">
<svg viewBox="0 0 935 1210" version="1.1" xmlns="http://www.w3.org/2000/svg" xmlns:xlink="http://www.w3.org/1999/xlink">
<defs>
<style type="text/css"><![CDATA[
.g0_2121{
fill: #FFF;
}
.g1_2121{
fill: #000;
}
.g2_2121{
fill: none;
stroke: #000;
stroke-width: 0.152;
stroke-miterlimit: 10;
}
]]></style>
</defs>
<path d="M68.9,1149.3H755.2v-21.2H68.9v21.2Z" class="g0_2121"/>
<path d="M771.3,1149.3H855v-21.2H771.3v21.2Z" class="g0_2121"/>
<path d="M69.9,398.4h.8V125.7h-.8V398.4Z" class="g1_2121"/>
<path d="M272.6,399.1h.8V124.9h-.8V399.1Z" class="g1_2121"/>
<path d="M316.5,399.1h.8V124.9h-.8V399.1Z" class="g1_2121"/>
<path d="M389.1,399.1h.8V124.9h-.8V399.1Z" class="g1_2121"/>
<path d="M477.3,399.1h.7V124.9h-.7V399.1Z" class="g1_2121"/>
<path d="M855.3,398.4h.8V125.7h-.8V398.4Z" class="g1_2121"/>
<path d="M69.9,125.7H856.1v-.8H69.9v.8Z" class="g1_2121"/>
<path d="M69.9,179.1H856.1v-.7H69.9v.7Z" class="g1_2121"/>
<path d="M69.9,252.4H856.1v-.7H69.9v.7Z" class="g1_2121"/>
<path d="M69.9,325.8H856.1v-.7H69.9v.7Z" class="g1_2121"/>
<path d="M69.9,399.1H856.1v-.7H69.9v.7Z" class="g1_2121"/>
<path d="M69.9,502.2h.8V454.1h-.8v48.1Z" class="g1_2121"/>
<path d="M141.5,503.1h.8V453.4h-.8v49.7Z" class="g1_2121"/>
<path d="M256.3,503.1h.7V453.4h-.7v49.7Z" class="g1_2121"/>
<path d="M404.9,503.1h.7V453.4h-.7v49.7Z" class="g1_2121"/>
<path d="M560.4,503.1h.7V453.4h-.7v49.7Z" class="g1_2121"/>
<path d="M712.4,503.1h.8V453.4h-.8v49.7Z" class="g1_2121"/>
<path d="M849.3,502.2h.7V454.1h-.7v48.1Z" class="g1_2121"/>
<path d="M69.9,454.1H850v-.7H69.9v.7Z" class="g1_2121"/>
<path d="M69.9,478.6H850v-.7H69.9v.7Z" class="g1_2121"/>
<path d="M69.9,503.1H850v-.8H69.9v.8Z" class="g1_2121"/>
<path d="M67.3,1057.8H68V894.2h-.7v163.6Z" class="g1_2121"/>
<path d="M854.7,1057.8h.7V894.2h-.7v163.6Z" class="g1_2121"/>
<path d="M67.3,894.1H855.4v-.7H67.3v.7Z" class="g1_2121"/>
<path d="M67.3,1058.6H855.4v-.8H67.3v.8Z" class="g1_2121"/>
<path d="M142.2,935.9H712.4v-.7H142.2v.7Z" class="g1_2121"/>
<path d="M711.7,956.1h.7V935.6h-.7v20.5Z" class="g1_2121"/>
<path d="M141.8,956.1H712.1v-.7H141.8v.7Z" class="g1_2121"/>
<path d="M141.8,955.7h.7V935.2h-.7v20.5Z" class="g1_2121"/>
<path d="M569.3,935.9h.7v-.3h-.7v.3Z" class="g1_2121"/>
<path d="M569.3,956.1h.7V935.9h-.7v20.2Z" class="g1_2121"/>
<path d="M426.7,935.9h.7v-.3h-.7v.3Z" class="g1_2121"/>
<path d="M426.7,956.1h.7V935.9h-.7v20.2Z" class="g1_2121"/>
<path d="M210.3,987.3l-6.4,4.5m8.9,-.8l-8.9,.8l3.7,-8.1m36.1,-19.6l-33.4,23.2M672.9,975.1l6.2,4.9m-3.3,-8.3l3.3,8.3l-8.9,-1.3m-23,-23.8l25.7,20.2" class="g2_2121"/>
<path d="M500,937.3h.8v-.4H500v.4Z" class="g1_2121"/>
<path d="M500,955.3h.8v-18H500v18Z" class="g1_2121"/>
<path d="M535.4,980.6l.9,7.8m3.6,-8.3l-3.6,8.3l-5.4,-7.3m1.7,-25.5l2.8,25M428.8,974.3l-7,3.4m8.9,.7l-8.9,-.7l5,-7.4m35.4,-12.4l-33.4,16.4" class="g2_2121"/>
</svg>