<?xml version="1.0" encoding="UTF-8" standalone="no"?>
<!DOCTYPE svg PUBLIC "-//W3C//DTD SVG 1.1//EN"
"http://www.w3.org/Graphics/SVG/1.1/DTD/svg11.dtd">
<svg viewBox="0 0 935 1210" version="1.1" xmlns="http://www.w3.org/2000/svg" xmlns:xlink="http://www.w3.org/1999/xlink">
<defs>
<clipPath id="c0_233"><path d="M766.7,59V41.4h72.2V59Z"/></clipPath>
<style type="text/css"><![CDATA[
.g0_233{
fill: #000;
}
.g1_233{
fill: none;
stroke: #231F20;
stroke-width: 1.527;
}
.g2_233{
fill: none;
stroke: #231F20;
stroke-width: 0.763;
}
.g3_233{
fill: #231F20;
}
.g4_233{
fill: none;
stroke: #231F20;
stroke-width: 0.763;
stroke-dasharray: 19,7;
}
]]></style>
</defs>
<path d="M97.5,63.1v.3H840v-.3H97.5Z" class="g0_233"/>
<path d="M96.1,1114.3v.3v-.3Z" class="g0_233"/>
<path d="M838.9,1114.3v.3v-.3Z" class="g0_233"/>
<path d="M96.1,1114.3v.3H838.9v-.3H96.1Z" class="g0_233"/>
<image clip-path="url(#c0_233)" preserveAspectRatio="none" x="767" y="41" width="72" height="18" xlink:href="img/1.jpg"/>
<path d="M492.7,938.4H422.8v-22h69.9v22Zm-69.9,0H352.9v-22h69.9v22Zm209.6,0H562.5v-22h69.9v22Zm-69.9,0H492.7v-22h69.8v22ZM300.2,753H230.3V731h69.9v22Zm-69.9,0H160.4V731h69.9v22Zm209.6,0H370V731h69.9v22ZM370,753H300.2V731H370v22Zm315.2,0H615.3V731h69.9v22Zm-69.9,0H545.4V731h69.9v22Zm209.6,0H755V731h69.9v22ZM755,753H685.2V731H755v22Z" class="g1_233"/>
<path d="M792.5,752.9v26H702.8" class="g2_233"/>
<path d="M703.9,775.1l-6.6,3.8l6.6,3.8v-7.6Z" class="g3_233"/>
<path d="M404.2,752.9v26.2H665.6" class="g2_233"/>
<path d="M664.5,782.9l6.5,-3.8l-6.5,-3.8v7.6Z" class="g3_233"/>
<path d="M195.7,753.1V861.7h84.6" class="g2_233"/>
<path d="M279.2,865.5l6.6,-3.8l-6.6,-3.8v7.6Z" class="g3_233"/>
<path d="M265.6,753.3v81.2H438.8" class="g2_233"/>
<path d="M437.7,838.4l6.6,-3.8l-6.6,-3.9v7.7Z" class="g3_233"/>
<path d="M335,753.1v54.7H508.6" class="g2_233"/>
<path d="M507.5,811.6l6.6,-3.8L507.5,804v7.6Z" class="g3_233"/>
<path d="M580.4,752.9V861.7H318.1" class="g2_233"/>
<path d="M319.3,857.9l-6.6,3.8l6.6,3.8v-7.6Z" class="g3_233"/>
<path d="M720.9,752.9v54.9h-174" class="g2_233"/>
<path d="M548,804l-6.6,3.8l6.6,3.8V804Z" class="g3_233"/>
<path d="M650.7,752.9v81.5H477" class="g2_233"/>
<path d="M478.1,830.6l-6.6,3.8l6.6,3.8v-7.6Z" class="g3_233"/>
<path d="M312.4,861.9c0,4.5,-3.6,8.1,-8.1,8.1H294.1c-4.5,0,-8.2,-3.6,-8.2,-8.1c0,-4.5,3.7,-8.2,8.2,-8.2h10.2c4.5,0,8.1,3.7,8.1,8.2ZM471,833.9c0,4.5,-3.7,8.1,-8.2,8.1H452.6c-4.5,0,-8.1,-3.6,-8.1,-8.1c0,-4.5,3.6,-8.2,8.1,-8.2h10.2c4.5,0,8.2,3.7,8.2,8.2Zm69.8,-26.3c0,4.5,-3.6,8.2,-8.1,8.2H522.5c-4.5,0,-8.2,-3.7,-8.2,-8.2c0,-4.5,3.7,-8.1,8.2,-8.1h10.2c4.5,0,8.1,3.6,8.1,8.1ZM697.9,779.1c0,4.5,-3.6,8.2,-8.1,8.2H679.6c-4.5,0,-8.1,-3.7,-8.1,-8.2c0,-4.5,3.6,-8.1,8.1,-8.1h10.2c4.5,0,8.1,3.6,8.1,8.1ZM527.6,910.5V816.3" class="g2_233"/>
<path d="M523.8,909.4l3.8,6.6l3.8,-6.6h-7.6Z" class="g3_233"/>
<path d="M457.7,841.8v68.3" class="g2_233"/>
<path d="M453.9,909l3.8,6.6l3.8,-6.6h-7.6Z" class="g3_233"/>
<path d="M299.4,870.2v18.6h87.9v21.6" class="g2_233"/>
<path d="M383.4,909.2l3.8,6.6l3.8,-6.6h-7.6Z" class="g3_233"/>
<path d="M684.9,787.6v101H594.4v22.1" class="g2_233"/>
<path d="M590.6,909.5l3.8,6.6l3.8,-6.6h-7.6Z" class="g3_233"/>
<path d="M352.6,927.1H109.7V740.7H154" class="g4_233"/>
<path d="M152.9,744.5l6.6,-3.8l-6.6,-3.8v7.6Z" class="g3_233"/>
</svg>