<?xml version="1.0" encoding="UTF-8" standalone="no"?>
<!DOCTYPE svg PUBLIC "-//W3C//DTD SVG 1.1//EN"
"http://www.w3.org/Graphics/SVG/1.1/DTD/svg11.dtd">
<svg viewBox="0 0 935 1210" version="1.1" xmlns="http://www.w3.org/2000/svg" xmlns:xlink="http://www.w3.org/1999/xlink">
<defs>
<style type="text/css"><![CDATA[
.g0_390{
fill: #FFF;
}
.g1_390{
fill: #000;
}
]]></style>
</defs>
<path d="M68.8,1149.3H852.5v-21.2H68.8v21.2Z" class="g0_390"/>
<path d="M67.4,296h.7V141h-.7V296Z" class="g1_390"/>
<path d="M207.8,296.8h.7V140.2h-.7V296.8Z" class="g1_390"/>
<path d="M853,296h.8V141H853V296Z" class="g1_390"/>
<path d="M67.4,140.9H853.8v-.7H67.4v.7Z" class="g1_390"/>
<path d="M67.4,165.4H853.8v-.8H67.4v.8Z" class="g1_390"/>
<path d="M67.4,206.6H853.8v-.7H67.4v.7Z" class="g1_390"/>
<path d="M67.4,231.1H853.8v-.7H67.4v.7Z" class="g1_390"/>
<path d="M67.4,272.3H853.8v-.7H67.4v.7Z" class="g1_390"/>
<path d="M67.4,296.7H853.8V296H67.4v.7Z" class="g1_390"/>
</svg>