<?xml version="1.0" encoding="UTF-8" standalone="no"?>
<!DOCTYPE svg PUBLIC "-//W3C//DTD SVG 1.1//EN"
"http://www.w3.org/Graphics/SVG/1.1/DTD/svg11.dtd">
<svg viewBox="0 0 935 1210" version="1.1" xmlns="http://www.w3.org/2000/svg" xmlns:xlink="http://www.w3.org/1999/xlink">
<defs>
<style type="text/css"><![CDATA[
.g0_3284{
fill: #FFF;
}
.g1_3284{
fill: #000;
}
]]></style>
</defs>
<path d="M68.8,1149.3H852.5v-21.2H68.8v21.2Z" class="g0_3284"/>
<path d="M170.5,501.8h.7V156.2h-.7V501.8Z" class="g1_3284"/>
<path d="M749.8,501.8h.8V156.2h-.8V501.8Z" class="g1_3284"/>
<path d="M170.5,156.2H750.7v-.7H170.5v.7Z" class="g1_3284"/>
<path d="M170.5,502.5H750.7v-.7H170.5v.7Z" class="g1_3284"/>
<path d="M368.5,222.6h14.1v-.5H368.5v.5Z" class="g1_3284"/>
<path d="M368.5,250.1h.5V222.3h-.5v27.8Z" class="g1_3284"/>
<path d="M368.7,250.1h13.9v-.5H368.7v.5Z" class="g1_3284"/>
<path d="M346.1,236.5h2.1V236h-2.1v.5Z" class="g1_3284"/>
<path d="M346.8,236l1.3,2.3l1.1,1.7l-2,-.6L339.1,237l-2.5,-.7l2.5,-.7l8.1,-2.4l1.9,-.5l-1,1.6l-.4,.4l-8.2,2.3l-.4,-1.4h.4l8.2,2.4l-.5,1.4l-.4,-.3l-1.4,-2.4Z" class="g1_3284"/>
<path d="M348.2,234.3l-1.4,2.4h-1.4l-.2,-.4l.2,-.3l1.4,-2.4Z" class="g1_3284"/>
<path fill-rule="evenodd" d="M346.1,236.3l1.4,2.4l-8.2,-2.4l8.2,-2.4Z" class="g1_3284"/>
<path d="M368.6,236.6h.2v-.5h-.2v.5Z" class="g1_3284"/>
<path d="M348.1,236.6h20.5v-.5H348.1v.5Z" class="g1_3284"/>
<path d="M551,370.2h14.2v-.5H551v.5Z" class="g1_3284"/>
<path d="M564.8,483.3h.4V369.9h-.4V483.3Z" class="g1_3284"/>
<path d="M551,483.3h13.9v-.5H551v.5Z" class="g1_3284"/>
<path d="M580.7,426.7h2.1v-.4h-2.1v.4Z" class="g1_3284"/>
<path d="M582.2,426.8l-1.4,-2.4l-1,-1.6l1.9,.5l8.3,2.4l2.5,.7l-2.5,.8l-8.3,2.3l-1.8,.6l.9,-1.7l.5,-.3l8.2,-2.4l.5,1.5h-.5l-8.2,-2.4l.4,-1.5l.5,.4l1.3,2.4Z" class="g1_3284"/>
<path d="M580.8,428.5l1.4,-2.4h1.3l.2,.3l-.2,.4l-1.3,2.4Z" class="g1_3284"/>
<path fill-rule="evenodd" d="M582.8,426.4L581.4,424l8.3,2.4l-8.3,2.4Z" class="g1_3284"/>
<path d="M564.8,426.7h.1v-.4h-.1v.4Z" class="g1_3284"/>
<path d="M564.9,426.7h16v-.4h-16v.4Z" class="g1_3284"/>
<path d="M479.1,371.5l.2,.5l2,-.6l-.1,-.4Z" class="g1_3284"/>
<path d="M480.8,371.8l-3.4,-3.4l2,.1l8.5,.2h2.7l-9.6,5.8l-1.8,1l.6,-1.9l.4,-.4l7.3,-4.4l.8,1.3h-.4l-8.6,-.1l.1,-1.5l.6,.2l1.9,1.9Z" class="g1_3284"/>
<path d="M479.8,373.6l.7,-2.6l1.4,-.4l.4,.4l-.2,.4l-.8,2.7Z" class="g1_3284"/>
<path fill-rule="evenodd" d="M481.3,371.2l-2,-2l8.6,.2l-7.4,4.4Z" class="g1_3284"/>
<path d="M445.8,380.5h-.2l.1,.5h.2Z" class="g1_3284"/>
<path d="M479.2,371.5h.2l.1,.5h-.2Z" class="g1_3284"/>
<path d="M445.8,380.5l.1,.5l33.4,-9l-.1,-.5Z" class="g1_3284"/>
<path d="M478.9,384.5v.4l2.1,.3v-.5Z" class="g1_3284"/>
<path d="M480.3,385.2l-1,-2.5l-.8,-1.7l1.8,.7l7.8,3.3l2.4,1.1l-2.6,.4l-8.4,1.3l-1.9,.4l1.2,-1.5l.4,-.3l8.5,-1.4l.2,1.5h-.4l-7.8,-3.3l.6,-1.5l.4,.5l1,2.4Z" class="g1_3284"/>
<path d="M478.8,386.7l1.6,-2.2l1.3,.1l.2,.4l-1.9,2.6Z" class="g1_3284"/>
<path fill-rule="evenodd" d="M481,384.9l-1,-2.5l7.8,3.3l-8.5,1.4Z" class="g1_3284"/>
<path d="M446.4,380.5h-.2l-.1,.5h.2Z" class="g1_3284"/>
<path d="M479,384.5h.1v.4h-.2Z" class="g1_3284"/>
<path d="M446.4,380.5l-.1,.5l32.6,3.9l.1,-.4Z" class="g1_3284"/>
<path d="M484,417.8l-.3,.3l1.6,1.5l.3,-.3Z" class="g1_3284"/>
<path d="M484.6,419.3l.7,-2.7l.5,-2l1,1.8l4.4,7.4l1.2,2.4l-2.3,-1.3l-7.6,-4.1l-1.8,-.9l1.9,-.5l.6,.1l7.6,4l-.7,1.4l-.3,-.4l-4.3,-7.4l1.3,-.7l.1,.6l-.6,2.6Z" class="g1_3284"/>
<path d="M482.6,419.4l2.7,-.8l1,1l-.2,.4l-.4,.2l-2.7,.7Z" class="g1_3284"/>
<path fill-rule="evenodd" d="M485.5,419.4l.6,-2.7l4.3,7.4l-7.6,-4Z" class="g1_3284"/>
<path d="M445.7,380.4l-.2,-.1l-.3,.4l.2,.1Z" class="g1_3284"/>
<path d="M484.1,417.7l.2,.1l-.3,.4l-.2,-.1Z" class="g1_3284"/>
<path d="M445.7,380.4l-.3,.4l38.4,37.3l.3,-.4Z" class="g1_3284"/>
<path d="M524,308.5h.4v-2.1H524v2.1Z" class="g1_3284"/>
<path d="M523.9,307.8l2.4,-1.4l1.6,-1l-.5,2l-2.4,8.2l-.8,2.7l-.7,-2.7l-2.3,-8.2l-.5,-2l1.6,1l.4,.5l2.3,8.2l-1.5,.5v-.5l2.4,-8.2l1.5,.5l-.4,.4l-2.4,1.4Z" class="g1_3284"/>
<path d="M522.3,306.4l2.3,1.4v1.4l-.4,.3l-.4,-.3l-2.3,-1.4Z" class="g1_3284"/>
<path fill-rule="evenodd" d="M524.2,308.5l2.4,-1.4l-2.4,8.2L522,307.1Z" class="g1_3284"/>
<path d="M524.1,262.5h.4v-.2h-.4v.2Z" class="g1_3284"/>
<path d="M524.1,306.5h.4v-44h-.4v44Z" class="g1_3284"/>
<path d="M550.4,309h.4v-2.1h-.4V309Z" class="g1_3284"/>
<path d="M550.3,308.4l2.4,-1.3l1.6,-1l-.5,1.9l-2.4,8.2l-.8,2.4l-.7,-2.4L547.5,308l-.5,-1.8l1.6,.9l.4,.4l2.4,8.2l-1.5,.5v-.5l2.4,-8.2l1.5,.5l-.4,.5l-2.4,1.2Z" class="g1_3284"/>
<path d="M548.6,307.1l2.4,1.3v1.3l-.4,.2l-.3,-.2l-2.4,-1.2Z" class="g1_3284"/>
<path fill-rule="evenodd" d="M550.6,309l2.4,-1.3l-2.4,8.2l-2.3,-8.2Z" class="g1_3284"/>
<path d="M633.5,292h.5V262.3h-.5V292Z" class="g1_3284"/>
<path d="M550.5,292h83.2v-.4H550.5v.4Z" class="g1_3284"/>
<path d="M550.5,307.1h.4V291.8h-.4v15.3Z" class="g1_3284"/>
<path d="M497.3,309h.4v-2.1h-.4V309Z" class="g1_3284"/>
<path d="M497.2,308.4l2.3,-1.3l1.6,-1l-.5,1.9l-2.3,8.2l-.7,2.4l-.8,-2.4L494.5,308l-.6,-1.8l1.7,.9l.3,.4l2.4,8.2l-1.5,.5v-.5l2.3,-8.2l1.5,.5l-.4,.5l-2.3,1.2Z" class="g1_3284"/>
<path d="M495.5,307.1l2.4,1.3v1.3l-.3,.2l-.4,-.2l-2.4,-1.2Z" class="g1_3284"/>
<path fill-rule="evenodd" d="M497.6,309l2.3,-1.3l-2.3,8.2l-2.4,-8.2Z" class="g1_3284"/>
<path d="M414.2,292h.5V262.3h-.5V292Z" class="g1_3284"/>
<path d="M414.4,292h83.4v-.4H414.4v.4Z" class="g1_3284"/>
<path d="M497.4,307.1h.4V291.8h-.4v15.3Z" class="g1_3284"/>
</svg>