<?xml version="1.0" encoding="UTF-8" standalone="no"?>
<!DOCTYPE svg PUBLIC "-//W3C//DTD SVG 1.1//EN"
"http://www.w3.org/Graphics/SVG/1.1/DTD/svg11.dtd">
<svg viewBox="0 0 935 1210" version="1.1" xmlns="http://www.w3.org/2000/svg" xmlns:xlink="http://www.w3.org/1999/xlink">
<defs>
<clipPath id="c0_2144"><path d="M766.6,59.2V41.4h72.2V59.2Z"/></clipPath>
<style type="text/css"><![CDATA[
.g0_2144{
fill: #000;
}
]]></style>
</defs>
<path d="M97.4,63.3H839.9v-.4H97.4v.4Z" class="g0_2144"/>
<path d="M96.1,1114.5h.2v-.4h-.2v.4Z" class="g0_2144"/>
<path d="M96.3,1114.5H838.9v-.4H96.3v.4Z" class="g0_2144"/>
<image clip-path="url(#c0_2144)" preserveAspectRatio="none" x="767" y="41" width="72" height="18" xlink:href="img/1.jpg"/>
<path d="M546,327.9h31.3v-1.1H546v1.1Z" class="g0_2144"/>
<path d="M546,350.8h31.3v-1.1H546v1.1Z" class="g0_2144"/>
<path d="M546,373.7h31.3v-1.1H546v1.1Z" class="g0_2144"/>
<path d="M546,396.6h31.3v-1.1H546v1.1Z" class="g0_2144"/>
<path d="M95.9,983.5h.7V537.8h-.7V983.5Z" class="g0_2144"/>
<path d="M273.3,933.9h.8V534.7h-.8V933.9Z" class="g0_2144"/>
<path d="M310,933.9h.7V557.2H310V933.9Z" class="g0_2144"/>
<path d="M346.7,933.9h.7V557.2h-.7V933.9Z" class="g0_2144"/>
<path d="M383.4,933.9h.7V534.7h-.7V933.9Z" class="g0_2144"/>
<path d="M839.2,983.5h.7V537.8h-.7V983.5Z" class="g0_2144"/>
<path d="M95.9,537.8h744v-3H95.9v3Z" class="g0_2144"/>
<path d="M273.3,558H384.2v-.8H273.3v.8Z" class="g0_2144"/>
<path d="M95.9,580.6h744v-3H95.9v3Z" class="g0_2144"/>
<path d="M273.3,599.2H839.9v-.7H273.3v.7Z" class="g0_2144"/>
<path d="M273.3,619.1H839.9v-.7H273.3v.7Z" class="g0_2144"/>
<path d="M273.3,639H839.9v-.7H273.3v.7Z" class="g0_2144"/>
<path d="M273.3,658.8H839.9v-.7H273.3v.7Z" class="g0_2144"/>
<path d="M273.3,678.7H839.9V678H273.3v.7Z" class="g0_2144"/>
<path d="M273.3,698.6H839.9v-.7H273.3v.7Z" class="g0_2144"/>
<path d="M273.3,718.4H839.9v-.7H273.3v.7Z" class="g0_2144"/>
<path d="M273.3,738.3H839.9v-.8H273.3v.8Z" class="g0_2144"/>
<path d="M95.9,758.2h744v-.8H95.9v.8Z" class="g0_2144"/>
<path d="M95.9,778h744v-.8H95.9v.8Z" class="g0_2144"/>
<path d="M95.9,797.9h744v-.8H95.9v.8Z" class="g0_2144"/>
<path d="M273.3,817.8H839.9V817H273.3v.8Z" class="g0_2144"/>
<path d="M273.3,837.6H839.9v-.8H273.3v.8Z" class="g0_2144"/>
<path d="M273.3,857.5H839.9v-.8H273.3v.8Z" class="g0_2144"/>
<path d="M273.3,894.1H839.9v-.7H273.3v.7Z" class="g0_2144"/>
<path d="M95.9,914h744v-.7H95.9v.7Z" class="g0_2144"/>
<path d="M95.9,933.8h744v-.7H95.9v.7Z" class="g0_2144"/>
<path d="M95.9,984.2h744v-.7H95.9v.7Z" class="g0_2144"/>
</svg>