<?xml version="1.0" encoding="UTF-8" standalone="no"?>
<!DOCTYPE svg PUBLIC "-//W3C//DTD SVG 1.1//EN"
"http://www.w3.org/Graphics/SVG/1.1/DTD/svg11.dtd">
<svg viewBox="0 0 935 1210" version="1.1" xmlns="http://www.w3.org/2000/svg" xmlns:xlink="http://www.w3.org/1999/xlink">
<defs>
<style type="text/css"><![CDATA[
.g0_1855{
fill: #FFF;
}
.g1_1855{
fill: #000;
}
]]></style>
</defs>
<path d="M68.9,1149.3H755.2v-21.2H68.9v21.2Z" class="g0_1855"/>
<path d="M771.3,1149.3H855v-21.2H771.3v21.2Z" class="g0_1855"/>
<path d="M100.5,412.6h.7V237.2h-.7V412.6Z" class="g1_1855"/>
<path d="M821.6,412.6h.7V237.2h-.7V412.6Z" class="g1_1855"/>
<path d="M100.4,237.1H822.3v-.7H100.4v.7Z" class="g1_1855"/>
<path d="M100.4,413.3H822.3v-.7H100.4v.7Z" class="g1_1855"/>
<path d="M236.6,388.6H350V368H236.6v20.6Z" class="g0_1855"/>
<path d="M236.6,368.3H350.4v-.7H236.6v.7Z" class="g1_1855"/>
<path d="M349.6,388.9h.7V368h-.7v20.9Z" class="g1_1855"/>
<path d="M236.2,388.9H350v-.7H236.2v.7Z" class="g1_1855"/>
<path d="M236.2,388.6h.8v-21h-.8v21Z" class="g1_1855"/>
<path d="M350,388.6H463.5V368H350v20.6Z" class="g0_1855"/>
<path d="M350,368.3H463.8v-.7H350v.7Z" class="g1_1855"/>
<path d="M463.1,388.9h.7V368h-.7v20.9Z" class="g1_1855"/>
<path d="M349.6,388.9H463.5v-.7H349.6v.7Z" class="g1_1855"/>
<path d="M349.6,388.6h.7v-21h-.7v21Z" class="g1_1855"/>
<path d="M463.5,388.6H576.9V368H463.5v20.6Z" class="g0_1855"/>
<path d="M463.5,368.3H577.3v-.7H463.5v.7Z" class="g1_1855"/>
<path d="M576.6,388.9h.7V368h-.7v20.9Z" class="g1_1855"/>
<path d="M463.1,388.9H576.9v-.7H463.1v.7Z" class="g1_1855"/>
<path d="M463.1,388.6h.7v-21h-.7v21Z" class="g1_1855"/>
<path d="M577,388.6H690.3V368H577v20.6Z" class="g0_1855"/>
<path d="M577,368.3H690.7v-.7H577v.7Z" class="g1_1855"/>
<path d="M690,388.9h.7V368H690v20.9Z" class="g1_1855"/>
<path d="M576.6,388.9H690.3v-.7H576.6v.7Z" class="g1_1855"/>
<path d="M576.6,388.6h.7v-21h-.7v21Z" class="g1_1855"/>
<path d="M236.6,285.5H350V264.8H236.6v20.7Z" class="g0_1855"/>
<path d="M236.6,265.2H350.4v-.7H236.6v.7Z" class="g1_1855"/>
<path d="M349.6,285.8h.7v-21h-.7v21Z" class="g1_1855"/>
<path d="M236.2,285.8H350v-.7H236.2v.7Z" class="g1_1855"/>
<path d="M236.2,285.5h.8v-21h-.8v21Z" class="g1_1855"/>
<path d="M350,285.5H463.5V264.8H350v20.7Z" class="g0_1855"/>
<path d="M350,265.2H463.8v-.7H350v.7Z" class="g1_1855"/>
<path d="M463.1,285.8h.7v-21h-.7v21Z" class="g1_1855"/>
<path d="M349.6,285.8H463.5v-.7H349.6v.7Z" class="g1_1855"/>
<path d="M349.6,285.5h.7v-21h-.7v21Z" class="g1_1855"/>
<path fill-rule="evenodd" d="M525.3,343h.3l.3,-.1c1.4,-.6,1.2,-2.5,-.3,-2.9h-.5c-1.5,.4,-1.7,2.3,-.3,2.9l.3,.1h.2Z" class="g1_1855"/>
<path d="M525.3,341.5h7.6l-.2,1.1l-6.6,22.9l-.8,2.5l-.7,-2.5L518,342.6l-.3,-1.1h1l.8,.6l6.6,22.9l-1.5,.5V365l6.6,-22.9l1.5,.5l-.8,.5h-6.6Z" class="g1_1855"/>
<path d="M518.7,343.1h6.6v-1.6h-6.6v1.6Z" class="g1_1855"/>
<path fill-rule="evenodd" d="M525.3,342.3h6.6l-6.6,22.9l-6.6,-22.9Z" class="g1_1855"/>
<path d="M523.9,341.5h3v-9.7h-3v9.7Z" class="g1_1855"/>
<path d="M463.5,285.5H576.9V264.8H463.5v20.7Z" class="g0_1855"/>
<path d="M463.5,265.2H577.3v-.7H463.5v.7Z" class="g1_1855"/>
<path d="M576.6,285.8h.7v-21h-.7v21Z" class="g1_1855"/>
<path d="M463.1,285.8H576.9v-.7H463.1v.7Z" class="g1_1855"/>
<path d="M463.1,285.5h.7v-21h-.7v21Z" class="g1_1855"/>
<path d="M577,285.5H690.3V264.8H577v20.7Z" class="g0_1855"/>
<path d="M577,265.2H690.7v-.7H577v.7Z" class="g1_1855"/>
<path d="M690,285.8h.7v-21H690v21Z" class="g1_1855"/>
<path d="M576.6,285.8H690.3v-.7H576.6v.7Z" class="g1_1855"/>
<path d="M576.6,285.5h.7v-21h-.7v21Z" class="g1_1855"/>
<path fill-rule="evenodd" d="M638.8,343h.3l.3,-.1c1.4,-.7,1.2,-2.4,-.3,-2.9h-.6c-1.5,.5,-1.7,2.2,-.3,2.9l.3,.1h.3Z" class="g1_1855"/>
<path d="M638.8,341.5h7.5l-.2,1.1l-6.5,22.9l-.8,2.5l-.7,-2.5l-6.6,-22.9l-.3,-1.1h1l.8,.6l6.6,22.9l-1.5,.5V365l6.5,-22.9l1.5,.5l-.8,.5h-6.5Z" class="g1_1855"/>
<path d="M632.2,343.1h6.6v-1.6h-6.6v1.6Z" class="g1_1855"/>
<path fill-rule="evenodd" d="M638.8,342.3h6.5l-6.5,22.9l-6.6,-22.9Z" class="g1_1855"/>
<path d="M637.4,341.5h3V285.4h-3v56.1Z" class="g1_1855"/>
<path d="M298.5,328.3H411.9v-3.1H298.5v3.1Z" class="g1_1855"/>
<path d="M525.3,328.3H638.8v-3.1H525.3v3.1Z" class="g1_1855"/>
<path d="M236.6,331.8H350V311.2H236.6v20.6Z" class="g0_1855"/>
<path d="M236.6,311.6H350.4v-.8H236.6v.8Z" class="g1_1855"/>
<path d="M349.6,332.2h.7v-21h-.7v21Z" class="g1_1855"/>
<path d="M236.2,332.2H350v-.7H236.2v.7Z" class="g1_1855"/>
<path d="M236.2,331.8h.8v-21h-.8v21Z" class="g1_1855"/>
<path d="M350,331.8H463.5V311.2H350v20.6Z" class="g0_1855"/>
<path d="M350,311.6H463.8v-.8H350v.8Z" class="g1_1855"/>
<path d="M463.1,332.2h.7v-21h-.7v21Z" class="g1_1855"/>
<path d="M349.6,332.2H463.5v-.7H349.6v.7Z" class="g1_1855"/>
<path d="M349.6,331.8h.7v-21h-.7v21Z" class="g1_1855"/>
<path d="M463.5,331.8H576.9V311.2H463.5v20.6Z" class="g0_1855"/>
<path d="M463.5,311.6H577.3v-.8H463.5v.8Z" class="g1_1855"/>
<path d="M576.6,332.2h.7v-21h-.7v21Z" class="g1_1855"/>
<path d="M463.1,332.2H576.9v-.7H463.1v.7Z" class="g1_1855"/>
<path d="M463.1,331.8h.7v-21h-.7v21Z" class="g1_1855"/>
<path d="M577,331.8H690.3V311.2H577v20.6Z" class="g0_1855"/>
<path d="M577,311.6H690.7v-.8H577v.8Z" class="g1_1855"/>
<path d="M690,332.2h.7v-21H690v21Z" class="g1_1855"/>
<path d="M576.6,332.2H690.3v-.7H576.6v.7Z" class="g1_1855"/>
<path d="M576.6,331.8h.7v-21h-.7v21Z" class="g1_1855"/>
<path fill-rule="evenodd" d="M618.4,353.7l.1,-.2l.1,-.3c.2,-1.6,-1.4,-2.4,-2.6,-1.5l-.2,.3l-.3,.8v.3l.1,.3l.4,.5l.2,.2l.3,.2l.2,.1h.7l.3,-.1l.2,-.2l.2,-.2l.3,-.2Z" class="g1_1855"/>
<path d="M617.1,352.8l3.8,-5.4l.6,-.8l.6,.8l15.1,18.5l1.6,2.1l-2.4,-.9l-22.6,-7.7l-1,-.3l.5,-.9l1,-.2l22.5,7.7l-.4,1.4l-.4,-.3L621,348.3l1.1,-.9v.9l-3.7,5.4Z" class="g1_1855"/>
<path d="M613.3,358.2l3.8,-5.4l1.3,.9l-3.8,5.4Z" class="g1_1855"/>
<path fill-rule="evenodd" d="M617.7,353.3l3.8,-5.4l15,18.5L614,358.7Z" class="g1_1855"/>
<path d="M521.1,284.3l-1.7,2.4l96.9,67.4l1.7,-2.5Z" class="g1_1855"/>
<path fill-rule="evenodd" d="M549,360.1l.1,.2l.2,.3c.9,1.1,2.8,.4,2.6,-1.2l-.1,-.2l-.1,-.4c-.9,-1.2,-2.6,-.9,-2.8,.7v.3l.1,.3Z" class="g1_1855"/>
<path d="M550.5,359.5l2,6.3l.2,1h-1L528,367.9l-2.7,.1l2.2,-1.6L547.2,353l.8,-.5l.3,.9l-.3,.9l-19.6,13.4l-.9,-1.3l.4,-.1l23.7,-1l.1,1.5l-.8,-.5l-2,-6.2Z" class="g1_1855"/>
<path d="M548.4,353.4l2.1,6.1l-1.6,.6l-2.1,-6.2Z" class="g1_1855"/>
<path fill-rule="evenodd" d="M549.7,359.8l2,6.2L528,367l19.6,-13.4Z" class="g1_1855"/>
<path d="M634.1,333.3l-1,-2.8L550,358.2l.9,2.9Z" class="g1_1855"/>
<path fill-rule="evenodd" d="M293.3,343h.3l.3,-.1c1.4,-.7,1.2,-2.4,-.3,-2.9H293c-1.5,.5,-1.7,2.2,-.3,2.9l.3,.1h.3Z" class="g1_1855"/>
<path d="M293.3,341.5h7.5l-.2,1.1l-6.5,22.9l-.8,2.5l-.7,-2.5L286,342.6l-.3,-1.1h1l.8,.6l6.6,22.9l-1.5,.5V365l6.5,-22.9l1.5,.5l-.8,.5h-6.5Z" class="g1_1855"/>
<path d="M286.7,343.1h6.6v-1.6h-6.6v1.6Z" class="g1_1855"/>
<path fill-rule="evenodd" d="M293.3,342.3h6.5l-6.5,22.9l-6.6,-22.9Z" class="g1_1855"/>
<path d="M291.9,341.5h3v-9.7h-3v9.7Z" class="g1_1855"/>
<path fill-rule="evenodd" d="M386.3,353.7l.2,-.2l.1,-.3c.2,-1.6,-1.5,-2.4,-2.6,-1.5l-.2,.3l-.2,.3c-.5,1.4,1.1,2.7,2.2,1.8l.3,-.2l.2,-.2Z" class="g1_1855"/>
<path d="M385,352.8l3.8,-5.4l.6,-.8l.6,.8l15.1,18.5l1.6,2.1l-2.4,-.9l-22.6,-7.7l-1,-.3l.5,-.9l1,-.2l22.5,7.7l-.4,1.4l-.4,-.3l-15,-18.5l1.1,-.9v.9l-3.7,5.4Z" class="g1_1855"/>
<path d="M381.2,358.2l3.8,-5.4l1.3,.9l-3.8,5.4Z" class="g1_1855"/>
<path fill-rule="evenodd" d="M385.6,353.3l3.8,-5.4l15,18.5l-22.5,-7.7Z" class="g1_1855"/>
<path d="M289,284.3l-1.7,2.4l96.9,67.4l1.7,-2.5Z" class="g1_1855"/>
<path fill-rule="evenodd" d="M316.9,360.1l.2,.2l.2,.3c1,1.1,2.6,.3,2.6,-1.2l-.1,-.2l-.1,-.4c-1.1,-1.4,-2.9,-.7,-2.8,.7v.6Z" class="g1_1855"/>
<path d="M318.4,359.5l2.1,6.3l.2,1h-1l-23.8,1.1l-2.7,.1l2.2,-1.6L315.2,353l.8,-.5l.3,.9l-.3,.9l-19.7,13.4l-.9,-1.3l.4,-.1l23.8,-1l.1,1.5l-.8,-.5l-2.1,-6.2Z" class="g1_1855"/>
<path d="M316.3,353.4l2.1,6.1l-1.6,.6l-2,-6.2Z" class="g1_1855"/>
<path fill-rule="evenodd" d="M317.6,359.8l2.1,6.2l-23.8,1l19.7,-13.4Z" class="g1_1855"/>
<path d="M402.1,333.3l-1,-2.8l-83.2,27.7l.9,2.9Z" class="g1_1855"/>
<path fill-rule="evenodd" d="M406.7,343h.4l.3,-.1c1.4,-.7,1.2,-2.4,-.3,-2.9h-.6l-.3,.1l-.6,.4l-.2,.1l-.1,.6v.6l.1,.3v.3l.2,.2l.6,.3l.3,.1h.2Z" class="g1_1855"/>
<path d="M406.7,341.5h7.6l-.2,1.1l-6.6,22.9l-.8,2.5l-.7,-2.5l-6.5,-22.9l-.3,-1.1h1l.8,.6l6.5,22.9l-1.5,.5V365l6.6,-22.9l1.5,.5l-.8,.5h-6.6Z" class="g1_1855"/>
<path d="M400.2,343.1h6.5v-1.6h-6.5v1.6Z" class="g1_1855"/>
<path fill-rule="evenodd" d="M406.7,342.3h6.6l-6.6,22.9l-6.5,-22.9Z" class="g1_1855"/>
<path d="M405.3,341.5h3V285.4h-3v56.1Z" class="g1_1855"/>
</svg>