<?xml version="1.0" encoding="UTF-8" standalone="no"?>
<!DOCTYPE svg PUBLIC "-//W3C//DTD SVG 1.1//EN"
"http://www.w3.org/Graphics/SVG/1.1/DTD/svg11.dtd">
<svg viewBox="0 0 935 1210" version="1.1" xmlns="http://www.w3.org/2000/svg" xmlns:xlink="http://www.w3.org/1999/xlink">
<defs>
<style type="text/css"><![CDATA[
.g0_134{
fill: #FFF;
}
.g1_134{
fill: #000;
}
]]></style>
</defs>
<path d="M68.8,1149.3H852.5v-21.2H68.8v21.2Z" class="g0_134"/>
<path d="M69,355H852V325.4H69V355Z" class="g0_134"/>
<path d="M70,348.3h53.5V336H70v12.3Z" class="g0_134"/>
<path d="M68.7,325.1h.7V131.8h-.7V325.1Z" class="g1_134"/>
<path d="M156.7,325.8h.7V131h-.7V325.8Z" class="g1_134"/>
<path d="M851.7,325.1h.7V131.8h-.7V325.1Z" class="g1_134"/>
<path d="M68.7,131.7H852.4V131H68.7v.7Z" class="g1_134"/>
<path d="M68.7,176.1H852.4v-.7H68.7v.7Z" class="g1_134"/>
<path d="M68.7,205.1H852.4v-.8H68.7v.8Z" class="g1_134"/>
<path d="M68.7,234.1H852.4v-.7H68.7v.7Z" class="g1_134"/>
<path d="M68.7,279.9H852.4v-.7H68.7v.7Z" class="g1_134"/>
<path d="M68.7,325.8H852.4v-.7H68.7v.7Z" class="g1_134"/>
<path d="M69.9,984.1h.7V450.2h-.7V984.1Z" class="g1_134"/>
<path d="M157.9,984.9h.7V449.3h-.7V984.9Z" class="g1_134"/>
<path d="M850.6,984.1h.7V450.2h-.7V984.1Z" class="g1_134"/>
<path d="M69.9,450.1H851.3v-.8H69.9v.8Z" class="g1_134"/>
<path d="M69.9,494.5H851.3v-.8H69.9v.8Z" class="g1_134"/>
<path d="M69.9,523.4H851.3v-.7H69.9v.7Z" class="g1_134"/>
<path d="M69.9,552.5H851.3v-.8H69.9v.8Z" class="g1_134"/>
<path d="M69.9,598.3H851.3v-.7H69.9v.7Z" class="g1_134"/>
<path d="M69.9,644.1H851.3v-.7H69.9v.7Z" class="g1_134"/>
<path d="M69.9,690H851.3v-.8H69.9v.8Z" class="g1_134"/>
<path d="M69.9,719H851.3v-.7H69.9v.7Z" class="g1_134"/>
<path d="M69.9,748.1H851.3v-.7H69.9v.7Z" class="g1_134"/>
<path d="M69.9,777.1H851.3v-.8H69.9v.8Z" class="g1_134"/>
<path d="M69.9,806.1H851.3v-.7H69.9v.7Z" class="g1_134"/>
<path d="M69.9,852H851.3v-.8H69.9v.8Z" class="g1_134"/>
<path d="M69.9,881H851.3v-.7H69.9v.7Z" class="g1_134"/>
<path d="M69.9,910H851.3v-.8H69.9v.8Z" class="g1_134"/>
<path d="M69.9,939H851.3v-.7H69.9v.7Z" class="g1_134"/>
<path d="M69.9,984.9H851.3v-.8H69.9v.8Z" class="g1_134"/>
</svg>