<?xml version="1.0" encoding="UTF-8" standalone="no"?>
<!DOCTYPE svg PUBLIC "-//W3C//DTD SVG 1.1//EN"
"http://www.w3.org/Graphics/SVG/1.1/DTD/svg11.dtd">
<svg viewBox="0 0 935 1210" version="1.1" xmlns="http://www.w3.org/2000/svg" xmlns:xlink="http://www.w3.org/1999/xlink">
<defs>
<style type="text/css"><![CDATA[
.g0_366{
fill: #FFF;
}
.g1_366{
fill: #000;
}
]]></style>
</defs>
<path d="M68.8,1149.3H852.5v-21.2H68.8v21.2Z" class="g0_366"/>
<path d="M170.5,555.8h.7V269.3h-.7V555.8Z" class="g1_366"/>
<path d="M749.8,555.8h.8V269.3h-.8V555.8Z" class="g1_366"/>
<path d="M170.5,269.2H750.7v-.7H170.5v.7Z" class="g1_366"/>
<path d="M170.5,556.5H750.7v-.7H170.5v.7Z" class="g1_366"/>
<path d="M252,297.7l-2.2,.2l-1.1,.3h.1l-1,.4l-.9,.4l-1,.6l.1,-.1l-.8,.6l-.8,.7l-.8,.9l-.6,.8l.1,-.1l-.5,.9l-.5,.9l-.4,1l-.2,1.1l-.1,1.1l-.1,1.1v-.1v40.8l.2,2.2v-.1l.2,1.1l.4,1v-.1l.5,.9l.5,.9H243l.6,.8l.8,.9v-.1l.8,.7l.8,.6h-.1l1,.6l.9,.5V359l1,.3h-.1l1.1,.3l2.2,.2h-.1H435.1l2.2,-.2h-.1l1.1,-.3l1,-.3l-.1,.1l.9,-.5l.4,.6l-1,.5l-1,.4h-.1l-1.1,.2l-2.2,.2H251.9l-2.2,-.2h-.1l-1.1,-.2l-1,-.4h-.1l-.9,-.5l-.9,-.5v-.1c-1.7,-1.2,-2.7,-2.2,-3.7,-4l-.4,-1h-.1l-.4,-1l-.3,-1.2l-.1,-1l-.1,-1.2V308.4l.1,-1.1l.1,-1.1v-.1L241,305l.4,-1l.1,-.1l.4,-.9c1.5,-2.8,4.7,-5.3,7.8,-5.8l2.2,-.2Z" class="g1_366"/>
<path d="M440.1,358.6l.9,-.6l.8,-.6l.9,-.7l-.1,.1l.7,-.9l.6,-.8l.6,-.9l.4,-.9v.1l.3,-1l.3,-1.1v.1l.2,-2.2V308.4v.1l-.1,-1.1l-.1,-1.1l-.3,-1.1l-.3,-1l-.4,-.9l-.6,-.9v.1l-.6,-.8l-.7,-.9h.1l-.9,-.7l-.8,-.6v.1l-.9,-.6l-.9,-.4h.1l-1,-.4l-1.1,-.3h.1l-2.2,-.2H251.9h.1l-.1,-.7H435.1l2.2,.2l1.1,.3h.1l1,.3v.1l1,.5c1.8,.9,2.7,2,4,3.6h.1l.5,1l.5,.9v.1l.4,1l.2,1.1v.1l.1,1.1l.1,1.1v40.8l-.1,1.1l-.1,1.1c-.5,3,-2.3,5.5,-4.7,7.2l-.1,.1l-.9,.5Z" class="g1_366"/>
<path d="M474.7,502.2h2.2v-.4h-2.2v.4Z" class="g1_366"/>
<path d="M476.3,502.3l-1.4,-2.4l-1,-1.6l1.9,.5l8.2,2.4l2.6,.8l-2.6,.7l-8.2,2.3l-1.9,.5l1,-1.6l.5,-.4l8.1,-2.3l.5,1.5h-.5l-8.1,-2.4l.4,-1.5l.5,.4l1.4,2.4Z" class="g1_366"/>
<path d="M474.9,503.9l1.4,-2.3h1.4l.2,.5l-.2,.3l-1.4,2.3Z" class="g1_366"/>
<path fill-rule="evenodd" d="M476.9,502l-1.3,-2.4l8.1,2.4l-8.1,2.3Z" class="g1_366"/>
<path d="M419.6,502.2h.2v-.4h-.2v.4Z" class="g1_366"/>
<path d="M419.8,502.2h55.1v-.4H419.8v.4Z" class="g1_366"/>
<path d="M248.6,479.2l-2.2,.2l-1,.3h.1l-1,.4l-1,.5l-1,.6l-.8,.5l.1,-.1l-.8,.8l-1.3,1.6l.1,-.1l-.5,.9l-.5,.9l-.4,1.1v-.1l-.2,1.1l-.2,1.1l-.1,1.1v-.1V527l.1,1.1l.2,1.1v-.1l.2,1.1l.4,1v-.1l.5,.9l.5,.9h-.1l1.3,1.7v-.1l.8,.7l.8,.7h-.1l1,.5l1,.5v-.1l1,.4h-.1l1,.2l2.2,.2h-.1H404.7l2.2,-.2h-.1l1,-.2l1,-.4v.1l1,-.5l.3,.7l-1,.4l-1,.4H408l-1,.3l-2.2,.2H248.5c-2.4,-.2,-3,-.2,-5.3,-1.3h-.1l-.9,-.6v-.1c-1.7,-1.2,-2.6,-2.1,-3.6,-4l-.4,-.9h-.1l-.4,-1v-.1l-.3,-1.1l-.2,-1.1l-.1,-1.1V489.9l.1,-1.1l.2,-1.1v-.1l.3,-1.1l.4,-1l.1,-.1l.4,-.9l.6,-1l1.2,-1.6l.1,-.1l.9,-.7l.8,-.6l.9,-.5l1,-.6l.1,-.1l1,-.3l1,-.3h.1l2.2,-.2Z" class="g1_366"/>
<path d="M409.8,536.4l.9,-.5l.8,-.7l.8,-.7l-.1,.1l1.3,-1.7l.6,-.9l.4,-.9l-.1,.1l.4,-1l.3,-1.1v.1l.2,-1.1V489.9v.1v-1.1l-.2,-1.1l-.3,-1.1v.1l-.4,-1.1h.1l-.4,-.9l-.6,-.9v.1l-1.3,-1.6h.1l-.8,-.8v.1l-.8,-.5l-.9,-.6l-1.1,-.5h.1l-1,-.4l-1,-.3h.1l-2.2,-.2H248.5h.1l-.1,-.7H404.8l2.2,.2l1,.3h.1l1,.3v.1l1,.6c2.5,1.4,2.3,1.3,4,3.5h.1l.5,1l.5,.9v.1l.3,1l.3,1.1v.1l.2,1.1l.1,1.1v37.2l-.1,1.1l-.2,1.1c-.4,2.7,-2.4,5.6,-4.7,7.1l-.1,.1l-.9,.6Z" class="g1_366"/>
<path d="M500.1,477.7l-1.2,.1l-1,.1l-1.1,.3h.1l-1,.4l-.9,.5l-.9,.5h.1l-.9,.6l-1.5,1.4l-.7,.8h.1l-.5,.9l-.5,1l-.3,1v-.1l-.3,1l-.2,1.1v-.1v39.4l.2,1.1v-.1l.3,1l.3,1l.5,1.1v-.1l.5,.9h-.1l.7,.8v-.1l1.5,1.5l.9,.6h-.1l.9,.6l.9,.4v-.1l1,.4h-.1l1.1,.3l1,.2h-.1H632.5l1.1,-.2h-.1l1.1,-.3l1,-.4l-.1,.1l.9,-.4l.4,.6l-.9,.5l-1,.3h-.1l-1.1,.3l-1.1,.2H498.8l-1,-.2h-.1l-1.1,-.3l-1,-.3h-.1l-.9,-.5l-.9,-.5l-.9,-.7l-1.6,-1.5l-.6,-.9v-.1l-.6,-.9l-.4,-1h-.1l-.4,-1v-.1l-.2,-1l-.2,-1.1V487.2l.2,-1.1V486l.2,-1l.4,-1h.1l.4,-1v-.1c.9,-1.5,1.5,-2.1,2.7,-3.3h.1l.9,-.6c1.3,-.8,2.6,-1.6,4.1,-1.8l1,-.2l1.2,-.1Z" class="g1_366"/>
<path d="M636.4,534.9l1,-.6l.8,-.6l.8,-.8h-.1l.7,-.7v.1l.7,-.8l.5,-.9v.1l.5,-1.1h-.1l.4,-1l.2,-1v.1l.1,-1.1l.1,-1.2V488.3v.1l-.1,-1.1l-.1,-1.1l-.2,-1v.1l-.4,-1h.1l-.5,-1l-.5,-.9l-.7,-.8l-.7,-.7h.1l-.8,-.7l-.8,-.7v.1l-1,-.5l-.9,-.5h.1l-1,-.4l-1.1,-.3h.1l-1.1,-.1l-1.1,-.1H500h.1l-.1,-.8H631.5l1.1,.1l1.1,.2l1.1,.3h.1l1,.4l.9,.5c1.5,.8,3.1,2.2,4,3.6h.1l.6,.9v.1l.4,1l.4,1l.3,1v.1l.2,2.2v37.2l-.1,1.2l-.1,1.1c-.8,3.3,-2.1,5,-4.8,7.1l-.1,.1l-.9,.5Z" class="g1_366"/>
<path d="M317.6,467.3h.5v-2.1h-.5v2.1Z" class="g1_366"/>
<path d="M317.5,466.7l2.4,-1.4l1.7,-1l-.6,1.9l-2.4,8.3l-.7,2.5l-.7,-2.5l-2.4,-8.3l-.6,-1.8l1.7,.9l.4,.5l2.3,8.2l-1.4,.5V474l2.4,-8.2l1.4,.4l-.4,.5l-2.3,1.3Z" class="g1_366"/>
<path d="M315.9,465.3l2.4,1.4V468l-.4,.2l-.4,-.2l-2.3,-1.3Z" class="g1_366"/>
<path fill-rule="evenodd" d="M317.9,467.3l2.4,-1.4l-2.4,8.3l-2.4,-8.3Z" class="g1_366"/>
<path d="M317.7,465.4h.5v-.2h-.5v.2Z" class="g1_366"/>
<path d="M317.7,465.2h.5V359.9h-.5V465.2Z" class="g1_366"/>
<path d="M688.9,504.3H691v-.4h-2.1v.4Z" class="g1_366"/>
<path d="M690.3,504.4l-1.2,-2.3L688,500.4l2,.6l8.1,2.3l2.5,.8l-2.5,.7l-8.1,2.4l-1.9,.5l1,-1.6l.4,-.4l8.2,-2.4l.4,1.5h-.4l-8.2,-2.4L690,501l.4,.3l1.3,2.4Z" class="g1_366"/>
<path d="M689.1,506.1l1.2,-2.4h1.4l.2,.4l-.2,.3l-1.3,2.4Z" class="g1_366"/>
<path fill-rule="evenodd" d="M691,504.1l-1.3,-2.4l8.2,2.4l-8.2,2.4Z" class="g1_366"/>
<path d="M644.2,504.3h.2v-.4h-.2v.4Z" class="g1_366"/>
<path d="M644.4,504.3h44.7v-.4H644.4v.4Z" class="g1_366"/>
</svg>