<?xml version="1.0" encoding="UTF-8" standalone="no"?>
<!DOCTYPE svg PUBLIC "-//W3C//DTD SVG 1.1//EN"
"http://www.w3.org/Graphics/SVG/1.1/DTD/svg11.dtd">
<svg viewBox="0 0 935 1210" version="1.1" xmlns="http://www.w3.org/2000/svg" xmlns:xlink="http://www.w3.org/1999/xlink">
<defs>
<style type="text/css"><![CDATA[
.g0_1547{
fill: #FFF;
}
.g1_1547{
fill: #000;
}
]]></style>
</defs>
<path d="M68.9,1149.3H755.2v-21.2H68.9v21.2Z" class="g0_1547"/>
<path d="M771.3,1149.3H855v-21.2H771.3v21.2Z" class="g0_1547"/>
<path d="M69.9,419.7h.8V147h-.8V419.7Z" class="g1_1547"/>
<path d="M308.4,420.6h.7V146.3h-.7V420.6Z" class="g1_1547"/>
<path d="M351.9,420.6h.7V146.3h-.7V420.6Z" class="g1_1547"/>
<path d="M426.4,420.6h.8V146.3h-.8V420.6Z" class="g1_1547"/>
<path d="M509.7,420.6h.7V146.3h-.7V420.6Z" class="g1_1547"/>
<path d="M854.4,419.7h.8V147h-.8V419.7Z" class="g1_1547"/>
<path d="M69.9,147H855.3v-.7H69.9v.7Z" class="g1_1547"/>
<path d="M69.9,200.5H855.3v-.8H69.9v.8Z" class="g1_1547"/>
<path d="M69.9,273.8H855.3v-.7H69.9v.7Z" class="g1_1547"/>
<path d="M69.9,347.1H855.3v-.7H69.9v.7Z" class="g1_1547"/>
<path d="M69.9,420.6H855.3v-.8H69.9v.8Z" class="g1_1547"/>
<path d="M69.9,523.7h.8V475.6h-.8v48.1Z" class="g1_1547"/>
<path d="M135.8,524.4h.7V474.7h-.7v49.7Z" class="g1_1547"/>
<path d="M236.5,524.4h.7V474.7h-.7v49.7Z" class="g1_1547"/>
<path d="M387.8,524.4h.8V474.7h-.8v49.7Z" class="g1_1547"/>
<path d="M545.8,524.4h.7V474.7h-.7v49.7Z" class="g1_1547"/>
<path d="M694.7,524.4h.8V474.7h-.8v49.7Z" class="g1_1547"/>
<path d="M847.4,523.7h.7V475.6h-.7v48.1Z" class="g1_1547"/>
<path d="M69.9,475.6H848.1v-.8H69.9v.8Z" class="g1_1547"/>
<path d="M69.9,499.9H848.1v-.7H69.9v.7Z" class="g1_1547"/>
<path d="M69.9,524.4H848.1v-.7H69.9v.7Z" class="g1_1547"/>
</svg>