<?xml version="1.0" encoding="UTF-8" standalone="no"?>
<!DOCTYPE svg PUBLIC "-//W3C//DTD SVG 1.1//EN"
"http://www.w3.org/Graphics/SVG/1.1/DTD/svg11.dtd">
<svg viewBox="0 0 935 1210" version="1.1" xmlns="http://www.w3.org/2000/svg" xmlns:xlink="http://www.w3.org/1999/xlink">
<defs>
<style type="text/css"><![CDATA[
.g0_241{
fill: #000;
}
]]></style>
</defs>
<path d="M108.3,381.2h.3V354.1h-.3v27.1Z" class="g0_241"/>
<path d="M130.7,381.6h.4V353.7h-.4v27.9Z" class="g0_241"/>
<path d="M198,381.6h.4V353.7H198v27.9Z" class="g0_241"/>
<path d="M287.8,381.6h.4V353.7h-.4v27.9Z" class="g0_241"/>
<path d="M377.6,381.6h.3V353.7h-.3v27.9Z" class="g0_241"/>
<path d="M467.3,381.6h.4V353.7h-.4v27.9Z" class="g0_241"/>
<path d="M557.1,381.6h.3V353.7h-.3v27.9Z" class="g0_241"/>
<path d="M646.8,381.6h.4V353.7h-.4v27.9Z" class="g0_241"/>
<path d="M736.6,381.6h.4V353.7h-.4v27.9Z" class="g0_241"/>
<path d="M826.4,381.2h.3V354.1h-.3v27.1Z" class="g0_241"/>
<path d="M108.3,354.1H826.7v-.4H108.3v.4Z" class="g0_241"/>
<path d="M108.3,381.6H826.7v-.4H108.3v.4Z" class="g0_241"/>
<path d="M109.6,909.3h.8v-448h-.8v448Z" class="g0_241"/>
<path d="M178.4,910.1h.7V487.9h-.7V910.1Z" class="g0_241"/>
<path d="M247.1,910.1h.8V460.4h-.8V910.1Z" class="g0_241"/>
<path d="M577.1,910.1h.8V460.4h-.8V910.1Z" class="g0_241"/>
<path d="M645.9,910.1h.7V460.4h-.7V910.1Z" class="g0_241"/>
<path d="M728.4,910.1h.7V460.4h-.7V910.1Z" class="g0_241"/>
<path d="M824.6,909.3h.8v-448h-.8v448Z" class="g0_241"/>
<path d="M109.6,461.2H825.4v-.8H109.6v.8Z" class="g0_241"/>
<path d="M109.6,488.7H247.9v-.8H109.6v.8Z" class="g0_241"/>
<path d="M110.4,514.3H824.6v-.7H110.4v.7Z" class="g0_241"/>
<path d="M110.4,518.1H824.6v-.7H110.4v.7Z" class="g0_241"/>
<path d="M109.6,591.1H825.4v-.8H109.6v.8Z" class="g0_241"/>
<path d="M109.6,649.2H825.4v-.7H109.6v.7Z" class="g0_241"/>
<path d="M109.6,910.1H825.4v-.8H109.6v.8Z" class="g0_241"/>
<path d="M302.3,892.1h.4V675.6h-.4V892.1Z" class="g0_241"/>
<path d="M412.3,892.5h.4V675.1h-.4V892.5Z" class="g0_241"/>
<path d="M522.3,892.1h.4V675.6h-.4V892.1Z" class="g0_241"/>
<path d="M302.3,675.6H522.7v-.4H302.3v.4Z" class="g0_241"/>
<path d="M302.7,699.1H522.3v-.8H302.7v.8Z" class="g0_241"/>
<path d="M302.7,701.3H522.3v-.7H302.7v.7Z" class="g0_241"/>
<path d="M302.3,721.4H522.7v-.3H302.3v.3Z" class="g0_241"/>
<path d="M302.3,742.8H522.7v-.4H302.3v.4Z" class="g0_241"/>
<path d="M302.3,764.1H522.7v-.3H302.3v.3Z" class="g0_241"/>
<path d="M302.3,785.6H522.7v-.4H302.3v.4Z" class="g0_241"/>
<path d="M302.3,806.9H522.7v-.3H302.3v.3Z" class="g0_241"/>
<path d="M302.3,828.3H522.7v-.4H302.3v.4Z" class="g0_241"/>
<path d="M302.3,849.8H522.7v-.4H302.3v.4Z" class="g0_241"/>
<path d="M302.3,871.1H522.7v-.4H302.3v.4Z" class="g0_241"/>
<path d="M302.3,892.5H522.7v-.4H302.3v.4Z" class="g0_241"/>
</svg>