<?xml version="1.0" encoding="UTF-8" standalone="no"?>
<!DOCTYPE svg PUBLIC "-//W3C//DTD SVG 1.1//EN"
"http://www.w3.org/Graphics/SVG/1.1/DTD/svg11.dtd">
<svg viewBox="0 0 935 1210" version="1.1" xmlns="http://www.w3.org/2000/svg" xmlns:xlink="http://www.w3.org/1999/xlink">
<defs>
<style type="text/css"><![CDATA[
.g0_1083{
fill: #FFF;
}
.g1_1083{
fill: #000;
}
]]></style>
</defs>
<path d="M68.9,1149.3H755.2v-21.2H68.9v21.2Z" class="g0_1083"/>
<path d="M771.3,1149.3H855v-21.2H771.3v21.2Z" class="g0_1083"/>
<path d="M69.9,244.1h.8V122.7h-.8V244.1Z" class="g1_1083"/>
<path d="M144.3,244.8h.7v-123h-.7v123Z" class="g1_1083"/>
<path d="M277.2,244.8h.7v-123h-.7v123Z" class="g1_1083"/>
<path d="M422.3,244.8h.7v-123h-.7v123Z" class="g1_1083"/>
<path d="M571.8,244.8h.8v-123h-.8v123Z" class="g1_1083"/>
<path d="M712.3,244.8h.8v-123h-.8v123Z" class="g1_1083"/>
<path d="M850.8,244.1h.7V122.7h-.7V244.1Z" class="g1_1083"/>
<path d="M69.9,122.6H851.5v-.8H69.9v.8Z" class="g1_1083"/>
<path d="M69.9,147H851.5v-.7H69.9v.7Z" class="g1_1083"/>
<path d="M69.9,171.5H851.5v-.7H69.9v.7Z" class="g1_1083"/>
<path d="M69.9,195.9H851.5v-.7H69.9v.7Z" class="g1_1083"/>
<path d="M69.9,220.4H851.5v-.8H69.9v.8Z" class="g1_1083"/>
<path d="M69.9,244.8H851.5v-.7H69.9v.7Z" class="g1_1083"/>
</svg>