<?xml version="1.0" encoding="UTF-8" standalone="no"?>
<!DOCTYPE svg PUBLIC "-//W3C//DTD SVG 1.1//EN"
"http://www.w3.org/Graphics/SVG/1.1/DTD/svg11.dtd">
<svg viewBox="0 0 935 1210" version="1.1" xmlns="http://www.w3.org/2000/svg" xmlns:xlink="http://www.w3.org/1999/xlink">
<defs>
<clipPath id="c0_1573"><path d="M97.3,59.2V41.4h72.1V59.2Z"/></clipPath>
<style type="text/css"><![CDATA[
.g0_1573{
fill: #000;
}
]]></style>
</defs>
<path d="M96.2,62.9v.3H838.7v-.3H96.2Z" class="g0_1573"/>
<path d="M96.2,1114.1h-.1v.4h.1v-.4Z" class="g0_1573"/>
<path d="M838.7,1114.1h.2v.4h-.2v-.4Z" class="g0_1573"/>
<path d="M96.2,1114.1v.4H838.7v-.4H96.2Z" class="g0_1573"/>
<image clip-path="url(#c0_1573)" preserveAspectRatio="none" x="97" y="41" width="72" height="18" xlink:href="img/1.jpg"/>
<path d="M96.6,916.6h-.7V1092h.7V916.6Z" class="g0_1573"/>
<path d="M244.8,913.6h-.7v179.1h.7V913.6Z" class="g0_1573"/>
<path d="M284.5,913.6h-.7v179.1h.7V913.6Z" class="g0_1573"/>
<path d="M338,913.6h-.8v179.1h.8V913.6Z" class="g0_1573"/>
<path d="M414.7,913.6H414v179.1h.7V913.6Z" class="g0_1573"/>
<path d="M846.1,916.6h-.8V1092h.8V916.6Z" class="g0_1573"/>
<path d="M95.9,913.6v3H846.1v-3H95.9Z" class="g0_1573"/>
<path d="M95.9,956.4v3.1H846.1v-3.1H95.9Z" class="g0_1573"/>
<path d="M95.9,1012.5v.8H846.1v-.8H95.9Z" class="g0_1573"/>
<path d="M95.9,1052.3v.7H846.1v-.7H95.9Z" class="g0_1573"/>
<path d="M95.9,1092v.7H846.1v-.7H95.9Z" class="g0_1573"/>
</svg>