<?xml version="1.0" encoding="UTF-8" standalone="no"?>
<!DOCTYPE svg PUBLIC "-//W3C//DTD SVG 1.1//EN"
"http://www.w3.org/Graphics/SVG/1.1/DTD/svg11.dtd">
<svg viewBox="0 0 935 1210" version="1.1" xmlns="http://www.w3.org/2000/svg" xmlns:xlink="http://www.w3.org/1999/xlink">
<defs>
<style type="text/css"><![CDATA[
.g0_777{
fill: #FFF;
}
.g1_777{
fill: #000;
}
]]></style>
</defs>
<path d="M68.9,1149.3H852.7v-21.2H68.9v21.2Z" class="g0_777"/>
<path d="M69.9,637.4h.8V458h-.8V637.4Z" class="g1_777"/>
<path d="M188.7,638.3h.8V457.2h-.8V638.3Z" class="g1_777"/>
<path d="M241.3,638.3h.7V457.2h-.7V638.3Z" class="g1_777"/>
<path d="M852.2,637.4h.8V458h-.8V637.4Z" class="g1_777"/>
<path d="M69.9,458H853v-.8H69.9v.8Z" class="g1_777"/>
<path d="M69.9,482.4H853v-.7H69.9v.7Z" class="g1_777"/>
<path d="M69.9,523.7H853V523H69.9v.7Z" class="g1_777"/>
<path d="M69.9,564.9H853v-.7H69.9v.7Z" class="g1_777"/>
<path d="M69.9,589.3H853v-.7H69.9v.7Z" class="g1_777"/>
<path d="M69.9,613.8H853v-.7H69.9v.7Z" class="g1_777"/>
<path d="M69.9,638.3H853v-.8H69.9v.8Z" class="g1_777"/>
<path d="M69.1,1088.2h.8V795.7h-.8v292.5Z" class="g1_777"/>
<path d="M150.4,1089h.8V794.8h-.8V1089Z" class="g1_777"/>
<path d="M373,1089h.7V794.8H373V1089Z" class="g1_777"/>
<path d="M439.2,1089h.7V794.8h-.7V1089Z" class="g1_777"/>
<path d="M852.9,1088.2h.7V795.7h-.7v292.5Z" class="g1_777"/>
<path d="M69.1,795.6H853.6v-.8H69.1v.8Z" class="g1_777"/>
<path d="M69.1,820H853.6v-.7H69.1v.7Z" class="g1_777"/>
<path d="M69.1,844.5H853.6v-.7H69.1v.7Z" class="g1_777"/>
<path d="M150.4,868.9H853.6v-.7H150.4v.7Z" class="g1_777"/>
<path d="M150.4,893.4H853.6v-.7H150.4v.7Z" class="g1_777"/>
<path d="M150.4,917.9H853.6v-.8H150.4v.8Z" class="g1_777"/>
<path d="M150.4,942.2H853.6v-.7H150.4v.7Z" class="g1_777"/>
<path d="M150.4,966.7H853.6V966H150.4v.7Z" class="g1_777"/>
<path d="M150.4,991.2H853.6v-.7H150.4v.7Z" class="g1_777"/>
<path d="M150.4,1015.6H853.6v-.8H150.4v.8Z" class="g1_777"/>
<path d="M150.4,1040.1H853.6v-.8H150.4v.8Z" class="g1_777"/>
<path d="M150.4,1064.5H853.6v-.7H150.4v.7Z" class="g1_777"/>
<path d="M69.1,1088.9H853.6v-.7H69.1v.7Z" class="g1_777"/>
</svg>