<?xml version="1.0" encoding="UTF-8" standalone="no"?>
<!DOCTYPE svg PUBLIC "-//W3C//DTD SVG 1.1//EN"
"http://www.w3.org/Graphics/SVG/1.1/DTD/svg11.dtd">
<svg viewBox="0 0 935 1210" version="1.1" xmlns="http://www.w3.org/2000/svg" xmlns:xlink="http://www.w3.org/1999/xlink">
<defs>
<style type="text/css"><![CDATA[
.g0_1739{
fill: #FFF;
}
.g1_1739{
fill: #000;
}
]]></style>
</defs>
<path d="M68.9,1149.3H755.2v-21.2H68.9v21.2Z" class="g0_1739"/>
<path d="M771.3,1149.3H855v-21.2H771.3v21.2Z" class="g0_1739"/>
<path d="M69.9,225.8h.8V125.7h-.8V225.8Z" class="g1_1739"/>
<path d="M219,226.5h.7V124.9H219V226.5Z" class="g1_1739"/>
<path d="M388,226.5h.8V124.9H388V226.5Z" class="g1_1739"/>
<path d="M425.9,226.5h.7V124.9h-.7V226.5Z" class="g1_1739"/>
<path d="M499.3,226.5h.7V124.9h-.7V226.5Z" class="g1_1739"/>
<path d="M570.6,226.5h.8V124.9h-.8V226.5Z" class="g1_1739"/>
<path d="M850.1,225.8h.7V125.7h-.7V225.8Z" class="g1_1739"/>
<path d="M69.9,125.7h781v-.8H69.9v.8Z" class="g1_1739"/>
<path d="M69.9,163.8h781v-.7H69.9v.7Z" class="g1_1739"/>
<path d="M69.9,186.7h781V186H69.9v.7Z" class="g1_1739"/>
<path d="M69.9,226.5h781v-.7H69.9v.7Z" class="g1_1739"/>
<path d="M69.9,329.6h.8V281.5h-.8v48.1Z" class="g1_1739"/>
<path d="M142.5,330.4h.8V280.8h-.8v49.6Z" class="g1_1739"/>
<path d="M320.1,330.4h.7V280.8h-.7v49.6Z" class="g1_1739"/>
<path d="M497.3,330.4h.7V280.8h-.7v49.6Z" class="g1_1739"/>
<path d="M676.2,330.4h.8V280.8h-.8v49.6Z" class="g1_1739"/>
<path d="M852.1,329.6h.8V281.5h-.8v48.1Z" class="g1_1739"/>
<path d="M69.9,281.5h783v-.7H69.9v.7Z" class="g1_1739"/>
<path d="M69.9,305.9h783v-.7H69.9v.7Z" class="g1_1739"/>
<path d="M69.9,330.4h783v-.8H69.9v.8Z" class="g1_1739"/>
</svg>