<?xml version="1.0" encoding="UTF-8" standalone="no"?>
<!DOCTYPE svg PUBLIC "-//W3C//DTD SVG 1.1//EN"
"http://www.w3.org/Graphics/SVG/1.1/DTD/svg11.dtd">
<svg viewBox="0 0 935 1210" version="1.1" xmlns="http://www.w3.org/2000/svg" xmlns:xlink="http://www.w3.org/1999/xlink">
<defs>
<style type="text/css"><![CDATA[
.g0_4315{
fill: #FFF;
}
.g1_4315{
fill: #000;
}
]]></style>
</defs>
<path d="M68.9,1149.3H852.7v-21.2H68.9v21.2Z" class="g0_4315"/>
<path d="M69.9,215.1h.8V125.7h-.8v89.4Z" class="g1_4315"/>
<path d="M255.2,215.8h.7V124.9h-.7v90.9Z" class="g1_4315"/>
<path d="M312.5,215.8h.7V124.9h-.7v90.9Z" class="g1_4315"/>
<path d="M386.9,215.8h.8V124.9h-.8v90.9Z" class="g1_4315"/>
<path d="M454.6,215.8h.7V124.9h-.7v90.9Z" class="g1_4315"/>
<path d="M852.6,215.1h.7V125.7h-.7v89.4Z" class="g1_4315"/>
<path d="M69.9,125.7H853.3v-.8H69.9v.8Z" class="g1_4315"/>
<path d="M69.9,179.1H853.3v-.7H69.9v.7Z" class="g1_4315"/>
<path d="M69.9,215.8H853.3v-.7H69.9v.7Z" class="g1_4315"/>
<path d="M70.3,318.9H71V270.8h-.7v48.1Z" class="g1_4315"/>
<path d="M170.8,319.7h.7V270.1h-.7v49.6Z" class="g1_4315"/>
<path d="M367.6,319.7h.7V270.1h-.7v49.6Z" class="g1_4315"/>
<path d="M593.6,319.7h.8V270.1h-.8v49.6Z" class="g1_4315"/>
<path d="M851.7,318.9h.7V270.8h-.7v48.1Z" class="g1_4315"/>
<path d="M70.3,270.8H852.4v-.7H70.3v.7Z" class="g1_4315"/>
<path d="M70.3,295.3H852.4v-.8H70.3v.8Z" class="g1_4315"/>
<path d="M70.3,319.6H852.4v-.7H70.3v.7Z" class="g1_4315"/>
<path d="M70.5,581.7h.7V516.8h-.7v64.9Z" class="g1_4315"/>
<path d="M224.1,582.4h.8V516h-.8v66.4Z" class="g1_4315"/>
<path d="M393.8,582.4h.7V516h-.7v66.4Z" class="g1_4315"/>
<path d="M545.4,582.4h.8V516h-.8v66.4Z" class="g1_4315"/>
<path d="M698.6,582.4h.7V516h-.7v66.4Z" class="g1_4315"/>
<path d="M851.5,581.7h.7V516.8h-.7v64.9Z" class="g1_4315"/>
<path d="M70.5,516.8H852.2v-.7H70.5v.7Z" class="g1_4315"/>
<path d="M70.5,541.2H852.2v-.7H70.5v.7Z" class="g1_4315"/>
<path d="M70.5,582.4H852.2v-.7H70.5v.7Z" class="g1_4315"/>
<path d="M70.8,804.8h.7V666.5h-.7V804.8Z" class="g1_4315"/>
<path d="M377.6,805.6h.7V665.8h-.7V805.6Z" class="g1_4315"/>
<path d="M851.2,804.8h.7V666.5h-.7V804.8Z" class="g1_4315"/>
<path d="M70.8,666.5H852v-.7H70.8v.7Z" class="g1_4315"/>
<path d="M70.8,691H852v-.8H70.8v.8Z" class="g1_4315"/>
<path d="M70.8,715.4H852v-.8H70.8v.8Z" class="g1_4315"/>
<path d="M70.8,739.8H852v-.7H70.8v.7Z" class="g1_4315"/>
<path d="M70.8,781.1H852v-.7H70.8v.7Z" class="g1_4315"/>
<path d="M70.8,805.6H852v-.8H70.8v.8Z" class="g1_4315"/>
<path d="M71,974.4h.8V883.5H71v90.9Z" class="g1_4315"/>
<path d="M170.2,975.2h.8V882.8h-.8v92.4Z" class="g1_4315"/>
<path d="M394.2,975.2h.7V882.8h-.7v92.4Z" class="g1_4315"/>
<path d="M498.8,975.2h.7V905.7h-.7v69.5Z" class="g1_4315"/>
<path d="M613.2,975.2h.7V905.7h-.7v69.5Z" class="g1_4315"/>
<path d="M850.9,974.4h.8V883.5h-.8v90.9Z" class="g1_4315"/>
<path d="M71,883.5H851.7v-.8H71v.8Z" class="g1_4315"/>
<path d="M394.2,906.4H851.7v-.7H394.2v.7Z" class="g1_4315"/>
<path d="M71,929.3H851.7v-.7H71v.7Z" class="g1_4315"/>
<path d="M170.1,952.2H851.7v-.7H170.1v.7Z" class="g1_4315"/>
<path d="M71,975.2H851.7v-.8H71v.8Z" class="g1_4315"/>
</svg>