<?xml version="1.0" encoding="UTF-8" standalone="no"?>
<!DOCTYPE svg PUBLIC "-//W3C//DTD SVG 1.1//EN"
"http://www.w3.org/Graphics/SVG/1.1/DTD/svg11.dtd">
<svg viewBox="0 0 935 1210" version="1.1" xmlns="http://www.w3.org/2000/svg" xmlns:xlink="http://www.w3.org/1999/xlink">
<defs>
<style type="text/css"><![CDATA[
.g0_272{
fill: #B3B3B3;
}
.g1_272{
fill: #E6E6E6;
}
.g2_272{
fill: #000;
}
]]></style>
</defs>
<path d="M82.5,96.3h770V55H82.5V96.3Z" class="g0_272"/>
<path d="M526.6,226.8h24.2V207H526.6v19.8Z" class="g1_272"/>
<path d="M550.8,226.8H575V207H550.8v19.8Z" class="g1_272"/>
<path d="M575,226.8h26.2V207H575v19.8Z" class="g1_272"/>
<path d="M601.2,226.8h26.1V207H601.2v19.8Z" class="g1_272"/>
<path d="M627.3,226.8h26.1V207H627.3v19.8Z" class="g1_272"/>
<path d="M653.4,226.8h26.1V207H653.4v19.8Z" class="g1_272"/>
<path d="M679.5,226.8h24.2V207H679.5v19.8Z" class="g1_272"/>
<path d="M703.7,226.8h24.2V207H703.7v19.8Z" class="g1_272"/>
<path d="M550.8,308.2H575V288.4H550.8v19.8Z" class="g1_272"/>
<path d="M575,308.2h26.2V288.4H575v19.8Z" class="g1_272"/>
<path d="M601.2,308.2h26.1V288.4H601.2v19.8Z" class="g1_272"/>
<path d="M627.3,308.2h26.1V288.4H627.3v19.8Z" class="g1_272"/>
<path d="M653.4,308.2h26.1V288.4H653.4v19.8Z" class="g1_272"/>
<path d="M679.5,308.2h24.2V288.4H679.5v19.8Z" class="g1_272"/>
<path d="M703.7,308.2h24.2V288.4H703.7v19.8Z" class="g1_272"/>
<path d="M417.4,328.1h29.3V308.2H417.4v19.9Z" class="g1_272"/>
<path d="M575,328.1h26.2V308.2H575v19.9Z" class="g1_272"/>
<path d="M601.2,328.1h26.1V308.2H601.2v19.9Z" class="g1_272"/>
<path d="M627.3,328.1h26.1V308.2H627.3v19.9Z" class="g1_272"/>
<path d="M653.4,328.1h26.1V308.2H653.4v19.9Z" class="g1_272"/>
<path d="M679.5,328.1h24.2V308.2H679.5v19.9Z" class="g1_272"/>
<path d="M703.7,328.1h24.2V308.2H703.7v19.9Z" class="g1_272"/>
<path d="M388.1,348h29.3V328.1H388.1V348Z" class="g1_272"/>
<path d="M417.4,348h29.3V328.1H417.4V348Z" class="g1_272"/>
<path d="M601.2,348h26.1V328.1H601.2V348Z" class="g1_272"/>
<path d="M627.3,348h26.1V328.1H627.3V348Z" class="g1_272"/>
<path d="M653.4,348h26.1V328.1H653.4V348Z" class="g1_272"/>
<path d="M679.5,348h24.2V328.1H679.5V348Z" class="g1_272"/>
<path d="M703.7,348h24.2V328.1H703.7V348Z" class="g1_272"/>
<path d="M358.8,367.8h29.3V348H358.8v19.8Z" class="g1_272"/>
<path d="M388.1,367.8h29.3V348H388.1v19.8Z" class="g1_272"/>
<path d="M417.4,367.8h29.3V348H417.4v19.8Z" class="g1_272"/>
<path d="M627.3,367.8h26.1V348H627.3v19.8Z" class="g1_272"/>
<path d="M653.4,367.8h26.1V348H653.4v19.8Z" class="g1_272"/>
<path d="M679.5,367.8h24.2V348H679.5v19.8Z" class="g1_272"/>
<path d="M703.7,367.8h24.2V348H703.7v19.8Z" class="g1_272"/>
<path d="M329.5,387.7h29.3V367.8H329.5v19.9Z" class="g1_272"/>
<path d="M358.8,387.7h29.3V367.8H358.8v19.9Z" class="g1_272"/>
<path d="M388.1,387.7h29.3V367.8H388.1v19.9Z" class="g1_272"/>
<path d="M417.4,387.7h29.3V367.8H417.4v19.9Z" class="g1_272"/>
<path d="M653.4,387.7h26.1V367.8H653.4v19.9Z" class="g1_272"/>
<path d="M679.5,387.7h24.2V367.8H679.5v19.9Z" class="g1_272"/>
<path d="M703.7,387.7h24.2V367.8H703.7v19.9Z" class="g1_272"/>
<path d="M300.1,407.6h29.4V387.7H300.1v19.9Z" class="g1_272"/>
<path d="M329.5,407.6h29.3V387.7H329.5v19.9Z" class="g1_272"/>
<path d="M358.8,407.6h29.3V387.7H358.8v19.9Z" class="g1_272"/>
<path d="M388.1,407.6h29.3V387.7H388.1v19.9Z" class="g1_272"/>
<path d="M417.4,407.6h29.3V387.7H417.4v19.9Z" class="g1_272"/>
<path d="M679.5,407.6h24.2V387.7H679.5v19.9Z" class="g1_272"/>
<path d="M703.7,407.6h24.2V387.7H703.7v19.9Z" class="g1_272"/>
<path d="M270.9,427.3h29.2V407.5H270.9v19.8Z" class="g1_272"/>
<path d="M300.1,427.3h29.4V407.5H300.1v19.8Z" class="g1_272"/>
<path d="M329.5,427.3h29.3V407.5H329.5v19.8Z" class="g1_272"/>
<path d="M358.8,427.3h29.3V407.5H358.8v19.8Z" class="g1_272"/>
<path d="M388.1,427.3h29.3V407.5H388.1v19.8Z" class="g1_272"/>
<path d="M417.4,427.3h29.3V407.5H417.4v19.8Z" class="g1_272"/>
<path d="M703.7,427.3h24.2V407.5H703.7v19.8Z" class="g1_272"/>
<path d="M241.5,447.2h29.4V427.3H241.5v19.9Z" class="g1_272"/>
<path d="M270.9,447.2h29.2V427.3H270.9v19.9Z" class="g1_272"/>
<path d="M300.1,447.2h29.4V427.3H300.1v19.9Z" class="g1_272"/>
<path d="M329.5,447.2h29.3V427.3H329.5v19.9Z" class="g1_272"/>
<path d="M358.8,447.2h29.3V427.3H358.8v19.9Z" class="g1_272"/>
<path d="M388.1,447.2h29.3V427.3H388.1v19.9Z" class="g1_272"/>
<path d="M417.4,447.2h29.3V427.3H417.4v19.9Z" class="g1_272"/>
<path d="M182.5,466.8h.7v-319h-.7v319Z" class="g2_272"/>
<path d="M211.8,226.6h.8V207.2h-.8v19.4Z" class="g2_272"/>
<path d="M211.8,447.1h.8V288.6h-.8V447.1Z" class="g2_272"/>
<path d="M241.2,227h.7V206.7h-.7V227Z" class="g2_272"/>
<path d="M241.2,447.4h.7V427.2h-.7v20.2Z" class="g2_272"/>
<path d="M270.5,227h.7V206.7h-.7V227Z" class="g2_272"/>
<path d="M270.5,427.5h.7V407.4h-.7v20.1Z" class="g2_272"/>
<path d="M299.7,227h.8V206.7h-.8V227Z" class="g2_272"/>
<path d="M299.7,407.7h.8V387.5h-.8v20.2Z" class="g2_272"/>
<path d="M329.1,227h.7V206.7h-.7V227Z" class="g2_272"/>
<path d="M329.1,387.8h.7V367.6h-.7v20.2Z" class="g2_272"/>
<path d="M358.4,227h.8V206.7h-.8V227Z" class="g2_272"/>
<path d="M358.4,368h.8V347.8h-.8V368Z" class="g2_272"/>
<path d="M387.8,227h.7V206.7h-.7V227Z" class="g2_272"/>
<path d="M387.8,348.2h.7V327.9h-.7v20.3Z" class="g2_272"/>
<path d="M417,227h.7V206.7H417V227Z" class="g2_272"/>
<path d="M417,328.3h.7V308H417v20.3Z" class="g2_272"/>
<path d="M446.3,226.6h.8V207.2h-.8v19.4Z" class="g2_272"/>
<path d="M446.3,447.1h.8V288.6h-.8V447.1Z" class="g2_272"/>
<path d="M526.3,226.6h.7V207.2h-.7v19.4Z" class="g2_272"/>
<path d="M526.3,447.1h.7V288.6h-.7V447.1Z" class="g2_272"/>
<path d="M550.5,227h.7V206.7h-.7V227Z" class="g2_272"/>
<path d="M550.5,308.4h.7V288.2h-.7v20.2Z" class="g2_272"/>
<path d="M574.7,227h.7V206.7h-.7V227Z" class="g2_272"/>
<path d="M574.7,328.3h.7V308h-.7v20.3Z" class="g2_272"/>
<path d="M600.8,227h.7V206.7h-.7V227Z" class="g2_272"/>
<path d="M600.8,348.2h.7V327.9h-.7v20.3Z" class="g2_272"/>
<path d="M626.9,227h.7V206.7h-.7V227Z" class="g2_272"/>
<path d="M626.9,368h.7V347.8h-.7V368Z" class="g2_272"/>
<path d="M653,227h.8V206.7H653V227Z" class="g2_272"/>
<path d="M653,387.8h.8V367.6H653v20.2Z" class="g2_272"/>
<path d="M679.2,227h.7V206.7h-.7V227Z" class="g2_272"/>
<path d="M679.2,407.7h.7V387.5h-.7v20.2Z" class="g2_272"/>
<path d="M703.4,227h.7V206.7h-.7V227Z" class="g2_272"/>
<path d="M703.4,427.5h.7V407.4h-.7v20.1Z" class="g2_272"/>
<path d="M727.6,226.6h.7V207.2h-.7v19.4Z" class="g2_272"/>
<path d="M727.6,447.1h.7V288.6h-.7V447.1Z" class="g2_272"/>
<path d="M751.8,466.8h.7v-319h-.7v319Z" class="g2_272"/>
<path d="M182.5,147.8h570V147h-570v.8Z" class="g2_272"/>
<path d="M211.8,207.2H447.1v-.4H211.8v.4Z" class="g2_272"/>
<path d="M526.3,207.2h202v-.4h-202v.4Z" class="g2_272"/>
<path d="M211.8,227H447.1v-.4H211.8v.4Z" class="g2_272"/>
<path d="M526.3,227h202v-.4h-202v.4Z" class="g2_272"/>
<path d="M182.5,246.9h570v-.4h-570v.4Z" class="g2_272"/>
<path d="M211.8,288.6H447.1v-.4H211.8v.4Z" class="g2_272"/>
<path d="M526.3,288.6h202v-.4h-202v.4Z" class="g2_272"/>
<path d="M211.8,308.4H447.1V308H211.8v.4Z" class="g2_272"/>
<path d="M526.3,308.4h202V308h-202v.4Z" class="g2_272"/>
<path d="M211.8,328.3H447.1v-.4H211.8v.4Z" class="g2_272"/>
<path d="M526.3,328.3h202v-.4h-202v.4Z" class="g2_272"/>
<path d="M211.8,348.2H447.1v-.4H211.8v.4Z" class="g2_272"/>
<path d="M526.3,348.2h202v-.4h-202v.4Z" class="g2_272"/>
<path d="M211.8,368H447.1v-.4H211.8v.4Z" class="g2_272"/>
<path d="M526.3,368h202v-.4h-202v.4Z" class="g2_272"/>
<path d="M211.8,387.8H447.1v-.3H211.8v.3Z" class="g2_272"/>
<path d="M526.3,387.8h202v-.3h-202v.3Z" class="g2_272"/>
<path d="M211.8,407.7H447.1v-.3H211.8v.3Z" class="g2_272"/>
<path d="M526.3,407.7h202v-.3h-202v.3Z" class="g2_272"/>
<path d="M211.8,427.5H447.1v-.3H211.8v.3Z" class="g2_272"/>
<path d="M526.3,427.5h202v-.3h-202v.3Z" class="g2_272"/>
<path d="M211.8,447.4H447.1v-.3H211.8v.3Z" class="g2_272"/>
<path d="M526.3,447.4h202v-.3h-202v.3Z" class="g2_272"/>
<path d="M182.5,467.5h570v-.7h-570v.7Z" class="g2_272"/>
</svg>