<?xml version="1.0" encoding="UTF-8" standalone="no"?>
<!DOCTYPE svg PUBLIC "-//W3C//DTD SVG 1.1//EN"
"http://www.w3.org/Graphics/SVG/1.1/DTD/svg11.dtd">
<svg viewBox="0 0 935 1210" version="1.1" xmlns="http://www.w3.org/2000/svg" xmlns:xlink="http://www.w3.org/1999/xlink">
<defs>
<clipPath id="c0_2547"><path d="M97.3,59.2V41.4h72.1V59.2Z"/></clipPath>
<style type="text/css"><![CDATA[
.g0_2547{
fill: #000;
}
]]></style>
</defs>
<path d="M96.3,63.3H838.8v-.4H96.3v.4Z" class="g0_2547"/>
<path d="M96.1,1114.5h.2v-.4h-.2v.4Z" class="g0_2547"/>
<path d="M96.3,1114.5H838.9v-.4H96.3v.4Z" class="g0_2547"/>
<image clip-path="url(#c0_2547)" preserveAspectRatio="none" x="97" y="41" width="73" height="18" xlink:href="img/1.jpg"/>
<path d="M95.9,276.1h.7V171h-.7V276.1Z" class="g0_2547"/>
<path d="M137,238.7h.7V168H137v70.7Z" class="g0_2547"/>
<path d="M185.2,238.7h.7V168h-.7v70.7Z" class="g0_2547"/>
<path d="M231.1,238.7h.7V168h-.7v70.7Z" class="g0_2547"/>
<path d="M272.2,238.7h.7V168h-.7v70.7Z" class="g0_2547"/>
<path d="M317.6,238.7h.8V168h-.8v70.7Z" class="g0_2547"/>
<path d="M358.7,238.7h.7V168h-.7v70.7Z" class="g0_2547"/>
<path d="M399.8,238.7h.7V168h-.7v70.7Z" class="g0_2547"/>
<path d="M468.8,238.7h.7V168h-.7v70.7Z" class="g0_2547"/>
<path d="M509.9,238.7h.7V168h-.7v70.7Z" class="g0_2547"/>
<path d="M550.9,238.7h.8V168h-.8v70.7Z" class="g0_2547"/>
<path d="M592,238.7h.7V168H592v70.7Z" class="g0_2547"/>
<path d="M633,238.7h.8V168H633v70.7Z" class="g0_2547"/>
<path d="M674.1,238.7h.8V168h-.8v70.7Z" class="g0_2547"/>
<path d="M715.2,238.7h.7V168h-.7v70.7Z" class="g0_2547"/>
<path d="M756.3,238.7h.7V168h-.7v70.7Z" class="g0_2547"/>
<path d="M797.3,238.7h.7V168h-.7v70.7Z" class="g0_2547"/>
<path d="M838.4,276.1h.7V171h-.7V276.1Z" class="g0_2547"/>
<path d="M95.9,171.1H839.1v-3H95.9v3Z" class="g0_2547"/>
<path d="M95.9,194.1H839.1V191H95.9v3.1Z" class="g0_2547"/>
<path d="M95.9,215.8H839.1v-.7H95.9v.7Z" class="g0_2547"/>
<path d="M95.9,238.7H839.1V238H95.9v.7Z" class="g0_2547"/>
<path d="M95.9,276.9H839.1v-.7H95.9v.7Z" class="g0_2547"/>
<path d="M95.9,406h.7V317.8h-.7V406Z" class="g0_2547"/>
<path d="M139.5,385.4h.8V314.7h-.8v70.7Z" class="g0_2547"/>
<path d="M183.2,385.4h.8V314.7h-.8v70.7Z" class="g0_2547"/>
<path d="M226.9,385.4h.7V361.7h-.7v23.7Z" class="g0_2547"/>
<path d="M270.6,385.4h.7V314.7h-.7v70.7Z" class="g0_2547"/>
<path d="M314.2,385.4h.8V314.7h-.8v70.7Z" class="g0_2547"/>
<path d="M358,385.4h.7V314.7H358v70.7Z" class="g0_2547"/>
<path d="M401.6,385.4h.7V314.7h-.7v70.7Z" class="g0_2547"/>
<path d="M445.3,385.4h.8V314.7h-.8v70.7Z" class="g0_2547"/>
<path d="M489,385.4h.7V314.7H489v70.7Z" class="g0_2547"/>
<path d="M532.7,385.4h.7V314.7h-.7v70.7Z" class="g0_2547"/>
<path d="M576.3,385.4h.7V314.7h-.7v70.7Z" class="g0_2547"/>
<path d="M620,385.4h.8V314.7H620v70.7Z" class="g0_2547"/>
<path d="M663.7,385.4h.7V314.7h-.7v70.7Z" class="g0_2547"/>
<path d="M707.4,385.4h.7V314.7h-.7v70.7Z" class="g0_2547"/>
<path d="M751,385.4h.8V314.7H751v70.7Z" class="g0_2547"/>
<path d="M794.8,385.4h.7V314.7h-.7v70.7Z" class="g0_2547"/>
<path d="M838.4,406h.7V317.8h-.7V406Z" class="g0_2547"/>
<path d="M95.9,317.8H839.1v-3H95.9v3Z" class="g0_2547"/>
<path d="M95.9,340.7H839.1v-3H95.9v3Z" class="g0_2547"/>
<path d="M95.9,362.4H839.1v-.7H95.9v.7Z" class="g0_2547"/>
<path d="M95.9,385.4H839.1v-.8H95.9v.8Z" class="g0_2547"/>
<path d="M95.9,406.7H839.1V406H95.9v.7Z" class="g0_2547"/>
<path d="M95.9,966.7h.7V449.2h-.7V966.7Z" class="g0_2547"/>
<path d="M273.3,836.1h.8v-390h-.8v390Z" class="g0_2547"/>
<path d="M273.3,917h.8V856.7h-.8V917Z" class="g0_2547"/>
<path d="M310,836.1h.7V468.6H310V836.1Z" class="g0_2547"/>
<path d="M310,917h.7V856.7H310V917Z" class="g0_2547"/>
<path d="M346.7,836.1h.7V468.6h-.7V836.1Z" class="g0_2547"/>
<path d="M346.7,917h.7V856.7h-.7V917Z" class="g0_2547"/>
<path d="M383.4,836.1h.7v-390h-.7v390Z" class="g0_2547"/>
<path d="M383.4,917h.7V856.7h-.7V917Z" class="g0_2547"/>
<path d="M839.2,966.7h.7V449.2h-.7V966.7Z" class="g0_2547"/>
<path d="M95.9,449.2h744v-3.1H95.9v3.1Z" class="g0_2547"/>
<path d="M273.3,469.4H384.2v-.7H273.3v.7Z" class="g0_2547"/>
<path d="M95.9,492h744v-3.1H95.9V492Z" class="g0_2547"/>
<path d="M273.3,510.7H839.9v-.8H273.3v.8Z" class="g0_2547"/>
<path d="M273.3,530.5H839.9v-.8H273.3v.8Z" class="g0_2547"/>
<path d="M273.3,550.4H839.9v-.8H273.3v.8Z" class="g0_2547"/>
<path d="M273.3,570.3H839.9v-.8H273.3v.8Z" class="g0_2547"/>
<path d="M273.3,590.1H839.9v-.8H273.3v.8Z" class="g0_2547"/>
<path d="M273.3,609.9H839.9v-.7H273.3v.7Z" class="g0_2547"/>
<path d="M273.3,629.8H839.9v-.7H273.3v.7Z" class="g0_2547"/>
<path d="M273.3,649.6H839.9v-.7H273.3v.7Z" class="g0_2547"/>
<path d="M95.9,683.3h744v-.8H95.9v.8Z" class="g0_2547"/>
<path d="M95.9,703.2h744v-.8H95.9v.8Z" class="g0_2547"/>
<path d="M95.9,723h744v-.8H95.9v.8Z" class="g0_2547"/>
<path d="M273.3,742.9H839.9v-.8H273.3v.8Z" class="g0_2547"/>
<path d="M95.9,762.8h744V762H95.9v.8Z" class="g0_2547"/>
<path d="M95.9,782.6h744v-.8H95.9v.8Z" class="g0_2547"/>
<path d="M95.9,802.4h744v-.7H95.9v.7Z" class="g0_2547"/>
<path d="M95.9,836.1h744v-.7H95.9v.7Z" class="g0_2547"/>
<path d="M95.9,857.5h744v-.8H95.9v.8Z" class="g0_2547"/>
<path d="M273.3,877.3H839.9v-.7H273.3v.7Z" class="g0_2547"/>
<path d="M95.9,897.1h744v-.7H95.9v.7Z" class="g0_2547"/>
<path d="M95.9,917h744v-.7H95.9v.7Z" class="g0_2547"/>
<path d="M95.9,967.5h744v-.8H95.9v.8Z" class="g0_2547"/>
</svg>