<?xml version="1.0" encoding="UTF-8" standalone="no"?>
<!DOCTYPE svg PUBLIC "-//W3C//DTD SVG 1.1//EN"
"http://www.w3.org/Graphics/SVG/1.1/DTD/svg11.dtd">
<svg viewBox="0 0 935 1210" version="1.1" xmlns="http://www.w3.org/2000/svg" xmlns:xlink="http://www.w3.org/1999/xlink">
<defs>
<style type="text/css"><![CDATA[
.g0_1455{
fill: #FFF;
}
.g1_1455{
fill: #000;
}
]]></style>
</defs>
<path d="M68.9,1149.3H852.7v-21.2H68.9v21.2Z" class="g0_1455"/>
<path d="M71.6,271.6h.7V141h-.7V271.6Z" class="g1_1455"/>
<path d="M178.7,272.3h.7V140.2h-.7V272.3Z" class="g1_1455"/>
<path d="M285.2,272.3h.7V140.2h-.7V272.3Z" class="g1_1455"/>
<path d="M372.6,272.3h.8V202.9h-.8v69.4Z" class="g1_1455"/>
<path d="M468.1,272.3h.8V163.1h-.8V272.3Z" class="g1_1455"/>
<path d="M563.8,272.3h.7V202.9h-.7v69.4Z" class="g1_1455"/>
<path d="M659.3,272.3h.7V163.1h-.7V272.3Z" class="g1_1455"/>
<path d="M754.9,272.3h.7V202.9h-.7v69.4Z" class="g1_1455"/>
<path d="M850.4,271.6h.7V141h-.7V271.6Z" class="g1_1455"/>
<path d="M71.6,140.9H851.1v-.7H71.6v.7Z" class="g1_1455"/>
<path d="M285.2,163.8H851.1v-.7H285.2v.7Z" class="g1_1455"/>
<path d="M285.2,203.6H851.1v-.7H285.2v.7Z" class="g1_1455"/>
<path d="M71.6,226.5H851.1v-.7H71.6v.7Z" class="g1_1455"/>
<path d="M178.7,249.4H851.1v-.7H178.7v.7Z" class="g1_1455"/>
<path d="M71.6,272.3H851.1v-.7H71.6v.7Z" class="g1_1455"/>
<path d="M71.6,404.5h.7V356.4h-.7v48.1Z" class="g1_1455"/>
<path d="M229.2,405.3h.7V355.6h-.7v49.7Z" class="g1_1455"/>
<path d="M388.9,405.3h.8V355.6h-.8v49.7Z" class="g1_1455"/>
<path d="M471.3,405.3h.8V355.6h-.8v49.7Z" class="g1_1455"/>
<path d="M850.4,404.5h.7V356.4h-.7v48.1Z" class="g1_1455"/>
<path d="M71.6,356.3H851.1v-.7H71.6v.7Z" class="g1_1455"/>
<path d="M71.6,380.8H851.1v-.7H71.6v.7Z" class="g1_1455"/>
<path d="M71.6,405.3H851.1v-.8H71.6v.8Z" class="g1_1455"/>
<path d="M71.6,526.7h.7V454.1h-.7v72.6Z" class="g1_1455"/>
<path d="M275.8,527.4h.8v-74h-.8v74Z" class="g1_1455"/>
<path d="M377.9,527.4h.8v-74h-.8v74Z" class="g1_1455"/>
<path d="M850.4,526.7h.7V454.1h-.7v72.6Z" class="g1_1455"/>
<path d="M71.6,454.1H851.2v-.7H71.6v.7Z" class="g1_1455"/>
<path d="M71.6,478.6H851.2v-.7H71.6v.7Z" class="g1_1455"/>
<path d="M71.6,503.1H851.2v-.8H71.6v.8Z" class="g1_1455"/>
<path d="M71.6,527.4H851.2v-.7H71.6v.7Z" class="g1_1455"/>
</svg>