<?xml version="1.0" encoding="UTF-8" standalone="no"?>
<!DOCTYPE svg PUBLIC "-//W3C//DTD SVG 1.1//EN"
"http://www.w3.org/Graphics/SVG/1.1/DTD/svg11.dtd">
<svg viewBox="0 0 935 1210" version="1.1" xmlns="http://www.w3.org/2000/svg" xmlns:xlink="http://www.w3.org/1999/xlink">
<defs>
<style type="text/css"><![CDATA[
.g0_1774{
fill: #FFF;
}
.g1_1774{
fill: #000;
}
]]></style>
</defs>
<path d="M165,1149.3H852.5v-21.2H165v21.2Z" class="g0_1774"/>
<path d="M68.8,1149.3h82.5v-21.2H68.8v21.2Z" class="g0_1774"/>
<path d="M68.6,1099.6h.7V131.8h-.7v967.8Z" class="g1_1774"/>
<path d="M218.7,1100.5h.8V131h-.8v969.5Z" class="g1_1774"/>
<path d="M388.9,1100.5h.8V131h-.8v969.5Z" class="g1_1774"/>
<path d="M426.8,1100.5h.7V131h-.7v969.5Z" class="g1_1774"/>
<path d="M500.2,1100.5h.8V131h-.8v969.5Z" class="g1_1774"/>
<path d="M571.6,1100.5h.8V131h-.8v969.5Z" class="g1_1774"/>
<path d="M848.7,1099.6h.8V131.8h-.8v967.8Z" class="g1_1774"/>
<path d="M68.6,131.7H849.5V131H68.6v.7Z" class="g1_1774"/>
<path d="M68.6,169.9H849.5v-.7H68.6v.7Z" class="g1_1774"/>
<path d="M68.6,192.9H849.5v-.8H68.6v.8Z" class="g1_1774"/>
<path d="M68.6,215.8H849.5v-.7H68.6v.7Z" class="g1_1774"/>
<path d="M68.6,238.7H849.5V238H68.6v.7Z" class="g1_1774"/>
<path d="M68.6,278.4H849.5v-.7H68.6v.7Z" class="g1_1774"/>
<path d="M68.6,301.3H849.5v-.7H68.6v.7Z" class="g1_1774"/>
<path d="M68.6,324.2H849.5v-.7H68.6v.7Z" class="g1_1774"/>
<path d="M68.6,347.1H849.5v-.7H68.6v.7Z" class="g1_1774"/>
<path d="M68.6,370.1H849.5v-.8H68.6v.8Z" class="g1_1774"/>
<path d="M68.6,409.8H849.5v-.7H68.6v.7Z" class="g1_1774"/>
<path d="M68.6,432.8H849.5V432H68.6v.8Z" class="g1_1774"/>
<path d="M68.6,455.7H849.5v-.8H68.6v.8Z" class="g1_1774"/>
<path d="M68.6,478.6H849.5v-.7H68.6v.7Z" class="g1_1774"/>
<path d="M68.6,501.5H849.5v-.7H68.6v.7Z" class="g1_1774"/>
<path d="M68.6,541.2H849.5v-.7H68.6v.7Z" class="g1_1774"/>
<path d="M68.6,564.1H849.5v-.7H68.6v.7Z" class="g1_1774"/>
<path d="M68.6,587H849.5v-.7H68.6v.7Z" class="g1_1774"/>
<path d="M68.6,609.9H849.5v-.7H68.6v.7Z" class="g1_1774"/>
<path d="M68.6,632.9H849.5v-.8H68.6v.8Z" class="g1_1774"/>
<path d="M68.6,672.7H849.5v-.8H68.6v.8Z" class="g1_1774"/>
<path d="M68.6,695.6H849.5v-.8H68.6v.8Z" class="g1_1774"/>
<path d="M68.6,718.5H849.5v-.8H68.6v.8Z" class="g1_1774"/>
<path d="M68.6,741.4H849.5v-.7H68.6v.7Z" class="g1_1774"/>
<path d="M68.6,764.3H849.5v-.7H68.6v.7Z" class="g1_1774"/>
<path d="M68.6,787.2H849.5v-.7H68.6v.7Z" class="g1_1774"/>
<path d="M68.6,810.2H849.5v-.8H68.6v.8Z" class="g1_1774"/>
<path d="M68.6,849.8H849.5v-.7H68.6v.7Z" class="g1_1774"/>
<path d="M68.6,872.8H849.5V872H68.6v.8Z" class="g1_1774"/>
<path d="M68.6,912.5H849.5v-.8H68.6v.8Z" class="g1_1774"/>
<path d="M68.6,952.2H849.5v-.7H68.6v.7Z" class="g1_1774"/>
<path d="M68.6,991.9H849.5v-.7H68.6v.7Z" class="g1_1774"/>
<path d="M68.6,1014.8H849.5v-.7H68.6v.7Z" class="g1_1774"/>
<path d="M68.6,1037.8H849.5v-.8H68.6v.8Z" class="g1_1774"/>
<path d="M68.6,1060.7H849.5v-.8H68.6v.8Z" class="g1_1774"/>
<path d="M68.6,1100.4H849.5v-.8H68.6v.8Z" class="g1_1774"/>
</svg>