<?xml version="1.0" encoding="UTF-8" standalone="no"?>
<!DOCTYPE svg PUBLIC "-//W3C//DTD SVG 1.1//EN"
"http://www.w3.org/Graphics/SVG/1.1/DTD/svg11.dtd">
<svg viewBox="0 0 935 1210" version="1.1" xmlns="http://www.w3.org/2000/svg" xmlns:xlink="http://www.w3.org/1999/xlink">
<defs>
<style type="text/css"><![CDATA[
.g0_248{
fill: #FFF;
}
.g1_248{
fill: #000;
}
]]></style>
</defs>
<path d="M68.8,1149.3H852.5v-21.2H68.8v21.2Z" class="g0_248"/>
<path d="M68.6,1076.7h.7V124.1h-.7v952.6Z" class="g1_248"/>
<path d="M125.3,1077.5h.7V164.6h-.7v912.9Z" class="g1_248"/>
<path d="M182.1,1077.5h.7V123.4h-.7v954.1Z" class="g1_248"/>
<path d="M438.4,1077.5h.7V123.4h-.7v954.1Z" class="g1_248"/>
<path d="M531.7,1077.5h.7V123.4h-.7v954.1Z" class="g1_248"/>
<path d="M851.6,1076.7h.7V124.1h-.7v952.6Z" class="g1_248"/>
<path d="M68.6,124.1H852.3v-.7H68.6v.7Z" class="g1_248"/>
<path d="M68.6,165.4H182.8v-.8H68.6v.8Z" class="g1_248"/>
<path d="M68.6,189.8H852.3v-.7H68.6v.7Z" class="g1_248"/>
<path d="M182.1,214.2H852.3v-.7H182.1v.7Z" class="g1_248"/>
<path d="M182.1,238.7H852.3V238H182.1v.7Z" class="g1_248"/>
<path d="M182.1,263.2H852.3v-.8H182.1v.8Z" class="g1_248"/>
<path d="M68.6,287.6H852.3v-.8H68.6v.8Z" class="g1_248"/>
<path d="M182.1,350.3H852.3v-.8H182.1v.8Z" class="g1_248"/>
<path d="M182.1,374.6H852.3v-.7H182.1v.7Z" class="g1_248"/>
<path d="M182.1,454.1H852.3v-.7H182.1v.7Z" class="g1_248"/>
<path d="M182.1,533.6H852.3v-.7H182.1v.7Z" class="g1_248"/>
<path d="M68.6,558.1H852.3v-.8H68.6v.8Z" class="g1_248"/>
<path d="M182.1,625.3H852.3v-.8H182.1v.8Z" class="g1_248"/>
<path d="M182.1,671.1H852.3v-.7H182.1v.7Z" class="g1_248"/>
<path d="M182.1,716.9H852.3v-.7H182.1v.7Z" class="g1_248"/>
<path d="M182.1,762.8H852.3V762H182.1v.8Z" class="g1_248"/>
<path d="M182.1,808.6H852.3v-.7H182.1v.7Z" class="g1_248"/>
<path d="M68.6,833.1H852.3v-.8H68.6v.8Z" class="g1_248"/>
<path d="M182.1,857.5H852.3v-.8H182.1v.8Z" class="g1_248"/>
<path d="M182.1,881.9H852.3v-.7H182.1v.7Z" class="g1_248"/>
<path d="M182.1,906.4H852.3v-.7H182.1v.7Z" class="g1_248"/>
<path d="M182.1,930.8H852.3v-.7H182.1v.7Z" class="g1_248"/>
<path d="M182.1,955.3H852.3v-.8H182.1v.8Z" class="g1_248"/>
<path d="M182.1,979.7H852.3V979H182.1v.7Z" class="g1_248"/>
<path d="M182.1,1004.1H852.3v-.7H182.1v.7Z" class="g1_248"/>
<path d="M182.1,1028.6H852.3v-.7H182.1v.7Z" class="g1_248"/>
<path d="M182.1,1053.1H852.3v-.8H182.1v.8Z" class="g1_248"/>
<path d="M68.6,1077.5H852.3v-.8H68.6v.8Z" class="g1_248"/>
</svg>