<?xml version="1.0" encoding="UTF-8" standalone="no"?>
<!DOCTYPE svg PUBLIC "-//W3C//DTD SVG 1.1//EN"
"http://www.w3.org/Graphics/SVG/1.1/DTD/svg11.dtd">
<svg viewBox="0 0 935 1210" version="1.1" xmlns="http://www.w3.org/2000/svg" xmlns:xlink="http://www.w3.org/1999/xlink">
<defs>
<style type="text/css"><![CDATA[
.g0_1450{
fill: #FFF;
}
.g1_1450{
fill: #000;
}
]]></style>
</defs>
<path d="M165,1149.3H852.5v-21.2H165v21.2Z" class="g0_1450"/>
<path d="M68.8,1149.3h82.5v-21.2H68.8v21.2Z" class="g0_1450"/>
<path d="M68.6,202.9h.7V125.7h-.7v77.2Z" class="g1_1450"/>
<path d="M219.8,203.6h.8V124.9h-.8v78.7Z" class="g1_1450"/>
<path d="M391.5,203.6h.7V124.9h-.7v78.7Z" class="g1_1450"/>
<path d="M429.2,203.6h.7V124.9h-.7v78.7Z" class="g1_1450"/>
<path d="M502.3,203.6h.8V124.9h-.8v78.7Z" class="g1_1450"/>
<path d="M573.6,203.6h.7V124.9h-.7v78.7Z" class="g1_1450"/>
<path d="M849.9,202.9h.8V125.7h-.8v77.2Z" class="g1_1450"/>
<path d="M68.6,125.7H850.7v-.8H68.6v.8Z" class="g1_1450"/>
<path d="M68.6,163.8H850.7v-.7H68.6v.7Z" class="g1_1450"/>
<path d="M68.6,203.6H850.7v-.7H68.6v.7Z" class="g1_1450"/>
<path d="M68.6,306.7h.7V258.6h-.7v48.1Z" class="g1_1450"/>
<path d="M140,307.4h.7V257.9H140v49.5Z" class="g1_1450"/>
<path d="M317.5,307.4h.8V257.9h-.8v49.5Z" class="g1_1450"/>
<path d="M491.3,307.4h.8V257.9h-.8v49.5Z" class="g1_1450"/>
<path d="M669.1,307.4h.7V257.9h-.7v49.5Z" class="g1_1450"/>
<path d="M849.7,306.7h.7V258.6h-.7v48.1Z" class="g1_1450"/>
<path d="M68.6,258.6H850.4v-.7H68.6v.7Z" class="g1_1450"/>
<path d="M68.6,283H850.4v-.8H68.6v.8Z" class="g1_1450"/>
<path d="M68.6,307.4H850.4v-.7H68.6v.7Z" class="g1_1450"/>
</svg>