<?xml version="1.0" encoding="UTF-8" standalone="no"?>
<!DOCTYPE svg PUBLIC "-//W3C//DTD SVG 1.1//EN"
"http://www.w3.org/Graphics/SVG/1.1/DTD/svg11.dtd">
<svg viewBox="0 0 935 1210" version="1.1" xmlns="http://www.w3.org/2000/svg" xmlns:xlink="http://www.w3.org/1999/xlink">
<defs>
<clipPath id="c0_557"><path d="M766.6,59.2V41.4h72.1V59.2Z"/></clipPath>
<style type="text/css"><![CDATA[
.g0_557{
fill: #000;
}
.g1_557{
fill: #E5E5E5;
}
]]></style>
</defs>
<path d="M97.3,62.9v.3H839.9v-.3H97.3Z" class="g0_557"/>
<path d="M96.2,1114.1h-.1v.3h.1v-.3Z" class="g0_557"/>
<path d="M838.7,1114.1h.2v.3h-.2v-.3Z" class="g0_557"/>
<path d="M96.2,1114.1v.3H838.7v-.3H96.2Z" class="g0_557"/>
<image clip-path="url(#c0_557)" preserveAspectRatio="none" x="767" y="41" width="72" height="18" xlink:href="img/1.jpg"/>
<path d="M96.2,181.8H794.3v53.4H96.2V181.8Z" class="g1_557"/>
<path d="M619.7,288.7H728.8v53.5H619.7V288.7Z" class="g1_557"/>
<path d="M96.6,182.1h-.7v212h.7v-212Z" class="g0_557"/>
<path d="M445.7,288.3h-.8V397.2h.8V288.3Z" class="g0_557"/>
<path d="M467.5,288.3h-.8v54.2h.8V288.3Z" class="g0_557"/>
<path d="M511.1,288.3h-.7v54.2h.7V288.3Z" class="g0_557"/>
<path d="M532.9,288.3h-.7v54.2h.7V288.3Z" class="g0_557"/>
<path d="M620.1,288.3h-.7v54.2h.7V288.3Z" class="g0_557"/>
<path d="M729.2,288.3h-.8v54.2h.8V288.3Z" class="g0_557"/>
<path d="M795.8,182.1h-3v212h3v-212Z" class="g0_557"/>
<path d="M95.9,181.4v.7H795.8v-.7H95.9Z" class="g0_557"/>
<path d="M95.9,234.8v.8H795.8v-.8H95.9Z" class="g0_557"/>
<path d="M95.9,288.4v.7H795.8v-.7H95.9Z" class="g0_557"/>
<path d="M95.9,341.8v.7H795.8v-.7H95.9Z" class="g0_557"/>
<path d="M95.9,394.2v3H795.8v-3H95.9Z" class="g0_557"/>
</svg>