<?xml version="1.0" encoding="UTF-8" standalone="no"?>
<!DOCTYPE svg PUBLIC "-//W3C//DTD SVG 1.1//EN"
"http://www.w3.org/Graphics/SVG/1.1/DTD/svg11.dtd">
<svg viewBox="0 0 935 1210" version="1.1" xmlns="http://www.w3.org/2000/svg" xmlns:xlink="http://www.w3.org/1999/xlink">
<defs>
<style type="text/css"><![CDATA[
.g0_159{
fill: #FFF;
}
.g1_159{
fill: #000;
}
]]></style>
</defs>
<path d="M68.9,1149.3H852.7v-21.2H68.9v21.2Z" class="g0_159"/>
<path d="M69.9,1014.1h.8v-890h-.8v890Z" class="g1_159"/>
<path d="M126.7,1014.8h.7V164.6h-.7v850.2Z" class="g1_159"/>
<path d="M183.4,1014.8h.8V123.4h-.8v891.4Z" class="g1_159"/>
<path d="M427.1,1014.8h.7V123.4h-.7v891.4Z" class="g1_159"/>
<path d="M520.2,1014.8h.7V123.4h-.7v891.4Z" class="g1_159"/>
<path d="M854.4,1014.1h.8v-890h-.8v890Z" class="g1_159"/>
<path d="M69.9,124.1H855.2v-.7H69.9v.7Z" class="g1_159"/>
<path d="M69.9,165.4H184.2v-.8H69.9v.8Z" class="g1_159"/>
<path d="M69.9,189.8H855.2v-.7H69.9v.7Z" class="g1_159"/>
<path d="M183.4,286.1H855.2v-.7H183.4v.7Z" class="g1_159"/>
<path d="M183.4,310.5H855.2v-.8H183.4v.8Z" class="g1_159"/>
<path d="M183.4,373.2H855.2v-.8H183.4v.8Z" class="g1_159"/>
<path d="M69.9,397.7H855.2v-.8H69.9v.8Z" class="g1_159"/>
<path d="M183.4,477H855.2v-.7H183.4v.7Z" class="g1_159"/>
<path d="M183.4,799.4H855.2v-.7H183.4v.7Z" class="g1_159"/>
<path d="M183.4,823.9H855.2v-.7H183.4v.7Z" class="g1_159"/>
<path d="M183.4,903.3H855.2v-.7H183.4v.7Z" class="g1_159"/>
<path d="M183.4,927.8H855.2V927H183.4v.8Z" class="g1_159"/>
<path d="M183.4,990.4H855.2v-.8H183.4v.8Z" class="g1_159"/>
<path d="M69.9,1014.8H855.2v-.7H69.9v.7Z" class="g1_159"/>
</svg>