<?xml version="1.0" encoding="UTF-8" standalone="no"?>
<!DOCTYPE svg PUBLIC "-//W3C//DTD SVG 1.1//EN"
"http://www.w3.org/Graphics/SVG/1.1/DTD/svg11.dtd">
<svg viewBox="0 0 935 1210" version="1.1" xmlns="http://www.w3.org/2000/svg" xmlns:xlink="http://www.w3.org/1999/xlink">
<defs>
<style type="text/css"><![CDATA[
.g0_1977{
fill: #FFF;
}
.g1_1977{
fill: #000;
}
]]></style>
</defs>
<path d="M68.9,1149.3H755.2v-21.2H68.9v21.2Z" class="g0_1977"/>
<path d="M771.3,1149.3H855v-21.2H771.3v21.2Z" class="g0_1977"/>
<path d="M69.9,1026.3h.8V125.7h-.8v900.6Z" class="g1_1977"/>
<path d="M284.7,1027.1h.7V124.9h-.7v902.2Z" class="g1_1977"/>
<path d="M329.8,1027.1h.8V124.9h-.8v902.2Z" class="g1_1977"/>
<path d="M402.5,1027.1h.7V124.9h-.7v902.2Z" class="g1_1977"/>
<path d="M491.5,1027.1h.8V124.9h-.8v902.2Z" class="g1_1977"/>
<path d="M853.7,1026.3h.7V125.7h-.7v900.6Z" class="g1_1977"/>
<path d="M69.9,125.7H854.4v-.8H69.9v.8Z" class="g1_1977"/>
<path d="M69.9,179.1H854.4v-.7H69.9v.7Z" class="g1_1977"/>
<path d="M69.9,235.7H854.4v-.8H69.9v.8Z" class="g1_1977"/>
<path d="M69.9,292.1H854.4v-.7H69.9v.7Z" class="g1_1977"/>
<path d="M69.9,348.7H854.4V348H69.9v.7Z" class="g1_1977"/>
<path d="M69.9,405.3H854.4v-.8H69.9v.8Z" class="g1_1977"/>
<path d="M69.9,461.8H854.4v-.7H69.9v.7Z" class="g1_1977"/>
<path d="M69.9,518.3H854.4v-.7H69.9v.7Z" class="g1_1977"/>
<path d="M69.9,574.8H854.4v-.7H69.9v.7Z" class="g1_1977"/>
<path d="M69.9,631.4H854.4v-.7H69.9v.7Z" class="g1_1977"/>
<path d="M69.9,687.9H854.4v-.8H69.9v.8Z" class="g1_1977"/>
<path d="M69.9,744.4H854.4v-.7H69.9v.7Z" class="g1_1977"/>
<path d="M69.9,801H854.4v-.7H69.9v.7Z" class="g1_1977"/>
<path d="M69.9,857.5H854.4v-.8H69.9v.8Z" class="g1_1977"/>
<path d="M69.9,914H854.4v-.7H69.9v.7Z" class="g1_1977"/>
<path d="M69.9,970.6H854.4v-.8H69.9v.8Z" class="g1_1977"/>
<path d="M69.9,1027H854.4v-.7H69.9v.7Z" class="g1_1977"/>
</svg>