<?xml version="1.0" encoding="UTF-8" standalone="no"?>
<!DOCTYPE svg PUBLIC "-//W3C//DTD SVG 1.1//EN"
"http://www.w3.org/Graphics/SVG/1.1/DTD/svg11.dtd">
<svg viewBox="0 0 935 1210" version="1.1" xmlns="http://www.w3.org/2000/svg" xmlns:xlink="http://www.w3.org/1999/xlink">
<defs>
<style type="text/css"><![CDATA[
.g0_1374{
fill: #FFF;
}
.g1_1374{
fill: #000;
}
]]></style>
</defs>
<path d="M68.8,1149.3H852.5v-21.2H68.8v21.2Z" class="g0_1374"/>
<path d="M71.6,248.7h.7V163.9h-.7v84.8Z" class="g1_1374"/>
<path d="M170.8,249.4h.7V163.1h-.7v86.3Z" class="g1_1374"/>
<path d="M394.7,249.4h.7V163.1h-.7v86.3Z" class="g1_1374"/>
<path d="M499.3,249.4h.7V186h-.7v63.4Z" class="g1_1374"/>
<path d="M611,249.4h.8V186H611v63.4Z" class="g1_1374"/>
<path d="M848.7,248.7h.8V163.9h-.8v84.8Z" class="g1_1374"/>
<path d="M71.6,163.8H849.5v-.7H71.6v.7Z" class="g1_1374"/>
<path d="M394.7,186.7H849.5V186H394.7v.7Z" class="g1_1374"/>
<path d="M71.6,209.6H849.5v-.7H71.6v.7Z" class="g1_1374"/>
<path d="M71.6,249.4H849.5v-.7H71.6v.7Z" class="g1_1374"/>
<path d="M70.8,412.1h.7V304.4h-.7V412.1Z" class="g1_1374"/>
<path d="M144,412.9h.7V303.7H144V412.9Z" class="g1_1374"/>
<path d="M284.4,412.9h.8V303.7h-.8V412.9Z" class="g1_1374"/>
<path d="M371.8,412.9h.7V366.3h-.7v46.6Z" class="g1_1374"/>
<path d="M467.4,412.9h.7V326.6h-.7v86.3Z" class="g1_1374"/>
<path d="M562.9,412.9h.8V366.3h-.8v46.6Z" class="g1_1374"/>
<path d="M658.5,412.9h.8V326.6h-.8v86.3Z" class="g1_1374"/>
<path d="M754.1,412.9h.7V366.3h-.7v46.6Z" class="g1_1374"/>
<path d="M849.7,412.1h.7V304.4h-.7V412.1Z" class="g1_1374"/>
<path d="M70.8,304.4H850.4v-.7H70.8v.7Z" class="g1_1374"/>
<path d="M284.4,327.3h566v-.7h-566v.7Z" class="g1_1374"/>
<path d="M284.4,367h566v-.7h-566v.7Z" class="g1_1374"/>
<path d="M70.8,389.9H850.4v-.7H70.8v.7Z" class="g1_1374"/>
<path d="M70.8,412.9H850.4v-.8H70.8v.8Z" class="g1_1374"/>
<path d="M69.2,569.5h.7V496.9h-.7v72.6Z" class="g1_1374"/>
<path d="M851.2,569.5h.7V496.9h-.7v72.6Z" class="g1_1374"/>
<path d="M69.2,496.9H852v-.7H69.2v.7Z" class="g1_1374"/>
<path d="M69.2,521.4H852v-.7H69.2v.7Z" class="g1_1374"/>
<path d="M69.2,545.8H852v-.7H69.2v.7Z" class="g1_1374"/>
<path d="M69.2,570.3H852v-.8H69.2v.8Z" class="g1_1374"/>
</svg>