<?xml version="1.0" encoding="UTF-8" standalone="no"?>
<!DOCTYPE svg PUBLIC "-//W3C//DTD SVG 1.1//EN"
"http://www.w3.org/Graphics/SVG/1.1/DTD/svg11.dtd">
<svg viewBox="0 0 935 1210" version="1.1" xmlns="http://www.w3.org/2000/svg" xmlns:xlink="http://www.w3.org/1999/xlink">
<defs>
<clipPath id="c0_101"><path d="M766.7,59V41.4h72.2V59Z"/></clipPath>
<style type="text/css"><![CDATA[
.g0_101{
fill: #000;
}
]]></style>
</defs>
<path d="M97.5,63.1v.3H840v-.3H97.5Z" class="g0_101"/>
<path d="M96.1,1114.3v.3v-.3Z" class="g0_101"/>
<path d="M838.9,1114.3v.3v-.3Z" class="g0_101"/>
<path d="M96.1,1114.3v.3H838.9v-.3H96.1Z" class="g0_101"/>
<image clip-path="url(#c0_101)" preserveAspectRatio="none" x="767" y="41" width="72" height="18" xlink:href="img/1.jpg"/>
<path d="M168.3,178.9h-.7V331.1h.7V178.9Z" class="g0_101"/>
<path d="M328.5,178.2h-.7V331.8h.7V178.2Z" class="g0_101"/>
<path d="M492.8,178.2H492V331.8h.8V178.2Z" class="g0_101"/>
<path d="M767.4,178.9h-.7V331.1h.7V178.9Z" class="g0_101"/>
<path d="M167.6,178.2v.7H767.4v-.7H167.6Z" class="g0_101"/>
<path d="M167.6,202.8v.7H767.4v-.7H167.6Z" class="g0_101"/>
<path d="M167.6,245.7v.7H767.4v-.7H167.6Z" class="g0_101"/>
<path d="M167.6,288.2v.7H767.4v-.7H167.6Z" class="g0_101"/>
<path d="M167.6,331.1v.7H767.4v-.7H167.6Z" class="g0_101"/>
</svg>