<?xml version="1.0" encoding="UTF-8" standalone="no"?>
<!DOCTYPE svg PUBLIC "-//W3C//DTD SVG 1.1//EN"
"http://www.w3.org/Graphics/SVG/1.1/DTD/svg11.dtd">
<svg viewBox="0 0 935 1210" version="1.1" xmlns="http://www.w3.org/2000/svg" xmlns:xlink="http://www.w3.org/1999/xlink">
<defs>
<style type="text/css"><![CDATA[
.g0_3957{
fill: #FFF;
}
.g1_3957{
fill: #000;
}
]]></style>
</defs>
<path d="M68.9,1149.3H852.7v-21.2H68.9v21.2Z" class="g0_3957"/>
<path d="M69.9,1082.9h.8V536.6h-.8v546.3Z" class="g1_3957"/>
<path d="M170.2,1083.6h.8V535.9h-.8v547.7Z" class="g1_3957"/>
<path d="M338.4,1083.6h.8V535.9h-.8v547.7Z" class="g1_3957"/>
<path d="M854.6,1082.9h.7V536.6h-.7v546.3Z" class="g1_3957"/>
<path d="M69.9,536.6H855.3v-.7H69.9v.7Z" class="g1_3957"/>
<path d="M69.9,561.1H855.3v-.7H69.9v.7Z" class="g1_3957"/>
<path d="M69.9,640.6H855.3v-.8H69.9v.8Z" class="g1_3957"/>
<path d="M69.9,719.9H855.3v-.7H69.9v.7Z" class="g1_3957"/>
<path d="M69.9,761.2H855.3v-.7H69.9v.7Z" class="g1_3957"/>
<path d="M69.9,878.9H855.3v-.7H69.9v.7Z" class="g1_3957"/>
<path d="M69.9,903.3H855.3v-.7H69.9v.7Z" class="g1_3957"/>
<path d="M69.9,927.8H855.3V927H69.9v.8Z" class="g1_3957"/>
<path d="M69.9,952.2H855.3v-.7H69.9v.7Z" class="g1_3957"/>
<path d="M69.9,976.6H855.3v-.7H69.9v.7Z" class="g1_3957"/>
<path d="M69.9,1017.9H855.3v-.8H69.9v.8Z" class="g1_3957"/>
<path d="M69.9,1042.3H855.3v-.7H69.9v.7Z" class="g1_3957"/>
<path d="M69.9,1083.6H855.3v-.7H69.9v.7Z" class="g1_3957"/>
</svg>