<?xml version="1.0" encoding="UTF-8" standalone="no"?>
<!DOCTYPE svg PUBLIC "-//W3C//DTD SVG 1.1//EN"
"http://www.w3.org/Graphics/SVG/1.1/DTD/svg11.dtd">
<svg viewBox="0 0 935 1210" version="1.1" xmlns="http://www.w3.org/2000/svg" xmlns:xlink="http://www.w3.org/1999/xlink">
<defs>
<style type="text/css"><![CDATA[
.g0_1608{
fill: #FFF;
}
.g1_1608{
fill: #000;
}
]]></style>
</defs>
<path d="M165,1149.3H852.5v-21.2H165v21.2Z" class="g0_1608"/>
<path d="M68.8,1149.3h82.5v-21.2H68.8v21.2Z" class="g0_1608"/>
<path d="M68.9,355H851.1V325.4H68.9V355Z" class="g0_1608"/>
<path d="M69.9,348.3h53.5V336H69.9v12.3Z" class="g0_1608"/>
<path d="M68.6,325.1h.7V125.7h-.7V325.1Z" class="g1_1608"/>
<path d="M303.2,179.1h.8V124.9h-.8v54.2Z" class="g1_1608"/>
<path d="M303.2,325.8h.8V178.4h-.8V325.8Z" class="g1_1608"/>
<path d="M346,179.1h.8V124.9H346v54.2Z" class="g1_1608"/>
<path d="M346,325.8h.8V178.4H346V325.8Z" class="g1_1608"/>
<path d="M419.4,179.1h.7V124.9h-.7v54.2Z" class="g1_1608"/>
<path d="M419.4,325.8h.7V178.4h-.7V325.8Z" class="g1_1608"/>
<path d="M544.2,325.8h.8V124.9h-.8V325.8Z" class="g1_1608"/>
<path d="M850.8,325.1h.7V125.7h-.7V325.1Z" class="g1_1608"/>
<path d="M68.6,125.7H851.5v-.8H68.6v.8Z" class="g1_1608"/>
<path d="M68.6,179.1H545v-.7H68.6v.7Z" class="g1_1608"/>
<path d="M544.2,179.1H851.5v-.7H544.2v.7Z" class="g1_1608"/>
<path d="M68.6,252.4H545v-.7H68.6v.7Z" class="g1_1608"/>
<path d="M544.2,252.4H851.5v-.7H544.2v.7Z" class="g1_1608"/>
<path d="M68.6,325.8H544.2v-.7H68.6v.7Z" class="g1_1608"/>
<path d="M545,325.8H851.5v-.7H545v.7Z" class="g1_1608"/>
<path d="M68.6,478.4h.7V430.3h-.7v48.1Z" class="g1_1608"/>
<path d="M134.3,479.1h.7V429.6h-.7v49.5Z" class="g1_1608"/>
<path d="M227.5,479.1h.7V429.6h-.7v49.5Z" class="g1_1608"/>
<path d="M373.6,479.1h.8V429.6h-.8v49.5Z" class="g1_1608"/>
<path d="M533.5,479.1h.7V429.6h-.7v49.5Z" class="g1_1608"/>
<path d="M692.2,479.1h.7V429.6h-.7v49.5Z" class="g1_1608"/>
<path d="M848.8,478.4h.8V430.3h-.8v48.1Z" class="g1_1608"/>
<path d="M68.6,430.3H849.7v-.7H68.6v.7Z" class="g1_1608"/>
<path d="M68.6,454.7H849.7v-.8H68.6v.8Z" class="g1_1608"/>
<path d="M68.6,479.1H849.7v-.7H68.6v.7Z" class="g1_1608"/>
</svg>