<?xml version="1.0" encoding="UTF-8" standalone="no"?>
<!DOCTYPE svg PUBLIC "-//W3C//DTD SVG 1.1//EN"
"http://www.w3.org/Graphics/SVG/1.1/DTD/svg11.dtd">
<svg viewBox="0 0 935 1210" version="1.1" xmlns="http://www.w3.org/2000/svg" xmlns:xlink="http://www.w3.org/1999/xlink">
<defs>
<style type="text/css"><![CDATA[
.g0_106{
fill: #000;
}
]]></style>
</defs>
<path d="M130.4,366.3h.7V241.7h-.7V366.3Z" class="g0_106"/>
<path d="M265,367h.7V241H265V367Z" class="g0_106"/>
<path d="M642.3,367h.7V241h-.7V367Z" class="g0_106"/>
<path d="M803.9,366.3h.7V241.7h-.7V366.3Z" class="g0_106"/>
<path d="M130.4,241.7H804.6V241H130.4v.7Z" class="g0_106"/>
<path d="M131.1,267.3H803.9v-.7H131.1v.7Z" class="g0_106"/>
<path d="M131.1,271.1H803.9v-.7H131.1v.7Z" class="g0_106"/>
<path d="M130.4,293.7H804.6V293H130.4v.7Z" class="g0_106"/>
<path d="M130.4,318.2H804.6v-.8H130.4v.8Z" class="g0_106"/>
<path d="M130.4,342.6H804.6v-.8H130.4v.8Z" class="g0_106"/>
<path d="M130.4,367H804.6v-.7H130.4v.7Z" class="g0_106"/>
<path d="M130.4,784.9h.7V409.8h-.7V784.9Z" class="g0_106"/>
<path d="M265,785.7h.7V409H265V785.7Z" class="g0_106"/>
<path d="M642.3,785.7h.7V409h-.7V785.7Z" class="g0_106"/>
<path d="M803.9,784.9h.7V409.8h-.7V784.9Z" class="g0_106"/>
<path d="M130.4,409.8H804.6v-.7H130.4v.7Z" class="g0_106"/>
<path d="M131.1,435.4H803.9v-.7H131.1v.7Z" class="g0_106"/>
<path d="M131.1,439.2H803.9v-.8H131.1v.8Z" class="g0_106"/>
<path d="M130.4,495.4H804.6v-.8H130.4v.8Z" class="g0_106"/>
<path d="M130.4,553.4H804.6v-.7H130.4v.7Z" class="g0_106"/>
<path d="M130.4,611.5H804.6v-.7H130.4v.7Z" class="g0_106"/>
<path d="M130.4,669.5H804.6v-.7H130.4v.7Z" class="g0_106"/>
<path d="M130.4,727.6H804.6v-.8H130.4v.8Z" class="g0_106"/>
<path d="M130.4,785.7H804.6v-.8H130.4v.8Z" class="g0_106"/>
<path d="M130.4,1001.8h.7V828.5h-.7v173.3Z" class="g0_106"/>
<path d="M265,1002.7h.7v-175H265v175Z" class="g0_106"/>
<path d="M642.3,1002.7h.7v-175h-.7v175Z" class="g0_106"/>
<path d="M803.9,1001.8h.7V828.5h-.7v173.3Z" class="g0_106"/>
<path d="M130.4,828.4H804.6v-.7H130.4v.7Z" class="g0_106"/>
<path d="M131.1,854.1H803.9v-.8H131.1v.8Z" class="g0_106"/>
<path d="M131.1,857.8H803.9v-.7H131.1v.7Z" class="g0_106"/>
<path d="M130.4,880.4H804.6v-.8H130.4v.8Z" class="g0_106"/>
<path d="M130.4,904.8H804.6v-.7H130.4v.7Z" class="g0_106"/>
<path d="M130.4,929.2H804.6v-.7H130.4v.7Z" class="g0_106"/>
<path d="M130.4,953.7H804.6V953H130.4v.7Z" class="g0_106"/>
<path d="M130.4,978.2H804.6v-.8H130.4v.8Z" class="g0_106"/>
<path d="M130.4,1002.7H804.6v-.8H130.4v.8Z" class="g0_106"/>
</svg>