<?xml version="1.0" encoding="UTF-8" standalone="no"?>
<!DOCTYPE svg PUBLIC "-//W3C//DTD SVG 1.1//EN"
"http://www.w3.org/Graphics/SVG/1.1/DTD/svg11.dtd">
<svg viewBox="0 0 935 1210" version="1.1" xmlns="http://www.w3.org/2000/svg" xmlns:xlink="http://www.w3.org/1999/xlink">
<defs>
<style type="text/css"><![CDATA[
.g0_4794{
fill: #FFF;
}
.g1_4794{
fill: #000;
}
]]></style>
</defs>
<path d="M68.8,1149.3H852.5v-21.2H68.8v21.2Z" class="g0_4794"/>
<path d="M68.6,1063h.7V142.4h-.7V1063Z" class="g1_4794"/>
<path d="M125.3,1063.8h.7V183h-.7v880.8Z" class="g1_4794"/>
<path d="M182.1,1063.8h.7V141.7h-.7v922.1Z" class="g1_4794"/>
<path d="M426.3,1063.8h.8V141.7h-.8v922.1Z" class="g1_4794"/>
<path d="M519.8,1063.8h.7V141.7h-.7v922.1Z" class="g1_4794"/>
<path d="M852.6,1063h.7V142.4h-.7V1063Z" class="g1_4794"/>
<path d="M68.6,142.4H853.3v-.7H68.6v.7Z" class="g1_4794"/>
<path d="M68.6,183.7H182.8V183H68.6v.7Z" class="g1_4794"/>
<path d="M68.6,208.2H853.3v-.8H68.6v.8Z" class="g1_4794"/>
<path d="M182.1,254H853.3v-.7H182.1v.7Z" class="g1_4794"/>
<path d="M68.6,278.4H853.3v-.7H68.6v.7Z" class="g1_4794"/>
<path d="M182.1,302.9H853.3v-.8H182.1v.8Z" class="g1_4794"/>
<path d="M182.1,327.3H853.3v-.7H182.1v.7Z" class="g1_4794"/>
<path d="M182.1,373.2H853.3v-.8H182.1v.8Z" class="g1_4794"/>
<path d="M182.1,419H853.3v-.7H182.1v.7Z" class="g1_4794"/>
<path d="M68.6,443.5H853.3v-.8H68.6v.8Z" class="g1_4794"/>
<path d="M182.1,510.7H853.3v-.8H182.1v.8Z" class="g1_4794"/>
<path d="M182.1,535.2H853.3v-.8H182.1v.8Z" class="g1_4794"/>
<path d="M182.1,559.5H853.3v-.7H182.1v.7Z" class="g1_4794"/>
<path d="M182.1,584H853.3v-.7H182.1v.7Z" class="g1_4794"/>
<path d="M182.1,608.5H853.3v-.8H182.1v.8Z" class="g1_4794"/>
<path d="M182.1,632.9H853.3v-.8H182.1v.8Z" class="g1_4794"/>
<path d="M182.1,657.3H853.3v-.7H182.1v.7Z" class="g1_4794"/>
<path d="M182.1,681.8H853.3v-.7H182.1v.7Z" class="g1_4794"/>
<path d="M68.6,706.2H853.3v-.7H68.6v.7Z" class="g1_4794"/>
<path d="M182.1,773.5H853.3v-.7H182.1v.7Z" class="g1_4794"/>
<path d="M182.1,797.9H853.3v-.8H182.1v.8Z" class="g1_4794"/>
<path d="M182.1,822.3H853.3v-.7H182.1v.7Z" class="g1_4794"/>
<path d="M182.1,846.8H853.3v-.7H182.1v.7Z" class="g1_4794"/>
<path d="M182.1,871.2H853.3v-.7H182.1v.7Z" class="g1_4794"/>
<path d="M182.1,895.7H853.3v-.8H182.1v.8Z" class="g1_4794"/>
<path d="M182.1,920.2H853.3v-.8H182.1v.8Z" class="g1_4794"/>
<path d="M182.1,944.5H853.3v-.7H182.1v.7Z" class="g1_4794"/>
<path d="M68.6,969H853.3v-.7H68.6v.7Z" class="g1_4794"/>
<path d="M182.1,993.5H853.3v-.7H182.1v.7Z" class="g1_4794"/>
<path d="M182.1,1039.3H853.3v-.7H182.1v.7Z" class="g1_4794"/>
<path d="M68.6,1063.7H853.3v-.7H68.6v.7Z" class="g1_4794"/>
</svg>