<?xml version="1.0" encoding="UTF-8" standalone="no"?>
<!DOCTYPE svg PUBLIC "-//W3C//DTD SVG 1.1//EN"
"http://www.w3.org/Graphics/SVG/1.1/DTD/svg11.dtd">
<svg viewBox="0 0 935 1210" version="1.1" xmlns="http://www.w3.org/2000/svg" xmlns:xlink="http://www.w3.org/1999/xlink">
<defs>
<style type="text/css"><![CDATA[
.g0_4141{
fill: #FFF;
}
.g1_4141{
fill: #000;
}
]]></style>
</defs>
<path d="M68.9,1149.3H852.7v-21.2H68.9v21.2Z" class="g0_4141"/>
<path d="M70.6,1095.1h.7V973.6h-.7v121.5Z" class="g1_4141"/>
<path d="M375.6,1095.9h.7v-123h-.7v123Z" class="g1_4141"/>
<path d="M851.4,1095.1h.7V973.6h-.7v121.5Z" class="g1_4141"/>
<path d="M70.6,973.6H852.1v-.7H70.6v.7Z" class="g1_4141"/>
<path d="M70.6,998.1H852.1v-.8H70.6v.8Z" class="g1_4141"/>
<path d="M70.6,1022.5H852.1v-.8H70.6v.8Z" class="g1_4141"/>
<path d="M70.6,1046.9H852.1v-.7H70.6v.7Z" class="g1_4141"/>
<path d="M70.6,1071.4H852.1v-.7H70.6v.7Z" class="g1_4141"/>
<path d="M70.6,1095.8H852.1v-.8H70.6v.8Z" class="g1_4141"/>
</svg>