<?xml version="1.0" encoding="UTF-8" standalone="no"?>
<!DOCTYPE svg PUBLIC "-//W3C//DTD SVG 1.1//EN"
"http://www.w3.org/Graphics/SVG/1.1/DTD/svg11.dtd">
<svg viewBox="0 0 935 1210" version="1.1" xmlns="http://www.w3.org/2000/svg" xmlns:xlink="http://www.w3.org/1999/xlink">
<defs>
<style type="text/css"><![CDATA[
.g0_54{
fill: #FFF;
}
.g1_54{
fill: #000;
}
]]></style>
</defs>
<path d="M68.8,1149.3H852.5v-21.2H68.8v21.2Z" class="g0_54"/>
<path d="M66.9,1093.6h.8V124.1h-.8v969.5Z" class="g1_54"/>
<path d="M121.6,1094.3h.8V164.6h-.8v929.7Z" class="g1_54"/>
<path d="M182.7,1094.3h.7V123.4h-.7v970.9Z" class="g1_54"/>
<path d="M417.6,1094.3h.8V123.4h-.8v970.9Z" class="g1_54"/>
<path d="M682.4,1094.3h.7V123.4h-.7v970.9Z" class="g1_54"/>
<path d="M853.4,1093.6h.7V124.1h-.7v969.5Z" class="g1_54"/>
<path d="M66.9,124.1H854.2v-.7H66.9v.7Z" class="g1_54"/>
<path d="M66.9,165.4H183.4v-.8H66.9v.8Z" class="g1_54"/>
<path d="M66.9,189.8H854.2v-.7H66.9v.7Z" class="g1_54"/>
<path d="M66.9,214.2H854.2v-.7H66.9v.7Z" class="g1_54"/>
<path d="M66.9,238.7H854.2V238H66.9v.7Z" class="g1_54"/>
<path d="M66.9,263.2H854.2v-.8H66.9v.8Z" class="g1_54"/>
<path d="M66.9,287.6H854.2v-.8H66.9v.8Z" class="g1_54"/>
<path d="M66.9,312H854.2v-.7H66.9v.7Z" class="g1_54"/>
<path d="M66.9,336.5H854.2v-.7H66.9v.7Z" class="g1_54"/>
<path d="M66.9,360.9H854.2v-.7H66.9v.7Z" class="g1_54"/>
<path d="M66.9,385.4H854.2v-.8H66.9v.8Z" class="g1_54"/>
<path d="M66.9,409.8H854.2v-.7H66.9v.7Z" class="g1_54"/>
<path d="M66.9,434.3H854.2v-.7H66.9v.7Z" class="g1_54"/>
<path d="M66.9,458.7H854.2V458H66.9v.7Z" class="g1_54"/>
<path d="M66.9,483.2H854.2v-.8H66.9v.8Z" class="g1_54"/>
<path d="M66.9,507.7H854.2v-.8H66.9v.8Z" class="g1_54"/>
<path d="M66.9,532H854.2v-.7H66.9v.7Z" class="g1_54"/>
<path d="M66.9,556.5H854.2v-.7H66.9v.7Z" class="g1_54"/>
<path d="M66.9,581H854.2v-.8H66.9v.8Z" class="g1_54"/>
<path d="M66.9,605.4H854.2v-.8H66.9v.8Z" class="g1_54"/>
<path d="M66.9,629.8H854.2v-.7H66.9v.7Z" class="g1_54"/>
<path d="M66.9,654.3H854.2v-.7H66.9v.7Z" class="g1_54"/>
<path d="M66.9,678.7H854.2V678H66.9v.7Z" class="g1_54"/>
<path d="M66.9,703.2H854.2v-.8H66.9v.8Z" class="g1_54"/>
<path d="M66.9,727.7H854.2v-.8H66.9v.8Z" class="g1_54"/>
<path d="M66.9,752H854.2v-.7H66.9v.7Z" class="g1_54"/>
<path d="M66.9,776.5H854.2v-.7H66.9v.7Z" class="g1_54"/>
<path d="M66.9,801H854.2v-.7H66.9v.7Z" class="g1_54"/>
<path d="M66.9,825.4H854.2v-.8H66.9v.8Z" class="g1_54"/>
<path d="M66.9,849.8H854.2v-.7H66.9v.7Z" class="g1_54"/>
<path d="M66.9,874.3H854.2v-.7H66.9v.7Z" class="g1_54"/>
<path d="M66.9,898.7H854.2V898H66.9v.7Z" class="g1_54"/>
<path d="M66.9,923.2H854.2v-.8H66.9v.8Z" class="g1_54"/>
<path d="M66.9,947.7H854.2v-.8H66.9v.8Z" class="g1_54"/>
<path d="M66.9,972H854.2v-.7H66.9v.7Z" class="g1_54"/>
<path d="M66.9,996.5H854.2v-.7H66.9v.7Z" class="g1_54"/>
<path d="M66.9,1021H854.2v-.7H66.9v.7Z" class="g1_54"/>
<path d="M66.9,1045.4H854.2v-.8H66.9v.8Z" class="g1_54"/>
<path d="M66.9,1069.8H854.2v-.7H66.9v.7Z" class="g1_54"/>
<path d="M66.9,1094.3H854.2v-.7H66.9v.7Z" class="g1_54"/>
</svg>