<?xml version="1.0" encoding="UTF-8" standalone="no"?>
<!DOCTYPE svg PUBLIC "-//W3C//DTD SVG 1.1//EN"
"http://www.w3.org/Graphics/SVG/1.1/DTD/svg11.dtd">
<svg viewBox="0 0 935 1210" version="1.1" xmlns="http://www.w3.org/2000/svg" xmlns:xlink="http://www.w3.org/1999/xlink">
<defs>
<style type="text/css"><![CDATA[
.g0_708{
fill: #FFF;
}
.g1_708{
fill: #000;
}
]]></style>
</defs>
<path d="M165,1149.3H852.5v-21.2H165v21.2Z" class="g0_708"/>
<path d="M68.8,1149.3h82.5v-21.2H68.8v21.2Z" class="g0_708"/>
<path d="M68.6,238h.7V125.7h-.7V238Z" class="g1_708"/>
<path d="M253.8,238.7h.8V124.9h-.8V238.7Z" class="g1_708"/>
<path d="M311.1,238.7h.7V124.9h-.7V238.7Z" class="g1_708"/>
<path d="M385.6,238.7h.7V124.9h-.7V238.7Z" class="g1_708"/>
<path d="M453.2,238.7h.7V124.9h-.7V238.7Z" class="g1_708"/>
<path d="M849.4,238h.7V125.7h-.7V238Z" class="g1_708"/>
<path d="M68.6,125.7H850.1v-.8H68.6v.8Z" class="g1_708"/>
<path d="M68.6,182.1H850.1v-.7H68.6v.7Z" class="g1_708"/>
<path d="M68.6,238.7H850.1V238H68.6v.7Z" class="g1_708"/>
<path d="M68.6,358.7h.7v-65h-.7v65Z" class="g1_708"/>
<path d="M162.8,359.4h.7V293h-.7v66.4Z" class="g1_708"/>
<path d="M378.5,359.4h.7V293h-.7v66.4Z" class="g1_708"/>
<path d="M610.5,359.4h.7V293h-.7v66.4Z" class="g1_708"/>
<path d="M847.3,358.7h.7v-65h-.7v65Z" class="g1_708"/>
<path d="M68.6,293.7H848.1V293H68.6v.7Z" class="g1_708"/>
<path d="M68.6,318.2H848.1v-.8H68.6v.8Z" class="g1_708"/>
<path d="M68.6,359.4H848.1v-.7H68.6v.7Z" class="g1_708"/>
</svg>