<?xml version="1.0" encoding="UTF-8" standalone="no"?>
<!DOCTYPE svg PUBLIC "-//W3C//DTD SVG 1.1//EN"
"http://www.w3.org/Graphics/SVG/1.1/DTD/svg11.dtd">
<svg viewBox="0 0 935 1210" version="1.1" xmlns="http://www.w3.org/2000/svg" xmlns:xlink="http://www.w3.org/1999/xlink">
<defs>
<style type="text/css"><![CDATA[
.g0_440{
fill: #FFF;
}
.g1_440{
fill: #000;
}
]]></style>
</defs>
<path d="M68.8,1149.3H852.5v-21.2H68.8v21.2Z" class="g0_440"/>
<path d="M68.6,587.9h.7V124.1h-.7V587.9Z" class="g1_440"/>
<path d="M214.7,588.6h.7V123.4h-.7V588.6Z" class="g1_440"/>
<path d="M359.3,588.6h.8V123.4h-.8V588.6Z" class="g1_440"/>
<path d="M503.7,588.6h.7V123.4h-.7V588.6Z" class="g1_440"/>
<path d="M849.6,587.9h.7V124.1h-.7V587.9Z" class="g1_440"/>
<path d="M68.6,124.1H850.3v-.7H68.6v.7Z" class="g1_440"/>
<path d="M68.6,148.6H850.3v-.7H68.6v.7Z" class="g1_440"/>
<path d="M68.6,173H850.3v-.8H68.6v.8Z" class="g1_440"/>
<path d="M68.6,197.4H850.3v-.7H68.6v.7Z" class="g1_440"/>
<path d="M68.6,221.9H850.3v-.7H68.6v.7Z" class="g1_440"/>
<path d="M68.6,246.3H850.3v-.7H68.6v.7Z" class="g1_440"/>
<path d="M68.6,270.8H850.3v-.7H68.6v.7Z" class="g1_440"/>
<path d="M68.6,295.3H850.3v-.8H68.6v.8Z" class="g1_440"/>
<path d="M68.6,319.6H850.3v-.7H68.6v.7Z" class="g1_440"/>
<path d="M68.6,344.1H850.3v-.7H68.6v.7Z" class="g1_440"/>
<path d="M68.6,368.6H850.3v-.7H68.6v.7Z" class="g1_440"/>
<path d="M68.6,393H850.3v-.8H68.6v.8Z" class="g1_440"/>
<path d="M68.6,417.4H850.3v-.7H68.6v.7Z" class="g1_440"/>
<path d="M68.6,441.9H850.3v-.7H68.6v.7Z" class="g1_440"/>
<path d="M68.6,466.4H850.3v-.7H68.6v.7Z" class="g1_440"/>
<path d="M68.6,490.8H850.3v-.7H68.6v.7Z" class="g1_440"/>
<path d="M68.6,515.3H850.3v-.8H68.6v.8Z" class="g1_440"/>
<path d="M68.6,539.7H850.3V539H68.6v.7Z" class="g1_440"/>
<path d="M68.6,564.1H850.3v-.7H68.6v.7Z" class="g1_440"/>
<path d="M68.6,588.6H850.3v-.7H68.6v.7Z" class="g1_440"/>
</svg>