<?xml version="1.0" encoding="UTF-8" standalone="no"?>
<!DOCTYPE svg PUBLIC "-//W3C//DTD SVG 1.1//EN"
"http://www.w3.org/Graphics/SVG/1.1/DTD/svg11.dtd">
<svg viewBox="0 0 935 1210" version="1.1" xmlns="http://www.w3.org/2000/svg" xmlns:xlink="http://www.w3.org/1999/xlink">
<defs>
<clipPath id="c0_123"><path d="M70.4,1076.4v-29.6H852.3v29.6Z"/></clipPath>
<style type="text/css"><![CDATA[
.g0_123{
fill: #FFF;
}
.g1_123{
fill: #000;
}
]]></style>
</defs>
<path d="M68.9,1149.3H852.7v-21.2H68.9v21.2Z" class="g0_123"/>
<path clip-path="url(#c0_123)" d="M70.4,1076.4H852.3v-29.6H70.4v29.6Z" class="g0_123"/>
<path d="M71.4,1069.8h53.5v-12.4H71.4v12.4Z" class="g0_123"/>
<path d="M171.3,365.1h.8V107.3h-.8V365.1Z" class="g1_123"/>
<path d="M750.7,365.1h.7V107.3h-.7V365.1Z" class="g1_123"/>
<path d="M171.3,107.3H751.4v-.7H171.3v.7Z" class="g1_123"/>
<path d="M171.3,365.8H751.4v-.7H171.3v.7Z" class="g1_123"/>
<path d="M70,1046.5h.8v-563H70v563Z" class="g1_123"/>
<path d="M158,1047.2h.8V482.7H158v564.5Z" class="g1_123"/>
<path d="M852,1046.5h.7v-563H852v563Z" class="g1_123"/>
<path d="M70,483.5H852.7v-.8H70v.8Z" class="g1_123"/>
<path d="M70,527.7H852.7V527H70v.7Z" class="g1_123"/>
<path d="M70,556.8H852.7V556H70v.8Z" class="g1_123"/>
<path d="M70,585.8H852.7v-.7H70v.7Z" class="g1_123"/>
<path d="M70,631.7H852.7v-.8H70v.8Z" class="g1_123"/>
<path d="M70,677.5H852.7v-.7H70v.7Z" class="g1_123"/>
<path d="M70,723.3H852.7v-.7H70v.7Z" class="g1_123"/>
<path d="M70,752.4H852.7v-.7H70v.7Z" class="g1_123"/>
<path d="M70,781.4H852.7v-.8H70v.8Z" class="g1_123"/>
<path d="M70,810.4H852.7v-.7H70v.7Z" class="g1_123"/>
<path d="M70,839.5H852.7v-.8H70v.8Z" class="g1_123"/>
<path d="M70,868.5H852.7v-.8H70v.8Z" class="g1_123"/>
<path d="M70,914.3H852.7v-.7H70v.7Z" class="g1_123"/>
<path d="M70,943.3H852.7v-.7H70v.7Z" class="g1_123"/>
<path d="M70,972.4H852.7v-.7H70v.7Z" class="g1_123"/>
<path d="M70,1001.4H852.7v-.8H70v.8Z" class="g1_123"/>
<path d="M70,1047.2H852.7v-.7H70v.7Z" class="g1_123"/>
<path d="M326.9,176.8H590.2V157.7H326.9v19.1Z" class="g0_123"/>
<path d="M326.9,158H590.6v-.7H326.9v.7Z" class="g1_123"/>
<path d="M589.9,177.2h.7V157.7h-.7v19.5Z" class="g1_123"/>
<path d="M326.5,177.2H590.2v-.7H326.5v.7Z" class="g1_123"/>
<path d="M326.5,176.8h.8V157.3h-.8v19.5Z" class="g1_123"/>
<path d="M420.7,157.7h.5v-.2h-.5v.2Z" class="g1_123"/>
<path d="M420.7,176.4h.5V157.7h-.5v18.7Z" class="g1_123"/>
<path d="M256.9,332.5H259V332h-2.1v.5Z" class="g1_123"/>
<path d="M258.4,332.6L257,330.2l-1,-1.7l1.9,.6l8.3,2.4l2.6,.7l-2.6,.7l-8.3,2.4l-1.8,.6l.9,-1.7l.5,-.3l8.2,-2.4l.5,1.4h-.5l-8.2,-2.4l.4,-1.4l.5,.4l1.4,2.3Z" class="g1_123"/>
<path d="M257,334.2l1.4,-2.4h1.4l.2,.4l-.2,.4l-1.4,2.3Z" class="g1_123"/>
<path fill-rule="evenodd" d="M259,332.2l-1.3,-2.4l8.2,2.4l-8.2,2.4Z" class="g1_123"/>
<path d="M344.1,236h.5V177.3h-.5V236Z" class="g1_123"/>
<path d="M236.4,236H344.3v-.5H236.4v.5Z" class="g1_123"/>
<path d="M236.4,332.5h.5V235.7h-.5v96.8Z" class="g1_123"/>
<path d="M236.6,332.5h20.5V332H236.6v.5Z" class="g1_123"/>
<path d="M413.7,250.3H518.6v-.7H413.7v.7Z" class="g1_123"/>
<path d="M517.8,332.9h.8V250h-.8v82.9Z" class="g1_123"/>
<path d="M413.3,332.9H518.2v-.7H413.3v.7Z" class="g1_123"/>
<path d="M413.3,332.6h.8v-83h-.8v83Z" class="g1_123"/>
<path d="M414.1,302.2h.2v-.4h-.2v.4Z" class="g1_123"/>
<path d="M414.3,302.2H518.7v-.4H414.3v.4Z" class="g1_123"/>
<path d="M413.5,320.4h.2v-.5h-.2v.5Z" class="g1_123"/>
<path d="M413.7,320.4H518.4v-.5H413.7v.5Z" class="g1_123"/>
<path d="M568.4,213.2H673.2v-.7H568.4v.7Z" class="g1_123"/>
<path d="M672.5,312.5h.7V212.8h-.7v99.7Z" class="g1_123"/>
<path d="M568.1,312.5H672.8v-.7H568.1v.7Z" class="g1_123"/>
<path d="M568.1,312.1h.7V212.5h-.7v99.6Z" class="g1_123"/>
<path d="M568.4,231.1h.2v-.5h-.2v.5Z" class="g1_123"/>
<path d="M568.6,231.1H672.8v-.5H568.6v.5Z" class="g1_123"/>
<path d="M568.3,249.2h.2v-.5h-.2v.5Z" class="g1_123"/>
<path d="M568.5,249.2H673v-.5H568.5v.5Z" class="g1_123"/>
<path d="M400.9,312.3H403v-.5h-2.1v.5Z" class="g1_123"/>
<path d="M402.3,312.4L401,310l-1.1,-1.6l2,.5l8.2,2.4l2.6,.7l-2.6,.8l-8.2,2.3l-1.9,.6l1,-1.7l.4,-.3l8.3,-2.4l.4,1.5h-.4l-8.3,-2.4l.5,-1.5l.4,.4l1.4,2.4Z" class="g1_123"/>
<path d="M401,314l1.3,-2.3h1.4l.2,.3l-.2,.4l-1.4,2.4Z" class="g1_123"/>
<path fill-rule="evenodd" d="M403,312l-1.4,-2.4l8.2,2.4l-8.2,2.4Z" class="g1_123"/>
<path d="M390.6,312.3h.4V176.7h-.4V312.3Z" class="g1_123"/>
<path d="M390.8,312.3H401v-.5H390.8v.5Z" class="g1_123"/>
<path d="M400.4,332.5h2.1V332h-2.1v.5Z" class="g1_123"/>
<path d="M401.9,332.6l-1.4,-2.4l-1,-1.7l1.9,.6l8.3,2.4l2.5,.7l-2.5,.7l-8.3,2.4l-1.8,.6l.9,-1.7l.5,-.3l8.2,-2.4l.5,1.4h-.5L401,330.5l.4,-1.4l.5,.4l1.3,2.3Z" class="g1_123"/>
<path d="M400.5,334.2l1.4,-2.4h1.3l.2,.4l-.2,.4l-1.3,2.3Z" class="g1_123"/>
<path fill-rule="evenodd" d="M402.5,332.2l-1.4,-2.4l8.3,2.4l-8.3,2.4Z" class="g1_123"/>
<path d="M369,332.5h.2V332H369v.5Z" class="g1_123"/>
<path d="M369.2,332.5h31.4V332H369.2v.5Z" class="g1_123"/>
<path d="M556,312.1h2.2v-.4H556v.4Z" class="g1_123"/>
<path d="M557.5,312.2l-1.4,-2.4l-1,-1.6l2,.5l8.1,2.4l2.6,.7l-2.6,.8l-8.1,2.3l-2,.5l1,-1.6l.5,-.4l8.2,-2.3l.4,1.5h-.4l-8.2,-2.4l.5,-1.5l.4,.4l1.4,2.4Z" class="g1_123"/>
<path d="M556.1,313.8l1.4,-2.3h1.4l.3,.4l-.3,.4l-1.4,2.3Z" class="g1_123"/>
<path fill-rule="evenodd" d="M558.2,311.8l-1.4,-2.3l8.1,2.3l-8.1,2.3Z" class="g1_123"/>
<path d="M518,312.1h.2v-.4H518v.4Z" class="g1_123"/>
<path d="M518.2,312.1h37.9v-.4H518.2v.4Z" class="g1_123"/>
<path d="M556,240h2.2v-.5H556v.5Z" class="g1_123"/>
<path d="M557.5,240.1l-1.4,-2.4l-1,-1.7l2,.6l8.1,2.4l2.5,.7l-2.5,.7l-8.1,2.4l-1.9,.6l.9,-1.7l.5,-.3l8.2,-2.4l.4,1.4h-.4l-8.2,-2.3l.5,-1.5l.4,.4l1.4,2.3Z" class="g1_123"/>
<path d="M556.1,241.7l1.4,-2.4h1.4l.2,.4l-.2,.4l-1.4,2.4Z" class="g1_123"/>
<path fill-rule="evenodd" d="M558.2,239.7l-1.4,-2.4l8.1,2.4l-8.1,2.4Z" class="g1_123"/>
<path d="M546.6,240h.5V176.8h-.5V240Z" class="g1_123"/>
<path d="M546.8,240h9.3v-.5h-9.3v.5Z" class="g1_123"/>
<path d="M269.9,280.6h98.9v-.7H269.9v.7Z" class="g1_123"/>
<path d="M368,352.9h.8V280.2H368v72.7Z" class="g1_123"/>
<path d="M269.5,352.9h98.9v-.7H269.5v.7Z" class="g1_123"/>
<path d="M269.5,352.6h.7V279.9h-.7v72.7Z" class="g1_123"/>
<path d="M270.2,323h.2v-.4h-.2v.4Z" class="g1_123"/>
<path d="M270.4,323H369v-.4H270.4v.4Z" class="g1_123"/>
<path d="M269.7,341.1h.2v-.5h-.2v.5Z" class="g1_123"/>
<path d="M269.9,341.1h98.7v-.5H269.9v.5Z" class="g1_123"/>
<path d="M360.5,157.7h.5v-.2h-.5v.2Z" class="g1_123"/>
<path d="M360.5,176.4h.5V157.7h-.5v18.7Z" class="g1_123"/>
<path d="M314,167.7h2.1v-.4H314v.4Z" class="g1_123"/>
<path d="M315.4,167.9l-1.3,-2.3L313,163.9l2,.5l8.2,2.3l2.6,.8l-2.6,.7l-8.2,2.4l-1.9,.5l1,-1.6l.4,-.4l8.3,-2.4l.4,1.5h-.4l-8.3,-2.3l.5,-1.5l.4,.4l1.4,2.3Z" class="g1_123"/>
<path d="M314,169.5l1.4,-2.4h1.4l.2,.4l-.2,.3l-1.4,2.4Z" class="g1_123"/>
<path fill-rule="evenodd" d="M316.1,167.5l-1.4,-2.3l8.2,2.3l-8.2,2.4Z" class="g1_123"/>
<path d="M300.6,167.7h.2v-.4h-.2v.4Z" class="g1_123"/>
<path d="M300.8,167.7h13.3v-.4H300.8v.4Z" class="g1_123"/>
<path d="M243.4,279.9l.2,-.2l-.5,-.6l-.3,.3Z" class="g1_123"/>
<path d="M229.6,293.7l-.2,.3l-.6,-.6l.3,-.2Z" class="g1_123"/>
<path d="M243.4,279.9l-.6,-.5l-13.7,13.8l.5,.5Z" class="g1_123"/>
<path d="M397.2,219.5l.3,-.2l-.6,-.6l-.3,.3Z" class="g1_123"/>
<path d="M383.4,233.3l-.2,.3l-.6,-.6l.3,-.3Z" class="g1_123"/>
<path d="M397.2,219.5l-.6,-.5l-13.7,13.7l.5,.6Z" class="g1_123"/>
<path d="M553.1,197.4l.3,-.2l-.6,-.6l-.2,.3Z" class="g1_123"/>
<path d="M539.4,211.2l-.3,.3l-.6,-.6l.3,-.2Z" class="g1_123"/>
<path d="M553.1,197.4l-.5,-.5l-13.8,13.8l.6,.5Z" class="g1_123"/>
<path d="M546.7,305.2l.3,-.3l-.6,-.6l-.2,.3Z" class="g1_123"/>
<path d="M532.9,318.9l-.2,.3l-.6,-.6l.3,-.2Z" class="g1_123"/>
<path d="M546.7,305.2l-.5,-.6l-13.8,13.8l.5,.5Z" class="g1_123"/>
<path d="M393.2,326l.2,-.3l-.5,-.6l-.3,.3Z" class="g1_123"/>
<path d="M379.4,339.7l-.3,.3l-.5,-.6l.3,-.2Z" class="g1_123"/>
<path d="M393.2,326l-.6,-.6l-13.7,13.8l.5,.5Z" class="g1_123"/>
</svg>