<?xml version="1.0" encoding="UTF-8" standalone="no"?>
<!DOCTYPE svg PUBLIC "-//W3C//DTD SVG 1.1//EN"
"http://www.w3.org/Graphics/SVG/1.1/DTD/svg11.dtd">
<svg viewBox="0 0 935 1210" version="1.1" xmlns="http://www.w3.org/2000/svg" xmlns:xlink="http://www.w3.org/1999/xlink">
<defs>
<clipPath id="c0_1509"><path d="M97.3,59.2V41.4h72.1V59.2Z"/></clipPath>
<style type="text/css"><![CDATA[
.g0_1509{
fill: #000;
}
]]></style>
</defs>
<path d="M96.2,62.9v.3H838.7v-.3H96.2Z" class="g0_1509"/>
<path d="M96.2,1114.1h-.1v.4h.1v-.4Z" class="g0_1509"/>
<path d="M838.7,1114.1h.2v.4h-.2v-.4Z" class="g0_1509"/>
<path d="M96.2,1114.1v.4H838.7v-.4H96.2Z" class="g0_1509"/>
<image clip-path="url(#c0_1509)" preserveAspectRatio="none" x="97" y="41" width="72" height="18" xlink:href="img/1.jpg"/>
<path d="M96.6,152.7h-.7V407.5h.7V152.7Z" class="g0_1509"/>
<path d="M262.1,149.7h-.8V408.3h.8V149.7Z" class="g0_1509"/>
<path d="M309.4,149.7h-.8V408.3h.8V149.7Z" class="g0_1509"/>
<path d="M374.6,149.7h-.7V408.3h.7V149.7Z" class="g0_1509"/>
<path d="M459.9,149.7h-.8V408.3h.8V149.7Z" class="g0_1509"/>
<path d="M839.1,152.7h-.7V407.5h.7V152.7Z" class="g0_1509"/>
<path d="M95.9,149.8v3H839.1v-3H95.9Z" class="g0_1509"/>
<path d="M95.9,193.6v.7H839.1v-.7H95.9Z" class="g0_1509"/>
<path d="M95.9,233.4v.7H839.1v-.7H95.9Z" class="g0_1509"/>
<path d="M95.9,273.1v.7H839.1v-.7H95.9Z" class="g0_1509"/>
<path d="M95.9,312.9v.7H839.1v-.7H95.9Z" class="g0_1509"/>
<path d="M95.9,367.8v.8H839.1v-.8H95.9Z" class="g0_1509"/>
<path d="M95.9,407.5v.8H839.1v-.8H95.9Z" class="g0_1509"/>
</svg>