<?xml version="1.0" encoding="UTF-8" standalone="no"?>
<!DOCTYPE svg PUBLIC "-//W3C//DTD SVG 1.1//EN"
"http://www.w3.org/Graphics/SVG/1.1/DTD/svg11.dtd">
<svg viewBox="0 0 935 1210" version="1.1" xmlns="http://www.w3.org/2000/svg" xmlns:xlink="http://www.w3.org/1999/xlink">
<defs>
<style type="text/css"><![CDATA[
.g0_1232{
fill: #FFF;
}
.g1_1232{
fill: #000;
}
]]></style>
</defs>
<path d="M165,1149.3H852.5v-21.2H165v21.2Z" class="g0_1232"/>
<path d="M68.8,1149.3h82.5v-21.2H68.8v21.2Z" class="g0_1232"/>
<path d="M170.5,273.4h.7V125.7h-.7V273.4Z" class="g1_1232"/>
<path d="M749.8,273.4h.8V125.7h-.8V273.4Z" class="g1_1232"/>
<path d="M170.5,125.7H750.6v-.8H170.5v.8Z" class="g1_1232"/>
<path d="M170.5,274.3H750.6v-.8H170.5v.8Z" class="g1_1232"/>
<path d="M250.3,263.9h220V236.4h-220v27.5Z" class="g0_1232"/>
<path d="M250.3,236.8H470.7V236H250.3v.8Z" class="g1_1232"/>
<path d="M470,264.3h.7V236.4H470v27.9Z" class="g1_1232"/>
<path d="M250,264.3H470.3v-.8H250v.8Z" class="g1_1232"/>
<path d="M250,263.9h.7V236H250v27.9Z" class="g1_1232"/>
<path d="M304.8,236.4h.7V236h-.7v.4Z" class="g1_1232"/>
<path d="M304.8,264.3h.7V236.4h-.7v27.9Z" class="g1_1232"/>
<path d="M359.8,236.4h.7V236h-.7v.4Z" class="g1_1232"/>
<path d="M359.8,264.3h.7V236.4h-.7v27.9Z" class="g1_1232"/>
<path d="M414.9,236.4h.7V236h-.7v.4Z" class="g1_1232"/>
<path d="M414.9,264.3h.7V236.4h-.7v27.9Z" class="g1_1232"/>
<path d="M442.5,236.4h.7V236h-.7v.4Z" class="g1_1232"/>
<path d="M442.5,264.3h.7V236.4h-.7v27.9Z" class="g1_1232"/>
<path d="M332.5,236.4h.7V236h-.7v.4Z" class="g1_1232"/>
<path d="M332.5,264.3h.7V236.4h-.7v27.9Z" class="g1_1232"/>
<path d="M387.5,236.4h.7V236h-.7v.4Z" class="g1_1232"/>
<path d="M387.5,264.3h.7V236.4h-.7v27.9Z" class="g1_1232"/>
<path d="M277.5,236.4h.7V236h-.7v.4Z" class="g1_1232"/>
<path d="M277.5,264.3h.7V236.4h-.7v27.9Z" class="g1_1232"/>
<path d="M470.5,168h220V140.5h-220V168Z" class="g0_1232"/>
<path d="M470.5,140.9H690.9v-.7H470.5v.7Z" class="g1_1232"/>
<path d="M690.2,168.4h.7V140.5h-.7v27.9Z" class="g1_1232"/>
<path d="M470.2,168.4H690.5v-.7H470.2v.7Z" class="g1_1232"/>
<path d="M470.2,168h.7V140.2h-.7V168Z" class="g1_1232"/>
<path d="M524.9,140.5h.7v-.3h-.7v.3Z" class="g1_1232"/>
<path d="M524.9,168.4h.7V140.5h-.7v27.9Z" class="g1_1232"/>
<path d="M580,140.5h.7v-.3H580v.3Z" class="g1_1232"/>
<path d="M580,168.4h.7V140.5H580v27.9Z" class="g1_1232"/>
<path d="M635.1,140.5h.7v-.3h-.7v.3Z" class="g1_1232"/>
<path d="M635.1,168.4h.7V140.5h-.7v27.9Z" class="g1_1232"/>
<path d="M662.7,140.5h.7v-.3h-.7v.3Z" class="g1_1232"/>
<path d="M662.7,168.4h.7V140.5h-.7v27.9Z" class="g1_1232"/>
<path d="M552.7,140.5h.7v-.3h-.7v.3Z" class="g1_1232"/>
<path d="M552.7,168.4h.7V140.5h-.7v27.9Z" class="g1_1232"/>
<path d="M607.7,140.5h.7v-.3h-.7v.3Z" class="g1_1232"/>
<path d="M607.7,168.4h.7V140.5h-.7v27.9Z" class="g1_1232"/>
<path d="M497.7,140.5h.7v-.3h-.7v.3Z" class="g1_1232"/>
<path d="M497.7,168.4h.7V140.5h-.7v27.9Z" class="g1_1232"/>
<path d="M222.6,168.2h220V140.7h-220v27.5Z" class="g0_1232"/>
<path d="M222.6,141.1H442.9v-.8H222.6v.8Z" class="g1_1232"/>
<path d="M442.2,168.6h.7V140.7h-.7v27.9Z" class="g1_1232"/>
<path d="M222.2,168.6H442.6v-.8H222.2v.8Z" class="g1_1232"/>
<path d="M222.2,168.2h.7V140.3h-.7v27.9Z" class="g1_1232"/>
<path d="M277,140.7h.8v-.4H277v.4Z" class="g1_1232"/>
<path d="M277,168.6h.8V140.7H277v27.9Z" class="g1_1232"/>
<path d="M332,140.7h.8v-.4H332v.4Z" class="g1_1232"/>
<path d="M332,168.6h.8V140.7H332v27.9Z" class="g1_1232"/>
<path d="M387.1,140.7h.7v-.4h-.7v.4Z" class="g1_1232"/>
<path d="M387.1,168.6h.7V140.7h-.7v27.9Z" class="g1_1232"/>
<path d="M414.7,140.7h.7v-.4h-.7v.4Z" class="g1_1232"/>
<path d="M414.7,168.6h.7V140.7h-.7v27.9Z" class="g1_1232"/>
<path d="M304.7,140.7h.7v-.4h-.7v.4Z" class="g1_1232"/>
<path d="M304.7,168.6h.7V140.7h-.7v27.9Z" class="g1_1232"/>
<path d="M359.7,140.7h.7v-.4h-.7v.4Z" class="g1_1232"/>
<path d="M359.7,168.6h.7V140.7h-.7v27.9Z" class="g1_1232"/>
<path d="M249.7,140.7h.7v-.4h-.7v.4Z" class="g1_1232"/>
<path d="M249.7,168.6h.7V140.7h-.7v27.9Z" class="g1_1232"/>
<path d="M302.9,232.8l-.2,-.7l-1.6,.6l.2,.7Z" class="g1_1232"/>
<path d="M301.9,232.5l1.6,1.9l1,1.3l-1.6,.1l-8.6,.5l-2.6,.1l2.2,-1.6l6.9,-4.9l1.3,-.9v1.5l-.3,.7l-7,4.9l-.9,-1.3h.4l8.5,-.6l.1,1.6l-.7,-.3l-1.6,-1.9Z" class="g1_1232"/>
<path d="M302.1,230.5L302,233l-1.4,.6l-.1,-.3l-.1,-.3l.1,-2.5Z" class="g1_1232"/>
<path fill-rule="evenodd" d="M301.2,233l1.7,1.9l-8.6,.6l7,-5Z" class="g1_1232"/>
<path d="M484.3,168l.3,-.1l-.2,-.7l-.4,.1Z" class="g1_1232"/>
<path d="M303,232.8l-.4,.1l-.3,-.7l.4,-.1Z" class="g1_1232"/>
<path d="M484.3,168l-.3,-.7L302.7,232.1l.3,.7Z" class="g1_1232"/>
<path d="M359.2,232.3l-.3,-.8l-1.6,.6l.4,.7Z" class="g1_1232"/>
<path d="M358.1,231.9l1.7,1.9l1.1,1.2l-1.7,.2l-8.5,1l-2.6,.3l2.1,-1.7l6.7,-5.4l1.2,-1l.1,1.6l-.3,.6l-6.7,5.4l-1,-1.2l.4,-.1l8.6,-1v1.5l-.5,-.3L357,233Z" class="g1_1232"/>
<path d="M358.2,230l.1,2.5L357,233l-.2,-.3l-.1,-.2l-.1,-2.5Z" class="g1_1232"/>
<path fill-rule="evenodd" d="M357.5,232.5l1.7,1.9l-8.5,1l6.7,-5.4Z" class="g1_1232"/>
<path d="M511.2,168l.3,-.1l-.3,-.6l-.2,.1Z" class="g1_1232"/>
<path d="M359.2,232.3l-.2,.1l-.3,-.7l.3,-.1Z" class="g1_1232"/>
<path d="M511.2,168l-.2,-.6L359,231.6l.2,.7Z" class="g1_1232"/>
<path d="M412.1,231.5l-.3,-.7l-1.5,.7l.4,.8Z" class="g1_1232"/>
<path d="M411,231.4l1.9,1.7l1.1,1l-1.6,.3L404,236l-2.7,.5l2,-1.8l6.4,-5.8l1.2,-1.1v1.5l-.2,.7l-6.4,5.8l-1,-1.1l.4,-.2l8.4,-1.6l.3,1.5l-.6,-.2l-1.9,-1.7Z" class="g1_1232"/>
<path d="M410.9,229.3l.4,2.5l-1.4,.7l-.1,-.2V232l-.3,-2.5Z" class="g1_1232"/>
<path fill-rule="evenodd" d="M410.5,231.9l1.8,1.8l-8.4,1.5l6.3,-5.8Z" class="g1_1232"/>
<path d="M539.9,168l.3,-.2l-.4,-.6l-.2,.2Z" class="g1_1232"/>
<path d="M412.1,231.5l-.2,.2l-.4,-.6l.3,-.2Z" class="g1_1232"/>
<path d="M539.9,168l-.3,-.6L411.8,230.9l.3,.6Z" class="g1_1232"/>
<path d="M465.6,230.5l-.4,-.5l-1.4,.8l.4,.6Z" class="g1_1232"/>
<path d="M464.5,230.5l1.9,1.5l1.3,1l-1.6,.4l-8.1,2.3l-2.6,.7l1.7,-1.9l5.7,-6.3l1.1,-1.2l.3,1.4l-.2,.8l-5.7,6.3l-1.2,-1l.4,-.3l8.2,-2.3l.4,1.5l-.6,-.1l-1.9,-1.6Z" class="g1_1232"/>
<path d="M464.2,228.4l.5,2.5l-1.1,.8l-.3,-.2v-.2l-.6,-2.5Z" class="g1_1232"/>
<path fill-rule="evenodd" d="M464,231.1l1.9,1.6l-8.1,2.2l5.7,-6.3Z" class="g1_1232"/>
<path d="M566.1,168l.3,-.2l-.4,-.6l-.2,.2Z" class="g1_1232"/>
<path d="M465.6,230.6l-.3,.2l-.4,-.6l.3,-.2Z" class="g1_1232"/>
<path d="M566.1,168l-.3,-.6L465.2,230l.4,.6Z" class="g1_1232"/>
<path d="M417.8,230l-.3,.5l1.3,.9l.4,-.6Z" class="g1_1232"/>
<path d="M418.3,230.9l.4,-2.5L419,227l1.1,1.2l5.8,6.4l1.7,1.9l-2.5,-.7l-8.3,-2.4l-1.6,-.4l1.3,-1l.8,-.1l8.2,2.4l-.4,1.5l-.4,-.2l-5.8,-6.4l1.2,-1l.1,.6l-.5,2.5Z" class="g1_1232"/>
<path d="M416.5,232l2.1,-1.6l1.1,.9v.2l-.2,.2l-2,1.6Z" class="g1_1232"/>
<path fill-rule="evenodd" d="M419,231.1l.5,-2.5l5.7,6.4L417,232.7Z" class="g1_1232"/>
<path d="M319.7,169l-.2,-.1l-.4,.6l.3,.2Z" class="g1_1232"/>
<path d="M417.8,230l.3,.2l-.4,.6l-.2,-.2Z" class="g1_1232"/>
<path d="M319.7,169l-.3,.7l98,60.9l.4,-.6Z" class="g1_1232"/>
<path d="M365.5,228.8l-.6,.5l1.3,1.1l.6,-.6Z" class="g1_1232"/>
<path d="M365.7,229.8l.9,-2.4l.3,-1.5l1,1.4l5,7l1.6,2.1l-2.5,-1l-7.9,-3.3l-1.5,-.6l1.4,-.8h.6l7.9,3.3l-.5,1.4l-.4,-.3l-4.9,-6.9l1.2,-.9l.1,.7l-.8,2.4Z" class="g1_1232"/>
<path d="M364,230.7l2.1,-1.3l1.1,1l-.1,.2l-.3,.1l-2.1,1.3Z" class="g1_1232"/>
<path fill-rule="evenodd" d="M366.5,230.1l.8,-2.4l5,7l-7.9,-3.3Z" class="g1_1232"/>
<path d="M290.3,168.2L290,168l-.4,.6l.3,.2Z" class="g1_1232"/>
<path d="M365.5,228.8l.2,.2l-.4,.5l-.3,-.2Z" class="g1_1232"/>
<path d="M290.3,168.2l-.4,.6L365,229.3l.5,-.5Z" class="g1_1232"/>
<path d="M311.5,227.1l-.6,.6l1,1.2l.6,-.6Z" class="g1_1232"/>
<path d="M311.6,228.3l1.3,-2.2l.6,-1.4l.7,1.5l3.5,7.8l1,2.4l-2.1,-1.5l-7,-4.7l-1.3,-.9l1.3,-.4h.8l7,4.8l-.8,1.2l-.3,-.2l-3.4,-7.8l1.3,-.7l-.1,.7l-1.2,2.1Z" class="g1_1232"/>
<path d="M309.6,228.9l2.2,-.9l1.1,1l-.1,.3h-.3l-2.3,1Z" class="g1_1232"/>
<path fill-rule="evenodd" d="M312.2,228.6l1.3,-2.1l3.5,7.8l-7.1,-4.8Z" class="g1_1232"/>
<path d="M262.5,168.3l-.1,-.3l-.6,.5l.2,.3Z" class="g1_1232"/>
<path d="M311.5,227.2l.2,.3l-.6,.5l-.2,-.3Z" class="g1_1232"/>
<path d="M262.5,168.3l-.5,.5l48.9,58.9l.6,-.5Z" class="g1_1232"/>
<path d="M260.7,225.4l-.7,.2l.6,1.5l.7,-.1Z" class="g1_1232"/>
<path d="M260.4,226.5l1.9,-1.6l1.2,-1.2l.1,1.7l1,8.4l.1,2.6l-1.5,-2L258,227.7l-1.1,-1.3l1.6,-.1l.6,.4l5.3,6.7l-1.2,1l-.2,-.5l-.9,-8.4l1.5,-.1l-.2,.6l-1.9,1.6Z" class="g1_1232"/>
<path d="M258.5,226.3l2.5,-.1l.5,1.4l-.2,.2l-.3,.1l-2.5,.1Z" class="g1_1232"/>
<path fill-rule="evenodd" d="M261,227.1l1.8,-1.7l.9,8.4l-5.2,-6.7Z" class="g1_1232"/>
<path d="M238.1,168.4l-.1,-.3l-.7,.3l.1,.3Z" class="g1_1232"/>
<path d="M260.7,225.4l.1,.3l-.6,.3l-.1,-.3Z" class="g1_1232"/>
<path d="M238.1,168.4l-.7,.3l22.7,57l.6,-.3Z" class="g1_1232"/>
<path d="M425.2,512.4h220V484.9h-220v27.5Z" class="g0_1232"/>
<path d="M425.2,485.3H645.6v-.7H425.2v.7Z" class="g1_1232"/>
<path d="M644.9,512.8h.7V484.9h-.7v27.9Z" class="g1_1232"/>
<path d="M424.9,512.8H645.2v-.7H424.9v.7Z" class="g1_1232"/>
<path d="M424.9,512.4h.7V484.6h-.7v27.8Z" class="g1_1232"/>
<path d="M479.6,512.8h.7V484.6h-.7v28.2Z" class="g1_1232"/>
<path d="M534.7,512.8h.7V484.6h-.7v28.2Z" class="g1_1232"/>
<path d="M589.8,512.8h.7V484.6h-.7v28.2Z" class="g1_1232"/>
<path d="M617.4,512.8h.7V484.6h-.7v28.2Z" class="g1_1232"/>
<path d="M507.4,512.8h.7V484.6h-.7v28.2Z" class="g1_1232"/>
<path d="M562.4,512.8h.7V484.6h-.7v28.2Z" class="g1_1232"/>
<path d="M452.4,512.8h.7V484.6h-.7v28.2Z" class="g1_1232"/>
<path d="M472.9,416.5h220V389h-220v27.5Z" class="g0_1232"/>
<path d="M472.9,389.4H693.3v-.7H472.9v.7Z" class="g1_1232"/>
<path d="M692.5,416.9h.8V389h-.8v27.9Z" class="g1_1232"/>
<path d="M472.5,416.9H692.9v-.7H472.5v.7Z" class="g1_1232"/>
<path d="M472.5,416.5h.8V388.7h-.8v27.8Z" class="g1_1232"/>
<path d="M527.4,416.9h.7V388.7h-.7v28.2Z" class="g1_1232"/>
<path d="M582.4,416.9h.8V388.7h-.8v28.2Z" class="g1_1232"/>
<path d="M637.4,416.9h.8V388.7h-.8v28.2Z" class="g1_1232"/>
<path d="M665,416.9h.8V388.7H665v28.2Z" class="g1_1232"/>
<path d="M555,416.9h.8V388.7H555v28.2Z" class="g1_1232"/>
<path d="M610,416.9h.8V388.7H610v28.2Z" class="g1_1232"/>
<path d="M500,416.9h.8V388.7H500v28.2Z" class="g1_1232"/>
<path d="M225,416.7H445V389.2H225v27.5Z" class="g0_1232"/>
<path d="M225,389.6H445.4v-.7H225v.7Z" class="g1_1232"/>
<path d="M444.7,417.1h.7V389.2h-.7v27.9Z" class="g1_1232"/>
<path d="M224.7,417.1H445v-.7H224.7v.7Z" class="g1_1232"/>
<path d="M224.7,416.7h.7V388.9h-.7v27.8Z" class="g1_1232"/>
<path d="M279.4,417.1h.7V388.9h-.7v28.2Z" class="g1_1232"/>
<path d="M334.5,417.1h.7V388.9h-.7v28.2Z" class="g1_1232"/>
<path d="M389.6,417.1h.7V388.9h-.7v28.2Z" class="g1_1232"/>
<path d="M417.2,417.1h.7V388.9h-.7v28.2Z" class="g1_1232"/>
<path d="M307.2,417.1h.7V388.9h-.7v28.2Z" class="g1_1232"/>
<path d="M362.2,417.1h.7V388.9h-.7v28.2Z" class="g1_1232"/>
<path d="M252.2,417.1h.7V388.9h-.7v28.2Z" class="g1_1232"/>
<path d="M469,473.4l-.8,-.2l-.2,1.6l.7,.2Z" class="g1_1232"/>
<path d="M468.2,474.2l2.5,-.4l1.6,-.3l-.9,1.5l-4.1,7.5l-1.3,2.2l-.1,-2.5l-.5,-8.6l-.2,-1.6l1.4,.9l.3,.6l.5,8.6l-1.5,.1l.1,-.5l4.2,-7.5l1.2,.8l-.5,.3l-2.5,.4Z" class="g1_1232"/>
<path d="M466.6,472.9l2.2,1.4l-.4,1.4h-.3l-.2,-.1l-2.2,-1.4Z" class="g1_1232"/>
<path fill-rule="evenodd" d="M468.3,474.9l2.5,-.3l-4.1,7.5l-.6,-8.6Z" class="g1_1232"/>
<path d="M481.4,418.5l.1,-.4l-.7,-.2l-.1,.4Z" class="g1_1232"/>
<path d="M469,473.4l-.1,.3l-.8,-.2l.1,-.3Z" class="g1_1232"/>
<path d="M481.4,418.5l-.7,-.2l-12.5,54.9l.8,.2Z" class="g1_1232"/>
<path d="M520.1,473.1h-.7l.1,1.5h.7Z" class="g1_1232"/>
<path d="M519.5,473.9l2.3,-1.1l1.4,-.6l-.3,1.5l-1.6,8.5l-.5,2.6l-1,-2.4l-3.1,-7.9l-.5,-1.5l1.3,.4l.7,.4l3.1,7.9l-1.5,.7v-.5l1.6,-8.4l1.5,.2l-.4,.6l-2.3,1.1Z" class="g1_1232"/>
<path d="M517.6,473.4l2.3,.5l.3,1.5l-.3,.1l-.2,-.1l-2.4,-.6Z" class="g1_1232"/>
<path fill-rule="evenodd" d="M519.8,474.6l2.3,-1.1l-1.5,8.5l-3.1,-7.9Z" class="g1_1232"/>
<path d="M514.4,416.5v-.3l-.7,.1v.3Z" class="g1_1232"/>
<path d="M520.1,473.1v.4h-.7v-.3Z" class="g1_1232"/>
<path d="M514.4,416.5l-.7,.1l5.7,56.6l.7,-.1Z" class="g1_1232"/>
<path d="M580.8,473.7l-.7,-.2l-.6,1.6l.8,.2Z" class="g1_1232"/>
<path d="M579.9,474.4h2.5l1.5,-.1l-.9,1.4l-4.9,6.9l-1.5,2.2l.1,-2.6l.4,-8.6l.1,-1.5l1.2,.9l.3,.7l-.5,8.6l-1.5,-.1l.2,-.5l4.8,-7l1.3,1l-.6,.3h-2.5Z" class="g1_1232"/>
<path d="M578.4,473l1.9,1.6l-.4,1.4l-.3,-.1l-.2,-.1l-1.9,-1.5Z" class="g1_1232"/>
<path fill-rule="evenodd" d="M579.9,475.2h2.5l-4.9,7l.5,-8.6Z" class="g1_1232"/>
<path d="M599.7,419.5l.1,-.4l-.8,-.3l-.1,.4Z" class="g1_1232"/>
<path d="M580.8,473.8l-.1,.4l-.7,-.3l.1,-.3Z" class="g1_1232"/>
<path d="M599.7,419.5l-.8,-.3l-18.8,54.3l.7,.3Z" class="g1_1232"/>
<path d="M629.3,473h-.7v1.6h.8Z" class="g1_1232"/>
<path d="M628.7,473.9l2.2,-1l1.5,-.7l-.4,1.6l-1.7,8.4l-.5,2.6l-1,-2.4l-2.9,-8l-.5,-1.6l1.4,.5l.6,.4l2.9,8l-1.5,.7v-.5l1.8,-8.3l1.4,.2l-.3,.6l-2.3,1Z" class="g1_1232"/>
<path d="M626.8,473.3l2.4,.6l.2,1.5l-.3,.1l-.3,-.1l-2.3,-.7Z" class="g1_1232"/>
<path fill-rule="evenodd" d="M629,474.6l2.3,-1l-1.7,8.4l-3,-8Z" class="g1_1232"/>
<path d="M625.4,418.4V418l-.8,.1v.4Z" class="g1_1232"/>
<path d="M629.3,473v.4l-.7,.1v-.4Z" class="g1_1232"/>
<path d="M625.4,418.4l-.8,.1l4,54.6l.7,-.1Z" class="g1_1232"/>
<path d="M593.2,481.1l-.2,.7l1.6,.5l.1,-.8Z" class="g1_1232"/>
<path d="M593.8,482l-.1,-2.5l-.1,-1.6l1.4,.9l7.2,4.6l2.2,1.4h-2.6l-8.5,-.1l-1.7,-.1l.9,-1.1l.7,-.3l8.5,.1l.1,1.5l-.5,-.2l-7.1,-4.5l.8,-1.3l.3,.6l.1,2.5Z" class="g1_1232"/>
<path d="M592.5,483.5l1.5,-2.1l1.4,.5v.4l-.1,.1l-1.5,2Z" class="g1_1232"/>
<path fill-rule="evenodd" d="M594.6,481.9v-2.5l7.1,4.6l-8.5,-.1Z" class="g1_1232"/>
<path d="M381.1,418l-.3,-.1l-.2,.7l.4,.1Z" class="g1_1232"/>
<path d="M593.2,481.1l.3,.1l-.1,.7l-.4,-.1Z" class="g1_1232"/>
<path d="M381.1,418l-.1,.7l212,63.1l.2,-.7Z" class="g1_1232"/>
<path d="M536.9,480.6l-.2,.7l1.5,.6l.2,-.7Z" class="g1_1232"/>
<path d="M537.4,481.5v-4l1.3,.9l7,4.9l2.3,1.5l-2.8,-.1l-8.5,-.4l-1.5,-.1l.9,-1.2l.7,-.3l8.5,.5l-.1,1.5l-.3,-.1l-7,-4.9l.8,-1.3l.3,.7v2.5Z" class="g1_1232"/>
<path d="M536.1,483l1.5,-1.9l1.4,.5v.3l-.1,.1l-1.5,1.9Z" class="g1_1232"/>
<path fill-rule="evenodd" d="M538.3,481.5v-2.4l6.9,4.8l-8.5,-.4Z" class="g1_1232"/>
<path d="M351,418l-.4,-.1l-.2,.7l.3,.1Z" class="g1_1232"/>
<path d="M537,480.6l.4,.1l-.3,.7l-.4,-.1Z" class="g1_1232"/>
<path d="M351,418l-.3,.7l186,62.6l.3,-.7Z" class="g1_1232"/>
<path d="M481.9,481.8l-.2,.7l1.6,.5l.2,-.7Z" class="g1_1232"/>
<path d="M482.5,482.7l-.1,-2.5l-.1,-1.6l1.4,.9l7.2,4.6l2.2,1.5h-2.6l-8.5,-.1l-1.7,-.1l1,-1.2l.6,-.3l8.5,.1l.1,1.6l-.4,-.2l-7.2,-4.6l.8,-1.3l.4,.6l.1,2.4Z" class="g1_1232"/>
<path d="M481.3,484.2l1.4,-2l1.5,.3v.4l-.2,.2l-1.5,2Z" class="g1_1232"/>
<path fill-rule="evenodd" d="M483.4,482.6l-.1,-2.4l7.1,4.5l-8.5,-.1Z" class="g1_1232"/>
<path d="M273,418l-.4,-.1l-.2,.7l.4,.1Z" class="g1_1232"/>
<path d="M481.9,481.8l.4,.1l-.2,.7l-.4,-.1Z" class="g1_1232"/>
<path d="M273,418l-.2,.7l208.9,63.8l.2,-.7Z" class="g1_1232"/>
<path d="M427.2,480.6l-.2,.7l1.5,.6l.2,-.7Z" class="g1_1232"/>
<path d="M427.8,481.5l-.1,-2.5v-1.6l1.3,.9l7.1,5l2.2,1.5l-2.7,-.1l-8.5,-.4l-1.6,-.1l.9,-1.2l.8,-.3l8.5,.5l-.1,1.5l-.4,-.1l-7,-5l.8,-1.3l.4,.7l.1,2.5Z" class="g1_1232"/>
<path d="M426.4,483l1.6,-1.9l1.5,.4v.3l-.2,.2l-1.6,1.9Z" class="g1_1232"/>
<path fill-rule="evenodd" d="M428.6,481.5l-.1,-2.5l7.1,4.9l-8.5,-.4Z" class="g1_1232"/>
<path d="M240.1,417.1l-.4,-.1l-.3,.7l.4,.1Z" class="g1_1232"/>
<path d="M427.3,480.6l.3,.1l-.2,.7l-.4,-.1Z" class="g1_1232"/>
<path d="M240.1,417.1l-.3,.7L427,481.3l.3,-.7Z" class="g1_1232"/>
</svg>