<?xml version="1.0" encoding="UTF-8" standalone="no"?>
<!DOCTYPE svg PUBLIC "-//W3C//DTD SVG 1.1//EN"
"http://www.w3.org/Graphics/SVG/1.1/DTD/svg11.dtd">
<svg viewBox="0 0 935 1210" version="1.1" xmlns="http://www.w3.org/2000/svg" xmlns:xlink="http://www.w3.org/1999/xlink">
<defs>
<style type="text/css"><![CDATA[
.g0_2926{
fill: #FFF;
}
.g1_2926{
fill: #000;
}
]]></style>
</defs>
<path d="M68.8,1149.3H852.5v-21.2H68.8v21.2Z" class="g0_2926"/>
<path d="M68.6,1096.6h.7V124.1h-.7v972.5Z" class="g1_2926"/>
<path d="M467.2,246.4h.8v-123h-.8v123Z" class="g1_2926"/>
<path d="M467.2,402.2h.8V270.1h-.8V402.2Z" class="g1_2926"/>
<path d="M467.2,591.6h.8V425.9h-.8V591.6Z" class="g1_2926"/>
<path d="M467.2,781.1h.8V615.4h-.8V781.1Z" class="g1_2926"/>
<path d="M467.2,936.9h.8V804.8h-.8V936.9Z" class="g1_2926"/>
<path d="M467.2,1097.3h.8V960.7h-.8v136.6Z" class="g1_2926"/>
<path d="M849.8,1096.6h.8V124.1h-.8v972.5Z" class="g1_2926"/>
<path d="M68.6,124.1h782v-.7H68.6v.7Z" class="g1_2926"/>
<path d="M68.6,148.6h782v-.7H68.6v.7Z" class="g1_2926"/>
<path d="M68.6,173h782v-.8H68.6v.8Z" class="g1_2926"/>
<path d="M68.6,197.4h782v-.7H68.6v.7Z" class="g1_2926"/>
<path d="M68.6,221.9h782v-.7H68.6v.7Z" class="g1_2926"/>
<path d="M68.6,246.3h782v-.7H68.6v.7Z" class="g1_2926"/>
<path d="M68.6,270.8h782v-.7H68.6v.7Z" class="g1_2926"/>
<path d="M68.6,312h782v-.7H68.6v.7Z" class="g1_2926"/>
<path d="M68.6,353.3h782v-.7H68.6v.7Z" class="g1_2926"/>
<path d="M68.6,377.8h782V377H68.6v.8Z" class="g1_2926"/>
<path d="M68.6,402.2h782v-.7H68.6v.7Z" class="g1_2926"/>
<path d="M68.6,426.6h782v-.7H68.6v.7Z" class="g1_2926"/>
<path d="M68.6,467.9h782v-.8H68.6v.8Z" class="g1_2926"/>
<path d="M68.6,509.1h782v-.7H68.6v.7Z" class="g1_2926"/>
<path d="M68.6,550.4h782v-.8H68.6v.8Z" class="g1_2926"/>
<path d="M68.6,591.6h782v-.7H68.6v.7Z" class="g1_2926"/>
<path d="M68.6,616.1h782v-.7H68.6v.7Z" class="g1_2926"/>
<path d="M68.6,657.3h782v-.7H68.6v.7Z" class="g1_2926"/>
<path d="M68.6,698.6h782v-.7H68.6v.7Z" class="g1_2926"/>
<path d="M68.6,739.8h782v-.7H68.6v.7Z" class="g1_2926"/>
<path d="M68.6,781.1h782v-.7H68.6v.7Z" class="g1_2926"/>
<path d="M68.6,805.6h782v-.8H68.6v.8Z" class="g1_2926"/>
<path d="M68.6,846.8h782v-.7H68.6v.7Z" class="g1_2926"/>
<path d="M68.6,888.1h782v-.8H68.6v.8Z" class="g1_2926"/>
<path d="M68.6,912.5h782v-.8H68.6v.8Z" class="g1_2926"/>
<path d="M68.6,936.9h782v-.7H68.6v.7Z" class="g1_2926"/>
<path d="M68.6,961.4h782v-.7H68.6v.7Z" class="g1_2926"/>
<path d="M68.6,1007.2h782v-.7H68.6v.7Z" class="g1_2926"/>
<path d="M68.6,1048.5h782v-.7H68.6v.7Z" class="g1_2926"/>
<path d="M68.6,1072.9h782v-.8H68.6v.8Z" class="g1_2926"/>
<path d="M68.6,1097.3h782v-.7H68.6v.7Z" class="g1_2926"/>
</svg>