<?xml version="1.0" encoding="UTF-8" standalone="no"?>
<!DOCTYPE svg PUBLIC "-//W3C//DTD SVG 1.1//EN"
"http://www.w3.org/Graphics/SVG/1.1/DTD/svg11.dtd">
<svg viewBox="0 0 935 1210" version="1.1" xmlns="http://www.w3.org/2000/svg" xmlns:xlink="http://www.w3.org/1999/xlink">
<defs>
<style type="text/css"><![CDATA[
.g0_4671{
fill: #FFF;
}
.g1_4671{
fill: #000;
}
]]></style>
</defs>
<path d="M68.9,1149.3H852.7v-21.2H68.9v21.2Z" class="g0_4671"/>
<path d="M69.9,1095.1h.8v-971h-.8v971Z" class="g1_4671"/>
<path d="M126.7,1095.9h.7V164.6h-.7v931.3Z" class="g1_4671"/>
<path d="M183.4,1095.9h.8V123.4h-.8v972.5Z" class="g1_4671"/>
<path d="M427.1,1095.9h.7V123.4h-.7v972.5Z" class="g1_4671"/>
<path d="M520.2,1095.9h.7V123.4h-.7v972.5Z" class="g1_4671"/>
<path d="M854.4,1095.1h.8v-971h-.8v971Z" class="g1_4671"/>
<path d="M69.9,124.1H855.2v-.7H69.9v.7Z" class="g1_4671"/>
<path d="M69.9,165.4H184.2v-.8H69.9v.8Z" class="g1_4671"/>
<path d="M69.9,189.8H855.2v-.7H69.9v.7Z" class="g1_4671"/>
<path d="M183.4,214.2H855.2v-.7H183.4v.7Z" class="g1_4671"/>
<path d="M183.4,238.7H855.2V238H183.4v.7Z" class="g1_4671"/>
<path d="M183.4,263.2H855.2v-.8H183.4v.8Z" class="g1_4671"/>
<path d="M183.4,287.6H855.2v-.8H183.4v.8Z" class="g1_4671"/>
<path d="M183.4,312H855.2v-.7H183.4v.7Z" class="g1_4671"/>
<path d="M69.9,336.5H855.2v-.7H69.9v.7Z" class="g1_4671"/>
<path d="M69.9,420.6H855.2v-.8H69.9v.8Z" class="g1_4671"/>
<path d="M69.9,466.4H855.2v-.7H69.9v.7Z" class="g1_4671"/>
<path d="M69.9,545.8H855.2v-.7H69.9v.7Z" class="g1_4671"/>
<path d="M69.9,642H855.2v-.7H69.9v.7Z" class="g1_4671"/>
<path d="M69.9,687.9H855.2v-.8H69.9v.8Z" class="g1_4671"/>
<path d="M69.9,733.7H855.2V733H69.9v.7Z" class="g1_4671"/>
<path d="M183.4,779.5H855.2v-.7H183.4v.7Z" class="g1_4671"/>
<path d="M183.4,804H855.2v-.7H183.4v.7Z" class="g1_4671"/>
<path d="M183.4,900.3H855.2v-.8H183.4v.8Z" class="g1_4671"/>
<path d="M69.9,924.7H855.2V924H69.9v.7Z" class="g1_4671"/>
<path d="M69.9,949.1H855.2v-.7H69.9v.7Z" class="g1_4671"/>
<path d="M69.9,973.6H855.2v-.7H69.9v.7Z" class="g1_4671"/>
<path d="M69.9,998.1H855.2v-.8H69.9v.8Z" class="g1_4671"/>
<path d="M69.9,1022.5H855.2v-.8H69.9v.8Z" class="g1_4671"/>
<path d="M69.9,1046.9H855.2v-.7H69.9v.7Z" class="g1_4671"/>
<path d="M69.9,1071.4H855.2v-.7H69.9v.7Z" class="g1_4671"/>
<path d="M69.9,1095.8H855.2v-.8H69.9v.8Z" class="g1_4671"/>
</svg>