<?xml version="1.0" encoding="UTF-8" standalone="no"?>
<!DOCTYPE svg PUBLIC "-//W3C//DTD SVG 1.1//EN"
"http://www.w3.org/Graphics/SVG/1.1/DTD/svg11.dtd">
<svg viewBox="0 0 935 1210" version="1.1" xmlns="http://www.w3.org/2000/svg" xmlns:xlink="http://www.w3.org/1999/xlink">
<defs>
<clipPath id="c0_226"><path d="M97.2,59V41.4h72.2V59Z"/></clipPath>
<style type="text/css"><![CDATA[
.g0_226{
fill: #000;
}
.g1_226{
fill: #FFF;
stroke: #000;
stroke-width: 1.527;
}
.g2_226{
fill: none;
stroke: #000;
stroke-width: 1.527;
}
.g3_226{
fill: none;
stroke: #000;
stroke-width: 0.763;
}
.g4_226{
fill: #000;
stroke: #000;
stroke-width: 0.763;
}
]]></style>
</defs>
<path d="M96.1,63.1v.3H838.9v-.3H96.1Z" class="g0_226"/>
<path d="M96.1,1114.3v.3v-.3Z" class="g0_226"/>
<path d="M838.9,1114.3v.3v-.3Z" class="g0_226"/>
<path d="M96.1,1114.3v.3H838.9v-.3H96.1Z" class="g0_226"/>
<image clip-path="url(#c0_226)" preserveAspectRatio="none" x="97" y="41" width="72" height="18" xlink:href="img/1.jpg"/>
<path d="M393.8,449.9h-104v-22h104v22Z" class="g1_226"/>
<path d="M399.8,449.9h-6v-22h6v22Z" class="g2_226"/>
<path d="M553.4,511.7v13.5H271V392.1H396.8v23.7" class="g3_226"/>
<path d="M393,414.7l3.8,6.6l3.8,-6.6H393Z" class="g0_226"/>
<path d="M553.9,472.2v14.4" class="g4_226"/>
<path d="M557,485.5l-3.1,6.6l-3,-6.6H557Z" class="g0_226"/>
<path d="M443.8,454.1v17.5H608.5V454.1m-109.7,0v17.5m55,-17.5v17.5" class="g3_226"/>
<path d="M661.9,449.5h-55v-22h55v22Zm-55,0h-55v-22h55v22Zm-55,0h-55v-22h55v22Zm-55,0h-55v-22h55v22Z" class="g2_226"/>
</svg>