<?xml version="1.0" encoding="UTF-8" standalone="no"?>
<!DOCTYPE svg PUBLIC "-//W3C//DTD SVG 1.1//EN"
"http://www.w3.org/Graphics/SVG/1.1/DTD/svg11.dtd">
<svg viewBox="0 0 935 1210" version="1.1" xmlns="http://www.w3.org/2000/svg" xmlns:xlink="http://www.w3.org/1999/xlink">
<defs>
<clipPath id="c0_3267"><path d="M766.6,59.2V41.4h72.2V59.2Z"/></clipPath>
<style type="text/css"><![CDATA[
.g0_3267{
fill: #000;
}
]]></style>
</defs>
<path d="M97.4,63.3H839.9v-.4H97.4v.4Z" class="g0_3267"/>
<path d="M96.1,1114.5h.2v-.4h-.2v.4Z" class="g0_3267"/>
<path d="M96.3,1114.5H838.9v-.4H96.3v.4Z" class="g0_3267"/>
<image clip-path="url(#c0_3267)" preserveAspectRatio="none" x="767" y="41" width="72" height="18" xlink:href="img/1.jpg"/>
<path d="M96.4,360.2h.8v-180h-.8v180Z" class="g0_3267"/>
<path d="M267.8,331.9h.7V177.2h-.7V331.9Z" class="g0_3267"/>
<path d="M336.1,331.9h.7V177.2h-.7V331.9Z" class="g0_3267"/>
<path d="M838.4,360.2h.7v-180h-.7v180Z" class="g0_3267"/>
<path d="M96.3,180.3H839.1v-3H96.3v3Z" class="g0_3267"/>
<path d="M96.3,210.8H839.1v-3H96.3v3Z" class="g0_3267"/>
<path d="M96.3,240.3H839.1v-.8H96.3v.8Z" class="g0_3267"/>
<path d="M96.3,270.8H839.1v-.7H96.3v.7Z" class="g0_3267"/>
<path d="M96.3,301.3H839.1v-.7H96.3v.7Z" class="g0_3267"/>
<path d="M96.3,331.9H839.1v-.7H96.3v.7Z" class="g0_3267"/>
<path d="M96.3,360.9H839.1v-.7H96.3v.7Z" class="g0_3267"/>
<path d="M95.9,723.8h.7V420.1h-.7V723.8Z" class="g0_3267"/>
<path d="M248.2,724.5h.8V417.1h-.8V724.5Z" class="g0_3267"/>
<path d="M296.6,724.5h.8V417.1h-.8V724.5Z" class="g0_3267"/>
<path d="M358.2,724.5h.8V417.1h-.8V724.5Z" class="g0_3267"/>
<path d="M435.2,724.5h.8V417.1h-.8V724.5Z" class="g0_3267"/>
<path d="M841.1,723.8h.8V420.1h-.8V723.8Z" class="g0_3267"/>
<path d="M95.9,420.2h746v-3H95.9v3Z" class="g0_3267"/>
<path d="M95.9,462.9h746v-3H95.9v3Z" class="g0_3267"/>
<path d="M95.9,501.5h746v-.7H95.9v.7Z" class="g0_3267"/>
<path d="M95.9,541.2h746v-.7H95.9v.7Z" class="g0_3267"/>
<path d="M248.2,580.9H841.9v-.7H248.2v.7Z" class="g0_3267"/>
<path d="M95.9,605.4h746v-.8H95.9v.8Z" class="g0_3267"/>
<path d="M95.9,629.8h746v-.7H95.9v.7Z" class="g0_3267"/>
<path d="M95.9,669.5h746v-.7H95.9v.7Z" class="g0_3267"/>
<path d="M95.9,724.5h746v-.7H95.9v.7Z" class="g0_3267"/>
</svg>