<?xml version="1.0" encoding="UTF-8" standalone="no"?>
<!DOCTYPE svg PUBLIC "-//W3C//DTD SVG 1.1//EN"
"http://www.w3.org/Graphics/SVG/1.1/DTD/svg11.dtd">
<svg viewBox="0 0 935 1210" version="1.1" xmlns="http://www.w3.org/2000/svg" xmlns:xlink="http://www.w3.org/1999/xlink">
<defs>
<style type="text/css"><![CDATA[
.g0_1577{
fill: #FFF;
}
.g1_1577{
fill: #000;
}
]]></style>
</defs>
<path d="M68.9,1149.3H755.2v-21.2H68.9v21.2Z" class="g0_1577"/>
<path d="M771.3,1149.3H855v-21.2H771.3v21.2Z" class="g0_1577"/>
<path d="M69.9,1070.7h.8V107.3h-.8v963.4Z" class="g1_1577"/>
<path d="M324.6,1071.4h.7V106.6h-.7v964.8Z" class="g1_1577"/>
<path d="M373,1071.4h.7V106.6H373v964.8Z" class="g1_1577"/>
<path d="M446.3,1071.4h.8V106.6h-.8v964.8Z" class="g1_1577"/>
<path d="M534.1,1071.4h.8V106.6h-.8v964.8Z" class="g1_1577"/>
<path d="M854.4,1070.7h.8V107.3h-.8v963.4Z" class="g1_1577"/>
<path d="M69.9,107.3H855.3v-.7H69.9v.7Z" class="g1_1577"/>
<path d="M69.9,160.8H855.3v-.7H69.9v.7Z" class="g1_1577"/>
<path d="M69.9,217.3H855.3v-.7H69.9v.7Z" class="g1_1577"/>
<path d="M69.9,257H855.3v-.7H69.9v.7Z" class="g1_1577"/>
<path d="M69.9,313.6H855.3v-.7H69.9v.7Z" class="g1_1577"/>
<path d="M69.9,353.3H855.3v-.7H69.9v.7Z" class="g1_1577"/>
<path d="M69.9,393H855.3v-.8H69.9v.8Z" class="g1_1577"/>
<path d="M69.9,449.5H855.3v-.7H69.9v.7Z" class="g1_1577"/>
<path d="M69.9,506.1H855.3v-.7H69.9v.7Z" class="g1_1577"/>
<path d="M69.9,562.7H855.3v-.8H69.9v.8Z" class="g1_1577"/>
<path d="M69.9,619.1H855.3v-.7H69.9v.7Z" class="g1_1577"/>
<path d="M69.9,675.7H855.3v-.8H69.9v.8Z" class="g1_1577"/>
<path d="M69.9,732.2H855.3v-.7H69.9v.7Z" class="g1_1577"/>
<path d="M69.9,788.7H855.3V788H69.9v.7Z" class="g1_1577"/>
<path d="M69.9,845.3H855.3v-.8H69.9v.8Z" class="g1_1577"/>
<path d="M69.9,901.8H855.3v-.7H69.9v.7Z" class="g1_1577"/>
<path d="M69.9,958.3H855.3v-.7H69.9v.7Z" class="g1_1577"/>
<path d="M69.9,1014.8H855.3v-.7H69.9v.7Z" class="g1_1577"/>
<path d="M69.9,1071.4H855.3v-.7H69.9v.7Z" class="g1_1577"/>
</svg>