<?xml version="1.0" encoding="UTF-8" standalone="no"?>
<!DOCTYPE svg PUBLIC "-//W3C//DTD SVG 1.1//EN"
"http://www.w3.org/Graphics/SVG/1.1/DTD/svg11.dtd">
<svg viewBox="0 0 935 1210" version="1.1" xmlns="http://www.w3.org/2000/svg" xmlns:xlink="http://www.w3.org/1999/xlink">
<defs>
<style type="text/css"><![CDATA[
.g0_4931{
fill: #FFF;
}
.g1_4931{
fill: #000;
}
]]></style>
</defs>
<path d="M68.9,1149.3H852.7v-21.2H68.9v21.2Z" class="g0_4931"/>
<path d="M69.9,1072.1h.8v-948h-.8v948Z" class="g1_4931"/>
<path d="M126.7,1073h.7V164.6h-.7V1073Z" class="g1_4931"/>
<path d="M183.4,1073h.8V123.4h-.8V1073Z" class="g1_4931"/>
<path d="M418.5,1073h.7V123.4h-.7V1073Z" class="g1_4931"/>
<path d="M850.9,1072.1h.8v-948h-.8v948Z" class="g1_4931"/>
<path d="M69.9,124.1H851.7v-.7H69.9v.7Z" class="g1_4931"/>
<path d="M69.9,165.4H184.2v-.8H69.9v.8Z" class="g1_4931"/>
<path d="M69.9,189.8H851.7v-.7H69.9v.7Z" class="g1_4931"/>
<path d="M183.4,255.5H851.7v-.8H183.4v.8Z" class="g1_4931"/>
<path d="M183.4,279.9H851.7v-.7H183.4v.7Z" class="g1_4931"/>
<path d="M183.4,420.6H851.7v-.8H183.4v.8Z" class="g1_4931"/>
<path d="M183.4,444.9H851.7v-.7H183.4v.7Z" class="g1_4931"/>
<path d="M183.4,547.3H851.7v-.7H183.4v.7Z" class="g1_4931"/>
<path d="M183.4,571.8H851.7v-.7H183.4v.7Z" class="g1_4931"/>
<path d="M183.4,637.4H851.7v-.7H183.4v.7Z" class="g1_4931"/>
<path d="M69.9,661.9H851.7v-.7H69.9v.7Z" class="g1_4931"/>
<path d="M183.4,703.2H851.7v-.8H183.4v.8Z" class="g1_4931"/>
<path d="M183.4,765.8H851.7V765H183.4v.8Z" class="g1_4931"/>
<path d="M183.4,848.3H851.7v-.7H183.4v.7Z" class="g1_4931"/>
<path d="M69.9,872.8H851.7V872H69.9v.8Z" class="g1_4931"/>
<path d="M183.4,897.2H851.7v-.7H183.4v.7Z" class="g1_4931"/>
<path d="M183.4,993.5H851.7v-.7H183.4v.7Z" class="g1_4931"/>
<path d="M69.9,1072.9H851.7v-.8H69.9v.8Z" class="g1_4931"/>
</svg>