<?xml version="1.0" encoding="UTF-8" standalone="no"?>
<!DOCTYPE svg PUBLIC "-//W3C//DTD SVG 1.1//EN"
"http://www.w3.org/Graphics/SVG/1.1/DTD/svg11.dtd">
<svg viewBox="0 0 935 1210" version="1.1" xmlns="http://www.w3.org/2000/svg" xmlns:xlink="http://www.w3.org/1999/xlink">
<defs>
<style type="text/css"><![CDATA[
.g0_108{
fill: none;
stroke: #000;
stroke-width: 0.608;
stroke-miterlimit: 10;
}
]]></style>
</defs>
<path d="M258.8,124.5H705.2M258.5,144.9V124.2m148.8,20.7V124.2m105.5,20.7V124.2m192.1,20.7V124.2M258.5,165.6V144.9m148.8,20.7V144.9m105.5,20.7V144.9m192.1,20.7V144.9m-446.1,21H705.2M258.5,186.3V165.6m148.8,20.7V165.6m105.5,20.7V165.6m192.1,20.7V165.6m-446.1,21H705.2M258.5,207V186.3M407.3,207V186.3M512.8,207V186.3M704.9,207V186.3m-446.1,21H705.2M258.5,227.7V207m148.8,20.7V207m105.5,20.7V207m192.1,20.7V207M258.8,228H705.2M258.5,248.4V227.7m148.8,20.7V227.7m105.5,20.7V227.7m192.1,20.7V227.7m-446.1,21H705.2M258.5,269.1V248.4m148.8,20.7V248.4m105.5,20.7V248.4m192.1,20.7V248.4m-446.1,21H705.2M258.5,289.8V269.1m148.8,20.7V269.1m105.5,20.7V269.1m192.1,20.7V269.1m-446.1,21H705.2M258.5,310.5V289.8m148.8,20.7V289.8m105.5,20.7V289.8m192.1,20.7V289.8m-446.1,21H705.2M258.5,331.2V310.5m148.8,20.7V310.5m105.5,20.7V310.5m192.1,20.7V310.5m-446.1,21H705.2M258.5,351.9V331.2m148.8,20.7V331.2m105.5,20.7V331.2m192.1,20.7V331.2m-446.1,21H705.2M258.5,372.6V351.9m148.8,20.7V351.9m105.5,20.7V351.9m192.1,20.7V351.9m-446.1,21H705.2M258.5,393.3V372.6m148.8,20.7V372.6m105.5,20.7V372.6m192.1,20.7V372.6m-446.1,21H705.2M258.5,414.1V393.3m148.8,20.8V393.3m105.5,20.8V393.3m192.1,20.8V393.3M258.8,414.4H705.2M258.5,434.8V414.1m148.8,20.7V414.1m105.5,20.7V414.1m192.1,20.7V414.1m-446.1,21H705.2M258.5,455.5V434.8m148.8,20.7V434.8m105.5,20.7V434.8m192.1,20.7V434.8m-446.1,21H705.2M258.5,476.2V455.5m148.8,20.7V455.5m105.5,20.7V455.5m192.1,20.7V455.5m-446.1,21H705.2M258.5,496.9V476.2m148.8,20.7V476.2m105.5,20.7V476.2m192.1,20.7V476.2m-446.1,21H705.2M258.5,517.6V496.9m148.8,20.7V496.9m105.5,20.7V496.9m192.1,20.7V496.9m-446.1,21H705.2M258.5,538.3V517.6m148.8,20.7V517.6m105.5,20.7V517.6m192.1,20.7V517.6m-446.1,21H705.2M258.5,559V538.3M407.3,559V538.3M512.8,559V538.3M704.9,559V538.3m-446.1,21H705.2M258.5,579.7V559m148.8,20.7V559m105.5,20.7V559m192.1,20.7V559M258.8,580H705.2M258.5,600.4V579.7m148.8,20.7V579.7m105.5,20.7V579.7m192.1,20.7V579.7m-446.1,21H705.2M258.5,621.1V600.4m148.8,20.7V600.4m105.5,20.7V600.4m192.1,20.7V600.4m-446.1,21H705.2M258.5,641.8V621.1m148.8,20.7V621.1m105.5,20.7V621.1m192.1,20.7V621.1m-446.1,21H705.2M258.5,662.5V641.8m148.8,20.7V641.8m105.5,20.7V641.8m192.1,20.7V641.8m-446.1,21H705.2M258.5,683.2V662.5m148.8,20.7V662.5m105.5,20.7V662.5m192.1,20.7V662.5m-446.1,21H705.2M258.5,703.9V683.2m148.8,20.7V683.2m105.5,20.7V683.2m192.1,20.7V683.2m-446.1,21H705.2M258.5,724.6V703.9m148.8,20.7V703.9m105.5,20.7V703.9m192.1,20.7V703.9m-446.1,21H705.2M258.5,745.3V724.6m148.8,20.7V724.6m105.5,20.7V724.6m192.1,20.7V724.6m-446.1,21H705.2M258.5,766V745.3M407.3,766V745.3M512.8,766V745.3M704.9,766V745.3m-446.1,21H705.2M258.5,786.7V766m148.8,20.7V766m105.5,20.7V766m192.1,20.7V766M258.8,787H705.2M258.5,807.4V786.7m148.8,20.7V786.7m105.5,20.7V786.7m192.1,20.7V786.7m-446.1,21H705.2M258.5,828.1V807.4m148.8,20.7V807.4m105.5,20.7V807.4m192.1,20.7V807.4m-446.1,21H705.2M258.5,848.8V828.1m148.8,20.7V828.1m105.5,20.7V828.1m192.1,20.7V828.1m-446.1,21H705.2M258.5,869.5V848.8m148.8,20.7V848.8m105.5,20.7V848.8m192.1,20.7V848.8m-446.1,21H705.2M258.5,890.2V869.5m148.8,20.7V869.5m105.5,20.7V869.5m192.1,20.7V869.5m-446.1,21H705.2M258.5,910.9V890.2m148.8,20.7V890.2m105.5,20.7V890.2m192.1,20.7V890.2m-446.1,21H705.2M258.5,931.6V910.9m148.8,20.7V910.9m105.5,20.7V910.9m192.1,20.7V910.9m-446.1,21H705.2M258.5,952.3V931.6m148.8,20.7V931.6m105.5,20.7V931.6m192.1,20.7V931.6m-446.1,21H705.2M258.5,973V952.3M407.3,973V952.3M512.8,973V952.3M704.9,973V952.3m-446.1,21H705.2M258.5,993.7V973m148.8,20.7V973m105.5,20.7V973m192.1,20.7V973M258.8,994H705.2m-446.7,20.4V993.7m148.8,20.7V993.7m105.5,20.7V993.7m192.1,20.7V993.7m-446.1,21H705.2" class="g0_108"/>
</svg>