<?xml version="1.0" encoding="UTF-8" standalone="no"?>
<!DOCTYPE svg PUBLIC "-//W3C//DTD SVG 1.1//EN"
"http://www.w3.org/Graphics/SVG/1.1/DTD/svg11.dtd">
<svg viewBox="0 0 935 1210" version="1.1" xmlns="http://www.w3.org/2000/svg" xmlns:xlink="http://www.w3.org/1999/xlink">
<defs>
<clipPath id="c0_937"><path d="M766.6,59.2V41.4h72.1V59.2Z"/></clipPath>
<style type="text/css"><![CDATA[
.g0_937{
fill: #000;
}
]]></style>
</defs>
<path d="M97.3,62.9v.3H839.9v-.3H97.3Z" class="g0_937"/>
<path d="M96.2,1114.1h-.1v.3h.1v-.3Z" class="g0_937"/>
<path d="M838.7,1114.1h.2v.3h-.2v-.3Z" class="g0_937"/>
<path d="M96.2,1114.1v.3H838.7v-.3H96.2Z" class="g0_937"/>
<image clip-path="url(#c0_937)" preserveAspectRatio="none" x="767" y="41" width="72" height="18" xlink:href="img/1.jpg"/>
<path d="M192.9,197.4h-.8V526.7h.8V197.4Z" class="g0_937"/>
<path d="M275.4,343.4h-.8v184h.8v-184Z" class="g0_937"/>
<path d="M357.9,196.7h-.8V527.4h.8V196.7Z" class="g0_937"/>
<path d="M467.8,196.7h-.7V527.4h.7V196.7Z" class="g0_937"/>
<path d="M742.8,197.4h-.7V526.7h.7V197.4Z" class="g0_937"/>
<path d="M192.1,196.7v.7H742.8v-.7H192.1Z" class="g0_937"/>
<path d="M192.1,221.1v.7H742.8v-.7H192.1Z" class="g0_937"/>
<path d="M192.1,245.6v.7H742.8v-.7H192.1Z" class="g0_937"/>
<path d="M192.1,270v.8H742.8V270H192.1Z" class="g0_937"/>
<path d="M192.1,294.5v.7H742.8v-.7H192.1Z" class="g0_937"/>
<path d="M192.1,318.9v.7H742.8v-.7H192.1Z" class="g0_937"/>
<path d="M192.1,343.4v.7H742.8v-.7H192.1Z" class="g0_937"/>
<path d="M274.6,389.2v.7H742.8v-.7H274.6Z" class="g0_937"/>
<path d="M274.6,435v.8H742.8V435H274.6Z" class="g0_937"/>
<path d="M274.6,480.9v.7H742.8v-.7H274.6Z" class="g0_937"/>
<path d="M192.1,526.7v.7H742.8v-.7H192.1Z" class="g0_937"/>
</svg>