<?xml version="1.0" encoding="UTF-8" standalone="no"?>
<!DOCTYPE svg PUBLIC "-//W3C//DTD SVG 1.1//EN"
"http://www.w3.org/Graphics/SVG/1.1/DTD/svg11.dtd">
<svg viewBox="0 0 935 1210" version="1.1" xmlns="http://www.w3.org/2000/svg" xmlns:xlink="http://www.w3.org/1999/xlink">
<defs>
<style type="text/css"><![CDATA[
.g0_1032{
fill: #FFF;
}
.g1_1032{
fill: #000;
}
]]></style>
</defs>
<path d="M165,1149.3H852.5v-21.2H165v21.2Z" class="g0_1032"/>
<path d="M68.8,1149.3h82.5v-21.2H68.8v21.2Z" class="g0_1032"/>
<path d="M68.6,329.6h.7V131.8h-.7V329.6Z" class="g1_1032"/>
<path d="M210,330.4h.7V131H210V330.4Z" class="g1_1032"/>
<path d="M347.7,330.4h.7V131h-.7V330.4Z" class="g1_1032"/>
<path d="M407.6,330.4h.8V131h-.8V330.4Z" class="g1_1032"/>
<path d="M501.9,330.4h.7V131h-.7V330.4Z" class="g1_1032"/>
<path d="M850.6,329.6h.7V131.8h-.7V329.6Z" class="g1_1032"/>
<path d="M68.6,131.7H851.4V131H68.6v.7Z" class="g1_1032"/>
<path d="M68.6,169.9H851.4v-.7H68.6v.7Z" class="g1_1032"/>
<path d="M68.6,192.9H851.4v-.8H68.6v.8Z" class="g1_1032"/>
<path d="M68.6,215.8H851.4v-.7H68.6v.7Z" class="g1_1032"/>
<path d="M68.6,238.7H851.4V238H68.6v.7Z" class="g1_1032"/>
<path d="M68.6,261.6H851.4v-.7H68.6v.7Z" class="g1_1032"/>
<path d="M68.6,284.5H851.4v-.7H68.6v.7Z" class="g1_1032"/>
<path d="M68.6,307.4H851.4v-.7H68.6v.7Z" class="g1_1032"/>
<path d="M68.6,330.4H851.4v-.8H68.6v.8Z" class="g1_1032"/>
</svg>