<?xml version="1.0" encoding="UTF-8" standalone="no"?>
<!DOCTYPE svg PUBLIC "-//W3C//DTD SVG 1.1//EN"
"http://www.w3.org/Graphics/SVG/1.1/DTD/svg11.dtd">
<svg viewBox="0 0 935 1210" version="1.1" xmlns="http://www.w3.org/2000/svg" xmlns:xlink="http://www.w3.org/1999/xlink">
<defs>
<style type="text/css"><![CDATA[
.g0_763{
fill: #FFF;
}
.g1_763{
fill: #000;
}
]]></style>
</defs>
<path d="M68.9,1149.3H852.7v-21.2H68.9v21.2Z" class="g0_763"/>
<path d="M69.9,344.9h.8V124.1h-.8V344.9Z" class="g1_763"/>
<path d="M251.2,345.7h.7V123.4h-.7V345.7Z" class="g1_763"/>
<path d="M444.7,304.4h.7v-181h-.7v181Z" class="g1_763"/>
<path d="M661.1,345.7h.7V123.4h-.7V345.7Z" class="g1_763"/>
<path d="M852,344.9h.7V124.1H852V344.9Z" class="g1_763"/>
<path d="M69.9,124.1H852.7v-.7H69.9v.7Z" class="g1_763"/>
<path d="M69.9,148.6H852.7v-.7H69.9v.7Z" class="g1_763"/>
<path d="M69.9,189.8H852.7v-.7H69.9v.7Z" class="g1_763"/>
<path d="M69.9,214.2H852.7v-.7H69.9v.7Z" class="g1_763"/>
<path d="M69.9,255.5H852.7v-.8H69.9v.8Z" class="g1_763"/>
<path d="M69.9,279.9H852.7v-.7H69.9v.7Z" class="g1_763"/>
<path d="M69.9,304.4H852.7v-.7H69.9v.7Z" class="g1_763"/>
<path d="M69.9,345.7H852.7v-.8H69.9v.8Z" class="g1_763"/>
<path d="M70.9,1053.1h.7V719.2h-.7v333.9Z" class="g1_763"/>
<path d="M197.4,1053.8h.7V718.5h-.7v335.3Z" class="g1_763"/>
<path d="M459.4,1053.8h.8V718.5h-.8v335.3Z" class="g1_763"/>
<path d="M578,1053.8h.7V718.5H578v335.3Z" class="g1_763"/>
<path d="M851.1,1053.1h.8V719.2h-.8v333.9Z" class="g1_763"/>
<path d="M70.8,719.2H852v-.7H70.8v.7Z" class="g1_763"/>
<path d="M70.8,743.7H852V743H70.8v.7Z" class="g1_763"/>
<path d="M70.8,768.1H852v-.8H70.8v.8Z" class="g1_763"/>
<path d="M70.8,792.6H852v-.8H70.8v.8Z" class="g1_763"/>
<path d="M70.8,817H852v-.7H70.8v.7Z" class="g1_763"/>
<path d="M70.8,841.4H852v-.7H70.8v.7Z" class="g1_763"/>
<path d="M70.8,865.9H852v-.7H70.8v.7Z" class="g1_763"/>
<path d="M70.8,890.4H852v-.8H70.8v.8Z" class="g1_763"/>
<path d="M70.8,914.7H852V914H70.8v.7Z" class="g1_763"/>
<path d="M70.8,939.2H852v-.7H70.8v.7Z" class="g1_763"/>
<path d="M70.8,963.7H852V963H70.8v.7Z" class="g1_763"/>
<path d="M70.8,988.1H852v-.8H70.8v.8Z" class="g1_763"/>
<path d="M70.8,1012.6H852v-.8H70.8v.8Z" class="g1_763"/>
<path d="M70.8,1053.8H852v-.7H70.8v.7Z" class="g1_763"/>
</svg>