<?xml version="1.0" encoding="UTF-8" standalone="no"?>
<!DOCTYPE svg PUBLIC "-//W3C//DTD SVG 1.1//EN"
"http://www.w3.org/Graphics/SVG/1.1/DTD/svg11.dtd">
<svg viewBox="0 0 935 1210" version="1.1" xmlns="http://www.w3.org/2000/svg" xmlns:xlink="http://www.w3.org/1999/xlink">
<defs>
<style type="text/css"><![CDATA[
.g0_89{
fill: none;
stroke: #000;
stroke-width: 0.608;
stroke-miterlimit: 10;
}
.g1_89{
fill: none;
stroke: #000;
stroke-width: 1.521;
stroke-miterlimit: 10;
}
]]></style>
</defs>
<path d="M199.4,103.8H735.6m-535.9,21V104.1m535.6,20.7V104.1m-535.9,21H735.6m-535.9,21V125.4m60.6,20.7V125.4m61,20.7V125.4m414,20.7V125.4m-535.9,21H735.6m-535.9,21V146.7m60.6,20.7V146.7m61,20.7V146.7m414,20.7V146.7M199.7,188.1V167.4m60.6,20.7V167.4m61,20.7V167.4m414,20.7V167.4m-535.9,21H735.6m-536.2,3.7H735.6m-535.9,21V192.4m535.6,20.7V192.4m-535.9,21H735.6m-535.9,21V213.7m60.6,20.7V213.7m61,20.7V213.7m414,20.7V213.7m-535.9,21H735.6m-535.9,21V235m60.6,20.7V235m61,20.7V235m414,20.7V235M199.7,276.4V255.7m60.6,20.7V255.7m61,20.7V255.7m414,20.7V255.7M199.7,297.1V276.4m60.6,20.7V276.4m61,20.7V276.4m414,20.7V276.4M199.7,317.8V297.1m60.6,20.7V297.1m61,20.7V297.1m414,20.7V297.1M199.7,338.5V317.8m60.6,20.7V317.8m61,20.7V317.8m414,20.7V317.8M199.7,359.2V338.5m60.6,20.7V338.5m61,20.7V338.5m414,20.7V338.5M199.7,379.9V359.2m60.6,20.7V359.2m61,20.7V359.2m414,20.7V359.2M199.7,400.6V379.9m60.6,20.7V379.9m61,20.7V379.9m414,20.7V379.9m-535.9,21H735.6" class="g0_89"/>
<path d="M151.7,620.5H783.3m-631.6,237H783.3" class="g1_89"/>
</svg>