<?xml version="1.0" encoding="UTF-8" standalone="no"?>
<!DOCTYPE svg PUBLIC "-//W3C//DTD SVG 1.1//EN"
"http://www.w3.org/Graphics/SVG/1.1/DTD/svg11.dtd">
<svg viewBox="0 0 825 990" version="1.1" xmlns="http://www.w3.org/2000/svg" xmlns:xlink="http://www.w3.org/1999/xlink">
<defs>
<style type="text/css"><![CDATA[
.g0_1103{
fill: #000;
}
]]></style>
</defs>
<path d="M94.9,910.3h.3v-.8h-.3v.8Z" class="g0_1103"/>
<path d="M95.2,910.3h650v-.8H95.2v.8Z" class="g0_1103"/>
<path d="M94.5,179.7H744.9v-.8H94.5v.8Z" class="g0_1103"/>
<path d="M94.5,216H744.9v-.8H94.5v.8Z" class="g0_1103"/>
<path d="M94.5,261.5H744.9v-.2H94.5v.2Z" class="g0_1103"/>
<path d="M94.5,307.4H744.9v-.2H94.5v.2Z" class="g0_1103"/>
<path d="M94.5,336.3H744.9v-.2H94.5v.2Z" class="g0_1103"/>
<path d="M94.5,382.2H744.9V382H94.5v.2Z" class="g0_1103"/>
<path d="M94.5,478.5H744.9v-.2H94.5v.2Z" class="g0_1103"/>
<path d="M94.5,591.5H744.9v-.2H94.5v.2Z" class="g0_1103"/>
<path d="M94.5,688.1H744.9v-.8H94.5v.8Z" class="g0_1103"/>
</svg>