<?xml version="1.0" encoding="UTF-8" standalone="no"?>
<!DOCTYPE svg PUBLIC "-//W3C//DTD SVG 1.1//EN"
"http://www.w3.org/Graphics/SVG/1.1/DTD/svg11.dtd">
<svg viewBox="0 0 935 1210" version="1.1" xmlns="http://www.w3.org/2000/svg" xmlns:xlink="http://www.w3.org/1999/xlink">
<defs>
<style type="text/css"><![CDATA[
.g0_303{
fill: #FFF;
}
.g1_303{
fill: #000;
}
]]></style>
</defs>
<path d="M68.9,1149.3H852.7v-21.2H68.9v21.2Z" class="g0_303"/>
<path d="M69.9,1087.4h.8V179.1h-.8v908.3Z" class="g1_303"/>
<path d="M126.7,1088.2h.7V219.6h-.7v868.6Z" class="g1_303"/>
<path d="M183.4,1088.2h.8V178.4h-.8v909.8Z" class="g1_303"/>
<path d="M427.6,1088.2h.8V178.4h-.8v909.8Z" class="g1_303"/>
<path d="M521.1,1088.2h.8V178.4h-.8v909.8Z" class="g1_303"/>
<path d="M852.1,1087.4h.8V179.1h-.8v908.3Z" class="g1_303"/>
<path d="M69.9,179.1h783v-.7H69.9v.7Z" class="g1_303"/>
<path d="M69.9,220.4H184.2v-.8H69.9v.8Z" class="g1_303"/>
<path d="M69.9,244.8h783v-.7H69.9v.7Z" class="g1_303"/>
<path d="M183.4,341.1H852.9v-.7H183.4v.7Z" class="g1_303"/>
<path d="M183.4,365.5H852.9v-.8H183.4v.8Z" class="g1_303"/>
<path d="M183.4,545.8H852.9v-.7H183.4v.7Z" class="g1_303"/>
<path d="M183.4,658.9H852.9v-.7H183.4v.7Z" class="g1_303"/>
<path d="M69.9,683.3h783v-.7H69.9v.7Z" class="g1_303"/>
<path d="M183.4,762.8H852.9V762H183.4v.8Z" class="g1_303"/>
<path d="M69.9,804h783v-.7H69.9v.7Z" class="g1_303"/>
<path d="M183.4,883.5H852.9v-.8H183.4v.8Z" class="g1_303"/>
<path d="M69.9,924.7h783V924H69.9v.7Z" class="g1_303"/>
<path d="M183.4,966H852.9v-.8H183.4v.8Z" class="g1_303"/>
<path d="M183.4,990.4H852.9v-.8H183.4v.8Z" class="g1_303"/>
<path d="M183.4,1014.8H852.9v-.7H183.4v.7Z" class="g1_303"/>
<path d="M183.4,1039.3H852.9v-.7H183.4v.7Z" class="g1_303"/>
<path d="M183.4,1063.7H852.9v-.7H183.4v.7Z" class="g1_303"/>
<path d="M69.9,1088.2h783v-.8H69.9v.8Z" class="g1_303"/>
</svg>