<?xml version="1.0" encoding="UTF-8" standalone="no"?>
<!DOCTYPE svg PUBLIC "-//W3C//DTD SVG 1.1//EN"
"http://www.w3.org/Graphics/SVG/1.1/DTD/svg11.dtd">
<svg viewBox="0 0 935 1210" version="1.1" xmlns="http://www.w3.org/2000/svg" xmlns:xlink="http://www.w3.org/1999/xlink">
<defs>
<style type="text/css"><![CDATA[
.g0_1790{
fill: #FFF;
}
.g1_1790{
fill: #000;
}
]]></style>
</defs>
<path d="M165,1149.3H852.5v-21.2H165v21.2Z" class="g0_1790"/>
<path d="M68.8,1149.3h82.5v-21.2H68.8v21.2Z" class="g0_1790"/>
<path d="M68.6,195.2h.7V122.6h-.7v72.6Z" class="g1_1790"/>
<path d="M137.2,196h.8V121.8h-.8V196Z" class="g1_1790"/>
<path d="M258.2,196h.8V121.8h-.8V196Z" class="g1_1790"/>
<path d="M400.2,196h.8V121.8h-.8V196Z" class="g1_1790"/>
<path d="M549.1,196h.7V121.8h-.7V196Z" class="g1_1790"/>
<path d="M696.9,196h.8V121.8h-.8V196Z" class="g1_1790"/>
<path d="M841,195.2h.7V122.6H841v72.6Z" class="g1_1790"/>
<path d="M68.6,122.6H841.8v-.8H68.6v.8Z" class="g1_1790"/>
<path d="M68.6,147H841.8v-.7H68.6v.7Z" class="g1_1790"/>
<path d="M68.6,171.5H841.8v-.7H68.6v.7Z" class="g1_1790"/>
<path d="M68.6,195.9H841.8v-.7H68.6v.7Z" class="g1_1790"/>
</svg>