<?xml version="1.0" encoding="UTF-8" standalone="no"?>
<!DOCTYPE svg PUBLIC "-//W3C//DTD SVG 1.1//EN"
"http://www.w3.org/Graphics/SVG/1.1/DTD/svg11.dtd">
<svg viewBox="0 0 935 1210" version="1.1" xmlns="http://www.w3.org/2000/svg" xmlns:xlink="http://www.w3.org/1999/xlink">
<defs>
<clipPath id="c0_2195"><path d="M97.3,59.2V41.4h72.1V59.2Z"/></clipPath>
<style type="text/css"><![CDATA[
.g0_2195{
fill: #000;
}
]]></style>
</defs>
<path d="M96.3,63.3H838.8v-.4H96.3v.4Z" class="g0_2195"/>
<path d="M96.1,1114.5h.2v-.4h-.2v.4Z" class="g0_2195"/>
<path d="M96.3,1114.5H838.9v-.4H96.3v.4Z" class="g0_2195"/>
<image clip-path="url(#c0_2195)" preserveAspectRatio="none" x="97" y="41" width="73" height="18" xlink:href="img/1.jpg"/>
<path d="M95.9,1004.9h.7v-68h-.7v68Z" class="g0_2195"/>
<path d="M216,1005.7h.7V936.2H216v69.5Z" class="g0_2195"/>
<path d="M293.3,1005.7h.8V936.2h-.8v69.5Z" class="g0_2195"/>
<path d="M839.1,1004.9h.7v-68h-.7v68Z" class="g0_2195"/>
<path d="M95.9,936.9h744v-.7H95.9v.7Z" class="g0_2195"/>
<path d="M95.9,961h744v-3H95.9v3Z" class="g0_2195"/>
<path d="M95.9,982.8h744V982H95.9v.8Z" class="g0_2195"/>
<path d="M95.9,1005.7h744v-.8H95.9v.8Z" class="g0_2195"/>
</svg>