<?xml version="1.0" encoding="UTF-8" standalone="no"?>
<!DOCTYPE svg PUBLIC "-//W3C//DTD SVG 1.1//EN"
"http://www.w3.org/Graphics/SVG/1.1/DTD/svg11.dtd">
<svg viewBox="0 0 935 1210" version="1.1" xmlns="http://www.w3.org/2000/svg" xmlns:xlink="http://www.w3.org/1999/xlink">
<defs>
<style type="text/css"><![CDATA[
.g0_2923{
fill: #FFF;
}
.g1_2923{
fill: #000;
}
]]></style>
</defs>
<path d="M68.9,1149.3H852.7v-21.2H68.9v21.2Z" class="g0_2923"/>
<path d="M69.9,1085.9h.8V124.1h-.8v961.8Z" class="g1_2923"/>
<path d="M447.2,255.6h.8V123.4h-.8V255.6Z" class="g1_2923"/>
<path d="M447.2,394.5h.8V279.2h-.8V394.5Z" class="g1_2923"/>
<path d="M447.2,554.9h.8V418.3h-.8V554.9Z" class="g1_2923"/>
<path d="M447.2,694h.8V578.7h-.8V694Z" class="g1_2923"/>
<path d="M447.2,833.1h.8V717.7h-.8V833.1Z" class="g1_2923"/>
<path d="M447.2,972.1h.8V856.7h-.8V972.1Z" class="g1_2923"/>
<path d="M447.2,1086.7h.8V995.8h-.8v90.9Z" class="g1_2923"/>
<path d="M853,1085.9h.7V124.1H853v961.8Z" class="g1_2923"/>
<path d="M69.9,124.1H853.7v-.7H69.9v.7Z" class="g1_2923"/>
<path d="M69.9,148.6H853.7v-.7H69.9v.7Z" class="g1_2923"/>
<path d="M69.9,173H853.7v-.8H69.9v.8Z" class="g1_2923"/>
<path d="M69.9,214.2H853.7v-.7H69.9v.7Z" class="g1_2923"/>
<path d="M69.9,255.5H853.7v-.8H69.9v.8Z" class="g1_2923"/>
<path d="M69.9,279.9H853.7v-.7H69.9v.7Z" class="g1_2923"/>
<path d="M69.9,304.4H853.7v-.7H69.9v.7Z" class="g1_2923"/>
<path d="M69.9,328.8H853.7v-.7H69.9v.7Z" class="g1_2923"/>
<path d="M69.9,370.1H853.7v-.8H69.9v.8Z" class="g1_2923"/>
<path d="M69.9,394.5H853.7v-.7H69.9v.7Z" class="g1_2923"/>
<path d="M69.9,419H853.7v-.7H69.9v.7Z" class="g1_2923"/>
<path d="M69.9,443.5H853.7v-.8H69.9v.8Z" class="g1_2923"/>
<path d="M69.9,467.9H853.7v-.8H69.9v.8Z" class="g1_2923"/>
<path d="M69.9,509.1H853.7v-.7H69.9v.7Z" class="g1_2923"/>
<path d="M69.9,554.9H853.7v-.7H69.9v.7Z" class="g1_2923"/>
<path d="M69.9,579.4H853.7v-.7H69.9v.7Z" class="g1_2923"/>
<path d="M69.9,603.9H853.7v-.7H69.9v.7Z" class="g1_2923"/>
<path d="M69.9,628.3H853.7v-.7H69.9v.7Z" class="g1_2923"/>
<path d="M69.9,669.5H853.7v-.7H69.9v.7Z" class="g1_2923"/>
<path d="M69.9,694H853.7v-.7H69.9v.7Z" class="g1_2923"/>
<path d="M69.9,718.5H853.7v-.8H69.9v.8Z" class="g1_2923"/>
<path d="M69.9,742.9H853.7v-.8H69.9v.8Z" class="g1_2923"/>
<path d="M69.9,767.3H853.7v-.7H69.9v.7Z" class="g1_2923"/>
<path d="M69.9,808.6H853.7v-.7H69.9v.7Z" class="g1_2923"/>
<path d="M69.9,833.1H853.7v-.8H69.9v.8Z" class="g1_2923"/>
<path d="M69.9,857.5H853.7v-.8H69.9v.8Z" class="g1_2923"/>
<path d="M69.9,881.9H853.7v-.7H69.9v.7Z" class="g1_2923"/>
<path d="M69.9,906.4H853.7v-.7H69.9v.7Z" class="g1_2923"/>
<path d="M69.9,947.7H853.7v-.8H69.9v.8Z" class="g1_2923"/>
<path d="M69.9,972H853.7v-.7H69.9v.7Z" class="g1_2923"/>
<path d="M69.9,996.5H853.7v-.7H69.9v.7Z" class="g1_2923"/>
<path d="M69.9,1021H853.7v-.7H69.9v.7Z" class="g1_2923"/>
<path d="M69.9,1045.4H853.7v-.8H69.9v.8Z" class="g1_2923"/>
<path d="M69.9,1086.6H853.7v-.7H69.9v.7Z" class="g1_2923"/>
</svg>