<?xml version="1.0" encoding="UTF-8" standalone="no"?>
<!DOCTYPE svg PUBLIC "-//W3C//DTD SVG 1.1//EN"
"http://www.w3.org/Graphics/SVG/1.1/DTD/svg11.dtd">
<svg viewBox="0 0 935 1210" version="1.1" xmlns="http://www.w3.org/2000/svg" xmlns:xlink="http://www.w3.org/1999/xlink">
<defs>
<style type="text/css"><![CDATA[
.g0_428{
fill: #FFF;
}
.g1_428{
fill: #000;
}
]]></style>
</defs>
<path d="M68.8,1149.3H852.5v-21.2H68.8v21.2Z" class="g0_428"/>
<path d="M68.6,1096.6h.7V124.1h-.7v972.5Z" class="g1_428"/>
<path d="M125.3,1097.3h.7V164.6h-.7v932.7Z" class="g1_428"/>
<path d="M182.1,1097.3h.7V123.4h-.7v973.9Z" class="g1_428"/>
<path d="M417.1,1097.3h.7V123.4h-.7v973.9Z" class="g1_428"/>
<path d="M849.6,1096.6h.7V124.1h-.7v972.5Z" class="g1_428"/>
<path d="M68.6,124.1H850.3v-.7H68.6v.7Z" class="g1_428"/>
<path d="M68.6,165.4H182.8v-.8H68.6v.8Z" class="g1_428"/>
<path d="M68.6,189.8H850.3v-.7H68.6v.7Z" class="g1_428"/>
<path d="M68.6,304.4H850.3v-.7H68.6v.7Z" class="g1_428"/>
<path d="M68.6,405.3H850.3v-.8H68.6v.8Z" class="g1_428"/>
<path d="M68.6,539.7H850.3V539H68.6v.7Z" class="g1_428"/>
<path d="M68.6,674.1H850.3v-.7H68.6v.7Z" class="g1_428"/>
<path d="M68.6,758.2H850.3v-.8H68.6v.8Z" class="g1_428"/>
<path d="M68.6,782.7H850.3v-.8H68.6v.8Z" class="g1_428"/>
<path d="M68.6,807H850.3v-.7H68.6v.7Z" class="g1_428"/>
<path d="M68.6,903.3H850.3v-.7H68.6v.7Z" class="g1_428"/>
<path d="M68.6,927.8H850.3V927H68.6v.8Z" class="g1_428"/>
<path d="M68.6,952.2H850.3v-.7H68.6v.7Z" class="g1_428"/>
<path d="M68.6,1048.5H850.3v-.7H68.6v.7Z" class="g1_428"/>
<path d="M68.6,1072.9H850.3v-.8H68.6v.8Z" class="g1_428"/>
<path d="M68.6,1097.3H850.3v-.7H68.6v.7Z" class="g1_428"/>
</svg>