<?xml version="1.0" encoding="UTF-8" standalone="no"?>
<!DOCTYPE svg PUBLIC "-//W3C//DTD SVG 1.1//EN"
"http://www.w3.org/Graphics/SVG/1.1/DTD/svg11.dtd">
<svg viewBox="0 0 935 1210" version="1.1" xmlns="http://www.w3.org/2000/svg" xmlns:xlink="http://www.w3.org/1999/xlink">
<defs>
<style type="text/css"><![CDATA[
.g0_1281{
fill: #FFF;
}
.g1_1281{
fill: #000;
}
.g2_1281{
fill: #E6E6E6;
}
.g3_1281{
fill: #C0C0C0;
}
]]></style>
</defs>
<path d="M68.9,1149.3H852.7v-21.2H68.9v21.2Z" class="g0_1281"/>
<path d="M70.3,155.8v-1.5Z" class="g1_1281"/>
<path d="M70.3,155.8H852.4v-1.5H70.3v1.5Z" class="g1_1281"/>
<path d="M77.8,895.5h.8v-391h-.8v391Z" class="g1_1281"/>
<path d="M844.2,895.5h.7v-391h-.7v391Z" class="g1_1281"/>
<path d="M77.8,504.5H844.9v-.7H77.8v.7Z" class="g1_1281"/>
<path d="M77.8,896.3H844.9v-.7H77.8v.7Z" class="g1_1281"/>
<path fill-rule="evenodd" d="M371.5,645h-1.1l-1.1,.2l-1,.2l-1,.4c-1.5,.5,-3.2,1.8,-4.2,3.1l-.7,.9l-.5,.9c-.9,1.6,-1.3,3.5,-1.4,5.3v62.8l.1,1.1c.6,5.5,5.4,10,10.9,9.9H511.4l1.1,-.2c5.2,-1.1,8.7,-5.6,8.8,-10.8V656c-.2,-5.8,-4.1,-10.4,-9.9,-11H371.5Z" class="g2_1281"/>
<path d="M371.5,645.3h-1.1h.1l-1.1,.2l-1,.3h.1l-1,.4l-1,.4l-.9,.6l.1,-.1l-.9,.6l-.8,.8l-.6,.7h.1l-.7,.9V650l-.5,.9l-.5,.9l-.4,1.1v-.1l-.2,1.1L361,655l-.1,1.1V656v62.8l.1,1.1l.2,1.1l.2,1l.4,1l.5,1v-.1l.5,.8l.7,.9h-.1l.6,.8v-.1l.8,.7l.9,.7h-.1l.9,.5l1,.5v-.1l1,.3h-.1l1,.3l1.1,.2h-.1h141l1.1,-.2h-.1l1,-.3l1,-.3v.1l1,-.5l.3,.6l-1,.5l-1,.4h-.1l-1,.2l-1.1,.2h-140c-1.7,.2,-3.8,-.5,-5.3,-1.3h-.1l-.9,-.5v-.1c-2,-1.5,-2.3,-1.8,-3.6,-3.9l-.4,-1.1h-.1l-.4,-1v-.1l-.3,-1l-.2,-1.1V654.9l.2,-1.1v-.1l.3,-1.1l.4,-1l.1,-.1l.4,-.9l.6,-1l.6,-.9l.7,-.7v-.1l.9,-.7l.8,-.7l.9,-.5h.1l1,-.5v-.1l1,-.3l1,-.3h.1l1.1,-.2h1.1Z" class="g2_1281"/>
<path d="M515.4,728.2l.9,-.5l.8,-.7l.8,-.7l-.1,.1l.7,-.8l.6,-.9l.6,-.8v.1l.4,-1H520l.4,-1l.3,-1v.1l.2,-1.1V656v.1V655l-.2,-1.1l-.3,-1.1v.1l-.4,-1.1h.1l-.4,-.9l-.6,-.9v.1l-.6,-.9l-.7,-.7h.1l-.8,-.8l-.8,-.6v.1l-.9,-.6l-1,-.4l-1,-.4l-1,-.3h.1l-1.1,-.2H371.5v-.7h140l1.1,.2l1,.3h.1l1,.3v.1l1,.5c1.3,.6,2.4,1.5,3.3,2.7h.1l.7,.9l.5,1c.9,1.6,1.3,3.5,1.4,5.4v62.8c0,1.9,-.7,4.8,-1.9,6.3v.1l-.7,.9H519l-.6,.7l-.8,.8l-.9,.6l-.1,.1l-.9,.5Z" class="g2_1281"/>
<path d="M362.1,592.6H361h.1l-1.1,.2l-1.1,.3h.1l-1,.4l-1,.4l-.9,.6l.1,-.1l-.8,.6l-.8,.7l-.8,.8h.1l-.6,.9v-.1l-.6,.9l-.4,.9l-.4,1V600l-.3,1.1l-.2,2.2V853.1l.2,2.1l.3,1.1l.4,1v-.1l.4,.9l.6,.9h-.1l.6,.8l.8,.9v-.1l1.6,1.3h-.1l.9,.5l1,.5v-.1l1,.3h-.1l1.1,.3l1.1,.2l1.1,.1h-.1h172l1.1,-.1l1.1,-.2h-.1l1.1,-.3l1,-.3l-.1,.1l.9,-.5l.4,.6l-1,.5l-1,.4h-.1l-1.1,.2l-1.1,.2l-1.1,.1h-172l-1.1,-.1l-1.1,-.2h-.1l-1.1,-.2l-1,-.4h-.1l-.9,-.5l-.9,-.5v-.1c-1.9,-1.4,-2.6,-1.8,-3.7,-3.9l-.5,-1h-.1l-.3,-1v-.1l-.3,-1.1l-.1,-1.1l-.1,-1.1V603.3l.1,-1.1l.1,-1.1V601l.3,-1.1l.3,-1l.1,-.1l.5,-.9l.5,-1c1.1,-2,5,-4.6,7.3,-4.8l1.1,-.2h1.1Z" class="g1_1281"/>
<path d="M539.1,862.4l.9,-.5l1.7,-1.3l-.1,.1l.7,-.9l.5,-.8l.6,-.9l.5,-.9v.1l.4,-1h-.1l.4,-2.1l.1,-1.1V603.3l-.1,-1l-.4,-2.2h.1l-.4,-1l-.5,-.9l-1.1,-1.8v.1l-.7,-.8h.1l-.9,-.7l-.8,-.6v.1l-.9,-.6l-.9,-.4h.1l-1,-.4l-1.1,-.3h.1l-1.1,-.2H362.1v-.7H535.2l1.1,.2l1.1,.3h.1l1,.3v.1l1,.5l.9,.5h.1l.8,.7l.8,.7l.8,.8l1.1,1.9c.5,1,1.2,2,1.1,3.2l.2,1.1l.1,1.1V853.1c0,1.1,-.3,2.3,-.4,3.4l-.5,1l-.5,1c-.7,1.2,-1.4,2.4,-2.7,3.3l-.8,.6l-.1,.1l-.9,.5Z" class="g1_1281"/>
<path d="M325.6,595.5h2.1V595h-2.1v.5Z" class="g1_1281"/>
<path d="M327.1,595.7l-1.4,-2.3l-1.1,-1.8l2,.6l8.3,2.3l2.5,.7l-2.5,.7l-8.3,2.4l-1.8,.6l.9,-1.7l.4,-.4l8.3,-2.3l.5,1.4h-.5l-8.3,-2.3l.5,-1.4l.5,.3l1.3,2.3Z" class="g1_1281"/>
<path d="M325.7,597.2l1.4,-2.4h1.3l.2,.4l-.2,.4l-1.3,2.3Z" class="g1_1281"/>
<path fill-rule="evenodd" d="M327.7,595.2l-1.4,-2.3l8.3,2.3l-8.3,2.4Z" class="g1_1281"/>
<path d="M275.7,595.5h.2V595h-.2v.5Z" class="g1_1281"/>
<path d="M275.9,595.5h49.9V595H275.9v.5Z" class="g1_1281"/>
<path fill-rule="evenodd" d="M370.6,744.2h-1.1l-1.1,.2l-1,.3c-10.5,3.6,-7.6,15,-7.8,23.7v13.3l.1,1.1c.7,5.7,5.1,10,10.9,9.9H509.4l2.2,-.1c5.1,-1.1,8.7,-5.7,8.8,-10.9V755.2c-.2,-5.7,-4.1,-10.3,-9.9,-11H370.6Z" class="g2_1281"/>
<path d="M370.6,744.6h-1.1h.1l-1.1,.2l-1,.3h.1l-1,.3l-1,.5l-.9,.5l-.8,.6l-.8,.7l-.6,.8l-.6,.9v-.1l-.5,.9l-.5,.9l-.4,1V752l-.2,1.1l-.2,1.1l-.1,1.1v-.1v26.5l.1,1.1l.2,1.1v-.1l.2,1.1l.4,1.1v-.1l.5,.9l.5,.9h-.1l1.3,1.6l.8,.7l.8,.6l.9,.6l1,.4v-.1l1,.4h-.1l1,.3l2.2,.2h-.1H509.4l2.2,-.2h-.1l1,-.3l1,-.4v.1l1,-.4h-.1l.4,.6l-1,.5l-1,.3h-.1l-1,.3l-2.2,.2H370.6c-2.4,-.1,-3,-.2,-5.3,-1.3h-.1l-.9,-.5v-.1c-1.7,-1.2,-2.6,-2.2,-3.6,-4.1l-.4,-.9h-.1l-.4,-1v-.1l-.3,-1.1l-.2,-1.1l-.1,-1.1V755.2l.1,-1.1l.2,-1.1l.3,-1.2l.4,-1l.1,-.1l.4,-.9l.6,-.9l.6,-.9l.6,-.7l.1,-.1l.9,-.8l.8,-.6l.9,-.5h.1l1,-.5v-.1l1,-.4l1,-.2h.1l1.1,-.2h1.1Z" class="g2_1281"/>
<path d="M514.4,791.2l1,-.6l.8,-.6l.8,-.8l-.1,.1l1.3,-1.6l.5,-.9l.5,-.9h-.1l.4,-1l.3,-1.1v.1l.1,-1.1l.1,-1.1V755.2v.1l-.1,-1.1l-.1,-1.1l-.3,-1.1v.1l-.4,-1h.1l-.5,-.9l-.5,-.9v.1l-.6,-.9l-.7,-.8h.1l-.8,-.7l-.8,-.7v.1l-1,-.5h.1l-1,-.5l-1,-.3l-1,-.3h.1l-1.1,-.2H370.6v-.7h140l1.1,.2l1,.2h.1l1,.4v.1l1,.4c1.3,.7,2.4,1.6,3.3,2.8h.1l.6,.9l.6,.9l.4,.9v.1l.4,1l.3,1.2l.2,1.1l.1,1.1v26.6l-.1,1.1l-.2,1.1c-.4,2.7,-2.5,5.6,-4.7,7.2l-.1,.1l-.9,.5Z" class="g2_1281"/>
<path fill-rule="evenodd" d="M370.6,796.8h-1.1l-1.1,.1l-1,.3c-10.6,3.7,-7.5,14.8,-7.8,23.8v13.3l.1,1.1c.6,5.6,5.3,9.9,10.9,9.9H509.4l2.2,-.2c5.2,-1.3,8.6,-5.5,8.8,-10.8V807.8c-.2,-5.7,-4.2,-10.4,-9.9,-11H370.6Z" class="g2_1281"/>
<path d="M370.6,797.1h-1.1h.1l-1.1,.2l-1,.3h.1l-1,.4l-1,.4l-.9,.6v-.1l-.8,.6l-.8,.8l-.6,.7l-.6,.9v-.1l-.5,.8l-.5,1l-.4,1.1v-.1l-.2,1.1l-.2,1l-.1,1.2v-.1v26.5l.1,1.1l.2,1.1v-.1l.2,1.1l.4,1v-.1l.5,.9l.5,.9h-.1l1.3,1.7v-.1l.8,.7h-.1l.9,.6l.9,.5l1,.6v-.1l1,.3h-.1l1,.3l2.2,.2h-.1H509.4l2.2,-.2h-.1l1,-.3l1,-.3l-.1,.1l1,-.6l.4,.7l-1,.5l-1,.4h-.1l-1,.2l-2.2,.2H370.6l-1.1,-.1c-1.3,.1,-3.2,-.6,-4.3,-1.2l-.9,-.6l-.8,-.5v-.1c-1.1,-.8,-2.2,-2.3,-2.8,-3.4l-.4,-.9h-.1l-.4,-1.1l-.3,-1.1l-.2,-1.1l-.1,-1.1V807.8l.1,-1.2l.2,-1v-.1l.3,-1.1l.4,-1h.1l.4,-1v-.1l.6,-.9l.6,-.9l.6,-.7l.1,-.1l.9,-.7l.8,-.7l.9,-.5h.1l1,-.5v-.1l1,-.3l1,-.3h.1l1.1,-.2h1.1Z" class="g2_1281"/>
<path d="M514.4,843.6l1,-.5l.8,-.6l.8,-.7l-.1,.1l1.3,-1.7l.5,-.9l.5,-.9l-.1,.1l.4,-1l.3,-1.1v.1l.1,-1.1l.1,-1.1V807.8v.1l-.1,-1.2l-.1,-1l-.3,-1.1l-.4,-1h.1l-.5,-1l-.5,-.8v.1l-.6,-.9l-.7,-.8h.1l-.8,-.7l-.8,-.6v.1l-1,-.6h.1l-1,-.4l-1,-.4l-1,-.3h.1l-1.1,-.2H370.6v-.7h140l1.1,.2l1,.3h.1l1,.3v.1l1,.5c1.3,.6,2.4,1.5,3.3,2.7h.1l.6,.9l.6,.9v.1l.4,1l.4,1l.3,1.1v.1l.2,1l.1,1.2v26.5l-.1,1.2l-.2,1.1c-.4,2.5,-2.1,4.9,-4,6.5l-.8,.6l-.9,.5Z" class="g2_1281"/>
<path fill-rule="evenodd" d="M369.1,535.4h-1.2l-1.1,.2l-1,.3c-10.8,4,-7.1,14.2,-7.7,23.7V574c.5,5.5,5.5,10.1,11,9.9H507.8l2.2,-.2c5.1,-1.1,8.9,-5.4,8.8,-10.8V546.4c.1,-5.7,-4.3,-10.4,-9.9,-11H369.1Z" class="g3_1281"/>
<path d="M369.1,535.8h-1.2h.1l-1.1,.2l-1,.3h.1l-1,.3l-1,.5l-.8,.5h.1l-.9,.7v-.1l-1.5,1.4h.1l-.7,1v-.1l-.5,.8l-.5,1l-.3,1v-.1l-.3,1l-.2,1.1v-.1V574l.2,1.1V575l.3,1.1l.3,1V577l.5,1l.5,.9h-.1l.7,.8l.7,.8v-.1l.8,.8h-.1l.9,.5l.8,.6l1,.5v-.1l1,.4h-.1l1,.3l1.1,.1l1.2,.1h-.1H507.8l2.2,-.2h-.1l1.1,-.3l1.1,-.4l-.1,.1l.9,-.5l.3,.6l-.9,.6l-1,.3h-.1l-1.1,.3l-2.2,.2H369.1l-1.2,-.1l-1.1,-.1l-1.1,-.3l-1,-.3h-.1l-1,-.6l-.8,-.5l-.9,-.6l-.8,-.8l-.8,-.8l-.6,-.9v-.1l-.5,-.9l-.5,-.9h-.1l-.4,-1v-.1l-.2,-1.1l-.2,-1.1V545.2l.2,-1.1V544l.2,-1l.4,-1h.1l.5,-1v-.1l.5,-.8l.6,-.9v-.1l1.5,-1.5h.1l.9,-.6l.8,-.6h.1l1,-.4v-.1l1,-.4l1.1,-.3l1.1,-.1h1.2Z" class="g3_1281"/>
<path d="M512.9,582.3l.9,-.6l.8,-.5l.8,-.8v.1l.7,-.8l.6,-.8l.6,-.9l.4,-1l-.1,.1l.4,-1l.3,-1.1v.1l.1,-1.1l.1,-1.1V546.4v.1l-.1,-1.2l-.1,-1.1l-.3,-1v.1l-.4,-1h.1l-.4,-1l-.6,-.8v.1l-.6,-1l-.7,-.7l-.8,-.7l-.8,-.7v.1l-.9,-.5l-.9,-.5h.1l-1.1,-.3l-1.1,-.3h.1l-1.1,-.2H369.1v-.7H509l1.1,.1l1.1,.3h.1l1,.4v.1l.9,.4l1,.6h.1l.8,.6l.8,.8l.8,.8l.7,.9l.5,.8v.1l.5,1l.3,1l.3,1v.1l.1,1.1l.1,1.2v13.2c-1.1,7,2.7,17,-4.2,22.2l-.8,.6l-1,.5Z" class="g3_1281"/>
<path fill-rule="evenodd" d="M389.6,687l-2.2,.1l-1.1,.3c-7.9,3.1,-8.3,9.3,-7.7,17v6.3l.1,1.2c.3,5.3,5.5,10.1,10.9,9.8H491l1.1,-.2c4.9,-1,8.9,-5.7,8.7,-10.8V698c.2,-5.4,-4.5,-10.7,-9.8,-11H389.6Z" class="g3_1281"/>
<path d="M389.7,687.3l-2.2,.2l-1.1,.3h.1l-1,.3l-1.9,1.1l-.8,.6l.1,-.1l-.8,.7l-.8,.9l.1,-.1l-.5,.8l-1.1,1.8l-.4,1v-.1l-.3,1.1l-.1,1.1l-.1,1.1v12.7l.1,1.2l.1,1.1v-.1l.3,1l.4,1v-.1l.5,1l.6,.9l.5,.9l-.1,-.1l.8,.7l.8,.7l.8,.7h-.1l.9,.5l1,.5v-.1l1,.4h-.1l1.1,.2l1.1,.2h-.1H491l1.1,-.2H492l1,-.2l1,-.4v.1l1,-.5h-.1l.4,.7l-1,.4l-1,.4h-.1l-1,.3l-1.1,.2H388.5l-1.1,-.2h-.1l-1.1,-.3l-1,-.4h-.1l-.9,-.4l-.9,-.6v-.1c-2.3,-1.8,-2.1,-1.4,-3.6,-3.9l-.6,-1H379l-.3,-1v-.1l-.3,-1l-.1,-1.1l-.1,-1.2V698l.2,-2.3l.3,-1.1l.3,-1.1h.1l.6,-1c1.1,-2.6,4.9,-5.3,7.7,-5.7l2.2,-.2Z" class="g3_1281"/>
<path d="M494.9,720.1l.8,-.5l1,-.7h-.1l1.4,-1.4v.1l.7,-1l.5,-.8v.1l.5,-1h-.1l.3,-1l.3,-1v.1l.2,-1.1V696.8v.1l-.2,-1.1l-.3,-1.1v.1l-.3,-1h.1l-.5,-.9l-.5,-.9v.1l-.7,-.8l-.7,-.9l-.7,-.7l.1,.1l-1,-.6l-.8,-.5l-1,-.6h.1l-1,-.3l-1,-.3h.1l-1.1,-.1l-1.2,-.1H389.6h.1l-.1,-.7H489.9l1.2,.1l1.1,.1l1,.2h.1l1,.4v.1l1,.5c2.5,1.5,2.1,1.3,3.9,3.6h.1l.6,.9l.4,1l.4,1.1l.3,1.1l.1,1.1v15.1c-.1,1.5,-.8,3.9,-1.8,5.1v.1l-.6,.9h-.1l-1.5,1.5v.1l-.9,.6h-.1l-.8,.6Z" class="g3_1281"/>
<path d="M330.5,862.6h2.1v-.5h-2.1v.5Z" class="g1_1281"/>
<path d="M331.9,862.7l-1.3,-2.4l-1.1,-1.7l2,.6l8.2,2.4l2.7,.7l-2.7,.7l-8.2,2.3l-2,.6l1.1,-1.7l.4,-.3l8.3,-2.3l.4,1.4h-.4L331,860.7l.5,-1.5l.4,.4l1.4,2.3Z" class="g1_1281"/>
<path d="M330.6,864.2l1.3,-2.3h1.4l.3,.5l-.3,.4l-1.4,2.3Z" class="g1_1281"/>
<path fill-rule="evenodd" d="M332.6,862.3l-1.4,-2.4l8.2,2.4l-8.2,2.3Z" class="g1_1281"/>
<path d="M280.6,862.6h.2v-.5h-.2v.5Z" class="g1_1281"/>
<path d="M280.8,862.6h49.8v-.5H280.8v.5Z" class="g1_1281"/>
<path d="M279.5,685.8h-.2l.2,.5l.2,-.1Z" class="g1_1281"/>
<path d="M284.8,683.4l.2,-.1l.2,.4l-.2,.1Z" class="g1_1281"/>
<path d="M279.5,685.8l.2,.4l5.3,-2.4l-.2,-.4Z" class="g1_1281"/>
<path fill-rule="evenodd" d="M293.5,679.5l-.2,.1l.2,.5l.2,-.1Z" class="g1_1281"/>
<path fill-rule="evenodd" d="M304.2,674.8l.1,-.1l.2,.4l-.2,.1Z" class="g1_1281"/>
<path fill-rule="evenodd" d="M293.5,679.5l.2,.5l10.6,-4.8l-.1,-.4Z" class="g1_1281"/>
<path fill-rule="evenodd" d="M312.9,670.9l-.2,.1l.2,.5l.1,-.1Z" class="g1_1281"/>
<path fill-rule="evenodd" d="M323.4,666.1l.2,-.1l.2,.5l-.2,.1Z" class="g1_1281"/>
<path fill-rule="evenodd" d="M312.9,670.9l.1,.5l10.6,-4.8l-.2,-.5Z" class="g1_1281"/>
<path fill-rule="evenodd" d="M332.1,662.3l-.2,.1l.2,.4l.2,-.1Z" class="g1_1281"/>
<path fill-rule="evenodd" d="M342.7,657.5l.2,-.1l.2,.5l-.2,.1Z" class="g1_1281"/>
<path fill-rule="evenodd" d="M332.1,662.3l.2,.4L342.9,658l-.2,-.5Z" class="g1_1281"/>
<path d="M351.4,653.7l-.1,.1l.1,.4l.2,-.1Z" class="g1_1281"/>
<path d="M356.8,651.3l.2,-.1l.1,.5H357Z" class="g1_1281"/>
<path d="M351.4,653.7l.2,.4l5.4,-2.4l-.2,-.4Z" class="g1_1281"/>
<path d="M279.7,691.9l-.2,-.1l-.2,.5l.2,.1Z" class="g1_1281"/>
<path d="M285,694.3l.2,.1l-.2,.4l-.2,-.1Z" class="g1_1281"/>
<path d="M279.7,691.9l-.2,.5l5.3,2.3l.2,-.4Z" class="g1_1281"/>
<path fill-rule="evenodd" d="M293.7,698.1l-.2,-.1l-.2,.5l.2,.1Z" class="g1_1281"/>
<path fill-rule="evenodd" d="M304.3,702.9l.2,.1l-.2,.4h-.1Z" class="g1_1281"/>
<path fill-rule="evenodd" d="M293.7,698.1l-.2,.5l10.7,4.8l.1,-.5Z" class="g1_1281"/>
<path fill-rule="evenodd" d="M313,706.8l-.1,-.1l-.2,.4l.2,.1Z" class="g1_1281"/>
<path fill-rule="evenodd" d="M323.6,711.5l.2,.1l-.2,.5l-.2,-.1Z" class="g1_1281"/>
<path fill-rule="evenodd" d="M313,706.8l-.1,.4l10.5,4.8l.2,-.5Z" class="g1_1281"/>
<path fill-rule="evenodd" d="M332.3,715.4l-.2,-.1l-.2,.4l.2,.1Z" class="g1_1281"/>
<path fill-rule="evenodd" d="M342.9,720.1l.2,.1l-.2,.5l-.2,-.1Z" class="g1_1281"/>
<path fill-rule="evenodd" d="M332.3,715.4l-.2,.4l10.6,4.8l.2,-.5Z" class="g1_1281"/>
<path d="M351.6,724l-.1,-.1l-.2,.4l.2,.1Z" class="g1_1281"/>
<path d="M357,726.5l.1,.1l-.1,.4l-.2,-.1Z" class="g1_1281"/>
<path d="M351.6,724l-.1,.4l5.3,2.5l.2,-.4Z" class="g1_1281"/>
<path d="M563.8,759.5l-.1,-.5l-2,.8l.2,.5Z" class="g1_1281"/>
<path d="M562.3,759.5l2.2,1.6l1.5,1.1l-1.9,.4l-8.4,1.2l-2.7,.3l2,-1.7l6.6,-5.5l1.4,-1.3l-.2,1.9l-.2,.5l-6.5,5.5L555,762.4l.5,-.2l8.4,-1.2l.2,1.6l-.6,-.2l-2.2,-1.7Z" class="g1_1281"/>
<path d="M562.8,757.5l-.2,2.7l-1.3,.5l-.3,-.2v-.4l.3,-2.7Z" class="g1_1281"/>
<path fill-rule="evenodd" d="M561.8,760.1l2.2,1.6l-8.4,1.2l6.5,-5.5Z" class="g1_1281"/>
<path d="M630.5,729.8l.2,-.1l-.2,-.5l-.2,.1Z" class="g1_1281"/>
<path d="M625.1,732.1l-.2,.1l-.2,-.4l.2,-.1Z" class="g1_1281"/>
<path d="M630.5,729.8l-.2,-.5l-5.4,2.4l.2,.4Z" class="g1_1281"/>
<path fill-rule="evenodd" d="M614.8,736.7l.2,-.1l-.2,-.4l-.2,.1Z" class="g1_1281"/>
<path fill-rule="evenodd" d="M602.3,742.4l-.2,.1l-.2,-.5h.2Z" class="g1_1281"/>
<path fill-rule="evenodd" d="M614.8,736.7l-.2,-.4L602.1,742l.2,.4Z" class="g1_1281"/>
<path fill-rule="evenodd" d="M592.1,746.9l.2,-.1l-.2,-.4h-.2Z" class="g1_1281"/>
<path fill-rule="evenodd" d="M579.5,752.6l-.2,.1l-.1,-.5l.1,-.1Z" class="g1_1281"/>
<path fill-rule="evenodd" d="M592.1,746.9l-.2,-.5l-12.6,5.7l.2,.5Z" class="g1_1281"/>
<path d="M569.3,757.2l.1,-.1l-.1,-.5l-.2,.1Z" class="g1_1281"/>
<path d="M563.8,759.6h-.1l-.2,-.4l.2,-.1Z" class="g1_1281"/>
<path d="M569.3,757.2l-.2,-.5l-5.4,2.4l.1,.5Z" class="g1_1281"/>
<path d="M539.5,556.6v-.5l-2.1,-.2v.4Z" class="g1_1281"/>
<path d="M538,555.9l1,2.5l.8,1.8l-1.8,-.9l-7.8,-3.4l-2.5,-1l2.7,-.4l8.5,-1.2l2,-.3l-1.3,1.5l-.4,.3l-8.5,1.2l-.3,-1.5h.4l7.8,3.5l-.6,1.3l-.4,-.3l-1,-2.6Z" class="g1_1281"/>
<path d="M539.6,554.5l-1.7,2.1l-1.3,-.2l-.2,-.4l.4,-.4l1.7,-2.1Z" class="g1_1281"/>
<path fill-rule="evenodd" d="M537.4,556.1l1,2.6l-7.8,-3.5l8.5,-1.2Z" class="g1_1281"/>
<path d="M623.3,568.6h.2l.1,-.4h-.2Z" class="g1_1281"/>
<path d="M617.6,567.8h-.2l.1,-.5h.2Z" class="g1_1281"/>
<path d="M623.3,568.6l.1,-.4l-5.7,-.9l-.1,.5Z" class="g1_1281"/>
<path fill-rule="evenodd" d="M608.1,566.4h.2l.1,-.4h-.2Z" class="g1_1281"/>
<path fill-rule="evenodd" d="M596.6,564.9h-.2l.1,-.5h.2Z" class="g1_1281"/>
<path fill-rule="evenodd" d="M608.1,566.4l.1,-.4l-11.5,-1.6l-.1,.5Z" class="g1_1281"/>
<path fill-rule="evenodd" d="M587.1,563.5h.2l.1,-.5h-.2Z" class="g1_1281"/>
<path fill-rule="evenodd" d="M575.7,561.8h-.2l.1,-.4h.2Z" class="g1_1281"/>
<path fill-rule="evenodd" d="M587.1,563.5l.1,-.5l-11.4,-1.6l-.1,.4Z" class="g1_1281"/>
<path fill-rule="evenodd" d="M566.2,560.5h.2l.1,-.4h-.2Z" class="g1_1281"/>
<path fill-rule="evenodd" d="M554.8,558.9h-.2l.1,-.5h.2Z" class="g1_1281"/>
<path fill-rule="evenodd" d="M566.2,560.5l.1,-.4l-11.4,-1.7l-.1,.5Z" class="g1_1281"/>
<path d="M545.3,557.5h.2l.1,-.4h-.2Z" class="g1_1281"/>
<path d="M539.5,556.7h-.2l.1,-.5h.2Z" class="g1_1281"/>
<path d="M545.3,557.5l.1,-.4l-5.8,-.9l-.1,.5Z" class="g1_1281"/>
</svg>