<?xml version="1.0" encoding="UTF-8" standalone="no"?>
<!DOCTYPE svg PUBLIC "-//W3C//DTD SVG 1.1//EN"
"http://www.w3.org/Graphics/SVG/1.1/DTD/svg11.dtd">
<svg viewBox="0 0 935 1210" version="1.1" xmlns="http://www.w3.org/2000/svg" xmlns:xlink="http://www.w3.org/1999/xlink">
<defs>
<clipPath id="c0_1818"><path d="M766.6,59.2V41.4h72.1V59.2Z"/></clipPath>
<style type="text/css"><![CDATA[
.g0_1818{
fill: #000;
}
]]></style>
</defs>
<path d="M97.3,62.9v.3H839.9v-.3H97.3Z" class="g0_1818"/>
<path d="M96.2,1114.1h-.1v.4h.1v-.4Z" class="g0_1818"/>
<path d="M838.7,1114.1h.2v.4h-.2v-.4Z" class="g0_1818"/>
<path d="M96.2,1114.1v.4H838.7v-.4H96.2Z" class="g0_1818"/>
<image clip-path="url(#c0_1818)" preserveAspectRatio="none" x="767" y="41" width="72" height="18" xlink:href="img/1.jpg"/>
<path d="M96.6,179.5h-.7V967.7h.7V179.5Z" class="g0_1818"/>
<path d="M397.3,177.9h-.8V926.1h.8V177.9Z" class="g0_1818"/>
<path d="M460.5,177.9h-.7v88.2h.7V177.9Z" class="g0_1818"/>
<path d="M461,264.5h-1.6V926.1H461V264.5Z" class="g0_1818"/>
<path d="M499.9,209.9h-.7v28.2h.7V209.9Z" class="g0_1818"/>
<path d="M499.9,264.5h-.7V926.1h.7V264.5Z" class="g0_1818"/>
<path d="M539.4,209.9h-.8v28.2h.8V209.9Z" class="g0_1818"/>
<path d="M539.4,264.5h-.8V926.1h.8V264.5Z" class="g0_1818"/>
<path d="M578.8,209.9H578v28.2h.8V209.9Z" class="g0_1818"/>
<path d="M578.8,264.5H578V926.1h.8V264.5Z" class="g0_1818"/>
<path d="M618.2,209.9h-.7v28.2h.7V209.9Z" class="g0_1818"/>
<path d="M618.2,264.5h-.7V926.1h.7V264.5Z" class="g0_1818"/>
<path d="M657.6,209.9h-.7v28.2h.7V209.9Z" class="g0_1818"/>
<path d="M657.6,264.5h-.7V926.1h.7V264.5Z" class="g0_1818"/>
<path d="M697,209.9h-.7v28.2h.7V209.9Z" class="g0_1818"/>
<path d="M697,264.5h-.7V926.1h.7V264.5Z" class="g0_1818"/>
<path d="M736.4,209.9h-.7v28.2h.7V209.9Z" class="g0_1818"/>
<path d="M736.4,264.5h-.7V926.1h.7V264.5Z" class="g0_1818"/>
<path d="M775.9,177.9h-.7v88.2h.7V177.9Z" class="g0_1818"/>
<path d="M776.4,264.5h-1.6V926.1h1.6V264.5Z" class="g0_1818"/>
<path d="M839.1,179.5h-.7V967.7h.7V179.5Z" class="g0_1818"/>
<path d="M95.9,178v1.6H839.1V178H95.9Z" class="g0_1818"/>
<path d="M459.7,209.9v.7H775.9v-.7H459.7Z" class="g0_1818"/>
<path d="M459.7,237.4v.7H775.9v-.7H459.7Z" class="g0_1818"/>
<path d="M95.9,264.5v1.6H839.1v-1.6H95.9Z" class="g0_1818"/>
<path d="M95.9,292.4v.7H397.3v-.7H95.9Z" class="g0_1818"/>
<path d="M459.3,292.4v.7H839.1v-.7H459.3Z" class="g0_1818"/>
<path d="M95.9,319.9v.7H397.3v-.7H95.9Z" class="g0_1818"/>
<path d="M459.3,319.9v.7H839.1v-.7H459.3Z" class="g0_1818"/>
<path d="M95.9,347.4v.7H397.3v-.7H95.9Z" class="g0_1818"/>
<path d="M459.3,347.4v.7H839.1v-.7H459.3Z" class="g0_1818"/>
<path d="M95.9,374.9v.7H397.3v-.7H95.9Z" class="g0_1818"/>
<path d="M459.3,374.9v.7H839.1v-.7H459.3Z" class="g0_1818"/>
<path d="M95.9,402.4v.7H397.3v-.7H95.9Z" class="g0_1818"/>
<path d="M459.3,402.4v.7H839.1v-.7H459.3Z" class="g0_1818"/>
<path d="M95.9,429.9v.7H397.3v-.7H95.9Z" class="g0_1818"/>
<path d="M459.3,429.9v.7H839.1v-.7H459.3Z" class="g0_1818"/>
<path d="M95.9,457.4v.7H397.3v-.7H95.9Z" class="g0_1818"/>
<path d="M459.3,457.4v.7H839.1v-.7H459.3Z" class="g0_1818"/>
<path d="M95.9,484.5v1.6H839.1v-1.6H95.9Z" class="g0_1818"/>
<path d="M95.9,512.4v.7H397.3v-.7H95.9Z" class="g0_1818"/>
<path d="M459.3,512.4v.7H839.1v-.7H459.3Z" class="g0_1818"/>
<path d="M95.9,539.9v.7H397.3v-.7H95.9Z" class="g0_1818"/>
<path d="M459.3,539.9v.7H839.1v-.7H459.3Z" class="g0_1818"/>
<path d="M95.9,567.4v.7H397.3v-.7H95.9Z" class="g0_1818"/>
<path d="M459.3,567.4v.7H839.1v-.7H459.3Z" class="g0_1818"/>
<path d="M95.9,594.9v.7H397.3v-.7H95.9Z" class="g0_1818"/>
<path d="M459.3,594.9v.7H839.1v-.7H459.3Z" class="g0_1818"/>
<path d="M95.9,622.4v.7H397.3v-.7H95.9Z" class="g0_1818"/>
<path d="M459.3,622.4v.7H839.1v-.7H459.3Z" class="g0_1818"/>
<path d="M95.9,649.9v.7H397.3v-.7H95.9Z" class="g0_1818"/>
<path d="M459.3,649.9v.7H839.1v-.7H459.3Z" class="g0_1818"/>
<path d="M95.9,677.4v.7H397.3v-.7H95.9Z" class="g0_1818"/>
<path d="M459.3,677.4v.7H839.1v-.7H459.3Z" class="g0_1818"/>
<path d="M95.9,704.5v1.6H839.1v-1.6H95.9Z" class="g0_1818"/>
<path d="M95.9,732.4v.7H397.3v-.7H95.9Z" class="g0_1818"/>
<path d="M459.3,732.4v.7H839.1v-.7H459.3Z" class="g0_1818"/>
<path d="M95.9,760v.7H397.3V760H95.9Z" class="g0_1818"/>
<path d="M459.3,760v.7H839.1V760H459.3Z" class="g0_1818"/>
<path d="M95.9,787.5v.7H397.3v-.7H95.9Z" class="g0_1818"/>
<path d="M459.3,787.5v.7H839.1v-.7H459.3Z" class="g0_1818"/>
<path d="M95.9,815v.7H397.3V815H95.9Z" class="g0_1818"/>
<path d="M459.3,815v.7H839.1V815H459.3Z" class="g0_1818"/>
<path d="M95.9,842.5v.7H397.3v-.7H95.9Z" class="g0_1818"/>
<path d="M459.3,842.5v.7H839.1v-.7H459.3Z" class="g0_1818"/>
<path d="M95.9,870v.7H397.3V870H95.9Z" class="g0_1818"/>
<path d="M459.3,870v.7H839.1V870H459.3Z" class="g0_1818"/>
<path d="M95.9,897.5v.7H397.3v-.7H95.9Z" class="g0_1818"/>
<path d="M459.3,897.5v.7H839.1v-.7H459.3Z" class="g0_1818"/>
<path d="M95.9,924.6v1.6H839.1v-1.6H95.9Z" class="g0_1818"/>
<path d="M95.9,967.7v.7H839.1v-.7H95.9Z" class="g0_1818"/>
</svg>