<?xml version="1.0" encoding="UTF-8" standalone="no"?>
<!DOCTYPE svg PUBLIC "-//W3C//DTD SVG 1.1//EN"
"http://www.w3.org/Graphics/SVG/1.1/DTD/svg11.dtd">
<svg viewBox="0 0 935 1210" version="1.1" xmlns="http://www.w3.org/2000/svg" xmlns:xlink="http://www.w3.org/1999/xlink">
<defs>
<style type="text/css"><![CDATA[
.g0_1407{
fill: #FFF;
}
.g1_1407{
fill: #000;
}
]]></style>
</defs>
<path d="M68.9,1149.3H755.2v-21.2H68.9v21.2Z" class="g0_1407"/>
<path d="M771.3,1149.3H855v-21.2H771.3v21.2Z" class="g0_1407"/>
<path d="M70.3,737H852.8V707.4H70.3V737Z" class="g0_1407"/>
<path d="M71.2,730.3h53.6V717.9H71.2v12.4Z" class="g0_1407"/>
<path d="M69.9,707h.8V131.8h-.8V707Z" class="g1_1407"/>
<path d="M220.6,707.8h.7V131h-.7V707.8Z" class="g1_1407"/>
<path d="M391.5,707.8h.7V131h-.7V707.8Z" class="g1_1407"/>
<path d="M429.4,707.8h.7V131h-.7V707.8Z" class="g1_1407"/>
<path d="M502.7,707.8h.7V131h-.7V707.8Z" class="g1_1407"/>
<path d="M574.1,707.8h.7V131h-.7V707.8Z" class="g1_1407"/>
<path d="M852.4,707h.7V131.8h-.7V707Z" class="g1_1407"/>
<path d="M69.9,131.7H853.1V131H69.9v.7Z" class="g1_1407"/>
<path d="M69.9,169.9H853.1v-.7H69.9v.7Z" class="g1_1407"/>
<path d="M69.9,192.9H853.1v-.8H69.9v.8Z" class="g1_1407"/>
<path d="M69.9,215.8H853.1v-.7H69.9v.7Z" class="g1_1407"/>
<path d="M69.9,238.7H853.1V238H69.9v.7Z" class="g1_1407"/>
<path d="M69.9,278.4H853.1v-.7H69.9v.7Z" class="g1_1407"/>
<path d="M69.9,301.3H853.1v-.7H69.9v.7Z" class="g1_1407"/>
<path d="M69.9,324.2H853.1v-.7H69.9v.7Z" class="g1_1407"/>
<path d="M69.9,347.1H853.1v-.7H69.9v.7Z" class="g1_1407"/>
<path d="M69.9,370.1H853.1v-.8H69.9v.8Z" class="g1_1407"/>
<path d="M69.9,409.8H853.1v-.7H69.9v.7Z" class="g1_1407"/>
<path d="M69.9,432.8H853.1V432H69.9v.8Z" class="g1_1407"/>
<path d="M69.9,455.7H853.1v-.8H69.9v.8Z" class="g1_1407"/>
<path d="M69.9,478.6H853.1v-.7H69.9v.7Z" class="g1_1407"/>
<path d="M69.9,501.5H853.1v-.7H69.9v.7Z" class="g1_1407"/>
<path d="M69.9,524.4H853.1v-.7H69.9v.7Z" class="g1_1407"/>
<path d="M69.9,547.3H853.1v-.7H69.9v.7Z" class="g1_1407"/>
<path d="M69.9,570.3H853.1v-.8H69.9v.8Z" class="g1_1407"/>
<path d="M69.9,593.2H853.1v-.8H69.9v.8Z" class="g1_1407"/>
<path d="M69.9,616.1H853.1v-.7H69.9v.7Z" class="g1_1407"/>
<path d="M69.9,639H853.1v-.7H69.9v.7Z" class="g1_1407"/>
<path d="M69.9,661.9H853.1v-.7H69.9v.7Z" class="g1_1407"/>
<path d="M69.9,684.8H853.1v-.7H69.9v.7Z" class="g1_1407"/>
<path d="M69.9,707.8H853.1V707H69.9v.8Z" class="g1_1407"/>
<path d="M69.9,930.6h.8V809.1h-.8V930.6Z" class="g1_1407"/>
<path d="M134.9,931.4h.8v-123h-.8v123Z" class="g1_1407"/>
<path d="M310.4,931.4h.7v-123h-.7v123Z" class="g1_1407"/>
<path d="M495.8,931.4h.8v-123h-.8v123Z" class="g1_1407"/>
<path d="M666.8,931.4h.7v-123h-.7v123Z" class="g1_1407"/>
<path d="M849.8,930.6h.8V809.1h-.8V930.6Z" class="g1_1407"/>
<path d="M69.9,809.1H850.6v-.7H69.9v.7Z" class="g1_1407"/>
<path d="M69.9,833.6H850.6v-.7H69.9v.7Z" class="g1_1407"/>
<path d="M69.9,858.1H850.6v-.7H69.9v.7Z" class="g1_1407"/>
<path d="M69.9,882.5H850.6v-.8H69.9v.8Z" class="g1_1407"/>
<path d="M69.9,907H850.6v-.8H69.9v.8Z" class="g1_1407"/>
<path d="M69.9,931.4H850.6v-.7H69.9v.7Z" class="g1_1407"/>
</svg>