<?xml version="1.0" encoding="UTF-8" standalone="no"?>
<!DOCTYPE svg PUBLIC "-//W3C//DTD SVG 1.1//EN"
"http://www.w3.org/Graphics/SVG/1.1/DTD/svg11.dtd">
<svg viewBox="0 0 935 1210" version="1.1" xmlns="http://www.w3.org/2000/svg" xmlns:xlink="http://www.w3.org/1999/xlink">
<defs>
<clipPath id="c0_701"><path d="M766.6,59.2V41.4h72.1V59.2Z"/></clipPath>
<style type="text/css"><![CDATA[
.g0_701{
fill: #000;
}
.g1_701{
fill: #E5E5E5;
}
]]></style>
</defs>
<path d="M97.3,62.9v.3H839.9v-.3H97.3Z" class="g0_701"/>
<path d="M96.2,1114.1h-.1v.3h.1v-.3Z" class="g0_701"/>
<path d="M838.7,1114.1h.2v.3h-.2v-.3Z" class="g0_701"/>
<path d="M96.2,1114.1v.3H838.7v-.3H96.2Z" class="g0_701"/>
<image clip-path="url(#c0_701)" preserveAspectRatio="none" x="767" y="41" width="72" height="18" xlink:href="img/1.jpg"/>
<path d="M124.1,445.6h66.6V470H124.1V445.6Z" class="g1_701"/>
<path d="M190.7,445.6H423.4V470H190.7V445.6Z" class="g1_701"/>
<path d="M423.4,445.6H534.2V470H423.4V445.6Z" class="g1_701"/>
<path d="M534.2,445.6H645V470H534.2V445.6Z" class="g1_701"/>
<path d="M645,445.6H810.9V470H645V445.6Z" class="g1_701"/>
<path d="M124.1,592.2h66.6v24.5H124.1V592.2Z" class="g1_701"/>
<path d="M190.7,592.2H423.4v24.5H190.7V592.2Z" class="g1_701"/>
<path d="M423.4,592.2H534.2v24.5H423.4V592.2Z" class="g1_701"/>
<path d="M534.2,592.2H645v24.5H534.2V592.2Z" class="g1_701"/>
<path d="M645,592.2H810.9v24.5H645V592.2Z" class="g1_701"/>
<path d="M124.1,732.8h66.6v24.4H124.1V732.8Z" class="g1_701"/>
<path d="M190.7,732.8H423.4v24.4H190.7V732.8Z" class="g1_701"/>
<path d="M423.4,732.8H534.2v24.4H423.4V732.8Z" class="g1_701"/>
<path d="M534.2,732.8H645v24.4H534.2V732.8Z" class="g1_701"/>
<path d="M645,732.8H810.9v24.4H645V732.8Z" class="g1_701"/>
<path d="M124.1,781.7h66.6v24.5H124.1V781.7Z" class="g1_701"/>
<path d="M190.7,781.7H423.4v24.5H190.7V781.7Z" class="g1_701"/>
<path d="M423.4,781.7H534.2v24.5H423.4V781.7Z" class="g1_701"/>
<path d="M534.2,781.7H645v24.5H534.2V781.7Z" class="g1_701"/>
<path d="M645,781.7H810.9v24.5H645V781.7Z" class="g1_701"/>
<path d="M124.1,879.5h66.6v24.4H124.1V879.5Z" class="g1_701"/>
<path d="M190.7,879.5H423.4v24.4H190.7V879.5Z" class="g1_701"/>
<path d="M423.4,879.5H534.2v24.4H423.4V879.5Z" class="g1_701"/>
<path d="M534.2,879.5H645v24.4H534.2V879.5Z" class="g1_701"/>
<path d="M645,879.5H810.9v24.4H645V879.5Z" class="g1_701"/>
<path d="M124.5,197.4h-.8v825.3h.8V197.4Z" class="g0_701"/>
<path d="M191,196.7h-.7V953.2h.7V196.7Z" class="g0_701"/>
<path d="M423.8,196.7H423V953.2h.8V196.7Z" class="g0_701"/>
<path d="M534.6,196.7h-.8V953.2h.8V196.7Z" class="g0_701"/>
<path d="M645.4,196.7h-.7V953.2h.7V196.7Z" class="g0_701"/>
<path d="M811.2,197.4h-.7v825.3h.7V197.4Z" class="g0_701"/>
<path d="M123.7,196.7v.7H811.2v-.7H123.7Z" class="g0_701"/>
<path d="M123.7,225.2v.7H811.2v-.7H123.7Z" class="g0_701"/>
<path d="M123.7,249.7v.7H534.6v-.7H123.7Z" class="g0_701"/>
<path d="M644.6,249.7v.7H811.2v-.7H644.6Z" class="g0_701"/>
<path d="M123.7,274.1v.7H645.4v-.7H123.7Z" class="g0_701"/>
<path d="M123.7,298.5v.8H645.4v-.8H123.7Z" class="g0_701"/>
<path d="M123.7,323v.8H423.8V323H123.7Z" class="g0_701"/>
<path d="M123.7,347.4v.7H534.6v-.7H123.7Z" class="g0_701"/>
<path d="M123.7,371.9v.7H423.8v-.7H123.7Z" class="g0_701"/>
<path d="M123.7,396.4v.7H423.8v-.7H123.7Z" class="g0_701"/>
<path d="M123.7,420.7v.8H645.4v-.8H123.7Z" class="g0_701"/>
<path d="M123.7,445.2v.7H811.2v-.7H123.7Z" class="g0_701"/>
<path d="M123.7,469.7v.7H811.2v-.7H123.7Z" class="g0_701"/>
<path d="M123.7,494.1v.7H423.8v-.7H123.7Z" class="g0_701"/>
<path d="M123.7,518.5v.8H423.8v-.8H123.7Z" class="g0_701"/>
<path d="M123.7,543v.7H423.8V543H123.7Z" class="g0_701"/>
<path d="M123.7,567.4v.7H423.8v-.7H123.7Z" class="g0_701"/>
<path d="M644.6,567.4v.7H811.2v-.7H644.6Z" class="g0_701"/>
<path d="M123.7,591.9v.7H811.2v-.7H123.7Z" class="g0_701"/>
<path d="M123.7,616.3v.8H811.2v-.8H123.7Z" class="g0_701"/>
<path d="M123.7,659.1v.7H423.8v-.7H123.7Z" class="g0_701"/>
<path d="M533.8,659.1v.7H645.4v-.7H533.8Z" class="g0_701"/>
<path d="M123.7,683.5v.8H645.4v-.8H123.7Z" class="g0_701"/>
<path d="M123.7,708v.7H645.4V708H123.7Z" class="g0_701"/>
<path d="M123.7,732.4v.7H811.2v-.7H123.7Z" class="g0_701"/>
<path d="M123.7,756.9v.7H811.2v-.7H123.7Z" class="g0_701"/>
<path d="M123.7,781.3v.8H811.2v-.8H123.7Z" class="g0_701"/>
<path d="M123.7,805.8v.7H811.2v-.7H123.7Z" class="g0_701"/>
<path d="M123.7,830.2v.7H811.2v-.7H123.7Z" class="g0_701"/>
<path d="M123.7,854.7v.7H811.2v-.7H123.7Z" class="g0_701"/>
<path d="M123.7,879.1v.8H811.2v-.8H123.7Z" class="g0_701"/>
<path d="M123.7,903.5v.8H811.2v-.8H123.7Z" class="g0_701"/>
<path d="M123.7,928v.7H423.8V928H123.7Z" class="g0_701"/>
<path d="M123.7,952.5v.7H811.2v-.7H123.7Z" class="g0_701"/>
<path d="M123.7,1022.7v.7H811.2v-.7H123.7Z" class="g0_701"/>
</svg>