<?xml version="1.0" encoding="UTF-8" standalone="no"?>
<!DOCTYPE svg PUBLIC "-//W3C//DTD SVG 1.1//EN"
"http://www.w3.org/Graphics/SVG/1.1/DTD/svg11.dtd">
<svg viewBox="0 0 935 1210" version="1.1" xmlns="http://www.w3.org/2000/svg" xmlns:xlink="http://www.w3.org/1999/xlink">
<defs>
<style type="text/css"><![CDATA[
.g0_2226{
fill: #FFF;
}
.g1_2226{
fill: #000;
}
]]></style>
</defs>
<path d="M165,1149.3H852.5v-21.2H165v21.2Z" class="g0_2226"/>
<path d="M68.8,1149.3h82.5v-21.2H68.8v21.2Z" class="g0_2226"/>
<path d="M68.6,221.2h.7V125.7h-.7v95.5Z" class="g1_2226"/>
<path d="M260.9,221.9h.7v-97h-.7v97Z" class="g1_2226"/>
<path d="M302.9,221.9h.7v-97h-.7v97Z" class="g1_2226"/>
<path d="M377.4,221.9h.7v-97h-.7v97Z" class="g1_2226"/>
<path d="M444.9,221.9h.8v-97h-.8v97Z" class="g1_2226"/>
<path d="M851.8,221.2h.7V125.7h-.7v95.5Z" class="g1_2226"/>
<path d="M68.6,125.7H852.5v-.8H68.6v.8Z" class="g1_2226"/>
<path d="M68.6,182.1H852.5v-.7H68.6v.7Z" class="g1_2226"/>
<path d="M68.6,221.9H852.5v-.7H68.6v.7Z" class="g1_2226"/>
<path d="M68.6,325.1h.7V276.9h-.7v48.2Z" class="g1_2226"/>
<path d="M136.7,325.8h.7V276.2h-.7v49.6Z" class="g1_2226"/>
<path d="M310.8,325.8h.8V276.2h-.8v49.6Z" class="g1_2226"/>
<path d="M491.9,325.8h.7V276.2h-.7v49.6Z" class="g1_2226"/>
<path d="M667.5,325.8h.7V276.2h-.7v49.6Z" class="g1_2226"/>
<path d="M849.7,325.1h.7V276.9h-.7v48.2Z" class="g1_2226"/>
<path d="M68.6,276.9H850.4v-.7H68.6v.7Z" class="g1_2226"/>
<path d="M68.6,301.3H850.4v-.7H68.6v.7Z" class="g1_2226"/>
<path d="M68.6,325.8H850.4v-.7H68.6v.7Z" class="g1_2226"/>
</svg>