<?xml version="1.0" encoding="UTF-8" standalone="no"?>
<!DOCTYPE svg PUBLIC "-//W3C//DTD SVG 1.1//EN"
"http://www.w3.org/Graphics/SVG/1.1/DTD/svg11.dtd">
<svg viewBox="0 0 935 1210" version="1.1" xmlns="http://www.w3.org/2000/svg" xmlns:xlink="http://www.w3.org/1999/xlink">
<defs>
<clipPath id="c0_1186"><path d="M97.3,59.2V41.4h72.1V59.2Z"/></clipPath>
<style type="text/css"><![CDATA[
.g0_1186{
fill: #000;
}
]]></style>
</defs>
<path d="M96.2,62.9v.3H838.7v-.3H96.2Z" class="g0_1186"/>
<path d="M96.2,1114.1h-.1v.3h.1v-.3Z" class="g0_1186"/>
<path d="M838.7,1114.1h.2v.3h-.2v-.3Z" class="g0_1186"/>
<path d="M96.2,1114.1v.3H838.7v-.3H96.2Z" class="g0_1186"/>
<image clip-path="url(#c0_1186)" preserveAspectRatio="none" x="97" y="41" width="72" height="18" xlink:href="img/1.jpg"/>
<path d="M111.7,179.1H111V630.5h.7V179.1Z" class="g0_1186"/>
<path d="M304.2,178.4h-.7v453h.7v-453Z" class="g0_1186"/>
<path d="M439,178.4h-.8v453h.8v-453Z" class="g0_1186"/>
<path d="M824,179.1h-.8V630.5h.8V179.1Z" class="g0_1186"/>
<path d="M111,178.4v.7H824v-.7H111Z" class="g0_1186"/>
<path d="M111,202.8v.7H824v-.7H111Z" class="g0_1186"/>
<path d="M303.5,227.2v.8H824v-.8H303.5Z" class="g0_1186"/>
<path d="M303.5,251.7v.7H824v-.7H303.5Z" class="g0_1186"/>
<path d="M303.5,276.2v.7H824v-.7H303.5Z" class="g0_1186"/>
<path d="M303.5,300.6v.7H824v-.7H303.5Z" class="g0_1186"/>
<path d="M303.5,325v.8H824V325H303.5Z" class="g0_1186"/>
<path d="M303.5,349.5v.7H824v-.7H303.5Z" class="g0_1186"/>
<path d="M303.5,373.9v.7H824v-.7H303.5Z" class="g0_1186"/>
<path d="M303.5,398.4v.7H824v-.7H303.5Z" class="g0_1186"/>
<path d="M303.5,422.8v.8H824v-.8H303.5Z" class="g0_1186"/>
<path d="M303.5,447.2v.8H824v-.8H303.5Z" class="g0_1186"/>
<path d="M303.5,471.7v.7H824v-.7H303.5Z" class="g0_1186"/>
<path d="M303.5,496.2v.7H824v-.7H303.5Z" class="g0_1186"/>
<path d="M303.5,538.9v.7H824v-.7H303.5Z" class="g0_1186"/>
<path d="M303.5,563.4v.7H824v-.7H303.5Z" class="g0_1186"/>
<path d="M303.5,606.2v.7H824v-.7H303.5Z" class="g0_1186"/>
<path d="M111,630.5v.8H824v-.8H111Z" class="g0_1186"/>
</svg>