<?xml version="1.0" encoding="UTF-8" standalone="no"?>
<!DOCTYPE svg PUBLIC "-//W3C//DTD SVG 1.1//EN"
"http://www.w3.org/Graphics/SVG/1.1/DTD/svg11.dtd">
<svg viewBox="0 0 935 1210" version="1.1" xmlns="http://www.w3.org/2000/svg" xmlns:xlink="http://www.w3.org/1999/xlink">
<defs>
<clipPath id="c0_1813"><path d="M97.3,59.2V41.4h72.1V59.2Z"/></clipPath>
<clipPath id="c1_1813"><path d="M98.3,441.5v-269H837.7v269Z"/></clipPath>
<clipPath id="c2_1813"><path d="M97.8,441.5V171.8H837.7V441.5Z"/></clipPath>
<clipPath id="c3_1813"><path d="M98.1,842.3V600H837.6V842.3Z"/></clipPath>
<clipPath id="c4_1813"><path d="M97.5,842.3V599.4H837.6V842.3Z"/></clipPath>
<style type="text/css"><![CDATA[
.g0_1813{
fill: #000;
}
.g1_1813{
fill: #FFF;
}
.g2_1813{
fill: #D5D8DD;
}
.g3_1813{
fill: #D7DCE1;
}
.g4_1813{
fill: none;
stroke: #D7DCE1;
stroke-width: 0.152;
stroke-linecap: square;
stroke-miterlimit: 10;
}
.g5_1813{
fill: #231F20;
}
.g6_1813{
fill: none;
stroke: #231F20;
stroke-width: 0.152;
stroke-linecap: square;
stroke-miterlimit: 10;
}
.g7_1813{
fill: #EFF0F2;
}
.g8_1813{
fill: #D4D7DC;
}
.g9_1813{
fill: #CDD7E2;
}
.ga_1813{
fill: none;
stroke: #CDD7E2;
stroke-width: 0.152;
stroke-linecap: square;
stroke-miterlimit: 10;
}
]]></style>
</defs>
<path d="M96.2,62.9v.3H838.7v-.3H96.2Z" class="g0_1813"/>
<path d="M96.2,1114.1h-.1v.4h.1v-.4Z" class="g0_1813"/>
<path d="M838.7,1114.1h.2v.4h-.2v-.4Z" class="g0_1813"/>
<path d="M96.2,1114.1v.4H838.7v-.4H96.2Z" class="g0_1813"/>
<image clip-path="url(#c0_1813)" preserveAspectRatio="none" x="97" y="41" width="72" height="18" xlink:href="img/1.jpg"/>
<path d="M137.4,301.5H183V214H137.4v87.5Z" class="g1_1813"/>
<path d="M217.6,301.5H368.7V214H217.6v87.5Z" class="g2_1813"/>
<path d="M368.1,301.5h79.4V214H368.1v87.5Z" class="g1_1813"/>
<path d="M446.9,301.5h78.2V214H446.9v87.5Z" class="g2_1813"/>
<path d="M524.4,301.5h79.5V214H524.4v87.5Z" class="g1_1813"/>
<path d="M603.2,301.5h78.2V214H603.2v87.5Z" class="g2_1813"/>
<path d="M680.8,301.5h79.4V214H680.8v87.5Z" class="g1_1813"/>
<path d="M759.6,301.5h78.1V214H759.6v87.5Z" class="g2_1813"/>
<path d="M137.4,344.9H183V300.8H137.4v44.1Z" class="g1_1813"/>
<path d="M217.6,344.9H368.7V300.8H217.6v44.1Z" class="g2_1813"/>
<path d="M368.1,344.9h157V300.8h-157v44.1Z" class="g1_1813"/>
<path d="M524.4,344.9h157V300.8h-157v44.1Z" class="g2_1813"/>
<path d="M680.8,344.9H837.7V300.8H680.8v44.1Z" class="g1_1813"/>
<path d="M137.4,386.4H183V344.3H137.4v42.1Z" class="g1_1813"/>
<path d="M217.6,386.4H368.7V344.3H217.6v42.1Z" class="g2_1813"/>
<path d="M368.1,386.4h157V344.3h-157v42.1Z" class="g1_1813"/>
<path d="M524.4,386.4H837.7V344.3H524.4v42.1Z" class="g2_1813"/>
<path d="M137.4,427.9H183V386.4H137.4v41.5Z" class="g1_1813"/>
<path d="M217.6,427.9h76.2V385.7H217.6v42.2Z" class="g2_1813"/>
<path d="M293.1,427.9h232V385.7h-232v42.2Z" class="g1_1813"/>
<path d="M524.4,427.9H837.7V385.7H524.4v42.2Z" class="g2_1813"/>
<path clip-path="url(#c1_1813)" d="M137.4,441.5H183V427.2H137.4v14.3Z" class="g1_1813"/>
<g clip-path="url(#c2_1813)">
<path d="M97.8,171.8h.5h-.5Z" class="g3_1813"/>
<path d="M182.4,171.8v-.6" class="g4_1813"/>
<path d="M182.4,171.8h.6h-.6Z" class="g3_1813"/>
<path d="M217.6,171.8v-.6" class="g4_1813"/>
<path d="M217.6,171.8h.6h-.6Z" class="g3_1813"/>
<path d="M98.3,172.5H837.7v-.7H98.3v.7Z" class="g5_1813"/>
<path d="M837.1,171.8v-.6" class="g4_1813"/>
<path d="M837.1,171.8h.6h-.6Z" class="g3_1813"/>
<path d="M137.4,171.8v-.6" class="g4_1813"/>
<path d="M137.4,171.8h.7h-.7Z" class="g3_1813"/>
<path d="M293.1,171.8v-.6" class="g4_1813"/>
<path d="M293.1,171.8h.7h-.7Z" class="g3_1813"/>
<path d="M368.1,171.8v-.6" class="g4_1813"/>
<path d="M368.1,171.8h.6h-.6Z" class="g3_1813"/>
<path d="M446.9,171.8v-.6" class="g4_1813"/>
<path d="M446.9,171.8h.6h-.6Z" class="g3_1813"/>
<path d="M524.4,171.8v-.6" class="g4_1813"/>
<path d="M524.4,171.8h.7h-.7Z" class="g3_1813"/>
<path d="M603.2,171.8v-.6" class="g4_1813"/>
<path d="M603.2,171.8h.7h-.7Z" class="g3_1813"/>
<path d="M680.8,171.8v-.6" class="g4_1813"/>
<path d="M680.8,171.8h.6h-.6Z" class="g3_1813"/>
<path d="M759.6,171.8v-.6" class="g4_1813"/>
<path d="M759.6,171.8h.6h-.6Z" class="g3_1813"/>
</g>
<path d="M98.3,186.7H837.7v-1.3H98.3v1.3Z" class="g5_1813"/>
<path d="M137.4,186.7v26.6" class="g6_1813"/>
<path d="M137.4,213.3h.7V186.7h-.7v26.6Z" class="g5_1813"/>
<path d="M293.1,186.7v26.6" class="g6_1813"/>
<path d="M293.1,213.3h.7V186.7h-.7v26.6Z" class="g5_1813"/>
<path d="M368.1,186.7v26.6" class="g6_1813"/>
<path d="M368.1,213.3h.6V186.7h-.6v26.6Z" class="g5_1813"/>
<path d="M446.9,186.7v26.6" class="g6_1813"/>
<path d="M446.9,213.3h.6V186.7h-.6v26.6Z" class="g5_1813"/>
<path d="M524.4,186.7v26.6" class="g6_1813"/>
<path d="M524.4,213.3h.7V186.7h-.7v26.6Z" class="g5_1813"/>
<path d="M603.2,186.7v26.6" class="g6_1813"/>
<path d="M603.2,213.3h.7V186.7h-.7v26.6Z" class="g5_1813"/>
<path d="M680.8,186.7v26.6" class="g6_1813"/>
<path d="M680.8,213.3h.6V186.7h-.6v26.6Z" class="g5_1813"/>
<path d="M759.6,186.7v26.6" class="g6_1813"/>
<path d="M759.6,213.3h.6V186.7h-.6v26.6Z" class="g5_1813"/>
<path d="M98.3,214.6H837.7v-1.3H98.3v1.3Z" class="g5_1813"/>
<path d="M137.4,214.6v42.1" class="g6_1813"/>
<path d="M137.4,256.7h.7V214.6h-.7v42.1Z" class="g5_1813"/>
<path d="M293.1,214.6v42.1" class="g6_1813"/>
<path d="M293.1,256.7h.7V214.6h-.7v42.1Z" class="g5_1813"/>
<path d="M368.1,214.6v42.1" class="g6_1813"/>
<path d="M368.1,256.7h.6V214.6h-.6v42.1Z" class="g5_1813"/>
<path d="M446.9,214.6v42.1" class="g6_1813"/>
<path d="M446.9,256.7h.6V214.6h-.6v42.1Z" class="g5_1813"/>
<path d="M524.4,214.6v42.1" class="g6_1813"/>
<path d="M524.4,256.7h.7V214.6h-.7v42.1Z" class="g5_1813"/>
<path d="M603.2,214.6v42.1" class="g6_1813"/>
<path d="M603.2,256.7h.7V214.6h-.7v42.1Z" class="g5_1813"/>
<path d="M680.8,214.6v42.1" class="g6_1813"/>
<path d="M680.8,256.7h.6V214.6h-.6v42.1Z" class="g5_1813"/>
<path d="M759.6,214.6v42.1" class="g6_1813"/>
<path d="M759.6,256.7h.6V214.6h-.6v42.1Z" class="g5_1813"/>
<path d="M98.3,258H837.7v-1.3H98.3V258Z" class="g5_1813"/>
<path d="M137.4,258v42.2" class="g6_1813"/>
<path d="M137.4,300.2h.7V258h-.7v42.2Z" class="g5_1813"/>
<path d="M293.1,258v42.2" class="g6_1813"/>
<path d="M293.1,300.2h.7V258h-.7v42.2Z" class="g5_1813"/>
<path d="M368.1,258v42.2" class="g6_1813"/>
<path d="M368.1,300.2h.6V258h-.6v42.2Z" class="g5_1813"/>
<path d="M446.9,258v42.2" class="g6_1813"/>
<path d="M446.9,300.2h.6V258h-.6v42.2Z" class="g5_1813"/>
<path d="M524.4,258v42.2" class="g6_1813"/>
<path d="M524.4,300.2h.7V258h-.7v42.2Z" class="g5_1813"/>
<path d="M603.2,258v42.2" class="g6_1813"/>
<path d="M603.2,300.2h.7V258h-.7v42.2Z" class="g5_1813"/>
<path d="M680.8,258v42.2" class="g6_1813"/>
<path d="M680.8,300.2h.6V258h-.6v42.2Z" class="g5_1813"/>
<path d="M759.6,258v42.2" class="g6_1813"/>
<path d="M759.6,300.2h.6V258h-.6v42.2Z" class="g5_1813"/>
<path d="M98.3,301.5H837.7v-1.3H98.3v1.3Z" class="g5_1813"/>
<path d="M137.4,301.5v42.1" class="g6_1813"/>
<path d="M137.4,343.6h.7V301.5h-.7v42.1Z" class="g5_1813"/>
<path d="M293.1,301.5v42.1" class="g6_1813"/>
<path d="M293.1,343.6h.7V301.5h-.7v42.1Z" class="g5_1813"/>
<path d="M368.1,301.5v42.1" class="g6_1813"/>
<path d="M368.1,343.6h.6V301.5h-.6v42.1Z" class="g5_1813"/>
<path d="M446.9,301.5v42.1" class="g6_1813"/>
<path d="M446.9,343.6h.6V301.5h-.6v42.1Z" class="g5_1813"/>
<path d="M524.4,301.5v42.1" class="g6_1813"/>
<path d="M524.4,343.6h.7V301.5h-.7v42.1Z" class="g5_1813"/>
<path d="M603.2,301.5v42.1" class="g6_1813"/>
<path d="M603.2,343.6h.7V301.5h-.7v42.1Z" class="g5_1813"/>
<path d="M680.8,301.5v42.1" class="g6_1813"/>
<path d="M680.8,343.6h.6V301.5h-.6v42.1Z" class="g5_1813"/>
<path d="M759.6,301.5v42.1" class="g6_1813"/>
<path d="M759.6,343.6h.6V301.5h-.6v42.1Z" class="g5_1813"/>
<path d="M98.3,344.9H837.7v-1.3H98.3v1.3Z" class="g5_1813"/>
<path d="M137.4,344.9v40.2" class="g6_1813"/>
<path d="M137.4,385.1h.7V344.9h-.7v40.2Z" class="g5_1813"/>
<path d="M293.1,344.9v40.2" class="g6_1813"/>
<path d="M293.1,385.1h.7V344.9h-.7v40.2Z" class="g5_1813"/>
<path d="M368.1,344.9v40.2" class="g6_1813"/>
<path d="M368.1,385.1h.6V344.9h-.6v40.2Z" class="g5_1813"/>
<path d="M446.9,344.9v40.2" class="g6_1813"/>
<path d="M446.9,385.1h.6V344.9h-.6v40.2Z" class="g5_1813"/>
<path d="M524.4,344.9v40.2" class="g6_1813"/>
<path d="M524.4,385.1h.7V344.9h-.7v40.2Z" class="g5_1813"/>
<path d="M603.2,344.9v40.2" class="g6_1813"/>
<path d="M603.2,385.1h.7V344.9h-.7v40.2Z" class="g5_1813"/>
<path d="M680.8,344.9v40.2" class="g6_1813"/>
<path d="M680.8,385.1h.6V344.9h-.6v40.2Z" class="g5_1813"/>
<path d="M759.6,344.9v40.2" class="g6_1813"/>
<path d="M759.6,385.1h.6V344.9h-.6v40.2Z" class="g5_1813"/>
<path d="M98.3,386.4H837.7v-1.3H98.3v1.3Z" class="g5_1813"/>
<path clip-path="url(#c2_1813)" d="M97.8,427.9h.5V171.8h-.5V427.9Z" class="g5_1813"/>
<path d="M137.4,386.4v40.2" class="g6_1813"/>
<path d="M137.4,426.6h.7V386.4h-.7v40.2Z" class="g5_1813"/>
<path d="M181.7,427.9H183V172.5h-1.3V427.9Z" class="g5_1813"/>
<path d="M759.6,386.4v40.2" class="g6_1813"/>
<path d="M759.6,426.6h.6V386.4h-.6v40.2Z" class="g5_1813"/>
<path d="M98.3,427.9H837.7v-1.3H98.3v1.3Z" class="g5_1813"/>
<path d="M97.8,440.2h.5V427.9h-.5v12.3Z" class="g3_1813"/>
<path d="M216.9,427.9h1.3V172.5h-1.3V427.9Z" class="g5_1813"/>
<path d="M293.1,386.4v40.2" class="g6_1813"/>
<path d="M293.1,426.6h.7V386.4h-.7v40.2Z" class="g5_1813"/>
<path d="M368.1,386.4v40.2" class="g6_1813"/>
<path d="M368.1,426.6h.6V386.4h-.6v40.2Z" class="g5_1813"/>
<path d="M446.9,386.4v40.2" class="g6_1813"/>
<path d="M446.9,426.6h.6V386.4h-.6v40.2Z" class="g5_1813"/>
<path d="M524.4,386.4v40.2" class="g6_1813"/>
<path d="M524.4,426.6h.7V386.4h-.7v40.2Z" class="g5_1813"/>
<path d="M603.2,386.4v40.2" class="g6_1813"/>
<path d="M603.2,426.6h.7V386.4h-.7v40.2Z" class="g5_1813"/>
<path d="M680.8,386.4v40.2" class="g6_1813"/>
<path d="M680.8,426.6h.6V386.4h-.6v40.2Z" class="g5_1813"/>
<path d="M759.6,427.9v12.3" class="g4_1813"/>
<path d="M759.6,440.2h.6V427.9h-.6v12.3Z" class="g3_1813"/>
<g clip-path="url(#c2_1813)">
<path d="M97.8,441.5H837.7v-1.3H97.8v1.3Z" class="g5_1813"/>
<path d="M836.5,441.5h1.2v-269h-1.2v269Z" class="g5_1813"/>
<path d="M97.8,441.5h.5h-.5Z" class="g3_1813"/>
<path d="M137.4,441.5h.7h-.7Z" class="g3_1813"/>
<path d="M182.4,441.5h.6h-.6Z" class="g3_1813"/>
<path d="M217.6,441.5h.6h-.6Z" class="g3_1813"/>
<path d="M293.1,441.5h.7h-.7Z" class="g3_1813"/>
<path d="M368.1,441.5h.6h-.6Z" class="g3_1813"/>
<path d="M446.9,441.5h.6h-.6Z" class="g3_1813"/>
<path d="M524.4,441.5h.7h-.7Z" class="g3_1813"/>
<path d="M603.2,441.5h.7h-.7Z" class="g3_1813"/>
<path d="M680.8,441.5h.6h-.6Z" class="g3_1813"/>
<path d="M759.6,441.5h.6h-.6Z" class="g3_1813"/>
<path d="M837.1,441.5h.7h-.7Z" class="g3_1813"/>
</g>
<path clip-path="url(#c3_1813)" d="M98,631.5H837.6V612.6H98v18.9Z" class="g7_1813"/>
<path d="M174.5,644.2H589.2V630.9H174.5v13.3Z" class="g8_1813"/>
<path clip-path="url(#c3_1813)" d="M588.5,644.2H837.6V630.9H588.5v13.3Z" class="g1_1813"/>
<path d="M174.5,656.8H589.2V643.5H174.5v13.3Z" class="g8_1813"/>
<path clip-path="url(#c3_1813)" d="M588.5,656.8H837.6V643.5H588.5v13.3Z" class="g1_1813"/>
<path d="M174.5,670H589.2V656.1H174.5V670Z" class="g8_1813"/>
<path clip-path="url(#c3_1813)" d="M588.5,670H837.6V656.1H588.5V670Z" class="g1_1813"/>
<path d="M174.5,682.6H589.2V669.4H174.5v13.2Z" class="g8_1813"/>
<path clip-path="url(#c3_1813)" d="M588.5,682.6H837.6V669.4H588.5v13.2Z" class="g1_1813"/>
<path d="M174.5,695.3H589.2V682H174.5v13.3Z" class="g8_1813"/>
<path clip-path="url(#c3_1813)" d="M588.5,695.3H837.6V682H588.5v13.3Z" class="g1_1813"/>
<path d="M174.5,708.5H589.2V694.6H174.5v13.9Z" class="g8_1813"/>
<path clip-path="url(#c3_1813)" d="M588.5,708.5H837.6V694.6H588.5v13.9Z" class="g1_1813"/>
<path d="M174.5,721.1H340.8V707.9H174.5v13.2Z" class="g8_1813"/>
<path d="M340.1,721.1H506.4V707.9H340.1v13.2Z" class="g1_1813"/>
<path d="M505.7,721.1H672V707.9H505.7v13.2Z" class="g8_1813"/>
<path d="M671.3,721.1h83.5V707.9H671.3v13.2Z" class="g1_1813"/>
<path d="M754.1,721.1h83.5V707.9H754.1v13.2Z" class="g8_1813"/>
<path d="M174.5,733.8H340.8V720.5H174.5v13.3Z" class="g8_1813"/>
<path d="M340.1,733.8H506.4V720.5H340.1v13.3Z" class="g1_1813"/>
<path d="M505.7,733.8H672V720.5H505.7v13.3Z" class="g8_1813"/>
<path d="M671.3,733.8h83.5V720.5H671.3v13.3Z" class="g1_1813"/>
<path d="M754.1,733.8h83.5V720.5H754.1v13.3Z" class="g8_1813"/>
<path d="M174.5,747H340.8V733.1H174.5V747Z" class="g8_1813"/>
<path d="M340.1,747H506.4V733.1H340.1V747Z" class="g1_1813"/>
<path d="M505.7,747H672V733.1H505.7V747Z" class="g8_1813"/>
<path d="M671.3,747h83.5V733.1H671.3V747Z" class="g1_1813"/>
<path d="M754.1,747h83.5V733.1H754.1V747Z" class="g8_1813"/>
<path d="M174.5,759.6H672V746.4H174.5v13.2Z" class="g8_1813"/>
<path d="M671.3,759.6h83.5V746.4H671.3v13.2Z" class="g1_1813"/>
<path d="M754.1,759.6h83.5V746.4H754.1v13.2Z" class="g8_1813"/>
<path d="M174.5,772.3H672V759H174.5v13.3Z" class="g8_1813"/>
<path d="M671.3,772.3h83.5V759H671.3v13.3Z" class="g1_1813"/>
<path d="M754.1,772.3h83.5V759H754.1v13.3Z" class="g8_1813"/>
<path d="M174.5,785.5H672V771.6H174.5v13.9Z" class="g8_1813"/>
<path d="M671.3,785.5h83.5V771.6H671.3v13.9Z" class="g1_1813"/>
<path d="M754.1,785.5h83.5V771.6H754.1v13.9Z" class="g8_1813"/>
<path d="M174.5,798.1H506.4V784.9H174.5v13.2Z" class="g1_1813"/>
<path d="M505.7,798.1H837.6V784.9H505.7v13.2Z" class="g8_1813"/>
<path d="M174.5,824H506.4V797.5H174.5V824Z" class="g1_1813"/>
<path d="M505.7,824H837.6V797.5H505.7V824Z" class="g8_1813"/>
<path clip-path="url(#c3_1813)" d="M98,842.3H837.6V823.4H98v18.9Z" class="g7_1813"/>
<path d="M98.1,600H837.6v-.6H98.1v.6Z" class="g5_1813"/>
<path d="M131.6,600v12" class="g6_1813"/>
<path d="M131.6,612h.6V600h-.6v12Z" class="g5_1813"/>
<path d="M174.5,600v12" class="g6_1813"/>
<path d="M174.5,612h.7V600h-.7v12Z" class="g5_1813"/>
<path d="M257.3,600v12" class="g6_1813"/>
<path d="M257.3,612h.7V600h-.7v12Z" class="g5_1813"/>
<path d="M340.1,600v12" class="g6_1813"/>
<path d="M340.1,612h.7V600h-.7v12Z" class="g5_1813"/>
<path d="M422.9,600v12" class="g6_1813"/>
<path d="M422.9,612h.7V600h-.7v12Z" class="g5_1813"/>
<path d="M505.7,600v12" class="g6_1813"/>
<path d="M505.7,612h.7V600h-.7v12Z" class="g5_1813"/>
<path d="M588.5,600v12" class="g6_1813"/>
<path d="M588.5,612h.7V600h-.7v12Z" class="g5_1813"/>
<path d="M671.3,600v12" class="g6_1813"/>
<path d="M671.3,612h.7V600h-.7v12Z" class="g5_1813"/>
<path d="M754.1,600v12" class="g6_1813"/>
<path d="M754.1,612h.7V600h-.7v12Z" class="g5_1813"/>
<path d="M98.1,613.2H837.6V612H98.1v1.2Z" class="g5_1813"/>
<path d="M131.6,613.2v17.1" class="g6_1813"/>
<path d="M131.6,630.3h.6V613.2h-.6v17.1Z" class="g5_1813"/>
<path d="M174.5,613.2v17.1" class="g6_1813"/>
<path d="M174.5,630.3h.7V613.2h-.7v17.1Z" class="g5_1813"/>
<path d="M257.3,613.2v17.1" class="g6_1813"/>
<path d="M257.3,630.3h.7V613.2h-.7v17.1Z" class="g5_1813"/>
<path d="M340.1,613.2v17.1" class="g6_1813"/>
<path d="M340.1,630.3h.7V613.2h-.7v17.1Z" class="g5_1813"/>
<path d="M422.9,613.2v17.1" class="g6_1813"/>
<path d="M422.9,630.3h.7V613.2h-.7v17.1Z" class="g5_1813"/>
<path d="M505.7,613.2v17.1" class="g6_1813"/>
<path d="M505.7,630.3h.7V613.2h-.7v17.1Z" class="g5_1813"/>
<path d="M588.5,613.2v17.1" class="g6_1813"/>
<path d="M588.5,630.3h.7V613.2h-.7v17.1Z" class="g5_1813"/>
<path d="M671.3,613.2v17.1" class="g6_1813"/>
<path d="M671.3,630.3h.7V613.2h-.7v17.1Z" class="g5_1813"/>
<path d="M754.1,613.2v17.1" class="g6_1813"/>
<path d="M754.1,630.3h.7V613.2h-.7v17.1Z" class="g5_1813"/>
<path d="M98.1,631.5H837.6v-1.2H98.1v1.2Z" class="g5_1813"/>
<path d="M131.6,631.5v37.3" class="g6_1813"/>
<path d="M131.6,668.8h.6V631.5h-.6v37.3Z" class="g5_1813"/>
<path d="M174.5,631.5v37.3" class="g6_1813"/>
<path d="M174.5,668.8h.7V631.5h-.7v37.3Z" class="g5_1813"/>
<path d="M257.3,631.5v37.3" class="g6_1813"/>
<path d="M257.3,668.8h.7V631.5h-.7v37.3Z" class="g5_1813"/>
<path d="M340.1,631.5v37.3" class="g6_1813"/>
<path d="M340.1,668.8h.7V631.5h-.7v37.3Z" class="g5_1813"/>
<path d="M422.9,631.5v37.3" class="g6_1813"/>
<path d="M422.9,668.8h.7V631.5h-.7v37.3Z" class="g5_1813"/>
<path d="M505.7,631.5v37.3" class="g6_1813"/>
<path d="M505.7,668.8h.7V631.5h-.7v37.3Z" class="g5_1813"/>
<path d="M588.5,631.5v37.3" class="g6_1813"/>
<path d="M588.5,668.8h.7V631.5h-.7v37.3Z" class="g5_1813"/>
<path d="M671.3,631.5v37.3" class="g6_1813"/>
<path d="M671.3,668.8h.7V631.5h-.7v37.3Z" class="g5_1813"/>
<path d="M754.1,631.5v37.3" class="g6_1813"/>
<path d="M754.1,668.8h.7V631.5h-.7v37.3Z" class="g5_1813"/>
<path d="M98.1,670H837.6v-1.2H98.1V670Z" class="g5_1813"/>
<path d="M131.6,670v37.3" class="g6_1813"/>
<path d="M131.6,707.3h.6V670h-.6v37.3Z" class="g5_1813"/>
<path d="M174.5,670v37.3" class="g6_1813"/>
<path d="M174.5,707.3h.7V670h-.7v37.3Z" class="g5_1813"/>
<path d="M257.3,670v37.3" class="g6_1813"/>
<path d="M257.3,707.3h.7V670h-.7v37.3Z" class="g5_1813"/>
<path d="M340.1,670v37.3" class="g6_1813"/>
<path d="M340.1,707.3h.7V670h-.7v37.3Z" class="g5_1813"/>
<path d="M422.9,670v37.3" class="g6_1813"/>
<path d="M422.9,707.3h.7V670h-.7v37.3Z" class="g5_1813"/>
<path d="M505.7,670v37.3" class="g6_1813"/>
<path d="M505.7,707.3h.7V670h-.7v37.3Z" class="g5_1813"/>
<path d="M588.5,670v37.3" class="g6_1813"/>
<path d="M588.5,707.3h.7V670h-.7v37.3Z" class="g5_1813"/>
<path d="M671.3,670v37.3" class="g6_1813"/>
<path d="M671.3,707.3h.7V670h-.7v37.3Z" class="g5_1813"/>
<path d="M754.1,670v37.3" class="g6_1813"/>
<path d="M754.1,707.3h.7V670h-.7v37.3Z" class="g5_1813"/>
<path d="M98.1,708.5H837.6v-1.2H98.1v1.2Z" class="g5_1813"/>
<path d="M131.6,708.5v37.2" class="g6_1813"/>
<path d="M131.6,745.7h.6V708.5h-.6v37.2Z" class="g5_1813"/>
<path d="M174.5,708.5v37.2" class="g6_1813"/>
<path d="M174.5,745.7h.7V708.5h-.7v37.2Z" class="g5_1813"/>
<path d="M257.3,708.5v37.2" class="g6_1813"/>
<path d="M257.3,745.7h.7V708.5h-.7v37.2Z" class="g5_1813"/>
<path d="M340.1,708.5v37.2" class="g6_1813"/>
<path d="M340.1,745.7h.7V708.5h-.7v37.2Z" class="g5_1813"/>
<path d="M422.9,708.5v37.2" class="g6_1813"/>
<path d="M422.9,745.7h.7V708.5h-.7v37.2Z" class="g5_1813"/>
<path d="M505.7,708.5v37.2" class="g6_1813"/>
<path d="M505.7,745.7h.7V708.5h-.7v37.2Z" class="g5_1813"/>
<path d="M588.5,708.5v37.2" class="g6_1813"/>
<path d="M588.5,745.7h.7V708.5h-.7v37.2Z" class="g5_1813"/>
<path d="M671.3,708.5v37.2" class="g6_1813"/>
<path d="M671.3,745.7h.7V708.5h-.7v37.2Z" class="g5_1813"/>
<path d="M754.1,708.5v37.2" class="g6_1813"/>
<path d="M754.1,745.7h.7V708.5h-.7v37.2Z" class="g5_1813"/>
<path d="M98.1,747H837.6v-1.3H98.1V747Z" class="g5_1813"/>
<path d="M131.6,747v37.2" class="g6_1813"/>
<path d="M131.6,784.2h.6V747h-.6v37.2Z" class="g5_1813"/>
<path d="M174.5,747v37.2" class="g6_1813"/>
<path d="M174.5,784.2h.7V747h-.7v37.2Z" class="g5_1813"/>
<path d="M257.3,747v37.2" class="g6_1813"/>
<path d="M257.3,784.2h.7V747h-.7v37.2Z" class="g5_1813"/>
<path d="M340.1,747v37.2" class="g6_1813"/>
<path d="M340.1,784.2h.7V747h-.7v37.2Z" class="g5_1813"/>
<path d="M422.9,747v37.2" class="g6_1813"/>
<path d="M422.9,784.2h.7V747h-.7v37.2Z" class="g5_1813"/>
<path d="M505.7,747v37.2" class="g6_1813"/>
<path d="M505.7,784.2h.7V747h-.7v37.2Z" class="g5_1813"/>
<path d="M588.5,747v37.2" class="g6_1813"/>
<path d="M588.5,784.2h.7V747h-.7v37.2Z" class="g5_1813"/>
<path d="M671.3,747v37.2" class="g6_1813"/>
<path d="M671.3,784.2h.7V747h-.7v37.2Z" class="g5_1813"/>
<path d="M754.1,747v37.2" class="g6_1813"/>
<path d="M754.1,784.2h.7V747h-.7v37.2Z" class="g5_1813"/>
<path d="M98.1,785.5H837.6v-1.3H98.1v1.3Z" class="g5_1813"/>
<path d="M131.6,785.5v37.2" class="g6_1813"/>
<path d="M131.6,822.7h.6V785.5h-.6v37.2Z" class="g5_1813"/>
<path d="M174.5,785.5v37.2" class="g6_1813"/>
<path d="M174.5,822.7h.7V785.5h-.7v37.2Z" class="g5_1813"/>
<path d="M257.3,785.5v37.2" class="g6_1813"/>
<path d="M257.3,822.7h.7V785.5h-.7v37.2Z" class="g5_1813"/>
<path d="M340.1,785.5v37.2" class="g6_1813"/>
<path d="M340.1,822.7h.7V785.5h-.7v37.2Z" class="g5_1813"/>
<path d="M422.9,785.5v37.2" class="g6_1813"/>
<path d="M422.9,822.7h.7V785.5h-.7v37.2Z" class="g5_1813"/>
<path d="M505.7,785.5v37.2" class="g6_1813"/>
<path d="M505.7,822.7h.7V785.5h-.7v37.2Z" class="g5_1813"/>
<path d="M588.5,785.5v37.2" class="g6_1813"/>
<path d="M588.5,822.7h.7V785.5h-.7v37.2Z" class="g5_1813"/>
<path d="M671.3,785.5v37.2" class="g6_1813"/>
<path d="M671.3,822.7h.7V785.5h-.7v37.2Z" class="g5_1813"/>
<path d="M754.1,785.5v37.2" class="g6_1813"/>
<path d="M754.1,822.7h.7V785.5h-.7v37.2Z" class="g5_1813"/>
<path d="M98.1,824H837.6v-1.3H98.1V824Z" class="g5_1813"/>
<path clip-path="url(#c4_1813)" d="M97.5,842.3h.6V599.4h-.6V842.3Z" class="g5_1813"/>
<path d="M131.6,824v17" class="g6_1813"/>
<path d="M131.6,841h.6V824h-.6v17Z" class="g5_1813"/>
<path d="M174.5,824v17" class="g6_1813"/>
<path d="M174.5,841h.7V824h-.7v17Z" class="g5_1813"/>
<path d="M257.3,824v17" class="g6_1813"/>
<path d="M257.3,841h.7V824h-.7v17Z" class="g5_1813"/>
<path d="M340.1,824v17" class="g6_1813"/>
<path d="M340.1,841h.7V824h-.7v17Z" class="g5_1813"/>
<path d="M422.9,824v17" class="g6_1813"/>
<path d="M422.9,841h.7V824h-.7v17Z" class="g5_1813"/>
<path d="M505.7,824v17" class="g6_1813"/>
<path d="M505.7,841h.7V824h-.7v17Z" class="g5_1813"/>
<path d="M588.5,824v17" class="g6_1813"/>
<path d="M588.5,841h.7V824h-.7v17Z" class="g5_1813"/>
<path d="M671.3,824v17" class="g6_1813"/>
<path d="M671.3,841h.7V824h-.7v17Z" class="g5_1813"/>
<path d="M754.1,824v17" class="g6_1813"/>
<path d="M754.1,841h.7V824h-.7v17Z" class="g5_1813"/>
<path d="M98.1,842.3H837.6V841H98.1v1.3Z" class="g5_1813"/>
<path clip-path="url(#c4_1813)" d="M836.3,842.3h1.3V600h-1.3V842.3Z" class="g5_1813"/>
<path d="M97.5,842.3h.6h-.6Z" class="g9_1813"/>
<path clip-path="url(#c4_1813)" d="M131.6,842.3v.6" class="ga_1813"/>
<path d="M131.6,842.3h.6h-.6Z" class="g9_1813"/>
<path clip-path="url(#c4_1813)" d="M174.5,842.3v.6" class="ga_1813"/>
<path d="M174.5,842.3h.7h-.7Z" class="g9_1813"/>
<path clip-path="url(#c4_1813)" d="M257.3,842.3v.6" class="ga_1813"/>
<path d="M257.3,842.3h.7h-.7Z" class="g9_1813"/>
<path clip-path="url(#c4_1813)" d="M340.1,842.3v.6" class="ga_1813"/>
<path d="M340.1,842.3h.7h-.7Z" class="g9_1813"/>
<path clip-path="url(#c4_1813)" d="M422.9,842.3v.6" class="ga_1813"/>
<path d="M422.9,842.3h.7h-.7Z" class="g9_1813"/>
<path clip-path="url(#c4_1813)" d="M505.7,842.3v.6" class="ga_1813"/>
<path d="M505.7,842.3h.7h-.7Z" class="g9_1813"/>
<path clip-path="url(#c4_1813)" d="M588.5,842.3v.6" class="ga_1813"/>
<path d="M588.5,842.3h.7h-.7Z" class="g9_1813"/>
<path clip-path="url(#c4_1813)" d="M671.3,842.3v.6" class="ga_1813"/>
<path d="M671.3,842.3h.7h-.7Z" class="g9_1813"/>
<path clip-path="url(#c4_1813)" d="M754.1,842.3v.6" class="ga_1813"/>
<path d="M754.1,842.3h.7h-.7Z" class="g9_1813"/>
<g clip-path="url(#c4_1813)">
<path d="M836.9,842.3v.6" class="ga_1813"/>
<path d="M836.9,842.3h.7h-.7Z" class="g9_1813"/>
</g>
</svg>