<?xml version="1.0" encoding="UTF-8" standalone="no"?>
<!DOCTYPE svg PUBLIC "-//W3C//DTD SVG 1.1//EN"
"http://www.w3.org/Graphics/SVG/1.1/DTD/svg11.dtd">
<svg viewBox="0 0 935 1210" version="1.1" xmlns="http://www.w3.org/2000/svg" xmlns:xlink="http://www.w3.org/1999/xlink">
<defs>
<clipPath id="c0_2848"><path d="M766.6,59.2V41.4h72.2V59.2Z"/></clipPath>
<style type="text/css"><![CDATA[
.g0_2848{
fill: #000;
}
]]></style>
</defs>
<path d="M97.4,63.3H839.9v-.4H97.4v.4Z" class="g0_2848"/>
<path d="M96.1,1114.5h.2v-.4h-.2v.4Z" class="g0_2848"/>
<path d="M96.3,1114.5H838.9v-.4H96.3v.4Z" class="g0_2848"/>
<image clip-path="url(#c0_2848)" preserveAspectRatio="none" x="767" y="41" width="72" height="18" xlink:href="img/1.jpg"/>
<path d="M95.9,1085.9h.7V179.1h-.7v906.8Z" class="g0_2848"/>
<path d="M539.1,243.3h.7V178.4h-.7v64.9Z" class="g0_2848"/>
<path d="M539.1,307.4h.7V263.9h-.7v43.5Z" class="g0_2848"/>
<path d="M539.1,371.6h.7V328.1h-.7v43.5Z" class="g0_2848"/>
<path d="M539.1,432.8h.7V392.2h-.7v40.6Z" class="g0_2848"/>
<path d="M539.1,573.3h.7V453.4h-.7V573.3Z" class="g0_2848"/>
<path d="M539.1,637.4h.7V593.9h-.7v43.5Z" class="g0_2848"/>
<path d="M539.1,680.3h.7V658.1h-.7v22.2Z" class="g0_2848"/>
<path d="M539.1,744.4h.7V700.9h-.7v43.5Z" class="g0_2848"/>
<path d="M539.1,851.4h.7V765.1h-.7v86.3Z" class="g0_2848"/>
<path d="M539.1,1086.6h.7V872h-.7v214.6Z" class="g0_2848"/>
<path d="M662.6,243.3h.7V178.4h-.7v64.9Z" class="g0_2848"/>
<path d="M662.6,307.4h.7V263.9h-.7v43.5Z" class="g0_2848"/>
<path d="M662.6,371.6h.7V328.1h-.7v43.5Z" class="g0_2848"/>
<path d="M662.6,432.8h.7V392.2h-.7v40.6Z" class="g0_2848"/>
<path d="M662.6,573.3h.7V453.4h-.7V573.3Z" class="g0_2848"/>
<path d="M662.6,637.4h.7V593.9h-.7v43.5Z" class="g0_2848"/>
<path d="M662.6,680.3h.7V658.1h-.7v22.2Z" class="g0_2848"/>
<path d="M662.6,744.4h.7V700.9h-.7v43.5Z" class="g0_2848"/>
<path d="M662.6,851.4h.7V765.1h-.7v86.3Z" class="g0_2848"/>
<path d="M662.6,1086.6h.7V872h-.7v214.6Z" class="g0_2848"/>
<path d="M780.7,1085.9h.8V179.1h-.8v906.8Z" class="g0_2848"/>
<path d="M95.9,179.1H781.6v-.7H95.9v.7Z" class="g0_2848"/>
<path d="M95.9,200.5H781.6v-.8H95.9v.8Z" class="g0_2848"/>
<path d="M95.9,221.8H781.6v-.7H95.9v.7Z" class="g0_2848"/>
<path d="M95.9,243.3H781.6v-.7H95.9v.7Z" class="g0_2848"/>
<path d="M95.9,264.6H781.6v-.7H95.9v.7Z" class="g0_2848"/>
<path d="M95.9,286.1H781.6v-.7H95.9v.7Z" class="g0_2848"/>
<path d="M95.9,307.4H781.6v-.7H95.9v.7Z" class="g0_2848"/>
<path d="M95.9,328.8H781.6v-.7H95.9v.7Z" class="g0_2848"/>
<path d="M95.9,350.3H781.6v-.8H95.9v.8Z" class="g0_2848"/>
<path d="M95.9,371.6H781.6v-.7H95.9v.7Z" class="g0_2848"/>
<path d="M95.9,393H781.6v-.8H95.9v.8Z" class="g0_2848"/>
<path d="M95.9,412.9H781.6v-.8H95.9v.8Z" class="g0_2848"/>
<path d="M95.9,432.8H781.6V432H95.9v.8Z" class="g0_2848"/>
<path d="M95.9,454.1H781.6v-.7H95.9v.7Z" class="g0_2848"/>
<path d="M95.9,474H781.6v-.7H95.9v.7Z" class="g0_2848"/>
<path d="M95.9,493.8H781.6v-.7H95.9v.7Z" class="g0_2848"/>
<path d="M95.9,513.7H781.6V513H95.9v.7Z" class="g0_2848"/>
<path d="M95.9,533.6H781.6v-.7H95.9v.7Z" class="g0_2848"/>
<path d="M95.9,553.4H781.6v-.7H95.9v.7Z" class="g0_2848"/>
<path d="M95.9,573.3H781.6v-.8H95.9v.8Z" class="g0_2848"/>
<path d="M95.9,594.6H781.6v-.7H95.9v.7Z" class="g0_2848"/>
<path d="M95.9,616.1H781.6v-.7H95.9v.7Z" class="g0_2848"/>
<path d="M95.9,637.4H781.6v-.7H95.9v.7Z" class="g0_2848"/>
<path d="M95.9,658.8H781.6v-.7H95.9v.7Z" class="g0_2848"/>
<path d="M95.9,680.3H781.6v-.8H95.9v.8Z" class="g0_2848"/>
<path d="M95.9,701.6H781.6v-.7H95.9v.7Z" class="g0_2848"/>
<path d="M95.9,723H781.6v-.8H95.9v.8Z" class="g0_2848"/>
<path d="M95.9,744.4H781.6v-.7H95.9v.7Z" class="g0_2848"/>
<path d="M95.9,765.8H781.6V765H95.9v.8Z" class="g0_2848"/>
<path d="M95.9,787.1H781.6v-.7H95.9v.7Z" class="g0_2848"/>
<path d="M95.9,808.6H781.6v-.7H95.9v.7Z" class="g0_2848"/>
<path d="M95.9,830H781.6v-.8H95.9v.8Z" class="g0_2848"/>
<path d="M95.9,851.3H781.6v-.7H95.9v.7Z" class="g0_2848"/>
<path d="M95.9,872.8H781.6V872H95.9v.8Z" class="g0_2848"/>
<path d="M95.9,894.1H781.6v-.7H95.9v.7Z" class="g0_2848"/>
<path d="M95.9,915.5H781.6v-.8H95.9v.8Z" class="g0_2848"/>
<path d="M95.9,936.9H781.6v-.7H95.9v.7Z" class="g0_2848"/>
<path d="M95.9,958.3H781.6v-.7H95.9v.7Z" class="g0_2848"/>
<path d="M95.9,979.6H781.6v-.7H95.9v.7Z" class="g0_2848"/>
<path d="M95.9,1001.1H781.6v-.7H95.9v.7Z" class="g0_2848"/>
<path d="M95.9,1022.5H781.6v-.8H95.9v.8Z" class="g0_2848"/>
<path d="M95.9,1043.9H781.6v-.7H95.9v.7Z" class="g0_2848"/>
<path d="M95.9,1065.3H781.6v-.8H95.9v.8Z" class="g0_2848"/>
<path d="M95.9,1086.6H781.6v-.7H95.9v.7Z" class="g0_2848"/>
</svg>