<?xml version="1.0" encoding="UTF-8" standalone="no"?>
<!DOCTYPE svg PUBLIC "-//W3C//DTD SVG 1.1//EN"
"http://www.w3.org/Graphics/SVG/1.1/DTD/svg11.dtd">
<svg viewBox="0 0 935 1210" version="1.1" xmlns="http://www.w3.org/2000/svg" xmlns:xlink="http://www.w3.org/1999/xlink">
<defs>
<style type="text/css"><![CDATA[
.g0_3931{
fill: #FFF;
}
.g1_3931{
fill: #000;
}
]]></style>
</defs>
<path d="M68.9,1149.3H852.7v-21.2H68.9v21.2Z" class="g0_3931"/>
<path d="M69.9,601.6h.8V124.1h-.8V601.6Z" class="g1_3931"/>
<path d="M213.9,602.3h.8V123.4h-.8V602.3Z" class="g1_3931"/>
<path d="M428.8,602.3h.8V123.4h-.8V602.3Z" class="g1_3931"/>
<path d="M643.8,602.3h.7V123.4h-.7V602.3Z" class="g1_3931"/>
<path d="M852.5,601.6h.7V124.1h-.7V601.6Z" class="g1_3931"/>
<path d="M69.9,124.1H853.2v-.7H69.9v.7Z" class="g1_3931"/>
<path d="M69.9,148.6H853.2v-.7H69.9v.7Z" class="g1_3931"/>
<path d="M69.9,173H853.2v-.8H69.9v.8Z" class="g1_3931"/>
<path d="M69.9,214.2H853.2v-.7H69.9v.7Z" class="g1_3931"/>
<path d="M69.9,255.5H853.2v-.8H69.9v.8Z" class="g1_3931"/>
<path d="M69.9,313.6H853.2v-.7H69.9v.7Z" class="g1_3931"/>
<path d="M69.9,354.8H853.2v-.7H69.9v.7Z" class="g1_3931"/>
<path d="M69.9,396.1H853.2v-.7H69.9v.7Z" class="g1_3931"/>
<path d="M69.9,437.3H853.2v-.7H69.9v.7Z" class="g1_3931"/>
<path d="M69.9,495.4H853.2v-.8H69.9v.8Z" class="g1_3931"/>
<path d="M69.9,536.6H853.2v-.7H69.9v.7Z" class="g1_3931"/>
<path d="M69.9,561.1H853.2v-.7H69.9v.7Z" class="g1_3931"/>
<path d="M69.9,602.3H853.2v-.7H69.9v.7Z" class="g1_3931"/>
</svg>