<?xml version="1.0" encoding="UTF-8" standalone="no"?>
<!DOCTYPE svg PUBLIC "-//W3C//DTD SVG 1.1//EN"
"http://www.w3.org/Graphics/SVG/1.1/DTD/svg11.dtd">
<svg viewBox="0 0 935 1210" version="1.1" xmlns="http://www.w3.org/2000/svg" xmlns:xlink="http://www.w3.org/1999/xlink">
<defs>
<clipPath id="c0_3185"><path d="M766.6,59.2V41.4h72.2V59.2Z"/></clipPath>
<style type="text/css"><![CDATA[
.g0_3185{
fill: #000;
}
.g1_3185{
fill: none;
stroke: #000;
stroke-width: 0.763;
}
.g2_3185{
fill: #FFF;
stroke: #000;
stroke-width: 1.527;
}
]]></style>
</defs>
<path d="M97.4,63.3H839.9v-.4H97.4v.4Z" class="g0_3185"/>
<path d="M96.1,1114.5h.2v-.4h-.2v.4Z" class="g0_3185"/>
<path d="M96.3,1114.5H838.9v-.4H96.3v.4Z" class="g0_3185"/>
<image clip-path="url(#c0_3185)" preserveAspectRatio="none" x="767" y="41" width="72" height="18" xlink:href="img/1.jpg"/>
<path d="M349.9,666.4v37.2M694.8,666.4v51.1H376m-26.1,10.6v13.1H206.4V600.1H349.2v24.5" class="g1_3185"/>
<path d="M345.4,623.5l3.8,6.6l3.8,-6.6h-7.6Z" class="g0_3185"/>
<path d="M272.7,666.4v15m344.2,-15v29.7H298.8m-26.1,11.4v10.8H220.1V610.8h52v13.8" class="g1_3185"/>
<path d="M268.3,623.5l3.8,6.6l3.8,-6.6h-7.6Z" class="g0_3185"/>
<path d="M579.2,661.9h76.1V637.2H579.2v24.7Z" class="g2_3185"/>
<path d="M655.3,661.9h76.1V637.2H655.3v24.7Z" class="g2_3185"/>
<path d="M233.9,661.9H310V637.2H233.9v24.7Z" class="g2_3185"/>
<path d="M310,661.9h76.1V637.2H310v24.7Z" class="g2_3185"/>
</svg>