<?xml version="1.0" encoding="UTF-8" standalone="no"?>
<!DOCTYPE svg PUBLIC "-//W3C//DTD SVG 1.1//EN"
"http://www.w3.org/Graphics/SVG/1.1/DTD/svg11.dtd">
<svg viewBox="0 0 935 1210" version="1.1" xmlns="http://www.w3.org/2000/svg" xmlns:xlink="http://www.w3.org/1999/xlink">
<defs>
<style type="text/css"><![CDATA[
.g0_1762{
fill: #FFF;
}
.g1_1762{
fill: #000;
}
]]></style>
</defs>
<path d="M165,1149.3H852.5v-21.2H165v21.2Z" class="g0_1762"/>
<path d="M68.8,1149.3h82.5v-21.2H68.8v21.2Z" class="g0_1762"/>
<path d="M68.6,202.9h.7V125.7h-.7v77.2Z" class="g1_1762"/>
<path d="M219.2,203.6h.7V124.9h-.7v78.7Z" class="g1_1762"/>
<path d="M390.1,203.6h.8V124.9h-.8v78.7Z" class="g1_1762"/>
<path d="M428,203.6h.7V124.9H428v78.7Z" class="g1_1762"/>
<path d="M501.3,203.6h.8V124.9h-.8v78.7Z" class="g1_1762"/>
<path d="M572.7,203.6h.8V124.9h-.8v78.7Z" class="g1_1762"/>
<path d="M852.2,202.9h.8V125.7h-.8v77.2Z" class="g1_1762"/>
<path d="M68.6,125.7H853v-.8H68.6v.8Z" class="g1_1762"/>
<path d="M68.6,163.8H853v-.7H68.6v.7Z" class="g1_1762"/>
<path d="M68.6,203.6H853v-.7H68.6v.7Z" class="g1_1762"/>
<path d="M68.6,306.7h.7V258.6h-.7v48.1Z" class="g1_1762"/>
<path d="M133.8,307.4h.8V257.9h-.8v49.5Z" class="g1_1762"/>
<path d="M305,307.4h.7V257.9H305v49.5Z" class="g1_1762"/>
<path d="M481.6,307.4h.8V257.9h-.8v49.5Z" class="g1_1762"/>
<path d="M663.6,307.4h.7V257.9h-.7v49.5Z" class="g1_1762"/>
<path d="M850.8,306.7h.7V258.6h-.7v48.1Z" class="g1_1762"/>
<path d="M68.6,258.6H851.5v-.7H68.6v.7Z" class="g1_1762"/>
<path d="M68.6,283H851.5v-.8H68.6v.8Z" class="g1_1762"/>
<path d="M68.6,307.4H851.5v-.7H68.6v.7Z" class="g1_1762"/>
</svg>