<?xml version="1.0" encoding="UTF-8" standalone="no"?>
<!DOCTYPE svg PUBLIC "-//W3C//DTD SVG 1.1//EN"
"http://www.w3.org/Graphics/SVG/1.1/DTD/svg11.dtd">
<svg viewBox="0 0 935 1210" version="1.1" xmlns="http://www.w3.org/2000/svg" xmlns:xlink="http://www.w3.org/1999/xlink">
<defs>
<style type="text/css"><![CDATA[
.g0_4770{
fill: #FFF;
}
.g1_4770{
fill: #000;
}
]]></style>
</defs>
<path d="M68.8,1149.3H852.5v-21.2H68.8v21.2Z" class="g0_4770"/>
<path d="M68.6,1047.8h.7V124.1h-.7v923.7Z" class="g1_4770"/>
<path d="M125.3,1048.5h.7V164.6h-.7v883.9Z" class="g1_4770"/>
<path d="M182.1,1048.5h.7V123.4h-.7v925.1Z" class="g1_4770"/>
<path d="M422.7,1048.5h.7V123.4h-.7v925.1Z" class="g1_4770"/>
<path d="M516.1,1048.5h.7V123.4h-.7v925.1Z" class="g1_4770"/>
<path d="M851.7,1047.8h.7V124.1h-.7v923.7Z" class="g1_4770"/>
<path d="M68.6,124.1H852.4v-.7H68.6v.7Z" class="g1_4770"/>
<path d="M68.6,165.4H182.8v-.8H68.6v.8Z" class="g1_4770"/>
<path d="M68.6,189.8H852.4v-.7H68.6v.7Z" class="g1_4770"/>
<path d="M68.6,235.7H852.4v-.8H68.6v.8Z" class="g1_4770"/>
<path d="M182.1,302.9H852.4v-.8H182.1v.8Z" class="g1_4770"/>
<path d="M182.1,348.7H852.4V348H182.1v.7Z" class="g1_4770"/>
<path d="M182.1,394.5H852.4v-.7H182.1v.7Z" class="g1_4770"/>
<path d="M182.1,419H852.4v-.7H182.1v.7Z" class="g1_4770"/>
<path d="M68.6,553.5H852.4v-.8H68.6v.8Z" class="g1_4770"/>
<path d="M68.6,577.9H516.9v-.8H68.6v.8Z" class="g1_4770"/>
<path d="M68.6,602.3H516.9v-.7H68.6v.7Z" class="g1_4770"/>
<path d="M68.6,626.8H516.9v-.7H68.6v.7Z" class="g1_4770"/>
<path d="M68.6,651.2H852.4v-.7H68.6v.7Z" class="g1_4770"/>
<path d="M68.6,675.7H516.9v-.8H68.6v.8Z" class="g1_4770"/>
<path d="M68.6,700.2H516.9v-.8H68.6v.8Z" class="g1_4770"/>
<path d="M68.6,724.5H516.9v-.7H68.6v.7Z" class="g1_4770"/>
<path d="M68.6,752H852.4v-.7H68.6v.7Z" class="g1_4770"/>
<path d="M68.6,776.5H516.9v-.7H68.6v.7Z" class="g1_4770"/>
<path d="M68.6,801H516.9v-.7H68.6v.7Z" class="g1_4770"/>
<path d="M68.6,825.4H516.9v-.8H68.6v.8Z" class="g1_4770"/>
<path d="M68.6,849.8H852.4v-.7H68.6v.7Z" class="g1_4770"/>
<path d="M68.6,874.3H516.9v-.7H68.6v.7Z" class="g1_4770"/>
<path d="M68.6,898.7H516.9V898H68.6v.7Z" class="g1_4770"/>
<path d="M68.6,923.2H516.9v-.8H68.6v.8Z" class="g1_4770"/>
<path d="M68.6,947.7H852.4v-.8H68.6v.8Z" class="g1_4770"/>
<path d="M68.6,972H516.9v-.7H68.6v.7Z" class="g1_4770"/>
<path d="M68.6,996.5H516.9v-.7H68.6v.7Z" class="g1_4770"/>
<path d="M68.6,1021H516.9v-.7H68.6v.7Z" class="g1_4770"/>
<path d="M68.6,1048.5H852.4v-.7H68.6v.7Z" class="g1_4770"/>
</svg>