<?xml version="1.0" encoding="UTF-8" standalone="no"?>
<!DOCTYPE svg PUBLIC "-//W3C//DTD SVG 1.1//EN"
"http://www.w3.org/Graphics/SVG/1.1/DTD/svg11.dtd">
<svg viewBox="0 0 935 1210" version="1.1" xmlns="http://www.w3.org/2000/svg" xmlns:xlink="http://www.w3.org/1999/xlink">
<defs>
<style type="text/css"><![CDATA[
.g0_1062{
fill: #FFF;
}
.g1_1062{
fill: #F7F7F7;
}
.g2_1062{
fill: #E6E6E6;
}
.g3_1062{
fill: #000;
}
]]></style>
</defs>
<path d="M165,1149.3H852.5v-21.2H165v21.2Z" class="g0_1062"/>
<path d="M68.8,1149.3h82.5v-21.2H68.8v21.2Z" class="g0_1062"/>
<path d="M71.4,171.1h84V146.7h-84v24.4Z" class="g1_1062"/>
<path d="M477.3,171.1h68.1V146.7H477.3v24.4Z" class="g1_1062"/>
<path d="M409.8,195.5h67.5V171.1H409.8v24.4Z" class="g1_1062"/>
<path d="M71.4,220H323.2V195.5H71.4V220Z" class="g1_1062"/>
<path d="M71.4,244.5H323.2V220H71.4v24.5Z" class="g1_1062"/>
<path d="M71.4,268.9H323.2V244.5H71.4v24.4Z" class="g1_1062"/>
<path d="M71.4,293.3H323.2V268.9H71.4v24.4Z" class="g1_1062"/>
<path d="M71.4,317.8H323.2V293.3H71.4v24.5Z" class="g1_1062"/>
<path d="M71.4,342.2H323.2V317.8H71.4v24.4Z" class="g1_1062"/>
<path d="M71.4,366.7H323.2V342.2H71.4v24.5Z" class="g1_1062"/>
<path d="M71.4,391.1H323.2V366.7H71.4v24.4Z" class="g1_1062"/>
<path d="M71.4,806.7H777.8V782.3H71.4v24.4Z" class="g2_1062"/>
<path d="M71.4,831.1H777.8V806.7H71.4v24.4Z" class="g2_1062"/>
<path d="M71.4,855.6H777.8V831.1H71.4v24.5Z" class="g2_1062"/>
<path d="M70.3,145.6h2.3V124.9H70.3v20.7Z" class="g3_1062"/>
<path d="M71,928.6h.8V147.9H71V928.6Z" class="g3_1062"/>
<path d="M155,171.5h.7V122.7H155v48.8Z" class="g3_1062"/>
<path d="M238.9,196h.7V122.7h-.7V196Z" class="g3_1062"/>
<path d="M322.9,147.9h.7V122.7h-.7v25.2Z" class="g3_1062"/>
<path d="M322.9,391.5h.7V195.2h-.7V391.5Z" class="g3_1062"/>
<path d="M409.4,196h.7V122.7h-.7V196Z" class="g3_1062"/>
<path d="M476.9,196h.8V122.7h-.8V196Z" class="g3_1062"/>
<path d="M545.1,171.5h.7V122.7h-.7v48.8Z" class="g3_1062"/>
<path d="M615.6,196h.8V122.7h-.8V196Z" class="g3_1062"/>
<path d="M696.6,171.5h.7V122.7h-.7v48.8Z" class="g3_1062"/>
<path d="M777.4,147.9h.8V122.7h-.8v25.2Z" class="g3_1062"/>
<path d="M776.7,930H779V145.6h-2.3V930Z" class="g3_1062"/>
<path d="M848.6,927.8h2.2V124.9h-2.2V927.8Z" class="g3_1062"/>
<path d="M70.3,124.9H850.8v-2.2H70.3v2.2Z" class="g3_1062"/>
<path d="M70.3,147.9H778.9v-2.3H70.3v2.3Z" class="g3_1062"/>
<path d="M776.6,147h74.2v-.7H776.6v.7Z" class="g3_1062"/>
<path d="M71,171.5H850.9v-.7H71v.7Z" class="g3_1062"/>
<path d="M71,195.9H850.9v-.7H71v.7Z" class="g3_1062"/>
<path d="M71,220.4H850.9v-.8H71v.8Z" class="g3_1062"/>
<path d="M71,244.8H850.9v-.7H71v.7Z" class="g3_1062"/>
<path d="M71,269.2H850.9v-.7H71v.7Z" class="g3_1062"/>
<path d="M71,293.7H850.9V293H71v.7Z" class="g3_1062"/>
<path d="M71,318.2H850.9v-.8H71v.8Z" class="g3_1062"/>
<path d="M71,342.6H850.9v-.8H71v.8Z" class="g3_1062"/>
<path d="M71,367H850.9v-.7H71v.7Z" class="g3_1062"/>
<path d="M71,391.5H850.9v-.7H71v.7Z" class="g3_1062"/>
<path d="M71,416H850.9v-.8H71v.8Z" class="g3_1062"/>
<path d="M71,440.4H850.9v-.8H71v.8Z" class="g3_1062"/>
<path d="M71,464.8H850.9v-.7H71v.7Z" class="g3_1062"/>
<path d="M71,489.3H850.9v-.7H71v.7Z" class="g3_1062"/>
<path d="M71,513.7H850.9V513H71v.7Z" class="g3_1062"/>
<path d="M71,538.2H850.9v-.8H71v.8Z" class="g3_1062"/>
<path d="M71,562.7H850.9v-.8H71v.8Z" class="g3_1062"/>
<path d="M71,587H850.9v-.7H71v.7Z" class="g3_1062"/>
<path d="M71,611.5H850.9v-.7H71v.7Z" class="g3_1062"/>
<path d="M71,636H850.9v-.8H71v.8Z" class="g3_1062"/>
<path d="M71,660.4H850.9v-.8H71v.8Z" class="g3_1062"/>
<path d="M71,684.8H850.9v-.7H71v.7Z" class="g3_1062"/>
<path d="M71,709.3H850.9v-.7H71v.7Z" class="g3_1062"/>
<path d="M71,733.7H850.9V733H71v.7Z" class="g3_1062"/>
<path d="M71,758.2H850.9v-.8H71v.8Z" class="g3_1062"/>
<path d="M71,782.7H850.9v-.8H71v.8Z" class="g3_1062"/>
<path d="M71,807H850.9v-.7H71v.7Z" class="g3_1062"/>
<path d="M71,831.5H850.9v-.7H71v.7Z" class="g3_1062"/>
<path d="M71,856H850.9v-.8H71v.8Z" class="g3_1062"/>
<path d="M71,880.4H850.9v-.8H71v.8Z" class="g3_1062"/>
<path d="M71,904.8H850.9v-.7H71v.7Z" class="g3_1062"/>
<path d="M71,929.3H776.6v-.7H71v.7Z" class="g3_1062"/>
<path d="M778.9,930.1h71.9v-2.2H778.9v2.2Z" class="g3_1062"/>
</svg>