<?xml version="1.0" encoding="UTF-8" standalone="no"?>
<!DOCTYPE svg PUBLIC "-//W3C//DTD SVG 1.1//EN"
"http://www.w3.org/Graphics/SVG/1.1/DTD/svg11.dtd">
<svg viewBox="0 0 935 1210" version="1.1" xmlns="http://www.w3.org/2000/svg" xmlns:xlink="http://www.w3.org/1999/xlink">
<defs>
<style type="text/css"><![CDATA[
.g0_174{
fill: none;
stroke: #000;
stroke-width: 0.608;
stroke-miterlimit: 10;
}
]]></style>
</defs>
<path d="M174.7,648.8H760.3m-585.2,21V649.1M253,669.8V649.1m.6,20.7V649.1m160.9,20.7V649.1m.6,20.7V649.1m142.3,20.7V649.1m.6,20.7V649.1m201.9,20.7V649.1m-585.2,21H760.3m-585.6,3.6H760.3m-585.2,21V674M253,694.7V674m161.5,20.7V674m142.9,20.7V674m71.4,14.2h5m126.1,6.5V674M174.7,695H760.3M175.1,716V695.3M253,716V695.3M414.5,716V695.3M557.4,716V695.3m89,14.2h5M759.9,716V695.3M174.7,716.4H760.3m-585.2,21V716.7M253,737.4V716.7m161.5,20.7V716.7m142.9,20.7V716.7m89,14.1h5m108.5,6.6V716.7m-585.2,21H760.3m-585.2,21V738M253,758.7V738m161.5,20.7V738m142.9,20.7V738m89,14.2h5m108.5,6.5V738M174.7,759H760.3M175.1,780V759.3M253,780V759.3M414.5,780V759.3M557.4,780V759.3m89,14.2h5M759.9,780V759.3m-585.2,21H760.3m-585.2,21V780.6M253,801.3V780.6m161.5,20.7V780.6m142.9,20.7V780.6m97.4,14.2h5m100.1,6.5V780.6m-585.2,21H760.3m-585.2,21V801.9M253,822.6V801.9m161.5,20.7V801.9m142.9,20.7V801.9m97.4,14.2h5m100.1,6.5V801.9m-585.2,21H760.3m-585.2,21V823.2M253,843.9V823.2m161.5,20.7V823.2m142.9,20.7V823.2m114,14.2h5m83.5,6.5V823.2m-585.2,21H760.3" class="g0_174"/>
</svg>