<?xml version="1.0" encoding="UTF-8" standalone="no"?>
<!DOCTYPE svg PUBLIC "-//W3C//DTD SVG 1.1//EN"
"http://www.w3.org/Graphics/SVG/1.1/DTD/svg11.dtd">
<svg viewBox="0 0 825 990" version="1.1" xmlns="http://www.w3.org/2000/svg" xmlns:xlink="http://www.w3.org/1999/xlink">
<defs>
<clipPath id="c0_764"><path d="M145.1,446.8V436H729.8v10.8Z"/></clipPath>
<style type="text/css"><![CDATA[
.g0_764{
fill: #000;
}
.g1_764{
fill: #FFF;
}
]]></style>
</defs>
<path d="M79.8,910.3h.3v-.8h-.3v.8Z" class="g0_764"/>
<path d="M80.1,910.3h650v-.8H80.1v.8Z" class="g0_764"/>
<path d="M145.1,365.7H729.8v-26H145.1v26Z" class="g1_764"/>
<path d="M145.1,350.8v-.7Z" class="g0_764"/>
<path d="M145.1,350.8h43.6v-.7H145.1v.7Z" class="g0_764"/>
<path d="M231.5,350.8h.4v-.7h-.4v.7Z" class="g0_764"/>
<path d="M231.9,350.8h86.7v-.7H231.9v.7Z" class="g0_764"/>
<path clip-path="url(#c0_764)" d="M145.1,446.8H729.8V436H145.1v10.8Z" class="g1_764"/>
<path d="M145.1,439.8v-.7Z" class="g0_764"/>
<path d="M145.1,439.8H318.6v-.7H145.1v.7Z" class="g0_764"/>
<path d="M403.7,150.6H729.8v-.7H403.7v.7Z" class="g0_764"/>
<path d="M403.7,202.6H729.8v-.8H403.7v.8Z" class="g0_764"/>
<path d="M403.7,231.4H729.8v-.2H403.7v.2Z" class="g0_764"/>
<path d="M403.7,260.3H729.8v-.1H403.7v.1Z" class="g0_764"/>
<path d="M403.7,289.4H729.8v-.2H403.7v.2Z" class="g0_764"/>
<path d="M403.7,318.7H729.8V318H403.7v.7Z" class="g0_764"/>
<path d="M277.9,515.9H729.8v-.7H277.9v.7Z" class="g0_764"/>
<path d="M277.9,551.1H729.8v-.7H277.9v.7Z" class="g0_764"/>
<path d="M277.9,579.8H729.8v-.2H277.9v.2Z" class="g0_764"/>
<path d="M277.9,608.9H729.8v-.2H277.9v.2Z" class="g0_764"/>
<path d="M277.9,654.7H729.8v-.2H277.9v.2Z" class="g0_764"/>
<path d="M277.9,683.7H729.8v-.1H277.9v.1Z" class="g0_764"/>
<path d="M277.9,729.6H729.8v-.2H277.9v.2Z" class="g0_764"/>
<path d="M277.9,775.7H729.8v-.8H277.9v.8Z" class="g0_764"/>
</svg>