<?xml version="1.0" encoding="UTF-8" standalone="no"?>
<!DOCTYPE svg PUBLIC "-//W3C//DTD SVG 1.1//EN"
"http://www.w3.org/Graphics/SVG/1.1/DTD/svg11.dtd">
<svg viewBox="0 0 935 1210" version="1.1" xmlns="http://www.w3.org/2000/svg" xmlns:xlink="http://www.w3.org/1999/xlink">
<defs>
<style type="text/css"><![CDATA[
.g0_413{
fill: #FFF;
}
.g1_413{
fill: #000;
}
]]></style>
</defs>
<path d="M68.9,1149.3H755.2v-21.2H68.9v21.2Z" class="g0_413"/>
<path d="M771.3,1149.3H855v-21.2H771.3v21.2Z" class="g0_413"/>
<path d="M158.5,366.5h.7V124.1h-.7V366.5Z" class="g1_413"/>
<path d="M763.5,366.5h.7V124.1h-.7V366.5Z" class="g1_413"/>
<path d="M158.5,124.1H764.2v-.7H158.5v.7Z" class="g1_413"/>
<path d="M158.5,367.2H764.2v-.7H158.5v.7Z" class="g1_413"/>
<path fill-rule="evenodd" d="M439,285.5l.1,-.3v-.3c0,-1.5,-1.9,-2,-2.9,-.8v.3l-.1,.3c-.2,1.4,1.3,2.3,2.6,1.3l.2,-.3l.1,-.2Z" class="g1_413"/>
<path d="M437.6,284.9l2.3,-6.1l.4,-1l.8,.7l19.2,14.2l2.1,1.5l-2.7,-.1l-23.7,-2l-1,-.1l.3,-1l.8,-.4l23.7,1.9l-.1,1.6l-.4,-.2L440.1,279.7l1,-1.2l.2,.8l-2.3,6.1Z" class="g1_413"/>
<path d="M435.3,291l2.3,-6.1l1.4,.6l-2.3,6.1Z" class="g1_413"/>
<path fill-rule="evenodd" d="M438.3,285.2l2.2,-6.2l19.2,14.2L436,291.3Z" class="g1_413"/>
<path d="M256.6,215.5l-1.1,2.8L437,286.4l1.1,-2.9Z" class="g1_413"/>
<path d="M601.5,314.9h56.8V294.2H601.5v20.7Z" class="g0_413"/>
<path d="M601.5,294.5h57.1v-.7H601.5v.7Z" class="g1_413"/>
<path d="M657.9,315.2h.7v-21h-.7v21Z" class="g1_413"/>
<path d="M601.2,315.2h57.1v-.7H601.2v.7Z" class="g1_413"/>
<path d="M601.2,314.9h.7V293.8h-.7v21.1Z" class="g1_413"/>
<path fill-rule="evenodd" d="M619.5,270.6l.3,-.2l.1,-.2c1.2,-.8,.3,-2.8,-1.1,-2.6l-.6,.2l-.3,.1l-.2,.3l-.1,.2l-.1,.3v.6l.1,.3c0,.4,.5,.9,1,1l.2,.1l.3,-.1h.4Z" class="g1_413"/>
<path d="M618.9,269.1l6.3,-2.1l1,-.2l.1,1l1,23.8l.1,2.6L625.8,292L612.3,272.3l-.5,-.8l.9,-.4l.9,.4l13.5,19.7l-1.3,.8l-.1,-.3l-1,-23.9h1.6l-.6,.8l-6.2,2.1Z" class="g1_413"/>
<path d="M612.7,271.1l6.2,-2l.6,1.6l-6.3,2Z" class="g1_413"/>
<path fill-rule="evenodd" d="M619.2,269.9l6.2,-2.1l1,23.8L613,271.9Z" class="g1_413"/>
<path d="M603,216.4l-2.9,.9l17.5,52.3l2.8,-.9Z" class="g1_413"/>
<path fill-rule="evenodd" d="M553.6,276l.2,-.3l.1,-.2l.1,-.3l.1,-.3l-.1,-.3v-.2l-.2,-.3l-.1,-.3l-.2,-.2l-.3,-.2l-.3,-.1h-.6l-.3,.1l-.3,.1l-.4,.5l-.3,.8l.1,.3v.3l.2,.2l.2,.3c.5,.6,.7,.5,1.3,.5l.6,-.2l.2,-.2Z" class="g1_413"/>
<path d="M552.7,274.9l4.7,-4.5l.8,-.6l.4,.9l10.8,21.2l1.2,2.3l-2.3,-1.3L547.9,280.7l-.8,-.6l.7,-.7l.9,-.1l20.4,12.2l-.8,1.4l-.2,-.4L557.2,271.3l1.4,-.6l-.2,.9l-4.7,4.5Z" class="g1_413"/>
<path d="M547.8,279.4l4.9,-4.5l1,1.2l-4.9,4.5Z" class="g1_413"/>
<path fill-rule="evenodd" d="M553.1,275.5l4.8,-4.5l10.8,21.1L548.3,279.9Z" class="g1_413"/>
<path d="M499.5,215.9l-2.2,2.1l54.2,58l2.2,-2.1Z" class="g1_413"/>
<path fill-rule="evenodd" d="M497.3,282.1l.1,-.3l.1,-.3c.1,-1.4,-1.9,-2.3,-2.7,-1.1l-.2,.2l-.1,.3c-.3,1.6,1,2.4,2.3,1.7l.5,-.5Z" class="g1_413"/>
<path d="M495.9,281.4l3.7,-6.6l.8,.7l16.8,16.8l1.9,2l-2.6,-.7l-23.1,-5.4l-1.1,-.2l.5,-.9l.8,-.4l23.2,5.4l-.3,1.5l-.4,-.2L499.2,276.6l1.2,-1.1l.1,.9l-3.2,5.7Z" class="g1_413"/>
<path d="M492.8,287.1l3.1,-5.7l1.4,.7l-3.1,5.7Z" class="g1_413"/>
<path fill-rule="evenodd" d="M496.6,281.8l3.2,-5.8l16.8,16.9l-23.2,-5.4Z" class="g1_413"/>
<path d="M380.5,215.6l-1.5,2.7l116.2,64.4l1.4,-2.7Z" class="g1_413"/>
<path d="M544.9,314.9h56.6V294.2H544.9v20.7Z" class="g0_413"/>
<path d="M544.9,294.5h57v-.7h-57v.7Z" class="g1_413"/>
<path d="M601.2,315.2h.7v-21h-.7v21Z" class="g1_413"/>
<path d="M544.5,315.2h57v-.7h-57v.7Z" class="g1_413"/>
<path d="M544.5,314.9h.7V293.8h-.7v21.1Z" class="g1_413"/>
<path d="M488.1,314.9h56.8V294.2H488.1v20.7Z" class="g0_413"/>
<path d="M488.1,294.5h57.1v-.7H488.1v.7Z" class="g1_413"/>
<path d="M544.5,315.2h.7v-21h-.7v21Z" class="g1_413"/>
<path d="M487.8,315.2h57.1v-.7H487.8v.7Z" class="g1_413"/>
<path d="M487.8,314.9h.7V293.8h-.7v21.1Z" class="g1_413"/>
<path d="M431.4,314.9h56.7V294.2H431.4v20.7Z" class="g0_413"/>
<path d="M431.4,294.5h57.1v-.7H431.4v.7Z" class="g1_413"/>
<path d="M487.8,315.2h.7v-21h-.7v21Z" class="g1_413"/>
<path d="M431,315.2h57.1v-.7H431v.7Z" class="g1_413"/>
<path d="M431,314.9h.8V293.8H431v21.1Z" class="g1_413"/>
<path d="M544.9,216.9H658.3V196.3H544.9v20.6Z" class="g0_413"/>
<path d="M544.9,196.6H658.6v-.7H544.9v.7Z" class="g1_413"/>
<path d="M657.9,217.3h.7v-21h-.7v21Z" class="g1_413"/>
<path d="M544.5,217.3H658.3v-.8H544.5v.8Z" class="g1_413"/>
<path d="M544.5,216.9h.7v-21h-.7v21Z" class="g1_413"/>
<path d="M204.5,216.9H317.9V196.3H204.5v20.6Z" class="g0_413"/>
<path d="M204.5,196.6H318.3v-.7H204.5v.7Z" class="g1_413"/>
<path d="M317.5,217.3h.8v-21h-.8v21Z" class="g1_413"/>
<path d="M204.1,217.3H317.9v-.8H204.1v.8Z" class="g1_413"/>
<path d="M204.1,216.9h.8v-21h-.8v21Z" class="g1_413"/>
<path d="M317.9,216.9H431.4V196.3H317.9v20.6Z" class="g0_413"/>
<path d="M317.9,196.6H431.8v-.7H317.9v.7Z" class="g1_413"/>
<path d="M431,217.3h.8v-21H431v21Z" class="g1_413"/>
<path d="M317.5,217.3H431.4v-.8H317.5v.8Z" class="g1_413"/>
<path d="M317.5,216.9h.8v-21h-.8v21Z" class="g1_413"/>
<path d="M431.4,216.9H544.9V196.3H431.4v20.6Z" class="g0_413"/>
<path d="M431.4,196.6H545.2v-.7H431.4v.7Z" class="g1_413"/>
<path d="M544.5,217.3h.7v-21h-.7v21Z" class="g1_413"/>
<path d="M431,217.3H544.9v-.8H431v.8Z" class="g1_413"/>
<path d="M431,216.9h.8v-21H431v21Z" class="g1_413"/>
<path d="M207.6,314.9H430V294.2H207.6v20.7Z" class="g0_413"/>
<path d="M207.6,294.5H430.4v-.7H207.6v.7Z" class="g1_413"/>
<path d="M429.6,315.2h.8v-21h-.8v21Z" class="g1_413"/>
<path d="M207.3,315.2H430v-.7H207.3v.7Z" class="g1_413"/>
<path d="M207.3,314.9h.7V293.8h-.7v21.1Z" class="g1_413"/>
</svg>