<?xml version="1.0" encoding="UTF-8" standalone="no"?>
<!DOCTYPE svg PUBLIC "-//W3C//DTD SVG 1.1//EN"
"http://www.w3.org/Graphics/SVG/1.1/DTD/svg11.dtd">
<svg viewBox="0 0 935 1210" version="1.1" xmlns="http://www.w3.org/2000/svg" xmlns:xlink="http://www.w3.org/1999/xlink">
<defs>
<clipPath id="c0_117"><path d="M766.7,59V41.4h72.2V59Z"/></clipPath>
<style type="text/css"><![CDATA[
.g0_117{
fill: #000;
}
.g1_117{
fill: #FFF;
}
.g2_117{
fill: none;
stroke: #000;
stroke-width: 1.527;
}
.g3_117{
fill: none;
stroke: #000;
stroke-width: 0.763;
}
]]></style>
</defs>
<path d="M97.5,63.1v.3H840v-.3H97.5Z" class="g0_117"/>
<path d="M96.1,1114.3v.3v-.3Z" class="g0_117"/>
<path d="M838.9,1114.3v.3v-.3Z" class="g0_117"/>
<path d="M96.1,1114.3v.3H838.9v-.3H96.1Z" class="g0_117"/>
<image clip-path="url(#c0_117)" preserveAspectRatio="none" x="767" y="41" width="72" height="18" xlink:href="img/1.jpg"/>
<path d="M503.7,668.4c0,65.8,-53.4,119.2,-119.2,119.2c-65.8,0,-119.2,-53.4,-119.2,-119.2c0,-65.8,53.4,-119.2,119.2,-119.2c65.8,0,119.2,53.4,119.2,119.2Z" class="g1_117"/>
<path d="M503.7,668.4c0,65.8,-53.4,119.2,-119.2,119.2c-65.8,0,-119.2,-53.4,-119.2,-119.2c0,-65.8,53.4,-119.2,119.2,-119.2c65.8,0,119.2,53.4,119.2,119.2Z" class="g2_117"/>
<path d="M473.9,668.4c0,49.4,-40,89.4,-89.4,89.4c-49.3,0,-89.4,-40,-89.4,-89.4C295.1,619,335.2,579,384.5,579c49.4,0,89.4,40,89.4,89.4Z" class="g1_117"/>
<path d="M473.9,668.4c0,49.4,-40,89.4,-89.4,89.4c-49.3,0,-89.4,-40,-89.4,-89.4C295.1,619,335.2,579,384.5,579c49.4,0,89.4,40,89.4,89.4Z" class="g2_117"/>
<path d="M444.1,668.4c0,32.9,-26.7,59.6,-59.6,59.6c-32.9,0,-59.6,-26.7,-59.6,-59.6c0,-32.9,26.7,-59.6,59.6,-59.6c32.9,0,59.6,26.7,59.6,59.6Z" class="g1_117"/>
<path d="M444.1,668.4c0,32.9,-26.7,59.6,-59.6,59.6c-32.9,0,-59.6,-26.7,-59.6,-59.6c0,-32.9,26.7,-59.6,59.6,-59.6c32.9,0,59.6,26.7,59.6,59.6Z" class="g2_117"/>
<path d="M414.3,668.4c0,16.5,-13.3,29.8,-29.8,29.8c-16.4,0,-29.8,-13.3,-29.8,-29.8c0,-16.4,13.4,-29.8,29.8,-29.8c16.5,0,29.8,13.4,29.8,29.8Z" class="g1_117"/>
<path d="M414.3,668.4c0,16.5,-13.3,29.8,-29.8,29.8c-16.4,0,-29.8,-13.3,-29.8,-29.8c0,-16.4,13.4,-29.8,29.8,-29.8c16.5,0,29.8,13.4,29.8,29.8Z" class="g2_117"/>
<path d="M537.3,574.1H473.1l-80.4,75.7" class="g3_117"/>
<path d="M390.9,646.2l-2.2,7.3l7.4,-1.7l-5.2,-5.6Z" class="g0_117"/>
<path d="M537.3,664.4H431.9" class="g3_117"/>
<path d="M433,660.6l-6.6,3.8l6.6,3.8v-7.6Z" class="g0_117"/>
<path d="M524.3,664.4l-13,25.9H459.4" class="g3_117"/>
<path d="M460.5,686.4l-6.6,3.8l6.6,3.9v-7.7Z" class="g0_117"/>
<path d="M537.3,777.3H483.8L459.4,752.9" class="g3_117"/>
<path d="M462.9,751l-7.4,-2l2,7.4l5.4,-5.4Z" class="g0_117"/>
<path d="M65.6,912.2h3v18.4h-3V912.2Z" class="g0_117"/>
</svg>