<?xml version="1.0" encoding="UTF-8" standalone="no"?>
<!DOCTYPE svg PUBLIC "-//W3C//DTD SVG 1.1//EN"
"http://www.w3.org/Graphics/SVG/1.1/DTD/svg11.dtd">
<svg viewBox="0 0 935 1210" version="1.1" xmlns="http://www.w3.org/2000/svg" xmlns:xlink="http://www.w3.org/1999/xlink">
<defs>
<style type="text/css"><![CDATA[
.g0_834{
fill: #FFF;
}
.g1_834{
fill: #000;
}
]]></style>
</defs>
<path d="M165,1149.3H852.5v-21.2H165v21.2Z" class="g0_834"/>
<path d="M68.8,1149.3h82.5v-21.2H68.8v21.2Z" class="g0_834"/>
<path d="M70.8,1031.7h.7V123.9h-.7v907.8Z" class="g1_834"/>
<path d="M158,165.2h.4V123.6H158v41.6Z" class="g1_834"/>
<path d="M158,327.2h.4V189.3H158V327.2Z" class="g1_834"/>
<path d="M158,1032.1h.4V351.2H158v680.9Z" class="g1_834"/>
<path d="M849.7,1031.7h.7V123.9h-.7v907.8Z" class="g1_834"/>
<path d="M70.8,123.9H850.4v-.3H70.8v.3Z" class="g1_834"/>
<path d="M70.8,165.2H850.4v-.4H70.8v.4Z" class="g1_834"/>
<path d="M70.8,189.7H850.4v-.4H70.8v.4Z" class="g1_834"/>
<path d="M70.8,264.5H850.4v-.4H70.8v.4Z" class="g1_834"/>
<path d="M70.8,327.2H850.4v-.4H70.8v.4Z" class="g1_834"/>
<path d="M70.8,351.5H850.4v-.3H70.8v.3Z" class="g1_834"/>
<path d="M70.8,449.3H850.4V449H70.8v.3Z" class="g1_834"/>
<path d="M70.8,882.6H850.4v-.8H70.8v.8Z" class="g1_834"/>
<path d="M70.8,957.2H850.4v-.4H70.8v.4Z" class="g1_834"/>
<path d="M70.8,1032.1H850.4v-.4H70.8v.4Z" class="g1_834"/>
</svg>