<?xml version="1.0" encoding="UTF-8" standalone="no"?>
<!DOCTYPE svg PUBLIC "-//W3C//DTD SVG 1.1//EN"
"http://www.w3.org/Graphics/SVG/1.1/DTD/svg11.dtd">
<svg viewBox="0 0 935 1210" version="1.1" xmlns="http://www.w3.org/2000/svg" xmlns:xlink="http://www.w3.org/1999/xlink">
<defs>
<style type="text/css"><![CDATA[
.g0_49{
fill: none;
stroke: #000;
stroke-width: 0.608;
stroke-miterlimit: 10;
}
.g1_49{
fill: none;
stroke: #000;
stroke-width: 1.521;
stroke-miterlimit: 10;
}
]]></style>
</defs>
<path d="M126.3,200.2H443.1M126.6,216.6V199.9m316.2,16.7V199.9M126.3,217H443.1M126.6,233.4V216.6m316.2,16.8V216.6M126.3,233.7H443.1M126.3,250.4H443.1m39.6,0h326M126.6,266.9V250.1m316.2,16.8V250.1M483,266.9V250.1m325.4,16.8V250.1M126.3,267.2H443.1m39.6,0h326M126.6,283.6V266.9m316.2,16.7V266.9M483,283.6V266.9m325.4,16.7V266.9m-682.1,17H443.1m39.6,0h326M126.3,311.7H443.1m39.6,0h326M126.6,328.2V311.4m316.2,16.8V311.4M483,328.2V311.4m325.4,16.8V311.4M126.3,328.5H443.1m39.6,0h326M126.6,344.9V328.2m316.2,16.7V328.2M483,344.9V328.2m325.4,16.7V328.2m-682.1,17H443.1m39.6,0h326" class="g0_49"/>
<path d="M151.7,462.4H783.3" class="g1_49"/>
<path d="M304.5,633.1h326m-325.7,17V633.4m325.4,16.7V633.4m-325.7,17h326M304.8,667.5V650.7m325.4,16.8V650.7M304.5,667.8h326m-325.7,17V668.1m325.4,16.7V668.1m-325.7,17h326M304.8,702.2V685.4m325.4,16.8V685.4M304.5,702.5h326m-326,28.4h326m-325.7,17V731.2m325.4,16.7V731.2m-325.7,17h326M304.8,765.3V748.5m325.4,16.8V748.5M304.5,765.6h326M122.2,990.3H812.8m-690.3,17V990.6m59.9,16.7V990.6m59.9,16.7V990.6m59.9,16.7V990.6m254.1,16.7V990.6m52.9,16.7V990.6m52.9,16.7V990.6m52.8,16.7V990.6m28.3,16.7V990.6m35.8,16.7V990.6m33.5,16.7V990.6m-690.3,17H812.8" class="g0_49"/>
</svg>