<?xml version="1.0" encoding="UTF-8" standalone="no"?>
<!DOCTYPE svg PUBLIC "-//W3C//DTD SVG 1.1//EN"
"http://www.w3.org/Graphics/SVG/1.1/DTD/svg11.dtd">
<svg viewBox="0 0 935 1210" version="1.1" xmlns="http://www.w3.org/2000/svg" xmlns:xlink="http://www.w3.org/1999/xlink">
<defs>
<clipPath id="c0_1729"><path d="M97.3,59.2V41.4h72.1V59.2Z"/></clipPath>
<style type="text/css"><![CDATA[
.g0_1729{
fill: #000;
}
]]></style>
</defs>
<path d="M96.2,62.9v.3H838.7v-.3H96.2Z" class="g0_1729"/>
<path d="M96.2,1114.1h-.1v.4h.1v-.4Z" class="g0_1729"/>
<path d="M838.7,1114.1h.2v.4h-.2v-.4Z" class="g0_1729"/>
<path d="M96.2,1114.1v.4H838.7v-.4H96.2Z" class="g0_1729"/>
<image clip-path="url(#c0_1729)" preserveAspectRatio="none" x="97" y="41" width="72" height="18" xlink:href="img/1.jpg"/>
<path d="M96.6,687.5h-.7V920.9h.7V687.5Z" class="g0_1729"/>
<path d="M244.8,684.5h-.7V921.6h.7V684.5Z" class="g0_1729"/>
<path d="M284.5,684.5h-.7V921.6h.7V684.5Z" class="g0_1729"/>
<path d="M338,684.5h-.8V921.6h.8V684.5Z" class="g0_1729"/>
<path d="M411,684.5h-.7V921.6h.7V684.5Z" class="g0_1729"/>
<path d="M842.4,687.5h-.7V920.9h.7V687.5Z" class="g0_1729"/>
<path d="M95.9,684.5v3H842.4v-3H95.9Z" class="g0_1729"/>
<path d="M95.9,727.3v3H842.4v-3H95.9Z" class="g0_1729"/>
<path d="M95.9,768.1v.7H842.4v-.7H95.9Z" class="g0_1729"/>
<path d="M244,807.8v.8H842.4v-.8H244Z" class="g0_1729"/>
<path d="M244,832.2v.8H842.4v-.8H244Z" class="g0_1729"/>
<path d="M95.9,856.7v.7H842.4v-.7H95.9Z" class="g0_1729"/>
<path d="M95.9,881.2v.7H842.4v-.7H95.9Z" class="g0_1729"/>
<path d="M95.9,920.9v.7H842.4v-.7H95.9Z" class="g0_1729"/>
</svg>