<?xml version="1.0" encoding="UTF-8" standalone="no"?>
<!DOCTYPE svg PUBLIC "-//W3C//DTD SVG 1.1//EN"
"http://www.w3.org/Graphics/SVG/1.1/DTD/svg11.dtd">
<svg viewBox="0 0 935 1210" version="1.1" xmlns="http://www.w3.org/2000/svg" xmlns:xlink="http://www.w3.org/1999/xlink">
<defs>
<style type="text/css"><![CDATA[
.g0_255{
fill: #FFF;
}
.g1_255{
fill: #000;
}
]]></style>
</defs>
<path d="M68.9,1149.3H852.7v-21.2H68.9v21.2Z" class="g0_255"/>
<path d="M171.3,328.7h.8V113.5h-.8V328.7Z" class="g1_255"/>
<path d="M750.7,328.7h.7V113.5h-.7V328.7Z" class="g1_255"/>
<path d="M171.3,113.4H751.4v-.7H171.3v.7Z" class="g1_255"/>
<path d="M171.3,329.5H751.4v-.8H171.3v.8Z" class="g1_255"/>
<path d="M171.3,729.5h.8V500.6h-.8V729.5Z" class="g1_255"/>
<path d="M750.7,729.5h.7V500.6h-.7V729.5Z" class="g1_255"/>
<path d="M171.3,500.6H751.4v-.7H171.3v.7Z" class="g1_255"/>
<path d="M171.3,730.2H751.4v-.7H171.3v.7Z" class="g1_255"/>
<path d="M240.6,155.9h110V128.4h-110v27.5Z" class="g0_255"/>
<path d="M240.6,128.8H351v-.7H240.6v.7Z" class="g1_255"/>
<path d="M350.3,156.3h.7V128.4h-.7v27.9Z" class="g1_255"/>
<path d="M240.3,156.3H350.6v-.7H240.3v.7Z" class="g1_255"/>
<path d="M240.3,155.9h.7V128.1h-.7v27.8Z" class="g1_255"/>
<path d="M350.6,155.9h110V128.4h-110v27.5Z" class="g0_255"/>
<path d="M350.6,128.8H461v-.7H350.6v.7Z" class="g1_255"/>
<path d="M460.3,156.3h.7V128.4h-.7v27.9Z" class="g1_255"/>
<path d="M350.3,156.3H460.6v-.7H350.3v.7Z" class="g1_255"/>
<path d="M350.3,155.9h.7V128.1h-.7v27.8Z" class="g1_255"/>
<path d="M460.6,155.9H570.7V128.4H460.6v27.5Z" class="g0_255"/>
<path d="M460.6,128.8H571.1v-.7H460.6v.7Z" class="g1_255"/>
<path d="M570.4,156.3h.7V128.4h-.7v27.9Z" class="g1_255"/>
<path d="M460.3,156.3H570.7v-.7H460.3v.7Z" class="g1_255"/>
<path d="M460.3,155.9h.7V128.1h-.7v27.8Z" class="g1_255"/>
<path d="M570.7,128.4h110v27.5h-110Z" class="g0_255"/>
<path d="M570.7,128.8H681.1v-.7H570.7v.7Z" class="g1_255"/>
<path d="M680.4,156.3h.7V128.4h-.7v27.9Z" class="g1_255"/>
<path d="M570.4,156.3H680.7v-.7H570.4v.7Z" class="g1_255"/>
<path d="M570.4,155.9h.7V128.1h-.7v27.8Z" class="g1_255"/>
<path d="M240.6,224.7h110V197.2h-110v27.5Z" class="g0_255"/>
<path d="M240.6,197.5H351v-.7H240.6v.7Z" class="g1_255"/>
<path d="M350.3,225h.7V197.2h-.7V225Z" class="g1_255"/>
<path d="M240.3,225H350.6v-.7H240.3v.7Z" class="g1_255"/>
<path d="M240.3,224.7h.7V196.8h-.7v27.9Z" class="g1_255"/>
<path d="M350.6,224.7h110V197.2h-110v27.5Z" class="g0_255"/>
<path d="M350.6,197.5H461v-.7H350.6v.7Z" class="g1_255"/>
<path d="M460.3,225h.7V197.2h-.7V225Z" class="g1_255"/>
<path d="M350.3,225H460.6v-.7H350.3v.7Z" class="g1_255"/>
<path d="M350.3,224.7h.7V196.8h-.7v27.9Z" class="g1_255"/>
<path d="M460.6,224.7H570.7V197.2H460.6v27.5Z" class="g0_255"/>
<path d="M460.6,197.5H571.1v-.7H460.6v.7Z" class="g1_255"/>
<path d="M570.4,225h.7V197.2h-.7V225Z" class="g1_255"/>
<path d="M460.3,225H570.7v-.7H460.3v.7Z" class="g1_255"/>
<path d="M460.3,224.7h.7V196.8h-.7v27.9Z" class="g1_255"/>
<path d="M570.7,197.2h110v27.5h-110Z" class="g0_255"/>
<path d="M570.7,197.5H681.1v-.7H570.7v.7Z" class="g1_255"/>
<path d="M680.4,225h.7V197.2h-.7V225Z" class="g1_255"/>
<path d="M570.4,225H680.7v-.7H570.4v.7Z" class="g1_255"/>
<path d="M570.4,224.7h.7V196.8h-.7v27.9Z" class="g1_255"/>
<path d="M239.6,320.9h110V293.4h-110v27.5Z" class="g0_255"/>
<path d="M239.6,293.8H350v-.7H239.6v.7Z" class="g1_255"/>
<path d="M349.3,321.3h.7V293.4h-.7v27.9Z" class="g1_255"/>
<path d="M239.3,321.3H349.6v-.7H239.3v.7Z" class="g1_255"/>
<path d="M239.3,320.9h.7V293.1h-.7v27.8Z" class="g1_255"/>
<path d="M349.6,320.9H459.7V293.4H349.6v27.5Z" class="g0_255"/>
<path d="M349.6,293.8H460.1v-.7H349.6v.7Z" class="g1_255"/>
<path d="M459.3,321.3h.8V293.4h-.8v27.9Z" class="g1_255"/>
<path d="M349.3,321.3H459.7v-.7H349.3v.7Z" class="g1_255"/>
<path d="M349.3,320.9h.7V293.1h-.7v27.8Z" class="g1_255"/>
<path d="M459.7,320.9h110V293.4h-110v27.5Z" class="g0_255"/>
<path d="M459.7,293.8H570.1v-.7H459.7v.7Z" class="g1_255"/>
<path d="M569.3,321.3h.8V293.4h-.8v27.9Z" class="g1_255"/>
<path d="M459.3,321.3H569.7v-.7H459.3v.7Z" class="g1_255"/>
<path d="M459.3,320.9h.8V293.1h-.8v27.8Z" class="g1_255"/>
<path d="M569.7,320.9h110V293.4h-110v27.5Z" class="g0_255"/>
<path d="M569.7,293.8H680.1v-.7H569.7v.7Z" class="g1_255"/>
<path d="M679.3,321.3h.8V293.4h-.8v27.9Z" class="g1_255"/>
<path d="M569.3,321.3H679.7v-.7H569.3v.7Z" class="g1_255"/>
<path d="M569.3,320.9h.8V293.1h-.8v27.8Z" class="g1_255"/>
<path d="M609.8,234.5h.7v-1.8h-.7v1.8Z" class="g1_255"/>
<path d="M609.9,233.8l2.8,-1.1l1.5,-.5l-.5,1.6l-2.8,9.7l-.8,2.5l-.7,-2.5l-2.8,-9.7l-.4,-1.6l1.5,.5l.4,.6l2.8,9.7l-1.5,.5V243l2.8,-9.7l1.5,.5l-.5,.4l-2.8,1Z" class="g1_255"/>
<path d="M607.7,232.7l2.7,1.1v1.4l-.3,.1l-.2,-.1l-2.8,-1Z" class="g1_255"/>
<path fill-rule="evenodd" d="M610.1,234.5l2.9,-1l-2.9,9.7l-2.7,-9.7Z" class="g1_255"/>
<path d="M609.8,155.9h.7v-.3h-.7v.3Z" class="g1_255"/>
<path d="M609.8,233.1h.7V155.9h-.7v77.2Z" class="g1_255"/>
<path d="M625.9,231.7h-.7l.1,1.8h.7Z" class="g1_255"/>
<path d="M625.4,232.7l2.6,-1.1l1.4,-.6l-.4,1.7l-2.3,9.8l-.5,2.5l-.9,-2.5l-3.2,-9.6l-.6,-1.4l1.6,.4l.4,.6l3.2,9.5l-1.4,.5V242l2.3,-9.8l1.4,.5l-.4,.4l-2.7,1.1Z" class="g1_255"/>
<path d="M623.1,231.9l2.8,.8v1.5l-.3,.1l-.2,-.1l-2.9,-.8Z" class="g1_255"/>
<path fill-rule="evenodd" d="M625.6,233.5l2.7,-1.1l-2.3,9.8l-3.2,-9.5Z" class="g1_255"/>
<path d="M624.7,223.6h.7v-.4h-.7v.4Z" class="g1_255"/>
<path d="M625.2,232.1h.7v-.4h-.7v.4Z" class="g1_255"/>
<path d="M625.4,223.6h-.7l.5,8.1h.7Z" class="g1_255"/>
<path d="M638.5,256.2l-.1,-1.4l-.3,-1.3l.1,.1l-.6,-1.4L637,251v.1l-.9,-1.2l-1,-1.2h.1l-1.2,-1l-1.3,-1v.1l-1.5,-1h.1L628,244.4l-1.8,-.6l-1.9,-.4l-1.9,-.4l-2.1,-.2l-2.1,-.1l-2.1,.1h.1l-2,.2l-2,.4l-1.9,.4l-1.8,.6h.1l-3.3,1.4l-1.5,1l.1,-.1l-1.3,1l-1.2,1l-1,1.2l-.9,1.2l.1,-.1l-.7,1.2l-.5,1.4v-.1l-.3,1.3l-.2,1.4v-.1l.2,1.4v-.1l.3,1.4l.5,1.4v-.1l.7,1.2l.9,1.2h-.1l1,1.1v-.1l1.2,1.1l1.3,1h-.1l1.5,.9l-.3,.6h-.1l-1.5,-.9v-.1l-1.2,-1l-1.2,-1h-.1l-1,-1.1l-1,-1.3v-.1l-.6,-1.2l-.5,-1.4h-.1l-.3,-1.4l-.2,-1.4v-.1l.2,-1.4v-.1l.3,-1.3h.1l.5,-1.4v-.1l.6,-1.2l1,-1.2l1,-1.2l.1,-.1l1.2,-1l1.2,-1l1.5,-.9h.1l3.3,-1.5l1.8,-.6c8.9,-2.6,22.1,-.7,27.4,7.5h.1l.7,1.2v.1l.5,1.4l.3,1.3v.1l.1,1.4Z" class="g1_255"/>
<path d="M605.3,266.5l3.3,1.4h-.1l1.8,.5l1.9,.5l2,.3l2,.2h-.1l2.1,.1l2.1,-.1l2.1,-.2l1.9,-.3l1.9,-.5l1.8,-.5l3.3,-1.4h-.1l1.5,-.9l1.3,-1.1l1.2,-1l-.1,.1l1,-1.1l.9,-1.2l.6,-1.2l.6,-1.3h-.1l.3,-1.4v.1l.1,-1.4v.1l.7,-.1v.1l-.1,1.4l-.3,1.4l-.5,1.4l-.7,1.2v.1l-.9,1.3h-.1c-6.6,7.9,-21.1,9,-30,4.9l-1.6,-.8Z" class="g1_255"/>
<path d="M618.8,284.9h.7v-1.7h-.7v1.7Z" class="g1_255"/>
<path d="M618.8,284.2l2.8,-1l1.5,-.7l-.5,1.7l-2.7,9.7l-.8,2.5l-.7,-2.5l-2.8,-9.7l-.4,-1.6l1.4,.6l.5,.5l2.8,9.7l-1.5,.5v-.5l2.7,-9.7l1.5,.5l-.5,.4l-2.7,1Z" class="g1_255"/>
<path d="M616.6,283.2l2.8,1v1.4l-.3,.1l-.3,-.1l-2.7,-1Z" class="g1_255"/>
<path fill-rule="evenodd" d="M619.1,284.9l2.8,-1l-2.8,9.7l-2.7,-9.7Z" class="g1_255"/>
<path d="M618.8,268.9h.7v-.4h-.7v.4Z" class="g1_255"/>
<path d="M618.8,283.5h.7V268.9h-.7v14.6Z" class="g1_255"/>
<path d="M503.2,234.8h.7V233h-.7v1.8Z" class="g1_255"/>
<path d="M503.2,234.1l2.9,-1l1.5,-.5l-.5,1.5l-2.8,9.6l-.8,2.6L500,234.1l-.4,-1.5l1.4,.5l.5,.6l2.8,9.6l-1.5,.4v-.4l2.8,-9.6l1.5,.4l-.5,.5l-2.8,1Z" class="g1_255"/>
<path d="M501,233.1l2.8,1v1.5l-.3,.1l-.3,-.1l-2.7,-1Z" class="g1_255"/>
<path fill-rule="evenodd" d="M503.5,234.8l2.9,-1l-2.9,9.7l-2.7,-9.7Z" class="g1_255"/>
<path d="M503.2,156.3h.7v-.4h-.7v.4Z" class="g1_255"/>
<path d="M503.2,233.4h.7V156.3h-.7v77.1Z" class="g1_255"/>
<path d="M519.3,232.1h-.7v1.7h.8Z" class="g1_255"/>
<path d="M518.7,233.1l2.7,-1.2l1.4,-.6l-.4,1.6l-2.3,9.8l-.5,2.6l-.9,-2.6l-3.3,-9.5l-.5,-1.5l1.6,.5l.4,.5l3.2,9.6l-1.4,.4v-.4l2.2,-9.8l1.5,.4l-.4,.5l-2.7,1.2Z" class="g1_255"/>
<path d="M516.5,232.2l2.8,.9v1.5l-.3,.1l-.3,-.1l-2.8,-.9Z" class="g1_255"/>
<path fill-rule="evenodd" d="M519,233.8l2.7,-1.2l-2.3,9.9l-3.2,-9.6Z" class="g1_255"/>
<path d="M518.1,223.9h.7v-.3h-.7v.3Z" class="g1_255"/>
<path d="M518.6,232.5h.7v-.4h-.7v.4Z" class="g1_255"/>
<path d="M518.8,223.9h-.7l.5,8.2h.7Z" class="g1_255"/>
<path d="M531.8,256.5V255v.1l-.3,-1.3l.1,.1l-.6,-1.4l-.6,-1.2v.1l-.9,-1.2l-1,-1.1L527.4,248l-1.3,-.9l-1.5,-.9l-1.6,-.8l-1.6,-.6l-1.8,-.6l-2,-.6h.1l-1.9,-.2l-2.1,-.2l-2.1,-.1l-2.1,.1h.1l-2,.2l-2,.2l-1.9,.6l-1.8,.6h.1l-1.7,.6l-1.6,.8l-1.5,.9h.1L496,248l-1.2,1.1l-1,1.1l-.9,1.2l.1,-.1l-.7,1.2l-.5,1.4v-.1l-.3,1.3l-.2,1.5v-.1l.2,1.4v-.1l.3,1.3l.5,1.3v-.1l.7,1.3h-.1l.9,1.2l1,1.2v-.1l1.2,1l1.3,1h-.1l1.5,.8l-.4,.7l-1.5,-.8v-.1l-1.3,-1l-1.1,-1h-.1l-1,-1.2l-1,-1.2V262l-.6,-1.3l-.6,-1.3v-.1l-.3,-1.3l-.2,-1.4v-.1l.2,-1.5v-.1l.3,-1.3l.6,-1.3v-.1l.6,-1.3l1,-1.2l1,-1.1l.1,-.1l1.1,-1.1l1.3,-.9l1.5,-.9l1.6,-.8h.1l1.7,-.7V244l1.8,-.5c8.9,-2.7,21.9,-.8,27.4,7.4h.1l.7,1.3v.1l.5,1.3l.3,1.3v.1l.1,1.5Z" class="g1_255"/>
<path d="M498.7,266.7l1.6,.9l1.7,.7l-.1,-.1l1.8,.6l1.9,.4l2,.4l2,.2h-.1l2.1,.1l2.1,-.1l2.1,-.2l1.9,-.4h-.1l2,-.4l1.8,-.6v.1l1.6,-.7l1.6,-.9l1.5,-.8l1.3,-1l1.1,-1v.1l1,-1.2l.9,-1.2l.6,-1.3v.1l.6,-1.3h-.1l.3,-1.3v.1v-1.4h.8v.1l-.1,1.3c-.5,4.6,-5.1,8.7,-9.2,10.3l-1.6,.7h-.1c-6.7,2.4,-15.1,2.3,-21.6,-.7h-.1l-1.6,-.8Z" class="g1_255"/>
<path d="M512.1,285.3h.8v-1.8h-.8v1.8Z" class="g1_255"/>
<path d="M512.2,284.5l2.8,-1l1.5,-.6l-.5,1.6l-2.8,9.7l-.7,2.6l-.7,-2.6L509,284.5l-.4,-1.5l1.4,.5l.5,.6l2.7,9.7l-1.4,.4v-.4l2.7,-9.7l1.5,.4l-.5,.5l-2.7,1Z" class="g1_255"/>
<path d="M510,283.5l2.8,1V286l-.3,.1l-.3,-.1l-2.7,-1Z" class="g1_255"/>
<path fill-rule="evenodd" d="M512.5,285.3l2.8,-1l-2.8,9.7l-2.7,-9.7Z" class="g1_255"/>
<path d="M512.1,269.2h.8v-.3h-.8v.3Z" class="g1_255"/>
<path d="M512.1,283.9h.8V269.2h-.8v14.7Z" class="g1_255"/>
<path d="M394.9,234.3h.7v-1.7h-.7v1.7Z" class="g1_255"/>
<path d="M395,233.6l2.7,-1l1.5,-.7l-.4,1.7l-2.8,9.7l-.7,2.5l-.8,-2.5l-2.7,-9.7l-.5,-1.6l1.5,.6l.4,.5l2.8,9.7l-1.5,.5v-.5l2.8,-9.7l1.5,.5l-.5,.4l-2.8,1Z" class="g1_255"/>
<path d="M392.8,232.6l2.7,1V235l-.2,.1L395,235l-2.8,-1Z" class="g1_255"/>
<path fill-rule="evenodd" d="M395.3,234.3l2.7,-1l-2.7,9.7l-2.8,-9.7Z" class="g1_255"/>
<path d="M394.9,232.9h.7V155.4h-.7v77.5Z" class="g1_255"/>
<path d="M410.9,231.5h-.7l.1,1.8h.7Z" class="g1_255"/>
<path d="M410.4,232.6l2.7,-1.1l1.4,-.7l-.4,1.7l-2.2,9.8l-.7,2.4l-.8,-2.4l-3.3,-9.6l-.6,-1.4l1.6,.4l.5,.6l3.3,9.5l-1.5,.5v-.5l2.3,-9.8l1.4,.5l-.4,.4l-2.8,1.1Z" class="g1_255"/>
<path d="M408.1,231.7l2.8,.9V234l-.2,.1l-.3,-.1l-2.8,-.8Z" class="g1_255"/>
<path fill-rule="evenodd" d="M410.7,233.3l2.7,-1.1l-2.3,9.8l-3.3,-9.5Z" class="g1_255"/>
<path d="M409.8,223.5h.8v-.4h-.8v.4Z" class="g1_255"/>
<path d="M410.2,231.9h.7v-.4h-.7v.4Z" class="g1_255"/>
<path d="M410.6,223.5h-.8l.4,8.1h.7Z" class="g1_255"/>
<path d="M423.6,256l-.1,-1.4l-.4,-1.3v.1l-.4,-1.3h.1l-.8,-1.3v.1l-.8,-1.2l-1.1,-1.2h.1l-1.1,-1l-1.4,-1v.1l-1.4,-.9h.1l-1.6,-.8l-1.7,-.7l-1.9,-.5l-1.8,-.5h.1l-2,-.4l-2.1,-.2h-4.2h.1l-2,.2l-2,.4l-1.9,.5l-1.8,.5h.1l-1.7,.7l-1.6,.8l-1.5,.9l.1,-.1l-1.3,1l-1.2,1l-1,1.2h.1l-.9,1.2v-.1l-.7,1.3l-.6,1.3v-.1l-.2,1.3l-.1,1.4v-.1l.1,1.5v-.1l.2,1.3l.6,1.4v-.1l.7,1.3l.9,1.2h-.1l1,1.1v-.1l1.2,1.1h-.1l1.3,.9l1.5,.9l-.4,.6l-1.4,-.9l-1.4,-.9V265c-3.1,-2.4,-5.4,-6.4,-4.8,-10.5l.3,-1.4h.1l.6,-1.3v-.1l.7,-1.3l.8,-1.2l1,-1.1l.1,-.1l1.2,-1l1.4,-1.1L390,245h.1l1.6,-.7l1.7,-.7v-.1l1.8,-.6c8.5,-2.4,20.7,-.9,26.6,6.3l.9,1.2l.7,1.3v.1l.5,1.3l.3,1.4v.1l.1,1.3Z" class="g1_255"/>
<path d="M390.4,266.3l1.6,.8V267l1.7,.7h-.1l1.8,.5l1.9,.5l2,.3l2,.2h-.1l2.1,.1l2.1,-.1l2.1,-.2l2,-.3h-.1l1.8,-.5l1.8,-.5l1.8,-.7l-.1,.1l1.6,-.8l1.4,-.9l1.4,-.9H419l2.2,-2.2l.8,-1.1l.8,-1.3l-.1,.1l.4,-1.4l.4,-1.3v.1l.1,-1.5v.1l.7,-.1l-.1,1.5v.1l-.3,1.3v.1l-.5,1.3l-.7,1.3v.1l-.9,1.2l-1.1,1.1c-2.9,3.1,-7.1,4.6,-11.1,5.5l-2.1,.4l-2,.2c-4.7,.3,-9.4,-.5,-13.8,-2.2h-.1l-1.6,-.9Z" class="g1_255"/>
<path d="M403.8,284.7h.7V283h-.7v1.7Z" class="g1_255"/>
<path d="M403.9,284l2.8,-1l1.5,-.6l-.5,1.6l-2.8,9.7l-.7,2.6l-.8,-2.6L400.7,284l-.5,-1.6l1.5,.6l.4,.5l2.8,9.7l-1.5,.5v-.5l2.9,-9.7l1.4,.5l-.4,.4l-2.9,1.1Z" class="g1_255"/>
<path d="M401.7,283l2.7,1v1.4l-.2,.1l-.3,-.1l-2.8,-1Z" class="g1_255"/>
<path fill-rule="evenodd" d="M404.2,284.7l2.8,-1l-2.8,9.7l-2.8,-9.7Z" class="g1_255"/>
<path d="M403.8,283.3h.7v-15h-.7v15Z" class="g1_255"/>
<path d="M295.1,233.8h.7V232h-.7v1.8Z" class="g1_255"/>
<path d="M295.2,233.1l2.7,-1l1.5,-.6l-.5,1.6l-3.5,12.2L292,233.1l-.5,-1.6l1.5,.6l.4,.6l2.8,9.6l-1.5,.4v-.4l2.8,-9.6l1.4,.4l-.4,.5l-2.8,1Z" class="g1_255"/>
<path d="M293,232.1l2.7,1v1.5l-.3,.1l-.2,-.1l-2.8,-1Z" class="g1_255"/>
<path fill-rule="evenodd" d="M295.4,233.8l2.8,-1l-2.8,9.7l-2.7,-9.7Z" class="g1_255"/>
<path d="M295.1,232.4h.7V154.9h-.7v77.5Z" class="g1_255"/>
<path d="M311.1,231h-.7l.1,1.8h.7Z" class="g1_255"/>
<path d="M310.6,232.1l2.7,-1.2l1.4,-.6l-.4,1.6l-2.3,9.8l-.6,2.5l-.8,-2.5l-3.3,-9.5l-.6,-1.5l1.6,.5l.4,.5l3.3,9.6l-1.4,.4v-.4l2.3,-9.8l1.4,.4l-.4,.5l-2.8,1.2Z" class="g1_255"/>
<path d="M308.3,231.2l2.8,.9v1.5l-.3,.1l-.2,-.1l-2.9,-.9Z" class="g1_255"/>
<path fill-rule="evenodd" d="M310.8,232.8l2.8,-1.2l-2.3,9.9L308,231.9Z" class="g1_255"/>
<path d="M310,222.9h.7v-.3H310v.3Z" class="g1_255"/>
<path d="M310.4,231.4h.7V231h-.7v.4Z" class="g1_255"/>
<path d="M310.7,222.9H310l.4,8.1h.7Z" class="g1_255"/>
<path d="M323.8,255.5l-.1,-1.5v.1l-.4,-1.4v.1l-.5,-1.3h.1l-.7,-1.3v.1l-.8,-1.2l-1,-1.1h.1l-1.2,-1.1v.1l-1.4,-.9l-1.5,-.9l-1.5,-.8h.1l-3.5,-1.3l-1.9,-.5l-4,-.5h-4.2h.1l-4,.5l-2,.5h.1l-3.5,1.3l-1.5,.8l-1.5,.9l-1.4,.9l.1,-.1l-1.2,1.1l-1,1.1h.1l-.8,1.2v-.1l-.7,1.3l-.5,1.3v-.1l-.4,1.4V254l-.1,1.5l.1,1.3l.4,1.3l.5,1.3v-.1l.7,1.3l.8,1.2h-.1l1,1.1v-.1l1.2,1.1l1.4,1h-.1l1.5,.8l-.4,.7l-1.4,-.8v-.1l-1.4,-1l-1.2,-1.1h-.1l-1,-1.1l-.8,-1.2V261l-.8,-1.3h-.1l-.4,-1.3v-.1c-1.8,-5.1,1.5,-10.2,5.8,-12.8l1.4,-.9l1.6,-.9l.1,-.1c2.7,-1,4.5,-1.7,7.5,-2l2,-.2h2.1c2.3,-.2,6,.4,8.2,1h.1l3.4,1.2v.1l1.6,.9c2.6,1.6,3.3,1.8,5.1,4.1h.1l.8,1.2l.8,1.3v.1l.4,1.2l.4,1.4v.1l.1,1.5Z" class="g1_255"/>
<path d="M290.6,265.7l1.5,.9l1.8,.7l-.1,-.1l1.7,.6l2,.4l2,.4l2,.2h-.1l2.1,.1l2.1,-.1l2,-.2l2,-.4l1.9,-.4l1.7,-.6v.1l1.8,-.7h-.1l1.5,-.9l1.5,-.8l1.4,-1l1.2,-1.1l-.1,.1l1,-1.1l.8,-1.2l.7,-1.3l-.1,.1l.5,-1.3l.4,-1.3l.1,-1.3h.7v.1l-.1,1.3l-.4,1.4v.1l-.4,1.3l-.8,1.3v.1l-.8,1.2h-.1l-1,1.1c-2.8,2.8,-7.2,4.8,-11.2,5.5l-2,.4l-2,.2c-4.3,.4,-9.8,-.4,-13.8,-2.3h-.1l-1.6,-.8Z" class="g1_255"/>
<path d="M304,284.3h.7v-1.8H304v1.8Z" class="g1_255"/>
<path d="M304.1,283.5l2.8,-1l1.5,-.5l-.5,1.5l-2.8,9.7l-.8,2.6l-.7,-2.6l-2.8,-9.7l-.4,-1.5l1.5,.5l.4,.6l2.8,9.7l-1.5,.4v-.4l2.8,-9.7l1.5,.4l-.4,.5l-2.9,1Z" class="g1_255"/>
<path d="M301.9,282.5l2.7,1V285l-.3,.1l-.2,-.1l-2.8,-1Z" class="g1_255"/>
<path fill-rule="evenodd" d="M304.3,284.3l2.9,-1l-2.9,9.7l-2.7,-9.7Z" class="g1_255"/>
<path d="M304,282.9h.7V267.8H304v15.1Z" class="g1_255"/>
<path d="M239.4,548.9h110V521.4h-110v27.5Z" class="g0_255"/>
<path d="M239.4,521.8H349.8V521H239.4v.8Z" class="g1_255"/>
<path d="M349.1,549.3h.7V521.4h-.7v27.9Z" class="g1_255"/>
<path d="M239.1,549.3H349.4v-.8H239.1v.8Z" class="g1_255"/>
<path d="M239.1,548.9h.7V521h-.7v27.9Z" class="g1_255"/>
<path d="M349.4,548.9h110V521.4h-110v27.5Z" class="g0_255"/>
<path d="M349.4,521.8H459.8V521H349.4v.8Z" class="g1_255"/>
<path d="M459.1,549.3h.7V521.4h-.7v27.9Z" class="g1_255"/>
<path d="M349.1,549.3H459.4v-.8H349.1v.8Z" class="g1_255"/>
<path d="M349.1,548.9h.7V521h-.7v27.9Z" class="g1_255"/>
<path d="M459.4,548.9h110V521.4h-110v27.5Z" class="g0_255"/>
<path d="M459.4,521.8H569.8V521H459.4v.8Z" class="g1_255"/>
<path d="M569.1,549.3h.7V521.4h-.7v27.9Z" class="g1_255"/>
<path d="M459.1,549.3H569.4v-.8H459.1v.8Z" class="g1_255"/>
<path d="M459.1,548.9h.7V521h-.7v27.9Z" class="g1_255"/>
<path d="M569.4,548.9h110V521.4h-110v27.5Z" class="g0_255"/>
<path d="M569.4,521.8H679.8V521H569.4v.8Z" class="g1_255"/>
<path d="M679.1,549.3h.7V521.4h-.7v27.9Z" class="g1_255"/>
<path d="M569.1,549.3H679.4v-.8H569.1v.8Z" class="g1_255"/>
<path d="M569.1,548.9h.7V521h-.7v27.9Z" class="g1_255"/>
<path d="M239.4,617.7h110V590.2h-110v27.5Z" class="g0_255"/>
<path d="M239.4,590.5H349.8v-.7H239.4v.7Z" class="g1_255"/>
<path d="M349.1,618h.7V590.2h-.7V618Z" class="g1_255"/>
<path d="M239.1,618H349.4v-.7H239.1v.7Z" class="g1_255"/>
<path d="M239.1,617.7h.7V589.8h-.7v27.9Z" class="g1_255"/>
<path d="M349.4,617.7h110V590.2h-110v27.5Z" class="g0_255"/>
<path d="M349.4,590.5H459.8v-.7H349.4v.7Z" class="g1_255"/>
<path d="M459.1,618h.7V590.2h-.7V618Z" class="g1_255"/>
<path d="M349.1,618H459.4v-.7H349.1v.7Z" class="g1_255"/>
<path d="M349.1,617.7h.7V589.8h-.7v27.9Z" class="g1_255"/>
<path d="M459.4,617.7h110V590.2h-110v27.5Z" class="g0_255"/>
<path d="M459.4,590.5H569.8v-.7H459.4v.7Z" class="g1_255"/>
<path d="M569.1,618h.7V590.2h-.7V618Z" class="g1_255"/>
<path d="M459.1,618H569.4v-.7H459.1v.7Z" class="g1_255"/>
<path d="M459.1,617.7h.7V589.8h-.7v27.9Z" class="g1_255"/>
<path d="M569.4,617.7h110V590.2h-110v27.5Z" class="g0_255"/>
<path d="M569.4,590.5H679.8v-.7H569.4v.7Z" class="g1_255"/>
<path d="M679.1,618h.7V590.2h-.7V618Z" class="g1_255"/>
<path d="M569.1,618H679.4v-.7H569.1v.7Z" class="g1_255"/>
<path d="M569.1,617.7h.7V589.8h-.7v27.9Z" class="g1_255"/>
<path d="M238.4,713.9h110V686.4h-110v27.5Z" class="g0_255"/>
<path d="M238.4,686.8H348.8V686H238.4v.8Z" class="g1_255"/>
<path d="M348.1,714.3h.7V686.4h-.7v27.9Z" class="g1_255"/>
<path d="M238.1,714.3H348.4v-.8H238.1v.8Z" class="g1_255"/>
<path d="M238.1,713.9h.7V686h-.7v27.9Z" class="g1_255"/>
<path d="M348.4,713.9h110V686.4h-110v27.5Z" class="g0_255"/>
<path d="M348.4,686.8H458.8V686H348.4v.8Z" class="g1_255"/>
<path d="M458.1,714.3h.7V686.4h-.7v27.9Z" class="g1_255"/>
<path d="M348.1,714.3H458.4v-.8H348.1v.8Z" class="g1_255"/>
<path d="M348.1,713.9h.7V686h-.7v27.9Z" class="g1_255"/>
<path d="M458.4,713.9h110V686.4h-110v27.5Z" class="g0_255"/>
<path d="M458.4,686.8H568.8V686H458.4v.8Z" class="g1_255"/>
<path d="M568.1,714.3h.7V686.4h-.7v27.9Z" class="g1_255"/>
<path d="M458.1,714.3H568.4v-.8H458.1v.8Z" class="g1_255"/>
<path d="M458.1,713.9h.7V686h-.7v27.9Z" class="g1_255"/>
<path d="M568.4,686.4h110v27.5h-110Z" class="g0_255"/>
<path d="M568.4,686.8H678.8V686H568.4v.8Z" class="g1_255"/>
<path d="M678.1,714.3h.7V686.4h-.7v27.9Z" class="g1_255"/>
<path d="M568.1,714.3H678.4v-.8H568.1v.8Z" class="g1_255"/>
<path d="M568.1,713.9h.7V686h-.7v27.9Z" class="g1_255"/>
<path d="M608.6,627.5h.7v-1.8h-.7v1.8Z" class="g1_255"/>
<path d="M608.7,626.7l2.7,-1l1.5,-.6l-.5,1.6l-2.7,9.7l-.8,2.6l-.7,-2.6l-2.7,-9.7l-.5,-1.5l1.5,.5l.4,.6l2.8,9.7l-1.5,.4V636l2.8,-9.7l1.4,.4l-.4,.5l-2.8,1Z" class="g1_255"/>
<path d="M606.5,625.7l2.7,1v1.5l-.3,.1l-.2,-.1l-2.8,-1Z" class="g1_255"/>
<path fill-rule="evenodd" d="M608.9,627.5l2.8,-1l-2.8,9.7l-2.7,-9.7Z" class="g1_255"/>
<path d="M608.6,626.1h.7V548.5h-.7v77.6Z" class="g1_255"/>
<path d="M624.6,624.7h-.7l.1,1.8h.7Z" class="g1_255"/>
<path d="M624.1,625.7l2.7,-1.1l1.4,-.6l-.4,1.6l-2.3,9.8L625,638l-.9,-2.6l-3.2,-9.5l-.6,-1.5l1.6,.5l.4,.5l3.2,9.6l-1.4,.4V635l2.3,-9.8l1.4,.4l-.4,.5l-2.8,1.1Z" class="g1_255"/>
<path d="M621.9,624.9l2.7,.8v1.5l-.3,.1l-.2,-.1l-2.8,-.8Z" class="g1_255"/>
<path fill-rule="evenodd" d="M624.3,626.5l2.8,-1.1l-2.3,9.8l-3.2,-9.6Z" class="g1_255"/>
<path d="M623.5,616.6h.8v-.3h-.8v.3Z" class="g1_255"/>
<path d="M623.9,625.1h.7v-.4h-.7v.4Z" class="g1_255"/>
<path d="M624.3,616.6h-.8l.4,8.1h.7Z" class="g1_255"/>
<path d="M637.3,649.2l-.1,-1.4l-.4,-1.4v.1l-.5,-1.3h.1l-.7,-1.2v.1l-.8,-1.2l-1,-1.2h.1l-1.2,-1l-1.4,-1l-1.5,-.9h.1l-1.5,-.7l-1.8,-.7l-1.7,-.6l-1.9,-.4h.1l-2.1,-.4l-2,-.2l-2.1,-.1l-2.1,.1h.1l-2,.2l-2,.4l-2,.4l-1.7,.6h.1l-1.8,.7l-1.5,.7l-1.5,.9h.1l-1.4,1l-1.2,1l-1,1.2h.1l-.8,1.2V644l-.7,1.2l-.5,1.3v-.1l-.4,1.4v1.4v-.1v1.4v-.1l.4,1.4l.5,1.3V653l.7,1.3l.8,1.2h-.1l1,1.1v-.1l1.2,1.1h-.1l1.4,.9l1.5,1l-.4,.6l-1.5,-.9l-1.3,-.9v-.1l-1.2,-1.1h-.1l-1,-1.1l-.8,-1.2v-.1l-.8,-1.3h-.1l-.4,-1.4v-.1c-.8,-2.2,-.5,-4.8,.4,-6.9l.1,-.1l.8,-1.3l.8,-1.2l1,-1.2l.1,-.1l1.2,-1l1.3,-1l1.5,-.9h.1l1.6,-.7l1.7,-.8v-.1l1.7,-.5c8.5,-2.5,21,-.9,26.6,6.3h.1l.8,1.2l.8,1.3v.1l.4,1.3l.4,1.3v.1l.1,1.4Z" class="g1_255"/>
<path d="M604.1,659.5l1.5,.8v-.1l1.8,.6h-.1l1.7,.6l2,.4l2,.4l2,.2h-.1l2.1,.1l2.1,-.1l2,-.2l2.1,-.4h-.1l1.9,-.4l1.7,-.6l1.8,-.6l-.1,.1l1.5,-.8l1.5,-1l1.4,-.9l1.2,-1.1l-.1,.1l1,-1.1l.8,-1.2l.7,-1.3l-.1,.1l.5,-1.3l.4,-1.4v.1l.1,-1.4v.1l.7,-.1v.1l-.1,1.4l-.4,1.3v.1l-.4,1.4l-.8,1.3v.1l-.8,1.2h-.1l-1,1.1c-3,3,-7.1,4.6,-11.2,5.5l-2,.3l-2,.2c-4.7,.4,-9.5,-.4,-13.8,-2.2h-.1l-1.6,-.8Z" class="g1_255"/>
<path d="M617.6,677.9h.7v-1.8h-.7v1.8Z" class="g1_255"/>
<path d="M617.7,677.1l2.7,-1l1.5,-.6l-.5,1.6l-2.7,9.8l-.8,2.4l-.7,-2.4l-2.9,-9.8l-.4,-1.5l1.5,.5l.4,.6l2.9,9.7l-1.5,.5v-.5l2.7,-9.7l1.5,.4l-.4,.5l-2.8,1Z" class="g1_255"/>
<path d="M615.4,676.1l2.8,1v1.5l-.3,.1l-.2,-.1l-2.9,-1Z" class="g1_255"/>
<path fill-rule="evenodd" d="M617.9,677.9l2.8,-1l-2.8,9.7l-2.8,-9.7Z" class="g1_255"/>
<path d="M617.6,676.5h.7v-15h-.7v15Z" class="g1_255"/>
<path d="M401.9,676h.7v-1.8h-.7V676Z" class="g1_255"/>
<path d="M402,675.2l2.7,-1l1.5,-.6l-.5,1.6l-2.7,9.7l-.8,2.5l-.7,-2.5l-2.8,-9.7l-.5,-1.5l1.5,.5l.4,.6l2.9,9.7l-1.5,.4v-.4l2.8,-9.7l1.4,.4l-.4,.5l-2.8,1Z" class="g1_255"/>
<path d="M399.7,674.2l2.8,1v1.5l-.3,.1l-.2,-.1l-2.9,-1Z" class="g1_255"/>
<path fill-rule="evenodd" d="M402.2,676l2.8,-1.1l-2.8,9.8l-2.8,-9.8Z" class="g1_255"/>
<path d="M401.9,674.6h.7V548.7h-.7V674.6Z" class="g1_255"/>
<path d="M300.3,676.7h.7v-1.8h-.7v1.8Z" class="g1_255"/>
<path d="M300.4,676l2.7,-1.1l1.5,-.6l-.4,1.7l-2.8,9.7l-.7,2.5l-.8,-2.5L297.2,676l-.5,-1.6l1.5,.5l.4,.6l2.8,9.7l-1.5,.5v-.5l2.8,-9.7l1.5,.5l-.5,.4l-2.8,1Z" class="g1_255"/>
<path d="M298.2,674.9l2.7,1.1v1.4l-.2,.1l-.3,-.1l-2.8,-1Z" class="g1_255"/>
<path fill-rule="evenodd" d="M300.7,676.7l2.7,-1l-2.7,9.7l-2.8,-9.7Z" class="g1_255"/>
<path d="M300.3,675.3h.7V549.4h-.7V675.3Z" class="g1_255"/>
<path d="M512.2,675.9h.8v-1.8h-.8v1.8Z" class="g1_255"/>
<path d="M512.3,675.1l2.8,-1l1.4,-.6l-.4,1.6l-3.5,12.2l-3.5,-12.2l-.4,-1.5l1.4,.5l.5,.6l2.7,9.6l-1.4,.4v-.4l2.7,-9.6l1.5,.4l-.5,.5l-2.7,1Z" class="g1_255"/>
<path d="M510.1,674.1l2.8,1v1.5l-.3,.1l-.3,-.1l-2.7,-1Z" class="g1_255"/>
<path fill-rule="evenodd" d="M512.6,675.9l2.7,-1l-2.7,9.6l-2.7,-9.6Z" class="g1_255"/>
<path d="M512.2,549h.8v-.4h-.8v.4Z" class="g1_255"/>
<path d="M512.2,674.5h.8V549h-.8V674.5Z" class="g1_255"/>
</svg>