<?xml version="1.0" encoding="UTF-8" standalone="no"?>
<!DOCTYPE svg PUBLIC "-//W3C//DTD SVG 1.1//EN"
"http://www.w3.org/Graphics/SVG/1.1/DTD/svg11.dtd">
<svg viewBox="0 0 935 1210" version="1.1" xmlns="http://www.w3.org/2000/svg" xmlns:xlink="http://www.w3.org/1999/xlink">
<defs>
<style type="text/css"><![CDATA[
.g0_199{
fill: #FFF;
}
.g1_199{
fill: #000;
}
]]></style>
</defs>
<path d="M68.9,1149.3H852.7v-21.2H68.9v21.2Z" class="g0_199"/>
<path d="M69.9,551.2h.8V124.1h-.8V551.2Z" class="g1_199"/>
<path d="M127.4,551.9h.8V123.4h-.8V551.9Z" class="g1_199"/>
<path d="M210.3,551.9h.7V123.4h-.7V551.9Z" class="g1_199"/>
<path d="M435.6,551.9h.7V123.4h-.7V551.9Z" class="g1_199"/>
<path d="M529.4,551.9h.7V123.4h-.7V551.9Z" class="g1_199"/>
<path d="M593,551.9h.7V123.4H593V551.9Z" class="g1_199"/>
<path d="M853,551.2h.8V124.1H853V551.2Z" class="g1_199"/>
<path d="M69.9,124.1H853.8v-.7H69.9v.7Z" class="g1_199"/>
<path d="M69.9,163.8H853.8v-.7H69.9v.7Z" class="g1_199"/>
<path d="M69.9,551.9H853.8v-.7H69.9v.7Z" class="g1_199"/>
</svg>