<?xml version="1.0" encoding="UTF-8" standalone="no"?>
<!DOCTYPE svg PUBLIC "-//W3C//DTD SVG 1.1//EN"
"http://www.w3.org/Graphics/SVG/1.1/DTD/svg11.dtd">
<svg viewBox="0 0 935 1210" version="1.1" xmlns="http://www.w3.org/2000/svg" xmlns:xlink="http://www.w3.org/1999/xlink">
<defs>
<clipPath id="c0_2291"><path d="M97.3,59.2V41.4h72.1V59.2Z"/></clipPath>
<style type="text/css"><![CDATA[
.g0_2291{
fill: #000;
}
]]></style>
</defs>
<path d="M96.3,63.3H838.8v-.4H96.3v.4Z" class="g0_2291"/>
<path d="M96.1,1114.5h.2v-.4h-.2v.4Z" class="g0_2291"/>
<path d="M96.3,1114.5H838.9v-.4H96.3v.4Z" class="g0_2291"/>
<image clip-path="url(#c0_2291)" preserveAspectRatio="none" x="97" y="41" width="73" height="18" xlink:href="img/1.jpg"/>
<path d="M562.4,1032.3h31.4v-1.1H562.4v1.1Z" class="g0_2291"/>
<path d="M207.7,419.7h.8V298.3h-.8V419.7Z" class="g0_2291"/>
<path d="M464.2,420.5h.7v-123h-.7v123Z" class="g0_2291"/>
<path d="M726.6,419.7h.7V298.3h-.7V419.7Z" class="g0_2291"/>
<path d="M207.7,298.3H727.3v-.7H207.7v.7Z" class="g0_2291"/>
<path d="M207.7,322.8H727.3V322H207.7v.8Z" class="g0_2291"/>
<path d="M207.7,347.1H727.3v-.7H207.7v.7Z" class="g0_2291"/>
<path d="M207.7,371.6H727.3v-.7H207.7v.7Z" class="g0_2291"/>
<path d="M207.7,396.1H727.3v-.7H207.7v.7Z" class="g0_2291"/>
<path d="M207.7,420.5H727.3v-.8H207.7v.8Z" class="g0_2291"/>
<path d="M95.9,824.6h.7v-68h-.7v68Z" class="g0_2291"/>
<path d="M216,825.4h.7V755.9H216v69.5Z" class="g0_2291"/>
<path d="M293.3,825.4h.8V755.9h-.8v69.5Z" class="g0_2291"/>
<path d="M839.1,824.6h.7v-68h-.7v68Z" class="g0_2291"/>
<path d="M95.9,756.6h744v-.7H95.9v.7Z" class="g0_2291"/>
<path d="M95.9,780.7h744v-3H95.9v3Z" class="g0_2291"/>
<path d="M95.9,802.4h744v-.7H95.9v.7Z" class="g0_2291"/>
<path d="M95.9,825.4h744v-.8H95.9v.8Z" class="g0_2291"/>
</svg>