<?xml version="1.0" encoding="UTF-8" standalone="no"?>
<!DOCTYPE svg PUBLIC "-//W3C//DTD SVG 1.1//EN"
"http://www.w3.org/Graphics/SVG/1.1/DTD/svg11.dtd">
<svg viewBox="0 0 935 1210" version="1.1" xmlns="http://www.w3.org/2000/svg" xmlns:xlink="http://www.w3.org/1999/xlink">
<defs>
<clipPath id="c0_944"><path d="M97.3,59.2V41.4h72.1V59.2Z"/></clipPath>
<style type="text/css"><![CDATA[
.g0_944{
fill: #000;
}
]]></style>
</defs>
<path d="M96.2,62.9v.3H838.7v-.3H96.2Z" class="g0_944"/>
<path d="M96.2,1114.1h-.1v.3h.1v-.3Z" class="g0_944"/>
<path d="M838.7,1114.1h.2v.3h-.2v-.3Z" class="g0_944"/>
<path d="M96.2,1114.1v.3H838.7v-.3H96.2Z" class="g0_944"/>
<image clip-path="url(#c0_944)" preserveAspectRatio="none" x="97" y="41" width="72" height="18" xlink:href="img/1.jpg"/>
<path d="M192.9,197.4h-.8V534.3h.8V197.4Z" class="g0_944"/>
<path d="M278,317.3h-.7v98.6h.7V317.3Z" class="g0_944"/>
<path d="M420.2,196.7h-.8V464.8h.8V196.7Z" class="g0_944"/>
<path d="M466.3,221.1h-.7V464.8h.7V221.1Z" class="g0_944"/>
<path d="M512.3,221.1h-.7V464.8h.7V221.1Z" class="g0_944"/>
<path d="M558.4,196.7h-.7V464.8h.7V196.7Z" class="g0_944"/>
<path d="M650.6,196.7h-.7V464.8h.7V196.7Z" class="g0_944"/>
<path d="M742.8,197.4h-.7V534.3h.7V197.4Z" class="g0_944"/>
<path d="M192.1,196.7v.7H742.8v-.7H192.1Z" class="g0_944"/>
<path d="M419.4,221.1v.7H558.5v-.7H419.4Z" class="g0_944"/>
<path d="M192.1,317.4v.8H742.8v-.8H192.1Z" class="g0_944"/>
<path d="M277.3,366.3v.7H420.2v-.7H277.3Z" class="g0_944"/>
<path d="M465.5,366.3v.7H742.8v-.7H465.5Z" class="g0_944"/>
<path d="M511.6,390.8v.7H742.8v-.7H511.6Z" class="g0_944"/>
<path d="M192.1,415.1v.8H742.8v-.8H192.1Z" class="g0_944"/>
<path d="M511.6,439.6v.7H742.8v-.7H511.6Z" class="g0_944"/>
<path d="M192.1,464.1v.7H742.8v-.7H192.1Z" class="g0_944"/>
<path d="M192.1,534.3v.7H742.8v-.7H192.1Z" class="g0_944"/>
</svg>