<?xml version="1.0" encoding="UTF-8" standalone="no"?>
<!DOCTYPE svg PUBLIC "-//W3C//DTD SVG 1.1//EN"
"http://www.w3.org/Graphics/SVG/1.1/DTD/svg11.dtd">
<svg viewBox="0 0 935 1210" version="1.1" xmlns="http://www.w3.org/2000/svg" xmlns:xlink="http://www.w3.org/1999/xlink">
<defs>
<style type="text/css"><![CDATA[
.g0_1131{
fill: #FFF;
}
.g1_1131{
fill: #000;
}
]]></style>
</defs>
<path d="M68.9,1149.3H755.2v-21.2H68.9v21.2Z" class="g0_1131"/>
<path d="M771.3,1149.3H855v-21.2H771.3v21.2Z" class="g0_1131"/>
<path d="M69.9,208.9h.8V125.7h-.8v83.2Z" class="g1_1131"/>
<path d="M219.5,209.7h.8V124.9h-.8v84.8Z" class="g1_1131"/>
<path d="M389.2,209.7h.7V124.9h-.7v84.8Z" class="g1_1131"/>
<path d="M427.1,209.7h.7V124.9h-.7v84.8Z" class="g1_1131"/>
<path d="M500.4,209.7h.7V124.9h-.7v84.8Z" class="g1_1131"/>
<path d="M571.8,209.7h.8V124.9h-.8v84.8Z" class="g1_1131"/>
<path d="M851.2,208.9h.7V125.7h-.7v83.2Z" class="g1_1131"/>
<path d="M69.9,125.7H852v-.8H69.9v.8Z" class="g1_1131"/>
<path d="M69.9,163.8H852v-.7H69.9v.7Z" class="g1_1131"/>
<path d="M69.9,186.7H852V186H69.9v.7Z" class="g1_1131"/>
<path d="M69.9,209.6H852v-.7H69.9v.7Z" class="g1_1131"/>
<path d="M69.9,312.9h.8V264.7h-.8v48.2Z" class="g1_1131"/>
<path d="M137,313.6h.8V263.9H137v49.7Z" class="g1_1131"/>
<path d="M313.3,313.6h.7V263.9h-.7v49.7Z" class="g1_1131"/>
<path d="M491.6,313.6h.7V263.9h-.7v49.7Z" class="g1_1131"/>
<path d="M669.3,313.6h.7V263.9h-.7v49.7Z" class="g1_1131"/>
<path d="M851,312.9h.8V264.7H851v48.2Z" class="g1_1131"/>
<path d="M69.9,264.6H851.8v-.7H69.9v.7Z" class="g1_1131"/>
<path d="M69.9,289.1H851.8v-.7H69.9v.7Z" class="g1_1131"/>
<path d="M69.9,313.6H851.8v-.7H69.9v.7Z" class="g1_1131"/>
</svg>