<?xml version="1.0" encoding="UTF-8" standalone="no"?>
<!DOCTYPE svg PUBLIC "-//W3C//DTD SVG 1.1//EN"
"http://www.w3.org/Graphics/SVG/1.1/DTD/svg11.dtd">
<svg viewBox="0 0 825 990" version="1.1" xmlns="http://www.w3.org/2000/svg" xmlns:xlink="http://www.w3.org/1999/xlink">
<defs>
<style type="text/css"><![CDATA[
.g0_779{
fill: #000;
}
.g1_779{
fill: #FFF;
}
]]></style>
</defs>
<path d="M94.9,910.3h.3v-.8h-.3v.8Z" class="g0_779"/>
<path d="M95.2,910.3h650v-.8H95.2v.8Z" class="g0_779"/>
<path d="M160.2,365.7H744.9v-26H160.2v26Z" class="g1_779"/>
<path d="M160.2,350.8v-.7Z" class="g0_779"/>
<path d="M160.2,350.8h43.7v-.7H160.2v.7Z" class="g0_779"/>
<path d="M246.7,350.8h.3v-.7h-.3v.7Z" class="g0_779"/>
<path d="M247,350.8h86.8v-.7H247v.7Z" class="g0_779"/>
<path d="M160.2,430H744.9V419.2H160.2V430Z" class="g1_779"/>
<path d="M160.2,423v-.7Z" class="g0_779"/>
<path d="M160.2,423H333.8v-.7H160.2v.7Z" class="g0_779"/>
<path d="M571.6,196.4H744.9v-.7H571.6v.7Z" class="g0_779"/>
<path d="M571.6,231.6H744.9v-.7H571.6v.7Z" class="g0_779"/>
<path d="M571.6,260.3H744.9v-.1H571.6v.1Z" class="g0_779"/>
<path d="M571.6,289.4H744.9v-.2H571.6v.2Z" class="g0_779"/>
<path d="M571.6,318.7H744.9V318H571.6v.7Z" class="g0_779"/>
</svg>