<?xml version="1.0" encoding="UTF-8" standalone="no"?>
<!DOCTYPE svg PUBLIC "-//W3C//DTD SVG 1.1//EN"
"http://www.w3.org/Graphics/SVG/1.1/DTD/svg11.dtd">
<svg viewBox="0 0 935 1210" version="1.1" xmlns="http://www.w3.org/2000/svg" xmlns:xlink="http://www.w3.org/1999/xlink">
<defs>
<style type="text/css"><![CDATA[
.g0_124{
fill: #FFF;
}
.g1_124{
fill: #000;
}
]]></style>
</defs>
<path d="M68.8,1149.3H852.5v-21.2H68.8v21.2Z" class="g0_124"/>
<path d="M70.9,623h.8V163.9h-.8V623Z" class="g1_124"/>
<path d="M159,623.7h.7V163.1H159V623.7Z" class="g1_124"/>
<path d="M849.4,623h.7V163.9h-.7V623Z" class="g1_124"/>
<path d="M70.9,163.8H850.1v-.7H70.9v.7Z" class="g1_124"/>
<path d="M70.9,208.2H850.1v-.8H70.9v.8Z" class="g1_124"/>
<path d="M70.9,237.1H850.1v-.7H70.9v.7Z" class="g1_124"/>
<path d="M70.9,266.2H850.1v-.7H70.9v.7Z" class="g1_124"/>
<path d="M70.9,312H850.1v-.7H70.9v.7Z" class="g1_124"/>
<path d="M70.9,357.9H850.1v-.8H70.9v.8Z" class="g1_124"/>
<path d="M70.9,403.7H850.1V403H70.9v.7Z" class="g1_124"/>
<path d="M70.9,432.8H850.1V432H70.9v.8Z" class="g1_124"/>
<path d="M70.9,461.8H850.1v-.7H70.9v.7Z" class="g1_124"/>
<path d="M70.9,490.8H850.1v-.7H70.9v.7Z" class="g1_124"/>
<path d="M70.9,519.8H850.1v-.7H70.9v.7Z" class="g1_124"/>
<path d="M70.9,548.9H850.1v-.7H70.9v.7Z" class="g1_124"/>
<path d="M70.9,577.9H850.1v-.8H70.9v.8Z" class="g1_124"/>
<path d="M70.9,623.7H850.1V623H70.9v.7Z" class="g1_124"/>
<path d="M69.9,1073.7h.7V701.6h-.7v372.1Z" class="g1_124"/>
<path d="M157.9,1074.4h.7V700.9h-.7v373.5Z" class="g1_124"/>
<path d="M850.6,1073.7h.7V701.6h-.7v372.1Z" class="g1_124"/>
<path d="M69.9,701.6H851.3v-.7H69.9v.7Z" class="g1_124"/>
<path d="M69.9,746H851.3v-.8H69.9v.8Z" class="g1_124"/>
<path d="M69.9,774.9H851.3v-.7H69.9v.7Z" class="g1_124"/>
<path d="M69.9,804H851.3v-.7H69.9v.7Z" class="g1_124"/>
<path d="M69.9,849.8H851.3v-.7H69.9v.7Z" class="g1_124"/>
<path d="M69.9,895.7H851.3v-.8H69.9v.8Z" class="g1_124"/>
<path d="M69.9,941.5H851.3v-.7H69.9v.7Z" class="g1_124"/>
<path d="M69.9,970.6H851.3v-.8H69.9v.8Z" class="g1_124"/>
<path d="M69.9,999.5H851.3v-.7H69.9v.7Z" class="g1_124"/>
<path d="M69.9,1045.4H851.3v-.8H69.9v.8Z" class="g1_124"/>
<path d="M69.9,1074.4H851.3v-.7H69.9v.7Z" class="g1_124"/>
</svg>