<?xml version="1.0" encoding="UTF-8" standalone="no"?>
<!DOCTYPE svg PUBLIC "-//W3C//DTD SVG 1.1//EN"
"http://www.w3.org/Graphics/SVG/1.1/DTD/svg11.dtd">
<svg viewBox="0 0 935 1210" version="1.1" xmlns="http://www.w3.org/2000/svg" xmlns:xlink="http://www.w3.org/1999/xlink">
<defs>
<clipPath id="c0_3653"><path d="M119.3,728.1V698.5H803.5v29.6Z"/></clipPath>
<style type="text/css"><![CDATA[
.g0_3653{
fill: #FFF;
}
.g1_3653{
fill: #000;
}
]]></style>
</defs>
<path d="M68.9,1149.3H852.7v-21.2H68.9v21.2Z" class="g0_3653"/>
<path clip-path="url(#c0_3653)" d="M119.3,728.1H803.5V698.5H119.3v29.6Z" class="g0_3653"/>
<path d="M120.2,721.4h53.5V709H120.2v12.4Z" class="g0_3653"/>
<path d="M118.9,673.7h.7V113.5h-.7V673.7Z" class="g1_3653"/>
<path d="M803.1,673.7h.7V113.5h-.7V673.7Z" class="g1_3653"/>
<path d="M118.9,113.4H803.8v-.7H118.9v.7Z" class="g1_3653"/>
<path d="M118.9,674.4H803.8v-.7H118.9v.7Z" class="g1_3653"/>
<path d="M302.6,395.5H413v-.8H302.6v.8Z" class="g1_3653"/>
<path d="M412.2,449.9h.8V395.1h-.8v54.8Z" class="g1_3653"/>
<path d="M302.2,449.9H412.6v-.7H302.2v.7Z" class="g1_3653"/>
<path d="M302.2,449.5h.8V394.7h-.8v54.8Z" class="g1_3653"/>
<path d="M302.6,174.9H413v-.7H302.6v.7Z" class="g1_3653"/>
<path d="M412.2,202.4h.8V174.5h-.8v27.9Z" class="g1_3653"/>
<path d="M302.2,202.4H412.6v-.7H302.2v.7Z" class="g1_3653"/>
<path d="M302.2,202h.8V174.2h-.8V202Z" class="g1_3653"/>
<path d="M302.6,202.4H413v-.7H302.6v.7Z" class="g1_3653"/>
<path d="M412.2,229.9h.8V202h-.8v27.9Z" class="g1_3653"/>
<path d="M302.2,229.9H412.6v-.7H302.2v.7Z" class="g1_3653"/>
<path d="M302.2,229.5h.8V201.7h-.8v27.8Z" class="g1_3653"/>
<path d="M302.6,257.4H413v-.7H302.6v.7Z" class="g1_3653"/>
<path d="M412.2,284.9h.8V257h-.8v27.9Z" class="g1_3653"/>
<path d="M302.2,284.9H412.6v-.7H302.2v.7Z" class="g1_3653"/>
<path d="M302.2,284.5h.8V256.7h-.8v27.8Z" class="g1_3653"/>
<path d="M302.6,229.9H413v-.7H302.6v.7Z" class="g1_3653"/>
<path d="M412.2,257.4h.8V229.5h-.8v27.9Z" class="g1_3653"/>
<path d="M302.2,257.4H412.6v-.7H302.2v.7Z" class="g1_3653"/>
<path d="M302.2,257h.8V229.2h-.8V257Z" class="g1_3653"/>
<path d="M302.6,284.9H413v-.7H302.6v.7Z" class="g1_3653"/>
<path d="M412.2,312.4h.8V284.5h-.8v27.9Z" class="g1_3653"/>
<path d="M302.2,312.4H412.6v-.7H302.2v.7Z" class="g1_3653"/>
<path d="M302.2,312h.8V284.2h-.8V312Z" class="g1_3653"/>
<path d="M302.6,312.4H413v-.7H302.6v.7Z" class="g1_3653"/>
<path d="M412.2,339.9h.8V312h-.8v27.9Z" class="g1_3653"/>
<path d="M302.2,339.9H412.6v-.7H302.2v.7Z" class="g1_3653"/>
<path d="M302.2,339.5h.8V311.7h-.8v27.8Z" class="g1_3653"/>
<path d="M302.6,367.4H413v-.7H302.6v.7Z" class="g1_3653"/>
<path d="M412.2,394.9h.8V367h-.8v27.9Z" class="g1_3653"/>
<path d="M302.2,394.9H412.6v-.7H302.2v.7Z" class="g1_3653"/>
<path d="M302.2,394.5h.8V366.7h-.8v27.8Z" class="g1_3653"/>
<path d="M302.6,339.9H413v-.7H302.6v.7Z" class="g1_3653"/>
<path d="M412.2,367.4h.8V339.5h-.8v27.9Z" class="g1_3653"/>
<path d="M302.2,367.4H412.6v-.7H302.2v.7Z" class="g1_3653"/>
<path d="M302.2,367h.8V339.2h-.8V367Z" class="g1_3653"/>
<path d="M302.6,449.9H413v-.7H302.6v.7Z" class="g1_3653"/>
<path d="M412.2,477.4h.8V449.5h-.8v27.9Z" class="g1_3653"/>
<path d="M302.2,477.4H412.6v-.7H302.2v.7Z" class="g1_3653"/>
<path d="M302.2,477h.8V449.2h-.8V477Z" class="g1_3653"/>
<path d="M522.6,340.5H633v-.8H522.6v.8Z" class="g1_3653"/>
<path d="M632.2,394.9h.8V340.1h-.8v54.8Z" class="g1_3653"/>
<path d="M522.2,394.9H632.6v-.7H522.2v.7Z" class="g1_3653"/>
<path d="M522.2,394.5h.8V339.7h-.8v54.8Z" class="g1_3653"/>
<path d="M522.6,229.9H633v-.7H522.6v.7Z" class="g1_3653"/>
<path d="M632.2,284.3h.8V229.5h-.8v54.8Z" class="g1_3653"/>
<path d="M522.2,284.3H632.6v-.8H522.2v.8Z" class="g1_3653"/>
<path d="M522.2,283.9h.8V229.2h-.8v54.7Z" class="g1_3653"/>
<path d="M522.6,174.9H633v-.7H522.6v.7Z" class="g1_3653"/>
<path d="M632.2,230.3h.8V174.5h-.8v55.8Z" class="g1_3653"/>
<path d="M522.2,230.3H632.6v-.8H522.2v.8Z" class="g1_3653"/>
<path d="M522.2,229.9h.8V174.2h-.8v55.7Z" class="g1_3653"/>
<path d="M632,284.3h.8v-.4H632v.4Z" class="g1_3653"/>
<path d="M632.8,284.3v16.2l-4.1,5.9l-.5,.2l.4,-.6l9.1,4.8l.4,.2l-.3,.4l-.4,.1l-9.2,-4.9l-.4,-.2l.3,-.3l4,-6l.7,.4l-.8,-.2v-16Z" class="g1_3653"/>
<path d="M637.8,311.4l-5.1,6.6l-.7,-.3v-.1l.1,-.1l5.2,-6.6Z" class="g1_3653"/>
<path d="M632,339.9h.8V317.7H632v22.2Z" class="g1_3653"/>
<path d="M522,284.5h.8v-.3H522v.3Z" class="g1_3653"/>
<path d="M522.8,284.5v16.3l-4.1,5.9l-.5,.2l.4,-.6l9.1,4.9l.4,.2l-.3,.4h-.4l-9.2,-4.9l-.4,-.2l.3,-.3l4,-6l.7,.4l-.8,-.2V284.5Z" class="g1_3653"/>
<path d="M527.8,311.8l-5.1,6.5L522,318v-.1l.1,-.1l5.2,-6.5Z" class="g1_3653"/>
<path d="M522,340.2h.8V318H522v22.2Z" class="g1_3653"/>
<path d="M521.5,608.1H632v-.7H521.5v.7Z" class="g1_3653"/>
<path d="M631.2,662.6h.8V607.7h-.8v54.9Z" class="g1_3653"/>
<path d="M521.1,662.6H631.6v-.8H521.1v.8Z" class="g1_3653"/>
<path d="M521.1,662.2h.8V607.4h-.8v54.8Z" class="g1_3653"/>
<path d="M521.5,497.6H632v-.8H521.5v.8Z" class="g1_3653"/>
<path d="M631.2,551.9h.8V497.2h-.8v54.7Z" class="g1_3653"/>
<path d="M521.1,551.9H631.6v-.7H521.1v.7Z" class="g1_3653"/>
<path d="M521.1,551.6h.8V496.8h-.8v54.8Z" class="g1_3653"/>
<path d="M521.5,442.5H632v-.8H521.5v.8Z" class="g1_3653"/>
<path d="M631.2,497.9h.8V442.1h-.8v55.8Z" class="g1_3653"/>
<path d="M521.1,497.9H631.6v-.7H521.1v.7Z" class="g1_3653"/>
<path d="M521.1,497.6h.8V441.7h-.8v55.9Z" class="g1_3653"/>
<path d="M630.9,551.8h.8v-.3h-.8v.3Z" class="g1_3653"/>
<path d="M631.7,551.8v16.3l-4,6l-.5,.2l.3,-.6l9.2,4.8l.4,.2l-.3,.4l-.5,.1l-9.1,-4.9l-.4,-.2l.3,-.4l3.9,-6l.7,.4l-.8,-.2V551.8Z" class="g1_3653"/>
<path d="M636.8,579.1l-5.2,6.6l-.7,-.3v-.1l.1,-.1l5.3,-6.6Z" class="g1_3653"/>
<path d="M630.9,607.6h.8V585.4h-.8v22.2Z" class="g1_3653"/>
<path d="M520.9,552.2h.8v-.4h-.8v.4Z" class="g1_3653"/>
<path d="M521.7,552.2v16.2l-4,6l-.5,.2l.3,-.7l9.2,4.9l.4,.2l-.3,.3l-.5,.1l-9.1,-4.8l-.4,-.2l.3,-.4l3.9,-5.9l.7,.3l-.8,-.2v-16Z" class="g1_3653"/>
<path d="M526.8,579.3l-5.2,6.6l-.7,-.2v-.1l.1,-.1l5.3,-6.6Z" class="g1_3653"/>
<path d="M520.9,607.8h.8V585.7h-.8v22.1Z" class="g1_3653"/>
<path d="M507.5,188.6h1.6v-.7h-1.6v.7Z" class="g1_3653"/>
<path d="M508.4,188.6l-.9,-2.4l-.6,-1.5l1.6,.5l8.2,2.4l2.7,.7l-2.7,.7l-8.2,2.3l-1.6,.5l.6,-1.5l.5,-.5l8.3,-2.2l.4,1.4h-.4L508,186.6l.5,-1.4l.4,.4l1,2.4Z" class="g1_3653"/>
<path d="M507.5,190.3l.9,-2.3h1.5v.6l-1,2.2Z" class="g1_3653"/>
<path fill-rule="evenodd" d="M509.1,188.3l-.9,-2.4l8.2,2.4l-8.2,2.3Z" class="g1_3653"/>
<path d="M439.7,188.6h.4v-.7h-.4v.7Z" class="g1_3653"/>
<path d="M440.1,188.6h67.7v-.7H440.1v.7Z" class="g1_3653"/>
<path d="M511.1,290.7h1.6v-.8h-1.6v.8Z" class="g1_3653"/>
<path d="M512,290.6l-.9,-2.3l-.5,-1.5l1.5,.5l8,2.3l2.6,.7l-2.6,.7l-8,2.3l-1.5,.5l.5,-1.5l.6,-.4l8,-2.3l.4,1.4h-.4l-8,-2.2l.4,-1.5l.5,.4l.8,2.3Z" class="g1_3653"/>
<path d="M511.1,292.3L512,290h1.4l.1,.3l-.1,.3l-.8,2.3Z" class="g1_3653"/>
<path fill-rule="evenodd" d="M512.7,290.3l-.8,-2.3l7.9,2.3l-7.9,2.3Z" class="g1_3653"/>
<path d="M439.7,216.1h69.5v-.7H439.7v.7Z" class="g1_3653"/>
<path d="M508.5,290.7h.7V215.8h-.7v74.9Z" class="g1_3653"/>
<path d="M508.8,290.7h2.7v-.8h-2.7v.8Z" class="g1_3653"/>
<path d="M507.8,389.1h1.7v-.7h-1.7v.7Z" class="g1_3653"/>
<path d="M508.8,389l-.9,-2.3l-.5,-1.5l1.5,.4l8.2,2.4l2.5,.8l-2.5,.7l-8.2,2.4l-1.5,.4l.5,-1.4l.6,-.5l8.1,-2.4l.5,1.5h-.5l-8.1,-2.4l.4,-1.5l.5,.5l.8,2.4Z" class="g1_3653"/>
<path d="M507.9,390.9l.9,-2.4h1.4l.1,.3l-.1,.2l-.8,2.4Z" class="g1_3653"/>
<path fill-rule="evenodd" d="M509.5,388.8l-.8,-2.4l8.1,2.4l-8.1,2.3Z" class="g1_3653"/>
<path d="M439.7,243.6h53.7v-.7H439.7v.7Z" class="g1_3653"/>
<path d="M492.7,389.1h.7V243.3h-.7V389.1Z" class="g1_3653"/>
<path d="M493.1,389.1h15.1v-.7H493.1v.7Z" class="g1_3653"/>
<path d="M506.8,452.9h1.7v-.7h-1.7v.7Z" class="g1_3653"/>
<path d="M507.7,452.8l-.8,-2.4l-.5,-1.4l1.5,.4l8.2,2.4l2.6,.8l-2.6,.7l-8.2,2.3l-1.5,.4l.5,-1.4l.6,-.5l8.1,-2.3l.5,1.5h-.5l-8.1,-2.4l.4,-1.5l.5,.5l.8,2.4Z" class="g1_3653"/>
<path d="M506.9,454.6l.8,-2.3h1.5l.1,.3l-.1,.2l-.8,2.3Z" class="g1_3653"/>
<path fill-rule="evenodd" d="M508.5,452.6l-.8,-2.4l8.1,2.4l-8.1,2.3Z" class="g1_3653"/>
<path d="M439.7,298.6h40v-.7h-40v.7Z" class="g1_3653"/>
<path d="M479,452.9h.7V298.3H479V452.9Z" class="g1_3653"/>
<path d="M479.3,452.9h27.9v-.7H479.3v.7Z" class="g1_3653"/>
<path d="M508.8,558.9h1.7v-.7h-1.7v.7Z" class="g1_3653"/>
<path d="M509.8,558.8l-1,-2.4l-.5,-1.4l1.6,.4l8.2,2.4l2.6,.7l-2.6,.8l-8.2,2.3l-1.6,.5l.5,-1.5l.6,-.4l8.2,-2.4l.5,1.5h-.5l-8.2,-2.4l.5,-1.5l.4,.5l.9,2.4Z" class="g1_3653"/>
<path d="M508.8,560.6l1,-2.4h1.4l.1,.3l-.1,.3l-.9,2.4Z" class="g1_3653"/>
<path fill-rule="evenodd" d="M510.5,558.5l-.9,-2.4l8.2,2.4l-8.2,2.4Z" class="g1_3653"/>
<path d="M444.7,324.1h25.9v-.7H444.7v.7Z" class="g1_3653"/>
<path d="M469.9,558.9h.7V323.8h-.7V558.9Z" class="g1_3653"/>
<path d="M470.2,558.9h39v-.7h-39v.7Z" class="g1_3653"/>
<path d="M505.9,657.2h1.6v-.8h-1.6v.8Z" class="g1_3653"/>
<path d="M506.7,657.1l-.8,-2.4l-.5,-1.5l1.5,.5l8.2,2.4l2.4,.7l-2.4,.7l-8.2,2.4l-1.5,.5l.5,-1.5l.6,-.5l8.1,-2.3l.5,1.4h-.5l-8.1,-2.4l.4,-1.4l.5,.4l.8,2.4Z" class="g1_3653"/>
<path d="M505.9,658.9l.8,-2.4h1.5l.1,.3l-.1,.3l-.8,2.3Z" class="g1_3653"/>
<path fill-rule="evenodd" d="M507.5,656.8l-.9,-2.4l8.2,2.4l-8.2,2.4Z" class="g1_3653"/>
<path d="M439.7,353.6h13.7v-.7H439.7v.7Z" class="g1_3653"/>
<path d="M452.7,657.2h.7V353.3h-.7V657.2Z" class="g1_3653"/>
<path d="M453,657.2h53.3v-.8H453v.8Z" class="g1_3653"/>
<path d="M423.5,178h1.7v-.7h-1.7v.7Z" class="g1_3653"/>
<path d="M424.2,177.4l1,2.3l.6,1.4l-9.9,-2.7l-2.6,-.8l2.6,-.7l8.2,-2.4l1.6,-.4l-.5,1.4l-.6,.5l-8.3,2.4l-.4,-1.5h.4l8.3,2.3l-.5,1.5l-.4,-.5l-.9,-2.3Z" class="g1_3653"/>
<path d="M425.2,175.5l-1,2.4h-1.4l-.1,-.2l.1,-.3l.9,-2.4Z" class="g1_3653"/>
<path fill-rule="evenodd" d="M423.5,177.7l.9,2.2l-8.2,-2.2l8.2,-2.4Z" class="g1_3653"/>
<path d="M441.7,133.4h12.7v-.8H441.7v.8Z" class="g1_3653"/>
<path d="M441.7,178h.8V133h-.8v45Z" class="g1_3653"/>
<path d="M424.8,178h17.3v-.7H424.8v.7Z" class="g1_3653"/>
</svg>