<?xml version="1.0" encoding="UTF-8" standalone="no"?>
<!DOCTYPE svg PUBLIC "-//W3C//DTD SVG 1.1//EN"
"http://www.w3.org/Graphics/SVG/1.1/DTD/svg11.dtd">
<svg viewBox="0 0 935 1210" version="1.1" xmlns="http://www.w3.org/2000/svg" xmlns:xlink="http://www.w3.org/1999/xlink">
<defs>
<style type="text/css"><![CDATA[
.g0_1290{
fill: #FFF;
}
.g1_1290{
fill: #000;
}
]]></style>
</defs>
<path d="M165,1149.3H852.5v-21.2H165v21.2Z" class="g0_1290"/>
<path d="M68.8,1149.3h82.5v-21.2H68.8v21.2Z" class="g0_1290"/>
<path d="M68.6,1063h.7V125.7h-.7V1063Z" class="g1_1290"/>
<path d="M334.1,1063.8h.8V124.9h-.8v938.9Z" class="g1_1290"/>
<path d="M405.7,1063.8h.8V124.9h-.8v938.9Z" class="g1_1290"/>
<path d="M478.3,1063.8h.8V124.9h-.8v938.9Z" class="g1_1290"/>
<path d="M565.2,1063.8h.8V124.9h-.8v938.9Z" class="g1_1290"/>
<path d="M854.2,1063h.7V125.7h-.7V1063Z" class="g1_1290"/>
<path d="M68.6,125.7H854.9v-.8H68.6v.8Z" class="g1_1290"/>
<path d="M68.6,179.1H854.9v-.7H68.6v.7Z" class="g1_1290"/>
<path d="M68.6,218.8H854.9v-.7H68.6v.7Z" class="g1_1290"/>
<path d="M68.6,258.6H854.9v-.7H68.6v.7Z" class="g1_1290"/>
<path d="M68.6,298.3H854.9v-.7H68.6v.7Z" class="g1_1290"/>
<path d="M68.6,338H854.9v-.8H68.6v.8Z" class="g1_1290"/>
<path d="M68.6,377.8H854.9V377H68.6v.8Z" class="g1_1290"/>
<path d="M68.6,417.4H854.9v-.7H68.6v.7Z" class="g1_1290"/>
<path d="M68.6,457.2H854.9v-.7H68.6v.7Z" class="g1_1290"/>
<path d="M68.6,496.9H854.9v-.7H68.6v.7Z" class="g1_1290"/>
<path d="M68.6,536.6H854.9v-.7H68.6v.7Z" class="g1_1290"/>
<path d="M68.6,576.4H854.9v-.7H68.6v.7Z" class="g1_1290"/>
<path d="M68.6,616.1H854.9v-.7H68.6v.7Z" class="g1_1290"/>
<path d="M68.6,655.8H854.9v-.7H68.6v.7Z" class="g1_1290"/>
<path d="M68.6,695.6H854.9v-.8H68.6v.8Z" class="g1_1290"/>
<path d="M68.6,735.3H854.9v-.8H68.6v.8Z" class="g1_1290"/>
<path d="M68.6,774.9H854.9v-.7H68.6v.7Z" class="g1_1290"/>
<path d="M68.6,814.7H854.9V814H68.6v.7Z" class="g1_1290"/>
<path d="M68.6,854.4H854.9v-.7H68.6v.7Z" class="g1_1290"/>
<path d="M68.6,894.1H854.9v-.7H68.6v.7Z" class="g1_1290"/>
<path d="M68.6,950.7H854.9v-.8H68.6v.8Z" class="g1_1290"/>
<path d="M68.6,1007.2H854.9v-.7H68.6v.7Z" class="g1_1290"/>
<path d="M68.6,1063.7H854.9v-.7H68.6v.7Z" class="g1_1290"/>
</svg>