<?xml version="1.0" encoding="UTF-8" standalone="no"?>
<!DOCTYPE svg PUBLIC "-//W3C//DTD SVG 1.1//EN"
"http://www.w3.org/Graphics/SVG/1.1/DTD/svg11.dtd">
<svg viewBox="0 0 935 1210" version="1.1" xmlns="http://www.w3.org/2000/svg" xmlns:xlink="http://www.w3.org/1999/xlink">
<defs>
<style type="text/css"><![CDATA[
.g0_1395{
fill: #FFF;
}
.g1_1395{
fill: #000;
}
]]></style>
</defs>
<path d="M68.9,1149.3H852.7v-21.2H68.9v21.2Z" class="g0_1395"/>
<path d="M71,254.7h.8V163.9H71v90.8Z" class="g1_1395"/>
<path d="M170.2,255.6h.8V163.1h-.8v92.5Z" class="g1_1395"/>
<path d="M394.2,255.6h.7V163.1h-.7v92.5Z" class="g1_1395"/>
<path d="M498.8,255.6h.7V186h-.7v69.6Z" class="g1_1395"/>
<path d="M613.2,255.6h.7V186h-.7v69.6Z" class="g1_1395"/>
<path d="M850.9,254.7h.8V163.9h-.8v90.8Z" class="g1_1395"/>
<path d="M71,163.8H851.7v-.7H71v.7Z" class="g1_1395"/>
<path d="M394.2,186.7H851.7V186H394.2v.7Z" class="g1_1395"/>
<path d="M71,209.6H851.7v-.7H71v.7Z" class="g1_1395"/>
<path d="M170.1,232.6H851.7v-.8H170.1v.8Z" class="g1_1395"/>
<path d="M71,255.5H851.7v-.8H71v.8Z" class="g1_1395"/>
<path d="M71.6,441.2h.7V310.6h-.7V441.2Z" class="g1_1395"/>
<path d="M144.7,441.9h.8V309.7h-.8V441.9Z" class="g1_1395"/>
<path d="M285.2,441.9h.7V309.7h-.7V441.9Z" class="g1_1395"/>
<path d="M372.6,441.9h.8V372.4h-.8v69.5Z" class="g1_1395"/>
<path d="M468.1,441.9h.8V332.7h-.8V441.9Z" class="g1_1395"/>
<path d="M563.8,441.9h.7V372.4h-.7v69.5Z" class="g1_1395"/>
<path d="M659.3,441.9h.7V332.7h-.7V441.9Z" class="g1_1395"/>
<path d="M754.9,441.9h.7V372.4h-.7v69.5Z" class="g1_1395"/>
<path d="M850.4,441.2h.7V310.6h-.7V441.2Z" class="g1_1395"/>
<path d="M71.6,310.5H851.1v-.8H71.6v.8Z" class="g1_1395"/>
<path d="M285.2,333.4H851.1v-.7H285.2v.7Z" class="g1_1395"/>
<path d="M285.2,373.2H851.1v-.8H285.2v.8Z" class="g1_1395"/>
<path d="M71.6,396.1H851.1v-.7H71.6v.7Z" class="g1_1395"/>
<path d="M144.7,419H851.1v-.7H144.7v.7Z" class="g1_1395"/>
<path d="M71.6,441.9H851.1v-.7H71.6v.7Z" class="g1_1395"/>
<path d="M69,598.5h.8V526H69v72.5Z" class="g1_1395"/>
<path d="M237.1,599.3h.8V525.2h-.8v74.1Z" class="g1_1395"/>
<path d="M367.1,599.3h.8V525.2h-.8v74.1Z" class="g1_1395"/>
<path d="M448.9,599.3h.7V525.2h-.7v74.1Z" class="g1_1395"/>
<path d="M853,598.5h.7V526H853v72.5Z" class="g1_1395"/>
<path d="M69,526H853.7v-.8H69v.8Z" class="g1_1395"/>
<path d="M69,550.4H853.7v-.8H69v.8Z" class="g1_1395"/>
<path d="M69,574.8H853.7v-.7H69v.7Z" class="g1_1395"/>
<path d="M69,599.3H853.7v-.7H69v.7Z" class="g1_1395"/>
</svg>