<?xml version="1.0" encoding="UTF-8" standalone="no"?>
<!DOCTYPE svg PUBLIC "-//W3C//DTD SVG 1.1//EN"
"http://www.w3.org/Graphics/SVG/1.1/DTD/svg11.dtd">
<svg viewBox="0 0 935 1210" version="1.1" xmlns="http://www.w3.org/2000/svg" xmlns:xlink="http://www.w3.org/1999/xlink">
<defs>
<style type="text/css"><![CDATA[
.g0_3110{
fill: #FFF;
}
.g1_3110{
fill: #000;
}
]]></style>
</defs>
<path d="M68.8,1149.3H852.5v-21.2H68.8v21.2Z" class="g0_3110"/>
<path d="M68.9,1043.4v-.7Z" class="g1_3110"/>
<path d="M68.9,1043.4H289.3v-.7H68.9v.7Z" class="g1_3110"/>
<path d="M170.5,699.9h.7V397.7h-.7V699.9Z" class="g1_3110"/>
<path d="M749.8,699.9h.8V397.7h-.8V699.9Z" class="g1_3110"/>
<path d="M170.5,397.7H750.6v-.8H170.5v.8Z" class="g1_3110"/>
<path d="M170.5,700.6H750.6v-.7H170.5v.7Z" class="g1_3110"/>
<path d="M365.7,467.9H595.2V448.8H365.7v19.1Z" class="g0_3110"/>
<path d="M365.7,449.2H595.6v-.8H365.7v.8Z" class="g1_3110"/>
<path d="M594.8,468.2h.8V448.8h-.8v19.4Z" class="g1_3110"/>
<path d="M365.3,468.2H595.2v-.7H365.3v.7Z" class="g1_3110"/>
<path d="M365.3,467.9h.7V448.4h-.7v19.5Z" class="g1_3110"/>
<path d="M425.7,448.8h.5v-.2h-.5v.2Z" class="g1_3110"/>
<path d="M425.7,467.5h.5V448.8h-.5v18.7Z" class="g1_3110"/>
<path d="M505.6,448.8h.5v-.2h-.5v.2Z" class="g1_3110"/>
<path d="M505.6,467.5h.5V448.8h-.5v18.7Z" class="g1_3110"/>
<path d="M285.7,561.7h98.9V561H285.7v.7Z" class="g1_3110"/>
<path d="M383.9,643.7h.7V561.4h-.7v82.3Z" class="g1_3110"/>
<path d="M285.4,643.7h98.9v-.8H285.4v.8Z" class="g1_3110"/>
<path d="M285.4,643.3h.7V561h-.7v82.3Z" class="g1_3110"/>
<path d="M273.4,623.6h2.2v-.4h-2.2v.4Z" class="g1_3110"/>
<path d="M274.9,623.7l-1.4,-2.4l-1,-1.6l2,.5l8.2,2.4l2.7,.7l-2.7,.8l-8.2,2.3l-2,.5l1,-1.6l.5,-.4l8.2,-2.3l.5,1.5h-.5L274,621.7l.5,-1.5l.4,.4l1.4,2.4Z" class="g1_3110"/>
<path d="M273.5,625.3l1.4,-2.3h1.4l.3,.4l-.3,.4l-1.4,2.3Z" class="g1_3110"/>
<path fill-rule="evenodd" d="M275.6,623.3L274.2,621l8.2,2.3l-8.2,2.3Z" class="g1_3110"/>
<path d="M396.4,498h.4V468.4h-.4V498Z" class="g1_3110"/>
<path d="M254.2,498H396.5v-.4H254.2v.4Z" class="g1_3110"/>
<path d="M254.2,623.6h.5V497.7h-.5V623.6Z" class="g1_3110"/>
<path d="M254.4,623.6h19.2v-.4H254.4v.4Z" class="g1_3110"/>
<path d="M285.8,659.6h99.3v-.7H285.8v.7Z" class="g1_3110"/>
<path d="M384.4,680.9h.7V659.3h-.7v21.6Z" class="g1_3110"/>
<path d="M285.4,680.9h99.3v-.7H285.4v.7Z" class="g1_3110"/>
<path d="M285.4,680.5h.8V658.9h-.8v21.6Z" class="g1_3110"/>
<path d="M272.7,643.1h2.1v-.4h-2.1v.4Z" class="g1_3110"/>
<path d="M274.2,643.2l-1.4,-2.4l-1,-1.6l1.9,.5l8.2,2.4l2.5,.8l-2.5,.7l-8.2,2.4l-1.8,.5l.9,-1.6l.5,-.4l8.1,-2.4l.5,1.5h-.5l-8.1,-2.4l.4,-1.5l.5,.4l1.4,2.4Z" class="g1_3110"/>
<path d="M272.8,644.9l1.4,-2.4h1.4l.1,.4l-.1,.3l-1.4,2.4Z" class="g1_3110"/>
<path fill-rule="evenodd" d="M274.8,642.9l-1.4,-2.4l8.2,2.4l-8.2,2.3Z" class="g1_3110"/>
<path d="M272.7,643.1h.2v-.4h-.2v.4Z" class="g1_3110"/>
<path d="M272.7,643.1H254l-.2,-.2v-.2h18.9Z" class="g1_3110"/>
<path d="M254.3,642.9l.3,28.4l-.3,.3h-.2v-.3l-.3,-28.4Z" class="g1_3110"/>
<path d="M254.3,671.6h32.2v-.5H254.3v.5Z" class="g1_3110"/>
<path d="M286.1,613.8h.2v-.5h-.2v.5Z" class="g1_3110"/>
<path d="M286.3,613.8h98.5v-.5H286.3v.5Z" class="g1_3110"/>
<path d="M285.5,631.9h.2v-.5h-.2v.5Z" class="g1_3110"/>
<path d="M285.7,631.9h98.8v-.5H285.7v.5Z" class="g1_3110"/>
<path d="M429.4,541.4H534.2v-.7H429.4v.7Z" class="g1_3110"/>
<path d="M533.5,624.1h.7V541h-.7v83.1Z" class="g1_3110"/>
<path d="M429,624.1H533.9v-.8H429v.8Z" class="g1_3110"/>
<path d="M429,623.7h.7v-83H429v83Z" class="g1_3110"/>
<path d="M429.8,586.5h.2V586h-.2v.5Z" class="g1_3110"/>
<path d="M430,586.5H534.3V586H430v.5Z" class="g1_3110"/>
<path d="M429.2,604.5h.2v-.4h-.2v.4Z" class="g1_3110"/>
<path d="M429.4,604.5H534.1v-.4H429.4v.4Z" class="g1_3110"/>
<path d="M573.5,504.3h98.9v-.7H573.5v.7Z" class="g1_3110"/>
<path d="M671.6,596.8h.8V504h-.8v92.8Z" class="g1_3110"/>
<path d="M573.1,596.8H672V596H573.1v.8Z" class="g1_3110"/>
<path d="M573.1,596.4h.7V503.6h-.7v92.8Z" class="g1_3110"/>
<path d="M573.5,522.1h.1v-.4h-.1v.4Z" class="g1_3110"/>
<path d="M573.7,522.1h98.4v-.4H573.7v.4Z" class="g1_3110"/>
<path d="M573.3,540.3h.2v-.5h-.2v.5Z" class="g1_3110"/>
<path d="M573.5,540.3h98.8v-.5H573.5v.5Z" class="g1_3110"/>
<path d="M418,595.4h2.2v-.5H418v.5Z" class="g1_3110"/>
<path d="M419.6,595.6l-1.4,-2.3l-1,-1.8l1.9,.6l8.2,2.3l2.4,.7l-2.4,.7l-8.2,2.4l-1.8,.6l.9,-1.7l.4,-.3l8.2,-2.4l.5,1.4h-.5l-8.2,-2.3l.5,-1.4l.5,.3l1.3,2.3Z" class="g1_3110"/>
<path d="M418.2,597.1l1.4,-2.4h1.3l.2,.4l-.2,.4l-1.3,2.4Z" class="g1_3110"/>
<path fill-rule="evenodd" d="M420.2,595.1l-1.4,-2.3l8.2,2.3l-8.2,2.4Z" class="g1_3110"/>
<path d="M467,511.8h.4V468.4H467v43.4Z" class="g1_3110"/>
<path d="M406.2,511.8h60.9v-.5H406.2v.5Z" class="g1_3110"/>
<path d="M406.2,595.4h.4V511.5h-.4v83.9Z" class="g1_3110"/>
<path d="M406.4,595.4h11.8v-.5H406.4v.5Z" class="g1_3110"/>
<path d="M560.7,596.3h2.2v-.5h-2.2v.5Z" class="g1_3110"/>
<path d="M562.3,596.5l-1.4,-2.3l-1,-1.8l1.9,.6l8.2,2.3l2.5,.7l-2.5,.8l-8.2,2.3l-1.8,.6l.9,-1.7l.5,-.3l8.1,-2.4l.5,1.5h-.5l-8.1,-2.3l.4,-1.5l.5,.4l1.4,2.3Z" class="g1_3110"/>
<path d="M560.9,598l1.4,-2.3h1.4l.1,.3l-.1,.4l-1.4,2.4Z" class="g1_3110"/>
<path fill-rule="evenodd" d="M562.9,596l-1.3,-2.3l8.1,2.3l-8.1,2.4Z" class="g1_3110"/>
<path d="M533.7,596.3h.2v-.5h-.2v.5Z" class="g1_3110"/>
<path d="M533.9,596.3h27v-.5h-27v.5Z" class="g1_3110"/>
<path d="M561,531.1h2.1v-.4H561v.4Z" class="g1_3110"/>
<path d="M562.5,531.2l-1.4,-2.4l-1,-1.6l1.9,.5l8.3,2.4l2.6,.7l-2.6,.8l-8.3,2.3l-1.9,.5l1,-1.6l.5,-.4l8.2,-2.3l.5,1.5h-.5l-8.2,-2.4l.4,-1.5l.5,.4l1.3,2.4Z" class="g1_3110"/>
<path d="M561.1,532.8l1.4,-2.3h1.3l.3,.4l-.3,.4l-1.3,2.3Z" class="g1_3110"/>
<path fill-rule="evenodd" d="M563.1,530.8l-1.4,-2.3l8.3,2.3l-8.3,2.3Z" class="g1_3110"/>
<path d="M551.6,531.1h.4V467.9h-.4v63.2Z" class="g1_3110"/>
<path d="M551.7,531.1h9.5v-.4h-9.5v.4Z" class="g1_3110"/>
<path d="M261.5,649.4l.3,-.3l-.5,-.6l-.3,.3Z" class="g1_3110"/>
<path d="M247.8,663.1l-.3,.3l-.5,-.6l.2,-.2Z" class="g1_3110"/>
<path d="M261.5,649.4l-.5,-.6l-13.8,13.8l.6,.5Z" class="g1_3110"/>
<path d="M412.8,524.7l.2,-.3l-.5,-.5l-.3,.3Z" class="g1_3110"/>
<path d="M399,538.5l-.2,.2l-.6,-.5l.3,-.3Z" class="g1_3110"/>
<path d="M412.8,524.7l-.6,-.5l-13.7,13.7l.5,.6Z" class="g1_3110"/>
<path d="M558.5,482.3l.3,-.3l-.6,-.6l-.2,.3Z" class="g1_3110"/>
<path d="M544.8,496l-.3,.3l-.6,-.6l.3,-.2Z" class="g1_3110"/>
<path d="M558.5,482.3l-.5,-.6l-13.8,13.8l.6,.5Z" class="g1_3110"/>
<path d="M260.6,526.8l.3,-.3l-.6,-.5l-.2,.3Z" class="g1_3110"/>
<path d="M246.9,540.6l-.3,.2l-.6,-.5l.3,-.3Z" class="g1_3110"/>
<path d="M260.6,526.8l-.5,-.5L246.3,540l.6,.6Z" class="g1_3110"/>
<path d="M559.5,588.9l.3,-.3l-.5,-.6l-.3,.3Z" class="g1_3110"/>
<path d="M545.8,602.6l-.3,.3l-.5,-.6l.2,-.2Z" class="g1_3110"/>
<path d="M559.5,588.9l-.5,-.6l-13.8,13.8l.6,.5Z" class="g1_3110"/>
<path d="M417.6,622.9h2.1v-.5h-2.1v.5Z" class="g1_3110"/>
<path d="M419.1,623l-1.4,-2.4l-1,-1.7l1.9,.6l8.3,2.4l2.6,.7l-2.6,.7l-8.3,2.4l-1.8,.6l.9,-1.7l.5,-.3l8.2,-2.4l.5,1.4h-.5L418.2,621l.4,-1.5l.5,.4l1.4,2.3Z" class="g1_3110"/>
<path d="M417.7,624.6l1.4,-2.4h1.4l.2,.4l-.2,.4l-1.4,2.4Z" class="g1_3110"/>
<path fill-rule="evenodd" d="M419.7,622.6l-1.3,-2.4l8.2,2.4l-8.2,2.4Z" class="g1_3110"/>
<path d="M384.1,622.9h.2v-.5h-.2v.5Z" class="g1_3110"/>
<path d="M384.3,622.9h33.5v-.5H384.3v.5Z" class="g1_3110"/>
<path d="M413.3,615.4l.3,-.2l-.5,-.6l-.2,.2Z" class="g1_3110"/>
<path d="M397.3,629.1l-.3,.2l-.5,-.6l.3,-.1Z" class="g1_3110"/>
<path d="M413.3,615.4l-.4,-.6l-16.1,13.8l.5,.5Z" class="g1_3110"/>
</svg>