<?xml version="1.0" encoding="UTF-8" standalone="no"?>
<!DOCTYPE svg PUBLIC "-//W3C//DTD SVG 1.1//EN"
"http://www.w3.org/Graphics/SVG/1.1/DTD/svg11.dtd">
<svg viewBox="0 0 935 1210" version="1.1" xmlns="http://www.w3.org/2000/svg" xmlns:xlink="http://www.w3.org/1999/xlink">
<defs>
<clipPath id="c0_2303"><path d="M97.3,59.2V41.4h72.1V59.2Z"/></clipPath>
<style type="text/css"><![CDATA[
.g0_2303{
fill: #000;
}
]]></style>
</defs>
<path d="M96.3,63.3H838.8v-.4H96.3v.4Z" class="g0_2303"/>
<path d="M96.1,1114.5h.2v-.4h-.2v.4Z" class="g0_2303"/>
<path d="M96.3,1114.5H838.9v-.4H96.3v.4Z" class="g0_2303"/>
<image clip-path="url(#c0_2303)" preserveAspectRatio="none" x="97" y="41" width="73" height="18" xlink:href="img/1.jpg"/>
<path d="M560.1,480.7h31.4v-1.1H560.1v1.1Z" class="g0_2303"/>
<path d="M685.1,480.7h20.5v-1.1H685.1v1.1Z" class="g0_2303"/>
<path d="M705.6,480.7H714v-1.1h-8.4v1.1Z" class="g0_2303"/>
<path d="M560.1,503.6h31.4v-1.1H560.1v1.1Z" class="g0_2303"/>
<path d="M685.1,503.6h20.5v-1.1H685.1v1.1Z" class="g0_2303"/>
<path d="M705.6,503.6H714v-1.1h-8.4v1.1Z" class="g0_2303"/>
<path d="M95.9,273.1h.7v-91h-.7v91Z" class="g0_2303"/>
<path d="M243.8,273.8h.8V181.4h-.8v92.4Z" class="g0_2303"/>
<path d="M321.1,273.8h.7V181.4h-.7v92.4Z" class="g0_2303"/>
<path d="M839,273.1h.8v-91H839v91Z" class="g0_2303"/>
<path d="M95.9,182.1H839.8v-.7H95.9v.7Z" class="g0_2303"/>
<path d="M95.9,206.3H839.8v-3.1H95.9v3.1Z" class="g0_2303"/>
<path d="M95.9,228H839.8v-.8H95.9v.8Z" class="g0_2303"/>
<path d="M95.9,250.9H839.8v-.7H95.9v.7Z" class="g0_2303"/>
<path d="M95.9,273.8H839.8v-.7H95.9v.7Z" class="g0_2303"/>
</svg>