<?xml version="1.0" encoding="UTF-8" standalone="no"?>
<!DOCTYPE svg PUBLIC "-//W3C//DTD SVG 1.1//EN"
"http://www.w3.org/Graphics/SVG/1.1/DTD/svg11.dtd">
<svg viewBox="0 0 825 990" version="1.1" xmlns="http://www.w3.org/2000/svg" xmlns:xlink="http://www.w3.org/1999/xlink">
<defs>
<style type="text/css"><![CDATA[
.g0_720{
fill: #000;
}
]]></style>
</defs>
<path d="M79.8,910.3h.3v-.8h-.3v.8Z" class="g0_720"/>
<path d="M80.1,910.3h650v-.8H80.1v.8Z" class="g0_720"/>
<path d="M79.5,150.6H729.8v-.7H79.5v.7Z" class="g0_720"/>
<path d="M79.5,202.6H729.8v-.8H79.5v.8Z" class="g0_720"/>
<path d="M79.5,231.4H729.8v-.2H79.5v.2Z" class="g0_720"/>
<path d="M245.9,277.2H729.8V277H245.9v.2Z" class="g0_720"/>
<path d="M79.5,306.2H729.8V306H79.5v.2Z" class="g0_720"/>
<path d="M79.5,368.9H729.8v-.2H79.5v.2Z" class="g0_720"/>
<path d="M79.5,417.7H729.8v-.2H79.5v.2Z" class="g0_720"/>
<path d="M79.5,466.6H729.8v-.2H79.5v.2Z" class="g0_720"/>
<path d="M79.5,515.5H729.8v-.1H79.5v.1Z" class="g0_720"/>
<path d="M79.5,564.4H729.8v-.2H79.5v.2Z" class="g0_720"/>
<path d="M245.9,593.5H729.8v-.2H245.9v.2Z" class="g0_720"/>
<path d="M79.5,639.3H729.8v-.2H79.5v.2Z" class="g0_720"/>
<path d="M79.5,669.4H729.8v-.1H79.5v.1Z" class="g0_720"/>
<path d="M79.5,748.9H729.8v-.2H79.5v.2Z" class="g0_720"/>
<path d="M79.5,777.9H729.8v-.2H79.5v.2Z" class="g0_720"/>
<path d="M79.5,823.7H729.8v-.2H79.5v.2Z" class="g0_720"/>
<path d="M79.5,853.1H729.8v-.8H79.5v.8Z" class="g0_720"/>
</svg>