<?xml version="1.0" encoding="UTF-8" standalone="no"?>
<!DOCTYPE svg PUBLIC "-//W3C//DTD SVG 1.1//EN"
"http://www.w3.org/Graphics/SVG/1.1/DTD/svg11.dtd">
<svg viewBox="0 0 935 1210" version="1.1" xmlns="http://www.w3.org/2000/svg" xmlns:xlink="http://www.w3.org/1999/xlink">
<defs>
<style type="text/css"><![CDATA[
.g0_479{
fill: #FFF;
}
.g1_479{
fill: #000;
}
]]></style>
</defs>
<path d="M68.9,1149.3H852.7v-21.2H68.9v21.2Z" class="g0_479"/>
<path d="M81.5,1058.8h.7V627.6h-.7v431.2Z" class="g1_479"/>
<path d="M840.5,1058.8h.7V627.6h-.7v431.2Z" class="g1_479"/>
<path d="M81.5,627.6H841.2v-.8H81.5v.8Z" class="g1_479"/>
<path d="M81.5,1059.7H841.2v-.8H81.5v.8Z" class="g1_479"/>
<path d="M229.3,708.1H721V687.5H229.3v20.6Z" class="g0_479"/>
<path d="M229.3,687.9H721.4v-.8H229.3v.8Z" class="g1_479"/>
<path d="M720.7,708.5h.7v-21h-.7v21Z" class="g1_479"/>
<path d="M228.9,708.5H721.1v-.7H228.9v.7Z" class="g1_479"/>
<path d="M228.9,708.1h.7v-21h-.7v21Z" class="g1_479"/>
<path d="M470.4,687.2h.8v-.3h-.8v.3Z" class="g1_479"/>
<path d="M470.4,708.2h.8v-21h-.8v21Z" class="g1_479"/>
<path d="M221.6,802.1H653V781.5H221.6v20.6Z" class="g0_479"/>
<path d="M221.6,781.8H653.4v-.7H221.6v.7Z" class="g1_479"/>
<path d="M652.7,802.4h.7V781.5h-.7v20.9Z" class="g1_479"/>
<path d="M221.2,802.4H653v-.7H221.2v.7Z" class="g1_479"/>
<path d="M221.2,802.1h.7v-21h-.7v21Z" class="g1_479"/>
<path d="M462.8,781.2h.8v-.4h-.8v.4Z" class="g1_479"/>
<path d="M462.8,802.2h.8v-21h-.8v21Z" class="g1_479"/>
<path d="M264.3,1015.9H388.5V862.3H264.3v153.6Z" class="g0_479"/>
<path d="M264.3,862.7H388.8v-.8H264.3v.8Z" class="g1_479"/>
<path d="M388.1,1016.2h.7V862.3h-.7v153.9Z" class="g1_479"/>
<path d="M263.9,1016.2H388.5v-.7H263.9v.7Z" class="g1_479"/>
<path d="M263.9,1015.9h.7v-154h-.7v154Z" class="g1_479"/>
<path d="M264.4,958.3h.3v-.7h-.3v.7Z" class="g1_479"/>
<path d="M264.7,958.3H389.3v-.7H264.7v.7Z" class="g1_479"/>
<path d="M264.4,977.4h.3v-.7h-.3v.7Z" class="g1_479"/>
<path d="M264.7,977.4H389.3v-.7H264.7v.7Z" class="g1_479"/>
<path d="M534,986.1H648.5V899H534v87.1Z" class="g0_479"/>
<path d="M534,899.3H648.8v-.7H534v.7Z" class="g1_479"/>
<path d="M648.1,986.4h.7V899h-.7v87.4Z" class="g1_479"/>
<path d="M533.6,986.4H648.5v-.7H533.6v.7Z" class="g1_479"/>
<path d="M533.6,986.1h.7V898.6h-.7v87.5Z" class="g1_479"/>
<path d="M534.1,917.6h.3v-.7h-.3v.7Z" class="g1_479"/>
<path d="M534.4,917.6H649.3v-.7H534.4v.7Z" class="g1_479"/>
<path d="M534.5,932.8h.4v-.7h-.4v.7Z" class="g1_479"/>
<path d="M534.9,932.8H649.6v-.7H534.9v.7Z" class="g1_479"/>
<path d="M264.4,996.5h.3v-.7h-.3v.7Z" class="g1_479"/>
<path d="M264.7,996.5H389.3v-.7H264.7v.7Z" class="g1_479"/>
<path d="M703.5,843.5H778v-.7H703.5v.7Z" class="g1_479"/>
<path d="M777.2,911.5h.8V843.2h-.8v68.3Z" class="g1_479"/>
<path d="M703.2,911.5h74.4v-.7H703.2v.7Z" class="g1_479"/>
<path d="M703.2,911.2h.7V842.8h-.7v68.4Z" class="g1_479"/>
<path d="M703.2,861.1h.3v-.7h-.3v.7Z" class="g1_479"/>
<path d="M703.5,861.1h75.3v-.7H703.5v.7Z" class="g1_479"/>
<path d="M703.2,877.9h.3v-.7h-.3v.7Z" class="g1_479"/>
<path d="M703.5,877.9h75.3v-.7H703.5v.7Z" class="g1_479"/>
<path d="M703.2,894.8h.3V894h-.3v.8Z" class="g1_479"/>
<path d="M703.5,894.8h75.3V894H703.5v.8Z" class="g1_479"/>
<path d="M466.8,825.2h205v-.8h-205v.8Z" class="g1_479"/>
<path d="M671.1,846.6h.7V824.8h-.7v21.8Z" class="g1_479"/>
<path d="M466.4,846.6H671.5v-.7H466.4v.7Z" class="g1_479"/>
<path d="M466.4,846.3h.7V824.5h-.7v21.8Z" class="g1_479"/>
<path d="M621,781.2h.7v-.4H621v.4Z" class="g1_479"/>
<path d="M621,802.2h.7v-21H621v21Z" class="g1_479"/>
<path d="M621,825.6h.7v-.4H621v.4Z" class="g1_479"/>
<path d="M621,846.5h.7V825.6H621v20.9Z" class="g1_479"/>
<path d="M513.5,924.6V920l1,.2l12.7,3.6l2.5,.8l-2.5,.7L514.5,929l-1,.2v-1l.6,-.7l12.6,-3.7l.5,1.5h-.5l-12.6,-3.6l.4,-1.5l.6,.8v3.6Z" class="g1_479"/>
<path d="M513.5,928.2h1.6v-3.6h-1.6v3.6Z" class="g1_479"/>
<path fill-rule="evenodd" d="M514.3,924.6V921l12.6,3.6l-12.6,3.6Z" class="g1_479"/>
<path d="M510.2,924.7h3.4v-.2h-3.4v.2Z" class="g1_479"/>
<path d="M510.2,924.6h.3V851.1h-.3v73.5Z" class="g1_479"/>
<path d="M545,812.6h5l-.3,1l-4,14.1l-.7,2.4l-.8,-2.4l-4.1,-14.1l-.3,-1h1l.8,.6l4.1,14l-1.5,.5v-.5l4.1,-14l1.4,.4l-.7,.6h-4Z" class="g1_479"/>
<path d="M540.8,814.2H545v-1.6h-4.2v1.6Z" class="g1_479"/>
<path fill-rule="evenodd" d="M545,813.4h4l-4,14l-4.2,-14Z" class="g1_479"/>
<path d="M544.6,792.6h.7v-.3h-.7v.3Z" class="g1_479"/>
<path d="M544.6,812.9h.7V792.6h-.7v20.3Z" class="g1_479"/>
<path d="M512.5,984.9v-5.1l1,.3l16.7,4.8l-16.7,4.7l-1,.3v-1l.6,-.7l14.1,-4.1l.4,1.5h-.4l-14.1,-4l.4,-1.5l.6,.7v4.1Z" class="g1_479"/>
<path d="M512.5,988.9h1.6v-4h-1.6v4Z" class="g1_479"/>
<path fill-rule="evenodd" d="M513.2,984.9v-4.1l14.2,4.1l-14.2,4Z" class="g1_479"/>
<path d="M352.5,985.2h.4v-.7h-.4v.7Z" class="g1_479"/>
<path d="M352.9,985.2h160v-.7h-160v.7Z" class="g1_479"/>
<path d="M210.8,826.7H415.9V826H210.8v.7Z" class="g1_479"/>
<path d="M415.2,848.1h.7V826.4h-.7v21.7Z" class="g1_479"/>
<path d="M210.5,848.1h205v-.7h-205v.7Z" class="g1_479"/>
<path d="M210.5,847.7h.7V826h-.7v21.7Z" class="g1_479"/>
<path d="M377.2,826.3h.7v-.4h-.7v.4Z" class="g1_479"/>
<path d="M377.2,847.3h.7v-21h-.7v21Z" class="g1_479"/>
<path d="M243.9,982.6V978l1,.3l12.6,3.5l2.5,.8l-2.5,.7L244.9,987l-1,.3v-1.1l.6,-.7L257,981.8l.5,1.5H257l-12.5,-3.6l.4,-1.4l.6,.7v3.6Z" class="g1_479"/>
<path d="M243.9,986.2h1.6v-3.6h-1.6v3.6Z" class="g1_479"/>
<path fill-rule="evenodd" d="M244.7,982.6V979l12.5,3.6l-12.5,3.6Z" class="g1_479"/>
<path d="M240.5,982.8h3.4v-.3h-3.4v.3Z" class="g1_479"/>
<path d="M240.5,982.6h.3V853.4h-.3V982.6Z" class="g1_479"/>
<path d="M334.9,815.7h5l-.3,1l-4.7,16.6l-4.8,-16.6l-.3,-1h1l.8,.5l4,14.1l-1.5,.5v-.5l4.1,-14.1l1.4,.5l-.7,.5h-4Z" class="g1_479"/>
<path d="M330.8,817.2h4.1v-1.5h-4.1v1.5Z" class="g1_479"/>
<path fill-rule="evenodd" d="M334.9,816.4h4l-4,14.1l-4.1,-14.1Z" class="g1_479"/>
<path d="M334.5,795.8h.7v-.4h-.7v.4Z" class="g1_479"/>
<path d="M334.5,816h.7V795.8h-.7V816Z" class="g1_479"/>
<path d="M278.7,782h.7v-.4h-.7v.4Z" class="g1_479"/>
<path d="M278.7,803h.7V782h-.7v21Z" class="g1_479"/>
<path d="M110.7,736.6H315.9v-.7H110.7v.7Z" class="g1_479"/>
<path d="M315.2,758h.7V736.3h-.7V758Z" class="g1_479"/>
<path d="M110.4,758H315.5v-.7H110.4v.7Z" class="g1_479"/>
<path d="M110.4,757.6h.7V735.9h-.7v21.7Z" class="g1_479"/>
<path d="M277.2,736.2h.7v-.4h-.7v.4Z" class="g1_479"/>
<path d="M277.2,757.2h.7v-21h-.7v21Z" class="g1_479"/>
<path d="M241.6,1016.2v-5l1,.3l16.7,4.7l-16.7,4.8l-1,.3v-1l.6,-.8l14.1,-4l.5,1.5h-.5l-14.1,-4.1l.4,-1.4l.6,.7v4Z" class="g1_479"/>
<path d="M241.6,1020.3h1.6v-4.1h-1.6v4.1Z" class="g1_479"/>
<path fill-rule="evenodd" d="M242.4,1016.2v-4l14.1,4l-14.1,4.1Z" class="g1_479"/>
<path d="M165.6,1016.4h76.1v-.3H165.6v.3Z" class="g1_479"/>
<path d="M165.6,1016.2h.3V761.8h-.3v254.4Z" class="g1_479"/>
<path d="M215.5,729.9l1.1,3.9l.3,.9l-1.1,.1H201.2l-2.6,-.1l2.2,-1.4l12.4,-7.8l.9,-.5l.3,1l-.4,.8l-12.3,7.8l-.9,-1.3l.5,-.1h14.6l-.1,1.6l-.8,-.6l-1.1,-4Z" class="g1_479"/>
<path d="M214.4,726l1.1,3.9l-1.6,.3l-1.1,-3.8Z" class="g1_479"/>
<path fill-rule="evenodd" d="M214.8,730l1.1,4H201.3l12.4,-7.8Z" class="g1_479"/>
<path d="M289.6,709.1l.3,-.1l-.1,-.7l-.4,.1Z" class="g1_479"/>
<path d="M215.6,730.2l-.4,.1l-.2,-.7l.4,-.1Z" class="g1_479"/>
<path d="M289.6,709.1l-.2,-.7l-74,21.1l.2,.7Z" class="g1_479"/>
<path d="M651.5,917.2l-.2,.3l.6,.4l.2,-.3Z" class="g1_479"/>
<path d="M654.6,912.5l.2,-.3l.6,.3l-.2,.3Z" class="g1_479"/>
<path d="M651.5,917.2l.6,.4l3.1,-4.8l-.6,-.3Z" class="g1_479"/>
<path fill-rule="evenodd" d="M660.2,904l-.2,.3l.6,.4l.2,-.3Z" class="g1_479"/>
<path fill-rule="evenodd" d="M666.6,894.3l.2,-.3l.6,.4l-.2,.3Z" class="g1_479"/>
<path fill-rule="evenodd" d="M660.2,904l.6,.4l6.4,-9.7l-.6,-.4Z" class="g1_479"/>
<path fill-rule="evenodd" d="M672.1,885.9l-.2,.2l.7,.4l.1,-.3Z" class="g1_479"/>
<path fill-rule="evenodd" d="M678.5,876.2l.2,-.3l.6,.3l-.1,.3Z" class="g1_479"/>
<path fill-rule="evenodd" d="M672.1,885.9l.6,.3l6.5,-9.7l-.7,-.3Z" class="g1_479"/>
<path fill-rule="evenodd" d="M684,867.7l-.2,.3l.7,.4l.2,-.3Z" class="g1_479"/>
<path fill-rule="evenodd" d="M690.4,858l.2,-.3l.7,.4l-.2,.3Z" class="g1_479"/>
<path fill-rule="evenodd" d="M684,867.7l.7,.4l6.4,-9.7l-.7,-.4Z" class="g1_479"/>
<path d="M696,849.7l-.2,.2l.7,.4l.2,-.3Z" class="g1_479"/>
<path d="M699.1,844.8l.2,-.3l.7,.4l-.2,.3Z" class="g1_479"/>
<path d="M696,849.7l.7,.3l3.1,-4.8l-.7,-.4Z" class="g1_479"/>
<path d="M652.6,931.8l-.3,.1l.3,.6l.3,-.1Z" class="g1_479"/>
<path d="M657.9,929.7l.3,-.1l.2,.6l-.2,.1Z" class="g1_479"/>
<path d="M652.6,931.8l.3,.6l5.3,-2.1l-.3,-.6Z" class="g1_479"/>
<path fill-rule="evenodd" d="M669.3,924.9l-.2,.1l.2,.6h.3Z" class="g1_479"/>
<path fill-rule="evenodd" d="M682.6,919.5l.2,-.1l.3,.7l-.3,.1Z" class="g1_479"/>
<path fill-rule="evenodd" d="M669.3,924.9l.3,.7l13.2,-5.4l-.2,-.7Z" class="g1_479"/>
<path d="M694,914.7l-.3,.1l.3,.7l.3,-.1Z" class="g1_479"/>
<path d="M699.3,912.5h.3l.3,.6l-.3,.1Z" class="g1_479"/>
<path d="M694,914.7l.3,.7l5.3,-2.2l-.3,-.7Z" class="g1_479"/>
</svg>