<?xml version="1.0" encoding="UTF-8" standalone="no"?>
<!DOCTYPE svg PUBLIC "-//W3C//DTD SVG 1.1//EN"
"http://www.w3.org/Graphics/SVG/1.1/DTD/svg11.dtd">
<svg viewBox="0 0 935 1210" version="1.1" xmlns="http://www.w3.org/2000/svg" xmlns:xlink="http://www.w3.org/1999/xlink">
<defs>
<style type="text/css"><![CDATA[
.g0_1130{
fill: #FFF;
}
.g1_1130{
fill: #000;
}
]]></style>
</defs>
<path d="M68.8,1149.3H852.5v-21.2H68.8v21.2Z" class="g0_1130"/>
<path d="M68.9,1009.9v-.7Z" class="g1_1130"/>
<path d="M68.9,1009.9H289.3v-.7H68.9v.7Z" class="g1_1130"/>
<path d="M70.4,267h.7V141h-.7V267Z" class="g1_1130"/>
<path d="M287.6,267.8h.7V140.2h-.7V267.8Z" class="g1_1130"/>
<path d="M354.1,267.8h.7V140.2h-.7V267.8Z" class="g1_1130"/>
<path d="M850,267h.8V141H850V267Z" class="g1_1130"/>
<path d="M70.3,140.9H850.8v-.7H70.3v.7Z" class="g1_1130"/>
<path d="M70.3,179.1H850.8v-.7H70.3v.7Z" class="g1_1130"/>
<path d="M70.3,223.4H850.8v-.7H70.3v.7Z" class="g1_1130"/>
<path d="M70.3,267.8H850.8V267H70.3v.8Z" class="g1_1130"/>
<path d="M69.9,367.9h.8V319.7h-.8v48.2Z" class="g1_1130"/>
<path d="M149.3,368.6h.8V318.9h-.8v49.7Z" class="g1_1130"/>
<path d="M319.6,368.6h.7V318.9h-.7v49.7Z" class="g1_1130"/>
<path d="M489.7,368.6h.7V318.9h-.7v49.7Z" class="g1_1130"/>
<path d="M669.6,368.6h.8V318.9h-.8v49.7Z" class="g1_1130"/>
<path d="M850.5,367.9h.7V319.7h-.7v48.2Z" class="g1_1130"/>
<path d="M69.9,319.6H851.2v-.7H69.9v.7Z" class="g1_1130"/>
<path d="M69.9,344.1H851.2v-.7H69.9v.7Z" class="g1_1130"/>
<path d="M69.9,368.6H851.2v-.7H69.9v.7Z" class="g1_1130"/>
</svg>