<?xml version="1.0" encoding="UTF-8" standalone="no"?>
<!DOCTYPE svg PUBLIC "-//W3C//DTD SVG 1.1//EN"
"http://www.w3.org/Graphics/SVG/1.1/DTD/svg11.dtd">
<svg viewBox="0 0 935 1210" version="1.1" xmlns="http://www.w3.org/2000/svg" xmlns:xlink="http://www.w3.org/1999/xlink">
<defs>
<style type="text/css"><![CDATA[
.g0_45{
fill: #FFF;
}
.g1_45{
fill: #000;
}
]]></style>
</defs>
<path d="M68.9,1149.3H852.7v-21.2H68.9v21.2Z" class="g0_45"/>
<path d="M67.7,1059.9h.8V124.1h-.8v935.8Z" class="g1_45"/>
<path d="M122.5,1060.7h.7V164.6h-.7v896.1Z" class="g1_45"/>
<path d="M183.4,1060.7h.8V123.4h-.8v937.3Z" class="g1_45"/>
<path d="M418.4,1060.7h.7V123.4h-.7v937.3Z" class="g1_45"/>
<path d="M683.2,1060.7h.7V123.4h-.7v937.3Z" class="g1_45"/>
<path d="M854.2,1059.9h.8V124.1h-.8v935.8Z" class="g1_45"/>
<path d="M67.7,124.1H855v-.7H67.7v.7Z" class="g1_45"/>
<path d="M67.7,165.4H184.2v-.8H67.7v.8Z" class="g1_45"/>
<path d="M67.7,189.8H855v-.7H67.7v.7Z" class="g1_45"/>
<path d="M67.7,247.9H855v-.8H67.7v.8Z" class="g1_45"/>
<path d="M67.7,305.9H855v-.7H67.7v.7Z" class="g1_45"/>
<path d="M67.7,364H855v-.7H67.7v.7Z" class="g1_45"/>
<path d="M67.7,422H855v-.7H67.7v.7Z" class="g1_45"/>
<path d="M67.7,480.2H855v-.8H67.7v.8Z" class="g1_45"/>
<path d="M67.7,538.2H855v-.8H67.7v.8Z" class="g1_45"/>
<path d="M67.7,596.2H855v-.7H67.7v.7Z" class="g1_45"/>
<path d="M67.7,654.3H855v-.7H67.7v.7Z" class="g1_45"/>
<path d="M67.7,712.3H855v-.7H67.7v.7Z" class="g1_45"/>
<path d="M67.7,770.4H855v-.8H67.7v.8Z" class="g1_45"/>
<path d="M67.7,828.5H855v-.8H67.7v.8Z" class="g1_45"/>
<path d="M67.7,886.5H855v-.7H67.7v.7Z" class="g1_45"/>
<path d="M67.7,944.5H855v-.7H67.7v.7Z" class="g1_45"/>
<path d="M67.7,1002.7H855v-.8H67.7v.8Z" class="g1_45"/>
<path d="M67.7,1060.7H855v-.8H67.7v.8Z" class="g1_45"/>
</svg>