<?xml version="1.0" encoding="UTF-8" standalone="no"?>
<!DOCTYPE svg PUBLIC "-//W3C//DTD SVG 1.1//EN"
"http://www.w3.org/Graphics/SVG/1.1/DTD/svg11.dtd">
<svg viewBox="0 0 935 1210" version="1.1" xmlns="http://www.w3.org/2000/svg" xmlns:xlink="http://www.w3.org/1999/xlink">
<defs>
<style type="text/css"><![CDATA[
.g0_192{
fill: #FFF;
}
.g1_192{
fill: #000;
}
]]></style>
</defs>
<path d="M68.8,1149.3H852.5v-21.2H68.8v21.2Z" class="g0_192"/>
<path d="M68.6,580.2h.7V124.1h-.7V580.2Z" class="g1_192"/>
<path d="M125.3,581h.7V164.6h-.7V581Z" class="g1_192"/>
<path d="M182.1,581h.7V123.4h-.7V581Z" class="g1_192"/>
<path d="M425.1,581h.7V123.4h-.7V581Z" class="g1_192"/>
<path d="M518.4,581h.7V123.4h-.7V581Z" class="g1_192"/>
<path d="M850.5,580.2h.7V124.1h-.7V580.2Z" class="g1_192"/>
<path d="M68.6,124.1H851.3v-.7H68.6v.7Z" class="g1_192"/>
<path d="M68.6,165.4H182.8v-.8H68.6v.8Z" class="g1_192"/>
<path d="M68.6,189.8H851.3v-.7H68.6v.7Z" class="g1_192"/>
<path d="M182.1,257H851.3v-.7H182.1v.7Z" class="g1_192"/>
<path d="M182.1,302.9H851.3v-.8H182.1v.8Z" class="g1_192"/>
<path d="M182.1,348.7H851.3V348H182.1v.7Z" class="g1_192"/>
<path d="M182.1,394.5H851.3v-.7H182.1v.7Z" class="g1_192"/>
<path d="M182.1,440.4H851.3v-.8H182.1v.8Z" class="g1_192"/>
<path d="M182.1,486.2H851.3v-.7H182.1v.7Z" class="g1_192"/>
<path d="M182.1,532H851.3v-.7H182.1v.7Z" class="g1_192"/>
<path d="M68.6,556.5H851.3v-.7H68.6v.7Z" class="g1_192"/>
<path d="M68.6,581H851.3v-.8H68.6v.8Z" class="g1_192"/>
<path d="M68.6,1081.3h.7V776.5h-.7v304.8Z" class="g1_192"/>
<path d="M125.3,1082.1h.7V817h-.7v265.1Z" class="g1_192"/>
<path d="M182.1,1082.1h.7V775.8h-.7v306.3Z" class="g1_192"/>
<path d="M421.1,1082.1h.8V775.8h-.8v306.3Z" class="g1_192"/>
<path d="M514.3,1082.1h.7V775.8h-.7v306.3Z" class="g1_192"/>
<path d="M849.4,1081.3h.7V776.5h-.7v304.8Z" class="g1_192"/>
<path d="M68.6,776.5H850.1v-.7H68.6v.7Z" class="g1_192"/>
<path d="M68.6,817.8H182.8V817H68.6v.8Z" class="g1_192"/>
<path d="M68.6,842.2H850.1v-.7H68.6v.7Z" class="g1_192"/>
<path d="M182.1,904.8h668v-.7h-668v.7Z" class="g1_192"/>
<path d="M68.6,1082H850.1v-.7H68.6v.7Z" class="g1_192"/>
</svg>