<?xml version="1.0" encoding="UTF-8" standalone="no"?>
<!DOCTYPE svg PUBLIC "-//W3C//DTD SVG 1.1//EN"
"http://www.w3.org/Graphics/SVG/1.1/DTD/svg11.dtd">
<svg viewBox="0 0 935 1210" version="1.1" xmlns="http://www.w3.org/2000/svg" xmlns:xlink="http://www.w3.org/1999/xlink">
<defs>
<style type="text/css"><![CDATA[
.g0_2637{
fill: #FFF;
}
.g1_2637{
fill: #000;
}
]]></style>
</defs>
<path d="M68.9,1149.3H755.2v-21.2H68.9v21.2Z" class="g0_2637"/>
<path d="M771.3,1149.3H855v-21.2H771.3v21.2Z" class="g0_2637"/>
<path d="M218.3,671.8h.7V501.5h-.7V671.8Z" class="g1_2637"/>
<path d="M329.7,672.7h.8V500.8h-.8V672.7Z" class="g1_2637"/>
<path d="M442.5,672.7h.7V500.8h-.7V672.7Z" class="g1_2637"/>
<path d="M703.7,671.8h.8V501.5h-.8V671.8Z" class="g1_2637"/>
<path d="M218.3,501.5H704.5v-.7H218.3v.7Z" class="g1_2637"/>
<path d="M218.3,526H704.5v-.8H218.3v.8Z" class="g1_2637"/>
<path d="M218.3,550.4H704.5v-.8H218.3v.8Z" class="g1_2637"/>
<path d="M218.3,574.8H704.5v-.7H218.3v.7Z" class="g1_2637"/>
<path d="M218.3,599.3H704.5v-.7H218.3v.7Z" class="g1_2637"/>
<path d="M218.3,623.7H704.5V623H218.3v.7Z" class="g1_2637"/>
<path d="M218.3,648.2H704.5v-.8H218.3v.8Z" class="g1_2637"/>
<path d="M218.3,672.7H704.5v-.8H218.3v.8Z" class="g1_2637"/>
</svg>