<?xml version="1.0" encoding="UTF-8" standalone="no"?>
<!DOCTYPE svg PUBLIC "-//W3C//DTD SVG 1.1//EN"
"http://www.w3.org/Graphics/SVG/1.1/DTD/svg11.dtd">
<svg viewBox="0 0 935 1210" version="1.1" xmlns="http://www.w3.org/2000/svg" xmlns:xlink="http://www.w3.org/1999/xlink">
<defs>
<style type="text/css"><![CDATA[
.g0_277{
fill: #FFF;
}
.g1_277{
fill: #000;
}
]]></style>
</defs>
<path d="M68.9,1149.3H852.7v-21.2H68.9v21.2Z" class="g0_277"/>
<path d="M171.3,540.5h.8V347.2h-.8V540.5Z" class="g1_277"/>
<path d="M750.7,540.5h.7V347.2h-.7V540.5Z" class="g1_277"/>
<path d="M171.3,347.1H751.4v-.7H171.3v.7Z" class="g1_277"/>
<path d="M171.3,541.2H751.4v-.7H171.3v.7Z" class="g1_277"/>
<path d="M69.9,1049.2h.8V753.6h-.8v295.6Z" class="g1_277"/>
<path d="M266.8,1050h.7V752.9h-.7V1050Z" class="g1_277"/>
<path d="M463.6,1050h.7V752.9h-.7V1050Z" class="g1_277"/>
<path d="M654.2,1050h.8V752.9h-.8V1050Z" class="g1_277"/>
<path d="M851.1,1049.2h.8V753.6h-.8v295.6Z" class="g1_277"/>
<path d="M69.9,753.6h782v-.7H69.9v.7Z" class="g1_277"/>
<path d="M69.9,794.8h782v-.7H69.9v.7Z" class="g1_277"/>
<path d="M69.9,1050h782v-.8H69.9v.8Z" class="g1_277"/>
<path d="M580.3,429.4h91.1v-19H580.3v19Z" class="g0_277"/>
<path d="M580.3,410.8h91.4V410H580.3v.8Z" class="g1_277"/>
<path d="M671,429.7h.7V410.4H671v19.3Z" class="g1_277"/>
<path d="M580,429.7h91.4V429H580v.7Z" class="g1_277"/>
<path d="M580,429.4h.7V410H580v19.4Z" class="g1_277"/>
<path d="M246.1,499.5h91.1V410.3H246.1v89.2Z" class="g0_277"/>
<path d="M246.1,410.7h91.4v-.8H246.1v.8Z" class="g1_277"/>
<path d="M336.8,499.9h.7V410.3h-.7v89.6Z" class="g1_277"/>
<path d="M245.8,499.9h91.3v-.8H245.8v.8Z" class="g1_277"/>
<path d="M245.8,499.5h.7V409.9h-.7v89.6Z" class="g1_277"/>
<path d="M255.3,466.4h82.3v-.7H255.3v.7Z" class="g1_277"/>
<path d="M255.3,499.5h.7V466h-.7v33.5Z" class="g1_277"/>
<path d="M357.9,499.5h91V410.3h-91v89.2Z" class="g0_277"/>
<path d="M357.9,410.7h91.4v-.8H357.9v.8Z" class="g1_277"/>
<path d="M448.5,499.9h.8V410.3h-.8v89.6Z" class="g1_277"/>
<path d="M357.5,499.9h91.4v-.8H357.5v.8Z" class="g1_277"/>
<path d="M357.5,499.5h.7V409.9h-.7v89.6Z" class="g1_277"/>
<path d="M468.7,499.5h90.9V410.3H468.7v89.2Z" class="g0_277"/>
<path d="M468.7,410.7H560v-.8H468.7v.8Z" class="g1_277"/>
<path d="M559.3,499.9h.7V410.3h-.7v89.6Z" class="g1_277"/>
<path d="M468.3,499.9h91.3v-.8H468.3v.8Z" class="g1_277"/>
<path d="M468.3,499.5h.8V409.9h-.8v89.6Z" class="g1_277"/>
<path d="M580.3,499h91.1V480.2H580.3V499Z" class="g0_277"/>
<path d="M580.3,480.5h91.4v-.7H580.3v.7Z" class="g1_277"/>
<path d="M671,499.4h.7V480.2H671v19.2Z" class="g1_277"/>
<path d="M580,499.4h91.4v-.7H580v.7Z" class="g1_277"/>
<path d="M580,499h.7V479.8H580V499Z" class="g1_277"/>
<path d="M563.2,512.5l.5,-.2l-.8,-1.9l-.4,.2Z" class="g1_277"/>
<path d="M563.2,511l-1.7,2l-1.2,1.6l-.2,-2.1l-.7,-8.5l-.1,-2.7l1.6,2.1l5.1,7l1.1,1.6l-1.9,-.3l-.5,-.3l-5.1,-7l1.3,-1l.1,.5l.6,8.5l-1.5,.1l.3,-.5l1.7,-2.1Z" class="g1_277"/>
<path d="M565.2,511.7l-2.6,-.5l-.5,-1.3l.3,-.2h.3l2.7,.4Z" class="g1_277"/>
<path fill-rule="evenodd" d="M562.7,510.5l-1.8,2l-.6,-8.5l5,7Z" class="g1_277"/>
<path d="M626.1,499.7v-.2l-.5,-.1v.2Z" class="g1_277"/>
<path d="M626.1,499.7l-.7,2.8l-.9,2.8l-1.1,2.5h-.1l-1.3,2.5v.1l-1.4,2.3l-1.7,2.1l-1.8,2l-2,1.9l-2,1.6l-2.2,1.6l-2.3,1.3h-.1l-2.4,1.2v.1l-2.5,1c-8.5,3.3,-18.9,4.1,-27.5,.4l-2.2,-1v-.1l-2,-1.2c-2.9,-2.2,-4.6,-3.3,-6.6,-6.5V517l.4,-.2l1.3,1.9l1.6,1.8v-.1l1.7,1.5l1.9,1.3l2,1.2h-.1l2.2,1l2.2,.9l2.4,.7l2.4,.4l2.4,.3l5,.1l5.2,-.6L601,526h-.1l2.5,-.9c4.3,-1.6,8,-3.9,11.4,-6.8l2,-1.8h-.1l1.9,-2l1.6,-2.1l1.5,-2.3l1.3,-2.4l1.1,-2.6l.9,-2.8v.1l.6,-2.8Z" class="g1_277"/>
<path d="M565.3,517l-1.2,-2.2l.5,-.2h-.1l1.2,2.2Z" class="g1_277"/>
<path d="M563.2,512.5l-.1,-.2l.5,-.2l.1,.2Z" class="g1_277"/>
<path d="M564.1,514.8l.5,-.2l-.9,-2.3l-.5,.2Z" class="g1_277"/>
<path d="M453.8,512.3l.5,-.2l-.8,-1.9l-.5,.2Z" class="g1_277"/>
<path d="M453.8,510.8l-1.7,2.2l-1.1,1.5l-.3,-2L449.6,504l-.3,-2.6l1.7,2l5.4,6.6l1.3,1.5l-1.9,-.2l-.6,-.3l-5.4,-6.6l1.2,-1l.2,.5l1.1,8.5l-1.6,.1l.2,-.5l1.7,-2.2Z" class="g1_277"/>
<path d="M455.8,511.3l-2.7,-.3l-.5,-1.2l.2,-.3h.4l2.7,.3Z" class="g1_277"/>
<path fill-rule="evenodd" d="M453.2,510.3l-1.6,2.2L450.5,504l5.4,6.6Z" class="g1_277"/>
<path d="M539.7,499.7v-.2l-.4,-.1v.2Z" class="g1_277"/>
<path d="M539.7,499.7l-.9,3.1l-1.2,2.9h-.1l-1.4,2.8v.1l-1.9,2.6l-2,2.5l-2.3,2.3l-2.5,2.1l-2.6,2l-2.9,1.8l-3.1,1.6v.1l-3.1,1.5l-3.3,1.2c-5.6,2,-11.3,3.4,-17.3,3.8H495l-3.5,.2c-7.3,.2,-12.9,-.5,-19.9,-2.8h-.1l-2.9,-1.2l-2.8,-1.4l-2.5,-1.6l-2.4,-1.7l-2.1,-2h-.1l-1.9,-2.1l.3,-.3l2,2.1v-.1l2.1,2l2.4,1.8l2.5,1.5H466l2.8,1.4l2.9,1.2l3,.9l3.2,.7l3.4,.7l3.3,.3l3.4,.1c5.7,.2,12,-.4,17.5,-1.9l3.4,-.9h-.1l3.4,-1.1c5,-1.8,10.9,-4.8,15,-8.2l2.4,-2.1l2.2,-2.3v.1l2.1,-2.4l1.8,-2.7l1.5,-2.8l1.2,-2.9v.1l.9,-3.1Z" class="g1_277"/>
<path d="M456.8,517.5L455.2,515v-.1l.4,-.2l1.5,2.5Z" class="g1_277"/>
<path d="M453.8,512.3v-.2l.3,-.1l.1,.1Z" class="g1_277"/>
<path d="M455.2,514.9l.4,-.2l-1.4,-2.6l-.4,.2Z" class="g1_277"/>
<path d="M342.8,512.1l.5,-.2l-.9,-2l-.5,.2Z" class="g1_277"/>
<path d="M342.8,510.4l-1.5,2.3l-1.2,1.6l-.4,-1.9L338.3,504l-.4,-2.8l1.8,2.1l5.6,6.5l1.3,1.4l-1.9,-.2l-.5,-.2l-5.6,-6.5l1.1,-1l.2,.4l1.4,8.4l-1.6,.3l.2,-.6l1.6,-2.3Z" class="g1_277"/>
<path d="M344.7,511l-2.7,-.2l-.5,-1.3l.2,-.4l.5,.1l2.7,.3Z" class="g1_277"/>
<path fill-rule="evenodd" d="M342.1,510l-1.6,2.3l-1.3,-8.4l5.6,6.4Z" class="g1_277"/>
<path d="M428.4,499.7l.1,-.2l-.5,-.2l-.1,.2Z" class="g1_277"/>
<path d="M428.4,499.7l-1,2.8l-1.1,2.9h-.1l-1.5,2.5v.1l-1.8,2.5l-2.1,2.4l-2.2,2.1l-2.4,2l-2.7,1.9l-2.8,1.7h-.1l-3,1.5v.1l-3.2,1.5c-14.3,5.8,-32.2,7.3,-46.7,1.5L354.9,524v-.1l-2.5,-1.5L350,520.8l-2.2,-1.9h-.1l-1.9,-2l.3,-.3l2,2.1v-.1l2.2,1.8l2.3,1.6l2.5,1.5c4.3,2.2,10.4,3.9,15.1,4.4l3.4,.4h-.1l7,.1l7,-.7l6.9,-1.3l3.4,-.9h-.1l3.3,-1.1c6.2,-2.1,12.5,-5.4,17.4,-9.8l2.2,-2.1l-.1,.1l2,-2.4l1.8,-2.5l1.5,-2.5l1.2,-2.9l.9,-2.8Z" class="g1_277"/>
<path d="M345.8,516.9l-1.6,-2.3v-.1l.4,-.2l1.5,2.3Z" class="g1_277"/>
<path d="M342.8,512.1l-.1,-.2l.4,-.2l.1,.2Z" class="g1_277"/>
<path d="M344.2,514.5l.4,-.2l-1.4,-2.4l-.4,.2Z" class="g1_277"/>
<path d="M367.5,466.7h82.2v-.8H367.5v.8Z" class="g1_277"/>
<path d="M367.5,499.8h.7V466.3h-.7v33.5Z" class="g1_277"/>
<path d="M477.8,467H560v-.8H477.8v.8Z" class="g1_277"/>
<path d="M477.8,500h.7V466.6h-.7V500Z" class="g1_277"/>
</svg>