<?xml version="1.0" encoding="UTF-8" standalone="no"?>
<!DOCTYPE svg PUBLIC "-//W3C//DTD SVG 1.1//EN"
"http://www.w3.org/Graphics/SVG/1.1/DTD/svg11.dtd">
<svg viewBox="0 0 935 1210" version="1.1" xmlns="http://www.w3.org/2000/svg" xmlns:xlink="http://www.w3.org/1999/xlink">
<defs>
<style type="text/css"><![CDATA[
.g0_4393{
fill: #FFF;
}
.g1_4393{
fill: #000;
}
]]></style>
</defs>
<path d="M68.9,1149.3H852.7v-21.2H68.9v21.2Z" class="g0_4393"/>
<path d="M69.9,215.1h.8V125.7h-.8v89.4Z" class="g1_4393"/>
<path d="M255.2,215.8h.7V124.9h-.7v90.9Z" class="g1_4393"/>
<path d="M312.5,215.8h.7V124.9h-.7v90.9Z" class="g1_4393"/>
<path d="M386.9,215.8h.8V124.9h-.8v90.9Z" class="g1_4393"/>
<path d="M454.6,215.8h.7V124.9h-.7v90.9Z" class="g1_4393"/>
<path d="M852.6,215.1h.7V125.7h-.7v89.4Z" class="g1_4393"/>
<path d="M69.9,125.7H853.3v-.8H69.9v.8Z" class="g1_4393"/>
<path d="M69.9,179.1H853.3v-.7H69.9v.7Z" class="g1_4393"/>
<path d="M69.9,215.8H853.3v-.7H69.9v.7Z" class="g1_4393"/>
<path d="M66.9,335.8h.8v-65h-.8v65Z" class="g1_4393"/>
<path d="M131.6,336.5h.8V270.1h-.8v66.4Z" class="g1_4393"/>
<path d="M259.8,336.5h.7v-42h-.7v42Z" class="g1_4393"/>
<path d="M387.8,336.5h.8V270.1h-.8v66.4Z" class="g1_4393"/>
<path d="M553.4,336.5h.7V270.1h-.7v66.4Z" class="g1_4393"/>
<path d="M717,336.5h.8V270.1H717v66.4Z" class="g1_4393"/>
<path d="M855.1,335.8h.7v-65h-.7v65Z" class="g1_4393"/>
<path d="M66.9,270.8H855.8v-.7H66.9v.7Z" class="g1_4393"/>
<path d="M66.9,295.3H855.8v-.8H66.9v.8Z" class="g1_4393"/>
<path d="M66.9,336.5H855.8v-.7H66.9v.7Z" class="g1_4393"/>
<path d="M68.9,581.7h.8V533.6h-.8v48.1Z" class="g1_4393"/>
<path d="M329,582.4h.7V532.9H329v49.5Z" class="g1_4393"/>
<path d="M590.1,582.4h.7V532.9h-.7v49.5Z" class="g1_4393"/>
<path d="M853,581.7h.8V533.6H853v48.1Z" class="g1_4393"/>
<path d="M68.9,533.6H853.8v-.7H68.9v.7Z" class="g1_4393"/>
<path d="M68.9,558.1H853.8v-.8H68.9v.8Z" class="g1_4393"/>
<path d="M68.9,582.4H853.8v-.7H68.9v.7Z" class="g1_4393"/>
<path d="M70.8,780.4h.7V666.5h-.7V780.4Z" class="g1_4393"/>
<path d="M352.8,781.1h.8V665.8h-.8V781.1Z" class="g1_4393"/>
<path d="M851.2,780.4h.7V666.5h-.7V780.4Z" class="g1_4393"/>
<path d="M70.8,666.5H852v-.7H70.8v.7Z" class="g1_4393"/>
<path d="M70.8,691H852v-.8H70.8v.8Z" class="g1_4393"/>
<path d="M70.8,715.4H852v-.8H70.8v.8Z" class="g1_4393"/>
<path d="M70.8,739.8H852v-.7H70.8v.7Z" class="g1_4393"/>
<path d="M70.8,781.1H852v-.7H70.8v.7Z" class="g1_4393"/>
<path d="M69.2,930h.7V862.1h-.7V930Z" class="g1_4393"/>
<path d="M306.4,930.9h.7V861.3h-.7v69.6Z" class="g1_4393"/>
<path d="M852.9,930h.7V862.1h-.7V930Z" class="g1_4393"/>
<path d="M69.1,862H853.6v-.7H69.1v.7Z" class="g1_4393"/>
<path d="M69.1,885H853.6v-.8H69.1v.8Z" class="g1_4393"/>
<path d="M69.1,907.9H853.6v-.8H69.1v.8Z" class="g1_4393"/>
<path d="M69.1,930.8H853.6v-.7H69.1v.7Z" class="g1_4393"/>
</svg>