<?xml version="1.0" encoding="UTF-8" standalone="no"?>
<!DOCTYPE svg PUBLIC "-//W3C//DTD SVG 1.1//EN"
"http://www.w3.org/Graphics/SVG/1.1/DTD/svg11.dtd">
<svg viewBox="0 0 935 1210" version="1.1" xmlns="http://www.w3.org/2000/svg" xmlns:xlink="http://www.w3.org/1999/xlink">
<defs>
<style type="text/css"><![CDATA[
.g0_206{
fill: #FFF;
}
.g1_206{
fill: #000;
}
]]></style>
</defs>
<path d="M68.8,1149.3H852.5v-21.2H68.8v21.2Z" class="g0_206"/>
<path d="M170.5,557.9h.7V235.7h-.7V557.9Z" class="g1_206"/>
<path d="M749.8,557.9h.8V235.7h-.8V557.9Z" class="g1_206"/>
<path d="M170.5,235.7H750.6v-.8H170.5v.8Z" class="g1_206"/>
<path d="M170.5,558.6H750.6v-.7H170.5v.7Z" class="g1_206"/>
<path d="M495.5,385H623.2v-.7H495.5v.7Z" class="g1_206"/>
<path d="M622.5,541.6h.7v-157h-.7v157Z" class="g1_206"/>
<path d="M495.1,541.6H622.9v-.8H495.1v.8Z" class="g1_206"/>
<path d="M495.1,541.2h.7V384.3h-.7V541.2Z" class="g1_206"/>
<path d="M261.1,277.8H623.2v-.7H261.1v.7Z" class="g1_206"/>
<path d="M622.5,298h.7V277.5h-.7V298Z" class="g1_206"/>
<path d="M260.7,298H622.9v-.7H260.7v.7Z" class="g1_206"/>
<path d="M260.7,297.6h.7V277.1h-.7v20.5Z" class="g1_206"/>
<path d="M460,384.6v-1.2v.1l-.2,-1.1v.1l-.7,-2h.1l-.6,-1l-.5,-.8v.1l-.8,-.9l-.7,-.8h.1l-.8,-.7v.1l-1,-.7l-1,-.5h.1l-1,-.5l-1.1,-.3l-1.2,-.3h.1l-1.2,-.2h-2.4h.1l-1.2,.2l-1.1,.3h.1l-1.1,.3l-1.1,.5l-1,.5h.1l-.9,.7v-.1l-.8,.7l-.8,.8l-.7,.9l.1,-.1l-.6,.8l-.5,1l-.4,1v-.1l-.2,1l-.2,1.1l-.1,1.2v-.1l.1,1.1l.2,1.1v-.1l.2,1l.4,1.1v-.1l.5,1l.6,.9h-.1l.7,.8v-.1l.8,.8l.8,.7l-.5,.6v-.1c-1.1,-.9,-2.3,-1.8,-2.9,-3.3l-.5,-1h-.1l-.4,-1v-.1c-.7,-2.3,-.7,-4.4,0,-6.7l.4,-1l.1,-.1c1.2,-2.4,2.9,-4.2,5.4,-5.5h.1l1.1,-.4v-.1l1.1,-.4l1.1,-.2l1.2,-.2h2.5l1.2,.2l1.2,.2h.1l1.1,.4v.1l1,.4c1.8,.9,3.2,2.1,4.3,3.7h.1l.5,.8c.7,1,1.5,3.2,1.5,4.3v1.2Z" class="g1_206"/>
<path d="M441.1,392.8l.9,.6h-.1l1,.6l1.1,.4v-.1l1.1,.4H445l1.1,.3l1.2,.2l1.2,.1h-.1l1.2,-.1l1.2,-.2h-.1l1.2,-.3l1.1,-.4v.1l1,-.4h-.1l1,-.6l1,-.6l.8,-.7h-.1l.7,-.8v.1l.8,-.8l.5,-.9l.6,-1l-.1,.1l.7,-2.1v.1l.2,-1.1v-1.1h.7v1.1c-.3,3,-2,5.8,-4.4,7.6v.1l-.9,.7h-.1c-1.8,1.1,-3.5,1.5,-5.6,1.8l-1.2,.1h-.1l-1.2,-.1l-1.2,-.2l-1.1,-.3l-1.1,-.3l-1.1,-.5h-.1l-1,-.5l-1,-.7Z" class="g1_206"/>
<path d="M495.5,462.6h.1v-.4h-.1v.4Z" class="g1_206"/>
<path d="M495.6,462.6H622.8v-.4H495.6v.4Z" class="g1_206"/>
<path d="M495.5,410.3h.1v-.5h-.1v.5Z" class="g1_206"/>
<path d="M495.6,410.3H622.8v-.5H495.6v.5Z" class="g1_206"/>
<path d="M448,362.8h.4v-2.1H448v2.1Z" class="g1_206"/>
<path d="M447.9,362.2l2.4,-1.4l1.6,-1l-.5,1.9L449,370l-.8,2.6l-.7,-2.6l-2.3,-8.3l-.5,-1.9l1.6,1l.4,.5l2.3,8.2l-1.5,.5v-.5l2.4,-8.2l1.5,.4l-.4,.5l-2.4,1.4Z" class="g1_206"/>
<path d="M446.3,360.8l2.3,1.4v1.3l-.4,.3l-.4,-.3l-2.3,-1.3Z" class="g1_206"/>
<path fill-rule="evenodd" d="M448.2,362.8l2.4,-1.4l-2.4,8.3L446,361.4Z" class="g1_206"/>
<path d="M448.1,360.9h.4V327.7h-.4v33.2Z" class="g1_206"/>
<path d="M448.2,328.2H563.1v-.5H448.2v.5Z" class="g1_206"/>
<path d="M562.7,327.9h.4V297.5h-.4v30.4Z" class="g1_206"/>
<path d="M505.1,277.8h.4v-.1h-.4v.1Z" class="g1_206"/>
<path d="M505.1,297.5h.4V277.8h-.4v19.7Z" class="g1_206"/>
<path d="M495.5,488.6h.1v-.5h-.1v.5Z" class="g1_206"/>
<path d="M495.6,488.6H622.8v-.5H495.6v.5Z" class="g1_206"/>
<path d="M495.5,515.2h.1v-.5h-.1v.5Z" class="g1_206"/>
<path d="M495.6,515.2H622.8v-.5H495.6v.5Z" class="g1_206"/>
<path d="M482,535.5h2.2v-.4H482v.4Z" class="g1_206"/>
<path d="M483.5,535.7l-1.3,-2.3l-1,-1.7l1.9,.5l8.1,2.3l2.5,.7l-2.5,.8l-8.1,2.4l-1.8,.5l.9,-1.6l.4,-.4l8.2,-2.4l.4,1.5h-.4l-8.2,-2.3l.5,-1.5l.4,.4l1.4,2.3Z" class="g1_206"/>
<path d="M482.2,537.3l1.3,-2.4h1.4l.2,.3l-.2,.4l-1.4,2.4Z" class="g1_206"/>
<path fill-rule="evenodd" d="M484.2,535.2l-1.4,-2.3l8.2,2.3l-8.2,2.4Z" class="g1_206"/>
<path d="M392.3,535.5h.5V298.2h-.5V535.5Z" class="g1_206"/>
<path d="M392.5,535.5h89.7v-.4H392.5v.4Z" class="g1_206"/>
<path d="M482.1,385h2.1v-.5h-2.1v.5Z" class="g1_206"/>
<path d="M483.5,385.1l-1.3,-2.4l-1,-1.6l1.9,.5l8.2,2.4l2.6,.7l-2.6,.8l-8.2,2.3l-1.8,.6l.9,-1.7l.4,-.3l8.3,-2.4l.4,1.5h-.4l-8.3,-2.4l.5,-1.5l.4,.4l1.4,2.4Z" class="g1_206"/>
<path d="M482.2,386.7l1.3,-2.3h1.4l.2,.3l-.2,.4l-1.4,2.4Z" class="g1_206"/>
<path fill-rule="evenodd" d="M484.2,384.7l-1.4,-2.4l8.3,2.4l-8.3,2.4Z" class="g1_206"/>
<path d="M482.1,385h.2v-.5h-.2v.5Z" class="g1_206"/>
<path d="M459.6,385h22.5v-.5H459.6v.5Z" class="g1_206"/>
<path d="M422.9,384.8H425v-.2h-2.1v.2Z" class="g1_206"/>
<path d="M424.3,385.1l-1.4,-2.4l-1,-1.6l2,.5l8.2,2.4l2.6,.7l-2.6,.8l-8.2,2.3l-1.9,.6l.9,-1.7l.5,-.3l8.3,-2.4l.4,1.5h-.4l-8.3,-2.4l.5,-1.5l.4,.4l1.4,2.4Z" class="g1_206"/>
<path d="M422.9,386.7l1.4,-2.3h1.4l.2,.3l-.2,.4l-1.4,2.4Z" class="g1_206"/>
<path fill-rule="evenodd" d="M425,384.7l-1.4,-2.4l8.2,2.4l-8.2,2.4Z" class="g1_206"/>
<path d="M422.9,384.8v0v-.2v.2Z" class="g1_206"/>
<path d="M392.9,384.8h30v-.2h-30v.2Z" class="g1_206"/>
<path d="M615.5,443.3h16.4V426.5H615.5v16.8Z" class="g0_206"/>
<path d="M623,426.8l.2,-.3l-.5,-.5l-.3,.3Z" class="g1_206"/>
<path d="M623,426.8l-5.6,5.6l-.5,.1l-.5,-.3l.4,-.4l5.6,-5.5Z" class="g1_206"/>
<path d="M617.3,431.8l11.6,6.1l.5,.3l-.4,.2l-.4,.1l-11.7,-6Z" class="g1_206"/>
<path d="M623.4,443l-.2,.2l-.5,-.5l.3,-.2Z" class="g1_206"/>
<path d="M629,438.4l-.4,-.5l-5.6,4.6l.4,.5Z" class="g1_206"/>
<path d="M488.2,444.9h16.3V428H488.2v16.9Z" class="g0_206"/>
<path d="M495.6,428.3l.3,-.3l-.5,-.6l-.3,.3Z" class="g1_206"/>
<path d="M495.6,428.3l-5.5,5.6l-.5,.1l-.6,-.3l.5,-.4l5.6,-5.6Z" class="g1_206"/>
<path d="M490,433.3l11.7,6.1l.5,.3l-.4,.3l-.5,.1L489.6,434Z" class="g1_206"/>
<path d="M496.1,444.6l-.3,.2l-.4,-.6l.2,-.2Z" class="g1_206"/>
<path d="M501.8,440l-.5,-.5l-5.7,4.5l.5,.6Z" class="g1_206"/>
</svg>