<?xml version="1.0" encoding="UTF-8" standalone="no"?>
<!DOCTYPE svg PUBLIC "-//W3C//DTD SVG 1.1//EN"
"http://www.w3.org/Graphics/SVG/1.1/DTD/svg11.dtd">
<svg viewBox="0 0 935 1210" version="1.1" xmlns="http://www.w3.org/2000/svg" xmlns:xlink="http://www.w3.org/1999/xlink">
<defs>
<clipPath id="c0_2248"><path d="M766.6,59.2V41.4h72.2V59.2Z"/></clipPath>
<style type="text/css"><![CDATA[
.g0_2248{
fill: #000;
}
]]></style>
</defs>
<path d="M97.4,63.3H839.9v-.4H97.4v.4Z" class="g0_2248"/>
<path d="M96.1,1114.5h.2v-.4h-.2v.4Z" class="g0_2248"/>
<path d="M96.3,1114.5H838.9v-.4H96.3v.4Z" class="g0_2248"/>
<image clip-path="url(#c0_2248)" preserveAspectRatio="none" x="767" y="41" width="72" height="18" xlink:href="img/1.jpg"/>
<path d="M563.3,972.7h31.4v-1.1H563.3v1.1Z" class="g0_2248"/>
<path d="M690.1,972.7h20.3v-1.1H690.1v1.1Z" class="g0_2248"/>
<path d="M563.3,995.6h31.4v-1.1H563.3v1.1Z" class="g0_2248"/>
<path d="M690.1,995.6h20.3v-1.1H690.1v1.1Z" class="g0_2248"/>
<path d="M95.9,749.7h.7V658.9h-.7v90.8Z" class="g0_2248"/>
<path d="M238,750.6h.7V658.1H238v92.5Z" class="g0_2248"/>
<path d="M315.2,750.6h.8V658.1h-.8v92.5Z" class="g0_2248"/>
<path d="M839.1,749.7h.7V658.9h-.7v90.8Z" class="g0_2248"/>
<path d="M95.9,658.8h744v-.7H95.9v.7Z" class="g0_2248"/>
<path d="M95.9,682.9h744v-3H95.9v3Z" class="g0_2248"/>
<path d="M95.9,704.6h744v-.7H95.9v.7Z" class="g0_2248"/>
<path d="M95.9,727.6h744v-.8H95.9v.8Z" class="g0_2248"/>
<path d="M95.9,750.5h744v-.8H95.9v.8Z" class="g0_2248"/>
</svg>