<?xml version="1.0" encoding="UTF-8" standalone="no"?>
<!DOCTYPE svg PUBLIC "-//W3C//DTD SVG 1.1//EN"
"http://www.w3.org/Graphics/SVG/1.1/DTD/svg11.dtd">
<svg viewBox="0 0 935 1210" version="1.1" xmlns="http://www.w3.org/2000/svg" xmlns:xlink="http://www.w3.org/1999/xlink">
<defs>
<clipPath id="c0_2654"><path d="M766.6,59.2V41.4h72.2V59.2Z"/></clipPath>
<style type="text/css"><![CDATA[
.g0_2654{
fill: #000;
}
]]></style>
</defs>
<path d="M97.4,63.3H839.9v-.4H97.4v.4Z" class="g0_2654"/>
<path d="M96.1,1114.5h.2v-.4h-.2v.4Z" class="g0_2654"/>
<path d="M96.3,1114.5H838.9v-.4H96.3v.4Z" class="g0_2654"/>
<image clip-path="url(#c0_2654)" preserveAspectRatio="none" x="767" y="41" width="72" height="18" xlink:href="img/1.jpg"/>
<path d="M95.9,525.2h.7V186.4h-.7V525.2Z" class="g0_2654"/>
<path d="M273.3,506.1h.8V183.3h-.8V506.1Z" class="g0_2654"/>
<path d="M310,506.1h.7V205.9H310V506.1Z" class="g0_2654"/>
<path d="M346.7,506.1h.7V205.9h-.7V506.1Z" class="g0_2654"/>
<path d="M383.4,506.1h.7V183.3h-.7V506.1Z" class="g0_2654"/>
<path d="M839.2,525.2h.7V186.4h-.7V525.2Z" class="g0_2654"/>
<path d="M95.9,186.4h744v-3.1H95.9v3.1Z" class="g0_2654"/>
<path d="M273.3,206.6H384.2v-.7H273.3v.7Z" class="g0_2654"/>
<path d="M95.9,229.2h744v-3.1H95.9v3.1Z" class="g0_2654"/>
<path d="M273.3,247.9H839.9v-.8H273.3v.8Z" class="g0_2654"/>
<path d="M273.3,267.8H839.9V267H273.3v.8Z" class="g0_2654"/>
<path d="M273.3,287.6H839.9v-.8H273.3v.8Z" class="g0_2654"/>
<path d="M273.3,307.4H839.9v-.7H273.3v.7Z" class="g0_2654"/>
<path d="M273.3,327.3H839.9v-.7H273.3v.7Z" class="g0_2654"/>
<path d="M273.3,347.1H839.9v-.7H273.3v.7Z" class="g0_2654"/>
<path d="M273.3,367H839.9v-.7H273.3v.7Z" class="g0_2654"/>
<path d="M95.9,386.9h744v-.7H95.9v.7Z" class="g0_2654"/>
<path d="M95.9,406.7h744V406H95.9v.7Z" class="g0_2654"/>
<path d="M95.9,426.6h744v-.7H95.9v.7Z" class="g0_2654"/>
<path d="M273.3,446.5H839.9v-.7H273.3v.7Z" class="g0_2654"/>
<path d="M95.9,466.3h744v-.7H95.9v.7Z" class="g0_2654"/>
<path d="M95.9,486.2h744v-.7H95.9v.7Z" class="g0_2654"/>
<path d="M95.9,506.1h744v-.7H95.9v.7Z" class="g0_2654"/>
<path d="M95.9,525.9h744v-.7H95.9v.7Z" class="g0_2654"/>
</svg>