<?xml version="1.0" encoding="UTF-8" standalone="no"?>
<!DOCTYPE svg PUBLIC "-//W3C//DTD SVG 1.1//EN"
"http://www.w3.org/Graphics/SVG/1.1/DTD/svg11.dtd">
<svg viewBox="0 0 935 1210" version="1.1" xmlns="http://www.w3.org/2000/svg" xmlns:xlink="http://www.w3.org/1999/xlink">
<defs>
<style type="text/css"><![CDATA[
.g0_183{
fill: #000;
}
]]></style>
</defs>
<path d="M106.9,508.6h.3V478.4h-.3v30.2Z" class="g0_183"/>
<path d="M827.7,508.6h.4V478.4h-.4v30.2Z" class="g0_183"/>
<path d="M106.9,478.4H828.1V478H106.9v.4Z" class="g0_183"/>
<path d="M106.9,508.9H828.1v-.3H106.9v.3Z" class="g0_183"/>
<path d="M89,667.2h.7V588.6H89v78.6Z" class="g0_183"/>
<path d="M171.5,668.1h.7V615.4h-.7v52.7Z" class="g0_183"/>
<path d="M254,668.1h.7V587.8H254v80.3Z" class="g0_183"/>
<path d="M584,668.1h.7V587.8H584v80.3Z" class="g0_183"/>
<path d="M652.8,668.1h.7V587.8h-.7v80.3Z" class="g0_183"/>
<path d="M749,668.1h.7V587.8H749v80.3Z" class="g0_183"/>
<path d="M845.3,667.2h.7V588.6h-.7v78.6Z" class="g0_183"/>
<path d="M89,588.6H846v-.7H89v.7Z" class="g0_183"/>
<path d="M89,616.1H254.7v-.7H89v.7Z" class="g0_183"/>
<path d="M89.7,641.7H845.3v-.8H89.7v.8Z" class="g0_183"/>
<path d="M89.7,645.5H845.3v-.7H89.7v.7Z" class="g0_183"/>
<path d="M89,668H846v-.8H89v.8Z" class="g0_183"/>
</svg>