<?xml version="1.0" encoding="UTF-8" standalone="no"?>
<!DOCTYPE svg PUBLIC "-//W3C//DTD SVG 1.1//EN"
"http://www.w3.org/Graphics/SVG/1.1/DTD/svg11.dtd">
<svg viewBox="0 0 935 1210" version="1.1" xmlns="http://www.w3.org/2000/svg" xmlns:xlink="http://www.w3.org/1999/xlink">
<defs>
<style type="text/css"><![CDATA[
.g0_896{
fill: #FFF;
}
.g1_896{
fill: #000;
}
]]></style>
</defs>
<path d="M165,1149.3H852.5v-21.2H165v21.2Z" class="g0_896"/>
<path d="M68.8,1149.3h82.5v-21.2H68.8v21.2Z" class="g0_896"/>
<path d="M68.9,446.7H851V417.1H68.9v29.6Z" class="g0_896"/>
<path d="M69.9,440h53.5V427.6H69.9V440Z" class="g0_896"/>
<path d="M68.6,416.7h.7v-291h-.7v291Z" class="g1_896"/>
<path d="M300,417.4h.8V124.9H300V417.4Z" class="g1_896"/>
<path d="M345.9,417.4h.7V124.9h-.7V417.4Z" class="g1_896"/>
<path d="M420.3,417.4h.7V124.9h-.7V417.4Z" class="g1_896"/>
<path d="M501.1,417.4h.8V124.9h-.8V417.4Z" class="g1_896"/>
<path d="M850.7,416.7h.7v-291h-.7v291Z" class="g1_896"/>
<path d="M68.6,125.7H851.4v-.8H68.6v.8Z" class="g1_896"/>
<path d="M68.6,179.1H851.4v-.7H68.6v.7Z" class="g1_896"/>
<path d="M68.6,218.8H851.4v-.7H68.6v.7Z" class="g1_896"/>
<path d="M68.6,258.6H851.4v-.7H68.6v.7Z" class="g1_896"/>
<path d="M68.6,298.3H851.4v-.7H68.6v.7Z" class="g1_896"/>
<path d="M68.6,338H851.4v-.8H68.6v.8Z" class="g1_896"/>
<path d="M68.6,377.8H851.4V377H68.6v.8Z" class="g1_896"/>
<path d="M68.6,417.4H851.4v-.7H68.6v.7Z" class="g1_896"/>
<path d="M68.6,631.2h.7V558.6h-.7v72.6Z" class="g1_896"/>
<path d="M144.1,632h.7V557.9h-.7V632Z" class="g1_896"/>
<path d="M233.5,632h.7V557.9h-.7V632Z" class="g1_896"/>
<path d="M388.1,632h.7V557.9h-.7V632Z" class="g1_896"/>
<path d="M542.6,632h.7V557.9h-.7V632Z" class="g1_896"/>
<path d="M693.4,632h.7V557.9h-.7V632Z" class="g1_896"/>
<path d="M849.8,631.2h.8V558.6h-.8v72.6Z" class="g1_896"/>
<path d="M68.6,558.6h782v-.7H68.6v.7Z" class="g1_896"/>
<path d="M68.6,583.1h782v-.7H68.6v.7Z" class="g1_896"/>
<path d="M68.6,607.5h782v-.8H68.6v.8Z" class="g1_896"/>
<path d="M68.6,632h782v-.8H68.6v.8Z" class="g1_896"/>
</svg>