<?xml version="1.0" encoding="UTF-8" standalone="no"?>
<!DOCTYPE svg PUBLIC "-//W3C//DTD SVG 1.1//EN"
"http://www.w3.org/Graphics/SVG/1.1/DTD/svg11.dtd">
<svg viewBox="0 0 935 1210" version="1.1" xmlns="http://www.w3.org/2000/svg" xmlns:xlink="http://www.w3.org/1999/xlink">
<defs>
<style type="text/css"><![CDATA[
.g0_352{
fill: #FFF;
}
.g1_352{
fill: #000;
}
.g2_352{
fill: #CDCDCD;
}
.g3_352{
fill: none;
stroke: #000;
stroke-width: 0.293;
stroke-linecap: round;
stroke-linejoin: round;
}
.g4_352{
fill: none;
stroke: #000;
stroke-width: 1.03;
stroke-linecap: round;
stroke-linejoin: round;
}
]]></style>
</defs>
<path d="M165,1149.3H852.5v-21.2H165v21.2Z" class="g0_352"/>
<path d="M68.8,1149.3h82.5v-21.2H68.8v21.2Z" class="g0_352"/>
<path d="M170,677.5h.8V125.7H170V677.5Z" class="g1_352"/>
<path d="M750.3,677.5h.7V125.7h-.7V677.5Z" class="g1_352"/>
<path d="M170,125.7H751v-.8H170v.8Z" class="g1_352"/>
<path d="M170,678.2H751v-.7H170v.7Z" class="g1_352"/>
<path d="M71.3,787.5h.4V766.7h-.4v20.8Z" class="g1_352"/>
<path d="M71.1,1085.4h.8V788.2h-.8v297.2Z" class="g1_352"/>
<path d="M144.4,788.2h.3V766.3h-.3v21.9Z" class="g1_352"/>
<path d="M144.2,1086.2h.7V787.5h-.7v298.7Z" class="g1_352"/>
<path d="M260.5,788.2h.4V766.3h-.4v21.9Z" class="g1_352"/>
<path d="M260.3,1086.2h.8V787.5h-.8v298.7Z" class="g1_352"/>
<path d="M849.5,787.5h.3V766.7h-.3v20.8Z" class="g1_352"/>
<path d="M849.3,1085.4h.7V788.2h-.7v297.2Z" class="g1_352"/>
<path d="M71.3,766.7H849.8v-.4H71.3v.4Z" class="g1_352"/>
<path d="M71.1,788.2H850v-.7H71.1v.7Z" class="g1_352"/>
<path d="M71.1,826.5H850v-.8H71.1v.8Z" class="g1_352"/>
<path d="M71.1,847.8H850v-.7H71.1v.7Z" class="g1_352"/>
<path d="M71.1,869.2H850v-.8H71.1v.8Z" class="g1_352"/>
<path d="M71.1,890.6H850v-.7H71.1v.7Z" class="g1_352"/>
<path d="M71.1,928.8H850V928H71.1v.8Z" class="g1_352"/>
<path d="M71.1,950.2H850v-.7H71.1v.7Z" class="g1_352"/>
<path d="M71.1,988.4H850v-.8H71.1v.8Z" class="g1_352"/>
<path d="M71.1,1026.6H850v-.8H71.1v.8Z" class="g1_352"/>
<path d="M71.1,1047.9H850v-.7H71.1v.7Z" class="g1_352"/>
<path d="M71.1,1086.2H850v-.8H71.1v.8Z" class="g1_352"/>
<path d="M489.3,218.2h13.3v-52H489.3v52Z" class="g2_352"/>
<path d="M701.5,166.2V218M688.3,166.2V218M675,166.2V218M661.8,166.2V218M648.5,166.2V218M635.2,166.2V218M622,166.2V218M608.7,166.2V218M595.4,166.2V218M582,166.2V218M568.7,166.2V218M555.4,166.2V218M542.1,166.2V218M528.8,166.2V218M515.5,166.2V218M502.3,166.2V218M489,166.2V218M475.8,166.2V218M462.5,166.2V218M449.2,166.2V218M436,166.2V218M422.7,166.2V218M409.4,166.2V218M396.1,166.2V218M382.8,166.2V218M369.6,166.2V218M356.3,166.2V218M343,166.2V218M329.7,166.2V218M316.4,166.2V218M303.2,166.2V218" class="g3_352"/>
<path d="M289.8,218h425V166.2h-425V218Z" class="g4_352"/>
<path d="M185.3,661.9h19.8V642.5H185.3v19.4Z" class="g2_352"/>
<path d="M185.3,661.9h19.9V642.5H185.3v19.4ZM615.5,218V525H472.4M602.2,218V511.2H339.4M575.3,218V483.4H342.8M655.7,218V566.6H406M668.5,218V580.6H372.8M695.1,218V608.4H422.5M642,218V552.8H389.3M588.9,218V497.2H362.8M522.5,218V427H316.3M535.8,218V439.9H286.4M509.2,218V414H402.6M628.8,218V538.8H369.4M456,218V375H306.3M402.9,218V323.1H250M442.8,218V362H306.3M469,218V387.9H359.4M429.5,218V349.1H243.3M376.4,218v79.2H226.7M336.2,218v40.3H226.7M349.5,218v53.3H259.9M363.1,218v66.3H243.3M708.3,218V622.2H349.5M549.1,218V452.8H349.5M482.3,218V401H392.7M681.6,218V594.5H349.5M415.9,218V336.1H246.6M389.3,218v92.2H276.5M322.9,218v27.4H233.3M309.7,218v14.5H253.2M564.4,218V469H236.7" class="g3_352"/>
</svg>