<?xml version="1.0" encoding="UTF-8" standalone="no"?>
<!DOCTYPE svg PUBLIC "-//W3C//DTD SVG 1.1//EN"
"http://www.w3.org/Graphics/SVG/1.1/DTD/svg11.dtd">
<svg viewBox="0 0 935 1210" version="1.1" xmlns="http://www.w3.org/2000/svg" xmlns:xlink="http://www.w3.org/1999/xlink">
<defs>
<clipPath id="c0_823"><path d="M766.6,59.2V41.4h72.1V59.2Z"/></clipPath>
<style type="text/css"><![CDATA[
.g0_823{
fill: #000;
}
]]></style>
</defs>
<path d="M97.3,62.9v.3H839.9v-.3H97.3Z" class="g0_823"/>
<path d="M96.2,1114.1h-.1v.3h.1v-.3Z" class="g0_823"/>
<path d="M838.7,1114.1h.2v.3h-.2v-.3Z" class="g0_823"/>
<path d="M96.2,1114.1v.3H838.7v-.3H96.2Z" class="g0_823"/>
<image clip-path="url(#c0_823)" preserveAspectRatio="none" x="767" y="41" width="72" height="18" xlink:href="img/1.jpg"/>
<path d="M282.2,260h-.7v51.7h.7V260Z" class="g0_823"/>
<path d="M583.9,259.3h-.7v55.4h.7V259.3Z" class="g0_823"/>
<path d="M607.1,259.3h-.7v55.4h.7V259.3Z" class="g0_823"/>
<path d="M654.7,260h-3.1v51.7h3.1V260Z" class="g0_823"/>
<path d="M281.5,259.3v.7H654.7v-.7H281.5Z" class="g0_823"/>
<path d="M281.5,311.7v3.1H654.7v-3.1H281.5Z" class="g0_823"/>
<path d="M275,355.6v.7H660v-.7H275Z" class="g0_823"/>
<path d="M275,419.7v.8H660v-.8H275Z" class="g0_823"/>
</svg>