<?xml version="1.0" encoding="UTF-8" standalone="no"?>
<!DOCTYPE svg PUBLIC "-//W3C//DTD SVG 1.1//EN"
"http://www.w3.org/Graphics/SVG/1.1/DTD/svg11.dtd">
<svg viewBox="0 0 935 1210" version="1.1" xmlns="http://www.w3.org/2000/svg" xmlns:xlink="http://www.w3.org/1999/xlink">
<defs>
<style type="text/css"><![CDATA[
.g0_1978{
fill: #FFF;
}
.g1_1978{
fill: #000;
}
]]></style>
</defs>
<path d="M165,1149.3H852.5v-21.2H165v21.2Z" class="g0_1978"/>
<path d="M68.8,1149.3h82.5v-21.2H68.8v21.2Z" class="g0_1978"/>
<path d="M68.6,195.2h.7V122.6h-.7v72.6Z" class="g1_1978"/>
<path d="M132.3,196h.7V121.8h-.7V196Z" class="g1_1978"/>
<path d="M215.3,196h.8V121.8h-.8V196Z" class="g1_1978"/>
<path d="M368.6,196h.7V121.8h-.7V196Z" class="g1_1978"/>
<path d="M525.6,196h.7V121.8h-.7V196Z" class="g1_1978"/>
<path d="M689.1,196h.8V121.8h-.8V196Z" class="g1_1978"/>
<path d="M844.2,195.2h.8V122.6h-.8v72.6Z" class="g1_1978"/>
<path d="M68.6,122.6H845.1v-.8H68.6v.8Z" class="g1_1978"/>
<path d="M68.6,147H845.1v-.7H68.6v.7Z" class="g1_1978"/>
<path d="M68.6,171.5H845.1v-.7H68.6v.7Z" class="g1_1978"/>
<path d="M68.6,195.9H845.1v-.7H68.6v.7Z" class="g1_1978"/>
</svg>