<?xml version="1.0" encoding="UTF-8" standalone="no"?>
<!DOCTYPE svg PUBLIC "-//W3C//DTD SVG 1.1//EN"
"http://www.w3.org/Graphics/SVG/1.1/DTD/svg11.dtd">
<svg viewBox="0 0 935 1210" version="1.1" xmlns="http://www.w3.org/2000/svg" xmlns:xlink="http://www.w3.org/1999/xlink">
<defs>
<clipPath id="c0_2658"><path d="M766.6,59.2V41.4h72.2V59.2Z"/></clipPath>
<style type="text/css"><![CDATA[
.g0_2658{
fill: #000;
}
]]></style>
</defs>
<path d="M97.4,63.3H839.9v-.4H97.4v.4Z" class="g0_2658"/>
<path d="M96.1,1114.5h.2v-.4h-.2v.4Z" class="g0_2658"/>
<path d="M96.3,1114.5H838.9v-.4H96.3v.4Z" class="g0_2658"/>
<image clip-path="url(#c0_2658)" preserveAspectRatio="none" x="767" y="41" width="72" height="18" xlink:href="img/1.jpg"/>
<path d="M558.7,251.5h31.4v-1.1H558.7v1.1Z" class="g0_2658"/>
<path d="M684.3,251.5h20.3v-1.1H684.3v1.1Z" class="g0_2658"/>
<path d="M704.6,251.5h8.6v-1.1h-8.6v1.1Z" class="g0_2658"/>
<path d="M558.7,274.5h31.4v-1.1H558.7v1.1Z" class="g0_2658"/>
<path d="M684.3,274.5h20.3v-1.1H684.3v1.1Z" class="g0_2658"/>
<path d="M704.6,274.5h8.6v-1.1h-8.6v1.1Z" class="g0_2658"/>
<path d="M558.7,320.3h31.4v-1.1H558.7v1.1Z" class="g0_2658"/>
<path d="M684.3,320.3h20.3v-1.1H684.3v1.1Z" class="g0_2658"/>
<path d="M704.6,320.3h8.6v-1.1h-8.6v1.1Z" class="g0_2658"/>
<path d="M558.7,343.2h31.4v-1.1H558.7v1.1Z" class="g0_2658"/>
<path d="M684.3,343.2h20.3v-1.1H684.3v1.1Z" class="g0_2658"/>
<path d="M704.6,343.2h8.6v-1.1h-8.6v1.1Z" class="g0_2658"/>
<path d="M95.9,931.6h.7v-319h-.7v319Z" class="g0_2658"/>
<path d="M273.3,912.5h.8V609.6h-.8V912.5Z" class="g0_2658"/>
<path d="M310,912.5h.7V632.1H310V912.5Z" class="g0_2658"/>
<path d="M346.7,912.5h.7V632.1h-.7V912.5Z" class="g0_2658"/>
<path d="M383.4,912.5h.7V609.6h-.7V912.5Z" class="g0_2658"/>
<path d="M839.2,931.6h.7v-319h-.7v319Z" class="g0_2658"/>
<path d="M95.9,612.7h744v-3H95.9v3Z" class="g0_2658"/>
<path d="M273.3,632.9H384.2v-.8H273.3v.8Z" class="g0_2658"/>
<path d="M95.9,655.4h744v-3H95.9v3Z" class="g0_2658"/>
<path d="M273.3,674.1H839.9v-.7H273.3v.7Z" class="g0_2658"/>
<path d="M273.3,694H839.9v-.7H273.3v.7Z" class="g0_2658"/>
<path d="M273.3,713.8H839.9v-.7H273.3v.7Z" class="g0_2658"/>
<path d="M273.3,733.7H839.9V733H273.3v.7Z" class="g0_2658"/>
<path d="M273.3,753.6H839.9v-.7H273.3v.7Z" class="g0_2658"/>
<path d="M273.3,773.4H839.9v-.7H273.3v.7Z" class="g0_2658"/>
<path d="M95.9,793.3h744v-.8H95.9v.8Z" class="g0_2658"/>
<path d="M95.9,813.2h744v-.8H95.9v.8Z" class="g0_2658"/>
<path d="M95.9,833h744v-.8H95.9v.8Z" class="g0_2658"/>
<path d="M273.3,852.9H839.9v-.8H273.3v.8Z" class="g0_2658"/>
<path d="M273.3,872.8H839.9V872H273.3v.8Z" class="g0_2658"/>
<path d="M95.9,892.6h744v-.8H95.9v.8Z" class="g0_2658"/>
<path d="M95.9,912.5h744v-.8H95.9v.8Z" class="g0_2658"/>
<path d="M95.9,932.3h744v-.7H95.9v.7Z" class="g0_2658"/>
</svg>