<?xml version="1.0" encoding="UTF-8" standalone="no"?>
<!DOCTYPE svg PUBLIC "-//W3C//DTD SVG 1.1//EN"
"http://www.w3.org/Graphics/SVG/1.1/DTD/svg11.dtd">
<svg viewBox="0 0 935 1210" version="1.1" xmlns="http://www.w3.org/2000/svg" xmlns:xlink="http://www.w3.org/1999/xlink">
<defs>
<clipPath id="c0_3023"><path d="M766.6,59.2V41.4h72.2V59.2Z"/></clipPath>
<style type="text/css"><![CDATA[
.g0_3023{
fill: #000;
}
]]></style>
</defs>
<path d="M97.4,63.3H839.9v-.4H97.4v.4Z" class="g0_3023"/>
<path d="M96.1,1114.5h.2v-.4h-.2v.4Z" class="g0_3023"/>
<path d="M96.3,1114.5H838.9v-.4H96.3v.4Z" class="g0_3023"/>
<image clip-path="url(#c0_3023)" preserveAspectRatio="none" x="767" y="41" width="72" height="18" xlink:href="img/1.jpg"/>
<path d="M95.9,554.2h.7V435.4h-.7V554.2Z" class="g0_3023"/>
<path d="M139.5,525.9h.8V432.4h-.8v93.5Z" class="g0_3023"/>
<path d="M183.2,525.9h.8V432.4h-.8v93.5Z" class="g0_3023"/>
<path d="M226.9,525.9h.7v-63h-.7v63Z" class="g0_3023"/>
<path d="M270.6,525.9h.7V432.4h-.7v93.5Z" class="g0_3023"/>
<path d="M314.2,525.9h.8V432.4h-.8v93.5Z" class="g0_3023"/>
<path d="M358,525.9h.7V432.4H358v93.5Z" class="g0_3023"/>
<path d="M401.6,525.9h.7V432.4h-.7v93.5Z" class="g0_3023"/>
<path d="M445.3,525.9h.8V432.4h-.8v93.5Z" class="g0_3023"/>
<path d="M489,525.9h.7V432.4H489v93.5Z" class="g0_3023"/>
<path d="M532.7,525.9h.7V432.4h-.7v93.5Z" class="g0_3023"/>
<path d="M576.3,525.9h.7V432.4h-.7v93.5Z" class="g0_3023"/>
<path d="M620,525.9h.8V432.4H620v93.5Z" class="g0_3023"/>
<path d="M663.7,525.9h.7V432.4h-.7v93.5Z" class="g0_3023"/>
<path d="M707.4,525.9h.7V432.4h-.7v93.5Z" class="g0_3023"/>
<path d="M751,525.9h.8V432.4H751v93.5Z" class="g0_3023"/>
<path d="M794.8,525.9h.7V432.4h-.7v93.5Z" class="g0_3023"/>
<path d="M838.4,554.2h.7V435.4h-.7V554.2Z" class="g0_3023"/>
<path d="M95.9,435.4H839.1v-3H95.9v3Z" class="g0_3023"/>
<path d="M95.9,466H839.1v-3H95.9v3Z" class="g0_3023"/>
<path d="M95.9,495.4H839.1v-.8H95.9v.8Z" class="g0_3023"/>
<path d="M95.9,525.9H839.1v-.7H95.9v.7Z" class="g0_3023"/>
<path d="M95.9,554.9H839.1v-.7H95.9v.7Z" class="g0_3023"/>
<path d="M95.9,1027.9h.7V605h-.7v422.9Z" class="g0_3023"/>
<path d="M273.3,1028.6h.8V602h-.8v426.6Z" class="g0_3023"/>
<path d="M321.3,1028.6h.7V602h-.7v426.6Z" class="g0_3023"/>
<path d="M383.6,1028.6h.8V602h-.8v426.6Z" class="g0_3023"/>
<path d="M464.6,1028.6h.7V602h-.7v426.6Z" class="g0_3023"/>
<path d="M838.4,1027.9h.7V605h-.7v422.9Z" class="g0_3023"/>
<path d="M95.9,605H839.1v-3H95.9v3Z" class="g0_3023"/>
<path d="M95.9,647.8H839.1v-3H95.9v3Z" class="g0_3023"/>
<path d="M95.9,701.6H839.1v-.7H95.9v.7Z" class="g0_3023"/>
<path d="M273.3,726.1H839.1v-.7H273.3v.7Z" class="g0_3023"/>
<path d="M95.9,750.5H839.1v-.8H95.9v.8Z" class="g0_3023"/>
<path d="M95.9,790.3H839.1v-.8H95.9v.8Z" class="g0_3023"/>
<path d="M273.3,830H839.1v-.8H273.3v.8Z" class="g0_3023"/>
<path d="M273.3,854.4H839.1v-.7H273.3v.7Z" class="g0_3023"/>
<path d="M273.3,924.6H839.1v-.7H273.3v.7Z" class="g0_3023"/>
<path d="M95.9,949.1H839.1v-.7H95.9v.7Z" class="g0_3023"/>
<path d="M95.9,988.8H839.1v-.7H95.9v.7Z" class="g0_3023"/>
<path d="M95.9,1028.6H839.1v-.7H95.9v.7Z" class="g0_3023"/>
<path d="M65.6,921.3h3.2V875.4H65.6v45.9Z" class="g0_3023"/>
<path d="M65.6,1017.5h3.2v-15.2H65.6v15.2Z" class="g0_3023"/>
</svg>