<?xml version="1.0" encoding="UTF-8" standalone="no"?>
<!DOCTYPE svg PUBLIC "-//W3C//DTD SVG 1.1//EN"
"http://www.w3.org/Graphics/SVG/1.1/DTD/svg11.dtd">
<svg viewBox="0 0 935 1210" version="1.1" xmlns="http://www.w3.org/2000/svg" xmlns:xlink="http://www.w3.org/1999/xlink">
<defs>
<clipPath id="c0_2381"><path d="M97.3,59.2V41.4h72.1V59.2Z"/></clipPath>
<style type="text/css"><![CDATA[
.g0_2381{
fill: #000;
}
]]></style>
</defs>
<path d="M96.3,63.3H838.8v-.4H96.3v.4Z" class="g0_2381"/>
<path d="M96.1,1114.5h.2v-.4h-.2v.4Z" class="g0_2381"/>
<path d="M96.3,1114.5H838.9v-.4H96.3v.4Z" class="g0_2381"/>
<image clip-path="url(#c0_2381)" preserveAspectRatio="none" x="97" y="41" width="73" height="18" xlink:href="img/1.jpg"/>
<path d="M567.6,1027.7h31.3v-1.1H567.6v1.1Z" class="g0_2381"/>
<path d="M685.9,1027.7h20.3v-1.1H685.9v1.1Z" class="g0_2381"/>
<path d="M706.2,1027.7h8.5v-1.1h-8.5v1.1Z" class="g0_2381"/>
<path d="M567.6,1050.6h31.3v-1.1H567.6v1.1Z" class="g0_2381"/>
<path d="M685.9,1050.6h20.3v-1.1H685.9v1.1Z" class="g0_2381"/>
<path d="M706.2,1050.6h8.5v-1.1h-8.5v1.1Z" class="g0_2381"/>
<path d="M95.9,789.5h.7V698.6h-.7v90.9Z" class="g0_2381"/>
<path d="M255.3,790.3h.7V697.9h-.7v92.4Z" class="g0_2381"/>
<path d="M332.6,790.3h.7V697.9h-.7v92.4Z" class="g0_2381"/>
<path d="M839.1,789.5h.7V698.6h-.7v90.9Z" class="g0_2381"/>
<path d="M95.9,698.6h744v-.7H95.9v.7Z" class="g0_2381"/>
<path d="M95.9,722.7h744v-3H95.9v3Z" class="g0_2381"/>
<path d="M95.9,744.4h744v-.7H95.9v.7Z" class="g0_2381"/>
<path d="M95.9,767.3h744v-.7H95.9v.7Z" class="g0_2381"/>
<path d="M95.9,790.3h744v-.8H95.9v.8Z" class="g0_2381"/>
</svg>