<?xml version="1.0" encoding="UTF-8" standalone="no"?>
<!DOCTYPE svg PUBLIC "-//W3C//DTD SVG 1.1//EN"
"http://www.w3.org/Graphics/SVG/1.1/DTD/svg11.dtd">
<svg viewBox="0 0 935 1210" version="1.1" xmlns="http://www.w3.org/2000/svg" xmlns:xlink="http://www.w3.org/1999/xlink">
<defs>
<clipPath id="c0_615"><path d="M69.6,532.2V502.7H853.1v29.5Z"/></clipPath>
<style type="text/css"><![CDATA[
.g0_615{
fill: #FFF;
}
.g1_615{
fill: #E6E6E6;
}
.g2_615{
fill: #000;
}
]]></style>
</defs>
<path d="M68.9,1149.3H852.7v-21.2H68.9v21.2Z" class="g0_615"/>
<path d="M69.6,187.9H199.8V165H69.6v22.9Z" class="g1_615"/>
<path clip-path="url(#c0_615)" d="M69.6,532.2H853.1V502.7H69.6v29.5Z" class="g0_615"/>
<path d="M70.5,525.6H124V513.2H70.5v12.4Z" class="g0_615"/>
<path d="M199.8,187.9h53.7V165H199.8v22.9Z" class="g1_615"/>
<path d="M253.5,187.9h162V165h-162v22.9Z" class="g1_615"/>
<path d="M415.5,187.9H853.1V165H415.5v22.9Z" class="g1_615"/>
<path d="M69.6,502.7H199.8V462.9H69.6v39.8Z" class="g1_615"/>
<path d="M199.8,502.7h53.7V462.9H199.8v39.8Z" class="g1_615"/>
<path d="M253.5,502.7H853.1V462.9H253.5v39.8Z" class="g1_615"/>
<path d="M69.2,502.2h.7V142.4h-.7V502.2Z" class="g2_615"/>
<path d="M199.5,503.1h.7V141.7h-.7V503.1Z" class="g2_615"/>
<path d="M253.1,503.1h.7V141.7h-.7V503.1Z" class="g2_615"/>
<path d="M415.2,503.1h.7V141.7h-.7V503.1Z" class="g2_615"/>
<path d="M852.8,502.2h.7V142.4h-.7V502.2Z" class="g2_615"/>
<path d="M69.2,142.4H853.5v-.7H69.2v.7Z" class="g2_615"/>
<path d="M69.2,165.4H853.5v-.8H69.2v.8Z" class="g2_615"/>
<path d="M69.2,188.3H853.5v-.7H69.2v.7Z" class="g2_615"/>
<path d="M199.5,211.2h654v-.7h-654v.7Z" class="g2_615"/>
<path d="M199.5,234.1h654v-.7h-654v.7Z" class="g2_615"/>
<path d="M199.5,257h654v-.7h-654v.7Z" class="g2_615"/>
<path d="M199.5,279.9h654v-.7h-654v.7Z" class="g2_615"/>
<path d="M199.5,302.9h654v-.8h-654v.8Z" class="g2_615"/>
<path d="M199.5,325.8h654v-.7h-654v.7Z" class="g2_615"/>
<path d="M199.5,348.7h654V348h-654v.7Z" class="g2_615"/>
<path d="M199.5,371.6h654v-.7h-654v.7Z" class="g2_615"/>
<path d="M199.5,394.5h654v-.7h-654v.7Z" class="g2_615"/>
<path d="M199.5,417.4h654v-.7h-654v.7Z" class="g2_615"/>
<path d="M199.5,440.4h654v-.8h-654v.8Z" class="g2_615"/>
<path d="M69.2,463.3H853.5v-.7H69.2v.7Z" class="g2_615"/>
<path d="M69.2,503.1H853.5v-.8H69.2v.8Z" class="g2_615"/>
<path d="M70.9,915.4h.7V738.9h-.7V915.4Z" class="g2_615"/>
<path d="M136.9,916.1h.7v-178h-.7v178Z" class="g2_615"/>
<path d="M302.8,916.1h.7v-178h-.7v178Z" class="g2_615"/>
<path d="M851.1,915.4h.8V738.9h-.8V915.4Z" class="g2_615"/>
<path d="M70.9,738.9h781v-.7H70.9v.7Z" class="g2_615"/>
<path d="M70.9,761.8h781v-.7H70.9v.7Z" class="g2_615"/>
<path d="M70.9,784.8h781V784H70.9v.8Z" class="g2_615"/>
<path d="M70.9,807.7h781v-.8H70.9v.8Z" class="g2_615"/>
<path d="M70.9,830.6h781v-.7H70.9v.7Z" class="g2_615"/>
<path d="M70.9,853.5h781v-.7H70.9v.7Z" class="g2_615"/>
<path d="M70.9,876.4h781v-.7H70.9v.7Z" class="g2_615"/>
<path d="M70.9,916.1h781v-.7H70.9v.7Z" class="g2_615"/>
</svg>