<?xml version="1.0" encoding="UTF-8" standalone="no"?>
<!DOCTYPE svg PUBLIC "-//W3C//DTD SVG 1.1//EN"
"http://www.w3.org/Graphics/SVG/1.1/DTD/svg11.dtd">
<svg viewBox="0 0 935 1210" version="1.1" xmlns="http://www.w3.org/2000/svg" xmlns:xlink="http://www.w3.org/1999/xlink">
<defs>
<style type="text/css"><![CDATA[
.g0_26{
fill: #000;
}
]]></style>
</defs>
<path d="M90.4,1079.7h.7V218.8h-.7v860.9Z" class="g0_26"/>
<path d="M250.7,1080.6h.7V218.1h-.7v862.5Z" class="g0_26"/>
<path d="M631.6,1080.6h.7V218.1h-.7v862.5Z" class="g0_26"/>
<path d="M843.9,1079.7h.7V218.8h-.7v860.9Z" class="g0_26"/>
<path d="M90.4,218.8H844.6v-.7H90.4v.7Z" class="g0_26"/>
<path d="M91.1,244.4H843.9v-.7H91.1v.7Z" class="g0_26"/>
<path d="M91.1,248.2H843.9v-.7H91.1v.7Z" class="g0_26"/>
<path d="M90.4,270.8H844.6v-.7H90.4v.7Z" class="g0_26"/>
<path d="M90.4,312H844.6v-.7H90.4v.7Z" class="g0_26"/>
<path d="M90.4,353.3H844.6v-.7H90.4v.7Z" class="g0_26"/>
<path d="M90.4,377.8H844.6V377H90.4v.8Z" class="g0_26"/>
<path d="M90.4,402.1H844.6v-.7H90.4v.7Z" class="g0_26"/>
<path d="M90.4,426.6H844.6v-.7H90.4v.7Z" class="g0_26"/>
<path d="M90.4,451.1H844.6v-.7H90.4v.7Z" class="g0_26"/>
<path d="M90.4,475.5H844.6v-.8H90.4v.8Z" class="g0_26"/>
<path d="M90.4,499.9H844.6v-.7H90.4v.7Z" class="g0_26"/>
<path d="M90.4,524.4H844.6v-.7H90.4v.7Z" class="g0_26"/>
<path d="M90.4,548.8H844.6v-.7H90.4v.7Z" class="g0_26"/>
<path d="M90.4,573.3H844.6v-.8H90.4v.8Z" class="g0_26"/>
<path d="M90.4,597.8H844.6V597H90.4v.8Z" class="g0_26"/>
<path d="M90.4,622.1H844.6v-.7H90.4v.7Z" class="g0_26"/>
<path d="M90.4,646.6H844.6v-.7H90.4v.7Z" class="g0_26"/>
<path d="M90.4,671.1H844.6v-.7H90.4v.7Z" class="g0_26"/>
<path d="M90.4,695.5H844.6v-.8H90.4v.8Z" class="g0_26"/>
<path d="M90.4,719.9H844.6v-.7H90.4v.7Z" class="g0_26"/>
<path d="M90.4,744.4H844.6v-.7H90.4v.7Z" class="g0_26"/>
<path d="M90.4,768.8H844.6v-.7H90.4v.7Z" class="g0_26"/>
<path d="M90.4,793.3H844.6v-.8H90.4v.8Z" class="g0_26"/>
<path d="M90.4,817.8H844.6V817H90.4v.8Z" class="g0_26"/>
<path d="M90.4,842.1H844.6v-.7H90.4v.7Z" class="g0_26"/>
<path d="M90.4,866.6H844.6v-.7H90.4v.7Z" class="g0_26"/>
<path d="M90.4,891.1H844.6v-.7H90.4v.7Z" class="g0_26"/>
<path d="M90.4,932.3H844.6v-.7H90.4v.7Z" class="g0_26"/>
<path d="M90.4,973.6H844.6v-.7H90.4v.7Z" class="g0_26"/>
<path d="M90.4,1014.8H844.6v-.7H90.4v.7Z" class="g0_26"/>
<path d="M90.4,1056.1H844.6v-.7H90.4v.7Z" class="g0_26"/>
<path d="M90.4,1080.6H844.6v-.8H90.4v.8Z" class="g0_26"/>
</svg>