<?xml version="1.0" encoding="UTF-8" standalone="no"?>
<!DOCTYPE svg PUBLIC "-//W3C//DTD SVG 1.1//EN"
"http://www.w3.org/Graphics/SVG/1.1/DTD/svg11.dtd">
<svg viewBox="0 0 935 1210" version="1.1" xmlns="http://www.w3.org/2000/svg" xmlns:xlink="http://www.w3.org/1999/xlink">
<defs>
<style type="text/css"><![CDATA[
.g0_4532{
fill: #FFF;
}
.g1_4532{
fill: #000;
}
]]></style>
</defs>
<path d="M68.8,1149.3H852.5v-21.2H68.8v21.2Z" class="g0_4532"/>
<path d="M66.9,1079.8h.8V124.1h-.8v955.7Z" class="g1_4532"/>
<path d="M121.6,1080.6h.8v-916h-.8v916Z" class="g1_4532"/>
<path d="M182.7,1080.6h.7V123.4h-.7v957.2Z" class="g1_4532"/>
<path d="M417.6,1080.6h.8V123.4h-.8v957.2Z" class="g1_4532"/>
<path d="M682.4,1080.6h.7V123.4h-.7v957.2Z" class="g1_4532"/>
<path d="M853.4,1079.8h.7V124.1h-.7v955.7Z" class="g1_4532"/>
<path d="M66.9,124.1H854.2v-.7H66.9v.7Z" class="g1_4532"/>
<path d="M66.9,165.4H183.4v-.8H66.9v.8Z" class="g1_4532"/>
<path d="M66.9,189.8H854.2v-.7H66.9v.7Z" class="g1_4532"/>
<path d="M182.6,264.6H854.2v-.7H182.6v.7Z" class="g1_4532"/>
<path d="M182.6,377.8H854.2V377H182.6v.8Z" class="g1_4532"/>
<path d="M66.9,402.2H854.2v-.7H66.9v.7Z" class="g1_4532"/>
<path d="M66.9,448.1H854.2v-.8H66.9v.8Z" class="g1_4532"/>
<path d="M66.9,493.9H854.2v-.7H66.9v.7Z" class="g1_4532"/>
<path d="M66.9,535.2H854.2v-.8H66.9v.8Z" class="g1_4532"/>
<path d="M66.9,576.4H854.2v-.7H66.9v.7Z" class="g1_4532"/>
<path d="M66.9,617.7H854.2v-.8H66.9v.8Z" class="g1_4532"/>
<path d="M66.9,658.9H854.2v-.7H66.9v.7Z" class="g1_4532"/>
<path d="M66.9,700.2H854.2v-.8H66.9v.8Z" class="g1_4532"/>
<path d="M66.9,741.4H854.2v-.7H66.9v.7Z" class="g1_4532"/>
<path d="M182.6,782.7H854.2v-.8H182.6v.8Z" class="g1_4532"/>
<path d="M66.9,823.9H854.2v-.7H66.9v.7Z" class="g1_4532"/>
<path d="M182.6,848.3H854.2v-.7H182.6v.7Z" class="g1_4532"/>
<path d="M182.6,889.5H854.2v-.7H182.6v.7Z" class="g1_4532"/>
<path d="M182.6,914H854.2v-.7H182.6v.7Z" class="g1_4532"/>
<path d="M66.9,1039.3H854.2v-.7H66.9v.7Z" class="g1_4532"/>
<path d="M66.9,1080.6H854.2v-.8H66.9v.8Z" class="g1_4532"/>
</svg>