<?xml version="1.0" encoding="UTF-8" standalone="no"?>
<!DOCTYPE svg PUBLIC "-//W3C//DTD SVG 1.1//EN"
"http://www.w3.org/Graphics/SVG/1.1/DTD/svg11.dtd">
<svg viewBox="0 0 935 1210" version="1.1" xmlns="http://www.w3.org/2000/svg" xmlns:xlink="http://www.w3.org/1999/xlink">
<defs>
<style type="text/css"><![CDATA[
.g0_3159{
fill: #FFF;
}
.g1_3159{
fill: #000;
}
.g2_3159{
fill: #E6E6E6;
}
]]></style>
</defs>
<path d="M68.9,1149.3H852.7v-21.2H68.9v21.2Z" class="g0_3159"/>
<path d="M171,749.1h.7V107.3H171V749.1Z" class="g1_3159"/>
<path d="M751,749.1h.8V107.3H751V749.1Z" class="g1_3159"/>
<path d="M171,107.3H751.8v-.7H171v.7Z" class="g1_3159"/>
<path d="M171,749.8H751.8v-.7H171v.7Z" class="g1_3159"/>
<path d="M379.7,210.2H392V163.3H379.7v46.9Z" class="g2_3159"/>
<path d="M560.6,163.3h.5v-.2h-.5v.2Z" class="g1_3159"/>
<path d="M560.6,210.2h.5V163.3h-.5v46.9Z" class="g1_3159"/>
<path d="M456.8,163.3h.4v-.2h-.4v.2Z" class="g1_3159"/>
<path d="M456.8,210.2h.4V163.3h-.4v46.9Z" class="g1_3159"/>
<path d="M469.3,163.3h.5v-.2h-.5v.2Z" class="g1_3159"/>
<path d="M469.3,210.2h.5V163.3h-.5v46.9Z" class="g1_3159"/>
<path d="M404.9,163.3h.5v-.2h-.5v.2Z" class="g1_3159"/>
<path d="M404.9,210.2h.5V163.3h-.5v46.9Z" class="g1_3159"/>
<path d="M495.7,163.3h.5v-.2h-.5v.2Z" class="g1_3159"/>
<path d="M495.7,210.2h.5V163.3h-.5v46.9Z" class="g1_3159"/>
<path d="M508.6,163.3h.4v-.2h-.4v.2Z" class="g1_3159"/>
<path d="M508.6,210.2h.4V163.3h-.4v46.9Z" class="g1_3159"/>
<path d="M456.8,230.7h.4v-.2h-.4v.2Z" class="g1_3159"/>
<path d="M456.8,277.7h.4v-47h-.4v47Z" class="g1_3159"/>
<path d="M249.6,163.6H663.9v-.7H249.6v.7Z" class="g1_3159"/>
<path d="M663.2,210.6h.7V163.3h-.7v47.3Z" class="g1_3159"/>
<path d="M249.2,210.6H663.6v-.8H249.2v.8Z" class="g1_3159"/>
<path d="M249.2,210.2h.8V162.9h-.8v47.3Z" class="g1_3159"/>
<path d="M392,163.3h.4v-.2H392v.2Z" class="g1_3159"/>
<path d="M392,210.2h.4V163.3H392v46.9Z" class="g1_3159"/>
<path d="M379.7,163.3h.4v-.2h-.4v.2Z" class="g1_3159"/>
<path d="M379.7,210.2h.4V163.3h-.4v46.9Z" class="g1_3159"/>
<path d="M366.8,163.3h.4v-.2h-.4v.2Z" class="g1_3159"/>
<path d="M366.8,210.2h.4V163.3h-.4v46.9Z" class="g1_3159"/>
<path d="M353.9,163.3h.5v-.2h-.5v.2Z" class="g1_3159"/>
<path d="M353.9,210.2h.5V163.3h-.5v46.9Z" class="g1_3159"/>
<path d="M249.6,230.9H663.9v-.7H249.6v.7Z" class="g1_3159"/>
<path d="M663.2,277.9h.7V230.5h-.7v47.4Z" class="g1_3159"/>
<path d="M249.2,277.9H663.6v-.7H249.2v.7Z" class="g1_3159"/>
<path d="M249.2,277.6h.8V230.2h-.8v47.4Z" class="g1_3159"/>
<path d="M521.1,192.2h.5V192h-.5v.2Z" class="g1_3159"/>
<path d="M521.1,210.2h.5v-18h-.5v18Z" class="g1_3159"/>
<path d="M533.8,192.2h.4V192h-.4v.2Z" class="g1_3159"/>
<path d="M533.8,210.2h.4v-18h-.4v18Z" class="g1_3159"/>
<path d="M546.4,192.2h.5V192h-.5v.2Z" class="g1_3159"/>
<path d="M546.4,210.2h.5v-18h-.5v18Z" class="g1_3159"/>
<path d="M379.7,376H392V329H379.7v47Z" class="g2_3159"/>
<path d="M560.6,329h.5v-.2h-.5v.2Z" class="g1_3159"/>
<path d="M560.6,375.9h.5V329h-.5v46.9Z" class="g1_3159"/>
<path d="M456.8,375.9h.4V328.8h-.4v47.1Z" class="g1_3159"/>
<path d="M469.3,375.9h.5V328.8h-.5v47.1Z" class="g1_3159"/>
<path d="M404.9,375.9h.5V328.8h-.5v47.1Z" class="g1_3159"/>
<path d="M495.7,375.9h.5V328.8h-.5v47.1Z" class="g1_3159"/>
<path d="M508.6,375.9h.4V328.8h-.4v47.1Z" class="g1_3159"/>
<path d="M456.8,443.4h.4V396.3h-.4v47.1Z" class="g1_3159"/>
<path d="M249.6,329.4H663.9v-.8H249.6v.8Z" class="g1_3159"/>
<path d="M663.2,376.4h.7V329h-.7v47.4Z" class="g1_3159"/>
<path d="M249.2,376.4H663.6v-.7H249.2v.7Z" class="g1_3159"/>
<path d="M249.2,376h.8V328.6h-.8V376Z" class="g1_3159"/>
<path d="M392,375.9h.4V328.8H392v47.1Z" class="g1_3159"/>
<path d="M379.7,375.9h.4V328.8h-.4v47.1Z" class="g1_3159"/>
<path d="M366.8,375.9h.4V328.8h-.4v47.1Z" class="g1_3159"/>
<path d="M353.9,375.9h.5V328.8h-.5v47.1Z" class="g1_3159"/>
<path d="M249.6,396.7H663.9V396H249.6v.7Z" class="g1_3159"/>
<path d="M663.2,443.7h.7V396.4h-.7v47.3Z" class="g1_3159"/>
<path d="M249.2,443.7H663.6v-.8H249.2v.8Z" class="g1_3159"/>
<path d="M249.2,443.3h.8V396h-.8v47.3Z" class="g1_3159"/>
<path d="M521.1,375.9h.5V357.8h-.5v18.1Z" class="g1_3159"/>
<path d="M533.8,375.9h.4V357.8h-.4v18.1Z" class="g1_3159"/>
<path d="M546.4,375.9h.5V357.8h-.5v18.1Z" class="g1_3159"/>
<path d="M367,543.5h37.9V496.6H367v46.9Z" class="g2_3159"/>
<path d="M560.6,543.4h.5v-47h-.5v47Z" class="g1_3159"/>
<path d="M456.8,543.4h.4v-47h-.4v47Z" class="g1_3159"/>
<path d="M469.3,543.4h.5v-47h-.5v47Z" class="g1_3159"/>
<path d="M404.9,543.4h.5v-47h-.5v47Z" class="g1_3159"/>
<path d="M495.7,543.4h.5v-47h-.5v47Z" class="g1_3159"/>
<path d="M508.6,543.4h.4v-47h-.4v47Z" class="g1_3159"/>
<path d="M456.8,610.9h.4V563.8h-.4v47.1Z" class="g1_3159"/>
<path d="M249.6,496.9H663.9v-.7H249.6v.7Z" class="g1_3159"/>
<path d="M663.2,543.9h.7V496.6h-.7v47.3Z" class="g1_3159"/>
<path d="M249.2,543.9H663.6v-.8H249.2v.8Z" class="g1_3159"/>
<path d="M249.2,543.5h.8V496.2h-.8v47.3Z" class="g1_3159"/>
<path d="M392,543.4h.4v-47H392v47Z" class="g1_3159"/>
<path d="M379.7,543.4h.4v-47h-.4v47Z" class="g1_3159"/>
<path d="M366.8,543.4h.4v-47h-.4v47Z" class="g1_3159"/>
<path d="M353.9,543.4h.5v-47h-.5v47Z" class="g1_3159"/>
<path d="M249.6,564.2H663.9v-.7H249.6v.7Z" class="g1_3159"/>
<path d="M663.2,611.1h.7V563.8h-.7v47.3Z" class="g1_3159"/>
<path d="M249.2,611.1H663.6v-.7H249.2v.7Z" class="g1_3159"/>
<path d="M249.2,610.8h.8V563.5h-.8v47.3Z" class="g1_3159"/>
<path d="M277.8,736H303V719.9H277.8V736Z" class="g2_3159"/>
<path d="M277.8,720.2h25.4v-.4H277.8v.4Z" class="g1_3159"/>
<path d="M302.8,736.3h.4V720h-.4v16.3Z" class="g1_3159"/>
<path d="M277.6,736.3H303v-.5H277.6v.5Z" class="g1_3159"/>
<path d="M277.6,736h.4V719.8h-.4V736Z" class="g1_3159"/>
<path d="M508.5,356.5h.3v-.7h-.3v.7Z" class="g1_3159"/>
<path d="M508.8,356.5h51.9v-.7H508.8v.7Z" class="g1_3159"/>
<path d="M508.5,191.3h.3v-.7h-.3v.7Z" class="g1_3159"/>
<path d="M508.8,191.3h51.9v-.7H508.8v.7Z" class="g1_3159"/>
</svg>