<?xml version="1.0" encoding="UTF-8" standalone="no"?>
<!DOCTYPE svg PUBLIC "-//W3C//DTD SVG 1.1//EN"
"http://www.w3.org/Graphics/SVG/1.1/DTD/svg11.dtd">
<svg viewBox="0 0 935 1210" version="1.1" xmlns="http://www.w3.org/2000/svg" xmlns:xlink="http://www.w3.org/1999/xlink">
<defs>
<style type="text/css"><![CDATA[
.g0_133{
fill: #000;
}
]]></style>
</defs>
<path d="M137.1,894.9h.8V290.7h-.8V894.9Z" class="g0_133"/>
<path d="M247.1,895.7h.8V289.8h-.8V895.7Z" class="g0_133"/>
<path d="M522.1,332.3h.8V289.8h-.8v42.5Z" class="g0_133"/>
<path d="M522.1,895.7h.8v-453h-.8v453Z" class="g0_133"/>
<path d="M797.1,894.9h.8V290.7h-.8V894.9Z" class="g0_133"/>
<path d="M137.1,290.7H797.9v-.8H137.1v.8Z" class="g0_133"/>
<path d="M137.9,333H797.1v-.7H137.9v.7Z" class="g0_133"/>
<path d="M137.9,336.9H797.1v-.8H137.9v.8Z" class="g0_133"/>
<path d="M137.1,443.4H797.9v-.7H137.1v.7Z" class="g0_133"/>
<path d="M137.1,736.7H797.9V736H137.1v.7Z" class="g0_133"/>
<path d="M137.1,895.7H797.9v-.8H137.1v.8Z" class="g0_133"/>
</svg>