<?xml version="1.0" encoding="UTF-8" standalone="no"?>
<!DOCTYPE svg PUBLIC "-//W3C//DTD SVG 1.1//EN"
"http://www.w3.org/Graphics/SVG/1.1/DTD/svg11.dtd">
<svg viewBox="0 0 935 1210" version="1.1" xmlns="http://www.w3.org/2000/svg" xmlns:xlink="http://www.w3.org/1999/xlink">
<defs>
<clipPath id="c0_563"><path d="M766.6,59.2V41.4h72.1V59.2Z"/></clipPath>
<clipPath id="c1_563"><path d="M173.4,1030.9V426.6H838.8v604.3Z"/></clipPath>
<style type="text/css"><![CDATA[
.g0_563{
fill: #000;
}
.g1_563{
fill: #231F20;
}
.g2_563{
fill: none;
stroke: #231F20;
stroke-width: 1.527;
}
.g3_563{
fill: #FFF;
}
.g4_563{
fill: none;
stroke: #231F20;
stroke-width: 0.763;
}
.g5_563{
fill: #E7E8E8;
}
.g6_563{
fill: none;
stroke: #231F20;
stroke-width: 0.763;
stroke-dasharray: 4,5;
}
]]></style>
</defs>
<path d="M97.3,62.9v.3H839.9v-.3H97.3Z" class="g0_563"/>
<path d="M96.2,1114.1h-.1v.3h.1v-.3Z" class="g0_563"/>
<path d="M838.7,1114.1h.2v.3h-.2v-.3Z" class="g0_563"/>
<path d="M96.2,1114.1v.3H838.7v-.3H96.2Z" class="g0_563"/>
<image clip-path="url(#c0_563)" preserveAspectRatio="none" x="767" y="41" width="72" height="18" xlink:href="img/1.jpg"/>
<path d="M275.1,621.4H398.4V576.5H275.1v44.9Z" class="g1_563"/>
<path d="M398.4,621.4H275.1V576.5H398.4v44.9Z" class="g2_563"/>
<path d="M272.9,619.2H396.2V574.3H272.9v44.9Z" class="g3_563"/>
<path d="M396.2,619.2H272.9V574.3H396.2v44.9Z" class="g2_563"/>
<path d="M272.9,596.8H396.2Z" class="g3_563"/>
<path d="M272.9,596.8H396.2" class="g4_563"/>
<path d="M334.6,574.3v22.5Z" class="g3_563"/>
<path d="M334.6,574.3v22.5" class="g4_563"/>
<path d="M419.6,502.9c0,8.1,-6.6,14.7,-14.8,14.7c-8.1,0,-14.7,-6.6,-14.7,-14.7c0,-8.2,6.6,-14.8,14.7,-14.8c8.2,0,14.8,6.6,14.8,14.8Z" class="g3_563"/>
<path d="M419.6,502.9c0,8.1,-6.6,14.7,-14.8,14.7c-8.1,0,-14.7,-6.6,-14.7,-14.7c0,-8.2,6.6,-14.8,14.7,-14.8c8.2,0,14.8,6.6,14.8,14.8Z" class="g2_563"/>
<path d="M227.3,485.1H350.5V462.7H227.3v22.4Z" class="g1_563"/>
<path d="M227.3,485.1H350.5V462.7H227.3v22.4Z" class="g4_563"/>
<path d="M225.1,482.9H348.3V460.5H225.1v22.4Z" class="g3_563"/>
<path d="M225.1,482.9H348.3V460.5H225.1v22.4Z" class="g2_563"/>
<path d="M303,460.5v22.4m23.4,2.2v8.5h59.1" class="g4_563"/>
<path d="M384.4,497.5l6.6,-3.8l-6.6,-3.9v7.7Z" class="g1_563"/>
<path d="M227.3,545.8H350.5V523.3H227.3v22.5Z" class="g1_563"/>
<path d="M227.3,545.8H350.5V523.3H227.3v22.5Z" class="g2_563"/>
<path d="M225.1,543.6H348.3V521.1H225.1v22.5Z" class="g3_563"/>
<path d="M225.1,543.6H348.3V521.1H225.1v22.5Z" class="g2_563"/>
<path d="M303,521.1v22.5M326.4,520v-8.5h59.1" class="g4_563"/>
<path d="M384.4,515.3l6.6,-3.8l-6.6,-3.8v7.6Z" class="g1_563"/>
<path d="M244.9,545.8v73.4h21.4" class="g4_563"/>
<path d="M265.2,623l6.6,-3.8l-6.6,-3.8V623Z" class="g1_563"/>
<g clip-path="url(#c1_563)">
<path d="M644.8,665.9H756.2V426.6H644.8V665.9Z" class="g5_563"/>
<path d="M644.8,426.6V665.9M756.2,426.6V665.9" class="g2_563"/>
</g>
<path d="M645,610H756V497.9H645V610Z" class="g3_563"/>
<path d="M756,610H645V497.9H756V610Z" class="g2_563"/>
<path d="M275.1,956H398.4V911.1H275.1V956Z" class="g1_563"/>
<path d="M398.4,956H275.1V911.1H398.4V956Z" class="g2_563"/>
<path d="M272.9,953.8H396.2V908.9H272.9v44.9Z" class="g3_563"/>
<path d="M396.2,953.8H272.9V908.9H396.2v44.9Z" class="g2_563"/>
<path d="M272.9,931.4H396.2Z" class="g3_563"/>
<path d="M272.9,931.4H396.2" class="g4_563"/>
<path d="M334.6,908.9v22.5Z" class="g3_563"/>
<path d="M334.6,908.9v22.5" class="g4_563"/>
<path d="M419.6,837.5c0,8.1,-6.6,14.7,-14.8,14.7c-8.1,0,-14.7,-6.6,-14.7,-14.7c0,-8.2,6.6,-14.8,14.7,-14.8c8.2,0,14.8,6.6,14.8,14.8Z" class="g3_563"/>
<path d="M419.6,837.5c0,8.1,-6.6,14.7,-14.8,14.7c-8.1,0,-14.7,-6.6,-14.7,-14.7c0,-8.2,6.6,-14.8,14.7,-14.8c8.2,0,14.8,6.6,14.8,14.8Z" class="g2_563"/>
<path d="M227.3,819.7H350.5V797.3H227.3v22.4Z" class="g1_563"/>
<path d="M227.3,819.7H350.5V797.3H227.3v22.4Z" class="g4_563"/>
<path d="M225.1,817.5H348.3V795.1H225.1v22.4Z" class="g3_563"/>
<path d="M225.1,817.5H348.3V795.1H225.1v22.4Z" class="g2_563"/>
<path d="M303,795.1v22.4m23.4,2.2v8.5h59.1" class="g4_563"/>
<path d="M384.4,832.1l6.6,-3.8l-6.6,-3.9v7.7Z" class="g1_563"/>
<path d="M227.3,880.4H350.5V857.9H227.3v22.5Z" class="g1_563"/>
<path d="M227.3,880.4H350.5V857.9H227.3v22.5Z" class="g2_563"/>
<path d="M225.1,878.1H348.3V855.7H225.1v22.4Z" class="g3_563"/>
<path d="M225.1,878.1H348.3V855.7H225.1v22.4Z" class="g2_563"/>
<path d="M303,855.7v22.5m23.4,-23.6v-8.5h59.1" class="g4_563"/>
<path d="M384.4,849.9l6.6,-3.8l-6.6,-3.8v7.6Z" class="g1_563"/>
<path d="M244.9,880.4v73.4h21.4" class="g4_563"/>
<path d="M265.2,957.6l6.6,-3.8L265.2,950v7.6Z" class="g1_563"/>
<path d="M644.8,1000.5H756.2V761.2H644.8v239.3Z" class="g5_563"/>
<path d="M644.8,761.2v239.3M756.2,761.2v239.3" class="g2_563"/>
<path d="M645,944.6H756V832.5H645V944.6Z" class="g3_563"/>
<path d="M756,944.6H645V832.5H756V944.6Z" class="g2_563"/>
<path d="M398.4,588.1h6.4V523.9" class="g4_563"/>
<path d="M408.7,525l-3.8,-6.6l-3.8,6.6h7.6Z" class="g1_563"/>
<path d="M398.4,921.6h6.4V857.4" class="g4_563"/>
<path d="M408.7,858.6L404.9,852l-3.8,6.6h7.6Z" class="g1_563"/>
<path d="M419.6,837.5h72.5v49H637" class="g6_563"/>
<path d="M635.9,890.4l6.6,-3.9l-6.6,-3.8v7.7Z" class="g1_563"/>
<path d="M419.6,502.5h72.5v49.1H637" class="g4_563"/>
<path d="M635.9,555.4l6.6,-3.8l-6.6,-3.8v7.6Z" class="g1_563"/>
</svg>