<?xml version="1.0" encoding="UTF-8" standalone="no"?>
<!DOCTYPE svg PUBLIC "-//W3C//DTD SVG 1.1//EN"
"http://www.w3.org/Graphics/SVG/1.1/DTD/svg11.dtd">
<svg viewBox="0 0 935 1210" version="1.1" xmlns="http://www.w3.org/2000/svg" xmlns:xlink="http://www.w3.org/1999/xlink">
<defs>
<clipPath id="c0_1744"><path d="M766.6,59.2V41.4h72.1V59.2Z"/></clipPath>
<style type="text/css"><![CDATA[
.g0_1744{
fill: #000;
}
]]></style>
</defs>
<path d="M97.3,62.9v.3H839.9v-.3H97.3Z" class="g0_1744"/>
<path d="M96.2,1114.1h-.1v.4h.1v-.4Z" class="g0_1744"/>
<path d="M838.7,1114.1h.2v.4h-.2v-.4Z" class="g0_1744"/>
<path d="M96.2,1114.1v.4H838.7v-.4H96.2Z" class="g0_1744"/>
<image clip-path="url(#c0_1744)" preserveAspectRatio="none" x="767" y="41" width="72" height="18" xlink:href="img/1.jpg"/>
<path d="M96.6,366.7h-.7V499.2h.7V366.7Z" class="g0_1744"/>
<path d="M137.9,363.6h-.8v93.5h.8V363.6Z" class="g0_1744"/>
<path d="M179.1,363.6h-.7v93.5h.7V363.6Z" class="g0_1744"/>
<path d="M220.4,363.6h-.8v93.5h.8V363.6Z" class="g0_1744"/>
<path d="M261.6,363.6h-.7v93.5h.7V363.6Z" class="g0_1744"/>
<path d="M302.9,363.6h-.8v93.5h.8V363.6Z" class="g0_1744"/>
<path d="M344.1,363.6h-.7v93.5h.7V363.6Z" class="g0_1744"/>
<path d="M385.4,363.6h-.8v93.5h.8V363.6Z" class="g0_1744"/>
<path d="M467.9,363.6h-.8v93.5h.8V363.6Z" class="g0_1744"/>
<path d="M509.1,363.6h-.7v93.5h.7V363.6Z" class="g0_1744"/>
<path d="M550.4,363.6h-.8v93.5h.8V363.6Z" class="g0_1744"/>
<path d="M591.6,363.6h-.7v93.5h.7V363.6Z" class="g0_1744"/>
<path d="M632.9,363.6h-.8v93.5h.8V363.6Z" class="g0_1744"/>
<path d="M674.1,363.6h-.7v93.5h.7V363.6Z" class="g0_1744"/>
<path d="M715.3,363.6h-.7v93.5h.7V363.6Z" class="g0_1744"/>
<path d="M756.6,363.6h-.7v93.5h.7V363.6Z" class="g0_1744"/>
<path d="M797.8,363.6h-.7v93.5h.7V363.6Z" class="g0_1744"/>
<path d="M839.1,366.7h-.7V499.2h.7V366.7Z" class="g0_1744"/>
<path d="M95.9,363.6v3.1H839.1v-3.1H95.9Z" class="g0_1744"/>
<path d="M95.9,394.2v3.1H839.1v-3.1H95.9Z" class="g0_1744"/>
<path d="M95.9,425.9v.7H839.1v-.7H95.9Z" class="g0_1744"/>
<path d="M95.9,456.4v.7H839.1v-.7H95.9Z" class="g0_1744"/>
<path d="M95.9,499.2v.7H839.1v-.7H95.9Z" class="g0_1744"/>
<path d="M96.6,550h-.7V758.9h.7V550Z" class="g0_1744"/>
<path d="M274.1,547h-.8V759.7h.8V547Z" class="g0_1744"/>
<path d="M322,547h-.7V759.7h.7V547Z" class="g0_1744"/>
<path d="M388.7,547h-.8V759.7h.8V547Z" class="g0_1744"/>
<path d="M472.3,547h-.8V759.7h.8V547Z" class="g0_1744"/>
<path d="M840.7,550H840V758.9h.7V550Z" class="g0_1744"/>
<path d="M95.9,547v3H840.7v-3H95.9Z" class="g0_1744"/>
<path d="M95.9,589.8v3H840.7v-3H95.9Z" class="g0_1744"/>
<path d="M273.3,645.9v.7H840.7v-.7H273.3Z" class="g0_1744"/>
<path d="M95.9,670.3v.8H840.7v-.8H95.9Z" class="g0_1744"/>
<path d="M273.3,710v.8H840.7V710H273.3Z" class="g0_1744"/>
<path d="M273.3,734.5v.7H840.7v-.7H273.3Z" class="g0_1744"/>
<path d="M95.9,758.9v.7H840.7v-.7H95.9Z" class="g0_1744"/>
</svg>