<?xml version="1.0" encoding="UTF-8" standalone="no"?>
<!DOCTYPE svg PUBLIC "-//W3C//DTD SVG 1.1//EN"
"http://www.w3.org/Graphics/SVG/1.1/DTD/svg11.dtd">
<svg viewBox="0 0 935 1210" version="1.1" xmlns="http://www.w3.org/2000/svg" xmlns:xlink="http://www.w3.org/1999/xlink">
<defs>
<clipPath id="c0_1148"><path d="M97.3,59.2V41.4h72.1V59.2Z"/></clipPath>
<style type="text/css"><![CDATA[
.g0_1148{
fill: #000;
}
]]></style>
</defs>
<path d="M96.2,62.9v.3H838.7v-.3H96.2Z" class="g0_1148"/>
<path d="M96.2,1114.1h-.1v.3h.1v-.3Z" class="g0_1148"/>
<path d="M838.7,1114.1h.2v.3h-.2v-.3Z" class="g0_1148"/>
<path d="M96.2,1114.1v.3H838.7v-.3H96.2Z" class="g0_1148"/>
<image clip-path="url(#c0_1148)" preserveAspectRatio="none" x="97" y="41" width="72" height="18" xlink:href="img/1.jpg"/>
<path d="M173,358.4h-.8V431h.8V358.4Z" class="g0_1148"/>
<path d="M410.7,357.7h-.8v74h.8v-74Z" class="g0_1148"/>
<path d="M762.7,358.4H762V431h.7V358.4Z" class="g0_1148"/>
<path d="M172.2,357.7v.7H762.7v-.7H172.2Z" class="g0_1148"/>
<path d="M172.2,382.1v.7H762.7v-.7H172.2Z" class="g0_1148"/>
<path d="M172.2,406.5v.8H762.7v-.8H172.2Z" class="g0_1148"/>
<path d="M172.2,431v.7H762.7V431H172.2Z" class="g0_1148"/>
<path d="M65.6,151.2h3.1v944.7H65.6V151.2Z" class="g0_1148"/>
</svg>