<?xml version="1.0" encoding="UTF-8" standalone="no"?>
<!DOCTYPE svg PUBLIC "-//W3C//DTD SVG 1.1//EN"
"http://www.w3.org/Graphics/SVG/1.1/DTD/svg11.dtd">
<svg viewBox="0 0 935 1210" version="1.1" xmlns="http://www.w3.org/2000/svg" xmlns:xlink="http://www.w3.org/1999/xlink">
<defs>
<style type="text/css"><![CDATA[
.g0_444{
fill: #FFF;
}
.g1_444{
fill: #000;
}
]]></style>
</defs>
<path d="M68.8,1149.3H852.5v-21.2H68.8v21.2Z" class="g0_444"/>
<path d="M68.7,1098.2h.7V124.1h-.7v974.1Z" class="g1_444"/>
<path d="M234.2,1098.9h.7V123.4h-.7v975.5Z" class="g1_444"/>
<path d="M627.3,1098.9h.7V123.4h-.7v975.5Z" class="g1_444"/>
<path d="M664.7,1098.9h.7V123.4h-.7v975.5Z" class="g1_444"/>
<path d="M702.1,1098.9h.7V123.4h-.7v975.5Z" class="g1_444"/>
<path d="M739.5,1098.9h.7V123.4h-.7v975.5Z" class="g1_444"/>
<path d="M776.9,1098.9h.7V123.4h-.7v975.5Z" class="g1_444"/>
<path d="M814.3,1098.9h.7V123.4h-.7v975.5Z" class="g1_444"/>
<path d="M851.7,1098.2h.7V124.1h-.7v974.1Z" class="g1_444"/>
<path d="M68.7,124.1H852.4v-.7H68.7v.7Z" class="g1_444"/>
<path d="M68.7,148.6H852.4v-.7H68.7v.7Z" class="g1_444"/>
<path d="M68.7,189.8H852.4v-.7H68.7v.7Z" class="g1_444"/>
<path d="M68.7,214.2H852.4v-.7H68.7v.7Z" class="g1_444"/>
<path d="M68.7,255.5H852.4v-.8H68.7v.8Z" class="g1_444"/>
<path d="M68.7,296.7H852.4V296H68.7v.7Z" class="g1_444"/>
<path d="M68.7,354.8H852.4v-.7H68.7v.7Z" class="g1_444"/>
<path d="M68.7,396.1H852.4v-.7H68.7v.7Z" class="g1_444"/>
<path d="M68.7,437.3H852.4v-.7H68.7v.7Z" class="g1_444"/>
<path d="M68.7,461.8H852.4v-.7H68.7v.7Z" class="g1_444"/>
<path d="M68.7,486.2H852.4v-.7H68.7v.7Z" class="g1_444"/>
<path d="M68.7,510.7H852.4v-.8H68.7v.8Z" class="g1_444"/>
<path d="M68.7,535.2H852.4v-.8H68.7v.8Z" class="g1_444"/>
<path d="M68.7,559.5H852.4v-.7H68.7v.7Z" class="g1_444"/>
<path d="M68.7,584H852.4v-.7H68.7v.7Z" class="g1_444"/>
<path d="M68.7,608.5H852.4v-.8H68.7v.8Z" class="g1_444"/>
<path d="M68.7,632.9H852.4v-.8H68.7v.8Z" class="g1_444"/>
<path d="M68.7,657.3H852.4v-.7H68.7v.7Z" class="g1_444"/>
<path d="M68.7,698.6H852.4v-.7H68.7v.7Z" class="g1_444"/>
<path d="M68.7,723.1H852.4v-.8H68.7v.8Z" class="g1_444"/>
<path d="M68.7,764.3H852.4v-.7H68.7v.7Z" class="g1_444"/>
<path d="M68.7,788.7H852.4V788H68.7v.7Z" class="g1_444"/>
<path d="M68.7,830H852.4v-.8H68.7v.8Z" class="g1_444"/>
<path d="M68.7,854.4H852.4v-.7H68.7v.7Z" class="g1_444"/>
<path d="M68.7,878.9H852.4v-.7H68.7v.7Z" class="g1_444"/>
<path d="M68.7,903.3H852.4v-.7H68.7v.7Z" class="g1_444"/>
<path d="M68.7,927.8H852.4V927H68.7v.8Z" class="g1_444"/>
<path d="M68.7,952.2H852.4v-.7H68.7v.7Z" class="g1_444"/>
<path d="M68.7,976.6H852.4v-.7H68.7v.7Z" class="g1_444"/>
<path d="M68.7,1001.1H852.4v-.7H68.7v.7Z" class="g1_444"/>
<path d="M68.7,1025.6H852.4v-.8H68.7v.8Z" class="g1_444"/>
<path d="M68.7,1050H852.4v-.8H68.7v.8Z" class="g1_444"/>
<path d="M68.7,1074.4H852.4v-.7H68.7v.7Z" class="g1_444"/>
<path d="M68.7,1098.9H852.4v-.7H68.7v.7Z" class="g1_444"/>
</svg>