<?xml version="1.0" encoding="UTF-8" standalone="no"?>
<!DOCTYPE svg PUBLIC "-//W3C//DTD SVG 1.1//EN"
"http://www.w3.org/Graphics/SVG/1.1/DTD/svg11.dtd">
<svg viewBox="0 0 935 1210" version="1.1" xmlns="http://www.w3.org/2000/svg" xmlns:xlink="http://www.w3.org/1999/xlink">
<defs>
<style type="text/css"><![CDATA[
.g0_2450{
fill: #FFF;
}
.g1_2450{
fill: #000;
}
]]></style>
</defs>
<path d="M68.8,1149.3H852.5v-21.2H68.8v21.2Z" class="g0_2450"/>
<path d="M68.6,1076.7h.7V107.3h-.7v969.4Z" class="g1_2450"/>
<path d="M443.8,131.8h.8V106.6h-.8v25.2Z" class="g1_2450"/>
<path d="M443.8,205.2h.8V155.5h-.8v49.7Z" class="g1_2450"/>
<path d="M443.8,278.5h.8V228.8h-.8v49.7Z" class="g1_2450"/>
<path d="M443.8,368.6h.8V302.1h-.8v66.5Z" class="g1_2450"/>
<path d="M443.8,441.9h.8V392.2h-.8v49.7Z" class="g1_2450"/>
<path d="M443.8,515.3h.8V465.6h-.8v49.7Z" class="g1_2450"/>
<path d="M443.8,588.6h.8V538.9h-.8v49.7Z" class="g1_2450"/>
<path d="M443.8,661.9h.8V612.2h-.8v49.7Z" class="g1_2450"/>
<path d="M443.8,735.3h.8V685.6h-.8v49.7Z" class="g1_2450"/>
<path d="M443.8,808.6h.8V758.9h-.8v49.7Z" class="g1_2450"/>
<path d="M443.8,881.9h.8V832.3h-.8v49.6Z" class="g1_2450"/>
<path d="M443.8,955.3h.8V905.7h-.8v49.6Z" class="g1_2450"/>
<path d="M443.8,1028.6h.8V979h-.8v49.6Z" class="g1_2450"/>
<path d="M443.8,1077.5h.8v-25.2h-.8v25.2Z" class="g1_2450"/>
<path d="M849.9,1076.7h.8V107.3h-.8v969.4Z" class="g1_2450"/>
<path d="M68.6,107.3H850.7v-.7H68.6v.7Z" class="g1_2450"/>
<path d="M68.6,131.7H850.7V131H68.6v.7Z" class="g1_2450"/>
<path d="M68.6,156.2H850.7v-.7H68.6v.7Z" class="g1_2450"/>
<path d="M68.6,180.7H850.7v-.8H68.6v.8Z" class="g1_2450"/>
<path d="M68.6,205.1H850.7v-.8H68.6v.8Z" class="g1_2450"/>
<path d="M68.6,229.5H850.7v-.7H68.6v.7Z" class="g1_2450"/>
<path d="M68.6,254H850.7v-.7H68.6v.7Z" class="g1_2450"/>
<path d="M68.6,278.4H850.7v-.7H68.6v.7Z" class="g1_2450"/>
<path d="M68.6,302.9H850.7v-.8H68.6v.8Z" class="g1_2450"/>
<path d="M68.6,344.1H850.7v-.7H68.6v.7Z" class="g1_2450"/>
<path d="M68.6,368.6H850.7v-.7H68.6v.7Z" class="g1_2450"/>
<path d="M68.6,393H850.7v-.8H68.6v.8Z" class="g1_2450"/>
<path d="M68.6,417.4H850.7v-.7H68.6v.7Z" class="g1_2450"/>
<path d="M68.6,441.9H850.7v-.7H68.6v.7Z" class="g1_2450"/>
<path d="M68.6,466.4H850.7v-.7H68.6v.7Z" class="g1_2450"/>
<path d="M68.6,490.8H850.7v-.7H68.6v.7Z" class="g1_2450"/>
<path d="M68.6,515.3H850.7v-.8H68.6v.8Z" class="g1_2450"/>
<path d="M68.6,539.7H850.7V539H68.6v.7Z" class="g1_2450"/>
<path d="M68.6,564.1H850.7v-.7H68.6v.7Z" class="g1_2450"/>
<path d="M68.6,588.6H850.7v-.7H68.6v.7Z" class="g1_2450"/>
<path d="M68.6,613.1H850.7v-.8H68.6v.8Z" class="g1_2450"/>
<path d="M68.6,637.4H850.7v-.7H68.6v.7Z" class="g1_2450"/>
<path d="M68.6,661.9H850.7v-.7H68.6v.7Z" class="g1_2450"/>
<path d="M68.6,686.4H850.7v-.7H68.6v.7Z" class="g1_2450"/>
<path d="M68.6,710.8H850.7v-.7H68.6v.7Z" class="g1_2450"/>
<path d="M68.6,735.3H850.7v-.8H68.6v.8Z" class="g1_2450"/>
<path d="M68.6,759.7H850.7V759H68.6v.7Z" class="g1_2450"/>
<path d="M68.6,784.1H850.7v-.7H68.6v.7Z" class="g1_2450"/>
<path d="M68.6,808.6H850.7v-.7H68.6v.7Z" class="g1_2450"/>
<path d="M68.6,833.1H850.7v-.8H68.6v.8Z" class="g1_2450"/>
<path d="M68.6,857.5H850.7v-.8H68.6v.8Z" class="g1_2450"/>
<path d="M68.6,881.9H850.7v-.7H68.6v.7Z" class="g1_2450"/>
<path d="M68.6,906.4H850.7v-.7H68.6v.7Z" class="g1_2450"/>
<path d="M68.6,930.8H850.7v-.7H68.6v.7Z" class="g1_2450"/>
<path d="M68.6,955.3H850.7v-.8H68.6v.8Z" class="g1_2450"/>
<path d="M68.6,979.7H850.7V979H68.6v.7Z" class="g1_2450"/>
<path d="M68.6,1004.1H850.7v-.7H68.6v.7Z" class="g1_2450"/>
<path d="M68.6,1028.6H850.7v-.7H68.6v.7Z" class="g1_2450"/>
<path d="M68.6,1053.1H850.7v-.8H68.6v.8Z" class="g1_2450"/>
<path d="M68.6,1077.5H850.7v-.8H68.6v.8Z" class="g1_2450"/>
</svg>