<?xml version="1.0" encoding="UTF-8" standalone="no"?>
<!DOCTYPE svg PUBLIC "-//W3C//DTD SVG 1.1//EN"
"http://www.w3.org/Graphics/SVG/1.1/DTD/svg11.dtd">
<svg viewBox="0 0 935 1210" version="1.1" xmlns="http://www.w3.org/2000/svg" xmlns:xlink="http://www.w3.org/1999/xlink">
<defs>
<style type="text/css"><![CDATA[
.g0_1487{
fill: #FFF;
}
.g1_1487{
fill: #000;
}
]]></style>
</defs>
<path d="M68.9,1149.3H755.2v-21.2H68.9v21.2Z" class="g0_1487"/>
<path d="M771.3,1149.3H855v-21.2H771.3v21.2Z" class="g0_1487"/>
<path d="M69.9,517.6h.8V125.7h-.8V517.6Z" class="g1_1487"/>
<path d="M280.8,518.3h.7V124.9h-.7V518.3Z" class="g1_1487"/>
<path d="M326.6,518.3h.7V124.9h-.7V518.3Z" class="g1_1487"/>
<path d="M401,518.3h.8V124.9H401V518.3Z" class="g1_1487"/>
<path d="M484.2,518.3h.7V124.9h-.7V518.3Z" class="g1_1487"/>
<path d="M850.7,517.6h.7V125.7h-.7V517.6Z" class="g1_1487"/>
<path d="M69.9,125.7H851.4v-.8H69.9v.8Z" class="g1_1487"/>
<path d="M69.9,179.1H851.4v-.7H69.9v.7Z" class="g1_1487"/>
<path d="M69.9,235.7H851.4v-.8H69.9v.8Z" class="g1_1487"/>
<path d="M69.9,292.1H851.4v-.7H69.9v.7Z" class="g1_1487"/>
<path d="M69.9,348.7H851.4V348H69.9v.7Z" class="g1_1487"/>
<path d="M69.9,405.3H851.4v-.8H69.9v.8Z" class="g1_1487"/>
<path d="M69.9,461.8H851.4v-.7H69.9v.7Z" class="g1_1487"/>
<path d="M69.9,518.3H851.4v-.7H69.9v.7Z" class="g1_1487"/>
<path d="M69.9,621.4h.8V573.3h-.8v48.1Z" class="g1_1487"/>
<path d="M144.7,622.2h.7V572.6h-.7v49.6Z" class="g1_1487"/>
<path d="M235.9,622.2h.7V572.6h-.7v49.6Z" class="g1_1487"/>
<path d="M381.3,622.2h.8V572.6h-.8v49.6Z" class="g1_1487"/>
<path d="M537.7,622.2h.8V572.6h-.8v49.6Z" class="g1_1487"/>
<path d="M697.3,622.2h.7V572.6h-.7v49.6Z" class="g1_1487"/>
<path d="M850.6,621.4h.7V573.3h-.7v48.1Z" class="g1_1487"/>
<path d="M69.9,573.3H851.3v-.7H69.9v.7Z" class="g1_1487"/>
<path d="M69.9,597.8H851.3V597H69.9v.8Z" class="g1_1487"/>
<path d="M69.9,622.2H851.3v-.7H69.9v.7Z" class="g1_1487"/>
</svg>