<?xml version="1.0" encoding="UTF-8" standalone="no"?>
<!DOCTYPE svg PUBLIC "-//W3C//DTD SVG 1.1//EN"
"http://www.w3.org/Graphics/SVG/1.1/DTD/svg11.dtd">
<svg viewBox="0 0 935 1210" version="1.1" xmlns="http://www.w3.org/2000/svg" xmlns:xlink="http://www.w3.org/1999/xlink">
<defs>
<style type="text/css"><![CDATA[
.g0_4179{
fill: #FFF;
}
.g1_4179{
fill: #000;
}
]]></style>
</defs>
<path d="M68.9,1149.3H852.7v-21.2H68.9v21.2Z" class="g0_4179"/>
<path d="M69.9,1056.9h.8V677.2h-.8v379.7Z" class="g1_4179"/>
<path d="M134,1057.7h.8V676.4H134v381.3Z" class="g1_4179"/>
<path d="M227.3,1057.7h.8V676.4h-.8v381.3Z" class="g1_4179"/>
<path d="M294.8,1057.7h.7V676.4h-.7v381.3Z" class="g1_4179"/>
<path d="M846.3,1056.9h.7V677.2h-.7v379.7Z" class="g1_4179"/>
<path d="M69.9,677.2H847v-.7H69.9v.7Z" class="g1_4179"/>
<path d="M69.9,701.6H847v-.7H69.9v.7Z" class="g1_4179"/>
<path d="M69.9,852.9H847v-.8H69.9v.8Z" class="g1_4179"/>
<path d="M69.9,920.2H847v-.8H69.9v.8Z" class="g1_4179"/>
<path d="M69.9,966H847v-.8H69.9v.8Z" class="g1_4179"/>
<path d="M69.9,1011.8H847v-.7H69.9v.7Z" class="g1_4179"/>
<path d="M69.9,1057.7H847v-.8H69.9v.8Z" class="g1_4179"/>
</svg>