<?xml version="1.0" encoding="UTF-8" standalone="no"?>
<!DOCTYPE svg PUBLIC "-//W3C//DTD SVG 1.1//EN"
"http://www.w3.org/Graphics/SVG/1.1/DTD/svg11.dtd">
<svg viewBox="0 0 935 1210" version="1.1" xmlns="http://www.w3.org/2000/svg" xmlns:xlink="http://www.w3.org/1999/xlink">
<defs>
<style type="text/css"><![CDATA[
.g0_291{
fill: #FFF;
}
.g1_291{
fill: #000;
}
]]></style>
</defs>
<path d="M68.9,1149.3H852.7v-21.2H68.9v21.2Z" class="g0_291"/>
<path d="M69.9,1087.4h.8v-945h-.8v945Z" class="g1_291"/>
<path d="M126.7,1088.2h.7V183h-.7v905.2Z" class="g1_291"/>
<path d="M183.4,1088.2h.8V141.7h-.8v946.5Z" class="g1_291"/>
<path d="M427.6,1088.2h.8V141.7h-.8v946.5Z" class="g1_291"/>
<path d="M521.1,1088.2h.8V141.7h-.8v946.5Z" class="g1_291"/>
<path d="M854,1087.4h.7v-945H854v945Z" class="g1_291"/>
<path d="M69.9,142.4H854.7v-.7H69.9v.7Z" class="g1_291"/>
<path d="M69.9,183.7H184.2V183H69.9v.7Z" class="g1_291"/>
<path d="M69.9,208.2H854.7v-.8H69.9v.8Z" class="g1_291"/>
<path d="M183.4,309H854.7v-.7H183.4v.7Z" class="g1_291"/>
<path d="M183.4,409.8H854.7v-.7H183.4v.7Z" class="g1_291"/>
<path d="M183.4,510.7H854.7v-.8H183.4v.8Z" class="g1_291"/>
<path d="M183.4,611.5H854.7v-.7H183.4v.7Z" class="g1_291"/>
<path d="M183.4,636H854.7v-.8H183.4v.8Z" class="g1_291"/>
<path d="M183.4,736.8H854.7v-.7H183.4v.7Z" class="g1_291"/>
<path d="M183.4,837.7H854.7v-.8H183.4v.8Z" class="g1_291"/>
<path d="M183.4,862H854.7v-.7H183.4v.7Z" class="g1_291"/>
<path d="M183.4,962.9H854.7v-.8H183.4v.8Z" class="g1_291"/>
<path d="M183.4,987.3H854.7v-.7H183.4v.7Z" class="g1_291"/>
<path d="M69.9,1088.2H854.7v-.8H69.9v.8Z" class="g1_291"/>
</svg>