<?xml version="1.0" encoding="UTF-8" standalone="no"?>
<!DOCTYPE svg PUBLIC "-//W3C//DTD SVG 1.1//EN"
"http://www.w3.org/Graphics/SVG/1.1/DTD/svg11.dtd">
<svg viewBox="0 0 935 1210" version="1.1" xmlns="http://www.w3.org/2000/svg" xmlns:xlink="http://www.w3.org/1999/xlink">
<defs>
<style type="text/css"><![CDATA[
.g0_266{
fill: #FFF;
}
.g1_266{
fill: #000;
}
]]></style>
</defs>
<path d="M68.8,1149.3H852.5v-21.2H68.8v21.2Z" class="g0_266"/>
<path d="M68.6,1041.6h.7V124.1h-.7v917.5Z" class="g1_266"/>
<path d="M125.3,1042.3h.7V164.6h-.7v877.7Z" class="g1_266"/>
<path d="M182.1,1042.3h.7V123.4h-.7v918.9Z" class="g1_266"/>
<path d="M422.7,1042.3h.7V123.4h-.7v918.9Z" class="g1_266"/>
<path d="M516.1,1042.3h.7V123.4h-.7v918.9Z" class="g1_266"/>
<path d="M851.7,1041.6h.7V124.1h-.7v917.5Z" class="g1_266"/>
<path d="M68.6,124.1H852.4v-.7H68.6v.7Z" class="g1_266"/>
<path d="M68.6,165.4H182.8v-.8H68.6v.8Z" class="g1_266"/>
<path d="M68.6,189.8H852.4v-.7H68.6v.7Z" class="g1_266"/>
<path d="M68.6,214.2H516.9v-.7H68.6v.7Z" class="g1_266"/>
<path d="M68.6,238.7H516.9V238H68.6v.7Z" class="g1_266"/>
<path d="M68.6,263.2H516.9v-.8H68.6v.8Z" class="g1_266"/>
<path d="M68.6,287.6H852.4v-.8H68.6v.8Z" class="g1_266"/>
<path d="M68.6,312H516.9v-.7H68.6v.7Z" class="g1_266"/>
<path d="M68.6,336.5H516.9v-.7H68.6v.7Z" class="g1_266"/>
<path d="M68.6,360.9H516.9v-.7H68.6v.7Z" class="g1_266"/>
<path d="M68.6,385.4H852.4v-.8H68.6v.8Z" class="g1_266"/>
<path d="M68.6,409.8H516.9v-.7H68.6v.7Z" class="g1_266"/>
<path d="M68.6,434.3H516.9v-.7H68.6v.7Z" class="g1_266"/>
<path d="M68.6,458.7H516.9V458H68.6v.7Z" class="g1_266"/>
<path d="M68.6,483.2H852.4v-.8H68.6v.8Z" class="g1_266"/>
<path d="M182.1,507.7H852.4v-.8H182.1v.8Z" class="g1_266"/>
<path d="M182.1,553.5H852.4v-.8H182.1v.8Z" class="g1_266"/>
<path d="M182.1,577.9H852.4v-.8H182.1v.8Z" class="g1_266"/>
<path d="M182.1,674.1H852.4v-.7H182.1v.7Z" class="g1_266"/>
<path d="M182.1,698.6H852.4v-.7H182.1v.7Z" class="g1_266"/>
<path d="M182.1,744.4H852.4v-.7H182.1v.7Z" class="g1_266"/>
<path d="M68.6,768.9H852.4v-.7H68.6v.7Z" class="g1_266"/>
<path d="M68.6,814.7H852.4V814H68.6v.7Z" class="g1_266"/>
<path d="M182.1,860.6H852.4v-.8H182.1v.8Z" class="g1_266"/>
<path d="M182.1,901.8H852.4v-.7H182.1v.7Z" class="g1_266"/>
<path d="M68.6,926.2H852.4v-.7H68.6v.7Z" class="g1_266"/>
<path d="M68.6,972H852.4v-.7H68.6v.7Z" class="g1_266"/>
<path d="M68.6,1017.9H852.4v-.8H68.6v.8Z" class="g1_266"/>
<path d="M68.6,1042.3H852.4v-.7H68.6v.7Z" class="g1_266"/>
</svg>