<?xml version="1.0" encoding="UTF-8" standalone="no"?>
<!DOCTYPE svg PUBLIC "-//W3C//DTD SVG 1.1//EN"
"http://www.w3.org/Graphics/SVG/1.1/DTD/svg11.dtd">
<svg viewBox="0 0 935 1210" version="1.1" xmlns="http://www.w3.org/2000/svg" xmlns:xlink="http://www.w3.org/1999/xlink">
<defs>
<style type="text/css"><![CDATA[
.g0_159{
fill: #FFF;
}
.g1_159{
fill: #000;
}
]]></style>
</defs>
<path d="M68.9,1149.3H755.2v-21.2H68.9v21.2Z" class="g0_159"/>
<path d="M771.3,1149.3H855v-21.2H771.3v21.2Z" class="g0_159"/>
<path d="M69.9,260.9h.8V125.7h-.8V260.9Z" class="g1_159"/>
<path d="M268.6,261.6h.7V124.9h-.7V261.6Z" class="g1_159"/>
<path d="M309.6,261.6h.8V124.9h-.8V261.6Z" class="g1_159"/>
<path d="M384.1,261.6h.7V124.9h-.7V261.6Z" class="g1_159"/>
<path d="M451.7,261.6h.8V124.9h-.8V261.6Z" class="g1_159"/>
<path d="M851.6,260.9h.7V125.7h-.7V260.9Z" class="g1_159"/>
<path d="M69.9,125.7H852.3v-.8H69.9v.8Z" class="g1_159"/>
<path d="M69.9,182.1H852.3v-.7H69.9v.7Z" class="g1_159"/>
<path d="M69.9,221.9H852.3v-.7H69.9v.7Z" class="g1_159"/>
<path d="M69.9,261.6H852.3v-.7H69.9v.7Z" class="g1_159"/>
<path d="M69.9,364.7h.8V316.6h-.8v48.1Z" class="g1_159"/>
<path d="M167.7,365.6h.7V315.9h-.7v49.7Z" class="g1_159"/>
<path d="M332,365.6h.8V315.9H332v49.7Z" class="g1_159"/>
<path d="M504.2,365.6h.7V315.9h-.7v49.7Z" class="g1_159"/>
<path d="M676.8,365.6h.7V315.9h-.7v49.7Z" class="g1_159"/>
<path d="M843,364.7h.7V316.6H843v48.1Z" class="g1_159"/>
<path d="M69.9,316.6H843.7v-.7H69.9v.7Z" class="g1_159"/>
<path d="M69.9,341.1H843.7v-.7H69.9v.7Z" class="g1_159"/>
<path d="M69.9,365.5H843.7v-.8H69.9v.8Z" class="g1_159"/>
</svg>