<?xml version="1.0" encoding="UTF-8" standalone="no"?>
<!DOCTYPE svg PUBLIC "-//W3C//DTD SVG 1.1//EN"
"http://www.w3.org/Graphics/SVG/1.1/DTD/svg11.dtd">
<svg viewBox="0 0 935 1210" version="1.1" xmlns="http://www.w3.org/2000/svg" xmlns:xlink="http://www.w3.org/1999/xlink">
<defs>
<clipPath id="c0_619"><path d="M766.6,59.2V41.4h72.1V59.2Z"/></clipPath>
<style type="text/css"><![CDATA[
.g0_619{
fill: #000;
}
]]></style>
</defs>
<path d="M97.3,62.9v.3H839.9v-.3H97.3Z" class="g0_619"/>
<path d="M96.2,1114.1h-.1v.3h.1v-.3Z" class="g0_619"/>
<path d="M838.7,1114.1h.2v.3h-.2v-.3Z" class="g0_619"/>
<path d="M96.2,1114.1v.3H838.7v-.3H96.2Z" class="g0_619"/>
<image clip-path="url(#c0_619)" preserveAspectRatio="none" x="767" y="41" width="72" height="18" xlink:href="img/1.jpg"/>
<path d="M125.5,909.4h-.7v105h.7v-105Z" class="g0_619"/>
<path d="M149.2,962.1h-.7v55.4h.7V962.1Z" class="g0_619"/>
<path d="M169.7,908.7h-.8v108.8h.8V908.7Z" class="g0_619"/>
<path d="M192.8,962.1H192v55.4h.8V962.1Z" class="g0_619"/>
<path d="M213,908.7h-.7v108.8h.7V908.7Z" class="g0_619"/>
<path d="M236.1,962.1h-.7v55.4h.7V962.1Z" class="g0_619"/>
<path d="M254.6,908.7h-.7v108.8h.7V908.7Z" class="g0_619"/>
<path d="M277.6,962.1h-.7v55.4h.7V962.1Z" class="g0_619"/>
<path d="M298,908.7h-.7v108.8h.7V908.7Z" class="g0_619"/>
<path d="M321,962.1h-.7v55.4h.7V962.1Z" class="g0_619"/>
<path d="M341.4,908.7h-.8v108.8h.8V908.7Z" class="g0_619"/>
<path d="M364.5,962.1h-.8v55.4h.8V962.1Z" class="g0_619"/>
<path d="M383.8,908.7h-.7v108.8h.7V908.7Z" class="g0_619"/>
<path d="M406.9,962.1h-.7v55.4h.7V962.1Z" class="g0_619"/>
<path d="M427.1,908.7h-.7v108.8h.7V908.7Z" class="g0_619"/>
<path d="M450.2,962.1h-.7v55.4h.7V962.1Z" class="g0_619"/>
<path d="M468.8,908.7H468v108.8h.8V908.7Z" class="g0_619"/>
<path d="M491.8,962.1H491v55.4h.8V962.1Z" class="g0_619"/>
<path d="M511.2,908.7h-.7v108.8h.7V908.7Z" class="g0_619"/>
<path d="M534.2,962.1h-.7v55.4h.7V962.1Z" class="g0_619"/>
<path d="M552.7,908.7H552v108.8h.7V908.7Z" class="g0_619"/>
<path d="M575.8,962.1h-.7v55.4h.7V962.1Z" class="g0_619"/>
<path d="M596.1,908.7h-.7v108.8h.7V908.7Z" class="g0_619"/>
<path d="M619.2,962.1h-.8v55.4h.8V962.1Z" class="g0_619"/>
<path d="M639.4,908.7h-.7v108.8h.7V908.7Z" class="g0_619"/>
<path d="M662.5,962.1h-.7v55.4h.7V962.1Z" class="g0_619"/>
<path d="M682,908.7h-.8v108.8h.8V908.7Z" class="g0_619"/>
<path d="M705,962.1h-.8v55.4h.8V962.1Z" class="g0_619"/>
<path d="M725.3,908.7h-.7v108.8h.7V908.7Z" class="g0_619"/>
<path d="M748.3,962.1h-.7v55.4h.7V962.1Z" class="g0_619"/>
<path d="M767.8,908.7H767v108.8h.8V908.7Z" class="g0_619"/>
<path d="M790.9,962.1h-.8v55.4h.8V962.1Z" class="g0_619"/>
<path d="M811.4,909.4h-3v105h3v-105Z" class="g0_619"/>
<path d="M124.8,908.7v.7H811.4v-.7H124.8Z" class="g0_619"/>
<path d="M124.8,962.1v.7H811.4v-.7H124.8Z" class="g0_619"/>
<path d="M124.8,1014.4v3.1H811.4v-3.1H124.8Z" class="g0_619"/>
</svg>