<?xml version="1.0" encoding="UTF-8" standalone="no"?>
<!DOCTYPE svg PUBLIC "-//W3C//DTD SVG 1.1//EN"
"http://www.w3.org/Graphics/SVG/1.1/DTD/svg11.dtd">
<svg viewBox="0 0 935 1210" version="1.1" xmlns="http://www.w3.org/2000/svg" xmlns:xlink="http://www.w3.org/1999/xlink">
<defs>
<clipPath id="c0_1478"><path d="M766.6,59.2V41.4h72.1V59.2Z"/></clipPath>
<style type="text/css"><![CDATA[
.g0_1478{
fill: #000;
}
]]></style>
</defs>
<path d="M97.3,62.9v.3H839.9v-.3H97.3Z" class="g0_1478"/>
<path d="M96.2,1114.1h-.1v.4h.1v-.4Z" class="g0_1478"/>
<path d="M838.7,1114.1h.2v.4h-.2v-.4Z" class="g0_1478"/>
<path d="M96.2,1114.1v.4H838.7v-.4H96.2Z" class="g0_1478"/>
<image clip-path="url(#c0_1478)" preserveAspectRatio="none" x="767" y="41" width="72" height="18" xlink:href="img/1.jpg"/>
<path d="M96.6,180.2h-.7V841.4h.7V180.2Z" class="g0_1478"/>
<path d="M244.8,177.2h-.7v665h.7v-665Z" class="g0_1478"/>
<path d="M284.5,177.2h-.7v665h.7v-665Z" class="g0_1478"/>
<path d="M338,177.2h-.8v665h.8v-665Z" class="g0_1478"/>
<path d="M414.7,177.2H414v665h.7v-665Z" class="g0_1478"/>
<path d="M846.1,180.2h-.8V841.4h.8V180.2Z" class="g0_1478"/>
<path d="M95.9,177.3v3H846.1v-3H95.9Z" class="g0_1478"/>
<path d="M95.9,220v3H846.1v-3H95.9Z" class="g0_1478"/>
<path d="M244,245.6v.7H846.1v-.7H244Z" class="g0_1478"/>
<path d="M95.9,285.4v.7H846.1v-.7H95.9Z" class="g0_1478"/>
<path d="M95.9,340.3v.8H846.1v-.8H95.9Z" class="g0_1478"/>
<path d="M95.9,380v.8H846.1V380H95.9Z" class="g0_1478"/>
<path d="M95.9,419.7v.8H846.1v-.8H95.9Z" class="g0_1478"/>
<path d="M244,459.5v.7H846.1v-.7H244Z" class="g0_1478"/>
<path d="M95.9,483.9v.7H846.1v-.7H95.9Z" class="g0_1478"/>
<path d="M244,523.7v.7H846.1v-.7H244Z" class="g0_1478"/>
<path d="M244,563.4v.7H846.1v-.7H244Z" class="g0_1478"/>
<path d="M244,603.1v.7H846.1v-.7H244Z" class="g0_1478"/>
<path d="M244,642.8v.8H846.1v-.8H244Z" class="g0_1478"/>
<path d="M244,682.5v.8H846.1v-.8H244Z" class="g0_1478"/>
<path d="M244,737.5v.8H846.1v-.8H244Z" class="g0_1478"/>
<path d="M95.9,777.2v.8H846.1v-.8H95.9Z" class="g0_1478"/>
<path d="M95.9,801.7v.7H846.1v-.7H95.9Z" class="g0_1478"/>
<path d="M95.9,841.4v.7H846.1v-.7H95.9Z" class="g0_1478"/>
</svg>