<?xml version="1.0" encoding="UTF-8" standalone="no"?>
<!DOCTYPE svg PUBLIC "-//W3C//DTD SVG 1.1//EN"
"http://www.w3.org/Graphics/SVG/1.1/DTD/svg11.dtd">
<svg viewBox="0 0 935 1210" version="1.1" xmlns="http://www.w3.org/2000/svg" xmlns:xlink="http://www.w3.org/1999/xlink">
<defs>
<style type="text/css"><![CDATA[
.g0_4712{
fill: #FFF;
}
.g1_4712{
fill: #000;
}
]]></style>
</defs>
<path d="M68.8,1149.3H852.5v-21.2H68.8v21.2Z" class="g0_4712"/>
<path d="M68.6,1026.3h.7V124.1h-.7v902.2Z" class="g1_4712"/>
<path d="M125.3,1027.1h.7V164.6h-.7v862.5Z" class="g1_4712"/>
<path d="M182.1,1027.1h.7V123.4h-.7v903.7Z" class="g1_4712"/>
<path d="M425.7,1027.1h.7V123.4h-.7v903.7Z" class="g1_4712"/>
<path d="M518.7,1027.1h.8V123.4h-.8v903.7Z" class="g1_4712"/>
<path d="M850.4,1026.3h.7V124.1h-.7v902.2Z" class="g1_4712"/>
<path d="M68.6,124.1H851.1v-.7H68.6v.7Z" class="g1_4712"/>
<path d="M68.6,165.4H182.8v-.8H68.6v.8Z" class="g1_4712"/>
<path d="M68.6,189.8H851.1v-.7H68.6v.7Z" class="g1_4712"/>
<path d="M182.1,214.2h669v-.7h-669v.7Z" class="g1_4712"/>
<path d="M182.1,238.7h669V238h-669v.7Z" class="g1_4712"/>
<path d="M182.1,263.2h669v-.8h-669v.8Z" class="g1_4712"/>
<path d="M182.1,287.6h669v-.8h-669v.8Z" class="g1_4712"/>
<path d="M182.1,312h669v-.7h-669v.7Z" class="g1_4712"/>
<path d="M182.1,336.5h669v-.7h-669v.7Z" class="g1_4712"/>
<path d="M182.1,360.9h669v-.7h-669v.7Z" class="g1_4712"/>
<path d="M182.1,385.4h669v-.8h-669v.8Z" class="g1_4712"/>
<path d="M68.6,409.8H851.1v-.7H68.6v.7Z" class="g1_4712"/>
<path d="M182.1,455.7h669v-.8h-669v.8Z" class="g1_4712"/>
<path d="M182.1,480.2h669v-.8h-669v.8Z" class="g1_4712"/>
<path d="M182.1,504.5h669v-.7h-669v.7Z" class="g1_4712"/>
<path d="M182.1,529h669v-.7h-669v.7Z" class="g1_4712"/>
<path d="M182.1,553.5h669v-.8h-669v.8Z" class="g1_4712"/>
<path d="M182.1,577.9h669v-.8h-669v.8Z" class="g1_4712"/>
<path d="M182.1,602.3h669v-.7h-669v.7Z" class="g1_4712"/>
<path d="M182.1,626.8h669v-.7h-669v.7Z" class="g1_4712"/>
<path d="M182.1,651.2h669v-.7h-669v.7Z" class="g1_4712"/>
<path d="M182.1,675.7h669v-.8h-669v.8Z" class="g1_4712"/>
<path d="M182.1,700.2h669v-.8h-669v.8Z" class="g1_4712"/>
<path d="M68.6,724.5H851.1v-.7H68.6v.7Z" class="g1_4712"/>
<path d="M182.1,765.8h669V765h-669v.8Z" class="g1_4712"/>
<path d="M182.1,807h669v-.7h-669v.7Z" class="g1_4712"/>
<path d="M68.6,831.5H851.1v-.7H68.6v.7Z" class="g1_4712"/>
<path d="M182.1,889.5h669v-.7h-669v.7Z" class="g1_4712"/>
<path d="M68.6,969H851.1v-.7H68.6v.7Z" class="g1_4712"/>
<path d="M68.6,1027H851.1v-.7H68.6v.7Z" class="g1_4712"/>
</svg>