<?xml version="1.0" encoding="UTF-8" standalone="no"?>
<!DOCTYPE svg PUBLIC "-//W3C//DTD SVG 1.1//EN"
"http://www.w3.org/Graphics/SVG/1.1/DTD/svg11.dtd">
<svg viewBox="0 0 935 1210" version="1.1" xmlns="http://www.w3.org/2000/svg" xmlns:xlink="http://www.w3.org/1999/xlink">
<defs>
<clipPath id="c0_490"><path d="M97.3,59.2V41.4h72.1V59.2Z"/></clipPath>
<style type="text/css"><![CDATA[
.g0_490{
fill: #000;
}
]]></style>
</defs>
<path d="M96.2,62.9v.3H838.7v-.3H96.2Z" class="g0_490"/>
<path d="M96.2,1114.1h-.1v.3h.1v-.3Z" class="g0_490"/>
<path d="M838.7,1114.1h.2v.3h-.2v-.3Z" class="g0_490"/>
<path d="M96.2,1114.1v.3H838.7v-.3H96.2Z" class="g0_490"/>
<image clip-path="url(#c0_490)" preserveAspectRatio="none" x="97" y="41" width="72" height="18" xlink:href="img/1.jpg"/>
<path d="M192.9,197.4h-.8V820h.8V197.4Z" class="g0_490"/>
<path d="M324.7,196.7h-.8v624h.8v-624Z" class="g0_490"/>
<path d="M425.5,196.7h-.7v624h.7v-624Z" class="g0_490"/>
<path d="M742.8,197.4h-.7V820h.7V197.4Z" class="g0_490"/>
<path d="M192.1,196.7v.7H742.8v-.7H192.1Z" class="g0_490"/>
<path d="M192.1,221.1v.7H742.8v-.7H192.1Z" class="g0_490"/>
<path d="M192.1,245.6v.7H742.8v-.7H192.1Z" class="g0_490"/>
<path d="M192.1,270v.8H742.8V270H192.1Z" class="g0_490"/>
<path d="M192.1,294.5v.7H742.8v-.7H192.1Z" class="g0_490"/>
<path d="M192.1,318.9v.7H742.8v-.7H192.1Z" class="g0_490"/>
<path d="M192.1,343.4v.7H742.8v-.7H192.1Z" class="g0_490"/>
<path d="M192.1,367.8v.8H742.8v-.8H192.1Z" class="g0_490"/>
<path d="M192.1,392.2v.8H742.8v-.8H192.1Z" class="g0_490"/>
<path d="M192.1,416.7v.7H742.8v-.7H192.1Z" class="g0_490"/>
<path d="M192.1,441.2v.7H742.8v-.7H192.1Z" class="g0_490"/>
<path d="M192.1,465.6v.7H742.8v-.7H192.1Z" class="g0_490"/>
<path d="M192.1,490v.8H742.8V490H192.1Z" class="g0_490"/>
<path d="M192.1,514.5v.7H742.8v-.7H192.1Z" class="g0_490"/>
<path d="M192.1,538.9v.7H742.8v-.7H192.1Z" class="g0_490"/>
<path d="M192.1,563.4v.7H742.8v-.7H192.1Z" class="g0_490"/>
<path d="M192.1,587.8v.8H742.8v-.8H192.1Z" class="g0_490"/>
<path d="M192.1,612.2v.8H742.8v-.8H192.1Z" class="g0_490"/>
<path d="M192.1,636.7v.7H742.8v-.7H192.1Z" class="g0_490"/>
<path d="M192.1,661.2v.7H742.8v-.7H192.1Z" class="g0_490"/>
<path d="M192.1,685.5v.8H742.8v-.8H192.1Z" class="g0_490"/>
<path d="M192.1,710v.8H742.8V710H192.1Z" class="g0_490"/>
<path d="M192.1,734.5v.7H742.8v-.7H192.1Z" class="g0_490"/>
<path d="M192.1,777.2v.7H742.8v-.7H192.1Z" class="g0_490"/>
<path d="M192.1,820v.8H742.8V820H192.1Z" class="g0_490"/>
<path d="M192.9,886.5h-.8v72.6h.8V886.5Z" class="g0_490"/>
<path d="M324.7,885.7h-.8v74.1h.8V885.7Z" class="g0_490"/>
<path d="M425.5,885.7h-.7v74.1h.7V885.7Z" class="g0_490"/>
<path d="M742.8,886.5h-.7v72.6h.7V886.5Z" class="g0_490"/>
<path d="M192.1,885.7v.8H742.8v-.8H192.1Z" class="g0_490"/>
<path d="M192.1,910.1v.8H742.8v-.8H192.1Z" class="g0_490"/>
<path d="M192.1,934.6v.7H742.8v-.7H192.1Z" class="g0_490"/>
<path d="M192.1,959.1v.7H742.8v-.7H192.1Z" class="g0_490"/>
</svg>