<?xml version="1.0" encoding="UTF-8" standalone="no"?>
<!DOCTYPE svg PUBLIC "-//W3C//DTD SVG 1.1//EN"
"http://www.w3.org/Graphics/SVG/1.1/DTD/svg11.dtd">
<svg viewBox="0 0 935 1210" version="1.1" xmlns="http://www.w3.org/2000/svg" xmlns:xlink="http://www.w3.org/1999/xlink">
<defs>
<clipPath id="c0_945"><path d="M766.6,59.2V41.4h72.1V59.2Z"/></clipPath>
<style type="text/css"><![CDATA[
.g0_945{
fill: #000;
}
]]></style>
</defs>
<path d="M97.3,62.9v.3H839.9v-.3H97.3Z" class="g0_945"/>
<path d="M96.2,1114.1h-.1v.3h.1v-.3Z" class="g0_945"/>
<path d="M838.7,1114.1h.2v.3h-.2v-.3Z" class="g0_945"/>
<path d="M96.2,1114.1v.3H838.7v-.3H96.2Z" class="g0_945"/>
<image clip-path="url(#c0_945)" preserveAspectRatio="none" x="767" y="41" width="72" height="18" xlink:href="img/1.jpg"/>
<path d="M192.9,825.3h-.8V968.2h.8V825.3Z" class="g0_945"/>
<path d="M302.9,824.6h-.8V969h.8V824.6Z" class="g0_945"/>
<path d="M412.8,824.6h-.7V969h.7V824.6Z" class="g0_945"/>
<path d="M742.8,825.3h-.7V968.2h.7V825.3Z" class="g0_945"/>
<path d="M192.1,824.6v.7H742.8v-.7H192.1Z" class="g0_945"/>
<path d="M192.1,849.1v.7H742.8v-.7H192.1Z" class="g0_945"/>
<path d="M302.1,873.5v.7H742.8v-.7H302.1Z" class="g0_945"/>
<path d="M192.1,897.9v.8H742.8v-.8H192.1Z" class="g0_945"/>
<path d="M192.1,943.8v.7H742.8v-.7H192.1Z" class="g0_945"/>
<path d="M192.1,968.2v.8H742.8v-.8H192.1Z" class="g0_945"/>
</svg>