<?xml version="1.0" encoding="UTF-8" standalone="no"?>
<!DOCTYPE svg PUBLIC "-//W3C//DTD SVG 1.1//EN"
"http://www.w3.org/Graphics/SVG/1.1/DTD/svg11.dtd">
<svg viewBox="0 0 935 1210" version="1.1" xmlns="http://www.w3.org/2000/svg" xmlns:xlink="http://www.w3.org/1999/xlink">
<defs>
<style type="text/css"><![CDATA[
.g0_1173{
fill: #FFF;
}
.g1_1173{
fill: #000;
}
]]></style>
</defs>
<path d="M68.9,1149.3H755.2v-21.2H68.9v21.2Z" class="g0_1173"/>
<path d="M771.3,1149.3H855v-21.2H771.3v21.2Z" class="g0_1173"/>
<path d="M70.3,416.2H855.1V386.6H70.3v29.6Z" class="g0_1173"/>
<path d="M71.2,409.5h53.6V397H71.2v12.5Z" class="g0_1173"/>
<path d="M69.9,386.2h.8V107.3h-.8V386.2Z" class="g1_1173"/>
<path d="M367.4,386.9h.7V106.6h-.7V386.9Z" class="g1_1173"/>
<path d="M411,386.9h.8V106.6H411V386.9Z" class="g1_1173"/>
<path d="M484.4,386.9h.7V106.6h-.7V386.9Z" class="g1_1173"/>
<path d="M563.8,386.9h.7V106.6h-.7V386.9Z" class="g1_1173"/>
<path d="M854.7,386.2h.7V107.3h-.7V386.2Z" class="g1_1173"/>
<path d="M69.9,107.3H855.4v-.7H69.9v.7Z" class="g1_1173"/>
<path d="M69.9,160.8H855.4v-.7H69.9v.7Z" class="g1_1173"/>
<path d="M69.9,217.3H855.4v-.7H69.9v.7Z" class="g1_1173"/>
<path d="M69.9,273.8H855.4v-.7H69.9v.7Z" class="g1_1173"/>
<path d="M69.9,330.4H855.4v-.8H69.9v.8Z" class="g1_1173"/>
<path d="M69.9,386.9H855.4v-.7H69.9v.7Z" class="g1_1173"/>
<path d="M69.9,716.7h.8V522h-.8V716.7Z" class="g1_1173"/>
<path d="M146.8,717.5h.7V521.2h-.7V717.5Z" class="g1_1173"/>
<path d="M259.4,717.5h.8V521.2h-.8V717.5Z" class="g1_1173"/>
<path d="M399.9,717.5h.8V521.2h-.8V717.5Z" class="g1_1173"/>
<path d="M552.6,717.5h.7V521.2h-.7V717.5Z" class="g1_1173"/>
<path d="M702.5,717.5h.8V521.2h-.8V717.5Z" class="g1_1173"/>
<path d="M847.2,716.7h.7V522h-.7V716.7Z" class="g1_1173"/>
<path d="M69.9,522h778v-.8H69.9v.8Z" class="g1_1173"/>
<path d="M69.9,546.3h778v-.7H69.9v.7Z" class="g1_1173"/>
<path d="M69.9,570.8h778v-.7H69.9v.7Z" class="g1_1173"/>
<path d="M69.9,595.3h778v-.7H69.9v.7Z" class="g1_1173"/>
<path d="M69.9,619.8h778V619H69.9v.8Z" class="g1_1173"/>
<path d="M69.9,644.1h778v-.7H69.9v.7Z" class="g1_1173"/>
<path d="M69.9,668.6h778v-.7H69.9v.7Z" class="g1_1173"/>
<path d="M69.9,693.1h778v-.7H69.9v.7Z" class="g1_1173"/>
<path d="M69.9,717.5h778v-.8H69.9v.8Z" class="g1_1173"/>
<path d="M171.3,1000.4h.8V867.3h-.8v133.1Z" class="g1_1173"/>
<path d="M750.7,1000.4h.7V867.3h-.7v133.1Z" class="g1_1173"/>
<path d="M171.3,867.3H751.4v-.8H171.3v.8Z" class="g1_1173"/>
<path d="M171.3,1001.1H751.4v-.7H171.3v.7Z" class="g1_1173"/>
<path d="M295.4,910.5h96.1V883H295.4v27.5Z" class="g0_1173"/>
<path d="M295.4,883.4h96.5v-.7H295.4v.7Z" class="g1_1173"/>
<path d="M391.1,910.9h.8V883h-.8v27.9Z" class="g1_1173"/>
<path d="M295.1,910.9h96.4v-.7H295.1v.7Z" class="g1_1173"/>
<path d="M295.1,910.5h.7V882.7h-.7v27.8Z" class="g1_1173"/>
<path d="M391.5,910.5h96.1V883H391.5v27.5Z" class="g0_1173"/>
<path d="M391.5,883.4h96.4v-.7H391.5v.7Z" class="g1_1173"/>
<path d="M487.2,910.9h.7V883h-.7v27.9Z" class="g1_1173"/>
<path d="M391.1,910.9h96.5v-.7H391.1v.7Z" class="g1_1173"/>
<path d="M391.1,910.5h.8V882.7h-.8v27.8Z" class="g1_1173"/>
<path d="M487.6,910.5h96V883h-96v27.5Z" class="g0_1173"/>
<path d="M487.6,883.4H584v-.7H487.6v.7Z" class="g1_1173"/>
<path d="M583.3,910.9h.7V883h-.7v27.9Z" class="g1_1173"/>
<path d="M487.2,910.9h96.4v-.7H487.2v.7Z" class="g1_1173"/>
<path d="M487.2,910.5h.7V882.7h-.7v27.8Z" class="g1_1173"/>
<path d="M583.6,883h96.2v27.5H583.6Z" class="g0_1173"/>
<path d="M583.6,883.4h96.6v-.7H583.6v.7Z" class="g1_1173"/>
<path d="M679.4,910.9h.8V883h-.8v27.9Z" class="g1_1173"/>
<path d="M583.3,910.9h96.5v-.7H583.3v.7Z" class="g1_1173"/>
<path d="M583.3,910.5h.7V882.7h-.7v27.8Z" class="g1_1173"/>
<path d="M294.5,991.6h96.1V964H294.5v27.6Z" class="g0_1173"/>
<path d="M294.5,964.3H391v-.7H294.5v.7Z" class="g1_1173"/>
<path d="M390.2,991.9h.8V964h-.8v27.9Z" class="g1_1173"/>
<path d="M294.2,991.9h96.4v-.7H294.2v.7Z" class="g1_1173"/>
<path d="M294.2,991.6h.7v-28h-.7v28Z" class="g1_1173"/>
<path d="M390.6,991.6h96.1V964H390.6v27.6Z" class="g0_1173"/>
<path d="M390.6,964.3H487v-.7H390.6v.7Z" class="g1_1173"/>
<path d="M486.3,991.9h.7V964h-.7v27.9Z" class="g1_1173"/>
<path d="M390.2,991.9h96.5v-.7H390.2v.7Z" class="g1_1173"/>
<path d="M390.2,991.6h.8v-28h-.8v28Z" class="g1_1173"/>
<path d="M486.7,991.6h96.1V964H486.7v27.6Z" class="g0_1173"/>
<path d="M486.7,964.3h96.5v-.7H486.7v.7Z" class="g1_1173"/>
<path d="M582.4,991.9h.8V964h-.8v27.9Z" class="g1_1173"/>
<path d="M486.3,991.9h96.5v-.7H486.3v.7Z" class="g1_1173"/>
<path d="M486.3,991.6h.7v-28h-.7v28Z" class="g1_1173"/>
<path d="M582.8,991.6h96.1V964H582.8v27.6Z" class="g0_1173"/>
<path d="M582.8,964.3h96.5v-.7H582.8v.7Z" class="g1_1173"/>
<path d="M678.5,991.9h.7V964h-.7v27.9Z" class="g1_1173"/>
<path d="M582.4,991.9h96.5v-.7H582.4v.7Z" class="g1_1173"/>
<path d="M582.4,991.6h.8v-28h-.8v28Z" class="g1_1173"/>
<path d="M601.2,954.3h.7v-1.6h-.7v1.6Z" class="g1_1173"/>
<path d="M601.2,953.6l2.4,-.9l1.5,-.6l-.5,1.6l-2.3,8.3l-.8,2.5l-.7,-2.5l-2.4,-8.3l-.5,-1.6l1.5,.6l.5,.5l2.4,8.3l-1.5,.5v-.5l2.4,-8.3l1.4,.5l-.4,.5l-2.4,.9Z" class="g1_1173"/>
<path d="M599.4,952.7l2.4,.9v1.5l-.3,.1l-.3,-.1l-2.3,-.9Z" class="g1_1173"/>
<path fill-rule="evenodd" d="M601.5,954.3l2.4,-.9l-2.4,8.3l-2.4,-8.3Z" class="g1_1173"/>
<path d="M640.5,933.7h.7V910.9h-.7v22.8Z" class="g1_1173"/>
<path d="M601.2,933.7h39.6V933H601.2v.7Z" class="g1_1173"/>
<path d="M601.2,953.1h.7V933.4h-.7v19.7Z" class="g1_1173"/>
<path d="M322.9,954.3h.7v-1.6h-.7v1.6Z" class="g1_1173"/>
<path d="M322.9,953.5l2.3,-.8l1.5,-.7l-.5,1.7l-2.2,8.2l-.8,2.4l-.7,-2.4l-2.4,-8.2l-.5,-1.6l1.5,.6l.5,.5l2.4,8.2l-1.5,.5v-.5l2.3,-8.2l1.4,.5l-.4,.5l-2.3,.8Z" class="g1_1173"/>
<path d="M321.1,952.7l2.4,.8V955l-.3,.1l-.3,-.1l-2.3,-.8Z" class="g1_1173"/>
<path fill-rule="evenodd" d="M323.2,954.3l2.3,-.9l-2.3,8.2l-2.4,-8.2Z" class="g1_1173"/>
<path d="M362.1,933.6h.7V910.8h-.7v22.8Z" class="g1_1173"/>
<path d="M322.9,933.6h39.6v-.7H322.9v.7Z" class="g1_1173"/>
<path d="M322.9,953.1h.7V933.3h-.7v19.8Z" class="g1_1173"/>
<path d="M420.2,954.3h.7v-1.7h-.7v1.7Z" class="g1_1173"/>
<path d="M420.3,953.5l2.3,-.9L424,952l-2.7,9.9l-.7,2.5l-.8,-2.5l-2.3,-8.3L417,952l1.5,.6l.4,.5l2.4,8.3l-1.5,.5v-.5l2.3,-8.3l1.5,.5l-.5,.5l-2.3,.9Z" class="g1_1173"/>
<path d="M418.5,952.6l2.3,.9V955l-.2,.1l-.3,-.1l-2.4,-.9Z" class="g1_1173"/>
<path fill-rule="evenodd" d="M420.6,954.3l2.3,-1l-2.3,8.3l-2.4,-8.3Z" class="g1_1173"/>
<path d="M459.4,933.6h.8V910.8h-.8v22.8Z" class="g1_1173"/>
<path d="M420.2,933.6h39.6v-.7H420.2v.7Z" class="g1_1173"/>
<path d="M420.2,953h.7V933.3h-.7V953Z" class="g1_1173"/>
<path d="M506.9,955h.7v-1.7h-.7V955Z" class="g1_1173"/>
<path d="M507,954.3l2.3,-.9l1.5,-.6l-.5,1.6l-2.3,8.2l-.7,2.5l-.7,-2.5l-2.4,-8.2l-.5,-1.5l1.5,.5l.4,.6l2.4,8.1l-1.4,.5v-.5l2.2,-8.1l1.5,.4l-.5,.5l-2.2,.8Z" class="g1_1173"/>
<path d="M505.2,953.4l2.4,.8v1.5l-.3,.1l-.3,-.1l-2.4,-.8Z" class="g1_1173"/>
<path fill-rule="evenodd" d="M507.3,955l2.3,-.8l-2.3,8.1l-2.4,-8.1Z" class="g1_1173"/>
<path d="M546.2,934.4h.7V911.5h-.7v22.9Z" class="g1_1173"/>
<path d="M506.9,934.4h39.6v-.8H506.9v.8Z" class="g1_1173"/>
<path d="M506.9,953.7h.7V934h-.7v19.7Z" class="g1_1173"/>
</svg>