<?xml version="1.0" encoding="UTF-8" standalone="no"?>
<!DOCTYPE svg PUBLIC "-//W3C//DTD SVG 1.1//EN"
"http://www.w3.org/Graphics/SVG/1.1/DTD/svg11.dtd">
<svg viewBox="0 0 935 1210" version="1.1" xmlns="http://www.w3.org/2000/svg" xmlns:xlink="http://www.w3.org/1999/xlink">
<defs>
<clipPath id="c0_3271"><path d="M766.6,59.2V41.4h72.2V59.2Z"/></clipPath>
<style type="text/css"><![CDATA[
.g0_3271{
fill: #000;
}
]]></style>
</defs>
<path d="M97.4,63.3H839.9v-.4H97.4v.4Z" class="g0_3271"/>
<path d="M96.1,1114.5h.2v-.4h-.2v.4Z" class="g0_3271"/>
<path d="M96.3,1114.5H838.9v-.4H96.3v.4Z" class="g0_3271"/>
<image clip-path="url(#c0_3271)" preserveAspectRatio="none" x="767" y="41" width="72" height="18" xlink:href="img/1.jpg"/>
<path d="M95.9,748h.7V537.5h-.7V748Z" class="g0_3271"/>
<path d="M261.3,719.7h.8V534.5h-.8V719.7Z" class="g0_3271"/>
<path d="M317.6,719.7h.8V534.5h-.8V719.7Z" class="g0_3271"/>
<path d="M838.4,748h.7V537.5h-.7V748Z" class="g0_3271"/>
<path d="M95.9,537.5H839.1v-3H95.9v3Z" class="g0_3271"/>
<path d="M95.9,568.2H839.1v-3.1H95.9v3.1Z" class="g0_3271"/>
<path d="M95.9,597.5H839.1v-.8H95.9v.8Z" class="g0_3271"/>
<path d="M261.3,628H839.1v-.7H261.3v.7Z" class="g0_3271"/>
<path d="M95.9,658.6H839.1v-.7H95.9v.7Z" class="g0_3271"/>
<path d="M95.9,689.1H839.1v-.7H95.9v.7Z" class="g0_3271"/>
<path d="M95.9,719.7H839.1v-.8H95.9v.8Z" class="g0_3271"/>
<path d="M95.9,748.7H839.1V748H95.9v.7Z" class="g0_3271"/>
<path d="M95.9,1023h.7V808h-.7v215Z" class="g0_3271"/>
<path d="M247.1,944.4h.8V804.9h-.8V944.4Z" class="g0_3271"/>
<path d="M247.1,1023.7h.8V968h-.8v55.7Z" class="g0_3271"/>
<path d="M291.1,944.4h.8V804.9h-.8V944.4Z" class="g0_3271"/>
<path d="M291.1,1023.7h.8V968h-.8v55.7Z" class="g0_3271"/>
<path d="M349.4,944.4h.8V804.9h-.8V944.4Z" class="g0_3271"/>
<path d="M349.4,1023.7h.8V968h-.8v55.7Z" class="g0_3271"/>
<path d="M428.6,944.4h.8V804.9h-.8V944.4Z" class="g0_3271"/>
<path d="M428.6,1023.7h.8V968h-.8v55.7Z" class="g0_3271"/>
<path d="M840,1023h.8V808H840v215Z" class="g0_3271"/>
<path d="M95.9,808H840.8v-3.1H95.9V808Z" class="g0_3271"/>
<path d="M95.9,850.8H840.8v-3.1H95.9v3.1Z" class="g0_3271"/>
<path d="M95.9,889.3H840.8v-.8H95.9v.8Z" class="g0_3271"/>
<path d="M95.9,944.3H840.8v-.8H95.9v.8Z" class="g0_3271"/>
<path d="M95.9,968.7H840.8V968H95.9v.7Z" class="g0_3271"/>
<path d="M95.9,1023.7H840.8v-.7H95.9v.7Z" class="g0_3271"/>
</svg>