<?xml version="1.0" encoding="UTF-8" standalone="no"?>
<!DOCTYPE svg PUBLIC "-//W3C//DTD SVG 1.1//EN"
"http://www.w3.org/Graphics/SVG/1.1/DTD/svg11.dtd">
<svg viewBox="0 0 935 1210" version="1.1" xmlns="http://www.w3.org/2000/svg" xmlns:xlink="http://www.w3.org/1999/xlink">
<defs>
<style type="text/css"><![CDATA[
.g0_230{
fill: #B3B3B3;
}
.g1_230{
fill: #000;
}
]]></style>
</defs>
<path d="M82.5,96.3h770V55H82.5V96.3Z" class="g0_230"/>
<path d="M109.8,204.5h.4V160.6h-.4v43.9Z" class="g1_230"/>
<path d="M239.6,204.9h.4V160.2h-.4v44.7Z" class="g1_230"/>
<path d="M355.9,204.9h.4V160.2h-.4v44.7Z" class="g1_230"/>
<path d="M465.4,204.9h.4V160.2h-.4v44.7Z" class="g1_230"/>
<path d="M555.2,204.9h.4V160.2h-.4v44.7Z" class="g1_230"/>
<path d="M622.6,204.9h.4V160.2h-.4v44.7Z" class="g1_230"/>
<path d="M824.8,204.5h.4V160.6h-.4v43.9Z" class="g1_230"/>
<path d="M109.8,160.6H825.2v-.4H109.8v.4Z" class="g1_230"/>
<path d="M109.8,204.9H825.2v-.4H109.8v.4Z" class="g1_230"/>
</svg>