<?xml version="1.0" encoding="UTF-8" standalone="no"?>
<!DOCTYPE svg PUBLIC "-//W3C//DTD SVG 1.1//EN"
"http://www.w3.org/Graphics/SVG/1.1/DTD/svg11.dtd">
<svg viewBox="0 0 825 990" version="1.1" xmlns="http://www.w3.org/2000/svg" xmlns:xlink="http://www.w3.org/1999/xlink">
<defs>
<style type="text/css"><![CDATA[
.g0_147{
fill: #000;
}
.g1_147{
fill: #FFF;
}
.g2_147{
fill: none;
stroke: #231F20;
stroke-width: 0.333;
stroke-miterlimit: 3;
}
.g3_147{
fill: none;
stroke: #231F20;
stroke-width: 0.381;
stroke-miterlimit: 3;
}
]]></style>
</defs>
<path d="M94.9,910.3h.3v-.8h-.3v.8Z" class="g0_147"/>
<path d="M95.2,910.3h650v-.8H95.2v.8Z" class="g0_147"/>
<path d="M135.3,334.9h608V96.8h-608V334.9Z" class="g1_147"/>
<path d="M326.4,193.3h52v28.1h-52V193.3Zm363.8,0h52v28.1h-52V193.3Zm-155.9,0h52v28.1h-52V193.3Zm-52,0h52v28.1h-52V193.3Zm-103.9,0h39v28.1h-39V193.3Zm207.9,0h51.9v28.1H586.3V193.3Zm-168.9,0h13v28.1h-13V193.3Zm13,0h12.9v28.1H430.4V193.3Zm12.9,0h13v28.1h-13V193.3Zm13,0h13v28.1h-13V193.3Zm13,0h13v28.1h-13V193.3Z" class="g2_147"/>
<path d="M638.2,193.3h52v28.1h-52V193.3Z" class="g3_147"/>
<path d="M326.4,277.7h52v28.1h-52V277.7Zm363.8,0h52v28.1h-52V277.7Zm-155.9,0h52v28.1h-52V277.7Zm-52,0h52v28.1h-52V277.7Zm-103.9,0h39v28.1h-39V277.7Zm207.9,0h51.9v28.1H586.3V277.7Zm-168.9,0h13v28.1h-13V277.7Zm13,0h12.9v28.1H430.4V277.7Zm12.9,0h13v28.1h-13V277.7Zm13,0h13v28.1h-13V277.7Zm13,0h13v28.1h-13V277.7Z" class="g2_147"/>
<path d="M638.2,277.7h26v28.1h-26V277.7Zm39,0h13v28.1h-13V277.7Zm-13,0h13v28.1h-13V277.7Z" class="g3_147"/>
<path d="M326.4,221.4h52v28.2h-52V221.4Zm363.8,0h52v28.2h-52V221.4Zm-155.9,0h52v28.2h-52V221.4Zm-52,0h52v28.2h-52V221.4Zm-103.9,0h39v28.2h-39V221.4Zm207.9,0h51.9v28.2H586.3V221.4Zm-168.9,0h13v28.2h-13V221.4Zm13,0h12.9v28.2H430.4V221.4Zm12.9,0h13v28.2h-13V221.4Zm13,0h13v28.2h-13V221.4Zm13,0h13v28.2h-13V221.4Z" class="g2_147"/>
<path d="M638.2,221.4h26v28.2h-26V221.4Zm39,0h13v28.2h-13V221.4Zm-13,0h13v28.2h-13V221.4Z" class="g3_147"/>
<path d="M326.4,137h52v28.2h-52V137Zm363.8,0h52v28.2h-52V137Zm-155.9,0h52v28.2h-52V137Zm-52,0h52v28.2h-52V137Zm-103.9,0h52v28.2h-52V137Zm207.9,0h51.9v28.2H586.3V137Z" class="g2_147"/>
<path d="M638.2,137h52v28.2h-52V137Z" class="g3_147"/>
<path d="M430.4,108.9h12.9V137H430.4V108.9Zm-104,0h52V137h-52V108.9Zm363.8,0h52V137h-52V108.9Zm-155.9,0h52V137h-52V108.9Zm-52,0h52V137h-52V108.9Zm-103.9,0h64.9V137H378.4V108.9Zm207.9,0h51.9V137H586.3V108.9Zm-143,0h13V137h-13V108.9Zm13,0h26V137h-26V108.9Zm181.9,0h52V137h-52V108.9ZM326.4,305.8h52V334h-52V305.8Zm363.8,0h52V334h-52V305.8Zm-155.9,0h52V334h-52V305.8Zm-52,0h52V334h-52V305.8Zm-103.9,0h39V334h-39V305.8Zm207.9,0h51.9V334H586.3V305.8Zm-168.9,0h13V334h-13V305.8Zm13,0h12.9V334H430.4V305.8Zm12.9,0h13V334h-13V305.8Zm13,0h13V334h-13V305.8Zm13,0h13V334h-13V305.8Z" class="g2_147"/>
<path d="M638.2,305.8h26V334h-26V305.8Zm39,0h13V334h-13V305.8Zm-13,0h13V334h-13V305.8Z" class="g3_147"/>
<path d="M326.4,249.6h52v28.1h-52V249.6Zm363.8,0h52v28.1h-52V249.6Zm-155.9,0h52v28.1h-52V249.6Zm-52,0h52v28.1h-52V249.6Zm-103.9,0h39v28.1h-39V249.6Zm207.9,0h51.9v28.1H586.3V249.6Zm-168.9,0h13v28.1h-13V249.6Zm13,0h12.9v28.1H430.4V249.6Zm12.9,0h13v28.1h-13V249.6Zm13,0h13v28.1h-13V249.6Zm13,0h13v28.1h-13V249.6Zm207.9,0h13v28.1h-13V249.6Zm-13,0h13v28.1h-13V249.6Z" class="g2_147"/>
<path d="M638.2,249.6h26v28.1h-26V249.6Z" class="g3_147"/>
<path d="M326.4,165.2h52v28.1h-52V165.2Zm363.8,0h52v28.1h-52V165.2Zm-155.9,0h52v28.1h-52V165.2Zm-52,0h52v28.1h-52V165.2Zm-103.9,0h39v28.1h-39V165.2Zm207.9,0h51.9v28.1H586.3V165.2Zm-168.9,0h13v28.1h-13V165.2Zm13,0h12.9v28.1H430.4V165.2Zm12.9,0h13v28.1h-13V165.2Zm13,0h13v28.1h-13V165.2Zm13,0h13v28.1h-13V165.2Z" class="g2_147"/>
<path d="M638.2,165.2h52v28.1h-52V165.2Z" class="g3_147"/>
<path d="M469.3,137h13v28.2h-13V137Z" class="g2_147"/>
<path d="M159.9,642.9h1.5V600h-1.5v42.9Z" class="g0_147"/>
<path d="M233.3,644.4h.7V598.6h-.7v45.8Z" class="g0_147"/>
<path d="M379.3,644.4h.7V598.6h-.7v45.8Z" class="g0_147"/>
<path d="M598.5,644.4h.7V598.6h-.7v45.8Z" class="g0_147"/>
<path d="M671.5,644.4h.7V598.6h-.7v45.8Z" class="g0_147"/>
<path d="M744.1,642.9h1.6V600h-1.6v42.9Z" class="g0_147"/>
<path d="M159.9,600.1H745.6v-1.5H159.9v1.5Z" class="g0_147"/>
<path d="M159.9,644.4H745.6v-1.5H159.9v1.5Z" class="g0_147"/>
</svg>