<?xml version="1.0" encoding="UTF-8" standalone="no"?>
<!DOCTYPE svg PUBLIC "-//W3C//DTD SVG 1.1//EN"
"http://www.w3.org/Graphics/SVG/1.1/DTD/svg11.dtd">
<svg viewBox="0 0 935 1210" version="1.1" xmlns="http://www.w3.org/2000/svg" xmlns:xlink="http://www.w3.org/1999/xlink">
<defs>
<style type="text/css"><![CDATA[
.g0_626{
fill: #FFF;
}
.g1_626{
fill: #000;
}
]]></style>
</defs>
<path d="M165,1149.3H852.5v-21.2H165v21.2Z" class="g0_626"/>
<path d="M68.8,1149.3h82.5v-21.2H68.8v21.2Z" class="g0_626"/>
<path d="M68.6,260.9h.7V125.7h-.7V260.9Z" class="g1_626"/>
<path d="M285.5,261.6h.8V124.9h-.8V261.6Z" class="g1_626"/>
<path d="M326.6,261.6h.7V124.9h-.7V261.6Z" class="g1_626"/>
<path d="M401,261.6h.8V124.9H401V261.6Z" class="g1_626"/>
<path d="M468.7,261.6h.7V124.9h-.7V261.6Z" class="g1_626"/>
<path d="M848.6,260.9h.8V125.7h-.8V260.9Z" class="g1_626"/>
<path d="M68.6,125.7H849.4v-.8H68.6v.8Z" class="g1_626"/>
<path d="M68.6,182.1H849.4v-.7H68.6v.7Z" class="g1_626"/>
<path d="M68.6,221.9H849.4v-.7H68.6v.7Z" class="g1_626"/>
<path d="M68.6,261.6H849.4v-.7H68.6v.7Z" class="g1_626"/>
<path d="M68.6,364.7h.7V316.6h-.7v48.1Z" class="g1_626"/>
<path d="M170.8,365.6h.7V315.9h-.7v49.7Z" class="g1_626"/>
<path d="M338.3,365.6h.8V315.9h-.8v49.7Z" class="g1_626"/>
<path d="M511.5,365.6h.7V315.9h-.7v49.7Z" class="g1_626"/>
<path d="M680.4,365.6h.8V315.9h-.8v49.7Z" class="g1_626"/>
<path d="M849.8,364.7h.8V316.6h-.8v48.1Z" class="g1_626"/>
<path d="M68.6,316.6h782v-.7H68.6v.7Z" class="g1_626"/>
<path d="M68.6,341.1h782v-.7H68.6v.7Z" class="g1_626"/>
<path d="M68.6,365.5h782v-.8H68.6v.8Z" class="g1_626"/>
</svg>