<?xml version="1.0" encoding="UTF-8" standalone="no"?>
<!DOCTYPE svg PUBLIC "-//W3C//DTD SVG 1.1//EN"
"http://www.w3.org/Graphics/SVG/1.1/DTD/svg11.dtd">
<svg viewBox="0 0 935 1210" version="1.1" xmlns="http://www.w3.org/2000/svg" xmlns:xlink="http://www.w3.org/1999/xlink">
<defs>
<style type="text/css"><![CDATA[
.g0_3686{
fill: #FFF;
}
.g1_3686{
fill: #000;
}
.g2_3686{
fill: #C8C8C8;
}
.g3_3686{
fill: #F7F7F7;
}
.g4_3686{
fill: #F5F0FF;
}
.g5_3686{
fill: #9A65FF;
}
.g6_3686{
fill: #E6FFE6;
}
.g7_3686{
fill: #0F0;
}
]]></style>
</defs>
<path d="M68.8,1149.3H852.5v-21.2H68.8v21.2Z" class="g0_3686"/>
<path d="M74.2,851.3H75V423.6h-.8V851.3Z" class="g1_3686"/>
<path d="M846.1,851.3h.7V423.6h-.7V851.3Z" class="g1_3686"/>
<path d="M74.2,423.6H846.9v-.7H74.2v.7Z" class="g1_3686"/>
<path d="M74.2,852H846.9v-.7H74.2v.7Z" class="g1_3686"/>
<path fill-rule="evenodd" d="M210.2,576.1h.6l.3,-.1h.2l.3,-.1l.5,-.2l.3,-.1l.4,-.2l.1,-.2l.2,-.1l.1,-.2l.2,-.1l.2,-.1l.1,-.2c.6,-.7,1,-1.6,1,-2.5l.1,-.2v-.4l-.1,-.3c0,-.8,-.5,-1.9,-1,-2.5l-.1,-.2l-.2,-.1c-.6,-.7,-1.7,-1.2,-2.6,-1.2l-.1,-.1h-.8c-5.6,.5,-5.8,8.3,-.2,9.1h.5Z" class="g2_3686"/>
<path d="M210.2,571.5h11.4l-.7,1.1l-10.1,17.6l-.7,1.2l-.6,-1.1L199.3,572.7l-.7,-1.2H200l.7,.4l10.1,17.6l-1.3,.8v-.8l10,-17.6l1.4,.7l-.6,.5H210.2Z" class="g2_3686"/>
<path d="M200,573.1h10.2v-1.6H200v1.6Z" class="g2_3686"/>
<path fill-rule="evenodd" d="M210.2,572.3h10.1l-10.1,17.6L200,572.3Z" class="g2_3686"/>
<path d="M205.6,571.5h9.2v-102h-9.2v102Z" class="g2_3686"/>
<path fill-rule="evenodd" d="M365.6,574.5h.2l.2,-.1h.3c2.2,-.3,3.7,-2.2,3.9,-4.3v-.8l-.1,-.1V569l-.1,-.3v-.2l-.1,-.3l-.2,-.3l-.1,-.2l-.1,-.2l-.2,-.2l-.1,-.2l-.1,-.1l-.6,-.7l-.2,-.1l-.2,-.2l-.5,-.2l-.3,-.1l-.5,-.3h-.3l-.2,-.1h-1.5c-.8,.3,-1.7,.6,-2.3,1.2l-.3,.3c-.6,.7,-1.1,1.4,-1.1,2.4l-.1,.1v.6c0,2.2,1.6,4.1,3.8,4.5h.3l.2,.1h.3Z" class="g2_3686"/>
<path d="M365.6,569.9h11.5l-.7,1.2l-10.2,17.5l-.6,1.3l-.8,-1.3L354.7,571.1l-.8,-1.2h1.5l.6,.4l10.2,17.5l-1.4,.8v-.8L375,570.3l1.4,.8l-.7,.3H365.6Z" class="g2_3686"/>
<path d="M355.4,571.5h10.2v-1.6H355.4v1.6Z" class="g2_3686"/>
<path fill-rule="evenodd" d="M365.6,570.6h10.1l-10.1,17.5L355.4,570.6Z" class="g2_3686"/>
<path d="M361,569.9h9.2V473.3H361v96.6Z" class="g2_3686"/>
<path fill-rule="evenodd" d="M536.7,573.4h.2l.3,-.1c5.5,-.6,5.4,-8.7,-.3,-9.1h-.6c-2.3,.2,-3.9,1.9,-4.2,4.1v.5c-.1,2.2,1.7,4.2,3.9,4.5h.3l.1,.1h.3Z" class="g2_3686"/>
<path d="M536.7,568.8h11.4l-.7,1.1l-10,17.6l-.8,1.2l-.6,-1.1L525.8,570l-.7,-1.2h1.4l.7,.4l10.2,17.6l-1.4,.8v-.8l10.1,-17.6l1.3,.7l-.6,.4H536.7Z" class="g2_3686"/>
<path d="M526.5,570.4h10.2v-1.6H526.5v1.6Z" class="g2_3686"/>
<path fill-rule="evenodd" d="M536.7,569.5h10.1l-10.1,17.6L526.5,569.5Z" class="g2_3686"/>
<path d="M532.1,568.8h9.2V472.3h-9.2v96.5Z" class="g2_3686"/>
<path d="M491,730.3h94V714.4H491v15.9Z" class="g0_3686"/>
<path d="M491,714.7h94.4V714H491v.7Z" class="g1_3686"/>
<path d="M584.6,730.7h.8V714.4h-.8v16.3Z" class="g1_3686"/>
<path d="M490.6,730.7H585v-.8H490.6v.8Z" class="g1_3686"/>
<path d="M490.6,730.3h.7V714h-.7v16.3Z" class="g1_3686"/>
<path d="M491,746.3h94v-16H491v16Z" class="g3_3686"/>
<path d="M491,730.7h94.4v-.8H491v.8Z" class="g1_3686"/>
<path d="M584.6,746.6h.8V730.3h-.8v16.3Z" class="g1_3686"/>
<path d="M490.6,746.6H585v-.7H490.6v.7Z" class="g1_3686"/>
<path d="M490.6,746.3h.7V729.9h-.7v16.4Z" class="g1_3686"/>
<path d="M491,762.2h94V746.3H491v15.9Z" class="g3_3686"/>
<path d="M491,746.6h94.4v-.7H491v.7Z" class="g1_3686"/>
<path d="M584.6,762.6h.8V746.3h-.8v16.3Z" class="g1_3686"/>
<path d="M490.6,762.6H585v-.8H490.6v.8Z" class="g1_3686"/>
<path d="M490.6,762.2h.7V745.9h-.7v16.3Z" class="g1_3686"/>
<path d="M491,778.2h94v-16H491v16Z" class="g3_3686"/>
<path d="M491,762.6h94.4v-.8H491v.8Z" class="g1_3686"/>
<path d="M584.6,778.5h.8V762.2h-.8v16.3Z" class="g1_3686"/>
<path d="M490.6,778.5H585v-.7H490.6v.7Z" class="g1_3686"/>
<path d="M490.6,778.2h.7V761.8h-.7v16.4Z" class="g1_3686"/>
<path d="M500.6,743.7h94v-16h-94v16Z" class="g0_3686"/>
<path d="M500.6,728H595v-.7H500.6v.7Z" class="g1_3686"/>
<path d="M594.3,744.1h.7V727.7h-.7v16.4Z" class="g1_3686"/>
<path d="M500.2,744.1h94.4v-.8H500.2v.8Z" class="g1_3686"/>
<path d="M500.2,743.7h.8V727.3h-.8v16.4Z" class="g1_3686"/>
<path d="M500.6,759.6h94v-16h-94v16Z" class="g3_3686"/>
<path d="M500.6,744H595v-.8H500.6v.8Z" class="g1_3686"/>
<path d="M594.3,760h.7V743.6h-.7V760Z" class="g1_3686"/>
<path d="M500.2,760h94.4v-.7H500.2v.7Z" class="g1_3686"/>
<path d="M500.2,759.6h.8V743.2h-.8v16.4Z" class="g1_3686"/>
<path d="M500.6,775.6h94v-16h-94v16Z" class="g3_3686"/>
<path d="M500.6,759.9H595v-.7H500.6v.7Z" class="g1_3686"/>
<path d="M594.3,776h.7V759.6h-.7V776Z" class="g1_3686"/>
<path d="M500.2,776h94.4v-.8H500.2v.8Z" class="g1_3686"/>
<path d="M500.2,775.6h.8V759.2h-.8v16.4Z" class="g1_3686"/>
<path d="M500.6,791.5h94v-16h-94v16Z" class="g3_3686"/>
<path d="M500.6,775.9H595v-.8H500.6v.8Z" class="g1_3686"/>
<path d="M594.3,791.9h.7V775.5h-.7v16.4Z" class="g1_3686"/>
<path d="M500.2,791.9h94.4v-.7H500.2v.7Z" class="g1_3686"/>
<path d="M500.2,791.5h.8V775.1h-.8v16.4Z" class="g1_3686"/>
<path d="M511.9,757.2h94v-16h-94v16Z" class="g0_3686"/>
<path d="M511.9,741.6h94.4v-.7H511.9v.7Z" class="g1_3686"/>
<path d="M605.5,757.5h.8V741.2h-.8v16.3Z" class="g1_3686"/>
<path d="M511.5,757.5h94.4v-.7H511.5v.7Z" class="g1_3686"/>
<path d="M511.5,757.2h.7V740.9h-.7v16.3Z" class="g1_3686"/>
<path d="M511.9,773.1h94V757.2h-94v15.9Z" class="g3_3686"/>
<path d="M511.9,757.5h94.4v-.7H511.9v.7Z" class="g1_3686"/>
<path d="M605.5,773.5h.8V757.2h-.8v16.3Z" class="g1_3686"/>
<path d="M511.5,773.5h94.4v-.7H511.5v.7Z" class="g1_3686"/>
<path d="M511.5,773.1h.7V756.8h-.7v16.3Z" class="g1_3686"/>
<path d="M511.9,789.1h94v-16h-94v16Z" class="g3_3686"/>
<path d="M511.9,773.5h94.4v-.7H511.9v.7Z" class="g1_3686"/>
<path d="M605.5,789.4h.8V773.1h-.8v16.3Z" class="g1_3686"/>
<path d="M511.5,789.4h94.4v-.7H511.5v.7Z" class="g1_3686"/>
<path d="M511.5,789.1h.7V772.8h-.7v16.3Z" class="g1_3686"/>
<path d="M511.9,805h94V789.1h-94V805Z" class="g3_3686"/>
<path d="M511.9,789.4h94.4v-.7H511.9v.7Z" class="g1_3686"/>
<path d="M605.5,805.4h.8V789.1h-.8v16.3Z" class="g1_3686"/>
<path d="M511.5,805.4h94.4v-.7H511.5v.7Z" class="g1_3686"/>
<path d="M511.5,805h.7V788.7h-.7V805Z" class="g1_3686"/>
<path d="M495.8,521.9h87v-.8h-87v.8Z" class="g1_3686"/>
<path d="M582.1,555.2h.7V521.5h-.7v33.7Z" class="g1_3686"/>
<path d="M495.5,555.2h86.9v-.7H495.5v.7Z" class="g1_3686"/>
<path d="M495.5,554.9h.7V521.1h-.7v33.8Z" class="g1_3686"/>
<path d="M237.6,602.5l-.1,-1.1l.1,.1l-.5,-1.1v.1l-.7,-1l-1,-1h.1l-1.3,-1v.1l-1.5,-.8l-1.8,-1h.1l-1.9,-.7l-2.1,-.7l-2.4,-.7l-2.5,-.5h.1l-2.7,-.5c-5.1,-.8,-9.5,-.9,-14.7,-.8l-3,.2h.1l-3,.3l-2.7,.3l-2.7,.5l-2.5,.5l-2.3,.7h.1l-2.1,.7l-2,.7l-1.7,1l-1.5,.8l.1,-.1l-1.3,1l-1,1l-.7,1l.1,-.1l-.5,1.1v-.1l-.2,1.1v-.1l.2,1.2v-.1l.5,1.1l-.1,-.1l.7,1.1v-.1l1,1l1.3,.9h-.1l1.5,.9l1.7,.9v-.1l2,.8l2.1,.7h-.1l-.1,.7l-2.1,-.7l-2.1,-.7h-.1c-2.4,-1.3,-6,-3.1,-6.7,-6.1l-.1,-.1l-.2,-1.2c.1,-1.8,1.1,-3.4,2.5,-4.6h.1l1.2,-1l1.5,-.8c11.2,-6.2,32.5,-6.1,44.6,-2.5l2.2,.8v.1l1.9,.7l1.7,.9l1.6,.8h.1l1.3,1l1,1.1l.7,1.1h.1l.4,1.1v.1l.1,1.1Z" class="g1_3686"/>
<path d="M188.7,610.6l2.3,.6l2.5,.6l2.7,.4l2.7,.4l2.9,.3l3,.1c4.8,.2,10,0,14.7,-.8l2.7,-.4h-.1l2.5,-.6l2.4,-.6l2.1,-.7l1.9,-.7h-.1l1.8,-.9l1.5,-.9l1.3,-.9h-.1l1,-1v.1l.7,-1.1v.1l.5,-1.1l-.1,.1l.1,-1.2v.1l.7,-.1v.1l-.1,1.2v.1l-.4,1.1l-.1,.1l-.7,1l-1,1v.1l-1.3,.9h-.1c-4.4,2.9,-9.9,4.2,-15,5l-2.7,.3l-2.9,.3l-3.1,.1l-3.1,.1l-6,-.2l-3,-.3l-2.7,-.3l-2.7,-.5h-.1l-2.5,-.5l-2.2,-.7Z" class="g1_3686"/>
<path d="M366.1,613.2h1.6v-.8h-1.6v.8Z" class="g1_3686"/>
<path d="M366.1,633.7h1.6V613.2h-1.6v20.5Z" class="g1_3686"/>
<path d="M537.6,613.8h1.6v-.7h-1.6v.7Z" class="g1_3686"/>
<path d="M537.6,634.3h1.6V613.8h-1.6v20.5Z" class="g1_3686"/>
<path d="M534.4,668.4h5.8l-.7,1.2l-4.4,7.6l-.7,1.3l-.7,-1.3l-4.4,-7.6l-.8,-1.2H530l.7,.4l4.4,7.6l-1.4,.8v-.8l4.4,-7.6l1.4,.8l-.7,.4h-4.4Z" class="g1_3686"/>
<path d="M530,670h4.4v-1.6H530V670Z" class="g1_3686"/>
<path fill-rule="evenodd" d="M534.4,669.2h4.4l-4.4,7.6L530,669.2Z" class="g1_3686"/>
<path d="M533.7,668.4h1.5v-17h-1.5v17Z" class="g1_3686"/>
<path d="M521.5,770.7h94V754.8h-94v15.9Z" class="g0_3686"/>
<path d="M521.5,755.2h94.4v-.8H521.5v.8Z" class="g1_3686"/>
<path d="M615.2,771.1h.7V754.8h-.7v16.3Z" class="g1_3686"/>
<path d="M521.1,771.1h94.4v-.7H521.1v.7Z" class="g1_3686"/>
<path d="M521.1,770.7h.8V754.4h-.8v16.3Z" class="g1_3686"/>
<path d="M521.5,786.7h94v-16h-94v16Z" class="g3_3686"/>
<path d="M521.5,771.1h94.4v-.7H521.5v.7Z" class="g1_3686"/>
<path d="M615.2,787.1h.7V770.7h-.7v16.4Z" class="g1_3686"/>
<path d="M521.1,787.1h94.4v-.8H521.1v.8Z" class="g1_3686"/>
<path d="M521.1,786.7h.8V770.4h-.8v16.3Z" class="g1_3686"/>
<path d="M521.5,802.6h94V786.7h-94v15.9Z" class="g3_3686"/>
<path d="M521.5,787.1h94.4v-.8H521.5v.8Z" class="g1_3686"/>
<path d="M615.2,803h.7V786.7h-.7V803Z" class="g1_3686"/>
<path d="M521.1,803h94.4v-.7H521.1v.7Z" class="g1_3686"/>
<path d="M521.1,802.6h.8V786.3h-.8v16.3Z" class="g1_3686"/>
<path d="M521.5,818.6h94v-16h-94v16Z" class="g3_3686"/>
<path d="M521.5,803h94.4v-.7H521.5v.7Z" class="g1_3686"/>
<path d="M615.2,818.9h.7V802.6h-.7v16.3Z" class="g1_3686"/>
<path d="M521.1,818.9h94.4v-.7H521.1v.7Z" class="g1_3686"/>
<path d="M521.1,818.6h.8V802.3h-.8v16.3Z" class="g1_3686"/>
<path d="M485.7,696.4H593.8V678H485.7v18.4Z" class="g4_3686"/>
<path d="M485.7,678.3H594.2v-.7H485.7v.7Z" class="g5_3686"/>
<path d="M593.5,696.8h.7V678h-.7v18.8Z" class="g5_3686"/>
<path d="M485.4,696.8H593.8V696H485.4v.8Z" class="g5_3686"/>
<path d="M485.4,696.4h.7V677.6h-.7v18.8Z" class="g5_3686"/>
<path fill-rule="evenodd" d="M536.3,703.1h.4l.2,-.1l.3,-.1l.3,-.2l.2,-.2l.2,-.1l.1,-.1l.2,-.2l.1,-.2l.1,-.2l.1,-.2v-1.3l-.1,-.3l-.1,-.2l-.1,-.2l-.2,-.2l-.1,-.2c-.4,-.2,-.4,-.3,-1,-.5h-.2l-.2,-.1H536l-.2,.1c-1,0,-1.6,.9,-1.8,1.7v.5c-.1,1,.7,1.9,1.6,2.2l.2,.1h.5Z" class="g5_3686"/>
<path d="M536.3,700.8h7.9l-.6,1.1l-6.7,11.6l-.6,1.3l-.8,-1.3l-6.7,-11.6l-.6,-1.1h1.4l.6,.4l6.7,11.6l-1.4,.7v-.7l6.7,-11.6l1.4,.7l-.7,.5h-6.6Z" class="g5_3686"/>
<path d="M529.6,702.4h6.7v-1.6h-6.7v1.6Z" class="g5_3686"/>
<path fill-rule="evenodd" d="M536.3,701.5h6.6l-6.6,11.7l-6.7,-11.7Z" class="g5_3686"/>
<path d="M534,700.8h4.5v-3.5H534v3.5Z" class="g5_3686"/>
<path d="M347.5,792.7H448.7V792H347.5v.7Z" class="g1_3686"/>
<path d="M448,808.7h.7V792.4H448v16.3Z" class="g1_3686"/>
<path d="M347.1,808.7H448.3V808H347.1v.7Z" class="g1_3686"/>
<path d="M347.1,808.3h.8V792h-.8v16.3Z" class="g1_3686"/>
<path d="M298,792.7h49.9V792H298v.7Z" class="g1_3686"/>
<path d="M347.1,808.7h.8V792.4h-.8v16.3Z" class="g1_3686"/>
<path d="M297.6,808.7h49.9V808H297.6v.7Z" class="g1_3686"/>
<path d="M297.6,808.3h.8V792h-.8v16.3Z" class="g1_3686"/>
<path d="M347.5,776.8H448.7V776H347.5v.8Z" class="g1_3686"/>
<path d="M448,792.7h.7V776.4H448v16.3Z" class="g1_3686"/>
<path d="M347.1,792.7H448.3V792H347.1v.7Z" class="g1_3686"/>
<path d="M347.1,792.4h.8V776.1h-.8v16.3Z" class="g1_3686"/>
<path d="M298,776.8h49.9V776H298v.8Z" class="g1_3686"/>
<path d="M347.1,792.7h.8V776.4h-.8v16.3Z" class="g1_3686"/>
<path d="M297.6,792.7h49.9V792H297.6v.7Z" class="g1_3686"/>
<path d="M297.6,792.4h.8V776.1h-.8v16.3Z" class="g1_3686"/>
<path d="M347.5,760.8H448.7v-.7H347.5v.7Z" class="g1_3686"/>
<path d="M448,776.8h.7V760.5H448v16.3Z" class="g1_3686"/>
<path d="M347.1,776.8H448.3V776H347.1v.8Z" class="g1_3686"/>
<path d="M347.1,776.4h.8V760.1h-.8v16.3Z" class="g1_3686"/>
<path d="M298,760.8h49.9v-.7H298v.7Z" class="g1_3686"/>
<path d="M347.1,776.8h.8V760.5h-.8v16.3Z" class="g1_3686"/>
<path d="M297.6,776.8h49.9V776H297.6v.8Z" class="g1_3686"/>
<path d="M297.6,776.4h.8V760.1h-.8v16.3Z" class="g1_3686"/>
<path d="M347.5,744.9H448.7v-.7H347.5v.7Z" class="g1_3686"/>
<path d="M448,760.8h.7V744.5H448v16.3Z" class="g1_3686"/>
<path d="M347.1,760.8H448.3v-.7H347.1v.7Z" class="g1_3686"/>
<path d="M347.1,760.5h.8V744.2h-.8v16.3Z" class="g1_3686"/>
<path d="M298,744.9h49.9v-.7H298v.7Z" class="g1_3686"/>
<path d="M347.1,760.8h.8V744.5h-.8v16.3Z" class="g1_3686"/>
<path d="M297.6,760.8h49.9v-.7H297.6v.7Z" class="g1_3686"/>
<path d="M297.6,760.5h.8V744.2h-.8v16.3Z" class="g1_3686"/>
<path d="M295.2,695.4H446.1v-.8H295.2v.8Z" class="g1_3686"/>
<path d="M445.4,719h.7V695h-.7v24Z" class="g1_3686"/>
<path d="M294.8,719h151v-.7h-151v.7Z" class="g1_3686"/>
<path d="M294.8,718.7h.7V694.6h-.7v24.1Z" class="g1_3686"/>
<path d="M471.3,686.1v-4l1,.3l10.8,3l2.6,.7l-2.6,.8L472.3,690l-1,.3v-1.1l.5,-.7l10.8,-3.1l.5,1.5h-.5l-10.8,-3.1l.5,-1.4l.5,.7v3Z" class="g5_3686"/>
<path d="M471.3,689.2h1.5v-3.1h-1.5v3.1Z" class="g5_3686"/>
<path fill-rule="evenodd" d="M472,686.1v-3l10.8,3L472,689.2Z" class="g5_3686"/>
<path d="M468.3,687h3v-1.6h-3V687Z" class="g5_3686"/>
<path d="M467.9,784.7h.7v-1.6h-.7v1.6Z" class="g5_3686"/>
<path d="M449.9,784.7h18v-1.6h-18v1.6Z" class="g5_3686"/>
<path d="M467.6,785.3h1.5v-.7h-1.5v.7Z" class="g5_3686"/>
<path d="M467.6,784.6h1.5V685.4h-1.5v99.2Z" class="g5_3686"/>
<path d="M276.3,665.4h-1.4h.1l-1.4,.1l-1.4,.2L271,666l-1.4,.2l.1,-.1l-1.3,.4l-1.3,.5h.1l-1.3,.5l-2.4,1.1h.1l-1.1,.7v-.1l-1.2,.7h.1l-1,.8h-.1l-1.1,.8h.1l-1,.9v-.1l-1.8,1.8h.1l-1.7,2V676l-.8,1.1h.1l-.7,1.1l-.8,1.2l.1,-.1l-1.1,2.4l-.5,1.3v-.1l-1.1,3.9l.1,-.2l-.4,2.7l-.1,1.5l-.1,1.4v-.1V802.7l.1,1.5l.1,1.4v-.1l.2,1.3l.2,1.4l-.1,-.1l1.1,3.9v-.1l-1.5,.6v-.1l-.4,-1.2c-1,-2.9,-1.1,-5.5,-1.2,-8.5V692.1c.1,-3.9,.4,-5.9,1.6,-9.6v-.1l.5,-1.3h.1l1.1,-2.4v-.1l.8,-1.2l.6,-1.1v-.1l.8,-1.1h.1c1.6,-2.1,2.7,-3.3,4.7,-4.9l1.1,-.8l-.1,.1l1,-.8c1.1,-.8,2.4,-1.5,3.7,-2l1.2,-.6l1.3,-.6l1.2,-.5h.1l1.3,-.3h.1l1.4,-.3h-.1l1.3,-.3h.1l1.4,-.2h2.9Z" class="g5_3686"/>
<path d="M251.2,811.9l.5,1.3l1.1,2.4l-.1,-.1l.8,1.2l.7,1.1l-.1,-.1l.8,1.1l1.7,2l-.1,-.1l1.8,1.8l1,.9h-.1l1.1,.8l1,.7l1.2,.7l1.1,.7h-.1l1.2,.6l1.2,.6l-.1,-.1l2.6,.9l1.3,.4h-.1l1.4,.2l1.2,.3l1.4,.2l1.4,.1h-.1H627.4l1.3,-.1h-.1l1.4,-.2l2.8,-.5h-.1l1.3,-.4h-.1l1.3,-.5l1.1,-.4l1.3,-.6l-.1,.1l1.2,-.6l1.1,-.7l2.2,-1.4l-.1,.1l1,-.9l1.1,1.2l-1.1,.9l-2.2,1.4v.1l-1.1,.7h-.1c-2.7,1.4,-6.3,2.6,-9.2,3.1h-.1l-1.4,.2l-1.3,.1H274.9l-1.4,-.1h-.1l-1.4,-.2h-.1l-1.3,-.3h.1l-1.4,-.3l-.1,-.1l-1.3,-.3h-.1l-2.5,-.9l-1.2,-.6H264l-1.2,-.6l-1.1,-.7v-.1l-1.2,-.7h-.1c-1.6,-1.1,-2.8,-2.1,-4.1,-3.5l-.9,-.9l-1.7,-2l-.1,-.1l-.8,-1.1l-.6,-1.1l-.8,-1.2v-.1l-1.1,-2.4h-.1l-.5,-1.3Z" class="g5_3686"/>
<path d="M642.9,823.4l2.1,-1.8h-.1l.9,-.9v.1l1.6,-2v.1l1.4,-2.2l1.3,-2.4v.1l.6,-1.2h-.1l.9,-2.6v.1l.3,-1.3l.3,-1.3v.1l.3,-1.4l.2,-1.3v.1l.1,-1.4l.1,-1.5V692.1v.1l-.1,-1.4l-.1,-1.5l-.2,-1.3l-.3,-1.3l-.3,-1.3v.1l-.3,-1.3l-.9,-2.6l.1,.1l-.6,-1.2l-1.3,-2.3L647.4,676v.1l-1.6,-2l-.9,-.9l.1,.1l-2.1,-1.8l-1,-.8l-1.1,-.8h.1l-1.1,-.7v.1l.9,-1.4l1.1,.7c2.8,2,5.8,4.7,7.6,7.7l.7,1.1h.1l1.3,2.4v.1l.5,1.2l.9,2.5v.1l.4,1.3h.1l.3,1.3v.1l.3,1.4l.1,1.3v.1l.1,1.5l.1,1.4V802.8c-.1,2,-.2,3.8,-.6,5.7l-.3,1.3l-.1,.1l-.4,1.3l-.4,1.2c-.5,1.9,-1.4,3.3,-2.3,5l-.1,.1l-.7,1.1c-.9,1.5,-2.1,3,-3.4,4.1v.1l-2,1.8Z" class="g5_3686"/>
<path d="M639.8,669.3l-1.1,-.7h.1l-1.2,-.5l-1.3,-.6l-1.1,-.5l-1.3,-.5h.1l-1.3,-.4l.1,.1l-2.8,-.5l-1.4,-.2h.1l-1.3,-.1H276.3v-1.6H627.5l1.3,.1l1.4,.2h.1l2.7,.6h.1l1.3,.3l1.3,.5l.1,.1l1.2,.5V666l1.3,.6v.1l1.2,.5h.1l1.1,.7Z" class="g5_3686"/>
<path d="M486.2,650.4h108V632h-108v18.4Z" class="g6_3686"/>
<path d="M486.2,632.3H594.5v-.7H486.2v.7Z" class="g7_3686"/>
<path d="M593.8,650.7h.7V632h-.7v18.7Z" class="g7_3686"/>
<path d="M485.8,650.7H594.2V650H485.8v.7Z" class="g7_3686"/>
<path d="M485.8,650.4h.8V631.6h-.8v18.8Z" class="g7_3686"/>
<path d="M332.1,651.4h78.6V633H332.1v18.4Z" class="g6_3686"/>
<path d="M332.1,633.4H411v-.7H332.1v.7Z" class="g7_3686"/>
<path d="M410.3,651.8h.7V633.1h-.7v18.7Z" class="g7_3686"/>
<path d="M331.7,651.8h79V651h-79v.8Z" class="g7_3686"/>
<path d="M331.7,651.4h.8V632.7h-.8v18.7Z" class="g7_3686"/>
<path d="M478.3,640.8v-5.6l1.1,.6l7.7,4.4l1.1,.7l-1.1,.7l-7.7,4.4l-1.1,.6v-1.4l.4,-.6l7.7,-4.4l.7,1.4h-.7l-7.7,-4.4l.7,-1.4l.5,.6v4.4Z" class="g1_3686"/>
<path d="M478.3,645.2h1.6v-4.4h-1.6v4.4Z" class="g1_3686"/>
<path fill-rule="evenodd" d="M479.1,640.8v-4.4l7.7,4.4l-7.7,4.4Z" class="g1_3686"/>
<path d="M411.2,641.7h67.1v-1.6H411.2v1.6Z" class="g1_3686"/>
<path d="M395.3,600.8l-.2,-1.2l.1,.1l-.5,-1.1l-.7,-1.1v.1l-1,-1.1h.1l-1.3,-1v.1l-1.6,-1l-1.7,-.9h.1l-1.9,-.8l-2.2,-.7l-2.3,-.8l-2.5,-.5h.1l-2.6,-.5c-5,-1,-9.8,-.9,-14.8,-.9l-3.1,.2h.1l-2.8,.3l-2.9,.4l-2.6,.5l-2.5,.5l-2.3,.8h.1l-2.1,.7l-2,.8l-1.8,.9l-1.4,1l.1,-.1l-1.3,1l-1,1.1l.1,-.1l-.8,1.1l-.4,1.1v-.1l-.2,1.2v-.1l.2,1.2v-.1l.4,1.2v-.1l.8,1.1h-.1l1,1.1V605l1.3,1h-.1l1.4,.9l1.8,.9l2,.9v-.1l2.1,.7h-.1l-.2,.7l-2.1,-.7l-2,-.8h-.1l-1.7,-.9l-1.5,-1l-1.3,-1.1h-.1l-1,-1.1l-.7,-1.1l-.5,-1.2L335,602l-.1,-1.2v-.1l.1,-1.2l.1,-.1c1,-3.1,4.1,-5,6.8,-6.3h.1l2,-.8v-.1l2.1,-.8l2.3,-.7c4.6,-1,9.3,-1.8,14,-1.9h6.1c5.2,.2,11.3,1,16.2,2.6h.1l2.1,.8v.1l2,.8c2.3,1.2,4.1,1.9,5.6,4h.1l.8,1.1v.1l.4,1.1v.1l.2,1.2Z" class="g1_3686"/>
<path d="M346.3,609.3l2.3,.7l2.5,.6l2.6,.5l2.9,.4l2.8,.3h-.1l3.1,.2c5,0,9.8,0,14.8,-.9l2.6,-.5h-.1l2.5,-.6l2.3,-.7l2.1,-.7v.1l2,-.9h-.1l1.7,-.9l1.6,-.9l1.3,-1l-.1,.1l1,-1.1l.7,-1.1v.1l.5,-1.2l-.1,.1l.2,-1.2v.1l.7,-.1v.1c-2.1,13.5,-38.4,13.3,-47.6,10l-2.3,-.8Z" class="g1_3686"/>
<path d="M578.3,600.7v-.6v.1l-.2,-.6l.1,.1l-.2,-.6l-.4,-.5v.1l-.5,-.6l-.5,-.5h.1l-1.4,-1.1v.1l-1.7,-1h.1l-2.1,-1l-2.3,-.9l-2.7,-.8l-2.8,-.7l-3.3,-.8h.1l-3.4,-.5c-8.2,-1.3,-15.3,-1.5,-23.6,-1.4l-4.1,.2h.1l-4,.3c-6,.7,-10.9,1.2,-16.8,2.9l-2.6,.8h.1l-2.3,.9l-2.1,1l-1.8,1l.1,-.1l-1.3,1.1l-.6,.5l-.5,.6l.1,-.1l-.3,.5l-.3,.6v-.1l-.1,.6l-.1,.6v-.1l.1,.6l.1,.6v-.1l.3,.6v-.1l-.7,.4l-.2,-.6l-.1,-.1c-.3,-.9,-.3,-1.8,.1,-2.7l.2,-.5l.4,-.6l.5,-.5v-.1l.5,-.6h.1l1.4,-1.1l1.7,-1h.1l2.1,-.9l2.3,-.9V593l2.7,-.8l2.9,-.8c12,-2.8,26.1,-3.1,38.4,-2.2l3.8,.5l3.5,.5l3.4,.5l3.2,.7l2.9,.8l2.6,.8l.1,.1l2.4,.9l2,.9l1.8,1h.1l1.3,1.1l.6,.6v.1l.4,.5h.1l.4,.6l.3,.5v.1l.2,.6v.7Z" class="g1_3686"/>
<path d="M497.6,602.3l.3,.6h-.1l.5,.5l.5,.5l1.4,1.1h-.1l1.8,1l2.1,.9l2.3,.9h-.1l2.6,.8c5.9,1.7,10.8,2.2,16.8,2.9l4,.3h-.1l4.1,.2c8.3,.1,15.4,-.1,23.6,-1.4l3.4,-.6h-.1l3.3,-.7l2.8,-.7l2.6,-.8l2.4,-.9l2,-.9l1.7,-1l1.4,-1.1h-.1l.5,-.5l.5,-.5l.4,-.6v.1l.2,-.6h-.1l.2,-.6v.1v-.6h.8v.8c-1.6,6.3,-16.9,9.1,-21.8,9.8l-3.5,.5l-3.8,.4c-14.5,1.2,-34.9,.8,-48.4,-5.5h-.1l-1.7,-1.1l-1.4,-1.1h-.1l-.6,-.6l-.4,-.5v-.1l-.4,-.6Z" class="g1_3686"/>
<path d="M495.8,477.8h87V477h-87v.8Z" class="g1_3686"/>
<path d="M582.1,511.1h.7V477.4h-.7v33.7Z" class="g1_3686"/>
<path d="M495.5,511.1h86.9v-.7H495.5v.7Z" class="g1_3686"/>
<path d="M495.5,510.8h.7V477h-.7v33.8Z" class="g1_3686"/>
<path d="M324,521.9h87v-.8H324v.8Z" class="g1_3686"/>
<path d="M410.3,555.3h.7V521.5h-.7v33.8Z" class="g1_3686"/>
<path d="M323.7,555.3h87v-.7h-87v.7Z" class="g1_3686"/>
<path d="M323.7,554.9h.7V521.1h-.7v33.8Z" class="g1_3686"/>
<path d="M324,477.8h87V477H324v.8Z" class="g1_3686"/>
<path d="M410.3,511.2h.7V477.4h-.7v33.8Z" class="g1_3686"/>
<path d="M323.7,511.2h87v-.7h-87v.7Z" class="g1_3686"/>
<path d="M323.7,510.9h.7V477h-.7v33.9Z" class="g1_3686"/>
<path d="M168.7,521.9h93.1v-.8H168.7v.8Z" class="g1_3686"/>
<path d="M261.1,555.3h.7V521.5h-.7v33.8Z" class="g1_3686"/>
<path d="M168.3,555.3h93.1v-.7H168.3v.7Z" class="g1_3686"/>
<path d="M168.3,554.9h.7V521.1h-.7v33.8Z" class="g1_3686"/>
<path d="M168.7,477.8h91.5V477H168.7v.8Z" class="g1_3686"/>
<path d="M259.5,511.2h.7V477.4h-.7v33.8Z" class="g1_3686"/>
<path d="M168.3,511.2h91.6v-.7H168.3v.7Z" class="g1_3686"/>
<path d="M168.3,510.9h.7V477h-.7v33.9Z" class="g1_3686"/>
<path d="M287,777.5v-5.8l1.2,.8l7.6,4.4l1.3,.6l-1.3,.8l-7.6,4.4l-1.2,.7v-1.5l.4,-.6l7.6,-4.4l.8,1.4H295l-7.6,-4.4l.8,-1.4l.4,.6v4.4Z" class="g1_3686"/>
<path d="M287,781.9h1.6v-4.4H287v4.4Z" class="g1_3686"/>
<path fill-rule="evenodd" d="M287.7,777.5v-4.4l7.6,4.4l-7.6,4.4Z" class="g1_3686"/>
<path d="M208.8,778.3h78.1v-1.5H208.8v1.5Z" class="g1_3686"/>
<path d="M208.2,613.7h1.5V613h-1.5v.7Z" class="g1_3686"/>
<path d="M208.2,778.3h1.5V613.7h-1.5V778.3Z" class="g1_3686"/>
</svg>