<?xml version="1.0" encoding="UTF-8" standalone="no"?>
<!DOCTYPE svg PUBLIC "-//W3C//DTD SVG 1.1//EN"
"http://www.w3.org/Graphics/SVG/1.1/DTD/svg11.dtd">
<svg viewBox="0 0 935 1210" version="1.1" xmlns="http://www.w3.org/2000/svg" xmlns:xlink="http://www.w3.org/1999/xlink">
<defs>
<style type="text/css"><![CDATA[
.g0_27{
fill: #000;
}
]]></style>
</defs>
<path d="M90.4,1075.2h.7V134.8h-.7v940.4Z" class="g0_27"/>
<path d="M250.7,1076h.7V134h-.7v942Z" class="g0_27"/>
<path d="M631.6,1076h.7V134h-.7v942Z" class="g0_27"/>
<path d="M843.9,1075.2h.7V134.8h-.7v940.4Z" class="g0_27"/>
<path d="M90.4,134.8H844.6V134H90.4v.8Z" class="g0_27"/>
<path d="M91.1,160.4H843.9v-.7H91.1v.7Z" class="g0_27"/>
<path d="M91.1,164.2H843.9v-.8H91.1v.8Z" class="g0_27"/>
<path d="M90.4,186.7H844.6V186H90.4v.7Z" class="g0_27"/>
<path d="M90.4,211.2H844.6v-.7H90.4v.7Z" class="g0_27"/>
<path d="M90.4,235.7H844.6v-.8H90.4v.8Z" class="g0_27"/>
<path d="M90.4,260.1H844.6v-.8H90.4v.8Z" class="g0_27"/>
<path d="M90.4,284.5H844.6v-.7H90.4v.7Z" class="g0_27"/>
<path d="M90.4,309H844.6v-.7H90.4v.7Z" class="g0_27"/>
<path d="M90.4,333.4H844.6v-.7H90.4v.7Z" class="g0_27"/>
<path d="M90.4,357.9H844.6v-.8H90.4v.8Z" class="g0_27"/>
<path d="M90.4,382.3H844.6v-.7H90.4v.7Z" class="g0_27"/>
<path d="M90.4,406.7H844.6V406H90.4v.7Z" class="g0_27"/>
<path d="M90.4,431.2H844.6v-.7H90.4v.7Z" class="g0_27"/>
<path d="M90.4,472.4H844.6v-.7H90.4v.7Z" class="g0_27"/>
<path d="M90.4,513.7H844.6V513H90.4v.7Z" class="g0_27"/>
<path d="M90.4,538.2H844.6v-.8H90.4v.8Z" class="g0_27"/>
<path d="M90.4,562.6H844.6v-.8H90.4v.8Z" class="g0_27"/>
<path d="M90.4,587H844.6v-.7H90.4v.7Z" class="g0_27"/>
<path d="M90.4,611.5H844.6v-.7H90.4v.7Z" class="g0_27"/>
<path d="M90.4,635.9H844.6v-.7H90.4v.7Z" class="g0_27"/>
<path d="M90.4,660.4H844.6v-.8H90.4v.8Z" class="g0_27"/>
<path d="M90.4,684.8H844.6v-.7H90.4v.7Z" class="g0_27"/>
<path d="M90.4,709.2H844.6v-.7H90.4v.7Z" class="g0_27"/>
<path d="M90.4,733.7H844.6V733H90.4v.7Z" class="g0_27"/>
<path d="M90.4,758.2H844.6v-.8H90.4v.8Z" class="g0_27"/>
<path d="M90.4,782.6H844.6v-.8H90.4v.8Z" class="g0_27"/>
<path d="M90.4,807H844.6v-.7H90.4v.7Z" class="g0_27"/>
<path d="M90.4,831.5H844.6v-.7H90.4v.7Z" class="g0_27"/>
<path d="M90.4,855.9H844.6v-.7H90.4v.7Z" class="g0_27"/>
<path d="M90.4,880.4H844.6v-.8H90.4v.8Z" class="g0_27"/>
<path d="M90.4,904.8H844.6v-.7H90.4v.7Z" class="g0_27"/>
<path d="M90.4,929.2H844.6v-.7H90.4v.7Z" class="g0_27"/>
<path d="M90.4,953.7H844.6V953H90.4v.7Z" class="g0_27"/>
<path d="M90.4,978.2H844.6v-.8H90.4v.8Z" class="g0_27"/>
<path d="M90.4,1002.7H844.6v-.8H90.4v.8Z" class="g0_27"/>
<path d="M90.4,1027H844.6v-.7H90.4v.7Z" class="g0_27"/>
<path d="M90.4,1051.5H844.6v-.7H90.4v.7Z" class="g0_27"/>
<path d="M90.4,1076H844.6v-.7H90.4v.7Z" class="g0_27"/>
</svg>