<?xml version="1.0" encoding="UTF-8" standalone="no"?>
<!DOCTYPE svg PUBLIC "-//W3C//DTD SVG 1.1//EN"
"http://www.w3.org/Graphics/SVG/1.1/DTD/svg11.dtd">
<svg viewBox="0 0 935 1210" version="1.1" xmlns="http://www.w3.org/2000/svg" xmlns:xlink="http://www.w3.org/1999/xlink">
<defs>
<style type="text/css"><![CDATA[
.g0_302{
fill: #B3B3B3;
}
.g1_302{
fill: #E6E6E6;
}
.g2_302{
fill: #000;
}
]]></style>
</defs>
<path d="M82.5,96.3h770V55H82.5V96.3Z" class="g0_302"/>
<path d="M506.4,218.9h32.3V197.1H506.4v21.8Z" class="g1_302"/>
<path d="M538.7,218.9h32.4V197.1H538.7v21.8Z" class="g1_302"/>
<path d="M571.1,218.9h32.3V197.1H571.1v21.8Z" class="g1_302"/>
<path d="M603.4,218.9h32.4V197.1H603.4v21.8Z" class="g1_302"/>
<path d="M538.7,340h32.4V320.2H538.7V340Z" class="g1_302"/>
<path d="M571.1,340h32.3V320.2H571.1V340Z" class="g1_302"/>
<path d="M603.4,340h32.4V320.2H603.4V340Z" class="g1_302"/>
<path d="M396.3,359.9h32.3V340H396.3v19.9Z" class="g1_302"/>
<path d="M571.1,359.9h32.3V340H571.1v19.9Z" class="g1_302"/>
<path d="M603.4,359.9h32.4V340H603.4v19.9Z" class="g1_302"/>
<path d="M363.9,379.8h32.4V359.9H363.9v19.9Z" class="g1_302"/>
<path d="M396.3,379.8h32.3V359.9H396.3v19.9Z" class="g1_302"/>
<path d="M603.4,379.8h32.4V359.9H603.4v19.9Z" class="g1_302"/>
<path d="M331.6,399.6h32.3V379.8H331.6v19.8Z" class="g1_302"/>
<path d="M363.9,399.6h32.4V379.8H363.9v19.8Z" class="g1_302"/>
<path d="M396.3,399.6h32.3V379.8H396.3v19.8Z" class="g1_302"/>
<path d="M140.8,419.1h.7V157.8h-.7V419.1Z" class="g2_302"/>
<path d="M169.3,218.7h.7V197.3h-.7v21.4Z" class="g2_302"/>
<path d="M201.7,219.1h.7V196.9h-.7v22.2Z" class="g2_302"/>
<path d="M234,219.1h.8V196.9H234v22.2Z" class="g2_302"/>
<path d="M266.4,219.1h.7V196.9h-.7v22.2Z" class="g2_302"/>
<path d="M298.8,218.7h.8V197.3h-.8v21.4Z" class="g2_302"/>
<path d="M298.8,399.2h.8V320.4h-.8v78.8Z" class="g2_302"/>
<path d="M331.2,400h.7V379.4h-.7V400Z" class="g2_302"/>
<path d="M363.6,380.1h.7V359.7h-.7v20.4Z" class="g2_302"/>
<path d="M395.9,360.1h.7V339.8h-.7v20.3Z" class="g2_302"/>
<path d="M428.3,399.2h.7V320.4h-.7v78.8Z" class="g2_302"/>
<path d="M506.2,218.7h.4V197.3h-.4v21.4Z" class="g2_302"/>
<path d="M506,399.2h.7V320.4H506v78.8Z" class="g2_302"/>
<path d="M538.5,219.1h.4V196.9h-.4v22.2Z" class="g2_302"/>
<path d="M538.4,340.2h.7V320h-.7v20.2Z" class="g2_302"/>
<path d="M570.9,219.1h.4V196.9h-.4v22.2Z" class="g2_302"/>
<path d="M570.7,360.1h.8V339.8h-.8v20.3Z" class="g2_302"/>
<path d="M603.3,219.1h.3V196.9h-.3v22.2Z" class="g2_302"/>
<path d="M603.1,380.1h.7V359.7h-.7v20.4Z" class="g2_302"/>
<path d="M635.6,218.7h.4V197.3h-.4v21.4Z" class="g2_302"/>
<path d="M635.4,399.2h.8V320.4h-.8v78.8Z" class="g2_302"/>
<path d="M793.5,419.1h.7V157.8h-.7V419.1Z" class="g2_302"/>
<path d="M140.8,157.7H794.2v-.8H140.8v.8Z" class="g2_302"/>
<path d="M169.3,197.3H299.6v-.4H169.3v.4Z" class="g2_302"/>
<path d="M506.2,197.3H636.1v-.4H506.2v.4Z" class="g2_302"/>
<path d="M169.3,219.1H299.6v-.4H169.3v.4Z" class="g2_302"/>
<path d="M506.2,219.1H636.1v-.4H506.2v.4Z" class="g2_302"/>
<path d="M140.8,278.9H794.2v-.8H140.8v.8Z" class="g2_302"/>
<path d="M298.7,320.4H429V320H298.7v.4Z" class="g2_302"/>
<path d="M506,320.4H636.3V320H506v.4Z" class="g2_302"/>
<path d="M298.7,340.2H429v-.4H298.7v.4Z" class="g2_302"/>
<path d="M506,340.2H636.3v-.4H506v.4Z" class="g2_302"/>
<path d="M298.7,360.1H429v-.4H298.7v.4Z" class="g2_302"/>
<path d="M506,360.1H636.3v-.4H506v.4Z" class="g2_302"/>
<path d="M298.7,380.1H429v-.7H298.7v.7Z" class="g2_302"/>
<path d="M506,380.1H636.3v-.7H506v.7Z" class="g2_302"/>
<path d="M298.7,399.9H429v-.7H298.7v.7Z" class="g2_302"/>
<path d="M506,399.9H636.3v-.7H506v.7Z" class="g2_302"/>
<path d="M140.8,419.8H794.2v-.7H140.8v.7Z" class="g2_302"/>
<path d="M506.4,545.3h32.3V523.5H506.4v21.8Z" class="g1_302"/>
<path d="M538.7,545.3h32.4V523.5H538.7v21.8Z" class="g1_302"/>
<path d="M571.1,545.3h32.3V523.5H571.1v21.8Z" class="g1_302"/>
<path d="M603.4,545.3h32.4V523.5H603.4v21.8Z" class="g1_302"/>
<path d="M635.8,545.3h32.4V523.5H635.8v21.8Z" class="g1_302"/>
<path d="M668.2,545.3h32.4V523.5H668.2v21.8Z" class="g1_302"/>
<path d="M700.6,545.3H733V523.5H700.6v21.8Z" class="g1_302"/>
<path d="M733,545.3h32.3V523.5H733v21.8Z" class="g1_302"/>
<path d="M668.2,680.3h32.4V660.4H668.2v19.9Z" class="g1_302"/>
<path d="M700.6,680.3H733V660.4H700.6v19.9Z" class="g1_302"/>
<path d="M733,680.3h32.3V660.4H733v19.9Z" class="g1_302"/>
<path d="M396.3,700.1h32.3V680.3H396.3v19.8Z" class="g1_302"/>
<path d="M700.6,700.1H733V680.3H700.6v19.8Z" class="g1_302"/>
<path d="M733,700.1h32.3V680.3H733v19.8Z" class="g1_302"/>
<path d="M363.9,719.9h32.4V700.1H363.9v19.8Z" class="g1_302"/>
<path d="M396.3,719.9h32.3V700.1H396.3v19.8Z" class="g1_302"/>
<path d="M733,719.9h32.3V700.1H733v19.8Z" class="g1_302"/>
<path d="M331.6,739.8h32.3V720H331.6v19.8Z" class="g1_302"/>
<path d="M363.9,739.8h32.4V720H363.9v19.8Z" class="g1_302"/>
<path d="M396.3,739.8h32.3V720H396.3v19.8Z" class="g1_302"/>
<path d="M140.8,779.2h.7v-295h-.7v295Z" class="g2_302"/>
<path d="M169.5,545.1h.4V523.7h-.4v21.4Z" class="g2_302"/>
<path d="M169.5,739.7h.4V660.6h-.4v79.1Z" class="g2_302"/>
<path d="M201.8,545.5h.4V523.3h-.4v22.2Z" class="g2_302"/>
<path d="M234.2,545.5h.4V523.3h-.4v22.2Z" class="g2_302"/>
<path d="M266.6,545.5h.3V523.3h-.3v22.2Z" class="g2_302"/>
<path d="M299,545.1h.4V523.7H299v21.4Z" class="g2_302"/>
<path d="M299,740h.4V660.2H299V740Z" class="g2_302"/>
<path d="M331.4,740h.3V719.8h-.3V740Z" class="g2_302"/>
<path d="M363.7,720.1h.4V699.9h-.4v20.2Z" class="g2_302"/>
<path d="M396.1,700.2h.4V680h-.4v20.2Z" class="g2_302"/>
<path d="M428.5,739.7h.3V660.6h-.3v79.1Z" class="g2_302"/>
<path d="M506.2,545h.4V523.9h-.4V545Z" class="g2_302"/>
<path d="M506.2,739.7h.4V660.6h-.4v79.1Z" class="g2_302"/>
<path d="M538.5,545.7h.4V523.1h-.4v22.6Z" class="g2_302"/>
<path d="M570.9,545.7h.4V523.1h-.4v22.6Z" class="g2_302"/>
<path d="M603.3,545.7h.3V523.1h-.3v22.6Z" class="g2_302"/>
<path d="M635.6,545.7h.4V523.1h-.4v22.6Z" class="g2_302"/>
<path d="M635.6,740h.4V660.2h-.4V740Z" class="g2_302"/>
<path d="M668.1,545.7h.3V523.1h-.3v22.6Z" class="g2_302"/>
<path d="M668.1,680.4h.3V660.2h-.3v20.2Z" class="g2_302"/>
<path d="M700.4,545.7h.4V523.1h-.4v22.6Z" class="g2_302"/>
<path d="M700.4,700.2h.4V680h-.4v20.2Z" class="g2_302"/>
<path d="M732.8,545.7h.4V523.1h-.4v22.6Z" class="g2_302"/>
<path d="M732.8,720.1h.4V699.9h-.4v20.2Z" class="g2_302"/>
<path d="M765.1,545h.4V523.9h-.4V545Z" class="g2_302"/>
<path d="M765.1,739.7h.4V660.6h-.4v79.1Z" class="g2_302"/>
<path d="M793.5,779.2h.7v-295h-.7v295Z" class="g2_302"/>
<path d="M140.8,484.2H794.2v-.7H140.8v.7Z" class="g2_302"/>
<path d="M169.5,523.7H299.4v-.4H169.5v.4Z" class="g2_302"/>
<path d="M506.2,523.9H765.5v-.8H506.2v.8Z" class="g2_302"/>
<path d="M169.5,545.5H299.4v-.4H169.5v.4Z" class="g2_302"/>
<path d="M506.2,545.7H765.5V545H506.2v.7Z" class="g2_302"/>
<path d="M140.8,618.8H794.2v-.3H140.8v.3Z" class="g2_302"/>
<path d="M169.5,660.5H428.8v-.3H169.5v.3Z" class="g2_302"/>
<path d="M506.2,660.5H765.5v-.3H506.2v.3Z" class="g2_302"/>
<path d="M169.5,680.4H428.8v-.3H169.5v.3Z" class="g2_302"/>
<path d="M506.2,680.4H765.5v-.3H506.2v.3Z" class="g2_302"/>
<path d="M169.5,700.2H428.8v-.3H169.5v.3Z" class="g2_302"/>
<path d="M506.2,700.2H765.5v-.3H506.2v.3Z" class="g2_302"/>
<path d="M169.5,720.1H428.8v-.3H169.5v.3Z" class="g2_302"/>
<path d="M506.2,720.1H765.5v-.3H506.2v.3Z" class="g2_302"/>
<path d="M169.5,740H428.8v-.3H169.5v.3Z" class="g2_302"/>
<path d="M506.2,740H765.5v-.3H506.2v.3Z" class="g2_302"/>
<path d="M140.8,779.9H794.2v-.7H140.8v.7Z" class="g2_302"/>
</svg>