<?xml version="1.0" encoding="UTF-8" standalone="no"?>
<!DOCTYPE svg PUBLIC "-//W3C//DTD SVG 1.1//EN"
"http://www.w3.org/Graphics/SVG/1.1/DTD/svg11.dtd">
<svg viewBox="0 0 935 1210" version="1.1" xmlns="http://www.w3.org/2000/svg" xmlns:xlink="http://www.w3.org/1999/xlink">
<defs>
<clipPath id="c0_1844"><path d="M766.6,59.2V41.4h72.1V59.2Z"/></clipPath>
<style type="text/css"><![CDATA[
.g0_1844{
fill: #000;
}
.g1_1844{
fill: #E5E5E5;
}
]]></style>
</defs>
<path d="M97.3,62.9v.3H839.9v-.3H97.3Z" class="g0_1844"/>
<path d="M96.2,1114.1h-.1v.4h.1v-.4Z" class="g0_1844"/>
<path d="M838.7,1114.1h.2v.4h-.2v-.4Z" class="g0_1844"/>
<path d="M96.2,1114.1v.4H838.7v-.4H96.2Z" class="g0_1844"/>
<image clip-path="url(#c0_1844)" preserveAspectRatio="none" x="767" y="41" width="72" height="18" xlink:href="img/1.jpg"/>
<path d="M380.7,335.6h458v97.8h-458V335.6Z" class="g1_1844"/>
<path d="M380.7,433.4h458v67.2h-458V433.4Z" class="g1_1844"/>
<path d="M96.6,179.1h-.7V1093h.7V179.1Z" class="g0_1844"/>
<path d="M381,178.4h-.7V873.7h.7V178.4Z" class="g0_1844"/>
<path d="M482.3,178.4h-.7V335.9h.7V178.4Z" class="g0_1844"/>
<path d="M482.3,500.2h-.7V873.7h.7V500.2Z" class="g0_1844"/>
<path d="M583.6,178.4h-.7V335.9h.7V178.4Z" class="g0_1844"/>
<path d="M583.6,500.2h-.7V873.7h.7V500.2Z" class="g0_1844"/>
<path d="M711.4,178.4h-.7V335.9h.7V178.4Z" class="g0_1844"/>
<path d="M711.4,500.2h-.7V794.3h.7V500.2Z" class="g0_1844"/>
<path d="M839.1,179.1h-.7V1093h.7V179.1Z" class="g0_1844"/>
<path d="M95.9,178.4v.7H839.1v-.7H95.9Z" class="g0_1844"/>
<path d="M95.9,243.6v.7H839.1v-.7H95.9Z" class="g0_1844"/>
<path d="M380.3,335.2v.7H839.1v-.7H380.3Z" class="g0_1844"/>
<path d="M95.9,433v.8H839.1V433H95.9Z" class="g0_1844"/>
<path d="M95.9,500.2v.7H839.1v-.7H95.9Z" class="g0_1844"/>
<path d="M95.9,598v.8H839.1V598H95.9Z" class="g0_1844"/>
<path d="M95.9,695.7v.8H839.1v-.8H95.9Z" class="g0_1844"/>
<path d="M95.9,793.5v.8H839.1v-.8H95.9Z" class="g0_1844"/>
<path d="M95.9,873v.7H839.1V873H95.9Z" class="g0_1844"/>
<path d="M95.9,1093v.7H839.1v-.7H95.9Z" class="g0_1844"/>
</svg>