<?xml version="1.0" encoding="UTF-8" standalone="no"?>
<!DOCTYPE svg PUBLIC "-//W3C//DTD SVG 1.1//EN"
"http://www.w3.org/Graphics/SVG/1.1/DTD/svg11.dtd">
<svg viewBox="0 0 935 1210" version="1.1" xmlns="http://www.w3.org/2000/svg" xmlns:xlink="http://www.w3.org/1999/xlink">
<defs>
<style type="text/css"><![CDATA[
.g0_2913{
fill: #FFF;
}
.g1_2913{
fill: #000;
}
]]></style>
</defs>
<path d="M68.9,1149.3H852.7v-21.2H68.9v21.2Z" class="g0_2913"/>
<path d="M69.9,1092h.8V124.1h-.8V1092Z" class="g1_2913"/>
<path d="M399.5,173.1h.7V123.4h-.7v49.7Z" class="g1_2913"/>
<path d="M399.5,267.8h.7V196.7h-.7v71.1Z" class="g1_2913"/>
<path d="M399.5,362.4h.7v-71h-.7v71Z" class="g1_2913"/>
<path d="M399.5,457.2h.7v-71h-.7v71Z" class="g1_2913"/>
<path d="M399.5,530.6h.7V480.9h-.7v49.7Z" class="g1_2913"/>
<path d="M399.5,603.9h.7V554.2h-.7v49.7Z" class="g1_2913"/>
<path d="M399.5,677.2h.7V627.6h-.7v49.6Z" class="g1_2913"/>
<path d="M399.5,750.6h.7V700.9h-.7v49.7Z" class="g1_2913"/>
<path d="M399.5,823.9h.7V774.2h-.7v49.7Z" class="g1_2913"/>
<path d="M399.5,897.2h.7V847.5h-.7v49.7Z" class="g1_2913"/>
<path d="M399.5,970.6h.7V920.9h-.7v49.7Z" class="g1_2913"/>
<path d="M399.5,1043.9h.7V994.2h-.7v49.7Z" class="g1_2913"/>
<path d="M399.5,1092.8h.7v-25.2h-.7v25.2Z" class="g1_2913"/>
<path d="M852.6,1092h.7V124.1h-.7V1092Z" class="g1_2913"/>
<path d="M69.9,124.1H853.3v-.7H69.9v.7Z" class="g1_2913"/>
<path d="M69.9,148.6H853.3v-.7H69.9v.7Z" class="g1_2913"/>
<path d="M69.9,173H853.3v-.8H69.9v.8Z" class="g1_2913"/>
<path d="M69.9,197.4H853.3v-.7H69.9v.7Z" class="g1_2913"/>
<path d="M69.9,221.9H853.3v-.7H69.9v.7Z" class="g1_2913"/>
<path d="M69.9,267.8H853.3V267H69.9v.8Z" class="g1_2913"/>
<path d="M69.9,292.1H853.3v-.7H69.9v.7Z" class="g1_2913"/>
<path d="M69.9,316.6H853.3v-.7H69.9v.7Z" class="g1_2913"/>
<path d="M69.9,362.4H853.3v-.7H69.9v.7Z" class="g1_2913"/>
<path d="M69.9,386.9H853.3v-.7H69.9v.7Z" class="g1_2913"/>
<path d="M69.9,411.4H853.3v-.7H69.9v.7Z" class="g1_2913"/>
<path d="M69.9,457.2H853.3v-.7H69.9v.7Z" class="g1_2913"/>
<path d="M69.9,481.6H853.3v-.7H69.9v.7Z" class="g1_2913"/>
<path d="M69.9,506.1H853.3v-.7H69.9v.7Z" class="g1_2913"/>
<path d="M69.9,530.6H853.3v-.8H69.9v.8Z" class="g1_2913"/>
<path d="M69.9,554.9H853.3v-.7H69.9v.7Z" class="g1_2913"/>
<path d="M69.9,579.4H853.3v-.7H69.9v.7Z" class="g1_2913"/>
<path d="M69.9,603.9H853.3v-.7H69.9v.7Z" class="g1_2913"/>
<path d="M69.9,628.3H853.3v-.7H69.9v.7Z" class="g1_2913"/>
<path d="M69.9,652.8H853.3V652H69.9v.8Z" class="g1_2913"/>
<path d="M69.9,677.2H853.3v-.7H69.9v.7Z" class="g1_2913"/>
<path d="M69.9,701.6H853.3v-.7H69.9v.7Z" class="g1_2913"/>
<path d="M69.9,726.1H853.3v-.7H69.9v.7Z" class="g1_2913"/>
<path d="M69.9,750.6H853.3v-.8H69.9v.8Z" class="g1_2913"/>
<path d="M69.9,774.9H853.3v-.7H69.9v.7Z" class="g1_2913"/>
<path d="M69.9,799.4H853.3v-.7H69.9v.7Z" class="g1_2913"/>
<path d="M69.9,823.9H853.3v-.7H69.9v.7Z" class="g1_2913"/>
<path d="M69.9,848.3H853.3v-.7H69.9v.7Z" class="g1_2913"/>
<path d="M69.9,872.8H853.3V872H69.9v.8Z" class="g1_2913"/>
<path d="M69.9,897.2H853.3v-.7H69.9v.7Z" class="g1_2913"/>
<path d="M69.9,921.6H853.3v-.7H69.9v.7Z" class="g1_2913"/>
<path d="M69.9,946.1H853.3v-.7H69.9v.7Z" class="g1_2913"/>
<path d="M69.9,970.6H853.3v-.8H69.9v.8Z" class="g1_2913"/>
<path d="M69.9,995H853.3v-.8H69.9v.8Z" class="g1_2913"/>
<path d="M69.9,1019.4H853.3v-.7H69.9v.7Z" class="g1_2913"/>
<path d="M69.9,1043.9H853.3v-.7H69.9v.7Z" class="g1_2913"/>
<path d="M69.9,1068.3H853.3v-.8H69.9v.8Z" class="g1_2913"/>
<path d="M69.9,1092.8H853.3v-.8H69.9v.8Z" class="g1_2913"/>
</svg>