<?xml version="1.0" encoding="UTF-8" standalone="no"?>
<!DOCTYPE svg PUBLIC "-//W3C//DTD SVG 1.1//EN"
"http://www.w3.org/Graphics/SVG/1.1/DTD/svg11.dtd">
<svg viewBox="0 0 935 1210" version="1.1" xmlns="http://www.w3.org/2000/svg" xmlns:xlink="http://www.w3.org/1999/xlink">
<defs>
<style type="text/css"><![CDATA[
.g0_572{
fill: #FFF;
}
.g1_572{
fill: #000;
}
]]></style>
</defs>
<path d="M68.8,1149.3H852.5v-21.2H68.8v21.2Z" class="g0_572"/>
<path d="M67.2,293.9H854V264.3H67.2v29.6Z" class="g0_572"/>
<path d="M68.1,287.2h53.5V274.8H68.1v12.4Z" class="g0_572"/>
<path d="M66.8,263.9h.8V124.1h-.8V263.9Z" class="g1_572"/>
<path d="M175.6,264.7h.8V123.4h-.8V264.7Z" class="g1_572"/>
<path d="M853.6,263.9h.7V124.1h-.7V263.9Z" class="g1_572"/>
<path d="M66.8,124.1H854.3v-.7H66.8v.7Z" class="g1_572"/>
<path d="M66.8,148.6H854.3v-.7H66.8v.7Z" class="g1_572"/>
<path d="M66.8,206.6H854.3v-.7H66.8v.7Z" class="g1_572"/>
<path d="M66.8,264.6H854.3v-.7H66.8v.7Z" class="g1_572"/>
</svg>