<?xml version="1.0" encoding="UTF-8" standalone="no"?>
<!DOCTYPE svg PUBLIC "-//W3C//DTD SVG 1.1//EN"
"http://www.w3.org/Graphics/SVG/1.1/DTD/svg11.dtd">
<svg viewBox="0 0 935 1210" version="1.1" xmlns="http://www.w3.org/2000/svg" xmlns:xlink="http://www.w3.org/1999/xlink">
<defs>
<style type="text/css"><![CDATA[
.g0_144{
fill: none;
stroke: #000;
stroke-width: 0.608;
stroke-miterlimit: 10;
}
]]></style>
</defs>
<path d="M111.7,103.8H823.3M112,124.8V104.1m75.7,20.7V104.1m153.1,20.7V104.1M823,124.8V104.1m-711.3,21H823.3M112,146.1V125.4m75.7,20.7V125.4m153.1,20.7V125.4M823,146.1V125.4m-711.3,21H823.3M112,167.4V146.7m75.7,20.7V146.7m153.1,20.7V146.7M823,167.4V146.7M112,188.1V167.4m75.7,20.7V167.4m153.1,20.7V167.4M823,188.1V167.4m-711.3,21H823.3M112,209.5V188.8m75.7,20.7V188.8m153.1,20.7V188.8M823,209.5V188.8M112,230.2V209.5m75.7,20.7V209.5m153.1,20.7V209.5M823,230.2V209.5m-711.3,21H823.3M112,251.5V230.8m75.7,20.7V230.8m153.1,20.7V230.8M823,251.5V230.8M112,272.2V251.5m75.7,20.7V251.5m153.1,20.7V251.5M823,272.2V251.5M112,292.9V272.2m75.7,20.7V272.2m153.1,20.7V272.2M823,292.9V272.2M112,313.6V292.9m75.7,20.7V292.9m153.1,20.7V292.9M823,313.6V292.9M112,334.3V313.6m75.7,20.7V313.6m153.1,20.7V313.6M823,334.3V313.6M112,355V334.3M187.7,355V334.3M340.8,355V334.3M823,355V334.3m-711.3,21H823.3M112,376.3V355.6m75.7,20.7V355.6m153.1,20.7V355.6M823,376.3V355.6M112,397V376.3M187.7,397V376.3M340.8,397V376.3M823,397V376.3m-711.3,21H823.3M112,418.3V397.6m75.7,20.7V397.6m153.1,20.7V397.6M823,418.3V397.6M112,439V418.3M187.7,439V418.3M340.8,439V418.3M823,439V418.3m-711.3,21H823.3M112,460.3V439.6m75.7,20.7V439.6m153.1,20.7V439.6M823,460.3V439.6M112,481V460.3M187.7,481V460.3M340.8,481V460.3M823,481V460.3m-711.3,21H823.3M112,502.3V481.6m75.7,20.7V481.6m153.1,20.7V481.6M823,502.3V481.6M112,523V502.3M187.7,523V502.3M340.8,523V502.3M823,523V502.3m-711.3,21H823.3M345.8,846H589.2M346.1,867V846.3m128,20.7V846.3m58,20.7V846.3M588.9,867V846.3m-243.1,21H589.2m-243.1,21V867.6m128,20.7V867.6m58,20.7V867.6m56.8,20.7V867.6M346.1,909V888.3m128,20.7V888.3m58,20.7V888.3M588.9,909V888.3M346.1,929.7V909m128,20.7V909m58,20.7V909m56.8,20.7V909M345.8,930H589.2M346.1,951V930.3m128,20.7V930.3m58,20.7V930.3M588.9,951V930.3M346.1,971.7V951m128,20.7V951m58,20.7V951m56.8,20.7V951M345.8,972H589.2" class="g0_144"/>
</svg>