<?xml version="1.0" encoding="UTF-8" standalone="no"?>
<!DOCTYPE svg PUBLIC "-//W3C//DTD SVG 1.1//EN"
"http://www.w3.org/Graphics/SVG/1.1/DTD/svg11.dtd">
<svg viewBox="0 0 935 1210" version="1.1" xmlns="http://www.w3.org/2000/svg" xmlns:xlink="http://www.w3.org/1999/xlink">
<defs>
<clipPath id="c0_3110"><path d="M97.3,59.2V41.4h72.1V59.2Z"/></clipPath>
<style type="text/css"><![CDATA[
.g0_3110{
fill: #000;
}
.g1_3110{
fill: none;
stroke: #000;
stroke-width: 0.763;
}
.g2_3110{
fill: #FFF;
stroke: #000;
stroke-width: 1.527;
}
]]></style>
</defs>
<path d="M96.3,63.3H838.8v-.4H96.3v.4Z" class="g0_3110"/>
<path d="M96.1,1114.5h.2v-.4h-.2v.4Z" class="g0_3110"/>
<path d="M96.3,1114.5H838.9v-.4H96.3v.4Z" class="g0_3110"/>
<image clip-path="url(#c0_3110)" preserveAspectRatio="none" x="97" y="41" width="73" height="18" xlink:href="img/1.jpg"/>
<path d="M689.5,923.6v29.1H627.9m-15.5,11.9v19.9H220V855.7h50.1v18.1m342.3,49.7v18.9" class="g1_3110"/>
<path d="M266.3,872.7l3.8,6.6l3.8,-6.6h-7.6Z" class="g0_3110"/>
<path d="M346.6,923.5v27.4h-51M269.5,964v32.9H208.3v-153H346.7v29.9m-77.2,49.7v18.3" class="g1_3110"/>
<path d="M342.9,872.7l3.8,6.6l3.8,-6.6h-7.6Z" class="g0_3110"/>
<path d="M574.1,917.9h76.1V893.2H574.1v24.7Z" class="g2_3110"/>
<path d="M650.2,917.9h76.1V893.2H650.2v24.7Z" class="g2_3110"/>
<path d="M232.6,917.9h76.1V893.2H232.6v24.7Z" class="g2_3110"/>
<path d="M308.7,917.9h76.1V893.2H308.7v24.7Z" class="g2_3110"/>
</svg>