<?xml version="1.0" encoding="UTF-8" standalone="no"?>
<!DOCTYPE svg PUBLIC "-//W3C//DTD SVG 1.1//EN"
"http://www.w3.org/Graphics/SVG/1.1/DTD/svg11.dtd">
<svg viewBox="0 0 935 1210" version="1.1" xmlns="http://www.w3.org/2000/svg" xmlns:xlink="http://www.w3.org/1999/xlink">
<defs>
<style type="text/css"><![CDATA[
.g0_77{
fill: #FFF;
}
.g1_77{
fill: #000;
}
]]></style>
</defs>
<path d="M68.9,1149.3H852.7v-21.2H68.9v21.2Z" class="g0_77"/>
<path d="M67.7,1064.5h.8V124.1h-.8v940.4Z" class="g1_77"/>
<path d="M122.5,1065.3h.7V164.6h-.7v900.7Z" class="g1_77"/>
<path d="M183.4,1065.3h.8V123.4h-.8v941.9Z" class="g1_77"/>
<path d="M418.4,1065.3h.7V123.4h-.7v941.9Z" class="g1_77"/>
<path d="M683.2,1065.3h.7V123.4h-.7v941.9Z" class="g1_77"/>
<path d="M854.2,1064.5h.8V124.1h-.8v940.4Z" class="g1_77"/>
<path d="M67.7,124.1H855v-.7H67.7v.7Z" class="g1_77"/>
<path d="M67.7,165.4H184.2v-.8H67.7v.8Z" class="g1_77"/>
<path d="M67.7,189.8H855v-.7H67.7v.7Z" class="g1_77"/>
<path d="M183.4,247.9H855v-.8H183.4v.8Z" class="g1_77"/>
<path d="M67.7,272.3H855v-.7H67.7v.7Z" class="g1_77"/>
<path d="M183.4,330.4H855v-.8H183.4v.8Z" class="g1_77"/>
<path d="M183.4,388.4H855v-.7H183.4v.7Z" class="g1_77"/>
<path d="M67.7,412.9H855v-.8H67.7v.8Z" class="g1_77"/>
<path d="M183.4,437.3H855v-.7H183.4v.7Z" class="g1_77"/>
<path d="M183.4,495.4H855v-.8H183.4v.8Z" class="g1_77"/>
<path d="M183.4,519.8H855v-.7H183.4v.7Z" class="g1_77"/>
<path d="M183.4,561.1H855v-.7H183.4v.7Z" class="g1_77"/>
<path d="M67.7,585.6H855v-.8H67.7v.8Z" class="g1_77"/>
<path d="M183.4,626.8H855v-.7H183.4v.7Z" class="g1_77"/>
<path d="M183.4,651.2H855v-.7H183.4v.7Z" class="g1_77"/>
<path d="M183.4,675.7H855v-.8H183.4v.8Z" class="g1_77"/>
<path d="M183.4,700.2H855v-.8H183.4v.8Z" class="g1_77"/>
<path d="M183.4,724.5H855v-.7H183.4v.7Z" class="g1_77"/>
<path d="M183.4,749H855v-.7H183.4v.7Z" class="g1_77"/>
<path d="M183.4,773.5H855v-.7H183.4v.7Z" class="g1_77"/>
<path d="M183.4,797.9H855v-.8H183.4v.8Z" class="g1_77"/>
<path d="M183.4,822.3H855v-.7H183.4v.7Z" class="g1_77"/>
<path d="M183.4,846.8H855v-.7H183.4v.7Z" class="g1_77"/>
<path d="M183.4,871.2H855v-.7H183.4v.7Z" class="g1_77"/>
<path d="M67.7,895.7H855v-.8H67.7v.8Z" class="g1_77"/>
<path d="M183.4,920.2H855v-.8H183.4v.8Z" class="g1_77"/>
<path d="M183.4,1016.4H855v-.7H183.4v.7Z" class="g1_77"/>
<path d="M67.7,1040.8H855v-.8H67.7v.8Z" class="g1_77"/>
<path d="M67.7,1065.3H855v-.8H67.7v.8Z" class="g1_77"/>
</svg>