<?xml version="1.0" encoding="UTF-8" standalone="no"?>
<!DOCTYPE svg PUBLIC "-//W3C//DTD SVG 1.1//EN"
"http://www.w3.org/Graphics/SVG/1.1/DTD/svg11.dtd">
<svg viewBox="0 0 825 990" version="1.1" xmlns="http://www.w3.org/2000/svg" xmlns:xlink="http://www.w3.org/1999/xlink">
<defs>
<style type="text/css"><![CDATA[
.g0_866{
fill: #000;
}
.g1_866{
fill: #FFF;
}
]]></style>
</defs>
<path d="M79.8,910.3h.3v-.8h-.3v.8Z" class="g0_866"/>
<path d="M80.1,910.3h650v-.8H80.1v.8Z" class="g0_866"/>
<path d="M145.1,606H729.8V580.1H145.1V606Z" class="g1_866"/>
<path d="M145.1,591.1v-.8Z" class="g0_866"/>
<path d="M145.1,591.1h43.6v-.8H145.1v.8Z" class="g0_866"/>
<path d="M231.5,591.1h.4v-.8h-.4v.8Z" class="g0_866"/>
<path d="M231.9,591.1h86.7v-.8H231.9v.8Z" class="g0_866"/>
<path d="M145.1,670.4H729.8V659.5H145.1v10.9Z" class="g1_866"/>
<path d="M145.1,663.3v-.7Z" class="g0_866"/>
<path d="M145.1,663.3H318.6v-.7H145.1v.7Z" class="g0_866"/>
<path d="M144.7,236.6h1.6V193.8h-1.6v42.8Z" class="g0_866"/>
<path d="M163.3,238.2h.8V192.3h-.8v45.9Z" class="g0_866"/>
<path d="M364.2,238.2h.7V192.3h-.7v45.9Z" class="g0_866"/>
<path d="M729,236.6h1.6V193.8H729v42.8Z" class="g0_866"/>
<path d="M144.7,193.9H730.5v-1.6H144.7v1.6Z" class="g0_866"/>
<path d="M144.7,238.2H730.5v-1.6H144.7v1.6Z" class="g0_866"/>
<path d="M144.7,343.6h1.6V300.8h-1.6v42.8Z" class="g0_866"/>
<path d="M729,343.6h1.6V300.8H729v42.8Z" class="g0_866"/>
<path d="M144.7,300.9H730.5v-1.6H144.7v1.6Z" class="g0_866"/>
<path d="M144.7,345.1H730.5v-1.5H144.7v1.5Z" class="g0_866"/>
</svg>