<?xml version="1.0" encoding="UTF-8" standalone="no"?>
<!DOCTYPE svg PUBLIC "-//W3C//DTD SVG 1.1//EN"
"http://www.w3.org/Graphics/SVG/1.1/DTD/svg11.dtd">
<svg viewBox="0 0 935 1210" version="1.1" xmlns="http://www.w3.org/2000/svg" xmlns:xlink="http://www.w3.org/1999/xlink">
<defs>
<style type="text/css"><![CDATA[
.g0_973{
fill: #FFF;
}
.g1_973{
fill: #000;
}
]]></style>
</defs>
<path d="M68.9,1149.3H755.2v-21.2H68.9v21.2Z" class="g0_973"/>
<path d="M771.3,1149.3H855v-21.2H771.3v21.2Z" class="g0_973"/>
<path d="M69.9,348h.8V125.7h-.8V348Z" class="g1_973"/>
<path d="M355.6,348.7h.7V124.9h-.7V348.7Z" class="g1_973"/>
<path d="M398,348.7h.8V124.9H398V348.7Z" class="g1_973"/>
<path d="M471.3,348.7h.8V124.9h-.8V348.7Z" class="g1_973"/>
<path d="M542.8,348.7h.7V124.9h-.7V348.7Z" class="g1_973"/>
<path d="M855.1,348h.7V125.7h-.7V348Z" class="g1_973"/>
<path d="M69.9,125.7H855.8v-.8H69.9v.8Z" class="g1_973"/>
<path d="M69.9,179.1H855.8v-.7H69.9v.7Z" class="g1_973"/>
<path d="M69.9,235.7H855.8v-.8H69.9v.8Z" class="g1_973"/>
<path d="M69.9,292.1H855.8v-.7H69.9v.7Z" class="g1_973"/>
<path d="M69.9,348.7H855.8V348H69.9v.7Z" class="g1_973"/>
<path d="M69.9,476.3h.8V403.7h-.8v72.6Z" class="g1_973"/>
<path d="M137.6,477h.7V403h-.7v74Z" class="g1_973"/>
<path d="M317,477h.7V403H317v74Z" class="g1_973"/>
<path d="M493.6,477h.8V403h-.8v74Z" class="g1_973"/>
<path d="M667.3,477h.8V403h-.8v74Z" class="g1_973"/>
<path d="M851,476.3h.8V403.7H851v72.6Z" class="g1_973"/>
<path d="M69.9,403.7H851.8V403H69.9v.7Z" class="g1_973"/>
<path d="M69.9,428.2H851.8v-.8H69.9v.8Z" class="g1_973"/>
<path d="M69.9,452.7H851.8v-.8H69.9v.8Z" class="g1_973"/>
<path d="M69.9,477H851.8v-.7H69.9v.7Z" class="g1_973"/>
</svg>