<?xml version="1.0" encoding="UTF-8" standalone="no"?>
<!DOCTYPE svg PUBLIC "-//W3C//DTD SVG 1.1//EN"
"http://www.w3.org/Graphics/SVG/1.1/DTD/svg11.dtd">
<svg viewBox="0 0 935 1210" version="1.1" xmlns="http://www.w3.org/2000/svg" xmlns:xlink="http://www.w3.org/1999/xlink">
<defs>
<style type="text/css"><![CDATA[
.g0_136{
fill: none;
stroke: #000;
stroke-width: 0.608;
stroke-miterlimit: 10;
}
]]></style>
</defs>
<path d="M140.6,120.6H794.4m-653.5,17V120.9m90.8,16.7V120.9m55.9,16.7V120.9m49.9,16.7V120.9m55.4,16.7V120.9m44.9,16.7V120.9m19.8,16.7V120.9m50.5,16.7V120.9m56,16.7V120.9m45.4,16.7V120.9m19.9,16.7V120.9m48.1,16.7V120.9m53.7,16.7V120.9m43.1,16.7V120.9m19.8,16.7V120.9m-653.5,17H794.4m-653.8,93H794.4M140.9,248V231.3M231.7,248V231.3M287.6,248V231.3M337.5,248V231.3M392.9,248V231.3M437.8,248V231.3M457.6,248V231.3M508.1,248V231.3m56,16.7V231.3M609.5,248V231.3M629.4,248V231.3M677.5,248V231.3M731.2,248V231.3M774.3,248V231.3M794.1,248V231.3m-653.5,17H794.4m-579,231.5H719.6M215.7,496.9V480.1m503.6,16.8V480.1M215.4,497.2H719.6" class="g0_136"/>
</svg>