<?xml version="1.0" encoding="UTF-8" standalone="no"?>
<!DOCTYPE svg PUBLIC "-//W3C//DTD SVG 1.1//EN"
"http://www.w3.org/Graphics/SVG/1.1/DTD/svg11.dtd">
<svg viewBox="0 0 935 1210" version="1.1" xmlns="http://www.w3.org/2000/svg" xmlns:xlink="http://www.w3.org/1999/xlink">
<defs>
<style type="text/css"><![CDATA[
.g0_1127{
fill: #FFF;
}
.g1_1127{
fill: #000;
}
]]></style>
</defs>
<path d="M68.9,1149.3H755.2v-21.2H68.9v21.2Z" class="g0_1127"/>
<path d="M771.3,1149.3H855v-21.2H771.3v21.2Z" class="g0_1127"/>
<path d="M70.3,232.8H848.2V203.2H70.3v29.6Z" class="g0_1127"/>
<path d="M71.2,226.1h53.6V213.7H71.2v12.4Z" class="g0_1127"/>
<path d="M69.9,202.9h.8V125.7h-.8v77.2Z" class="g1_1127"/>
<path d="M219.5,203.6h.8V124.9h-.8v78.7Z" class="g1_1127"/>
<path d="M389.2,203.6h.7V124.9h-.7v78.7Z" class="g1_1127"/>
<path d="M427.1,203.6h.7V124.9h-.7v78.7Z" class="g1_1127"/>
<path d="M500.4,203.6h.7V124.9h-.7v78.7Z" class="g1_1127"/>
<path d="M571.8,203.6h.8V124.9h-.8v78.7Z" class="g1_1127"/>
<path d="M847.8,202.9h.8V125.7h-.8v77.2Z" class="g1_1127"/>
<path d="M69.9,125.7H848.6v-.8H69.9v.8Z" class="g1_1127"/>
<path d="M69.9,163.8H848.6v-.7H69.9v.7Z" class="g1_1127"/>
<path d="M69.9,203.6H848.6v-.7H69.9v.7Z" class="g1_1127"/>
<path d="M69.9,356.2h.8V308.1h-.8v48.1Z" class="g1_1127"/>
<path d="M143.1,357h.7V307.3h-.7V357Z" class="g1_1127"/>
<path d="M313.7,357h.7V307.3h-.7V357Z" class="g1_1127"/>
<path d="M492.3,357h.7V307.3h-.7V357Z" class="g1_1127"/>
<path d="M669.1,357h.7V307.3h-.7V357Z" class="g1_1127"/>
<path d="M848.7,356.2h.8V308.1h-.8v48.1Z" class="g1_1127"/>
<path d="M69.9,308H849.5v-.7H69.9v.7Z" class="g1_1127"/>
<path d="M69.9,332.5H849.5v-.8H69.9v.8Z" class="g1_1127"/>
<path d="M69.9,357H849.5v-.8H69.9v.8Z" class="g1_1127"/>
</svg>