<?xml version="1.0" encoding="UTF-8" standalone="no"?>
<!DOCTYPE svg PUBLIC "-//W3C//DTD SVG 1.1//EN"
"http://www.w3.org/Graphics/SVG/1.1/DTD/svg11.dtd">
<svg viewBox="0 0 935 1210" version="1.1" xmlns="http://www.w3.org/2000/svg" xmlns:xlink="http://www.w3.org/1999/xlink">
<defs>
<style type="text/css"><![CDATA[
.g0_321{
fill: #FFF;
}
.g1_321{
fill: #000;
}
]]></style>
</defs>
<path d="M68.9,1149.3H852.7v-21.2H68.9v21.2Z" class="g0_321"/>
<path d="M69.9,839.9h.8V179.1h-.8V839.9Z" class="g1_321"/>
<path d="M126.7,840.7h.7V219.6h-.7V840.7Z" class="g1_321"/>
<path d="M183.4,840.7h.8V178.4h-.8V840.7Z" class="g1_321"/>
<path d="M427.6,840.7h.8V178.4h-.8V840.7Z" class="g1_321"/>
<path d="M521.1,840.7h.8V178.4h-.8V840.7Z" class="g1_321"/>
<path d="M852.1,839.9h.8V179.1h-.8V839.9Z" class="g1_321"/>
<path d="M69.9,179.1h783v-.7H69.9v.7Z" class="g1_321"/>
<path d="M69.9,220.4H184.2v-.8H69.9v.8Z" class="g1_321"/>
<path d="M69.9,244.8h783v-.7H69.9v.7Z" class="g1_321"/>
<path d="M69.9,290.7h783v-.8H69.9v.8Z" class="g1_321"/>
<path d="M69.9,336.5h783v-.7H69.9v.7Z" class="g1_321"/>
<path d="M69.9,382.3h783v-.7H69.9v.7Z" class="g1_321"/>
<path d="M69.9,428.2h783v-.8H69.9v.8Z" class="g1_321"/>
<path d="M69.9,474h783v-.7H69.9v.7Z" class="g1_321"/>
<path d="M69.9,519.8h783v-.7H69.9v.7Z" class="g1_321"/>
<path d="M69.9,565.7h783v-.8H69.9v.8Z" class="g1_321"/>
<path d="M69.9,611.5h783v-.7H69.9v.7Z" class="g1_321"/>
<path d="M69.9,657.3h783v-.7H69.9v.7Z" class="g1_321"/>
<path d="M69.9,703.2h783v-.8H69.9v.8Z" class="g1_321"/>
<path d="M69.9,749h783v-.7H69.9v.7Z" class="g1_321"/>
<path d="M69.9,794.8h783v-.7H69.9v.7Z" class="g1_321"/>
<path d="M69.9,840.7h783v-.8H69.9v.8Z" class="g1_321"/>
<path d="M69.9,1092h.8V953.8h-.8V1092Z" class="g1_321"/>
<path d="M126.7,1092.8h.7V994.2h-.7v98.6Z" class="g1_321"/>
<path d="M183.4,1092.8h.8V953h-.8v139.8Z" class="g1_321"/>
<path d="M435.2,1092.8h.8V953h-.8v139.8Z" class="g1_321"/>
<path d="M528.5,1092.8h.8V953h-.8v139.8Z" class="g1_321"/>
<path d="M853,1092h.8V953.8H853V1092Z" class="g1_321"/>
<path d="M69.9,953.7h784V953H69.9v.7Z" class="g1_321"/>
<path d="M69.9,995H184.2v-.8H69.9v.8Z" class="g1_321"/>
<path d="M69.9,1019.4h784v-.7H69.9v.7Z" class="g1_321"/>
<path d="M183.4,1043.9H853.9v-.7H183.4v.7Z" class="g1_321"/>
<path d="M183.4,1068.3H853.9v-.8H183.4v.8Z" class="g1_321"/>
<path d="M69.9,1092.8h784v-.8H69.9v.8Z" class="g1_321"/>
</svg>