<?xml version="1.0" encoding="UTF-8" standalone="no"?>
<!DOCTYPE svg PUBLIC "-//W3C//DTD SVG 1.1//EN"
"http://www.w3.org/Graphics/SVG/1.1/DTD/svg11.dtd">
<svg viewBox="0 0 935 1210" version="1.1" xmlns="http://www.w3.org/2000/svg" xmlns:xlink="http://www.w3.org/1999/xlink">
<defs>
<clipPath id="c0_1395"><path d="M97.3,59.2V41.4h72.1V59.2Z"/></clipPath>
<style type="text/css"><![CDATA[
.g0_1395{
fill: #000;
}
]]></style>
</defs>
<path d="M96.2,62.9v.3H838.7v-.3H96.2Z" class="g0_1395"/>
<path d="M96.2,1114.1h-.1v.4h.1v-.4Z" class="g0_1395"/>
<path d="M838.7,1114.1h.2v.4h-.2v-.4Z" class="g0_1395"/>
<path d="M96.2,1114.1v.4H838.7v-.4H96.2Z" class="g0_1395"/>
<image clip-path="url(#c0_1395)" preserveAspectRatio="none" x="97" y="41" width="72" height="18" xlink:href="img/1.jpg"/>
<path d="M559,791.2v1.1h31.4v-1.1H559Z" class="g0_1395"/>
<path d="M680.6,791.2v1.1h36.5v-1.1H680.6Z" class="g0_1395"/>
<path d="M559,818.7v1.1h31.4v-1.1H559Z" class="g0_1395"/>
<path d="M680.6,818.7v1.1h36.5v-1.1H680.6Z" class="g0_1395"/>
<path d="M96.6,967.1h-.7v132.5h.7V967.1Z" class="g0_1395"/>
<path d="M137.9,964h-.8v93.6h.8V964Z" class="g0_1395"/>
<path d="M179.1,964h-.7v93.6h.7V964Z" class="g0_1395"/>
<path d="M220.4,964h-.8v93.6h.8V964Z" class="g0_1395"/>
<path d="M261.6,964h-.7v93.6h.7V964Z" class="g0_1395"/>
<path d="M302.9,964h-.8v93.6h.8V964Z" class="g0_1395"/>
<path d="M344.1,964h-.7v93.6h.7V964Z" class="g0_1395"/>
<path d="M385.4,964h-.8v93.6h.8V964Z" class="g0_1395"/>
<path d="M467.9,964h-.8v93.6h.8V964Z" class="g0_1395"/>
<path d="M509.1,964h-.7v93.6h.7V964Z" class="g0_1395"/>
<path d="M550.4,964h-.8v93.6h.8V964Z" class="g0_1395"/>
<path d="M591.6,964h-.7v93.6h.7V964Z" class="g0_1395"/>
<path d="M632.9,964h-.8v93.6h.8V964Z" class="g0_1395"/>
<path d="M674.1,964h-.7v93.6h.7V964Z" class="g0_1395"/>
<path d="M715.3,964h-.7v93.6h.7V964Z" class="g0_1395"/>
<path d="M756.6,964h-.7v93.6h.7V964Z" class="g0_1395"/>
<path d="M797.8,964h-.7v93.6h.7V964Z" class="g0_1395"/>
<path d="M839.1,967.1h-.7v132.5h.7V967.1Z" class="g0_1395"/>
<path d="M95.9,964v3.1H839.1V964H95.9Z" class="g0_1395"/>
<path d="M95.9,994.6v3.1H839.1v-3.1H95.9Z" class="g0_1395"/>
<path d="M95.9,1026.3v.7H839.1v-.7H95.9Z" class="g0_1395"/>
<path d="M95.9,1056.9v.7H839.1v-.7H95.9Z" class="g0_1395"/>
<path d="M95.9,1099.6v.7H839.1v-.7H95.9Z" class="g0_1395"/>
</svg>