<?xml version="1.0" encoding="UTF-8" standalone="no"?>
<!DOCTYPE svg PUBLIC "-//W3C//DTD SVG 1.1//EN"
"http://www.w3.org/Graphics/SVG/1.1/DTD/svg11.dtd">
<svg viewBox="0 0 935 1210" version="1.1" xmlns="http://www.w3.org/2000/svg" xmlns:xlink="http://www.w3.org/1999/xlink">
<defs>
<style type="text/css"><![CDATA[
.g0_2290{
fill: #FFF;
}
.g1_2290{
fill: #000;
}
]]></style>
</defs>
<path d="M165,1149.3H852.5v-21.2H165v21.2Z" class="g0_2290"/>
<path d="M68.8,1149.3h82.5v-21.2H68.8v21.2Z" class="g0_2290"/>
<path d="M68.9,755.3H847.2V725.7H68.9v29.6Z" class="g0_2290"/>
<path d="M69.9,748.6h53.5V736.3H69.9v12.3Z" class="g0_2290"/>
<path d="M68.6,725.4h.7V131.8h-.7V725.4Z" class="g1_2290"/>
<path d="M214.6,726.1h.7V131h-.7V726.1Z" class="g1_2290"/>
<path d="M523.9,726.1h.7V131h-.7V726.1Z" class="g1_2290"/>
<path d="M846.8,725.4h.8V131.8h-.8V725.4Z" class="g1_2290"/>
<path d="M68.6,131.7h779V131H68.6v.7Z" class="g1_2290"/>
<path d="M68.6,160.8h779v-.7H68.6v.7Z" class="g1_2290"/>
<path d="M68.6,189.8h779v-.7H68.6v.7Z" class="g1_2290"/>
<path d="M68.6,218.8h779v-.7H68.6v.7Z" class="g1_2290"/>
<path d="M68.6,247.9h779v-.8H68.6v.8Z" class="g1_2290"/>
<path d="M68.6,276.9h779v-.7H68.6v.7Z" class="g1_2290"/>
<path d="M68.6,305.9h779v-.7H68.6v.7Z" class="g1_2290"/>
<path d="M68.6,334.9h779v-.7H68.6v.7Z" class="g1_2290"/>
<path d="M68.6,364h779v-.7H68.6v.7Z" class="g1_2290"/>
<path d="M68.6,393h779v-.8H68.6v.8Z" class="g1_2290"/>
<path d="M68.6,438.9h779v-.7H68.6v.7Z" class="g1_2290"/>
<path d="M68.6,484.7h779V484H68.6v.7Z" class="g1_2290"/>
<path d="M68.6,530.6h779v-.8H68.6v.8Z" class="g1_2290"/>
<path d="M68.6,559.5h779v-.7H68.6v.7Z" class="g1_2290"/>
<path d="M68.6,588.6h779v-.7H68.6v.7Z" class="g1_2290"/>
<path d="M68.6,651.2h779v-.7H68.6v.7Z" class="g1_2290"/>
<path d="M68.6,680.3h779v-.8H68.6v.8Z" class="g1_2290"/>
<path d="M68.6,726.1h779v-.7H68.6v.7Z" class="g1_2290"/>
</svg>