<?xml version="1.0" encoding="UTF-8" standalone="no"?>
<!DOCTYPE svg PUBLIC "-//W3C//DTD SVG 1.1//EN"
"http://www.w3.org/Graphics/SVG/1.1/DTD/svg11.dtd">
<svg viewBox="0 0 935 1210" version="1.1" xmlns="http://www.w3.org/2000/svg" xmlns:xlink="http://www.w3.org/1999/xlink">
<defs>
<style type="text/css"><![CDATA[
.g0_861{
fill: #FFF;
}
.g1_861{
fill: #000;
}
]]></style>
</defs>
<path d="M68.9,1149.3H755.2v-21.2H68.9v21.2Z" class="g0_861"/>
<path d="M771.3,1149.3H855v-21.2H771.3v21.2Z" class="g0_861"/>
<path d="M69.9,538.9h.8V147h-.8V538.9Z" class="g1_861"/>
<path d="M303.6,539.7h.7V146.3h-.7V539.7Z" class="g1_861"/>
<path d="M349.3,539.7h.7V146.3h-.7V539.7Z" class="g1_861"/>
<path d="M423.7,539.7h.7V146.3h-.7V539.7Z" class="g1_861"/>
<path d="M508.7,539.7h.7V146.3h-.7V539.7Z" class="g1_861"/>
<path d="M853.5,538.9h.7V147h-.7V538.9Z" class="g1_861"/>
<path d="M69.9,147H854.2v-.7H69.9v.7Z" class="g1_861"/>
<path d="M69.9,200.5H854.2v-.8H69.9v.8Z" class="g1_861"/>
<path d="M69.9,257H854.2v-.7H69.9v.7Z" class="g1_861"/>
<path d="M69.9,313.6H854.2v-.7H69.9v.7Z" class="g1_861"/>
<path d="M69.9,370.1H854.2v-.8H69.9v.8Z" class="g1_861"/>
<path d="M69.9,426.6H854.2v-.7H69.9v.7Z" class="g1_861"/>
<path d="M69.9,483.2H854.2v-.8H69.9v.8Z" class="g1_861"/>
<path d="M69.9,539.7H854.2V539H69.9v.7Z" class="g1_861"/>
<path d="M69.9,667.2h.8V594.7h-.8v72.5Z" class="g1_861"/>
<path d="M146.2,668.1h.7V593.9h-.7v74.2Z" class="g1_861"/>
<path d="M229,668.1h.7V593.9H229v74.2Z" class="g1_861"/>
<path d="M379.5,668.1h.7V593.9h-.7v74.2Z" class="g1_861"/>
<path d="M539.7,668.1h.8V593.9h-.8v74.2Z" class="g1_861"/>
<path d="M700.4,668.1h.8V593.9h-.8v74.2Z" class="g1_861"/>
<path d="M862.8,667.2h.7V594.7h-.7v72.5Z" class="g1_861"/>
<path d="M69.9,594.7H863.5V594H69.9v.7Z" class="g1_861"/>
<path d="M69.9,619.1H863.5v-.7H69.9v.7Z" class="g1_861"/>
<path d="M69.9,643.6H863.5v-.7H69.9v.7Z" class="g1_861"/>
<path d="M69.9,668.1H863.5v-.8H69.9v.8Z" class="g1_861"/>
</svg>