<?xml version="1.0" encoding="UTF-8" standalone="no"?>
<!DOCTYPE svg PUBLIC "-//W3C//DTD SVG 1.1//EN"
"http://www.w3.org/Graphics/SVG/1.1/DTD/svg11.dtd">
<svg viewBox="0 0 935 1210" version="1.1" xmlns="http://www.w3.org/2000/svg" xmlns:xlink="http://www.w3.org/1999/xlink">
<defs>
<style type="text/css"><![CDATA[
.g0_212{
fill: #000;
}
]]></style>
</defs>
<path d="M89,602.7h.7V134.8H89V602.7Z" class="g0_212"/>
<path d="M171.5,603.4h.7V161.5h-.7V603.4Z" class="g0_212"/>
<path d="M254,603.4h.7V134H254V603.4Z" class="g0_212"/>
<path d="M584,603.4h.7V134H584V603.4Z" class="g0_212"/>
<path d="M652.8,603.4h.7V134h-.7V603.4Z" class="g0_212"/>
<path d="M735.3,603.4h.7V134h-.7V603.4Z" class="g0_212"/>
<path d="M845.3,602.7h.7V134.8h-.7V602.7Z" class="g0_212"/>
<path d="M89,134.8H846V134H89v.8Z" class="g0_212"/>
<path d="M89,162.3H254.7v-.8H89v.8Z" class="g0_212"/>
<path d="M89.7,187.9H845.3v-.7H89.7v.7Z" class="g0_212"/>
<path d="M89.7,191.7H845.3v-.8H89.7v.8Z" class="g0_212"/>
<path d="M89,355.3H846v-.7H89v.7Z" class="g0_212"/>
<path d="M89,537.7H846V537H89v.7Z" class="g0_212"/>
<path d="M89,562.2H846v-.7H89v.7Z" class="g0_212"/>
<path d="M89,603.4H846v-.7H89v.7Z" class="g0_212"/>
<path d="M109.6,1080.4h.8V679.8h-.8v400.6Z" class="g0_212"/>
<path d="M219.6,1081.1h.8V706.6h-.8v374.5Z" class="g0_212"/>
<path d="M329.6,1081.1h.8v-402h-.8v402Z" class="g0_212"/>
<path d="M439.6,1081.1h.8v-402h-.8v402Z" class="g0_212"/>
<path d="M824.6,1080.4h.8V679.8h-.8v400.6Z" class="g0_212"/>
<path d="M109.6,679.8H825.4v-.7H109.6v.7Z" class="g0_212"/>
<path d="M109.6,707.3H330.4v-.7H109.6v.7Z" class="g0_212"/>
<path d="M110.4,732.9H824.6v-.8H110.4v.8Z" class="g0_212"/>
<path d="M110.4,736.7H824.6V736H110.4v.7Z" class="g0_212"/>
<path d="M109.6,759.3H825.4v-.8H109.6v.8Z" class="g0_212"/>
<path d="M109.6,783.8H825.4V783H109.6v.8Z" class="g0_212"/>
<path d="M109.6,808.1H825.4v-.7H109.6v.7Z" class="g0_212"/>
<path d="M109.6,832.6H825.4v-.7H109.6v.7Z" class="g0_212"/>
<path d="M109.6,857.1H825.4v-.7H109.6v.7Z" class="g0_212"/>
<path d="M109.6,881.5H825.4v-.8H109.6v.8Z" class="g0_212"/>
<path d="M109.6,905.9H825.4v-.7H109.6v.7Z" class="g0_212"/>
<path d="M109.6,930.4H825.4v-.7H109.6v.7Z" class="g0_212"/>
<path d="M109.6,954.8H825.4v-.7H109.6v.7Z" class="g0_212"/>
<path d="M109.6,1032.3H825.4v-.8H109.6v.8Z" class="g0_212"/>
<path d="M109.6,1056.6H825.4v-.7H109.6v.7Z" class="g0_212"/>
<path d="M109.6,1081.1H825.4v-.7H109.6v.7Z" class="g0_212"/>
<path d="M267.9,448.4h.4V381.6h-.4v66.8Z" class="g0_212"/>
<path d="M336.7,448.8h.4V381.1h-.4v67.7Z" class="g0_212"/>
<path d="M405.4,448.8h.4V381.1h-.4v67.7Z" class="g0_212"/>
<path d="M570.4,448.4h.4V381.6h-.4v66.8Z" class="g0_212"/>
<path d="M267.9,381.5H570.8v-.4H267.9v.4Z" class="g0_212"/>
<path d="M268.3,405.1H570.4v-.8H268.3v.8Z" class="g0_212"/>
<path d="M268.3,407.4H570.4v-.8H268.3v.8Z" class="g0_212"/>
<path d="M267.9,427.3H570.8V427H267.9v.3Z" class="g0_212"/>
<path d="M267.9,448.8H570.8v-.4H267.9v.4Z" class="g0_212"/>
</svg>