<?xml version="1.0" encoding="UTF-8" standalone="no"?>
<!DOCTYPE svg PUBLIC "-//W3C//DTD SVG 1.1//EN"
"http://www.w3.org/Graphics/SVG/1.1/DTD/svg11.dtd">
<svg viewBox="0 0 935 1210" version="1.1" xmlns="http://www.w3.org/2000/svg" xmlns:xlink="http://www.w3.org/1999/xlink">
<defs>
<clipPath id="c0_2673"><path d="M97.3,59.2V41.4h72.1V59.2Z"/></clipPath>
<style type="text/css"><![CDATA[
.g0_2673{
fill: #000;
}
]]></style>
</defs>
<path d="M96.3,63.3H838.8v-.4H96.3v.4Z" class="g0_2673"/>
<path d="M96.1,1114.5h.2v-.4h-.2v.4Z" class="g0_2673"/>
<path d="M96.3,1114.5H838.9v-.4H96.3v.4Z" class="g0_2673"/>
<image clip-path="url(#c0_2673)" preserveAspectRatio="none" x="97" y="41" width="73" height="18" xlink:href="img/1.jpg"/>
<path d="M557.9,934.5h31.4v-1.1H557.9v1.1Z" class="g0_2673"/>
<path d="M680.1,934.5h20.3v-1.1H680.1v1.1Z" class="g0_2673"/>
<path d="M700.4,934.5h8.5v-1.1h-8.5v1.1Z" class="g0_2673"/>
<path d="M238.9,682.6h.7V463.3h-.7V682.6Z" class="g0_2673"/>
<path d="M377.6,683.3h.7V462.6h-.7V683.3Z" class="g0_2673"/>
<path d="M562.5,683.3h.7V462.6h-.7V683.3Z" class="g0_2673"/>
<path d="M695.4,682.6h.7V463.3h-.7V682.6Z" class="g0_2673"/>
<path d="M238.9,463.3H696.1v-.8H238.9v.8Z" class="g0_2673"/>
<path d="M238.9,487.8H696.1V487H238.9v.8Z" class="g0_2673"/>
<path d="M238.9,512.1H696.1v-.7H238.9v.7Z" class="g0_2673"/>
<path d="M238.9,536.6H696.1v-.7H238.9v.7Z" class="g0_2673"/>
<path d="M238.9,561.1H696.1v-.7H238.9v.7Z" class="g0_2673"/>
<path d="M238.9,585.5H696.1v-.8H238.9v.8Z" class="g0_2673"/>
<path d="M238.9,609.9H696.1v-.7H238.9v.7Z" class="g0_2673"/>
<path d="M238.9,634.4H696.1v-.7H238.9v.7Z" class="g0_2673"/>
<path d="M238.9,658.8H696.1v-.7H238.9v.7Z" class="g0_2673"/>
<path d="M238.9,683.3H696.1v-.8H238.9v.8Z" class="g0_2673"/>
<path d="M95.9,772.7h.7v-45h-.7v45Z" class="g0_2673"/>
<path d="M216,773.5h.7V726.8H216v46.7Z" class="g0_2673"/>
<path d="M293.3,773.5h.8V726.8h-.8v46.7Z" class="g0_2673"/>
<path d="M839.1,772.7h.7v-45h-.7v45Z" class="g0_2673"/>
<path d="M95.9,727.6h744v-.8H95.9v.8Z" class="g0_2673"/>
<path d="M95.9,751.7h744v-3.1H95.9v3.1Z" class="g0_2673"/>
<path d="M95.9,773.4h744v-.7H95.9v.7Z" class="g0_2673"/>
</svg>