<?xml version="1.0" encoding="UTF-8" standalone="no"?>
<!DOCTYPE svg PUBLIC "-//W3C//DTD SVG 1.1//EN"
"http://www.w3.org/Graphics/SVG/1.1/DTD/svg11.dtd">
<svg viewBox="0 0 825 990" version="1.1" xmlns="http://www.w3.org/2000/svg" xmlns:xlink="http://www.w3.org/1999/xlink">
<defs>
<style type="text/css"><![CDATA[
.g0_63{
fill: #000;
}
]]></style>
</defs>
<path d="M94.9,910.3h.3v-.8h-.3v.8Z" class="g0_63"/>
<path d="M95.2,910.3h650v-.8H95.2v.8Z" class="g0_63"/>
<path d="M335.5,568.3H744.9v-.7H335.5v.7Z" class="g0_63"/>
<path d="M335.5,603.4H744.9v-.7H335.5v.7Z" class="g0_63"/>
<path d="M335.5,632.2H744.9V632H335.5v.2Z" class="g0_63"/>
<path d="M335.5,661.3H744.9v-.2H335.5v.2Z" class="g0_63"/>
<path d="M335.5,690.3H744.9v-.2H335.5v.2Z" class="g0_63"/>
<path d="M335.5,719.3H744.9v-.2H335.5v.2Z" class="g0_63"/>
<path d="M335.5,748.4H744.9v-.2H335.5v.2Z" class="g0_63"/>
<path d="M335.5,777.3H744.9v-.1H335.5v.1Z" class="g0_63"/>
<path d="M335.5,826.6H744.9v-.8H335.5v.8Z" class="g0_63"/>
</svg>