<?xml version="1.0" encoding="UTF-8" standalone="no"?>
<!DOCTYPE svg PUBLIC "-//W3C//DTD SVG 1.1//EN"
"http://www.w3.org/Graphics/SVG/1.1/DTD/svg11.dtd">
<svg viewBox="0 0 935 1210" version="1.1" xmlns="http://www.w3.org/2000/svg" xmlns:xlink="http://www.w3.org/1999/xlink">
<defs>
<style type="text/css"><![CDATA[
.g0_125{
fill: #FFF;
}
.g1_125{
fill: #000;
}
]]></style>
</defs>
<path d="M68.9,1149.3H852.7v-21.2H68.9v21.2Z" class="g0_125"/>
<path d="M71,338.3H851.7V308.6H71v29.7Z" class="g0_125"/>
<path d="M72,331.6h53.4V319.1H72v12.5Z" class="g0_125"/>
<path d="M70.9,986H852V956.4H70.9V986Z" class="g0_125"/>
<path d="M71.8,979.3h53.4V966.9H71.8v12.4Z" class="g0_125"/>
<path d="M772,578.5h8.5v-1.1H772v1.1Z" class="g1_125"/>
<path d="M772,633.5h8.5v-1.1H772v1.1Z" class="g1_125"/>
<path d="M679.3,688.5h8.5v-1.1h-8.5v1.1Z" class="g1_125"/>
<path d="M772,688.5h8.5v-1.1H772v1.1Z" class="g1_125"/>
<path d="M679.3,743.5h8.5v-1.1h-8.5v1.1Z" class="g1_125"/>
<path d="M772,743.5h8.5v-1.1H772v1.1Z" class="g1_125"/>
<path d="M772,798.5h8.5v-1.1H772v1.1Z" class="g1_125"/>
<path d="M772,853.5h8.5v-1.1H772v1.1Z" class="g1_125"/>
<path d="M772,908.5h8.5v-1.1H772v1.1Z" class="g1_125"/>
<path d="M70.7,308.3h.7V131.8h-.7V308.3Z" class="g1_125"/>
<path d="M158.7,309h.7V131h-.7V309Z" class="g1_125"/>
<path d="M851.3,308.3h.7V131.8h-.7V308.3Z" class="g1_125"/>
<path d="M70.6,131.7H852.1V131H70.6v.7Z" class="g1_125"/>
<path d="M70.6,176.1H852.1v-.7H70.6v.7Z" class="g1_125"/>
<path d="M70.6,205.1H852.1v-.8H70.6v.8Z" class="g1_125"/>
<path d="M70.6,234.1H852.1v-.7H70.6v.7Z" class="g1_125"/>
<path d="M70.6,263.2H852.1v-.8H70.6v.8Z" class="g1_125"/>
<path d="M70.6,309H852.1v-.7H70.6v.7Z" class="g1_125"/>
<path d="M69.8,930.8h2.3V460.1H69.8V930.8Z" class="g1_125"/>
<path d="M83.5,493.1h.7V457.8h-.7v35.3Z" class="g1_125"/>
<path d="M83.5,767.3h.7V655.8h-.7V767.3Z" class="g1_125"/>
<path d="M83.5,877.3h.7V820.8h-.7v56.5Z" class="g1_125"/>
<path d="M96.5,493.1h.8V457.8h-.8v35.3Z" class="g1_125"/>
<path d="M109.5,493.1h.8V457.8h-.8v35.3Z" class="g1_125"/>
<path d="M122.6,493.1h.7V457.8h-.7v35.3Z" class="g1_125"/>
<path d="M135.7,493.1h.7V457.8h-.7v35.3Z" class="g1_125"/>
<path d="M148.7,493.1h.7V457.8h-.7v35.3Z" class="g1_125"/>
<path d="M161.7,493.1h.7V457.8h-.7v35.3Z" class="g1_125"/>
<path d="M174.7,493.1h.8V457.8h-.8v35.3Z" class="g1_125"/>
<path d="M187.8,493.1h.8V457.8h-.8v35.3Z" class="g1_125"/>
<path d="M200.8,493.1h.8V457.8h-.8v35.3Z" class="g1_125"/>
<path d="M213.9,493.1h.7V457.8h-.7v35.3Z" class="g1_125"/>
<path d="M226.9,493.1h.7V457.8h-.7v35.3Z" class="g1_125"/>
<path d="M239.9,493.1h.7V457.8h-.7v35.3Z" class="g1_125"/>
<path d="M266,493.1h.7V457.8H266v35.3Z" class="g1_125"/>
<path d="M295,493.1h.7V457.8H295v35.3Z" class="g1_125"/>
<path d="M295,602.3h.7V545.8H295v56.5Z" class="g1_125"/>
<path d="M295,767.3h.7V655.8H295V767.3Z" class="g1_125"/>
<path d="M295,877.3h.7V820.8H295v56.5Z" class="g1_125"/>
<path d="M323.9,493.1h.8V457.8h-.8v35.3Z" class="g1_125"/>
<path d="M337,493.1h.7V457.8H337v35.3Z" class="g1_125"/>
<path d="M350,493.1h.7V457.8H350v35.3Z" class="g1_125"/>
<path d="M363.1,548.1h.7V457.8h-.7v90.3Z" class="g1_125"/>
<path d="M376.1,493.1h.7V457.8h-.7v35.3Z" class="g1_125"/>
<path d="M389.1,493.1h.8V457.8h-.8v35.3Z" class="g1_125"/>
<path d="M402.1,493.1h.8V457.8h-.8v35.3Z" class="g1_125"/>
<path d="M415.2,493.1h.8V457.8h-.8v35.3Z" class="g1_125"/>
<path d="M428.3,493.1h.7V457.8h-.7v35.3Z" class="g1_125"/>
<path d="M441.3,493.1h.7V457.8h-.7v35.3Z" class="g1_125"/>
<path d="M454.3,493.1h.7V457.8h-.7v35.3Z" class="g1_125"/>
<path d="M467.3,493.1h.8V457.8h-.8v35.3Z" class="g1_125"/>
<path d="M480.4,493.1h.8V457.8h-.8v35.3Z" class="g1_125"/>
<path d="M493.4,493.1h.8V457.8h-.8v35.3Z" class="g1_125"/>
<path d="M506.5,493.1h.7V457.8h-.7v35.3Z" class="g1_125"/>
<path d="M506.5,712.3h.7V655.8h-.7v56.5Z" class="g1_125"/>
<path d="M519.5,493.1h.7V457.8h-.7v35.3Z" class="g1_125"/>
<path d="M532.6,493.1h.7V457.8h-.7v35.3Z" class="g1_125"/>
<path d="M545.6,493.1h.7V457.8h-.7v35.3Z" class="g1_125"/>
<path d="M558.6,493.1h.7V457.8h-.7v35.3Z" class="g1_125"/>
<path d="M571.6,493.1h.8V457.8h-.8v35.3Z" class="g1_125"/>
<path d="M584.6,493.1h.8V457.8h-.8v35.3Z" class="g1_125"/>
<path d="M597.8,493.1h.7V457.8h-.7v35.3Z" class="g1_125"/>
<path d="M610.8,493.1h.7V457.8h-.7v35.3Z" class="g1_125"/>
<path d="M610.8,712.3h.7V655.8h-.7v56.5Z" class="g1_125"/>
<path d="M623.8,493.1h.7V457.8h-.7v35.3Z" class="g1_125"/>
<path d="M623.8,602.3h.7V545.8h-.7v56.5Z" class="g1_125"/>
<path d="M623.8,767.3h.7V655.8h-.7V767.3Z" class="g1_125"/>
<path d="M623.8,877.3h.7V820.8h-.7v56.5Z" class="g1_125"/>
<path d="M636.8,493.1h.7V457.8h-.7v35.3Z" class="g1_125"/>
<path d="M649.9,493.1h.8V457.8h-.8v35.3Z" class="g1_125"/>
<path d="M662.9,493.1h.8V457.8h-.8v35.3Z" class="g1_125"/>
<path d="M662.9,602.3h.8V545.8h-.8v56.5Z" class="g1_125"/>
<path d="M662.9,712.3h.8V655.8h-.8v56.5Z" class="g1_125"/>
<path d="M662.9,877.3h.8V820.8h-.8v56.5Z" class="g1_125"/>
<path d="M676,493.1h.7V457.8H676v35.3Z" class="g1_125"/>
<path d="M676,767.3h.7V655.8H676V767.3Z" class="g1_125"/>
<path d="M676,877.3h.7V820.8H676v56.5Z" class="g1_125"/>
<path d="M690.4,493.1h.8V457.8h-.8v35.3Z" class="g1_125"/>
<path d="M690.4,767.3h.8V655.8h-.8V767.3Z" class="g1_125"/>
<path d="M690.4,877.3h.8V820.8h-.8v56.5Z" class="g1_125"/>
<path d="M703.5,493.1h.7V457.8h-.7v35.3Z" class="g1_125"/>
<path d="M703.5,767.3h.7V655.8h-.7V767.3Z" class="g1_125"/>
<path d="M703.5,877.3h.7V820.8h-.7v56.5Z" class="g1_125"/>
<path d="M716.5,602.3h.7V457.8h-.7V602.3Z" class="g1_125"/>
<path d="M716.5,767.3h.7V655.8h-.7V767.3Z" class="g1_125"/>
<path d="M716.5,877.3h.7V820.8h-.7v56.5Z" class="g1_125"/>
<path d="M729.6,493.1h.7V457.8h-.7v35.3Z" class="g1_125"/>
<path d="M729.6,602.3h.7V545.8h-.7v56.5Z" class="g1_125"/>
<path d="M729.6,767.3h.7V655.8h-.7V767.3Z" class="g1_125"/>
<path d="M729.6,877.3h.7V820.8h-.7v56.5Z" class="g1_125"/>
<path d="M742.6,493.1h.7V457.8h-.7v35.3Z" class="g1_125"/>
<path d="M742.6,602.3h.7V545.8h-.7v56.5Z" class="g1_125"/>
<path d="M742.6,767.3h.7V655.8h-.7V767.3Z" class="g1_125"/>
<path d="M742.6,877.3h.7V820.8h-.7v56.5Z" class="g1_125"/>
<path d="M755.6,493.1h.7V457.8h-.7v35.3Z" class="g1_125"/>
<path d="M755.6,767.3h.7V655.8h-.7V767.3Z" class="g1_125"/>
<path d="M755.6,877.3h.7V820.8h-.7v56.5Z" class="g1_125"/>
<path d="M768.6,493.1h.8V457.8h-.8v35.3Z" class="g1_125"/>
<path d="M768.6,933.1h.8V545.8h-.8V933.1Z" class="g1_125"/>
<path d="M782.4,933.1h2.3V457.8h-2.3V933.1Z" class="g1_125"/>
<path d="M850.8,930.8h2.3V460.1h-2.3V930.8Z" class="g1_125"/>
<path d="M69.7,460.1H853v-2.3H69.7v2.3Z" class="g1_125"/>
<path d="M69.7,493.1H853v-2.3H69.7v2.3Z" class="g1_125"/>
<path d="M69.7,548.1H853v-2.3H69.7v2.3Z" class="g1_125"/>
<path d="M69.7,602.3H853v-.7H69.7v.7Z" class="g1_125"/>
<path d="M69.7,658.2H853v-2.3H69.7v2.3Z" class="g1_125"/>
<path d="M69.7,712.3H853v-.7H69.7v.7Z" class="g1_125"/>
<path d="M69.7,767.3H853v-.7H69.7v.7Z" class="g1_125"/>
<path d="M69.7,823.2H853v-2.3H69.7v2.3Z" class="g1_125"/>
<path d="M69.7,877.3H853v-.7H69.7v.7Z" class="g1_125"/>
<path d="M69.7,933.2H853v-2.3H69.7v2.3Z" class="g1_125"/>
</svg>