<?xml version="1.0" encoding="UTF-8" standalone="no"?>
<!DOCTYPE svg PUBLIC "-//W3C//DTD SVG 1.1//EN"
"http://www.w3.org/Graphics/SVG/1.1/DTD/svg11.dtd">
<svg viewBox="0 0 935 1210" version="1.1" xmlns="http://www.w3.org/2000/svg" xmlns:xlink="http://www.w3.org/1999/xlink">
<defs>
<style type="text/css"><![CDATA[
.g0_4881{
fill: #FFF;
}
.g1_4881{
fill: #000;
}
]]></style>
</defs>
<path d="M68.9,1149.3H852.7v-21.2H68.9v21.2Z" class="g0_4881"/>
<path d="M69.9,1092h.8V142.4h-.8V1092Z" class="g1_4881"/>
<path d="M126.7,1092.8h.7V183h-.7v909.8Z" class="g1_4881"/>
<path d="M183.4,1092.8h.8V141.7h-.8v951.1Z" class="g1_4881"/>
<path d="M422.9,1092.8h.7V141.7h-.7v951.1Z" class="g1_4881"/>
<path d="M516.1,1092.8h.7V141.7h-.7v951.1Z" class="g1_4881"/>
<path d="M852.2,1092h.8V142.4h-.8V1092Z" class="g1_4881"/>
<path d="M69.9,142.4H853v-.7H69.9v.7Z" class="g1_4881"/>
<path d="M69.9,183.7H184.2V183H69.9v.7Z" class="g1_4881"/>
<path d="M69.9,208.2H853v-.8H69.9v.8Z" class="g1_4881"/>
<path d="M69.9,232.6H853v-.8H69.9v.8Z" class="g1_4881"/>
<path d="M69.9,278.4H853v-.7H69.9v.7Z" class="g1_4881"/>
<path d="M69.9,324.2H853v-.7H69.9v.7Z" class="g1_4881"/>
<path d="M183.4,370.1H853v-.8H183.4v.8Z" class="g1_4881"/>
<path d="M183.4,394.5H853v-.7H183.4v.7Z" class="g1_4881"/>
<path d="M183.4,419H853v-.7H183.4v.7Z" class="g1_4881"/>
<path d="M183.4,443.5H853v-.8H183.4v.8Z" class="g1_4881"/>
<path d="M183.4,467.9H853v-.8H183.4v.8Z" class="g1_4881"/>
<path d="M183.4,492.3H853v-.7H183.4v.7Z" class="g1_4881"/>
<path d="M183.4,516.8H853v-.7H183.4v.7Z" class="g1_4881"/>
<path d="M183.4,541.2H853v-.7H183.4v.7Z" class="g1_4881"/>
<path d="M183.4,565.7H853v-.8H183.4v.8Z" class="g1_4881"/>
<path d="M183.4,590.2H853v-.8H183.4v.8Z" class="g1_4881"/>
<path d="M183.4,614.5H853v-.7H183.4v.7Z" class="g1_4881"/>
<path d="M183.4,639H853v-.7H183.4v.7Z" class="g1_4881"/>
<path d="M183.4,663.5H853v-.8H183.4v.8Z" class="g1_4881"/>
<path d="M183.4,687.9H853v-.8H183.4v.8Z" class="g1_4881"/>
<path d="M183.4,712.3H853v-.7H183.4v.7Z" class="g1_4881"/>
<path d="M183.4,736.8H853v-.7H183.4v.7Z" class="g1_4881"/>
<path d="M183.4,761.2H853v-.7H183.4v.7Z" class="g1_4881"/>
<path d="M183.4,785.7H853v-.8H183.4v.8Z" class="g1_4881"/>
<path d="M69.9,810.2H853v-.8H69.9v.8Z" class="g1_4881"/>
<path d="M183.4,872.8H853V872H183.4v.8Z" class="g1_4881"/>
<path d="M183.4,897.2H853v-.7H183.4v.7Z" class="g1_4881"/>
<path d="M183.4,921.6H853v-.7H183.4v.7Z" class="g1_4881"/>
<path d="M183.4,946.1H853v-.7H183.4v.7Z" class="g1_4881"/>
<path d="M183.4,970.6H853v-.8H183.4v.8Z" class="g1_4881"/>
<path d="M183.4,995H853v-.8H183.4v.8Z" class="g1_4881"/>
<path d="M183.4,1019.4H853v-.7H183.4v.7Z" class="g1_4881"/>
<path d="M183.4,1043.9H853v-.7H183.4v.7Z" class="g1_4881"/>
<path d="M183.4,1068.3H853v-.8H183.4v.8Z" class="g1_4881"/>
<path d="M69.9,1092.8H853v-.8H69.9v.8Z" class="g1_4881"/>
</svg>