<?xml version="1.0" encoding="UTF-8" standalone="no"?>
<!DOCTYPE svg PUBLIC "-//W3C//DTD SVG 1.1//EN"
"http://www.w3.org/Graphics/SVG/1.1/DTD/svg11.dtd">
<svg viewBox="0 0 935 1210" version="1.1" xmlns="http://www.w3.org/2000/svg" xmlns:xlink="http://www.w3.org/1999/xlink">
<defs>
<style type="text/css"><![CDATA[
.g0_1878{
fill: #FFF;
}
.g1_1878{
fill: #000;
}
]]></style>
</defs>
<path d="M165,1149.3H852.5v-21.2H165v21.2Z" class="g0_1878"/>
<path d="M68.8,1149.3h82.5v-21.2H68.8v21.2Z" class="g0_1878"/>
<path d="M68.6,251.7h.7v-126h-.7v126Z" class="g1_1878"/>
<path d="M303.2,179.1h.8V124.9h-.8v54.2Z" class="g1_1878"/>
<path d="M303.2,252.4h.8v-74h-.8v74Z" class="g1_1878"/>
<path d="M349.9,179.1h.7V124.9h-.7v54.2Z" class="g1_1878"/>
<path d="M349.9,252.4h.7v-74h-.7v74Z" class="g1_1878"/>
<path d="M423.2,179.1h.8V124.9h-.8v54.2Z" class="g1_1878"/>
<path d="M423.2,252.4h.8v-74h-.8v74Z" class="g1_1878"/>
<path d="M548,252.4h.7V124.9H548V252.4Z" class="g1_1878"/>
<path d="M850.8,251.7h.7v-126h-.7v126Z" class="g1_1878"/>
<path d="M68.6,125.7H851.5v-.8H68.6v.8Z" class="g1_1878"/>
<path d="M68.6,179.1H548.8v-.7H68.6v.7Z" class="g1_1878"/>
<path d="M548,179.1H851.5v-.7H548v.7Z" class="g1_1878"/>
<path d="M68.6,252.4H548v-.7H68.6v.7Z" class="g1_1878"/>
<path d="M548.8,252.4H851.5v-.7H548.8v.7Z" class="g1_1878"/>
<path d="M68.6,355.6h.7V307.4h-.7v48.2Z" class="g1_1878"/>
<path d="M134.3,356.4h.7V306.7h-.7v49.7Z" class="g1_1878"/>
<path d="M227.5,356.4h.7V306.7h-.7v49.7Z" class="g1_1878"/>
<path d="M373.6,356.4h.8V306.7h-.8v49.7Z" class="g1_1878"/>
<path d="M533.5,356.4h.7V306.7h-.7v49.7Z" class="g1_1878"/>
<path d="M692.2,356.4h.7V306.7h-.7v49.7Z" class="g1_1878"/>
<path d="M848.8,355.6h.8V307.4h-.8v48.2Z" class="g1_1878"/>
<path d="M68.6,307.4H849.7v-.7H68.6v.7Z" class="g1_1878"/>
<path d="M68.6,331.9H849.7v-.7H68.6v.7Z" class="g1_1878"/>
<path d="M68.6,356.3H849.7v-.7H68.6v.7Z" class="g1_1878"/>
</svg>