<?xml version="1.0" encoding="UTF-8" standalone="no"?>
<!DOCTYPE svg PUBLIC "-//W3C//DTD SVG 1.1//EN"
"http://www.w3.org/Graphics/SVG/1.1/DTD/svg11.dtd">
<svg viewBox="0 0 825 990" version="1.1" xmlns="http://www.w3.org/2000/svg" xmlns:xlink="http://www.w3.org/1999/xlink">
<defs>
<style type="text/css"><![CDATA[
.g0_1104{
fill: #000;
}
]]></style>
</defs>
<path d="M79.8,910.3h.3v-.8h-.3v.8Z" class="g0_1104"/>
<path d="M80.1,910.3h650v-.8H80.1v.8Z" class="g0_1104"/>
<path d="M80.1,179.7H729.8v-.8H80.1v.8Z" class="g0_1104"/>
<path d="M80.1,216H729.8v-.8H80.1v.8Z" class="g0_1104"/>
<path d="M80.1,245.9H729.8v-.2H80.1v.2Z" class="g0_1104"/>
<path d="M80.1,276H729.8v-.2H80.1v.2Z" class="g0_1104"/>
<path d="M80.1,305.1H729.8v-.2H80.1v.2Z" class="g0_1104"/>
<path d="M80.1,334H729.8v-.1H80.1v.1Z" class="g0_1104"/>
<path d="M80.1,363.1H729.8v-.2H80.1v.2Z" class="g0_1104"/>
<path d="M80.1,392.1H729.8V392H80.1v.1Z" class="g0_1104"/>
<path d="M80.1,421.2H729.8V421H80.1v.2Z" class="g0_1104"/>
<path d="M80.1,450.2H729.8V450H80.1v.2Z" class="g0_1104"/>
<path d="M80.1,479.2H729.8v-.1H80.1v.1Z" class="g0_1104"/>
<path d="M80.1,508.3H729.8v-.2H80.1v.2Z" class="g0_1104"/>
<path d="M80.1,537.3H729.8v-.2H80.1v.2Z" class="g0_1104"/>
<path d="M80.1,566.3H729.8v-.2H80.1v.2Z" class="g0_1104"/>
<path d="M80.1,595.4H729.8v-.2H80.1v.2Z" class="g0_1104"/>
<path d="M80.1,624.3H729.8v-.1H80.1v.1Z" class="g0_1104"/>
<path d="M80.1,653.4H729.8v-.2H80.1v.2Z" class="g0_1104"/>
<path d="M80.1,682.7H729.8V682H80.1v.7Z" class="g0_1104"/>
</svg>