<?xml version="1.0" encoding="UTF-8" standalone="no"?>
<!DOCTYPE svg PUBLIC "-//W3C//DTD SVG 1.1//EN"
"http://www.w3.org/Graphics/SVG/1.1/DTD/svg11.dtd">
<svg viewBox="0 0 935 1210" version="1.1" xmlns="http://www.w3.org/2000/svg" xmlns:xlink="http://www.w3.org/1999/xlink">
<defs>
<style type="text/css"><![CDATA[
.g0_285{
fill: #FFF;
}
.g1_285{
fill: #000;
}
]]></style>
</defs>
<path d="M68.9,1149.3H852.7v-21.2H68.9v21.2Z" class="g0_285"/>
<path d="M171.3,814.3h.8V581.7h-.8V814.3Z" class="g1_285"/>
<path d="M750.7,814.3h.7V581.7h-.7V814.3Z" class="g1_285"/>
<path d="M171.3,581.7H751.4V581H171.3v.7Z" class="g1_285"/>
<path d="M171.3,815H751.4v-.7H171.3v.7Z" class="g1_285"/>
<path d="M242.4,626.2h110V598.7h-110v27.5Z" class="g0_285"/>
<path d="M242.4,599H352.7v-.7H242.4v.7Z" class="g1_285"/>
<path d="M352,626.5h.7V598.7H352v27.8Z" class="g1_285"/>
<path d="M242,626.5H352.4v-.7H242v.7Z" class="g1_285"/>
<path d="M242,626.2h.7V598.3H242v27.9Z" class="g1_285"/>
<path d="M352.4,626.2h110V598.7h-110v27.5Z" class="g0_285"/>
<path d="M352.4,599H462.7v-.7H352.4v.7Z" class="g1_285"/>
<path d="M462,626.5h.7V598.7H462v27.8Z" class="g1_285"/>
<path d="M352,626.5H462.4v-.7H352v.7Z" class="g1_285"/>
<path d="M352,626.2h.7V598.3H352v27.9Z" class="g1_285"/>
<path d="M462.4,626.2h110V598.7h-110v27.5Z" class="g0_285"/>
<path d="M462.4,599H572.7v-.7H462.4v.7Z" class="g1_285"/>
<path d="M572,626.5h.7V598.7H572v27.8Z" class="g1_285"/>
<path d="M462,626.5H572.4v-.7H462v.7Z" class="g1_285"/>
<path d="M462,626.2h.7V598.3H462v27.9Z" class="g1_285"/>
<path d="M572.4,626.2h110V598.7h-110v27.5Z" class="g0_285"/>
<path d="M572.4,599H682.7v-.7H572.4v.7Z" class="g1_285"/>
<path d="M682,626.5h.7V598.7H682v27.8Z" class="g1_285"/>
<path d="M572,626.5H682.4v-.7H572v.7Z" class="g1_285"/>
<path d="M572,626.2h.7V598.3H572v27.9Z" class="g1_285"/>
<path d="M242.4,694.9h110V667.4h-110v27.5Z" class="g0_285"/>
<path d="M242.4,667.8H352.7v-.7H242.4v.7Z" class="g1_285"/>
<path d="M352,695.3h.7V667.4H352v27.9Z" class="g1_285"/>
<path d="M242,695.3H352.4v-.7H242v.7Z" class="g1_285"/>
<path d="M242,694.9h.7V667.1H242v27.8Z" class="g1_285"/>
<path d="M352.4,694.9h110V667.4h-110v27.5Z" class="g0_285"/>
<path d="M352.4,667.8H462.7v-.7H352.4v.7Z" class="g1_285"/>
<path d="M462,695.3h.7V667.4H462v27.9Z" class="g1_285"/>
<path d="M352,695.3H462.4v-.7H352v.7Z" class="g1_285"/>
<path d="M352,694.9h.7V667.1H352v27.8Z" class="g1_285"/>
<path d="M462.4,694.9h110V667.4h-110v27.5Z" class="g0_285"/>
<path d="M462.4,667.8H572.7v-.7H462.4v.7Z" class="g1_285"/>
<path d="M572,695.3h.7V667.4H572v27.9Z" class="g1_285"/>
<path d="M462,695.3H572.4v-.7H462v.7Z" class="g1_285"/>
<path d="M462,694.9h.7V667.1H462v27.8Z" class="g1_285"/>
<path d="M572.4,694.9h110V667.4h-110v27.5Z" class="g0_285"/>
<path d="M572.4,667.8H682.7v-.7H572.4v.7Z" class="g1_285"/>
<path d="M682,695.3h.7V667.4H682v27.9Z" class="g1_285"/>
<path d="M572,695.3H682.4v-.7H572v.7Z" class="g1_285"/>
<path d="M572,694.9h.7V667.1H572v27.8Z" class="g1_285"/>
<path d="M241.4,791.2h110V763.7h-110v27.5Z" class="g0_285"/>
<path d="M241.4,764H351.7v-.7H241.4v.7Z" class="g1_285"/>
<path d="M351,791.5h.7V763.7H351v27.8Z" class="g1_285"/>
<path d="M241,791.5H351.4v-.7H241v.7Z" class="g1_285"/>
<path d="M241,791.2h.7V763.3H241v27.9Z" class="g1_285"/>
<path d="M351.4,791.2h110V763.7h-110v27.5Z" class="g0_285"/>
<path d="M351.4,764H461.7v-.7H351.4v.7Z" class="g1_285"/>
<path d="M461,791.5h.7V763.7H461v27.8Z" class="g1_285"/>
<path d="M351,791.5H461.4v-.7H351v.7Z" class="g1_285"/>
<path d="M351,791.2h.7V763.3H351v27.9Z" class="g1_285"/>
<path d="M461.4,791.2h110V763.7h-110v27.5Z" class="g0_285"/>
<path d="M461.4,764H571.7v-.7H461.4v.7Z" class="g1_285"/>
<path d="M571,791.5h.7V763.7H571v27.8Z" class="g1_285"/>
<path d="M461,791.5H571.4v-.7H461v.7Z" class="g1_285"/>
<path d="M461,791.2h.7V763.3H461v27.9Z" class="g1_285"/>
<path d="M571.4,791.2h110V763.7h-110v27.5Z" class="g0_285"/>
<path d="M571.4,764H681.7v-.7H571.4v.7Z" class="g1_285"/>
<path d="M681,791.5h.7V763.7H681v27.8Z" class="g1_285"/>
<path d="M571,791.5H681.4v-.7H571v.7Z" class="g1_285"/>
<path d="M571,791.2h.7V763.3H571v27.9Z" class="g1_285"/>
<path d="M611.5,704.7h.7V703h-.7v1.7Z" class="g1_285"/>
<path d="M611.6,704l2.7,-1l1.5,-.6l-.4,1.6l-2.8,9.7l-.7,2.6l-.8,-2.6L608.4,704l-.5,-1.6l1.5,.6l.5,.5l2.7,9.8l-1.5,.4v-.4l2.8,-9.8l1.5,.5l-.5,.5l-2.8,1Z" class="g1_285"/>
<path d="M609.4,703l2.7,1v1.5l-.2,.1l-.3,-.1l-2.7,-1Z" class="g1_285"/>
<path fill-rule="evenodd" d="M611.9,704.7l2.7,-1l-2.7,9.7l-2.8,-9.7Z" class="g1_285"/>
<path d="M611.5,626.2h.7v-.4h-.7v.4Z" class="g1_285"/>
<path d="M611.5,703.4h.7V626.2h-.7v77.2Z" class="g1_285"/>
<path d="M626.9,703.8h.7V702h-.7v1.8Z" class="g1_285"/>
<path d="M627,703.1l2.7,-1.2l1.4,-.6l-.3,1.6l-2.3,9.8l-.6,2.6l-.9,-2.6l-3.2,-9.5l-.6,-1.5l1.6,.5l.5,.5l3.2,9.6l-1.5,.4v-.4l2.3,-9.9l1.5,.5l-.5,.5l-2.8,1.2Z" class="g1_285"/>
<path d="M624.8,702.2l2.7,.9v1.5h-.2l-3,-1Z" class="g1_285"/>
<path fill-rule="evenodd" d="M627.3,703.8l2.7,-1.2l-2.3,9.8l-3.2,-9.5Z" class="g1_285"/>
<path d="M626.5,693.9h.7v-.4h-.7v.4Z" class="g1_285"/>
<path d="M626.9,702.4h.7V702h-.7v.4Z" class="g1_285"/>
<path d="M627.2,693.9h-.8l.5,8.1h.7Z" class="g1_285"/>
<path d="M620.5,755.2h.7v-1.8h-.7v1.8Z" class="g1_285"/>
<path d="M620.6,754.5l2.7,-1l1.5,-.6l-.5,1.6l-2.7,9.6l-.7,2.5l-.8,-2.5l-2.8,-9.6l-.5,-1.5l1.5,.5l.5,.6l2.8,9.6l-1.5,.4v-.4l2.8,-9.6l1.4,.4l-.4,.5l-2.8,1Z" class="g1_285"/>
<path d="M618.3,753.5l2.8,1V756l-.2,.1l-.3,-.1l-2.9,-1Z" class="g1_285"/>
<path fill-rule="evenodd" d="M620.9,755.2l2.7,-1l-2.7,9.7L618,754.2Z" class="g1_285"/>
<path d="M620.5,739.2h.7v-.4h-.7v.4Z" class="g1_285"/>
<path d="M620.5,753.8h.7V739.2h-.7v14.6Z" class="g1_285"/>
<path d="M504.9,705.1h.7v-1.7h-.7v1.7Z" class="g1_285"/>
<path d="M505,704.4l2.7,-1l1.5,-.7l-.4,1.7l-2.8,9.7l-.7,2.6l-.8,-2.6l-2.7,-9.7l-.5,-1.6l1.5,.6l.4,.5l2.8,9.7l-1.5,.5v-.5l2.8,-9.7l1.5,.5l-.5,.4l-2.8,1Z" class="g1_285"/>
<path d="M502.8,703.4l2.7,1v1.4l-.2,.1l-.3,-.1l-2.8,-1Z" class="g1_285"/>
<path fill-rule="evenodd" d="M505.3,705.1l2.7,-1l-2.7,9.7l-2.8,-9.7Z" class="g1_285"/>
<path d="M504.9,626.5h.7v-.3h-.7v.3Z" class="g1_285"/>
<path d="M504.9,703.7h.7V626.5h-.7v77.2Z" class="g1_285"/>
<path d="M520.3,704.1h.7v-1.8h-.7v1.8Z" class="g1_285"/>
<path d="M520.4,703.4l2.7,-1.1l1.4,-.7l-.4,1.7l-2.2,9.8l-.6,2.5l-.9,-2.5l-3.2,-9.6l-.6,-1.4l1.6,.4l.4,.6l3.3,9.5l-1.5,.5v-.5l2.3,-9.8l1.4,.5l-.4,.4l-2.8,1.1Z" class="g1_285"/>
<path d="M518.2,702.5l2.7,.9v1.4l-.2,.1l-.3,-.1l-2.8,-.8Z" class="g1_285"/>
<path fill-rule="evenodd" d="M520.7,704.1l2.7,-1.1l-2.3,9.8l-3.2,-9.5Z" class="g1_285"/>
<path d="M519.8,694.3h.8v-.4h-.8v.4Z" class="g1_285"/>
<path d="M520.3,702.7h.7v-.3h-.7v.3Z" class="g1_285"/>
<path d="M520.6,694.3h-.8l.5,8.1h.7Z" class="g1_285"/>
<path d="M513.9,755.5h.7v-1.7h-.7v1.7Z" class="g1_285"/>
<path d="M514,754.8l2.7,-1l1.5,-.7l-.5,1.7l-2.7,9.7l-.7,2.5l-.8,-2.5l-2.8,-9.7l-.5,-1.6l1.5,.6l.4,.5L515,764l-1.5,.5V764l2.8,-9.7l1.4,.5l-.4,.4l-2.8,1.1Z" class="g1_285"/>
<path d="M511.7,753.8l2.8,1v1.5H514l-2.9,-1.1Z" class="g1_285"/>
<path fill-rule="evenodd" d="M514.3,755.5l2.7,-1l-2.7,9.7l-2.9,-9.7Z" class="g1_285"/>
<path d="M513.9,739.5h.7v-.4h-.7v.4Z" class="g1_285"/>
<path d="M513.9,754.1h.7V739.5h-.7v14.6Z" class="g1_285"/>
<path d="M396.6,704.6h.8v-1.8h-.8v1.8Z" class="g1_285"/>
<path d="M396.7,703.9l2.8,-1l1.5,-.6l-.5,1.6l-2.8,9.6L397,716l-.7,-2.5l-2.9,-9.6l-.4,-1.5l1.4,.5l.5,.6l2.8,9.6l-1.4,.4v-.4l2.7,-9.6l1.5,.4l-.5,.5l-2.7,1Z" class="g1_285"/>
<path d="M394.4,702.9l2.9,1v1.5l-.3,.1l-.3,-.1l-2.8,-1Z" class="g1_285"/>
<path fill-rule="evenodd" d="M397,704.6l2.8,-1l-2.8,9.7l-2.8,-9.7Z" class="g1_285"/>
<path d="M396.6,626.1h.8v-.4h-.8v.4Z" class="g1_285"/>
<path d="M396.6,703.2h.8V626.1h-.8v77.1Z" class="g1_285"/>
<path d="M412.7,701.8h-.8l.1,1.8h.8Z" class="g1_285"/>
<path d="M412.1,702.9l2.8,-1.2l1.4,-.6l-.4,1.6l-2.3,9.8L413,715l-.9,-2.5L408.8,703l-.5,-1.5l1.5,.5l.5,.5l3.3,9.6l-1.5,.4v-.4l2.3,-9.8l1.5,.4l-.5,.5l-2.7,1.2Z" class="g1_285"/>
<path d="M409.8,702l2.9,.9v1.5l-.3,.1l-.3,-.1l-2.8,-.9Z" class="g1_285"/>
<path fill-rule="evenodd" d="M412.4,703.6l2.8,-1.2l-2.3,9.9l-3.3,-9.6Z" class="g1_285"/>
<path d="M411.6,693.7h.7v-.3h-.7v.3Z" class="g1_285"/>
<path d="M412,702.2h.7v-.4H412v.4Z" class="g1_285"/>
<path d="M412.3,693.7h-.7l.4,8.1h.7Z" class="g1_285"/>
<path d="M405.5,755.1h.8v-1.8h-.8v1.8Z" class="g1_285"/>
<path d="M405.6,754.3l2.8,-1l1.4,-.6l-.4,1.6l-3.5,12.2l-3.5,-12.2l-.4,-1.5l1.4,.5l.5,.6l2.7,9.6l-1.4,.4v-.4l2.7,-9.6l1.5,.4l-.5,.5l-2.7,1Z" class="g1_285"/>
<path d="M403.4,753.3l2.8,1v1.5l-.3,.1l-.3,-.1l-2.7,-1Z" class="g1_285"/>
<path fill-rule="evenodd" d="M405.9,755.1l2.7,-1l-2.7,9.6l-2.7,-9.6Z" class="g1_285"/>
<path d="M405.5,739h.8v-.3h-.8v.3Z" class="g1_285"/>
<path d="M405.5,753.7h.8V739h-.8v14.7Z" class="g1_285"/>
<path d="M266.2,704.1h.7v-1.8h-.7v1.8Z" class="g1_285"/>
<path d="M266.3,703.4l2.8,-1l1.5,-.6l-.5,1.6l-2.8,9.7l-.7,2.5l-.8,-2.5l-2.7,-9.7l-.5,-1.6l1.5,.6l.5,.5l2.7,9.7l-1.5,.5v-.5l2.9,-9.7l1.4,.5l-.4,.4l-2.9,1Z" class="g1_285"/>
<path d="M264.1,702.4l2.7,1v1.4l-.2,.1l-.3,-.1l-2.8,-1Z" class="g1_285"/>
<path fill-rule="evenodd" d="M266.6,704.1l2.8,-1l-2.8,9.7l-2.8,-9.7Z" class="g1_285"/>
<path d="M266.2,625.5h.7v-.3h-.7v.3Z" class="g1_285"/>
<path d="M266.2,702.7h.7V625.5h-.7v77.2Z" class="g1_285"/>
<path d="M285,701.3h-.7v1.8h.8Z" class="g1_285"/>
<path d="M284.4,702.4l2.7,-1.1l1.4,-.7l-.4,1.7l-2.3,9.8l-.5,2.5l-1,-2.5l-3.2,-9.6l-.5,-1.4l1.5,.4l.5,.6l3.2,9.5l-1.5,.5v-.5l2.3,-9.8l1.5,.5l-.4,.4l-2.7,1.1Z" class="g1_285"/>
<path d="M282.1,701.5l2.9,.9v1.4l-.3,.1l-.3,-.1l-2.8,-.8Z" class="g1_285"/>
<path fill-rule="evenodd" d="M284.7,703.1l2.7,-1.1l-2.3,9.8l-3.2,-9.5Z" class="g1_285"/>
<path d="M283.8,693.3h.7v-.4h-.7v.4Z" class="g1_285"/>
<path d="M284.3,701.7h.7v-.4h-.7v.4Z" class="g1_285"/>
<path d="M284.5,693.3h-.7l.5,8h.7Z" class="g1_285"/>
<path d="M305.3,725.8l-.2,-1.4l-.4,-1.3l.1,.1l-.7,-1.4v.1l-1,-1.2L302,719.5h.1l-1.3,-1.2v.1l-1.6,-1l-1.8,-1h.1l-2,-.9l-2.1,-.8l-2.2,-.7l-2.4,-.6h.1l-2.5,-.4l-2.6,-.4l-2.7,-.2l-2.8,-.1l-2.8,.1h.1l-2.7,.2l-2.7,.4l-2.4,.4l-2.4,.6l-2.3,.7h.1l-2.1,.8l-2,.9l-1.7,1l-1.6,1l.1,-.1l-1.3,1.2l-1.2,1.2l-.9,1.2v-.1l-.6,1.4l-.5,1.3v-.1v1.4v-.1v1.4V727l.5,1.4l.6,1.4v-.1l.9,1.2l1.2,1.2V732l1.3,1.1h-.1l1.6,1.1l1.7,1l2,.9V736l-.3,.7l-1.9,-.9h-.1l-1.8,-1l-1.5,-1v-.1l-1.4,-1.1H254l-1.2,-1.3l-.9,-1.2V730l-.6,-1.3h-.1l-.5,-1.4c-.1,-1.9,-.1,-1.2,0,-3l.5,-1.4h.1l.6,-1.4v-.1l.9,-1.2v-.1l1.2,-1.2h.1l1.4,-1.2l1.5,-1l1.8,-1h.1l1.9,-.9v-.1l2.1,-.7c9.1,-3.1,21.7,-3.2,30.8,0l2.1,.7v.1l1.9,.9c3.4,1.8,4.7,2.7,6.9,5.7h.1l.7,1.4v.1l.4,1.4l.2,1.4Z" class="g1_285"/>
<path d="M261.1,736l2.1,.7h-.1l2.3,.8l2.4,.5l2.4,.5l2.7,.3l2.7,.2h-.1l2.8,.1l2.8,-.1l2.7,-.2l2.6,-.3l2.5,-.5h-.1l2.4,-.5l2.2,-.8l2.1,-.7v.1l2,-.9h-.1l1.8,-1l1.6,-1l1.3,-1.1H302l1.1,-1.2l1,-1.2l.7,-1.4l-.1,.1l.4,-1.4v.1l.2,-1.4v.1l.7,-.1v.1c-1.7,15.1,-32.7,16.1,-43.1,11.7l-2.1,-.8Z" class="g1_285"/>
<path d="M277.8,754.5h.8v-1.7h-.8v1.7Z" class="g1_285"/>
<path d="M277.9,753.8l2.8,-1l1.4,-.7l-.4,1.7l-2.8,9.7l-.7,2.6l-.7,-2.6l-2.8,-9.7l-.4,-1.6l1.4,.6l.5,.5l2.7,9.7l-1.4,.5V763l2.7,-9.7l1.5,.5l-.5,.4l-2.7,1Z" class="g1_285"/>
<path d="M275.7,752.8l2.8,1v1.4l-.3,.1l-.3,-.1l-2.7,-1Z" class="g1_285"/>
<path fill-rule="evenodd" d="M278.2,754.5l2.8,-1l-2.8,9.7l-2.7,-9.7Z" class="g1_285"/>
<path d="M277.8,738.5h.8v-.4h-.8v.4Z" class="g1_285"/>
<path d="M277.8,753.1h.8V738.5h-.8v14.6Z" class="g1_285"/>
<path d="M434.1,728.5l-.1,-1.4v.1l-.4,-1.4h.1l-.7,-1.3v.1l-.9,-1.3l-1.2,-1.2h.1L429.6,721v.1L428.1,720l-1.8,-1h.1l-1.9,-.9l-2.1,-.7l-2.3,-.7l-2.4,-.6h.1l-2.5,-.5l-2.6,-.3l-2.7,-.2l-2.8,-.1l-2.8,.1h.1l-2.7,.2l-2.6,.3l-2.6,.5l-2.3,.6l-2.2,.7l-2.1,.7l-1.9,.9l-1.8,1l-1.6,1.1l.1,-.1l-1.4,1.1l-1.1,1.2h.1l-.9,1.3v-.1l-.7,1.3v-.1l-.4,1.4l-.2,1.4v-.1l.2,1.5v-.1l.4,1.2l.7,1.3l.9,1.3h-.1l1.1,1.2v-.1l1.4,1.1l1.6,1.1h-.1l1.8,.9l1.9,.9l-.2,.7l-2,-.9l-1.9,-.9l-1.5,-1.1v-.1L383,735.3h-.1l-1.1,-1.2l-.9,-1.3v-.1l-.8,-1.4v-.1l-.4,-1.3l-.2,-1.4v-.1l.2,-1.4v-.1c.6,-3.6,4.9,-7.1,8.1,-8.5l2,-.9v-.1l2.1,-.7l2.2,-.8c3.3,-.8,7,-1.4,10.3,-1.5l2.8,-.1l2.8,.1c4,.1,8.9,.9,12.6,2.3h.1l2.1,.7v.1l1.9,.9l1.8,1l1.5,1h.1l1.4,1.2l1.3,1.3l.9,1.3l.6,1.3l.5,1.4v.1l.1,1.4Z" class="g1_285"/>
<path d="M390,738.7l2.1,.9v-.1l2.2,.6l2.3,.6l2.6,.4l2.6,.4l2.7,.2h-.1l2.8,.1l2.8,-.1l2.7,-.2l2.6,-.4l2.5,-.4h-.1l2.4,-.6l2.3,-.6v.1l2.1,-.9l1.9,-.9h-.1l1.8,-.9l1.5,-1.1l1.4,-1.1h-.1l1.2,-1.2v.1l.9,-1.3v.1l.7,-1.4h-.1l.4,-1.2v.1l.1,-1.5v.1l.8,-.1l-.1,1.5v.1l-.5,1.3l-.6,1.4v.1l-.9,1.3h-.1l-1.2,1.2l-1.4,1.1v.1l-1.6,1.1c-4.6,2.6,-7.9,3.4,-13.1,4.3l-2.6,.3l-2.7,.2c-5.4,.3,-10.7,-.2,-16,-1.5l-2.2,-.7l-2.1,-.8Z" class="g1_285"/>
<path d="M540.9,729.3l-.2,-1.5l-.3,-1.3l.1,.1l-.8,-1.3v.1l-.9,-1.3l-1.1,-1.2h.1l-1.4,-1.1v.1l-1.5,-1.1l-1.8,-1h.1l-2,-.9l-2.1,-.8l-2.2,-.6l-2.4,-.7h.1l-2.6,-.4l-2.5,-.3l-2.8,-.3h-5.6h.1l-5.3,.6l-2.5,.4l-2.4,.7l-2.2,.6l-2.1,.8l-1.9,.9l-1.7,1h.1l-1.6,1.1v-.1l-1.4,1.1l-1.2,1.2h.1l-.9,1.3v-.1l-.6,1.3l-.5,1.3v-.2l-.1,1.5l.1,1.4v-.1l.5,1.4v-.1l.6,1.3l.9,1.2l-.1,-.1l1.2,1.2l1.4,1.1l1.6,1.1h-.1l1.7,1l1.9,.9l-.2,.6l-2,-.8h-.1l-1.7,-1l-1.6,-1.1v-.1L489.8,736h-.1l-1.2,-1.2l-.9,-1.3v-.1l-.7,-1.3h-.1l-.4,-1.3v-.1l-.1,-1.4v-.1l.1,-1.5l.4,-1.4l.1,-.1l.7,-1.3l.9,-1.3v-.1l1.2,-1.2h.1l1.3,-1.1l1.6,-1.1l1.7,-1h.1l2,-.8l2.1,-.8v-.1l2.3,-.7c10.6,-3.2,30.7,-2.2,38.5,6.9h.1l.9,1.3l.7,1.3v.1l.4,1.4l.2,1.5Z" class="g1_285"/>
<path d="M496.7,739.5l2.2,.8l-.1,-.1l2.3,.6l2.3,.7l2.5,.4l2.7,.4l2.6,.2h-.1l2.9,.1l2.7,-.1l2.8,-.2l2.5,-.4l2.6,-.4h-.1l2.4,-.7l2.2,-.6v.1l2.1,-.8l2,-.9h-.1l1.8,-1l1.5,-1.1l1.4,-1.1l-.1,.1l1.1,-1.2l.9,-1.2l.8,-1.3l-.1,.1l.3,-1.4v.1l.2,-1.4v.1l.8,-.1v.1l-.2,1.4l-.4,1.4l-.7,1.3v.1l-.9,1.3h-.1l-1.1,1.2l-1.4,1.1v.1l-1.6,1.1h-.1c-3.3,2.1,-9.1,3.8,-13.1,4.4l-2.5,.3l-2.8,.2c-5.1,.3,-11,-.1,-15.9,-1.6l-2.3,-.7l-2.1,-.8Z" class="g1_285"/>
<path d="M645.8,727.2l-.2,-1.5l-.4,-1.3h.1l-.7,-1.2v.1l-.9,-1.3l-1.1,-1.2h.1l-1.4,-1.1v.1l-1.6,-1.1l-1.8,-.9h.1l-1.9,-1L634,716l-2.2,-.6l-2.4,-.7h.1l-2.6,-.4l-2.6,-.3l-2.7,-.3H616h.1l-5.3,.6l-2.5,.4l-2.4,.7l-2.3,.6h.1l-2.1,.8l-1.9,1l-1.8,.9h.1l-1.5,1.1v-.1l-1.4,1.1l-1.2,1.2h.1l-.9,1.3v-.1l-.7,1.2l-.4,1.4v-.2l-.1,1.5l.1,1.4v-.1l.4,1.4v-.1l.7,1.3l.9,1.2l-.1,-.1l1.2,1.2l1.4,1.2h-.1l1.5,1l1.8,1l1.9,.9l-.3,.6l-1.9,-.8h-.1l-1.7,-1l-1.6,-1v-.1l-1.4,-1.2l-1.2,-1.2l-1,-1.3v-.1l-.6,-1.3h-.1l-.4,-1.3c-1.1,-6.5,4.9,-10.3,10,-12.5l2.1,-.8v-.1l2.3,-.7c10.7,-3.3,30.8,-2.1,38.5,6.9h.1l.9,1.3l.8,1.3v.1l.3,1.3v.1l.2,1.5Z" class="g1_285"/>
<path d="M601.6,737.4l2.1,.8l-.1,-.1l2.3,.7l2.4,.6l2.5,.4l2.6,.4l2.7,.2H616l2.8,.1l2.8,-.1l2.7,-.2l2.6,-.4l2.6,-.4h-.1l2.4,-.6l2.2,-.7v.1l2.1,-.8l1.9,-.9h-.1l1.8,-1l1.6,-1l1.4,-1.2l-.1,.1l1.1,-1.2l.9,-1.2l.7,-1.3l-.1,.1l.4,-1.4v.1l.2,-1.4v.1l.7,-.1v.1l-.2,1.4l-.3,1.3v.1l-.8,1.3v.1l-.9,1.3h-.1c-8.3,9.6,-29.7,10.2,-40.8,6.1l-2.1,-.8Z" class="g1_285"/>
</svg>