<?xml version="1.0" encoding="UTF-8" standalone="no"?>
<!DOCTYPE svg PUBLIC "-//W3C//DTD SVG 1.1//EN"
"http://www.w3.org/Graphics/SVG/1.1/DTD/svg11.dtd">
<svg viewBox="0 0 935 1210" version="1.1" xmlns="http://www.w3.org/2000/svg" xmlns:xlink="http://www.w3.org/1999/xlink">
<defs>
<clipPath id="c0_2393"><path d="M97.3,59.2V41.4h72.1V59.2Z"/></clipPath>
<style type="text/css"><![CDATA[
.g0_2393{
fill: #000;
}
]]></style>
</defs>
<path d="M96.3,63.3H838.8v-.4H96.3v.4Z" class="g0_2393"/>
<path d="M96.1,1114.5h.2v-.4h-.2v.4Z" class="g0_2393"/>
<path d="M96.3,1114.5H838.9v-.4H96.3v.4Z" class="g0_2393"/>
<image clip-path="url(#c0_2393)" preserveAspectRatio="none" x="97" y="41" width="73" height="18" xlink:href="img/1.jpg"/>
<path d="M523.9,969.6h31.3v-1.1H523.9v1.1Z" class="g0_2393"/>
<path d="M667.2,969.6h20.4v-1.1H667.2v1.1Z" class="g0_2393"/>
<path d="M687.6,969.6H696v-1.1h-8.4v1.1Z" class="g0_2393"/>
<path d="M523.9,992.5h31.3v-1.1H523.9v1.1Z" class="g0_2393"/>
<path d="M667.2,992.5h20.4v-1.1H667.2v1.1Z" class="g0_2393"/>
<path d="M687.6,992.5H696v-1.1h-8.4v1.1Z" class="g0_2393"/>
<path d="M95.9,762h.7V671.1h-.7V762Z" class="g0_2393"/>
<path d="M226.6,762.8h.7V670.4h-.7v92.4Z" class="g0_2393"/>
<path d="M304,762.8h.7V670.4H304v92.4Z" class="g0_2393"/>
<path d="M837.6,762h.7V671.1h-.7V762Z" class="g0_2393"/>
<path d="M95.9,671.1H838.3v-.7H95.9v.7Z" class="g0_2393"/>
<path d="M95.9,695.2H838.3v-3H95.9v3Z" class="g0_2393"/>
<path d="M95.9,716.9H838.3v-.7H95.9v.7Z" class="g0_2393"/>
<path d="M95.9,739.8H838.3v-.7H95.9v.7Z" class="g0_2393"/>
<path d="M95.9,762.8H838.3V762H95.9v.8Z" class="g0_2393"/>
</svg>