<?xml version="1.0" encoding="UTF-8" standalone="no"?>
<!DOCTYPE svg PUBLIC "-//W3C//DTD SVG 1.1//EN"
"http://www.w3.org/Graphics/SVG/1.1/DTD/svg11.dtd">
<svg viewBox="0 0 935 1210" version="1.1" xmlns="http://www.w3.org/2000/svg" xmlns:xlink="http://www.w3.org/1999/xlink">
<defs>
<style type="text/css"><![CDATA[
.g0_1783{
fill: #FFF;
}
.g1_1783{
fill: #000;
}
]]></style>
</defs>
<path d="M68.9,1149.3H755.2v-21.2H68.9v21.2Z" class="g0_1783"/>
<path d="M771.3,1149.3H855v-21.2H771.3v21.2Z" class="g0_1783"/>
<path d="M69.9,329.6h.8V107.3h-.8V329.6Z" class="g1_1783"/>
<path d="M288.1,330.4h.7V106.6h-.7V330.4Z" class="g1_1783"/>
<path d="M333.2,330.4h.7V106.6h-.7V330.4Z" class="g1_1783"/>
<path d="M407.7,330.4h.8V106.6h-.8V330.4Z" class="g1_1783"/>
<path d="M493.7,330.4h.8V106.6h-.8V330.4Z" class="g1_1783"/>
<path d="M855.2,329.6h.8V107.3h-.8V329.6Z" class="g1_1783"/>
<path d="M69.9,107.3H856v-.7H69.9v.7Z" class="g1_1783"/>
<path d="M69.9,160.8H856v-.7H69.9v.7Z" class="g1_1783"/>
<path d="M69.9,217.3H856v-.7H69.9v.7Z" class="g1_1783"/>
<path d="M69.9,273.8H856v-.7H69.9v.7Z" class="g1_1783"/>
<path d="M69.9,330.4H856v-.8H69.9v.8Z" class="g1_1783"/>
<path d="M69.9,454.9h.8V382.3h-.8v72.6Z" class="g1_1783"/>
<path d="M132.2,455.7h.7V381.6h-.7v74.1Z" class="g1_1783"/>
<path d="M247.7,455.7h.7V381.6h-.7v74.1Z" class="g1_1783"/>
<path d="M387.3,455.7h.7V381.6h-.7v74.1Z" class="g1_1783"/>
<path d="M539.8,455.7h.8V381.6h-.8v74.1Z" class="g1_1783"/>
<path d="M696.8,455.7h.7V381.6h-.7v74.1Z" class="g1_1783"/>
<path d="M845.6,454.9h.8V382.3h-.8v72.6Z" class="g1_1783"/>
<path d="M69.9,382.3H846.4v-.7H69.9v.7Z" class="g1_1783"/>
<path d="M69.9,406.8H846.4v-.7H69.9v.7Z" class="g1_1783"/>
<path d="M69.9,431.2H846.4v-.7H69.9v.7Z" class="g1_1783"/>
<path d="M69.9,455.7H846.4v-.8H69.9v.8Z" class="g1_1783"/>
</svg>