<?xml version="1.0" encoding="UTF-8" standalone="no"?>
<!DOCTYPE svg PUBLIC "-//W3C//DTD SVG 1.1//EN"
"http://www.w3.org/Graphics/SVG/1.1/DTD/svg11.dtd">
<svg viewBox="0 0 935 1210" version="1.1" xmlns="http://www.w3.org/2000/svg" xmlns:xlink="http://www.w3.org/1999/xlink">
<defs>
<clipPath id="c0_1914"><path d="M766.6,59.2V41.4h72.1V59.2Z"/></clipPath>
<clipPath id="c1_1914"><path d="M96.2,196V178.2H838.7V196Z"/></clipPath>
<style type="text/css"><![CDATA[
.g0_1914{
fill: #000;
}
.g1_1914{
fill: #E5E5E5;
}
]]></style>
</defs>
<path d="M97.3,62.9v.3H839.9v-.3H97.3Z" class="g0_1914"/>
<path d="M96.2,1114.1h-.1v.4h.1v-.4Z" class="g0_1914"/>
<path d="M838.7,1114.1h.2v.4h-.2v-.4Z" class="g0_1914"/>
<path d="M96.2,1114.1v.4H838.7v-.4H96.2Z" class="g0_1914"/>
<image clip-path="url(#c0_1914)" preserveAspectRatio="none" x="767" y="41" width="72" height="18" xlink:href="img/1.jpg"/>
<g clip-path="url(#c1_1914)">
<path d="M96.2,179.3h-.1v.4h.1v-.4Z" class="g0_1914"/>
<path d="M838.7,179.3h.2v.4h-.2v-.4Z" class="g0_1914"/>
<path d="M96.2,179.3v.4H838.7v-.4H96.2Z" class="g0_1914"/>
</g>
<path d="M197.6,668.6h36.1v38.2H197.6V668.6Z" class="g1_1914"/>
<path d="M233.7,668.6h35.9v38.2H233.7V668.6Z" class="g1_1914"/>
<path d="M269.6,668.6h37.2v38.2H269.6V668.6Z" class="g1_1914"/>
<path d="M306.8,668.6h35.9v38.2H306.8V668.6Z" class="g1_1914"/>
<path d="M342.7,668.6h36v38.2h-36V668.6Z" class="g1_1914"/>
<path d="M378.7,668.6h34.7v38.2H378.7V668.6Z" class="g1_1914"/>
<path d="M413.4,668.6h37.2v38.2H413.4V668.6Z" class="g1_1914"/>
<path d="M450.6,668.6h41.8v38.2H450.6V668.6Z" class="g1_1914"/>
<path d="M530.9,668.6h38.5v38.2H530.9V668.6Z" class="g1_1914"/>
<path d="M569.4,668.6h38.5v38.2H569.4V668.6Z" class="g1_1914"/>
<path d="M607.9,668.6h38.5v38.2H607.9V668.6Z" class="g1_1914"/>
<path d="M197.6,706.8h36.1V745H197.6V706.8Z" class="g1_1914"/>
<path d="M233.7,706.8h35.9V745H233.7V706.8Z" class="g1_1914"/>
<path d="M269.6,706.8h37.2V745H269.6V706.8Z" class="g1_1914"/>
<path d="M306.8,706.8h35.9V745H306.8V706.8Z" class="g1_1914"/>
<path d="M342.7,706.8h36V745h-36V706.8Z" class="g1_1914"/>
<path d="M378.7,706.8h34.7V745H378.7V706.8Z" class="g1_1914"/>
<path d="M413.4,706.8h37.2V745H413.4V706.8Z" class="g1_1914"/>
<path d="M450.6,706.8h41.8V745H450.6V706.8Z" class="g1_1914"/>
<path d="M530.9,706.8h38.5V745H530.9V706.8Z" class="g1_1914"/>
<path d="M569.4,706.8h38.5V745H569.4V706.8Z" class="g1_1914"/>
<path d="M607.9,706.8h38.5V745H607.9V706.8Z" class="g1_1914"/>
<path d="M197.6,745h36.1v38.2H197.6V745Z" class="g1_1914"/>
<path d="M233.7,745h35.9v38.2H233.7V745Z" class="g1_1914"/>
<path d="M269.6,745h37.2v38.2H269.6V745Z" class="g1_1914"/>
<path d="M306.8,745h35.9v38.2H306.8V745Z" class="g1_1914"/>
<path d="M342.7,745h36v38.2h-36V745Z" class="g1_1914"/>
<path d="M378.7,745h34.7v38.2H378.7V745Z" class="g1_1914"/>
<path d="M413.4,745h37.2v38.2H413.4V745Z" class="g1_1914"/>
<path d="M450.6,745h41.8v38.2H450.6V745Z" class="g1_1914"/>
<path d="M530.9,745h38.5v38.2H530.9V745Z" class="g1_1914"/>
<path d="M569.4,745h38.5v38.2H569.4V745Z" class="g1_1914"/>
<path d="M607.9,745h38.5v38.2H607.9V745Z" class="g1_1914"/>
<path d="M197.6,783.2h36.1v21.3H197.6V783.2Z" class="g1_1914"/>
<path d="M233.7,783.2h35.9v21.3H233.7V783.2Z" class="g1_1914"/>
<path d="M269.6,783.2h37.2v21.3H269.6V783.2Z" class="g1_1914"/>
<path d="M306.8,783.2h35.9v21.3H306.8V783.2Z" class="g1_1914"/>
<path d="M342.7,783.2h36v21.3h-36V783.2Z" class="g1_1914"/>
<path d="M378.7,783.2h34.7v21.3H378.7V783.2Z" class="g1_1914"/>
<path d="M413.4,783.2h37.2v21.3H413.4V783.2Z" class="g1_1914"/>
<path d="M450.6,783.2h41.8v21.3H450.6V783.2Z" class="g1_1914"/>
<path d="M530.9,783.2h38.5v21.3H530.9V783.2Z" class="g1_1914"/>
<path d="M569.4,783.2h38.5v21.3H569.4V783.2Z" class="g1_1914"/>
<path d="M607.9,783.2h38.5v21.3H607.9V783.2Z" class="g1_1914"/>
<path d="M197.6,804.5h36.1V826H197.6V804.5Z" class="g1_1914"/>
<path d="M233.7,804.5h35.9V826H233.7V804.5Z" class="g1_1914"/>
<path d="M269.6,804.5h37.2V826H269.6V804.5Z" class="g1_1914"/>
<path d="M306.8,804.5h35.9V826H306.8V804.5Z" class="g1_1914"/>
<path d="M342.7,804.5h36V826h-36V804.5Z" class="g1_1914"/>
<path d="M378.7,804.5h34.7V826H378.7V804.5Z" class="g1_1914"/>
<path d="M413.4,804.5h37.2V826H413.4V804.5Z" class="g1_1914"/>
<path d="M450.6,804.5h41.8V826H450.6V804.5Z" class="g1_1914"/>
<path d="M530.9,804.5h38.5V826H530.9V804.5Z" class="g1_1914"/>
<path d="M569.4,804.5h38.5V826H569.4V804.5Z" class="g1_1914"/>
<path d="M607.9,804.5h38.5V826H607.9V804.5Z" class="g1_1914"/>
<path d="M197.6,826h36.1v21.3H197.6V826Z" class="g1_1914"/>
<path d="M233.7,826h35.9v21.3H233.7V826Z" class="g1_1914"/>
<path d="M269.6,826h37.2v21.3H269.6V826Z" class="g1_1914"/>
<path d="M306.8,826h35.9v21.3H306.8V826Z" class="g1_1914"/>
<path d="M342.7,826h36v21.3h-36V826Z" class="g1_1914"/>
<path d="M378.7,826h34.7v21.3H378.7V826Z" class="g1_1914"/>
<path d="M413.4,826h37.2v21.3H413.4V826Z" class="g1_1914"/>
<path d="M450.6,826h41.8v21.3H450.6V826Z" class="g1_1914"/>
<path d="M492.4,826h38.5v21.3H492.4V826Z" class="g1_1914"/>
<path d="M530.9,826h38.5v21.3H530.9V826Z" class="g1_1914"/>
<path d="M569.4,826h38.5v21.3H569.4V826Z" class="g1_1914"/>
<path d="M607.9,826h38.5v21.3H607.9V826Z" class="g1_1914"/>
<path d="M646.4,826h38.5v21.3H646.4V826Z" class="g1_1914"/>
<path d="M723.4,826h38.5v21.3H723.4V826Z" class="g1_1914"/>
<path d="M761.9,826h38.5v21.3H761.9V826Z" class="g1_1914"/>
<path d="M800.4,826h38.5v21.3H800.4V826Z" class="g1_1914"/>
<path d="M197.6,847.3h36.1v38.3H197.6V847.3Z" class="g1_1914"/>
<path d="M233.7,847.3h35.9v38.3H233.7V847.3Z" class="g1_1914"/>
<path d="M269.6,847.3h37.2v38.3H269.6V847.3Z" class="g1_1914"/>
<path d="M306.8,847.3h35.9v38.3H306.8V847.3Z" class="g1_1914"/>
<path d="M342.7,847.3h36v38.3h-36V847.3Z" class="g1_1914"/>
<path d="M378.7,847.3h34.7v38.3H378.7V847.3Z" class="g1_1914"/>
<path d="M413.4,847.3h37.2v38.3H413.4V847.3Z" class="g1_1914"/>
<path d="M450.6,847.3h41.8v38.3H450.6V847.3Z" class="g1_1914"/>
<path d="M530.9,847.3h38.5v38.3H530.9V847.3Z" class="g1_1914"/>
<path d="M569.4,847.3h38.5v38.3H569.4V847.3Z" class="g1_1914"/>
<path d="M607.9,847.3h38.5v38.3H607.9V847.3Z" class="g1_1914"/>
<path d="M197.6,885.6h36.1v71.7H197.6V885.6Z" class="g1_1914"/>
<path d="M233.7,885.6h35.9v71.7H233.7V885.6Z" class="g1_1914"/>
<path d="M269.6,885.6h37.2v71.7H269.6V885.6Z" class="g1_1914"/>
<path d="M306.8,885.6h35.9v71.7H306.8V885.6Z" class="g1_1914"/>
<path d="M342.7,885.6h36v71.7h-36V885.6Z" class="g1_1914"/>
<path d="M378.7,885.6h34.7v71.7H378.7V885.6Z" class="g1_1914"/>
<path d="M413.4,885.6h37.2v71.7H413.4V885.6Z" class="g1_1914"/>
<path d="M450.6,885.6h41.8v71.7H450.6V885.6Z" class="g1_1914"/>
<path d="M530.9,885.6h38.5v71.7H530.9V885.6Z" class="g1_1914"/>
<path d="M569.4,885.6h38.5v71.7H569.4V885.6Z" class="g1_1914"/>
<path d="M607.9,885.6h38.5v71.7H607.9V885.6Z" class="g1_1914"/>
<path d="M197.6,957.3h36.1v23H197.6v-23Z" class="g1_1914"/>
<path d="M233.7,957.3h35.9v23H233.7v-23Z" class="g1_1914"/>
<path d="M269.6,957.3h37.2v23H269.6v-23Z" class="g1_1914"/>
<path d="M306.8,957.3h35.9v23H306.8v-23Z" class="g1_1914"/>
<path d="M342.7,957.3h36v23h-36v-23Z" class="g1_1914"/>
<path d="M378.7,957.3h34.7v23H378.7v-23Z" class="g1_1914"/>
<path d="M413.4,957.3h37.2v23H413.4v-23Z" class="g1_1914"/>
<path d="M450.6,957.3h41.8v23H450.6v-23Z" class="g1_1914"/>
<path d="M530.9,957.3h38.5v23H530.9v-23Z" class="g1_1914"/>
<path d="M569.4,957.3h38.5v23H569.4v-23Z" class="g1_1914"/>
<path d="M607.9,957.3h38.5v23H607.9v-23Z" class="g1_1914"/>
<path d="M197.6,980.3h36.1v21.3H197.6V980.3Z" class="g1_1914"/>
<path d="M233.7,980.3h35.9v21.3H233.7V980.3Z" class="g1_1914"/>
<path d="M269.6,980.3h37.2v21.3H269.6V980.3Z" class="g1_1914"/>
<path d="M306.8,980.3h35.9v21.3H306.8V980.3Z" class="g1_1914"/>
<path d="M342.7,980.3h36v21.3h-36V980.3Z" class="g1_1914"/>
<path d="M378.7,980.3h34.7v21.3H378.7V980.3Z" class="g1_1914"/>
<path d="M413.4,980.3h37.2v21.3H413.4V980.3Z" class="g1_1914"/>
<path d="M450.6,980.3h41.8v21.3H450.6V980.3Z" class="g1_1914"/>
<path d="M492.4,980.3h38.5v21.3H492.4V980.3Z" class="g1_1914"/>
<path d="M530.9,980.3h38.5v21.3H530.9V980.3Z" class="g1_1914"/>
<path d="M569.4,980.3h38.5v21.3H569.4V980.3Z" class="g1_1914"/>
<path d="M607.9,980.3h38.5v21.3H607.9V980.3Z" class="g1_1914"/>
<path d="M646.4,980.3h38.5v21.3H646.4V980.3Z" class="g1_1914"/>
<path d="M684.9,980.3h38.5v21.3H684.9V980.3Z" class="g1_1914"/>
<path d="M723.4,980.3h38.5v21.3H723.4V980.3Z" class="g1_1914"/>
<path d="M761.9,980.3h38.5v21.3H761.9V980.3Z" class="g1_1914"/>
<path d="M197.6,1001.6h36.1v21.5H197.6v-21.5Z" class="g1_1914"/>
<path d="M233.7,1001.6h35.9v21.5H233.7v-21.5Z" class="g1_1914"/>
<path d="M269.6,1001.6h37.2v21.5H269.6v-21.5Z" class="g1_1914"/>
<path d="M306.8,1001.6h35.9v21.5H306.8v-21.5Z" class="g1_1914"/>
<path d="M342.7,1001.6h36v21.5h-36v-21.5Z" class="g1_1914"/>
<path d="M378.7,1001.6h34.7v21.5H378.7v-21.5Z" class="g1_1914"/>
<path d="M413.4,1001.6h37.2v21.5H413.4v-21.5Z" class="g1_1914"/>
<path d="M450.6,1001.6h41.8v21.5H450.6v-21.5Z" class="g1_1914"/>
<path d="M492.4,1001.6h38.5v21.5H492.4v-21.5Z" class="g1_1914"/>
<path d="M569.4,1001.6h38.5v21.5H569.4v-21.5Z" class="g1_1914"/>
<path d="M607.9,1001.6h38.5v21.5H607.9v-21.5Z" class="g1_1914"/>
<path d="M646.4,1001.6h38.5v21.5H646.4v-21.5Z" class="g1_1914"/>
<path d="M684.9,1001.6h38.5v21.5H684.9v-21.5Z" class="g1_1914"/>
<path d="M723.4,1001.6h38.5v21.5H723.4v-21.5Z" class="g1_1914"/>
<path d="M761.9,1001.6h38.5v21.5H761.9v-21.5Z" class="g1_1914"/>
<path d="M800.4,1001.6h38.5v21.5H800.4v-21.5Z" class="g1_1914"/>
<path d="M197.6,1023.1h36.1v21.3H197.6v-21.3Z" class="g1_1914"/>
<path d="M233.7,1023.1h35.9v21.3H233.7v-21.3Z" class="g1_1914"/>
<path d="M306.8,1023.1h35.9v21.3H306.8v-21.3Z" class="g1_1914"/>
<path d="M342.7,1023.1h36v21.3h-36v-21.3Z" class="g1_1914"/>
<path d="M378.7,1023.1h34.7v21.3H378.7v-21.3Z" class="g1_1914"/>
<path d="M413.4,1023.1h37.2v21.3H413.4v-21.3Z" class="g1_1914"/>
<path d="M492.4,1023.1h38.5v21.3H492.4v-21.3Z" class="g1_1914"/>
<path d="M530.9,1023.1h38.5v21.3H530.9v-21.3Z" class="g1_1914"/>
<path d="M607.9,1023.1h38.5v21.3H607.9v-21.3Z" class="g1_1914"/>
<path d="M646.4,1023.1h38.5v21.3H646.4v-21.3Z" class="g1_1914"/>
<path d="M684.9,1023.1h38.5v21.3H684.9v-21.3Z" class="g1_1914"/>
<path d="M723.4,1023.1h38.5v21.3H723.4v-21.3Z" class="g1_1914"/>
<path d="M761.9,1023.1h38.5v21.3H761.9v-21.3Z" class="g1_1914"/>
<path d="M800.4,1023.1h38.5v21.3H800.4v-21.3Z" class="g1_1914"/>
<path d="M197.6,1044.4h36.1v21.4H197.6v-21.4Z" class="g1_1914"/>
<path d="M233.7,1044.4h35.9v21.4H233.7v-21.4Z" class="g1_1914"/>
<path d="M269.6,1044.4h37.2v21.4H269.6v-21.4Z" class="g1_1914"/>
<path d="M306.8,1044.4h35.9v21.4H306.8v-21.4Z" class="g1_1914"/>
<path d="M342.7,1044.4h36v21.4h-36v-21.4Z" class="g1_1914"/>
<path d="M378.7,1044.4h34.7v21.4H378.7v-21.4Z" class="g1_1914"/>
<path d="M413.4,1044.4h37.2v21.4H413.4v-21.4Z" class="g1_1914"/>
<path d="M450.6,1044.4h41.8v21.4H450.6v-21.4Z" class="g1_1914"/>
<path d="M492.4,1044.4h38.5v21.4H492.4v-21.4Z" class="g1_1914"/>
<path d="M530.9,1044.4h38.5v21.4H530.9v-21.4Z" class="g1_1914"/>
<path d="M569.4,1044.4h38.5v21.4H569.4v-21.4Z" class="g1_1914"/>
<path d="M607.9,1044.4h38.5v21.4H607.9v-21.4Z" class="g1_1914"/>
<path d="M646.4,1044.4h38.5v21.4H646.4v-21.4Z" class="g1_1914"/>
<path d="M684.9,1044.4h38.5v21.4H684.9v-21.4Z" class="g1_1914"/>
<path d="M723.4,1044.4h38.5v21.4H723.4v-21.4Z" class="g1_1914"/>
<path d="M761.9,1044.4h38.5v21.4H761.9v-21.4Z" class="g1_1914"/>
<path d="M197.6,1065.8h36.1v21.4H197.6v-21.4Z" class="g1_1914"/>
<path d="M233.7,1065.8h35.9v21.4H233.7v-21.4Z" class="g1_1914"/>
<path d="M269.6,1065.8h37.2v21.4H269.6v-21.4Z" class="g1_1914"/>
<path d="M306.8,1065.8h35.9v21.4H306.8v-21.4Z" class="g1_1914"/>
<path d="M342.7,1065.8h36v21.4h-36v-21.4Z" class="g1_1914"/>
<path d="M378.7,1065.8h34.7v21.4H378.7v-21.4Z" class="g1_1914"/>
<path d="M413.4,1065.8h37.2v21.4H413.4v-21.4Z" class="g1_1914"/>
<path d="M450.6,1065.8h41.8v21.4H450.6v-21.4Z" class="g1_1914"/>
<path d="M530.9,1065.8h38.5v21.4H530.9v-21.4Z" class="g1_1914"/>
<path d="M569.4,1065.8h38.5v21.4H569.4v-21.4Z" class="g1_1914"/>
<path d="M607.9,1065.8h38.5v21.4H607.9v-21.4Z" class="g1_1914"/>
<path d="M723.4,1065.8h38.5v21.4H723.4v-21.4Z" class="g1_1914"/>
<path d="M96.4,609.4h-.7v477.5h.7V609.4Z" class="g0_1914"/>
<path d="M198,608.7h-.7v478.9h.7V608.7Z" class="g0_1914"/>
<path d="M234,630h-.7v457.6h.7V630Z" class="g0_1914"/>
<path d="M270,630h-.8v457.6h.8V630Z" class="g0_1914"/>
<path d="M307.2,630h-.8v457.6h.8V630Z" class="g0_1914"/>
<path d="M343.1,630h-.7v457.6h.7V630Z" class="g0_1914"/>
<path d="M379,630h-.7v457.6h.7V630Z" class="g0_1914"/>
<path d="M413.8,630H413v457.6h.8V630Z" class="g0_1914"/>
<path d="M451,630h-.7v457.6h.7V630Z" class="g0_1914"/>
<path d="M492.8,630h-.7v457.6h.7V630Z" class="g0_1914"/>
<path d="M531.3,630h-.7v457.6h.7V630Z" class="g0_1914"/>
<path d="M569.8,630h-.7v457.6h.7V630Z" class="g0_1914"/>
<path d="M608.3,630h-.7v457.6h.7V630Z" class="g0_1914"/>
<path d="M646.8,630h-.7v457.6h.7V630Z" class="g0_1914"/>
<path d="M685.3,630h-.8v457.6h.8V630Z" class="g0_1914"/>
<path d="M723.8,630H723v457.6h.8V630Z" class="g0_1914"/>
<path d="M762.3,630h-.8v457.6h.8V630Z" class="g0_1914"/>
<path d="M800.8,630H800v457.6h.8V630Z" class="g0_1914"/>
<path d="M839.3,609.4h-.8v477.5h.8V609.4Z" class="g0_1914"/>
<path d="M95.7,608.7v.7H839.3v-.7H95.7Z" class="g0_1914"/>
<path d="M197.3,630v.7h642V630h-642Z" class="g0_1914"/>
<path d="M95.7,668.2v.8H839.3v-.8H95.7Z" class="g0_1914"/>
<path d="M95.7,706.5v.7H492.8v-.7H95.7Z" class="g0_1914"/>
<path d="M530.6,706.5v.7H839.3v-.7H530.6Z" class="g0_1914"/>
<path d="M492.1,706.5v.7h39.2v-.7H492.1Z" class="g0_1914"/>
<path d="M95.7,744.6v.7H839.3v-.7H95.7Z" class="g0_1914"/>
<path d="M95.7,782.8v.7H839.3v-.7H95.7Z" class="g0_1914"/>
<path d="M95.7,804.2v.7H839.3v-.7H95.7Z" class="g0_1914"/>
<path d="M95.7,825.6v.8H839.3v-.8H95.7Z" class="g0_1914"/>
<path d="M95.7,847v.7H839.3V847H95.7Z" class="g0_1914"/>
<path d="M95.7,885.2v.7H839.3v-.7H95.7Z" class="g0_1914"/>
<path d="M95.7,957v.7H839.3V957H95.7Z" class="g0_1914"/>
<path d="M95.7,979.9v.7H839.3v-.7H95.7Z" class="g0_1914"/>
<path d="M95.7,1001.2v.8H839.3v-.8H95.7Z" class="g0_1914"/>
<path d="M95.7,1022.7v.7H839.3v-.7H95.7Z" class="g0_1914"/>
<path d="M95.7,1044.1v.7H839.3v-.7H95.7Z" class="g0_1914"/>
<path d="M95.7,1065.4v.7H839.3v-.7H95.7Z" class="g0_1914"/>
<path d="M95.7,1086.9v.7H839.3v-.7H95.7Z" class="g0_1914"/>
</svg>