<?xml version="1.0" encoding="UTF-8" standalone="no"?>
<!DOCTYPE svg PUBLIC "-//W3C//DTD SVG 1.1//EN"
"http://www.w3.org/Graphics/SVG/1.1/DTD/svg11.dtd">
<svg viewBox="0 0 935 1210" version="1.1" xmlns="http://www.w3.org/2000/svg" xmlns:xlink="http://www.w3.org/1999/xlink">
<defs>
<style type="text/css"><![CDATA[
.g0_1432{
fill: #FFF;
}
.g1_1432{
fill: #000;
}
]]></style>
</defs>
<path d="M68.8,1149.3H852.5v-21.2H68.8v21.2Z" class="g0_1432"/>
<path d="M68.6,215.1h.7V125.7h-.7v89.4Z" class="g1_1432"/>
<path d="M253.8,215.8h.8V124.9h-.8v90.9Z" class="g1_1432"/>
<path d="M311.1,215.8h.7V124.9h-.7v90.9Z" class="g1_1432"/>
<path d="M385.6,215.8h.7V124.9h-.7v90.9Z" class="g1_1432"/>
<path d="M453.2,215.8h.7V124.9h-.7v90.9Z" class="g1_1432"/>
<path d="M848.5,215.1h.7V125.7h-.7v89.4Z" class="g1_1432"/>
<path d="M68.6,125.7H849.2v-.8H68.6v.8Z" class="g1_1432"/>
<path d="M68.6,179.1H849.2v-.7H68.6v.7Z" class="g1_1432"/>
<path d="M68.6,215.8H849.2v-.7H68.6v.7Z" class="g1_1432"/>
<path d="M70.8,335.8h.7v-65h-.7v65Z" class="g1_1432"/>
<path d="M160.4,336.5h.8V270.1h-.8v66.4Z" class="g1_1432"/>
<path d="M315.3,336.5h.8V270.1h-.8v66.4Z" class="g1_1432"/>
<path d="M476.8,336.5h.8V270.1h-.8v66.4Z" class="g1_1432"/>
<path d="M638.4,336.5h.7V270.1h-.7v66.4Z" class="g1_1432"/>
<path d="M849.7,335.8h.7v-65h-.7v65Z" class="g1_1432"/>
<path d="M70.8,270.8H850.4v-.7H70.8v.7Z" class="g1_1432"/>
<path d="M70.8,295.3H850.4v-.8H70.8v.8Z" class="g1_1432"/>
<path d="M70.8,336.5H850.4v-.7H70.8v.7Z" class="g1_1432"/>
<path d="M70.4,598.5h.7V550.4h-.7v48.1Z" class="g1_1432"/>
<path d="M337.7,599.3h.7V549.6h-.7v49.7Z" class="g1_1432"/>
<path d="M593.8,599.3h.7V549.6h-.7v49.7Z" class="g1_1432"/>
<path d="M850,598.5h.8V550.4H850v48.1Z" class="g1_1432"/>
<path d="M70.4,550.4H850.8v-.8H70.4v.8Z" class="g1_1432"/>
<path d="M70.4,574.8H850.8v-.7H70.4v.7Z" class="g1_1432"/>
<path d="M70.4,599.3H850.8v-.7H70.4v.7Z" class="g1_1432"/>
<path d="M69.6,1027.9h.7V955.3h-.7v72.6Z" class="g1_1432"/>
<path d="M376.7,1028.6h.7V954.5h-.7v74.1Z" class="g1_1432"/>
<path d="M850.8,1027.9h.8V955.3h-.8v72.6Z" class="g1_1432"/>
<path d="M69.6,955.3h782v-.8H69.6v.8Z" class="g1_1432"/>
<path d="M69.6,979.7h782V979H69.6v.7Z" class="g1_1432"/>
<path d="M69.6,1004.1h782v-.7H69.6v.7Z" class="g1_1432"/>
<path d="M69.6,1028.6h782v-.7H69.6v.7Z" class="g1_1432"/>
</svg>