<?xml version="1.0" encoding="UTF-8" standalone="no"?>
<!DOCTYPE svg PUBLIC "-//W3C//DTD SVG 1.1//EN"
"http://www.w3.org/Graphics/SVG/1.1/DTD/svg11.dtd">
<svg viewBox="0 0 935 1210" version="1.1" xmlns="http://www.w3.org/2000/svg" xmlns:xlink="http://www.w3.org/1999/xlink">
<defs>
<style type="text/css"><![CDATA[
.g0_4648{
fill: #FFF;
}
.g1_4648{
fill: #000;
}
]]></style>
</defs>
<path d="M68.8,1149.3H852.5v-21.2H68.8v21.2Z" class="g0_4648"/>
<path d="M68.6,1082.9h.7V124.1h-.7v958.8Z" class="g1_4648"/>
<path d="M125.3,1083.6h.7v-919h-.7v919Z" class="g1_4648"/>
<path d="M182.1,1083.6h.7V123.4h-.7v960.2Z" class="g1_4648"/>
<path d="M430.3,1083.6h.7V123.4h-.7v960.2Z" class="g1_4648"/>
<path d="M523.4,1083.6h.7V123.4h-.7v960.2Z" class="g1_4648"/>
<path d="M849.4,1082.9h.7V124.1h-.7v958.8Z" class="g1_4648"/>
<path d="M68.6,124.1H850.1v-.7H68.6v.7Z" class="g1_4648"/>
<path d="M68.6,165.4H182.8v-.8H68.6v.8Z" class="g1_4648"/>
<path d="M68.6,189.8H850.1v-.7H68.6v.7Z" class="g1_4648"/>
<path d="M68.6,269.2H850.1v-.7H68.6v.7Z" class="g1_4648"/>
<path d="M68.6,315.1H850.1v-.8H68.6v.8Z" class="g1_4648"/>
<path d="M68.6,360.9H850.1v-.7H68.6v.7Z" class="g1_4648"/>
<path d="M68.6,406.8H850.1v-.7H68.6v.7Z" class="g1_4648"/>
<path d="M182.1,431.2h668v-.7h-668v.7Z" class="g1_4648"/>
<path d="M182.1,477h668v-.7h-668v.7Z" class="g1_4648"/>
<path d="M182.1,501.5h668v-.7h-668v.7Z" class="g1_4648"/>
<path d="M182.1,547.3h668v-.7h-668v.7Z" class="g1_4648"/>
<path d="M182.1,571.8h668v-.7h-668v.7Z" class="g1_4648"/>
<path d="M182.1,617.7h668v-.8h-668v.8Z" class="g1_4648"/>
<path d="M182.1,642h668v-.7h-668v.7Z" class="g1_4648"/>
<path d="M182.1,755.2h668v-.8h-668v.8Z" class="g1_4648"/>
<path d="M68.6,779.5H850.1v-.7H68.6v.7Z" class="g1_4648"/>
<path d="M68.6,825.4H850.1v-.8H68.6v.8Z" class="g1_4648"/>
<path d="M68.6,871.2H850.1v-.7H68.6v.7Z" class="g1_4648"/>
<path d="M68.6,917H850.1v-.7H68.6v.7Z" class="g1_4648"/>
<path d="M68.6,962.9H850.1v-.8H68.6v.8Z" class="g1_4648"/>
<path d="M182.1,1021h668v-.7h-668v.7Z" class="g1_4648"/>
<path d="M68.6,1083.6H850.1v-.7H68.6v.7Z" class="g1_4648"/>
</svg>