<?xml version="1.0" encoding="UTF-8" standalone="no"?>
<!DOCTYPE svg PUBLIC "-//W3C//DTD SVG 1.1//EN"
"http://www.w3.org/Graphics/SVG/1.1/DTD/svg11.dtd">
<svg viewBox="0 0 825 990" version="1.1" xmlns="http://www.w3.org/2000/svg" xmlns:xlink="http://www.w3.org/1999/xlink">
<defs>
<style type="text/css"><![CDATA[
.g0_738{
fill: #000;
}
.g1_738{
fill: #FFF;
}
.g2_738{
fill: #FFF;
stroke: #231F20;
stroke-width: 0.763;
stroke-miterlimit: 3;
}
.g3_738{
fill: none;
stroke: #231F20;
stroke-width: 0.763;
stroke-miterlimit: 3;
}
.g4_738{
fill: #FFF;
stroke: #231F20;
stroke-width: 0.75;
stroke-miterlimit: 3;
}
]]></style>
</defs>
<path d="M79.8,910.3h.3v-.8h-.3v.8Z" class="g0_738"/>
<path d="M80.1,910.3h650v-.8H80.1v.8Z" class="g0_738"/>
<path d="M111,798.1H728.2V292.3H111V798.1Z" class="g1_738"/>
<path d="M465.9,632.4l.1,54h-6.5l13,6.5l13.1,-6.5h-6.5L478.9,634l-13,-1.6Z" class="g1_738"/>
<image x="459" y="632" width="27" height="62" xlink:href="shade/1.png"/>
<path d="M328.5,615.7H500.4v25.9H328.5V615.7Z" class="g2_738"/>
<path d="M541,391.6l-.1,216.9h-6.5l13,6.6l13.1,-6.6H554V390.4l-13,1.2Z" class="g1_738"/>
<image x="534" y="390" width="27" height="226" xlink:href="shade/2.png"/>
<path d="M466.4,554.5l.1,53.4H460l13.1,6.5l13,-6.5h-6.5l.6,-53.4H466.4Z" class="g1_738"/>
<image x="459" y="554" width="28" height="61" xlink:href="shade/3.png"/>
<path d="M328.8,537.7H606.3v26H328.8v-26Z" class="g2_738"/>
<path d="M464.9,709.9l.1,53.9h-6.5l13,6.6l13.1,-6.6h-6.5l.3,-53.6l-13.5,-.3Z" class="g1_738"/>
<image x="458" y="709" width="27" height="62" xlink:href="shade/4.png"/>
<path d="M653.6,399.1l.1,365.4h-6.5l13,6.5l13.1,-6.5h-6.6l.4,-366l-13.5,.6Z" class="g1_738"/>
<image x="646" y="398" width="28" height="374" xlink:href="shade/5.png"/>
<path d="M449.8,693.6H727v26H449.8v-26Z" class="g2_738"/>
<path d="M507.9,712.5h81.3v-9.2H507.9v9.2Z" class="g1_738"/>
<path d="M709.7,693.6H727v26H709.7" class="g3_738"/>
<path d="M712.7,712.5h12.8v-9.2H712.7v9.2Z" class="g1_738"/>
<path d="M343.1,476l.1,54h-6.5l13.1,6.5l13,-6.5h-6.5l-.2,-52.4l-13,-1.6Z" class="g1_738"/>
<image x="336" y="475" width="28" height="62" xlink:href="shade/6.png"/>
<path d="M343.4,315.5L343.2,452h-6.5l13.1,6.5l13,-6.5h-6.5l.1,-131.5l-13,-5Z" class="g1_738"/>
<image x="336" y="315" width="28" height="144" xlink:href="shade/7.png"/>
<path d="M464.9,397.6l.1,53.9h-6.5l13,6.6l13.1,-6.6h-6.5l.3,-55.3l-13.5,1.4Z" class="g1_738"/>
<image x="458" y="395" width="27" height="64" xlink:href="shade/8.png"/>
<path d="M259.3,459.7H536.4v26H259.3v-26Z" class="g2_738"/>
<path d="M415.2,485.7H520.1v-26H415.2v26Z" class="g1_738"/>
<image x="414" y="459" width="107" height="28" xlink:href="shade/9.png"/>
<path d="M293.9,479.1h56.2v-9.2H293.9v9.2Z" class="g1_738"/>
<path d="M519.1,459.7h17.3v26H519.1v-26Z" class="g2_738"/>
<path d="M522.2,479.1h12.7v-9.2H522.2v9.2Z" class="g1_738"/>
<path d="M259.3,303.8H536.4v26H259.3v-26Z" class="g2_738"/>
<path d="M415.2,329.8H536.4v-26H415.2v26Z" class="g1_738"/>
<image x="414" y="303" width="123" height="28" xlink:href="shade/10.png"/>
<path d="M309.2,323.2h56.2V314H309.2v9.2Z" class="g1_738"/>
<path d="M591.5,556h12.7v-9.1H591.5V556Z" class="g1_738"/>
<path d="M377.7,556h84.5v-9.1H377.7V556Z" class="g1_738"/>
<path d="M377.9,635h84.5v-9.1H377.9V635Z" class="g1_738"/>
<path d="M500.3,615.7H606.1v25.9H500.3V615.7Z" class="g2_738"/>
<path d="M591.5,635h12.7v-9.2H591.5V635Z" class="g1_738"/>
<path d="M415.8,381.8H692.6v26H415.8v-26Z" class="g2_738"/>
<path d="M519.2,381.8h87.2v26H519.2v-26Z" class="g2_738"/>
<path d="M449.7,771.6H640.4v25.9H449.7V771.6Z" class="g3_738"/>
<path d="M640.1,771.6H726v25.9H640.1V771.6Z" class="g4_738"/>
<path d="M587.8,615.7v25.8m27.7,7.4h.2" class="g3_738"/>
<path d="M500.9,563.6h86.7v-26H500.9v26Z" class="g1_738"/>
<image x="500" y="537" width="89" height="27" xlink:href="shade/11.png"/>
<path d="M641.1,719.6h68.6V693.4H641.1v26.2Z" class="g1_738"/>
<image x="640" y="693" width="71" height="27" xlink:href="shade/12.png"/>
</svg>