<?xml version="1.0" encoding="UTF-8" standalone="no"?>
<!DOCTYPE svg PUBLIC "-//W3C//DTD SVG 1.1//EN"
"http://www.w3.org/Graphics/SVG/1.1/DTD/svg11.dtd">
<svg viewBox="0 0 935 1210" version="1.1" xmlns="http://www.w3.org/2000/svg" xmlns:xlink="http://www.w3.org/1999/xlink">
<defs>
<clipPath id="c0_1200"><path d="M97.3,59.2V41.4h72.1V59.2Z"/></clipPath>
<clipPath id="c1_1200"><path d="M96.2,196V178.2H838.7V196Z"/></clipPath>
<style type="text/css"><![CDATA[
.g0_1200{
fill: #000;
}
]]></style>
</defs>
<path d="M96.2,62.9v.3H838.7v-.3H96.2Z" class="g0_1200"/>
<path d="M96.2,1114.1h-.1v.3h.1v-.3Z" class="g0_1200"/>
<path d="M838.7,1114.1h.2v.3h-.2v-.3Z" class="g0_1200"/>
<path d="M96.2,1114.1v.3H838.7v-.3H96.2Z" class="g0_1200"/>
<image clip-path="url(#c0_1200)" preserveAspectRatio="none" x="97" y="41" width="72" height="18" xlink:href="img/1.jpg"/>
<g clip-path="url(#c1_1200)">
<path d="M96.2,179.3h-.1v.4h.1v-.4Z" class="g0_1200"/>
<path d="M838.7,179.3h.2v.4h-.2v-.4Z" class="g0_1200"/>
</g>
<path d="M96.2,179.3v.4H838.7v-.4H96.2Z" class="g0_1200"/>
<path d="M107.3,300.7h-.7v793.8h.7V300.7Z" class="g0_1200"/>
<path d="M188.1,300h-.7v795.2h.7V300Z" class="g0_1200"/>
<path d="M448.5,300h-.7v795.2h.7V300Z" class="g0_1200"/>
<path d="M828.4,300.7h-.8v793.8h.8V300.7Z" class="g0_1200"/>
<path d="M106.6,300v.7H828.4V300H106.6Z" class="g0_1200"/>
<path d="M106.6,324.5v.7H828.4v-.7H106.6Z" class="g0_1200"/>
<path d="M106.6,348.9v.7H828.4v-.7H106.6Z" class="g0_1200"/>
<path d="M106.6,373.3v.8H828.4v-.8H106.6Z" class="g0_1200"/>
<path d="M106.6,397.8v.8H828.4v-.8H106.6Z" class="g0_1200"/>
<path d="M106.6,422.2v.7H828.4v-.7H106.6Z" class="g0_1200"/>
<path d="M106.6,446.7v.7H828.4v-.7H106.6Z" class="g0_1200"/>
<path d="M106.6,471.1v.8H828.4v-.8H106.6Z" class="g0_1200"/>
<path d="M106.6,495.6v.8H828.4v-.8H106.6Z" class="g0_1200"/>
<path d="M106.6,538.3v.8H828.4v-.8H106.6Z" class="g0_1200"/>
<path d="M106.6,562.8v.7H828.4v-.7H106.6Z" class="g0_1200"/>
<path d="M106.6,587.3v.7H828.4v-.7H106.6Z" class="g0_1200"/>
<path d="M106.6,630v.7H828.4V630H106.6Z" class="g0_1200"/>
<path d="M106.6,654.5v.7H828.4v-.7H106.6Z" class="g0_1200"/>
<path d="M106.6,678.9v.8H828.4v-.8H106.6Z" class="g0_1200"/>
<path d="M106.6,703.3v.8H828.4v-.8H106.6Z" class="g0_1200"/>
<path d="M106.6,727.8v.7H828.4v-.7H106.6Z" class="g0_1200"/>
<path d="M106.6,752.3v.7H828.4v-.7H106.6Z" class="g0_1200"/>
<path d="M106.6,776.7v.7H828.4v-.7H106.6Z" class="g0_1200"/>
<path d="M106.6,801.1v.8H828.4v-.8H106.6Z" class="g0_1200"/>
<path d="M106.6,825.6v.7H828.4v-.7H106.6Z" class="g0_1200"/>
<path d="M106.6,850v.7H828.4V850H106.6Z" class="g0_1200"/>
<path d="M106.6,874.5v.7H828.4v-.7H106.6Z" class="g0_1200"/>
<path d="M106.6,898.9v.8H828.4v-.8H106.6Z" class="g0_1200"/>
<path d="M106.6,923.3v.8H828.4v-.8H106.6Z" class="g0_1200"/>
<path d="M106.6,947.8v.7H828.4v-.7H106.6Z" class="g0_1200"/>
<path d="M106.6,972.3v.7H828.4v-.7H106.6Z" class="g0_1200"/>
<path d="M106.6,996.7v.7H828.4v-.7H106.6Z" class="g0_1200"/>
<path d="M106.6,1021.1v.8H828.4v-.8H106.6Z" class="g0_1200"/>
<path d="M106.6,1045.6v.7H828.4v-.7H106.6Z" class="g0_1200"/>
<path d="M106.6,1070v.7H828.4v-.7H106.6Z" class="g0_1200"/>
<path d="M106.6,1094.5v.7H828.4v-.7H106.6Z" class="g0_1200"/>
</svg>