<?xml version="1.0" encoding="UTF-8" standalone="no"?>
<!DOCTYPE svg PUBLIC "-//W3C//DTD SVG 1.1//EN"
"http://www.w3.org/Graphics/SVG/1.1/DTD/svg11.dtd">
<svg viewBox="0 0 935 1210" version="1.1" xmlns="http://www.w3.org/2000/svg" xmlns:xlink="http://www.w3.org/1999/xlink">
<defs>
<clipPath id="c0_3044"><path d="M97.3,59.2V41.4h72.1V59.2Z"/></clipPath>
<style type="text/css"><![CDATA[
.g0_3044{
fill: #000;
}
.g1_3044{
fill: none;
stroke: #000;
stroke-width: 0.763;
}
.g2_3044{
fill: #FFF;
stroke: #000;
stroke-width: 1.527;
}
.g3_3044{
fill: #FFF;
}
]]></style>
</defs>
<path d="M96.3,63.3H838.8v-.4H96.3v.4Z" class="g0_3044"/>
<path d="M96.1,1114.5h.2v-.4h-.2v.4Z" class="g0_3044"/>
<path d="M96.3,1114.5H838.9v-.4H96.3v.4Z" class="g0_3044"/>
<image clip-path="url(#c0_3044)" preserveAspectRatio="none" x="97" y="41" width="73" height="18" xlink:href="img/1.jpg"/>
<path d="M245.7,818.7L482,909.4" class="g1_3044"/>
<path d="M479.6,912.5l7.5,-1.2l-4.8,-5.9l-2.7,7.1Z" class="g0_3044"/>
<path d="M702.5,818.7L467.2,909.4" class="g1_3044"/>
<path d="M466.9,905.4l-4.8,5.9l7.5,1.2l-2.7,-7.1Z" class="g0_3044"/>
<path d="M569,811.1h38.1V786.3H569v24.8Z" class="g2_3044"/>
<path d="M607.1,811.1h38V786.3h-38v24.8Z" class="g2_3044"/>
<path d="M645.1,811.1h38.1V786.3H645.1v24.8Z" class="g2_3044"/>
<path d="M683.2,811.1h38.1V786.3H683.2v24.8Z" class="g2_3044"/>
<path d="M226.8,811.1h38V786.3h-38v24.8Z" class="g2_3044"/>
<path d="M264.8,811.1h38.1V786.3H264.8v24.8Z" class="g2_3044"/>
<path d="M302.9,811.1H341V786.3H302.9v24.8Z" class="g2_3044"/>
<path d="M341,811.1h38V786.3H341v24.8Z" class="g2_3044"/>
<path d="M398.9,945.3h19V920.5h-19v24.8Z" class="g2_3044"/>
<path d="M417.9,945.3h19V920.5h-19v24.8Z" class="g2_3044"/>
<path d="M436.9,945.3H456V920.5H436.9v24.8Z" class="g2_3044"/>
<path d="M456,945.3h19V920.5H456v24.8Z" class="g2_3044"/>
<path d="M475,945.3h19V920.5H475v24.8Z" class="g2_3044"/>
<path d="M494,945.3h19.1V920.5H494v24.8Z" class="g2_3044"/>
<path d="M513.1,945.3h19V920.5h-19v24.8Z" class="g2_3044"/>
<path d="M532.1,945.3h19V920.5h-19v24.8Z" class="g2_3044"/>
<path d="M363.3,817l174.1,92.7" class="g1_3044"/>
<path d="M534.7,912.6l7.6,-.3l-4.1,-6.5l-3.5,6.8Z" class="g0_3044"/>
<path d="M586.6,817L413.4,909.7" class="g1_3044"/>
<path d="M412.6,905.8l-4,6.5l7.6,.2l-3.6,-6.7Z" class="g0_3044"/>
<path d="M388.2,934.2H213V744.7h89v18.4" class="g1_3044"/>
<path d="M298.2,762l3.8,6.6l3.8,-6.6h-7.6Z" class="g0_3044"/>
<path d="M366.9,842.7h49.9V824H366.9v18.7Z" class="g3_3044"/>
<path d="M258.8,842.7h49.9V824H258.8v18.7Z" class="g3_3044"/>
<path d="M535.1,842.7H585V824H535.1v18.7Z" class="g3_3044"/>
<path d="M640.7,842.7h49.9V824H640.7v18.7Z" class="g3_3044"/>
</svg>