<?xml version="1.0" encoding="UTF-8" standalone="no"?>
<!DOCTYPE svg PUBLIC "-//W3C//DTD SVG 1.1//EN"
"http://www.w3.org/Graphics/SVG/1.1/DTD/svg11.dtd">
<svg viewBox="0 0 935 1210" version="1.1" xmlns="http://www.w3.org/2000/svg" xmlns:xlink="http://www.w3.org/1999/xlink">
<defs>
<style type="text/css"><![CDATA[
.g0_170{
fill: #000;
}
]]></style>
</defs>
<path d="M82.3,885.7h.8V136.3h-.8V885.7Z" class="g0_170"/>
<path d="M164.8,886.4h.8V167.7h-.8V886.4Z" class="g0_170"/>
<path d="M231.7,886.4h.8V135.6h-.8V886.4Z" class="g0_170"/>
<path d="M561.8,886.4h.8V135.6h-.8V886.4Z" class="g0_170"/>
<path d="M652.6,886.4h.7V135.6h-.7V886.4Z" class="g0_170"/>
<path d="M748.8,886.4h.8V135.6h-.8V886.4Z" class="g0_170"/>
<path d="M852,885.7h.7V136.3H852V885.7Z" class="g0_170"/>
<path d="M82.3,136.3H852.7v-.7H82.3v.7Z" class="g0_170"/>
<path d="M82.3,168.4H232.6v-.7H82.3v.7Z" class="g0_170"/>
<path d="M83.1,198.6H852v-.8H83.1v.8Z" class="g0_170"/>
<path d="M83.1,202.4H852v-.7H83.1v.7Z" class="g0_170"/>
<path d="M82.3,464.5H852.7v-.8H82.3v.8Z" class="g0_170"/>
<path d="M82.3,544H852.7v-.8H82.3v.8Z" class="g0_170"/>
<path d="M82.3,886.4H852.7v-.7H82.3v.7Z" class="g0_170"/>
<path d="M245.7,375h.3V248.6h-.3V375Z" class="g0_170"/>
<path d="M328.2,375.4h.3V248.2h-.3V375.4Z" class="g0_170"/>
<path d="M548.3,375h.3V248.6h-.3V375Z" class="g0_170"/>
<path d="M245.7,248.6H548.6v-.4H245.7v.4Z" class="g0_170"/>
<path d="M246,275.1H548.2v-.7H246v.7Z" class="g0_170"/>
<path d="M246,277.4H548.2v-.7H246v.7Z" class="g0_170"/>
<path d="M245.7,334.1H548.6v-.3H245.7v.3Z" class="g0_170"/>
<path d="M245.7,375.4H548.6V375H245.7v.4Z" class="g0_170"/>
<path d="M245.7,684.8h.3V575.2h-.3V684.8Z" class="g0_170"/>
<path d="M328.2,685.2h.3V574.8h-.3V685.2Z" class="g0_170"/>
<path d="M548.3,684.8h.3V575.2h-.3V684.8Z" class="g0_170"/>
<path d="M245.7,575.2H548.6v-.4H245.7v.4Z" class="g0_170"/>
<path d="M246,601.8H548.2v-.7H246v.7Z" class="g0_170"/>
<path d="M246,604.1H548.2v-.8H246v.8Z" class="g0_170"/>
<path d="M245.7,644H548.6v-.4H245.7v.4Z" class="g0_170"/>
<path d="M245.7,685.2H548.6v-.4H245.7v.4Z" class="g0_170"/>
</svg>