<?xml version="1.0" encoding="UTF-8" standalone="no"?>
<!DOCTYPE svg PUBLIC "-//W3C//DTD SVG 1.1//EN"
"http://www.w3.org/Graphics/SVG/1.1/DTD/svg11.dtd">
<svg viewBox="0 0 935 1210" version="1.1" xmlns="http://www.w3.org/2000/svg" xmlns:xlink="http://www.w3.org/1999/xlink">
<defs>
<style type="text/css"><![CDATA[
.g0_1271{
fill: #FFF;
}
.g1_1271{
fill: #000;
}
]]></style>
</defs>
<path d="M68.9,1149.3H755.2v-21.2H68.9v21.2Z" class="g0_1271"/>
<path d="M771.3,1149.3H855v-21.2H771.3v21.2Z" class="g0_1271"/>
<path d="M70.3,216H851.6V186.4H70.3V216Z" class="g0_1271"/>
<path d="M71.2,209.3h53.6V196.9H71.2v12.4Z" class="g0_1271"/>
<path d="M69.9,186h.8V125.7h-.8V186Z" class="g1_1271"/>
<path d="M220.1,186.8h.7V124.9h-.7v61.9Z" class="g1_1271"/>
<path d="M390.3,186.8h.7V124.9h-.7v61.9Z" class="g1_1271"/>
<path d="M428.2,186.8h.7V124.9h-.7v61.9Z" class="g1_1271"/>
<path d="M501.6,186.8h.7V124.9h-.7v61.9Z" class="g1_1271"/>
<path d="M572.9,186.8h.8V124.9h-.8v61.9Z" class="g1_1271"/>
<path d="M851.2,186h.7V125.7h-.7V186Z" class="g1_1271"/>
<path d="M69.9,125.7H852v-.8H69.9v.8Z" class="g1_1271"/>
<path d="M69.9,163.8H852v-.7H69.9v.7Z" class="g1_1271"/>
<path d="M69.9,186.7H852V186H69.9v.7Z" class="g1_1271"/>
<path d="M69.9,339.3h.8V291.2h-.8v48.1Z" class="g1_1271"/>
<path d="M140.1,340.2h.7V290.5h-.7v49.7Z" class="g1_1271"/>
<path d="M311.4,340.2h.7V290.5h-.7v49.7Z" class="g1_1271"/>
<path d="M488.4,340.2h.7V290.5h-.7v49.7Z" class="g1_1271"/>
<path d="M667.1,340.2h.7V290.5h-.7v49.7Z" class="g1_1271"/>
<path d="M853.3,339.3h.8V291.2h-.8v48.1Z" class="g1_1271"/>
<path d="M69.9,291.2H854.1v-.7H69.9v.7Z" class="g1_1271"/>
<path d="M69.9,315.7H854.1V315H69.9v.7Z" class="g1_1271"/>
<path d="M69.9,340.1H854.1v-.8H69.9v.8Z" class="g1_1271"/>
</svg>