<?xml version="1.0" encoding="UTF-8" standalone="no"?>
<!DOCTYPE svg PUBLIC "-//W3C//DTD SVG 1.1//EN"
"http://www.w3.org/Graphics/SVG/1.1/DTD/svg11.dtd">
<svg viewBox="0 0 935 1210" version="1.1" xmlns="http://www.w3.org/2000/svg" xmlns:xlink="http://www.w3.org/1999/xlink">
<defs>
<clipPath id="c0_1722"><path d="M766.6,59.2V41.4h72.1V59.2Z"/></clipPath>
<style type="text/css"><![CDATA[
.g0_1722{
fill: #000;
}
]]></style>
</defs>
<path d="M97.3,62.9v.3H839.9v-.3H97.3Z" class="g0_1722"/>
<path d="M96.2,1114.1h-.1v.4h.1v-.4Z" class="g0_1722"/>
<path d="M838.7,1114.1h.2v.4h-.2v-.4Z" class="g0_1722"/>
<path d="M96.2,1114.1v.4H838.7v-.4H96.2Z" class="g0_1722"/>
<image clip-path="url(#c0_1722)" preserveAspectRatio="none" x="767" y="41" width="72" height="18" xlink:href="img/1.jpg"/>
<path d="M96.6,421.7h-.7V731.4h.7V421.7Z" class="g0_1722"/>
<path d="M244.8,418.6h-.7V732.2h.7V418.6Z" class="g0_1722"/>
<path d="M284.5,418.6h-.7V732.2h.7V418.6Z" class="g0_1722"/>
<path d="M338,418.6h-.8V732.2h.8V418.6Z" class="g0_1722"/>
<path d="M412.9,418.6h-.8V732.2h.8V418.6Z" class="g0_1722"/>
<path d="M844.2,421.7h-.7V731.4h.7V421.7Z" class="g0_1722"/>
<path d="M95.9,418.6v3.1H844.2v-3.1H95.9Z" class="g0_1722"/>
<path d="M95.9,461.4v3.1H844.2v-3.1H95.9Z" class="g0_1722"/>
<path d="M244,487v.7H844.2V487H244Z" class="g0_1722"/>
<path d="M244,511.4v.7H844.2v-.7H244Z" class="g0_1722"/>
<path d="M95.9,535.9v.7H844.2v-.7H95.9Z" class="g0_1722"/>
<path d="M244,560.3v.8H844.2v-.8H244Z" class="g0_1722"/>
<path d="M95.9,584.7v.8H844.2v-.8H95.9Z" class="g0_1722"/>
<path d="M244,609.2v.7H844.2v-.7H244Z" class="g0_1722"/>
<path d="M244,633.7v.7H844.2v-.7H244Z" class="g0_1722"/>
<path d="M244,658.1v.7H844.2v-.7H244Z" class="g0_1722"/>
<path d="M95.9,682.5v.8H844.2v-.8H95.9Z" class="g0_1722"/>
<path d="M244,707v.7H844.2V707H244Z" class="g0_1722"/>
<path d="M95.9,731.4v.7H844.2v-.7H95.9Z" class="g0_1722"/>
</svg>