<?xml version="1.0" encoding="UTF-8" standalone="no"?>
<!DOCTYPE svg PUBLIC "-//W3C//DTD SVG 1.1//EN"
"http://www.w3.org/Graphics/SVG/1.1/DTD/svg11.dtd">
<svg viewBox="0 0 935 1210" version="1.1" xmlns="http://www.w3.org/2000/svg" xmlns:xlink="http://www.w3.org/1999/xlink">
<defs>
<style type="text/css"><![CDATA[
.g0_936{
fill: #FFF;
}
.g1_936{
fill: #000;
}
]]></style>
</defs>
<path d="M68.8,1149.3H852.5v-21.2H68.8v21.2Z" class="g0_936"/>
<path d="M68.6,1089h.7V124.1h-.7V1089Z" class="g1_936"/>
<path d="M212.6,1089.7h.7V123.4h-.7v966.3Z" class="g1_936"/>
<path d="M427.4,1089.7h.8V123.4h-.8v966.3Z" class="g1_936"/>
<path d="M642.4,1089.7h.7V123.4h-.7v966.3Z" class="g1_936"/>
<path d="M851.1,1089h.8V124.1h-.8V1089Z" class="g1_936"/>
<path d="M68.6,124.1H851.9v-.7H68.6v.7Z" class="g1_936"/>
<path d="M68.6,148.6H851.9v-.7H68.6v.7Z" class="g1_936"/>
<path d="M68.6,223.4H851.9v-.7H68.6v.7Z" class="g1_936"/>
<path d="M68.6,298.3H851.9v-.7H68.6v.7Z" class="g1_936"/>
<path d="M68.6,322.8H851.9V322H68.6v.8Z" class="g1_936"/>
<path d="M68.6,347.1H851.9v-.7H68.6v.7Z" class="g1_936"/>
<path d="M68.6,388.4H851.9v-.7H68.6v.7Z" class="g1_936"/>
<path d="M68.6,429.7H851.9V429H68.6v.7Z" class="g1_936"/>
<path d="M68.6,471H851.9v-.8H68.6v.8Z" class="g1_936"/>
<path d="M68.6,512.2H851.9v-.7H68.6v.7Z" class="g1_936"/>
<path d="M68.6,553.5H851.9v-.8H68.6v.8Z" class="g1_936"/>
<path d="M68.6,611.5H851.9v-.7H68.6v.7Z" class="g1_936"/>
<path d="M68.6,669.5H851.9v-.7H68.6v.7Z" class="g1_936"/>
<path d="M68.6,782.7H851.9v-.8H68.6v.8Z" class="g1_936"/>
<path d="M68.6,845.3H851.9v-.8H68.6v.8Z" class="g1_936"/>
<path d="M68.6,907.9H851.9v-.8H68.6v.8Z" class="g1_936"/>
<path d="M68.6,966H851.9v-.8H68.6v.8Z" class="g1_936"/>
<path d="M68.6,1040.8H851.9v-.8H68.6v.8Z" class="g1_936"/>
<path d="M68.6,1065.3H851.9v-.8H68.6v.8Z" class="g1_936"/>
<path d="M68.6,1089.7H851.9v-.7H68.6v.7Z" class="g1_936"/>
</svg>