<?xml version="1.0" encoding="UTF-8" standalone="no"?>
<!DOCTYPE svg PUBLIC "-//W3C//DTD SVG 1.1//EN"
"http://www.w3.org/Graphics/SVG/1.1/DTD/svg11.dtd">
<svg viewBox="0 0 935 1210" version="1.1" xmlns="http://www.w3.org/2000/svg" xmlns:xlink="http://www.w3.org/1999/xlink">
<defs>
<style type="text/css"><![CDATA[
.g0_1240{
fill: #FFF;
}
.g1_1240{
fill: #000;
}
]]></style>
</defs>
<path d="M165,1149.3H852.5v-21.2H165v21.2Z" class="g0_1240"/>
<path d="M68.8,1149.3h82.5v-21.2H68.8v21.2Z" class="g0_1240"/>
<path d="M68.6,1069.1h.7V125.7h-.7v943.4Z" class="g1_1240"/>
<path d="M385.6,1069.8h.7V124.9h-.7v944.9Z" class="g1_1240"/>
<path d="M423.4,1069.8h.7V124.9h-.7v944.9Z" class="g1_1240"/>
<path d="M496.7,1069.8h.8V124.9h-.8v944.9Z" class="g1_1240"/>
<path d="M575,1069.8h.8V124.9H575v944.9Z" class="g1_1240"/>
<path d="M851,1069.1h.8V125.7H851v943.4Z" class="g1_1240"/>
<path d="M68.6,125.7H851.8v-.8H68.6v.8Z" class="g1_1240"/>
<path d="M68.6,179.1H851.8v-.7H68.6v.7Z" class="g1_1240"/>
<path d="M68.6,223.4H851.8v-.7H68.6v.7Z" class="g1_1240"/>
<path d="M68.6,267.8H851.8V267H68.6v.8Z" class="g1_1240"/>
<path d="M68.6,312H851.8v-.7H68.6v.7Z" class="g1_1240"/>
<path d="M68.6,356.3H851.8v-.7H68.6v.7Z" class="g1_1240"/>
<path d="M68.6,400.7H851.8v-.8H68.6v.8Z" class="g1_1240"/>
<path d="M68.6,444.9H851.8v-.7H68.6v.7Z" class="g1_1240"/>
<path d="M68.6,489.3H851.8v-.7H68.6v.7Z" class="g1_1240"/>
<path d="M68.6,533.6H851.8v-.7H68.6v.7Z" class="g1_1240"/>
<path d="M68.6,577.9H851.8v-.8H68.6v.8Z" class="g1_1240"/>
<path d="M68.6,622.2H851.8v-.7H68.6v.7Z" class="g1_1240"/>
<path d="M68.6,666.5H851.8v-.7H68.6v.7Z" class="g1_1240"/>
<path d="M68.6,710.8H851.8v-.7H68.6v.7Z" class="g1_1240"/>
<path d="M68.6,755.2H851.8v-.8H68.6v.8Z" class="g1_1240"/>
<path d="M68.6,799.4H851.8v-.7H68.6v.7Z" class="g1_1240"/>
<path d="M68.6,843.7H851.8V843H68.6v.7Z" class="g1_1240"/>
<path d="M68.6,900.3H851.8v-.8H68.6v.8Z" class="g1_1240"/>
<path d="M68.6,956.8H851.8v-.7H68.6v.7Z" class="g1_1240"/>
<path d="M68.6,1013.3H851.8v-.7H68.6v.7Z" class="g1_1240"/>
<path d="M68.6,1069.8H851.8v-.7H68.6v.7Z" class="g1_1240"/>
</svg>