<?xml version="1.0" encoding="UTF-8" standalone="no"?>
<!DOCTYPE svg PUBLIC "-//W3C//DTD SVG 1.1//EN"
"http://www.w3.org/Graphics/SVG/1.1/DTD/svg11.dtd">
<svg viewBox="0 0 935 1210" version="1.1" xmlns="http://www.w3.org/2000/svg" xmlns:xlink="http://www.w3.org/1999/xlink">
<defs>
<style type="text/css"><![CDATA[
.g0_423{
fill: #FFF;
}
.g1_423{
fill: #000;
}
]]></style>
</defs>
<path d="M68.9,1149.3H755.2v-21.2H68.9v21.2Z" class="g0_423"/>
<path d="M771.3,1149.3H855v-21.2H771.3v21.2Z" class="g0_423"/>
<path d="M70.3,547.5H852.5V517.9H70.3v29.6Z" class="g0_423"/>
<path d="M71.2,540.8h53.6V528.5H71.2v12.3Z" class="g0_423"/>
<path d="M69.9,517.6h.8V125.7h-.8V517.6Z" class="g1_423"/>
<path d="M317.3,518.3h.7V124.9h-.7V518.3Z" class="g1_423"/>
<path d="M363.1,518.3h.7V124.9h-.7V518.3Z" class="g1_423"/>
<path d="M437.6,518.3h.8V124.9h-.8V518.3Z" class="g1_423"/>
<path d="M517.5,518.3h.7V124.9h-.7V518.3Z" class="g1_423"/>
<path d="M852.1,517.6h.8V125.7h-.8V517.6Z" class="g1_423"/>
<path d="M69.9,125.7H853v-.8H69.9v.8Z" class="g1_423"/>
<path d="M69.9,179.1H853v-.7H69.9v.7Z" class="g1_423"/>
<path d="M69.9,235.7H853v-.8H69.9v.8Z" class="g1_423"/>
<path d="M69.9,292.1H853v-.7H69.9v.7Z" class="g1_423"/>
<path d="M69.9,348.7H853V348H69.9v.7Z" class="g1_423"/>
<path d="M69.9,405.3H853v-.8H69.9v.8Z" class="g1_423"/>
<path d="M69.9,461.8H853v-.7H69.9v.7Z" class="g1_423"/>
<path d="M69.9,518.3H853v-.7H69.9v.7Z" class="g1_423"/>
<path d="M69.9,732.1h.8V659.5h-.8v72.6Z" class="g1_423"/>
<path d="M150,732.8h.7V658.7H150v74.1Z" class="g1_423"/>
<path d="M237.3,732.8h.8V658.7h-.8v74.1Z" class="g1_423"/>
<path d="M386.9,732.8h.8V658.7h-.8v74.1Z" class="g1_423"/>
<path d="M545.2,732.8h.8V658.7h-.8v74.1Z" class="g1_423"/>
<path d="M699.6,732.8h.7V658.7h-.7v74.1Z" class="g1_423"/>
<path d="M854.7,732.1h.7V659.5h-.7v72.6Z" class="g1_423"/>
<path d="M69.9,659.5H855.4v-.8H69.9v.8Z" class="g1_423"/>
<path d="M69.9,683.9H855.4v-.7H69.9v.7Z" class="g1_423"/>
<path d="M69.9,708.3H855.4v-.7H69.9v.7Z" class="g1_423"/>
<path d="M69.9,732.8H855.4v-.7H69.9v.7Z" class="g1_423"/>
</svg>