<?xml version="1.0" encoding="UTF-8" standalone="no"?>
<!DOCTYPE svg PUBLIC "-//W3C//DTD SVG 1.1//EN"
"http://www.w3.org/Graphics/SVG/1.1/DTD/svg11.dtd">
<svg viewBox="0 0 935 1210" version="1.1" xmlns="http://www.w3.org/2000/svg" xmlns:xlink="http://www.w3.org/1999/xlink">
<defs>
<style type="text/css"><![CDATA[
.g0_2935{
fill: #FFF;
}
.g1_2935{
fill: #000;
}
]]></style>
</defs>
<path d="M68.9,1149.3H852.7v-21.2H68.9v21.2Z" class="g0_2935"/>
<path d="M69.9,1093.6h.8v-971h-.8v971Z" class="g1_2935"/>
<path d="M445.2,147h.8V121.8h-.8V147Z" class="g1_2935"/>
<path d="M445.2,269.3h.8V170.8h-.8v98.5Z" class="g1_2935"/>
<path d="M445.2,391.5h.8V293h-.8v98.5Z" class="g1_2935"/>
<path d="M445.2,547.3h.8V415.2h-.8V547.3Z" class="g1_2935"/>
<path d="M445.2,703.2h.8V571h-.8V703.2Z" class="g1_2935"/>
<path d="M445.2,776.5h.8V726.8h-.8v49.7Z" class="g1_2935"/>
<path d="M445.2,898.8h.8V800.2h-.8v98.6Z" class="g1_2935"/>
<path d="M445.2,972.1h.8V922.4h-.8v49.7Z" class="g1_2935"/>
<path d="M445.2,1045.5h.8V995.8h-.8v49.7Z" class="g1_2935"/>
<path d="M445.2,1094.3h.8v-25.2h-.8v25.2Z" class="g1_2935"/>
<path d="M851.3,1093.6h.7v-971h-.7v971Z" class="g1_2935"/>
<path d="M69.9,122.6H852v-.8H69.9v.8Z" class="g1_2935"/>
<path d="M69.9,147H852v-.7H69.9v.7Z" class="g1_2935"/>
<path d="M69.9,171.5H852v-.7H69.9v.7Z" class="g1_2935"/>
<path d="M69.9,195.9H852v-.7H69.9v.7Z" class="g1_2935"/>
<path d="M69.9,220.4H852v-.8H69.9v.8Z" class="g1_2935"/>
<path d="M69.9,244.8H852v-.7H69.9v.7Z" class="g1_2935"/>
<path d="M69.9,269.2H852v-.7H69.9v.7Z" class="g1_2935"/>
<path d="M69.9,293.7H852V293H69.9v.7Z" class="g1_2935"/>
<path d="M69.9,318.2H852v-.8H69.9v.8Z" class="g1_2935"/>
<path d="M69.9,342.6H852v-.8H69.9v.8Z" class="g1_2935"/>
<path d="M69.9,367H852v-.7H69.9v.7Z" class="g1_2935"/>
<path d="M69.9,391.5H852v-.7H69.9v.7Z" class="g1_2935"/>
<path d="M69.9,416H852v-.8H69.9v.8Z" class="g1_2935"/>
<path d="M69.9,457.2H852v-.7H69.9v.7Z" class="g1_2935"/>
<path d="M69.9,481.6H852v-.7H69.9v.7Z" class="g1_2935"/>
<path d="M69.9,522.9H852v-.8H69.9v.8Z" class="g1_2935"/>
<path d="M69.9,547.3H852v-.7H69.9v.7Z" class="g1_2935"/>
<path d="M69.9,571.8H852v-.7H69.9v.7Z" class="g1_2935"/>
<path d="M69.9,613.1H852v-.8H69.9v.8Z" class="g1_2935"/>
<path d="M69.9,637.4H852v-.7H69.9v.7Z" class="g1_2935"/>
<path d="M69.9,678.7H852V678H69.9v.7Z" class="g1_2935"/>
<path d="M69.9,703.2H852v-.8H69.9v.8Z" class="g1_2935"/>
<path d="M69.9,727.7H852v-.8H69.9v.8Z" class="g1_2935"/>
<path d="M69.9,752H852v-.7H69.9v.7Z" class="g1_2935"/>
<path d="M69.9,776.5H852v-.7H69.9v.7Z" class="g1_2935"/>
<path d="M69.9,801H852v-.7H69.9v.7Z" class="g1_2935"/>
<path d="M69.9,825.4H852v-.8H69.9v.8Z" class="g1_2935"/>
<path d="M69.9,849.8H852v-.7H69.9v.7Z" class="g1_2935"/>
<path d="M69.9,874.3H852v-.7H69.9v.7Z" class="g1_2935"/>
<path d="M69.9,898.7H852V898H69.9v.7Z" class="g1_2935"/>
<path d="M69.9,923.2H852v-.8H69.9v.8Z" class="g1_2935"/>
<path d="M69.9,947.7H852v-.8H69.9v.8Z" class="g1_2935"/>
<path d="M69.9,972H852v-.7H69.9v.7Z" class="g1_2935"/>
<path d="M69.9,996.5H852v-.7H69.9v.7Z" class="g1_2935"/>
<path d="M69.9,1021H852v-.7H69.9v.7Z" class="g1_2935"/>
<path d="M69.9,1045.4H852v-.8H69.9v.8Z" class="g1_2935"/>
<path d="M69.9,1069.8H852v-.7H69.9v.7Z" class="g1_2935"/>
<path d="M69.9,1094.3H852v-.7H69.9v.7Z" class="g1_2935"/>
</svg>