<?xml version="1.0" encoding="UTF-8" standalone="no"?>
<!DOCTYPE svg PUBLIC "-//W3C//DTD SVG 1.1//EN"
"http://www.w3.org/Graphics/SVG/1.1/DTD/svg11.dtd">
<svg viewBox="0 0 935 1210" version="1.1" xmlns="http://www.w3.org/2000/svg" xmlns:xlink="http://www.w3.org/1999/xlink">
<defs>
<clipPath id="c0_889"><path d="M766.6,59.2V41.4h72.1V59.2Z"/></clipPath>
<style type="text/css"><![CDATA[
.g0_889{
fill: #000;
}
]]></style>
</defs>
<path d="M97.3,62.9v.3H839.9v-.3H97.3Z" class="g0_889"/>
<path d="M96.2,1114.1h-.1v.3h.1v-.3Z" class="g0_889"/>
<path d="M838.7,1114.1h.2v.3h-.2v-.3Z" class="g0_889"/>
<path d="M96.2,1114.1v.3H838.7v-.3H96.2Z" class="g0_889"/>
<image clip-path="url(#c0_889)" preserveAspectRatio="none" x="767" y="41" width="72" height="18" xlink:href="img/1.jpg"/>
<path d="M96.6,508.4h-.7v53h.7v-53Z" class="g0_889"/>
<path d="M840.3,508.4h-3.1v53h3.1v-53Z" class="g0_889"/>
<path d="M95.9,507.6v.8H840.3v-.8H95.9Z" class="g0_889"/>
<path d="M95.9,561.5v3.1H840.3v-3.1H95.9Z" class="g0_889"/>
<path d="M96.6,602.3h-.7v53.1h.7V602.3Z" class="g0_889"/>
<path d="M840.3,602.3h-3.1v53.1h3.1V602.3Z" class="g0_889"/>
<path d="M95.9,601.6v.7H840.3v-.7H95.9Z" class="g0_889"/>
<path d="M95.9,655.5v3H840.3v-3H95.9Z" class="g0_889"/>
<path d="M96.2,702.4v.7H697.6v-.7H96.2Z" class="g0_889"/>
<path d="M96.2,723.8v.7H697.6v-.7H96.2Z" class="g0_889"/>
</svg>