<?xml version="1.0" encoding="UTF-8" standalone="no"?>
<!DOCTYPE svg PUBLIC "-//W3C//DTD SVG 1.1//EN"
"http://www.w3.org/Graphics/SVG/1.1/DTD/svg11.dtd">
<svg viewBox="0 0 935 1210" version="1.1" xmlns="http://www.w3.org/2000/svg" xmlns:xlink="http://www.w3.org/1999/xlink">
<defs>
<style type="text/css"><![CDATA[
.g0_464{
fill: #000;
}
]]></style>
</defs>
<path d="M362.5,182.6h.3V163.2h-.3v19.4Z" class="g0_464"/>
<path d="M422,183.2h.4v-20H422v20Z" class="g0_464"/>
<path d="M421.8,222.1h.8V182.4h-.8v39.7Z" class="g0_464"/>
<path d="M496.9,222.9h.8V182.4h-.8v40.5Z" class="g0_464"/>
<path d="M572,222.1h.7V183.2H572v38.9Z" class="g0_464"/>
<path d="M362.5,163.2h59.9v-.4H362.5v.4Z" class="g0_464"/>
<path d="M362.5,183h60.1v-.4H362.5v.4Z" class="g0_464"/>
<path d="M421.8,183.2H572.7v-.8H421.8v.8Z" class="g0_464"/>
<path d="M421.8,203H572.7v-.7H421.8v.7Z" class="g0_464"/>
<path d="M421.8,222.9H572.7v-.7H421.8v.7Z" class="g0_464"/>
<path d="M362.5,426.5h.3V407.1h-.3v19.4Z" class="g0_464"/>
<path d="M422,427.2h.4V407.1H422v20.1Z" class="g0_464"/>
<path d="M421.8,466.1h.8V426.3h-.8v39.8Z" class="g0_464"/>
<path d="M496.9,466.9h.8V426.3h-.8v40.6Z" class="g0_464"/>
<path d="M572,466.1h.7V427.2H572v38.9Z" class="g0_464"/>
<path d="M362.5,407.1h59.9v-.4H362.5v.4Z" class="g0_464"/>
<path d="M362.5,426.9h60.1v-.4H362.5v.4Z" class="g0_464"/>
<path d="M421.8,427.1H572.7v-.8H421.8v.8Z" class="g0_464"/>
<path d="M421.8,447H572.7v-.8H421.8v.8Z" class="g0_464"/>
<path d="M421.8,466.9H572.7v-.8H421.8v.8Z" class="g0_464"/>
<path d="M137.3,691.9h.4V672.4h-.4v19.5Z" class="g0_464"/>
<path d="M137.1,867h.8V732.2h-.8V867Z" class="g0_464"/>
<path d="M161,867.7h.7V731.4H161V867.7Z" class="g0_464"/>
<path d="M196.9,692.4h.4v-20h-.4v20Z" class="g0_464"/>
<path d="M196.7,867.7h.7v-176h-.7v176Z" class="g0_464"/>
<path d="M271.8,791.4h.7V691.7h-.7v99.7Z" class="g0_464"/>
<path d="M271.8,867.7h.7V827.3h-.7v40.4Z" class="g0_464"/>
<path d="M346.8,791.4h.7V691.7h-.7v99.7Z" class="g0_464"/>
<path d="M346.8,867.7h.7V827.3h-.7v40.4Z" class="g0_464"/>
<path d="M421.8,791.4h.8V691.7h-.8v99.7Z" class="g0_464"/>
<path d="M421.8,867.7h.8V827.3h-.8v40.4Z" class="g0_464"/>
<path d="M496.9,811.3h.8V691.7h-.8V811.3Z" class="g0_464"/>
<path d="M496.9,867.7h.8V827.3h-.8v40.4Z" class="g0_464"/>
<path d="M572,811.3h.7V691.7H572V811.3Z" class="g0_464"/>
<path d="M572,867.7h.7V827.3H572v40.4Z" class="g0_464"/>
<path d="M647.1,811.3h.7V691.7h-.7V811.3Z" class="g0_464"/>
<path d="M647.1,867.7h.7V827.3h-.7v40.4Z" class="g0_464"/>
<path d="M722.1,811.3h.7V691.7h-.7V811.3Z" class="g0_464"/>
<path d="M722.1,867.7h.7V827.3h-.7v40.4Z" class="g0_464"/>
<path d="M797.1,867h.8V692.4h-.8V867Z" class="g0_464"/>
<path d="M137.3,672.4h60V672h-60v.4Z" class="g0_464"/>
<path d="M137.3,692.3h60.1v-.4H137.3v.4Z" class="g0_464"/>
<path d="M196.7,692.4H797.9v-.7H196.7v.7Z" class="g0_464"/>
<path d="M196.7,712.3H797.9v-.7H196.7v.7Z" class="g0_464"/>
<path d="M137.1,732.1H797.9v-.7H137.1v.7Z" class="g0_464"/>
<path d="M137.1,791.4H797.9v-.8H137.1v.8Z" class="g0_464"/>
<path d="M196.7,811.3H797.9v-.8H196.7v.8Z" class="g0_464"/>
<path d="M137.1,828H797.9v-.7H137.1v.7Z" class="g0_464"/>
<path d="M137.1,847.9H797.9v-.7H137.1v.7Z" class="g0_464"/>
<path d="M137.1,867.7H797.9V867H137.1v.7Z" class="g0_464"/>
</svg>