<?xml version="1.0" encoding="UTF-8" standalone="no"?>
<!DOCTYPE svg PUBLIC "-//W3C//DTD SVG 1.1//EN"
"http://www.w3.org/Graphics/SVG/1.1/DTD/svg11.dtd">
<svg viewBox="0 0 935 1210" version="1.1" xmlns="http://www.w3.org/2000/svg" xmlns:xlink="http://www.w3.org/1999/xlink">
<defs>
<style type="text/css"><![CDATA[
.g0_104{
fill: none;
stroke: #000;
stroke-width: 1.521;
stroke-miterlimit: 10;
}
.g1_104{
fill: none;
stroke: #000;
stroke-width: 0.608;
stroke-miterlimit: 10;
}
]]></style>
</defs>
<path d="M151.7,119.5H783.3" class="g0_104"/>
<path d="M243.2,773.4H691.8M243.5,792V773.7M275,792V773.7M381.8,792V773.7m3.7,18.3V773.7M580.6,792V773.7m72.5,12.5h4.6m33.8,5.8V773.7M243.2,792.3H691.8M243.5,810.9V792.6M275,810.9V792.6m106.8,18.3V792.6m3.7,18.3V792.6m195.1,18.3V792.6m110.9,18.3V792.6m-448,36.6V810.9M275,829.2V810.9m106.8,18.3V810.9m3.7,18.3V810.9m195.1,18.3V810.9m110.9,18.3V810.9m-448,36.5V829.2M275,847.4V829.2m106.8,18.2V829.2m3.7,18.2V829.2m195.1,18.2V829.2m110.9,18.2V829.2m-448,36.5V847.4M275,865.7V847.4m106.8,18.3V847.4m3.7,18.3V847.4m195.1,18.3V847.4m110.9,18.3V847.4m-448,36.5V865.7M275,883.9V865.7m106.8,18.2V865.7m3.7,18.2V865.7m195.1,18.2V865.7m110.9,18.2V865.7m-448,36.5V883.9M275,902.2V883.9m106.8,18.3V883.9m3.7,18.3V883.9m195.1,18.3V883.9m110.9,18.3V883.9m-448,36.6V902.2M275,920.5V902.2m106.8,18.3V902.2m3.7,18.3V902.2m195.1,18.3V902.2m110.9,18.3V902.2m-448,36.5V920.5M275,938.7V920.5m106.8,18.2V920.5m3.7,18.2V920.5m195.1,18.2V920.5m110.9,18.2V920.5M243.5,957V938.7M275,957V938.7M381.8,957V938.7m3.7,18.3V938.7M580.6,957V938.7M691.5,957V938.7M243.2,957.3H691.8" class="g1_104"/>
</svg>