<?xml version="1.0" encoding="UTF-8" standalone="no"?>
<!DOCTYPE svg PUBLIC "-//W3C//DTD SVG 1.1//EN"
"http://www.w3.org/Graphics/SVG/1.1/DTD/svg11.dtd">
<svg viewBox="0 0 935 1210" version="1.1" xmlns="http://www.w3.org/2000/svg" xmlns:xlink="http://www.w3.org/1999/xlink">
<defs>
<clipPath id="c0_2325"><path d="M97.3,59.2V41.4h72.1V59.2Z"/></clipPath>
<style type="text/css"><![CDATA[
.g0_2325{
fill: #000;
}
]]></style>
</defs>
<path d="M96.3,63.3H838.8v-.4H96.3v.4Z" class="g0_2325"/>
<path d="M96.1,1114.5h.2v-.4h-.2v.4Z" class="g0_2325"/>
<path d="M96.3,1114.5H838.9v-.4H96.3v.4Z" class="g0_2325"/>
<image clip-path="url(#c0_2325)" preserveAspectRatio="none" x="97" y="41" width="73" height="18" xlink:href="img/1.jpg"/>
<path d="M565.2,495.9h31.5v-1.1H565.2v1.1Z" class="g0_2325"/>
<path d="M686.9,495.9h20.3v-1.1H686.9v1.1Z" class="g0_2325"/>
<path d="M707.2,495.9h8.4v-1.1h-8.4v1.1Z" class="g0_2325"/>
<path d="M565.2,518.8h31.5v-1.1H565.2v1.1Z" class="g0_2325"/>
<path d="M686.9,518.8h20.3v-1.1H686.9v1.1Z" class="g0_2325"/>
<path d="M707.2,518.8h8.4v-1.1h-8.4v1.1Z" class="g0_2325"/>
<path d="M95.9,273.1h.7v-91h-.7v91Z" class="g0_2325"/>
<path d="M270,273.8h.7V181.4H270v92.4Z" class="g0_2325"/>
<path d="M347.3,273.8h.8V181.4h-.8v92.4Z" class="g0_2325"/>
<path d="M839.8,273.1h.8v-91h-.8v91Z" class="g0_2325"/>
<path d="M95.9,182.1H840.6v-.7H95.9v.7Z" class="g0_2325"/>
<path d="M95.9,206.3H840.6v-3.1H95.9v3.1Z" class="g0_2325"/>
<path d="M95.9,228H840.6v-.8H95.9v.8Z" class="g0_2325"/>
<path d="M95.9,250.9H840.6v-.7H95.9v.7Z" class="g0_2325"/>
<path d="M95.9,273.8H840.6v-.7H95.9v.7Z" class="g0_2325"/>
</svg>