<?xml version="1.0" encoding="UTF-8" standalone="no"?>
<!DOCTYPE svg PUBLIC "-//W3C//DTD SVG 1.1//EN"
"http://www.w3.org/Graphics/SVG/1.1/DTD/svg11.dtd">
<svg viewBox="0 0 935 1210" version="1.1" xmlns="http://www.w3.org/2000/svg" xmlns:xlink="http://www.w3.org/1999/xlink">
<defs>
<style type="text/css"><![CDATA[
.g0_716{
fill: #FFF;
}
.g1_716{
fill: #000;
}
.g2_716{
fill: #0860A8;
}
]]></style>
</defs>
<path d="M165,1149.3H852.5v-21.2H165v21.2Z" class="g0_716"/>
<path d="M68.8,1149.3h82.5v-21.2H68.8v21.2Z" class="g0_716"/>
<path d="M68.9,1043.4v-.7Z" class="g1_716"/>
<path d="M68.9,1043.4H289.3v-.7H68.9v.7Z" class="g1_716"/>
<path d="M90.9,1089.6H678v-1H90.9v1Z" class="g2_716"/>
<path d="M68.6,218.1h.7V125.7h-.7v92.4Z" class="g1_716"/>
<path d="M345.7,218.9h.7v-94h-.7v94Z" class="g1_716"/>
<path d="M383.4,218.9h.7v-94h-.7v94Z" class="g1_716"/>
<path d="M456.5,218.9h.7v-94h-.7v94Z" class="g1_716"/>
<path d="M530.4,218.9h.7v-94h-.7v94Z" class="g1_716"/>
<path d="M849.4,218.1h.7V125.7h-.7v92.4Z" class="g1_716"/>
<path d="M68.6,125.7H850.1v-.8H68.6v.8Z" class="g1_716"/>
<path d="M68.6,179.1H850.1v-.7H68.6v.7Z" class="g1_716"/>
<path d="M68.6,218.8H850.1v-.7H68.6v.7Z" class="g1_716"/>
<path d="M68.6,322h.7V273.9h-.7V322Z" class="g1_716"/>
<path d="M129.5,322.8h.8V273.1h-.8v49.7Z" class="g1_716"/>
<path d="M199.3,322.8h.7V273.1h-.7v49.7Z" class="g1_716"/>
<path d="M349.8,322.8h.7V273.1h-.7v49.7Z" class="g1_716"/>
<path d="M512,322.8h.7V273.1H512v49.7Z" class="g1_716"/>
<path d="M680.6,322.8h.8V273.1h-.8v49.7Z" class="g1_716"/>
<path d="M847.4,322h.7V273.9h-.7V322Z" class="g1_716"/>
<path d="M68.6,273.8H848.1v-.7H68.6v.7Z" class="g1_716"/>
<path d="M68.6,298.3H848.1v-.7H68.6v.7Z" class="g1_716"/>
<path d="M68.6,322.8H848.1V322H68.6v.8Z" class="g1_716"/>
</svg>