<?xml version="1.0" encoding="UTF-8" standalone="no"?>
<!DOCTYPE svg PUBLIC "-//W3C//DTD SVG 1.1//EN"
"http://www.w3.org/Graphics/SVG/1.1/DTD/svg11.dtd">
<svg viewBox="0 0 935 1210" version="1.1" xmlns="http://www.w3.org/2000/svg" xmlns:xlink="http://www.w3.org/1999/xlink">
<defs>
<clipPath id="c0_1831"><path d="M97.3,59.2V41.4h72.1V59.2Z"/></clipPath>
<style type="text/css"><![CDATA[
.g0_1831{
fill: #000;
}
]]></style>
</defs>
<path d="M96.2,62.9v.3H838.7v-.3H96.2Z" class="g0_1831"/>
<path d="M96.2,1114.1h-.1v.4h.1v-.4Z" class="g0_1831"/>
<path d="M838.7,1114.1h.2v.4h-.2v-.4Z" class="g0_1831"/>
<path d="M96.2,1114.1v.4H838.7v-.4H96.2Z" class="g0_1831"/>
<image clip-path="url(#c0_1831)" preserveAspectRatio="none" x="97" y="41" width="72" height="18" xlink:href="img/1.jpg"/>
<path d="M96.6,179.1h-.7v829.4h.7V179.1Z" class="g0_1831"/>
<path d="M381,178.4h-.7V789.2h.7V178.4Z" class="g0_1831"/>
<path d="M482.3,178.4h-.7V789.2h.7V178.4Z" class="g0_1831"/>
<path d="M583.6,178.4h-.7V789.2h.7V178.4Z" class="g0_1831"/>
<path d="M711.4,178.4h-.7v65.9h.7V178.4Z" class="g0_1831"/>
<path d="M711.4,359.6h-.7V789.2h.7V359.6Z" class="g0_1831"/>
<path d="M839.1,179.1h-.7v829.4h.7V179.1Z" class="g0_1831"/>
<path d="M95.9,178.4v.7H839.1v-.7H95.9Z" class="g0_1831"/>
<path d="M95.9,243.6v.7H839.1v-.7H95.9Z" class="g0_1831"/>
<path d="M95.9,310.7v.8H839.1v-.8H95.9Z" class="g0_1831"/>
<path d="M95.9,359.7v.7H839.1v-.7H95.9Z" class="g0_1831"/>
<path d="M95.9,475.7v.8H839.1v-.8H95.9Z" class="g0_1831"/>
<path d="M95.9,622.4v.7H839.1v-.7H95.9Z" class="g0_1831"/>
<path d="M95.9,727.4v.7H839.1v-.7H95.9Z" class="g0_1831"/>
<path d="M95.9,788.5v.7H839.1v-.7H95.9Z" class="g0_1831"/>
<path d="M95.9,1008.5v.7H839.1v-.7H95.9Z" class="g0_1831"/>
</svg>