<?xml version="1.0" encoding="UTF-8" standalone="no"?>
<!DOCTYPE svg PUBLIC "-//W3C//DTD SVG 1.1//EN"
"http://www.w3.org/Graphics/SVG/1.1/DTD/svg11.dtd">
<svg viewBox="0 0 935 1210" version="1.1" xmlns="http://www.w3.org/2000/svg" xmlns:xlink="http://www.w3.org/1999/xlink">
<defs>
<clipPath id="c0_2707"><path d="M97.3,59.2V41.4h72.1V59.2Z"/></clipPath>
<style type="text/css"><![CDATA[
.g0_2707{
fill: #000;
}
]]></style>
</defs>
<path d="M96.3,63.3H838.8v-.4H96.3v.4Z" class="g0_2707"/>
<path d="M96.1,1114.5h.2v-.4h-.2v.4Z" class="g0_2707"/>
<path d="M96.3,1114.5H838.9v-.4H96.3v.4Z" class="g0_2707"/>
<image clip-path="url(#c0_2707)" preserveAspectRatio="none" x="97" y="41" width="73" height="18" xlink:href="img/1.jpg"/>
<path d="M565.9,251.5h31.3v-1.1H565.9v1.1Z" class="g0_2707"/>
<path d="M690.1,251.5h20.3v-1.1H690.1v1.1Z" class="g0_2707"/>
<path d="M710.4,251.5h8.4v-1.1h-8.4v1.1Z" class="g0_2707"/>
<path d="M565.9,274.5h31.3v-1.1H565.9v1.1Z" class="g0_2707"/>
<path d="M690.1,274.5h20.3v-1.1H690.1v1.1Z" class="g0_2707"/>
<path d="M710.4,274.5h8.4v-1.1h-8.4v1.1Z" class="g0_2707"/>
<path d="M565.9,320.3h31.3v-1.1H565.9v1.1Z" class="g0_2707"/>
<path d="M565.9,343.2h31.3v-1.1H565.9v1.1Z" class="g0_2707"/>
<path d="M95.9,965.2h.7V626.4h-.7V965.2Z" class="g0_2707"/>
<path d="M273.3,946.1h.8V623.3h-.8V946.1Z" class="g0_2707"/>
<path d="M310,946.1h.7V645.9H310V946.1Z" class="g0_2707"/>
<path d="M346.7,946.1h.7V645.9h-.7V946.1Z" class="g0_2707"/>
<path d="M383.4,946.1h.7V623.3h-.7V946.1Z" class="g0_2707"/>
<path d="M839.2,965.2h.7V626.4h-.7V965.2Z" class="g0_2707"/>
<path d="M95.9,626.5h744v-3.1H95.9v3.1Z" class="g0_2707"/>
<path d="M273.3,646.6H384.2v-.7H273.3v.7Z" class="g0_2707"/>
<path d="M95.9,669.2h744v-3.1H95.9v3.1Z" class="g0_2707"/>
<path d="M273.3,687.9H839.9v-.8H273.3v.8Z" class="g0_2707"/>
<path d="M273.3,707.8H839.9V707H273.3v.8Z" class="g0_2707"/>
<path d="M273.3,727.6H839.9v-.8H273.3v.8Z" class="g0_2707"/>
<path d="M273.3,747.4H839.9v-.7H273.3v.7Z" class="g0_2707"/>
<path d="M273.3,767.3H839.9v-.7H273.3v.7Z" class="g0_2707"/>
<path d="M273.3,787.1H839.9v-.7H273.3v.7Z" class="g0_2707"/>
<path d="M273.3,807H839.9v-.7H273.3v.7Z" class="g0_2707"/>
<path d="M95.9,826.9h744v-.7H95.9v.7Z" class="g0_2707"/>
<path d="M95.9,846.7h744V846H95.9v.7Z" class="g0_2707"/>
<path d="M95.9,866.6h744v-.7H95.9v.7Z" class="g0_2707"/>
<path d="M273.3,886.5H839.9v-.7H273.3v.7Z" class="g0_2707"/>
<path d="M95.9,906.3h744v-.7H95.9v.7Z" class="g0_2707"/>
<path d="M95.9,926.2h744v-.7H95.9v.7Z" class="g0_2707"/>
<path d="M95.9,946.1h744v-.7H95.9v.7Z" class="g0_2707"/>
<path d="M95.9,965.9h744v-.7H95.9v.7Z" class="g0_2707"/>
</svg>