<?xml version="1.0" encoding="UTF-8" standalone="no"?>
<!DOCTYPE svg PUBLIC "-//W3C//DTD SVG 1.1//EN"
"http://www.w3.org/Graphics/SVG/1.1/DTD/svg11.dtd">
<svg viewBox="0 0 935 1210" version="1.1" xmlns="http://www.w3.org/2000/svg" xmlns:xlink="http://www.w3.org/1999/xlink">
<defs>
<clipPath id="c0_1285"><path d="M97.3,59.2V41.4h72.1V59.2Z"/></clipPath>
<style type="text/css"><![CDATA[
.g0_1285{
fill: #000;
}
]]></style>
</defs>
<path d="M96.2,62.9v.3H838.7v-.3H96.2Z" class="g0_1285"/>
<path d="M96.2,1114.1h-.1v.4h.1v-.4Z" class="g0_1285"/>
<path d="M838.7,1114.1h.2v.4h-.2v-.4Z" class="g0_1285"/>
<path d="M96.2,1114.1v.4H838.7v-.4H96.2Z" class="g0_1285"/>
<image clip-path="url(#c0_1285)" preserveAspectRatio="none" x="97" y="41" width="72" height="18" xlink:href="img/1.jpg"/>
<path d="M117.9,493.8h-.8V896.1h.8V493.8Z" class="g0_1285"/>
<path d="M245.1,493.1h-.7V765.5h.7V493.1Z" class="g0_1285"/>
<path d="M476,493.1h-.7V765.5h.7V493.1Z" class="g0_1285"/>
<path d="M707,493.1h-.7V765.5h.7V493.1Z" class="g0_1285"/>
<path d="M817.8,493.8h-.7V896.1h.7V493.8Z" class="g0_1285"/>
<path d="M117.1,493.1v.7H817.8v-.7H117.1Z" class="g0_1285"/>
<path d="M117.1,549.5v.8H817.8v-.8H117.1Z" class="g0_1285"/>
<path d="M117.1,575.5v.7H817.8v-.7H117.1Z" class="g0_1285"/>
<path d="M117.1,601.5v.7H817.8v-.7H117.1Z" class="g0_1285"/>
<path d="M117.1,627.4v.8H817.8v-.8H117.1Z" class="g0_1285"/>
<path d="M117.1,653.4v.7H817.8v-.7H117.1Z" class="g0_1285"/>
<path d="M117.1,683.8v.7H817.8v-.7H117.1Z" class="g0_1285"/>
<path d="M117.1,714.3v.8H817.8v-.8H117.1Z" class="g0_1285"/>
<path d="M117.1,740.3v.7H817.8v-.7H117.1Z" class="g0_1285"/>
<path d="M117.1,764.8v.7H817.8v-.7H117.1Z" class="g0_1285"/>
<path d="M117.1,896.1v.7H817.8v-.7H117.1Z" class="g0_1285"/>
</svg>