<?xml version="1.0" encoding="UTF-8" standalone="no"?>
<!DOCTYPE svg PUBLIC "-//W3C//DTD SVG 1.1//EN"
"http://www.w3.org/Graphics/SVG/1.1/DTD/svg11.dtd">
<svg viewBox="0 0 935 1210" version="1.1" xmlns="http://www.w3.org/2000/svg" xmlns:xlink="http://www.w3.org/1999/xlink">
<defs>
<style type="text/css"><![CDATA[
.g0_618{
fill: #FFF;
}
.g1_618{
fill: #000;
}
]]></style>
</defs>
<path d="M165,1149.3H852.5v-21.2H165v21.2Z" class="g0_618"/>
<path d="M68.8,1149.3h82.5v-21.2H68.8v21.2Z" class="g0_618"/>
<path d="M68.6,257.9h.7V125.7h-.7V257.9Z" class="g1_618"/>
<path d="M324.6,258.6h.7V124.9h-.7V258.6Z" class="g1_618"/>
<path d="M371.1,258.6h.7V124.9h-.7V258.6Z" class="g1_618"/>
<path d="M445.6,258.6h.7V124.9h-.7V258.6Z" class="g1_618"/>
<path d="M525.4,258.6h.8V124.9h-.8V258.6Z" class="g1_618"/>
<path d="M849.5,257.9h.7V125.7h-.7V257.9Z" class="g1_618"/>
<path d="M68.6,125.7H850.2v-.8H68.6v.8Z" class="g1_618"/>
<path d="M68.6,179.1H850.2v-.7H68.6v.7Z" class="g1_618"/>
<path d="M68.6,218.8H850.2v-.7H68.6v.7Z" class="g1_618"/>
<path d="M68.6,258.6H850.2v-.7H68.6v.7Z" class="g1_618"/>
<path d="M68.6,361.7h.7V313.6h-.7v48.1Z" class="g1_618"/>
<path d="M145.9,362.4h.8V312.9h-.8v49.5Z" class="g1_618"/>
<path d="M239.8,362.4h.7V312.9h-.7v49.5Z" class="g1_618"/>
<path d="M392.1,362.4h.8V312.9h-.8v49.5Z" class="g1_618"/>
<path d="M541.8,362.4h.8V312.9h-.8v49.5Z" class="g1_618"/>
<path d="M692.9,362.4h.7V312.9h-.7v49.5Z" class="g1_618"/>
<path d="M851.6,361.7h.7V313.6h-.7v48.1Z" class="g1_618"/>
<path d="M68.6,313.6H852.3v-.7H68.6v.7Z" class="g1_618"/>
<path d="M68.6,338H852.3v-.8H68.6v.8Z" class="g1_618"/>
<path d="M68.6,362.4H852.3v-.7H68.6v.7Z" class="g1_618"/>
</svg>