<?xml version="1.0" encoding="UTF-8" standalone="no"?>
<!DOCTYPE svg PUBLIC "-//W3C//DTD SVG 1.1//EN"
"http://www.w3.org/Graphics/SVG/1.1/DTD/svg11.dtd">
<svg viewBox="0 0 935 1210" version="1.1" xmlns="http://www.w3.org/2000/svg" xmlns:xlink="http://www.w3.org/1999/xlink">
<defs>
<style type="text/css"><![CDATA[
.g0_4137{
fill: #FFF;
}
.g1_4137{
fill: #000;
}
]]></style>
</defs>
<path d="M68.9,1149.3H852.7v-21.2H68.9v21.2Z" class="g0_4137"/>
<path d="M72.1,904.1h.7V130.3h-.7V904.1Z" class="g1_4137"/>
<path d="M265.3,904.8h.7V129.5h-.7V904.8Z" class="g1_4137"/>
<path d="M742.4,904.8h.7V129.5h-.7V904.8Z" class="g1_4137"/>
<path d="M849.9,904.1h.8V130.3h-.8V904.1Z" class="g1_4137"/>
<path d="M72.1,130.3H850.7v-.8H72.1v.8Z" class="g1_4137"/>
<path d="M72.1,171.5H850.7v-.7H72.1v.7Z" class="g1_4137"/>
<path d="M72.1,195.9H850.7v-.7H72.1v.7Z" class="g1_4137"/>
<path d="M72.1,220.4H850.7v-.8H72.1v.8Z" class="g1_4137"/>
<path d="M72.1,244.8H850.7v-.7H72.1v.7Z" class="g1_4137"/>
<path d="M72.1,269.2H850.7v-.7H72.1v.7Z" class="g1_4137"/>
<path d="M72.1,293.7H850.7V293H72.1v.7Z" class="g1_4137"/>
<path d="M72.1,318.2H850.7v-.8H72.1v.8Z" class="g1_4137"/>
<path d="M72.1,342.6H850.7v-.8H72.1v.8Z" class="g1_4137"/>
<path d="M72.1,367H850.7v-.7H72.1v.7Z" class="g1_4137"/>
<path d="M72.1,391.5H850.7v-.7H72.1v.7Z" class="g1_4137"/>
<path d="M72.1,416H850.7v-.8H72.1v.8Z" class="g1_4137"/>
<path d="M72.1,440.4H850.7v-.8H72.1v.8Z" class="g1_4137"/>
<path d="M72.1,464.8H850.7v-.7H72.1v.7Z" class="g1_4137"/>
<path d="M72.1,489.3H850.7v-.7H72.1v.7Z" class="g1_4137"/>
<path d="M72.1,513.7H850.7V513H72.1v.7Z" class="g1_4137"/>
<path d="M72.1,538.2H850.7v-.8H72.1v.8Z" class="g1_4137"/>
<path d="M72.1,562.7H850.7v-.8H72.1v.8Z" class="g1_4137"/>
<path d="M72.1,587H850.7v-.7H72.1v.7Z" class="g1_4137"/>
<path d="M72.1,611.5H850.7v-.7H72.1v.7Z" class="g1_4137"/>
<path d="M72.1,636H850.7v-.8H72.1v.8Z" class="g1_4137"/>
<path d="M72.1,660.4H850.7v-.8H72.1v.8Z" class="g1_4137"/>
<path d="M72.1,684.8H850.7v-.7H72.1v.7Z" class="g1_4137"/>
<path d="M72.1,709.3H850.7v-.7H72.1v.7Z" class="g1_4137"/>
<path d="M72.1,733.7H850.7V733H72.1v.7Z" class="g1_4137"/>
<path d="M72.1,758.2H850.7v-.8H72.1v.8Z" class="g1_4137"/>
<path d="M72.1,782.7H850.7v-.8H72.1v.8Z" class="g1_4137"/>
<path d="M72.1,807H850.7v-.7H72.1v.7Z" class="g1_4137"/>
<path d="M72.1,831.5H850.7v-.7H72.1v.7Z" class="g1_4137"/>
<path d="M72.1,856H850.7v-.8H72.1v.8Z" class="g1_4137"/>
<path d="M72.1,880.4H850.7v-.8H72.1v.8Z" class="g1_4137"/>
<path d="M72.1,904.8H850.7v-.7H72.1v.7Z" class="g1_4137"/>
</svg>