<?xml version="1.0" encoding="UTF-8" standalone="no"?>
<!DOCTYPE svg PUBLIC "-//W3C//DTD SVG 1.1//EN"
"http://www.w3.org/Graphics/SVG/1.1/DTD/svg11.dtd">
<svg viewBox="0 0 935 1210" version="1.1" xmlns="http://www.w3.org/2000/svg" xmlns:xlink="http://www.w3.org/1999/xlink">
<defs>
<clipPath id="c0_1636"><path d="M68.9,504.7V475.2H851.4v29.5Z"/></clipPath>
<style type="text/css"><![CDATA[
.g0_1636{
fill: #FFF;
}
.g1_1636{
fill: #000;
}
]]></style>
</defs>
<path d="M165,1149.3H852.5v-21.2H165v21.2Z" class="g0_1636"/>
<path d="M68.8,1149.3h82.5v-21.2H68.8v21.2Z" class="g0_1636"/>
<path clip-path="url(#c0_1636)" d="M68.9,504.7H851.4V475.2H68.9v29.5Z" class="g0_1636"/>
<path d="M69.9,498.1h53.5V485.7H69.9v12.4Z" class="g0_1636"/>
<path d="M68.6,474.7h.7v-349h-.7v349Z" class="g1_1636"/>
<path d="M375.2,475.6h.7V124.9h-.7V475.6Z" class="g1_1636"/>
<path d="M413,475.6h.8V124.9H413V475.6Z" class="g1_1636"/>
<path d="M486.5,475.6h.7V124.9h-.7V475.6Z" class="g1_1636"/>
<path d="M565.9,475.6h.7V124.9h-.7V475.6Z" class="g1_1636"/>
<path d="M851,474.7h.8v-349H851v349Z" class="g1_1636"/>
<path d="M68.6,125.7H851.8v-.8H68.6v.8Z" class="g1_1636"/>
<path d="M68.6,179.1H851.8v-.7H68.6v.7Z" class="g1_1636"/>
<path d="M68.6,223.4H851.8v-.7H68.6v.7Z" class="g1_1636"/>
<path d="M68.6,267.8H851.8V267H68.6v.8Z" class="g1_1636"/>
<path d="M68.6,312H851.8v-.7H68.6v.7Z" class="g1_1636"/>
<path d="M68.6,356.3H851.8v-.7H68.6v.7Z" class="g1_1636"/>
<path d="M68.6,396.1H851.8v-.7H68.6v.7Z" class="g1_1636"/>
<path d="M68.6,435.8H851.8v-.7H68.6v.7Z" class="g1_1636"/>
<path d="M68.6,475.6H851.8v-.8H68.6v.8Z" class="g1_1636"/>
<path d="M68.6,710.6h.7v-97h-.7v97Z" class="g1_1636"/>
<path d="M136.9,711.4h.7V612.9h-.7v98.5Z" class="g1_1636"/>
<path d="M248.2,711.4h.8V612.9h-.8v98.5Z" class="g1_1636"/>
<path d="M392.4,711.4h.8V612.9h-.8v98.5Z" class="g1_1636"/>
<path d="M547.2,711.4h.7V612.9h-.7v98.5Z" class="g1_1636"/>
<path d="M702.4,711.4h.7V612.9h-.7v98.5Z" class="g1_1636"/>
<path d="M850,710.6h.8v-97H850v97Z" class="g1_1636"/>
<path d="M68.6,613.6H850.8v-.7H68.6v.7Z" class="g1_1636"/>
<path d="M68.6,638.1H850.8v-.7H68.6v.7Z" class="g1_1636"/>
<path d="M68.6,662.5H850.8v-.8H68.6v.8Z" class="g1_1636"/>
<path d="M68.6,687H850.8v-.8H68.6v.8Z" class="g1_1636"/>
<path d="M68.6,711.4H850.8v-.7H68.6v.7Z" class="g1_1636"/>
</svg>