<?xml version="1.0" encoding="UTF-8" standalone="no"?>
<!DOCTYPE svg PUBLIC "-//W3C//DTD SVG 1.1//EN"
"http://www.w3.org/Graphics/SVG/1.1/DTD/svg11.dtd">
<svg viewBox="0 0 935 1210" version="1.1" xmlns="http://www.w3.org/2000/svg" xmlns:xlink="http://www.w3.org/1999/xlink">
<defs>
<clipPath id="c0_1901"><path d="M97.3,59.2V41.4h72.1V59.2Z"/></clipPath>
<style type="text/css"><![CDATA[
.g0_1901{
fill: #000;
}
]]></style>
</defs>
<path d="M96.2,62.9v.3H838.7v-.3H96.2Z" class="g0_1901"/>
<path d="M96.2,1114.1h-.1v.4h.1v-.4Z" class="g0_1901"/>
<path d="M838.7,1114.1h.2v.4h-.2v-.4Z" class="g0_1901"/>
<path d="M96.2,1114.1v.4H838.7v-.4H96.2Z" class="g0_1901"/>
<image clip-path="url(#c0_1901)" preserveAspectRatio="none" x="97" y="41" width="72" height="18" xlink:href="img/1.jpg"/>
<path d="M96.6,151.6h-.7V253.2h.7V151.6Z" class="g0_1901"/>
<path d="M151.6,150.9h-.7V254h.7V150.9Z" class="g0_1901"/>
<path d="M283.6,150.9h-.7V254h.7V150.9Z" class="g0_1901"/>
<path d="M847.9,151.6h-.7V253.2h.7V151.6Z" class="g0_1901"/>
<path d="M95.9,150.9v.7h752v-.7H95.9Z" class="g0_1901"/>
<path d="M95.9,175.3v.7h752v-.7H95.9Z" class="g0_1901"/>
<path d="M95.9,201.3v.7h752v-.7H95.9Z" class="g0_1901"/>
<path d="M95.9,227.2v.8h752v-.8H95.9Z" class="g0_1901"/>
<path d="M95.9,253.3v.7h752v-.7H95.9Z" class="g0_1901"/>
<path d="M96.2,540.9v3H838.7v-3H96.2Z" class="g0_1901"/>
<path d="M96.6,559.5h-.7V937.6h.7V559.5Z" class="g0_1901"/>
<path d="M142.8,558.8h-.7V938.5h.7V558.8Z" class="g0_1901"/>
<path d="M285.8,558.8h-.7V938.5h.7V558.8Z" class="g0_1901"/>
<path d="M839.1,559.5h-.7V937.6h.7V559.5Z" class="g0_1901"/>
<path d="M95.9,558.8v.7H839.1v-.7H95.9Z" class="g0_1901"/>
<path d="M95.9,583.3v.7H839.1v-.7H95.9Z" class="g0_1901"/>
<path d="M95.9,607.6v.8H839.1v-.8H95.9Z" class="g0_1901"/>
<path d="M95.9,809.3v.7H839.1v-.7H95.9Z" class="g0_1901"/>
<path d="M95.9,833.8v.7H839.1v-.7H95.9Z" class="g0_1901"/>
<path d="M95.9,876.6v.7H839.1v-.7H95.9Z" class="g0_1901"/>
<path d="M95.9,937.6v.8H839.1v-.8H95.9Z" class="g0_1901"/>
</svg>