<?xml version="1.0" encoding="UTF-8" standalone="no"?>
<!DOCTYPE svg PUBLIC "-//W3C//DTD SVG 1.1//EN"
"http://www.w3.org/Graphics/SVG/1.1/DTD/svg11.dtd">
<svg viewBox="0 0 935 1210" version="1.1" xmlns="http://www.w3.org/2000/svg" xmlns:xlink="http://www.w3.org/1999/xlink">
<defs>
<clipPath id="c0_2852"><path d="M766.6,59.2V41.4h72.2V59.2Z"/></clipPath>
<style type="text/css"><![CDATA[
.g0_2852{
fill: #000;
}
]]></style>
</defs>
<path d="M97.4,63.3H839.9v-.4H97.4v.4Z" class="g0_2852"/>
<path d="M96.1,1114.5h.2v-.4h-.2v.4Z" class="g0_2852"/>
<path d="M96.3,1114.5H838.9v-.4H96.3v.4Z" class="g0_2852"/>
<image clip-path="url(#c0_2852)" preserveAspectRatio="none" x="767" y="41" width="72" height="18" xlink:href="img/1.jpg"/>
<path d="M95.9,1085.9h.7V179.1h-.7v906.8Z" class="g0_2852"/>
<path d="M539.1,414.4h.7v-236h-.7v236Z" class="g0_2852"/>
<path d="M539.1,521.3h.7V435.1h-.7v86.2Z" class="g0_2852"/>
<path d="M539.1,628.3h.7V541.9h-.7v86.4Z" class="g0_2852"/>
<path d="M539.1,692.4h.7V648.9h-.7v43.5Z" class="g0_2852"/>
<path d="M539.1,872.8h.7V713.1h-.7V872.8Z" class="g0_2852"/>
<path d="M539.1,1086.6h.7V893.4h-.7v193.2Z" class="g0_2852"/>
<path d="M662.6,414.4h.7v-236h-.7v236Z" class="g0_2852"/>
<path d="M662.6,521.3h.7V435.1h-.7v86.2Z" class="g0_2852"/>
<path d="M662.6,628.3h.7V541.9h-.7v86.4Z" class="g0_2852"/>
<path d="M662.6,692.4h.7V648.9h-.7v43.5Z" class="g0_2852"/>
<path d="M662.6,872.8h.7V713.1h-.7V872.8Z" class="g0_2852"/>
<path d="M662.6,1086.6h.7V893.4h-.7v193.2Z" class="g0_2852"/>
<path d="M780.7,1085.9h.8V179.1h-.8v906.8Z" class="g0_2852"/>
<path d="M95.9,179.1H781.6v-.7H95.9v.7Z" class="g0_2852"/>
<path d="M95.9,200.5H781.6v-.8H95.9v.8Z" class="g0_2852"/>
<path d="M95.9,221.8H781.6v-.7H95.9v.7Z" class="g0_2852"/>
<path d="M95.9,243.3H781.6v-.7H95.9v.7Z" class="g0_2852"/>
<path d="M95.9,264.6H781.6v-.7H95.9v.7Z" class="g0_2852"/>
<path d="M95.9,286.1H781.6v-.7H95.9v.7Z" class="g0_2852"/>
<path d="M95.9,307.4H781.6v-.7H95.9v.7Z" class="g0_2852"/>
<path d="M95.9,328.8H781.6v-.7H95.9v.7Z" class="g0_2852"/>
<path d="M95.9,350.3H781.6v-.8H95.9v.8Z" class="g0_2852"/>
<path d="M95.9,371.6H781.6v-.7H95.9v.7Z" class="g0_2852"/>
<path d="M95.9,393H781.6v-.8H95.9v.8Z" class="g0_2852"/>
<path d="M95.9,414.4H781.6v-.7H95.9v.7Z" class="g0_2852"/>
<path d="M95.9,435.8H781.6V435H95.9v.8Z" class="g0_2852"/>
<path d="M95.9,457.1H781.6v-.7H95.9v.7Z" class="g0_2852"/>
<path d="M95.9,478.6H781.6v-.7H95.9v.7Z" class="g0_2852"/>
<path d="M95.9,499.9H781.6v-.7H95.9v.7Z" class="g0_2852"/>
<path d="M95.9,521.3H781.6v-.7H95.9v.7Z" class="g0_2852"/>
<path d="M95.9,542.8H781.6V542H95.9v.8Z" class="g0_2852"/>
<path d="M95.9,564.1H781.6v-.7H95.9v.7Z" class="g0_2852"/>
<path d="M95.9,585.5H781.6v-.8H95.9v.8Z" class="g0_2852"/>
<path d="M95.9,606.9H781.6v-.7H95.9v.7Z" class="g0_2852"/>
<path d="M95.9,628.3H781.6v-.8H95.9v.8Z" class="g0_2852"/>
<path d="M95.9,649.6H781.6v-.7H95.9v.7Z" class="g0_2852"/>
<path d="M95.9,671.1H781.6v-.7H95.9v.7Z" class="g0_2852"/>
<path d="M95.9,692.4H781.6v-.7H95.9v.7Z" class="g0_2852"/>
<path d="M95.9,713.8H781.6v-.7H95.9v.7Z" class="g0_2852"/>
<path d="M95.9,733.7H781.6V733H95.9v.7Z" class="g0_2852"/>
<path d="M95.9,753.6H781.6v-.7H95.9v.7Z" class="g0_2852"/>
<path d="M95.9,773.4H781.6v-.7H95.9v.7Z" class="g0_2852"/>
<path d="M95.9,793.3H781.6v-.8H95.9v.8Z" class="g0_2852"/>
<path d="M95.9,813.2H781.6v-.8H95.9v.8Z" class="g0_2852"/>
<path d="M95.9,833H781.6v-.8H95.9v.8Z" class="g0_2852"/>
<path d="M95.9,852.9H781.6v-.8H95.9v.8Z" class="g0_2852"/>
<path d="M95.9,872.8H781.6V872H95.9v.8Z" class="g0_2852"/>
<path d="M95.9,894.1H781.6v-.7H95.9v.7Z" class="g0_2852"/>
<path d="M95.9,915.5H781.6v-.8H95.9v.8Z" class="g0_2852"/>
<path d="M95.9,936.9H781.6v-.7H95.9v.7Z" class="g0_2852"/>
<path d="M95.9,958.3H781.6v-.7H95.9v.7Z" class="g0_2852"/>
<path d="M95.9,979.6H781.6v-.7H95.9v.7Z" class="g0_2852"/>
<path d="M95.9,1001.1H781.6v-.7H95.9v.7Z" class="g0_2852"/>
<path d="M95.9,1022.5H781.6v-.8H95.9v.8Z" class="g0_2852"/>
<path d="M95.9,1043.9H781.6v-.7H95.9v.7Z" class="g0_2852"/>
<path d="M95.9,1065.3H781.6v-.8H95.9v.8Z" class="g0_2852"/>
<path d="M95.9,1086.6H781.6v-.7H95.9v.7Z" class="g0_2852"/>
</svg>