<?xml version="1.0" encoding="UTF-8" standalone="no"?>
<!DOCTYPE svg PUBLIC "-//W3C//DTD SVG 1.1//EN"
"http://www.w3.org/Graphics/SVG/1.1/DTD/svg11.dtd">
<svg viewBox="0 0 825 990" version="1.1" xmlns="http://www.w3.org/2000/svg" xmlns:xlink="http://www.w3.org/1999/xlink">
<defs>
<style type="text/css"><![CDATA[
.g0_439{
fill: #000;
}
]]></style>
</defs>
<path d="M94.9,910.3h.3v-.8h-.3v.8Z" class="g0_439"/>
<path d="M95.2,910.3h650v-.8H95.2v.8Z" class="g0_439"/>
<path d="M160.2,118.5H744.9v-.7H160.2v.7Z" class="g0_439"/>
<path d="M160.2,170.5H744.9v-.7H160.2v.7Z" class="g0_439"/>
<path d="M160.2,199.3H744.9v-.2H160.2v.2Z" class="g0_439"/>
<path d="M160.2,228.2H744.9v-.1H160.2v.1Z" class="g0_439"/>
<path d="M160.2,257.3H744.9v-.2H160.2v.2Z" class="g0_439"/>
<path d="M160.2,286.4H744.9v-.2H160.2v.2Z" class="g0_439"/>
<path d="M160.2,315.3H744.9v-.1H160.2v.1Z" class="g0_439"/>
<path d="M160.2,344.4H744.9v-.2H160.2v.2Z" class="g0_439"/>
<path d="M160.2,373.5H744.9v-.2H160.2v.2Z" class="g0_439"/>
<path d="M160.2,402.4H744.9v-.2H160.2v.2Z" class="g0_439"/>
<path d="M160.2,431.5H744.9v-.2H160.2v.2Z" class="g0_439"/>
<path d="M160.2,460.5H744.9v-.1H160.2v.1Z" class="g0_439"/>
<path d="M160.2,489.5H744.9v-.2H160.2v.2Z" class="g0_439"/>
<path d="M160.2,518.6H744.9v-.2H160.2v.2Z" class="g0_439"/>
<path d="M160.2,547.6H744.9v-.2H160.2v.2Z" class="g0_439"/>
<path d="M160.2,576.6H744.9v-.2H160.2v.2Z" class="g0_439"/>
<path d="M160.2,605.6H744.9v-.1H160.2v.1Z" class="g0_439"/>
<path d="M160.2,634.7H744.9v-.2H160.2v.2Z" class="g0_439"/>
<path d="M160.2,663.7H744.9v-.2H160.2v.2Z" class="g0_439"/>
<path d="M160.2,692.7H744.9v-.2H160.2v.2Z" class="g0_439"/>
<path d="M160.2,721.8H744.9v-.2H160.2v.2Z" class="g0_439"/>
<path d="M160.2,750.7H744.9v-.1H160.2v.1Z" class="g0_439"/>
<path d="M160.2,779.8H744.9v-.2H160.2v.2Z" class="g0_439"/>
<path d="M160.2,808.9H744.9v-.2H160.2v.2Z" class="g0_439"/>
<path d="M160.2,837.9H744.9v-.2H160.2v.2Z" class="g0_439"/>
</svg>