<?xml version="1.0" encoding="UTF-8" standalone="no"?>
<!DOCTYPE svg PUBLIC "-//W3C//DTD SVG 1.1//EN"
"http://www.w3.org/Graphics/SVG/1.1/DTD/svg11.dtd">
<svg viewBox="0 0 935 1210" version="1.1" xmlns="http://www.w3.org/2000/svg" xmlns:xlink="http://www.w3.org/1999/xlink">
<defs>
<style type="text/css"><![CDATA[
.g0_421{
fill: #FFF;
}
.g1_421{
fill: #000;
}
.g2_421{
fill: none;
stroke: #000;
stroke-width: 0.385;
stroke-linecap: round;
stroke-linejoin: round;
}
.g3_421{
fill: #F1F1F1;
}
.g4_421{
fill: none;
stroke: #000;
stroke-width: 2.569;
stroke-linecap: round;
stroke-linejoin: round;
}
.g5_421{
fill: #D8D8D8;
}
.g6_421{
fill: none;
stroke: #000;
stroke-width: 8.546;
stroke-linecap: round;
stroke-linejoin: round;
}
.g7_421{
fill: none;
stroke: #BFBFBF;
stroke-width: 8.546;
stroke-linecap: round;
stroke-linejoin: round;
}
.g8_421{
fill: #BFBFBF;
}
]]></style>
</defs>
<path d="M67.7,1149.3h785v-21.2H67.7v21.2Z" class="g0_421"/>
<path d="M69.1,155.8H852.4v-1.5H69.1v1.5Z" class="g1_421"/>
<path d="M96.4,1040.4h.8V597.8h-.8v442.6Z" class="g1_421"/>
<path d="M824.5,1040.4h.7V597.8h-.7v442.6Z" class="g1_421"/>
<path d="M96.3,597.8H825.2V597H96.3v.8Z" class="g1_421"/>
<path d="M96.3,1041.2H825.2v-.8H96.3v.8Z" class="g1_421"/>
<path d="M119.3,729.1H272.1V621.3H119.3V729.1Z" class="g0_421"/>
<path d="M119.3,729.1H272.1V621.3H119.3V729.1Z" class="g2_421"/>
<path d="M120,862.2H272.8V800.9H120v61.3Z" class="g0_421"/>
<path d="M120,862.2H272.8V800.9H120v61.3Z" class="g2_421"/>
<path d="M551.5,738.4H718.8V614.3H551.5V738.4Z" class="g0_421"/>
<path d="M551.5,738.4H718.8V614.3H551.5V738.4Z" class="g2_421"/>
<path d="M551.5,893.2H718.8V768.3H551.5V893.2Z" class="g0_421"/>
<path d="M551.5,893.2H718.8V768.3H551.5V893.2Z" class="g2_421"/>
<path d="M363.9,715.2h95.5V633.9H363.9v81.3Z" class="g0_421"/>
<path d="M363.9,715.2h95.5V633.9H363.9v81.3Z" class="g2_421"/>
<path d="M350,893.2H473.5V769.4H350V893.2Z" class="g3_421"/>
<path d="M350,893.2H473.5V769.4H350V893.2Z" class="g4_421"/>
<path d="M350,791.7H473.5V769.4H350v22.3Z" class="g3_421"/>
<path d="M350,791.7H473.5V769.4H350v22.3Z" class="g4_421"/>
<path d="M366.2,823.5h88.6V801.4H366.2v22.1Z" class="g5_421"/>
<path d="M366.2,823.5h88.6V801.4H366.2v22.1Z" class="g2_421"/>
<path d="M366.9,849.8h88.7V827.7H366.9v22.1Z" class="g5_421"/>
<path d="M366.9,849.8h88.7V827.7H366.9v22.1Z" class="g2_421"/>
<path d="M366.9,888.5h88.7V866.4H366.9v22.1Z" class="g5_421"/>
<path d="M366.9,888.5h88.7V866.4H366.9v22.1Z" class="g2_421"/>
<path d="M282.9,674.5h71.7" class="g6_421"/>
<path fill-rule="evenodd" d="M285.3,686.2L273.6,674.5l11.7,-11.7v23.4Z" class="g1_421"/>
<path fill-rule="evenodd" d="M352.2,662.8l11.7,11.7l-11.7,11.7V662.8Z" class="g1_421"/>
<path d="M469.7,674.1h72.4" class="g6_421"/>
<path fill-rule="evenodd" d="M472,685.9L460.4,674.1L472,662.5v23.4Z" class="g1_421"/>
<path fill-rule="evenodd" d="M539.7,662.5l11.8,11.6l-11.8,11.7V662.5Z" class="g1_421"/>
<path d="M409.8,724.5l.3,34.7" class="g6_421"/>
<path fill-rule="evenodd" d="M398.2,726.9l11.6,-11.7l11.7,11.5l-23.3,.2Z" class="g1_421"/>
<path fill-rule="evenodd" d="M421.8,756.8l-11.6,11.7L398.4,756.9l23.4,-.1Z" class="g1_421"/>
<path d="M542.1,831.2H484.4" class="g7_421"/>
<path fill-rule="evenodd" d="M539.7,819.6l11.8,11.6L539.7,843V819.6Z" class="g8_421"/>
<path fill-rule="evenodd" d="M486.7,843L475,831.2l11.7,-11.6V843Z" class="g8_421"/>
<path d="M282.9,834.3H339" class="g7_421"/>
<path fill-rule="evenodd" d="M285.3,846.1L273.6,834.4l11.7,-11.8v23.5Z" class="g8_421"/>
<path fill-rule="evenodd" d="M336.7,822.6l11.6,11.7l-11.6,11.8V822.6Z" class="g8_421"/>
<path d="M195.6,738.5v52.4" class="g7_421"/>
<path fill-rule="evenodd" d="M184,740.9l11.6,-11.8l11.7,11.8H184Z" class="g8_421"/>
<path fill-rule="evenodd" d="M207.3,788.6l-11.7,11.6L184,788.6h23.3Z" class="g8_421"/>
<path d="M197.5,873.5v48" class="g7_421"/>
<path fill-rule="evenodd" d="M185.9,875.9l11.6,-11.8l11.7,11.8H185.9Z" class="g8_421"/>
<path fill-rule="evenodd" d="M209.2,919.2l-11.7,11.7L185.9,919.2h23.3Z" class="g8_421"/>
<path d="M484.2,806.6h36V719.5" class="g7_421"/>
<path fill-rule="evenodd" d="M486.6,818.3L474.8,806.6l11.8,-11.7v23.4Z" class="g8_421"/>
<path d="M520.6,718.9h22.1" class="g7_421"/>
<path fill-rule="evenodd" d="M540.4,707.3L552,718.9l-11.6,11.7V707.3Z" class="g8_421"/>
<path d="M493.4,704.1v81.4h47.3" class="g6_421"/>
<path fill-rule="evenodd" d="M538.3,773.8L550,785.5l-11.7,11.7V773.8Z" class="g1_421"/>
<path d="M493.4,703H470.9" class="g6_421"/>
<path fill-rule="evenodd" d="M473.2,714.7L461.5,703l11.7,-11.6v23.3Z" class="g1_421"/>
<path d="M215.4,961.7h76.5v-20H215.4v20Z" class="g3_421"/>
<path d="M215.4,961.7h76.5v-20H215.4v20Z" class="g4_421"/>
<path d="M221.7,984.1h61.6" class="g6_421"/>
<path fill-rule="evenodd" d="M224,995.9L212.4,984.1L224,972.4v23.5Z" class="g1_421"/>
<path fill-rule="evenodd" d="M281,972.4l11.6,11.7L281,995.9V972.4Z" class="g1_421"/>
<path d="M221.5,1012.8h62" class="g7_421"/>
<path fill-rule="evenodd" d="M223.8,1024.6l-11.7,-11.8l11.7,-11.6v23.4Z" class="g8_421"/>
<path fill-rule="evenodd" d="M281.1,1001.2l11.7,11.6l-11.7,11.8v-23.4Z" class="g8_421"/>
</svg>