<?xml version="1.0" encoding="UTF-8" standalone="no"?>
<!DOCTYPE svg PUBLIC "-//W3C//DTD SVG 1.1//EN"
"http://www.w3.org/Graphics/SVG/1.1/DTD/svg11.dtd">
<svg viewBox="0 0 935 1210" version="1.1" xmlns="http://www.w3.org/2000/svg" xmlns:xlink="http://www.w3.org/1999/xlink">
<defs>
<clipPath id="c0_2401"><path d="M97.3,59.2V41.4h72.1V59.2Z"/></clipPath>
<style type="text/css"><![CDATA[
.g0_2401{
fill: #000;
}
]]></style>
</defs>
<path d="M96.3,63.3H838.8v-.4H96.3v.4Z" class="g0_2401"/>
<path d="M96.1,1114.5h.2v-.4h-.2v.4Z" class="g0_2401"/>
<path d="M96.3,1114.5H838.9v-.4H96.3v.4Z" class="g0_2401"/>
<image clip-path="url(#c0_2401)" preserveAspectRatio="none" x="97" y="41" width="73" height="18" xlink:href="img/1.jpg"/>
<path d="M531.5,289.7h31.3v-1.1H531.5v1.1Z" class="g0_2401"/>
<path d="M531.5,312.6h31.3v-1.1H531.5v1.1Z" class="g0_2401"/>
<path d="M95.9,1043.1h.7V566.8h-.7v476.3Z" class="g0_2401"/>
<path d="M273.3,993.5h.8V563.8h-.8V993.5Z" class="g0_2401"/>
<path d="M310,993.5h.7V586.3H310V993.5Z" class="g0_2401"/>
<path d="M346.7,993.5h.7V586.3h-.7V993.5Z" class="g0_2401"/>
<path d="M383.4,993.5h.7V563.8h-.7V993.5Z" class="g0_2401"/>
<path d="M839.2,1043.1h.7V566.8h-.7v476.3Z" class="g0_2401"/>
<path d="M95.9,566.9h744v-3.1H95.9v3.1Z" class="g0_2401"/>
<path d="M273.3,587H384.2v-.7H273.3v.7Z" class="g0_2401"/>
<path d="M95.9,609.6h744v-3H95.9v3Z" class="g0_2401"/>
<path d="M273.3,628.3H839.9v-.8H273.3v.8Z" class="g0_2401"/>
<path d="M273.3,648.2H839.9v-.8H273.3v.8Z" class="g0_2401"/>
<path d="M273.3,668H839.9v-.8H273.3v.8Z" class="g0_2401"/>
<path d="M273.3,687.9H839.9v-.8H273.3v.8Z" class="g0_2401"/>
<path d="M273.3,707.8H839.9V707H273.3v.8Z" class="g0_2401"/>
<path d="M273.3,727.6H839.9v-.8H273.3v.8Z" class="g0_2401"/>
<path d="M273.3,747.4H839.9v-.7H273.3v.7Z" class="g0_2401"/>
<path d="M273.3,767.3H839.9v-.7H273.3v.7Z" class="g0_2401"/>
<path d="M273.3,787.1H839.9v-.7H273.3v.7Z" class="g0_2401"/>
<path d="M95.9,807h744v-.7H95.9v.7Z" class="g0_2401"/>
<path d="M95.9,826.9h744v-.7H95.9v.7Z" class="g0_2401"/>
<path d="M95.9,846.7h744V846H95.9v.7Z" class="g0_2401"/>
<path d="M273.3,866.6H839.9v-.7H273.3v.7Z" class="g0_2401"/>
<path d="M95.9,886.5h744v-.7H95.9v.7Z" class="g0_2401"/>
<path d="M273.3,920.1H839.9v-.8H273.3v.8Z" class="g0_2401"/>
<path d="M95.9,973.6h744v-.7H95.9v.7Z" class="g0_2401"/>
<path d="M95.9,993.5h744v-.7H95.9v.7Z" class="g0_2401"/>
<path d="M95.9,1043.9h744v-.7H95.9v.7Z" class="g0_2401"/>
</svg>