<?xml version="1.0" encoding="UTF-8" standalone="no"?>
<!DOCTYPE svg PUBLIC "-//W3C//DTD SVG 1.1//EN"
"http://www.w3.org/Graphics/SVG/1.1/DTD/svg11.dtd">
<svg viewBox="0 0 935 1210" version="1.1" xmlns="http://www.w3.org/2000/svg" xmlns:xlink="http://www.w3.org/1999/xlink">
<defs>
<clipPath id="c0_2538"><path d="M766.6,59.2V41.4h72.2V59.2Z"/></clipPath>
<style type="text/css"><![CDATA[
.g0_2538{
fill: #000;
}
]]></style>
</defs>
<path d="M97.4,63.3H839.9v-.4H97.4v.4Z" class="g0_2538"/>
<path d="M96.1,1114.5h.2v-.4h-.2v.4Z" class="g0_2538"/>
<path d="M96.3,1114.5H838.9v-.4H96.3v.4Z" class="g0_2538"/>
<image clip-path="url(#c0_2538)" preserveAspectRatio="none" x="767" y="41" width="72" height="18" xlink:href="img/1.jpg"/>
<path d="M550.7,980.3h31.4v-1.1H550.7v1.1Z" class="g0_2538"/>
<path d="M690.8,980.3h20.4v-1.1H690.8v1.1Z" class="g0_2538"/>
<path d="M550.7,1003.2h31.4v-1.1H550.7v1.1Z" class="g0_2538"/>
<path d="M690.8,1003.2h20.4v-1.1H690.8v1.1Z" class="g0_2538"/>
<path d="M95.9,757.4h.7v-68h-.7v68Z" class="g0_2538"/>
<path d="M216,758.2h.7V688.7H216v69.5Z" class="g0_2538"/>
<path d="M293.3,758.2h.8V688.7h-.8v69.5Z" class="g0_2538"/>
<path d="M839.1,757.4h.7v-68h-.7v68Z" class="g0_2538"/>
<path d="M95.9,689.4h744v-.7H95.9v.7Z" class="g0_2538"/>
<path d="M95.9,713.5h744v-3H95.9v3Z" class="g0_2538"/>
<path d="M95.9,735.3h744v-.8H95.9v.8Z" class="g0_2538"/>
<path d="M95.9,758.2h744v-.8H95.9v.8Z" class="g0_2538"/>
</svg>