<?xml version="1.0" encoding="UTF-8" standalone="no"?>
<!DOCTYPE svg PUBLIC "-//W3C//DTD SVG 1.1//EN"
"http://www.w3.org/Graphics/SVG/1.1/DTD/svg11.dtd">
<svg viewBox="0 0 935 1210" version="1.1" xmlns="http://www.w3.org/2000/svg" xmlns:xlink="http://www.w3.org/1999/xlink">
<defs>
<style type="text/css"><![CDATA[
.g0_1937{
fill: #FFF;
}
.g1_1937{
fill: #000;
}
]]></style>
</defs>
<path d="M68.9,1149.3H755.2v-21.2H68.9v21.2Z" class="g0_1937"/>
<path d="M771.3,1149.3H855v-21.2H771.3v21.2Z" class="g0_1937"/>
<path d="M69.9,679.5h.8V125.7h-.8V679.5Z" class="g1_1937"/>
<path d="M300.7,680.3h.7V124.9h-.7V680.3Z" class="g1_1937"/>
<path d="M361.6,680.3h.8V124.9h-.8V680.3Z" class="g1_1937"/>
<path d="M435.1,680.3h.7V124.9h-.7V680.3Z" class="g1_1937"/>
<path d="M559.8,680.3h.7V124.9h-.7V680.3Z" class="g1_1937"/>
<path d="M851.1,178.4h.8V125.7h-.8v52.7Z" class="g1_1937"/>
<path d="M851.1,679.5h.8V179.1h-.8V679.5Z" class="g1_1937"/>
<path d="M69.9,125.7h782v-.8H69.9v.8Z" class="g1_1937"/>
<path d="M69.9,179.1h782v-.7H69.9v.7Z" class="g1_1937"/>
<path d="M69.9,269.2h782v-.7H69.9v.7Z" class="g1_1937"/>
<path d="M69.9,359.4h782v-.7H69.9v.7Z" class="g1_1937"/>
<path d="M69.9,466.4h782v-.7H69.9v.7Z" class="g1_1937"/>
<path d="M69.9,573.3h782v-.7H69.9v.7Z" class="g1_1937"/>
<path d="M69.9,680.3h782v-.8H69.9v.8Z" class="g1_1937"/>
<path d="M69.9,807.9h.8V735.3h-.8v72.6Z" class="g1_1937"/>
<path d="M132,808.6h.7V734.5H132v74.1Z" class="g1_1937"/>
<path d="M194.1,808.6h.7V734.5h-.7v74.1Z" class="g1_1937"/>
<path d="M345.7,808.6h.7V734.5h-.7v74.1Z" class="g1_1937"/>
<path d="M516,808.6h.7V734.5H516v74.1Z" class="g1_1937"/>
<path d="M685.1,808.6h.8V734.5h-.8v74.1Z" class="g1_1937"/>
<path d="M852,807.9h.8V735.3H852v72.6Z" class="g1_1937"/>
<path d="M69.9,735.3h783v-.8H69.9v.8Z" class="g1_1937"/>
<path d="M69.9,759.7h783V759H69.9v.7Z" class="g1_1937"/>
<path d="M69.9,784.1h783v-.7H69.9v.7Z" class="g1_1937"/>
<path d="M69.9,808.6h783v-.7H69.9v.7Z" class="g1_1937"/>
</svg>