<?xml version="1.0" encoding="UTF-8" standalone="no"?>
<!DOCTYPE svg PUBLIC "-//W3C//DTD SVG 1.1//EN"
"http://www.w3.org/Graphics/SVG/1.1/DTD/svg11.dtd">
<svg viewBox="0 0 935 1210" version="1.1" xmlns="http://www.w3.org/2000/svg" xmlns:xlink="http://www.w3.org/1999/xlink">
<defs>
<clipPath id="c0_1850"><path d="M766.6,59.2V41.4h72.1V59.2Z"/></clipPath>
<style type="text/css"><![CDATA[
.g0_1850{
fill: #000;
}
.g1_1850{
fill: #E5E5E5;
}
]]></style>
</defs>
<path d="M97.3,62.9v.3H839.9v-.3H97.3Z" class="g0_1850"/>
<path d="M96.2,1114.1h-.1v.4h.1v-.4Z" class="g0_1850"/>
<path d="M838.7,1114.1h.2v.4h-.2v-.4Z" class="g0_1850"/>
<path d="M96.2,1114.1v.4H838.7v-.4H96.2Z" class="g0_1850"/>
<image clip-path="url(#c0_1850)" preserveAspectRatio="none" x="767" y="41" width="72" height="18" xlink:href="img/1.jpg"/>
<path d="M380.7,243.9h458v48.9h-458V243.9Z" class="g1_1850"/>
<path d="M380.7,292.8h458v48.9h-458V292.8Z" class="g1_1850"/>
<path d="M96.6,179.1h-.7v907.8h.7V179.1Z" class="g0_1850"/>
<path d="M381,178.4h-.7V867.6h.7V178.4Z" class="g0_1850"/>
<path d="M482.3,178.4h-.7v65.9h.7V178.4Z" class="g0_1850"/>
<path d="M482.3,341.3h-.7V867.6h.7V341.3Z" class="g0_1850"/>
<path d="M583.6,178.4h-.7v65.9h.7V178.4Z" class="g0_1850"/>
<path d="M583.6,341.3h-.7V867.6h.7V341.3Z" class="g0_1850"/>
<path d="M711.4,178.4h-.7v65.9h.7V178.4Z" class="g0_1850"/>
<path d="M839.1,179.1h-.7v907.8h.7V179.1Z" class="g0_1850"/>
<path d="M95.9,178.4v.7H839.1v-.7H95.9Z" class="g0_1850"/>
<path d="M95.9,243.6v.7H839.1v-.7H95.9Z" class="g0_1850"/>
<path d="M95.9,292.4v.7H839.1v-.7H95.9Z" class="g0_1850"/>
<path d="M95.9,341.4v.7H839.1v-.7H95.9Z" class="g0_1850"/>
<path d="M95.9,402.4v.7H839.1v-.7H95.9Z" class="g0_1850"/>
<path d="M95.9,500.2v.7H839.1v-.7H95.9Z" class="g0_1850"/>
<path d="M95.9,549.1v.7H839.1v-.7H95.9Z" class="g0_1850"/>
<path d="M95.9,610.2v.7H839.1v-.7H95.9Z" class="g0_1850"/>
<path d="M95.9,671.3v.8H839.1v-.8H95.9Z" class="g0_1850"/>
<path d="M95.9,720.2v.7H839.1v-.7H95.9Z" class="g0_1850"/>
<path d="M95.9,769.2v.7H839.1v-.7H95.9Z" class="g0_1850"/>
<path d="M95.9,818v.7H839.1V818H95.9Z" class="g0_1850"/>
<path d="M95.9,866.9v.7H839.1v-.7H95.9Z" class="g0_1850"/>
<path d="M95.9,1086.9v.7H839.1v-.7H95.9Z" class="g0_1850"/>
</svg>