<?xml version="1.0" encoding="UTF-8" standalone="no"?>
<!DOCTYPE svg PUBLIC "-//W3C//DTD SVG 1.1//EN"
"http://www.w3.org/Graphics/SVG/1.1/DTD/svg11.dtd">
<svg viewBox="0 0 935 1210" version="1.1" xmlns="http://www.w3.org/2000/svg" xmlns:xlink="http://www.w3.org/1999/xlink">
<defs>
<clipPath id="c0_1889"><path d="M97.3,59.2V41.4h72.1V59.2Z"/></clipPath>
<style type="text/css"><![CDATA[
.g0_1889{
fill: #000;
}
]]></style>
</defs>
<path d="M96.2,62.9v.3H838.7v-.3H96.2Z" class="g0_1889"/>
<path d="M96.2,1114.1h-.1v.4h.1v-.4Z" class="g0_1889"/>
<path d="M838.7,1114.1h.2v.4h-.2v-.4Z" class="g0_1889"/>
<path d="M96.2,1114.1v.4H838.7v-.4H96.2Z" class="g0_1889"/>
<image clip-path="url(#c0_1889)" preserveAspectRatio="none" x="97" y="41" width="72" height="18" xlink:href="img/1.jpg"/>
<path d="M96.6,151.6h-.7V306.7h.7V151.6Z" class="g0_1889"/>
<path d="M142.8,150.9h-.7V307.4h.7V150.9Z" class="g0_1889"/>
<path d="M306.7,150.9H306V307.4h.7V150.9Z" class="g0_1889"/>
<path d="M843.7,151.6h-.8V306.7h.8V151.6Z" class="g0_1889"/>
<path d="M95.9,150.9v.7H843.7v-.7H95.9Z" class="g0_1889"/>
<path d="M95.9,182.5v4.6H843.7v-4.6H95.9Z" class="g0_1889"/>
<path d="M95.9,227.2v.8H843.7v-.8H95.9Z" class="g0_1889"/>
<path d="M95.9,306.7v.7H843.7v-.7H95.9Z" class="g0_1889"/>
<path d="M96.6,388.4h-.7V832.2h.7V388.4Z" class="g0_1889"/>
<path d="M202.3,387.6h-.7V833h.7V387.6Z" class="g0_1889"/>
<path d="M578.4,388.4h-.7V832.2h.7V388.4Z" class="g0_1889"/>
<path d="M95.9,387.6v.8H578.4v-.8H95.9Z" class="g0_1889"/>
<path d="M95.9,427v4.6H578.4V427H95.9Z" class="g0_1889"/>
<path d="M95.9,451.8v.7H578.4v-.7H95.9Z" class="g0_1889"/>
<path d="M95.9,474.7v.8H578.4v-.8H95.9Z" class="g0_1889"/>
<path d="M95.9,497.6v.8H578.4v-.8H95.9Z" class="g0_1889"/>
<path d="M95.9,520.6v.7H578.4v-.7H95.9Z" class="g0_1889"/>
<path d="M95.9,543.5v.7H578.4v-.7H95.9Z" class="g0_1889"/>
<path d="M95.9,566.4v.7H578.4v-.7H95.9Z" class="g0_1889"/>
<path d="M95.9,589.3v.7H578.4v-.7H95.9Z" class="g0_1889"/>
<path d="M95.9,612.2v.8H578.4v-.8H95.9Z" class="g0_1889"/>
<path d="M95.9,635.1v.8H578.4v-.8H95.9Z" class="g0_1889"/>
<path d="M95.9,676.4v.7H578.4v-.7H95.9Z" class="g0_1889"/>
<path d="M95.9,699.3v.7H578.4v-.7H95.9Z" class="g0_1889"/>
<path d="M95.9,722.2v.8H578.4v-.8H95.9Z" class="g0_1889"/>
<path d="M95.9,745.1v.8H578.4v-.8H95.9Z" class="g0_1889"/>
<path d="M95.9,768.1v.7H578.4v-.7H95.9Z" class="g0_1889"/>
<path d="M95.9,809.3v.7H578.4v-.7H95.9Z" class="g0_1889"/>
<path d="M95.9,832.2v.8H578.4v-.8H95.9Z" class="g0_1889"/>
<path d="M96.2,898.4v3H838.7v-3H96.2Z" class="g0_1889"/>
<path d="M96.6,955.2h-.7v121.5h.7V955.2Z" class="g0_1889"/>
<path d="M142.8,954.5h-.7v122.9h.7V954.5Z" class="g0_1889"/>
<path d="M274.8,954.5h-.7v122.9h.7V954.5Z" class="g0_1889"/>
<path d="M839.1,955.2h-.7v121.5h.7V955.2Z" class="g0_1889"/>
<path d="M95.9,954.5v.7H839.1v-.7H95.9Z" class="g0_1889"/>
<path d="M95.9,978.9v.7H839.1v-.7H95.9Z" class="g0_1889"/>
<path d="M95.9,1003.4v.7H839.1v-.7H95.9Z" class="g0_1889"/>
<path d="M95.9,1027.8v.8H839.1v-.8H95.9Z" class="g0_1889"/>
<path d="M95.9,1052.3v.7H839.1v-.7H95.9Z" class="g0_1889"/>
<path d="M95.9,1076.7v.7H839.1v-.7H95.9Z" class="g0_1889"/>
</svg>