<?xml version="1.0" encoding="UTF-8" standalone="no"?>
<!DOCTYPE svg PUBLIC "-//W3C//DTD SVG 1.1//EN"
"http://www.w3.org/Graphics/SVG/1.1/DTD/svg11.dtd">
<svg viewBox="0 0 935 1210" version="1.1" xmlns="http://www.w3.org/2000/svg" xmlns:xlink="http://www.w3.org/1999/xlink">
<defs>
<clipPath id="c0_67"><path d="M766.7,59V41.4h72.2V59Z"/></clipPath>
<style type="text/css"><![CDATA[
.g0_67{
fill: #000;
}
.g1_67{
fill: #E5E5E5;
}
]]></style>
</defs>
<path d="M97.5,63.1v.3H840v-.3H97.5Z" class="g0_67"/>
<path d="M96.1,1114.3v.3v-.3Z" class="g0_67"/>
<path d="M838.9,1114.3v.3v-.3Z" class="g0_67"/>
<path d="M96.1,1114.3v.3H838.9v-.3H96.1Z" class="g0_67"/>
<image clip-path="url(#c0_67)" preserveAspectRatio="none" x="767" y="41" width="72" height="18" xlink:href="img/1.jpg"/>
<path d="M97.2,913H199.1v82.5H97.2V913Z" class="g1_67"/>
<path d="M97.5,197.3h-.7v854.3h.7V197.3Z" class="g0_67"/>
<path d="M199.5,225.1h-.8V995.8h.8V225.1Z" class="g0_67"/>
<path d="M309.8,225.1h-.7V995.8h.7V225.1Z" class="g0_67"/>
<path d="M412.5,225.1h-.8V995.8h.8V225.1Z" class="g0_67"/>
<path d="M503,196.5h-.7V995.8h.7V196.5Z" class="g0_67"/>
<path d="M602,196.5h-.7V995.8h.7V196.5Z" class="g0_67"/>
<path d="M838.2,197.3h-.8v854.3h.8V197.3Z" class="g0_67"/>
<path d="M96.8,196.5v.8H838.2v-.8H96.8Z" class="g0_67"/>
<path d="M96.8,225.1v.8H503v-.8H96.8Z" class="g0_67"/>
<path d="M96.8,249.7v.7H838.2v-.7H96.8Z" class="g0_67"/>
<path d="M96.8,485.1v.7H838.2v-.7H96.8Z" class="g0_67"/>
<path d="M96.8,607.2v.7H838.2v-.7H96.8Z" class="g0_67"/>
<path d="M96.8,750.9v.7H838.2v-.7H96.8Z" class="g0_67"/>
<path d="M96.8,912.6v.7H838.2v-.7H96.8Z" class="g0_67"/>
<path d="M96.8,995.1v.7H838.2v-.7H96.8Z" class="g0_67"/>
<path d="M96.8,1051.6v.7H838.2v-.7H96.8Z" class="g0_67"/>
</svg>