<?xml version="1.0" encoding="UTF-8" standalone="no"?>
<!DOCTYPE svg PUBLIC "-//W3C//DTD SVG 1.1//EN"
"http://www.w3.org/Graphics/SVG/1.1/DTD/svg11.dtd">
<svg viewBox="0 0 935 1210" version="1.1" xmlns="http://www.w3.org/2000/svg" xmlns:xlink="http://www.w3.org/1999/xlink">
<defs>
<style type="text/css"><![CDATA[
.g0_233{
fill: none;
stroke: #000;
stroke-width: 0.608;
stroke-miterlimit: 10;
}
]]></style>
</defs>
<path d="M717.4,270.3h5.1M412.1,580.4h5.1m176.8,59h5.5m58.2,0h5.1m82.1,0H750M285.5,660.1h5.1m18.9,20.7h5.2M172.6,716.7h5.1m259.3,0h5.2m14.5,41.4h5.1m53.8,0h5.1m95.6,0h5.1m-441,20.7h5.2m20.2,48.7h5.1m97.1,0h5.1m111.4,0h5.2m111.4,0h5.1m-134.4,34h5.1m58.7,0h5.2m152,59h5.5m58.2,0h5.1m76.6,0h5.1m-642,20.7h5.1m195.2,0h5.1M205.8,989.9h5.1m97.1,0h5.1m179.1,0h5.1m-85.2,34h5.1m-5.1,48.6h5.1m129.5,0h5.1" class="g0_233"/>
</svg>