<?xml version="1.0" encoding="UTF-8" standalone="no"?>
<!DOCTYPE svg PUBLIC "-//W3C//DTD SVG 1.1//EN"
"http://www.w3.org/Graphics/SVG/1.1/DTD/svg11.dtd">
<svg viewBox="0 0 935 1210" version="1.1" xmlns="http://www.w3.org/2000/svg" xmlns:xlink="http://www.w3.org/1999/xlink">
<defs>
<style type="text/css"><![CDATA[
.g0_1084{
fill: #FFF;
}
.g1_1084{
fill: #000;
}
]]></style>
</defs>
<path d="M165,1149.3H852.5v-21.2H165v21.2Z" class="g0_1084"/>
<path d="M68.8,1149.3h82.5v-21.2H68.8v21.2Z" class="g0_1084"/>
<path d="M68.6,186h.7V125.7h-.7V186Z" class="g1_1084"/>
<path d="M220.3,186.8h.7V124.9h-.7v61.9Z" class="g1_1084"/>
<path d="M392.4,186.8h.8V124.9h-.8v61.9Z" class="g1_1084"/>
<path d="M430.3,186.8h.7V124.9h-.7v61.9Z" class="g1_1084"/>
<path d="M503.6,186.8h.7V124.9h-.7v61.9Z" class="g1_1084"/>
<path d="M575,186.8h.8V124.9H575v61.9Z" class="g1_1084"/>
<path d="M852.2,186h.8V125.7h-.8V186Z" class="g1_1084"/>
<path d="M68.6,125.7H853v-.8H68.6v.8Z" class="g1_1084"/>
<path d="M68.6,163.8H853v-.7H68.6v.7Z" class="g1_1084"/>
<path d="M68.6,186.7H853V186H68.6v.7Z" class="g1_1084"/>
<path d="M68.6,289.9h.7V241.8h-.7v48.1Z" class="g1_1084"/>
<path d="M139.1,290.7h.7V241h-.7v49.7Z" class="g1_1084"/>
<path d="M305.2,290.7h.7V241h-.7v49.7Z" class="g1_1084"/>
<path d="M489.4,290.7h.7V241h-.7v49.7Z" class="g1_1084"/>
<path d="M666.8,290.7h.7V241h-.7v49.7Z" class="g1_1084"/>
<path d="M849.7,289.9h.7V241.8h-.7v48.1Z" class="g1_1084"/>
<path d="M68.6,241.7H850.4V241H68.6v.7Z" class="g1_1084"/>
<path d="M68.6,266.2H850.4v-.7H68.6v.7Z" class="g1_1084"/>
<path d="M68.6,290.7H850.4v-.8H68.6v.8Z" class="g1_1084"/>
</svg>