<?xml version="1.0" encoding="UTF-8" standalone="no"?>
<!DOCTYPE svg PUBLIC "-//W3C//DTD SVG 1.1//EN"
"http://www.w3.org/Graphics/SVG/1.1/DTD/svg11.dtd">
<svg viewBox="0 0 935 1210" version="1.1" xmlns="http://www.w3.org/2000/svg" xmlns:xlink="http://www.w3.org/1999/xlink">
<defs>
<style type="text/css"><![CDATA[
.g0_229{
fill: #FFF;
}
.g1_229{
fill: #000;
}
]]></style>
</defs>
<path d="M68.9,1149.3H852.7v-21.2H68.9v21.2Z" class="g0_229"/>
<path d="M69.9,762h.8V336.5h-.8V762Z" class="g1_229"/>
<path d="M332.8,762.8h.8v-427h-.8v427Z" class="g1_229"/>
<path d="M547.7,762.8h.7v-427h-.7v427Z" class="g1_229"/>
<path d="M852.1,762h.8V336.5h-.8V762Z" class="g1_229"/>
<path d="M69.9,336.5h783v-.7H69.9v.7Z" class="g1_229"/>
<path d="M69.9,360.9h783v-.7H69.9v.7Z" class="g1_229"/>
<path d="M69.9,608.5h783v-.8H69.9v.8Z" class="g1_229"/>
<path d="M69.9,721.5h783v-.7H69.9v.7Z" class="g1_229"/>
<path d="M69.9,762.8h783V762H69.9v.8Z" class="g1_229"/>
</svg>