<?xml version="1.0" encoding="UTF-8" standalone="no"?>
<!DOCTYPE svg PUBLIC "-//W3C//DTD SVG 1.1//EN"
"http://www.w3.org/Graphics/SVG/1.1/DTD/svg11.dtd">
<svg viewBox="0 0 935 1210" version="1.1" xmlns="http://www.w3.org/2000/svg" xmlns:xlink="http://www.w3.org/1999/xlink">
<defs>
<style type="text/css"><![CDATA[
.g0_1226{
fill: #FFF;
}
.g1_1226{
fill: #000;
}
]]></style>
</defs>
<path d="M165,1149.3H852.5v-21.2H165v21.2Z" class="g0_1226"/>
<path d="M68.8,1149.3h82.5v-21.2H68.8v21.2Z" class="g0_1226"/>
<path d="M68.6,314.3h.7V125.7h-.7V314.3Z" class="g1_1226"/>
<path d="M386.7,315.2h.7V124.9h-.7V315.2Z" class="g1_1226"/>
<path d="M424.5,315.2h.7V124.9h-.7V315.2Z" class="g1_1226"/>
<path d="M497.9,315.2h.8V124.9h-.8V315.2Z" class="g1_1226"/>
<path d="M569.3,315.2h.8V124.9h-.8V315.2Z" class="g1_1226"/>
<path d="M846.4,314.3h.8V125.7h-.8V314.3Z" class="g1_1226"/>
<path d="M68.6,125.7H847.2v-.8H68.6v.8Z" class="g1_1226"/>
<path d="M68.6,179.1H847.2v-.7H68.6v.7Z" class="g1_1226"/>
<path d="M68.6,235.7H847.2v-.8H68.6v.8Z" class="g1_1226"/>
<path d="M68.6,275.4H847.2v-.8H68.6v.8Z" class="g1_1226"/>
<path d="M68.6,315.1H847.2v-.8H68.6v.8Z" class="g1_1226"/>
<path d="M68.6,418.3h.7V370.2h-.7v48.1Z" class="g1_1226"/>
<path d="M137.5,419h.7V369.3h-.7V419Z" class="g1_1226"/>
<path d="M313.1,419h.8V369.3h-.8V419Z" class="g1_1226"/>
<path d="M487.2,419h.7V369.3h-.7V419Z" class="g1_1226"/>
<path d="M661.7,419h.8V369.3h-.8V419Z" class="g1_1226"/>
<path d="M847.4,418.3h.7V370.2h-.7v48.1Z" class="g1_1226"/>
<path d="M68.6,370.1H848.1v-.8H68.6v.8Z" class="g1_1226"/>
<path d="M68.6,394.5H848.1v-.7H68.6v.7Z" class="g1_1226"/>
<path d="M68.6,419H848.1v-.7H68.6v.7Z" class="g1_1226"/>
</svg>