<?xml version="1.0" encoding="UTF-8" standalone="no"?>
<!DOCTYPE svg PUBLIC "-//W3C//DTD SVG 1.1//EN"
"http://www.w3.org/Graphics/SVG/1.1/DTD/svg11.dtd">
<svg viewBox="0 0 935 1210" version="1.1" xmlns="http://www.w3.org/2000/svg" xmlns:xlink="http://www.w3.org/1999/xlink">
<defs>
<style type="text/css"><![CDATA[
.g0_2646{
fill: #FFF;
}
.g1_2646{
fill: #000;
}
]]></style>
</defs>
<path d="M165,1149.3H852.5v-21.2H165v21.2Z" class="g0_2646"/>
<path d="M68.8,1149.3h82.5v-21.2H68.8v21.2Z" class="g0_2646"/>
<path d="M68.6,268.5h.7V125.7h-.7V268.5Z" class="g1_2646"/>
<path d="M303.2,179.1h.8V124.9h-.8v54.2Z" class="g1_2646"/>
<path d="M303.2,269.3h.8V178.4h-.8v90.9Z" class="g1_2646"/>
<path d="M350.8,179.1h.7V124.9h-.7v54.2Z" class="g1_2646"/>
<path d="M350.8,269.3h.7V178.4h-.7v90.9Z" class="g1_2646"/>
<path d="M424.1,179.1h.8V124.9h-.8v54.2Z" class="g1_2646"/>
<path d="M424.1,269.3h.8V178.4h-.8v90.9Z" class="g1_2646"/>
<path d="M549,269.3h.7V124.9H549V269.3Z" class="g1_2646"/>
<path d="M850.8,268.5h.7V125.7h-.7V268.5Z" class="g1_2646"/>
<path d="M68.6,125.7H851.5v-.8H68.6v.8Z" class="g1_2646"/>
<path d="M68.6,179.1H549.7v-.7H68.6v.7Z" class="g1_2646"/>
<path d="M549,179.1H851.5v-.7H549v.7Z" class="g1_2646"/>
<path d="M68.6,269.2H549v-.7H68.6v.7Z" class="g1_2646"/>
<path d="M549.7,269.2H851.5v-.7H549.7v.7Z" class="g1_2646"/>
<path d="M68.6,372.4h.7V324.3h-.7v48.1Z" class="g1_2646"/>
<path d="M134.3,373.2h.7V323.5h-.7v49.7Z" class="g1_2646"/>
<path d="M227.5,373.2h.7V323.5h-.7v49.7Z" class="g1_2646"/>
<path d="M373.6,373.2h.8V323.5h-.8v49.7Z" class="g1_2646"/>
<path d="M533.5,373.2h.7V323.5h-.7v49.7Z" class="g1_2646"/>
<path d="M692.2,373.2h.7V323.5h-.7v49.7Z" class="g1_2646"/>
<path d="M848.8,372.4h.8V324.3h-.8v48.1Z" class="g1_2646"/>
<path d="M68.6,324.2H849.7v-.7H68.6v.7Z" class="g1_2646"/>
<path d="M68.6,348.7H849.7V348H68.6v.7Z" class="g1_2646"/>
<path d="M68.6,373.2H849.7v-.8H68.6v.8Z" class="g1_2646"/>
</svg>