<?xml version="1.0" encoding="UTF-8" standalone="no"?>
<!DOCTYPE svg PUBLIC "-//W3C//DTD SVG 1.1//EN"
"http://www.w3.org/Graphics/SVG/1.1/DTD/svg11.dtd">
<svg viewBox="0 0 935 1210" version="1.1" xmlns="http://www.w3.org/2000/svg" xmlns:xlink="http://www.w3.org/1999/xlink">
<defs>
<style type="text/css"><![CDATA[
.g0_1671{
fill: #FFF;
}
.g1_1671{
fill: #000;
}
]]></style>
</defs>
<path d="M68.9,1149.3H755.2v-21.2H68.9v21.2Z" class="g0_1671"/>
<path d="M771.3,1149.3H855v-21.2H771.3v21.2Z" class="g0_1671"/>
<path d="M69.9,227.2h.8V154.7h-.8v72.5Z" class="g1_1671"/>
<path d="M135.2,228.1h.7V153.9h-.7v74.2Z" class="g1_1671"/>
<path d="M241.8,228.1h.7V153.9h-.7v74.2Z" class="g1_1671"/>
<path d="M386.6,228.1h.7V153.9h-.7v74.2Z" class="g1_1671"/>
<path d="M541.2,228.1h.7V153.9h-.7v74.2Z" class="g1_1671"/>
<path d="M699.7,228.1h.7V153.9h-.7v74.2Z" class="g1_1671"/>
<path d="M851,227.2h.8V154.7H851v72.5Z" class="g1_1671"/>
<path d="M69.9,154.6H851.8v-.7H69.9v.7Z" class="g1_1671"/>
<path d="M69.9,179.1H851.8v-.7H69.9v.7Z" class="g1_1671"/>
<path d="M69.9,203.6H851.8v-.7H69.9v.7Z" class="g1_1671"/>
<path d="M69.9,228H851.8v-.8H69.9v.8Z" class="g1_1671"/>
</svg>