<?xml version="1.0" encoding="UTF-8" standalone="no"?>
<!DOCTYPE svg PUBLIC "-//W3C//DTD SVG 1.1//EN"
"http://www.w3.org/Graphics/SVG/1.1/DTD/svg11.dtd">
<svg viewBox="0 0 935 1210" version="1.1" xmlns="http://www.w3.org/2000/svg" xmlns:xlink="http://www.w3.org/1999/xlink">
<defs>
<clipPath id="c0_19"><path d="M766.7,59V41.4h72.2V59Z"/></clipPath>
<clipPath id="c1_19"><path d="M470.8,371.4v-1.1h.7v1.1Z"/></clipPath>
<style type="text/css"><![CDATA[
.g0_19{
fill: #000;
}
.g1_19{
fill: #FFF;
}
]]></style>
</defs>
<path d="M97.5,63.1v.3H840v-.3H97.5Z" class="g0_19"/>
<path d="M96.1,1114.3v.3v-.3Z" class="g0_19"/>
<path d="M838.9,1114.3v.3v-.3Z" class="g0_19"/>
<path d="M96.1,1114.3v.3H838.9v-.3H96.1Z" class="g0_19"/>
<image clip-path="url(#c0_19)" preserveAspectRatio="none" x="767" y="41" width="72" height="18" xlink:href="img/1.jpg"/>
<path d="M96.1,180.8v.3v-.3Z" class="g0_19"/>
<path d="M838.9,180.8v.3v-.3Z" class="g0_19"/>
<path d="M96.1,180.8v.3H838.9v-.3H96.1Z" class="g0_19"/>
<path d="M91.7,233.6h-.8V950.7h.8V233.6Z" class="g0_19"/>
<path d="M228.8,232.8h-.7V951.5h.7V232.8Z" class="g0_19"/>
<path d="M316.4,232.8h-.7V951.5h.7V232.8Z" class="g0_19"/>
<path d="M844,233.6h-.7V950.7h.7V233.6Z" class="g0_19"/>
<path d="M90.9,232.8v.8H844v-.8H90.9Z" class="g0_19"/>
<path d="M90.9,263.3v.7H844v-.7H90.9Z" class="g0_19"/>
<path d="M90.9,358.2v.8H844v-.8H90.9Z" class="g0_19"/>
<path d="M90.9,492.4v.7H844v-.7H90.9Z" class="g0_19"/>
<path d="M90.9,541.5v.8H844v-.8H90.9Z" class="g0_19"/>
<path d="M90.9,572v.7H844V572H90.9Z" class="g0_19"/>
<path d="M90.9,620.7v.8H844v-.8H90.9Z" class="g0_19"/>
<path d="M90.9,672.8v.7H844v-.7H90.9Z" class="g0_19"/>
<path d="M90.9,721.6v.7H844v-.7H90.9Z" class="g0_19"/>
<path d="M90.9,825.7v.7H844v-.7H90.9Z" class="g0_19"/>
<path d="M90.9,920.3v.7H844v-.7H90.9Z" class="g0_19"/>
<path d="M90.9,950.7v.8H844v-.8H90.9Z" class="g0_19"/>
<path d="M65.6,272.8h3v79.6h-3V272.8Z" class="g0_19"/>
<path clip-path="url(#c1_19)" d="M470.8,370.3h.7v1.1h-.7v-1.1Z" class="g1_19"/>
</svg>