<?xml version="1.0" encoding="UTF-8" standalone="no"?>
<!DOCTYPE svg PUBLIC "-//W3C//DTD SVG 1.1//EN"
"http://www.w3.org/Graphics/SVG/1.1/DTD/svg11.dtd">
<svg viewBox="0 0 935 1210" version="1.1" xmlns="http://www.w3.org/2000/svg" xmlns:xlink="http://www.w3.org/1999/xlink">
<defs>
<style type="text/css"><![CDATA[
.g0_713{
fill: #FFF;
}
.g1_713{
fill: #000;
}
]]></style>
</defs>
<path d="M68.9,1149.3H755.2v-21.2H68.9v21.2Z" class="g0_713"/>
<path d="M771.3,1149.3H855v-21.2H771.3v21.2Z" class="g0_713"/>
<path d="M69.9,340.4h.8V125.7h-.8V340.4Z" class="g1_713"/>
<path d="M257.5,341.1h.7V124.9h-.7V341.1Z" class="g1_713"/>
<path d="M314.8,341.1h.7V124.9h-.7V341.1Z" class="g1_713"/>
<path d="M389.2,341.1h.7V124.9h-.7V341.1Z" class="g1_713"/>
<path d="M456.9,341.1h.7V124.9h-.7V341.1Z" class="g1_713"/>
<path d="M853,340.4h.8V125.7H853V340.4Z" class="g1_713"/>
<path d="M69.9,125.7H853.8v-.8H69.9v.8Z" class="g1_713"/>
<path d="M69.9,182.1H853.8v-.7H69.9v.7Z" class="g1_713"/>
<path d="M69.9,221.9H853.8v-.7H69.9v.7Z" class="g1_713"/>
<path d="M69.9,261.6H853.8v-.7H69.9v.7Z" class="g1_713"/>
<path d="M69.9,301.3H853.8v-.7H69.9v.7Z" class="g1_713"/>
<path d="M69.9,341.1H853.8v-.7H69.9v.7Z" class="g1_713"/>
<path d="M69.9,468.7h.8V396.1h-.8v72.6Z" class="g1_713"/>
<path d="M169.7,469.4h.7v-74h-.7v74Z" class="g1_713"/>
<path d="M387,469.4h.8v-74H387v74Z" class="g1_713"/>
<path d="M617.9,469.4h.8v-74h-.8v74Z" class="g1_713"/>
<path d="M852.3,468.7h.8V396.1h-.8v72.6Z" class="g1_713"/>
<path d="M69.9,396.1H853.1v-.7H69.9v.7Z" class="g1_713"/>
<path d="M69.9,420.6H853.1v-.8H69.9v.8Z" class="g1_713"/>
<path d="M69.9,444.9H853.1v-.7H69.9v.7Z" class="g1_713"/>
<path d="M69.9,469.4H853.1v-.7H69.9v.7Z" class="g1_713"/>
<path d="M81.5,865.1h.7V587h-.7V865.1Z" class="g1_713"/>
<path d="M840.5,865.1h.7V587h-.7V865.1Z" class="g1_713"/>
<path d="M81.5,587H841.2v-.7H81.5v.7Z" class="g1_713"/>
<path d="M81.5,865.8H841.2v-.7H81.5v.7Z" class="g1_713"/>
<path d="M128.4,643.7H565.2V623.1H128.4v20.6Z" class="g0_713"/>
<path d="M128.4,623.4H565.6v-.7H128.4v.7Z" class="g1_713"/>
<path d="M564.9,644.1h.7v-21h-.7v21Z" class="g1_713"/>
<path d="M128.1,644.1H565.2v-.8H128.1v.8Z" class="g1_713"/>
<path d="M128.1,643.7h.7v-21h-.7v21Z" class="g1_713"/>
<path d="M356,622.9h.8v-.4H356v.4Z" class="g1_713"/>
<path d="M356,643.9h.8v-21H356v21Z" class="g1_713"/>
<path d="M220.4,709.1h489V688.5h-489v20.6Z" class="g0_713"/>
<path d="M220.4,688.9H709.8v-.8H220.4v.8Z" class="g1_713"/>
<path d="M709,709.5h.8v-21H709v21Z" class="g1_713"/>
<path d="M220,709.5H709.4v-.7H220v.7Z" class="g1_713"/>
<path d="M220,709.1h.7v-21H220v21Z" class="g1_713"/>
<path d="M479.1,688.2h.8v-.3h-.8v.3Z" class="g1_713"/>
<path d="M479.1,709.2h.8v-21h-.8v21Z" class="g1_713"/>
<path d="M661.9,680.5l.9,-3.9l.2,-.9l.9,.4l13,6.8l2.3,1.2l-2.7,.2l-14.6,1.1l-1,.1l.2,-1l.7,-.6l14.6,-1.1l.1,1.5l-.5,-.1l-12.9,-6.8l.8,-1.3l.4,.9l-.8,3.9Z" class="g1_713"/>
<path d="M661.1,684.5l.8,-4l1.6,.4l-.8,3.9Z" class="g1_713"/>
<path fill-rule="evenodd" d="M662.7,680.7l.8,-3.9l12.9,6.8l-14.6,1.1Z" class="g1_713"/>
<path d="M528.9,652.6l-.3,-.1l-.2,.7l.3,.1Z" class="g1_713"/>
<path d="M661.9,680.2l.4,.1l-.2,.7l-.4,-.1Z" class="g1_713"/>
<path d="M528.9,652.6l-.2,.7l133,27.6l.2,-.7Z" class="g1_713"/>
<path d="M434.9,677.1l.8,-3.9l.3,-.9l.9,.4l12.9,6.8l2.3,1.2l-2.7,.2L434.9,682l-1,.1l.1,-1l.8,-.6l14.6,-1.1v1.5l-.4,-.1L436.1,674l.8,-1.3l.4,.9l-.9,3.9Z" class="g1_713"/>
<path d="M434,681.1l.9,-4l1.5,.4l-.8,3.9Z" class="g1_713"/>
<path fill-rule="evenodd" d="M435.6,677.3l.8,-3.9l12.9,6.8l-14.5,1.1Z" class="g1_713"/>
<path d="M301.9,649.3l-.4,-.1l-.2,.7l.4,.1Z" class="g1_713"/>
<path d="M435,676.9l.3,.1l-.2,.7l-.3,-.1Z" class="g1_713"/>
<path d="M301.9,649.3l-.2,.7l133.1,27.6l.2,-.7Z" class="g1_713"/>
<path d="M116.8,772.4H553.6V751.8H116.8v20.6Z" class="g0_713"/>
<path d="M116.8,752.1H553.9v-.7H116.8v.7Z" class="g1_713"/>
<path d="M553.2,772.7h.7V751.8h-.7v20.9Z" class="g1_713"/>
<path d="M116.4,772.7H553.6V772H116.4v.7Z" class="g1_713"/>
<path d="M116.4,772.4h.8v-21h-.8v21Z" class="g1_713"/>
<path d="M344.4,751.5h.7v-.4h-.7v.4Z" class="g1_713"/>
<path d="M344.4,772.5h.7v-21h-.7v21Z" class="g1_713"/>
<path d="M208.7,837.7H697.8V817.1H208.7v20.6Z" class="g0_713"/>
<path d="M208.7,817.5H698.1v-.7H208.7v.7Z" class="g1_713"/>
<path d="M697.4,838.1h.7v-21h-.7v21Z" class="g1_713"/>
<path d="M208.4,838.1H697.8v-.7H208.4v.7Z" class="g1_713"/>
<path d="M208.4,837.7h.7V816.8h-.7v20.9Z" class="g1_713"/>
<path d="M467.6,816.9h.7v-.3h-.7v.3Z" class="g1_713"/>
<path d="M467.6,837.9h.7v-21h-.7v21Z" class="g1_713"/>
<path d="M652.9,820.6l1.6,-3.8l.5,-.9l.7,.7l11.4,9.1l2.2,1.7l-2.7,-.3l-14.5,-1.6l-1.1,-.2l.5,-.9l.7,-.5l14.5,1.7l-.1,1.5l-.5,-.2l-11.4,-9.1l1,-1.2l.2,.8l-1.6,3.8Z" class="g1_713"/>
<path d="M651.5,824.4l1.4,-3.8l1.4,.6l-1.4,3.7Z" class="g1_713"/>
<path fill-rule="evenodd" d="M653.6,820.9l1.5,-3.8l11.5,9.2l-14.5,-1.7Z" class="g1_713"/>
<path d="M522.7,766.7l-.3,-.1l-.3,.6l.3,.1Z" class="g1_713"/>
<path d="M653.1,820.3l.3,.1l-.3,.7l-.2,-.1Z" class="g1_713"/>
<path d="M522.7,766.7l-.3,.6L652.9,821l.2,-.7Z" class="g1_713"/>
<path d="M554.9,821.4l.9,-3.9l.2,-.9l1,.4l12.9,6.8l2.3,1.2l-2.7,.2l-14.6,1.1l-1,.1l.2,-1l.8,-.6l14.5,-1.1l.1,1.5l-.4,-.1l-13,-6.8L557,817l.3,.9l-.8,3.9Z" class="g1_713"/>
<path d="M554.1,825.4l.9,-4l1.5,.4l-.8,3.9Z" class="g1_713"/>
<path fill-rule="evenodd" d="M555.7,821.6l.8,-3.9l12.9,6.8l-14.5,1.1Z" class="g1_713"/>
<path d="M293.4,767.3h-.3l-.2,.7l.3,.1Z" class="g1_713"/>
<path d="M555,821.1l.4,.1l-.2,.7l-.3,-.1Z" class="g1_713"/>
<path d="M293.4,767.3l-.2,.8l261.7,53.7l.1,-.7Z" class="g1_713"/>
<path d="M589.1,817.7h.7v-.4h-.7v.4Z" class="g1_713"/>
<path d="M589.1,838.7h.7v-21h-.7v21Z" class="g1_713"/>
<path d="M342.3,818.4h.7V818h-.7v.4Z" class="g1_713"/>
<path d="M342.3,839.4h.7v-21h-.7v21Z" class="g1_713"/>
</svg>