<?xml version="1.0" encoding="UTF-8" standalone="no"?>
<!DOCTYPE svg PUBLIC "-//W3C//DTD SVG 1.1//EN"
"http://www.w3.org/Graphics/SVG/1.1/DTD/svg11.dtd">
<svg viewBox="0 0 825 990" version="1.1" xmlns="http://www.w3.org/2000/svg" xmlns:xlink="http://www.w3.org/1999/xlink">
<defs>
<style type="text/css"><![CDATA[
.g0_562{
fill: #000;
}
]]></style>
</defs>
<path d="M79.8,910.3h.3v-.8h-.3v.8Z" class="g0_562"/>
<path d="M80.1,910.3h650v-.8H80.1v.8Z" class="g0_562"/>
<path d="M144.7,290.5h1.6V247.8h-1.6v42.7Z" class="g0_562"/>
<path d="M218.1,292.1h.7V246.2h-.7v45.9Z" class="g0_562"/>
<path d="M327.7,292.1h.7V246.2h-.7v45.9Z" class="g0_562"/>
<path d="M346,292.1h.7V246.2H346v45.9Z" class="g0_562"/>
<path d="M364.2,292.1h.7V246.2h-.7v45.9Z" class="g0_562"/>
<path d="M437.3,292.1h.7V246.2h-.7v45.9Z" class="g0_562"/>
<path d="M583.3,292.1h.7V246.2h-.7v45.9Z" class="g0_562"/>
<path d="M729,290.5h1.6V247.8H729v42.7Z" class="g0_562"/>
<path d="M144.7,247.8H730.5v-1.6H144.7v1.6Z" class="g0_562"/>
<path d="M144.7,292.1H730.5v-1.5H144.7v1.5Z" class="g0_562"/>
</svg>