<?xml version="1.0" encoding="UTF-8" standalone="no"?>
<!DOCTYPE svg PUBLIC "-//W3C//DTD SVG 1.1//EN"
"http://www.w3.org/Graphics/SVG/1.1/DTD/svg11.dtd">
<svg viewBox="0 0 825 990" version="1.1" xmlns="http://www.w3.org/2000/svg" xmlns:xlink="http://www.w3.org/1999/xlink">
<defs>
<style type="text/css"><![CDATA[
.g0_614{
fill: #000;
}
]]></style>
</defs>
<path d="M79.8,910.3h.3v-.8h-.3v.8Z" class="g0_614"/>
<path d="M80.1,910.3h650v-.8H80.1v.8Z" class="g0_614"/>
<path d="M144.7,369h1.6V326.2h-1.6V369Z" class="g0_614"/>
<path d="M218.1,370.5h.7V324.7h-.7v45.8Z" class="g0_614"/>
<path d="M364.2,370.5h.7V324.7h-.7v45.8Z" class="g0_614"/>
<path d="M437.3,370.5h.7V324.7h-.7v45.8Z" class="g0_614"/>
<path d="M583.3,370.5h.7V324.7h-.7v45.8Z" class="g0_614"/>
<path d="M729,369h1.6V326.2H729V369Z" class="g0_614"/>
<path d="M144.7,326.2H730.5v-1.5H144.7v1.5Z" class="g0_614"/>
<path d="M144.7,370.5H730.5V369H144.7v1.5Z" class="g0_614"/>
</svg>