<?xml version="1.0" encoding="UTF-8" standalone="no"?>
<!DOCTYPE svg PUBLIC "-//W3C//DTD SVG 1.1//EN"
"http://www.w3.org/Graphics/SVG/1.1/DTD/svg11.dtd">
<svg viewBox="0 0 935 1210" version="1.1" xmlns="http://www.w3.org/2000/svg" xmlns:xlink="http://www.w3.org/1999/xlink">
<defs>
<style type="text/css"><![CDATA[
.g0_520{
fill: #FFF;
}
.g1_520{
fill: #000;
}
]]></style>
</defs>
<path d="M165,1149.3H852.5v-21.2H165v21.2Z" class="g0_520"/>
<path d="M68.8,1149.3h82.5v-21.2H68.8v21.2Z" class="g0_520"/>
<path d="M68.6,386.2h.7V131.8h-.7V386.2Z" class="g1_520"/>
<path d="M184.7,386.9h.7V131h-.7V386.9Z" class="g1_520"/>
<path d="M375.8,386.9h.8V131h-.8V386.9Z" class="g1_520"/>
<path d="M436.5,386.9h.8V131h-.8V386.9Z" class="g1_520"/>
<path d="M513.9,386.9h.7V131h-.7V386.9Z" class="g1_520"/>
<path d="M848.6,386.2h.7V131.8h-.7V386.2Z" class="g1_520"/>
<path d="M68.6,131.7H849.3V131H68.6v.7Z" class="g1_520"/>
<path d="M68.6,169.9H849.3v-.7H68.6v.7Z" class="g1_520"/>
<path d="M68.6,192.9H849.3v-.8H68.6v.8Z" class="g1_520"/>
<path d="M68.6,215.8H849.3v-.7H68.6v.7Z" class="g1_520"/>
<path d="M68.6,238.7H849.3V238H68.6v.7Z" class="g1_520"/>
<path d="M68.6,261.6H849.3v-.7H68.6v.7Z" class="g1_520"/>
<path d="M68.6,301.3H849.3v-.7H68.6v.7Z" class="g1_520"/>
<path d="M68.6,341.1H849.3v-.7H68.6v.7Z" class="g1_520"/>
<path d="M68.6,364H849.3v-.7H68.6v.7Z" class="g1_520"/>
<path d="M68.6,386.9H849.3v-.7H68.6v.7Z" class="g1_520"/>
</svg>