<?xml version="1.0" encoding="UTF-8" standalone="no"?>
<!DOCTYPE svg PUBLIC "-//W3C//DTD SVG 1.1//EN"
"http://www.w3.org/Graphics/SVG/1.1/DTD/svg11.dtd">
<svg viewBox="0 0 935 1210" version="1.1" xmlns="http://www.w3.org/2000/svg" xmlns:xlink="http://www.w3.org/1999/xlink">
<defs>
<clipPath id="c0_3160"><path d="M97.3,59.2V41.4h72.1V59.2Z"/></clipPath>
<style type="text/css"><![CDATA[
.g0_3160{
fill: #000;
}
.g1_3160{
fill: none;
stroke: #000;
stroke-width: 0.763;
}
.g2_3160{
fill: #FFF;
stroke: #000;
stroke-width: 1.527;
}
]]></style>
</defs>
<path d="M96.3,63.3H838.8v-.4H96.3v.4Z" class="g0_3160"/>
<path d="M96.1,1114.5h.2v-.4h-.2v.4Z" class="g0_3160"/>
<path d="M96.3,1114.5H838.9v-.4H96.3v.4Z" class="g0_3160"/>
<image clip-path="url(#c0_3160)" preserveAspectRatio="none" x="97" y="41" width="73" height="18" xlink:href="img/1.jpg"/>
<path d="M304.7,547.3v19.3m-.6,22.6v14.3H211V486.9h93.9v19.9m340.8,41.3v28.7H319.5" class="g1_3160"/>
<path d="M301.1,505.6l3.8,6.6l3.8,-6.6h-7.6Z" class="g0_3160"/>
<path d="M568.3,542.8H720.5V518.1H568.3v24.7Z" class="g2_3160"/>
<path d="M228.4,542.8H380.6V518.1H228.4v24.7Z" class="g2_3160"/>
</svg>