<?xml version="1.0" encoding="UTF-8" standalone="no"?>
<!DOCTYPE svg PUBLIC "-//W3C//DTD SVG 1.1//EN"
"http://www.w3.org/Graphics/SVG/1.1/DTD/svg11.dtd">
<svg viewBox="0 0 935 1210" version="1.1" xmlns="http://www.w3.org/2000/svg" xmlns:xlink="http://www.w3.org/1999/xlink">
<defs>
<style type="text/css"><![CDATA[
.g0_206{
fill: #FFF;
}
.g1_206{
fill: #000;
}
]]></style>
</defs>
<path d="M165,1149.3H852.5v-21.2H165v21.2Z" class="g0_206"/>
<path d="M68.8,1149.3h82.5v-21.2H68.8v21.2Z" class="g0_206"/>
<path d="M68.6,364.7h.7v-239h-.7v239Z" class="g1_206"/>
<path d="M388.9,365.6h.8V124.9h-.8V365.6Z" class="g1_206"/>
<path d="M428,365.6h.7V124.9H428V365.6Z" class="g1_206"/>
<path d="M501.3,365.6h.8V124.9h-.8V365.6Z" class="g1_206"/>
<path d="M572.7,365.6h.8V124.9h-.8V365.6Z" class="g1_206"/>
<path d="M848.7,364.7h.8v-239h-.8v239Z" class="g1_206"/>
<path d="M68.6,125.7H849.5v-.8H68.6v.8Z" class="g1_206"/>
<path d="M68.6,179.1H849.5v-.7H68.6v.7Z" class="g1_206"/>
<path d="M68.6,252.4H849.5v-.7H68.6v.7Z" class="g1_206"/>
<path d="M68.6,309H849.5v-.7H68.6v.7Z" class="g1_206"/>
<path d="M68.6,365.5H849.5v-.8H68.6v.8Z" class="g1_206"/>
<path d="M68.6,493.1h.7V420.6h-.7v72.5Z" class="g1_206"/>
<path d="M133.3,493.9h.7V419.7h-.7v74.2Z" class="g1_206"/>
<path d="M303.6,493.9h.7V419.7h-.7v74.2Z" class="g1_206"/>
<path d="M481.9,493.9h.7V419.7h-.7v74.2Z" class="g1_206"/>
<path d="M658.4,493.9h.7V419.7h-.7v74.2Z" class="g1_206"/>
<path d="M849.7,493.1h.7V420.6h-.7v72.5Z" class="g1_206"/>
<path d="M68.6,420.6H850.4v-.8H68.6v.8Z" class="g1_206"/>
<path d="M68.6,444.9H850.4v-.7H68.6v.7Z" class="g1_206"/>
<path d="M68.6,469.4H850.4v-.7H68.6v.7Z" class="g1_206"/>
<path d="M68.6,493.9H850.4v-.7H68.6v.7Z" class="g1_206"/>
</svg>