<?xml version="1.0" encoding="UTF-8" standalone="no"?>
<!DOCTYPE svg PUBLIC "-//W3C//DTD SVG 1.1//EN"
"http://www.w3.org/Graphics/SVG/1.1/DTD/svg11.dtd">
<svg viewBox="0 0 935 1210" version="1.1" xmlns="http://www.w3.org/2000/svg" xmlns:xlink="http://www.w3.org/1999/xlink">
<defs>
<clipPath id="c0_1595"><path d="M97.3,59.2V41.4h72.1V59.2Z"/></clipPath>
<style type="text/css"><![CDATA[
.g0_1595{
fill: #000;
}
]]></style>
</defs>
<path d="M96.2,62.9v.3H838.7v-.3H96.2Z" class="g0_1595"/>
<path d="M96.2,1114.1h-.1v.4h.1v-.4Z" class="g0_1595"/>
<path d="M838.7,1114.1h.2v.4h-.2v-.4Z" class="g0_1595"/>
<path d="M96.2,1114.1v.4H838.7v-.4H96.2Z" class="g0_1595"/>
<image clip-path="url(#c0_1595)" preserveAspectRatio="none" x="97" y="41" width="72" height="18" xlink:href="img/1.jpg"/>
<path d="M96.6,896.8h-.7v111.1h.7V896.8Z" class="g0_1595"/>
<path d="M244.8,893.7h-.7v115h.7v-115Z" class="g0_1595"/>
<path d="M284.5,893.7h-.7v115h.7v-115Z" class="g0_1595"/>
<path d="M338,893.7h-.8v115h.8v-115Z" class="g0_1595"/>
<path d="M412.9,893.7h-.8v115h.8v-115Z" class="g0_1595"/>
<path d="M844.2,896.8h-.7v111.1h.7V896.8Z" class="g0_1595"/>
<path d="M95.9,893.8v3H844.2v-3H95.9Z" class="g0_1595"/>
<path d="M95.9,936.5v3.1H844.2v-3.1H95.9Z" class="g0_1595"/>
<path d="M95.9,1007.9v.8H844.2v-.8H95.9Z" class="g0_1595"/>
</svg>