<?xml version="1.0" encoding="UTF-8" standalone="no"?>
<!DOCTYPE svg PUBLIC "-//W3C//DTD SVG 1.1//EN"
"http://www.w3.org/Graphics/SVG/1.1/DTD/svg11.dtd">
<svg viewBox="0 0 935 1210" version="1.1" xmlns="http://www.w3.org/2000/svg" xmlns:xlink="http://www.w3.org/1999/xlink">
<defs>
<style type="text/css"><![CDATA[
.g0_372{
fill: #FFF;
}
.g1_372{
fill: #000;
}
]]></style>
</defs>
<path d="M68.8,1149.3H852.5v-21.2H68.8v21.2Z" class="g0_372"/>
<path d="M68.6,1099.6h.7V142.4h-.7v957.2Z" class="g1_372"/>
<path d="M125.3,1100.5h.7V183h-.7v917.5Z" class="g1_372"/>
<path d="M182.1,1100.5h.7V141.7h-.7v958.8Z" class="g1_372"/>
<path d="M421.5,1100.5h.7V141.7h-.7v958.8Z" class="g1_372"/>
<path d="M514.7,1100.5h.7V141.7h-.7v958.8Z" class="g1_372"/>
<path d="M850.9,1099.6h.8V142.4h-.8v957.2Z" class="g1_372"/>
<path d="M68.6,142.4H851.7v-.7H68.6v.7Z" class="g1_372"/>
<path d="M68.6,183.7H182.8V183H68.6v.7Z" class="g1_372"/>
<path d="M68.6,208.2H851.7v-.8H68.6v.8Z" class="g1_372"/>
<path d="M182.1,664.9H851.7v-.7H182.1v.7Z" class="g1_372"/>
<path d="M182.1,689.4H851.7v-.7H182.1v.7Z" class="g1_372"/>
<path d="M182.1,768.9H851.7v-.7H182.1v.7Z" class="g1_372"/>
<path d="M182.1,793.3H851.7v-.8H182.1v.8Z" class="g1_372"/>
<path d="M182.1,856H851.7v-.8H182.1v.8Z" class="g1_372"/>
<path d="M182.1,880.4H851.7v-.8H182.1v.8Z" class="g1_372"/>
<path d="M182.1,959.8H851.7v-.7H182.1v.7Z" class="g1_372"/>
<path d="M182.1,984.3H851.7v-.7H182.1v.7Z" class="g1_372"/>
<path d="M182.1,1030.2H851.7v-.8H182.1v.8Z" class="g1_372"/>
<path d="M182.1,1076H851.7v-.7H182.1v.7Z" class="g1_372"/>
<path d="M68.6,1100.4H851.7v-.8H68.6v.8Z" class="g1_372"/>
</svg>