<?xml version="1.0" encoding="UTF-8" standalone="no"?>
<!DOCTYPE svg PUBLIC "-//W3C//DTD SVG 1.1//EN"
"http://www.w3.org/Graphics/SVG/1.1/DTD/svg11.dtd">
<svg viewBox="0 0 935 1210" version="1.1" xmlns="http://www.w3.org/2000/svg" xmlns:xlink="http://www.w3.org/1999/xlink">
<defs>
<style type="text/css"><![CDATA[
.g0_2110{
fill: #FFF;
}
.g1_2110{
fill: #0860A8;
}
.g2_2110{
fill: #000;
}
]]></style>
</defs>
<path d="M165,1149.3H852.5v-21.2H165v21.2Z" class="g0_2110"/>
<path d="M68.8,1149.3h82.5v-21.2H68.8v21.2Z" class="g0_2110"/>
<path d="M523.4,1045.2h328v-.8h-328v.8Z" class="g1_2110"/>
<path d="M68.9,1062H742.2v-.9H68.9v.9Z" class="g1_2110"/>
<path d="M68.6,348h.7V125.7h-.7V348Z" class="g2_2110"/>
<path d="M275.3,348.7h.7V124.9h-.7V348.7Z" class="g2_2110"/>
<path d="M318.8,348.7h.7V124.9h-.7V348.7Z" class="g2_2110"/>
<path d="M393.3,348.7h.8V124.9h-.8V348.7Z" class="g2_2110"/>
<path d="M483,348.7h.7V124.9H483V348.7Z" class="g2_2110"/>
<path d="M854.3,348h.8V125.7h-.8V348Z" class="g2_2110"/>
<path d="M68.6,125.7H855.1v-.8H68.6v.8Z" class="g2_2110"/>
<path d="M68.6,179.1H855.1v-.7H68.6v.7Z" class="g2_2110"/>
<path d="M68.6,235.7H855.1v-.8H68.6v.8Z" class="g2_2110"/>
<path d="M68.6,292.1H855.1v-.7H68.6v.7Z" class="g2_2110"/>
<path d="M68.6,348.7H855.1V348H68.6v.7Z" class="g2_2110"/>
<path d="M68.6,451.8h.7V403.7h-.7v48.1Z" class="g2_2110"/>
<path d="M129.1,452.7h.7V403h-.7v49.7Z" class="g2_2110"/>
<path d="M242.8,452.7h.8V403h-.8v49.7Z" class="g2_2110"/>
<path d="M394.2,452.7h.7V403h-.7v49.7Z" class="g2_2110"/>
<path d="M548.6,452.7h.8V403h-.8v49.7Z" class="g2_2110"/>
<path d="M696.2,452.7h.7V403h-.7v49.7Z" class="g2_2110"/>
<path d="M850.8,451.8h.8V403.7h-.8v48.1Z" class="g2_2110"/>
<path d="M68.6,403.7h783V403H68.6v.7Z" class="g2_2110"/>
<path d="M68.6,428.2h783v-.8H68.6v.8Z" class="g2_2110"/>
<path d="M68.6,452.7h783v-.8H68.6v.8Z" class="g2_2110"/>
<path d="M71.9,966.7h.7V796.4h-.7V966.7Z" class="g2_2110"/>
<path d="M259,967.5h.8V795.7H259V967.5Z" class="g2_2110"/>
<path d="M409.4,967.5h.7V795.7h-.7V967.5Z" class="g2_2110"/>
<path d="M848.6,966.7h.7V796.4h-.7V966.7Z" class="g2_2110"/>
<path d="M71.8,796.4H849.3v-.7H71.8v.7Z" class="g2_2110"/>
<path d="M71.8,820.8H849.3v-.7H71.8v.7Z" class="g2_2110"/>
<path d="M71.8,845.3H849.3v-.8H71.8v.8Z" class="g2_2110"/>
<path d="M71.8,869.7H849.3V869H71.8v.7Z" class="g2_2110"/>
<path d="M71.8,894.1H849.3v-.7H71.8v.7Z" class="g2_2110"/>
<path d="M71.8,918.6H849.3v-.7H71.8v.7Z" class="g2_2110"/>
<path d="M71.8,943.1H849.3v-.8H71.8v.8Z" class="g2_2110"/>
<path d="M71.8,967.5H849.3v-.8H71.8v.8Z" class="g2_2110"/>
</svg>