<?xml version="1.0" encoding="UTF-8" standalone="no"?>
<!DOCTYPE svg PUBLIC "-//W3C//DTD SVG 1.1//EN"
"http://www.w3.org/Graphics/SVG/1.1/DTD/svg11.dtd">
<svg viewBox="0 0 935 1210" version="1.1" xmlns="http://www.w3.org/2000/svg" xmlns:xlink="http://www.w3.org/1999/xlink">
<defs>
<style type="text/css"><![CDATA[
.g0_674{
fill: #FFF;
}
.g1_674{
fill: #000;
}
]]></style>
</defs>
<path d="M165,1149.3H852.5v-21.2H165v21.2Z" class="g0_674"/>
<path d="M68.8,1149.3h82.5v-21.2H68.8v21.2Z" class="g0_674"/>
<path d="M68.6,340.4h.7V125.7h-.7V340.4Z" class="g1_674"/>
<path d="M239.3,341.1h.7V124.9h-.7V341.1Z" class="g1_674"/>
<path d="M299.5,341.1h.7V124.9h-.7V341.1Z" class="g1_674"/>
<path d="M374,341.1h.7V124.9H374V341.1Z" class="g1_674"/>
<path d="M464,341.1h.8V124.9H464V341.1Z" class="g1_674"/>
<path d="M851.5,340.4h.7V125.7h-.7V340.4Z" class="g1_674"/>
<path d="M68.6,125.7H852.2v-.8H68.6v.8Z" class="g1_674"/>
<path d="M68.6,182.1H852.2v-.7H68.6v.7Z" class="g1_674"/>
<path d="M68.6,221.9H852.2v-.7H68.6v.7Z" class="g1_674"/>
<path d="M68.6,261.6H852.2v-.7H68.6v.7Z" class="g1_674"/>
<path d="M68.6,301.3H852.2v-.7H68.6v.7Z" class="g1_674"/>
<path d="M68.6,341.1H852.2v-.7H68.6v.7Z" class="g1_674"/>
<path d="M68.6,444.2h.7V396.1h-.7v48.1Z" class="g1_674"/>
<path d="M153.6,444.9h.8V395.4h-.8v49.5Z" class="g1_674"/>
<path d="M373.7,444.9h.8V395.4h-.8v49.5Z" class="g1_674"/>
<path d="M595.7,444.9h.8V395.4h-.8v49.5Z" class="g1_674"/>
<path d="M849.8,444.2h.8V396.1h-.8v48.1Z" class="g1_674"/>
<path d="M68.6,396.1h782v-.7H68.6v.7Z" class="g1_674"/>
<path d="M68.6,420.6h782v-.8H68.6v.8Z" class="g1_674"/>
<path d="M68.6,444.9h782v-.7H68.6v.7Z" class="g1_674"/>
</svg>