<?xml version="1.0" encoding="UTF-8" standalone="no"?>
<!DOCTYPE svg PUBLIC "-//W3C//DTD SVG 1.1//EN"
"http://www.w3.org/Graphics/SVG/1.1/DTD/svg11.dtd">
<svg viewBox="0 0 935 1210" version="1.1" xmlns="http://www.w3.org/2000/svg" xmlns:xlink="http://www.w3.org/1999/xlink">
<defs>
<clipPath id="c0_165"><path d="M766.7,59V41.4h72.2V59Z"/></clipPath>
<style type="text/css"><![CDATA[
.g0_165{
fill: #000;
}
]]></style>
</defs>
<path d="M97.5,63.1v.3H840v-.3H97.5Z" class="g0_165"/>
<path d="M96.1,1114.3v.3v-.3Z" class="g0_165"/>
<path d="M838.9,1114.3v.3v-.3Z" class="g0_165"/>
<path d="M96.1,1114.3v.3H838.9v-.3H96.1Z" class="g0_165"/>
<image clip-path="url(#c0_165)" preserveAspectRatio="none" x="767" y="41" width="72" height="18" xlink:href="img/1.jpg"/>
<path d="M97.2,370h-.8V515.9h.8V370Z" class="g0_165"/>
<path d="M446.6,369.2h-.8V516.6h.8V369.2Z" class="g0_165"/>
<path d="M838.5,370h-.7V515.9h.7V370Z" class="g0_165"/>
<path d="M96.4,369.2v.8H838.5v-.8H96.4Z" class="g0_165"/>
<path d="M96.4,393.8v.7H838.5v-.7H96.4Z" class="g0_165"/>
<path d="M96.4,418.3v.8H838.5v-.8H96.4Z" class="g0_165"/>
<path d="M96.4,442.5v.8H838.5v-.8H96.4Z" class="g0_165"/>
<path d="M96.4,467.1v.7H838.5v-.7H96.4Z" class="g0_165"/>
<path d="M96.4,491.7v.7H838.5v-.7H96.4Z" class="g0_165"/>
<path d="M96.4,515.9v.7H838.5v-.7H96.4Z" class="g0_165"/>
<path d="M99,747.6h-.7v213H99v-213Z" class="g0_165"/>
<path d="M194.3,746.5h-.7V961.4h.7V746.5Z" class="g0_165"/>
<path d="M335.9,746.5h-.8V961.4h.8V746.5Z" class="g0_165"/>
<path d="M836.7,747.6H836v213h.7v-213Z" class="g0_165"/>
<path d="M98.3,746.9v.7H836.7v-.7H98.3Z" class="g0_165"/>
<path d="M98.3,771.1v.7H836.7v-.7H98.3Z" class="g0_165"/>
<path d="M98.3,832.3v.7H836.7v-.7H98.3Z" class="g0_165"/>
<path d="M98.3,875.2v.7H836.7v-.7H98.3Z" class="g0_165"/>
<path d="M98.3,917.7v.8H836.7v-.8H98.3Z" class="g0_165"/>
<path d="M98.3,960.6v.8H836.7v-.8H98.3Z" class="g0_165"/>
</svg>