<?xml version="1.0" encoding="UTF-8" standalone="no"?>
<!DOCTYPE svg PUBLIC "-//W3C//DTD SVG 1.1//EN"
"http://www.w3.org/Graphics/SVG/1.1/DTD/svg11.dtd">
<svg viewBox="0 0 935 1210" version="1.1" xmlns="http://www.w3.org/2000/svg" xmlns:xlink="http://www.w3.org/1999/xlink">
<defs>
<style type="text/css"><![CDATA[
.g0_2100{
fill: #FFF;
}
.g1_2100{
fill: #000;
}
]]></style>
</defs>
<path d="M165,1149.3H852.5v-21.2H165v21.2Z" class="g0_2100"/>
<path d="M68.8,1149.3h82.5v-21.2H68.8v21.2Z" class="g0_2100"/>
<path d="M68.9,287.8H851.1V258.2H68.9v29.6Z" class="g0_2100"/>
<path d="M69.9,281.1h53.5V268.7H69.9v12.4Z" class="g0_2100"/>
<path d="M68.6,257.9h.7V125.7h-.7V257.9Z" class="g1_2100"/>
<path d="M318,258.6h.7V124.9H318V258.6Z" class="g1_2100"/>
<path d="M361.5,258.6h.8V124.9h-.8V258.6Z" class="g1_2100"/>
<path d="M436,258.6h.7V124.9H436V258.6Z" class="g1_2100"/>
<path d="M515.8,258.6h.7V124.9h-.7V258.6Z" class="g1_2100"/>
<path d="M850.8,257.9h.7V125.7h-.7V257.9Z" class="g1_2100"/>
<path d="M68.6,125.7h783v-.8H68.6v.8Z" class="g1_2100"/>
<path d="M68.6,179.1h783v-.7H68.6v.7Z" class="g1_2100"/>
<path d="M68.6,218.8h783v-.7H68.6v.7Z" class="g1_2100"/>
<path d="M68.6,258.6h783v-.7H68.6v.7Z" class="g1_2100"/>
<path d="M68.6,411.2h.7V363.1h-.7v48.1Z" class="g1_2100"/>
<path d="M137.4,412h.7V362.3h-.7V412Z" class="g1_2100"/>
<path d="M253.9,412h.7V362.3h-.7V412Z" class="g1_2100"/>
<path d="M405.4,412h.8V362.3h-.8V412Z" class="g1_2100"/>
<path d="M553.3,412h.7V362.3h-.7V412Z" class="g1_2100"/>
<path d="M702.1,412h.7V362.3h-.7V412Z" class="g1_2100"/>
<path d="M846.4,411.2h.7V363.1h-.7v48.1Z" class="g1_2100"/>
<path d="M68.6,363H847.1v-.7H68.6v.7Z" class="g1_2100"/>
<path d="M68.6,387.5H847.1v-.8H68.6v.8Z" class="g1_2100"/>
<path d="M68.6,412H847.1v-.8H68.6v.8Z" class="g1_2100"/>
</svg>