<?xml version="1.0" encoding="UTF-8" standalone="no"?>
<!DOCTYPE svg PUBLIC "-//W3C//DTD SVG 1.1//EN"
"http://www.w3.org/Graphics/SVG/1.1/DTD/svg11.dtd">
<svg viewBox="0 0 935 1210" version="1.1" xmlns="http://www.w3.org/2000/svg" xmlns:xlink="http://www.w3.org/1999/xlink">
<defs>
<style type="text/css"><![CDATA[
.g0_1628{
fill: #FFF;
}
.g1_1628{
fill: #000;
}
]]></style>
</defs>
<path d="M165,1149.3H852.5v-21.2H165v21.2Z" class="g0_1628"/>
<path d="M68.8,1149.3h82.5v-21.2H68.8v21.2Z" class="g0_1628"/>
<path d="M68.6,322h.7V125.7h-.7V322Z" class="g1_1628"/>
<path d="M218.7,322.8h.8V124.9h-.8V322.8Z" class="g1_1628"/>
<path d="M388.9,322.8h.8V124.9h-.8V322.8Z" class="g1_1628"/>
<path d="M426.8,322.8h.7V124.9h-.7V322.8Z" class="g1_1628"/>
<path d="M500.2,322.8h.8V124.9h-.8V322.8Z" class="g1_1628"/>
<path d="M571.6,322.8h.8V124.9h-.8V322.8Z" class="g1_1628"/>
<path d="M848.7,322h.8V125.7h-.8V322Z" class="g1_1628"/>
<path d="M68.6,125.7H849.5v-.8H68.6v.8Z" class="g1_1628"/>
<path d="M68.6,163.8H849.5v-.7H68.6v.7Z" class="g1_1628"/>
<path d="M68.6,203.6H849.5v-.7H68.6v.7Z" class="g1_1628"/>
<path d="M68.6,243.3H849.5v-.7H68.6v.7Z" class="g1_1628"/>
<path d="M68.6,283H849.5v-.8H68.6v.8Z" class="g1_1628"/>
<path d="M68.6,322.8H849.5V322H68.6v.8Z" class="g1_1628"/>
<path d="M68.6,425.9h.7V377.8h-.7v48.1Z" class="g1_1628"/>
<path d="M140.3,426.6h.7V377h-.7v49.6Z" class="g1_1628"/>
<path d="M312.2,426.6h.7V377h-.7v49.6Z" class="g1_1628"/>
<path d="M487.3,426.6h.7V377h-.7v49.6Z" class="g1_1628"/>
<path d="M665.3,426.6h.7V377h-.7v49.6Z" class="g1_1628"/>
<path d="M847.4,425.9h.7V377.8h-.7v48.1Z" class="g1_1628"/>
<path d="M68.6,377.8H848.1V377H68.6v.8Z" class="g1_1628"/>
<path d="M68.6,402.2H848.1v-.7H68.6v.7Z" class="g1_1628"/>
<path d="M68.6,426.6H848.1v-.7H68.6v.7Z" class="g1_1628"/>
</svg>