<?xml version="1.0" encoding="UTF-8" standalone="no"?>
<!DOCTYPE svg PUBLIC "-//W3C//DTD SVG 1.1//EN"
"http://www.w3.org/Graphics/SVG/1.1/DTD/svg11.dtd">
<svg viewBox="0 0 935 1210" version="1.1" xmlns="http://www.w3.org/2000/svg" xmlns:xlink="http://www.w3.org/1999/xlink">
<defs>
<style type="text/css"><![CDATA[
.g0_182{
fill: #FFF;
}
.g1_182{
fill: #000;
}
]]></style>
</defs>
<path d="M68.8,1149.3H852.5v-21.2H68.8v21.2Z" class="g0_182"/>
<path d="M68.6,1089h.7V124.1h-.7V1089Z" class="g1_182"/>
<path d="M125.3,1089.7h.7V164.6h-.7v925.1Z" class="g1_182"/>
<path d="M182.1,1089.7h.7V123.4h-.7v966.3Z" class="g1_182"/>
<path d="M440.1,1089.7h.7V123.4h-.7v966.3Z" class="g1_182"/>
<path d="M533.5,1089.7h.7V123.4h-.7v966.3Z" class="g1_182"/>
<path d="M849.8,1089h.8V124.1h-.8V1089Z" class="g1_182"/>
<path d="M68.6,124.1h782v-.7H68.6v.7Z" class="g1_182"/>
<path d="M68.6,165.4H182.8v-.8H68.6v.8Z" class="g1_182"/>
<path d="M68.6,189.8h782v-.7H68.6v.7Z" class="g1_182"/>
<path d="M68.6,235.7h782v-.8H68.6v.8Z" class="g1_182"/>
<path d="M68.6,260.1h782v-.8H68.6v.8Z" class="g1_182"/>
<path d="M68.6,305.9h782v-.7H68.6v.7Z" class="g1_182"/>
<path d="M68.6,330.4h782v-.8H68.6v.8Z" class="g1_182"/>
<path d="M68.6,376.2h782v-.7H68.6v.7Z" class="g1_182"/>
<path d="M68.6,400.7h782v-.8H68.6v.8Z" class="g1_182"/>
<path d="M68.6,425.2h782v-.8H68.6v.8Z" class="g1_182"/>
<path d="M68.6,449.5h782v-.7H68.6v.7Z" class="g1_182"/>
<path d="M68.6,495.4h782v-.8H68.6v.8Z" class="g1_182"/>
<path d="M68.6,519.8h782v-.7H68.6v.7Z" class="g1_182"/>
<path d="M68.6,565.7h782v-.8H68.6v.8Z" class="g1_182"/>
<path d="M68.6,590.2h782v-.8H68.6v.8Z" class="g1_182"/>
<path d="M68.6,631.4h782v-.7H68.6v.7Z" class="g1_182"/>
<path d="M68.6,677.2h782v-.7H68.6v.7Z" class="g1_182"/>
<path d="M68.6,701.6h782v-.7H68.6v.7Z" class="g1_182"/>
<path d="M68.6,747.4h782v-.7H68.6v.7Z" class="g1_182"/>
<path d="M68.6,771.9h782v-.7H68.6v.7Z" class="g1_182"/>
<path d="M68.6,817.8h782V817H68.6v.8Z" class="g1_182"/>
<path d="M68.6,842.2h782v-.7H68.6v.7Z" class="g1_182"/>
<path d="M68.6,888.1h782v-.8H68.6v.8Z" class="g1_182"/>
<path d="M68.6,912.5h782v-.8H68.6v.8Z" class="g1_182"/>
<path d="M68.6,958.3h782v-.7H68.6v.7Z" class="g1_182"/>
<path d="M68.6,982.8h782V982H68.6v.8Z" class="g1_182"/>
<path d="M68.6,1024h782v-.7H68.6v.7Z" class="g1_182"/>
<path d="M68.6,1065.3h782v-.8H68.6v.8Z" class="g1_182"/>
<path d="M68.6,1089.7h782v-.7H68.6v.7Z" class="g1_182"/>
</svg>