<?xml version="1.0" encoding="UTF-8" standalone="no"?>
<!DOCTYPE svg PUBLIC "-//W3C//DTD SVG 1.1//EN"
"http://www.w3.org/Graphics/SVG/1.1/DTD/svg11.dtd">
<svg viewBox="0 0 935 1210" version="1.1" xmlns="http://www.w3.org/2000/svg" xmlns:xlink="http://www.w3.org/1999/xlink">
<defs>
<style type="text/css"><![CDATA[
.g0_665{
fill: #FFF;
}
.g1_665{
fill: #000;
}
]]></style>
</defs>
<path d="M68.9,1149.3H755.2v-21.2H68.9v21.2Z" class="g0_665"/>
<path d="M771.3,1149.3H855v-21.2H771.3v21.2Z" class="g0_665"/>
<path d="M69.9,308.3h.8V125.7h-.8V308.3Z" class="g1_665"/>
<path d="M69.9,601.6h.8V309h-.8V601.6Z" class="g1_665"/>
<path d="M334.4,602.3h.7V124.9h-.7V602.3Z" class="g1_665"/>
<path d="M372.3,602.3h.7V124.9h-.7V602.3Z" class="g1_665"/>
<path d="M445.6,602.3h.7V124.9h-.7V602.3Z" class="g1_665"/>
<path d="M526.2,602.3h.7V124.9h-.7V602.3Z" class="g1_665"/>
<path d="M847.6,308.3h.7V125.7h-.7V308.3Z" class="g1_665"/>
<path d="M847.6,601.6h.7V309h-.7V601.6Z" class="g1_665"/>
<path d="M69.9,125.7H848.3v-.8H69.9v.8Z" class="g1_665"/>
<path d="M69.9,179.1H848.3v-.7H69.9v.7Z" class="g1_665"/>
<path d="M69.9,235.7H848.3v-.8H69.9v.8Z" class="g1_665"/>
<path d="M69.9,309H848.3v-.7H69.9v.7Z" class="g1_665"/>
<path d="M69.9,382.3H848.3v-.7H69.9v.7Z" class="g1_665"/>
<path d="M69.9,455.7H848.3v-.8H69.9v.8Z" class="g1_665"/>
<path d="M69.9,529H848.3v-.7H69.9v.7Z" class="g1_665"/>
<path d="M69.9,602.3H848.3v-.7H69.9v.7Z" class="g1_665"/>
<path d="M69.9,754.3h.8v-97h-.8v97Z" class="g1_665"/>
<path d="M137,730.7h.8V656.6H137v74.1Z" class="g1_665"/>
<path d="M137,755.2h.8V729.9H137v25.3Z" class="g1_665"/>
<path d="M227.1,730.7h.8V656.6h-.8v74.1Z" class="g1_665"/>
<path d="M227.1,755.2h.8V729.9h-.8v25.3Z" class="g1_665"/>
<path d="M380,730.7h.8V656.6H380v74.1Z" class="g1_665"/>
<path d="M380,755.2h.8V729.9H380v25.3Z" class="g1_665"/>
<path d="M538.6,730.7h.8V656.6h-.8v74.1Z" class="g1_665"/>
<path d="M538.6,755.2h.8V729.9h-.8v25.3Z" class="g1_665"/>
<path d="M695.5,730.7h.7V656.6h-.7v74.1Z" class="g1_665"/>
<path d="M695.5,755.2h.7V729.9h-.7v25.3Z" class="g1_665"/>
<path d="M850.7,729.9h.7V657.3h-.7v72.6Z" class="g1_665"/>
<path d="M850.7,754.3h.7V730.7h-.7v23.6Z" class="g1_665"/>
<path d="M69.9,657.3H851.4v-.7H69.9v.7Z" class="g1_665"/>
<path d="M69.9,681.8H851.4v-.7H69.9v.7Z" class="g1_665"/>
<path d="M69.9,706.2H851.4v-.7H69.9v.7Z" class="g1_665"/>
<path d="M69.9,730.7h67.9v-.8H69.9v.8Z" class="g1_665"/>
<path d="M137,730.7H851.4v-.8H137v.8Z" class="g1_665"/>
<path d="M69.9,755.2H137v-.8H69.9v.8Z" class="g1_665"/>
<path d="M137.8,755.2H851.4v-.8H137.8v.8Z" class="g1_665"/>
</svg>