<?xml version="1.0" encoding="UTF-8" standalone="no"?>
<!DOCTYPE svg PUBLIC "-//W3C//DTD SVG 1.1//EN"
"http://www.w3.org/Graphics/SVG/1.1/DTD/svg11.dtd">
<svg viewBox="0 0 935 1210" version="1.1" xmlns="http://www.w3.org/2000/svg" xmlns:xlink="http://www.w3.org/1999/xlink">
<defs>
<clipPath id="c0_1817"><path d="M97.3,59.2V41.4h72.1V59.2Z"/></clipPath>
<style type="text/css"><![CDATA[
.g0_1817{
fill: #000;
}
.g1_1817{
fill: #E5E5E5;
}
]]></style>
</defs>
<path d="M96.2,62.9v.3H838.7v-.3H96.2Z" class="g0_1817"/>
<path d="M96.2,1114.1h-.1v.4h.1v-.4Z" class="g0_1817"/>
<path d="M838.7,1114.1h.2v.4h-.2v-.4Z" class="g0_1817"/>
<path d="M96.2,1114.1v.4H838.7v-.4H96.2Z" class="g0_1817"/>
<image clip-path="url(#c0_1817)" preserveAspectRatio="none" x="97" y="41" width="72" height="18" xlink:href="img/1.jpg"/>
<path d="M698.8,423.2h70v21.4h-70V423.2Z" class="g1_1817"/>
<path d="M768.8,423.2h69.9v21.4H768.8V423.2Z" class="g1_1817"/>
<path d="M96.6,249.4h-.7V486.9h.7V249.4Z" class="g0_1817"/>
<path d="M279.1,248.6h-.7V487.7h.7V248.6Z" class="g0_1817"/>
<path d="M349.1,271.5h-.7V487.7h.7V271.5Z" class="g0_1817"/>
<path d="M419.1,271.5h-.7V487.7h.7V271.5Z" class="g0_1817"/>
<path d="M489.1,271.5h-.7V487.7h.7V271.5Z" class="g0_1817"/>
<path d="M559.2,271.5h-.8V487.7h.8V271.5Z" class="g0_1817"/>
<path d="M629.1,271.5h-.7V487.7h.7V271.5Z" class="g0_1817"/>
<path d="M699.1,271.5h-.7V487.7h.7V271.5Z" class="g0_1817"/>
<path d="M769.2,271.5h-.8V487.7h.8V271.5Z" class="g0_1817"/>
<path d="M839.1,249.4h-.7V486.9h.7V249.4Z" class="g0_1817"/>
<path d="M95.9,248.7v.7H839.1v-.7H95.9Z" class="g0_1817"/>
<path d="M278.4,271.6v.7H839.1v-.7H278.4Z" class="g0_1817"/>
<path d="M95.9,294.5v.8H839.1v-.8H95.9Z" class="g0_1817"/>
<path d="M95.9,315.9v.7H839.1v-.7H95.9Z" class="g0_1817"/>
<path d="M95.9,337.2v.8H839.1v-.8H95.9Z" class="g0_1817"/>
<path d="M95.9,358.7v.7H839.1v-.7H95.9Z" class="g0_1817"/>
<path d="M95.9,380v.8H839.1V380H95.9Z" class="g0_1817"/>
<path d="M95.9,401.4v.7H839.1v-.7H95.9Z" class="g0_1817"/>
<path d="M95.9,422.8v.8H839.1v-.8H95.9Z" class="g0_1817"/>
<path d="M95.9,444.2v.7H839.1v-.7H95.9Z" class="g0_1817"/>
<path d="M95.9,465.6v.7H839.1v-.7H95.9Z" class="g0_1817"/>
<path d="M95.9,487v.7H839.1V487H95.9Z" class="g0_1817"/>
<path d="M96.6,553.8h-.7V902h.7V553.8Z" class="g0_1817"/>
<path d="M397.3,552.3h-.8V860.4h.8V552.3Z" class="g0_1817"/>
<path d="M460.5,552.3h-.7v88.1h.7V552.3Z" class="g0_1817"/>
<path d="M461,638.8h-1.6V860.4H461V638.8Z" class="g0_1817"/>
<path d="M499.9,584.3h-.7v28.2h.7V584.3Z" class="g0_1817"/>
<path d="M499.9,638.8h-.7V860.4h.7V638.8Z" class="g0_1817"/>
<path d="M539.4,584.3h-.8v28.2h.8V584.3Z" class="g0_1817"/>
<path d="M539.4,638.8h-.8V860.4h.8V638.8Z" class="g0_1817"/>
<path d="M578.8,584.3H578v28.2h.8V584.3Z" class="g0_1817"/>
<path d="M578.8,638.8H578V860.4h.8V638.8Z" class="g0_1817"/>
<path d="M618.2,584.3h-.7v28.2h.7V584.3Z" class="g0_1817"/>
<path d="M618.2,638.8h-.7V860.4h.7V638.8Z" class="g0_1817"/>
<path d="M657.6,584.3h-.7v28.2h.7V584.3Z" class="g0_1817"/>
<path d="M657.6,638.8h-.7V860.4h.7V638.8Z" class="g0_1817"/>
<path d="M697,584.3h-.7v28.2h.7V584.3Z" class="g0_1817"/>
<path d="M697,638.8h-.7V860.4h.7V638.8Z" class="g0_1817"/>
<path d="M736.4,584.3h-.7v28.2h.7V584.3Z" class="g0_1817"/>
<path d="M736.4,638.8h-.7V860.4h.7V638.8Z" class="g0_1817"/>
<path d="M775.9,552.3h-.7v88.1h.7V552.3Z" class="g0_1817"/>
<path d="M776.4,638.8h-1.6V860.4h1.6V638.8Z" class="g0_1817"/>
<path d="M839.1,553.8h-.7V902h.7V553.8Z" class="g0_1817"/>
<path d="M95.9,552.3v1.5H839.1v-1.5H95.9Z" class="g0_1817"/>
<path d="M459.7,584.3v.7H775.9v-.7H459.7Z" class="g0_1817"/>
<path d="M459.7,611.8v.7H775.9v-.7H459.7Z" class="g0_1817"/>
<path d="M95.9,638.9v1.6H839.1v-1.6H95.9Z" class="g0_1817"/>
<path d="M95.9,666.8v.7H397.3v-.7H95.9Z" class="g0_1817"/>
<path d="M459.3,666.8v.7H839.1v-.7H459.3Z" class="g0_1817"/>
<path d="M95.9,694.3v.7H397.3v-.7H95.9Z" class="g0_1817"/>
<path d="M459.3,694.3v.7H839.1v-.7H459.3Z" class="g0_1817"/>
<path d="M95.9,721.8v.7H397.3v-.7H95.9Z" class="g0_1817"/>
<path d="M459.3,721.8v.7H839.1v-.7H459.3Z" class="g0_1817"/>
<path d="M95.9,749.3v.7H397.3v-.7H95.9Z" class="g0_1817"/>
<path d="M459.3,749.3v.7H839.1v-.7H459.3Z" class="g0_1817"/>
<path d="M95.9,776.8v.7H397.3v-.7H95.9Z" class="g0_1817"/>
<path d="M459.3,776.8v.7H839.1v-.7H459.3Z" class="g0_1817"/>
<path d="M95.9,804.3v.7H397.3v-.7H95.9Z" class="g0_1817"/>
<path d="M459.3,804.3v.7H839.1v-.7H459.3Z" class="g0_1817"/>
<path d="M95.9,831.8v.7H397.3v-.7H95.9Z" class="g0_1817"/>
<path d="M459.3,831.8v.7H839.1v-.7H459.3Z" class="g0_1817"/>
<path d="M95.9,858.9v1.6H839.1v-1.6H95.9Z" class="g0_1817"/>
<path d="M95.9,902.1v.7H839.1v-.7H95.9Z" class="g0_1817"/>
</svg>