<?xml version="1.0" encoding="UTF-8" standalone="no"?>
<!DOCTYPE svg PUBLIC "-//W3C//DTD SVG 1.1//EN"
"http://www.w3.org/Graphics/SVG/1.1/DTD/svg11.dtd">
<svg viewBox="0 0 935 1210" version="1.1" xmlns="http://www.w3.org/2000/svg" xmlns:xlink="http://www.w3.org/1999/xlink">
<defs>
<clipPath id="c0_758"><path d="M97.3,59.2V41.4h72.1V59.2Z"/></clipPath>
<style type="text/css"><![CDATA[
.g0_758{
fill: #000;
}
.g1_758{
fill: #FFF;
}
.g2_758{
fill: #E5E5E5;
}
]]></style>
</defs>
<path d="M96.2,62.9v.3H838.7v-.3H96.2Z" class="g0_758"/>
<path d="M96.2,1114.1h-.1v.3h.1v-.3Z" class="g0_758"/>
<path d="M838.7,1114.1h.2v.3h-.2v-.3Z" class="g0_758"/>
<path d="M96.2,1114.1v.3H838.7v-.3H96.2Z" class="g0_758"/>
<image clip-path="url(#c0_758)" preserveAspectRatio="none" x="97" y="41" width="72" height="18" xlink:href="img/1.jpg"/>
<path d="M142.6,181.8H746v53.4H142.6V181.8Z" class="g1_758"/>
<path d="M96.2,449.1H838.7v55H96.2v-55Z" class="g2_758"/>
<path d="M96.2,536.2H467.5v67.2H96.2V536.2Z" class="g2_758"/>
<path d="M560.3,536.2h92.8v67.2H560.3V536.2Z" class="g2_758"/>
<path d="M746,536.2h92.7v67.2H746V536.2Z" class="g2_758"/>
<path d="M96.2,644.7h67.3v19.9H96.2V644.7Z" class="g2_758"/>
<path d="M163.5,644.7H298.6v19.9H163.5V644.7Z" class="g2_758"/>
<path d="M298.6,644.7H573.7v19.9H298.6V644.7Z" class="g2_758"/>
<path d="M573.7,644.7h110v19.9h-110V644.7Z" class="g2_758"/>
<path d="M96.2,734.9h67.3v19.8H96.2V734.9Z" class="g2_758"/>
<path d="M163.5,734.9H298.6v19.8H163.5V734.9Z" class="g2_758"/>
<path d="M298.6,734.9H573.7v19.8H298.6V734.9Z" class="g2_758"/>
<path d="M573.7,734.9h110v19.8h-110V734.9Z" class="g2_758"/>
<path d="M96.2,825h67.3v19.9H96.2V825Z" class="g2_758"/>
<path d="M163.5,825H298.6v19.9H163.5V825Z" class="g2_758"/>
<path d="M298.6,825H573.7v19.9H298.6V825Z" class="g2_758"/>
<path d="M573.7,825h110v19.9h-110V825Z" class="g2_758"/>
<path d="M96.6,182.1h-.7v51.6h.7V182.1Z" class="g0_758"/>
<path d="M119.8,181.4h-.7v55.4h.7V181.4Z" class="g0_758"/>
<path d="M769.5,181.4h-.7v55.4h.7V181.4Z" class="g0_758"/>
<path d="M792.7,181.4H792v55.4h.7V181.4Z" class="g0_758"/>
<path d="M815.9,181.4h-.7v55.4h.7V181.4Z" class="g0_758"/>
<path d="M840.3,182.1h-3.1v51.6h3.1V182.1Z" class="g0_758"/>
<path d="M95.9,181.4v.7H840.3v-.7H95.9Z" class="g0_758"/>
<path d="M95.9,233.7v3.1H840.3v-3.1H95.9Z" class="g0_758"/>
<path d="M96.6,449.5h-.7v53.1h.7V449.5Z" class="g0_758"/>
<path d="M840.3,449.5h-3.1v53.1h3.1V449.5Z" class="g0_758"/>
<path d="M95.9,448.8v.7H840.3v-.7H95.9Z" class="g0_758"/>
<path d="M95.9,502.7v3H840.3v-3H95.9Z" class="g0_758"/>
<path d="M96.6,536.6h-.7V602h.7V536.6Z" class="g0_758"/>
<path d="M467.8,535.9h-.7V605h.7V535.9Z" class="g0_758"/>
<path d="M560.7,535.9H560V605h.7V535.9Z" class="g0_758"/>
<path d="M653.5,535.9h-.8V605h.8V535.9Z" class="g0_758"/>
<path d="M746.3,535.9h-.7V605h.7V535.9Z" class="g0_758"/>
<path d="M840.3,536.6h-3.1V602h3.1V536.6Z" class="g0_758"/>
<path d="M95.9,535.9v.7H840.3v-.7H95.9Z" class="g0_758"/>
<path d="M95.9,602v3H840.3v-3H95.9Z" class="g0_758"/>
<path d="M96.2,644.3v.7H683.7v-.7H96.2Z" class="g0_758"/>
<path d="M96.2,844.5v.7H683.7v-.7H96.2Z" class="g0_758"/>
</svg>