<?xml version="1.0" encoding="UTF-8" standalone="no"?>
<!DOCTYPE svg PUBLIC "-//W3C//DTD SVG 1.1//EN"
"http://www.w3.org/Graphics/SVG/1.1/DTD/svg11.dtd">
<svg viewBox="0 0 935 1210" version="1.1" xmlns="http://www.w3.org/2000/svg" xmlns:xlink="http://www.w3.org/1999/xlink">
<defs>
<clipPath id="c0_163"><path d="M766.7,59V41.4h72.2V59Z"/></clipPath>
<style type="text/css"><![CDATA[
.g0_163{
fill: #000;
}
]]></style>
</defs>
<path d="M97.5,63.1v.3H840v-.3H97.5Z" class="g0_163"/>
<path d="M96.1,1114.3v.3v-.3Z" class="g0_163"/>
<path d="M838.9,1114.3v.3v-.3Z" class="g0_163"/>
<path d="M96.1,1114.3v.3H838.9v-.3H96.1Z" class="g0_163"/>
<image clip-path="url(#c0_163)" preserveAspectRatio="none" x="767" y="41" width="72" height="18" xlink:href="img/1.jpg"/>
<path d="M123.9,348.7h-.7V694.1h.7V348.7Z" class="g0_163"/>
<path d="M238.3,390.9h-.7v184h.7v-184Z" class="g0_163"/>
<path d="M507.4,348h-.7V621.5h.7V348Z" class="g0_163"/>
<path d="M811.8,348.7H811V694.1h.8V348.7Z" class="g0_163"/>
<path d="M123.2,348v.7H811.8V348H123.2Z" class="g0_163"/>
<path d="M123.2,390.9v.7H811.8v-.7H123.2Z" class="g0_163"/>
<path d="M123.2,433.4v.7H811.8v-.7H123.2Z" class="g0_163"/>
<path d="M123.2,476.3v.7H811.8v-.7H123.2Z" class="g0_163"/>
<path d="M123.2,500.8v.8H507.4v-.8H123.2Z" class="g0_163"/>
<path d="M123.2,525v.8H811.8V525H123.2Z" class="g0_163"/>
<path d="M123.2,549.6v.7H507.4v-.7H123.2Z" class="g0_163"/>
<path d="M123.2,574.2v.7H811.8v-.7H123.2Z" class="g0_163"/>
<path d="M123.2,620.7v.8H811.8v-.8H123.2Z" class="g0_163"/>
<path d="M123.2,694.1v.7H811.8v-.7H123.2Z" class="g0_163"/>
</svg>