<?xml version="1.0" encoding="UTF-8" standalone="no"?>
<!DOCTYPE svg PUBLIC "-//W3C//DTD SVG 1.1//EN"
"http://www.w3.org/Graphics/SVG/1.1/DTD/svg11.dtd">
<svg viewBox="0 0 935 1210" version="1.1" xmlns="http://www.w3.org/2000/svg" xmlns:xlink="http://www.w3.org/1999/xlink">
<defs>
<style type="text/css"><![CDATA[
.g0_379{
fill: #FFF;
}
.g1_379{
fill: #000;
}
]]></style>
</defs>
<path d="M68.9,1149.3H755.2v-21.2H68.9v21.2Z" class="g0_379"/>
<path d="M771.3,1149.3H855v-21.2H771.3v21.2Z" class="g0_379"/>
<path d="M69.9,555.8h.8V147h-.8V555.8Z" class="g1_379"/>
<path d="M310.4,556.5h.7V146.3h-.7V556.5Z" class="g1_379"/>
<path d="M354.7,556.5h.7V146.3h-.7V556.5Z" class="g1_379"/>
<path d="M429.1,556.5h.7V146.3h-.7V556.5Z" class="g1_379"/>
<path d="M515.1,556.5h.7V146.3h-.7V556.5Z" class="g1_379"/>
<path d="M850.9,555.8h.8V147h-.8V555.8Z" class="g1_379"/>
<path d="M69.9,147H851.7v-.7H69.9v.7Z" class="g1_379"/>
<path d="M69.9,200.5H851.7v-.8H69.9v.8Z" class="g1_379"/>
<path d="M69.9,257H851.7v-.7H69.9v.7Z" class="g1_379"/>
<path d="M69.9,313.6H851.7v-.7H69.9v.7Z" class="g1_379"/>
<path d="M69.9,370.1H851.7v-.8H69.9v.8Z" class="g1_379"/>
<path d="M69.9,426.6H851.7v-.7H69.9v.7Z" class="g1_379"/>
<path d="M69.9,483.2H851.7v-.8H69.9v.8Z" class="g1_379"/>
<path d="M69.9,556.5H851.7v-.7H69.9v.7Z" class="g1_379"/>
<path d="M69.9,684.1h.8V611.5h-.8v72.6Z" class="g1_379"/>
<path d="M156.3,684.8h.7v-74h-.7v74Z" class="g1_379"/>
<path d="M242.7,684.8h.8v-74h-.8v74Z" class="g1_379"/>
<path d="M387.3,684.8h.7v-74h-.7v74Z" class="g1_379"/>
<path d="M540.6,684.8h.7v-74h-.7v74Z" class="g1_379"/>
<path d="M697.7,684.8h.7v-74h-.7v74Z" class="g1_379"/>
<path d="M857.7,684.1h.8V611.5h-.8v72.6Z" class="g1_379"/>
<path d="M69.9,611.5H858.5v-.7H69.9v.7Z" class="g1_379"/>
<path d="M69.9,636H858.5v-.8H69.9v.8Z" class="g1_379"/>
<path d="M69.9,660.4H858.5v-.8H69.9v.8Z" class="g1_379"/>
<path d="M69.9,684.8H858.5v-.7H69.9v.7Z" class="g1_379"/>
</svg>