<?xml version="1.0" encoding="UTF-8" standalone="no"?>
<!DOCTYPE svg PUBLIC "-//W3C//DTD SVG 1.1//EN"
"http://www.w3.org/Graphics/SVG/1.1/DTD/svg11.dtd">
<svg viewBox="0 0 935 1210" version="1.1" xmlns="http://www.w3.org/2000/svg" xmlns:xlink="http://www.w3.org/1999/xlink">
<defs>
<style type="text/css"><![CDATA[
.g0_1525{
fill: #FFF;
}
.g1_1525{
fill: #000;
}
]]></style>
</defs>
<path d="M68.9,1149.3H755.2v-21.2H68.9v21.2Z" class="g0_1525"/>
<path d="M771.3,1149.3H855v-21.2H771.3v21.2Z" class="g0_1525"/>
<path d="M70.3,654.5H857.4V624.9H70.3v29.6Z" class="g0_1525"/>
<path d="M71.2,647.8h53.6V635.4H71.2v12.4Z" class="g0_1525"/>
<path d="M69.9,624.5h.8V125.7h-.8V624.5Z" class="g1_1525"/>
<path d="M389.2,625.3h.7V124.9h-.7V625.3Z" class="g1_1525"/>
<path d="M427.1,625.3h.7V124.9h-.7V625.3Z" class="g1_1525"/>
<path d="M500.4,625.3h.7V124.9h-.7V625.3Z" class="g1_1525"/>
<path d="M579.8,625.3h.7V124.9h-.7V625.3Z" class="g1_1525"/>
<path d="M857,624.5h.7V125.7H857V624.5Z" class="g1_1525"/>
<path d="M69.9,125.7H857.7v-.8H69.9v.8Z" class="g1_1525"/>
<path d="M69.9,179.1H857.7v-.7H69.9v.7Z" class="g1_1525"/>
<path d="M69.9,235.7H857.7v-.8H69.9v.8Z" class="g1_1525"/>
<path d="M69.9,292.1H857.7v-.7H69.9v.7Z" class="g1_1525"/>
<path d="M69.9,348.7H857.7V348H69.9v.7Z" class="g1_1525"/>
<path d="M69.9,405.3H857.7v-.8H69.9v.8Z" class="g1_1525"/>
<path d="M69.9,478.6H857.7v-.7H69.9v.7Z" class="g1_1525"/>
<path d="M69.9,551.9H857.7v-.7H69.9v.7Z" class="g1_1525"/>
<path d="M69.9,625.3H857.7v-.8H69.9v.8Z" class="g1_1525"/>
<path d="M69.9,860.4h.8V763.3h-.8v97.1Z" class="g1_1525"/>
<path d="M137.5,861.1h.7V762.6h-.7v98.5Z" class="g1_1525"/>
<path d="M246.4,861.1h.7V762.6h-.7v98.5Z" class="g1_1525"/>
<path d="M395.7,861.1h.8V762.6h-.8v98.5Z" class="g1_1525"/>
<path d="M544.7,861.1h.7V762.6h-.7v98.5Z" class="g1_1525"/>
<path d="M700,861.1h.7V762.6H700v98.5Z" class="g1_1525"/>
<path d="M851.7,860.4h.7V763.3h-.7v97.1Z" class="g1_1525"/>
<path d="M69.9,763.3H852.4v-.7H69.9v.7Z" class="g1_1525"/>
<path d="M69.9,787.8H852.4v-.7H69.9v.7Z" class="g1_1525"/>
<path d="M69.9,812.3H852.4v-.8H69.9v.8Z" class="g1_1525"/>
<path d="M69.9,836.6H852.4v-.7H69.9v.7Z" class="g1_1525"/>
<path d="M69.9,861.1H852.4v-.7H69.9v.7Z" class="g1_1525"/>
</svg>