<?xml version="1.0" encoding="UTF-8" standalone="no"?>
<!DOCTYPE svg PUBLIC "-//W3C//DTD SVG 1.1//EN"
"http://www.w3.org/Graphics/SVG/1.1/DTD/svg11.dtd">
<svg viewBox="0 0 935 1210" version="1.1" xmlns="http://www.w3.org/2000/svg" xmlns:xlink="http://www.w3.org/1999/xlink">
<defs>
<style type="text/css"><![CDATA[
.g0_1132{
fill: #FFF;
}
.g1_1132{
fill: #000;
}
]]></style>
</defs>
<path d="M68.8,1149.3H852.5v-21.2H68.8v21.2Z" class="g0_1132"/>
<path d="M68.9,954.9v-.7Z" class="g1_1132"/>
<path d="M68.9,954.9H289.3v-.7H68.9v.7Z" class="g1_1132"/>
<path d="M70.9,222.7h.8V141h-.8v81.7Z" class="g1_1132"/>
<path d="M303.1,223.5h.8V140.2h-.8v83.3Z" class="g1_1132"/>
<path d="M366,223.5h.8V140.2H366v83.3Z" class="g1_1132"/>
<path d="M849.5,222.7h.7V141h-.7v81.7Z" class="g1_1132"/>
<path d="M70.9,140.9H850.2v-.7H70.9v.7Z" class="g1_1132"/>
<path d="M70.9,179.1H850.2v-.7H70.9v.7Z" class="g1_1132"/>
<path d="M70.9,223.4H850.2v-.7H70.9v.7Z" class="g1_1132"/>
<path d="M69.9,323.5h.8V275.4h-.8v48.1Z" class="g1_1132"/>
<path d="M149.3,324.3h.8V274.6h-.8v49.7Z" class="g1_1132"/>
<path d="M319.6,324.3h.7V274.6h-.7v49.7Z" class="g1_1132"/>
<path d="M489.7,324.3h.7V274.6h-.7v49.7Z" class="g1_1132"/>
<path d="M669.6,324.3h.8V274.6h-.8v49.7Z" class="g1_1132"/>
<path d="M850.5,323.5h.7V275.4h-.7v48.1Z" class="g1_1132"/>
<path d="M69.9,275.4H851.2v-.8H69.9v.8Z" class="g1_1132"/>
<path d="M69.9,299.8H851.2v-.7H69.9v.7Z" class="g1_1132"/>
<path d="M69.9,324.2H851.2v-.7H69.9v.7Z" class="g1_1132"/>
</svg>