<?xml version="1.0" encoding="UTF-8" standalone="no"?>
<!DOCTYPE svg PUBLIC "-//W3C//DTD SVG 1.1//EN"
"http://www.w3.org/Graphics/SVG/1.1/DTD/svg11.dtd">
<svg viewBox="0 0 935 1210" version="1.1" xmlns="http://www.w3.org/2000/svg" xmlns:xlink="http://www.w3.org/1999/xlink">
<defs>
<style type="text/css"><![CDATA[
.g0_2444{
fill: #FFF;
}
.g1_2444{
fill: #000;
}
]]></style>
</defs>
<path d="M68.8,1149.3H852.5v-21.2H68.8v21.2Z" class="g0_2444"/>
<path d="M68.6,1067.6h.7V124.1h-.7v943.5Z" class="g1_2444"/>
<path d="M445.7,148.6h.7V123.4h-.7v25.2Z" class="g1_2444"/>
<path d="M445.7,255.6h.7V172.2h-.7v83.4Z" class="g1_2444"/>
<path d="M445.7,362.4h.7V279.2h-.7v83.2Z" class="g1_2444"/>
<path d="M445.7,452.7h.7V386.2h-.7v66.5Z" class="g1_2444"/>
<path d="M445.7,559.5h.7V476.3h-.7v83.2Z" class="g1_2444"/>
<path d="M445.7,666.5h.7V583.3h-.7v83.2Z" class="g1_2444"/>
<path d="M445.7,773.5h.7V690.2h-.7v83.3Z" class="g1_2444"/>
<path d="M445.7,863.6h.7V797.1h-.7v66.5Z" class="g1_2444"/>
<path d="M445.7,953.8h.7V887.3h-.7v66.5Z" class="g1_2444"/>
<path d="M445.7,1043.9h.7V977.4h-.7v66.5Z" class="g1_2444"/>
<path d="M849.9,1067.6h.8V124.1h-.8v943.5Z" class="g1_2444"/>
<path d="M68.6,124.1H850.7v-.7H68.6v.7Z" class="g1_2444"/>
<path d="M68.6,148.6H850.7v-.7H68.6v.7Z" class="g1_2444"/>
<path d="M68.6,173H850.7v-.8H68.6v.8Z" class="g1_2444"/>
<path d="M68.6,214.2H850.7v-.7H68.6v.7Z" class="g1_2444"/>
<path d="M68.6,255.5H850.7v-.8H68.6v.8Z" class="g1_2444"/>
<path d="M68.6,279.9H850.7v-.7H68.6v.7Z" class="g1_2444"/>
<path d="M68.6,321.2H850.7v-.7H68.6v.7Z" class="g1_2444"/>
<path d="M68.6,362.4H850.7v-.7H68.6v.7Z" class="g1_2444"/>
<path d="M68.6,386.9H850.7v-.7H68.6v.7Z" class="g1_2444"/>
<path d="M68.6,428.2H850.7v-.8H68.6v.8Z" class="g1_2444"/>
<path d="M68.6,452.7H850.7v-.8H68.6v.8Z" class="g1_2444"/>
<path d="M68.6,477H850.7v-.7H68.6v.7Z" class="g1_2444"/>
<path d="M68.6,518.3H850.7v-.7H68.6v.7Z" class="g1_2444"/>
<path d="M68.6,559.5H850.7v-.7H68.6v.7Z" class="g1_2444"/>
<path d="M68.6,584H850.7v-.7H68.6v.7Z" class="g1_2444"/>
<path d="M68.6,625.3H850.7v-.8H68.6v.8Z" class="g1_2444"/>
<path d="M68.6,666.5H850.7v-.7H68.6v.7Z" class="g1_2444"/>
<path d="M68.6,691H850.7v-.8H68.6v.8Z" class="g1_2444"/>
<path d="M68.6,732.2H850.7v-.7H68.6v.7Z" class="g1_2444"/>
<path d="M68.6,773.5H850.7v-.7H68.6v.7Z" class="g1_2444"/>
<path d="M68.6,797.9H850.7v-.8H68.6v.8Z" class="g1_2444"/>
<path d="M68.6,839.1H850.7v-.7H68.6v.7Z" class="g1_2444"/>
<path d="M68.6,863.6H850.7v-.7H68.6v.7Z" class="g1_2444"/>
<path d="M68.6,888.1H850.7v-.8H68.6v.8Z" class="g1_2444"/>
<path d="M68.6,929.3H850.7v-.7H68.6v.7Z" class="g1_2444"/>
<path d="M68.6,953.7H850.7V953H68.6v.7Z" class="g1_2444"/>
<path d="M68.6,978.2H850.7v-.8H68.6v.8Z" class="g1_2444"/>
<path d="M68.6,1019.4H850.7v-.7H68.6v.7Z" class="g1_2444"/>
<path d="M68.6,1043.9H850.7v-.7H68.6v.7Z" class="g1_2444"/>
<path d="M68.6,1068.3H850.7v-.8H68.6v.8Z" class="g1_2444"/>
</svg>