<?xml version="1.0" encoding="UTF-8" standalone="no"?>
<!DOCTYPE svg PUBLIC "-//W3C//DTD SVG 1.1//EN"
"http://www.w3.org/Graphics/SVG/1.1/DTD/svg11.dtd">
<svg viewBox="0 0 935 1210" version="1.1" xmlns="http://www.w3.org/2000/svg" xmlns:xlink="http://www.w3.org/1999/xlink">
<defs>
<clipPath id="c0_1003"><path d="M766.6,59.2V41.4h72.1V59.2Z"/></clipPath>
<style type="text/css"><![CDATA[
.g0_1003{
fill: #000;
}
.g1_1003{
fill: #7F7F7F;
}
.g2_1003{
fill: #FFF;
}
.g3_1003{
fill: #B2B2B2;
}
]]></style>
</defs>
<path d="M97.3,62.9v.3H839.9v-.3H97.3Z" class="g0_1003"/>
<path d="M96.2,1114.1h-.1v.3h.1v-.3Z" class="g0_1003"/>
<path d="M838.7,1114.1h.2v.3h-.2v-.3Z" class="g0_1003"/>
<path d="M96.2,1114.1v.3H838.7v-.3H96.2Z" class="g0_1003"/>
<image clip-path="url(#c0_1003)" preserveAspectRatio="none" x="767" y="41" width="72" height="18" xlink:href="img/1.jpg"/>
<path d="M133.5,202.4H619.3v45.8H133.5V202.4Z" class="g1_1003"/>
<path d="M128.1,197H614v45.8H128.1V197Z" class="g2_1003"/>
<path d="M128.1,196.6H614.3v.8H128.1v-.8Z" class="g0_1003"/>
<path d="M613.6,197h.7v46.2h-.7V197Z" class="g0_1003"/>
<path d="M127.8,242.4H614v.8H127.8v-.8Z" class="g0_1003"/>
<path d="M127.8,196.6h.7v46.2h-.7V196.6Z" class="g0_1003"/>
<path d="M132.7,344.7H403.1v45.8H132.7V344.7Z" class="g1_1003"/>
<path d="M128.9,339.7H398.2v45.8H128.9V339.7Z" class="g2_1003"/>
<path d="M128.9,339.3H398.6v.8H128.9v-.8Z" class="g0_1003"/>
<path d="M397.8,339.7h.8v46.2h-.8V339.7Z" class="g0_1003"/>
<path d="M128.5,385.2H398.2v.7H128.5v-.7Z" class="g0_1003"/>
<path d="M128.5,339.3h.7v46.2h-.7V339.3Z" class="g0_1003"/>
<path d="M155.3,349.2h38.9v27.5H155.3V349.2Z" class="g3_1003"/>
<path d="M155.3,348.9h39.3v.7H155.3v-.7Z" class="g0_1003"/>
<path d="M193.9,349.2h.7v27.9h-.7V349.2Z" class="g0_1003"/>
<path d="M154.9,376.4h39.3v.7H154.9v-.7Z" class="g0_1003"/>
<path d="M154.9,348.9h.7v27.8h-.7V348.9Z" class="g0_1003"/>
<path d="M215.8,339.7h12.6v45.8H215.8V339.7Z" class="g0_1003"/>
<path d="M215.8,339.3h13v.8h-13v-.8Z" class="g0_1003"/>
<path d="M228.1,339.7h.7v46.2h-.7V339.7Z" class="g0_1003"/>
<path d="M215.4,385.2h13v.7h-13v-.7Z" class="g0_1003"/>
<path d="M215.4,339.3h.7v46.2h-.7V339.3Z" class="g0_1003"/>
<path d="M277.5,196.1H290v45.8H277.5V196.1Z" class="g0_1003"/>
<path d="M277.5,195.7h12.9v.7H277.5v-.7Z" class="g0_1003"/>
<path d="M289.7,196.1h.7v46.2h-.7V196.1Z" class="g0_1003"/>
<path d="M277.1,241.5H290v.8H277.1v-.8Z" class="g0_1003"/>
<path d="M277.1,195.7h.7v46.2h-.7V195.7Z" class="g0_1003"/>
<path d="M345.5,432.1H831.3v45.8H345.5V432.1Z" class="g1_1003"/>
<path d="M340.1,426.8H826v45.8H340.1V426.8Z" class="g2_1003"/>
<path d="M340.1,426.4H826.3v.7H340.1v-.7Z" class="g0_1003"/>
<path d="M825.6,426.8h.7V473h-.7V426.8Z" class="g0_1003"/>
<path d="M339.7,472.2H826v.8H339.7v-.8Z" class="g0_1003"/>
<path d="M339.7,426.4h.7v46.2h-.7V426.4Z" class="g0_1003"/>
<path d="M439.8,426.8h12.6v45.8H439.8V426.8Z" class="g0_1003"/>
<path d="M439.8,426.4h12.9v.7H439.8v-.7Z" class="g0_1003"/>
<path d="M452,426.8h.7V473H452V426.8Z" class="g0_1003"/>
<path d="M439.4,472.2h13v.8h-13v-.8Z" class="g0_1003"/>
<path d="M439.4,426.4h.8v46.2h-.8V426.4Z" class="g0_1003"/>
<path d="M131.9,532.6H463.1v45.8H131.9V532.6Z" class="g1_1003"/>
<path d="M126.8,527.6H454.9v45.8H126.8V527.6Z" class="g2_1003"/>
<path d="M126.8,527.2H455.3v.8H126.8v-.8Z" class="g0_1003"/>
<path d="M454.6,527.6h.7v46.2h-.7V527.6Z" class="g0_1003"/>
<path d="M126.4,573.1H454.9v.7H126.4v-.7Z" class="g0_1003"/>
<path d="M126.4,527.2h.7v46.2h-.7V527.2Z" class="g0_1003"/>
<path d="M134,538.2h39v27.5H134V538.2Z" class="g3_1003"/>
<path d="M134,537.9h39.3v.7H134v-.7Z" class="g0_1003"/>
<path d="M172.6,538.2h.7v27.9h-.7V538.2Z" class="g0_1003"/>
<path d="M133.6,565.4H173v.7H133.6v-.7Z" class="g0_1003"/>
<path d="M133.6,537.9h.8v27.8h-.8V537.9Z" class="g0_1003"/>
<path d="M228,527.6h12.6v45.8H228V527.6Z" class="g0_1003"/>
<path d="M228,527.2h13v.8H228v-.8Z" class="g0_1003"/>
<path d="M240.2,527.6h.8v46.2h-.8V527.6Z" class="g0_1003"/>
<path d="M227.6,573.1h13v.7h-13v-.7Z" class="g0_1003"/>
<path d="M227.6,527.2h.7v46.2h-.7V527.2Z" class="g0_1003"/>
<path d="M230.5,323.2l3.4,2.1l.8,.7l-.7,.6l-11.1,9.6l-2,1.8l.8,-2.6L226,321.5l.3,-1l.8,.5l.4,.9l-4.3,14l-1.5,-.5l.2,-.4L233,325.4l1,1.2l-.9,.1l-3.4,-2.1l.8,-1.4Z" class="g0_1003"/>
<path d="M227.1,321l3.4,2.2l-.8,1.4l-3.4,-2.2l.8,-1.4Z" class="g0_1003"/>
<path fill-rule="evenodd" d="M230.2,323.8l3.4,2.2l-11.1,9.6l4.3,-14l3.4,2.2Z" class="g0_1003"/>
<path d="M284,241.5l.2,-.2l-.7,-.4l-.2,.3l.7,.3Z" class="g0_1003"/>
<path d="M282.5,243.8l-.2,.3l-.6,-.4l.2,-.2l.6,.3Z" class="g0_1003"/>
<path d="M284,241.5l-.7,-.3l-1.4,2.3l.6,.3l1.5,-2.3Z" class="g0_1003"/>
<path fill-rule="evenodd" d="M278.7,249.5l.2,-.3l-.6,-.3l-.2,.2l.6,.4Z" class="g0_1003"/>
<path fill-rule="evenodd" d="M275.9,254l-.2,.3l-.6,-.4l.2,-.3l.6,.4Z" class="g0_1003"/>
<path fill-rule="evenodd" d="M278.7,249.5l-.6,-.4l-2.8,4.5l.6,.4l2.8,-4.5Z" class="g0_1003"/>
<path fill-rule="evenodd" d="M272.1,259.8l.2,-.3l-.6,-.4l-.2,.3l.6,.4Z" class="g0_1003"/>
<path fill-rule="evenodd" d="M269.2,264.3l-.2,.2l-.6,-.3l.2,-.3l.6,.4Z" class="g0_1003"/>
<path fill-rule="evenodd" d="M272.1,259.8l-.6,-.4l-2.9,4.5l.6,.4l2.9,-4.5Z" class="g0_1003"/>
<path fill-rule="evenodd" d="M265.5,269.9l.2,-.2l-.6,-.4l-.2,.3l.6,.3Z" class="g0_1003"/>
<path fill-rule="evenodd" d="M262.6,274.4l-.2,.3l-.6,-.4l.2,-.2l.6,.3Z" class="g0_1003"/>
<path fill-rule="evenodd" d="M265.5,269.9l-.6,-.3l-2.9,4.5l.6,.3l2.9,-4.5Z" class="g0_1003"/>
<path fill-rule="evenodd" d="M258.9,280.2l.1,-.3l-.6,-.3l-.2,.2l.7,.4Z" class="g0_1003"/>
<path fill-rule="evenodd" d="M256,284.7l-.2,.3l-.6,-.4l.2,-.3l.6,.4Z" class="g0_1003"/>
<path fill-rule="evenodd" d="M258.9,280.2l-.7,-.4l-2.8,4.5l.6,.4l2.9,-4.5Z" class="g0_1003"/>
<path fill-rule="evenodd" d="M252.3,290.4l.1,-.3l-.6,-.4l-.2,.3l.7,.4Z" class="g0_1003"/>
<path fill-rule="evenodd" d="M249.3,294.9l-.2,.3l-.6,-.4l.2,-.3l.6,.4Z" class="g0_1003"/>
<path fill-rule="evenodd" d="M252.3,290.4l-.7,-.4l-2.9,4.5l.6,.4l3,-4.5Z" class="g0_1003"/>
<path fill-rule="evenodd" d="M245.7,300.7l.1,-.3l-.6,-.4l-.2,.3l.7,.4Z" class="g0_1003"/>
<path fill-rule="evenodd" d="M242.7,305.1l-.2,.3l-.6,-.3l.2,-.3l.6,.3Z" class="g0_1003"/>
<path fill-rule="evenodd" d="M245.7,300.7l-.7,-.4l-2.9,4.5l.6,.3l3,-4.4Z" class="g0_1003"/>
<path fill-rule="evenodd" d="M239,310.9l.1,-.3l-.6,-.3l-.2,.3l.7,.3Z" class="g0_1003"/>
<path fill-rule="evenodd" d="M236.1,315.3l-.2,.3l-.6,-.4l.2,-.2l.6,.3Z" class="g0_1003"/>
<path fill-rule="evenodd" d="M239,310.9l-.7,-.3l-2.8,4.4l.6,.3l2.9,-4.4Z" class="g0_1003"/>
<path d="M232.4,321.1l.1,-.3l-.6,-.3l-.2,.2l.7,.4Z" class="g0_1003"/>
<path d="M230.9,323.4l-.2,.3l-.6,-.4l.2,-.3l.6,.4Z" class="g0_1003"/>
<path d="M232.4,321.1l-.7,-.4l-1.4,2.3l.6,.4l1.5,-2.3Z" class="g0_1003"/>
<path d="M153.6,336.7l4.1,-.8h1l-.2,1l-1.7,14.6l-.2,2.7l-1.1,-2.5l-6.4,-13.3l-.4,-.9l1,-.2l.8,.5l6.3,13.3l-1.3,.6l-.1,-.4L157,336.6l1.5,.3l-.6,.6l-4,.7l-.3,-1.5Z" class="g0_1003"/>
<path d="M149.7,337.3l3.9,-.6l.3,1.5l-3.9,.7l-.3,-1.6Z" class="g0_1003"/>
<path fill-rule="evenodd" d="M153.7,337.4l4.1,-.7l-1.7,14.6l-6.3,-13.2l3.9,-.7Z" class="g0_1003"/>
<path d="M145.4,284.2l-.2,-.3l-.6,.4l.2,.3l.6,-.4Z" class="g0_1003"/>
<path d="M145.4,284.2l2,2.2l.8,1.1l.8,1l.7,1v.1l.5,1.2l.5,1.1l.4,1.5v.1l.2,1.7l.3,2l.6,5l.8,15.6l.4,11.1l-.8,.1v-.1l-.3,-11.1l-.9,-15.6v.1l-.5,-5l-.3,-2l-.3,-1.7l-.3,-1.5l.1,.1l-.5,-1.2l-.6,-1.2l-.6,-1v.1l-.7,-1l-.9,-1l-2,-2.3l.6,-.4Z" class="g0_1003"/>
<path d="M153.4,328.9l.2,4.2l-.7,.1l-.3,-4.2l.8,-.1Z" class="g0_1003"/>
<path d="M154,336.7v.3l-.7,.1v-.3l.7,-.1Z" class="g0_1003"/>
<path d="M153.6,333.1l-.7,.1l.4,3.6l.7,-.1l-.4,-3.6Z" class="g0_1003"/>
<path d="M402.6,537h38.9v27.5H402.6V537Z" class="g3_1003"/>
<path d="M402.6,536.6h39.3v.7H402.6v-.7Z" class="g0_1003"/>
<path d="M441.2,537h.7v27.8h-.7V537Z" class="g0_1003"/>
<path d="M402.2,564.1h39.3v.7H402.2v-.7Z" class="g0_1003"/>
<path d="M402.2,536.6h.8v27.9h-.8V536.6Z" class="g0_1003"/>
<path d="M377.4,521.2l3.7,1.6l1,.4l-.7,.8l-9.2,11.4l-1.7,2l.3,-2.5l1.8,-14.6l.2,-1.1l.9,.4l.5,.8l-1.9,14.5h-1.5l.2,-.5L380.2,523l1.2,1l-.9,.2l-3.8,-1.6l.7,-1.4Z" class="g0_1003"/>
<path d="M373.7,519.6l3.7,1.6l-.7,1.4L373.1,521l.6,-1.4Z" class="g0_1003"/>
<path fill-rule="evenodd" d="M377.1,521.8l3.8,1.7l-9.3,11.4l1.8,-14.6l3.7,1.5Z" class="g0_1003"/>
<path d="M487,502.4h.4v-.7H487v.7Z" class="g0_1003"/>
<path d="M487,502.4l-29,-.3l-21.9,-.2l-15.9,.2l-6.2,.2l-5,.3h.1l-4.2,.4l-3.4,.5l-2.8,.6l-2.4,.8h.1l-1.9,.9l-1.8,1.1l.1,-.1l-1.8,1.3l-1.8,1.4l-4.1,3.2l-1.7,1.3l-1.4,1.3l-1.3,1.3l-1.1,1.4l.1,-.1l-.7,-.4l1.1,-1.3v-.1l1.3,-1.3h.1l1.5,-1.3l1.6,-1.4l4.1,-3.2l1.9,-1.4l1.7,-1.2l1.8,-1.1h.1l2,-1v-.1l2.3,-.7l2.8,-.6h.1l3.4,-.6l4.2,-.3l5,-.3l6.2,-.2l15.9,-.2l21.9,.2l29,.3v.7Z" class="g0_1003"/>
<path d="M379.7,517.9l-.9,1.6l-.7,-.3l.9,-1.7l.7,.4Z" class="g0_1003"/>
<path d="M377.8,521.4l-.1,.3l-.7,-.4l.2,-.3l.6,.4Z" class="g0_1003"/>
<path d="M378.8,519.5l-.7,-.3l-.9,1.8l.6,.4l1,-1.9Z" class="g0_1003"/>
<path d="M251.9,523.3l1,3.9l.2,1.1l-1,-.1l-14.6,-.3h-2.6l2.2,-1.4l12.6,-7.6l.9,-.5l.3,1l-.4,.8L238,527.8l-.9,-1.3l.5,-.1l14.6,.3l-.1,1.5l-.8,-.6l-1,-3.9l1.6,-.4Z" class="g0_1003"/>
<path d="M250.9,519.4l1,3.9l-1.6,.4l-1,-4l1.6,-.3Z" class="g0_1003"/>
<path fill-rule="evenodd" d="M251.2,523.5l1,3.9l-14.6,-.2l12.5,-7.7l1.1,4Z" class="g0_1003"/>
<path d="M446,471.9l.4,-.1l-.2,-.7h-.4l.2,.8Z" class="g0_1003"/>
<path d="M443.4,472.5l-.4,.1l-.2,-.7l.4,-.1l.2,.7Z" class="g0_1003"/>
<path d="M446,471.9l-.2,-.8l-2.6,.7l.2,.7l2.6,-.6Z" class="g0_1003"/>
<path fill-rule="evenodd" d="M436.6,474.4l.4,-.1l-.2,-.8l-.4,.1l.2,.8Z" class="g0_1003"/>
<path fill-rule="evenodd" d="M431.3,475.8l-.4,.1l-.2,-.7l.4,-.1l.2,.7Z" class="g0_1003"/>
<path fill-rule="evenodd" d="M436.6,474.4l-.2,-.8l-5.3,1.5l.2,.7l5.3,-1.4Z" class="g0_1003"/>
<path fill-rule="evenodd" d="M424.5,477.7l.4,-.1l-.2,-.8l-.4,.1l.2,.8Z" class="g0_1003"/>
<path fill-rule="evenodd" d="M419.2,479l-.4,.1l-.2,-.7l.4,-.1l.2,.7Z" class="g0_1003"/>
<path fill-rule="evenodd" d="M424.5,477.7l-.2,-.8l-5.3,1.4l.2,.7l5.3,-1.3Z" class="g0_1003"/>
<path fill-rule="evenodd" d="M412.3,480.9l.4,-.1l-.2,-.8l-.4,.1l.2,.8Z" class="g0_1003"/>
<path fill-rule="evenodd" d="M407,482.2l-.4,.1l-.2,-.7l.4,-.1l.2,.7Z" class="g0_1003"/>
<path fill-rule="evenodd" d="M412.3,480.9l-.2,-.8l-5.3,1.4l.2,.7l5.3,-1.3Z" class="g0_1003"/>
<path fill-rule="evenodd" d="M400.2,484.1l.4,-.1l-.2,-.8l-.4,.1l.2,.8Z" class="g0_1003"/>
<path fill-rule="evenodd" d="M394.9,485.5l-.4,.1l-.2,-.7l.4,-.1l.2,.7Z" class="g0_1003"/>
<path fill-rule="evenodd" d="M400.2,484.1l-.2,-.8l-5.3,1.5l.2,.7l5.3,-1.4Z" class="g0_1003"/>
<path fill-rule="evenodd" d="M388,487.4l.4,-.1l-.2,-.8l-.4,.1l.2,.8Z" class="g0_1003"/>
<path fill-rule="evenodd" d="M382.8,488.7l-.4,.1l-.2,-.7l.4,-.1l.2,.7Z" class="g0_1003"/>
<path fill-rule="evenodd" d="M388,487.4l-.2,-.8l-5.2,1.4l.2,.7l5.2,-1.3Z" class="g0_1003"/>
<path fill-rule="evenodd" d="M375.9,490.6l.4,-.1l-.2,-.7h-.4l.2,.8Z" class="g0_1003"/>
<path fill-rule="evenodd" d="M370.6,492h-.4l-.2,-.7l.4,-.1l.2,.8Z" class="g0_1003"/>
<path fill-rule="evenodd" d="M375.9,490.6l-.2,-.8l-5.3,1.4l.2,.8l5.3,-1.4Z" class="g0_1003"/>
<path fill-rule="evenodd" d="M363.8,493.8l.4,-.1L364,493l-.4,.1l.2,.7Z" class="g0_1003"/>
<path fill-rule="evenodd" d="M358.5,495.3h-.4l-.2,-.7l.4,-.1l.2,.8Z" class="g0_1003"/>
<path fill-rule="evenodd" d="M363.8,493.8l-.2,-.7l-5.3,1.4l.2,.8l5.3,-1.5Z" class="g0_1003"/>
<path fill-rule="evenodd" d="M351.6,497.1l.4,-.1l-.2,-.7l-.4,.1l.2,.7Z" class="g0_1003"/>
<path fill-rule="evenodd" d="M346.3,498.5l-.4,.1l-.1,-.8l.3,-.1l.2,.8Z" class="g0_1003"/>
<path fill-rule="evenodd" d="M351.6,497.1l-.2,-.7l-5.3,1.3l.2,.8l5.3,-1.4Z" class="g0_1003"/>
<path fill-rule="evenodd" d="M339.5,500.3l.4,-.1l-.2,-.7l-.4,.1l.2,.7Z" class="g0_1003"/>
<path fill-rule="evenodd" d="M334.2,501.7l-.4,.1l-.1,-.8l.3,-.1l.2,.8Z" class="g0_1003"/>
<path fill-rule="evenodd" d="M339.5,500.3l-.2,-.7l-5.3,1.3l.2,.8l5.3,-1.4Z" class="g0_1003"/>
<path fill-rule="evenodd" d="M327.4,503.5l.4,-.1l-.2,-.7l-.4,.1l.2,.7Z" class="g0_1003"/>
<path fill-rule="evenodd" d="M322.1,505l-.4,.1l-.1,-.8l.3,-.1l.2,.8Z" class="g0_1003"/>
<path fill-rule="evenodd" d="M327.4,503.5l-.2,-.7l-5.3,1.4l.2,.8l5.3,-1.5Z" class="g0_1003"/>
<path fill-rule="evenodd" d="M315.2,506.8l.4,-.1l-.2,-.7l-.4,.1l.2,.7Z" class="g0_1003"/>
<path fill-rule="evenodd" d="M309.9,508.2l-.4,.1l-.1,-.8l.3,-.1l.2,.8Z" class="g0_1003"/>
<path fill-rule="evenodd" d="M315.2,506.8l-.2,-.7l-5.3,1.3l.2,.8l5.3,-1.4Z" class="g0_1003"/>
<path fill-rule="evenodd" d="M303.1,510l.4,-.1l-.2,-.7l-.4,.1l.2,.7Z" class="g0_1003"/>
<path fill-rule="evenodd" d="M297.8,511.4l-.4,.1l-.1,-.8h.3l.2,.7Z" class="g0_1003"/>
<path fill-rule="evenodd" d="M303.1,510l-.2,-.7l-5.3,1.4l.2,.7l5.3,-1.4Z" class="g0_1003"/>
<path fill-rule="evenodd" d="M290.9,513.2l.4,-.1l-.2,-.7l-.3,.1l.1,.7Z" class="g0_1003"/>
<path fill-rule="evenodd" d="M285.7,514.7l-.4,.1l-.1,-.8h.3l.2,.7Z" class="g0_1003"/>
<path fill-rule="evenodd" d="M290.9,513.2l-.1,-.7l-5.3,1.5l.2,.7l5.2,-1.5Z" class="g0_1003"/>
<path fill-rule="evenodd" d="M278.8,516.5l.4,-.1l-.2,-.7l-.3,.1l.1,.7Z" class="g0_1003"/>
<path fill-rule="evenodd" d="M273.5,517.9l-.3,.1l-.2,-.7l.3,-.1l.2,.7Z" class="g0_1003"/>
<path fill-rule="evenodd" d="M278.8,516.5l-.1,-.7l-5.4,1.4l.2,.7l5.3,-1.4Z" class="g0_1003"/>
<path fill-rule="evenodd" d="M266.7,519.7l.4,-.1l-.2,-.7l-.3,.1l.1,.7Z" class="g0_1003"/>
<path fill-rule="evenodd" d="M261.4,521.1l-.3,.1l-.2,-.7l.3,-.1l.2,.7Z" class="g0_1003"/>
<path fill-rule="evenodd" d="M266.7,519.7l-.1,-.7l-5.4,1.4l.2,.7l5.3,-1.4Z" class="g0_1003"/>
<path d="M254.5,522.9l.4,-.1l-.2,-.7l-.3,.1l.1,.7Z" class="g0_1003"/>
<path d="M252,523.7l-.4,.1l-.2,-.8l.4,-.1l.2,.8Z" class="g0_1003"/>
<path d="M254.5,522.9l-.1,-.7l-2.6,.7l.2,.8l2.5,-.8Z" class="g0_1003"/>
<path d="M231.3,510.5l4,-.4l1,-.1l-.2,1l-2.9,14.4l-.6,2.7l-.9,-2.5l-5,-13.8l-.4,-1l1,-.1l.8,.5l5.1,13.8l-1.5,.6v-.5l3,-14.4l1.4,.3l-.6,.7l-4.1,.3l-.1,-1.5Z" class="g0_1003"/>
<path d="M227.3,510.7l4,-.2l.1,1.5l-3.9,.3l-.2,-1.6Z" class="g0_1003"/>
<path fill-rule="evenodd" d="M231.4,511.2l4,-.4l-2.9,14.4l-5.1,-13.7l4,-.3Z" class="g0_1003"/>
<path d="M222.2,383.6v-.4l-.7,.1v.4l.7,-.1Z" class="g0_1003"/>
<path d="M222.4,386.3v.3l-.8,.1v-.3l.8,-.1Z" class="g0_1003"/>
<path d="M222.2,383.6l-.7,.1l.1,2.7l.8,-.1l-.2,-2.7Z" class="g0_1003"/>
<path fill-rule="evenodd" d="M222.9,393.4v-.3h-.7v.4l.7,-.1Z" class="g0_1003"/>
<path fill-rule="evenodd" d="M223.3,399v.4l-.7,.1v-.4l.7,-.1Z" class="g0_1003"/>
<path fill-rule="evenodd" d="M222.9,393.4l-.7,.1l.4,5.6l.7,-.1l-.4,-5.6Z" class="g0_1003"/>
<path fill-rule="evenodd" d="M223.8,406.2v-.4l-.7,.1v.4l.7,-.1Z" class="g0_1003"/>
<path fill-rule="evenodd" d="M224.3,411.7v.3l-.7,.1v-.4h.7Z" class="g0_1003"/>
<path fill-rule="evenodd" d="M223.8,406.2l-.7,.1l.5,5.5l.7,-.1l-.5,-5.5Z" class="g0_1003"/>
<path fill-rule="evenodd" d="M224.8,418.8v-.4l-.7,.1v.4l.7,-.1Z" class="g0_1003"/>
<path fill-rule="evenodd" d="M225.2,424.4v.4l-.7,.1v-.4l.7,-.1Z" class="g0_1003"/>
<path fill-rule="evenodd" d="M224.8,418.8l-.7,.1l.4,5.6l.7,-.1l-.4,-5.6Z" class="g0_1003"/>
<path fill-rule="evenodd" d="M225.8,431.5v-.3l-.8,.1v.3l.8,-.1Z" class="g0_1003"/>
<path fill-rule="evenodd" d="M226.2,437v.4l-.7,.1v-.4l.7,-.1Z" class="g0_1003"/>
<path fill-rule="evenodd" d="M225.8,431.5l-.8,.1l.5,5.5l.7,-.1l-.4,-5.5Z" class="g0_1003"/>
<path fill-rule="evenodd" d="M226.8,444.2v-.4l-.8,.1v.4l.8,-.1Z" class="g0_1003"/>
<path fill-rule="evenodd" d="M227.1,449.8v.4h-.7v-.3l.7,-.1Z" class="g0_1003"/>
<path fill-rule="evenodd" d="M226.8,444.2l-.8,.1l.4,5.6l.7,-.1l-.3,-5.6Z" class="g0_1003"/>
<path fill-rule="evenodd" d="M227.7,456.9v-.3l-.7,.1v.3l.7,-.1Z" class="g0_1003"/>
<path fill-rule="evenodd" d="M228.1,462.5v.4l-.7,.1v-.4l.7,-.1Z" class="g0_1003"/>
<path fill-rule="evenodd" d="M227.7,456.9l-.7,.1l.4,5.6l.7,-.1l-.4,-5.6Z" class="g0_1003"/>
<path fill-rule="evenodd" d="M228.6,469.7v-.4l-.7,.1v.4l.7,-.1Z" class="g0_1003"/>
<path fill-rule="evenodd" d="M229.1,475.2v.3l-.8,.1v-.3l.8,-.1Z" class="g0_1003"/>
<path fill-rule="evenodd" d="M228.6,469.7l-.7,.1l.4,5.5l.8,-.1l-.5,-5.5Z" class="g0_1003"/>
<path fill-rule="evenodd" d="M229.6,482.3V482l-.7,.1v.3l.7,-.1Z" class="g0_1003"/>
<path fill-rule="evenodd" d="M230,487.9v.4l-.8,.1V488l.8,-.1Z" class="g0_1003"/>
<path fill-rule="evenodd" d="M229.6,482.3l-.7,.1l.3,5.6l.8,-.1l-.4,-5.6Z" class="g0_1003"/>
<path fill-rule="evenodd" d="M230.5,495.1v-.4l-.7,.1v.4l.7,-.1Z" class="g0_1003"/>
<path fill-rule="evenodd" d="M231,500.6v.3l-.7,.1v-.3l.7,-.1Z" class="g0_1003"/>
<path fill-rule="evenodd" d="M230.5,495.1l-.7,.1l.5,5.5l.7,-.1l-.5,-5.5Z" class="g0_1003"/>
<path d="M231.5,507.7v-.3h-.7v.4l.7,-.1Z" class="g0_1003"/>
<path d="M231.7,510.4v.3l-.7,.1v-.3l.7,-.1Z" class="g0_1003"/>
<path d="M231.5,507.7l-.7,.1l.2,2.7l.7,-.1l-.2,-2.7Z" class="g0_1003"/>
<path d="M242,511.4l3.8,1.4l1,.3l-.7,.9l-8.8,11.8l-1.5,2.1l.1,-2.7l1.2,-14.6l.2,-1l.9,.2l.5,.9l-1.2,14.6l-1.6,-.1l.2,-.4l8.8,-11.9l1.2,1.1l-.8,.1l-3.9,-1.3l.6,-1.4Z" class="g0_1003"/>
<path d="M238.2,509.8l3.8,1.6l-.6,1.4l-3.7,-1.5l.5,-1.5Z" class="g0_1003"/>
<path fill-rule="evenodd" d="M241.7,512l3.9,1.4l-8.8,11.8L238,510.6l3.7,1.4Z" class="g0_1003"/>
<path d="M285.9,241.3V241l-.7,.1v.3l.7,-.1Z" class="g0_1003"/>
<path d="M285.9,241.3l2.5,15.5l.9,6.5l.6,5.6l.5,5.1l.2,4.6l-.1,4.2v.1l-.4,3.8l-.7,3.9l-1.1,3.7v.1l-1.4,3.9l-1.8,4l-2.1,4.4l-2.6,4.9l-6.5,11.6l-6.4,11.6l-2.6,4.8l-2.1,4.3l-1.8,3.9l-1.3,3.5l-1,3.3l-.7,3.3l-.2,3.2V361v3.3l.4,3.5l.7,3.8v-.1l1,4.2l1.2,4.7l3.3,11.3l3.1,10.8l1.1,4.8v.1l.8,4.4l.3,2.3l.2,2.3l.1,2.3V421l-.1,2.5v.1l-.2,2.4l-.3,2.7l-.5,2.8l-1.2,6l-1.8,6.8l-.7,-.2l1.7,-6.8l1.3,-6v.1l.5,-2.8l.2,-2.6l.3,-2.5l.1,-2.5v-2.3l-.1,-2.3v.1l-.3,-2.3l-.2,-2.3l-.9,-4.5l-1.1,-4.7l-3.1,-10.8l-3.3,-11.3l-1.2,-4.7l-1,-4.2l-.6,-3.8l-.4,-3.5v-.1L257,361l.3,-3.2v-.1l.6,-3.3l1,-3.3l1.3,-3.6h.1l1.9,-3.9l2.1,-4.4l2.5,-4.8l6.4,-11.6l6.6,-11.6l2.5,-4.9v.1l2.1,-4.4l1.9,-4h-.1l1.3,-3.9l1.1,-3.7v.1l.8,-3.9l.3,-3.8l.1,-4.2l-.1,-4.6v.1l-.5,-5.1l-.6,-5.7l-1,-6.4l-2.4,-15.5l.7,-.1Z" class="g0_1003"/>
<path d="M265.9,444.3l-2.4,7.8l-2.8,9v.1l-3.6,10.1l-4.2,11.8l-.7,-.3l4.2,-11.7L260,460.9l2.8,-9l2.4,-7.8l.7,.2Z" class="g0_1003"/>
<path d="M242.4,511.5l-.1,.3l-.8,-.2l.1,-.4l.8,.3Z" class="g0_1003"/>
<path d="M252.9,483.1l-.7,-.3l-10.6,28.4l.8,.3l10.5,-28.4Z" class="g0_1003"/>
<path d="M181.6,538.2h38.9v27.5H181.6V538.2Z" class="g3_1003"/>
<path d="M181.6,537.9h39.3v.7H181.6v-.7Z" class="g0_1003"/>
<path d="M220.2,538.2h.7v27.9h-.7V538.2Z" class="g0_1003"/>
<path d="M181.2,565.4h39.3v.7H181.2v-.7Z" class="g0_1003"/>
<path d="M181.2,537.9h.8v27.8h-.8V537.9Z" class="g0_1003"/>
<path d="M196.4,520.2l4,-.6h1l-.2,1l-2,14.5l-.4,2.7l-1,-2.5l-5.9,-13.4l-.5,-.9l1,-.2l.8,.5l6,13.4l-1.4,.6l-.1,-.4l2,-14.6l1.5,.3l-.6,.6l-4,.5l-.2,-1.5Z" class="g0_1003"/>
<path d="M192.4,520.8l4,-.6l.2,1.5l-4,.7l-.2,-1.6Z" class="g0_1003"/>
<path fill-rule="evenodd" d="M196.5,520.9l4,-.5l-2,14.5l-6,-13.3l4,-.7Z" class="g0_1003"/>
<path d="M176.4,376.4V376l-.8,.1v.4l.8,-.1Z" class="g0_1003"/>
<path d="M177.1,382.1v.3l-.7,.1v-.4h.7Z" class="g0_1003"/>
<path d="M176.4,376.4l-.8,.1l.8,5.6h.7l-.7,-5.7Z" class="g0_1003"/>
<path fill-rule="evenodd" d="M178.5,391.6v-.4l-.8,.1v.4l.8,-.1Z" class="g0_1003"/>
<path fill-rule="evenodd" d="M180,402.6v.4h-.7v-.3l.7,-.1Z" class="g0_1003"/>
<path fill-rule="evenodd" d="M178.5,391.6l-.8,.1l1.6,11l.7,-.1l-1.5,-11Z" class="g0_1003"/>
<path fill-rule="evenodd" d="M181.4,412.1v-.4l-.7,.1v.4l.7,-.1Z" class="g0_1003"/>
<path fill-rule="evenodd" d="M183,423v.4l-.8,.1v-.4l.8,-.1Z" class="g0_1003"/>
<path fill-rule="evenodd" d="M181.4,412.1l-.7,.1l1.5,10.9l.8,-.1l-1.6,-10.9Z" class="g0_1003"/>
<path fill-rule="evenodd" d="M184.3,432.6v-.4l-.7,.1v.3h.7Z" class="g0_1003"/>
<path fill-rule="evenodd" d="M185.9,443.6v.3l-.7,.1v-.4h.7Z" class="g0_1003"/>
<path fill-rule="evenodd" d="M184.3,432.6h-.7l1.6,11h.7l-1.6,-11Z" class="g0_1003"/>
<path fill-rule="evenodd" d="M187.2,453.1v-.4l-.8,.1v.4l.8,-.1Z" class="g0_1003"/>
<path fill-rule="evenodd" d="M188.7,464v.4l-.7,.1v-.4l.7,-.1Z" class="g0_1003"/>
<path fill-rule="evenodd" d="M187.2,453.1l-.8,.1l1.6,10.9l.7,-.1l-1.5,-10.9Z" class="g0_1003"/>
<path fill-rule="evenodd" d="M190.1,473.5v-.3l-.7,.1v.3l.7,-.1Z" class="g0_1003"/>
<path fill-rule="evenodd" d="M191.7,484.5v.4l-.8,.1v-.4l.8,-.1Z" class="g0_1003"/>
<path fill-rule="evenodd" d="M190.1,473.5l-.7,.1l1.5,11l.8,-.1l-1.6,-11Z" class="g0_1003"/>
<path fill-rule="evenodd" d="M193,494.1v-.4l-.7,.1v.4l.7,-.1Z" class="g0_1003"/>
<path fill-rule="evenodd" d="M194.6,505v.3l-.7,.1v-.3l.7,-.1Z" class="g0_1003"/>
<path fill-rule="evenodd" d="M193,494.1l-.7,.1l1.6,10.9l.7,-.1L193,494.1Z" class="g0_1003"/>
<path d="M196,514.5v-.4l-.8,.1v.4l.8,-.1Z" class="g0_1003"/>
<path d="M196.7,520.2v.4H196v-.3l.7,-.1Z" class="g0_1003"/>
<path d="M196,514.5l-.8,.1l.8,5.7l.7,-.1l-.7,-5.7Z" class="g0_1003"/>
<path d="M146.4,525l2.9,2.7l.7,.7l-.9,.6l-12.6,7.4l-2.3,1.3l1.2,-2.3l6.8,-13l.5,-.9l.8,.6v.9l-6.7,13l-1.4,-.6l.4,-.4l12.6,-7.4l.7,1.4l-.9,-.1l-2.9,-2.8l1.1,-1.1Z" class="g0_1003"/>
<path d="M143.5,522.1l2.9,2.9l-1.1,1.1l-2.9,-2.8l1.1,-1.2Z" class="g0_1003"/>
<path fill-rule="evenodd" d="M145.8,525.5l3,2.8l-12.7,7.4l6.8,-13l2.9,2.8Z" class="g0_1003"/>
<path d="M139.3,455.6l-.2,-.2l-.4,.6l.3,.2l.3,-.6Z" class="g0_1003"/>
<path d="M139.3,455.6l4.9,2.9l3.7,2.4l2.8,1.9l1,.9l.9,.8v.1l.8,.9l.7,.9l.4,.9v.1l.5,1l.8,2.3l.9,3l1.4,5.3l.8,3.6v.1l.5,3.4l.6,4.9l.4,4.9v1.7l-.1,1.6v.1l-.3,1.6l-.4,1.9l-1.7,5.1v.1l-1.4,4l-.8,1.8l-1,1.7l-1.3,1.9v.1l-1.7,2.1l-.5,-.4l1.6,-2.1l1.3,-2l1,-1.7v.1l.7,-1.7h-.1l1.5,-4.1l1.7,-5.1l.4,-1.8l.3,-1.6l.1,-1.6v-1.7v.1l-.5,-4.9l-.5,-4.9l-.5,-3.4l-.8,-3.6l-1.5,-5.3l-.8,-3v.1l-.8,-2.3h.1l-.5,-1l-.5,-1v.1l-.6,-.9l-.7,-.8h.1l-1,-.8l-1,-.9l-2.7,-1.9l-3.7,-2.4L139,456.2l.3,-.6Z" class="g0_1003"/>
<path d="M151.7,519.6l-2.2,2.5l-.5,-.4l2.2,-2.5l.5,.4Z" class="g0_1003"/>
<path d="M146.7,525.2l-.2,.3l-.6,-.5l.2,-.2l.6,.4Z" class="g0_1003"/>
<path d="M149.5,522.1l-.5,-.4l-2.9,3.1l.6,.4l2.8,-3.1Z" class="g0_1003"/>
</svg>