<?xml version="1.0" encoding="UTF-8" standalone="no"?>
<!DOCTYPE svg PUBLIC "-//W3C//DTD SVG 1.1//EN"
"http://www.w3.org/Graphics/SVG/1.1/DTD/svg11.dtd">
<svg viewBox="0 0 935 1210" version="1.1" xmlns="http://www.w3.org/2000/svg" xmlns:xlink="http://www.w3.org/1999/xlink">
<defs>
<style type="text/css"><![CDATA[
.g0_273{
fill: #FFF;
}
.g1_273{
fill: #000;
}
]]></style>
</defs>
<path d="M68.9,1149.3H852.7v-21.2H68.9v21.2Z" class="g0_273"/>
<path d="M171.3,383.1h.8V156.2h-.8V383.1Z" class="g1_273"/>
<path d="M750.7,383.1h.7V156.2h-.7V383.1Z" class="g1_273"/>
<path d="M171.3,156.2H751.4v-.7H171.3v.7Z" class="g1_273"/>
<path d="M171.3,383.8H751.4v-.7H171.3v.7Z" class="g1_273"/>
<path d="M171.3,836.3h.8V613h-.8V836.3Z" class="g1_273"/>
<path d="M750.7,836.3h.7V613h-.7V836.3Z" class="g1_273"/>
<path d="M171.3,613H751.4v-.8H171.3v.8Z" class="g1_273"/>
<path d="M171.3,837H751.4v-.7H171.3v.7Z" class="g1_273"/>
<path d="M464.1,270.5H680.5V243H464.1v27.5Z" class="g0_273"/>
<path d="M464.1,243.4H680.9v-.8H464.1v.8Z" class="g1_273"/>
<path d="M680.2,270.9h.7V243h-.7v27.9Z" class="g1_273"/>
<path d="M463.7,270.9H680.5v-.8H463.7v.8Z" class="g1_273"/>
<path d="M463.7,270.5h.8V242.6h-.8v27.9Z" class="g1_273"/>
<path d="M240.4,204.2H464.1V176.7H240.4v27.5Z" class="g0_273"/>
<path d="M240.4,177.1H464.5v-.7H240.4v.7Z" class="g1_273"/>
<path d="M463.7,204.6h.8V176.7h-.8v27.9Z" class="g1_273"/>
<path d="M240.1,204.6h224v-.7h-224v.7Z" class="g1_273"/>
<path d="M240.1,204.2h.7V176.4h-.7v27.8Z" class="g1_273"/>
<path d="M464.1,204.2H680.5V176.7H464.1v27.5Z" class="g0_273"/>
<path d="M464.1,177.1H680.9v-.7H464.1v.7Z" class="g1_273"/>
<path d="M680.2,204.6h.7V176.7h-.7v27.9Z" class="g1_273"/>
<path d="M463.7,204.6H680.5v-.7H463.7v.7Z" class="g1_273"/>
<path d="M463.7,204.2h.8V176.4h-.8v27.8Z" class="g1_273"/>
<path d="M239.4,369.2H460.3V341.7H239.4v27.5Z" class="g0_273"/>
<path d="M239.4,342.1H460.6v-.7H239.4v.7Z" class="g1_273"/>
<path d="M459.9,369.6h.7V341.7h-.7v27.9Z" class="g1_273"/>
<path d="M239.1,369.6H460.3v-.7H239.1v.7Z" class="g1_273"/>
<path d="M239.1,369.2h.7V341.4h-.7v27.8Z" class="g1_273"/>
<path d="M459.9,369.2H679.5V341.7H459.9v27.5Z" class="g0_273"/>
<path d="M459.9,342.1h220v-.7h-220v.7Z" class="g1_273"/>
<path d="M679.2,369.6h.7V341.7h-.7v27.9Z" class="g1_273"/>
<path d="M459.5,369.6h220v-.7h-220v.7Z" class="g1_273"/>
<path d="M459.5,369.2h.8V341.4h-.8v27.8Z" class="g1_273"/>
<path d="M566,282.8h.8V281H566v1.8Z" class="g1_273"/>
<path d="M566.1,282.1l2.9,-1l1.4,-.6l-.4,1.6l-2.9,9.6l-.7,2.5l-3.5,-12.1l-.4,-1.6l1.4,.6l.5,.5l2.7,9.6l-1.4,.5v-.5l2.8,-9.6l1.5,.5l-.5,.4l-2.8,1Z" class="g1_273"/>
<path d="M563.9,281.1l2.8,1v1.4l-.3,.1l-.3,-.1l-2.7,-1Z" class="g1_273"/>
<path fill-rule="evenodd" d="M566.4,282.8l2.8,-1l-2.8,9.6l-2.7,-9.6Z" class="g1_273"/>
<path d="M566,204.2h.8v-.3H566v.3Z" class="g1_273"/>
<path d="M566,281.3h.8V204.2H566v77.1Z" class="g1_273"/>
<path d="M582.4,281.8h.7v-1.9h-.7v1.9Z" class="g1_273"/>
<path d="M582.4,281.1l2.8,-1.1l1.5,-.6l-.5,1.7l-2.9,9.6l-.9,2.5l-.6,-2.5L579.2,281l-.4,-1.6l1.4,.6l.5,.5l2.6,9.7l-1.5,.5v-.5l2.9,-9.6l1.5,.5l-.5,.4l-2.7,1Z" class="g1_273"/>
<path d="M580.2,279.9L583,281v1.5l-.3,.1l-.3,-.1l-2.7,-1.1Z" class="g1_273"/>
<path fill-rule="evenodd" d="M582.7,281.8l2.8,-1l-3,9.6L580,280.7Z" class="g1_273"/>
<path d="M582.5,271.3h.8V271h-.8v.3Z" class="g1_273"/>
<path d="M582.4,280.3h.7v-.4h-.7v.4Z" class="g1_273"/>
<path d="M583.3,271.3h-.8l-.1,8.6h.7Z" class="g1_273"/>
<path d="M594.7,304.4l-.1,-1.4l-.2,-1.3l.1,.1l-.6,-1.3l-.6,-1.3v.1l-.9,-1.2L591.3,297h.1l-1.2,-1.1v.1l-2.7,-1.8l-1.7,-.9h.1l-1.6,-.6l-1.9,-.6l-1.9,-.5h.1l-1.9,-.3l-2.1,-.3h-4.2h.1l-4.1,.6l-1.8,.5h.1l-1.8,.6l-1.7,.6l-1.6,.9l-1.5,.9h.1l-1.3,.9v-.1l-1.2,1.1l-1,1.1l-.9,1.2l.1,-.1l-.8,1.3l-.4,1.3v-.1l-.3,1.3l-.2,1.5v-.1l.2,1.4v-.1l.3,1.4l.4,1.3v-.1l.8,1.3h-.1l.9,1.2l1,1.1v-.1l1.2,1.1l1.3,1h-.1l1.5,.8l-.4,.6l-1.5,-.8v-.1l-1.3,-1l-1.2,-1h-.1l-1,-1.2l-.9,-1.2v-.1l-.7,-1.3h-.1l-.5,-1.2v-.1c-.7,-2.7,-.4,-4.5,.5,-7.1l.1,-.1l.7,-1.3c2,-2.8,4.5,-4.7,7.6,-6.1h.1l1.7,-.6V292l1.8,-.7l1.8,-.4h.1l4.1,-.6h4.3l2.1,.3l1.9,.3l1.9,.4h.1l1.9,.7v.1l1.6,.6c3.4,1.7,5.4,3,7.6,6.1h.1l.7,1.3v.1l.5,1.3l.3,1.4v.1l.1,1.4Z" class="g1_273"/>
<path d="M561.6,314.7l1.6,.8l1.7,.8l-.1,-.1l1.8,.5l1.8,.5l2,.3l2.1,.2h-.1l2.1,.1l2.1,-.1l2.1,-.2l1.9,-.3h-.1l1.9,-.5l1.9,-.5v.1l1.6,-.8h-.1l1.7,-.8l1.4,-.8l1.3,-1l1.2,-1.1l-.1,.1l1.1,-1.2l.9,-1.1l.6,-1.3v.1l.6,-1.3h-.1l.2,-1.4v.1l.1,-1.4h.8v.1l-.1,1.4c-.6,4.7,-5.1,8.4,-9.2,10.3l-1.6,.7h-.1c-6.7,2.3,-15.2,2.3,-21.6,-.7h-.1l-1.6,-.9Z" class="g1_273"/>
<path d="M575,329.7h.8V328H575v1.7Z" class="g1_273"/>
<path d="M575.1,329l2.8,-1l1.4,-.7l-.4,1.7l-2.8,9.7l-.7,2.6l-.7,-2.6L571.9,329l-.4,-1.6l1.4,.6l.5,.5l2.7,9.8l-1.4,.4v-.4l2.7,-9.8l1.5,.5l-.5,.5l-2.7,1Z" class="g1_273"/>
<path d="M572.9,328l2.8,1v1.5h-.6l-2.7,-1Z" class="g1_273"/>
<path fill-rule="evenodd" d="M575.4,329.7l2.7,-1l-2.7,9.7l-2.8,-9.7Z" class="g1_273"/>
<path d="M575,317.2h.8v-.4H575v.4Z" class="g1_273"/>
<path d="M575,328.3h.8V317.2H575v11.1Z" class="g1_273"/>
<path d="M240.4,270.5H464.1V243H240.4v27.5Z" class="g0_273"/>
<path d="M240.4,243.4H464.5v-.8H240.4v.8Z" class="g1_273"/>
<path d="M463.7,270.9h.8V243h-.8v27.9Z" class="g1_273"/>
<path d="M240.1,270.9h224v-.8h-224v.8Z" class="g1_273"/>
<path d="M240.1,270.5h.7V242.6h-.7v27.9Z" class="g1_273"/>
<path d="M339.5,283.5h.8v-1.7h-.8v1.7Z" class="g1_273"/>
<path d="M339.6,282.8l2.9,-1l1.4,-.6l-.4,1.6l-2.9,9.7l-.7,2.6l-.7,-2.6l-2.8,-9.7l-.4,-1.6l1.4,.6l.5,.5l2.7,9.7l-1.4,.5V292l2.8,-9.7l1.5,.5l-.5,.4l-2.8,1.1Z" class="g1_273"/>
<path d="M337.4,281.8l2.8,1v1.5h-.6l-2.7,-1Z" class="g1_273"/>
<path fill-rule="evenodd" d="M339.9,283.5l2.8,-1l-2.8,9.7l-2.8,-9.7Z" class="g1_273"/>
<path d="M339.5,205h.8v-.4h-.8v.4Z" class="g1_273"/>
<path d="M339.5,282.1h.8V205h-.8v77.1Z" class="g1_273"/>
<path d="M355.9,282.5h.7v-1.7h-.7v1.7Z" class="g1_273"/>
<path d="M355.9,281.8l2.8,-.9l1.5,-.7l-.5,1.7l-2.9,9.6l-.9,2.6l-.6,-2.6l-2.6,-9.8l-.4,-1.6l1.4,.6l.5,.5l2.6,9.8l-1.5,.5V291l2.9,-9.6l1.5,.5l-.5,.4l-2.7,1Z" class="g1_273"/>
<path d="M353.7,280.7l2.8,1.1v1.4l-.3,.1l-.3,-.1l-2.7,-1.1Z" class="g1_273"/>
<path fill-rule="evenodd" d="M356.2,282.5l2.8,-.9l-3,9.6l-2.5,-9.8Z" class="g1_273"/>
<path d="M356,272.1h.8v-.4H356v.4Z" class="g1_273"/>
<path d="M355.9,281.1h.7v-.3h-.7v.3Z" class="g1_273"/>
<path d="M356.8,272.1H356l-.1,8.7h.7Z" class="g1_273"/>
<path d="M368.2,305.2l-.1,-1.3l-.2,-1.4l.1,.1l-.6,-1.4l-.6,-1.2v.1l-1,-1.2l-1,-1.2h.1l-1.2,-1l-1.2,-1v.1l-1.5,-.9h.1l-3.3,-1.5l-1.9,-.5l-1.9,-.5h.1l-1.9,-.4l-2.1,-.1l-2.1,-.1l-2.1,.1h.1l-2.1,.1l-1.9,.4l-1.9,.5l-1.8,.5l-3.3,1.5l-1.4,.9l.1,-.1l-1.3,1l-1.2,1l-1,1.2l-.9,1.2l.1,-.1l-.7,1.2l-.5,1.4v-.1l-.3,1.4l-.2,1.3l.2,1.3v-.1l.3,1.4l.5,1.4v-.1l.7,1.2l.9,1.3h-.1l1,1.1v-.1l1.2,1l1.3,1h-.1l1.4,.9l-.2,.7h-.1l-1.5,-1v-.1l-1.3,-1l-1.2,-1h-.1l-1,-1.1l-.9,-1.3l-.6,-1.2l-.6,-1.4l-.1,-.1l-.2,-1.4l-.2,-1.4l.2,-1.4v-.1l.2,-1.4h.1l.6,-1.4v-.1l.6,-1.1l.9,-1.2l1,-1.2l.1,-.1l1.2,-1l1.3,-1l1.5,-1h.1l3.3,-1.4v-.1l1.8,-.6c8.8,-2.5,22.1,-.7,27.4,7.6h.1l.6,1.1v.1l.6,1.4l.3,1.4v.1l.1,1.4Z" class="g1_273"/>
<path d="M335,315.5l3.3,1.5v-.1l1.8,.5l1.9,.5l1.9,.4l2.1,.2h-.1h4.2l2.1,-.2l1.9,-.4H354l1.9,-.5l1.9,-.5v.1l3.3,-1.5H361l1.5,-.9l1.2,-1l1.2,-1l-.1,.1l1,-1.1l1,-1.3l.6,-1.2v.1l.5,-1.4l.2,-1.4v.1l.1,-1.3v.1l.8,-.1v.1l-.1,1.3l-.3,1.4v.1l-.6,1.4l-.6,1.2v.1l-.9,1.2h-.1c-6.6,7.9,-21.1,9,-30,4.9l-1.6,-.7Z" class="g1_273"/>
<path d="M348.5,330.5h.7v-1.8h-.7v1.8Z" class="g1_273"/>
<path d="M348.6,329.8l2.8,-1l1.4,-.6l-.4,1.6L348.9,342l-3.5,-12.2l-.5,-1.5l1.5,.5l.5,.6l2.7,9.6l-1.5,.4V339l2.8,-9.6l1.5,.4l-.5,.5l-2.7,1Z" class="g1_273"/>
<path d="M346.4,328.8l2.8,1v1.5l-.3,.1l-.3,-.1l-2.7,-1Z" class="g1_273"/>
<path fill-rule="evenodd" d="M348.9,330.5l2.7,-1l-2.7,9.7l-2.8,-9.7Z" class="g1_273"/>
<path d="M348.5,317.9h.7v-.4h-.7v.4Z" class="g1_273"/>
<path d="M348.5,329.1h.7V317.9h-.7v11.2Z" class="g1_273"/>
<path d="M465.2,724.7H681.6V697.2H465.2v27.5Z" class="g0_273"/>
<path d="M465.2,697.6H682v-.8H465.2v.8Z" class="g1_273"/>
<path d="M681.3,725.1h.7V697.2h-.7v27.9Z" class="g1_273"/>
<path d="M464.8,725.1H681.6v-.8H464.8v.8Z" class="g1_273"/>
<path d="M464.8,724.7h.8V696.8h-.8v27.9Z" class="g1_273"/>
<path d="M241.6,658.4H465.2V630.9H241.6v27.5Z" class="g0_273"/>
<path d="M241.6,631.2h224v-.7h-224v.7Z" class="g1_273"/>
<path d="M464.8,658.7h.8V630.9h-.8v27.8Z" class="g1_273"/>
<path d="M241.3,658.7H465.2V658H241.3v.7Z" class="g1_273"/>
<path d="M241.3,658.4h.7V630.5h-.7v27.9Z" class="g1_273"/>
<path d="M465.2,658.4H681.6V630.9H465.2v27.5Z" class="g0_273"/>
<path d="M465.2,631.2H682v-.7H465.2v.7Z" class="g1_273"/>
<path d="M681.3,658.7h.7V630.9h-.7v27.8Z" class="g1_273"/>
<path d="M464.8,658.7H681.6V658H464.8v.7Z" class="g1_273"/>
<path d="M464.8,658.4h.8V630.5h-.8v27.9Z" class="g1_273"/>
<path d="M240.6,823.4H461.4V795.8H240.6v27.6Z" class="g0_273"/>
<path d="M240.6,796.2H461.8v-.7H240.6v.7Z" class="g1_273"/>
<path d="M461.1,823.7h.7V795.9h-.7v27.8Z" class="g1_273"/>
<path d="M240.3,823.7H461.4V823H240.3v.7Z" class="g1_273"/>
<path d="M240.3,823.4h.7V795.5h-.7v27.9Z" class="g1_273"/>
<path d="M461,823.4H680.6V795.8H461v27.6Z" class="g0_273"/>
<path d="M461,796.2H681v-.7H461v.7Z" class="g1_273"/>
<path d="M680.3,823.7h.7V795.9h-.7v27.8Z" class="g1_273"/>
<path d="M460.6,823.7h220V823h-220v.7Z" class="g1_273"/>
<path d="M460.6,823.4h.8V795.5h-.8v27.9Z" class="g1_273"/>
<path d="M567.2,736.9h.8v-1.7h-.8v1.7Z" class="g1_273"/>
<path d="M567.3,736.2l2.8,-1l1.4,-.7l-.4,1.7l-2.8,9.7l-.7,2.6l-.7,-2.6l-2.8,-9.7l-.4,-1.6l1.4,.6l.5,.5l2.7,9.7l-1.4,.5v-.5l2.7,-9.7l1.5,.5l-.5,.4l-2.7,1Z" class="g1_273"/>
<path d="M565.1,735.2l2.8,1v1.4l-.3,.1l-.3,-.1l-2.7,-1Z" class="g1_273"/>
<path fill-rule="evenodd" d="M567.6,736.9l2.7,-1l-2.7,9.7l-2.7,-9.7Z" class="g1_273"/>
<path d="M567.2,658.4h.8V658h-.8v.4Z" class="g1_273"/>
<path d="M567.2,735.5h.8V658.4h-.8v77.1Z" class="g1_273"/>
<path d="M581.7,734.1h.8v-1.8h-.8v1.8Z" class="g1_273"/>
<path d="M581.8,733.3l2.8,-1l1.4,-.6l-.4,1.6l-2.8,9.7l-.7,2.6l-.7,-2.6l-2.8,-9.7l-.5,-1.5l1.5,.5l.5,.6l2.7,9.7l-1.4,.4v-.4l2.7,-9.7l1.5,.4l-.5,.5l-2.7,1Z" class="g1_273"/>
<path d="M579.6,732.3l2.8,1v1.5l-.3,.1l-.3,-.1l-2.7,-1Z" class="g1_273"/>
<path fill-rule="evenodd" d="M582.1,734.1l2.7,-1l-2.7,9.7l-2.8,-9.7Z" class="g1_273"/>
<path d="M581.7,724.3h.8V724h-.8v.3Z" class="g1_273"/>
<path d="M581.7,732.7h.8v-8.4h-.8v8.4Z" class="g1_273"/>
<path d="M595.9,758.6l-.1,-1.3l-.2,-1.4l.1,.1l-.6,-1.3l-.7,-1.3v.1l-.9,-1.2l-1,-1.2h.1l-1.2,-1l-1.3,-1v.1l-1.5,-.9h.1l-1.6,-.8l-1.7,-.7l-1.8,-.5l-1.9,-.5h.1l-2,-.4l-2,-.2h-4.2h.1l-2.1,.2l-2,.4l-1.9,.5l-1.7,.5l-1.7,.7l-1.6,.8l-1.4,.9l.1,-.1l-1.4,1l-1.2,1l-1,1.2h.1l-.8,1.2v-.1l-.8,1.3l-.4,1.3v-.1l-.4,1.4l-.1,1.3v-.1l.1,1.5v-.1l.4,1.3l.4,1.4v-.1l.8,1.3l.8,1.2h-.1l1,1.1V766l1.2,1.1h-.1l1.4,.9l1.4,.9l-.3,.6l-1.5,-.9l-1.4,-.9v-.1l-1.2,-1.1h-.1l-1,-1.1l-.8,-1.2v-.1l-.7,-1.2h-.1l-.5,-1.4v-.1c-.8,-2.3,-.5,-4.8,.5,-7l.1,-.1l.7,-1.3l.8,-1.2l1,-1.1l.1,-.1l1.2,-1l1.4,-1.1l1.5,-.9h.1l1.5,-.7l1.8,-.7v-.1l1.7,-.6c8.4,-2.5,20.9,-.8,26.6,6.3h.1l.8,1.2c.7,1.2,1.5,2.8,1.6,4.2l.1,1.3Z" class="g1_273"/>
<path d="M562.7,768.9l1.6,.8v-.1l1.7,.7l1.7,.5l1.9,.5l2,.3l2.1,.2h-.1l2.1,.1l2.1,-.1l2,-.2l2,-.3h-.1l1.9,-.5l1.8,-.5l1.7,-.7l-.1,.1l1.6,-.8l1.5,-.9l1.3,-.9l1.2,-1.1l-.1,.1l1,-1.1l.9,-1.2l.7,-1.3v.1l.6,-1.4h-.1l.2,-1.3v.1l.1,-1.5v.1l.8,-.1l-.1,1.5v.1l-.3,1.3v.1l-.6,1.4l-.7,1.2v.1l-.8,1.2h-.1l-1,1.1c-3,3,-7.1,4.7,-11.2,5.5l-2,.4l-2,.2c-4.7,.3,-9.5,-.5,-13.9,-2.2h-.1l-1.5,-.9Z" class="g1_273"/>
<path d="M576.2,787.3h.8v-1.7h-.8v1.7Z" class="g1_273"/>
<path d="M576.3,786.6l2.8,-1l1.4,-.7l-.4,1.7l-2.8,9.7l-.7,2.5l-.7,-2.5L573,786.6l-.4,-1.6l1.4,.6l.5,.5l2.8,9.7l-1.4,.5v-.5l2.7,-9.7l1.5,.5l-.5,.4l-2.7,1.1Z" class="g1_273"/>
<path d="M574,785.6l2.9,1v1.5l-.3,.1l-.3,-.1l-2.8,-1Z" class="g1_273"/>
<path fill-rule="evenodd" d="M576.6,787.3l2.7,-1l-2.7,9.7l-2.9,-9.7Z" class="g1_273"/>
<path d="M576.2,771.3h.8v-.4h-.8v.4Z" class="g1_273"/>
<path d="M576.2,786h.8V771.3h-.8V786Z" class="g1_273"/>
<path d="M241.6,724.7H465.2V697.2H241.6v27.5Z" class="g0_273"/>
<path d="M241.6,697.6h224v-.8h-224v.8Z" class="g1_273"/>
<path d="M464.8,725.1h.8V697.2h-.8v27.9Z" class="g1_273"/>
<path d="M241.3,725.1H465.2v-.8H241.3v.8Z" class="g1_273"/>
<path d="M241.3,724.7h.7V696.8h-.7v27.9Z" class="g1_273"/>
<path d="M345.4,783.8h.7v-1.7h-.7v1.7Z" class="g1_273"/>
<path d="M345.5,783.1l2.7,-1l1.5,-.6l-.4,1.6l-2.8,9.7l-.7,2.6l-.8,-2.6l-2.7,-9.7l-.5,-1.5l1.5,.5l.5,.6l2.7,9.7l-1.5,.4v-.4l2.8,-9.7l1.5,.4l-.5,.5l-2.8,1Z" class="g1_273"/>
<path d="M343.3,782.1l2.7,1v1.5l-.2,.1l-.3,-.1l-2.8,-1Z" class="g1_273"/>
<path fill-rule="evenodd" d="M345.8,783.8l2.7,-1l-2.7,9.8L343,782.8Z" class="g1_273"/>
<path d="M345.4,657.8h.7v-.4h-.7v.4Z" class="g1_273"/>
<path d="M345.4,782.5h.7V657.8h-.7V782.5Z" class="g1_273"/>
</svg>