<?xml version="1.0" encoding="UTF-8" standalone="no"?>
<!DOCTYPE svg PUBLIC "-//W3C//DTD SVG 1.1//EN"
"http://www.w3.org/Graphics/SVG/1.1/DTD/svg11.dtd">
<svg viewBox="0 0 935 1210" version="1.1" xmlns="http://www.w3.org/2000/svg" xmlns:xlink="http://www.w3.org/1999/xlink">
<defs>
<style type="text/css"><![CDATA[
.g0_587{
fill: #FFF;
}
.g1_587{
fill: #000;
}
]]></style>
</defs>
<path d="M68.9,1149.3H852.7v-21.2H68.9v21.2Z" class="g0_587"/>
<path d="M69.3,818.6H70V202h-.7V818.6Z" class="g1_587"/>
<path d="M209,819.3h.7v-618H209v618Z" class="g1_587"/>
<path d="M245.7,819.3h.7v-618h-.7v618Z" class="g1_587"/>
<path d="M287.7,819.3h.7v-618h-.7v618Z" class="g1_587"/>
<path d="M327,819.3h.7v-618H327v618Z" class="g1_587"/>
<path d="M362.5,819.3h.8v-618h-.8v618Z" class="g1_587"/>
<path d="M852.7,818.6h.7V202h-.7V818.6Z" class="g1_587"/>
<path d="M69.3,202H853.4v-.7H69.3v.7Z" class="g1_587"/>
<path d="M69.3,305.9H853.4v-.7H69.3v.7Z" class="g1_587"/>
<path d="M209,330.4H853.4v-.8H209v.8Z" class="g1_587"/>
<path d="M209,449.5H853.4v-.7H209v.7Z" class="g1_587"/>
<path d="M209,474H853.4v-.7H209v.7Z" class="g1_587"/>
<path d="M209,498.5H853.4v-.8H209v.8Z" class="g1_587"/>
<path d="M69.3,522.9H853.4v-.8H69.3v.8Z" class="g1_587"/>
<path d="M69.3,564.1H853.4v-.7H69.3v.7Z" class="g1_587"/>
<path d="M209,588.6H853.4v-.7H209v.7Z" class="g1_587"/>
<path d="M69.3,629.8H853.4v-.7H69.3v.7Z" class="g1_587"/>
<path d="M209,671.1H853.4v-.7H209v.7Z" class="g1_587"/>
<path d="M209,695.6H853.4v-.8H209v.8Z" class="g1_587"/>
<path d="M69.3,736.8H853.4v-.7H69.3v.7Z" class="g1_587"/>
<path d="M69.3,778.1H853.4v-.8H69.3v.8Z" class="g1_587"/>
<path d="M69.3,819.3H853.4v-.7H69.3v.7Z" class="g1_587"/>
</svg>