<?xml version="1.0" encoding="UTF-8" standalone="no"?>
<!DOCTYPE svg PUBLIC "-//W3C//DTD SVG 1.1//EN"
"http://www.w3.org/Graphics/SVG/1.1/DTD/svg11.dtd">
<svg viewBox="0 0 935 1210" version="1.1" xmlns="http://www.w3.org/2000/svg" xmlns:xlink="http://www.w3.org/1999/xlink">
<defs>
<clipPath id="c0_964"><path d="M97.3,59.2V41.4h72.1V59.2Z"/></clipPath>
<style type="text/css"><![CDATA[
.g0_964{
fill: #000;
}
]]></style>
</defs>
<path d="M96.2,62.9v.3H838.7v-.3H96.2Z" class="g0_964"/>
<path d="M96.2,1114.1h-.1v.3h.1v-.3Z" class="g0_964"/>
<path d="M838.7,1114.1h.2v.3h-.2v-.3Z" class="g0_964"/>
<path d="M96.2,1114.1v.3H838.7v-.3H96.2Z" class="g0_964"/>
<image clip-path="url(#c0_964)" preserveAspectRatio="none" x="97" y="41" width="72" height="18" xlink:href="img/1.jpg"/>
<path d="M258.1,197.4h-.7V318.9h.7V197.4Z" class="g0_964"/>
<path d="M308.5,196.7h-.7V319.6h.7V196.7Z" class="g0_964"/>
<path d="M677.6,197.4h-.8V318.9h.8V197.4Z" class="g0_964"/>
<path d="M257.4,196.7v.7H677.6v-.7H257.4Z" class="g0_964"/>
<path d="M257.4,221.1v.7H677.6v-.7H257.4Z" class="g0_964"/>
<path d="M257.4,245.6v.7H677.6v-.7H257.4Z" class="g0_964"/>
<path d="M257.4,270v.8H677.6V270H257.4Z" class="g0_964"/>
<path d="M257.4,294.5v.7H677.6v-.7H257.4Z" class="g0_964"/>
<path d="M257.4,318.9v.7H677.6v-.7H257.4Z" class="g0_964"/>
</svg>