<?xml version="1.0" encoding="UTF-8" standalone="no"?>
<!DOCTYPE svg PUBLIC "-//W3C//DTD SVG 1.1//EN"
"http://www.w3.org/Graphics/SVG/1.1/DTD/svg11.dtd">
<svg viewBox="0 0 935 1210" version="1.1" xmlns="http://www.w3.org/2000/svg" xmlns:xlink="http://www.w3.org/1999/xlink">
<defs>
<style type="text/css"><![CDATA[
.g0_2003{
fill: #FFF;
}
.g1_2003{
fill: #000;
}
]]></style>
</defs>
<path d="M68.9,1149.3H755.2v-21.2H68.9v21.2Z" class="g0_2003"/>
<path d="M771.3,1149.3H855v-21.2H771.3v21.2Z" class="g0_2003"/>
<path d="M69.9,517.6h.8V125.7h-.8V517.6Z" class="g1_2003"/>
<path d="M283.8,518.3h.7V124.9h-.7V518.3Z" class="g1_2003"/>
<path d="M327.6,518.3h.8V124.9h-.8V518.3Z" class="g1_2003"/>
<path d="M399.8,518.3h.7V124.9h-.7V518.3Z" class="g1_2003"/>
<path d="M488.7,518.3h.7V124.9h-.7V518.3Z" class="g1_2003"/>
<path d="M850.9,517.6h.8V125.7h-.8V517.6Z" class="g1_2003"/>
<path d="M69.9,125.7H851.7v-.8H69.9v.8Z" class="g1_2003"/>
<path d="M69.9,179.1H851.7v-.7H69.9v.7Z" class="g1_2003"/>
<path d="M69.9,235.7H851.7v-.8H69.9v.8Z" class="g1_2003"/>
<path d="M69.9,292.1H851.7v-.7H69.9v.7Z" class="g1_2003"/>
<path d="M69.9,348.7H851.7V348H69.9v.7Z" class="g1_2003"/>
<path d="M69.9,405.3H851.7v-.8H69.9v.8Z" class="g1_2003"/>
<path d="M69.9,461.8H851.7v-.7H69.9v.7Z" class="g1_2003"/>
<path d="M69.9,518.3H851.7v-.7H69.9v.7Z" class="g1_2003"/>
<path d="M69.9,621.4h.8V573.3h-.8v48.1Z" class="g1_2003"/>
<path d="M136.4,622.2h.7V572.6h-.7v49.6Z" class="g1_2003"/>
<path d="M230.4,622.2h.7V572.6h-.7v49.6Z" class="g1_2003"/>
<path d="M384.5,622.2h.7V572.6h-.7v49.6Z" class="g1_2003"/>
<path d="M541.8,622.2h.8V572.6h-.8v49.6Z" class="g1_2003"/>
<path d="M697.1,622.2h.8V572.6h-.8v49.6Z" class="g1_2003"/>
<path d="M851.4,621.4h.7V573.3h-.7v48.1Z" class="g1_2003"/>
<path d="M69.9,573.3H852.1v-.7H69.9v.7Z" class="g1_2003"/>
<path d="M69.9,597.8H852.1V597H69.9v.8Z" class="g1_2003"/>
<path d="M69.9,622.2H852.1v-.7H69.9v.7Z" class="g1_2003"/>
</svg>