<?xml version="1.0" encoding="UTF-8" standalone="no"?>
<!DOCTYPE svg PUBLIC "-//W3C//DTD SVG 1.1//EN"
"http://www.w3.org/Graphics/SVG/1.1/DTD/svg11.dtd">
<svg viewBox="0 0 935 1210" version="1.1" xmlns="http://www.w3.org/2000/svg" xmlns:xlink="http://www.w3.org/1999/xlink">
<defs>
<style type="text/css"><![CDATA[
.g0_114{
fill: none;
stroke: #000;
stroke-width: 0.608;
stroke-miterlimit: 10;
}
.g1_114{
fill: none;
stroke: #000;
stroke-width: 1.521;
stroke-miterlimit: 10;
}
]]></style>
</defs>
<path d="M110,299.5H827.7m-717.4,21V299.8m120.3,20.7V299.8m82.6,20.7V299.8m3.6,20.7V299.8m114.3,20.7V299.8m294.4,20.7V299.8m101.9,20.7V299.8M110.3,341.2V320.5m120.3,20.7V320.5m82.6,20.7V320.5m3.6,20.7V320.5m114.3,20.7V320.5m294.4,20.7V320.5m101.9,20.7V320.5M110,341.5H827.7m-717.4,21V341.8m120.3,20.7V341.8m82.6,20.7V341.8m3.6,20.7V341.8m114.3,20.7V341.8m294.4,20.7V341.8m101.9,20.7V341.8M110.3,383.2V362.5m120.3,20.7V362.5m82.6,20.7V362.5m3.6,20.7V362.5m114.3,20.7V362.5m294.4,20.7V362.5m101.9,20.7V362.5M110.3,403.9V383.2m120.3,20.7V383.2m82.6,20.7V383.2m3.6,20.7V383.2m114.3,20.7V383.2m294.4,20.7V383.2m101.9,20.7V383.2M110,404.2H827.7m-717.4,21V404.5m120.3,20.7V404.5m82.6,20.7V404.5m3.6,20.7V404.5m114.3,20.7V404.5m294.4,20.7V404.5m101.9,20.7V404.5M110.3,445.9V425.2m120.3,20.7V425.2m82.6,20.7V425.2m3.6,20.7V425.2m114.3,20.7V425.2m294.4,20.7V425.2m101.9,20.7V425.2M110,446.2H827.7" class="g0_114"/>
<path d="M151.7,635.6H783.3" class="g1_114"/>
</svg>