<?xml version="1.0" encoding="UTF-8" standalone="no"?>
<!DOCTYPE svg PUBLIC "-//W3C//DTD SVG 1.1//EN"
"http://www.w3.org/Graphics/SVG/1.1/DTD/svg11.dtd">
<svg viewBox="0 0 935 1210" version="1.1" xmlns="http://www.w3.org/2000/svg" xmlns:xlink="http://www.w3.org/1999/xlink">
<defs>
<style type="text/css"><![CDATA[
.g0_2179{
fill: #FFF;
}
.g1_2179{
fill: #000;
}
]]></style>
</defs>
<path d="M68.9,1149.3H755.2v-21.2H68.9v21.2Z" class="g0_2179"/>
<path d="M771.3,1149.3H855v-21.2H771.3v21.2Z" class="g0_2179"/>
<path d="M69.9,719.2h.8V147h-.8V719.2Z" class="g1_2179"/>
<path d="M316.2,719.9h.7V146.3h-.7V719.9Z" class="g1_2179"/>
<path d="M359.7,719.9h.7V146.3h-.7V719.9Z" class="g1_2179"/>
<path d="M434.1,719.9h.8V146.3h-.8V719.9Z" class="g1_2179"/>
<path d="M521.9,719.9h.7V146.3h-.7V719.9Z" class="g1_2179"/>
<path d="M858.9,719.2h.7V147h-.7V719.2Z" class="g1_2179"/>
<path d="M69.9,147H859.7v-.7H69.9v.7Z" class="g1_2179"/>
<path d="M69.9,200.5H859.7v-.8H69.9v.8Z" class="g1_2179"/>
<path d="M69.9,273.8H859.7v-.7H69.9v.7Z" class="g1_2179"/>
<path d="M69.9,347.1H859.7v-.7H69.9v.7Z" class="g1_2179"/>
<path d="M69.9,420.6H859.7v-.8H69.9v.8Z" class="g1_2179"/>
<path d="M69.9,493.9H859.7v-.7H69.9v.7Z" class="g1_2179"/>
<path d="M69.9,550.4H859.7v-.8H69.9v.8Z" class="g1_2179"/>
<path d="M69.9,606.9H859.7v-.7H69.9v.7Z" class="g1_2179"/>
<path d="M69.9,663.5H859.7v-.8H69.9v.8Z" class="g1_2179"/>
<path d="M69.9,719.9H859.7v-.7H69.9v.7Z" class="g1_2179"/>
<path d="M69.9,823.2h.8V775h-.8v48.2Z" class="g1_2179"/>
<path d="M131.2,823.9h.7V774.2h-.7v49.7Z" class="g1_2179"/>
<path d="M252.9,823.9h.7V774.2h-.7v49.7Z" class="g1_2179"/>
<path d="M404.3,823.9h.8V774.2h-.8v49.7Z" class="g1_2179"/>
<path d="M557.2,823.9h.8V774.2h-.8v49.7Z" class="g1_2179"/>
<path d="M704.3,823.9h.7V774.2h-.7v49.7Z" class="g1_2179"/>
<path d="M851.4,823.2h.7V775h-.7v48.2Z" class="g1_2179"/>
<path d="M69.9,774.9H852.2v-.7H69.9v.7Z" class="g1_2179"/>
<path d="M69.9,799.4H852.2v-.7H69.9v.7Z" class="g1_2179"/>
<path d="M69.9,823.9H852.2v-.7H69.9v.7Z" class="g1_2179"/>
</svg>