<?xml version="1.0" encoding="UTF-8" standalone="no"?>
<!DOCTYPE svg PUBLIC "-//W3C//DTD SVG 1.1//EN"
"http://www.w3.org/Graphics/SVG/1.1/DTD/svg11.dtd">
<svg viewBox="0 0 935 1210" version="1.1" xmlns="http://www.w3.org/2000/svg" xmlns:xlink="http://www.w3.org/1999/xlink">
<defs>
<style type="text/css"><![CDATA[
.g0_2198{
fill: #FFF;
}
.g1_2198{
fill: #000;
}
]]></style>
</defs>
<path d="M165,1149.3H852.5v-21.2H165v21.2Z" class="g0_2198"/>
<path d="M68.8,1149.3h82.5v-21.2H68.8v21.2Z" class="g0_2198"/>
<path d="M68.6,242.6h.7V125.7h-.7V242.6Z" class="g1_2198"/>
<path d="M218.2,243.3h.7V124.9h-.7V243.3Z" class="g1_2198"/>
<path d="M387.8,243.3h.8V124.9h-.8V243.3Z" class="g1_2198"/>
<path d="M425.7,243.3h.7V124.9h-.7V243.3Z" class="g1_2198"/>
<path d="M499,243.3h.8V124.9H499V243.3Z" class="g1_2198"/>
<path d="M570.4,243.3h.8V124.9h-.8V243.3Z" class="g1_2198"/>
<path d="M848.7,242.6h.8V125.7h-.8V242.6Z" class="g1_2198"/>
<path d="M68.6,125.7H849.5v-.8H68.6v.8Z" class="g1_2198"/>
<path d="M68.6,163.8H849.5v-.7H68.6v.7Z" class="g1_2198"/>
<path d="M68.6,203.6H849.5v-.7H68.6v.7Z" class="g1_2198"/>
<path d="M68.6,243.3H849.5v-.7H68.6v.7Z" class="g1_2198"/>
<path d="M68.6,346.4h.7V298.3h-.7v48.1Z" class="g1_2198"/>
<path d="M141.1,347.2h.7V297.6h-.7v49.6Z" class="g1_2198"/>
<path d="M309.5,347.2h.7V297.6h-.7v49.6Z" class="g1_2198"/>
<path d="M488.6,347.2h.7V297.6h-.7v49.6Z" class="g1_2198"/>
<path d="M663.4,347.2h.7V297.6h-.7v49.6Z" class="g1_2198"/>
<path d="M850.8,346.4h.7V298.3h-.7v48.1Z" class="g1_2198"/>
<path d="M68.6,298.3H851.5v-.7H68.6v.7Z" class="g1_2198"/>
<path d="M68.6,322.8H851.5V322H68.6v.8Z" class="g1_2198"/>
<path d="M68.6,347.1H851.5v-.7H68.6v.7Z" class="g1_2198"/>
</svg>