<?xml version="1.0" encoding="UTF-8" standalone="no"?>
<!DOCTYPE svg PUBLIC "-//W3C//DTD SVG 1.1//EN"
"http://www.w3.org/Graphics/SVG/1.1/DTD/svg11.dtd">
<svg viewBox="0 0 935 1210" version="1.1" xmlns="http://www.w3.org/2000/svg" xmlns:xlink="http://www.w3.org/1999/xlink">
<defs>
<clipPath id="c0_1696"><path d="M766.6,59.2V41.4h72.1V59.2Z"/></clipPath>
<style type="text/css"><![CDATA[
.g0_1696{
fill: #000;
}
]]></style>
</defs>
<path d="M97.3,62.9v.3H839.9v-.3H97.3Z" class="g0_1696"/>
<path d="M96.2,1114.1h-.1v.4h.1v-.4Z" class="g0_1696"/>
<path d="M838.7,1114.1h.2v.4h-.2v-.4Z" class="g0_1696"/>
<path d="M96.2,1114.1v.4H838.7v-.4H96.2Z" class="g0_1696"/>
<image clip-path="url(#c0_1696)" preserveAspectRatio="none" x="767" y="41" width="72" height="18" xlink:href="img/1.jpg"/>
<path d="M96.6,712h-.7V832.2h.7V712Z" class="g0_1696"/>
<path d="M244.8,708.8h-.7V833h.7V708.8Z" class="g0_1696"/>
<path d="M284.5,708.8h-.7V833h.7V708.8Z" class="g0_1696"/>
<path d="M338,708.8h-.8V833h.8V708.8Z" class="g0_1696"/>
<path d="M412.9,708.8h-.8V833h.8V708.8Z" class="g0_1696"/>
<path d="M836,712h-.8V832.2h.8V712Z" class="g0_1696"/>
<path d="M95.9,708.9V712H836v-3.1H95.9Z" class="g0_1696"/>
<path d="M95.9,751.7v3.1H836v-3.1H95.9Z" class="g0_1696"/>
<path d="M95.9,792.5v.8H836v-.8H95.9Z" class="g0_1696"/>
<path d="M95.9,832.2v.8H836v-.8H95.9Z" class="g0_1696"/>
</svg>