<?xml version="1.0" encoding="UTF-8" standalone="no"?>
<!DOCTYPE svg PUBLIC "-//W3C//DTD SVG 1.1//EN"
"http://www.w3.org/Graphics/SVG/1.1/DTD/svg11.dtd">
<svg viewBox="0 0 935 1210" version="1.1" xmlns="http://www.w3.org/2000/svg" xmlns:xlink="http://www.w3.org/1999/xlink">
<defs>
<style type="text/css"><![CDATA[
.g0_4756{
fill: #FFF;
}
.g1_4756{
fill: #000;
}
]]></style>
</defs>
<path d="M68.8,1149.3H852.5v-21.2H68.8v21.2Z" class="g0_4756"/>
<path d="M68.6,1093.6h.7V124.1h-.7v969.5Z" class="g1_4756"/>
<path d="M125.3,1094.3h.7V164.6h-.7v929.7Z" class="g1_4756"/>
<path d="M182.1,1094.3h.7V123.4h-.7v970.9Z" class="g1_4756"/>
<path d="M438.4,1094.3h.7V123.4h-.7v970.9Z" class="g1_4756"/>
<path d="M531.7,1094.3h.7V123.4h-.7v970.9Z" class="g1_4756"/>
<path d="M851.6,1093.6h.7V124.1h-.7v969.5Z" class="g1_4756"/>
<path d="M68.6,124.1H852.3v-.7H68.6v.7Z" class="g1_4756"/>
<path d="M68.6,165.4H182.8v-.8H68.6v.8Z" class="g1_4756"/>
<path d="M68.6,189.8H852.3v-.7H68.6v.7Z" class="g1_4756"/>
<path d="M182.1,252.4H852.3v-.7H182.1v.7Z" class="g1_4756"/>
<path d="M182.1,315.1H852.3v-.8H182.1v.8Z" class="g1_4756"/>
<path d="M182.1,339.5H852.3v-.7H182.1v.7Z" class="g1_4756"/>
<path d="M182.1,524.4H852.3v-.7H182.1v.7Z" class="g1_4756"/>
<path d="M68.6,548.9H852.3v-.7H68.6v.7Z" class="g1_4756"/>
<path d="M182.1,661.9H852.3v-.7H182.1v.7Z" class="g1_4756"/>
<path d="M182.1,851.4H852.3v-.7H182.1v.7Z" class="g1_4756"/>
<path d="M68.6,875.8H852.3v-.7H68.6v.7Z" class="g1_4756"/>
<path d="M182.1,938.5H852.3v-.8H182.1v.8Z" class="g1_4756"/>
<path d="M68.6,1094.3H852.3v-.7H68.6v.7Z" class="g1_4756"/>
</svg>